<?xml version="1.0" encoding="UTF-8" standalone="no"?>
<!DOCTYPE svg PUBLIC "-//W3C//DTD SVG 1.1//EN"
 "http://www.w3.org/Graphics/SVG/1.1/DTD/svg11.dtd">
<!-- Generated by graphviz version 2.38.0 (20140413.2041)
 -->
<!-- Title: nars.storage.Memory.ReasonerBatch.toString Pages: 1 -->
<svg width="744pt" height="362pt"
 viewBox="0.00 0.00 744.00 361.50" xmlns="http://www.w3.org/2000/svg" xmlns:xlink="http://www.w3.org/1999/xlink">
<g id="graph0" class="graph" transform="scale(1 1) rotate(0) translate(4 357.5)">
<title>nars.storage.Memory.ReasonerBatch.toString</title>
<!-- Node1 -->
<g id="node1" class="node"><title>Node1</title>
<polygon fill="#bfbfbf" stroke="black" points="0,-169.5 0,-199.5 154,-199.5 154,-169.5 0,-169.5"/>
<text text-anchor="start" x="8" y="-187.5" font-family="Helvetica,sans-Serif" font-size="10.00">nars.storage.Memory.Reasoner</text>
<text text-anchor="middle" x="77" y="-176.5" font-family="Helvetica,sans-Serif" font-size="10.00">Batch.toString</text>
</g>
<!-- Node2 -->
<g id="node2" class="node"><title>Node2</title>
<g id="a_node2"><a xlink:href="../../d8/df4/classnars_1_1storage_1_1Memory_a1233dbd1131192889bae177fc57f4113.html#a1233dbd1131192889bae177fc57f4113" target="_top" xlink:title="nars.storage.Memory.toString">
<polygon fill="none" stroke="black" points="190,-175 190,-194 336,-194 336,-175 190,-175"/>
<text text-anchor="middle" x="263" y="-182" font-family="Helvetica,sans-Serif" font-size="10.00">nars.storage.Memory.toString</text>
</a>
</g>
</g>
<!-- Node1&#45;&gt;Node2 -->
<g id="edge1" class="edge"><title>Node1&#45;&gt;Node2</title>
<path fill="none" stroke="midnightblue" d="M154.168,-184.5C162.532,-184.5 171.077,-184.5 179.513,-184.5"/>
<polygon fill="midnightblue" stroke="midnightblue" points="179.731,-188 189.731,-184.5 179.731,-181 179.731,-188"/>
</g>
<!-- Node3 -->
<g id="node3" class="node"><title>Node3</title>
<g id="a_node3"><a xlink:href="../../d8/df4/classnars_1_1storage_1_1Memory_a33af7b3d806d32c85390563fec3c6d27.html#a33af7b3d806d32c85390563fec3c6d27" target="_top" xlink:title="Concept bag. ">
<polygon fill="none" stroke="black" points="378,-334 378,-353 545,-353 545,-334 378,-334"/>
<text text-anchor="middle" x="461.5" y="-341" font-family="Helvetica,sans-Serif" font-size="10.00">nars.storage.Memory.getConcepts</text>
</a>
</g>
</g>
<!-- Node2&#45;&gt;Node3 -->
<g id="edge2" class="edge"><title>Node2&#45;&gt;Node3</title>
<path fill="none" stroke="midnightblue" d="M268.448,-194.199C280.811,-219.99 318.251,-290.607 372,-324.5 375.344,-326.609 378.885,-328.486 382.553,-330.158"/>
<polygon fill="midnightblue" stroke="midnightblue" points="381.305,-333.429 391.889,-333.904 383.911,-326.932 381.305,-333.429"/>
</g>
<!-- Node4 -->
<g id="node4" class="node"><title>Node4</title>
<g id="a_node4"><a xlink:href="../../d8/df4/classnars_1_1storage_1_1Memory_aae366ea198c2340fef786120d5c2163b.html#aae366ea198c2340fef786120d5c2163b" target="_top" xlink:title="The selected belief. ">
<polygon fill="none" stroke="black" points="382.5,-284.5 382.5,-314.5 540.5,-314.5 540.5,-284.5 382.5,-284.5"/>
<text text-anchor="start" x="390.5" y="-302.5" font-family="Helvetica,sans-Serif" font-size="10.00">nars.storage.Memory.getCurrent</text>
<text text-anchor="middle" x="461.5" y="-291.5" font-family="Helvetica,sans-Serif" font-size="10.00">Belief</text>
</a>
</g>
</g>
<!-- Node2&#45;&gt;Node4 -->
<g id="edge3" class="edge"><title>Node2&#45;&gt;Node4</title>
<path fill="none" stroke="midnightblue" d="M272.521,-194.044C289.568,-212.55 329.864,-253.43 372,-275.5 375.548,-277.358 379.253,-279.083 383.05,-280.682"/>
<polygon fill="midnightblue" stroke="midnightblue" points="382.052,-284.05 392.641,-284.406 384.585,-277.524 382.052,-284.05"/>
</g>
<!-- Node5 -->
<g id="node5" class="node"><title>Node5</title>
<g id="a_node5"><a xlink:href="../../d8/df4/classnars_1_1storage_1_1Memory_afb74806ef37665d392a86dce2e3c6546.html#afb74806ef37665d392a86dce2e3c6546" target="_top" xlink:title="The selected TermLink. ">
<polygon fill="none" stroke="black" points="382.5,-235.5 382.5,-265.5 540.5,-265.5 540.5,-235.5 382.5,-235.5"/>
<text text-anchor="start" x="390.5" y="-253.5" font-family="Helvetica,sans-Serif" font-size="10.00">nars.storage.Memory.getCurrent</text>
<text text-anchor="middle" x="461.5" y="-242.5" font-family="Helvetica,sans-Serif" font-size="10.00">BeliefLink</text>
</a>
</g>
</g>
<!-- Node2&#45;&gt;Node5 -->
<g id="edge4" class="edge"><title>Node2&#45;&gt;Node5</title>
<path fill="none" stroke="midnightblue" d="M287.384,-194.056C309.117,-202.775 342.483,-215.749 372,-225.5 379.248,-227.895 386.876,-230.267 394.489,-232.541"/>
<polygon fill="midnightblue" stroke="midnightblue" points="393.513,-235.902 404.094,-235.365 395.487,-229.187 393.513,-235.902"/>
</g>
<!-- Node6 -->
<g id="node6" class="node"><title>Node6</title>
<g id="a_node6"><a xlink:href="../../d8/df4/classnars_1_1storage_1_1Memory_a26eda4f00b333b706b4e3d069fdf1508.html#a26eda4f00b333b706b4e3d069fdf1508" target="_top" xlink:title="The selected Task. ">
<polygon fill="none" stroke="black" points="372,-197 372,-216 551,-216 551,-197 372,-197"/>
<text text-anchor="middle" x="461.5" y="-204" font-family="Helvetica,sans-Serif" font-size="10.00">nars.storage.Memory.getCurrentTask</text>
</a>
</g>
</g>
<!-- Node2&#45;&gt;Node6 -->
<g id="edge5" class="edge"><title>Node2&#45;&gt;Node6</title>
<path fill="none" stroke="midnightblue" d="M336.054,-192.567C345.565,-193.632 355.43,-194.736 365.254,-195.836"/>
<polygon fill="midnightblue" stroke="midnightblue" points="365.134,-199.345 375.462,-196.979 365.913,-192.388 365.134,-199.345"/>
</g>
<!-- Node7 -->
<g id="node7" class="node"><title>Node7</title>
<g id="a_node7"><a xlink:href="../../d8/df4/classnars_1_1storage_1_1Memory_a8c50bdf4f2750032f24965e12e9fb59c.html#a8c50bdf4f2750032f24965e12e9fb59c" target="_top" xlink:title="List of new tasks accumulated in one cycle, to be processed in the next cycle. ">
<polygon fill="none" stroke="black" points="388.5,-147.5 388.5,-177.5 534.5,-177.5 534.5,-147.5 388.5,-147.5"/>
<text text-anchor="start" x="396.5" y="-165.5" font-family="Helvetica,sans-Serif" font-size="10.00">nars.storage.Memory.getNew</text>
<text text-anchor="middle" x="461.5" y="-154.5" font-family="Helvetica,sans-Serif" font-size="10.00">Tasks</text>
</a>
</g>
</g>
<!-- Node2&#45;&gt;Node7 -->
<g id="edge6" class="edge"><title>Node2&#45;&gt;Node7</title>
<path fill="none" stroke="midnightblue" d="M336.054,-176.433C349.803,-174.894 364.292,-173.271 378.33,-171.7"/>
<polygon fill="midnightblue" stroke="midnightblue" points="378.907,-175.157 388.455,-170.566 378.128,-168.201 378.907,-175.157"/>
</g>
<!-- Node8 -->
<g id="node8" class="node"><title>Node8</title>
<g id="a_node8"><a xlink:href="../../d8/df4/classnars_1_1storage_1_1Memory_aa15a4cd104018dc9b98ceaa12d54255d.html#aa15a4cd104018dc9b98ceaa12d54255d" target="_top" xlink:title="New tasks with novel composed terms, for delayed and selective processing. ">
<polygon fill="none" stroke="black" points="386,-98.5 386,-128.5 537,-128.5 537,-98.5 386,-98.5"/>
<text text-anchor="start" x="394" y="-116.5" font-family="Helvetica,sans-Serif" font-size="10.00">nars.storage.Memory.getNovel</text>
<text text-anchor="middle" x="461.5" y="-105.5" font-family="Helvetica,sans-Serif" font-size="10.00">Tasks</text>
</a>
</g>
</g>
<!-- Node2&#45;&gt;Node8 -->
<g id="edge7" class="edge"><title>Node2&#45;&gt;Node8</title>
<path fill="none" stroke="midnightblue" d="M284.396,-174.889C305.885,-164.983 340.863,-149.479 372,-138.5 378.832,-136.091 386.023,-133.751 393.23,-131.53"/>
<polygon fill="midnightblue" stroke="midnightblue" points="394.468,-134.813 403.036,-128.581 392.452,-128.109 394.468,-134.813"/>
</g>
<!-- Node9 -->
<g id="node9" class="node"><title>Node9</title>
<g id="a_node9"><a xlink:href="../../d8/df4/classnars_1_1storage_1_1Memory_a4017bddb252ecdfc193a7465f2d0b8b7.html#a4017bddb252ecdfc193a7465f2d0b8b7" target="_top" xlink:title="nars.storage.Memory.toString\lIfNotNull">
<polygon fill="none" stroke="black" points="388.5,-49.5 388.5,-79.5 534.5,-79.5 534.5,-49.5 388.5,-49.5"/>
<text text-anchor="start" x="396.5" y="-67.5" font-family="Helvetica,sans-Serif" font-size="10.00">nars.storage.Memory.toString</text>
<text text-anchor="middle" x="461.5" y="-56.5" font-family="Helvetica,sans-Serif" font-size="10.00">IfNotNull</text>
</a>
</g>
</g>
<!-- Node2&#45;&gt;Node9 -->
<g id="edge8" class="edge"><title>Node2&#45;&gt;Node9</title>
<path fill="none" stroke="midnightblue" d="M272.188,-174.854C288.953,-155.713 329.229,-112.776 372,-89.5 376.163,-87.2343 380.551,-85.1579 385.056,-83.2574"/>
<polygon fill="midnightblue" stroke="midnightblue" points="386.387,-86.495 394.43,-79.5989 383.842,-79.9739 386.387,-86.495"/>
</g>
<!-- Node10 -->
<g id="node10" class="node"><title>Node10</title>
<g id="a_node10"><a xlink:href="../../d8/df4/classnars_1_1storage_1_1Memory_ac64adce71654729811395e76e0217856.html#ac64adce71654729811395e76e0217856" target="_top" xlink:title="nars.storage.Memory.toString\lLongIfNotNull">
<polygon fill="none" stroke="black" points="388.5,-0.5 388.5,-30.5 534.5,-30.5 534.5,-0.5 388.5,-0.5"/>
<text text-anchor="start" x="396.5" y="-18.5" font-family="Helvetica,sans-Serif" font-size="10.00">nars.storage.Memory.toString</text>
<text text-anchor="middle" x="461.5" y="-7.5" font-family="Helvetica,sans-Serif" font-size="10.00">LongIfNotNull</text>
</a>
</g>
</g>
<!-- Node2&#45;&gt;Node10 -->
<g id="edge9" class="edge"><title>Node2&#45;&gt;Node10</title>
<path fill="none" stroke="midnightblue" d="M268.493,-174.715C280.967,-148.66 318.659,-77.0949 372,-40.5 374.919,-38.4974 377.996,-36.6542 381.182,-34.9577"/>
<polygon fill="midnightblue" stroke="midnightblue" points="382.891,-38.0204 390.409,-30.5549 379.877,-31.7028 382.891,-38.0204"/>
</g>
<!-- Node11 -->
<g id="node11" class="node"><title>Node11</title>
<g id="a_node11"><a xlink:href="../../d9/d37/classnars_1_1storage_1_1Bag_adff1bdb7ded17b66dc84068e49571ba7.html#adff1bdb7ded17b66dc84068e49571ba7" target="_top" xlink:title="TODO bad paste from preceding. ">
<polygon fill="none" stroke="black" points="587,-6 587,-25 736,-25 736,-6 587,-6"/>
<text text-anchor="middle" x="661.5" y="-13" font-family="Helvetica,sans-Serif" font-size="10.00">nars.storage.Bag.toStringLong</text>
</a>
</g>
</g>
<!-- Node10&#45;&gt;Node11 -->
<g id="edge10" class="edge"><title>Node10&#45;&gt;Node11</title>
<path fill="none" stroke="midnightblue" d="M534.543,-15.5C548.245,-15.5 562.693,-15.5 576.723,-15.5"/>
<polygon fill="midnightblue" stroke="midnightblue" points="576.849,-19.0001 586.849,-15.5 576.849,-12.0001 576.849,-19.0001"/>
</g>
</g>
</svg>
