<?xml version="1.0" encoding="UTF-8" standalone="no"?>
<!DOCTYPE svg PUBLIC "-//W3C//DTD SVG 1.1//EN"
 "http://www.w3.org/Graphics/SVG/1.1/DTD/svg11.dtd">
<!-- Generated by graphviz version 2.38.0 (20140413.2041)
 -->
<!-- Title: nars.storage.Memory.ReasonerBatch.ReasonerBatch Pages: 1 -->
<!--zoomable 252 -->
<svg id="main" version="1.1" xmlns="http://www.w3.org/2000/svg" xmlns:xlink="http://www.w3.org/1999/xlink" xml:space="preserve" onload="init(evt)">
<style type="text/css"><![CDATA[
.edge:hover path { stroke: red; }
.edge:hover polygon { stroke: red; fill: red; }
]]></style>
<script type="text/javascript"><![CDATA[
var edges = document.getElementsByTagName('g');
if (edges && edges.length) {
  for (var i=0;i<edges.length;i++) {
    if (edges[i].id.substr(0,4)=='edge') {
      edges[i].setAttribute('class','edge');
    }
  }
}
]]></script>
        <defs>
                <circle id="rim" cx="0" cy="0" r="7"/>
                <circle id="rim2" cx="0" cy="0" r="3.5"/>
                <g id="zoomPlus">
                        <use xlink:href="#rim" fill="#404040">
                                <set attributeName="fill" to="#808080" begin="zoomplus.mouseover" end="zoomplus.mouseout"/>
                        </use>
                        <path d="M-4,0h8M0,-4v8" fill="none" stroke="white" stroke-width="1.5" pointer-events="none"/>
                </g>
                <g id="zoomMin">
                        <use xlink:href="#rim" fill="#404040">
                                <set attributeName="fill" to="#808080" begin="zoomminus.mouseover" end="zoomminus.mouseout"/>
                        </use>
                        <path d="M-4,0h8" fill="none" stroke="white" stroke-width="1.5" pointer-events="none"/>
                </g>
                <g id="dirArrow">
                        <path fill="none" stroke="white" stroke-width="1.5" d="M0,-3.0v7 M-2.5,-0.5L0,-3.0L2.5,-0.5"/>
                </g>
               <g id="resetDef">
                       <use xlink:href="#rim2" fill="#404040">
                               <set attributeName="fill" to="#808080" begin="reset.mouseover" end="reset.mouseout"/>
                       </use>
               </g>
        </defs>

<script type="text/javascript">
var viewWidth = 548;
var viewHeight = 252;
var sectionId = 'dynsection-0';
</script>
<script xlink:href="../../svgpan.js"/>
<svg id="graph" class="graph">
<g id="viewport">
<title>nars.storage.Memory.ReasonerBatch.ReasonerBatch</title>
<!-- Node1 -->
<g id="node1" class="node"><title>Node1</title>
<polygon fill="#bfbfbf" stroke="black" points="0,-101 0,-131 154,-131 154,-101 0,-101"/>
<text text-anchor="start" x="8" y="-119" font-family="Helvetica,sans-Serif" font-size="10.00">nars.storage.Memory.Reasoner</text>
<text text-anchor="middle" x="77" y="-108" font-family="Helvetica,sans-Serif" font-size="10.00">Batch.ReasonerBatch</text>
</g>
<!-- Node2 -->
<g id="node2" class="node"><title>Node2</title>
<g id="a_node2"><a xlink:href="../../d8/df4/classnars_1_1storage_1_1Memory_a3d47e1393f4751a94e1b18e64c9fa2ef.html#a3d47e1393f4751a94e1b18e64c9fa2ef" target="_top" xlink:title="Create a new memory. ">
<polygon fill="none" stroke="black" points="190,-106.5 190,-125.5 337,-125.5 337,-106.5 190,-106.5"/>
<text text-anchor="middle" x="263.5" y="-113.5" font-family="Helvetica,sans-Serif" font-size="10.00">nars.storage.Memory.Memory</text>
</a>
</g>
</g>
<!-- Node1&#45;&gt;Node2 -->
<g id="edge1" class="edge"><title>Node1&#45;&gt;Node2</title>
<path fill="none" stroke="midnightblue" d="M154.108,-116C162.506,-116 171.088,-116 179.564,-116"/>
<polygon fill="midnightblue" stroke="midnightblue" points="179.831,-119.5 189.831,-116 179.831,-112.5 179.831,-119.5"/>
</g>
<!-- Node3 -->
<g id="node3" class="node"><title>Node3</title>
<g id="a_node3"><a xlink:href="../../d8/df4/classnars_1_1storage_1_1Memory_ab35f24f2e05fb428d36d7e86b5009cb2.html#ab35f24f2e05fb428d36d7e86b5009cb2" target="_top" xlink:title="nars.storage.Memory.setConcepts">
<polygon fill="none" stroke="black" points="373,-224.5 373,-243.5 540,-243.5 540,-224.5 373,-224.5"/>
<text text-anchor="middle" x="456.5" y="-231.5" font-family="Helvetica,sans-Serif" font-size="10.00">nars.storage.Memory.setConcepts</text>
</a>
</g>
</g>
<!-- Node2&#45;&gt;Node3 -->
<g id="edge2" class="edge"><title>Node2&#45;&gt;Node3</title>
<path fill="none" stroke="midnightblue" d="M272.044,-125.634C288.243,-145.62 328.512,-191.669 373,-215 377.521,-217.371 382.334,-219.448 387.277,-221.268"/>
<polygon fill="midnightblue" stroke="midnightblue" points="386.305,-224.633 396.898,-224.46 388.509,-217.989 386.305,-224.633"/>
</g>
<!-- Node4 -->
<g id="node4" class="node"><title>Node4</title>
<g id="a_node4"><a xlink:href="../../d8/df4/classnars_1_1storage_1_1Memory_a9f579556cc722fff72241bbca4fcdd08.html#a9f579556cc722fff72241bbca4fcdd08" target="_top" xlink:title="nars.storage.Memory.setExport\lStrings">
<polygon fill="none" stroke="black" points="379.5,-175 379.5,-205 533.5,-205 533.5,-175 379.5,-175"/>
<text text-anchor="start" x="387.5" y="-193" font-family="Helvetica,sans-Serif" font-size="10.00">nars.storage.Memory.setExport</text>
<text text-anchor="middle" x="456.5" y="-182" font-family="Helvetica,sans-Serif" font-size="10.00">Strings</text>
</a>
</g>
</g>
<!-- Node2&#45;&gt;Node4 -->
<g id="edge3" class="edge"><title>Node2&#45;&gt;Node4</title>
<path fill="none" stroke="midnightblue" d="M282.958,-125.533C304.266,-136.296 340.552,-153.881 373,-166 378.461,-168.04 384.177,-170.016 389.943,-171.9"/>
<polygon fill="midnightblue" stroke="midnightblue" points="389.067,-175.294 399.658,-174.98 391.183,-168.622 389.067,-175.294"/>
</g>
<!-- Node5 -->
<g id="node5" class="node"><title>Node5</title>
<g id="a_node5"><a xlink:href="../../d8/df4/classnars_1_1storage_1_1Memory_af366ebf6ee22511021272241a397e54d.html#af366ebf6ee22511021272241a397e54d" target="_top" xlink:title="nars.storage.Memory.setNew\lTasks">
<polygon fill="none" stroke="black" points="383.5,-126 383.5,-156 529.5,-156 529.5,-126 383.5,-126"/>
<text text-anchor="start" x="391.5" y="-144" font-family="Helvetica,sans-Serif" font-size="10.00">nars.storage.Memory.setNew</text>
<text text-anchor="middle" x="456.5" y="-133" font-family="Helvetica,sans-Serif" font-size="10.00">Tasks</text>
</a>
</g>
</g>
<!-- Node2&#45;&gt;Node5 -->
<g id="edge4" class="edge"><title>Node2&#45;&gt;Node5</title>
<path fill="none" stroke="midnightblue" d="M337.254,-125.523C349.031,-127.064 361.299,-128.67 373.283,-130.239"/>
<polygon fill="midnightblue" stroke="midnightblue" points="372.895,-133.718 383.265,-131.545 373.803,-126.777 372.895,-133.718"/>
</g>
<!-- Node6 -->
<g id="node6" class="node"><title>Node6</title>
<g id="a_node6"><a xlink:href="../../d8/df4/classnars_1_1storage_1_1Memory_a004fc746c755e9448a36be1bc48bfe30.html#a004fc746c755e9448a36be1bc48bfe30" target="_top" xlink:title="nars.storage.Memory.setNovel\lTasks">
<polygon fill="none" stroke="black" points="381,-77 381,-107 532,-107 532,-77 381,-77"/>
<text text-anchor="start" x="389" y="-95" font-family="Helvetica,sans-Serif" font-size="10.00">nars.storage.Memory.setNovel</text>
<text text-anchor="middle" x="456.5" y="-84" font-family="Helvetica,sans-Serif" font-size="10.00">Tasks</text>
</a>
</g>
</g>
<!-- Node2&#45;&gt;Node6 -->
<g id="edge5" class="edge"><title>Node2&#45;&gt;Node6</title>
<path fill="none" stroke="midnightblue" d="M337.254,-106.858C348.15,-105.489 359.466,-104.067 370.588,-102.67"/>
<polygon fill="midnightblue" stroke="midnightblue" points="371.244,-106.115 380.73,-101.395 370.372,-99.1693 371.244,-106.115"/>
</g>
<!-- Node7 -->
<g id="node7" class="node"><title>Node7</title>
<g id="a_node7"><a xlink:href="../../d8/df4/classnars_1_1storage_1_1Memory_ab98ad1b36aa77d470f4b6b7df29f1fd8.html#ab98ad1b36aa77d470f4b6b7df29f1fd8" target="_top" xlink:title="nars.storage.Memory.setReasoner">
<polygon fill="none" stroke="black" points="373,-38.5 373,-57.5 540,-57.5 540,-38.5 373,-38.5"/>
<text text-anchor="middle" x="456.5" y="-45.5" font-family="Helvetica,sans-Serif" font-size="10.00">nars.storage.Memory.setReasoner</text>
</a>
</g>
</g>
<!-- Node2&#45;&gt;Node7 -->
<g id="edge6" class="edge"><title>Node2&#45;&gt;Node7</title>
<path fill="none" stroke="midnightblue" d="M283.296,-106.448C304.613,-95.9088 340.621,-78.9883 373,-68 381.609,-65.0783 390.86,-62.4034 399.942,-60.026"/>
<polygon fill="midnightblue" stroke="midnightblue" points="400.854,-63.4056 409.694,-57.5653 399.142,-56.6184 400.854,-63.4056"/>
</g>
<!-- Node8 -->
<g id="node8" class="node"><title>Node8</title>
<g id="a_node8"><a xlink:href="../../d8/df4/classnars_1_1storage_1_1Memory_a43ad4121ee38fdede43e4424e5a94eb1.html#a43ad4121ee38fdede43e4424e5a94eb1" target="_top" xlink:title="nars.storage.Memory.setRecorder">
<polygon fill="none" stroke="black" points="374,-0.5 374,-19.5 539,-19.5 539,-0.5 374,-0.5"/>
<text text-anchor="middle" x="456.5" y="-7.5" font-family="Helvetica,sans-Serif" font-size="10.00">nars.storage.Memory.setRecorder</text>
</a>
</g>
</g>
<!-- Node2&#45;&gt;Node8 -->
<g id="edge7" class="edge"><title>Node2&#45;&gt;Node8</title>
<path fill="none" stroke="midnightblue" d="M273.359,-106.478C290.69,-88.4477 331.063,-49.3155 373,-29 377.96,-26.5971 383.238,-24.4905 388.633,-22.6449"/>
<polygon fill="midnightblue" stroke="midnightblue" points="389.919,-25.9101 398.428,-19.5971 387.84,-19.2262 389.919,-25.9101"/>
</g>
</g>
</svg>
        <g id="navigator" transform="translate(0 0)" fill="#404254">
                <rect fill="#f2f5e9" fill-opacity="0.5" stroke="#606060" stroke-width=".5" x="0" y="0" width="60" height="60"/>
                <use id="zoomplus" xlink:href="#zoomPlus" x="17" y="9" onmousedown="handleZoom(evt,'in')"/>
                <use id="zoomminus" xlink:href="#zoomMin" x="42" y="9" onmousedown="handleZoom(evt,'out')"/>
                <use id="reset" xlink:href="#resetDef" x="30" y="36" onmousedown="handleReset()"/>
                <g id="arrowUp" xlink:href="#dirArrow" transform="translate(30 24)" onmousedown="handlePan(0,-1)">
                  <use xlink:href="#rim" fill="#404040">
                        <set attributeName="fill" to="#808080" begin="arrowUp.mouseover" end="arrowUp.mouseout"/>
                  </use>
                  <path fill="none" stroke="white" stroke-width="1.5" d="M0,-3.0v7 M-2.5,-0.5L0,-3.0L2.5,-0.5"/>
                </g>
                <g id="arrowRight" xlink:href="#dirArrow" transform="rotate(90) translate(36 -43)" onmousedown="handlePan(1,0)">
                  <use xlink:href="#rim" fill="#404040">
                        <set attributeName="fill" to="#808080" begin="arrowRight.mouseover" end="arrowRight.mouseout"/>
                  </use>
                  <path fill="none" stroke="white" stroke-width="1.5" d="M0,-3.0v7 M-2.5,-0.5L0,-3.0L2.5,-0.5"/>
                </g>
                <g id="arrowDown" xlink:href="#dirArrow" transform="rotate(180) translate(-30 -48)" onmousedown="handlePan(0,1)">
                  <use xlink:href="#rim" fill="#404040">
                        <set attributeName="fill" to="#808080" begin="arrowDown.mouseover" end="arrowDown.mouseout"/>
                  </use>
                  <path fill="none" stroke="white" stroke-width="1.5" d="M0,-3.0v7 M-2.5,-0.5L0,-3.0L2.5,-0.5"/>
                </g>
                <g id="arrowLeft" xlink:href="#dirArrow" transform="rotate(270) translate(-36 17)" onmousedown="handlePan(-1,0)">
                  <use xlink:href="#rim" fill="#404040">
                        <set attributeName="fill" to="#808080" begin="arrowLeft.mouseover" end="arrowLeft.mouseout"/>
                  </use>
                  <path fill="none" stroke="white" stroke-width="1.5" d="M0,-3.0v7 M-2.5,-0.5L0,-3.0L2.5,-0.5"/>
                </g>
        </g>
        <svg viewBox="0 0 15 15" width="100%" height="30px" preserveAspectRatio="xMaxYMin meet">
         <g id="arrow_out" transform="scale(0.3 0.3)">
          <a xlink:href="classnars_1_1storage_1_1Memory_1_1ReasonerBatch_a82e17451a5291bbbaaaa92ef3ce5d830_a82e17451a5291bbbaaaa92ef3ce5d830_cgraph_org.svg" target="_base">
           <rect id="button" ry="5" rx="5" y="6" x="6" height="38" width="38"
                fill="#f2f5e9" fill-opacity="0.5" stroke="#606060" stroke-width="1.0"/>
           <path id="arrow"
             d="M 11.500037,31.436501 C 11.940474,20.09759 22.043105,11.32322 32.158766,21.979434 L 37.068811,17.246167 C 37.068811,17.246167 37.088388,32 37.088388,32 L 22.160133,31.978069 C 22.160133,31.978069 26.997745,27.140456 26.997745,27.140456 C 18.528582,18.264221 13.291696,25.230495 11.500037,31.436501 z"
             style="fill:#404040;"/>
          </a>
         </g>
        </svg>
</svg>
