<?xml version="1.0" encoding="UTF-8" standalone="no"?>
<!DOCTYPE svg PUBLIC "-//W3C//DTD SVG 1.1//EN"
 "http://www.w3.org/Graphics/SVG/1.1/DTD/svg11.dtd">
<!-- Generated by graphviz version 2.38.0 (20140413.2041)
 -->
<!-- Title: nars.language.Statement.make Pages: 1 -->
<svg width="1195pt" height="509pt"
 viewBox="0.00 0.00 1195.00 509.00" xmlns="http://www.w3.org/2000/svg" xmlns:xlink="http://www.w3.org/1999/xlink">
<g id="graph0" class="graph" transform="scale(1 1) rotate(0) translate(4 505)">
<title>nars.language.Statement.make</title>
<!-- Node1 -->
<g id="node1" class="node"><title>Node1</title>
<polygon fill="#bfbfbf" stroke="black" points="0,-247 0,-266 152,-266 152,-247 0,-247"/>
<text text-anchor="middle" x="76" y="-254" font-family="Helvetica,sans-Serif" font-size="10.00">nars.language.Statement.make</text>
</g>
<!-- Node2 -->
<g id="node2" class="node"><title>Node2</title>
<g id="a_node2"><a xlink:href="../../d1/d5e/classnars_1_1language_1_1Statement_a96d4bf7bb99f48b6496cdb7457bc0e50.html#a96d4bf7bb99f48b6496cdb7457bc0e50" target="_top" xlink:title="Check the validity of a potential Statement. ">
<polygon fill="none" stroke="black" points="624.5,-333.5 624.5,-363.5 780.5,-363.5 780.5,-333.5 624.5,-333.5"/>
<text text-anchor="start" x="632.5" y="-351.5" font-family="Helvetica,sans-Serif" font-size="10.00">nars.language.Statement.invalid</text>
<text text-anchor="middle" x="702.5" y="-340.5" font-family="Helvetica,sans-Serif" font-size="10.00">Statement</text>
</a>
</g>
</g>
<!-- Node1&#45;&gt;Node2 -->
<g id="edge1" class="edge"><title>Node1&#45;&gt;Node2</title>
<path fill="none" stroke="midnightblue" d="M86.6332,-266.032C104.679,-283.16 145.597,-318.647 188,-332.5 264.486,-357.487 488.232,-355.201 613.669,-351.673"/>
<polygon fill="midnightblue" stroke="midnightblue" points="614.115,-355.161 624.009,-351.373 613.912,-348.164 614.115,-355.161"/>
</g>
<!-- Node9 -->
<g id="node9" class="node"><title>Node9</title>
<g id="a_node9"><a xlink:href="../../df/d4e/classnars_1_1language_1_1Instance_a94badab1e9fc19ebe33b06fcbb169453.html#a94badab1e9fc19ebe33b06fcbb169453" target="_top" xlink:title="Try to make a new compound from two components. ">
<polygon fill="none" stroke="black" points="206.5,-304 206.5,-323 351.5,-323 351.5,-304 206.5,-304"/>
<text text-anchor="middle" x="279" y="-311" font-family="Helvetica,sans-Serif" font-size="10.00">nars.language.Instance.make</text>
</a>
</g>
</g>
<!-- Node1&#45;&gt;Node9 -->
<g id="edge8" class="edge"><title>Node1&#45;&gt;Node9</title>
<path fill="none" stroke="midnightblue" d="M108.509,-266.127C130.69,-272.84 161.103,-281.917 188,-289.5 202.027,-293.455 217.333,-297.599 231.277,-301.31"/>
<polygon fill="midnightblue" stroke="midnightblue" points="230.59,-304.749 241.153,-303.927 232.383,-297.982 230.59,-304.749"/>
</g>
<!-- Node11 -->
<g id="node11" class="node"><title>Node11</title>
<g id="a_node11"><a xlink:href="../../d0/df3/classnars_1_1language_1_1Inheritance_a5ccaf18d33e722f438944debb2757b34.html#a5ccaf18d33e722f438944debb2757b34" target="_top" xlink:title="Try to make a new compound from two components. ">
<polygon fill="none" stroke="black" points="409,-241 409,-260 564,-260 564,-241 409,-241"/>
<text text-anchor="middle" x="486.5" y="-248" font-family="Helvetica,sans-Serif" font-size="10.00">nars.language.Inheritance.make</text>
</a>
</g>
</g>
<!-- Node1&#45;&gt;Node11 -->
<g id="edge49" class="edge"><title>Node1&#45;&gt;Node11</title>
<path fill="none" stroke="midnightblue" d="M152.288,-257.573C211.479,-258.158 296.012,-258.42 370,-256.5 379.311,-256.258 389.04,-255.907 398.729,-255.494"/>
<polygon fill="midnightblue" stroke="midnightblue" points="398.96,-258.988 408.794,-255.044 398.647,-251.995 398.96,-258.988"/>
</g>
<!-- Node19 -->
<g id="node19" class="node"><title>Node19</title>
<g id="a_node19"><a xlink:href="../../dd/dd7/classnars_1_1language_1_1Property_a808d99e39dfc525841db6b645d118979.html#a808d99e39dfc525841db6b645d118979" target="_top" xlink:title="Try to make a new compound from two components. ">
<polygon fill="none" stroke="black" points="207,-190 207,-209 351,-209 351,-190 207,-190"/>
<text text-anchor="middle" x="279" y="-197" font-family="Helvetica,sans-Serif" font-size="10.00">nars.language.Property.make</text>
</a>
</g>
</g>
<!-- Node1&#45;&gt;Node19 -->
<g id="edge19" class="edge"><title>Node1&#45;&gt;Node19</title>
<path fill="none" stroke="midnightblue" d="M102.295,-246.854C124.617,-238.581 158.152,-226.727 188,-218.5 197.468,-215.89 207.581,-213.438 217.483,-211.218"/>
<polygon fill="midnightblue" stroke="midnightblue" points="218.259,-214.631 227.283,-209.078 216.766,-207.792 218.259,-214.631"/>
</g>
<!-- Node21 -->
<g id="node21" class="node"><title>Node21</title>
<g id="a_node21"><a xlink:href="../../d6/d3b/classnars_1_1language_1_1InstanceProperty_a429b8b61ed41ea338c8fc668fb8304f7.html#a429b8b61ed41ea338c8fc668fb8304f7" target="_top" xlink:title="Try to make a new compound from two components. ">
<polygon fill="none" stroke="black" points="188,-228 188,-247 370,-247 370,-228 188,-228"/>
<text text-anchor="middle" x="279" y="-235" font-family="Helvetica,sans-Serif" font-size="10.00">nars.language.InstanceProperty.make</text>
</a>
</g>
</g>
<!-- Node1&#45;&gt;Node21 -->
<g id="edge22" class="edge"><title>Node1&#45;&gt;Node21</title>
<path fill="none" stroke="midnightblue" d="M152.131,-249.398C160.466,-248.61 169.05,-247.799 177.633,-246.987"/>
<polygon fill="midnightblue" stroke="midnightblue" points="178.067,-250.462 187.693,-246.036 177.408,-243.493 178.067,-250.462"/>
</g>
<!-- Node22 -->
<g id="node22" class="node"><title>Node22</title>
<g id="a_node22"><a xlink:href="../../da/db6/classnars_1_1language_1_1Implication_a9af204cfe23c573d9987f27f8f8c7d8f.html#a9af204cfe23c573d9987f27f8f8c7d8f" target="_top" xlink:title="Try to make a new compound from two components. ">
<polygon fill="none" stroke="black" points="409,-380 409,-399 564,-399 564,-380 409,-380"/>
<text text-anchor="middle" x="486.5" y="-387" font-family="Helvetica,sans-Serif" font-size="10.00">nars.language.Implication.make</text>
</a>
</g>
</g>
<!-- Node1&#45;&gt;Node22 -->
<g id="edge26" class="edge"><title>Node1&#45;&gt;Node22</title>
<path fill="none" stroke="midnightblue" d="M83.331,-266.309C98.3532,-288.614 138.619,-342.948 188,-365.5 254.192,-395.729 337.287,-400.015 398.822,-397.724"/>
<polygon fill="midnightblue" stroke="midnightblue" points="399.054,-401.218 408.892,-397.284 398.748,-394.224 399.054,-401.218"/>
</g>
<!-- Node25 -->
<g id="node25" class="node"><title>Node25</title>
<g id="a_node25"><a xlink:href="../../d1/d8b/classnars_1_1language_1_1Equivalence_ad5069483330bc875fbb48a1e992f7bf7.html#ad5069483330bc875fbb48a1e992f7bf7" target="_top" xlink:title="Try to make a new compound from two components. ">
<polygon fill="none" stroke="black" points="406,-155 406,-174 567,-174 567,-155 406,-155"/>
<text text-anchor="middle" x="486.5" y="-162" font-family="Helvetica,sans-Serif" font-size="10.00">nars.language.Equivalence.make</text>
</a>
</g>
</g>
<!-- Node1&#45;&gt;Node25 -->
<g id="edge34" class="edge"><title>Node1&#45;&gt;Node25</title>
<path fill="none" stroke="midnightblue" d="M86.95,-246.793C105.189,-229.714 145.978,-194.755 188,-180.5 255.024,-157.763 335.394,-154.761 395.694,-156.893"/>
<polygon fill="midnightblue" stroke="midnightblue" points="395.817,-160.401 405.951,-157.312 396.102,-153.407 395.817,-160.401"/>
</g>
<!-- Node28 -->
<g id="node28" class="node"><title>Node28</title>
<g id="a_node28"><a xlink:href="../../d3/d1f/classnars_1_1language_1_1Similarity_ae72436d78c25d4735b4201d773dd1901.html#ae72436d78c25d4735b4201d773dd1901" target="_top" xlink:title="Try to make a new compound from two components. ">
<polygon fill="none" stroke="black" points="412.5,-117 412.5,-136 560.5,-136 560.5,-117 412.5,-117"/>
<text text-anchor="middle" x="486.5" y="-124" font-family="Helvetica,sans-Serif" font-size="10.00">nars.language.Similarity.make</text>
</a>
</g>
</g>
<!-- Node1&#45;&gt;Node28 -->
<g id="edge42" class="edge"><title>Node1&#45;&gt;Node28</title>
<path fill="none" stroke="midnightblue" d="M83.6879,-246.839C99.1526,-225.399 139.775,-174.037 188,-152.5 255.714,-122.26 340.635,-117.696 402.395,-119.555"/>
<polygon fill="midnightblue" stroke="midnightblue" points="402.367,-123.057 412.488,-119.922 402.622,-116.061 402.367,-123.057"/>
</g>
<!-- Node3 -->
<g id="node3" class="node"><title>Node3</title>
<g id="a_node3"><a xlink:href="../../d0/dee/classnars_1_1language_1_1CompoundTerm_a89000afae8017231889aaa549292d1e0.html#a89000afae8017231889aaa549292d1e0" target="_top" xlink:title="Default constructor. ">
<polygon fill="none" stroke="black" points="845,-312.5 845,-342.5 998,-342.5 998,-312.5 845,-312.5"/>
<text text-anchor="start" x="853" y="-330.5" font-family="Helvetica,sans-Serif" font-size="10.00">nars.language.CompoundTerm.</text>
<text text-anchor="middle" x="921.5" y="-319.5" font-family="Helvetica,sans-Serif" font-size="10.00">CompoundTerm</text>
</a>
</g>
</g>
<!-- Node2&#45;&gt;Node3 -->
<g id="edge2" class="edge"><title>Node2&#45;&gt;Node3</title>
<path fill="none" stroke="midnightblue" d="M780.617,-341.037C798.031,-339.352 816.624,-337.552 834.382,-335.834"/>
<polygon fill="midnightblue" stroke="midnightblue" points="835.109,-339.28 844.725,-334.833 834.435,-332.313 835.109,-339.28"/>
</g>
<!-- Node4 -->
<g id="node4" class="node"><title>Node4</title>
<g id="a_node4"><a xlink:href="../../d8/db8/classnars_1_1language_1_1Term_ad85f45a7858737445d5158801774ff5f.html#ad85f45a7858737445d5158801774ff5f" target="_top" xlink:title="Equal terms have identical name, though not necessarily the same reference. ">
<polygon fill="none" stroke="black" points="854.5,-362 854.5,-381 988.5,-381 988.5,-362 854.5,-362"/>
<text text-anchor="middle" x="921.5" y="-369" font-family="Helvetica,sans-Serif" font-size="10.00">nars.language.Term.equals</text>
</a>
</g>
</g>
<!-- Node2&#45;&gt;Node4 -->
<g id="edge3" class="edge"><title>Node2&#45;&gt;Node4</title>
<path fill="none" stroke="midnightblue" d="M780.617,-356.674C801.346,-358.871 823.746,-361.245 844.418,-363.436"/>
<polygon fill="midnightblue" stroke="midnightblue" points="844.099,-366.922 854.412,-364.495 844.837,-359.961 844.099,-366.922"/>
</g>
<!-- Node6 -->
<g id="node6" class="node"><title>Node6</title>
<g id="a_node6"><a xlink:href="../../d1/d5e/classnars_1_1language_1_1Statement_ababe6155e2f78e769f76493317e118e0.html#ababe6155e2f78e769f76493317e118e0" target="_top" xlink:title="Return the second component of the statement. ">
<polygon fill="none" stroke="black" points="850.5,-400.5 850.5,-430.5 992.5,-430.5 992.5,-400.5 850.5,-400.5"/>
<text text-anchor="start" x="858.5" y="-418.5" font-family="Helvetica,sans-Serif" font-size="10.00">nars.language.Statement.get</text>
<text text-anchor="middle" x="921.5" y="-407.5" font-family="Helvetica,sans-Serif" font-size="10.00">Predicate</text>
</a>
</g>
</g>
<!-- Node2&#45;&gt;Node6 -->
<g id="edge5" class="edge"><title>Node2&#45;&gt;Node6</title>
<path fill="none" stroke="midnightblue" d="M753.688,-363.509C769.203,-368.224 786.331,-373.503 802,-378.5 818.068,-383.624 821.928,-385.387 838,-390.5 845.14,-392.771 852.642,-395.11 860.092,-397.404"/>
<polygon fill="midnightblue" stroke="midnightblue" points="859.234,-400.801 869.821,-400.383 861.284,-394.108 859.234,-400.801"/>
</g>
<!-- Node7 -->
<g id="node7" class="node"><title>Node7</title>
<g id="a_node7"><a xlink:href="../../d1/d5e/classnars_1_1language_1_1Statement_ace4f80751d303c613e467163913bebf5.html#ace4f80751d303c613e467163913bebf5" target="_top" xlink:title="Return the first component of the statement. ">
<polygon fill="none" stroke="black" points="850.5,-263.5 850.5,-293.5 992.5,-293.5 992.5,-263.5 850.5,-263.5"/>
<text text-anchor="start" x="858.5" y="-281.5" font-family="Helvetica,sans-Serif" font-size="10.00">nars.language.Statement.get</text>
<text text-anchor="middle" x="921.5" y="-270.5" font-family="Helvetica,sans-Serif" font-size="10.00">Subject</text>
</a>
</g>
</g>
<!-- Node2&#45;&gt;Node7 -->
<g id="edge6" class="edge"><title>Node2&#45;&gt;Node7</title>
<path fill="none" stroke="midnightblue" d="M772.915,-333.492C782.822,-330.6 792.774,-327.274 802,-323.5 819.144,-316.487 820.98,-309.808 838,-302.5 842.677,-300.492 847.574,-298.592 852.547,-296.808"/>
<polygon fill="midnightblue" stroke="midnightblue" points="853.838,-300.066 862.171,-293.522 851.576,-293.442 853.838,-300.066"/>
</g>
<!-- Node8 -->
<g id="node8" class="node"><title>Node8</title>
<g id="a_node8"><a xlink:href="../../d1/d5e/classnars_1_1language_1_1Statement_ac56b558891dd2088e0b66b437780c7b7.html#ac56b558891dd2088e0b66b437780c7b7" target="_top" xlink:title="Default constructor. ">
<polygon fill="none" stroke="black" points="857.5,-214.5 857.5,-244.5 985.5,-244.5 985.5,-214.5 857.5,-214.5"/>
<text text-anchor="start" x="865.5" y="-232.5" font-family="Helvetica,sans-Serif" font-size="10.00">nars.language.Statement.</text>
<text text-anchor="middle" x="921.5" y="-221.5" font-family="Helvetica,sans-Serif" font-size="10.00">Statement</text>
</a>
</g>
</g>
<!-- Node2&#45;&gt;Node8 -->
<g id="edge7" class="edge"><title>Node2&#45;&gt;Node8</title>
<path fill="none" stroke="midnightblue" d="M780.782,-335.833C788.401,-332.598 795.65,-328.554 802,-323.5 829.374,-301.716 811.006,-275.754 838,-253.5 841.147,-250.905 844.563,-248.591 848.155,-246.527"/>
<polygon fill="midnightblue" stroke="midnightblue" points="850.022,-249.507 857.391,-241.895 846.883,-243.25 850.022,-249.507"/>
</g>
<!-- Node5 -->
<g id="node5" class="node"><title>Node5</title>
<g id="a_node5"><a xlink:href="../../d8/db8/classnars_1_1language_1_1Term_a3aad4654016b8615fd4fa8a26668e1db.html#a3aad4654016b8615fd4fa8a26668e1db" target="_top" xlink:title="Reporting the name of the current Term. ">
<polygon fill="none" stroke="black" points="1041,-210 1041,-229 1187,-229 1187,-210 1041,-210"/>
<text text-anchor="middle" x="1114" y="-217" font-family="Helvetica,sans-Serif" font-size="10.00">nars.language.Term.getName</text>
</a>
</g>
</g>
<!-- Node4&#45;&gt;Node5 -->
<g id="edge4" class="edge"><title>Node4&#45;&gt;Node5</title>
<path fill="none" stroke="midnightblue" d="M982.092,-361.998C990.136,-359.323 998.014,-355.894 1005,-351.5 1050.96,-322.591 1086.49,-267.367 1102.95,-238.361"/>
<polygon fill="midnightblue" stroke="midnightblue" points="1106.2,-239.727 1107.97,-229.281 1100.07,-236.344 1106.2,-239.727"/>
</g>
<!-- Node10 -->
<g id="node10" class="node"><title>Node10</title>
<g id="a_node10"><a xlink:href="../../de/d1d/classnars_1_1language_1_1SetExt_aa8f6526a59c3d7e578dd76a0eab75a0e.html#aa8f6526a59c3d7e578dd76a0eab75a0e" target="_top" xlink:title="Try to make a new set from one component. ">
<polygon fill="none" stroke="black" points="418,-293 418,-312 555,-312 555,-293 418,-293"/>
<text text-anchor="middle" x="486.5" y="-300" font-family="Helvetica,sans-Serif" font-size="10.00">nars.language.SetExt.make</text>
</a>
</g>
</g>
<!-- Node9&#45;&gt;Node10 -->
<g id="edge9" class="edge"><title>Node9&#45;&gt;Node10</title>
<path fill="none" stroke="midnightblue" d="M351.585,-309.668C369.764,-308.695 389.38,-307.645 407.845,-306.657"/>
<polygon fill="midnightblue" stroke="midnightblue" points="408.17,-310.144 417.968,-306.115 407.795,-303.154 408.17,-310.144"/>
</g>
<!-- Node9&#45;&gt;Node11 -->
<g id="edge10" class="edge"><title>Node9&#45;&gt;Node11</title>
<path fill="none" stroke="midnightblue" d="M318.254,-303.886C334.305,-299.7 353.125,-294.593 370,-289.5 396.651,-281.456 426.407,-271.382 449.041,-263.488"/>
<polygon fill="midnightblue" stroke="midnightblue" points="450.31,-266.752 458.589,-260.14 447.994,-260.147 450.31,-266.752"/>
</g>
<!-- Node11&#45;&gt;Node2 -->
<g id="edge13" class="edge"><title>Node11&#45;&gt;Node2</title>
<path fill="none" stroke="midnightblue" d="M519.349,-260.051C534.589,-265.509 552.604,-273.316 567,-283.5 586.525,-297.313 582.526,-311.136 603,-323.5 606.842,-325.82 610.893,-327.926 615.073,-329.837"/>
<polygon fill="midnightblue" stroke="midnightblue" points="613.824,-333.108 624.401,-333.718 616.512,-326.645 613.824,-333.108"/>
</g>
<!-- Node12 -->
<g id="node12" class="node"><title>Node12</title>
<g id="a_node12"><a xlink:href="../../d0/dee/classnars_1_1language_1_1CompoundTerm_a26cc2a0123b22a3019ca81de239c5007.html#a26cc2a0123b22a3019ca81de239c5007" target="_top" xlink:title="build a component list from two terms ">
<polygon fill="none" stroke="black" points="603,-186.5 603,-216.5 802,-216.5 802,-186.5 603,-186.5"/>
<text text-anchor="start" x="611" y="-204.5" font-family="Helvetica,sans-Serif" font-size="10.00">nars.language.CompoundTerm.arguments</text>
<text text-anchor="middle" x="702.5" y="-193.5" font-family="Helvetica,sans-Serif" font-size="10.00">ToList</text>
</a>
</g>
</g>
<!-- Node11&#45;&gt;Node12 -->
<g id="edge11" class="edge"><title>Node11&#45;&gt;Node12</title>
<path fill="none" stroke="midnightblue" d="M529.015,-240.994C556.443,-234.714 593.199,-226.298 625.732,-218.849"/>
<polygon fill="midnightblue" stroke="midnightblue" points="626.712,-222.215 635.678,-216.571 625.15,-215.392 626.712,-222.215"/>
</g>
<!-- Node13 -->
<g id="node13" class="node"><title>Node13</title>
<g id="a_node13"><a xlink:href="../../d0/df3/classnars_1_1language_1_1Inheritance_ae30b0f7e4285d1b8c4f02f91580f622f.html#ae30b0f7e4285d1b8c4f02f91580f622f" target="_top" xlink:title="Constructor with partial values, called by make. ">
<polygon fill="none" stroke="black" points="637,-284.5 637,-314.5 768,-314.5 768,-284.5 637,-284.5"/>
<text text-anchor="start" x="645" y="-302.5" font-family="Helvetica,sans-Serif" font-size="10.00">nars.language.Inheritance.</text>
<text text-anchor="middle" x="702.5" y="-291.5" font-family="Helvetica,sans-Serif" font-size="10.00">Inheritance</text>
</a>
</g>
</g>
<!-- Node11&#45;&gt;Node13 -->
<g id="edge12" class="edge"><title>Node11&#45;&gt;Node13</title>
<path fill="none" stroke="midnightblue" d="M529.015,-260.006C556.774,-266.362 594.086,-274.905 626.906,-282.42"/>
<polygon fill="midnightblue" stroke="midnightblue" points="626.403,-285.896 636.932,-284.716 627.966,-279.072 626.403,-285.896"/>
</g>
<!-- Node14 -->
<g id="node14" class="node"><title>Node14</title>
<g id="a_node14"><a xlink:href="../../d1/d5e/classnars_1_1language_1_1Statement_a7123aba1c8c566f291e2c9b9d147557d.html#a7123aba1c8c566f291e2c9b9d147557d" target="_top" xlink:title="Default method to make the nameStr of an image term from given fields. ">
<polygon fill="none" stroke="black" points="626.5,-235.5 626.5,-265.5 778.5,-265.5 778.5,-235.5 626.5,-235.5"/>
<text text-anchor="start" x="634.5" y="-253.5" font-family="Helvetica,sans-Serif" font-size="10.00">nars.language.Statement.make</text>
<text text-anchor="middle" x="702.5" y="-242.5" font-family="Helvetica,sans-Serif" font-size="10.00">StatementName</text>
</a>
</g>
</g>
<!-- Node11&#45;&gt;Node14 -->
<g id="edge14" class="edge"><title>Node11&#45;&gt;Node14</title>
<path fill="none" stroke="midnightblue" d="M564.154,-250.5C581.098,-250.5 599.147,-250.5 616.403,-250.5"/>
<polygon fill="midnightblue" stroke="midnightblue" points="616.457,-254 626.457,-250.5 616.457,-247 616.457,-254"/>
</g>
<!-- Node15 -->
<g id="node15" class="node"><title>Node15</title>
<g id="a_node15"><a xlink:href="../../d8/df4/classnars_1_1storage_1_1Memory_a63058cc52d77412e0aead8387c23aa93.html#a63058cc52d77412e0aead8387c23aa93" target="_top" xlink:title="Get a Term for a given name of a Concept or Operator. ">
<polygon fill="none" stroke="black" points="634.5,-137.5 634.5,-167.5 770.5,-167.5 770.5,-137.5 634.5,-137.5"/>
<text text-anchor="start" x="642.5" y="-155.5" font-family="Helvetica,sans-Serif" font-size="10.00">nars.storage.Memory.name</text>
<text text-anchor="middle" x="702.5" y="-144.5" font-family="Helvetica,sans-Serif" font-size="10.00">ToListedTerm</text>
</a>
</g>
</g>
<!-- Node11&#45;&gt;Node15 -->
<g id="edge15" class="edge"><title>Node11&#45;&gt;Node15</title>
<path fill="none" stroke="midnightblue" d="M539.445,-240.959C549.152,-237.698 558.808,-233.335 567,-227.5 589.599,-211.405 580.063,-192.11 603,-176.5 609.672,-171.959 617.115,-168.275 624.837,-165.286"/>
<polygon fill="midnightblue" stroke="midnightblue" points="626.067,-168.564 634.363,-161.975 623.768,-161.952 626.067,-168.564"/>
</g>
<!-- Node16 -->
<g id="node16" class="node"><title>Node16</title>
<g id="a_node16"><a xlink:href="../../d8/df4/classnars_1_1storage_1_1Memory_a33af7b3d806d32c85390563fec3c6d27.html#a33af7b3d806d32c85390563fec3c6d27" target="_top" xlink:title="Concept bag. ">
<polygon fill="none" stroke="black" points="838,-176 838,-195 1005,-195 1005,-176 838,-176"/>
<text text-anchor="middle" x="921.5" y="-183" font-family="Helvetica,sans-Serif" font-size="10.00">nars.storage.Memory.getConcepts</text>
</a>
</g>
</g>
<!-- Node15&#45;&gt;Node16 -->
<g id="edge16" class="edge"><title>Node15&#45;&gt;Node16</title>
<path fill="none" stroke="midnightblue" d="M770.674,-162.715C795.07,-166.425 822.744,-170.634 847.611,-174.416"/>
<polygon fill="midnightblue" stroke="midnightblue" points="847.301,-177.909 857.714,-175.952 848.353,-170.988 847.301,-177.909"/>
</g>
<!-- Node17 -->
<g id="node17" class="node"><title>Node17</title>
<g id="a_node17"><a xlink:href="../../d9/d37/classnars_1_1storage_1_1Bag_a011b37fc683db7fb7b41e33712a37d92.html#a011b37fc683db7fb7b41e33712a37d92" target="_top" xlink:title="Get an Item by key. ">
<polygon fill="none" stroke="black" points="868,-138 868,-157 975,-157 975,-138 868,-138"/>
<text text-anchor="middle" x="921.5" y="-145" font-family="Helvetica,sans-Serif" font-size="10.00">nars.storage.Bag.get</text>
</a>
</g>
</g>
<!-- Node15&#45;&gt;Node17 -->
<g id="edge17" class="edge"><title>Node15&#45;&gt;Node17</title>
<path fill="none" stroke="midnightblue" d="M770.674,-150.952C798.378,-150.314 830.308,-149.578 857.554,-148.95"/>
<polygon fill="midnightblue" stroke="midnightblue" points="857.832,-152.445 867.749,-148.715 857.671,-145.447 857.832,-152.445"/>
</g>
<!-- Node18 -->
<g id="node18" class="node"><title>Node18</title>
<g id="a_node18"><a xlink:href="../../d4/d22/classnars_1_1entity_1_1Concept_afcd1217b7680b073fa51f0d0f159dcea.html#afcd1217b7680b073fa51f0d0f159dcea" target="_top" xlink:title="Return the associated term, called from Memory only. ">
<polygon fill="none" stroke="black" points="851,-100 851,-119 992,-119 992,-100 851,-100"/>
<text text-anchor="middle" x="921.5" y="-107" font-family="Helvetica,sans-Serif" font-size="10.00">nars.entity.Concept.getTerm</text>
</a>
</g>
</g>
<!-- Node15&#45;&gt;Node18 -->
<g id="edge18" class="edge"><title>Node15&#45;&gt;Node18</title>
<path fill="none" stroke="midnightblue" d="M770.674,-139.189C799.941,-133.39 833.924,-126.656 862.12,-121.068"/>
<polygon fill="midnightblue" stroke="midnightblue" points="863.098,-124.443 872.227,-119.066 861.737,-117.576 863.098,-124.443"/>
</g>
<!-- Node19&#45;&gt;Node11 -->
<g id="edge21" class="edge"><title>Node19&#45;&gt;Node11</title>
<path fill="none" stroke="midnightblue" d="M327.767,-209.007C341.446,-211.885 356.347,-215.171 370,-218.5 394.543,-224.484 421.783,-231.99 443.644,-238.227"/>
<polygon fill="midnightblue" stroke="midnightblue" points="442.702,-241.598 453.28,-240.994 444.634,-234.87 442.702,-241.598"/>
</g>
<!-- Node20 -->
<g id="node20" class="node"><title>Node20</title>
<g id="a_node20"><a xlink:href="../../d2/dfc/classnars_1_1language_1_1SetInt_aaea0f2cc2ca804779d1bf346beb58fa1.html#aaea0f2cc2ca804779d1bf346beb58fa1" target="_top" xlink:title="Try to make a new set from one component. ">
<polygon fill="none" stroke="black" points="419.5,-199 419.5,-218 553.5,-218 553.5,-199 419.5,-199"/>
<text text-anchor="middle" x="486.5" y="-206" font-family="Helvetica,sans-Serif" font-size="10.00">nars.language.SetInt.make</text>
</a>
</g>
</g>
<!-- Node19&#45;&gt;Node20 -->
<g id="edge20" class="edge"><title>Node19&#45;&gt;Node20</title>
<path fill="none" stroke="midnightblue" d="M351.009,-202.61C369.792,-203.432 390.144,-204.324 409.195,-205.158"/>
<polygon fill="midnightblue" stroke="midnightblue" points="409.18,-208.661 419.324,-205.602 409.486,-201.667 409.18,-208.661"/>
</g>
<!-- Node21&#45;&gt;Node10 -->
<g id="edge23" class="edge"><title>Node21&#45;&gt;Node10</title>
<path fill="none" stroke="midnightblue" d="M310.322,-247.091C346.243,-258.453 406.192,-277.415 445.787,-289.939"/>
<polygon fill="midnightblue" stroke="midnightblue" points="444.798,-293.297 455.388,-292.976 446.909,-286.623 444.798,-293.297"/>
</g>
<!-- Node21&#45;&gt;Node11 -->
<g id="edge25" class="edge"><title>Node21&#45;&gt;Node11</title>
<path fill="none" stroke="midnightblue" d="M370.135,-243.202C379.639,-243.803 389.289,-244.414 398.753,-245.012"/>
<polygon fill="midnightblue" stroke="midnightblue" points="398.733,-248.518 408.934,-245.656 399.175,-241.532 398.733,-248.518"/>
</g>
<!-- Node21&#45;&gt;Node20 -->
<g id="edge24" class="edge"><title>Node21&#45;&gt;Node20</title>
<path fill="none" stroke="midnightblue" d="M347.573,-227.964C367.288,-225.182 388.968,-222.123 409.183,-219.27"/>
<polygon fill="midnightblue" stroke="midnightblue" points="409.874,-222.707 419.287,-217.844 408.896,-215.776 409.874,-222.707"/>
</g>
<!-- Node22&#45;&gt;Node2 -->
<g id="edge31" class="edge"><title>Node22&#45;&gt;Node2</title>
<path fill="none" stroke="midnightblue" d="M537.134,-379.991C560.126,-375.586 588.135,-370.22 614.47,-365.174"/>
<polygon fill="midnightblue" stroke="midnightblue" points="615.305,-368.578 624.468,-363.258 613.988,-361.703 615.305,-368.578"/>
</g>
<!-- Node22&#45;&gt;Node6 -->
<g id="edge29" class="edge"><title>Node22&#45;&gt;Node6</title>
<path fill="none" stroke="midnightblue" d="M564.413,-394.118C641.978,-398.776 761.214,-405.935 840.026,-410.668"/>
<polygon fill="midnightblue" stroke="midnightblue" points="840.197,-414.184 850.389,-411.29 840.617,-407.197 840.197,-414.184"/>
</g>
<!-- Node22&#45;&gt;Node12 -->
<g id="edge27" class="edge"><title>Node22&#45;&gt;Node12</title>
<path fill="none" stroke="midnightblue" d="M502.703,-379.988C520.385,-368.223 549.391,-346.641 567,-321.5 593.141,-284.176 568.908,-255.735 603,-225.5 604.313,-224.336 605.673,-223.226 607.074,-222.168"/>
<polygon fill="midnightblue" stroke="midnightblue" points="609.054,-225.055 615.514,-216.657 605.227,-219.194 609.054,-225.055"/>
</g>
<!-- Node22&#45;&gt;Node14 -->
<g id="edge32" class="edge"><title>Node22&#45;&gt;Node14</title>
<path fill="none" stroke="midnightblue" d="M500.337,-379.884C516.681,-367.344 545.39,-344.309 567,-321.5 585.097,-302.399 580.963,-288.878 603,-274.5 607.357,-271.658 612.02,-269.152 616.862,-266.942"/>
<polygon fill="midnightblue" stroke="midnightblue" points="618.433,-270.081 626.358,-263.049 615.778,-263.604 618.433,-270.081"/>
</g>
<!-- Node22&#45;&gt;Node15 -->
<g id="edge33" class="edge"><title>Node22&#45;&gt;Node15</title>
<path fill="none" stroke="midnightblue" d="M503.866,-379.915C522.086,-368.381 551.062,-347.306 567,-321.5 601.892,-265.006 555.945,-223.35 603,-176.5 609.253,-170.274 616.834,-165.566 624.984,-162.021"/>
<polygon fill="midnightblue" stroke="midnightblue" points="626.253,-165.283 634.386,-158.493 623.794,-158.729 626.253,-165.283"/>
</g>
<!-- Node23 -->
<g id="node23" class="node"><title>Node23</title>
<g id="a_node23"><a xlink:href="../../d0/dee/classnars_1_1language_1_1CompoundTerm_ad637ccaf9aecf41f3961d095900f2d5e.html#ad637ccaf9aecf41f3961d095900f2d5e" target="_top" xlink:title="Check whether the compound contains a certain component. ">
<polygon fill="none" stroke="black" points="610,-470.5 610,-500.5 795,-500.5 795,-470.5 610,-470.5"/>
<text text-anchor="start" x="618" y="-488.5" font-family="Helvetica,sans-Serif" font-size="10.00">nars.language.CompoundTerm.contain</text>
<text text-anchor="middle" x="702.5" y="-477.5" font-family="Helvetica,sans-Serif" font-size="10.00">Component</text>
</a>
</g>
</g>
<!-- Node22&#45;&gt;Node23 -->
<g id="edge28" class="edge"><title>Node22&#45;&gt;Node23</title>
<path fill="none" stroke="midnightblue" d="M500.303,-399.189C520.893,-414.337 563.107,-443.64 603,-460.5 608.866,-462.979 615.035,-465.256 621.307,-467.339"/>
<polygon fill="midnightblue" stroke="midnightblue" points="620.627,-470.794 631.216,-470.452 622.725,-464.116 620.627,-470.794"/>
</g>
<!-- Node24 -->
<g id="node24" class="node"><title>Node24</title>
<g id="a_node24"><a xlink:href="../../da/db6/classnars_1_1language_1_1Implication_ab92b733902106af6deccfbbf06e63709.html#ab92b733902106af6deccfbbf06e63709" target="_top" xlink:title="Constructor with partial values, called by make. ">
<polygon fill="none" stroke="black" points="637,-421.5 637,-451.5 768,-451.5 768,-421.5 637,-421.5"/>
<text text-anchor="start" x="645" y="-439.5" font-family="Helvetica,sans-Serif" font-size="10.00">nars.language.Implication.</text>
<text text-anchor="middle" x="702.5" y="-428.5" font-family="Helvetica,sans-Serif" font-size="10.00">Implication</text>
</a>
</g>
</g>
<!-- Node22&#45;&gt;Node24 -->
<g id="edge30" class="edge"><title>Node22&#45;&gt;Node24</title>
<path fill="none" stroke="midnightblue" d="M530.806,-399.011C558.366,-405.064 594.789,-413.064 626.91,-420.118"/>
<polygon fill="midnightblue" stroke="midnightblue" points="626.208,-423.547 636.726,-422.274 627.709,-416.71 626.208,-423.547"/>
</g>
<!-- Node25&#45;&gt;Node2 -->
<g id="edge39" class="edge"><title>Node25&#45;&gt;Node2</title>
<path fill="none" stroke="midnightblue" d="M543.359,-174.146C552.163,-177.758 560.492,-182.711 567,-189.5 609.675,-234.016 559.093,-280.199 603,-323.5 606.58,-327.031 610.584,-330.085 614.873,-332.726"/>
<polygon fill="midnightblue" stroke="midnightblue" points="613.557,-335.99 624.032,-337.584 616.838,-329.806 613.557,-335.99"/>
</g>
<!-- Node25&#45;&gt;Node12 -->
<g id="edge35" class="edge"><title>Node25&#45;&gt;Node12</title>
<path fill="none" stroke="midnightblue" d="M542.61,-174.028C561.533,-177.3 583.313,-181.066 604.559,-184.739"/>
<polygon fill="midnightblue" stroke="midnightblue" points="604.15,-188.22 614.6,-186.475 605.343,-181.323 604.15,-188.22"/>
</g>
<!-- Node25&#45;&gt;Node14 -->
<g id="edge40" class="edge"><title>Node25&#45;&gt;Node14</title>
<path fill="none" stroke="midnightblue" d="M530.797,-174.013C543.025,-177.768 555.989,-182.824 567,-189.5 586.349,-201.231 583.33,-214.316 603,-225.5 607.439,-228.024 612.134,-230.297 616.97,-232.343"/>
<polygon fill="midnightblue" stroke="midnightblue" points="615.824,-235.653 626.413,-236.005 618.355,-229.126 615.824,-235.653"/>
</g>
<!-- Node25&#45;&gt;Node15 -->
<g id="edge41" class="edge"><title>Node25&#45;&gt;Node15</title>
<path fill="none" stroke="midnightblue" d="M567.186,-160.032C585.835,-158.986 605.671,-157.874 624.214,-156.834"/>
<polygon fill="midnightblue" stroke="midnightblue" points="624.579,-160.319 634.367,-156.264 624.187,-153.33 624.579,-160.319"/>
</g>
<!-- Node26 -->
<g id="node26" class="node"><title>Node26</title>
<g id="a_node26"><a xlink:href="../../d8/db8/classnars_1_1language_1_1Term_ab9bc1c9cc779c07b09983b41ed8491e1.html#ab9bc1c9cc779c07b09983b41ed8491e1" target="_top" xlink:title="Check the relative order of two Terms. ">
<polygon fill="none" stroke="black" points="625,-50 625,-69 780,-69 780,-50 625,-50"/>
<text text-anchor="middle" x="702.5" y="-57" font-family="Helvetica,sans-Serif" font-size="10.00">nars.language.Term.compareTo</text>
</a>
</g>
</g>
<!-- Node25&#45;&gt;Node26 -->
<g id="edge36" class="edge"><title>Node25&#45;&gt;Node26</title>
<path fill="none" stroke="midnightblue" d="M550.182,-154.995C556.203,-152.509 561.94,-149.396 567,-145.5 593.784,-124.877 575.768,-98.5287 603,-78.5 606.915,-75.6204 611.147,-73.1428 615.581,-71.0139"/>
<polygon fill="midnightblue" stroke="midnightblue" points="617.044,-74.1958 624.926,-67.1163 614.35,-67.7351 617.044,-74.1958"/>
</g>
<!-- Node27 -->
<g id="node27" class="node"><title>Node27</title>
<g id="a_node27"><a xlink:href="../../d1/d8b/classnars_1_1language_1_1Equivalence_a0b0aac062c08a1cefa084bfec24386d2.html#a0b0aac062c08a1cefa084bfec24386d2" target="_top" xlink:title="Constructor with partial values, called by make. ">
<polygon fill="none" stroke="black" points="634,-88.5 634,-118.5 771,-118.5 771,-88.5 634,-88.5"/>
<text text-anchor="start" x="642" y="-106.5" font-family="Helvetica,sans-Serif" font-size="10.00">nars.language.Equivalence.</text>
<text text-anchor="middle" x="702.5" y="-95.5" font-family="Helvetica,sans-Serif" font-size="10.00">Equivalence</text>
</a>
</g>
</g>
<!-- Node25&#45;&gt;Node27 -->
<g id="edge38" class="edge"><title>Node25&#45;&gt;Node27</title>
<path fill="none" stroke="midnightblue" d="M535.529,-154.897C546.034,-152.279 556.999,-149.141 567,-145.5 583.809,-139.381 586.204,-133.656 603,-127.5 609.76,-125.022 616.875,-122.724 624.058,-120.61"/>
<polygon fill="midnightblue" stroke="midnightblue" points="625.195,-123.926 633.869,-117.843 623.295,-117.189 625.195,-123.926"/>
</g>
<!-- Node26&#45;&gt;Node5 -->
<g id="edge37" class="edge"><title>Node26&#45;&gt;Node5</title>
<path fill="none" stroke="midnightblue" d="M780.231,-51.9908C844.063,-49.2182 935.404,-53.5466 1005,-90.5 1052.54,-115.741 1087.6,-171.484 1103.51,-200.739"/>
<polygon fill="midnightblue" stroke="midnightblue" points="1100.57,-202.672 1108.33,-209.889 1106.77,-199.41 1100.57,-202.672"/>
</g>
<!-- Node28&#45;&gt;Node2 -->
<g id="edge45" class="edge"><title>Node28&#45;&gt;Node2</title>
<path fill="none" stroke="midnightblue" d="M554.491,-136.131C559.099,-138.641 563.353,-141.723 567,-145.5 623.064,-203.564 547.343,-265.046 603,-323.5 606.633,-327.315 610.758,-330.581 615.212,-333.372"/>
<polygon fill="midnightblue" stroke="midnightblue" points="613.673,-336.519 624.138,-338.178 616.992,-330.356 613.673,-336.519"/>
</g>
<!-- Node28&#45;&gt;Node12 -->
<g id="edge43" class="edge"><title>Node28&#45;&gt;Node12</title>
<path fill="none" stroke="midnightblue" d="M542.615,-136.04C551.025,-138.52 559.419,-141.623 567,-145.5 585.799,-155.114 584.269,-166.755 603,-176.5 607.53,-178.857 612.295,-181.001 617.184,-182.949"/>
<polygon fill="midnightblue" stroke="midnightblue" points="616.116,-186.285 626.709,-186.46 618.537,-179.717 616.116,-186.285"/>
</g>
<!-- Node28&#45;&gt;Node14 -->
<g id="edge46" class="edge"><title>Node28&#45;&gt;Node14</title>
<path fill="none" stroke="midnightblue" d="M551.656,-136.168C557.183,-138.636 562.408,-141.7 567,-145.5 597.039,-170.357 573.135,-200.434 603,-225.5 607.308,-229.115 612.069,-232.218 617.106,-234.879"/>
<polygon fill="midnightblue" stroke="midnightblue" points="615.885,-238.171 626.429,-239.209 618.834,-231.823 615.885,-238.171"/>
</g>
<!-- Node28&#45;&gt;Node15 -->
<g id="edge47" class="edge"><title>Node28&#45;&gt;Node15</title>
<path fill="none" stroke="midnightblue" d="M560.548,-135.375C581.047,-137.866 603.401,-140.581 624.141,-143.101"/>
<polygon fill="midnightblue" stroke="midnightblue" points="623.829,-146.589 634.178,-144.321 624.673,-139.64 623.829,-146.589"/>
</g>
<!-- Node28&#45;&gt;Node26 -->
<g id="edge44" class="edge"><title>Node28&#45;&gt;Node26</title>
<path fill="none" stroke="midnightblue" d="M507.082,-116.917C529.703,-106.19 568.274,-88.9465 603,-78.5 612.16,-75.7446 621.923,-73.2969 631.609,-71.1518"/>
<polygon fill="midnightblue" stroke="midnightblue" points="632.589,-74.522 641.646,-69.0257 631.138,-67.674 632.589,-74.522"/>
</g>
<!-- Node29 -->
<g id="node29" class="node"><title>Node29</title>
<g id="a_node29"><a xlink:href="../../d3/d1f/classnars_1_1language_1_1Similarity_ad0a41421c692d6b4ff8fc4cef5b98b4a.html#ad0a41421c692d6b4ff8fc4cef5b98b4a" target="_top" xlink:title="Constructor with partial values, called by make. ">
<polygon fill="none" stroke="black" points="640.5,-0.5 640.5,-30.5 764.5,-30.5 764.5,-0.5 640.5,-0.5"/>
<text text-anchor="start" x="648.5" y="-18.5" font-family="Helvetica,sans-Serif" font-size="10.00">nars.language.Similarity.</text>
<text text-anchor="middle" x="702.5" y="-7.5" font-family="Helvetica,sans-Serif" font-size="10.00">Similarity</text>
</a>
</g>
</g>
<!-- Node28&#45;&gt;Node29 -->
<g id="edge48" class="edge"><title>Node28&#45;&gt;Node29</title>
<path fill="none" stroke="midnightblue" d="M497.421,-116.931C516.361,-99.1907 559.66,-61.1315 603,-40.5 611.631,-36.3914 621.02,-32.9021 630.461,-29.954"/>
<polygon fill="midnightblue" stroke="midnightblue" points="631.675,-33.2454 640.288,-27.0744 629.707,-26.5278 631.675,-33.2454"/>
</g>
</g>
</svg>
