<?xml version="1.0" encoding="UTF-8" standalone="no"?>
<!DOCTYPE svg PUBLIC "-//W3C//DTD SVG 1.1//EN"
 "http://www.w3.org/Graphics/SVG/1.1/DTD/svg11.dtd">
<!-- Generated by graphviz version 2.38.0 (20140413.2041)
 -->
<!-- Title: nars.language.Statement.make Pages: 1 -->
<!--zoomable 509 -->
<svg id="main" version="1.1" xmlns="http://www.w3.org/2000/svg" xmlns:xlink="http://www.w3.org/1999/xlink" xml:space="preserve" onload="init(evt)">
<style type="text/css"><![CDATA[
.edge:hover path { stroke: red; }
.edge:hover polygon { stroke: red; fill: red; }
]]></style>
<script type="text/javascript"><![CDATA[
var edges = document.getElementsByTagName('g');
if (edges && edges.length) {
  for (var i=0;i<edges.length;i++) {
    if (edges[i].id.substr(0,4)=='edge') {
      edges[i].setAttribute('class','edge');
    }
  }
}
]]></script>
        <defs>
                <circle id="rim" cx="0" cy="0" r="7"/>
                <circle id="rim2" cx="0" cy="0" r="3.5"/>
                <g id="zoomPlus">
                        <use xlink:href="#rim" fill="#404040">
                                <set attributeName="fill" to="#808080" begin="zoomplus.mouseover" end="zoomplus.mouseout"/>
                        </use>
                        <path d="M-4,0h8M0,-4v8" fill="none" stroke="white" stroke-width="1.5" pointer-events="none"/>
                </g>
                <g id="zoomMin">
                        <use xlink:href="#rim" fill="#404040">
                                <set attributeName="fill" to="#808080" begin="zoomminus.mouseover" end="zoomminus.mouseout"/>
                        </use>
                        <path d="M-4,0h8" fill="none" stroke="white" stroke-width="1.5" pointer-events="none"/>
                </g>
                <g id="dirArrow">
                        <path fill="none" stroke="white" stroke-width="1.5" d="M0,-3.0v7 M-2.5,-0.5L0,-3.0L2.5,-0.5"/>
                </g>
               <g id="resetDef">
                       <use xlink:href="#rim2" fill="#404040">
                               <set attributeName="fill" to="#808080" begin="reset.mouseover" end="reset.mouseout"/>
                       </use>
               </g>
        </defs>

<script type="text/javascript">
var viewWidth = 1383;
var viewHeight = 509;
var sectionId = 'dynsection-0';
</script>
<script xlink:href="../../svgpan.js"/>
<svg id="graph" class="graph">
<g id="viewport">
<title>nars.language.Statement.make</title>
<!-- Node1 -->
<g id="node1" class="node"><title>Node1</title>
<polygon fill="#bfbfbf" stroke="black" points="0,-247 0,-266 152,-266 152,-247 0,-247"/>
<text text-anchor="middle" x="76" y="-254" font-family="Helvetica,sans-Serif" font-size="10.00">nars.language.Statement.make</text>
</g>
<!-- Node2 -->
<g id="node2" class="node"><title>Node2</title>
<g id="a_node2"><a xlink:href="../../d1/d5e/classnars_1_1language_1_1Statement_a4e4c29fc305a6741da88ce55fbf11e4a.html#a4e4c29fc305a6741da88ce55fbf11e4a" target="_top" xlink:title="Make a Statement from String, called by StringParser. ">
<polygon fill="none" stroke="black" points="188,-247 188,-266 340,-266 340,-247 188,-247"/>
<text text-anchor="middle" x="264" y="-254" font-family="Helvetica,sans-Serif" font-size="10.00">nars.language.Statement.make</text>
</a>
</g>
</g>
<!-- Node1&#45;&gt;Node2 -->
<g id="edge1" class="edge"><title>Node1&#45;&gt;Node2</title>
<path fill="none" stroke="midnightblue" d="M152.117,-256.5C160.596,-256.5 169.281,-256.5 177.875,-256.5"/>
<polygon fill="midnightblue" stroke="midnightblue" points="177.905,-260 187.905,-256.5 177.905,-253 177.905,-260"/>
</g>
<!-- Node3 -->
<g id="node3" class="node"><title>Node3</title>
<g id="a_node3"><a xlink:href="../../d1/d5e/classnars_1_1language_1_1Statement_a96d4bf7bb99f48b6496cdb7457bc0e50.html#a96d4bf7bb99f48b6496cdb7457bc0e50" target="_top" xlink:title="Check the validity of a potential Statement. ">
<polygon fill="none" stroke="black" points="812.5,-333.5 812.5,-363.5 968.5,-363.5 968.5,-333.5 812.5,-333.5"/>
<text text-anchor="start" x="820.5" y="-351.5" font-family="Helvetica,sans-Serif" font-size="10.00">nars.language.Statement.invalid</text>
<text text-anchor="middle" x="890.5" y="-340.5" font-family="Helvetica,sans-Serif" font-size="10.00">Statement</text>
</a>
</g>
</g>
<!-- Node2&#45;&gt;Node3 -->
<g id="edge2" class="edge"><title>Node2&#45;&gt;Node3</title>
<path fill="none" stroke="midnightblue" d="M274.633,-266.032C292.679,-283.16 333.597,-318.647 376,-332.5 452.486,-357.487 676.232,-355.201 801.669,-351.673"/>
<polygon fill="midnightblue" stroke="midnightblue" points="802.115,-355.161 812.009,-351.373 801.912,-348.164 802.115,-355.161"/>
</g>
<!-- Node10 -->
<g id="node10" class="node"><title>Node10</title>
<g id="a_node10"><a xlink:href="../../df/d4e/classnars_1_1language_1_1Instance_a94badab1e9fc19ebe33b06fcbb169453.html#a94badab1e9fc19ebe33b06fcbb169453" target="_top" xlink:title="Try to make a new compound from two components. ">
<polygon fill="none" stroke="black" points="394.5,-304 394.5,-323 539.5,-323 539.5,-304 394.5,-304"/>
<text text-anchor="middle" x="467" y="-311" font-family="Helvetica,sans-Serif" font-size="10.00">nars.language.Instance.make</text>
</a>
</g>
</g>
<!-- Node2&#45;&gt;Node10 -->
<g id="edge9" class="edge"><title>Node2&#45;&gt;Node10</title>
<path fill="none" stroke="midnightblue" d="M296.509,-266.127C318.69,-272.84 349.103,-281.917 376,-289.5 390.027,-293.455 405.333,-297.599 419.277,-301.31"/>
<polygon fill="midnightblue" stroke="midnightblue" points="418.59,-304.749 429.153,-303.927 420.383,-297.982 418.59,-304.749"/>
</g>
<!-- Node12 -->
<g id="node12" class="node"><title>Node12</title>
<g id="a_node12"><a xlink:href="../../d0/df3/classnars_1_1language_1_1Inheritance_a5ccaf18d33e722f438944debb2757b34.html#a5ccaf18d33e722f438944debb2757b34" target="_top" xlink:title="Try to make a new compound from two components. ">
<polygon fill="none" stroke="black" points="597,-241 597,-260 752,-260 752,-241 597,-241"/>
<text text-anchor="middle" x="674.5" y="-248" font-family="Helvetica,sans-Serif" font-size="10.00">nars.language.Inheritance.make</text>
</a>
</g>
</g>
<!-- Node2&#45;&gt;Node12 -->
<g id="edge50" class="edge"><title>Node2&#45;&gt;Node12</title>
<path fill="none" stroke="midnightblue" d="M340.288,-257.573C399.479,-258.158 484.012,-258.42 558,-256.5 567.311,-256.258 577.04,-255.907 586.729,-255.494"/>
<polygon fill="midnightblue" stroke="midnightblue" points="586.96,-258.988 596.794,-255.044 586.647,-251.995 586.96,-258.988"/>
</g>
<!-- Node20 -->
<g id="node20" class="node"><title>Node20</title>
<g id="a_node20"><a xlink:href="../../dd/dd7/classnars_1_1language_1_1Property_a808d99e39dfc525841db6b645d118979.html#a808d99e39dfc525841db6b645d118979" target="_top" xlink:title="Try to make a new compound from two components. ">
<polygon fill="none" stroke="black" points="395,-190 395,-209 539,-209 539,-190 395,-190"/>
<text text-anchor="middle" x="467" y="-197" font-family="Helvetica,sans-Serif" font-size="10.00">nars.language.Property.make</text>
</a>
</g>
</g>
<!-- Node2&#45;&gt;Node20 -->
<g id="edge20" class="edge"><title>Node2&#45;&gt;Node20</title>
<path fill="none" stroke="midnightblue" d="M290.295,-246.854C312.617,-238.581 346.152,-226.727 376,-218.5 385.468,-215.89 395.581,-213.438 405.483,-211.218"/>
<polygon fill="midnightblue" stroke="midnightblue" points="406.259,-214.631 415.283,-209.078 404.766,-207.792 406.259,-214.631"/>
</g>
<!-- Node22 -->
<g id="node22" class="node"><title>Node22</title>
<g id="a_node22"><a xlink:href="../../d6/d3b/classnars_1_1language_1_1InstanceProperty_a429b8b61ed41ea338c8fc668fb8304f7.html#a429b8b61ed41ea338c8fc668fb8304f7" target="_top" xlink:title="Try to make a new compound from two components. ">
<polygon fill="none" stroke="black" points="376,-228 376,-247 558,-247 558,-228 376,-228"/>
<text text-anchor="middle" x="467" y="-235" font-family="Helvetica,sans-Serif" font-size="10.00">nars.language.InstanceProperty.make</text>
</a>
</g>
</g>
<!-- Node2&#45;&gt;Node22 -->
<g id="edge23" class="edge"><title>Node2&#45;&gt;Node22</title>
<path fill="none" stroke="midnightblue" d="M340.131,-249.398C348.466,-248.61 357.05,-247.799 365.633,-246.987"/>
<polygon fill="midnightblue" stroke="midnightblue" points="366.067,-250.462 375.693,-246.036 365.408,-243.493 366.067,-250.462"/>
</g>
<!-- Node23 -->
<g id="node23" class="node"><title>Node23</title>
<g id="a_node23"><a xlink:href="../../da/db6/classnars_1_1language_1_1Implication_a9af204cfe23c573d9987f27f8f8c7d8f.html#a9af204cfe23c573d9987f27f8f8c7d8f" target="_top" xlink:title="Try to make a new compound from two components. ">
<polygon fill="none" stroke="black" points="597,-380 597,-399 752,-399 752,-380 597,-380"/>
<text text-anchor="middle" x="674.5" y="-387" font-family="Helvetica,sans-Serif" font-size="10.00">nars.language.Implication.make</text>
</a>
</g>
</g>
<!-- Node2&#45;&gt;Node23 -->
<g id="edge27" class="edge"><title>Node2&#45;&gt;Node23</title>
<path fill="none" stroke="midnightblue" d="M271.331,-266.309C286.353,-288.614 326.619,-342.948 376,-365.5 442.192,-395.729 525.287,-400.015 586.822,-397.724"/>
<polygon fill="midnightblue" stroke="midnightblue" points="587.054,-401.218 596.892,-397.284 586.748,-394.224 587.054,-401.218"/>
</g>
<!-- Node26 -->
<g id="node26" class="node"><title>Node26</title>
<g id="a_node26"><a xlink:href="../../d1/d8b/classnars_1_1language_1_1Equivalence_ad5069483330bc875fbb48a1e992f7bf7.html#ad5069483330bc875fbb48a1e992f7bf7" target="_top" xlink:title="Try to make a new compound from two components. ">
<polygon fill="none" stroke="black" points="594,-155 594,-174 755,-174 755,-155 594,-155"/>
<text text-anchor="middle" x="674.5" y="-162" font-family="Helvetica,sans-Serif" font-size="10.00">nars.language.Equivalence.make</text>
</a>
</g>
</g>
<!-- Node2&#45;&gt;Node26 -->
<g id="edge35" class="edge"><title>Node2&#45;&gt;Node26</title>
<path fill="none" stroke="midnightblue" d="M274.95,-246.793C293.189,-229.714 333.978,-194.755 376,-180.5 443.024,-157.763 523.394,-154.761 583.694,-156.893"/>
<polygon fill="midnightblue" stroke="midnightblue" points="583.817,-160.401 593.951,-157.312 584.102,-153.407 583.817,-160.401"/>
</g>
<!-- Node29 -->
<g id="node29" class="node"><title>Node29</title>
<g id="a_node29"><a xlink:href="../../d3/d1f/classnars_1_1language_1_1Similarity_ae72436d78c25d4735b4201d773dd1901.html#ae72436d78c25d4735b4201d773dd1901" target="_top" xlink:title="Try to make a new compound from two components. ">
<polygon fill="none" stroke="black" points="600.5,-117 600.5,-136 748.5,-136 748.5,-117 600.5,-117"/>
<text text-anchor="middle" x="674.5" y="-124" font-family="Helvetica,sans-Serif" font-size="10.00">nars.language.Similarity.make</text>
</a>
</g>
</g>
<!-- Node2&#45;&gt;Node29 -->
<g id="edge43" class="edge"><title>Node2&#45;&gt;Node29</title>
<path fill="none" stroke="midnightblue" d="M271.688,-246.839C287.153,-225.399 327.775,-174.037 376,-152.5 443.714,-122.26 528.635,-117.696 590.395,-119.555"/>
<polygon fill="midnightblue" stroke="midnightblue" points="590.367,-123.057 600.488,-119.922 590.622,-116.061 590.367,-123.057"/>
</g>
<!-- Node4 -->
<g id="node4" class="node"><title>Node4</title>
<g id="a_node4"><a xlink:href="../../d0/dee/classnars_1_1language_1_1CompoundTerm_a89000afae8017231889aaa549292d1e0.html#a89000afae8017231889aaa549292d1e0" target="_top" xlink:title="Default constructor. ">
<polygon fill="none" stroke="black" points="1033,-312.5 1033,-342.5 1186,-342.5 1186,-312.5 1033,-312.5"/>
<text text-anchor="start" x="1041" y="-330.5" font-family="Helvetica,sans-Serif" font-size="10.00">nars.language.CompoundTerm.</text>
<text text-anchor="middle" x="1109.5" y="-319.5" font-family="Helvetica,sans-Serif" font-size="10.00">CompoundTerm</text>
</a>
</g>
</g>
<!-- Node3&#45;&gt;Node4 -->
<g id="edge3" class="edge"><title>Node3&#45;&gt;Node4</title>
<path fill="none" stroke="midnightblue" d="M968.617,-341.037C986.031,-339.352 1004.62,-337.552 1022.38,-335.834"/>
<polygon fill="midnightblue" stroke="midnightblue" points="1023.11,-339.28 1032.73,-334.833 1022.43,-332.313 1023.11,-339.28"/>
</g>
<!-- Node5 -->
<g id="node5" class="node"><title>Node5</title>
<g id="a_node5"><a xlink:href="../../d8/db8/classnars_1_1language_1_1Term_ad85f45a7858737445d5158801774ff5f.html#ad85f45a7858737445d5158801774ff5f" target="_top" xlink:title="Equal terms have identical name, though not necessarily the same reference. ">
<polygon fill="none" stroke="black" points="1042.5,-362 1042.5,-381 1176.5,-381 1176.5,-362 1042.5,-362"/>
<text text-anchor="middle" x="1109.5" y="-369" font-family="Helvetica,sans-Serif" font-size="10.00">nars.language.Term.equals</text>
</a>
</g>
</g>
<!-- Node3&#45;&gt;Node5 -->
<g id="edge4" class="edge"><title>Node3&#45;&gt;Node5</title>
<path fill="none" stroke="midnightblue" d="M968.617,-356.674C989.346,-358.871 1011.75,-361.245 1032.42,-363.436"/>
<polygon fill="midnightblue" stroke="midnightblue" points="1032.1,-366.922 1042.41,-364.495 1032.84,-359.961 1032.1,-366.922"/>
</g>
<!-- Node7 -->
<g id="node7" class="node"><title>Node7</title>
<g id="a_node7"><a xlink:href="../../d1/d5e/classnars_1_1language_1_1Statement_ababe6155e2f78e769f76493317e118e0.html#ababe6155e2f78e769f76493317e118e0" target="_top" xlink:title="Return the second component of the statement. ">
<polygon fill="none" stroke="black" points="1038.5,-400.5 1038.5,-430.5 1180.5,-430.5 1180.5,-400.5 1038.5,-400.5"/>
<text text-anchor="start" x="1046.5" y="-418.5" font-family="Helvetica,sans-Serif" font-size="10.00">nars.language.Statement.get</text>
<text text-anchor="middle" x="1109.5" y="-407.5" font-family="Helvetica,sans-Serif" font-size="10.00">Predicate</text>
</a>
</g>
</g>
<!-- Node3&#45;&gt;Node7 -->
<g id="edge6" class="edge"><title>Node3&#45;&gt;Node7</title>
<path fill="none" stroke="midnightblue" d="M941.688,-363.509C957.203,-368.224 974.331,-373.503 990,-378.5 1006.07,-383.624 1009.93,-385.387 1026,-390.5 1033.14,-392.771 1040.64,-395.11 1048.09,-397.404"/>
<polygon fill="midnightblue" stroke="midnightblue" points="1047.23,-400.801 1057.82,-400.383 1049.28,-394.108 1047.23,-400.801"/>
</g>
<!-- Node8 -->
<g id="node8" class="node"><title>Node8</title>
<g id="a_node8"><a xlink:href="../../d1/d5e/classnars_1_1language_1_1Statement_ace4f80751d303c613e467163913bebf5.html#ace4f80751d303c613e467163913bebf5" target="_top" xlink:title="Return the first component of the statement. ">
<polygon fill="none" stroke="black" points="1038.5,-263.5 1038.5,-293.5 1180.5,-293.5 1180.5,-263.5 1038.5,-263.5"/>
<text text-anchor="start" x="1046.5" y="-281.5" font-family="Helvetica,sans-Serif" font-size="10.00">nars.language.Statement.get</text>
<text text-anchor="middle" x="1109.5" y="-270.5" font-family="Helvetica,sans-Serif" font-size="10.00">Subject</text>
</a>
</g>
</g>
<!-- Node3&#45;&gt;Node8 -->
<g id="edge7" class="edge"><title>Node3&#45;&gt;Node8</title>
<path fill="none" stroke="midnightblue" d="M960.915,-333.492C970.822,-330.6 980.774,-327.274 990,-323.5 1007.14,-316.487 1008.98,-309.808 1026,-302.5 1030.68,-300.492 1035.57,-298.592 1040.55,-296.808"/>
<polygon fill="midnightblue" stroke="midnightblue" points="1041.84,-300.066 1050.17,-293.522 1039.58,-293.442 1041.84,-300.066"/>
</g>
<!-- Node9 -->
<g id="node9" class="node"><title>Node9</title>
<g id="a_node9"><a xlink:href="../../d1/d5e/classnars_1_1language_1_1Statement_ac56b558891dd2088e0b66b437780c7b7.html#ac56b558891dd2088e0b66b437780c7b7" target="_top" xlink:title="Default constructor. ">
<polygon fill="none" stroke="black" points="1045.5,-214.5 1045.5,-244.5 1173.5,-244.5 1173.5,-214.5 1045.5,-214.5"/>
<text text-anchor="start" x="1053.5" y="-232.5" font-family="Helvetica,sans-Serif" font-size="10.00">nars.language.Statement.</text>
<text text-anchor="middle" x="1109.5" y="-221.5" font-family="Helvetica,sans-Serif" font-size="10.00">Statement</text>
</a>
</g>
</g>
<!-- Node3&#45;&gt;Node9 -->
<g id="edge8" class="edge"><title>Node3&#45;&gt;Node9</title>
<path fill="none" stroke="midnightblue" d="M968.782,-335.833C976.401,-332.598 983.65,-328.554 990,-323.5 1017.37,-301.716 999.006,-275.754 1026,-253.5 1029.15,-250.905 1032.56,-248.591 1036.15,-246.527"/>
<polygon fill="midnightblue" stroke="midnightblue" points="1038.02,-249.507 1045.39,-241.895 1034.88,-243.25 1038.02,-249.507"/>
</g>
<!-- Node6 -->
<g id="node6" class="node"><title>Node6</title>
<g id="a_node6"><a xlink:href="../../d8/db8/classnars_1_1language_1_1Term_a3aad4654016b8615fd4fa8a26668e1db.html#a3aad4654016b8615fd4fa8a26668e1db" target="_top" xlink:title="Reporting the name of the current Term. ">
<polygon fill="none" stroke="black" points="1229,-210 1229,-229 1375,-229 1375,-210 1229,-210"/>
<text text-anchor="middle" x="1302" y="-217" font-family="Helvetica,sans-Serif" font-size="10.00">nars.language.Term.getName</text>
</a>
</g>
</g>
<!-- Node5&#45;&gt;Node6 -->
<g id="edge5" class="edge"><title>Node5&#45;&gt;Node6</title>
<path fill="none" stroke="midnightblue" d="M1170.09,-361.998C1178.14,-359.323 1186.01,-355.894 1193,-351.5 1238.96,-322.591 1274.49,-267.367 1290.95,-238.361"/>
<polygon fill="midnightblue" stroke="midnightblue" points="1294.2,-239.727 1295.97,-229.281 1288.07,-236.344 1294.2,-239.727"/>
</g>
<!-- Node11 -->
<g id="node11" class="node"><title>Node11</title>
<g id="a_node11"><a xlink:href="../../de/d1d/classnars_1_1language_1_1SetExt_aa8f6526a59c3d7e578dd76a0eab75a0e.html#aa8f6526a59c3d7e578dd76a0eab75a0e" target="_top" xlink:title="Try to make a new set from one component. ">
<polygon fill="none" stroke="black" points="606,-293 606,-312 743,-312 743,-293 606,-293"/>
<text text-anchor="middle" x="674.5" y="-300" font-family="Helvetica,sans-Serif" font-size="10.00">nars.language.SetExt.make</text>
</a>
</g>
</g>
<!-- Node10&#45;&gt;Node11 -->
<g id="edge10" class="edge"><title>Node10&#45;&gt;Node11</title>
<path fill="none" stroke="midnightblue" d="M539.585,-309.668C557.764,-308.695 577.38,-307.645 595.845,-306.657"/>
<polygon fill="midnightblue" stroke="midnightblue" points="596.17,-310.144 605.968,-306.115 595.795,-303.154 596.17,-310.144"/>
</g>
<!-- Node10&#45;&gt;Node12 -->
<g id="edge11" class="edge"><title>Node10&#45;&gt;Node12</title>
<path fill="none" stroke="midnightblue" d="M506.254,-303.886C522.305,-299.7 541.125,-294.593 558,-289.5 584.651,-281.456 614.407,-271.382 637.041,-263.488"/>
<polygon fill="midnightblue" stroke="midnightblue" points="638.31,-266.752 646.589,-260.14 635.994,-260.147 638.31,-266.752"/>
</g>
<!-- Node12&#45;&gt;Node3 -->
<g id="edge14" class="edge"><title>Node12&#45;&gt;Node3</title>
<path fill="none" stroke="midnightblue" d="M707.349,-260.051C722.589,-265.509 740.604,-273.316 755,-283.5 774.525,-297.313 770.526,-311.136 791,-323.5 794.842,-325.82 798.893,-327.926 803.073,-329.837"/>
<polygon fill="midnightblue" stroke="midnightblue" points="801.824,-333.108 812.401,-333.718 804.512,-326.645 801.824,-333.108"/>
</g>
<!-- Node13 -->
<g id="node13" class="node"><title>Node13</title>
<g id="a_node13"><a xlink:href="../../d0/dee/classnars_1_1language_1_1CompoundTerm_a26cc2a0123b22a3019ca81de239c5007.html#a26cc2a0123b22a3019ca81de239c5007" target="_top" xlink:title="build a component list from two terms ">
<polygon fill="none" stroke="black" points="791,-186.5 791,-216.5 990,-216.5 990,-186.5 791,-186.5"/>
<text text-anchor="start" x="799" y="-204.5" font-family="Helvetica,sans-Serif" font-size="10.00">nars.language.CompoundTerm.arguments</text>
<text text-anchor="middle" x="890.5" y="-193.5" font-family="Helvetica,sans-Serif" font-size="10.00">ToList</text>
</a>
</g>
</g>
<!-- Node12&#45;&gt;Node13 -->
<g id="edge12" class="edge"><title>Node12&#45;&gt;Node13</title>
<path fill="none" stroke="midnightblue" d="M717.015,-240.994C744.443,-234.714 781.199,-226.298 813.732,-218.849"/>
<polygon fill="midnightblue" stroke="midnightblue" points="814.712,-222.215 823.678,-216.571 813.15,-215.392 814.712,-222.215"/>
</g>
<!-- Node14 -->
<g id="node14" class="node"><title>Node14</title>
<g id="a_node14"><a xlink:href="../../d0/df3/classnars_1_1language_1_1Inheritance_ae30b0f7e4285d1b8c4f02f91580f622f.html#ae30b0f7e4285d1b8c4f02f91580f622f" target="_top" xlink:title="Constructor with partial values, called by make. ">
<polygon fill="none" stroke="black" points="825,-284.5 825,-314.5 956,-314.5 956,-284.5 825,-284.5"/>
<text text-anchor="start" x="833" y="-302.5" font-family="Helvetica,sans-Serif" font-size="10.00">nars.language.Inheritance.</text>
<text text-anchor="middle" x="890.5" y="-291.5" font-family="Helvetica,sans-Serif" font-size="10.00">Inheritance</text>
</a>
</g>
</g>
<!-- Node12&#45;&gt;Node14 -->
<g id="edge13" class="edge"><title>Node12&#45;&gt;Node14</title>
<path fill="none" stroke="midnightblue" d="M717.015,-260.006C744.774,-266.362 782.086,-274.905 814.906,-282.42"/>
<polygon fill="midnightblue" stroke="midnightblue" points="814.403,-285.896 824.932,-284.716 815.966,-279.072 814.403,-285.896"/>
</g>
<!-- Node15 -->
<g id="node15" class="node"><title>Node15</title>
<g id="a_node15"><a xlink:href="../../d1/d5e/classnars_1_1language_1_1Statement_a7123aba1c8c566f291e2c9b9d147557d.html#a7123aba1c8c566f291e2c9b9d147557d" target="_top" xlink:title="Default method to make the nameStr of an image term from given fields. ">
<polygon fill="none" stroke="black" points="814.5,-235.5 814.5,-265.5 966.5,-265.5 966.5,-235.5 814.5,-235.5"/>
<text text-anchor="start" x="822.5" y="-253.5" font-family="Helvetica,sans-Serif" font-size="10.00">nars.language.Statement.make</text>
<text text-anchor="middle" x="890.5" y="-242.5" font-family="Helvetica,sans-Serif" font-size="10.00">StatementName</text>
</a>
</g>
</g>
<!-- Node12&#45;&gt;Node15 -->
<g id="edge15" class="edge"><title>Node12&#45;&gt;Node15</title>
<path fill="none" stroke="midnightblue" d="M752.154,-250.5C769.098,-250.5 787.147,-250.5 804.403,-250.5"/>
<polygon fill="midnightblue" stroke="midnightblue" points="804.457,-254 814.457,-250.5 804.457,-247 804.457,-254"/>
</g>
<!-- Node16 -->
<g id="node16" class="node"><title>Node16</title>
<g id="a_node16"><a xlink:href="../../d8/df4/classnars_1_1storage_1_1Memory_a63058cc52d77412e0aead8387c23aa93.html#a63058cc52d77412e0aead8387c23aa93" target="_top" xlink:title="Get a Term for a given name of a Concept or Operator. ">
<polygon fill="none" stroke="black" points="822.5,-137.5 822.5,-167.5 958.5,-167.5 958.5,-137.5 822.5,-137.5"/>
<text text-anchor="start" x="830.5" y="-155.5" font-family="Helvetica,sans-Serif" font-size="10.00">nars.storage.Memory.name</text>
<text text-anchor="middle" x="890.5" y="-144.5" font-family="Helvetica,sans-Serif" font-size="10.00">ToListedTerm</text>
</a>
</g>
</g>
<!-- Node12&#45;&gt;Node16 -->
<g id="edge16" class="edge"><title>Node12&#45;&gt;Node16</title>
<path fill="none" stroke="midnightblue" d="M727.445,-240.959C737.152,-237.698 746.808,-233.335 755,-227.5 777.599,-211.405 768.063,-192.11 791,-176.5 797.672,-171.959 805.115,-168.275 812.837,-165.286"/>
<polygon fill="midnightblue" stroke="midnightblue" points="814.067,-168.564 822.363,-161.975 811.768,-161.952 814.067,-168.564"/>
</g>
<!-- Node17 -->
<g id="node17" class="node"><title>Node17</title>
<g id="a_node17"><a xlink:href="../../d8/df4/classnars_1_1storage_1_1Memory_a33af7b3d806d32c85390563fec3c6d27.html#a33af7b3d806d32c85390563fec3c6d27" target="_top" xlink:title="Concept bag. ">
<polygon fill="none" stroke="black" points="1026,-176 1026,-195 1193,-195 1193,-176 1026,-176"/>
<text text-anchor="middle" x="1109.5" y="-183" font-family="Helvetica,sans-Serif" font-size="10.00">nars.storage.Memory.getConcepts</text>
</a>
</g>
</g>
<!-- Node16&#45;&gt;Node17 -->
<g id="edge17" class="edge"><title>Node16&#45;&gt;Node17</title>
<path fill="none" stroke="midnightblue" d="M958.674,-162.715C983.07,-166.425 1010.74,-170.634 1035.61,-174.416"/>
<polygon fill="midnightblue" stroke="midnightblue" points="1035.3,-177.909 1045.71,-175.952 1036.35,-170.988 1035.3,-177.909"/>
</g>
<!-- Node18 -->
<g id="node18" class="node"><title>Node18</title>
<g id="a_node18"><a xlink:href="../../d9/d37/classnars_1_1storage_1_1Bag_a011b37fc683db7fb7b41e33712a37d92.html#a011b37fc683db7fb7b41e33712a37d92" target="_top" xlink:title="Get an Item by key. ">
<polygon fill="none" stroke="black" points="1056,-138 1056,-157 1163,-157 1163,-138 1056,-138"/>
<text text-anchor="middle" x="1109.5" y="-145" font-family="Helvetica,sans-Serif" font-size="10.00">nars.storage.Bag.get</text>
</a>
</g>
</g>
<!-- Node16&#45;&gt;Node18 -->
<g id="edge18" class="edge"><title>Node16&#45;&gt;Node18</title>
<path fill="none" stroke="midnightblue" d="M958.674,-150.952C986.378,-150.314 1018.31,-149.578 1045.55,-148.95"/>
<polygon fill="midnightblue" stroke="midnightblue" points="1045.83,-152.445 1055.75,-148.715 1045.67,-145.447 1045.83,-152.445"/>
</g>
<!-- Node19 -->
<g id="node19" class="node"><title>Node19</title>
<g id="a_node19"><a xlink:href="../../d4/d22/classnars_1_1entity_1_1Concept_afcd1217b7680b073fa51f0d0f159dcea.html#afcd1217b7680b073fa51f0d0f159dcea" target="_top" xlink:title="Return the associated term, called from Memory only. ">
<polygon fill="none" stroke="black" points="1039,-100 1039,-119 1180,-119 1180,-100 1039,-100"/>
<text text-anchor="middle" x="1109.5" y="-107" font-family="Helvetica,sans-Serif" font-size="10.00">nars.entity.Concept.getTerm</text>
</a>
</g>
</g>
<!-- Node16&#45;&gt;Node19 -->
<g id="edge19" class="edge"><title>Node16&#45;&gt;Node19</title>
<path fill="none" stroke="midnightblue" d="M958.674,-139.189C987.941,-133.39 1021.92,-126.656 1050.12,-121.068"/>
<polygon fill="midnightblue" stroke="midnightblue" points="1051.1,-124.443 1060.23,-119.066 1049.74,-117.576 1051.1,-124.443"/>
</g>
<!-- Node20&#45;&gt;Node12 -->
<g id="edge22" class="edge"><title>Node20&#45;&gt;Node12</title>
<path fill="none" stroke="midnightblue" d="M515.767,-209.007C529.446,-211.885 544.347,-215.171 558,-218.5 582.543,-224.484 609.783,-231.99 631.644,-238.227"/>
<polygon fill="midnightblue" stroke="midnightblue" points="630.702,-241.598 641.28,-240.994 632.634,-234.87 630.702,-241.598"/>
</g>
<!-- Node21 -->
<g id="node21" class="node"><title>Node21</title>
<g id="a_node21"><a xlink:href="../../d2/dfc/classnars_1_1language_1_1SetInt_aaea0f2cc2ca804779d1bf346beb58fa1.html#aaea0f2cc2ca804779d1bf346beb58fa1" target="_top" xlink:title="Try to make a new set from one component. ">
<polygon fill="none" stroke="black" points="607.5,-199 607.5,-218 741.5,-218 741.5,-199 607.5,-199"/>
<text text-anchor="middle" x="674.5" y="-206" font-family="Helvetica,sans-Serif" font-size="10.00">nars.language.SetInt.make</text>
</a>
</g>
</g>
<!-- Node20&#45;&gt;Node21 -->
<g id="edge21" class="edge"><title>Node20&#45;&gt;Node21</title>
<path fill="none" stroke="midnightblue" d="M539.009,-202.61C557.792,-203.432 578.144,-204.324 597.195,-205.158"/>
<polygon fill="midnightblue" stroke="midnightblue" points="597.18,-208.661 607.324,-205.602 597.486,-201.667 597.18,-208.661"/>
</g>
<!-- Node22&#45;&gt;Node11 -->
<g id="edge24" class="edge"><title>Node22&#45;&gt;Node11</title>
<path fill="none" stroke="midnightblue" d="M498.322,-247.091C534.243,-258.453 594.192,-277.415 633.787,-289.939"/>
<polygon fill="midnightblue" stroke="midnightblue" points="632.798,-293.297 643.388,-292.976 634.909,-286.623 632.798,-293.297"/>
</g>
<!-- Node22&#45;&gt;Node12 -->
<g id="edge26" class="edge"><title>Node22&#45;&gt;Node12</title>
<path fill="none" stroke="midnightblue" d="M558.135,-243.202C567.639,-243.803 577.289,-244.414 586.753,-245.012"/>
<polygon fill="midnightblue" stroke="midnightblue" points="586.733,-248.518 596.934,-245.656 587.175,-241.532 586.733,-248.518"/>
</g>
<!-- Node22&#45;&gt;Node21 -->
<g id="edge25" class="edge"><title>Node22&#45;&gt;Node21</title>
<path fill="none" stroke="midnightblue" d="M535.573,-227.964C555.288,-225.182 576.968,-222.123 597.183,-219.27"/>
<polygon fill="midnightblue" stroke="midnightblue" points="597.874,-222.707 607.287,-217.844 596.896,-215.776 597.874,-222.707"/>
</g>
<!-- Node23&#45;&gt;Node3 -->
<g id="edge32" class="edge"><title>Node23&#45;&gt;Node3</title>
<path fill="none" stroke="midnightblue" d="M725.134,-379.991C748.126,-375.586 776.135,-370.22 802.47,-365.174"/>
<polygon fill="midnightblue" stroke="midnightblue" points="803.305,-368.578 812.468,-363.258 801.988,-361.703 803.305,-368.578"/>
</g>
<!-- Node23&#45;&gt;Node7 -->
<g id="edge30" class="edge"><title>Node23&#45;&gt;Node7</title>
<path fill="none" stroke="midnightblue" d="M752.413,-394.118C829.978,-398.776 949.214,-405.935 1028.03,-410.668"/>
<polygon fill="midnightblue" stroke="midnightblue" points="1028.2,-414.184 1038.39,-411.29 1028.62,-407.197 1028.2,-414.184"/>
</g>
<!-- Node23&#45;&gt;Node13 -->
<g id="edge28" class="edge"><title>Node23&#45;&gt;Node13</title>
<path fill="none" stroke="midnightblue" d="M690.703,-379.988C708.385,-368.223 737.391,-346.641 755,-321.5 781.141,-284.176 756.908,-255.735 791,-225.5 792.313,-224.336 793.673,-223.226 795.074,-222.168"/>
<polygon fill="midnightblue" stroke="midnightblue" points="797.054,-225.055 803.514,-216.657 793.227,-219.194 797.054,-225.055"/>
</g>
<!-- Node23&#45;&gt;Node15 -->
<g id="edge33" class="edge"><title>Node23&#45;&gt;Node15</title>
<path fill="none" stroke="midnightblue" d="M688.337,-379.884C704.681,-367.344 733.39,-344.309 755,-321.5 773.097,-302.399 768.963,-288.878 791,-274.5 795.357,-271.658 800.02,-269.152 804.862,-266.942"/>
<polygon fill="midnightblue" stroke="midnightblue" points="806.433,-270.081 814.358,-263.049 803.778,-263.604 806.433,-270.081"/>
</g>
<!-- Node23&#45;&gt;Node16 -->
<g id="edge34" class="edge"><title>Node23&#45;&gt;Node16</title>
<path fill="none" stroke="midnightblue" d="M691.866,-379.915C710.086,-368.381 739.062,-347.306 755,-321.5 789.892,-265.006 743.945,-223.35 791,-176.5 797.253,-170.274 804.834,-165.566 812.984,-162.021"/>
<polygon fill="midnightblue" stroke="midnightblue" points="814.253,-165.283 822.386,-158.493 811.794,-158.729 814.253,-165.283"/>
</g>
<!-- Node24 -->
<g id="node24" class="node"><title>Node24</title>
<g id="a_node24"><a xlink:href="../../d0/dee/classnars_1_1language_1_1CompoundTerm_ad637ccaf9aecf41f3961d095900f2d5e.html#ad637ccaf9aecf41f3961d095900f2d5e" target="_top" xlink:title="Check whether the compound contains a certain component. ">
<polygon fill="none" stroke="black" points="798,-470.5 798,-500.5 983,-500.5 983,-470.5 798,-470.5"/>
<text text-anchor="start" x="806" y="-488.5" font-family="Helvetica,sans-Serif" font-size="10.00">nars.language.CompoundTerm.contain</text>
<text text-anchor="middle" x="890.5" y="-477.5" font-family="Helvetica,sans-Serif" font-size="10.00">Component</text>
</a>
</g>
</g>
<!-- Node23&#45;&gt;Node24 -->
<g id="edge29" class="edge"><title>Node23&#45;&gt;Node24</title>
<path fill="none" stroke="midnightblue" d="M688.303,-399.189C708.893,-414.337 751.107,-443.64 791,-460.5 796.866,-462.979 803.035,-465.256 809.307,-467.339"/>
<polygon fill="midnightblue" stroke="midnightblue" points="808.627,-470.794 819.216,-470.452 810.725,-464.116 808.627,-470.794"/>
</g>
<!-- Node25 -->
<g id="node25" class="node"><title>Node25</title>
<g id="a_node25"><a xlink:href="../../da/db6/classnars_1_1language_1_1Implication_ab92b733902106af6deccfbbf06e63709.html#ab92b733902106af6deccfbbf06e63709" target="_top" xlink:title="Constructor with partial values, called by make. ">
<polygon fill="none" stroke="black" points="825,-421.5 825,-451.5 956,-451.5 956,-421.5 825,-421.5"/>
<text text-anchor="start" x="833" y="-439.5" font-family="Helvetica,sans-Serif" font-size="10.00">nars.language.Implication.</text>
<text text-anchor="middle" x="890.5" y="-428.5" font-family="Helvetica,sans-Serif" font-size="10.00">Implication</text>
</a>
</g>
</g>
<!-- Node23&#45;&gt;Node25 -->
<g id="edge31" class="edge"><title>Node23&#45;&gt;Node25</title>
<path fill="none" stroke="midnightblue" d="M718.806,-399.011C746.366,-405.064 782.789,-413.064 814.91,-420.118"/>
<polygon fill="midnightblue" stroke="midnightblue" points="814.208,-423.547 824.726,-422.274 815.709,-416.71 814.208,-423.547"/>
</g>
<!-- Node26&#45;&gt;Node3 -->
<g id="edge40" class="edge"><title>Node26&#45;&gt;Node3</title>
<path fill="none" stroke="midnightblue" d="M731.359,-174.146C740.163,-177.758 748.492,-182.711 755,-189.5 797.675,-234.016 747.093,-280.199 791,-323.5 794.58,-327.031 798.584,-330.085 802.873,-332.726"/>
<polygon fill="midnightblue" stroke="midnightblue" points="801.557,-335.99 812.032,-337.584 804.838,-329.806 801.557,-335.99"/>
</g>
<!-- Node26&#45;&gt;Node13 -->
<g id="edge36" class="edge"><title>Node26&#45;&gt;Node13</title>
<path fill="none" stroke="midnightblue" d="M730.61,-174.028C749.533,-177.3 771.313,-181.066 792.559,-184.739"/>
<polygon fill="midnightblue" stroke="midnightblue" points="792.15,-188.22 802.6,-186.475 793.343,-181.323 792.15,-188.22"/>
</g>
<!-- Node26&#45;&gt;Node15 -->
<g id="edge41" class="edge"><title>Node26&#45;&gt;Node15</title>
<path fill="none" stroke="midnightblue" d="M718.797,-174.013C731.025,-177.768 743.989,-182.824 755,-189.5 774.349,-201.231 771.33,-214.316 791,-225.5 795.439,-228.024 800.134,-230.297 804.97,-232.343"/>
<polygon fill="midnightblue" stroke="midnightblue" points="803.824,-235.653 814.413,-236.005 806.355,-229.126 803.824,-235.653"/>
</g>
<!-- Node26&#45;&gt;Node16 -->
<g id="edge42" class="edge"><title>Node26&#45;&gt;Node16</title>
<path fill="none" stroke="midnightblue" d="M755.186,-160.032C773.835,-158.986 793.671,-157.874 812.214,-156.834"/>
<polygon fill="midnightblue" stroke="midnightblue" points="812.579,-160.319 822.367,-156.264 812.187,-153.33 812.579,-160.319"/>
</g>
<!-- Node27 -->
<g id="node27" class="node"><title>Node27</title>
<g id="a_node27"><a xlink:href="../../d8/db8/classnars_1_1language_1_1Term_ab9bc1c9cc779c07b09983b41ed8491e1.html#ab9bc1c9cc779c07b09983b41ed8491e1" target="_top" xlink:title="Check the relative order of two Terms. ">
<polygon fill="none" stroke="black" points="813,-50 813,-69 968,-69 968,-50 813,-50"/>
<text text-anchor="middle" x="890.5" y="-57" font-family="Helvetica,sans-Serif" font-size="10.00">nars.language.Term.compareTo</text>
</a>
</g>
</g>
<!-- Node26&#45;&gt;Node27 -->
<g id="edge37" class="edge"><title>Node26&#45;&gt;Node27</title>
<path fill="none" stroke="midnightblue" d="M738.182,-154.995C744.203,-152.509 749.94,-149.396 755,-145.5 781.784,-124.877 763.768,-98.5287 791,-78.5 794.915,-75.6204 799.147,-73.1428 803.581,-71.0139"/>
<polygon fill="midnightblue" stroke="midnightblue" points="805.044,-74.1958 812.926,-67.1163 802.35,-67.7351 805.044,-74.1958"/>
</g>
<!-- Node28 -->
<g id="node28" class="node"><title>Node28</title>
<g id="a_node28"><a xlink:href="../../d1/d8b/classnars_1_1language_1_1Equivalence_a0b0aac062c08a1cefa084bfec24386d2.html#a0b0aac062c08a1cefa084bfec24386d2" target="_top" xlink:title="Constructor with partial values, called by make. ">
<polygon fill="none" stroke="black" points="822,-88.5 822,-118.5 959,-118.5 959,-88.5 822,-88.5"/>
<text text-anchor="start" x="830" y="-106.5" font-family="Helvetica,sans-Serif" font-size="10.00">nars.language.Equivalence.</text>
<text text-anchor="middle" x="890.5" y="-95.5" font-family="Helvetica,sans-Serif" font-size="10.00">Equivalence</text>
</a>
</g>
</g>
<!-- Node26&#45;&gt;Node28 -->
<g id="edge39" class="edge"><title>Node26&#45;&gt;Node28</title>
<path fill="none" stroke="midnightblue" d="M723.529,-154.897C734.034,-152.279 744.999,-149.141 755,-145.5 771.809,-139.381 774.204,-133.656 791,-127.5 797.76,-125.022 804.875,-122.724 812.058,-120.61"/>
<polygon fill="midnightblue" stroke="midnightblue" points="813.195,-123.926 821.869,-117.843 811.295,-117.189 813.195,-123.926"/>
</g>
<!-- Node27&#45;&gt;Node6 -->
<g id="edge38" class="edge"><title>Node27&#45;&gt;Node6</title>
<path fill="none" stroke="midnightblue" d="M968.231,-51.9908C1032.06,-49.2182 1123.4,-53.5466 1193,-90.5 1240.54,-115.741 1275.6,-171.484 1291.51,-200.739"/>
<polygon fill="midnightblue" stroke="midnightblue" points="1288.57,-202.672 1296.33,-209.889 1294.77,-199.41 1288.57,-202.672"/>
</g>
<!-- Node29&#45;&gt;Node3 -->
<g id="edge46" class="edge"><title>Node29&#45;&gt;Node3</title>
<path fill="none" stroke="midnightblue" d="M742.491,-136.131C747.099,-138.641 751.353,-141.723 755,-145.5 811.064,-203.564 735.343,-265.046 791,-323.5 794.633,-327.315 798.758,-330.581 803.212,-333.372"/>
<polygon fill="midnightblue" stroke="midnightblue" points="801.673,-336.519 812.138,-338.178 804.992,-330.356 801.673,-336.519"/>
</g>
<!-- Node29&#45;&gt;Node13 -->
<g id="edge44" class="edge"><title>Node29&#45;&gt;Node13</title>
<path fill="none" stroke="midnightblue" d="M730.615,-136.04C739.025,-138.52 747.419,-141.623 755,-145.5 773.799,-155.114 772.269,-166.755 791,-176.5 795.53,-178.857 800.295,-181.001 805.184,-182.949"/>
<polygon fill="midnightblue" stroke="midnightblue" points="804.116,-186.285 814.709,-186.46 806.537,-179.717 804.116,-186.285"/>
</g>
<!-- Node29&#45;&gt;Node15 -->
<g id="edge47" class="edge"><title>Node29&#45;&gt;Node15</title>
<path fill="none" stroke="midnightblue" d="M739.656,-136.168C745.183,-138.636 750.408,-141.7 755,-145.5 785.039,-170.357 761.135,-200.434 791,-225.5 795.308,-229.115 800.069,-232.218 805.106,-234.879"/>
<polygon fill="midnightblue" stroke="midnightblue" points="803.885,-238.171 814.429,-239.209 806.834,-231.823 803.885,-238.171"/>
</g>
<!-- Node29&#45;&gt;Node16 -->
<g id="edge48" class="edge"><title>Node29&#45;&gt;Node16</title>
<path fill="none" stroke="midnightblue" d="M748.548,-135.375C769.047,-137.866 791.401,-140.581 812.141,-143.101"/>
<polygon fill="midnightblue" stroke="midnightblue" points="811.829,-146.589 822.178,-144.321 812.673,-139.64 811.829,-146.589"/>
</g>
<!-- Node29&#45;&gt;Node27 -->
<g id="edge45" class="edge"><title>Node29&#45;&gt;Node27</title>
<path fill="none" stroke="midnightblue" d="M695.082,-116.917C717.703,-106.19 756.274,-88.9465 791,-78.5 800.16,-75.7446 809.923,-73.2969 819.609,-71.1518"/>
<polygon fill="midnightblue" stroke="midnightblue" points="820.589,-74.522 829.646,-69.0257 819.138,-67.674 820.589,-74.522"/>
</g>
<!-- Node30 -->
<g id="node30" class="node"><title>Node30</title>
<g id="a_node30"><a xlink:href="../../d3/d1f/classnars_1_1language_1_1Similarity_ad0a41421c692d6b4ff8fc4cef5b98b4a.html#ad0a41421c692d6b4ff8fc4cef5b98b4a" target="_top" xlink:title="Constructor with partial values, called by make. ">
<polygon fill="none" stroke="black" points="828.5,-0.5 828.5,-30.5 952.5,-30.5 952.5,-0.5 828.5,-0.5"/>
<text text-anchor="start" x="836.5" y="-18.5" font-family="Helvetica,sans-Serif" font-size="10.00">nars.language.Similarity.</text>
<text text-anchor="middle" x="890.5" y="-7.5" font-family="Helvetica,sans-Serif" font-size="10.00">Similarity</text>
</a>
</g>
</g>
<!-- Node29&#45;&gt;Node30 -->
<g id="edge49" class="edge"><title>Node29&#45;&gt;Node30</title>
<path fill="none" stroke="midnightblue" d="M685.421,-116.931C704.361,-99.1907 747.66,-61.1315 791,-40.5 799.631,-36.3914 809.02,-32.9021 818.461,-29.954"/>
<polygon fill="midnightblue" stroke="midnightblue" points="819.675,-33.2454 828.288,-27.0744 817.707,-26.5278 819.675,-33.2454"/>
</g>
</g>
</svg>
        <g id="navigator" transform="translate(0 0)" fill="#404254">
                <rect fill="#f2f5e9" fill-opacity="0.5" stroke="#606060" stroke-width=".5" x="0" y="0" width="60" height="60"/>
                <use id="zoomplus" xlink:href="#zoomPlus" x="17" y="9" onmousedown="handleZoom(evt,'in')"/>
                <use id="zoomminus" xlink:href="#zoomMin" x="42" y="9" onmousedown="handleZoom(evt,'out')"/>
                <use id="reset" xlink:href="#resetDef" x="30" y="36" onmousedown="handleReset()"/>
                <g id="arrowUp" xlink:href="#dirArrow" transform="translate(30 24)" onmousedown="handlePan(0,-1)">
                  <use xlink:href="#rim" fill="#404040">
                        <set attributeName="fill" to="#808080" begin="arrowUp.mouseover" end="arrowUp.mouseout"/>
                  </use>
                  <path fill="none" stroke="white" stroke-width="1.5" d="M0,-3.0v7 M-2.5,-0.5L0,-3.0L2.5,-0.5"/>
                </g>
                <g id="arrowRight" xlink:href="#dirArrow" transform="rotate(90) translate(36 -43)" onmousedown="handlePan(1,0)">
                  <use xlink:href="#rim" fill="#404040">
                        <set attributeName="fill" to="#808080" begin="arrowRight.mouseover" end="arrowRight.mouseout"/>
                  </use>
                  <path fill="none" stroke="white" stroke-width="1.5" d="M0,-3.0v7 M-2.5,-0.5L0,-3.0L2.5,-0.5"/>
                </g>
                <g id="arrowDown" xlink:href="#dirArrow" transform="rotate(180) translate(-30 -48)" onmousedown="handlePan(0,1)">
                  <use xlink:href="#rim" fill="#404040">
                        <set attributeName="fill" to="#808080" begin="arrowDown.mouseover" end="arrowDown.mouseout"/>
                  </use>
                  <path fill="none" stroke="white" stroke-width="1.5" d="M0,-3.0v7 M-2.5,-0.5L0,-3.0L2.5,-0.5"/>
                </g>
                <g id="arrowLeft" xlink:href="#dirArrow" transform="rotate(270) translate(-36 17)" onmousedown="handlePan(-1,0)">
                  <use xlink:href="#rim" fill="#404040">
                        <set attributeName="fill" to="#808080" begin="arrowLeft.mouseover" end="arrowLeft.mouseout"/>
                  </use>
                  <path fill="none" stroke="white" stroke-width="1.5" d="M0,-3.0v7 M-2.5,-0.5L0,-3.0L2.5,-0.5"/>
                </g>
        </g>
        <svg viewBox="0 0 15 15" width="100%" height="30px" preserveAspectRatio="xMaxYMin meet">
         <g id="arrow_out" transform="scale(0.3 0.3)">
          <a xlink:href="classnars_1_1language_1_1Statement_ab839b6d67872f03e59994ba7dc30f616_ab839b6d67872f03e59994ba7dc30f616_cgraph_org.svg" target="_base">
           <rect id="button" ry="5" rx="5" y="6" x="6" height="38" width="38"
                fill="#f2f5e9" fill-opacity="0.5" stroke="#606060" stroke-width="1.0"/>
           <path id="arrow"
             d="M 11.500037,31.436501 C 11.940474,20.09759 22.043105,11.32322 32.158766,21.979434 L 37.068811,17.246167 C 37.068811,17.246167 37.088388,32 37.088388,32 L 22.160133,31.978069 C 22.160133,31.978069 26.997745,27.140456 26.997745,27.140456 C 18.528582,18.264221 13.291696,25.230495 11.500037,31.436501 z"
             style="fill:#404040;"/>
          </a>
         </g>
        </svg>
</svg>
