<?xml version="1.0" encoding="UTF-8" standalone="no"?>
<!DOCTYPE svg PUBLIC "-//W3C//DTD SVG 1.1//EN"
 "http://www.w3.org/Graphics/SVG/1.1/DTD/svg11.dtd">
<!-- Generated by graphviz version 2.38.0 (20140413.2041)
 -->
<!-- Title: nars.language.Statement.make Pages: 1 -->
<svg width="2970pt" height="729pt"
 viewBox="0.00 0.00 2970.00 729.07" xmlns="http://www.w3.org/2000/svg" xmlns:xlink="http://www.w3.org/1999/xlink">
<g id="graph0" class="graph" transform="scale(1 1) rotate(0) translate(4 725.074)">
<title>nars.language.Statement.make</title>
<!-- Node1 -->
<g id="node1" class="node"><title>Node1</title>
<polygon fill="#bfbfbf" stroke="black" points="0,-334 0,-353 152,-353 152,-334 0,-334"/>
<text text-anchor="middle" x="76" y="-341" font-family="Helvetica,sans-Serif" font-size="10.00">nars.language.Statement.make</text>
</g>
<!-- Node2 -->
<g id="node2" class="node"><title>Node2</title>
<g id="a_node2"><a xlink:href="../../d4/daa/classnars_1_1inference_1_1SyllogisticRules_a698f01981603a38d9da0e48930095d50.html#a698f01981603a38d9da0e48930095d50" target="_top" xlink:title="{&lt;M ==&gt; S&gt;, &lt;M ==&gt; P&gt;} |&#45; {&lt;S ==&gt; P&gt;, ">
<polygon fill="none" stroke="black" points="635,-334.5 635,-364.5 761,-364.5 761,-334.5 635,-334.5"/>
<text text-anchor="start" x="643" y="-352.5" font-family="Helvetica,sans-Serif" font-size="10.00">nars.inference.Syllogistic</text>
<text text-anchor="middle" x="698" y="-341.5" font-family="Helvetica,sans-Serif" font-size="10.00">Rules.abdIndCom</text>
</a>
</g>
</g>
<!-- Node1&#45;&gt;Node2 -->
<g id="edge1" class="edge"><title>Node1&#45;&gt;Node2</title>
<path fill="none" stroke="midnightblue" d="M162.122,-344.324C288.518,-345.547 522.893,-347.815 634.623,-348.896"/>
<polygon fill="midnightblue" stroke="midnightblue" points="162.129,-340.824 152.095,-344.227 162.061,-347.823 162.129,-340.824"/>
</g>
<!-- Node14 -->
<g id="node14" class="node"><title>Node14</title>
<g id="a_node14"><a xlink:href="../../d4/daa/classnars_1_1inference_1_1SyllogisticRules_a9403109ff25044e65311d553d99a490d.html#a9403109ff25044e65311d553d99a490d" target="_top" xlink:title="{&lt;S ==&gt; P&gt;, &lt;M &lt;=&gt; P&gt;} |&#45; &lt;S ==&gt; P&gt; ">
<polygon fill="none" stroke="black" points="428,-596.5 428,-626.5 554,-626.5 554,-596.5 428,-596.5"/>
<text text-anchor="start" x="436" y="-614.5" font-family="Helvetica,sans-Serif" font-size="10.00">nars.inference.Syllogistic</text>
<text text-anchor="middle" x="491" y="-603.5" font-family="Helvetica,sans-Serif" font-size="10.00">Rules.analogy</text>
</a>
</g>
</g>
<!-- Node1&#45;&gt;Node14 -->
<g id="edge13" class="edge"><title>Node1&#45;&gt;Node14</title>
<path fill="none" stroke="midnightblue" d="M82.0437,-362.924C93.5448,-403.162 125.663,-495.766 188,-542.5 258.357,-595.246 362.03,-608.763 427.765,-611.644"/>
<polygon fill="midnightblue" stroke="midnightblue" points="85.4118,-361.971 79.3928,-353.252 78.6608,-363.822 85.4118,-361.971"/>
</g>
<!-- Node16 -->
<g id="node16" class="node"><title>Node16</title>
<g id="a_node16"><a xlink:href="../../d4/daa/classnars_1_1inference_1_1SyllogisticRules_a188ed61b1cef0b9e8af45d5dc372da31.html#a188ed61b1cef0b9e8af45d5dc372da31" target="_top" xlink:title="{&lt;(&amp;&amp;, S2, S3) ==&gt; P&gt;, &lt;(&amp;&amp;, S1, S3) ==&gt; P&gt;} |&#45; &lt;S1 ==&gt; S2&gt; ">
<polygon fill="none" stroke="black" points="213,-110.5 213,-140.5 339,-140.5 339,-110.5 213,-110.5"/>
<text text-anchor="start" x="221" y="-128.5" font-family="Helvetica,sans-Serif" font-size="10.00">nars.inference.Syllogistic</text>
<text text-anchor="middle" x="276" y="-117.5" font-family="Helvetica,sans-Serif" font-size="10.00">Rules.conditionalAbd</text>
</a>
</g>
</g>
<!-- Node1&#45;&gt;Node16 -->
<g id="edge16" class="edge"><title>Node1&#45;&gt;Node16</title>
<path fill="none" stroke="midnightblue" d="M82.6071,-323.976C94.9049,-284.727 128.042,-196.046 188,-149.5 195.302,-143.831 203.86,-139.501 212.706,-136.192"/>
<polygon fill="midnightblue" stroke="midnightblue" points="79.2232,-323.075 79.6861,-333.66 85.925,-325.097 79.2232,-323.075"/>
</g>
<!-- Node17 -->
<g id="node17" class="node"><title>Node17</title>
<g id="a_node17"><a xlink:href="../../d4/daa/classnars_1_1inference_1_1SyllogisticRules_a90588e33b6d7ca522e787ee476a2a012.html#a90588e33b6d7ca522e787ee476a2a012" target="_top" xlink:title="{&lt;(&amp;&amp;, S1, S2) &lt;=&gt; P&gt;, (&amp;&amp;, S1, S2)} |&#45; P ">
<polygon fill="none" stroke="black" points="1062,-336.5 1062,-366.5 1188,-366.5 1188,-336.5 1062,-336.5"/>
<text text-anchor="start" x="1070" y="-354.5" font-family="Helvetica,sans-Serif" font-size="10.00">nars.inference.Syllogistic</text>
<text text-anchor="middle" x="1125" y="-343.5" font-family="Helvetica,sans-Serif" font-size="10.00">Rules.conditionalAna</text>
</a>
</g>
</g>
<!-- Node1&#45;&gt;Node17 -->
<g id="edge17" class="edge"><title>Node1&#45;&gt;Node17</title>
<path fill="none" stroke="midnightblue" d="M150.891,-332.581C233.379,-321.354 370.939,-305.5 490,-305.5 490,-305.5 490,-305.5 699,-305.5 828.692,-305.5 979.36,-326.934 1061.93,-340.54"/>
<polygon fill="midnightblue" stroke="midnightblue" points="150.292,-329.13 140.862,-333.96 151.245,-336.065 150.292,-329.13"/>
</g>
<!-- Node18 -->
<g id="node18" class="node"><title>Node18</title>
<g id="a_node18"><a xlink:href="../../d4/daa/classnars_1_1inference_1_1SyllogisticRules_a6ee55e2d5114b506fdf5c59ae00dcd19.html#a6ee55e2d5114b506fdf5c59ae00dcd19" target="_top" xlink:title="{&lt;(&amp;&amp;, S1, S2, S3) ==&gt; P&gt;, S1} |&#45; &lt;(&amp;&amp;, S2, S3) ==&gt; P&gt; {&lt;(&amp;&amp;, S2, S3) ==&gt; P&gt;, &lt;S1 ==&gt; S2&gt;} |&#45; &lt;(&amp;&amp;...">
<polygon fill="none" stroke="black" points="843.5,-246.5 843.5,-276.5 969.5,-276.5 969.5,-246.5 843.5,-246.5"/>
<text text-anchor="start" x="851.5" y="-264.5" font-family="Helvetica,sans-Serif" font-size="10.00">nars.inference.Syllogistic</text>
<text text-anchor="middle" x="906.5" y="-253.5" font-family="Helvetica,sans-Serif" font-size="10.00">Rules.conditionalDedInd</text>
</a>
</g>
</g>
<!-- Node1&#45;&gt;Node18 -->
<g id="edge19" class="edge"><title>Node1&#45;&gt;Node18</title>
<path fill="none" stroke="midnightblue" d="M101.327,-328.641C123.146,-316.176 156.489,-299.21 188,-291.5 424.454,-233.649 717.596,-246.592 843.408,-255.993"/>
<polygon fill="midnightblue" stroke="midnightblue" points="99.3085,-325.767 92.4409,-333.835 102.841,-331.811 99.3085,-325.767"/>
</g>
<!-- Node20 -->
<g id="node20" class="node"><title>Node20</title>
<g id="a_node20"><a xlink:href="../../db/d49/classnars_1_1inference_1_1StructuralRules_a7eed75f5c3aa4d832eeb95dd5374d5c1.html#a7eed75f5c3aa4d832eeb95dd5374d5c1" target="_top" xlink:title="{&lt;A ==&gt; B&gt;, A@(–, A)} |&#45; &lt;(–, B) ==&gt; (–, A)&gt; ">
<polygon fill="none" stroke="black" points="214.5,-208.5 214.5,-238.5 337.5,-238.5 337.5,-208.5 214.5,-208.5"/>
<text text-anchor="start" x="222.5" y="-226.5" font-family="Helvetica,sans-Serif" font-size="10.00">nars.inference.Structural</text>
<text text-anchor="middle" x="276" y="-215.5" font-family="Helvetica,sans-Serif" font-size="10.00">Rules.contraposition</text>
</a>
</g>
</g>
<!-- Node1&#45;&gt;Node20 -->
<g id="edge23" class="edge"><title>Node1&#45;&gt;Node20</title>
<path fill="none" stroke="midnightblue" d="M93.8609,-326.607C114.491,-306.746 151.231,-273.907 188,-253.5 198.477,-247.685 210.283,-242.702 221.739,-238.563"/>
<polygon fill="midnightblue" stroke="midnightblue" points="91.2373,-324.278 86.5345,-333.772 96.1313,-329.283 91.2373,-324.278"/>
</g>
<!-- Node22 -->
<g id="node22" class="node"><title>Node22</title>
<g id="a_node22"><a xlink:href="../../d4/de9/classnars_1_1inference_1_1LocalRules_a19ea934d3f2b6eb6a01f09db55afb4f0.html#a19ea934d3f2b6eb6a01f09db55afb4f0" target="_top" xlink:title="Convert jusgment into different relation. ">
<polygon fill="none" stroke="black" points="188,-460.5 188,-490.5 364,-490.5 364,-460.5 188,-460.5"/>
<text text-anchor="start" x="196" y="-478.5" font-family="Helvetica,sans-Serif" font-size="10.00">nars.inference.LocalRules.converted</text>
<text text-anchor="middle" x="276" y="-467.5" font-family="Helvetica,sans-Serif" font-size="10.00">Judgment</text>
</a>
</g>
</g>
<!-- Node1&#45;&gt;Node22 -->
<g id="edge26" class="edge"><title>Node1&#45;&gt;Node22</title>
<path fill="none" stroke="midnightblue" d="M91.5976,-360.75C111.371,-383.135 148.732,-422.089 188,-445.5 197.881,-451.391 209.085,-456.341 220.088,-460.414"/>
<polygon fill="midnightblue" stroke="midnightblue" points="94.1115,-358.307 84.9133,-353.049 88.8251,-362.895 94.1115,-358.307"/>
</g>
<!-- Node27 -->
<g id="node27" class="node"><title>Node27</title>
<g id="a_node27"><a xlink:href="../../d4/daa/classnars_1_1inference_1_1SyllogisticRules_a5724b3ed7e885c29110acceac0d677d5.html#a5724b3ed7e885c29110acceac0d677d5" target="_top" xlink:title="nars.inference.Syllogistic\lRules.dedExe">
<polygon fill="none" stroke="black" points="428,-410.5 428,-440.5 554,-440.5 554,-410.5 428,-410.5"/>
<text text-anchor="start" x="436" y="-428.5" font-family="Helvetica,sans-Serif" font-size="10.00">nars.inference.Syllogistic</text>
<text text-anchor="middle" x="491" y="-417.5" font-family="Helvetica,sans-Serif" font-size="10.00">Rules.dedExe</text>
</a>
</g>
</g>
<!-- Node1&#45;&gt;Node27 -->
<g id="edge33" class="edge"><title>Node1&#45;&gt;Node27</title>
<path fill="none" stroke="midnightblue" d="M96.1776,-359.476C117.208,-375.93 152.683,-400.653 188,-411.5 268.027,-436.079 365.566,-435.465 427.729,-431.509"/>
<polygon fill="midnightblue" stroke="midnightblue" points="98.3393,-356.723 88.346,-353.204 93.9634,-362.187 98.3393,-356.723"/>
</g>
<!-- Node28 -->
<g id="node28" class="node"><title>Node28</title>
<g id="a_node28"><a xlink:href="../../d4/de9/classnars_1_1inference_1_1LocalRules_ada47dcf3767d0fb0dc24b00872edf8b3.html#ada47dcf3767d0fb0dc24b00872edf8b3" target="_top" xlink:title="{&lt;S &lt;&#45;&gt; P&gt;, ">
<polygon fill="none" stroke="black" points="415,-547.5 415,-577.5 567,-577.5 567,-547.5 415,-547.5"/>
<text text-anchor="start" x="423" y="-565.5" font-family="Helvetica,sans-Serif" font-size="10.00">nars.inference.LocalRules.infer</text>
<text text-anchor="middle" x="491" y="-554.5" font-family="Helvetica,sans-Serif" font-size="10.00">ToAsym</text>
</a>
</g>
</g>
<!-- Node1&#45;&gt;Node28 -->
<g id="edge35" class="edge"><title>Node1&#45;&gt;Node28</title>
<path fill="none" stroke="midnightblue" d="M84.908,-362.638C99.7901,-396.119 135.28,-465.034 188,-499.5 256.14,-544.047 349.831,-557.905 414.709,-561.812"/>
<polygon fill="midnightblue" stroke="midnightblue" points="87.972,-360.903 80.8045,-353.101 81.5419,-363.67 87.972,-360.903"/>
</g>
<!-- Node29 -->
<g id="node29" class="node"><title>Node29</title>
<g id="a_node29"><a xlink:href="../../d1/d5e/classnars_1_1language_1_1Statement_ab839b6d67872f03e59994ba7dc30f616.html#ab839b6d67872f03e59994ba7dc30f616" target="_top" xlink:title="Make a Statement from given components, called by the rules. ">
<polygon fill="none" stroke="black" points="200,-72 200,-91 352,-91 352,-72 200,-72"/>
<text text-anchor="middle" x="276" y="-79" font-family="Helvetica,sans-Serif" font-size="10.00">nars.language.Statement.make</text>
</a>
</g>
</g>
<!-- Node1&#45;&gt;Node29 -->
<g id="edge37" class="edge"><title>Node1&#45;&gt;Node29</title>
<path fill="none" stroke="midnightblue" d="M79.905,-324.015C87.915,-277.515 114.79,-159.54 188,-100.5 192.693,-96.715 197.976,-93.6423 203.559,-91.1526"/>
<polygon fill="midnightblue" stroke="midnightblue" points="76.4339,-323.556 78.2931,-333.987 83.3442,-324.673 76.4339,-323.556"/>
</g>
<!-- Node30 -->
<g id="node30" class="node"><title>Node30</title>
<g id="a_node30"><a xlink:href="../../d3/dca/classnars_1_1io_1_1StringParser_a7c129938c8d721e3db0a9804988f0588.html#a7c129938c8d721e3db0a9804988f0588" target="_top" xlink:title="Parse a String to create a Statement. ">
<polygon fill="none" stroke="black" points="211,-22.5 211,-52.5 341,-52.5 341,-22.5 211,-22.5"/>
<text text-anchor="start" x="219" y="-40.5" font-family="Helvetica,sans-Serif" font-size="10.00">nars.io.StringParser.parse</text>
<text text-anchor="middle" x="276" y="-29.5" font-family="Helvetica,sans-Serif" font-size="10.00">Statement</text>
</a>
</g>
</g>
<!-- Node1&#45;&gt;Node30 -->
<g id="edge38" class="edge"><title>Node1&#45;&gt;Node30</title>
<path fill="none" stroke="midnightblue" d="M78.9004,-323.787C84.8928,-272.728 108.032,-135.109 188,-62.5 194.516,-56.584 202.344,-52.06 210.598,-48.6021"/>
<polygon fill="midnightblue" stroke="midnightblue" points="75.4108,-323.503 77.8179,-333.821 82.3704,-324.254 75.4108,-323.503"/>
</g>
<!-- Node37 -->
<g id="node37" class="node"><title>Node37</title>
<g id="a_node37"><a xlink:href="../../d8/d79/classnars_1_1inference_1_1CompositionalRules_a06a7361732a36328f25d2b1de5825558.html#a06a7361732a36328f25d2b1de5825558" target="_top" xlink:title="Finish composing implication term. ">
<polygon fill="none" stroke="black" points="204.5,-372.5 204.5,-402.5 347.5,-402.5 347.5,-372.5 204.5,-372.5"/>
<text text-anchor="start" x="212.5" y="-390.5" font-family="Helvetica,sans-Serif" font-size="10.00">nars.inference.Compositional</text>
<text text-anchor="middle" x="276" y="-379.5" font-family="Helvetica,sans-Serif" font-size="10.00">Rules.processComposed</text>
</a>
</g>
</g>
<!-- Node1&#45;&gt;Node37 -->
<g id="edge48" class="edge"><title>Node1&#45;&gt;Node37</title>
<path fill="none" stroke="midnightblue" d="M129.841,-355.242C153.593,-360.521 181.913,-366.814 207.206,-372.435"/>
<polygon fill="midnightblue" stroke="midnightblue" points="130.484,-351.8 119.963,-353.047 128.966,-358.633 130.484,-351.8"/>
</g>
<!-- Node39 -->
<g id="node39" class="node"><title>Node39</title>
<g id="a_node39"><a xlink:href="../../d4/daa/classnars_1_1inference_1_1SyllogisticRules_a171a1f81d7f22d9cd0301220a79f4a63.html#a171a1f81d7f22d9cd0301220a79f4a63" target="_top" xlink:title="{&lt;S &lt;=&gt; M&gt;, &lt;M &lt;=&gt; P&gt;} |&#45; &lt;S &lt;=&gt; P&gt; ">
<polygon fill="none" stroke="black" points="635,-625.5 635,-655.5 761,-655.5 761,-625.5 635,-625.5"/>
<text text-anchor="start" x="643" y="-643.5" font-family="Helvetica,sans-Serif" font-size="10.00">nars.inference.Syllogistic</text>
<text text-anchor="middle" x="698" y="-632.5" font-family="Helvetica,sans-Serif" font-size="10.00">Rules.resemblance</text>
</a>
</g>
</g>
<!-- Node1&#45;&gt;Node39 -->
<g id="edge51" class="edge"><title>Node1&#45;&gt;Node39</title>
<path fill="none" stroke="midnightblue" d="M79.8819,-363.105C87.8407,-409.898 114.611,-528.662 188,-588.5 317.084,-693.748 530.129,-672.719 634.899,-653.93"/>
<polygon fill="midnightblue" stroke="midnightblue" points="83.313,-362.395 78.2813,-353.071 76.4004,-363.498 83.313,-362.395"/>
</g>
<!-- Node41 -->
<g id="node41" class="node"><title>Node41</title>
<g id="a_node41"><a xlink:href="../../db/d49/classnars_1_1inference_1_1StructuralRules_a7baceb5d0b1adc6005f24cf83bc88e01.html#a7baceb5d0b1adc6005f24cf83bc88e01" target="_top" xlink:title="{&lt;S &#45;&#45;&gt; P&gt;, S@(S&amp;T)} |&#45; &lt;(S&amp;T) –&gt; (P&amp;T)&gt; {&lt;S &#45;&#45;&gt; P&gt;, S@(M&#45;S)} |&#45; &lt;(M&#45;P) –&gt; (M&#45;S)&gt; ...">
<polygon fill="none" stroke="black" points="631.5,-677.5 631.5,-707.5 764.5,-707.5 764.5,-677.5 631.5,-677.5"/>
<text text-anchor="start" x="639.5" y="-695.5" font-family="Helvetica,sans-Serif" font-size="10.00">nars.inference.Structural</text>
<text text-anchor="middle" x="698" y="-684.5" font-family="Helvetica,sans-Serif" font-size="10.00">Rules.structuralCompose2</text>
</a>
</g>
</g>
<!-- Node1&#45;&gt;Node41 -->
<g id="edge54" class="edge"><title>Node1&#45;&gt;Node41</title>
<path fill="none" stroke="midnightblue" d="M78.1531,-363.443C82.3797,-416.923 101.697,-564.411 188,-637.5 313.819,-744.055 524.554,-725.067 631.08,-706.527"/>
<polygon fill="midnightblue" stroke="midnightblue" points="81.6301,-362.989 77.446,-353.256 74.6469,-363.474 81.6301,-362.989"/>
</g>
<!-- Node43 -->
<g id="node43" class="node"><title>Node43</title>
<g id="a_node43"><a xlink:href="../../db/d49/classnars_1_1inference_1_1StructuralRules_a38aabb9f3b3a70e03852da1e32ec665d.html#a38aabb9f3b3a70e03852da1e32ec665d" target="_top" xlink:title="{&lt;(S&amp;T) –&gt; (P&amp;T)&gt;, S@(S&amp;T)} |&#45; &lt;S &#45;&#45;&gt; P&gt; ">
<polygon fill="none" stroke="black" points="204.5,-159.5 204.5,-189.5 347.5,-189.5 347.5,-159.5 204.5,-159.5"/>
<text text-anchor="start" x="212.5" y="-177.5" font-family="Helvetica,sans-Serif" font-size="10.00">nars.inference.Structural</text>
<text text-anchor="middle" x="276" y="-166.5" font-family="Helvetica,sans-Serif" font-size="10.00">Rules.structuralDecompose2</text>
</a>
</g>
</g>
<!-- Node1&#45;&gt;Node43 -->
<g id="edge57" class="edge"><title>Node1&#45;&gt;Node43</title>
<path fill="none" stroke="midnightblue" d="M86.1879,-324.694C102.36,-293.595 138.904,-231.608 188,-198.5 193.066,-195.084 198.608,-192.151 204.363,-189.634"/>
<polygon fill="midnightblue" stroke="midnightblue" points="83.0581,-323.127 81.663,-333.629 89.3031,-326.289 83.0581,-323.127"/>
</g>
<!-- Node3 -->
<g id="node3" class="node"><title>Node3</title>
<g id="a_node3"><a xlink:href="../../da/de3/classnars_1_1inference_1_1RuleTables_a34927349efcf87db97d23c60983b115b.html#a34927349efcf87db97d23c60983b115b" target="_top" xlink:title="Syllogistic rules whose both premises are on the same asymmetric relation. ">
<polygon fill="none" stroke="black" points="814,-427.5 814,-457.5 999,-457.5 999,-427.5 814,-427.5"/>
<text text-anchor="start" x="822" y="-445.5" font-family="Helvetica,sans-Serif" font-size="10.00">nars.inference.RuleTables.asymmetric</text>
<text text-anchor="middle" x="906.5" y="-434.5" font-family="Helvetica,sans-Serif" font-size="10.00">Asymmetric</text>
</a>
</g>
</g>
<!-- Node2&#45;&gt;Node3 -->
<g id="edge2" class="edge"><title>Node2&#45;&gt;Node3</title>
<path fill="none" stroke="midnightblue" d="M763.478,-367.904C768.435,-369.678 773.325,-371.548 778,-373.5 815.394,-389.112 856.183,-412.378 881.306,-427.496"/>
<polygon fill="midnightblue" stroke="midnightblue" points="764.498,-364.553 753.904,-364.614 762.224,-371.174 764.498,-364.553"/>
</g>
<!-- Node4 -->
<g id="node4" class="node"><title>Node4</title>
<g id="a_node4"><a xlink:href="../../da/de3/classnars_1_1inference_1_1RuleTables_a8628d400a8ceda7fea05039ddfea319b.html#a8628d400a8ceda7fea05039ddfea319b" target="_top" xlink:title="Meta&#45;table of syllogistic rules, indexed by the content classes of the taskSentence and the belief...">
<polygon fill="none" stroke="black" points="1035,-468 1035,-487 1215,-487 1215,-468 1035,-468"/>
<text text-anchor="middle" x="1125" y="-475" font-family="Helvetica,sans-Serif" font-size="10.00">nars.inference.RuleTables.syllogisms</text>
</a>
</g>
</g>
<!-- Node3&#45;&gt;Node4 -->
<g id="edge3" class="edge"><title>Node3&#45;&gt;Node4</title>
<path fill="none" stroke="midnightblue" d="M1009.02,-458.913C1028.26,-462.023 1047.79,-465.179 1065.15,-467.986"/>
<polygon fill="midnightblue" stroke="midnightblue" points="1009.43,-455.433 999.002,-457.292 1008.31,-462.344 1009.43,-455.433"/>
</g>
<!-- Node5 -->
<g id="node5" class="node"><title>Node5</title>
<g id="a_node5"><a xlink:href="../../da/de3/classnars_1_1inference_1_1RuleTables_ac2d01dfdc40bdd47c757cb549217e6e3.html#ac2d01dfdc40bdd47c757cb549217e6e3" target="_top" xlink:title="Entry point of the inference engine. ">
<polygon fill="none" stroke="black" points="1251,-317 1251,-336 1414,-336 1414,-317 1251,-317"/>
<text text-anchor="middle" x="1332.5" y="-324" font-family="Helvetica,sans-Serif" font-size="10.00">nars.inference.RuleTables.reason</text>
</a>
</g>
</g>
<!-- Node4&#45;&gt;Node5 -->
<g id="edge4" class="edge"><title>Node4&#45;&gt;Node5</title>
<path fill="none" stroke="midnightblue" d="M1147.42,-461.759C1189.95,-430.508 1283.91,-361.465 1318.44,-336.095"/>
<polygon fill="midnightblue" stroke="midnightblue" points="1145.15,-459.083 1139.17,-467.825 1149.3,-464.724 1145.15,-459.083"/>
</g>
<!-- Node6 -->
<g id="node6" class="node"><title>Node6</title>
<g id="a_node6"><a xlink:href="../../d4/d22/classnars_1_1entity_1_1Concept_ae07576c8466ad65eeb61040e3f71cfc7.html#ae07576c8466ad65eeb61040e3f71cfc7" target="_top" xlink:title="An atomic step in a concept, only called in Memory# processConcept. ">
<polygon fill="none" stroke="black" points="1450,-317 1450,-336 1569,-336 1569,-317 1450,-317"/>
<text text-anchor="middle" x="1509.5" y="-324" font-family="Helvetica,sans-Serif" font-size="10.00">nars.entity.Concept.fire</text>
</a>
</g>
</g>
<!-- Node5&#45;&gt;Node6 -->
<g id="edge5" class="edge"><title>Node5&#45;&gt;Node6</title>
<path fill="none" stroke="midnightblue" d="M1424.25,-326.5C1432.91,-326.5 1441.52,-326.5 1449.76,-326.5"/>
<polygon fill="midnightblue" stroke="midnightblue" points="1424.09,-323 1414.09,-326.5 1424.08,-330 1424.09,-323"/>
</g>
<!-- Node7 -->
<g id="node7" class="node"><title>Node7</title>
<g id="a_node7"><a xlink:href="../../d8/df4/classnars_1_1storage_1_1Memory_a83154b55b922c82b73931d4f22e3a590.html#a83154b55b922c82b73931d4f22e3a590" target="_top" xlink:title="Select a concept to fire. ">
<polygon fill="none" stroke="black" points="1605,-311.5 1605,-341.5 1751,-341.5 1751,-311.5 1605,-311.5"/>
<text text-anchor="start" x="1613" y="-329.5" font-family="Helvetica,sans-Serif" font-size="10.00">nars.storage.Memory.process</text>
<text text-anchor="middle" x="1678" y="-318.5" font-family="Helvetica,sans-Serif" font-size="10.00">Concept</text>
</a>
</g>
</g>
<!-- Node6&#45;&gt;Node7 -->
<g id="edge6" class="edge"><title>Node6&#45;&gt;Node7</title>
<path fill="none" stroke="midnightblue" d="M1579.34,-326.5C1587.75,-326.5 1596.36,-326.5 1604.82,-326.5"/>
<polygon fill="midnightblue" stroke="midnightblue" points="1579.2,-323 1569.2,-326.5 1579.2,-330 1579.2,-323"/>
</g>
<!-- Node8 -->
<g id="node8" class="node"><title>Node8</title>
<g id="a_node8"><a xlink:href="../../d8/df4/classnars_1_1storage_1_1Memory_a49e2cbc8b78d535f4d69739886ee966a.html#a49e2cbc8b78d535f4d69739886ee966a" target="_top" xlink:title="An atomic working workCycle of the system: process new Tasks, then fire a concept. ">
<polygon fill="none" stroke="black" points="1787,-311.5 1787,-341.5 1920,-341.5 1920,-311.5 1787,-311.5"/>
<text text-anchor="start" x="1795" y="-329.5" font-family="Helvetica,sans-Serif" font-size="10.00">nars.storage.Memory.work</text>
<text text-anchor="middle" x="1853.5" y="-318.5" font-family="Helvetica,sans-Serif" font-size="10.00">Cycle</text>
</a>
</g>
</g>
<!-- Node7&#45;&gt;Node8 -->
<g id="edge7" class="edge"><title>Node7&#45;&gt;Node8</title>
<path fill="none" stroke="midnightblue" d="M1761.12,-326.5C1769.72,-326.5 1778.37,-326.5 1786.76,-326.5"/>
<polygon fill="midnightblue" stroke="midnightblue" points="1761.07,-323 1751.07,-326.5 1761.07,-330 1761.07,-323"/>
</g>
<!-- Node9 -->
<g id="node9" class="node"><title>Node9</title>
<g id="a_node9"><a xlink:href="../../dd/da5/classnars_1_1storage_1_1Memory_1_1ReasonerBatch_acc60dec23da774957a85362ed6d7448b.html#acc60dec23da774957a85362ed6d7448b" target="_top" xlink:title="nars.storage.Memory.Reasoner\lBatch.doTick">
<polygon fill="none" stroke="black" points="1956,-311.5 1956,-341.5 2110,-341.5 2110,-311.5 1956,-311.5"/>
<text text-anchor="start" x="1964" y="-329.5" font-family="Helvetica,sans-Serif" font-size="10.00">nars.storage.Memory.Reasoner</text>
<text text-anchor="middle" x="2033" y="-318.5" font-family="Helvetica,sans-Serif" font-size="10.00">Batch.doTick</text>
</a>
</g>
</g>
<!-- Node8&#45;&gt;Node9 -->
<g id="edge8" class="edge"><title>Node8&#45;&gt;Node9</title>
<path fill="none" stroke="midnightblue" d="M1930.32,-326.5C1938.79,-326.5 1947.41,-326.5 1955.89,-326.5"/>
<polygon fill="midnightblue" stroke="midnightblue" points="1930.09,-323 1920.09,-326.5 1930.09,-330 1930.09,-323"/>
</g>
<!-- Node10 -->
<g id="node10" class="node"><title>Node10</title>
<g id="a_node10"><a xlink:href="../../dd/da5/classnars_1_1storage_1_1Memory_1_1ReasonerBatch_aed591f05899b98fd9e4ad01836ad0a40.html#aed591f05899b98fd9e4ad01836ad0a40" target="_top" xlink:title="A clock tick. ">
<polygon fill="none" stroke="black" points="2146,-311.5 2146,-341.5 2300,-341.5 2300,-311.5 2146,-311.5"/>
<text text-anchor="start" x="2154" y="-329.5" font-family="Helvetica,sans-Serif" font-size="10.00">nars.storage.Memory.Reasoner</text>
<text text-anchor="middle" x="2223" y="-318.5" font-family="Helvetica,sans-Serif" font-size="10.00">Batch.tick</text>
</a>
</g>
</g>
<!-- Node9&#45;&gt;Node10 -->
<g id="edge9" class="edge"><title>Node9&#45;&gt;Node10</title>
<path fill="none" stroke="midnightblue" d="M2120.42,-326.5C2128.86,-326.5 2137.37,-326.5 2145.7,-326.5"/>
<polygon fill="midnightblue" stroke="midnightblue" points="2120.2,-323 2110.2,-326.5 2120.2,-330 2120.2,-323"/>
</g>
<!-- Node11 -->
<g id="node11" class="node"><title>Node11</title>
<g id="a_node11"><a xlink:href="../../d4/d88/classnars_1_1storage_1_1Memory_1_1NARSBatch_aad99db6cedde9cff2a997db8906ff821.html#aad99db6cedde9cff2a997db8906ff821" target="_top" xlink:title="Run to completion: repeatedly execute NARS working cycle, until Inputs are Finished, or 1000 steps. ">
<polygon fill="none" stroke="black" points="2336,-317 2336,-336 2518,-336 2518,-317 2336,-317"/>
<text text-anchor="middle" x="2427" y="-324" font-family="Helvetica,sans-Serif" font-size="10.00">nars.storage.Memory.NARSBatch.run</text>
</a>
</g>
</g>
<!-- Node10&#45;&gt;Node11 -->
<g id="edge10" class="edge"><title>Node10&#45;&gt;Node11</title>
<path fill="none" stroke="midnightblue" d="M2310.27,-326.5C2318.69,-326.5 2327.25,-326.5 2335.71,-326.5"/>
<polygon fill="midnightblue" stroke="midnightblue" points="2310.08,-323 2300.08,-326.5 2310.08,-330 2310.08,-323"/>
</g>
<!-- Node12 -->
<g id="node12" class="node"><title>Node12</title>
<g id="a_node12"><a xlink:href="../../d4/d88/classnars_1_1storage_1_1Memory_1_1NARSBatch_a416c39463faa161661ed1d12fea03b3c.html#a416c39463faa161661ed1d12fea03b3c" target="_top" xlink:title="non&#45;static equivalent to main(String[]) : run to completion from an input file ">
<polygon fill="none" stroke="black" points="2554,-311.5 2554,-341.5 2736,-341.5 2736,-311.5 2554,-311.5"/>
<text text-anchor="start" x="2562" y="-329.5" font-family="Helvetica,sans-Serif" font-size="10.00">nars.storage.Memory.NARSBatch.run</text>
<text text-anchor="middle" x="2645" y="-318.5" font-family="Helvetica,sans-Serif" font-size="10.00">Inference</text>
</a>
</g>
</g>
<!-- Node11&#45;&gt;Node12 -->
<g id="edge11" class="edge"><title>Node11&#45;&gt;Node12</title>
<path fill="none" stroke="midnightblue" d="M2528.06,-326.5C2536.63,-326.5 2545.27,-326.5 2553.76,-326.5"/>
<polygon fill="midnightblue" stroke="midnightblue" points="2528.04,-323 2518.04,-326.5 2528.04,-330 2528.04,-323"/>
</g>
<!-- Node13 -->
<g id="node13" class="node"><title>Node13</title>
<g id="a_node13"><a xlink:href="../../d4/d88/classnars_1_1storage_1_1Memory_1_1NARSBatch_aa97fcd68270583e60e6bf1b4579d1bdc.html#aa97fcd68270583e60e6bf1b4579d1bdc" target="_top" xlink:title="The entry point of the standalone application. ">
<polygon fill="none" stroke="black" points="2772,-317 2772,-336 2962,-336 2962,-317 2772,-317"/>
<text text-anchor="middle" x="2867" y="-324" font-family="Helvetica,sans-Serif" font-size="10.00">nars.storage.Memory.NARSBatch.main</text>
</a>
</g>
</g>
<!-- Node12&#45;&gt;Node13 -->
<g id="edge12" class="edge"><title>Node12&#45;&gt;Node13</title>
<path fill="none" stroke="midnightblue" d="M2746.37,-326.5C2754.82,-326.5 2763.34,-326.5 2771.74,-326.5"/>
<polygon fill="midnightblue" stroke="midnightblue" points="2746.12,-323 2736.12,-326.5 2746.12,-330 2746.12,-323"/>
</g>
<!-- Node15 -->
<g id="node15" class="node"><title>Node15</title>
<g id="a_node15"><a xlink:href="../../da/de3/classnars_1_1inference_1_1RuleTables_a4f61a7c2dc75c9da475030894eac0735.html#a4f61a7c2dc75c9da475030894eac0735" target="_top" xlink:title="Syllogistic rules whose first premise is on an asymmetric relation, and the second on a symmetric rel...">
<polygon fill="none" stroke="black" points="814,-529.5 814,-559.5 999,-559.5 999,-529.5 814,-529.5"/>
<text text-anchor="start" x="822" y="-547.5" font-family="Helvetica,sans-Serif" font-size="10.00">nars.inference.RuleTables.asymmetric</text>
<text text-anchor="middle" x="906.5" y="-536.5" font-family="Helvetica,sans-Serif" font-size="10.00">Symmetric</text>
</a>
</g>
</g>
<!-- Node14&#45;&gt;Node15 -->
<g id="edge14" class="edge"><title>Node14&#45;&gt;Node15</title>
<path fill="none" stroke="midnightblue" d="M564.178,-601.398C622.075,-593.114 705.377,-580.79 778,-568.5 794.212,-565.756 811.546,-562.626 828.043,-559.552"/>
<polygon fill="midnightblue" stroke="midnightblue" points="563.437,-597.968 554.032,-602.846 564.426,-604.898 563.437,-597.968"/>
</g>
<!-- Node15&#45;&gt;Node4 -->
<g id="edge15" class="edge"><title>Node15&#45;&gt;Node4</title>
<path fill="none" stroke="midnightblue" d="M965.713,-526.485C1006.8,-513.771 1060.2,-497.243 1093.29,-487.005"/>
<polygon fill="midnightblue" stroke="midnightblue" points="964.605,-523.164 956.087,-529.464 966.675,-529.851 964.605,-523.164"/>
</g>
<!-- Node17&#45;&gt;Node5 -->
<g id="edge18" class="edge"><title>Node17&#45;&gt;Node5</title>
<path fill="none" stroke="midnightblue" d="M1198.46,-342.685C1216.15,-340.533 1235.16,-338.22 1253.11,-336.036"/>
<polygon fill="midnightblue" stroke="midnightblue" points="1197.72,-339.249 1188.21,-343.931 1198.56,-346.198 1197.72,-339.249"/>
</g>
<!-- Node18&#45;&gt;Node5 -->
<g id="edge22" class="edge"><title>Node18&#45;&gt;Node5</title>
<path fill="none" stroke="midnightblue" d="M979.842,-258.288C1042.78,-257.139 1136.02,-259.419 1215,-277.5 1251.79,-285.922 1291.73,-305.147 1313.98,-316.856"/>
<polygon fill="midnightblue" stroke="midnightblue" points="979.543,-254.794 969.621,-258.51 979.695,-261.792 979.543,-254.794"/>
</g>
<!-- Node19 -->
<g id="node19" class="node"><title>Node19</title>
<g id="a_node19"><a xlink:href="../../da/de3/classnars_1_1inference_1_1RuleTables_a62599450d65ff257b92df0d48d7c1bdf.html#a62599450d65ff257b92df0d48d7c1bdf" target="_top" xlink:title="Conditional deduction or induction, with variable unification. ">
<polygon fill="none" stroke="black" points="1035,-287.5 1035,-317.5 1215,-317.5 1215,-287.5 1035,-287.5"/>
<text text-anchor="start" x="1043" y="-305.5" font-family="Helvetica,sans-Serif" font-size="10.00">nars.inference.RuleTables.conditional</text>
<text text-anchor="middle" x="1125" y="-294.5" font-family="Helvetica,sans-Serif" font-size="10.00">DedIndWithVar</text>
</a>
</g>
</g>
<!-- Node18&#45;&gt;Node19 -->
<g id="edge20" class="edge"><title>Node18&#45;&gt;Node19</title>
<path fill="none" stroke="midnightblue" d="M979.592,-275.152C1000.43,-279.099 1023.29,-283.427 1044.55,-287.453"/>
<polygon fill="midnightblue" stroke="midnightblue" points="980.017,-271.671 969.54,-273.249 978.714,-278.549 980.017,-271.671"/>
</g>
<!-- Node19&#45;&gt;Node5 -->
<g id="edge21" class="edge"><title>Node19&#45;&gt;Node5</title>
<path fill="none" stroke="midnightblue" d="M1225.24,-314.091C1233.79,-315.089 1242.37,-316.091 1250.75,-317.069"/>
<polygon fill="midnightblue" stroke="midnightblue" points="1225.58,-310.606 1215.24,-312.922 1224.77,-317.559 1225.58,-310.606"/>
</g>
<!-- Node21 -->
<g id="node21" class="node"><title>Node21</title>
<g id="a_node21"><a xlink:href="../../da/de3/classnars_1_1inference_1_1RuleTables_a274b39b31e00ef27ae6baeaad3894a6a.html#a274b39b31e00ef27ae6baeaad3894a6a" target="_top" xlink:title="Inference between a component term (of the current term) and a statement. ">
<polygon fill="none" stroke="black" points="400,-202.5 400,-232.5 582,-232.5 582,-202.5 400,-202.5"/>
<text text-anchor="start" x="408" y="-220.5" font-family="Helvetica,sans-Serif" font-size="10.00">nars.inference.RuleTables.component</text>
<text text-anchor="middle" x="491" y="-209.5" font-family="Helvetica,sans-Serif" font-size="10.00">AndStatement</text>
</a>
</g>
</g>
<!-- Node20&#45;&gt;Node21 -->
<g id="edge24" class="edge"><title>Node20&#45;&gt;Node21</title>
<path fill="none" stroke="midnightblue" d="M347.909,-221.503C364.519,-221.035 382.435,-220.53 399.762,-220.042"/>
<polygon fill="midnightblue" stroke="midnightblue" points="347.65,-218.008 337.752,-221.789 347.847,-225.006 347.65,-218.008"/>
</g>
<!-- Node21&#45;&gt;Node5 -->
<g id="edge25" class="edge"><title>Node21&#45;&gt;Node5</title>
<path fill="none" stroke="midnightblue" d="M592.161,-206.306C734.582,-193.991 1001.96,-184.291 1215,-254.5 1257.45,-268.491 1300.38,-300.763 1320.19,-316.92"/>
<polygon fill="midnightblue" stroke="midnightblue" points="591.777,-202.826 582.125,-207.196 592.395,-209.799 591.777,-202.826"/>
</g>
<!-- Node23 -->
<g id="node23" class="node"><title>Node23</title>
<g id="a_node23"><a xlink:href="../../d4/de9/classnars_1_1inference_1_1LocalRules_aeb46ba9d63958c022519607076ce1273.html#aeb46ba9d63958c022519607076ce1273" target="_top" xlink:title="{ ">
<polygon fill="none" stroke="black" points="401,-460 401,-479 581,-479 581,-460 401,-460"/>
<text text-anchor="middle" x="491" y="-467" font-family="Helvetica,sans-Serif" font-size="10.00">nars.inference.LocalRules.conversion</text>
</a>
</g>
</g>
<!-- Node22&#45;&gt;Node23 -->
<g id="edge27" class="edge"><title>Node22&#45;&gt;Node23</title>
<path fill="none" stroke="midnightblue" d="M374.495,-472.754C383.266,-472.507 392.12,-472.257 400.815,-472.012"/>
<polygon fill="midnightblue" stroke="midnightblue" points="374.147,-469.262 364.25,-473.042 374.344,-476.259 374.147,-469.262"/>
</g>
<!-- Node25 -->
<g id="node25" class="node"><title>Node25</title>
<g id="a_node25"><a xlink:href="../../d4/de9/classnars_1_1inference_1_1LocalRules_ae878f1b2fff31ef78b7916bde1b939b3.html#ae878f1b2fff31ef78b7916bde1b939b3" target="_top" xlink:title="{&lt;S &#45;&#45;&gt; P&gt;} |&#45; &lt;S &lt;&#45;&gt; P&gt; {&lt;S &lt;&#45;&gt; P&gt;} |&#45; &lt;S &#45;&#45;&gt; P&gt; Switch between Inheritance/Implication and Similari...">
<polygon fill="none" stroke="black" points="408.5,-498.5 408.5,-528.5 573.5,-528.5 573.5,-498.5 408.5,-498.5"/>
<text text-anchor="start" x="416.5" y="-516.5" font-family="Helvetica,sans-Serif" font-size="10.00">nars.inference.LocalRules.convert</text>
<text text-anchor="middle" x="491" y="-505.5" font-family="Helvetica,sans-Serif" font-size="10.00">Relation</text>
</a>
</g>
</g>
<!-- Node22&#45;&gt;Node25 -->
<g id="edge30" class="edge"><title>Node22&#45;&gt;Node25</title>
<path fill="none" stroke="midnightblue" d="M371.045,-492.278C383.419,-494.485 396.02,-496.734 408.167,-498.901"/>
<polygon fill="midnightblue" stroke="midnightblue" points="371.643,-488.829 361.183,-490.519 370.413,-495.721 371.643,-488.829"/>
</g>
<!-- Node24 -->
<g id="node24" class="node"><title>Node24</title>
<g id="a_node24"><a xlink:href="../../d4/de9/classnars_1_1inference_1_1LocalRules_a93af32adec92cf57671c32e9ccc2dffc.html#a93af32adec92cf57671c32e9ccc2dffc" target="_top" xlink:title="The task and belief match reversely. ">
<polygon fill="none" stroke="black" points="618,-471.5 618,-501.5 778,-501.5 778,-471.5 618,-471.5"/>
<text text-anchor="start" x="626" y="-489.5" font-family="Helvetica,sans-Serif" font-size="10.00">nars.inference.LocalRules.match</text>
<text text-anchor="middle" x="698" y="-478.5" font-family="Helvetica,sans-Serif" font-size="10.00">Reverse</text>
</a>
</g>
</g>
<!-- Node23&#45;&gt;Node24 -->
<g id="edge28" class="edge"><title>Node23&#45;&gt;Node24</title>
<path fill="none" stroke="midnightblue" d="M591.081,-477.717C600.018,-478.458 608.988,-479.201 617.722,-479.926"/>
<polygon fill="midnightblue" stroke="midnightblue" points="591.277,-474.221 581.022,-476.882 590.698,-481.197 591.277,-474.221"/>
</g>
<!-- Node24&#45;&gt;Node3 -->
<g id="edge29" class="edge"><title>Node24&#45;&gt;Node3</title>
<path fill="none" stroke="midnightblue" d="M779.281,-469.394C797.655,-465.479 817.051,-461.346 834.979,-457.526"/>
<polygon fill="midnightblue" stroke="midnightblue" points="778.539,-465.974 769.488,-471.481 779.998,-472.82 778.539,-465.974"/>
</g>
<!-- Node26 -->
<g id="node26" class="node"><title>Node26</title>
<g id="a_node26"><a xlink:href="../../d4/de9/classnars_1_1inference_1_1LocalRules_a2a6db5879fbb7ba315891fa9d49c985b.html#a2a6db5879fbb7ba315891fa9d49c985b" target="_top" xlink:title="Inheritance/Implication matches Similarity/Equivalence. ">
<polygon fill="none" stroke="black" points="618,-529.5 618,-559.5 778,-559.5 778,-529.5 618,-529.5"/>
<text text-anchor="start" x="626" y="-547.5" font-family="Helvetica,sans-Serif" font-size="10.00">nars.inference.LocalRules.match</text>
<text text-anchor="middle" x="698" y="-536.5" font-family="Helvetica,sans-Serif" font-size="10.00">AsymSym</text>
</a>
</g>
</g>
<!-- Node25&#45;&gt;Node26 -->
<g id="edge31" class="edge"><title>Node25&#45;&gt;Node26</title>
<path fill="none" stroke="midnightblue" d="M583.552,-527.344C594.934,-529.066 606.499,-530.814 617.675,-532.505"/>
<polygon fill="midnightblue" stroke="midnightblue" points="584.021,-523.876 573.61,-525.841 582.975,-530.797 584.021,-523.876"/>
</g>
<!-- Node26&#45;&gt;Node15 -->
<g id="edge32" class="edge"><title>Node26&#45;&gt;Node15</title>
<path fill="none" stroke="midnightblue" d="M788.4,-544.5C796.787,-544.5 805.297,-544.5 813.705,-544.5"/>
<polygon fill="midnightblue" stroke="midnightblue" points="788.248,-541 778.248,-544.5 788.248,-548 788.248,-541"/>
</g>
<!-- Node27&#45;&gt;Node3 -->
<g id="edge34" class="edge"><title>Node27&#45;&gt;Node3</title>
<path fill="none" stroke="midnightblue" d="M564.746,-428.491C634.107,-431.342 738.82,-435.647 813.851,-438.732"/>
<polygon fill="midnightblue" stroke="midnightblue" points="564.488,-424.977 554.353,-428.063 564.201,-431.971 564.488,-424.977"/>
</g>
<!-- Node28&#45;&gt;Node26 -->
<g id="edge36" class="edge"><title>Node28&#45;&gt;Node26</title>
<path fill="none" stroke="midnightblue" d="M577.307,-555.01C590.687,-553.835 604.468,-552.625 617.705,-551.462"/>
<polygon fill="midnightblue" stroke="midnightblue" points="576.826,-551.538 567.17,-555.9 577.438,-558.511 576.826,-551.538"/>
</g>
<!-- Node31 -->
<g id="node31" class="node"><title>Node31</title>
<g id="a_node31"><a xlink:href="../../d3/dca/classnars_1_1io_1_1StringParser_a5c31494d6f7862dcf15a4d5716b6200e.html#a5c31494d6f7862dcf15a4d5716b6200e" target="_top" xlink:title="Top&#45;level method that parse a Term in general, which may recursively call itself. ...">
<polygon fill="none" stroke="black" points="415,-28 415,-47 567,-47 567,-28 415,-28"/>
<text text-anchor="middle" x="491" y="-35" font-family="Helvetica,sans-Serif" font-size="10.00">nars.io.StringParser.parseTerm</text>
</a>
</g>
</g>
<!-- Node30&#45;&gt;Node31 -->
<g id="edge39" class="edge"><title>Node30&#45;&gt;Node31</title>
<path fill="none" stroke="midnightblue" d="M351.417,-31.0299C371.911,-30.662 394.154,-30.6568 414.698,-31.0143"/>
<polygon fill="midnightblue" stroke="midnightblue" points="351.119,-27.5354 341.196,-31.2475 351.268,-34.5338 351.119,-27.5354"/>
</g>
<!-- Node31&#45;&gt;Node30 -->
<g id="edge44" class="edge"><title>Node31&#45;&gt;Node30</title>
<path fill="none" stroke="midnightblue" d="M404.444,-44.1326C383.339,-44.372 361.091,-44.2453 341.196,-43.7525"/>
<polygon fill="midnightblue" stroke="midnightblue" points="404.749,-47.6287 414.698,-43.9857 404.648,-40.6294 404.749,-47.6287"/>
</g>
<!-- Node32 -->
<g id="node32" class="node"><title>Node32</title>
<g id="a_node32"><a xlink:href="../../d3/dca/classnars_1_1io_1_1StringParser_a7a11182c36a2fae68be8952110f47570.html#a7a11182c36a2fae68be8952110f47570" target="_top" xlink:title="Parse a String into the argument get of a CompoundTerm. ">
<polygon fill="none" stroke="black" points="633,-0.5 633,-30.5 763,-30.5 763,-0.5 633,-0.5"/>
<text text-anchor="start" x="641" y="-18.5" font-family="Helvetica,sans-Serif" font-size="10.00">nars.io.StringParser.parse</text>
<text text-anchor="middle" x="698" y="-7.5" font-family="Helvetica,sans-Serif" font-size="10.00">Arguments</text>
</a>
</g>
</g>
<!-- Node31&#45;&gt;Node32 -->
<g id="edge40" class="edge"><title>Node31&#45;&gt;Node32</title>
<path fill="none" stroke="midnightblue" d="M540.739,-26.4237C568.292,-22.4444 603.073,-18.5565 632.822,-16.0755"/>
<polygon fill="midnightblue" stroke="midnightblue" points="539.929,-23.0059 530.559,-27.9505 540.967,-29.9285 539.929,-23.0059"/>
</g>
<!-- Node34 -->
<g id="node34" class="node"><title>Node34</title>
<g id="a_node34"><a xlink:href="../../d3/dca/classnars_1_1io_1_1StringParser_a75b446999d71c676a9915ecc75077a7d.html#a75b446999d71c676a9915ecc75077a7d" target="_top" xlink:title="Enter a new Task in String into the memory, called from InputWindow or locally. ">
<polygon fill="none" stroke="black" points="622,-88 622,-107 774,-107 774,-88 622,-88"/>
<text text-anchor="middle" x="698" y="-95" font-family="Helvetica,sans-Serif" font-size="10.00">nars.io.StringParser.parseTask</text>
</a>
</g>
</g>
<!-- Node31&#45;&gt;Node34 -->
<g id="edge45" class="edge"><title>Node31&#45;&gt;Node34</title>
<path fill="none" stroke="midnightblue" d="M534.378,-49.9032C572.961,-61.1958 629.123,-77.6335 664.33,-87.9382"/>
<polygon fill="midnightblue" stroke="midnightblue" points="535.063,-46.4572 524.483,-47.0072 533.097,-53.1753 535.063,-46.4572"/>
</g>
<!-- Node32&#45;&gt;Node31 -->
<g id="edge43" class="edge"><title>Node32&#45;&gt;Node31</title>
<path fill="none" stroke="midnightblue" d="M623.026,-29.9508C604.859,-32.2108 585.393,-34.3065 567.17,-35.965"/>
<polygon fill="midnightblue" stroke="midnightblue" points="623.493,-33.4196 632.969,-28.68 622.606,-26.4761 623.493,-33.4196"/>
</g>
<!-- Node33 -->
<g id="node33" class="node"><title>Node33</title>
<g id="a_node33"><a xlink:href="../../d3/dca/classnars_1_1io_1_1StringParser_a944bb677dff9f232ce6b896c853e24e0.html#a944bb677dff9f232ce6b896c853e24e0" target="_top" xlink:title="Parse a String to create a CompoundTerm. ">
<polygon fill="none" stroke="black" points="841.5,-16.5 841.5,-46.5 971.5,-46.5 971.5,-16.5 841.5,-16.5"/>
<text text-anchor="start" x="849.5" y="-34.5" font-family="Helvetica,sans-Serif" font-size="10.00">nars.io.StringParser.parse</text>
<text text-anchor="middle" x="906.5" y="-23.5" font-family="Helvetica,sans-Serif" font-size="10.00">CompoundTerm</text>
</a>
</g>
</g>
<!-- Node32&#45;&gt;Node33 -->
<g id="edge41" class="edge"><title>Node32&#45;&gt;Node33</title>
<path fill="none" stroke="midnightblue" d="M773.283,-21.2556C795.552,-22.981 819.776,-24.858 841.334,-26.5283"/>
<polygon fill="midnightblue" stroke="midnightblue" points="773.446,-17.7578 763.206,-20.4748 772.906,-24.7369 773.446,-17.7578"/>
</g>
<!-- Node33&#45;&gt;Node31 -->
<g id="edge42" class="edge"><title>Node33&#45;&gt;Node31</title>
<path fill="none" stroke="midnightblue" d="M831.202,-36.9491C813.759,-38.01 795.234,-38.9599 778,-39.5 706.924,-41.7277 689.109,-40.0643 618,-39.5 601.592,-39.3698 583.984,-39.1442 567.286,-38.8903"/>
<polygon fill="midnightblue" stroke="midnightblue" points="831.567,-40.4331 841.328,-36.3139 831.129,-33.4469 831.567,-40.4331"/>
</g>
<!-- Node35 -->
<g id="node35" class="node"><title>Node35</title>
<g id="a_node35"><a xlink:href="../../d3/dca/classnars_1_1io_1_1StringParser_a37ff864d959aba58138170a3f9a3e7c8.html#a37ff864d959aba58138170a3f9a3e7c8" target="_top" xlink:title="Parse a line of input experience. ">
<polygon fill="none" stroke="black" points="841.5,-82.5 841.5,-112.5 971.5,-112.5 971.5,-82.5 841.5,-82.5"/>
<text text-anchor="start" x="849.5" y="-100.5" font-family="Helvetica,sans-Serif" font-size="10.00">nars.io.StringParser.parse</text>
<text text-anchor="middle" x="906.5" y="-89.5" font-family="Helvetica,sans-Serif" font-size="10.00">Experience</text>
</a>
</g>
</g>
<!-- Node34&#45;&gt;Node35 -->
<g id="edge46" class="edge"><title>Node34&#45;&gt;Node35</title>
<path fill="none" stroke="midnightblue" d="M784.315,-97.5C803.375,-97.5 823.277,-97.5 841.313,-97.5"/>
<polygon fill="midnightblue" stroke="midnightblue" points="784.135,-94.0001 774.135,-97.5 784.135,-101 784.135,-94.0001"/>
</g>
<!-- Node36 -->
<g id="node36" class="node"><title>Node36</title>
<g id="a_node36"><a xlink:href="../../dd/da5/classnars_1_1storage_1_1Memory_1_1ReasonerBatch_a2f22be33d98b4366712ff91b93c2be8a.html#a2f22be33d98b4366712ff91b93c2be8a" target="_top" xlink:title="To process a line of input text. ">
<polygon fill="none" stroke="black" points="1048,-82.5 1048,-112.5 1202,-112.5 1202,-82.5 1048,-82.5"/>
<text text-anchor="start" x="1056" y="-100.5" font-family="Helvetica,sans-Serif" font-size="10.00">nars.storage.Memory.Reasoner</text>
<text text-anchor="middle" x="1125" y="-89.5" font-family="Helvetica,sans-Serif" font-size="10.00">Batch.textInputLine</text>
</a>
</g>
</g>
<!-- Node35&#45;&gt;Node36 -->
<g id="edge47" class="edge"><title>Node35&#45;&gt;Node36</title>
<path fill="none" stroke="midnightblue" d="M981.868,-97.5C1003.18,-97.5 1026.44,-97.5 1047.86,-97.5"/>
<polygon fill="midnightblue" stroke="midnightblue" points="981.578,-94.0001 971.578,-97.5 981.578,-101 981.578,-94.0001"/>
</g>
<!-- Node38 -->
<g id="node38" class="node"><title>Node38</title>
<g id="a_node38"><a xlink:href="../../d8/d79/classnars_1_1inference_1_1CompositionalRules_a53f7edf7bfe7433da42e8fcf36fd6604.html#a53f7edf7bfe7433da42e8fcf36fd6604" target="_top" xlink:title="{&lt;S ==&gt; M&gt;, ">
<polygon fill="none" stroke="black" points="626.5,-383.5 626.5,-413.5 769.5,-413.5 769.5,-383.5 626.5,-383.5"/>
<text text-anchor="start" x="634.5" y="-401.5" font-family="Helvetica,sans-Serif" font-size="10.00">nars.inference.Compositional</text>
<text text-anchor="middle" x="698" y="-390.5" font-family="Helvetica,sans-Serif" font-size="10.00">Rules.composeCompound</text>
</a>
</g>
</g>
<!-- Node37&#45;&gt;Node38 -->
<g id="edge49" class="edge"><title>Node37&#45;&gt;Node38</title>
<path fill="none" stroke="midnightblue" d="M358.01,-389.622C435.803,-391.659 552.142,-394.706 626.288,-396.648"/>
<polygon fill="midnightblue" stroke="midnightblue" points="357.861,-386.117 347.772,-389.354 357.677,-393.114 357.861,-386.117"/>
</g>
<!-- Node38&#45;&gt;Node3 -->
<g id="edge50" class="edge"><title>Node38&#45;&gt;Node3</title>
<path fill="none" stroke="midnightblue" d="M779.281,-415.606C797.655,-419.521 817.051,-423.654 834.979,-427.474"/>
<polygon fill="midnightblue" stroke="midnightblue" points="779.998,-412.18 769.488,-413.519 778.539,-419.026 779.998,-412.18"/>
</g>
<!-- Node40 -->
<g id="node40" class="node"><title>Node40</title>
<g id="a_node40"><a xlink:href="../../da/de3/classnars_1_1inference_1_1RuleTables_ab64fca3ebda3499b831c2b93df736530.html#ab64fca3ebda3499b831c2b93df736530" target="_top" xlink:title="Syllogistic rules whose both premises are on the same symmetric relation. ">
<polygon fill="none" stroke="black" points="817,-608.5 817,-638.5 996,-638.5 996,-608.5 817,-608.5"/>
<text text-anchor="start" x="825" y="-626.5" font-family="Helvetica,sans-Serif" font-size="10.00">nars.inference.RuleTables.symmetric</text>
<text text-anchor="middle" x="906.5" y="-615.5" font-family="Helvetica,sans-Serif" font-size="10.00">Symmetric</text>
</a>
</g>
</g>
<!-- Node39&#45;&gt;Node40 -->
<g id="edge52" class="edge"><title>Node39&#45;&gt;Node40</title>
<path fill="none" stroke="midnightblue" d="M771.237,-634.553C785.918,-633.345 801.521,-632.06 816.699,-630.81"/>
<polygon fill="midnightblue" stroke="midnightblue" points="770.916,-631.068 761.237,-635.376 771.49,-638.044 770.916,-631.068"/>
</g>
<!-- Node40&#45;&gt;Node4 -->
<g id="edge53" class="edge"><title>Node40&#45;&gt;Node4</title>
<path fill="none" stroke="midnightblue" d="M942.547,-603.41C959.775,-593.289 980.713,-580.619 999,-568.5 1041.29,-540.475 1089.27,-504.23 1111.49,-487.178"/>
<polygon fill="midnightblue" stroke="midnightblue" points="940.78,-600.389 933.91,-608.454 944.31,-606.434 940.78,-600.389"/>
</g>
<!-- Node42 -->
<g id="node42" class="node"><title>Node42</title>
<g id="a_node42"><a xlink:href="../../da/de3/classnars_1_1inference_1_1RuleTables_a8e422154fd8288d161435c3a53e44276.html#a8e422154fd8288d161435c3a53e44276" target="_top" xlink:title="Inference between a compound term and a statement. ">
<polygon fill="none" stroke="black" points="1035.5,-577.5 1035.5,-607.5 1214.5,-607.5 1214.5,-577.5 1035.5,-577.5"/>
<text text-anchor="start" x="1043.5" y="-595.5" font-family="Helvetica,sans-Serif" font-size="10.00">nars.inference.RuleTables.compound</text>
<text text-anchor="middle" x="1125" y="-584.5" font-family="Helvetica,sans-Serif" font-size="10.00">AndStatement</text>
</a>
</g>
</g>
<!-- Node41&#45;&gt;Node42 -->
<g id="edge55" class="edge"><title>Node41&#45;&gt;Node42</title>
<path fill="none" stroke="midnightblue" d="M774.769,-687.193C836.173,-681.517 924.434,-670.217 999,-648.5 1033.7,-638.393 1071.26,-620.546 1096.05,-607.713"/>
<polygon fill="midnightblue" stroke="midnightblue" points="774.418,-683.71 764.771,-688.09 775.043,-690.682 774.418,-683.71"/>
</g>
<!-- Node42&#45;&gt;Node5 -->
<g id="edge56" class="edge"><title>Node42&#45;&gt;Node5</title>
<path fill="none" stroke="midnightblue" d="M1148.41,-570.229C1167.03,-551.292 1193.8,-523.028 1215,-496.5 1261.46,-438.361 1309.33,-362.471 1325.65,-336.057"/>
<polygon fill="midnightblue" stroke="midnightblue" points="1145.77,-567.927 1141.22,-577.496 1150.74,-572.852 1145.77,-567.927"/>
</g>
<!-- Node43&#45;&gt;Node21 -->
<g id="edge58" class="edge"><title>Node43&#45;&gt;Node21</title>
<path fill="none" stroke="midnightblue" d="M357.473,-190.746C376.528,-194.593 396.768,-198.679 415.543,-202.469"/>
<polygon fill="midnightblue" stroke="midnightblue" points="358.125,-187.307 347.63,-188.759 356.74,-194.168 358.125,-187.307"/>
</g>
</g>
</svg>
