<?xml version="1.0" encoding="UTF-8" standalone="no"?>
<!DOCTYPE svg PUBLIC "-//W3C//DTD SVG 1.1//EN"
 "http://www.w3.org/Graphics/SVG/1.1/DTD/svg11.dtd">
<!-- Generated by graphviz version 2.38.0 (20140413.2041)
 -->
<!-- Title: nars.language.Statement.invalidStatement Pages: 1 -->
<svg width="535pt" height="225pt"
 viewBox="0.00 0.00 535.00 225.00" xmlns="http://www.w3.org/2000/svg" xmlns:xlink="http://www.w3.org/1999/xlink">
<g id="graph0" class="graph" transform="scale(1 1) rotate(0) translate(4 221)">
<title>nars.language.Statement.invalidStatement</title>
<!-- Node1 -->
<g id="node1" class="node"><title>Node1</title>
<polygon fill="#bfbfbf" stroke="black" points="0,-98.5 0,-128.5 156,-128.5 156,-98.5 0,-98.5"/>
<text text-anchor="start" x="8" y="-116.5" font-family="Helvetica,sans-Serif" font-size="10.00">nars.language.Statement.invalid</text>
<text text-anchor="middle" x="78" y="-105.5" font-family="Helvetica,sans-Serif" font-size="10.00">Statement</text>
</g>
<!-- Node2 -->
<g id="node2" class="node"><title>Node2</title>
<g id="a_node2"><a xlink:href="../../d0/dee/classnars_1_1language_1_1CompoundTerm_a89000afae8017231889aaa549292d1e0.html#a89000afae8017231889aaa549292d1e0" target="_top" xlink:title="Default constructor. ">
<polygon fill="none" stroke="black" points="192,-186.5 192,-216.5 345,-216.5 345,-186.5 192,-186.5"/>
<text text-anchor="start" x="200" y="-204.5" font-family="Helvetica,sans-Serif" font-size="10.00">nars.language.CompoundTerm.</text>
<text text-anchor="middle" x="268.5" y="-193.5" font-family="Helvetica,sans-Serif" font-size="10.00">CompoundTerm</text>
</a>
</g>
</g>
<!-- Node1&#45;&gt;Node2 -->
<g id="edge1" class="edge"><title>Node1&#45;&gt;Node2</title>
<path fill="none" stroke="midnightblue" d="M103.006,-128.638C125.427,-142.349 160.129,-162.489 192,-176.5 197.056,-178.723 202.375,-180.861 207.752,-182.887"/>
<polygon fill="midnightblue" stroke="midnightblue" points="206.854,-186.285 217.448,-186.408 209.243,-179.705 206.854,-186.285"/>
</g>
<!-- Node3 -->
<g id="node3" class="node"><title>Node3</title>
<g id="a_node3"><a xlink:href="../../d8/db8/classnars_1_1language_1_1Term_ad85f45a7858737445d5158801774ff5f.html#ad85f45a7858737445d5158801774ff5f" target="_top" xlink:title="Equal terms have identical name, though not necessarily the same reference. ">
<polygon fill="none" stroke="black" points="201.5,-148 201.5,-167 335.5,-167 335.5,-148 201.5,-148"/>
<text text-anchor="middle" x="268.5" y="-155" font-family="Helvetica,sans-Serif" font-size="10.00">nars.language.Term.equals</text>
</a>
</g>
</g>
<!-- Node1&#45;&gt;Node3 -->
<g id="edge2" class="edge"><title>Node1&#45;&gt;Node3</title>
<path fill="none" stroke="midnightblue" d="M143.344,-128.519C167.406,-134.136 194.37,-140.43 217.006,-145.714"/>
<polygon fill="midnightblue" stroke="midnightblue" points="216.214,-149.123 226.748,-147.988 217.805,-142.306 216.214,-149.123"/>
</g>
<!-- Node5 -->
<g id="node5" class="node"><title>Node5</title>
<g id="a_node5"><a xlink:href="../../d1/d5e/classnars_1_1language_1_1Statement_ababe6155e2f78e769f76493317e118e0.html#ababe6155e2f78e769f76493317e118e0" target="_top" xlink:title="Return the second component of the statement. ">
<polygon fill="none" stroke="black" points="197.5,-98.5 197.5,-128.5 339.5,-128.5 339.5,-98.5 197.5,-98.5"/>
<text text-anchor="start" x="205.5" y="-116.5" font-family="Helvetica,sans-Serif" font-size="10.00">nars.language.Statement.get</text>
<text text-anchor="middle" x="268.5" y="-105.5" font-family="Helvetica,sans-Serif" font-size="10.00">Predicate</text>
</a>
</g>
</g>
<!-- Node1&#45;&gt;Node5 -->
<g id="edge4" class="edge"><title>Node1&#45;&gt;Node5</title>
<path fill="none" stroke="midnightblue" d="M156.214,-113.5C166.432,-113.5 176.927,-113.5 187.195,-113.5"/>
<polygon fill="midnightblue" stroke="midnightblue" points="187.37,-117 197.37,-113.5 187.37,-110 187.37,-117"/>
</g>
<!-- Node6 -->
<g id="node6" class="node"><title>Node6</title>
<g id="a_node6"><a xlink:href="../../d1/d5e/classnars_1_1language_1_1Statement_ace4f80751d303c613e467163913bebf5.html#ace4f80751d303c613e467163913bebf5" target="_top" xlink:title="Return the first component of the statement. ">
<polygon fill="none" stroke="black" points="197.5,-49.5 197.5,-79.5 339.5,-79.5 339.5,-49.5 197.5,-49.5"/>
<text text-anchor="start" x="205.5" y="-67.5" font-family="Helvetica,sans-Serif" font-size="10.00">nars.language.Statement.get</text>
<text text-anchor="middle" x="268.5" y="-56.5" font-family="Helvetica,sans-Serif" font-size="10.00">Subject</text>
</a>
</g>
</g>
<!-- Node1&#45;&gt;Node6 -->
<g id="edge5" class="edge"><title>Node1&#45;&gt;Node6</title>
<path fill="none" stroke="midnightblue" d="M136.837,-98.4654C156.74,-93.2917 179.203,-87.4525 199.819,-82.0934"/>
<polygon fill="midnightblue" stroke="midnightblue" points="200.974,-85.4095 209.772,-79.5062 199.213,-78.6347 200.974,-85.4095"/>
</g>
<!-- Node7 -->
<g id="node7" class="node"><title>Node7</title>
<g id="a_node7"><a xlink:href="../../d1/d5e/classnars_1_1language_1_1Statement_ac56b558891dd2088e0b66b437780c7b7.html#ac56b558891dd2088e0b66b437780c7b7" target="_top" xlink:title="Default constructor. ">
<polygon fill="none" stroke="black" points="204.5,-0.5 204.5,-30.5 332.5,-30.5 332.5,-0.5 204.5,-0.5"/>
<text text-anchor="start" x="212.5" y="-18.5" font-family="Helvetica,sans-Serif" font-size="10.00">nars.language.Statement.</text>
<text text-anchor="middle" x="268.5" y="-7.5" font-family="Helvetica,sans-Serif" font-size="10.00">Statement</text>
</a>
</g>
</g>
<!-- Node1&#45;&gt;Node7 -->
<g id="edge6" class="edge"><title>Node1&#45;&gt;Node7</title>
<path fill="none" stroke="midnightblue" d="M98.9079,-98.403C120.795,-82.3514 157.455,-57.0456 192,-40.5 196.629,-38.2829 201.506,-36.1826 206.46,-34.2119"/>
<polygon fill="midnightblue" stroke="midnightblue" points="207.927,-37.3992 216.04,-30.5852 205.448,-30.8526 207.927,-37.3992"/>
</g>
<!-- Node4 -->
<g id="node4" class="node"><title>Node4</title>
<g id="a_node4"><a xlink:href="../../d8/db8/classnars_1_1language_1_1Term_a3aad4654016b8615fd4fa8a26668e1db.html#a3aad4654016b8615fd4fa8a26668e1db" target="_top" xlink:title="Reporting the name of the current Term. ">
<polygon fill="none" stroke="black" points="381,-148 381,-167 527,-167 527,-148 381,-148"/>
<text text-anchor="middle" x="454" y="-155" font-family="Helvetica,sans-Serif" font-size="10.00">nars.language.Term.getName</text>
</a>
</g>
</g>
<!-- Node3&#45;&gt;Node4 -->
<g id="edge3" class="edge"><title>Node3&#45;&gt;Node4</title>
<path fill="none" stroke="midnightblue" d="M335.748,-157.5C347.102,-157.5 359.022,-157.5 370.734,-157.5"/>
<polygon fill="midnightblue" stroke="midnightblue" points="370.953,-161 380.953,-157.5 370.953,-154 370.953,-161"/>
</g>
</g>
</svg>
