<?xml version="1.0" encoding="UTF-8" standalone="no"?>
<!DOCTYPE svg PUBLIC "-//W3C//DTD SVG 1.1//EN"
 "http://www.w3.org/Graphics/SVG/1.1/DTD/svg11.dtd">
<!-- Generated by graphviz version 2.38.0 (20140413.2041)
 -->
<!-- Title: nars.language.IntersectionInt.make Pages: 1 -->
<svg width="591pt" height="197pt"
 viewBox="0.00 0.00 591.00 196.50" xmlns="http://www.w3.org/2000/svg" xmlns:xlink="http://www.w3.org/1999/xlink">
<g id="graph0" class="graph" transform="scale(1 1) rotate(0) translate(4 192.5)">
<title>nars.language.IntersectionInt.make</title>
<!-- Node1 -->
<g id="node1" class="node"><title>Node1</title>
<polygon fill="#bfbfbf" stroke="black" points="0,-109 0,-139 131,-139 131,-109 0,-109"/>
<text text-anchor="start" x="8" y="-127" font-family="Helvetica,sans-Serif" font-size="10.00">nars.language.Intersection</text>
<text text-anchor="middle" x="65.5" y="-116" font-family="Helvetica,sans-Serif" font-size="10.00">Int.make</text>
</g>
<!-- Node2 -->
<g id="node2" class="node"><title>Node2</title>
<g id="a_node2"><a xlink:href="../../d9/df4/classnars_1_1language_1_1IntersectionInt_a1fe05869d25e8def81e18b5dee6908f4.html#a1fe05869d25e8def81e18b5dee6908f4" target="_top" xlink:title="Constructor with partial values, called by make. ">
<polygon fill="none" stroke="black" points="190,-158 190,-188 321,-188 321,-158 190,-158"/>
<text text-anchor="start" x="198" y="-176" font-family="Helvetica,sans-Serif" font-size="10.00">nars.language.Intersection</text>
<text text-anchor="middle" x="255.5" y="-165" font-family="Helvetica,sans-Serif" font-size="10.00">Int.IntersectionInt</text>
</a>
</g>
</g>
<!-- Node1&#45;&gt;Node2 -->
<g id="edge1" class="edge"><title>Node1&#45;&gt;Node2</title>
<path fill="none" stroke="midnightblue" d="M124.184,-139.035C144.034,-144.208 166.437,-150.048 186.999,-155.407"/>
<polygon fill="midnightblue" stroke="midnightblue" points="186.366,-158.858 196.925,-157.994 188.131,-152.085 186.366,-158.858"/>
</g>
<!-- Node3 -->
<g id="node3" class="node"><title>Node3</title>
<g id="a_node3"><a xlink:href="../../d0/dee/classnars_1_1language_1_1CompoundTerm_a8d1e610c509fa096c6b52eb5fe06d59b.html#a8d1e610c509fa096c6b52eb5fe06d59b" target="_top" xlink:title="default method to make the oldName of a compound term from given fields ">
<polygon fill="none" stroke="black" points="167,-109 167,-139 344,-139 344,-109 167,-109"/>
<text text-anchor="start" x="175" y="-127" font-family="Helvetica,sans-Serif" font-size="10.00">nars.language.CompoundTerm.make</text>
<text text-anchor="middle" x="255.5" y="-116" font-family="Helvetica,sans-Serif" font-size="10.00">CompoundName</text>
</a>
</g>
</g>
<!-- Node1&#45;&gt;Node3 -->
<g id="edge2" class="edge"><title>Node1&#45;&gt;Node3</title>
<path fill="none" stroke="midnightblue" d="M131.199,-124C139.444,-124 148.023,-124 156.645,-124"/>
<polygon fill="midnightblue" stroke="midnightblue" points="156.77,-127.5 166.77,-124 156.77,-120.5 156.77,-127.5"/>
</g>
<!-- Node6 -->
<g id="node6" class="node"><title>Node6</title>
<g id="a_node6"><a xlink:href="../../d8/df4/classnars_1_1storage_1_1Memory_a63058cc52d77412e0aead8387c23aa93.html#a63058cc52d77412e0aead8387c23aa93" target="_top" xlink:title="Get a Term for a given name of a Concept or Operator. ">
<polygon fill="none" stroke="black" points="187.5,-47 187.5,-77 323.5,-77 323.5,-47 187.5,-47"/>
<text text-anchor="start" x="195.5" y="-65" font-family="Helvetica,sans-Serif" font-size="10.00">nars.storage.Memory.name</text>
<text text-anchor="middle" x="255.5" y="-54" font-family="Helvetica,sans-Serif" font-size="10.00">ToListedTerm</text>
</a>
</g>
</g>
<!-- Node1&#45;&gt;Node6 -->
<g id="edge6" class="edge"><title>Node1&#45;&gt;Node6</title>
<path fill="none" stroke="midnightblue" d="M112.01,-108.992C138.256,-100.336 171.448,-89.3895 199.192,-80.2399"/>
<polygon fill="midnightblue" stroke="midnightblue" points="200.357,-83.5411 208.758,-77.0851 198.165,-76.8933 200.357,-83.5411"/>
</g>
<!-- Node4 -->
<g id="node4" class="node"><title>Node4</title>
<g id="a_node4"><a xlink:href="../../d0/dee/classnars_1_1language_1_1CompoundTerm_a89000afae8017231889aaa549292d1e0.html#a89000afae8017231889aaa549292d1e0" target="_top" xlink:title="Default constructor. ">
<polygon fill="none" stroke="black" points="405,-153 405,-183 558,-183 558,-153 405,-153"/>
<text text-anchor="start" x="413" y="-171" font-family="Helvetica,sans-Serif" font-size="10.00">nars.language.CompoundTerm.</text>
<text text-anchor="middle" x="481.5" y="-160" font-family="Helvetica,sans-Serif" font-size="10.00">CompoundTerm</text>
</a>
</g>
</g>
<!-- Node3&#45;&gt;Node4 -->
<g id="edge3" class="edge"><title>Node3&#45;&gt;Node4</title>
<path fill="none" stroke="midnightblue" d="M332.962,-139.019C352.893,-142.934 374.501,-147.179 394.873,-151.18"/>
<polygon fill="midnightblue" stroke="midnightblue" points="394.276,-154.63 404.763,-153.123 395.625,-147.761 394.276,-154.63"/>
</g>
<!-- Node5 -->
<g id="node5" class="node"><title>Node5</title>
<g id="a_node5"><a xlink:href="../../d0/dee/classnars_1_1language_1_1CompoundTerm_aa26a304f6249c185836d8fde8b8f17a8.html#aa26a304f6249c185836d8fde8b8f17a8" target="_top" xlink:title="default method to make the oldName of the current term from existing fields ">
<polygon fill="none" stroke="black" points="380,-114.5 380,-133.5 583,-133.5 583,-114.5 380,-114.5"/>
<text text-anchor="middle" x="481.5" y="-121.5" font-family="Helvetica,sans-Serif" font-size="10.00">nars.language.CompoundTerm.makeName</text>
</a>
</g>
</g>
<!-- Node3&#45;&gt;Node5 -->
<g id="edge4" class="edge"><title>Node3&#45;&gt;Node5</title>
<path fill="none" stroke="midnightblue" d="M344.067,-117.395C352.533,-117.293 361.196,-117.245 369.848,-117.25"/>
<polygon fill="midnightblue" stroke="midnightblue" points="369.976,-120.751 379.987,-117.282 369.998,-113.751 369.976,-120.751"/>
</g>
<!-- Node5&#45;&gt;Node3 -->
<g id="edge5" class="edge"><title>Node5&#45;&gt;Node3</title>
<path fill="none" stroke="midnightblue" d="M379.987,-130.718C371.375,-130.766 362.672,-130.76 354.083,-130.7"/>
<polygon fill="midnightblue" stroke="midnightblue" points="354.099,-127.2 344.067,-130.605 354.033,-134.2 354.099,-127.2"/>
</g>
<!-- Node7 -->
<g id="node7" class="node"><title>Node7</title>
<g id="a_node7"><a xlink:href="../../d8/df4/classnars_1_1storage_1_1Memory_a33af7b3d806d32c85390563fec3c6d27.html#a33af7b3d806d32c85390563fec3c6d27" target="_top" xlink:title="Concept bag. ">
<polygon fill="none" stroke="black" points="398,-76.5 398,-95.5 565,-95.5 565,-76.5 398,-76.5"/>
<text text-anchor="middle" x="481.5" y="-83.5" font-family="Helvetica,sans-Serif" font-size="10.00">nars.storage.Memory.getConcepts</text>
</a>
</g>
</g>
<!-- Node6&#45;&gt;Node7 -->
<g id="edge7" class="edge"><title>Node6&#45;&gt;Node7</title>
<path fill="none" stroke="midnightblue" d="M323.707,-69.2008C343.844,-71.3582 366.292,-73.7635 387.767,-76.0643"/>
<polygon fill="midnightblue" stroke="midnightblue" points="387.568,-79.5629 397.884,-77.1482 388.313,-72.6027 387.568,-79.5629"/>
</g>
<!-- Node8 -->
<g id="node8" class="node"><title>Node8</title>
<g id="a_node8"><a xlink:href="../../d9/d37/classnars_1_1storage_1_1Bag_a011b37fc683db7fb7b41e33712a37d92.html#a011b37fc683db7fb7b41e33712a37d92" target="_top" xlink:title="Get an Item by key. ">
<polygon fill="none" stroke="black" points="428,-38.5 428,-57.5 535,-57.5 535,-38.5 428,-38.5"/>
<text text-anchor="middle" x="481.5" y="-45.5" font-family="Helvetica,sans-Serif" font-size="10.00">nars.storage.Bag.get</text>
</a>
</g>
</g>
<!-- Node6&#45;&gt;Node8 -->
<g id="edge8" class="edge"><title>Node6&#45;&gt;Node8</title>
<path fill="none" stroke="midnightblue" d="M323.707,-57.7995C353.564,-55.9335 388.505,-53.7497 417.816,-51.9178"/>
<polygon fill="midnightblue" stroke="midnightblue" points="418.169,-55.4026 427.931,-51.2856 417.732,-48.4162 418.169,-55.4026"/>
</g>
<!-- Node9 -->
<g id="node9" class="node"><title>Node9</title>
<g id="a_node9"><a xlink:href="../../d4/d22/classnars_1_1entity_1_1Concept_afcd1217b7680b073fa51f0d0f159dcea.html#afcd1217b7680b073fa51f0d0f159dcea" target="_top" xlink:title="Return the associated term, called from Memory only. ">
<polygon fill="none" stroke="black" points="411,-0.5 411,-19.5 552,-19.5 552,-0.5 411,-0.5"/>
<text text-anchor="middle" x="481.5" y="-7.5" font-family="Helvetica,sans-Serif" font-size="10.00">nars.entity.Concept.getTerm</text>
</a>
</g>
</g>
<!-- Node6&#45;&gt;Node9 -->
<g id="edge9" class="edge"><title>Node6&#45;&gt;Node9</title>
<path fill="none" stroke="midnightblue" d="M309.476,-46.9192C331.235,-40.9667 356.738,-34.299 380,-29 391.632,-26.3501 404.082,-23.7824 416.117,-21.4363"/>
<polygon fill="midnightblue" stroke="midnightblue" points="416.942,-24.8421 426.103,-19.5208 415.623,-17.9675 416.942,-24.8421"/>
</g>
</g>
</svg>
