<?xml version="1.0" encoding="UTF-8" standalone="no"?>
<!DOCTYPE svg PUBLIC "-//W3C//DTD SVG 1.1//EN"
 "http://www.w3.org/Graphics/SVG/1.1/DTD/svg11.dtd">
<!-- Generated by graphviz version 2.38.0 (20140413.2041)
 -->
<!-- Title: nars.language.IntersectionInt.make Pages: 1 -->
<svg width="2536pt" height="127pt"
 viewBox="0.00 0.00 2536.00 126.50" xmlns="http://www.w3.org/2000/svg" xmlns:xlink="http://www.w3.org/1999/xlink">
<g id="graph0" class="graph" transform="scale(1 1) rotate(0) translate(4 122.5)">
<title>nars.language.IntersectionInt.make</title>
<!-- Node1 -->
<g id="node1" class="node"><title>Node1</title>
<polygon fill="#bfbfbf" stroke="black" points="0,-39 0,-69 131,-69 131,-39 0,-39"/>
<text text-anchor="start" x="8" y="-57" font-family="Helvetica,sans-Serif" font-size="10.00">nars.language.Intersection</text>
<text text-anchor="middle" x="65.5" y="-46" font-family="Helvetica,sans-Serif" font-size="10.00">Int.make</text>
</g>
<!-- Node2 -->
<g id="node2" class="node"><title>Node2</title>
<g id="a_node2"><a xlink:href="../../d8/d79/classnars_1_1inference_1_1CompositionalRules_a53f7edf7bfe7433da42e8fcf36fd6604.html#a53f7edf7bfe7433da42e8fcf36fd6604" target="_top" xlink:title="{&lt;S ==&gt; M&gt;, ">
<polygon fill="none" stroke="black" points="184,-88 184,-118 327,-118 327,-88 184,-88"/>
<text text-anchor="start" x="192" y="-106" font-family="Helvetica,sans-Serif" font-size="10.00">nars.inference.Compositional</text>
<text text-anchor="middle" x="255.5" y="-95" font-family="Helvetica,sans-Serif" font-size="10.00">Rules.composeCompound</text>
</a>
</g>
</g>
<!-- Node1&#45;&gt;Node2 -->
<g id="edge1" class="edge"><title>Node1&#45;&gt;Node2</title>
<path fill="none" stroke="midnightblue" d="M134.114,-71.6229C154.682,-76.9837 177.084,-82.8225 196.925,-87.9938"/>
<polygon fill="midnightblue" stroke="midnightblue" points="134.743,-68.17 124.184,-69.0346 132.978,-74.9437 134.743,-68.17"/>
</g>
<!-- Node14 -->
<g id="node14" class="node"><title>Node14</title>
<g id="a_node14"><a xlink:href="../../d9/df4/classnars_1_1language_1_1IntersectionInt_adce6ae326247099d6a0edbd14cb96f69.html#adce6ae326247099d6a0edbd14cb96f69" target="_top" xlink:title="Try to make a new IntersectionExt. ">
<polygon fill="none" stroke="black" points="190,-39 190,-69 321,-69 321,-39 190,-39"/>
<text text-anchor="start" x="198" y="-57" font-family="Helvetica,sans-Serif" font-size="10.00">nars.language.Intersection</text>
<text text-anchor="middle" x="255.5" y="-46" font-family="Helvetica,sans-Serif" font-size="10.00">Int.make</text>
</a>
</g>
</g>
<!-- Node1&#45;&gt;Node14 -->
<g id="edge13" class="edge"><title>Node1&#45;&gt;Node14</title>
<path fill="none" stroke="midnightblue" d="M141.54,-54C157.474,-54 174.167,-54 189.682,-54"/>
<polygon fill="midnightblue" stroke="midnightblue" points="141.199,-50.5001 131.199,-54 141.199,-57.5001 141.199,-50.5001"/>
</g>
<!-- Node15 -->
<g id="node15" class="node"><title>Node15</title>
<g id="a_node15"><a xlink:href="../../d0/dee/classnars_1_1language_1_1CompoundTerm_a80748e3181cffb66ac216637477507c3.html#a80748e3181cffb66ac216637477507c3" target="_top" xlink:title="Try to make a compound term from an operator and a list of components. ">
<polygon fill="none" stroke="black" points="167,-0.5 167,-19.5 344,-19.5 344,-0.5 167,-0.5"/>
<text text-anchor="middle" x="255.5" y="-7.5" font-family="Helvetica,sans-Serif" font-size="10.00">nars.language.CompoundTerm.make</text>
</a>
</g>
</g>
<!-- Node1&#45;&gt;Node15 -->
<g id="edge14" class="edge"><title>Node1&#45;&gt;Node15</title>
<path fill="none" stroke="midnightblue" d="M138.764,-36.6539C148.258,-34.4012 157.86,-32.1359 167,-30 181.719,-26.5605 197.846,-22.8561 212.201,-19.5813"/>
<polygon fill="midnightblue" stroke="midnightblue" points="137.853,-33.2729 128.934,-38.991 139.473,-40.083 137.853,-33.2729"/>
</g>
<!-- Node3 -->
<g id="node3" class="node"><title>Node3</title>
<g id="a_node3"><a xlink:href="../../da/de3/classnars_1_1inference_1_1RuleTables_a34927349efcf87db97d23c60983b115b.html#a34927349efcf87db97d23c60983b115b" target="_top" xlink:title="Syllogistic rules whose both premises are on the same asymmetric relation. ">
<polygon fill="none" stroke="black" points="380,-88 380,-118 565,-118 565,-88 380,-88"/>
<text text-anchor="start" x="388" y="-106" font-family="Helvetica,sans-Serif" font-size="10.00">nars.inference.RuleTables.asymmetric</text>
<text text-anchor="middle" x="472.5" y="-95" font-family="Helvetica,sans-Serif" font-size="10.00">Asymmetric</text>
</a>
</g>
</g>
<!-- Node2&#45;&gt;Node3 -->
<g id="edge2" class="edge"><title>Node2&#45;&gt;Node3</title>
<path fill="none" stroke="midnightblue" d="M337.567,-103C351.305,-103 365.657,-103 379.648,-103"/>
<polygon fill="midnightblue" stroke="midnightblue" points="337.197,-99.5001 327.197,-103 337.197,-106.5 337.197,-99.5001"/>
</g>
<!-- Node4 -->
<g id="node4" class="node"><title>Node4</title>
<g id="a_node4"><a xlink:href="../../da/de3/classnars_1_1inference_1_1RuleTables_a8628d400a8ceda7fea05039ddfea319b.html#a8628d400a8ceda7fea05039ddfea319b" target="_top" xlink:title="Meta&#45;table of syllogistic rules, indexed by the content classes of the taskSentence and the belief...">
<polygon fill="none" stroke="black" points="601,-93.5 601,-112.5 781,-112.5 781,-93.5 601,-93.5"/>
<text text-anchor="middle" x="691" y="-100.5" font-family="Helvetica,sans-Serif" font-size="10.00">nars.inference.RuleTables.syllogisms</text>
</a>
</g>
</g>
<!-- Node3&#45;&gt;Node4 -->
<g id="edge3" class="edge"><title>Node3&#45;&gt;Node4</title>
<path fill="none" stroke="midnightblue" d="M575.084,-103C583.705,-103 592.383,-103 600.898,-103"/>
<polygon fill="midnightblue" stroke="midnightblue" points="575.002,-99.5001 565.002,-103 575.002,-106.5 575.002,-99.5001"/>
</g>
<!-- Node5 -->
<g id="node5" class="node"><title>Node5</title>
<g id="a_node5"><a xlink:href="../../da/de3/classnars_1_1inference_1_1RuleTables_ac2d01dfdc40bdd47c757cb549217e6e3.html#ac2d01dfdc40bdd47c757cb549217e6e3" target="_top" xlink:title="Entry point of the inference engine. ">
<polygon fill="none" stroke="black" points="817,-93.5 817,-112.5 980,-112.5 980,-93.5 817,-93.5"/>
<text text-anchor="middle" x="898.5" y="-100.5" font-family="Helvetica,sans-Serif" font-size="10.00">nars.inference.RuleTables.reason</text>
</a>
</g>
</g>
<!-- Node4&#45;&gt;Node5 -->
<g id="edge4" class="edge"><title>Node4&#45;&gt;Node5</title>
<path fill="none" stroke="midnightblue" d="M791.244,-103C799.792,-103 808.372,-103 816.747,-103"/>
<polygon fill="midnightblue" stroke="midnightblue" points="791.239,-99.5001 781.239,-103 791.239,-106.5 791.239,-99.5001"/>
</g>
<!-- Node6 -->
<g id="node6" class="node"><title>Node6</title>
<g id="a_node6"><a xlink:href="../../d4/d22/classnars_1_1entity_1_1Concept_ae07576c8466ad65eeb61040e3f71cfc7.html#ae07576c8466ad65eeb61040e3f71cfc7" target="_top" xlink:title="An atomic step in a concept, only called in Memory# processConcept. ">
<polygon fill="none" stroke="black" points="1016,-93.5 1016,-112.5 1135,-112.5 1135,-93.5 1016,-93.5"/>
<text text-anchor="middle" x="1075.5" y="-100.5" font-family="Helvetica,sans-Serif" font-size="10.00">nars.entity.Concept.fire</text>
</a>
</g>
</g>
<!-- Node5&#45;&gt;Node6 -->
<g id="edge5" class="edge"><title>Node5&#45;&gt;Node6</title>
<path fill="none" stroke="midnightblue" d="M990.249,-103C998.907,-103 1007.52,-103 1015.76,-103"/>
<polygon fill="midnightblue" stroke="midnightblue" points="990.085,-99.5001 980.085,-103 990.085,-106.5 990.085,-99.5001"/>
</g>
<!-- Node7 -->
<g id="node7" class="node"><title>Node7</title>
<g id="a_node7"><a xlink:href="../../d8/df4/classnars_1_1storage_1_1Memory_a83154b55b922c82b73931d4f22e3a590.html#a83154b55b922c82b73931d4f22e3a590" target="_top" xlink:title="Select a concept to fire. ">
<polygon fill="none" stroke="black" points="1171,-88 1171,-118 1317,-118 1317,-88 1171,-88"/>
<text text-anchor="start" x="1179" y="-106" font-family="Helvetica,sans-Serif" font-size="10.00">nars.storage.Memory.process</text>
<text text-anchor="middle" x="1244" y="-95" font-family="Helvetica,sans-Serif" font-size="10.00">Concept</text>
</a>
</g>
</g>
<!-- Node6&#45;&gt;Node7 -->
<g id="edge6" class="edge"><title>Node6&#45;&gt;Node7</title>
<path fill="none" stroke="midnightblue" d="M1145.34,-103C1153.75,-103 1162.36,-103 1170.82,-103"/>
<polygon fill="midnightblue" stroke="midnightblue" points="1145.2,-99.5001 1135.2,-103 1145.2,-106.5 1145.2,-99.5001"/>
</g>
<!-- Node8 -->
<g id="node8" class="node"><title>Node8</title>
<g id="a_node8"><a xlink:href="../../d8/df4/classnars_1_1storage_1_1Memory_a49e2cbc8b78d535f4d69739886ee966a.html#a49e2cbc8b78d535f4d69739886ee966a" target="_top" xlink:title="An atomic working workCycle of the system: process new Tasks, then fire a concept. ">
<polygon fill="none" stroke="black" points="1353,-88 1353,-118 1486,-118 1486,-88 1353,-88"/>
<text text-anchor="start" x="1361" y="-106" font-family="Helvetica,sans-Serif" font-size="10.00">nars.storage.Memory.work</text>
<text text-anchor="middle" x="1419.5" y="-95" font-family="Helvetica,sans-Serif" font-size="10.00">Cycle</text>
</a>
</g>
</g>
<!-- Node7&#45;&gt;Node8 -->
<g id="edge7" class="edge"><title>Node7&#45;&gt;Node8</title>
<path fill="none" stroke="midnightblue" d="M1327.12,-103C1335.72,-103 1344.37,-103 1352.76,-103"/>
<polygon fill="midnightblue" stroke="midnightblue" points="1327.07,-99.5001 1317.07,-103 1327.07,-106.5 1327.07,-99.5001"/>
</g>
<!-- Node9 -->
<g id="node9" class="node"><title>Node9</title>
<g id="a_node9"><a xlink:href="../../dd/da5/classnars_1_1storage_1_1Memory_1_1ReasonerBatch_acc60dec23da774957a85362ed6d7448b.html#acc60dec23da774957a85362ed6d7448b" target="_top" xlink:title="nars.storage.Memory.Reasoner\lBatch.doTick">
<polygon fill="none" stroke="black" points="1522,-88 1522,-118 1676,-118 1676,-88 1522,-88"/>
<text text-anchor="start" x="1530" y="-106" font-family="Helvetica,sans-Serif" font-size="10.00">nars.storage.Memory.Reasoner</text>
<text text-anchor="middle" x="1599" y="-95" font-family="Helvetica,sans-Serif" font-size="10.00">Batch.doTick</text>
</a>
</g>
</g>
<!-- Node8&#45;&gt;Node9 -->
<g id="edge8" class="edge"><title>Node8&#45;&gt;Node9</title>
<path fill="none" stroke="midnightblue" d="M1496.32,-103C1504.79,-103 1513.41,-103 1521.89,-103"/>
<polygon fill="midnightblue" stroke="midnightblue" points="1496.09,-99.5001 1486.09,-103 1496.09,-106.5 1496.09,-99.5001"/>
</g>
<!-- Node10 -->
<g id="node10" class="node"><title>Node10</title>
<g id="a_node10"><a xlink:href="../../dd/da5/classnars_1_1storage_1_1Memory_1_1ReasonerBatch_aed591f05899b98fd9e4ad01836ad0a40.html#aed591f05899b98fd9e4ad01836ad0a40" target="_top" xlink:title="A clock tick. ">
<polygon fill="none" stroke="black" points="1712,-88 1712,-118 1866,-118 1866,-88 1712,-88"/>
<text text-anchor="start" x="1720" y="-106" font-family="Helvetica,sans-Serif" font-size="10.00">nars.storage.Memory.Reasoner</text>
<text text-anchor="middle" x="1789" y="-95" font-family="Helvetica,sans-Serif" font-size="10.00">Batch.tick</text>
</a>
</g>
</g>
<!-- Node9&#45;&gt;Node10 -->
<g id="edge9" class="edge"><title>Node9&#45;&gt;Node10</title>
<path fill="none" stroke="midnightblue" d="M1686.42,-103C1694.86,-103 1703.37,-103 1711.7,-103"/>
<polygon fill="midnightblue" stroke="midnightblue" points="1686.2,-99.5001 1676.2,-103 1686.2,-106.5 1686.2,-99.5001"/>
</g>
<!-- Node11 -->
<g id="node11" class="node"><title>Node11</title>
<g id="a_node11"><a xlink:href="../../d4/d88/classnars_1_1storage_1_1Memory_1_1NARSBatch_aad99db6cedde9cff2a997db8906ff821.html#aad99db6cedde9cff2a997db8906ff821" target="_top" xlink:title="Run to completion: repeatedly execute NARS working cycle, until Inputs are Finished, or 1000 steps. ">
<polygon fill="none" stroke="black" points="1902,-93.5 1902,-112.5 2084,-112.5 2084,-93.5 1902,-93.5"/>
<text text-anchor="middle" x="1993" y="-100.5" font-family="Helvetica,sans-Serif" font-size="10.00">nars.storage.Memory.NARSBatch.run</text>
</a>
</g>
</g>
<!-- Node10&#45;&gt;Node11 -->
<g id="edge10" class="edge"><title>Node10&#45;&gt;Node11</title>
<path fill="none" stroke="midnightblue" d="M1876.27,-103C1884.69,-103 1893.25,-103 1901.71,-103"/>
<polygon fill="midnightblue" stroke="midnightblue" points="1876.08,-99.5001 1866.08,-103 1876.08,-106.5 1876.08,-99.5001"/>
</g>
<!-- Node12 -->
<g id="node12" class="node"><title>Node12</title>
<g id="a_node12"><a xlink:href="../../d4/d88/classnars_1_1storage_1_1Memory_1_1NARSBatch_a416c39463faa161661ed1d12fea03b3c.html#a416c39463faa161661ed1d12fea03b3c" target="_top" xlink:title="non&#45;static equivalent to main(String[]) : run to completion from an input file ">
<polygon fill="none" stroke="black" points="2120,-88 2120,-118 2302,-118 2302,-88 2120,-88"/>
<text text-anchor="start" x="2128" y="-106" font-family="Helvetica,sans-Serif" font-size="10.00">nars.storage.Memory.NARSBatch.run</text>
<text text-anchor="middle" x="2211" y="-95" font-family="Helvetica,sans-Serif" font-size="10.00">Inference</text>
</a>
</g>
</g>
<!-- Node11&#45;&gt;Node12 -->
<g id="edge11" class="edge"><title>Node11&#45;&gt;Node12</title>
<path fill="none" stroke="midnightblue" d="M2094.06,-103C2102.63,-103 2111.27,-103 2119.76,-103"/>
<polygon fill="midnightblue" stroke="midnightblue" points="2094.04,-99.5001 2084.04,-103 2094.04,-106.5 2094.04,-99.5001"/>
</g>
<!-- Node13 -->
<g id="node13" class="node"><title>Node13</title>
<g id="a_node13"><a xlink:href="../../d4/d88/classnars_1_1storage_1_1Memory_1_1NARSBatch_aa97fcd68270583e60e6bf1b4579d1bdc.html#aa97fcd68270583e60e6bf1b4579d1bdc" target="_top" xlink:title="The entry point of the standalone application. ">
<polygon fill="none" stroke="black" points="2338,-93.5 2338,-112.5 2528,-112.5 2528,-93.5 2338,-93.5"/>
<text text-anchor="middle" x="2433" y="-100.5" font-family="Helvetica,sans-Serif" font-size="10.00">nars.storage.Memory.NARSBatch.main</text>
</a>
</g>
</g>
<!-- Node12&#45;&gt;Node13 -->
<g id="edge12" class="edge"><title>Node12&#45;&gt;Node13</title>
<path fill="none" stroke="midnightblue" d="M2312.37,-103C2320.82,-103 2329.34,-103 2337.74,-103"/>
<polygon fill="midnightblue" stroke="midnightblue" points="2312.12,-99.5001 2302.12,-103 2312.12,-106.5 2312.12,-99.5001"/>
</g>
</g>
</svg>
