<?xml version="1.0" encoding="UTF-8" standalone="no"?>
<!DOCTYPE svg PUBLIC "-//W3C//DTD SVG 1.1//EN"
 "http://www.w3.org/Graphics/SVG/1.1/DTD/svg11.dtd">
<!-- Generated by graphviz version 2.38.0 (20140413.2041)
 -->
<!-- Title: nars.language.ImageExt.ImageExt Pages: 1 -->
<svg width="360pt" height="66pt"
 viewBox="0.00 0.00 360.00 66.00" xmlns="http://www.w3.org/2000/svg" xmlns:xlink="http://www.w3.org/1999/xlink">
<g id="graph0" class="graph" transform="scale(1 1) rotate(0) translate(4 62)">
<title>nars.language.ImageExt.ImageExt</title>
<!-- Node1 -->
<g id="node1" class="node"><title>Node1</title>
<polygon fill="#bfbfbf" stroke="black" points="0,-19.5 0,-38.5 167,-38.5 167,-19.5 0,-19.5"/>
<text text-anchor="middle" x="83.5" y="-26.5" font-family="Helvetica,sans-Serif" font-size="10.00">nars.language.ImageExt.ImageExt</text>
</g>
<!-- Node2 -->
<g id="node2" class="node"><title>Node2</title>
<g id="a_node2"><a xlink:href="../../db/dbb/classnars_1_1language_1_1ImageExt_ac5fdab0792feb897ec29059f1f7f4b03.html#ac5fdab0792feb897ec29059f1f7f4b03" target="_top" xlink:title="Clone an object. ">
<polygon fill="none" stroke="black" points="203,-38.5 203,-57.5 352,-57.5 352,-38.5 203,-38.5"/>
<text text-anchor="middle" x="277.5" y="-45.5" font-family="Helvetica,sans-Serif" font-size="10.00">nars.language.ImageExt.clone</text>
</a>
</g>
</g>
<!-- Node1&#45;&gt;Node2 -->
<g id="edge1" class="edge"><title>Node1&#45;&gt;Node2</title>
<path fill="none" stroke="midnightblue" d="M177.123,-38.1658C185.741,-39.0187 194.396,-39.8751 202.808,-40.7076"/>
<polygon fill="midnightblue" stroke="midnightblue" points="177.336,-34.6699 167.04,-37.168 176.646,-41.6358 177.336,-34.6699"/>
</g>
<!-- Node3 -->
<g id="node3" class="node"><title>Node3</title>
<g id="a_node3"><a xlink:href="../../db/dbb/classnars_1_1language_1_1ImageExt_a1193c5f5c8a2c4a13736c501c4699d6c.html#a1193c5f5c8a2c4a13736c501c4699d6c" target="_top" xlink:title="Try to make a new compound from a set of components. ">
<polygon fill="none" stroke="black" points="203,-0.5 203,-19.5 352,-19.5 352,-0.5 203,-0.5"/>
<text text-anchor="middle" x="277.5" y="-7.5" font-family="Helvetica,sans-Serif" font-size="10.00">nars.language.ImageExt.make</text>
</a>
</g>
</g>
<!-- Node1&#45;&gt;Node3 -->
<g id="edge2" class="edge"><title>Node1&#45;&gt;Node3</title>
<path fill="none" stroke="midnightblue" d="M177.123,-19.8342C185.741,-18.9813 194.396,-18.1249 202.808,-17.2924"/>
<polygon fill="midnightblue" stroke="midnightblue" points="176.646,-16.3642 167.04,-20.832 177.336,-23.3301 176.646,-16.3642"/>
</g>
</g>
</svg>
