<?xml version="1.0" encoding="UTF-8" standalone="no"?>
<!DOCTYPE svg PUBLIC "-//W3C//DTD SVG 1.1//EN"
 "http://www.w3.org/Graphics/SVG/1.1/DTD/svg11.dtd">
<!-- Generated by graphviz version 2.38.0 (20140413.2041)
 -->
<!-- Title: nars.language.ImageExt.getRelationIndex Pages: 1 -->
<svg width="2510pt" height="137pt"
 viewBox="0.00 0.00 2510.00 137.00" xmlns="http://www.w3.org/2000/svg" xmlns:xlink="http://www.w3.org/1999/xlink">
<g id="graph0" class="graph" transform="scale(1 1) rotate(0) translate(4 133)">
<title>nars.language.ImageExt.getRelationIndex</title>
<!-- Node1 -->
<g id="node1" class="node"><title>Node1</title>
<polygon fill="#bfbfbf" stroke="black" points="0,-49.5 0,-79.5 139,-79.5 139,-49.5 0,-49.5"/>
<text text-anchor="start" x="8" y="-67.5" font-family="Helvetica,sans-Serif" font-size="10.00">nars.language.ImageExt.get</text>
<text text-anchor="middle" x="69.5" y="-56.5" font-family="Helvetica,sans-Serif" font-size="10.00">RelationIndex</text>
</g>
<!-- Node2 -->
<g id="node2" class="node"><title>Node2</title>
<g id="a_node2"><a xlink:href="../../db/dbb/classnars_1_1language_1_1ImageExt_aa49c9a61983fc564650538a95fd65883.html#aa49c9a61983fc564650538a95fd65883" target="_top" xlink:title="Try to make an Image from an existing Image and a component. ">
<polygon fill="none" stroke="black" points="175,-99 175,-118 324,-118 324,-99 175,-99"/>
<text text-anchor="middle" x="249.5" y="-106" font-family="Helvetica,sans-Serif" font-size="10.00">nars.language.ImageExt.make</text>
</a>
</g>
</g>
<!-- Node1&#45;&gt;Node2 -->
<g id="edge1" class="edge"><title>Node1&#45;&gt;Node2</title>
<path fill="none" stroke="midnightblue" d="M141.191,-81.9741C164.663,-87.7763 189.912,-94.0176 210.018,-98.9876"/>
<polygon fill="midnightblue" stroke="midnightblue" points="141.807,-78.5213 131.26,-79.5192 140.128,-85.3167 141.807,-78.5213"/>
</g>
<!-- Node3 -->
<g id="node3" class="node"><title>Node3</title>
<g id="a_node3"><a xlink:href="../../db/d49/classnars_1_1inference_1_1StructuralRules_a9153919870a10912311c0a865850e753.html#a9153919870a10912311c0a865850e753" target="_top" xlink:title="List the cases where the direction of inheritance is revised in conclusion. ">
<polygon fill="none" stroke="black" points="188,-49.5 188,-79.5 311,-79.5 311,-49.5 188,-49.5"/>
<text text-anchor="start" x="196" y="-67.5" font-family="Helvetica,sans-Serif" font-size="10.00">nars.inference.Structural</text>
<text text-anchor="middle" x="249.5" y="-56.5" font-family="Helvetica,sans-Serif" font-size="10.00">Rules.switchOrder</text>
</a>
</g>
</g>
<!-- Node1&#45;&gt;Node3 -->
<g id="edge2" class="edge"><title>Node1&#45;&gt;Node3</title>
<path fill="none" stroke="midnightblue" d="M149.333,-64.5C162.24,-64.5 175.436,-64.5 187.816,-64.5"/>
<polygon fill="midnightblue" stroke="midnightblue" points="149.065,-61.0001 139.065,-64.5 149.065,-68.0001 149.065,-61.0001"/>
</g>
<!-- Node17 -->
<g id="node17" class="node"><title>Node17</title>
<g id="a_node17"><a xlink:href="../../db/d49/classnars_1_1inference_1_1StructuralRules_ad34f61108459aea34b27a7547ac4ba48.html#ad34f61108459aea34b27a7547ac4ba48" target="_top" xlink:title="Equivalent transformation between products and images when the predicate is a compound {&lt;(*...">
<polygon fill="none" stroke="black" points="363,-0.5 363,-30.5 500,-30.5 500,-0.5 363,-0.5"/>
<text text-anchor="start" x="371" y="-18.5" font-family="Helvetica,sans-Serif" font-size="10.00">nars.inference.Structural</text>
<text text-anchor="middle" x="431.5" y="-7.5" font-family="Helvetica,sans-Serif" font-size="10.00">Rules.transformPredicatePI</text>
</a>
</g>
</g>
<!-- Node1&#45;&gt;Node17 -->
<g id="edge17" class="edge"><title>Node1&#45;&gt;Node17</title>
<path fill="none" stroke="midnightblue" d="M136.85,-47.1418C149.455,-44.2671 162.584,-41.5577 175,-39.5 238.293,-29.0103 311.223,-22.7278 362.922,-19.2383"/>
<polygon fill="midnightblue" stroke="midnightblue" points="135.818,-43.7886 126.878,-49.4734 137.412,-50.6048 135.818,-43.7886"/>
</g>
<!-- Node4 -->
<g id="node4" class="node"><title>Node4</title>
<g id="a_node4"><a xlink:href="../../db/d49/classnars_1_1inference_1_1StructuralRules_a7baceb5d0b1adc6005f24cf83bc88e01.html#a7baceb5d0b1adc6005f24cf83bc88e01" target="_top" xlink:title="{&lt;S &#45;&#45;&gt; P&gt;, S@(S&amp;T)} |&#45; &lt;(S&amp;T) –&gt; (P&amp;T)&gt; {&lt;S &#45;&#45;&gt; P&gt;, S@(M&#45;S)} |&#45; &lt;(M&#45;P) –&gt; (M&#45;S)&gt; ...">
<polygon fill="none" stroke="black" points="365,-98.5 365,-128.5 498,-128.5 498,-98.5 365,-98.5"/>
<text text-anchor="start" x="373" y="-116.5" font-family="Helvetica,sans-Serif" font-size="10.00">nars.inference.Structural</text>
<text text-anchor="middle" x="431.5" y="-105.5" font-family="Helvetica,sans-Serif" font-size="10.00">Rules.structuralCompose2</text>
</a>
</g>
</g>
<!-- Node3&#45;&gt;Node4 -->
<g id="edge3" class="edge"><title>Node3&#45;&gt;Node4</title>
<path fill="none" stroke="midnightblue" d="M315.698,-82.2485C335.207,-87.5591 356.402,-93.3288 375.208,-98.4484"/>
<polygon fill="midnightblue" stroke="midnightblue" points="316.543,-78.851 305.975,-79.6014 314.704,-85.6053 316.543,-78.851"/>
</g>
<!-- Node15 -->
<g id="node15" class="node"><title>Node15</title>
<g id="a_node15"><a xlink:href="../../db/d49/classnars_1_1inference_1_1StructuralRules_a38aabb9f3b3a70e03852da1e32ec665d.html#a38aabb9f3b3a70e03852da1e32ec665d" target="_top" xlink:title="{&lt;(S&amp;T) –&gt; (P&amp;T)&gt;, S@(S&amp;T)} |&#45; &lt;S &#45;&#45;&gt; P&gt; ">
<polygon fill="none" stroke="black" points="360,-49.5 360,-79.5 503,-79.5 503,-49.5 360,-49.5"/>
<text text-anchor="start" x="368" y="-67.5" font-family="Helvetica,sans-Serif" font-size="10.00">nars.inference.Structural</text>
<text text-anchor="middle" x="431.5" y="-56.5" font-family="Helvetica,sans-Serif" font-size="10.00">Rules.structuralDecompose2</text>
</a>
</g>
</g>
<!-- Node3&#45;&gt;Node15 -->
<g id="edge14" class="edge"><title>Node3&#45;&gt;Node15</title>
<path fill="none" stroke="midnightblue" d="M321.226,-64.5C333.911,-64.5 347.132,-64.5 359.816,-64.5"/>
<polygon fill="midnightblue" stroke="midnightblue" points="321.189,-61.0001 311.189,-64.5 321.189,-68.0001 321.189,-61.0001"/>
</g>
<!-- Node5 -->
<g id="node5" class="node"><title>Node5</title>
<g id="a_node5"><a xlink:href="../../da/de3/classnars_1_1inference_1_1RuleTables_a8e422154fd8288d161435c3a53e44276.html#a8e422154fd8288d161435c3a53e44276" target="_top" xlink:title="Inference between a compound term and a statement. ">
<polygon fill="none" stroke="black" points="540.5,-98.5 540.5,-128.5 719.5,-128.5 719.5,-98.5 540.5,-98.5"/>
<text text-anchor="start" x="548.5" y="-116.5" font-family="Helvetica,sans-Serif" font-size="10.00">nars.inference.RuleTables.compound</text>
<text text-anchor="middle" x="630" y="-105.5" font-family="Helvetica,sans-Serif" font-size="10.00">AndStatement</text>
</a>
</g>
</g>
<!-- Node4&#45;&gt;Node5 -->
<g id="edge4" class="edge"><title>Node4&#45;&gt;Node5</title>
<path fill="none" stroke="midnightblue" d="M508.485,-113.5C518.9,-113.5 529.668,-113.5 540.287,-113.5"/>
<polygon fill="midnightblue" stroke="midnightblue" points="508.205,-110 498.205,-113.5 508.205,-117 508.205,-110"/>
</g>
<!-- Node6 -->
<g id="node6" class="node"><title>Node6</title>
<g id="a_node6"><a xlink:href="../../da/de3/classnars_1_1inference_1_1RuleTables_ac2d01dfdc40bdd47c757cb549217e6e3.html#ac2d01dfdc40bdd47c757cb549217e6e3" target="_top" xlink:title="Entry point of the inference engine. ">
<polygon fill="none" stroke="black" points="774,-55 774,-74 937,-74 937,-55 774,-55"/>
<text text-anchor="middle" x="855.5" y="-62" font-family="Helvetica,sans-Serif" font-size="10.00">nars.inference.RuleTables.reason</text>
</a>
</g>
</g>
<!-- Node5&#45;&gt;Node6 -->
<g id="edge5" class="edge"><title>Node5&#45;&gt;Node6</title>
<path fill="none" stroke="midnightblue" d="M709.524,-96.2844C743.611,-88.8112 782.235,-80.3433 811.041,-74.028"/>
<polygon fill="midnightblue" stroke="midnightblue" points="708.595,-92.905 699.576,-98.4654 710.094,-99.7426 708.595,-92.905"/>
</g>
<!-- Node7 -->
<g id="node7" class="node"><title>Node7</title>
<g id="a_node7"><a xlink:href="../../d4/d22/classnars_1_1entity_1_1Concept_ae07576c8466ad65eeb61040e3f71cfc7.html#ae07576c8466ad65eeb61040e3f71cfc7" target="_top" xlink:title="An atomic step in a concept, only called in Memory# processConcept. ">
<polygon fill="none" stroke="black" points="990,-33 990,-52 1109,-52 1109,-33 990,-33"/>
<text text-anchor="middle" x="1049.5" y="-40" font-family="Helvetica,sans-Serif" font-size="10.00">nars.entity.Concept.fire</text>
</a>
</g>
</g>
<!-- Node6&#45;&gt;Node7 -->
<g id="edge6" class="edge"><title>Node6&#45;&gt;Node7</title>
<path fill="none" stroke="midnightblue" d="M947.078,-54.1212C961.567,-52.4611 976.22,-50.782 989.714,-49.2359"/>
<polygon fill="midnightblue" stroke="midnightblue" points="946.627,-50.6499 937.091,-55.2656 947.424,-57.6044 946.627,-50.6499"/>
</g>
<!-- Node8 -->
<g id="node8" class="node"><title>Node8</title>
<g id="a_node8"><a xlink:href="../../d8/df4/classnars_1_1storage_1_1Memory_a83154b55b922c82b73931d4f22e3a590.html#a83154b55b922c82b73931d4f22e3a590" target="_top" xlink:title="Select a concept to fire. ">
<polygon fill="none" stroke="black" points="1145,-27.5 1145,-57.5 1291,-57.5 1291,-27.5 1145,-27.5"/>
<text text-anchor="start" x="1153" y="-45.5" font-family="Helvetica,sans-Serif" font-size="10.00">nars.storage.Memory.process</text>
<text text-anchor="middle" x="1218" y="-34.5" font-family="Helvetica,sans-Serif" font-size="10.00">Concept</text>
</a>
</g>
</g>
<!-- Node7&#45;&gt;Node8 -->
<g id="edge7" class="edge"><title>Node7&#45;&gt;Node8</title>
<path fill="none" stroke="midnightblue" d="M1119.34,-42.5C1127.75,-42.5 1136.36,-42.5 1144.82,-42.5"/>
<polygon fill="midnightblue" stroke="midnightblue" points="1119.2,-39.0001 1109.2,-42.5 1119.2,-46.0001 1119.2,-39.0001"/>
</g>
<!-- Node9 -->
<g id="node9" class="node"><title>Node9</title>
<g id="a_node9"><a xlink:href="../../d8/df4/classnars_1_1storage_1_1Memory_a49e2cbc8b78d535f4d69739886ee966a.html#a49e2cbc8b78d535f4d69739886ee966a" target="_top" xlink:title="An atomic working workCycle of the system: process new Tasks, then fire a concept. ">
<polygon fill="none" stroke="black" points="1327,-27.5 1327,-57.5 1460,-57.5 1460,-27.5 1327,-27.5"/>
<text text-anchor="start" x="1335" y="-45.5" font-family="Helvetica,sans-Serif" font-size="10.00">nars.storage.Memory.work</text>
<text text-anchor="middle" x="1393.5" y="-34.5" font-family="Helvetica,sans-Serif" font-size="10.00">Cycle</text>
</a>
</g>
</g>
<!-- Node8&#45;&gt;Node9 -->
<g id="edge8" class="edge"><title>Node8&#45;&gt;Node9</title>
<path fill="none" stroke="midnightblue" d="M1301.12,-42.5C1309.72,-42.5 1318.37,-42.5 1326.76,-42.5"/>
<polygon fill="midnightblue" stroke="midnightblue" points="1301.07,-39.0001 1291.07,-42.5 1301.07,-46.0001 1301.07,-39.0001"/>
</g>
<!-- Node10 -->
<g id="node10" class="node"><title>Node10</title>
<g id="a_node10"><a xlink:href="../../dd/da5/classnars_1_1storage_1_1Memory_1_1ReasonerBatch_acc60dec23da774957a85362ed6d7448b.html#acc60dec23da774957a85362ed6d7448b" target="_top" xlink:title="nars.storage.Memory.Reasoner\lBatch.doTick">
<polygon fill="none" stroke="black" points="1496,-27.5 1496,-57.5 1650,-57.5 1650,-27.5 1496,-27.5"/>
<text text-anchor="start" x="1504" y="-45.5" font-family="Helvetica,sans-Serif" font-size="10.00">nars.storage.Memory.Reasoner</text>
<text text-anchor="middle" x="1573" y="-34.5" font-family="Helvetica,sans-Serif" font-size="10.00">Batch.doTick</text>
</a>
</g>
</g>
<!-- Node9&#45;&gt;Node10 -->
<g id="edge9" class="edge"><title>Node9&#45;&gt;Node10</title>
<path fill="none" stroke="midnightblue" d="M1470.32,-42.5C1478.79,-42.5 1487.41,-42.5 1495.89,-42.5"/>
<polygon fill="midnightblue" stroke="midnightblue" points="1470.09,-39.0001 1460.09,-42.5 1470.09,-46.0001 1470.09,-39.0001"/>
</g>
<!-- Node11 -->
<g id="node11" class="node"><title>Node11</title>
<g id="a_node11"><a xlink:href="../../dd/da5/classnars_1_1storage_1_1Memory_1_1ReasonerBatch_aed591f05899b98fd9e4ad01836ad0a40.html#aed591f05899b98fd9e4ad01836ad0a40" target="_top" xlink:title="A clock tick. ">
<polygon fill="none" stroke="black" points="1686,-27.5 1686,-57.5 1840,-57.5 1840,-27.5 1686,-27.5"/>
<text text-anchor="start" x="1694" y="-45.5" font-family="Helvetica,sans-Serif" font-size="10.00">nars.storage.Memory.Reasoner</text>
<text text-anchor="middle" x="1763" y="-34.5" font-family="Helvetica,sans-Serif" font-size="10.00">Batch.tick</text>
</a>
</g>
</g>
<!-- Node10&#45;&gt;Node11 -->
<g id="edge10" class="edge"><title>Node10&#45;&gt;Node11</title>
<path fill="none" stroke="midnightblue" d="M1660.42,-42.5C1668.86,-42.5 1677.37,-42.5 1685.7,-42.5"/>
<polygon fill="midnightblue" stroke="midnightblue" points="1660.2,-39.0001 1650.2,-42.5 1660.2,-46.0001 1660.2,-39.0001"/>
</g>
<!-- Node12 -->
<g id="node12" class="node"><title>Node12</title>
<g id="a_node12"><a xlink:href="../../d4/d88/classnars_1_1storage_1_1Memory_1_1NARSBatch_aad99db6cedde9cff2a997db8906ff821.html#aad99db6cedde9cff2a997db8906ff821" target="_top" xlink:title="Run to completion: repeatedly execute NARS working cycle, until Inputs are Finished, or 1000 steps. ">
<polygon fill="none" stroke="black" points="1876,-33 1876,-52 2058,-52 2058,-33 1876,-33"/>
<text text-anchor="middle" x="1967" y="-40" font-family="Helvetica,sans-Serif" font-size="10.00">nars.storage.Memory.NARSBatch.run</text>
</a>
</g>
</g>
<!-- Node11&#45;&gt;Node12 -->
<g id="edge11" class="edge"><title>Node11&#45;&gt;Node12</title>
<path fill="none" stroke="midnightblue" d="M1850.27,-42.5C1858.69,-42.5 1867.25,-42.5 1875.71,-42.5"/>
<polygon fill="midnightblue" stroke="midnightblue" points="1850.08,-39.0001 1840.08,-42.5 1850.08,-46.0001 1850.08,-39.0001"/>
</g>
<!-- Node13 -->
<g id="node13" class="node"><title>Node13</title>
<g id="a_node13"><a xlink:href="../../d4/d88/classnars_1_1storage_1_1Memory_1_1NARSBatch_a416c39463faa161661ed1d12fea03b3c.html#a416c39463faa161661ed1d12fea03b3c" target="_top" xlink:title="non&#45;static equivalent to main(String[]) : run to completion from an input file ">
<polygon fill="none" stroke="black" points="2094,-27.5 2094,-57.5 2276,-57.5 2276,-27.5 2094,-27.5"/>
<text text-anchor="start" x="2102" y="-45.5" font-family="Helvetica,sans-Serif" font-size="10.00">nars.storage.Memory.NARSBatch.run</text>
<text text-anchor="middle" x="2185" y="-34.5" font-family="Helvetica,sans-Serif" font-size="10.00">Inference</text>
</a>
</g>
</g>
<!-- Node12&#45;&gt;Node13 -->
<g id="edge12" class="edge"><title>Node12&#45;&gt;Node13</title>
<path fill="none" stroke="midnightblue" d="M2068.06,-42.5C2076.63,-42.5 2085.27,-42.5 2093.76,-42.5"/>
<polygon fill="midnightblue" stroke="midnightblue" points="2068.04,-39.0001 2058.04,-42.5 2068.04,-46.0001 2068.04,-39.0001"/>
</g>
<!-- Node14 -->
<g id="node14" class="node"><title>Node14</title>
<g id="a_node14"><a xlink:href="../../d4/d88/classnars_1_1storage_1_1Memory_1_1NARSBatch_aa97fcd68270583e60e6bf1b4579d1bdc.html#aa97fcd68270583e60e6bf1b4579d1bdc" target="_top" xlink:title="The entry point of the standalone application. ">
<polygon fill="none" stroke="black" points="2312,-33 2312,-52 2502,-52 2502,-33 2312,-33"/>
<text text-anchor="middle" x="2407" y="-40" font-family="Helvetica,sans-Serif" font-size="10.00">nars.storage.Memory.NARSBatch.main</text>
</a>
</g>
</g>
<!-- Node13&#45;&gt;Node14 -->
<g id="edge13" class="edge"><title>Node13&#45;&gt;Node14</title>
<path fill="none" stroke="midnightblue" d="M2286.37,-42.5C2294.82,-42.5 2303.34,-42.5 2311.74,-42.5"/>
<polygon fill="midnightblue" stroke="midnightblue" points="2286.12,-39.0001 2276.12,-42.5 2286.12,-46.0001 2286.12,-39.0001"/>
</g>
<!-- Node16 -->
<g id="node16" class="node"><title>Node16</title>
<g id="a_node16"><a xlink:href="../../da/de3/classnars_1_1inference_1_1RuleTables_a274b39b31e00ef27ae6baeaad3894a6a.html#a274b39b31e00ef27ae6baeaad3894a6a" target="_top" xlink:title="Inference between a component term (of the current term) and a statement. ">
<polygon fill="none" stroke="black" points="539,-49.5 539,-79.5 721,-79.5 721,-49.5 539,-49.5"/>
<text text-anchor="start" x="547" y="-67.5" font-family="Helvetica,sans-Serif" font-size="10.00">nars.inference.RuleTables.component</text>
<text text-anchor="middle" x="630" y="-56.5" font-family="Helvetica,sans-Serif" font-size="10.00">AndStatement</text>
</a>
</g>
</g>
<!-- Node15&#45;&gt;Node16 -->
<g id="edge15" class="edge"><title>Node15&#45;&gt;Node16</title>
<path fill="none" stroke="midnightblue" d="M513.304,-64.5C521.702,-64.5 530.277,-64.5 538.771,-64.5"/>
<polygon fill="midnightblue" stroke="midnightblue" points="513.163,-61.0001 503.163,-64.5 513.163,-68.0001 513.163,-61.0001"/>
</g>
<!-- Node16&#45;&gt;Node6 -->
<g id="edge16" class="edge"><title>Node16&#45;&gt;Node6</title>
<path fill="none" stroke="midnightblue" d="M731.554,-64.5C745.765,-64.5 760.221,-64.5 773.989,-64.5"/>
<polygon fill="midnightblue" stroke="midnightblue" points="731.262,-61.0001 721.262,-64.5 731.262,-68.0001 731.262,-61.0001"/>
</g>
<!-- Node18 -->
<g id="node18" class="node"><title>Node18</title>
<g id="a_node18"><a xlink:href="../../db/d49/classnars_1_1inference_1_1StructuralRules_a6f7188931508f5b84e6de02301bf798d.html#a6f7188931508f5b84e6de02301bf798d" target="_top" xlink:title="Equivalent transformation between products and images {&lt;(*, S, M) –&gt; P&gt;, S@(*, S, M)} |&#45; &lt;S &#45;&#45;&gt; (/, P, _, M)&gt; {&lt;S &#45;&#45;&gt; (/, P, _, M)&gt;, P@(/, P, _, M)} |&#45; &lt;(*, S, M) –&gt; P&gt; {&lt;S &#45;&#45;&gt; (/, P, _, M)&gt;, M@(/, P, _, M)} |&#45; &lt;M &#45;&#45;&gt; (/, P, S, _)&gt; ">
<polygon fill="none" stroke="black" points="556.5,-0.5 556.5,-30.5 703.5,-30.5 703.5,-0.5 556.5,-0.5"/>
<text text-anchor="start" x="564.5" y="-18.5" font-family="Helvetica,sans-Serif" font-size="10.00">nars.inference.Structural</text>
<text text-anchor="middle" x="630" y="-7.5" font-family="Helvetica,sans-Serif" font-size="10.00">Rules.transformProductImage</text>
</a>
</g>
</g>
<!-- Node17&#45;&gt;Node18 -->
<g id="edge18" class="edge"><title>Node17&#45;&gt;Node18</title>
<path fill="none" stroke="midnightblue" d="M510.447,-15.5C525.538,-15.5 541.298,-15.5 556.217,-15.5"/>
<polygon fill="midnightblue" stroke="midnightblue" points="510.124,-12.0001 500.124,-15.5 510.124,-19.0001 510.124,-12.0001"/>
</g>
<!-- Node19 -->
<g id="node19" class="node"><title>Node19</title>
<g id="a_node19"><a xlink:href="../../da/de3/classnars_1_1inference_1_1RuleTables_a61c932b424464483bd80c783294ab446.html#a61c932b424464483bd80c783294ab446" target="_top" xlink:title="The TaskLink is of type TRANSFORM, and the conclusion is an equivalent transformation. ">
<polygon fill="none" stroke="black" points="757,-12 757,-31 954,-31 954,-12 757,-12"/>
<text text-anchor="middle" x="855.5" y="-19" font-family="Helvetica,sans-Serif" font-size="10.00">nars.inference.RuleTables.transformTask</text>
</a>
</g>
</g>
<!-- Node18&#45;&gt;Node19 -->
<g id="edge19" class="edge"><title>Node18&#45;&gt;Node19</title>
<path fill="none" stroke="midnightblue" d="M713.641,-17.7185C727.658,-18.0949 742.332,-18.4888 756.694,-18.8743"/>
<polygon fill="midnightblue" stroke="midnightblue" points="713.654,-14.2177 703.564,-17.448 713.466,-21.2152 713.654,-14.2177"/>
</g>
<!-- Node19&#45;&gt;Node7 -->
<g id="edge20" class="edge"><title>Node19&#45;&gt;Node7</title>
<path fill="none" stroke="midnightblue" d="M953.459,-32.1049C965.877,-33.4631 978.274,-34.819 989.818,-36.0816"/>
<polygon fill="midnightblue" stroke="midnightblue" points="953.833,-28.625 943.512,-31.0169 953.072,-35.5835 953.833,-28.625"/>
</g>
</g>
</svg>
