<?xml version="1.0" encoding="UTF-8" standalone="no"?>
<!DOCTYPE svg PUBLIC "-//W3C//DTD SVG 1.1//EN"
 "http://www.w3.org/Graphics/SVG/1.1/DTD/svg11.dtd">
<!-- Generated by graphviz version 2.38.0 (20140413.2041)
 -->
<!-- Title: nars.language.ImageExt.make Pages: 1 -->
<!--zoomable 154 -->
<svg id="main" version="1.1" xmlns="http://www.w3.org/2000/svg" xmlns:xlink="http://www.w3.org/1999/xlink" xml:space="preserve" onload="init(evt)">
<style type="text/css"><![CDATA[
.edge:hover path { stroke: red; }
.edge:hover polygon { stroke: red; fill: red; }
]]></style>
<script type="text/javascript"><![CDATA[
var edges = document.getElementsByTagName('g');
if (edges && edges.length) {
  for (var i=0;i<edges.length;i++) {
    if (edges[i].id.substr(0,4)=='edge') {
      edges[i].setAttribute('class','edge');
    }
  }
}
]]></script>
        <defs>
                <circle id="rim" cx="0" cy="0" r="7"/>
                <circle id="rim2" cx="0" cy="0" r="3.5"/>
                <g id="zoomPlus">
                        <use xlink:href="#rim" fill="#404040">
                                <set attributeName="fill" to="#808080" begin="zoomplus.mouseover" end="zoomplus.mouseout"/>
                        </use>
                        <path d="M-4,0h8M0,-4v8" fill="none" stroke="white" stroke-width="1.5" pointer-events="none"/>
                </g>
                <g id="zoomMin">
                        <use xlink:href="#rim" fill="#404040">
                                <set attributeName="fill" to="#808080" begin="zoomminus.mouseover" end="zoomminus.mouseout"/>
                        </use>
                        <path d="M-4,0h8" fill="none" stroke="white" stroke-width="1.5" pointer-events="none"/>
                </g>
                <g id="dirArrow">
                        <path fill="none" stroke="white" stroke-width="1.5" d="M0,-3.0v7 M-2.5,-0.5L0,-3.0L2.5,-0.5"/>
                </g>
               <g id="resetDef">
                       <use xlink:href="#rim2" fill="#404040">
                               <set attributeName="fill" to="#808080" begin="reset.mouseover" end="reset.mouseout"/>
                       </use>
               </g>
        </defs>

<script type="text/javascript">
var viewWidth = 2334;
var viewHeight = 154;
var sectionId = 'dynsection-0';
</script>
<script xlink:href="../../svgpan.js"/>
<svg id="graph" class="graph">
<g id="viewport">
<title>nars.language.ImageExt.make</title>
<!-- Node1 -->
<g id="node1" class="node"><title>Node1</title>
<polygon fill="#bfbfbf" stroke="black" points="0,-69 0,-88 149,-88 149,-69 0,-69"/>
<text text-anchor="middle" x="74.5" y="-76" font-family="Helvetica,sans-Serif" font-size="10.00">nars.language.ImageExt.make</text>
</g>
<!-- Node2 -->
<g id="node2" class="node"><title>Node2</title>
<g id="a_node2"><a xlink:href="../../db/dbb/classnars_1_1language_1_1ImageExt_ab4d0fff9b2a969b38bbdae6396174ac6.html#ab4d0fff9b2a969b38bbdae6396174ac6" target="_top" xlink:title="Try to make an Image from a Product and a relation. ">
<polygon fill="none" stroke="black" points="199,-126 199,-145 348,-145 348,-126 199,-126"/>
<text text-anchor="middle" x="273.5" y="-133" font-family="Helvetica,sans-Serif" font-size="10.00">nars.language.ImageExt.make</text>
</a>
</g>
</g>
<!-- Node1&#45;&gt;Node2 -->
<g id="edge1" class="edge"><title>Node1&#45;&gt;Node2</title>
<path fill="none" stroke="midnightblue" d="M110.067,-91.6924C131.45,-99.553 159.58,-109.357 185,-116.5 197.421,-119.99 210.986,-123.215 223.647,-125.978"/>
<polygon fill="midnightblue" stroke="midnightblue" points="111.046,-88.3224 100.453,-88.1223 108.609,-94.8846 111.046,-88.3224"/>
</g>
<!-- Node3 -->
<g id="node3" class="node"><title>Node3</title>
<g id="a_node3"><a xlink:href="../../d0/dee/classnars_1_1language_1_1CompoundTerm_a80748e3181cffb66ac216637477507c3.html#a80748e3181cffb66ac216637477507c3" target="_top" xlink:title="Try to make a compound term from an operator and a list of components. ">
<polygon fill="none" stroke="black" points="185,-88 185,-107 362,-107 362,-88 185,-88"/>
<text text-anchor="middle" x="273.5" y="-95" font-family="Helvetica,sans-Serif" font-size="10.00">nars.language.CompoundTerm.make</text>
</a>
</g>
</g>
<!-- Node1&#45;&gt;Node3 -->
<g id="edge2" class="edge"><title>Node1&#45;&gt;Node3</title>
<path fill="none" stroke="midnightblue" d="M159.105,-86.5634C167.671,-87.3896 176.391,-88.2306 184.998,-89.0607"/>
<polygon fill="midnightblue" stroke="midnightblue" points="159.426,-83.0782 149.136,-85.6019 158.753,-90.0459 159.426,-83.0782"/>
</g>
<!-- Node4 -->
<g id="node4" class="node"><title>Node4</title>
<g id="a_node4"><a xlink:href="../../db/d49/classnars_1_1inference_1_1StructuralRules_a6f7188931508f5b84e6de02301bf798d.html#a6f7188931508f5b84e6de02301bf798d" target="_top" xlink:title="Equivalent transformation between products and images {&lt;(*, S, M) –&gt; P&gt;, S@(*, S, M)} |&#45; &lt;S &#45;&#45;&gt; (/, P, _, M)&gt; {&lt;S &#45;&#45;&gt; (/, P, _, M)&gt;, P@(/, P, _, M)} |&#45; &lt;(*, S, M) –&gt; P&gt; {&lt;S &#45;&#45;&gt; (/, P, _, M)&gt;, M@(/, P, _, M)} |&#45; &lt;M &#45;&#45;&gt; (/, P, S, _)&gt; ">
<polygon fill="none" stroke="black" points="398,-22.5 398,-52.5 545,-52.5 545,-22.5 398,-22.5"/>
<text text-anchor="start" x="406" y="-40.5" font-family="Helvetica,sans-Serif" font-size="10.00">nars.inference.Structural</text>
<text text-anchor="middle" x="471.5" y="-29.5" font-family="Helvetica,sans-Serif" font-size="10.00">Rules.transformProductImage</text>
</a>
</g>
</g>
<!-- Node1&#45;&gt;Node4 -->
<g id="edge3" class="edge"><title>Node1&#45;&gt;Node4</title>
<path fill="none" stroke="midnightblue" d="M159.546,-69.7762C230.265,-62.4358 330.349,-52.0474 397.697,-45.0568"/>
<polygon fill="midnightblue" stroke="midnightblue" points="158.918,-66.3225 149.333,-70.8363 159.641,-73.2851 158.918,-66.3225"/>
</g>
<!-- Node14 -->
<g id="node14" class="node"><title>Node14</title>
<g id="a_node14"><a xlink:href="../../db/d49/classnars_1_1inference_1_1StructuralRules_a45ae086cf44c9f32cbe9a729f2419594.html#a45ae086cf44c9f32cbe9a729f2419594" target="_top" xlink:title="Equivalent transformation between products and images when the subject is a compound {&lt;(*...">
<polygon fill="none" stroke="black" points="209,-0.5 209,-30.5 338,-30.5 338,-0.5 209,-0.5"/>
<text text-anchor="start" x="217" y="-18.5" font-family="Helvetica,sans-Serif" font-size="10.00">nars.inference.Structural</text>
<text text-anchor="middle" x="273.5" y="-7.5" font-family="Helvetica,sans-Serif" font-size="10.00">Rules.transformSubjectPI</text>
</a>
</g>
</g>
<!-- Node1&#45;&gt;Node14 -->
<g id="edge13" class="edge"><title>Node1&#45;&gt;Node14</title>
<path fill="none" stroke="midnightblue" d="M115.268,-65.7825C147.085,-55.6073 191.783,-41.3132 225.392,-30.565"/>
<polygon fill="midnightblue" stroke="midnightblue" points="113.879,-62.5519 105.42,-68.9317 116.011,-69.2193 113.879,-62.5519"/>
</g>
<!-- Node5 -->
<g id="node5" class="node"><title>Node5</title>
<g id="a_node5"><a xlink:href="../../da/de3/classnars_1_1inference_1_1RuleTables_a61c932b424464483bd80c783294ab446.html#a61c932b424464483bd80c783294ab446" target="_top" xlink:title="The TaskLink is of type TRANSFORM, and the conclusion is an equivalent transformation. ">
<polygon fill="none" stroke="black" points="581,-28 581,-47 778,-47 778,-28 581,-28"/>
<text text-anchor="middle" x="679.5" y="-35" font-family="Helvetica,sans-Serif" font-size="10.00">nars.inference.RuleTables.transformTask</text>
</a>
</g>
</g>
<!-- Node4&#45;&gt;Node5 -->
<g id="edge4" class="edge"><title>Node4&#45;&gt;Node5</title>
<path fill="none" stroke="midnightblue" d="M555.298,-37.5C563.726,-37.5 572.341,-37.5 580.906,-37.5"/>
<polygon fill="midnightblue" stroke="midnightblue" points="555.128,-34.0001 545.128,-37.5 555.128,-41.0001 555.128,-34.0001"/>
</g>
<!-- Node6 -->
<g id="node6" class="node"><title>Node6</title>
<g id="a_node6"><a xlink:href="../../d4/d22/classnars_1_1entity_1_1Concept_ae07576c8466ad65eeb61040e3f71cfc7.html#ae07576c8466ad65eeb61040e3f71cfc7" target="_top" xlink:title="An atomic step in a concept, only called in Memory# processConcept. ">
<polygon fill="none" stroke="black" points="814,-28 814,-47 933,-47 933,-28 814,-28"/>
<text text-anchor="middle" x="873.5" y="-35" font-family="Helvetica,sans-Serif" font-size="10.00">nars.entity.Concept.fire</text>
</a>
</g>
</g>
<!-- Node5&#45;&gt;Node6 -->
<g id="edge5" class="edge"><title>Node5&#45;&gt;Node6</title>
<path fill="none" stroke="midnightblue" d="M788.194,-37.5C797.021,-37.5 805.714,-37.5 813.969,-37.5"/>
<polygon fill="midnightblue" stroke="midnightblue" points="788.187,-34.0001 778.187,-37.5 788.187,-41.0001 788.187,-34.0001"/>
</g>
<!-- Node7 -->
<g id="node7" class="node"><title>Node7</title>
<g id="a_node7"><a xlink:href="../../d8/df4/classnars_1_1storage_1_1Memory_a83154b55b922c82b73931d4f22e3a590.html#a83154b55b922c82b73931d4f22e3a590" target="_top" xlink:title="Select a concept to fire. ">
<polygon fill="none" stroke="black" points="969,-22.5 969,-52.5 1115,-52.5 1115,-22.5 969,-22.5"/>
<text text-anchor="start" x="977" y="-40.5" font-family="Helvetica,sans-Serif" font-size="10.00">nars.storage.Memory.process</text>
<text text-anchor="middle" x="1042" y="-29.5" font-family="Helvetica,sans-Serif" font-size="10.00">Concept</text>
</a>
</g>
</g>
<!-- Node6&#45;&gt;Node7 -->
<g id="edge6" class="edge"><title>Node6&#45;&gt;Node7</title>
<path fill="none" stroke="midnightblue" d="M943.337,-37.5C951.748,-37.5 960.361,-37.5 968.819,-37.5"/>
<polygon fill="midnightblue" stroke="midnightblue" points="943.202,-34.0001 933.202,-37.5 943.202,-41.0001 943.202,-34.0001"/>
</g>
<!-- Node8 -->
<g id="node8" class="node"><title>Node8</title>
<g id="a_node8"><a xlink:href="../../d8/df4/classnars_1_1storage_1_1Memory_a49e2cbc8b78d535f4d69739886ee966a.html#a49e2cbc8b78d535f4d69739886ee966a" target="_top" xlink:title="An atomic working workCycle of the system: process new Tasks, then fire a concept. ">
<polygon fill="none" stroke="black" points="1151,-22.5 1151,-52.5 1284,-52.5 1284,-22.5 1151,-22.5"/>
<text text-anchor="start" x="1159" y="-40.5" font-family="Helvetica,sans-Serif" font-size="10.00">nars.storage.Memory.work</text>
<text text-anchor="middle" x="1217.5" y="-29.5" font-family="Helvetica,sans-Serif" font-size="10.00">Cycle</text>
</a>
</g>
</g>
<!-- Node7&#45;&gt;Node8 -->
<g id="edge7" class="edge"><title>Node7&#45;&gt;Node8</title>
<path fill="none" stroke="midnightblue" d="M1125.12,-37.5C1133.72,-37.5 1142.37,-37.5 1150.76,-37.5"/>
<polygon fill="midnightblue" stroke="midnightblue" points="1125.07,-34.0001 1115.07,-37.5 1125.07,-41.0001 1125.07,-34.0001"/>
</g>
<!-- Node9 -->
<g id="node9" class="node"><title>Node9</title>
<g id="a_node9"><a xlink:href="../../dd/da5/classnars_1_1storage_1_1Memory_1_1ReasonerBatch_acc60dec23da774957a85362ed6d7448b.html#acc60dec23da774957a85362ed6d7448b" target="_top" xlink:title="nars.storage.Memory.Reasoner\lBatch.doTick">
<polygon fill="none" stroke="black" points="1320,-22.5 1320,-52.5 1474,-52.5 1474,-22.5 1320,-22.5"/>
<text text-anchor="start" x="1328" y="-40.5" font-family="Helvetica,sans-Serif" font-size="10.00">nars.storage.Memory.Reasoner</text>
<text text-anchor="middle" x="1397" y="-29.5" font-family="Helvetica,sans-Serif" font-size="10.00">Batch.doTick</text>
</a>
</g>
</g>
<!-- Node8&#45;&gt;Node9 -->
<g id="edge8" class="edge"><title>Node8&#45;&gt;Node9</title>
<path fill="none" stroke="midnightblue" d="M1294.32,-37.5C1302.79,-37.5 1311.41,-37.5 1319.89,-37.5"/>
<polygon fill="midnightblue" stroke="midnightblue" points="1294.09,-34.0001 1284.09,-37.5 1294.09,-41.0001 1294.09,-34.0001"/>
</g>
<!-- Node10 -->
<g id="node10" class="node"><title>Node10</title>
<g id="a_node10"><a xlink:href="../../dd/da5/classnars_1_1storage_1_1Memory_1_1ReasonerBatch_aed591f05899b98fd9e4ad01836ad0a40.html#aed591f05899b98fd9e4ad01836ad0a40" target="_top" xlink:title="A clock tick. ">
<polygon fill="none" stroke="black" points="1510,-22.5 1510,-52.5 1664,-52.5 1664,-22.5 1510,-22.5"/>
<text text-anchor="start" x="1518" y="-40.5" font-family="Helvetica,sans-Serif" font-size="10.00">nars.storage.Memory.Reasoner</text>
<text text-anchor="middle" x="1587" y="-29.5" font-family="Helvetica,sans-Serif" font-size="10.00">Batch.tick</text>
</a>
</g>
</g>
<!-- Node9&#45;&gt;Node10 -->
<g id="edge9" class="edge"><title>Node9&#45;&gt;Node10</title>
<path fill="none" stroke="midnightblue" d="M1484.42,-37.5C1492.86,-37.5 1501.37,-37.5 1509.7,-37.5"/>
<polygon fill="midnightblue" stroke="midnightblue" points="1484.2,-34.0001 1474.2,-37.5 1484.2,-41.0001 1484.2,-34.0001"/>
</g>
<!-- Node11 -->
<g id="node11" class="node"><title>Node11</title>
<g id="a_node11"><a xlink:href="../../d4/d88/classnars_1_1storage_1_1Memory_1_1NARSBatch_aad99db6cedde9cff2a997db8906ff821.html#aad99db6cedde9cff2a997db8906ff821" target="_top" xlink:title="Run to completion: repeatedly execute NARS working cycle, until Inputs are Finished, or 1000 steps. ">
<polygon fill="none" stroke="black" points="1700,-28 1700,-47 1882,-47 1882,-28 1700,-28"/>
<text text-anchor="middle" x="1791" y="-35" font-family="Helvetica,sans-Serif" font-size="10.00">nars.storage.Memory.NARSBatch.run</text>
</a>
</g>
</g>
<!-- Node10&#45;&gt;Node11 -->
<g id="edge10" class="edge"><title>Node10&#45;&gt;Node11</title>
<path fill="none" stroke="midnightblue" d="M1674.27,-37.5C1682.69,-37.5 1691.25,-37.5 1699.71,-37.5"/>
<polygon fill="midnightblue" stroke="midnightblue" points="1674.08,-34.0001 1664.08,-37.5 1674.08,-41.0001 1674.08,-34.0001"/>
</g>
<!-- Node12 -->
<g id="node12" class="node"><title>Node12</title>
<g id="a_node12"><a xlink:href="../../d4/d88/classnars_1_1storage_1_1Memory_1_1NARSBatch_a416c39463faa161661ed1d12fea03b3c.html#a416c39463faa161661ed1d12fea03b3c" target="_top" xlink:title="non&#45;static equivalent to main(String[]) : run to completion from an input file ">
<polygon fill="none" stroke="black" points="1918,-22.5 1918,-52.5 2100,-52.5 2100,-22.5 1918,-22.5"/>
<text text-anchor="start" x="1926" y="-40.5" font-family="Helvetica,sans-Serif" font-size="10.00">nars.storage.Memory.NARSBatch.run</text>
<text text-anchor="middle" x="2009" y="-29.5" font-family="Helvetica,sans-Serif" font-size="10.00">Inference</text>
</a>
</g>
</g>
<!-- Node11&#45;&gt;Node12 -->
<g id="edge11" class="edge"><title>Node11&#45;&gt;Node12</title>
<path fill="none" stroke="midnightblue" d="M1892.06,-37.5C1900.63,-37.5 1909.27,-37.5 1917.76,-37.5"/>
<polygon fill="midnightblue" stroke="midnightblue" points="1892.04,-34.0001 1882.04,-37.5 1892.04,-41.0001 1892.04,-34.0001"/>
</g>
<!-- Node13 -->
<g id="node13" class="node"><title>Node13</title>
<g id="a_node13"><a xlink:href="../../d4/d88/classnars_1_1storage_1_1Memory_1_1NARSBatch_aa97fcd68270583e60e6bf1b4579d1bdc.html#aa97fcd68270583e60e6bf1b4579d1bdc" target="_top" xlink:title="The entry point of the standalone application. ">
<polygon fill="none" stroke="black" points="2136,-28 2136,-47 2326,-47 2326,-28 2136,-28"/>
<text text-anchor="middle" x="2231" y="-35" font-family="Helvetica,sans-Serif" font-size="10.00">nars.storage.Memory.NARSBatch.main</text>
</a>
</g>
</g>
<!-- Node12&#45;&gt;Node13 -->
<g id="edge12" class="edge"><title>Node12&#45;&gt;Node13</title>
<path fill="none" stroke="midnightblue" d="M2110.37,-37.5C2118.82,-37.5 2127.34,-37.5 2135.74,-37.5"/>
<polygon fill="midnightblue" stroke="midnightblue" points="2110.12,-34.0001 2100.12,-37.5 2110.12,-41.0001 2110.12,-34.0001"/>
</g>
<!-- Node14&#45;&gt;Node4 -->
<g id="edge14" class="edge"><title>Node14&#45;&gt;Node4</title>
<path fill="none" stroke="midnightblue" d="M348.091,-23.7602C364.306,-25.5803 381.473,-27.5072 397.658,-29.3239"/>
<polygon fill="midnightblue" stroke="midnightblue" points="348.464,-20.2801 338.136,-22.6428 347.683,-27.2365 348.464,-20.2801"/>
</g>
</g>
</svg>
        <g id="navigator" transform="translate(0 0)" fill="#404254">
                <rect fill="#f2f5e9" fill-opacity="0.5" stroke="#606060" stroke-width=".5" x="0" y="0" width="60" height="60"/>
                <use id="zoomplus" xlink:href="#zoomPlus" x="17" y="9" onmousedown="handleZoom(evt,'in')"/>
                <use id="zoomminus" xlink:href="#zoomMin" x="42" y="9" onmousedown="handleZoom(evt,'out')"/>
                <use id="reset" xlink:href="#resetDef" x="30" y="36" onmousedown="handleReset()"/>
                <g id="arrowUp" xlink:href="#dirArrow" transform="translate(30 24)" onmousedown="handlePan(0,-1)">
                  <use xlink:href="#rim" fill="#404040">
                        <set attributeName="fill" to="#808080" begin="arrowUp.mouseover" end="arrowUp.mouseout"/>
                  </use>
                  <path fill="none" stroke="white" stroke-width="1.5" d="M0,-3.0v7 M-2.5,-0.5L0,-3.0L2.5,-0.5"/>
                </g>
                <g id="arrowRight" xlink:href="#dirArrow" transform="rotate(90) translate(36 -43)" onmousedown="handlePan(1,0)">
                  <use xlink:href="#rim" fill="#404040">
                        <set attributeName="fill" to="#808080" begin="arrowRight.mouseover" end="arrowRight.mouseout"/>
                  </use>
                  <path fill="none" stroke="white" stroke-width="1.5" d="M0,-3.0v7 M-2.5,-0.5L0,-3.0L2.5,-0.5"/>
                </g>
                <g id="arrowDown" xlink:href="#dirArrow" transform="rotate(180) translate(-30 -48)" onmousedown="handlePan(0,1)">
                  <use xlink:href="#rim" fill="#404040">
                        <set attributeName="fill" to="#808080" begin="arrowDown.mouseover" end="arrowDown.mouseout"/>
                  </use>
                  <path fill="none" stroke="white" stroke-width="1.5" d="M0,-3.0v7 M-2.5,-0.5L0,-3.0L2.5,-0.5"/>
                </g>
                <g id="arrowLeft" xlink:href="#dirArrow" transform="rotate(270) translate(-36 17)" onmousedown="handlePan(-1,0)">
                  <use xlink:href="#rim" fill="#404040">
                        <set attributeName="fill" to="#808080" begin="arrowLeft.mouseover" end="arrowLeft.mouseout"/>
                  </use>
                  <path fill="none" stroke="white" stroke-width="1.5" d="M0,-3.0v7 M-2.5,-0.5L0,-3.0L2.5,-0.5"/>
                </g>
        </g>
        <svg viewBox="0 0 15 15" width="100%" height="30px" preserveAspectRatio="xMaxYMin meet">
         <g id="arrow_out" transform="scale(0.3 0.3)">
          <a xlink:href="classnars_1_1language_1_1ImageExt_afb24af5cc6c098ad3f5d837fa383e69c_afb24af5cc6c098ad3f5d837fa383e69c_icgraph_org.svg" target="_base">
           <rect id="button" ry="5" rx="5" y="6" x="6" height="38" width="38"
                fill="#f2f5e9" fill-opacity="0.5" stroke="#606060" stroke-width="1.0"/>
           <path id="arrow"
             d="M 11.500037,31.436501 C 11.940474,20.09759 22.043105,11.32322 32.158766,21.979434 L 37.068811,17.246167 C 37.068811,17.246167 37.088388,32 37.088388,32 L 22.160133,31.978069 C 22.160133,31.978069 26.997745,27.140456 26.997745,27.140456 C 18.528582,18.264221 13.291696,25.230495 11.500037,31.436501 z"
             style="fill:#404040;"/>
          </a>
         </g>
        </svg>
</svg>
