<?xml version="1.0" encoding="UTF-8" standalone="no"?>
<!DOCTYPE svg PUBLIC "-//W3C//DTD SVG 1.1//EN"
 "http://www.w3.org/Graphics/SVG/1.1/DTD/svg11.dtd">
<!-- Generated by graphviz version 2.38.0 (20140413.2041)
 -->
<!-- Title: nars.language.ImageExt.make Pages: 1 -->
<svg width="844pt" height="192pt"
 viewBox="0.00 0.00 844.00 191.50" xmlns="http://www.w3.org/2000/svg" xmlns:xlink="http://www.w3.org/1999/xlink">
<g id="graph0" class="graph" transform="scale(1 1) rotate(0) translate(4 187.5)">
<title>nars.language.ImageExt.make</title>
<!-- Node1 -->
<g id="node1" class="node"><title>Node1</title>
<polygon fill="#bfbfbf" stroke="black" points="0,-76.5 0,-95.5 149,-95.5 149,-76.5 0,-76.5"/>
<text text-anchor="middle" x="74.5" y="-83.5" font-family="Helvetica,sans-Serif" font-size="10.00">nars.language.ImageExt.make</text>
</g>
<!-- Node2 -->
<g id="node2" class="node"><title>Node2</title>
<g id="a_node2"><a xlink:href="../../d0/dee/classnars_1_1language_1_1CompoundTerm_a5923e4b211c0c1e1e53b39ebed2c7be1.html#a5923e4b211c0c1e1e53b39ebed2c7be1" target="_top" xlink:title="Clone the component list. ">
<polygon fill="none" stroke="black" points="202.5,-153 202.5,-183 378.5,-183 378.5,-153 202.5,-153"/>
<text text-anchor="start" x="210.5" y="-171" font-family="Helvetica,sans-Serif" font-size="10.00">nars.language.CompoundTerm.clone</text>
<text text-anchor="middle" x="290.5" y="-160" font-family="Helvetica,sans-Serif" font-size="10.00">Components</text>
</a>
</g>
</g>
<!-- Node1&#45;&gt;Node2 -->
<g id="edge1" class="edge"><title>Node1&#45;&gt;Node2</title>
<path fill="none" stroke="midnightblue" d="M90.8973,-95.5676C111.596,-108.061 149.864,-129.88 185,-143 191.987,-145.609 199.34,-148.013 206.775,-150.212"/>
<polygon fill="midnightblue" stroke="midnightblue" points="205.997,-153.629 216.572,-152.985 207.903,-146.894 205.997,-153.629"/>
</g>
<!-- Node5 -->
<g id="node5" class="node"><title>Node5</title>
<g id="a_node5"><a xlink:href="../../d0/dee/classnars_1_1language_1_1CompoundTerm_acedae916705e9fa1669391a7d728b840.html#acedae916705e9fa1669391a7d728b840" target="_top" xlink:title="get a component by index ">
<polygon fill="none" stroke="black" points="185,-114.5 185,-133.5 396,-133.5 396,-114.5 185,-114.5"/>
<text text-anchor="middle" x="290.5" y="-121.5" font-family="Helvetica,sans-Serif" font-size="10.00">nars.language.CompoundTerm.componentAt</text>
</a>
</g>
</g>
<!-- Node1&#45;&gt;Node5 -->
<g id="edge4" class="edge"><title>Node1&#45;&gt;Node5</title>
<path fill="none" stroke="midnightblue" d="M129.225,-95.54C158.48,-100.735 194.869,-107.196 225.576,-112.649"/>
<polygon fill="midnightblue" stroke="midnightblue" points="225.295,-116.154 235.753,-114.456 226.519,-109.262 225.295,-116.154"/>
</g>
<!-- Node6 -->
<g id="node6" class="node"><title>Node6</title>
<g id="a_node6"><a xlink:href="../../d8/db8/classnars_1_1language_1_1Term_ad85f45a7858737445d5158801774ff5f.html#ad85f45a7858737445d5158801774ff5f" target="_top" xlink:title="Equal terms have identical name, though not necessarily the same reference. ">
<polygon fill="none" stroke="black" points="223.5,-76.5 223.5,-95.5 357.5,-95.5 357.5,-76.5 223.5,-76.5"/>
<text text-anchor="middle" x="290.5" y="-83.5" font-family="Helvetica,sans-Serif" font-size="10.00">nars.language.Term.equals</text>
</a>
</g>
</g>
<!-- Node1&#45;&gt;Node6 -->
<g id="edge5" class="edge"><title>Node1&#45;&gt;Node6</title>
<path fill="none" stroke="midnightblue" d="M149.147,-86C169.823,-86 192.346,-86 213.174,-86"/>
<polygon fill="midnightblue" stroke="midnightblue" points="213.248,-89.5001 223.248,-86 213.248,-82.5001 213.248,-89.5001"/>
</g>
<!-- Node8 -->
<g id="node8" class="node"><title>Node8</title>
<g id="a_node8"><a xlink:href="../../db/dbb/classnars_1_1language_1_1ImageExt_afb24af5cc6c098ad3f5d837fa383e69c.html#afb24af5cc6c098ad3f5d837fa383e69c" target="_top" xlink:title="Try to make a new ImageExt. ">
<polygon fill="none" stroke="black" points="216,-38.5 216,-57.5 365,-57.5 365,-38.5 216,-38.5"/>
<text text-anchor="middle" x="290.5" y="-45.5" font-family="Helvetica,sans-Serif" font-size="10.00">nars.language.ImageExt.make</text>
</a>
</g>
</g>
<!-- Node1&#45;&gt;Node8 -->
<g id="edge7" class="edge"><title>Node1&#45;&gt;Node8</title>
<path fill="none" stroke="midnightblue" d="M129.225,-76.46C158.48,-71.2652 194.869,-64.8037 225.576,-59.3511"/>
<polygon fill="midnightblue" stroke="midnightblue" points="226.519,-62.7384 235.753,-57.5439 225.295,-55.8462 226.519,-62.7384"/>
</g>
<!-- Node9 -->
<g id="node9" class="node"><title>Node9</title>
<g id="a_node9"><a xlink:href="../../d0/dee/classnars_1_1language_1_1CompoundTerm_ac81c5851f664320ddec435641f198b03.html#ac81c5851f664320ddec435641f198b03" target="_top" xlink:title="get the number of components ">
<polygon fill="none" stroke="black" points="205,-0.5 205,-19.5 376,-19.5 376,-0.5 205,-0.5"/>
<text text-anchor="middle" x="290.5" y="-7.5" font-family="Helvetica,sans-Serif" font-size="10.00">nars.language.CompoundTerm.size</text>
</a>
</g>
</g>
<!-- Node1&#45;&gt;Node9 -->
<g id="edge8" class="edge"><title>Node1&#45;&gt;Node9</title>
<path fill="none" stroke="midnightblue" d="M90.4419,-76.3597C110.94,-63.5785 149.314,-41.2194 185,-29 193.175,-26.2006 201.86,-23.7894 210.592,-21.7181"/>
<polygon fill="midnightblue" stroke="midnightblue" points="211.449,-25.1131 220.448,-19.5213 209.926,-18.2808 211.449,-25.1131"/>
</g>
<!-- Node3 -->
<g id="node3" class="node"><title>Node3</title>
<g id="a_node3"><a xlink:href="../../d0/dee/classnars_1_1language_1_1CompoundTerm_a4f199daa7588f86b81b0912a5e52dfe0.html#a4f199daa7588f86b81b0912a5e52dfe0" target="_top" xlink:title="Deep clone an array list of terms. ">
<polygon fill="none" stroke="black" points="432,-158.5 432,-177.5 624,-177.5 624,-158.5 432,-158.5"/>
<text text-anchor="middle" x="528" y="-165.5" font-family="Helvetica,sans-Serif" font-size="10.00">nars.language.CompoundTerm.cloneList</text>
</a>
</g>
</g>
<!-- Node2&#45;&gt;Node3 -->
<g id="edge2" class="edge"><title>Node2&#45;&gt;Node3</title>
<path fill="none" stroke="midnightblue" d="M378.522,-168C392.44,-168 406.973,-168 421.267,-168"/>
<polygon fill="midnightblue" stroke="midnightblue" points="421.622,-171.5 431.622,-168 421.622,-164.5 421.622,-171.5"/>
</g>
<!-- Node4 -->
<g id="node4" class="node"><title>Node4</title>
<g id="a_node4"><a xlink:href="../../d0/dee/classnars_1_1language_1_1CompoundTerm_a963e8aef1163f4ed8c364b5e448deaff.html#a963e8aef1163f4ed8c364b5e448deaff" target="_top" xlink:title="Abstract clone method. ">
<polygon fill="none" stroke="black" points="660,-158.5 660,-177.5 836,-177.5 836,-158.5 660,-158.5"/>
<text text-anchor="middle" x="748" y="-165.5" font-family="Helvetica,sans-Serif" font-size="10.00">nars.language.CompoundTerm.clone</text>
</a>
</g>
</g>
<!-- Node3&#45;&gt;Node4 -->
<g id="edge3" class="edge"><title>Node3&#45;&gt;Node4</title>
<path fill="none" stroke="midnightblue" d="M624.301,-168C632.69,-168 641.19,-168 649.597,-168"/>
<polygon fill="midnightblue" stroke="midnightblue" points="649.791,-171.5 659.791,-168 649.791,-164.5 649.791,-171.5"/>
</g>
<!-- Node7 -->
<g id="node7" class="node"><title>Node7</title>
<g id="a_node7"><a xlink:href="../../d8/db8/classnars_1_1language_1_1Term_a3aad4654016b8615fd4fa8a26668e1db.html#a3aad4654016b8615fd4fa8a26668e1db" target="_top" xlink:title="Reporting the name of the current Term. ">
<polygon fill="none" stroke="black" points="455,-76.5 455,-95.5 601,-95.5 601,-76.5 455,-76.5"/>
<text text-anchor="middle" x="528" y="-83.5" font-family="Helvetica,sans-Serif" font-size="10.00">nars.language.Term.getName</text>
</a>
</g>
</g>
<!-- Node6&#45;&gt;Node7 -->
<g id="edge6" class="edge"><title>Node6&#45;&gt;Node7</title>
<path fill="none" stroke="midnightblue" d="M357.727,-86C384.625,-86 415.992,-86 444.365,-86"/>
<polygon fill="midnightblue" stroke="midnightblue" points="444.669,-89.5001 454.669,-86 444.669,-82.5001 444.669,-89.5001"/>
</g>
</g>
</svg>
