<?xml version="1.0" encoding="UTF-8" standalone="no"?>
<!DOCTYPE svg PUBLIC "-//W3C//DTD SVG 1.1//EN"
 "http://www.w3.org/Graphics/SVG/1.1/DTD/svg11.dtd">
<!-- Generated by graphviz version 2.38.0 (20140413.2041)
 -->
<!-- Title: nars.entity.Item Pages: 1 -->
<svg width="209pt" height="574pt"
 viewBox="0.00 0.00 208.50 574.00" xmlns="http://www.w3.org/2000/svg" xmlns:xlink="http://www.w3.org/1999/xlink">
<g id="graph0" class="graph" transform="scale(1 1) rotate(0) translate(4 570)">
<title>nars.entity.Item</title>
<!-- Node1 -->
<g id="node1" class="node"><title>Node1</title>
<polygon fill="#bfbfbf" stroke="black" points="21.5,-0.5 21.5,-211.5 110.5,-211.5 110.5,-0.5 21.5,-0.5"/>
<text text-anchor="middle" x="66" y="-199.5" font-family="Helvetica,sans-Serif" font-size="10.00">nars.entity.Item</text>
<polyline fill="none" stroke="black" points="21.5,-192.5 110.5,-192.5 "/>
<text text-anchor="start" x="29.5" y="-180.5" font-family="Helvetica,sans-Serif" font-size="10.00"># key</text>
<polyline fill="none" stroke="black" points="21.5,-173.5 110.5,-173.5 "/>
<text text-anchor="start" x="29.5" y="-161.5" font-family="Helvetica,sans-Serif" font-size="10.00">+ getKey()</text>
<text text-anchor="start" x="29.5" y="-150.5" font-family="Helvetica,sans-Serif" font-size="10.00">+ getBudget()</text>
<text text-anchor="start" x="29.5" y="-139.5" font-family="Helvetica,sans-Serif" font-size="10.00">+ getPriority()</text>
<text text-anchor="start" x="29.5" y="-128.5" font-family="Helvetica,sans-Serif" font-size="10.00">+ setPriority()</text>
<text text-anchor="start" x="29.5" y="-117.5" font-family="Helvetica,sans-Serif" font-size="10.00">+ incPriority()</text>
<text text-anchor="start" x="29.5" y="-106.5" font-family="Helvetica,sans-Serif" font-size="10.00">+ decPriority()</text>
<text text-anchor="start" x="29.5" y="-95.5" font-family="Helvetica,sans-Serif" font-size="10.00">+ getDurability()</text>
<text text-anchor="start" x="29.5" y="-84.5" font-family="Helvetica,sans-Serif" font-size="10.00">+ setDurability()</text>
<text text-anchor="start" x="29.5" y="-73.5" font-family="Helvetica,sans-Serif" font-size="10.00">+ incDurability()</text>
<text text-anchor="start" x="29.5" y="-62.5" font-family="Helvetica,sans-Serif" font-size="10.00">+ decDurability()</text>
<text text-anchor="start" x="29.5" y="-51.5" font-family="Helvetica,sans-Serif" font-size="10.00">and 6 more...</text>
<text text-anchor="start" x="29.5" y="-40.5" font-family="Helvetica,sans-Serif" font-size="10.00"># Item()</text>
<text text-anchor="start" x="29.5" y="-29.5" font-family="Helvetica,sans-Serif" font-size="10.00"># Item()</text>
<text text-anchor="start" x="29.5" y="-18.5" font-family="Helvetica,sans-Serif" font-size="10.00"># Item()</text>
<text text-anchor="start" x="29.5" y="-7.5" font-family="Helvetica,sans-Serif" font-size="10.00"># setBudget()</text>
</g>
<!-- Node2 -->
<g id="node2" class="node"><title>Node2</title>
<polygon fill="none" stroke="#bfbfbf" points="-3.55271e-15,-336.5 -3.55271e-15,-393.5 62,-393.5 62,-336.5 -3.55271e-15,-336.5"/>
<text text-anchor="middle" x="31" y="-381.5" font-family="Helvetica,sans-Serif" font-size="10.00">ItemStruct</text>
<polyline fill="none" stroke="#bfbfbf" points="-3.55271e-15,-374.5 62,-374.5 "/>
<text text-anchor="middle" x="31" y="-362.5" font-family="Helvetica,sans-Serif" font-size="10.00"> </text>
<polyline fill="none" stroke="#bfbfbf" points="-3.55271e-15,-355.5 62,-355.5 "/>
<text text-anchor="middle" x="31" y="-343.5" font-family="Helvetica,sans-Serif" font-size="10.00"> </text>
</g>
<!-- Node2&#45;&gt;Node1 -->
<g id="edge1" class="edge"><title>Node2&#45;&gt;Node1</title>
<path fill="none" stroke="midnightblue" d="M36.1172,-326.425C40.2258,-296.256 46.2019,-252.375 51.7318,-211.769"/>
<polygon fill="none" stroke="midnightblue" points="32.6271,-326.116 34.7456,-336.496 39.5631,-327.06 32.6271,-326.116"/>
</g>
<!-- Node3 -->
<g id="node3" class="node"><title>Node3</title>
<g id="a_node3"><a xlink:href="../../db/d8e/classnars_1_1entity_1_1BudgetValue.html" target="_top" xlink:title="A triple of priority (current), durability (decay), and quality (long&#45;term average). ">
<polygon fill="none" stroke="black" points="79.5,-259.5 79.5,-470.5 200.5,-470.5 200.5,-259.5 79.5,-259.5"/>
<text text-anchor="middle" x="140" y="-458.5" font-family="Helvetica,sans-Serif" font-size="10.00">nars.entity.BudgetValue</text>
<polyline fill="none" stroke="black" points="79.5,-451.5 200.5,-451.5 "/>
<text text-anchor="start" x="87.5" y="-439.5" font-family="Helvetica,sans-Serif" font-size="10.00"># priority</text>
<text text-anchor="start" x="87.5" y="-428.5" font-family="Helvetica,sans-Serif" font-size="10.00"># durability</text>
<text text-anchor="start" x="87.5" y="-417.5" font-family="Helvetica,sans-Serif" font-size="10.00"># quality</text>
<text text-anchor="start" x="87.5" y="-406.5" font-family="Helvetica,sans-Serif" font-size="10.00">&#45; MARK</text>
<text text-anchor="start" x="87.5" y="-395.5" font-family="Helvetica,sans-Serif" font-size="10.00">&#45; SEPARATOR</text>
<polyline fill="none" stroke="black" points="79.5,-388.5 200.5,-388.5 "/>
<text text-anchor="start" x="87.5" y="-376.5" font-family="Helvetica,sans-Serif" font-size="10.00">+ BudgetValue()</text>
<text text-anchor="start" x="87.5" y="-365.5" font-family="Helvetica,sans-Serif" font-size="10.00">+ BudgetValue()</text>
<text text-anchor="start" x="87.5" y="-354.5" font-family="Helvetica,sans-Serif" font-size="10.00">+ BudgetValue()</text>
<text text-anchor="start" x="87.5" y="-343.5" font-family="Helvetica,sans-Serif" font-size="10.00">+ getPriority()</text>
<text text-anchor="start" x="87.5" y="-332.5" font-family="Helvetica,sans-Serif" font-size="10.00">+ setPriority()</text>
<text text-anchor="start" x="87.5" y="-321.5" font-family="Helvetica,sans-Serif" font-size="10.00">+ incPriority()</text>
<text text-anchor="start" x="87.5" y="-310.5" font-family="Helvetica,sans-Serif" font-size="10.00">+ decPriority()</text>
<text text-anchor="start" x="87.5" y="-299.5" font-family="Helvetica,sans-Serif" font-size="10.00">+ getDurability()</text>
<text text-anchor="start" x="87.5" y="-288.5" font-family="Helvetica,sans-Serif" font-size="10.00">+ setDurability()</text>
<text text-anchor="start" x="87.5" y="-277.5" font-family="Helvetica,sans-Serif" font-size="10.00">+ incDurability()</text>
<text text-anchor="start" x="87.5" y="-266.5" font-family="Helvetica,sans-Serif" font-size="10.00">and 10 more...</text>
</a>
</g>
</g>
<!-- Node3&#45;&gt;Node1 -->
<g id="edge2" class="edge"><title>Node3&#45;&gt;Node1</title>
<path fill="none" stroke="#404040" d="M109.901,-259.468C106.51,-247.691 103.039,-235.635 99.6066,-223.715"/>
<polygon fill="none" stroke="#404040" points="99.5124,-223.388 94.0084,-218.729 96.192,-211.856 101.696,-216.515 99.5124,-223.388"/>
<text text-anchor="middle" x="122" y="-233" font-family="Helvetica,sans-Serif" font-size="10.00"> #budget</text>
</g>
<!-- Node4 -->
<g id="node4" class="node"><title>Node4</title>
<polygon fill="none" stroke="#bfbfbf" points="103,-508.5 103,-565.5 177,-565.5 177,-508.5 103,-508.5"/>
<text text-anchor="middle" x="140" y="-553.5" font-family="Helvetica,sans-Serif" font-size="10.00">BudgetStruct</text>
<polyline fill="none" stroke="#bfbfbf" points="103,-546.5 177,-546.5 "/>
<text text-anchor="middle" x="140" y="-534.5" font-family="Helvetica,sans-Serif" font-size="10.00"> </text>
<polyline fill="none" stroke="#bfbfbf" points="103,-527.5 177,-527.5 "/>
<text text-anchor="middle" x="140" y="-515.5" font-family="Helvetica,sans-Serif" font-size="10.00"> </text>
</g>
<!-- Node4&#45;&gt;Node3 -->
<g id="edge3" class="edge"><title>Node4&#45;&gt;Node3</title>
<path fill="none" stroke="midnightblue" d="M140,-498.194C140,-489.797 140,-480.5 140,-470.841"/>
<polygon fill="none" stroke="midnightblue" points="136.5,-498.308 140,-508.308 143.5,-498.308 136.5,-498.308"/>
</g>
</g>
</svg>
