<?xml version="1.0" encoding="UTF-8" standalone="no"?>
<!DOCTYPE svg PUBLIC "-//W3C//DTD SVG 1.1//EN"
 "http://www.w3.org/Graphics/SVG/1.1/DTD/svg11.dtd">
<!-- Generated by graphviz version 2.38.0 (20140413.2041)
 -->
<!-- Title: nars.language.DifferenceExt Pages: 1 -->
<svg width="438pt" height="877pt"
 viewBox="0.00 0.00 438.00 877.00" xmlns="http://www.w3.org/2000/svg" xmlns:xlink="http://www.w3.org/1999/xlink">
<g id="graph0" class="graph" transform="scale(1 1) rotate(0) translate(4 873)">
<title>nars.language.DifferenceExt</title>
<!-- Node1 -->
<g id="node1" class="node"><title>Node1</title>
<polygon fill="#bfbfbf" stroke="black" points="193,-0.5 193,-112.5 333,-112.5 333,-0.5 193,-0.5"/>
<text text-anchor="middle" x="263" y="-100.5" font-family="Helvetica,sans-Serif" font-size="10.00">nars.language.DifferenceExt</text>
<polyline fill="none" stroke="black" points="193,-93.5 333,-93.5 "/>
<text text-anchor="middle" x="263" y="-81.5" font-family="Helvetica,sans-Serif" font-size="10.00"> </text>
<polyline fill="none" stroke="black" points="193,-74.5 333,-74.5 "/>
<text text-anchor="start" x="201" y="-62.5" font-family="Helvetica,sans-Serif" font-size="10.00">+ clone()</text>
<text text-anchor="start" x="201" y="-51.5" font-family="Helvetica,sans-Serif" font-size="10.00">+ operator()</text>
<text text-anchor="start" x="201" y="-40.5" font-family="Helvetica,sans-Serif" font-size="10.00">+ make()</text>
<text text-anchor="start" x="201" y="-29.5" font-family="Helvetica,sans-Serif" font-size="10.00">+ make()</text>
<text text-anchor="start" x="201" y="-18.5" font-family="Helvetica,sans-Serif" font-size="10.00">&#45; DifferenceExt()</text>
<text text-anchor="start" x="201" y="-7.5" font-family="Helvetica,sans-Serif" font-size="10.00">&#45; DifferenceExt()</text>
</g>
<!-- Node2 -->
<g id="node2" class="node"><title>Node2</title>
<g id="a_node2"><a xlink:href="../../d0/dee/classnars_1_1language_1_1CompoundTerm.html" target="_top" xlink:title="A CompoundTerm is a Term with internal (syntactic) structure. ">
<polygon fill="none" stroke="black" points="188,-150.5 188,-526.5 338,-526.5 338,-150.5 188,-150.5"/>
<text text-anchor="middle" x="263" y="-514.5" font-family="Helvetica,sans-Serif" font-size="10.00">nars.language.CompoundTerm</text>
<polyline fill="none" stroke="black" points="188,-507.5 338,-507.5 "/>
<text text-anchor="start" x="196" y="-495.5" font-family="Helvetica,sans-Serif" font-size="10.00"># complexity</text>
<text text-anchor="start" x="196" y="-484.5" font-family="Helvetica,sans-Serif" font-size="10.00"># isConstant</text>
<polyline fill="none" stroke="black" points="188,-477.5 338,-477.5 "/>
<text text-anchor="start" x="196" y="-465.5" font-family="Helvetica,sans-Serif" font-size="10.00">+ operator()</text>
<text text-anchor="start" x="196" y="-454.5" font-family="Helvetica,sans-Serif" font-size="10.00">+ clone()</text>
<text text-anchor="start" x="196" y="-443.5" font-family="Helvetica,sans-Serif" font-size="10.00">+ setName()</text>
<text text-anchor="start" x="196" y="-432.5" font-family="Helvetica,sans-Serif" font-size="10.00">+ getComplexity()</text>
<text text-anchor="start" x="196" y="-421.5" font-family="Helvetica,sans-Serif" font-size="10.00">+ isConstant()</text>
<text text-anchor="start" x="196" y="-410.5" font-family="Helvetica,sans-Serif" font-size="10.00">+ setConstant()</text>
<text text-anchor="start" x="196" y="-399.5" font-family="Helvetica,sans-Serif" font-size="10.00">+ isCommutative()</text>
<text text-anchor="start" x="196" y="-388.5" font-family="Helvetica,sans-Serif" font-size="10.00">+ size()</text>
<text text-anchor="start" x="196" y="-377.5" font-family="Helvetica,sans-Serif" font-size="10.00">+ componentAt()</text>
<text text-anchor="start" x="196" y="-366.5" font-family="Helvetica,sans-Serif" font-size="10.00">+ getComponents()</text>
<text text-anchor="start" x="196" y="-355.5" font-family="Helvetica,sans-Serif" font-size="10.00">and 9 more...</text>
<text text-anchor="start" x="196" y="-344.5" font-family="Helvetica,sans-Serif" font-size="10.00">+ make()</text>
<text text-anchor="start" x="196" y="-333.5" font-family="Helvetica,sans-Serif" font-size="10.00">+ make()</text>
<text text-anchor="start" x="196" y="-322.5" font-family="Helvetica,sans-Serif" font-size="10.00">+ isOperator()</text>
<text text-anchor="start" x="196" y="-311.5" font-family="Helvetica,sans-Serif" font-size="10.00">+ cloneList()</text>
<text text-anchor="start" x="196" y="-300.5" font-family="Helvetica,sans-Serif" font-size="10.00">+ addComponents()</text>
<text text-anchor="start" x="196" y="-289.5" font-family="Helvetica,sans-Serif" font-size="10.00">+ reduceComponents()</text>
<text text-anchor="start" x="196" y="-278.5" font-family="Helvetica,sans-Serif" font-size="10.00">+ setComponent()</text>
<text text-anchor="start" x="196" y="-267.5" font-family="Helvetica,sans-Serif" font-size="10.00"># CompoundTerm()</text>
<text text-anchor="start" x="196" y="-256.5" font-family="Helvetica,sans-Serif" font-size="10.00"># CompoundTerm()</text>
<text text-anchor="start" x="196" y="-245.5" font-family="Helvetica,sans-Serif" font-size="10.00"># CompoundTerm()</text>
<text text-anchor="start" x="196" y="-234.5" font-family="Helvetica,sans-Serif" font-size="10.00"># CompoundTerm()</text>
<text text-anchor="start" x="196" y="-223.5" font-family="Helvetica,sans-Serif" font-size="10.00"># makeName()</text>
<text text-anchor="start" x="196" y="-212.5" font-family="Helvetica,sans-Serif" font-size="10.00"># argumentsToList()</text>
<text text-anchor="start" x="196" y="-201.5" font-family="Helvetica,sans-Serif" font-size="10.00"># makeCompoundName()</text>
<text text-anchor="start" x="196" y="-190.5" font-family="Helvetica,sans-Serif" font-size="10.00"># makeSetName()</text>
<text text-anchor="start" x="196" y="-179.5" font-family="Helvetica,sans-Serif" font-size="10.00"># makeImageName()</text>
<text text-anchor="start" x="196" y="-168.5" font-family="Helvetica,sans-Serif" font-size="10.00">&#45; calcComplexity()</text>
<text text-anchor="start" x="196" y="-157.5" font-family="Helvetica,sans-Serif" font-size="10.00">&#45; prepareComponentLinks()</text>
</a>
</g>
</g>
<!-- Node2&#45;&gt;Node1 -->
<g id="edge1" class="edge"><title>Node2&#45;&gt;Node1</title>
<path fill="none" stroke="midnightblue" d="M263,-140.126C263,-130.462 263,-121.239 263,-112.692"/>
<polygon fill="none" stroke="midnightblue" points="259.5,-140.347 263,-150.347 266.5,-140.347 259.5,-140.347"/>
</g>
<!-- Node3 -->
<g id="node3" class="node"><title>Node3</title>
<g id="a_node3"><a xlink:href="../../d8/db8/classnars_1_1language_1_1Term.html" target="_top" xlink:title="Term is the basic component of Narsese, and the object of processing in NARS. ">
<polygon fill="none" stroke="black" points="100,-574.5 100,-763.5 204,-763.5 204,-574.5 100,-574.5"/>
<text text-anchor="middle" x="152" y="-751.5" font-family="Helvetica,sans-Serif" font-size="10.00">nars.language.Term</text>
<polyline fill="none" stroke="black" points="100,-744.5 204,-744.5 "/>
<text text-anchor="start" x="108" y="-732.5" font-family="Helvetica,sans-Serif" font-size="10.00"># name</text>
<polyline fill="none" stroke="black" points="100,-725.5 204,-725.5 "/>
<text text-anchor="start" x="108" y="-713.5" font-family="Helvetica,sans-Serif" font-size="10.00">+ Term()</text>
<text text-anchor="start" x="108" y="-702.5" font-family="Helvetica,sans-Serif" font-size="10.00">+ getName()</text>
<text text-anchor="start" x="108" y="-691.5" font-family="Helvetica,sans-Serif" font-size="10.00">+ setName()</text>
<text text-anchor="start" x="108" y="-680.5" font-family="Helvetica,sans-Serif" font-size="10.00">+ clone()</text>
<text text-anchor="start" x="108" y="-669.5" font-family="Helvetica,sans-Serif" font-size="10.00">+ equals()</text>
<text text-anchor="start" x="108" y="-658.5" font-family="Helvetica,sans-Serif" font-size="10.00">+ hashCode()</text>
<text text-anchor="start" x="108" y="-647.5" font-family="Helvetica,sans-Serif" font-size="10.00">+ isConstant()</text>
<text text-anchor="start" x="108" y="-636.5" font-family="Helvetica,sans-Serif" font-size="10.00">+ renameVariables()</text>
<text text-anchor="start" x="108" y="-625.5" font-family="Helvetica,sans-Serif" font-size="10.00">+ getComplexity()</text>
<text text-anchor="start" x="108" y="-614.5" font-family="Helvetica,sans-Serif" font-size="10.00">+ compareTo()</text>
<text text-anchor="start" x="108" y="-603.5" font-family="Helvetica,sans-Serif" font-size="10.00">+ containTerm()</text>
<text text-anchor="start" x="108" y="-592.5" font-family="Helvetica,sans-Serif" font-size="10.00">+ toString()</text>
<text text-anchor="start" x="108" y="-581.5" font-family="Helvetica,sans-Serif" font-size="10.00"># Term()</text>
</a>
</g>
</g>
<!-- Node3&#45;&gt;Node2 -->
<g id="edge2" class="edge"><title>Node3&#45;&gt;Node2</title>
<path fill="none" stroke="midnightblue" d="M186.925,-564.64C191.047,-552.441 195.346,-539.72 199.71,-526.806"/>
<polygon fill="none" stroke="midnightblue" points="183.545,-563.71 183.66,-574.305 190.177,-565.951 183.545,-563.71"/>
</g>
<!-- Node4 -->
<g id="node4" class="node"><title>Node4</title>
<polygon fill="none" stroke="#bfbfbf" points="0,-811.5 0,-868.5 60,-868.5 60,-811.5 0,-811.5"/>
<text text-anchor="middle" x="30" y="-856.5" font-family="Helvetica,sans-Serif" font-size="10.00">Cloneable</text>
<polyline fill="none" stroke="#bfbfbf" points="0,-849.5 60,-849.5 "/>
<text text-anchor="middle" x="30" y="-837.5" font-family="Helvetica,sans-Serif" font-size="10.00"> </text>
<polyline fill="none" stroke="#bfbfbf" points="0,-830.5 60,-830.5 "/>
<text text-anchor="middle" x="30" y="-818.5" font-family="Helvetica,sans-Serif" font-size="10.00"> </text>
</g>
<!-- Node4&#45;&gt;Node3 -->
<g id="edge3" class="edge"><title>Node4&#45;&gt;Node3</title>
<path fill="none" stroke="midnightblue" d="M55.8831,-803.146C68.6715,-785.431 84.5826,-763.39 99.7557,-742.371"/>
<polygon fill="none" stroke="midnightblue" points="52.8883,-801.314 49.8729,-811.471 58.564,-805.412 52.8883,-801.314"/>
</g>
<!-- Node5 -->
<g id="node5" class="node"><title>Node5</title>
<polygon fill="none" stroke="#bfbfbf" points="78,-811.5 78,-868.5 188,-868.5 188,-811.5 78,-811.5"/>
<text text-anchor="middle" x="133" y="-856.5" font-family="Helvetica,sans-Serif" font-size="10.00">Comparable&lt; Term &gt;</text>
<polyline fill="none" stroke="#bfbfbf" points="78,-849.5 188,-849.5 "/>
<text text-anchor="middle" x="133" y="-837.5" font-family="Helvetica,sans-Serif" font-size="10.00"> </text>
<polyline fill="none" stroke="#bfbfbf" points="78,-830.5 188,-830.5 "/>
<text text-anchor="middle" x="133" y="-818.5" font-family="Helvetica,sans-Serif" font-size="10.00"> </text>
</g>
<!-- Node5&#45;&gt;Node3 -->
<g id="edge4" class="edge"><title>Node5&#45;&gt;Node3</title>
<path fill="none" stroke="midnightblue" d="M137.214,-801.518C138.495,-790.127 139.963,-777.062 141.467,-763.687"/>
<polygon fill="none" stroke="midnightblue" points="133.734,-801.143 136.095,-811.471 140.69,-801.925 133.734,-801.143"/>
</g>
<!-- Node6 -->
<g id="node6" class="node"><title>Node6</title>
<polygon fill="none" stroke="#bfbfbf" points="206.5,-811.5 206.5,-868.5 271.5,-868.5 271.5,-811.5 206.5,-811.5"/>
<text text-anchor="middle" x="239" y="-856.5" font-family="Helvetica,sans-Serif" font-size="10.00">TermStruct</text>
<polyline fill="none" stroke="#bfbfbf" points="206.5,-849.5 271.5,-849.5 "/>
<text text-anchor="middle" x="239" y="-837.5" font-family="Helvetica,sans-Serif" font-size="10.00"> </text>
<polyline fill="none" stroke="#bfbfbf" points="206.5,-830.5 271.5,-830.5 "/>
<text text-anchor="middle" x="239" y="-818.5" font-family="Helvetica,sans-Serif" font-size="10.00"> </text>
</g>
<!-- Node6&#45;&gt;Node3 -->
<g id="edge5" class="edge"><title>Node6&#45;&gt;Node3</title>
<path fill="none" stroke="midnightblue" d="M220.241,-802.56C214.252,-790.926 207.326,-777.472 200.229,-763.687"/>
<polygon fill="none" stroke="midnightblue" points="217.139,-804.182 224.828,-811.471 223.363,-800.978 217.139,-804.182"/>
</g>
<!-- Node7 -->
<g id="node7" class="node"><title>Node7</title>
<polygon fill="none" stroke="#bfbfbf" points="245,-635 245,-703 373,-703 373,-635 245,-635"/>
<text text-anchor="start" x="253" y="-691" font-family="Helvetica,sans-Serif" font-size="10.00">ArrayList&lt; nars.language.</text>
<text text-anchor="middle" x="309" y="-680" font-family="Helvetica,sans-Serif" font-size="10.00">Term &gt;</text>
<polyline fill="none" stroke="#bfbfbf" points="245,-673 373,-673 "/>
<text text-anchor="middle" x="309" y="-661" font-family="Helvetica,sans-Serif" font-size="10.00"> </text>
<polyline fill="none" stroke="#bfbfbf" points="245,-654 373,-654 "/>
<text text-anchor="middle" x="309" y="-642" font-family="Helvetica,sans-Serif" font-size="10.00"> </text>
</g>
<!-- Node7&#45;&gt;Node2 -->
<g id="edge6" class="edge"><title>Node7&#45;&gt;Node2</title>
<path fill="none" stroke="#404040" d="M304.379,-634.998C301.017,-610.994 296.158,-576.288 290.942,-539.041"/>
<polygon fill="none" stroke="#404040" points="290.902,-538.753 286.108,-533.366 289.237,-526.869 294.031,-532.256 290.902,-538.753"/>
<text text-anchor="middle" x="324" y="-548" font-family="Helvetica,sans-Serif" font-size="10.00"> #components</text>
</g>
<!-- Node8 -->
<g id="node8" class="node"><title>Node8</title>
<polygon fill="none" stroke="#bfbfbf" points="290,-811.5 290,-868.5 346,-868.5 346,-811.5 290,-811.5"/>
<text text-anchor="middle" x="318" y="-856.5" font-family="Helvetica,sans-Serif" font-size="10.00">ArrayList</text>
<polyline fill="none" stroke="#bfbfbf" points="290,-849.5 346,-849.5 "/>
<text text-anchor="middle" x="318" y="-837.5" font-family="Helvetica,sans-Serif" font-size="10.00"> </text>
<polyline fill="none" stroke="#bfbfbf" points="290,-830.5 346,-830.5 "/>
<text text-anchor="middle" x="318" y="-818.5" font-family="Helvetica,sans-Serif" font-size="10.00"> </text>
</g>
<!-- Node8&#45;&gt;Node7 -->
<g id="edge7" class="edge"><title>Node8&#45;&gt;Node7</title>
<path fill="none" stroke="orange" d="M315.985,-801.157C314.415,-771.69 312.259,-731.197 310.759,-703.029"/>
<polygon fill="orange" stroke="orange" points="312.507,-801.671 316.534,-811.471 319.497,-801.299 312.507,-801.671"/>
<text text-anchor="middle" x="373" y="-785" font-family="Helvetica,sans-Serif" font-size="10.00"> &lt; nars::language::Term &gt;</text>
</g>
</g>
</svg>
