<?xml version="1.0" encoding="UTF-8" standalone="no"?>
<!DOCTYPE svg PUBLIC "-//W3C//DTD SVG 1.1//EN"
 "http://www.w3.org/Graphics/SVG/1.1/DTD/svg11.dtd">
<!-- Generated by graphviz version 2.38.0 (20140413.2041)
 -->
<!-- Title: nars.entity.Task.isStructural Pages: 1 -->
<svg width="2497pt" height="169pt"
 viewBox="0.00 0.00 2497.00 169.00" xmlns="http://www.w3.org/2000/svg" xmlns:xlink="http://www.w3.org/1999/xlink">
<g id="graph0" class="graph" transform="scale(1 1) rotate(0) translate(4 165)">
<title>nars.entity.Task.isStructural</title>
<!-- Node1 -->
<g id="node1" class="node"><title>Node1</title>
<polygon fill="#bfbfbf" stroke="black" points="0,-74 0,-93 140,-93 140,-74 0,-74"/>
<text text-anchor="middle" x="70" y="-81" font-family="Helvetica,sans-Serif" font-size="10.00">nars.entity.Task.isStructural</text>
</g>
<!-- Node2 -->
<g id="node2" class="node"><title>Node2</title>
<g id="a_node2"><a xlink:href="../../da/de3/classnars_1_1inference_1_1RuleTables_a274b39b31e00ef27ae6baeaad3894a6a.html#a274b39b31e00ef27ae6baeaad3894a6a" target="_top" xlink:title="Inference between a component term (of the current term) and a statement. ">
<polygon fill="none" stroke="black" points="345,-130.5 345,-160.5 527,-160.5 527,-130.5 345,-130.5"/>
<text text-anchor="start" x="353" y="-148.5" font-family="Helvetica,sans-Serif" font-size="10.00">nars.inference.RuleTables.component</text>
<text text-anchor="middle" x="436" y="-137.5" font-family="Helvetica,sans-Serif" font-size="10.00">AndStatement</text>
</a>
</g>
</g>
<!-- Node1&#45;&gt;Node2 -->
<g id="edge1" class="edge"><title>Node1&#45;&gt;Node2</title>
<path fill="none" stroke="midnightblue" d="M136.976,-94.7377C195.665,-104.734 281.96,-119.433 346.605,-130.444"/>
<polygon fill="midnightblue" stroke="midnightblue" points="137.523,-91.2805 127.077,-93.0516 136.348,-98.1811 137.523,-91.2805"/>
</g>
<!-- Node12 -->
<g id="node12" class="node"><title>Node12</title>
<g id="a_node12"><a xlink:href="../../da/de3/classnars_1_1inference_1_1RuleTables_a00ffbf7a9069cfd135acae4b46d78d05.html#a00ffbf7a9069cfd135acae4b46d78d05" target="_top" xlink:title="Inference between a compound term and a component of it. ">
<polygon fill="none" stroke="black" points="346.5,-65.5 346.5,-95.5 525.5,-95.5 525.5,-65.5 346.5,-65.5"/>
<text text-anchor="start" x="354.5" y="-83.5" font-family="Helvetica,sans-Serif" font-size="10.00">nars.inference.RuleTables.compound</text>
<text text-anchor="middle" x="436" y="-72.5" font-family="Helvetica,sans-Serif" font-size="10.00">AndSelf</text>
</a>
</g>
</g>
<!-- Node1&#45;&gt;Node12 -->
<g id="edge11" class="edge"><title>Node1&#45;&gt;Node12</title>
<path fill="none" stroke="midnightblue" d="M150.322,-85.1714C158.988,-85.3062 167.679,-85.4208 176,-85.5 235.108,-86.0629 249.901,-86.6721 309,-85.5 321.038,-85.2612 333.72,-84.8943 346.213,-84.4652"/>
<polygon fill="midnightblue" stroke="midnightblue" points="150.242,-81.6697 140.186,-85.0049 150.127,-88.6688 150.242,-81.6697"/>
</g>
<!-- Node14 -->
<g id="node14" class="node"><title>Node14</title>
<g id="a_node14"><a xlink:href="../../da/de3/classnars_1_1inference_1_1RuleTables_a8e422154fd8288d161435c3a53e44276.html#a8e422154fd8288d161435c3a53e44276" target="_top" xlink:title="Inference between a compound term and a statement. ">
<polygon fill="none" stroke="black" points="563,-0.5 563,-30.5 742,-30.5 742,-0.5 563,-0.5"/>
<text text-anchor="start" x="571" y="-18.5" font-family="Helvetica,sans-Serif" font-size="10.00">nars.inference.RuleTables.compound</text>
<text text-anchor="middle" x="652.5" y="-7.5" font-family="Helvetica,sans-Serif" font-size="10.00">AndStatement</text>
</a>
</g>
</g>
<!-- Node1&#45;&gt;Node14 -->
<g id="edge15" class="edge"><title>Node1&#45;&gt;Node14</title>
<path fill="none" stroke="midnightblue" d="M95.8165,-69.1647C116.517,-58.0125 147.181,-43.3241 176,-36.5 308.072,-5.22721 466.41,-5.43906 562.941,-9.60788"/>
<polygon fill="midnightblue" stroke="midnightblue" points="94.1159,-66.1056 87.0487,-73.9989 97.4958,-72.2356 94.1159,-66.1056"/>
</g>
<!-- Node15 -->
<g id="node15" class="node"><title>Node15</title>
<g id="a_node15"><a xlink:href="../../db/d49/classnars_1_1inference_1_1StructuralRules_aa98f40a1f1409b81531260124ebd13db.html#aa98f40a1f1409b81531260124ebd13db" target="_top" xlink:title="{(&amp;&amp;, A, B), A@(&amp;&amp;, A, B)} |&#45; A {(||, A, B), A@(||, A, B)} |&#45; A ">
<polygon fill="none" stroke="black" points="176,-46.5 176,-76.5 309,-76.5 309,-46.5 176,-46.5"/>
<text text-anchor="start" x="184" y="-64.5" font-family="Helvetica,sans-Serif" font-size="10.00">nars.inference.Structural</text>
<text text-anchor="middle" x="242.5" y="-53.5" font-family="Helvetica,sans-Serif" font-size="10.00">Rules.structuralCompound</text>
</a>
</g>
</g>
<!-- Node1&#45;&gt;Node15 -->
<g id="edge17" class="edge"><title>Node1&#45;&gt;Node15</title>
<path fill="none" stroke="midnightblue" d="M150.306,-73.267C158.837,-72.1662 167.447,-71.0552 175.794,-69.9782"/>
<polygon fill="midnightblue" stroke="midnightblue" points="149.819,-69.8007 140.349,-74.5518 150.715,-76.7432 149.819,-69.8007"/>
</g>
<!-- Node3 -->
<g id="node3" class="node"><title>Node3</title>
<g id="a_node3"><a xlink:href="../../da/de3/classnars_1_1inference_1_1RuleTables_ac2d01dfdc40bdd47c757cb549217e6e3.html#ac2d01dfdc40bdd47c757cb549217e6e3" target="_top" xlink:title="Entry point of the inference engine. ">
<polygon fill="none" stroke="black" points="778,-77 778,-96 941,-96 941,-77 778,-77"/>
<text text-anchor="middle" x="859.5" y="-84" font-family="Helvetica,sans-Serif" font-size="10.00">nars.inference.RuleTables.reason</text>
</a>
</g>
</g>
<!-- Node2&#45;&gt;Node3 -->
<g id="edge2" class="edge"><title>Node2&#45;&gt;Node3</title>
<path fill="none" stroke="midnightblue" d="M537.26,-131.901C596.777,-123.776 673.713,-113.184 742,-103.5 758.797,-101.118 776.948,-98.4936 793.81,-96.0343"/>
<polygon fill="midnightblue" stroke="midnightblue" points="536.545,-128.466 527.11,-133.285 537.491,-135.401 536.545,-128.466"/>
</g>
<!-- Node4 -->
<g id="node4" class="node"><title>Node4</title>
<g id="a_node4"><a xlink:href="../../d4/d22/classnars_1_1entity_1_1Concept_ae07576c8466ad65eeb61040e3f71cfc7.html#ae07576c8466ad65eeb61040e3f71cfc7" target="_top" xlink:title="An atomic step in a concept, only called in Memory# processConcept. ">
<polygon fill="none" stroke="black" points="977,-77 977,-96 1096,-96 1096,-77 977,-77"/>
<text text-anchor="middle" x="1036.5" y="-84" font-family="Helvetica,sans-Serif" font-size="10.00">nars.entity.Concept.fire</text>
</a>
</g>
</g>
<!-- Node3&#45;&gt;Node4 -->
<g id="edge3" class="edge"><title>Node3&#45;&gt;Node4</title>
<path fill="none" stroke="midnightblue" d="M951.249,-86.5C959.907,-86.5 968.523,-86.5 976.757,-86.5"/>
<polygon fill="midnightblue" stroke="midnightblue" points="951.085,-83.0001 941.085,-86.5 951.085,-90.0001 951.085,-83.0001"/>
</g>
<!-- Node5 -->
<g id="node5" class="node"><title>Node5</title>
<g id="a_node5"><a xlink:href="../../d8/df4/classnars_1_1storage_1_1Memory_a83154b55b922c82b73931d4f22e3a590.html#a83154b55b922c82b73931d4f22e3a590" target="_top" xlink:title="Select a concept to fire. ">
<polygon fill="none" stroke="black" points="1132,-71.5 1132,-101.5 1278,-101.5 1278,-71.5 1132,-71.5"/>
<text text-anchor="start" x="1140" y="-89.5" font-family="Helvetica,sans-Serif" font-size="10.00">nars.storage.Memory.process</text>
<text text-anchor="middle" x="1205" y="-78.5" font-family="Helvetica,sans-Serif" font-size="10.00">Concept</text>
</a>
</g>
</g>
<!-- Node4&#45;&gt;Node5 -->
<g id="edge4" class="edge"><title>Node4&#45;&gt;Node5</title>
<path fill="none" stroke="midnightblue" d="M1106.34,-86.5C1114.75,-86.5 1123.36,-86.5 1131.82,-86.5"/>
<polygon fill="midnightblue" stroke="midnightblue" points="1106.2,-83.0001 1096.2,-86.5 1106.2,-90.0001 1106.2,-83.0001"/>
</g>
<!-- Node6 -->
<g id="node6" class="node"><title>Node6</title>
<g id="a_node6"><a xlink:href="../../d8/df4/classnars_1_1storage_1_1Memory_a49e2cbc8b78d535f4d69739886ee966a.html#a49e2cbc8b78d535f4d69739886ee966a" target="_top" xlink:title="An atomic working workCycle of the system: process new Tasks, then fire a concept. ">
<polygon fill="none" stroke="black" points="1314,-71.5 1314,-101.5 1447,-101.5 1447,-71.5 1314,-71.5"/>
<text text-anchor="start" x="1322" y="-89.5" font-family="Helvetica,sans-Serif" font-size="10.00">nars.storage.Memory.work</text>
<text text-anchor="middle" x="1380.5" y="-78.5" font-family="Helvetica,sans-Serif" font-size="10.00">Cycle</text>
</a>
</g>
</g>
<!-- Node5&#45;&gt;Node6 -->
<g id="edge5" class="edge"><title>Node5&#45;&gt;Node6</title>
<path fill="none" stroke="midnightblue" d="M1288.12,-86.5C1296.72,-86.5 1305.37,-86.5 1313.76,-86.5"/>
<polygon fill="midnightblue" stroke="midnightblue" points="1288.07,-83.0001 1278.07,-86.5 1288.07,-90.0001 1288.07,-83.0001"/>
</g>
<!-- Node7 -->
<g id="node7" class="node"><title>Node7</title>
<g id="a_node7"><a xlink:href="../../dd/da5/classnars_1_1storage_1_1Memory_1_1ReasonerBatch_acc60dec23da774957a85362ed6d7448b.html#acc60dec23da774957a85362ed6d7448b" target="_top" xlink:title="nars.storage.Memory.Reasoner\lBatch.doTick">
<polygon fill="none" stroke="black" points="1483,-71.5 1483,-101.5 1637,-101.5 1637,-71.5 1483,-71.5"/>
<text text-anchor="start" x="1491" y="-89.5" font-family="Helvetica,sans-Serif" font-size="10.00">nars.storage.Memory.Reasoner</text>
<text text-anchor="middle" x="1560" y="-78.5" font-family="Helvetica,sans-Serif" font-size="10.00">Batch.doTick</text>
</a>
</g>
</g>
<!-- Node6&#45;&gt;Node7 -->
<g id="edge6" class="edge"><title>Node6&#45;&gt;Node7</title>
<path fill="none" stroke="midnightblue" d="M1457.32,-86.5C1465.79,-86.5 1474.41,-86.5 1482.89,-86.5"/>
<polygon fill="midnightblue" stroke="midnightblue" points="1457.09,-83.0001 1447.09,-86.5 1457.09,-90.0001 1457.09,-83.0001"/>
</g>
<!-- Node8 -->
<g id="node8" class="node"><title>Node8</title>
<g id="a_node8"><a xlink:href="../../dd/da5/classnars_1_1storage_1_1Memory_1_1ReasonerBatch_aed591f05899b98fd9e4ad01836ad0a40.html#aed591f05899b98fd9e4ad01836ad0a40" target="_top" xlink:title="A clock tick. ">
<polygon fill="none" stroke="black" points="1673,-71.5 1673,-101.5 1827,-101.5 1827,-71.5 1673,-71.5"/>
<text text-anchor="start" x="1681" y="-89.5" font-family="Helvetica,sans-Serif" font-size="10.00">nars.storage.Memory.Reasoner</text>
<text text-anchor="middle" x="1750" y="-78.5" font-family="Helvetica,sans-Serif" font-size="10.00">Batch.tick</text>
</a>
</g>
</g>
<!-- Node7&#45;&gt;Node8 -->
<g id="edge7" class="edge"><title>Node7&#45;&gt;Node8</title>
<path fill="none" stroke="midnightblue" d="M1647.42,-86.5C1655.86,-86.5 1664.37,-86.5 1672.7,-86.5"/>
<polygon fill="midnightblue" stroke="midnightblue" points="1647.2,-83.0001 1637.2,-86.5 1647.2,-90.0001 1647.2,-83.0001"/>
</g>
<!-- Node9 -->
<g id="node9" class="node"><title>Node9</title>
<g id="a_node9"><a xlink:href="../../d4/d88/classnars_1_1storage_1_1Memory_1_1NARSBatch_aad99db6cedde9cff2a997db8906ff821.html#aad99db6cedde9cff2a997db8906ff821" target="_top" xlink:title="Run to completion: repeatedly execute NARS working cycle, until Inputs are Finished, or 1000 steps. ">
<polygon fill="none" stroke="black" points="1863,-77 1863,-96 2045,-96 2045,-77 1863,-77"/>
<text text-anchor="middle" x="1954" y="-84" font-family="Helvetica,sans-Serif" font-size="10.00">nars.storage.Memory.NARSBatch.run</text>
</a>
</g>
</g>
<!-- Node8&#45;&gt;Node9 -->
<g id="edge8" class="edge"><title>Node8&#45;&gt;Node9</title>
<path fill="none" stroke="midnightblue" d="M1837.27,-86.5C1845.69,-86.5 1854.25,-86.5 1862.71,-86.5"/>
<polygon fill="midnightblue" stroke="midnightblue" points="1837.08,-83.0001 1827.08,-86.5 1837.08,-90.0001 1837.08,-83.0001"/>
</g>
<!-- Node10 -->
<g id="node10" class="node"><title>Node10</title>
<g id="a_node10"><a xlink:href="../../d4/d88/classnars_1_1storage_1_1Memory_1_1NARSBatch_a416c39463faa161661ed1d12fea03b3c.html#a416c39463faa161661ed1d12fea03b3c" target="_top" xlink:title="non&#45;static equivalent to main(String[]) : run to completion from an input file ">
<polygon fill="none" stroke="black" points="2081,-71.5 2081,-101.5 2263,-101.5 2263,-71.5 2081,-71.5"/>
<text text-anchor="start" x="2089" y="-89.5" font-family="Helvetica,sans-Serif" font-size="10.00">nars.storage.Memory.NARSBatch.run</text>
<text text-anchor="middle" x="2172" y="-78.5" font-family="Helvetica,sans-Serif" font-size="10.00">Inference</text>
</a>
</g>
</g>
<!-- Node9&#45;&gt;Node10 -->
<g id="edge9" class="edge"><title>Node9&#45;&gt;Node10</title>
<path fill="none" stroke="midnightblue" d="M2055.06,-86.5C2063.63,-86.5 2072.27,-86.5 2080.76,-86.5"/>
<polygon fill="midnightblue" stroke="midnightblue" points="2055.04,-83.0001 2045.04,-86.5 2055.04,-90.0001 2055.04,-83.0001"/>
</g>
<!-- Node11 -->
<g id="node11" class="node"><title>Node11</title>
<g id="a_node11"><a xlink:href="../../d4/d88/classnars_1_1storage_1_1Memory_1_1NARSBatch_aa97fcd68270583e60e6bf1b4579d1bdc.html#aa97fcd68270583e60e6bf1b4579d1bdc" target="_top" xlink:title="The entry point of the standalone application. ">
<polygon fill="none" stroke="black" points="2299,-77 2299,-96 2489,-96 2489,-77 2299,-77"/>
<text text-anchor="middle" x="2394" y="-84" font-family="Helvetica,sans-Serif" font-size="10.00">nars.storage.Memory.NARSBatch.main</text>
</a>
</g>
</g>
<!-- Node10&#45;&gt;Node11 -->
<g id="edge10" class="edge"><title>Node10&#45;&gt;Node11</title>
<path fill="none" stroke="midnightblue" d="M2273.37,-86.5C2281.82,-86.5 2290.34,-86.5 2298.74,-86.5"/>
<polygon fill="midnightblue" stroke="midnightblue" points="2273.12,-83.0001 2263.12,-86.5 2273.12,-90.0001 2273.12,-83.0001"/>
</g>
<!-- Node12&#45;&gt;Node3 -->
<g id="edge12" class="edge"><title>Node12&#45;&gt;Node3</title>
<path fill="none" stroke="midnightblue" d="M536.044,-87.3829C545.154,-87.8365 554.245,-88.2224 563,-88.5 642.516,-91.0218 662.447,-89.1828 742,-88.5 753.631,-88.4002 765.915,-88.2443 777.971,-88.0626"/>
<polygon fill="midnightblue" stroke="midnightblue" points="535.937,-83.8725 525.767,-86.8442 535.57,-90.8629 535.937,-83.8725"/>
</g>
<!-- Node13 -->
<g id="node13" class="node"><title>Node13</title>
<g id="a_node13"><a xlink:href="../../da/de3/classnars_1_1inference_1_1RuleTables_a764dbc9ccccf406df45e09fbfeda928f.html#a764dbc9ccccf406df45e09fbfeda928f" target="_top" xlink:title="Inference between two compound terms. ">
<polygon fill="none" stroke="black" points="563,-49.5 563,-79.5 742,-79.5 742,-49.5 563,-49.5"/>
<text text-anchor="start" x="571" y="-67.5" font-family="Helvetica,sans-Serif" font-size="10.00">nars.inference.RuleTables.compound</text>
<text text-anchor="middle" x="652.5" y="-56.5" font-family="Helvetica,sans-Serif" font-size="10.00">AndCompound</text>
</a>
</g>
</g>
<!-- Node12&#45;&gt;Node13 -->
<g id="edge13" class="edge"><title>Node12&#45;&gt;Node13</title>
<path fill="none" stroke="midnightblue" d="M535.876,-73.1246C544.847,-72.4554 553.897,-71.7804 562.773,-71.1183"/>
<polygon fill="midnightblue" stroke="midnightblue" points="535.506,-69.6424 525.794,-73.8767 536.026,-76.623 535.506,-69.6424"/>
</g>
<!-- Node13&#45;&gt;Node3 -->
<g id="edge14" class="edge"><title>Node13&#45;&gt;Node3</title>
<path fill="none" stroke="midnightblue" d="M752.22,-75.0944C760.762,-76.011 769.338,-76.9314 777.712,-77.8301"/>
<polygon fill="midnightblue" stroke="midnightblue" points="752.54,-71.6087 742.224,-74.0216 751.793,-78.5687 752.54,-71.6087"/>
</g>
<!-- Node14&#45;&gt;Node3 -->
<g id="edge16" class="edge"><title>Node14&#45;&gt;Node3</title>
<path fill="none" stroke="midnightblue" d="M722.512,-33.3585C729.13,-35.3277 735.714,-37.3879 742,-39.5 775.698,-50.8224 813.714,-66.7807 836.888,-76.8812"/>
<polygon fill="midnightblue" stroke="midnightblue" points="723.402,-29.9722 712.822,-30.5429 721.449,-36.6942 723.402,-29.9722"/>
</g>
<!-- Node15&#45;&gt;Node12 -->
<g id="edge18" class="edge"><title>Node15&#45;&gt;Node12</title>
<path fill="none" stroke="midnightblue" d="M319.134,-69.0042C328.099,-69.8937 337.31,-70.8075 346.434,-71.7128"/>
<polygon fill="midnightblue" stroke="midnightblue" points="319.432,-65.5166 309.136,-68.0121 318.741,-72.4824 319.432,-65.5166"/>
</g>
</g>
</svg>
