<?xml version="1.0" encoding="UTF-8" standalone="no"?>
<!DOCTYPE svg PUBLIC "-//W3C//DTD SVG 1.1//EN"
 "http://www.w3.org/Graphics/SVG/1.1/DTD/svg11.dtd">
<!-- Generated by graphviz version 2.38.0 (20140413.2041)
 -->
<!-- Title: nars.entity.Task.setBestSolution Pages: 1 -->
<svg width="2293pt" height="137pt"
 viewBox="0.00 0.00 2293.00 137.00" xmlns="http://www.w3.org/2000/svg" xmlns:xlink="http://www.w3.org/1999/xlink">
<g id="graph0" class="graph" transform="scale(1 1) rotate(0) translate(4 133)">
<title>nars.entity.Task.setBestSolution</title>
<!-- Node1 -->
<g id="node1" class="node"><title>Node1</title>
<polygon fill="#bfbfbf" stroke="black" points="0,-44.5 0,-74.5 124,-74.5 124,-44.5 0,-44.5"/>
<text text-anchor="start" x="8" y="-62.5" font-family="Helvetica,sans-Serif" font-size="10.00">nars.entity.Task.setBest</text>
<text text-anchor="middle" x="62" y="-51.5" font-family="Helvetica,sans-Serif" font-size="10.00">Solution</text>
</g>
<!-- Node2 -->
<g id="node2" class="node"><title>Node2</title>
<g id="a_node2"><a xlink:href="../../d4/de9/classnars_1_1inference_1_1LocalRules_a3ecf859c238ad7f0c44c45e3e5df0081.html#a3ecf859c238ad7f0c44c45e3e5df0081" target="_top" xlink:title="Check if a Sentence provide a better answer to a Question or Goal. ">
<polygon fill="none" stroke="black" points="160,-44.5 160,-74.5 304,-74.5 304,-44.5 160,-44.5"/>
<text text-anchor="start" x="168" y="-62.5" font-family="Helvetica,sans-Serif" font-size="10.00">nars.inference.LocalRules.try</text>
<text text-anchor="middle" x="232" y="-51.5" font-family="Helvetica,sans-Serif" font-size="10.00">Solution</text>
</a>
</g>
</g>
<!-- Node1&#45;&gt;Node2 -->
<g id="edge1" class="edge"><title>Node1&#45;&gt;Node2</title>
<path fill="none" stroke="midnightblue" d="M134.351,-59.5C142.823,-59.5 151.471,-59.5 159.939,-59.5"/>
<polygon fill="midnightblue" stroke="midnightblue" points="134.127,-56.0001 124.127,-59.5 134.127,-63.0001 134.127,-56.0001"/>
</g>
<!-- Node3 -->
<g id="node3" class="node"><title>Node3</title>
<g id="a_node3"><a xlink:href="../../d4/d22/classnars_1_1entity_1_1Concept_a40cddcc82ee28a1cf5b1f4bc14e2b078.html#a40cddcc82ee28a1cf5b1f4bc14e2b078" target="_top" xlink:title="To accept a new judgment as isBelief, and check for revisions and solutions. ">
<polygon fill="none" stroke="black" points="350,-93.5 350,-123.5 490,-123.5 490,-93.5 350,-93.5"/>
<text text-anchor="start" x="358" y="-111.5" font-family="Helvetica,sans-Serif" font-size="10.00">nars.entity.Concept.process</text>
<text text-anchor="middle" x="420" y="-100.5" font-family="Helvetica,sans-Serif" font-size="10.00">Judgment</text>
</a>
</g>
</g>
<!-- Node2&#45;&gt;Node3 -->
<g id="edge2" class="edge"><title>Node2&#45;&gt;Node3</title>
<path fill="none" stroke="midnightblue" d="M299.895,-77.1229C320.244,-82.4837 342.408,-88.3225 362.038,-93.4938"/>
<polygon fill="midnightblue" stroke="midnightblue" points="300.632,-73.6977 290.07,-74.5346 298.849,-80.4667 300.632,-73.6977"/>
</g>
<!-- Node14 -->
<g id="node14" class="node"><title>Node14</title>
<g id="a_node14"><a xlink:href="../../d4/d22/classnars_1_1entity_1_1Concept_a3900248991e7adb57e82231312337f8f.html#a3900248991e7adb57e82231312337f8f" target="_top" xlink:title="To answer a question by existing beliefs. ">
<polygon fill="none" stroke="black" points="350,-44.5 350,-74.5 490,-74.5 490,-44.5 350,-44.5"/>
<text text-anchor="start" x="358" y="-62.5" font-family="Helvetica,sans-Serif" font-size="10.00">nars.entity.Concept.process</text>
<text text-anchor="middle" x="420" y="-51.5" font-family="Helvetica,sans-Serif" font-size="10.00">Question</text>
</a>
</g>
</g>
<!-- Node2&#45;&gt;Node14 -->
<g id="edge14" class="edge"><title>Node2&#45;&gt;Node14</title>
<path fill="none" stroke="midnightblue" d="M314.396,-59.5C326.191,-59.5 338.24,-59.5 349.766,-59.5"/>
<polygon fill="midnightblue" stroke="midnightblue" points="314.115,-56.0001 304.115,-59.5 314.115,-63.0001 314.115,-56.0001"/>
</g>
<!-- Node15 -->
<g id="node15" class="node"><title>Node15</title>
<g id="a_node15"><a xlink:href="../../d4/de9/classnars_1_1inference_1_1LocalRules_aac1c92950f50edd04d12229a8c992987.html#aac1c92950f50edd04d12229a8c992987" target="_top" xlink:title="The task and belief have the same content. ">
<polygon fill="none" stroke="black" points="340,-6 340,-25 500,-25 500,-6 340,-6"/>
<text text-anchor="middle" x="420" y="-13" font-family="Helvetica,sans-Serif" font-size="10.00">nars.inference.LocalRules.match</text>
</a>
</g>
</g>
<!-- Node2&#45;&gt;Node15 -->
<g id="edge16" class="edge"><title>Node2&#45;&gt;Node15</title>
<path fill="none" stroke="midnightblue" d="M306.539,-42.1036C331.16,-36.2794 357.685,-30.0046 378.788,-25.0124"/>
<polygon fill="midnightblue" stroke="midnightblue" points="305.416,-38.7726 296.49,-44.4808 307.028,-45.5846 305.416,-38.7726"/>
</g>
<!-- Node4 -->
<g id="node4" class="node"><title>Node4</title>
<g id="a_node4"><a xlink:href="../../d4/d22/classnars_1_1entity_1_1Concept_a9ea7c3154932d7a736c105eb55daeb5c.html#a9ea7c3154932d7a736c105eb55daeb5c" target="_top" xlink:title="Directly process a new task. ">
<polygon fill="none" stroke="black" points="553,-71.5 553,-101.5 682,-101.5 682,-71.5 553,-71.5"/>
<text text-anchor="start" x="561" y="-89.5" font-family="Helvetica,sans-Serif" font-size="10.00">nars.entity.Concept.direct</text>
<text text-anchor="middle" x="617.5" y="-78.5" font-family="Helvetica,sans-Serif" font-size="10.00">Process</text>
</a>
</g>
</g>
<!-- Node3&#45;&gt;Node4 -->
<g id="edge3" class="edge"><title>Node3&#45;&gt;Node4</title>
<path fill="none" stroke="midnightblue" d="M500.386,-99.5665C517.875,-97.5985 536.177,-95.5389 552.943,-93.6522"/>
<polygon fill="midnightblue" stroke="midnightblue" points="499.747,-96.1163 490.201,-100.713 500.53,-103.072 499.747,-96.1163"/>
</g>
<!-- Node5 -->
<g id="node5" class="node"><title>Node5</title>
<g id="a_node5"><a xlink:href="../../d8/df4/classnars_1_1storage_1_1Memory_a175200c1f4c182222d0e66439b6e53a0.html#a175200c1f4c182222d0e66439b6e53a0" target="_top" xlink:title="Immediate processing of a new task, in constant time Local processing, in one concept only...">
<polygon fill="none" stroke="black" points="735,-71.5 735,-101.5 892,-101.5 892,-71.5 735,-71.5"/>
<text text-anchor="start" x="743" y="-89.5" font-family="Helvetica,sans-Serif" font-size="10.00">nars.storage.Memory.immediate</text>
<text text-anchor="middle" x="813.5" y="-78.5" font-family="Helvetica,sans-Serif" font-size="10.00">Process</text>
</a>
</g>
</g>
<!-- Node4&#45;&gt;Node5 -->
<g id="edge4" class="edge"><title>Node4&#45;&gt;Node5</title>
<path fill="none" stroke="midnightblue" d="M692.088,-86.5C706.105,-86.5 720.815,-86.5 734.95,-86.5"/>
<polygon fill="midnightblue" stroke="midnightblue" points="692.023,-83.0001 682.023,-86.5 692.023,-90.0001 692.023,-83.0001"/>
</g>
<!-- Node6 -->
<g id="node6" class="node"><title>Node6</title>
<g id="a_node6"><a xlink:href="../../d8/df4/classnars_1_1storage_1_1Memory_a105e44a3504921cc1036eb979b85d9f0.html#a105e44a3504921cc1036eb979b85d9f0" target="_top" xlink:title="Process the newTasks accumulated in the previous workCycle, accept input ones and those that correspo...">
<polygon fill="none" stroke="black" points="928,-98.5 928,-128.5 1074,-128.5 1074,-98.5 928,-98.5"/>
<text text-anchor="start" x="936" y="-116.5" font-family="Helvetica,sans-Serif" font-size="10.00">nars.storage.Memory.process</text>
<text text-anchor="middle" x="1001" y="-105.5" font-family="Helvetica,sans-Serif" font-size="10.00">NewTask</text>
</a>
</g>
</g>
<!-- Node5&#45;&gt;Node6 -->
<g id="edge5" class="edge"><title>Node5&#45;&gt;Node6</title>
<path fill="none" stroke="midnightblue" d="M902.125,-99.254C910.707,-100.503 919.349,-101.761 927.754,-102.984"/>
<polygon fill="midnightblue" stroke="midnightblue" points="902.494,-95.7709 892.094,-97.794 901.485,-102.698 902.494,-95.7709"/>
</g>
<!-- Node13 -->
<g id="node13" class="node"><title>Node13</title>
<g id="a_node13"><a xlink:href="../../d8/df4/classnars_1_1storage_1_1Memory_afe3b4d1bb5fab652ceca53c04773af73.html#afe3b4d1bb5fab652ceca53c04773af73" target="_top" xlink:title="Select a novel task to process. ">
<polygon fill="none" stroke="black" points="928,-49.5 928,-79.5 1074,-79.5 1074,-49.5 928,-49.5"/>
<text text-anchor="start" x="936" y="-67.5" font-family="Helvetica,sans-Serif" font-size="10.00">nars.storage.Memory.process</text>
<text text-anchor="middle" x="1001" y="-56.5" font-family="Helvetica,sans-Serif" font-size="10.00">NovelTask</text>
</a>
</g>
</g>
<!-- Node5&#45;&gt;Node13 -->
<g id="edge12" class="edge"><title>Node5&#45;&gt;Node13</title>
<path fill="none" stroke="midnightblue" d="M902.125,-76.1079C910.707,-75.09 919.349,-74.0651 927.754,-73.0683"/>
<polygon fill="midnightblue" stroke="midnightblue" points="901.612,-72.644 892.094,-77.2975 902.437,-79.5953 901.612,-72.644"/>
</g>
<!-- Node7 -->
<g id="node7" class="node"><title>Node7</title>
<g id="a_node7"><a xlink:href="../../d8/df4/classnars_1_1storage_1_1Memory_a49e2cbc8b78d535f4d69739886ee966a.html#a49e2cbc8b78d535f4d69739886ee966a" target="_top" xlink:title="An atomic working workCycle of the system: process new Tasks, then fire a concept. ">
<polygon fill="none" stroke="black" points="1110,-49.5 1110,-79.5 1243,-79.5 1243,-49.5 1110,-49.5"/>
<text text-anchor="start" x="1118" y="-67.5" font-family="Helvetica,sans-Serif" font-size="10.00">nars.storage.Memory.work</text>
<text text-anchor="middle" x="1176.5" y="-56.5" font-family="Helvetica,sans-Serif" font-size="10.00">Cycle</text>
</a>
</g>
</g>
<!-- Node6&#45;&gt;Node7 -->
<g id="edge6" class="edge"><title>Node6&#45;&gt;Node7</title>
<path fill="none" stroke="midnightblue" d="M1065.1,-95.6788C1083.83,-90.3882 1104.16,-84.6478 1122.21,-79.5516"/>
<polygon fill="midnightblue" stroke="midnightblue" points="1064.14,-92.3123 1055.47,-98.3986 1066.05,-99.0488 1064.14,-92.3123"/>
</g>
<!-- Node8 -->
<g id="node8" class="node"><title>Node8</title>
<g id="a_node8"><a xlink:href="../../dd/da5/classnars_1_1storage_1_1Memory_1_1ReasonerBatch_acc60dec23da774957a85362ed6d7448b.html#acc60dec23da774957a85362ed6d7448b" target="_top" xlink:title="nars.storage.Memory.Reasoner\lBatch.doTick">
<polygon fill="none" stroke="black" points="1279,-49.5 1279,-79.5 1433,-79.5 1433,-49.5 1279,-49.5"/>
<text text-anchor="start" x="1287" y="-67.5" font-family="Helvetica,sans-Serif" font-size="10.00">nars.storage.Memory.Reasoner</text>
<text text-anchor="middle" x="1356" y="-56.5" font-family="Helvetica,sans-Serif" font-size="10.00">Batch.doTick</text>
</a>
</g>
</g>
<!-- Node7&#45;&gt;Node8 -->
<g id="edge7" class="edge"><title>Node7&#45;&gt;Node8</title>
<path fill="none" stroke="midnightblue" d="M1253.32,-64.5C1261.79,-64.5 1270.41,-64.5 1278.89,-64.5"/>
<polygon fill="midnightblue" stroke="midnightblue" points="1253.09,-61.0001 1243.09,-64.5 1253.09,-68.0001 1253.09,-61.0001"/>
</g>
<!-- Node9 -->
<g id="node9" class="node"><title>Node9</title>
<g id="a_node9"><a xlink:href="../../dd/da5/classnars_1_1storage_1_1Memory_1_1ReasonerBatch_aed591f05899b98fd9e4ad01836ad0a40.html#aed591f05899b98fd9e4ad01836ad0a40" target="_top" xlink:title="A clock tick. ">
<polygon fill="none" stroke="black" points="1469,-49.5 1469,-79.5 1623,-79.5 1623,-49.5 1469,-49.5"/>
<text text-anchor="start" x="1477" y="-67.5" font-family="Helvetica,sans-Serif" font-size="10.00">nars.storage.Memory.Reasoner</text>
<text text-anchor="middle" x="1546" y="-56.5" font-family="Helvetica,sans-Serif" font-size="10.00">Batch.tick</text>
</a>
</g>
</g>
<!-- Node8&#45;&gt;Node9 -->
<g id="edge8" class="edge"><title>Node8&#45;&gt;Node9</title>
<path fill="none" stroke="midnightblue" d="M1443.42,-64.5C1451.86,-64.5 1460.37,-64.5 1468.7,-64.5"/>
<polygon fill="midnightblue" stroke="midnightblue" points="1443.2,-61.0001 1433.2,-64.5 1443.2,-68.0001 1443.2,-61.0001"/>
</g>
<!-- Node10 -->
<g id="node10" class="node"><title>Node10</title>
<g id="a_node10"><a xlink:href="../../d4/d88/classnars_1_1storage_1_1Memory_1_1NARSBatch_aad99db6cedde9cff2a997db8906ff821.html#aad99db6cedde9cff2a997db8906ff821" target="_top" xlink:title="Run to completion: repeatedly execute NARS working cycle, until Inputs are Finished, or 1000 steps. ">
<polygon fill="none" stroke="black" points="1659,-55 1659,-74 1841,-74 1841,-55 1659,-55"/>
<text text-anchor="middle" x="1750" y="-62" font-family="Helvetica,sans-Serif" font-size="10.00">nars.storage.Memory.NARSBatch.run</text>
</a>
</g>
</g>
<!-- Node9&#45;&gt;Node10 -->
<g id="edge9" class="edge"><title>Node9&#45;&gt;Node10</title>
<path fill="none" stroke="midnightblue" d="M1633.27,-64.5C1641.69,-64.5 1650.25,-64.5 1658.71,-64.5"/>
<polygon fill="midnightblue" stroke="midnightblue" points="1633.08,-61.0001 1623.08,-64.5 1633.08,-68.0001 1633.08,-61.0001"/>
</g>
<!-- Node11 -->
<g id="node11" class="node"><title>Node11</title>
<g id="a_node11"><a xlink:href="../../d4/d88/classnars_1_1storage_1_1Memory_1_1NARSBatch_a416c39463faa161661ed1d12fea03b3c.html#a416c39463faa161661ed1d12fea03b3c" target="_top" xlink:title="non&#45;static equivalent to main(String[]) : run to completion from an input file ">
<polygon fill="none" stroke="black" points="1877,-49.5 1877,-79.5 2059,-79.5 2059,-49.5 1877,-49.5"/>
<text text-anchor="start" x="1885" y="-67.5" font-family="Helvetica,sans-Serif" font-size="10.00">nars.storage.Memory.NARSBatch.run</text>
<text text-anchor="middle" x="1968" y="-56.5" font-family="Helvetica,sans-Serif" font-size="10.00">Inference</text>
</a>
</g>
</g>
<!-- Node10&#45;&gt;Node11 -->
<g id="edge10" class="edge"><title>Node10&#45;&gt;Node11</title>
<path fill="none" stroke="midnightblue" d="M1851.06,-64.5C1859.63,-64.5 1868.27,-64.5 1876.76,-64.5"/>
<polygon fill="midnightblue" stroke="midnightblue" points="1851.04,-61.0001 1841.04,-64.5 1851.04,-68.0001 1851.04,-61.0001"/>
</g>
<!-- Node12 -->
<g id="node12" class="node"><title>Node12</title>
<g id="a_node12"><a xlink:href="../../d4/d88/classnars_1_1storage_1_1Memory_1_1NARSBatch_aa97fcd68270583e60e6bf1b4579d1bdc.html#aa97fcd68270583e60e6bf1b4579d1bdc" target="_top" xlink:title="The entry point of the standalone application. ">
<polygon fill="none" stroke="black" points="2095,-55 2095,-74 2285,-74 2285,-55 2095,-55"/>
<text text-anchor="middle" x="2190" y="-62" font-family="Helvetica,sans-Serif" font-size="10.00">nars.storage.Memory.NARSBatch.main</text>
</a>
</g>
</g>
<!-- Node11&#45;&gt;Node12 -->
<g id="edge11" class="edge"><title>Node11&#45;&gt;Node12</title>
<path fill="none" stroke="midnightblue" d="M2069.37,-64.5C2077.82,-64.5 2086.34,-64.5 2094.74,-64.5"/>
<polygon fill="midnightblue" stroke="midnightblue" points="2069.12,-61.0001 2059.12,-64.5 2069.12,-68.0001 2069.12,-61.0001"/>
</g>
<!-- Node13&#45;&gt;Node7 -->
<g id="edge13" class="edge"><title>Node13&#45;&gt;Node7</title>
<path fill="none" stroke="midnightblue" d="M1084.12,-64.5C1092.72,-64.5 1101.37,-64.5 1109.76,-64.5"/>
<polygon fill="midnightblue" stroke="midnightblue" points="1084.07,-61.0001 1074.07,-64.5 1084.07,-68.0001 1084.07,-61.0001"/>
</g>
<!-- Node14&#45;&gt;Node4 -->
<g id="edge15" class="edge"><title>Node14&#45;&gt;Node4</title>
<path fill="none" stroke="midnightblue" d="M500.386,-70.4638C517.875,-72.8791 536.177,-75.4068 552.943,-77.7224"/>
<polygon fill="midnightblue" stroke="midnightblue" points="500.586,-66.9583 490.201,-69.0572 499.628,-73.8925 500.586,-66.9583"/>
</g>
<!-- Node16 -->
<g id="node16" class="node"><title>Node16</title>
<g id="a_node16"><a xlink:href="../../da/de3/classnars_1_1inference_1_1RuleTables_ac2d01dfdc40bdd47c757cb549217e6e3.html#ac2d01dfdc40bdd47c757cb549217e6e3" target="_top" xlink:title="Entry point of the inference engine. ">
<polygon fill="none" stroke="black" points="536,-6 536,-25 699,-25 699,-6 536,-6"/>
<text text-anchor="middle" x="617.5" y="-13" font-family="Helvetica,sans-Serif" font-size="10.00">nars.inference.RuleTables.reason</text>
</a>
</g>
</g>
<!-- Node15&#45;&gt;Node16 -->
<g id="edge17" class="edge"><title>Node15&#45;&gt;Node16</title>
<path fill="none" stroke="midnightblue" d="M510.499,-15.5C518.962,-15.5 527.507,-15.5 535.88,-15.5"/>
<polygon fill="midnightblue" stroke="midnightblue" points="510.236,-12.0001 500.236,-15.5 510.235,-19.0001 510.236,-12.0001"/>
</g>
<!-- Node17 -->
<g id="node17" class="node"><title>Node17</title>
<g id="a_node17"><a xlink:href="../../d4/d22/classnars_1_1entity_1_1Concept_ae07576c8466ad65eeb61040e3f71cfc7.html#ae07576c8466ad65eeb61040e3f71cfc7" target="_top" xlink:title="An atomic step in a concept, only called in Memory# processConcept. ">
<polygon fill="none" stroke="black" points="754,-6 754,-25 873,-25 873,-6 754,-6"/>
<text text-anchor="middle" x="813.5" y="-13" font-family="Helvetica,sans-Serif" font-size="10.00">nars.entity.Concept.fire</text>
</a>
</g>
</g>
<!-- Node16&#45;&gt;Node17 -->
<g id="edge18" class="edge"><title>Node16&#45;&gt;Node17</title>
<path fill="none" stroke="midnightblue" d="M709.461,-15.5C724.516,-15.5 739.765,-15.5 753.751,-15.5"/>
<polygon fill="midnightblue" stroke="midnightblue" points="709.088,-12.0001 699.088,-15.5 709.088,-19.0001 709.088,-12.0001"/>
</g>
<!-- Node18 -->
<g id="node18" class="node"><title>Node18</title>
<g id="a_node18"><a xlink:href="../../d8/df4/classnars_1_1storage_1_1Memory_a83154b55b922c82b73931d4f22e3a590.html#a83154b55b922c82b73931d4f22e3a590" target="_top" xlink:title="Select a concept to fire. ">
<polygon fill="none" stroke="black" points="928,-0.5 928,-30.5 1074,-30.5 1074,-0.5 928,-0.5"/>
<text text-anchor="start" x="936" y="-18.5" font-family="Helvetica,sans-Serif" font-size="10.00">nars.storage.Memory.process</text>
<text text-anchor="middle" x="1001" y="-7.5" font-family="Helvetica,sans-Serif" font-size="10.00">Concept</text>
</a>
</g>
</g>
<!-- Node17&#45;&gt;Node18 -->
<g id="edge19" class="edge"><title>Node17&#45;&gt;Node18</title>
<path fill="none" stroke="midnightblue" d="M883.519,-15.5C897.929,-15.5 913.158,-15.5 927.683,-15.5"/>
<polygon fill="midnightblue" stroke="midnightblue" points="883.193,-12.0001 873.193,-15.5 883.193,-19.0001 883.193,-12.0001"/>
</g>
<!-- Node18&#45;&gt;Node7 -->
<g id="edge20" class="edge"><title>Node18&#45;&gt;Node7</title>
<path fill="none" stroke="midnightblue" d="M1065.1,-33.3212C1083.83,-38.6118 1104.16,-44.3522 1122.21,-49.4484"/>
<polygon fill="midnightblue" stroke="midnightblue" points="1066.05,-29.9512 1055.47,-30.6014 1064.14,-36.6877 1066.05,-29.9512"/>
</g>
</g>
</svg>
