<?xml version="1.0" encoding="UTF-8" standalone="no"?>
<!DOCTYPE svg PUBLIC "-//W3C//DTD SVG 1.1//EN"
 "http://www.w3.org/Graphics/SVG/1.1/DTD/svg11.dtd">
<!-- Generated by graphviz version 2.38.0 (20140413.2041)
 -->
<!-- Title: nars.entity.Task.Task Pages: 1 -->
<svg width="467pt" height="78pt"
 viewBox="0.00 0.00 467.00 77.50" xmlns="http://www.w3.org/2000/svg" xmlns:xlink="http://www.w3.org/1999/xlink">
<g id="graph0" class="graph" transform="scale(1 1) rotate(0) translate(4 73.5)">
<title>nars.entity.Task.Task</title>
<!-- Node1 -->
<g id="node1" class="node"><title>Node1</title>
<polygon fill="#bfbfbf" stroke="black" points="0,-28 0,-47 112,-47 112,-28 0,-28"/>
<text text-anchor="middle" x="56" y="-35" font-family="Helvetica,sans-Serif" font-size="10.00">nars.entity.Task.Task</text>
</g>
<!-- Node2 -->
<g id="node2" class="node"><title>Node2</title>
<g id="a_node2"><a xlink:href="../../d6/d25/classnars_1_1entity_1_1Sentence_a32d81c9525d514aca8ddc5f4db48a762.html#a32d81c9525d514aca8ddc5f4db48a762" target="_top" xlink:title="Get a String representation of the sentence for key of Task and TaskLink. ">
<polygon fill="none" stroke="black" points="148,-28 148,-47 283,-47 283,-28 148,-28"/>
<text text-anchor="middle" x="215.5" y="-35" font-family="Helvetica,sans-Serif" font-size="10.00">nars.entity.Sentence.toKey</text>
</a>
</g>
</g>
<!-- Node1&#45;&gt;Node2 -->
<g id="edge1" class="edge"><title>Node1&#45;&gt;Node2</title>
<path fill="none" stroke="midnightblue" d="M112.086,-37.5C120.375,-37.5 129.049,-37.5 137.692,-37.5"/>
<polygon fill="midnightblue" stroke="midnightblue" points="137.799,-41.0001 147.799,-37.5 137.799,-34.0001 137.799,-41.0001"/>
</g>
<!-- Node3 -->
<g id="node3" class="node"><title>Node3</title>
<g id="a_node3"><a xlink:href="../../d8/db8/classnars_1_1language_1_1Term_a04fc046ba98c451bded562f79cff4244.html#a04fc046ba98c451bded562f79cff4244" target="_top" xlink:title="The same as getName by default, used in display only. ">
<polygon fill="none" stroke="black" points="319,-50 319,-69 459,-69 459,-50 319,-50"/>
<text text-anchor="middle" x="389" y="-57" font-family="Helvetica,sans-Serif" font-size="10.00">nars.language.Term.toString</text>
</a>
</g>
</g>
<!-- Node2&#45;&gt;Node3 -->
<g id="edge2" class="edge"><title>Node2&#45;&gt;Node3</title>
<path fill="none" stroke="midnightblue" d="M283.297,-46.0688C291.68,-47.1441 300.316,-48.252 308.865,-49.3486"/>
<polygon fill="midnightblue" stroke="midnightblue" points="308.475,-52.8271 318.839,-50.628 309.366,-45.884 308.475,-52.8271"/>
</g>
<!-- Node4 -->
<g id="node4" class="node"><title>Node4</title>
<g id="a_node4"><a xlink:href="../../d3/db8/classnars_1_1entity_1_1TruthValue_a5af8b2fe37987ba1e8396ec1aad38e90.html#a5af8b2fe37987ba1e8396ec1aad38e90" target="_top" xlink:title="A simplified String representation of a TruthValue, where each factor is accruate to 1%...">
<polygon fill="none" stroke="black" points="327,-0.5 327,-30.5 451,-30.5 451,-0.5 327,-0.5"/>
<text text-anchor="start" x="335" y="-18.5" font-family="Helvetica,sans-Serif" font-size="10.00">nars.entity.TruthValue.to</text>
<text text-anchor="middle" x="389" y="-7.5" font-family="Helvetica,sans-Serif" font-size="10.00">StringBrief</text>
</a>
</g>
</g>
<!-- Node2&#45;&gt;Node4 -->
<g id="edge3" class="edge"><title>Node2&#45;&gt;Node4</title>
<path fill="none" stroke="midnightblue" d="M283.297,-28.9312C294.315,-27.5179 305.771,-26.0483 316.89,-24.622"/>
<polygon fill="midnightblue" stroke="midnightblue" points="317.509,-28.0713 326.983,-23.3273 316.619,-21.1282 317.509,-28.0713"/>
</g>
</g>
</svg>
