<?xml version="1.0" encoding="UTF-8" standalone="no"?>
<!DOCTYPE svg PUBLIC "-//W3C//DTD SVG 1.1//EN"
 "http://www.w3.org/Graphics/SVG/1.1/DTD/svg11.dtd">
<!-- Generated by graphviz version 2.38.0 (20140413.2041)
 -->
<!-- Title: nars.entity.Task.isInput Pages: 1 -->
<svg width="2288pt" height="169pt"
 viewBox="0.00 0.00 2288.00 168.50" xmlns="http://www.w3.org/2000/svg" xmlns:xlink="http://www.w3.org/1999/xlink">
<g id="graph0" class="graph" transform="scale(1 1) rotate(0) translate(4 164.5)">
<title>nars.entity.Task.isInput</title>
<!-- Node1 -->
<g id="node1" class="node"><title>Node1</title>
<polygon fill="#bfbfbf" stroke="black" points="0,-113.5 0,-132.5 119,-132.5 119,-113.5 0,-113.5"/>
<text text-anchor="middle" x="59.5" y="-120.5" font-family="Helvetica,sans-Serif" font-size="10.00">nars.entity.Task.isInput</text>
</g>
<!-- Node2 -->
<g id="node2" class="node"><title>Node2</title>
<g id="a_node2"><a xlink:href="../../d8/df4/classnars_1_1storage_1_1Memory_a105e44a3504921cc1036eb979b85d9f0.html#a105e44a3504921cc1036eb979b85d9f0" target="_top" xlink:title="Process the newTasks accumulated in the previous workCycle, accept input ones and those that correspo...">
<polygon fill="none" stroke="black" points="923,-130 923,-160 1069,-160 1069,-130 923,-130"/>
<text text-anchor="start" x="931" y="-148" font-family="Helvetica,sans-Serif" font-size="10.00">nars.storage.Memory.process</text>
<text text-anchor="middle" x="996" y="-137" font-family="Helvetica,sans-Serif" font-size="10.00">NewTask</text>
</a>
</g>
</g>
<!-- Node1&#45;&gt;Node2 -->
<g id="edge1" class="edge"><title>Node1&#45;&gt;Node2</title>
<path fill="none" stroke="midnightblue" d="M129.394,-130.452C200.569,-137.498 314.916,-147 414,-147 414,-147 414,-147 613.5,-147 721.295,-147 846.221,-146.192 922.928,-145.603"/>
<polygon fill="midnightblue" stroke="midnightblue" points="129.512,-126.946 119.212,-129.432 128.814,-133.911 129.512,-126.946"/>
</g>
<!-- Node9 -->
<g id="node9" class="node"><title>Node9</title>
<g id="a_node9"><a xlink:href="../../d4/de9/classnars_1_1inference_1_1LocalRules_a3ecf859c238ad7f0c44c45e3e5df0081.html#a3ecf859c238ad7f0c44c45e3e5df0081" target="_top" xlink:title="Check if a Sentence provide a better answer to a Question or Goal. ">
<polygon fill="none" stroke="black" points="155,-62 155,-92 299,-92 299,-62 155,-62"/>
<text text-anchor="start" x="163" y="-80" font-family="Helvetica,sans-Serif" font-size="10.00">nars.inference.LocalRules.try</text>
<text text-anchor="middle" x="227" y="-69" font-family="Helvetica,sans-Serif" font-size="10.00">Solution</text>
</a>
</g>
</g>
<!-- Node1&#45;&gt;Node9 -->
<g id="edge8" class="edge"><title>Node1&#45;&gt;Node9</title>
<path fill="none" stroke="midnightblue" d="M104.575,-110.75C125.248,-105.004 150.076,-98.1029 171.879,-92.0427"/>
<polygon fill="midnightblue" stroke="midnightblue" points="103.489,-107.419 94.7917,-113.469 105.364,-114.163 103.489,-107.419"/>
</g>
<!-- Node3 -->
<g id="node3" class="node"><title>Node3</title>
<g id="a_node3"><a xlink:href="../../d8/df4/classnars_1_1storage_1_1Memory_a49e2cbc8b78d535f4d69739886ee966a.html#a49e2cbc8b78d535f4d69739886ee966a" target="_top" xlink:title="An atomic working workCycle of the system: process new Tasks, then fire a concept. ">
<polygon fill="none" stroke="black" points="1105,-81 1105,-111 1238,-111 1238,-81 1105,-81"/>
<text text-anchor="start" x="1113" y="-99" font-family="Helvetica,sans-Serif" font-size="10.00">nars.storage.Memory.work</text>
<text text-anchor="middle" x="1171.5" y="-88" font-family="Helvetica,sans-Serif" font-size="10.00">Cycle</text>
</a>
</g>
</g>
<!-- Node2&#45;&gt;Node3 -->
<g id="edge2" class="edge"><title>Node2&#45;&gt;Node3</title>
<path fill="none" stroke="midnightblue" d="M1060.1,-127.179C1078.83,-121.888 1099.16,-116.148 1117.21,-111.052"/>
<polygon fill="midnightblue" stroke="midnightblue" points="1059.14,-123.812 1050.47,-129.899 1061.05,-130.549 1059.14,-123.812"/>
</g>
<!-- Node4 -->
<g id="node4" class="node"><title>Node4</title>
<g id="a_node4"><a xlink:href="../../dd/da5/classnars_1_1storage_1_1Memory_1_1ReasonerBatch_acc60dec23da774957a85362ed6d7448b.html#acc60dec23da774957a85362ed6d7448b" target="_top" xlink:title="nars.storage.Memory.Reasoner\lBatch.doTick">
<polygon fill="none" stroke="black" points="1274,-81 1274,-111 1428,-111 1428,-81 1274,-81"/>
<text text-anchor="start" x="1282" y="-99" font-family="Helvetica,sans-Serif" font-size="10.00">nars.storage.Memory.Reasoner</text>
<text text-anchor="middle" x="1351" y="-88" font-family="Helvetica,sans-Serif" font-size="10.00">Batch.doTick</text>
</a>
</g>
</g>
<!-- Node3&#45;&gt;Node4 -->
<g id="edge3" class="edge"><title>Node3&#45;&gt;Node4</title>
<path fill="none" stroke="midnightblue" d="M1248.32,-96C1256.79,-96 1265.41,-96 1273.89,-96"/>
<polygon fill="midnightblue" stroke="midnightblue" points="1248.09,-92.5001 1238.09,-96 1248.09,-99.5001 1248.09,-92.5001"/>
</g>
<!-- Node5 -->
<g id="node5" class="node"><title>Node5</title>
<g id="a_node5"><a xlink:href="../../dd/da5/classnars_1_1storage_1_1Memory_1_1ReasonerBatch_aed591f05899b98fd9e4ad01836ad0a40.html#aed591f05899b98fd9e4ad01836ad0a40" target="_top" xlink:title="A clock tick. ">
<polygon fill="none" stroke="black" points="1464,-81 1464,-111 1618,-111 1618,-81 1464,-81"/>
<text text-anchor="start" x="1472" y="-99" font-family="Helvetica,sans-Serif" font-size="10.00">nars.storage.Memory.Reasoner</text>
<text text-anchor="middle" x="1541" y="-88" font-family="Helvetica,sans-Serif" font-size="10.00">Batch.tick</text>
</a>
</g>
</g>
<!-- Node4&#45;&gt;Node5 -->
<g id="edge4" class="edge"><title>Node4&#45;&gt;Node5</title>
<path fill="none" stroke="midnightblue" d="M1438.42,-96C1446.86,-96 1455.37,-96 1463.7,-96"/>
<polygon fill="midnightblue" stroke="midnightblue" points="1438.2,-92.5001 1428.2,-96 1438.2,-99.5001 1438.2,-92.5001"/>
</g>
<!-- Node6 -->
<g id="node6" class="node"><title>Node6</title>
<g id="a_node6"><a xlink:href="../../d4/d88/classnars_1_1storage_1_1Memory_1_1NARSBatch_aad99db6cedde9cff2a997db8906ff821.html#aad99db6cedde9cff2a997db8906ff821" target="_top" xlink:title="Run to completion: repeatedly execute NARS working cycle, until Inputs are Finished, or 1000 steps. ">
<polygon fill="none" stroke="black" points="1654,-86.5 1654,-105.5 1836,-105.5 1836,-86.5 1654,-86.5"/>
<text text-anchor="middle" x="1745" y="-93.5" font-family="Helvetica,sans-Serif" font-size="10.00">nars.storage.Memory.NARSBatch.run</text>
</a>
</g>
</g>
<!-- Node5&#45;&gt;Node6 -->
<g id="edge5" class="edge"><title>Node5&#45;&gt;Node6</title>
<path fill="none" stroke="midnightblue" d="M1628.27,-96C1636.69,-96 1645.25,-96 1653.71,-96"/>
<polygon fill="midnightblue" stroke="midnightblue" points="1628.08,-92.5001 1618.08,-96 1628.08,-99.5001 1628.08,-92.5001"/>
</g>
<!-- Node7 -->
<g id="node7" class="node"><title>Node7</title>
<g id="a_node7"><a xlink:href="../../d4/d88/classnars_1_1storage_1_1Memory_1_1NARSBatch_a416c39463faa161661ed1d12fea03b3c.html#a416c39463faa161661ed1d12fea03b3c" target="_top" xlink:title="non&#45;static equivalent to main(String[]) : run to completion from an input file ">
<polygon fill="none" stroke="black" points="1872,-81 1872,-111 2054,-111 2054,-81 1872,-81"/>
<text text-anchor="start" x="1880" y="-99" font-family="Helvetica,sans-Serif" font-size="10.00">nars.storage.Memory.NARSBatch.run</text>
<text text-anchor="middle" x="1963" y="-88" font-family="Helvetica,sans-Serif" font-size="10.00">Inference</text>
</a>
</g>
</g>
<!-- Node6&#45;&gt;Node7 -->
<g id="edge6" class="edge"><title>Node6&#45;&gt;Node7</title>
<path fill="none" stroke="midnightblue" d="M1846.06,-96C1854.63,-96 1863.27,-96 1871.76,-96"/>
<polygon fill="midnightblue" stroke="midnightblue" points="1846.04,-92.5001 1836.04,-96 1846.04,-99.5001 1846.04,-92.5001"/>
</g>
<!-- Node8 -->
<g id="node8" class="node"><title>Node8</title>
<g id="a_node8"><a xlink:href="../../d4/d88/classnars_1_1storage_1_1Memory_1_1NARSBatch_aa97fcd68270583e60e6bf1b4579d1bdc.html#aa97fcd68270583e60e6bf1b4579d1bdc" target="_top" xlink:title="The entry point of the standalone application. ">
<polygon fill="none" stroke="black" points="2090,-86.5 2090,-105.5 2280,-105.5 2280,-86.5 2090,-86.5"/>
<text text-anchor="middle" x="2185" y="-93.5" font-family="Helvetica,sans-Serif" font-size="10.00">nars.storage.Memory.NARSBatch.main</text>
</a>
</g>
</g>
<!-- Node7&#45;&gt;Node8 -->
<g id="edge7" class="edge"><title>Node7&#45;&gt;Node8</title>
<path fill="none" stroke="midnightblue" d="M2064.37,-96C2072.82,-96 2081.34,-96 2089.74,-96"/>
<polygon fill="midnightblue" stroke="midnightblue" points="2064.12,-92.5001 2054.12,-96 2064.12,-99.5001 2064.12,-92.5001"/>
</g>
<!-- Node10 -->
<g id="node10" class="node"><title>Node10</title>
<g id="a_node10"><a xlink:href="../../d4/d22/classnars_1_1entity_1_1Concept_a40cddcc82ee28a1cf5b1f4bc14e2b078.html#a40cddcc82ee28a1cf5b1f4bc14e2b078" target="_top" xlink:title="To accept a new judgment as isBelief, and check for revisions and solutions. ">
<polygon fill="none" stroke="black" points="345,-88 345,-118 485,-118 485,-88 345,-88"/>
<text text-anchor="start" x="353" y="-106" font-family="Helvetica,sans-Serif" font-size="10.00">nars.entity.Concept.process</text>
<text text-anchor="middle" x="415" y="-95" font-family="Helvetica,sans-Serif" font-size="10.00">Judgment</text>
</a>
</g>
</g>
<!-- Node9&#45;&gt;Node10 -->
<g id="edge9" class="edge"><title>Node9&#45;&gt;Node10</title>
<path fill="none" stroke="midnightblue" d="M309.039,-88.328C320.948,-89.9927 333.123,-91.6947 344.766,-93.3222"/>
<polygon fill="midnightblue" stroke="midnightblue" points="309.503,-84.859 299.115,-86.9408 308.534,-91.7916 309.503,-84.859"/>
</g>
<!-- Node14 -->
<g id="node14" class="node"><title>Node14</title>
<g id="a_node14"><a xlink:href="../../d4/d22/classnars_1_1entity_1_1Concept_a3900248991e7adb57e82231312337f8f.html#a3900248991e7adb57e82231312337f8f" target="_top" xlink:title="To answer a question by existing beliefs. ">
<polygon fill="none" stroke="black" points="345,-39 345,-69 485,-69 485,-39 345,-39"/>
<text text-anchor="start" x="353" y="-57" font-family="Helvetica,sans-Serif" font-size="10.00">nars.entity.Concept.process</text>
<text text-anchor="middle" x="415" y="-46" font-family="Helvetica,sans-Serif" font-size="10.00">Question</text>
</a>
</g>
</g>
<!-- Node9&#45;&gt;Node14 -->
<g id="edge15" class="edge"><title>Node9&#45;&gt;Node14</title>
<path fill="none" stroke="midnightblue" d="M309.396,-66.9349C321.191,-65.4763 333.24,-63.9865 344.766,-62.5612"/>
<polygon fill="midnightblue" stroke="midnightblue" points="308.61,-63.5054 299.115,-68.2062 309.469,-70.4525 308.61,-63.5054"/>
</g>
<!-- Node15 -->
<g id="node15" class="node"><title>Node15</title>
<g id="a_node15"><a xlink:href="../../d4/de9/classnars_1_1inference_1_1LocalRules_aac1c92950f50edd04d12229a8c992987.html#aac1c92950f50edd04d12229a8c992987" target="_top" xlink:title="The task and belief have the same content. ">
<polygon fill="none" stroke="black" points="335,-0.5 335,-19.5 495,-19.5 495,-0.5 335,-0.5"/>
<text text-anchor="middle" x="415" y="-7.5" font-family="Helvetica,sans-Serif" font-size="10.00">nars.inference.LocalRules.match</text>
</a>
</g>
</g>
<!-- Node9&#45;&gt;Node15 -->
<g id="edge17" class="edge"><title>Node9&#45;&gt;Node15</title>
<path fill="none" stroke="midnightblue" d="M266.934,-57.4328C286.923,-47.9298 311.878,-36.8903 335,-29 345.547,-25.4009 357.107,-22.2138 368.052,-19.5271"/>
<polygon fill="midnightblue" stroke="midnightblue" points="265.328,-54.3212 257.837,-61.8135 268.365,-60.628 265.328,-54.3212"/>
</g>
<!-- Node11 -->
<g id="node11" class="node"><title>Node11</title>
<g id="a_node11"><a xlink:href="../../d4/d22/classnars_1_1entity_1_1Concept_a9ea7c3154932d7a736c105eb55daeb5c.html#a9ea7c3154932d7a736c105eb55daeb5c" target="_top" xlink:title="Directly process a new task. ">
<polygon fill="none" stroke="black" points="548,-84 548,-114 677,-114 677,-84 548,-84"/>
<text text-anchor="start" x="556" y="-102" font-family="Helvetica,sans-Serif" font-size="10.00">nars.entity.Concept.direct</text>
<text text-anchor="middle" x="612.5" y="-91" font-family="Helvetica,sans-Serif" font-size="10.00">Process</text>
</a>
</g>
</g>
<!-- Node10&#45;&gt;Node11 -->
<g id="edge10" class="edge"><title>Node10&#45;&gt;Node11</title>
<path fill="none" stroke="midnightblue" d="M495.386,-101.376C512.875,-101.018 531.177,-100.643 547.943,-100.3"/>
<polygon fill="midnightblue" stroke="midnightblue" points="495.127,-97.8802 485.201,-101.584 495.271,-104.879 495.127,-97.8802"/>
</g>
<!-- Node12 -->
<g id="node12" class="node"><title>Node12</title>
<g id="a_node12"><a xlink:href="../../d8/df4/classnars_1_1storage_1_1Memory_a175200c1f4c182222d0e66439b6e53a0.html#a175200c1f4c182222d0e66439b6e53a0" target="_top" xlink:title="Immediate processing of a new task, in constant time Local processing, in one concept only...">
<polygon fill="none" stroke="black" points="730,-84 730,-114 887,-114 887,-84 730,-84"/>
<text text-anchor="start" x="738" y="-102" font-family="Helvetica,sans-Serif" font-size="10.00">nars.storage.Memory.immediate</text>
<text text-anchor="middle" x="808.5" y="-91" font-family="Helvetica,sans-Serif" font-size="10.00">Process</text>
</a>
</g>
</g>
<!-- Node11&#45;&gt;Node12 -->
<g id="edge11" class="edge"><title>Node11&#45;&gt;Node12</title>
<path fill="none" stroke="midnightblue" d="M687.088,-99C701.105,-99 715.815,-99 729.95,-99"/>
<polygon fill="midnightblue" stroke="midnightblue" points="687.023,-95.5001 677.023,-99 687.023,-102.5 687.023,-95.5001"/>
</g>
<!-- Node12&#45;&gt;Node2 -->
<g id="edge12" class="edge"><title>Node12&#45;&gt;Node2</title>
<path fill="none" stroke="midnightblue" d="M880.055,-116.496C897.975,-120.94 917.068,-125.675 934.441,-129.983"/>
<polygon fill="midnightblue" stroke="midnightblue" points="880.788,-113.072 870.24,-114.062 879.103,-119.866 880.788,-113.072"/>
</g>
<!-- Node13 -->
<g id="node13" class="node"><title>Node13</title>
<g id="a_node13"><a xlink:href="../../d8/df4/classnars_1_1storage_1_1Memory_afe3b4d1bb5fab652ceca53c04773af73.html#afe3b4d1bb5fab652ceca53c04773af73" target="_top" xlink:title="Select a novel task to process. ">
<polygon fill="none" stroke="black" points="923,-81 923,-111 1069,-111 1069,-81 923,-81"/>
<text text-anchor="start" x="931" y="-99" font-family="Helvetica,sans-Serif" font-size="10.00">nars.storage.Memory.process</text>
<text text-anchor="middle" x="996" y="-88" font-family="Helvetica,sans-Serif" font-size="10.00">NovelTask</text>
</a>
</g>
</g>
<!-- Node12&#45;&gt;Node13 -->
<g id="edge13" class="edge"><title>Node12&#45;&gt;Node13</title>
<path fill="none" stroke="midnightblue" d="M897.125,-97.5829C905.707,-97.4441 914.349,-97.3043 922.754,-97.1684"/>
<polygon fill="midnightblue" stroke="midnightblue" points="897.036,-94.0838 887.094,-97.7451 897.149,-101.083 897.036,-94.0838"/>
</g>
<!-- Node13&#45;&gt;Node3 -->
<g id="edge14" class="edge"><title>Node13&#45;&gt;Node3</title>
<path fill="none" stroke="midnightblue" d="M1079.12,-96C1087.72,-96 1096.37,-96 1104.76,-96"/>
<polygon fill="midnightblue" stroke="midnightblue" points="1079.07,-92.5001 1069.07,-96 1079.07,-99.5001 1079.07,-92.5001"/>
</g>
<!-- Node14&#45;&gt;Node11 -->
<g id="edge16" class="edge"><title>Node14&#45;&gt;Node11</title>
<path fill="none" stroke="midnightblue" d="M491.308,-71.3342C509.977,-75.6315 529.801,-80.1945 547.851,-84.3493"/>
<polygon fill="midnightblue" stroke="midnightblue" points="491.901,-67.8793 481.37,-69.0469 490.331,-74.7009 491.901,-67.8793"/>
</g>
<!-- Node16 -->
<g id="node16" class="node"><title>Node16</title>
<g id="a_node16"><a xlink:href="../../da/de3/classnars_1_1inference_1_1RuleTables_ac2d01dfdc40bdd47c757cb549217e6e3.html#ac2d01dfdc40bdd47c757cb549217e6e3" target="_top" xlink:title="Entry point of the inference engine. ">
<polygon fill="none" stroke="black" points="531,-5.5 531,-24.5 694,-24.5 694,-5.5 531,-5.5"/>
<text text-anchor="middle" x="612.5" y="-12.5" font-family="Helvetica,sans-Serif" font-size="10.00">nars.inference.RuleTables.reason</text>
</a>
</g>
</g>
<!-- Node15&#45;&gt;Node16 -->
<g id="edge18" class="edge"><title>Node15&#45;&gt;Node16</title>
<path fill="none" stroke="midnightblue" d="M505.499,-12.289C513.962,-12.5054 522.507,-12.724 530.88,-12.9381"/>
<polygon fill="midnightblue" stroke="midnightblue" points="505.322,-8.78339 495.236,-12.0265 505.143,-15.7811 505.322,-8.78339"/>
</g>
<!-- Node17 -->
<g id="node17" class="node"><title>Node17</title>
<g id="a_node17"><a xlink:href="../../d4/d22/classnars_1_1entity_1_1Concept_ae07576c8466ad65eeb61040e3f71cfc7.html#ae07576c8466ad65eeb61040e3f71cfc7" target="_top" xlink:title="An atomic step in a concept, only called in Memory# processConcept. ">
<polygon fill="none" stroke="black" points="749,-15.5 749,-34.5 868,-34.5 868,-15.5 749,-15.5"/>
<text text-anchor="middle" x="808.5" y="-22.5" font-family="Helvetica,sans-Serif" font-size="10.00">nars.entity.Concept.fire</text>
</a>
</g>
</g>
<!-- Node16&#45;&gt;Node17 -->
<g id="edge19" class="edge"><title>Node16&#45;&gt;Node17</title>
<path fill="none" stroke="midnightblue" d="M704.461,-19.6887C719.516,-20.4647 734.765,-21.2508 748.751,-21.9717"/>
<polygon fill="midnightblue" stroke="midnightblue" points="704.255,-16.1735 694.088,-19.154 703.895,-23.1643 704.255,-16.1735"/>
</g>
<!-- Node18 -->
<g id="node18" class="node"><title>Node18</title>
<g id="a_node18"><a xlink:href="../../d8/df4/classnars_1_1storage_1_1Memory_a83154b55b922c82b73931d4f22e3a590.html#a83154b55b922c82b73931d4f22e3a590" target="_top" xlink:title="Select a concept to fire. ">
<polygon fill="none" stroke="black" points="923,-13 923,-43 1069,-43 1069,-13 923,-13"/>
<text text-anchor="start" x="931" y="-31" font-family="Helvetica,sans-Serif" font-size="10.00">nars.storage.Memory.process</text>
<text text-anchor="middle" x="996" y="-20" font-family="Helvetica,sans-Serif" font-size="10.00">Concept</text>
</a>
</g>
</g>
<!-- Node17&#45;&gt;Node18 -->
<g id="edge20" class="edge"><title>Node17&#45;&gt;Node18</title>
<path fill="none" stroke="midnightblue" d="M878.519,-26.1162C892.929,-26.3493 908.158,-26.5955 922.683,-26.8305"/>
<polygon fill="midnightblue" stroke="midnightblue" points="878.249,-22.6115 868.193,-25.9492 878.135,-29.6106 878.249,-22.6115"/>
</g>
<!-- Node18&#45;&gt;Node3 -->
<g id="edge21" class="edge"><title>Node18&#45;&gt;Node3</title>
<path fill="none" stroke="midnightblue" d="M1044.92,-46.783C1072.39,-57.549 1106.41,-70.8796 1132.1,-80.9508"/>
<polygon fill="midnightblue" stroke="midnightblue" points="1046.09,-43.4819 1035.51,-43.0914 1043.54,-49.9992 1046.09,-43.4819"/>
</g>
</g>
</svg>
