<?xml version="1.0" encoding="UTF-8" standalone="no"?>
<!DOCTYPE svg PUBLIC "-//W3C//DTD SVG 1.1//EN"
 "http://www.w3.org/Graphics/SVG/1.1/DTD/svg11.dtd">
<!-- Generated by graphviz version 2.38.0 (20140413.2041)
 -->
<!-- Title: nars.entity.Task.toString Pages: 1 -->
<svg width="2502pt" height="137pt"
 viewBox="0.00 0.00 2502.00 137.00" xmlns="http://www.w3.org/2000/svg" xmlns:xlink="http://www.w3.org/1999/xlink">
<g id="graph0" class="graph" transform="scale(1 1) rotate(0) translate(4 133)">
<title>nars.entity.Task.toString</title>
<!-- Node1 -->
<g id="node1" class="node"><title>Node1</title>
<polygon fill="#bfbfbf" stroke="black" points="0,-50 0,-69 124,-69 124,-50 0,-50"/>
<text text-anchor="middle" x="62" y="-57" font-family="Helvetica,sans-Serif" font-size="10.00">nars.entity.Task.toString</text>
</g>
<!-- Node2 -->
<g id="node2" class="node"><title>Node2</title>
<g id="a_node2"><a xlink:href="../../d8/df4/classnars_1_1storage_1_1Memory_aa0cec63b98350a34c10513f3efeaff86.html#aa0cec63b98350a34c10513f3efeaff86" target="_top" xlink:title="Activated task called in MatchingRules.trySolution and Concept.processGoal. ">
<polygon fill="none" stroke="black" points="160,-50 160,-69 333,-69 333,-50 160,-50"/>
<text text-anchor="middle" x="246.5" y="-57" font-family="Helvetica,sans-Serif" font-size="10.00">nars.storage.Memory.activatedTask</text>
</a>
</g>
</g>
<!-- Node1&#45;&gt;Node2 -->
<g id="edge1" class="edge"><title>Node1&#45;&gt;Node2</title>
<path fill="none" stroke="midnightblue" d="M134.158,-59.5C142.582,-59.5 151.245,-59.5 159.843,-59.5"/>
<polygon fill="midnightblue" stroke="midnightblue" points="134.024,-56.0001 124.024,-59.5 134.024,-63.0001 134.024,-56.0001"/>
</g>
<!-- Node3 -->
<g id="node3" class="node"><title>Node3</title>
<g id="a_node3"><a xlink:href="../../d4/de9/classnars_1_1inference_1_1LocalRules_a3ecf859c238ad7f0c44c45e3e5df0081.html#a3ecf859c238ad7f0c44c45e3e5df0081" target="_top" xlink:title="Check if a Sentence provide a better answer to a Question or Goal. ">
<polygon fill="none" stroke="black" points="369,-44.5 369,-74.5 513,-74.5 513,-44.5 369,-44.5"/>
<text text-anchor="start" x="377" y="-62.5" font-family="Helvetica,sans-Serif" font-size="10.00">nars.inference.LocalRules.try</text>
<text text-anchor="middle" x="441" y="-51.5" font-family="Helvetica,sans-Serif" font-size="10.00">Solution</text>
</a>
</g>
</g>
<!-- Node2&#45;&gt;Node3 -->
<g id="edge2" class="edge"><title>Node2&#45;&gt;Node3</title>
<path fill="none" stroke="midnightblue" d="M343.173,-59.5C351.809,-59.5 360.451,-59.5 368.821,-59.5"/>
<polygon fill="midnightblue" stroke="midnightblue" points="343.054,-56.0001 333.054,-59.5 343.054,-63.0001 343.054,-56.0001"/>
</g>
<!-- Node4 -->
<g id="node4" class="node"><title>Node4</title>
<g id="a_node4"><a xlink:href="../../d4/d22/classnars_1_1entity_1_1Concept_a40cddcc82ee28a1cf5b1f4bc14e2b078.html#a40cddcc82ee28a1cf5b1f4bc14e2b078" target="_top" xlink:title="To accept a new judgment as isBelief, and check for revisions and solutions. ">
<polygon fill="none" stroke="black" points="559,-93.5 559,-123.5 699,-123.5 699,-93.5 559,-93.5"/>
<text text-anchor="start" x="567" y="-111.5" font-family="Helvetica,sans-Serif" font-size="10.00">nars.entity.Concept.process</text>
<text text-anchor="middle" x="629" y="-100.5" font-family="Helvetica,sans-Serif" font-size="10.00">Judgment</text>
</a>
</g>
</g>
<!-- Node3&#45;&gt;Node4 -->
<g id="edge3" class="edge"><title>Node3&#45;&gt;Node4</title>
<path fill="none" stroke="midnightblue" d="M508.895,-77.1229C529.244,-82.4837 551.408,-88.3225 571.038,-93.4938"/>
<polygon fill="midnightblue" stroke="midnightblue" points="509.632,-73.6977 499.07,-74.5346 507.849,-80.4667 509.632,-73.6977"/>
</g>
<!-- Node15 -->
<g id="node15" class="node"><title>Node15</title>
<g id="a_node15"><a xlink:href="../../d4/d22/classnars_1_1entity_1_1Concept_a3900248991e7adb57e82231312337f8f.html#a3900248991e7adb57e82231312337f8f" target="_top" xlink:title="To answer a question by existing beliefs. ">
<polygon fill="none" stroke="black" points="559,-44.5 559,-74.5 699,-74.5 699,-44.5 559,-44.5"/>
<text text-anchor="start" x="567" y="-62.5" font-family="Helvetica,sans-Serif" font-size="10.00">nars.entity.Concept.process</text>
<text text-anchor="middle" x="629" y="-51.5" font-family="Helvetica,sans-Serif" font-size="10.00">Question</text>
</a>
</g>
</g>
<!-- Node3&#45;&gt;Node15 -->
<g id="edge15" class="edge"><title>Node3&#45;&gt;Node15</title>
<path fill="none" stroke="midnightblue" d="M523.396,-59.5C535.191,-59.5 547.24,-59.5 558.766,-59.5"/>
<polygon fill="midnightblue" stroke="midnightblue" points="523.115,-56.0001 513.115,-59.5 523.115,-63.0001 523.115,-56.0001"/>
</g>
<!-- Node16 -->
<g id="node16" class="node"><title>Node16</title>
<g id="a_node16"><a xlink:href="../../d4/de9/classnars_1_1inference_1_1LocalRules_aac1c92950f50edd04d12229a8c992987.html#aac1c92950f50edd04d12229a8c992987" target="_top" xlink:title="The task and belief have the same content. ">
<polygon fill="none" stroke="black" points="549,-6 549,-25 709,-25 709,-6 549,-6"/>
<text text-anchor="middle" x="629" y="-13" font-family="Helvetica,sans-Serif" font-size="10.00">nars.inference.LocalRules.match</text>
</a>
</g>
</g>
<!-- Node3&#45;&gt;Node16 -->
<g id="edge17" class="edge"><title>Node3&#45;&gt;Node16</title>
<path fill="none" stroke="midnightblue" d="M515.539,-42.1036C540.16,-36.2794 566.685,-30.0046 587.788,-25.0124"/>
<polygon fill="midnightblue" stroke="midnightblue" points="514.416,-38.7726 505.49,-44.4808 516.028,-45.5846 514.416,-38.7726"/>
</g>
<!-- Node5 -->
<g id="node5" class="node"><title>Node5</title>
<g id="a_node5"><a xlink:href="../../d4/d22/classnars_1_1entity_1_1Concept_a9ea7c3154932d7a736c105eb55daeb5c.html#a9ea7c3154932d7a736c105eb55daeb5c" target="_top" xlink:title="Directly process a new task. ">
<polygon fill="none" stroke="black" points="762,-71.5 762,-101.5 891,-101.5 891,-71.5 762,-71.5"/>
<text text-anchor="start" x="770" y="-89.5" font-family="Helvetica,sans-Serif" font-size="10.00">nars.entity.Concept.direct</text>
<text text-anchor="middle" x="826.5" y="-78.5" font-family="Helvetica,sans-Serif" font-size="10.00">Process</text>
</a>
</g>
</g>
<!-- Node4&#45;&gt;Node5 -->
<g id="edge4" class="edge"><title>Node4&#45;&gt;Node5</title>
<path fill="none" stroke="midnightblue" d="M709.386,-99.5665C726.875,-97.5985 745.177,-95.5389 761.943,-93.6522"/>
<polygon fill="midnightblue" stroke="midnightblue" points="708.747,-96.1163 699.201,-100.713 709.53,-103.072 708.747,-96.1163"/>
</g>
<!-- Node6 -->
<g id="node6" class="node"><title>Node6</title>
<g id="a_node6"><a xlink:href="../../d8/df4/classnars_1_1storage_1_1Memory_a175200c1f4c182222d0e66439b6e53a0.html#a175200c1f4c182222d0e66439b6e53a0" target="_top" xlink:title="Immediate processing of a new task, in constant time Local processing, in one concept only...">
<polygon fill="none" stroke="black" points="944,-71.5 944,-101.5 1101,-101.5 1101,-71.5 944,-71.5"/>
<text text-anchor="start" x="952" y="-89.5" font-family="Helvetica,sans-Serif" font-size="10.00">nars.storage.Memory.immediate</text>
<text text-anchor="middle" x="1022.5" y="-78.5" font-family="Helvetica,sans-Serif" font-size="10.00">Process</text>
</a>
</g>
</g>
<!-- Node5&#45;&gt;Node6 -->
<g id="edge5" class="edge"><title>Node5&#45;&gt;Node6</title>
<path fill="none" stroke="midnightblue" d="M901.088,-86.5C915.105,-86.5 929.815,-86.5 943.95,-86.5"/>
<polygon fill="midnightblue" stroke="midnightblue" points="901.023,-83.0001 891.023,-86.5 901.023,-90.0001 901.023,-83.0001"/>
</g>
<!-- Node7 -->
<g id="node7" class="node"><title>Node7</title>
<g id="a_node7"><a xlink:href="../../d8/df4/classnars_1_1storage_1_1Memory_a105e44a3504921cc1036eb979b85d9f0.html#a105e44a3504921cc1036eb979b85d9f0" target="_top" xlink:title="Process the newTasks accumulated in the previous workCycle, accept input ones and those that correspo...">
<polygon fill="none" stroke="black" points="1137,-98.5 1137,-128.5 1283,-128.5 1283,-98.5 1137,-98.5"/>
<text text-anchor="start" x="1145" y="-116.5" font-family="Helvetica,sans-Serif" font-size="10.00">nars.storage.Memory.process</text>
<text text-anchor="middle" x="1210" y="-105.5" font-family="Helvetica,sans-Serif" font-size="10.00">NewTask</text>
</a>
</g>
</g>
<!-- Node6&#45;&gt;Node7 -->
<g id="edge6" class="edge"><title>Node6&#45;&gt;Node7</title>
<path fill="none" stroke="midnightblue" d="M1111.12,-99.254C1119.71,-100.503 1128.35,-101.761 1136.75,-102.984"/>
<polygon fill="midnightblue" stroke="midnightblue" points="1111.49,-95.7709 1101.09,-97.794 1110.49,-102.698 1111.49,-95.7709"/>
</g>
<!-- Node14 -->
<g id="node14" class="node"><title>Node14</title>
<g id="a_node14"><a xlink:href="../../d8/df4/classnars_1_1storage_1_1Memory_afe3b4d1bb5fab652ceca53c04773af73.html#afe3b4d1bb5fab652ceca53c04773af73" target="_top" xlink:title="Select a novel task to process. ">
<polygon fill="none" stroke="black" points="1137,-49.5 1137,-79.5 1283,-79.5 1283,-49.5 1137,-49.5"/>
<text text-anchor="start" x="1145" y="-67.5" font-family="Helvetica,sans-Serif" font-size="10.00">nars.storage.Memory.process</text>
<text text-anchor="middle" x="1210" y="-56.5" font-family="Helvetica,sans-Serif" font-size="10.00">NovelTask</text>
</a>
</g>
</g>
<!-- Node6&#45;&gt;Node14 -->
<g id="edge13" class="edge"><title>Node6&#45;&gt;Node14</title>
<path fill="none" stroke="midnightblue" d="M1111.12,-76.1079C1119.71,-75.09 1128.35,-74.0651 1136.75,-73.0683"/>
<polygon fill="midnightblue" stroke="midnightblue" points="1110.61,-72.644 1101.09,-77.2975 1111.44,-79.5953 1110.61,-72.644"/>
</g>
<!-- Node8 -->
<g id="node8" class="node"><title>Node8</title>
<g id="a_node8"><a xlink:href="../../d8/df4/classnars_1_1storage_1_1Memory_a49e2cbc8b78d535f4d69739886ee966a.html#a49e2cbc8b78d535f4d69739886ee966a" target="_top" xlink:title="An atomic working workCycle of the system: process new Tasks, then fire a concept. ">
<polygon fill="none" stroke="black" points="1319,-49.5 1319,-79.5 1452,-79.5 1452,-49.5 1319,-49.5"/>
<text text-anchor="start" x="1327" y="-67.5" font-family="Helvetica,sans-Serif" font-size="10.00">nars.storage.Memory.work</text>
<text text-anchor="middle" x="1385.5" y="-56.5" font-family="Helvetica,sans-Serif" font-size="10.00">Cycle</text>
</a>
</g>
</g>
<!-- Node7&#45;&gt;Node8 -->
<g id="edge7" class="edge"><title>Node7&#45;&gt;Node8</title>
<path fill="none" stroke="midnightblue" d="M1274.1,-95.6788C1292.83,-90.3882 1313.16,-84.6478 1331.21,-79.5516"/>
<polygon fill="midnightblue" stroke="midnightblue" points="1273.14,-92.3123 1264.47,-98.3986 1275.05,-99.0488 1273.14,-92.3123"/>
</g>
<!-- Node9 -->
<g id="node9" class="node"><title>Node9</title>
<g id="a_node9"><a xlink:href="../../dd/da5/classnars_1_1storage_1_1Memory_1_1ReasonerBatch_acc60dec23da774957a85362ed6d7448b.html#acc60dec23da774957a85362ed6d7448b" target="_top" xlink:title="nars.storage.Memory.Reasoner\lBatch.doTick">
<polygon fill="none" stroke="black" points="1488,-49.5 1488,-79.5 1642,-79.5 1642,-49.5 1488,-49.5"/>
<text text-anchor="start" x="1496" y="-67.5" font-family="Helvetica,sans-Serif" font-size="10.00">nars.storage.Memory.Reasoner</text>
<text text-anchor="middle" x="1565" y="-56.5" font-family="Helvetica,sans-Serif" font-size="10.00">Batch.doTick</text>
</a>
</g>
</g>
<!-- Node8&#45;&gt;Node9 -->
<g id="edge8" class="edge"><title>Node8&#45;&gt;Node9</title>
<path fill="none" stroke="midnightblue" d="M1462.32,-64.5C1470.79,-64.5 1479.41,-64.5 1487.89,-64.5"/>
<polygon fill="midnightblue" stroke="midnightblue" points="1462.09,-61.0001 1452.09,-64.5 1462.09,-68.0001 1462.09,-61.0001"/>
</g>
<!-- Node10 -->
<g id="node10" class="node"><title>Node10</title>
<g id="a_node10"><a xlink:href="../../dd/da5/classnars_1_1storage_1_1Memory_1_1ReasonerBatch_aed591f05899b98fd9e4ad01836ad0a40.html#aed591f05899b98fd9e4ad01836ad0a40" target="_top" xlink:title="A clock tick. ">
<polygon fill="none" stroke="black" points="1678,-49.5 1678,-79.5 1832,-79.5 1832,-49.5 1678,-49.5"/>
<text text-anchor="start" x="1686" y="-67.5" font-family="Helvetica,sans-Serif" font-size="10.00">nars.storage.Memory.Reasoner</text>
<text text-anchor="middle" x="1755" y="-56.5" font-family="Helvetica,sans-Serif" font-size="10.00">Batch.tick</text>
</a>
</g>
</g>
<!-- Node9&#45;&gt;Node10 -->
<g id="edge9" class="edge"><title>Node9&#45;&gt;Node10</title>
<path fill="none" stroke="midnightblue" d="M1652.42,-64.5C1660.86,-64.5 1669.37,-64.5 1677.7,-64.5"/>
<polygon fill="midnightblue" stroke="midnightblue" points="1652.2,-61.0001 1642.2,-64.5 1652.2,-68.0001 1652.2,-61.0001"/>
</g>
<!-- Node11 -->
<g id="node11" class="node"><title>Node11</title>
<g id="a_node11"><a xlink:href="../../d4/d88/classnars_1_1storage_1_1Memory_1_1NARSBatch_aad99db6cedde9cff2a997db8906ff821.html#aad99db6cedde9cff2a997db8906ff821" target="_top" xlink:title="Run to completion: repeatedly execute NARS working cycle, until Inputs are Finished, or 1000 steps. ">
<polygon fill="none" stroke="black" points="1868,-55 1868,-74 2050,-74 2050,-55 1868,-55"/>
<text text-anchor="middle" x="1959" y="-62" font-family="Helvetica,sans-Serif" font-size="10.00">nars.storage.Memory.NARSBatch.run</text>
</a>
</g>
</g>
<!-- Node10&#45;&gt;Node11 -->
<g id="edge10" class="edge"><title>Node10&#45;&gt;Node11</title>
<path fill="none" stroke="midnightblue" d="M1842.27,-64.5C1850.69,-64.5 1859.25,-64.5 1867.71,-64.5"/>
<polygon fill="midnightblue" stroke="midnightblue" points="1842.08,-61.0001 1832.08,-64.5 1842.08,-68.0001 1842.08,-61.0001"/>
</g>
<!-- Node12 -->
<g id="node12" class="node"><title>Node12</title>
<g id="a_node12"><a xlink:href="../../d4/d88/classnars_1_1storage_1_1Memory_1_1NARSBatch_a416c39463faa161661ed1d12fea03b3c.html#a416c39463faa161661ed1d12fea03b3c" target="_top" xlink:title="non&#45;static equivalent to main(String[]) : run to completion from an input file ">
<polygon fill="none" stroke="black" points="2086,-49.5 2086,-79.5 2268,-79.5 2268,-49.5 2086,-49.5"/>
<text text-anchor="start" x="2094" y="-67.5" font-family="Helvetica,sans-Serif" font-size="10.00">nars.storage.Memory.NARSBatch.run</text>
<text text-anchor="middle" x="2177" y="-56.5" font-family="Helvetica,sans-Serif" font-size="10.00">Inference</text>
</a>
</g>
</g>
<!-- Node11&#45;&gt;Node12 -->
<g id="edge11" class="edge"><title>Node11&#45;&gt;Node12</title>
<path fill="none" stroke="midnightblue" d="M2060.06,-64.5C2068.63,-64.5 2077.27,-64.5 2085.76,-64.5"/>
<polygon fill="midnightblue" stroke="midnightblue" points="2060.04,-61.0001 2050.04,-64.5 2060.04,-68.0001 2060.04,-61.0001"/>
</g>
<!-- Node13 -->
<g id="node13" class="node"><title>Node13</title>
<g id="a_node13"><a xlink:href="../../d4/d88/classnars_1_1storage_1_1Memory_1_1NARSBatch_aa97fcd68270583e60e6bf1b4579d1bdc.html#aa97fcd68270583e60e6bf1b4579d1bdc" target="_top" xlink:title="The entry point of the standalone application. ">
<polygon fill="none" stroke="black" points="2304,-55 2304,-74 2494,-74 2494,-55 2304,-55"/>
<text text-anchor="middle" x="2399" y="-62" font-family="Helvetica,sans-Serif" font-size="10.00">nars.storage.Memory.NARSBatch.main</text>
</a>
</g>
</g>
<!-- Node12&#45;&gt;Node13 -->
<g id="edge12" class="edge"><title>Node12&#45;&gt;Node13</title>
<path fill="none" stroke="midnightblue" d="M2278.37,-64.5C2286.82,-64.5 2295.34,-64.5 2303.74,-64.5"/>
<polygon fill="midnightblue" stroke="midnightblue" points="2278.12,-61.0001 2268.12,-64.5 2278.12,-68.0001 2278.12,-61.0001"/>
</g>
<!-- Node14&#45;&gt;Node8 -->
<g id="edge14" class="edge"><title>Node14&#45;&gt;Node8</title>
<path fill="none" stroke="midnightblue" d="M1293.12,-64.5C1301.72,-64.5 1310.37,-64.5 1318.76,-64.5"/>
<polygon fill="midnightblue" stroke="midnightblue" points="1293.07,-61.0001 1283.07,-64.5 1293.07,-68.0001 1293.07,-61.0001"/>
</g>
<!-- Node15&#45;&gt;Node5 -->
<g id="edge16" class="edge"><title>Node15&#45;&gt;Node5</title>
<path fill="none" stroke="midnightblue" d="M709.386,-70.4638C726.875,-72.8791 745.177,-75.4068 761.943,-77.7224"/>
<polygon fill="midnightblue" stroke="midnightblue" points="709.586,-66.9583 699.201,-69.0572 708.628,-73.8925 709.586,-66.9583"/>
</g>
<!-- Node17 -->
<g id="node17" class="node"><title>Node17</title>
<g id="a_node17"><a xlink:href="../../da/de3/classnars_1_1inference_1_1RuleTables_ac2d01dfdc40bdd47c757cb549217e6e3.html#ac2d01dfdc40bdd47c757cb549217e6e3" target="_top" xlink:title="Entry point of the inference engine. ">
<polygon fill="none" stroke="black" points="745,-6 745,-25 908,-25 908,-6 745,-6"/>
<text text-anchor="middle" x="826.5" y="-13" font-family="Helvetica,sans-Serif" font-size="10.00">nars.inference.RuleTables.reason</text>
</a>
</g>
</g>
<!-- Node16&#45;&gt;Node17 -->
<g id="edge18" class="edge"><title>Node16&#45;&gt;Node17</title>
<path fill="none" stroke="midnightblue" d="M719.499,-15.5C727.962,-15.5 736.507,-15.5 744.88,-15.5"/>
<polygon fill="midnightblue" stroke="midnightblue" points="719.236,-12.0001 709.236,-15.5 719.235,-19.0001 719.236,-12.0001"/>
</g>
<!-- Node18 -->
<g id="node18" class="node"><title>Node18</title>
<g id="a_node18"><a xlink:href="../../d4/d22/classnars_1_1entity_1_1Concept_ae07576c8466ad65eeb61040e3f71cfc7.html#ae07576c8466ad65eeb61040e3f71cfc7" target="_top" xlink:title="An atomic step in a concept, only called in Memory# processConcept. ">
<polygon fill="none" stroke="black" points="963,-6 963,-25 1082,-25 1082,-6 963,-6"/>
<text text-anchor="middle" x="1022.5" y="-13" font-family="Helvetica,sans-Serif" font-size="10.00">nars.entity.Concept.fire</text>
</a>
</g>
</g>
<!-- Node17&#45;&gt;Node18 -->
<g id="edge19" class="edge"><title>Node17&#45;&gt;Node18</title>
<path fill="none" stroke="midnightblue" d="M918.461,-15.5C933.516,-15.5 948.765,-15.5 962.751,-15.5"/>
<polygon fill="midnightblue" stroke="midnightblue" points="918.088,-12.0001 908.088,-15.5 918.088,-19.0001 918.088,-12.0001"/>
</g>
<!-- Node19 -->
<g id="node19" class="node"><title>Node19</title>
<g id="a_node19"><a xlink:href="../../d8/df4/classnars_1_1storage_1_1Memory_a83154b55b922c82b73931d4f22e3a590.html#a83154b55b922c82b73931d4f22e3a590" target="_top" xlink:title="Select a concept to fire. ">
<polygon fill="none" stroke="black" points="1137,-0.5 1137,-30.5 1283,-30.5 1283,-0.5 1137,-0.5"/>
<text text-anchor="start" x="1145" y="-18.5" font-family="Helvetica,sans-Serif" font-size="10.00">nars.storage.Memory.process</text>
<text text-anchor="middle" x="1210" y="-7.5" font-family="Helvetica,sans-Serif" font-size="10.00">Concept</text>
</a>
</g>
</g>
<!-- Node18&#45;&gt;Node19 -->
<g id="edge20" class="edge"><title>Node18&#45;&gt;Node19</title>
<path fill="none" stroke="midnightblue" d="M1092.52,-15.5C1106.93,-15.5 1122.16,-15.5 1136.68,-15.5"/>
<polygon fill="midnightblue" stroke="midnightblue" points="1092.19,-12.0001 1082.19,-15.5 1092.19,-19.0001 1092.19,-12.0001"/>
</g>
<!-- Node19&#45;&gt;Node8 -->
<g id="edge21" class="edge"><title>Node19&#45;&gt;Node8</title>
<path fill="none" stroke="midnightblue" d="M1274.1,-33.3212C1292.83,-38.6118 1313.16,-44.3522 1331.21,-49.4484"/>
<polygon fill="midnightblue" stroke="midnightblue" points="1275.05,-29.9512 1264.47,-30.6014 1273.14,-36.6877 1275.05,-29.9512"/>
</g>
</g>
</svg>
