<?xml version="1.0" encoding="UTF-8" standalone="no"?>
<!DOCTYPE svg PUBLIC "-//W3C//DTD SVG 1.1//EN"
 "http://www.w3.org/Graphics/SVG/1.1/DTD/svg11.dtd">
<!-- Generated by graphviz version 2.38.0 (20140413.2041)
 -->
<!-- Title: nars.inference.RuleTables.compoundAndSelf Pages: 1 -->
<svg width="2149pt" height="61pt"
 viewBox="0.00 0.00 2149.00 61.00" xmlns="http://www.w3.org/2000/svg" xmlns:xlink="http://www.w3.org/1999/xlink">
<g id="graph0" class="graph" transform="scale(1 1) rotate(0) translate(4 57)">
<title>nars.inference.RuleTables.compoundAndSelf</title>
<!-- Node1 -->
<g id="node1" class="node"><title>Node1</title>
<polygon fill="#bfbfbf" stroke="black" points="0,-0.5 0,-30.5 179,-30.5 179,-0.5 0,-0.5"/>
<text text-anchor="start" x="8" y="-18.5" font-family="Helvetica,sans-Serif" font-size="10.00">nars.inference.RuleTables.compound</text>
<text text-anchor="middle" x="89.5" y="-7.5" font-family="Helvetica,sans-Serif" font-size="10.00">AndSelf</text>
</g>
<!-- Node2 -->
<g id="node2" class="node"><title>Node2</title>
<g id="a_node2"><a xlink:href="../../da/de3/classnars_1_1inference_1_1RuleTables_a764dbc9ccccf406df45e09fbfeda928f.html#a764dbc9ccccf406df45e09fbfeda928f" target="_top" xlink:title="Inference between two compound terms. ">
<polygon fill="none" stroke="black" points="215,-22.5 215,-52.5 394,-52.5 394,-22.5 215,-22.5"/>
<text text-anchor="start" x="223" y="-40.5" font-family="Helvetica,sans-Serif" font-size="10.00">nars.inference.RuleTables.compound</text>
<text text-anchor="middle" x="304.5" y="-29.5" font-family="Helvetica,sans-Serif" font-size="10.00">AndCompound</text>
</a>
</g>
</g>
<!-- Node1&#45;&gt;Node2 -->
<g id="edge1" class="edge"><title>Node1&#45;&gt;Node2</title>
<path fill="none" stroke="midnightblue" d="M189.266,-25.7012C197.803,-26.5829 206.406,-27.4715 214.855,-28.3442"/>
<polygon fill="midnightblue" stroke="midnightblue" points="189.596,-22.2167 179.289,-24.6707 188.876,-29.1796 189.596,-22.2167"/>
</g>
<!-- Node3 -->
<g id="node3" class="node"><title>Node3</title>
<g id="a_node3"><a xlink:href="../../da/de3/classnars_1_1inference_1_1RuleTables_ac2d01dfdc40bdd47c757cb549217e6e3.html#ac2d01dfdc40bdd47c757cb549217e6e3" target="_top" xlink:title="Entry point of the inference engine. ">
<polygon fill="none" stroke="black" points="430,-6 430,-25 593,-25 593,-6 430,-6"/>
<text text-anchor="middle" x="511.5" y="-13" font-family="Helvetica,sans-Serif" font-size="10.00">nars.inference.RuleTables.reason</text>
</a>
</g>
</g>
<!-- Node1&#45;&gt;Node3 -->
<g id="edge11" class="edge"><title>Node1&#45;&gt;Node3</title>
<path fill="none" stroke="midnightblue" d="M189.409,-13.7665C198.064,-13.6586 206.688,-13.5668 215,-13.5 294.553,-12.8611 314.447,-12.8172 394,-13.5 405.631,-13.5998 417.915,-13.7557 429.971,-13.9374"/>
<polygon fill="midnightblue" stroke="midnightblue" points="189.205,-10.2687 179.252,-13.8999 189.297,-17.2681 189.205,-10.2687"/>
</g>
<!-- Node2&#45;&gt;Node3 -->
<g id="edge2" class="edge"><title>Node2&#45;&gt;Node3</title>
<path fill="none" stroke="midnightblue" d="M404.22,-26.9056C412.762,-25.989 421.338,-25.0686 429.712,-24.1699"/>
<polygon fill="midnightblue" stroke="midnightblue" points="403.793,-23.4313 394.224,-27.9784 404.54,-30.3913 403.793,-23.4313"/>
</g>
<!-- Node4 -->
<g id="node4" class="node"><title>Node4</title>
<g id="a_node4"><a xlink:href="../../d4/d22/classnars_1_1entity_1_1Concept_ae07576c8466ad65eeb61040e3f71cfc7.html#ae07576c8466ad65eeb61040e3f71cfc7" target="_top" xlink:title="An atomic step in a concept, only called in Memory# processConcept. ">
<polygon fill="none" stroke="black" points="629,-6 629,-25 748,-25 748,-6 629,-6"/>
<text text-anchor="middle" x="688.5" y="-13" font-family="Helvetica,sans-Serif" font-size="10.00">nars.entity.Concept.fire</text>
</a>
</g>
</g>
<!-- Node3&#45;&gt;Node4 -->
<g id="edge3" class="edge"><title>Node3&#45;&gt;Node4</title>
<path fill="none" stroke="midnightblue" d="M603.249,-15.5C611.907,-15.5 620.523,-15.5 628.757,-15.5"/>
<polygon fill="midnightblue" stroke="midnightblue" points="603.085,-12.0001 593.085,-15.5 603.085,-19.0001 603.085,-12.0001"/>
</g>
<!-- Node5 -->
<g id="node5" class="node"><title>Node5</title>
<g id="a_node5"><a xlink:href="../../d8/df4/classnars_1_1storage_1_1Memory_a83154b55b922c82b73931d4f22e3a590.html#a83154b55b922c82b73931d4f22e3a590" target="_top" xlink:title="Select a concept to fire. ">
<polygon fill="none" stroke="black" points="784,-0.5 784,-30.5 930,-30.5 930,-0.5 784,-0.5"/>
<text text-anchor="start" x="792" y="-18.5" font-family="Helvetica,sans-Serif" font-size="10.00">nars.storage.Memory.process</text>
<text text-anchor="middle" x="857" y="-7.5" font-family="Helvetica,sans-Serif" font-size="10.00">Concept</text>
</a>
</g>
</g>
<!-- Node4&#45;&gt;Node5 -->
<g id="edge4" class="edge"><title>Node4&#45;&gt;Node5</title>
<path fill="none" stroke="midnightblue" d="M758.337,-15.5C766.748,-15.5 775.361,-15.5 783.819,-15.5"/>
<polygon fill="midnightblue" stroke="midnightblue" points="758.202,-12.0001 748.202,-15.5 758.202,-19.0001 758.202,-12.0001"/>
</g>
<!-- Node6 -->
<g id="node6" class="node"><title>Node6</title>
<g id="a_node6"><a xlink:href="../../d8/df4/classnars_1_1storage_1_1Memory_a49e2cbc8b78d535f4d69739886ee966a.html#a49e2cbc8b78d535f4d69739886ee966a" target="_top" xlink:title="An atomic working workCycle of the system: process new Tasks, then fire a concept. ">
<polygon fill="none" stroke="black" points="966,-0.5 966,-30.5 1099,-30.5 1099,-0.5 966,-0.5"/>
<text text-anchor="start" x="974" y="-18.5" font-family="Helvetica,sans-Serif" font-size="10.00">nars.storage.Memory.work</text>
<text text-anchor="middle" x="1032.5" y="-7.5" font-family="Helvetica,sans-Serif" font-size="10.00">Cycle</text>
</a>
</g>
</g>
<!-- Node5&#45;&gt;Node6 -->
<g id="edge5" class="edge"><title>Node5&#45;&gt;Node6</title>
<path fill="none" stroke="midnightblue" d="M940.118,-15.5C948.716,-15.5 957.375,-15.5 965.755,-15.5"/>
<polygon fill="midnightblue" stroke="midnightblue" points="940.072,-12.0001 930.072,-15.5 940.072,-19.0001 940.072,-12.0001"/>
</g>
<!-- Node7 -->
<g id="node7" class="node"><title>Node7</title>
<g id="a_node7"><a xlink:href="../../dd/da5/classnars_1_1storage_1_1Memory_1_1ReasonerBatch_acc60dec23da774957a85362ed6d7448b.html#acc60dec23da774957a85362ed6d7448b" target="_top" xlink:title="nars.storage.Memory.Reasoner\lBatch.doTick">
<polygon fill="none" stroke="black" points="1135,-0.5 1135,-30.5 1289,-30.5 1289,-0.5 1135,-0.5"/>
<text text-anchor="start" x="1143" y="-18.5" font-family="Helvetica,sans-Serif" font-size="10.00">nars.storage.Memory.Reasoner</text>
<text text-anchor="middle" x="1212" y="-7.5" font-family="Helvetica,sans-Serif" font-size="10.00">Batch.doTick</text>
</a>
</g>
</g>
<!-- Node6&#45;&gt;Node7 -->
<g id="edge6" class="edge"><title>Node6&#45;&gt;Node7</title>
<path fill="none" stroke="midnightblue" d="M1109.32,-15.5C1117.79,-15.5 1126.41,-15.5 1134.89,-15.5"/>
<polygon fill="midnightblue" stroke="midnightblue" points="1109.09,-12.0001 1099.09,-15.5 1109.09,-19.0001 1109.09,-12.0001"/>
</g>
<!-- Node8 -->
<g id="node8" class="node"><title>Node8</title>
<g id="a_node8"><a xlink:href="../../dd/da5/classnars_1_1storage_1_1Memory_1_1ReasonerBatch_aed591f05899b98fd9e4ad01836ad0a40.html#aed591f05899b98fd9e4ad01836ad0a40" target="_top" xlink:title="A clock tick. ">
<polygon fill="none" stroke="black" points="1325,-0.5 1325,-30.5 1479,-30.5 1479,-0.5 1325,-0.5"/>
<text text-anchor="start" x="1333" y="-18.5" font-family="Helvetica,sans-Serif" font-size="10.00">nars.storage.Memory.Reasoner</text>
<text text-anchor="middle" x="1402" y="-7.5" font-family="Helvetica,sans-Serif" font-size="10.00">Batch.tick</text>
</a>
</g>
</g>
<!-- Node7&#45;&gt;Node8 -->
<g id="edge7" class="edge"><title>Node7&#45;&gt;Node8</title>
<path fill="none" stroke="midnightblue" d="M1299.42,-15.5C1307.86,-15.5 1316.37,-15.5 1324.7,-15.5"/>
<polygon fill="midnightblue" stroke="midnightblue" points="1299.2,-12.0001 1289.2,-15.5 1299.2,-19.0001 1299.2,-12.0001"/>
</g>
<!-- Node9 -->
<g id="node9" class="node"><title>Node9</title>
<g id="a_node9"><a xlink:href="../../d4/d88/classnars_1_1storage_1_1Memory_1_1NARSBatch_aad99db6cedde9cff2a997db8906ff821.html#aad99db6cedde9cff2a997db8906ff821" target="_top" xlink:title="Run to completion: repeatedly execute NARS working cycle, until Inputs are Finished, or 1000 steps. ">
<polygon fill="none" stroke="black" points="1515,-6 1515,-25 1697,-25 1697,-6 1515,-6"/>
<text text-anchor="middle" x="1606" y="-13" font-family="Helvetica,sans-Serif" font-size="10.00">nars.storage.Memory.NARSBatch.run</text>
</a>
</g>
</g>
<!-- Node8&#45;&gt;Node9 -->
<g id="edge8" class="edge"><title>Node8&#45;&gt;Node9</title>
<path fill="none" stroke="midnightblue" d="M1489.27,-15.5C1497.69,-15.5 1506.25,-15.5 1514.71,-15.5"/>
<polygon fill="midnightblue" stroke="midnightblue" points="1489.08,-12.0001 1479.08,-15.5 1489.08,-19.0001 1489.08,-12.0001"/>
</g>
<!-- Node10 -->
<g id="node10" class="node"><title>Node10</title>
<g id="a_node10"><a xlink:href="../../d4/d88/classnars_1_1storage_1_1Memory_1_1NARSBatch_a416c39463faa161661ed1d12fea03b3c.html#a416c39463faa161661ed1d12fea03b3c" target="_top" xlink:title="non&#45;static equivalent to main(String[]) : run to completion from an input file ">
<polygon fill="none" stroke="black" points="1733,-0.5 1733,-30.5 1915,-30.5 1915,-0.5 1733,-0.5"/>
<text text-anchor="start" x="1741" y="-18.5" font-family="Helvetica,sans-Serif" font-size="10.00">nars.storage.Memory.NARSBatch.run</text>
<text text-anchor="middle" x="1824" y="-7.5" font-family="Helvetica,sans-Serif" font-size="10.00">Inference</text>
</a>
</g>
</g>
<!-- Node9&#45;&gt;Node10 -->
<g id="edge9" class="edge"><title>Node9&#45;&gt;Node10</title>
<path fill="none" stroke="midnightblue" d="M1707.06,-15.5C1715.63,-15.5 1724.27,-15.5 1732.76,-15.5"/>
<polygon fill="midnightblue" stroke="midnightblue" points="1707.04,-12.0001 1697.04,-15.5 1707.04,-19.0001 1707.04,-12.0001"/>
</g>
<!-- Node11 -->
<g id="node11" class="node"><title>Node11</title>
<g id="a_node11"><a xlink:href="../../d4/d88/classnars_1_1storage_1_1Memory_1_1NARSBatch_aa97fcd68270583e60e6bf1b4579d1bdc.html#aa97fcd68270583e60e6bf1b4579d1bdc" target="_top" xlink:title="The entry point of the standalone application. ">
<polygon fill="none" stroke="black" points="1951,-6 1951,-25 2141,-25 2141,-6 1951,-6"/>
<text text-anchor="middle" x="2046" y="-13" font-family="Helvetica,sans-Serif" font-size="10.00">nars.storage.Memory.NARSBatch.main</text>
</a>
</g>
</g>
<!-- Node10&#45;&gt;Node11 -->
<g id="edge10" class="edge"><title>Node10&#45;&gt;Node11</title>
<path fill="none" stroke="midnightblue" d="M1925.37,-15.5C1933.82,-15.5 1942.34,-15.5 1950.74,-15.5"/>
<polygon fill="midnightblue" stroke="midnightblue" points="1925.12,-12.0001 1915.12,-15.5 1925.12,-19.0001 1925.12,-12.0001"/>
</g>
</g>
</svg>
