<?xml version="1.0" encoding="UTF-8" standalone="no"?>
<!DOCTYPE svg PUBLIC "-//W3C//DTD SVG 1.1//EN"
 "http://www.w3.org/Graphics/SVG/1.1/DTD/svg11.dtd">
<!-- Generated by graphviz version 2.38.0 (20140413.2041)
 -->
<!-- Title: nars.language.Implication.clone Pages: 1 -->
<svg width="602pt" height="127pt"
 viewBox="0.00 0.00 602.00 126.50" xmlns="http://www.w3.org/2000/svg" xmlns:xlink="http://www.w3.org/1999/xlink">
<g id="graph0" class="graph" transform="scale(1 1) rotate(0) translate(4 122.5)">
<title>nars.language.Implication.clone</title>
<!-- Node1 -->
<g id="node1" class="node"><title>Node1</title>
<polygon fill="#bfbfbf" stroke="black" points="0,-55 0,-74 154,-74 154,-55 0,-55"/>
<text text-anchor="middle" x="77" y="-62" font-family="Helvetica,sans-Serif" font-size="10.00">nars.language.Implication.clone</text>
</g>
<!-- Node2 -->
<g id="node2" class="node"><title>Node2</title>
<g id="a_node2"><a xlink:href="../../d0/dee/classnars_1_1language_1_1CompoundTerm_a4f199daa7588f86b81b0912a5e52dfe0.html#a4f199daa7588f86b81b0912a5e52dfe0" target="_top" xlink:title="Deep clone an array list of terms. ">
<polygon fill="none" stroke="black" points="190,-99 190,-118 382,-118 382,-99 190,-99"/>
<text text-anchor="middle" x="286" y="-106" font-family="Helvetica,sans-Serif" font-size="10.00">nars.language.CompoundTerm.cloneList</text>
</a>
</g>
</g>
<!-- Node1&#45;&gt;Node2 -->
<g id="edge1" class="edge"><title>Node1&#45;&gt;Node2</title>
<path fill="none" stroke="midnightblue" d="M119.704,-74.04C140.756,-78.7971 166.708,-84.5718 190,-89.5 201.699,-91.9752 214.226,-94.541 226.22,-96.9561"/>
<polygon fill="midnightblue" stroke="midnightblue" points="225.647,-100.411 236.14,-98.9441 227.023,-93.5472 225.647,-100.411"/>
</g>
<!-- Node4 -->
<g id="node4" class="node"><title>Node4</title>
<g id="a_node4"><a xlink:href="../../da/db6/classnars_1_1language_1_1Implication_ab92b733902106af6deccfbbf06e63709.html#ab92b733902106af6deccfbbf06e63709" target="_top" xlink:title="Constructor with partial values, called by make. ">
<polygon fill="none" stroke="black" points="220.5,-49.5 220.5,-79.5 351.5,-79.5 351.5,-49.5 220.5,-49.5"/>
<text text-anchor="start" x="228.5" y="-67.5" font-family="Helvetica,sans-Serif" font-size="10.00">nars.language.Implication.</text>
<text text-anchor="middle" x="286" y="-56.5" font-family="Helvetica,sans-Serif" font-size="10.00">Implication</text>
</a>
</g>
</g>
<!-- Node1&#45;&gt;Node4 -->
<g id="edge3" class="edge"><title>Node1&#45;&gt;Node4</title>
<path fill="none" stroke="midnightblue" d="M154.197,-64.5C172.399,-64.5 191.813,-64.5 209.962,-64.5"/>
<polygon fill="midnightblue" stroke="midnightblue" points="210.189,-68.0001 220.189,-64.5 210.189,-61.0001 210.189,-68.0001"/>
</g>
<!-- Node5 -->
<g id="node5" class="node"><title>Node5</title>
<g id="a_node5"><a xlink:href="../../d0/dee/classnars_1_1language_1_1CompoundTerm_aee0ef6fd533b58caf22bee2a98eef67d.html#aee0ef6fd533b58caf22bee2a98eef67d" target="_top" xlink:title="check if the term contains free variable ">
<polygon fill="none" stroke="black" points="205.5,-0.5 205.5,-30.5 366.5,-30.5 366.5,-0.5 205.5,-0.5"/>
<text text-anchor="start" x="213.5" y="-18.5" font-family="Helvetica,sans-Serif" font-size="10.00">nars.language.CompoundTerm.is</text>
<text text-anchor="middle" x="286" y="-7.5" font-family="Helvetica,sans-Serif" font-size="10.00">Constant</text>
</a>
</g>
</g>
<!-- Node1&#45;&gt;Node5 -->
<g id="edge4" class="edge"><title>Node1&#45;&gt;Node5</title>
<path fill="none" stroke="midnightblue" d="M118.403,-54.936C144.839,-48.6782 180.155,-40.3183 211.467,-32.9063"/>
<polygon fill="midnightblue" stroke="midnightblue" points="212.552,-36.2464 221.476,-30.537 210.939,-29.4347 212.552,-36.2464"/>
</g>
<!-- Node3 -->
<g id="node3" class="node"><title>Node3</title>
<g id="a_node3"><a xlink:href="../../d0/dee/classnars_1_1language_1_1CompoundTerm_a963e8aef1163f4ed8c364b5e448deaff.html#a963e8aef1163f4ed8c364b5e448deaff" target="_top" xlink:title="Abstract clone method. ">
<polygon fill="none" stroke="black" points="418,-99 418,-118 594,-118 594,-99 418,-99"/>
<text text-anchor="middle" x="506" y="-106" font-family="Helvetica,sans-Serif" font-size="10.00">nars.language.CompoundTerm.clone</text>
</a>
</g>
</g>
<!-- Node2&#45;&gt;Node3 -->
<g id="edge2" class="edge"><title>Node2&#45;&gt;Node3</title>
<path fill="none" stroke="midnightblue" d="M382.301,-108.5C390.69,-108.5 399.19,-108.5 407.597,-108.5"/>
<polygon fill="midnightblue" stroke="midnightblue" points="407.791,-112 417.791,-108.5 407.791,-105 407.791,-112"/>
</g>
</g>
</svg>
