<?xml version="1.0" encoding="UTF-8" standalone="no"?>
<!DOCTYPE svg PUBLIC "-//W3C//DTD SVG 1.1//EN"
 "http://www.w3.org/Graphics/SVG/1.1/DTD/svg11.dtd">
<!-- Generated by graphviz version 2.38.0 (20140413.2041)
 -->
<!-- Title: nars.language.Implication.make Pages: 1 -->
<svg width="783pt" height="433pt"
 viewBox="0.00 0.00 783.00 432.50" xmlns="http://www.w3.org/2000/svg" xmlns:xlink="http://www.w3.org/1999/xlink">
<g id="graph0" class="graph" transform="scale(1 1) rotate(0) translate(4 428.5)">
<title>nars.language.Implication.make</title>
<!-- Node1 -->
<g id="node1" class="node"><title>Node1</title>
<polygon fill="#bfbfbf" stroke="black" points="0,-262.5 0,-281.5 155,-281.5 155,-262.5 0,-262.5"/>
<text text-anchor="middle" x="77.5" y="-269.5" font-family="Helvetica,sans-Serif" font-size="10.00">nars.language.Implication.make</text>
</g>
<!-- Node2 -->
<g id="node2" class="node"><title>Node2</title>
<g id="a_node2"><a xlink:href="../../d0/dee/classnars_1_1language_1_1CompoundTerm_a26cc2a0123b22a3019ca81de239c5007.html#a26cc2a0123b22a3019ca81de239c5007" target="_top" xlink:title="build a component list from two terms ">
<polygon fill="none" stroke="black" points="191,-394 191,-424 390,-424 390,-394 191,-394"/>
<text text-anchor="start" x="199" y="-412" font-family="Helvetica,sans-Serif" font-size="10.00">nars.language.CompoundTerm.arguments</text>
<text text-anchor="middle" x="290.5" y="-401" font-family="Helvetica,sans-Serif" font-size="10.00">ToList</text>
</a>
</g>
</g>
<!-- Node1&#45;&gt;Node2 -->
<g id="edge1" class="edge"><title>Node1&#45;&gt;Node2</title>
<path fill="none" stroke="midnightblue" d="M85.135,-281.623C100.819,-303.598 142.528,-357.676 191,-385 194.258,-386.837 197.654,-388.534 201.143,-390.102"/>
<polygon fill="midnightblue" stroke="midnightblue" points="199.981,-393.408 210.562,-393.959 202.633,-386.93 199.981,-393.408"/>
</g>
<!-- Node3 -->
<g id="node3" class="node"><title>Node3</title>
<g id="a_node3"><a xlink:href="../../d0/dee/classnars_1_1language_1_1CompoundTerm_ad637ccaf9aecf41f3961d095900f2d5e.html#ad637ccaf9aecf41f3961d095900f2d5e" target="_top" xlink:title="Check whether the compound contains a certain component. ">
<polygon fill="none" stroke="black" points="198,-345 198,-375 383,-375 383,-345 198,-345"/>
<text text-anchor="start" x="206" y="-363" font-family="Helvetica,sans-Serif" font-size="10.00">nars.language.CompoundTerm.contain</text>
<text text-anchor="middle" x="290.5" y="-352" font-family="Helvetica,sans-Serif" font-size="10.00">Component</text>
</a>
</g>
</g>
<!-- Node1&#45;&gt;Node3 -->
<g id="edge2" class="edge"><title>Node1&#45;&gt;Node3</title>
<path fill="none" stroke="midnightblue" d="M94.8295,-281.611C116.334,-293.988 155.576,-315.611 191,-330 201.568,-334.293 212.987,-338.309 224.177,-341.921"/>
<polygon fill="midnightblue" stroke="midnightblue" points="223.335,-345.325 233.924,-344.987 225.435,-338.647 223.335,-345.325"/>
</g>
<!-- Node4 -->
<g id="node4" class="node"><title>Node4</title>
<g id="a_node4"><a xlink:href="../../d1/d5e/classnars_1_1language_1_1Statement_ababe6155e2f78e769f76493317e118e0.html#ababe6155e2f78e769f76493317e118e0" target="_top" xlink:title="Return the second component of the statement. ">
<polygon fill="none" stroke="black" points="438.5,-301 438.5,-331 580.5,-331 580.5,-301 438.5,-301"/>
<text text-anchor="start" x="446.5" y="-319" font-family="Helvetica,sans-Serif" font-size="10.00">nars.language.Statement.get</text>
<text text-anchor="middle" x="509.5" y="-308" font-family="Helvetica,sans-Serif" font-size="10.00">Predicate</text>
</a>
</g>
</g>
<!-- Node1&#45;&gt;Node4 -->
<g id="edge3" class="edge"><title>Node1&#45;&gt;Node4</title>
<path fill="none" stroke="midnightblue" d="M114.459,-281.521C136.413,-286.951 165.143,-293.377 191,-297 271.199,-308.238 363.708,-312.836 428.103,-314.713"/>
<polygon fill="midnightblue" stroke="midnightblue" points="428.097,-318.214 438.19,-314.991 428.291,-311.217 428.097,-318.214"/>
</g>
<!-- Node5 -->
<g id="node5" class="node"><title>Node5</title>
<g id="a_node5"><a xlink:href="../../da/db6/classnars_1_1language_1_1Implication_ab92b733902106af6deccfbbf06e63709.html#ab92b733902106af6deccfbbf06e63709" target="_top" xlink:title="Constructor with partial values, called by make. ">
<polygon fill="none" stroke="black" points="225,-257 225,-287 356,-287 356,-257 225,-257"/>
<text text-anchor="start" x="233" y="-275" font-family="Helvetica,sans-Serif" font-size="10.00">nars.language.Implication.</text>
<text text-anchor="middle" x="290.5" y="-264" font-family="Helvetica,sans-Serif" font-size="10.00">Implication</text>
</a>
</g>
</g>
<!-- Node1&#45;&gt;Node5 -->
<g id="edge4" class="edge"><title>Node1&#45;&gt;Node5</title>
<path fill="none" stroke="midnightblue" d="M155.273,-272C174.65,-272 195.426,-272 214.704,-272"/>
<polygon fill="midnightblue" stroke="midnightblue" points="214.937,-275.5 224.937,-272 214.937,-268.5 214.937,-275.5"/>
</g>
<!-- Node6 -->
<g id="node6" class="node"><title>Node6</title>
<g id="a_node6"><a xlink:href="../../d1/d5e/classnars_1_1language_1_1Statement_a96d4bf7bb99f48b6496cdb7457bc0e50.html#a96d4bf7bb99f48b6496cdb7457bc0e50" target="_top" xlink:title="Check the validity of a potential Statement. ">
<polygon fill="none" stroke="black" points="212.5,-208 212.5,-238 368.5,-238 368.5,-208 212.5,-208"/>
<text text-anchor="start" x="220.5" y="-226" font-family="Helvetica,sans-Serif" font-size="10.00">nars.language.Statement.invalid</text>
<text text-anchor="middle" x="290.5" y="-215" font-family="Helvetica,sans-Serif" font-size="10.00">Statement</text>
</a>
</g>
</g>
<!-- Node1&#45;&gt;Node6 -->
<g id="edge5" class="edge"><title>Node1&#45;&gt;Node6</title>
<path fill="none" stroke="midnightblue" d="M119.433,-262.494C146.477,-256.214 182.717,-247.798 214.795,-240.349"/>
<polygon fill="midnightblue" stroke="midnightblue" points="215.652,-243.743 224.601,-238.071 214.069,-236.924 215.652,-243.743"/>
</g>
<!-- Node12 -->
<g id="node12" class="node"><title>Node12</title>
<g id="a_node12"><a xlink:href="../../d1/d5e/classnars_1_1language_1_1Statement_a7123aba1c8c566f291e2c9b9d147557d.html#a7123aba1c8c566f291e2c9b9d147557d" target="_top" xlink:title="Default method to make the nameStr of an image term from given fields. ">
<polygon fill="none" stroke="black" points="214.5,-159 214.5,-189 366.5,-189 366.5,-159 214.5,-159"/>
<text text-anchor="start" x="222.5" y="-177" font-family="Helvetica,sans-Serif" font-size="10.00">nars.language.Statement.make</text>
<text text-anchor="middle" x="290.5" y="-166" font-family="Helvetica,sans-Serif" font-size="10.00">StatementName</text>
</a>
</g>
</g>
<!-- Node1&#45;&gt;Node12 -->
<g id="edge12" class="edge"><title>Node1&#45;&gt;Node12</title>
<path fill="none" stroke="midnightblue" d="M90.1908,-262.319C109.807,-246.552 151.128,-215.349 191,-198 195.77,-195.925 200.751,-194.008 205.832,-192.242"/>
<polygon fill="midnightblue" stroke="midnightblue" points="207.271,-195.455 215.694,-189.029 205.102,-188.799 207.271,-195.455"/>
</g>
<!-- Node13 -->
<g id="node13" class="node"><title>Node13</title>
<g id="a_node13"><a xlink:href="../../d8/df4/classnars_1_1storage_1_1Memory_a63058cc52d77412e0aead8387c23aa93.html#a63058cc52d77412e0aead8387c23aa93" target="_top" xlink:title="Get a Term for a given name of a Concept or Operator. ">
<polygon fill="none" stroke="black" points="222.5,-52 222.5,-82 358.5,-82 358.5,-52 222.5,-52"/>
<text text-anchor="start" x="230.5" y="-70" font-family="Helvetica,sans-Serif" font-size="10.00">nars.storage.Memory.name</text>
<text text-anchor="middle" x="290.5" y="-59" font-family="Helvetica,sans-Serif" font-size="10.00">ToListedTerm</text>
</a>
</g>
</g>
<!-- Node1&#45;&gt;Node13 -->
<g id="edge13" class="edge"><title>Node1&#45;&gt;Node13</title>
<path fill="none" stroke="midnightblue" d="M86.5523,-262.336C104.469,-241.031 149.341,-188.762 191,-149 213.777,-127.261 241.469,-104.501 261.683,-88.4903"/>
<polygon fill="midnightblue" stroke="midnightblue" points="263.885,-91.2113 269.58,-82.2773 259.557,-85.7098 263.885,-91.2113"/>
</g>
<!-- Node6&#45;&gt;Node4 -->
<g id="edge11" class="edge"><title>Node6&#45;&gt;Node4</title>
<path fill="none" stroke="midnightblue" d="M368.535,-236.53C376.073,-239.378 383.372,-242.826 390,-247 411.38,-260.465 405,-276.95 426,-291 428.95,-292.974 432.062,-294.797 435.28,-296.479"/>
<polygon fill="midnightblue" stroke="midnightblue" points="434.047,-299.767 444.585,-300.86 437.028,-293.434 434.047,-299.767"/>
</g>
<!-- Node7 -->
<g id="node7" class="node"><title>Node7</title>
<g id="a_node7"><a xlink:href="../../d8/db8/classnars_1_1language_1_1Term_ad85f45a7858737445d5158801774ff5f.html#ad85f45a7858737445d5158801774ff5f" target="_top" xlink:title="Equal terms have identical name, though not necessarily the same reference. ">
<polygon fill="none" stroke="black" points="442.5,-262.5 442.5,-281.5 576.5,-281.5 576.5,-262.5 442.5,-262.5"/>
<text text-anchor="middle" x="509.5" y="-269.5" font-family="Helvetica,sans-Serif" font-size="10.00">nars.language.Term.equals</text>
</a>
</g>
</g>
<!-- Node6&#45;&gt;Node7 -->
<g id="edge6" class="edge"><title>Node6&#45;&gt;Node7</title>
<path fill="none" stroke="midnightblue" d="M358.082,-238.035C389.621,-245.156 426.745,-253.539 456.22,-260.195"/>
<polygon fill="midnightblue" stroke="midnightblue" points="455.779,-263.683 466.305,-262.472 457.321,-256.855 455.779,-263.683"/>
</g>
<!-- Node9 -->
<g id="node9" class="node"><title>Node9</title>
<g id="a_node9"><a xlink:href="../../d0/dee/classnars_1_1language_1_1CompoundTerm_a89000afae8017231889aaa549292d1e0.html#a89000afae8017231889aaa549292d1e0" target="_top" xlink:title="Default constructor. ">
<polygon fill="none" stroke="black" points="433,-213 433,-243 586,-243 586,-213 433,-213"/>
<text text-anchor="start" x="441" y="-231" font-family="Helvetica,sans-Serif" font-size="10.00">nars.language.CompoundTerm.</text>
<text text-anchor="middle" x="509.5" y="-220" font-family="Helvetica,sans-Serif" font-size="10.00">CompoundTerm</text>
</a>
</g>
</g>
<!-- Node6&#45;&gt;Node9 -->
<g id="edge8" class="edge"><title>Node6&#45;&gt;Node9</title>
<path fill="none" stroke="midnightblue" d="M368.617,-224.777C386.031,-225.178 404.624,-225.607 422.382,-226.016"/>
<polygon fill="midnightblue" stroke="midnightblue" points="422.647,-229.523 432.725,-226.254 422.809,-222.525 422.647,-229.523"/>
</g>
<!-- Node10 -->
<g id="node10" class="node"><title>Node10</title>
<g id="a_node10"><a xlink:href="../../d1/d5e/classnars_1_1language_1_1Statement_ac56b558891dd2088e0b66b437780c7b7.html#ac56b558891dd2088e0b66b437780c7b7" target="_top" xlink:title="Default constructor. ">
<polygon fill="none" stroke="black" points="445.5,-164 445.5,-194 573.5,-194 573.5,-164 445.5,-164"/>
<text text-anchor="start" x="453.5" y="-182" font-family="Helvetica,sans-Serif" font-size="10.00">nars.language.Statement.</text>
<text text-anchor="middle" x="509.5" y="-171" font-family="Helvetica,sans-Serif" font-size="10.00">Statement</text>
</a>
</g>
</g>
<!-- Node6&#45;&gt;Node10 -->
<g id="edge9" class="edge"><title>Node6&#45;&gt;Node10</title>
<path fill="none" stroke="midnightblue" d="M365.572,-207.981C388.139,-203.405 412.923,-198.38 435.424,-193.817"/>
<polygon fill="midnightblue" stroke="midnightblue" points="436.143,-197.243 445.248,-191.825 434.752,-190.382 436.143,-197.243"/>
</g>
<!-- Node11 -->
<g id="node11" class="node"><title>Node11</title>
<g id="a_node11"><a xlink:href="../../d1/d5e/classnars_1_1language_1_1Statement_ace4f80751d303c613e467163913bebf5.html#ace4f80751d303c613e467163913bebf5" target="_top" xlink:title="Return the first component of the statement. ">
<polygon fill="none" stroke="black" points="438.5,-115 438.5,-145 580.5,-145 580.5,-115 438.5,-115"/>
<text text-anchor="start" x="446.5" y="-133" font-family="Helvetica,sans-Serif" font-size="10.00">nars.language.Statement.get</text>
<text text-anchor="middle" x="509.5" y="-122" font-family="Helvetica,sans-Serif" font-size="10.00">Subject</text>
</a>
</g>
</g>
<!-- Node6&#45;&gt;Node11 -->
<g id="edge10" class="edge"><title>Node6&#45;&gt;Node11</title>
<path fill="none" stroke="midnightblue" d="M368.543,-208.636C376.08,-205.721 383.377,-202.216 390,-198 411.316,-184.433 404.922,-167.933 426,-154 428.45,-152.381 431.011,-150.868 433.651,-149.456"/>
<polygon fill="midnightblue" stroke="midnightblue" points="435.383,-152.508 442.89,-145.032 432.359,-146.195 435.383,-152.508"/>
</g>
<!-- Node8 -->
<g id="node8" class="node"><title>Node8</title>
<g id="a_node8"><a xlink:href="../../d8/db8/classnars_1_1language_1_1Term_a3aad4654016b8615fd4fa8a26668e1db.html#a3aad4654016b8615fd4fa8a26668e1db" target="_top" xlink:title="Reporting the name of the current Term. ">
<polygon fill="none" stroke="black" points="629,-262.5 629,-281.5 775,-281.5 775,-262.5 629,-262.5"/>
<text text-anchor="middle" x="702" y="-269.5" font-family="Helvetica,sans-Serif" font-size="10.00">nars.language.Term.getName</text>
</a>
</g>
</g>
<!-- Node7&#45;&gt;Node8 -->
<g id="edge7" class="edge"><title>Node7&#45;&gt;Node8</title>
<path fill="none" stroke="midnightblue" d="M576.593,-272C590.169,-272 604.62,-272 618.688,-272"/>
<polygon fill="midnightblue" stroke="midnightblue" points="618.845,-275.5 628.845,-272 618.845,-268.5 618.845,-275.5"/>
</g>
<!-- Node14 -->
<g id="node14" class="node"><title>Node14</title>
<g id="a_node14"><a xlink:href="../../d8/df4/classnars_1_1storage_1_1Memory_a33af7b3d806d32c85390563fec3c6d27.html#a33af7b3d806d32c85390563fec3c6d27" target="_top" xlink:title="Concept bag. ">
<polygon fill="none" stroke="black" points="426,-76.5 426,-95.5 593,-95.5 593,-76.5 426,-76.5"/>
<text text-anchor="middle" x="509.5" y="-83.5" font-family="Helvetica,sans-Serif" font-size="10.00">nars.storage.Memory.getConcepts</text>
</a>
</g>
</g>
<!-- Node13&#45;&gt;Node14 -->
<g id="edge14" class="edge"><title>Node13&#45;&gt;Node14</title>
<path fill="none" stroke="midnightblue" d="M358.674,-72.8816C376.8,-74.4686 396.734,-76.2141 415.983,-77.8994"/>
<polygon fill="midnightblue" stroke="midnightblue" points="415.705,-81.3884 425.973,-78.7741 416.316,-74.4151 415.705,-81.3884"/>
</g>
<!-- Node15 -->
<g id="node15" class="node"><title>Node15</title>
<g id="a_node15"><a xlink:href="../../d9/d37/classnars_1_1storage_1_1Bag_a011b37fc683db7fb7b41e33712a37d92.html#a011b37fc683db7fb7b41e33712a37d92" target="_top" xlink:title="Get an Item by key. ">
<polygon fill="none" stroke="black" points="456,-38.5 456,-57.5 563,-57.5 563,-38.5 456,-38.5"/>
<text text-anchor="middle" x="509.5" y="-45.5" font-family="Helvetica,sans-Serif" font-size="10.00">nars.storage.Bag.get</text>
</a>
</g>
</g>
<!-- Node13&#45;&gt;Node15 -->
<g id="edge15" class="edge"><title>Node13&#45;&gt;Node15</title>
<path fill="none" stroke="midnightblue" d="M358.674,-61.1184C386.378,-58.6927 418.308,-55.897 445.554,-53.5114"/>
<polygon fill="midnightblue" stroke="midnightblue" points="446.093,-56.9777 455.749,-52.6187 445.482,-50.0044 446.093,-56.9777"/>
</g>
<!-- Node16 -->
<g id="node16" class="node"><title>Node16</title>
<g id="a_node16"><a xlink:href="../../d4/d22/classnars_1_1entity_1_1Concept_afcd1217b7680b073fa51f0d0f159dcea.html#afcd1217b7680b073fa51f0d0f159dcea" target="_top" xlink:title="Return the associated term, called from Memory only. ">
<polygon fill="none" stroke="black" points="439,-0.5 439,-19.5 580,-19.5 580,-0.5 439,-0.5"/>
<text text-anchor="middle" x="509.5" y="-7.5" font-family="Helvetica,sans-Serif" font-size="10.00">nars.entity.Concept.getTerm</text>
</a>
</g>
</g>
<!-- Node13&#45;&gt;Node16 -->
<g id="edge16" class="edge"><title>Node13&#45;&gt;Node16</title>
<path fill="none" stroke="midnightblue" d="M342.435,-51.974C367.521,-44.7363 398.264,-36.1075 426,-29 435.405,-26.59 445.449,-24.1587 455.176,-21.8776"/>
<polygon fill="midnightblue" stroke="midnightblue" points="456.208,-25.2313 465.158,-19.562 454.626,-18.4124 456.208,-25.2313"/>
</g>
</g>
</svg>
