<?xml version="1.0" encoding="UTF-8" standalone="no"?>
<!DOCTYPE svg PUBLIC "-//W3C//DTD SVG 1.1//EN"
 "http://www.w3.org/Graphics/SVG/1.1/DTD/svg11.dtd">
<!-- Generated by graphviz version 2.38.0 (20140413.2041)
 -->
<!-- Title: nars.language.TermStructAutobean Pages: 1 -->
<svg width="137pt" height="182pt"
 viewBox="0.00 0.00 137.00 182.00" xmlns="http://www.w3.org/2000/svg" xmlns:xlink="http://www.w3.org/1999/xlink">
<g id="graph0" class="graph" transform="scale(1 1) rotate(0) translate(4 178)">
<title>nars.language.TermStructAutobean</title>
<!-- Node1 -->
<g id="node1" class="node"><title>Node1</title>
<polygon fill="#bfbfbf" stroke="black" points="0,-0.5 0,-68.5 129,-68.5 129,-0.5 0,-0.5"/>
<text text-anchor="start" x="8" y="-56.5" font-family="Helvetica,sans-Serif" font-size="10.00">nars.language.TermStruct</text>
<text text-anchor="middle" x="64.5" y="-45.5" font-family="Helvetica,sans-Serif" font-size="10.00">Autobean</text>
<polyline fill="none" stroke="black" points="0,-38.5 129,-38.5 "/>
<text text-anchor="start" x="8" y="-26.5" font-family="Helvetica,sans-Serif" font-size="10.00">+ FACTORY</text>
<polyline fill="none" stroke="black" points="0,-19.5 129,-19.5 "/>
<text text-anchor="start" x="8" y="-7.5" font-family="Helvetica,sans-Serif" font-size="10.00">+ apply()</text>
</g>
<!-- Node2 -->
<g id="node2" class="node"><title>Node2</title>
<polygon fill="none" stroke="#bfbfbf" points="5,-105.5 5,-173.5 124,-173.5 124,-105.5 5,-105.5"/>
<text text-anchor="start" x="13" y="-161.5" font-family="Helvetica,sans-Serif" font-size="10.00">inc::glamdring::vtables</text>
<text text-anchor="middle" x="64.5" y="-150.5" font-family="Helvetica,sans-Serif" font-size="10.00">::_reifier&lt; TermStruct &gt;</text>
<polyline fill="none" stroke="#bfbfbf" points="5,-143.5 124,-143.5 "/>
<text text-anchor="middle" x="64.5" y="-131.5" font-family="Helvetica,sans-Serif" font-size="10.00"> </text>
<polyline fill="none" stroke="#bfbfbf" points="5,-124.5 124,-124.5 "/>
<text text-anchor="middle" x="64.5" y="-112.5" font-family="Helvetica,sans-Serif" font-size="10.00"> </text>
</g>
<!-- Node2&#45;&gt;Node1 -->
<g id="edge1" class="edge"><title>Node2&#45;&gt;Node1</title>
<path fill="none" stroke="midnightblue" d="M64.5,-95.1362C64.5,-86.256 64.5,-77.0447 64.5,-68.5947"/>
<polygon fill="none" stroke="midnightblue" points="61.0001,-95.3432 64.5,-105.343 68.0001,-95.3432 61.0001,-95.3432"/>
</g>
</g>
</svg>
