<?xml version="1.0" encoding="UTF-8" standalone="no"?>
<!DOCTYPE svg PUBLIC "-//W3C//DTD SVG 1.1//EN"
 "http://www.w3.org/Graphics/SVG/1.1/DTD/svg11.dtd">
<!-- Generated by graphviz version 2.38.0 (20140413.2041)
 -->
<!-- Title: nars.storage.Memory.NARSBatch.init Pages: 1 -->
<svg width="634pt" height="88pt"
 viewBox="0.00 0.00 634.00 88.00" xmlns="http://www.w3.org/2000/svg" xmlns:xlink="http://www.w3.org/1999/xlink">
<g id="graph0" class="graph" transform="scale(1 1) rotate(0) translate(4 84)">
<title>nars.storage.Memory.NARSBatch.init</title>
<!-- Node1 -->
<g id="node1" class="node"><title>Node1</title>
<polygon fill="#bfbfbf" stroke="black" points="0,-30 0,-49 182,-49 182,-30 0,-30"/>
<text text-anchor="middle" x="91" y="-37" font-family="Helvetica,sans-Serif" font-size="10.00">nars.storage.Memory.NARSBatch.init</text>
</g>
<!-- Node2 -->
<g id="node2" class="node"><title>Node2</title>
<g id="a_node2"><a xlink:href="../../d4/d88/classnars_1_1storage_1_1Memory_1_1NARSBatch_a4a34ffaab4bcb8885d685edf69f4e2d2.html#a4a34ffaab4bcb8885d685edf69f4e2d2" target="_top" xlink:title="nars.storage.Memory.NARSBatch.\lNARSBatch">
<polygon fill="none" stroke="black" points="224.5,-49.5 224.5,-79.5 393.5,-79.5 393.5,-49.5 224.5,-49.5"/>
<text text-anchor="start" x="232.5" y="-67.5" font-family="Helvetica,sans-Serif" font-size="10.00">nars.storage.Memory.NARSBatch.</text>
<text text-anchor="middle" x="309" y="-56.5" font-family="Helvetica,sans-Serif" font-size="10.00">NARSBatch</text>
</a>
</g>
</g>
<!-- Node1&#45;&gt;Node2 -->
<g id="edge1" class="edge"><title>Node1&#45;&gt;Node2</title>
<path fill="none" stroke="midnightblue" d="M184.319,-50.1851C197.552,-51.7166 211.105,-53.2853 224.161,-54.7965"/>
<polygon fill="midnightblue" stroke="midnightblue" points="184.613,-46.6958 174.277,-49.0227 183.808,-53.6494 184.613,-46.6958"/>
</g>
<!-- Node4 -->
<g id="node4" class="node"><title>Node4</title>
<g id="a_node4"><a xlink:href="../../d4/d88/classnars_1_1storage_1_1Memory_1_1NARSBatch_a416c39463faa161661ed1d12fea03b3c.html#a416c39463faa161661ed1d12fea03b3c" target="_top" xlink:title="non&#45;static equivalent to main(String[]) : run to completion from an input file ">
<polygon fill="none" stroke="black" points="218,-0.5 218,-30.5 400,-30.5 400,-0.5 218,-0.5"/>
<text text-anchor="start" x="226" y="-18.5" font-family="Helvetica,sans-Serif" font-size="10.00">nars.storage.Memory.NARSBatch.run</text>
<text text-anchor="middle" x="309" y="-7.5" font-family="Helvetica,sans-Serif" font-size="10.00">Inference</text>
</a>
</g>
</g>
<!-- Node1&#45;&gt;Node4 -->
<g id="edge3" class="edge"><title>Node1&#45;&gt;Node4</title>
<path fill="none" stroke="midnightblue" d="M187.647,-28.8725C197.676,-27.7582 207.849,-26.6279 217.814,-25.5206"/>
<polygon fill="midnightblue" stroke="midnightblue" points="187.231,-25.3971 177.679,-29.9801 188.005,-32.3543 187.231,-25.3971"/>
</g>
<!-- Node3 -->
<g id="node3" class="node"><title>Node3</title>
<g id="a_node3"><a xlink:href="../../d4/d88/classnars_1_1storage_1_1Memory_1_1NARSBatch_aa97fcd68270583e60e6bf1b4579d1bdc.html#aa97fcd68270583e60e6bf1b4579d1bdc" target="_top" xlink:title="The entry point of the standalone application. ">
<polygon fill="none" stroke="black" points="436,-30 436,-49 626,-49 626,-30 436,-30"/>
<text text-anchor="middle" x="531" y="-37" font-family="Helvetica,sans-Serif" font-size="10.00">nars.storage.Memory.NARSBatch.main</text>
</a>
</g>
</g>
<!-- Node2&#45;&gt;Node3 -->
<g id="edge2" class="edge"><title>Node2&#45;&gt;Node3</title>
<path fill="none" stroke="midnightblue" d="M403.922,-53.8271C417.927,-52.2356 432.287,-50.6037 446.069,-49.0377"/>
<polygon fill="midnightblue" stroke="midnightblue" points="403.341,-50.3705 393.8,-54.9773 404.131,-57.3257 403.341,-50.3705"/>
</g>
<!-- Node4&#45;&gt;Node3 -->
<g id="edge4" class="edge"><title>Node4&#45;&gt;Node3</title>
<path fill="none" stroke="midnightblue" d="M410.108,-26.4209C421.041,-27.6135 432.105,-28.8205 442.864,-29.9942"/>
<polygon fill="midnightblue" stroke="midnightblue" points="410.438,-22.9362 400.117,-25.331 409.679,-29.8949 410.438,-22.9362"/>
</g>
</g>
</svg>
