<?xml version="1.0" encoding="UTF-8" standalone="no"?>
<!DOCTYPE svg PUBLIC "-//W3C//DTD SVG 1.1//EN"
 "http://www.w3.org/Graphics/SVG/1.1/DTD/svg11.dtd">
<!-- Generated by graphviz version 2.38.0 (20140413.2041)
 -->
<!-- Title: nars.storage.Memory.NARSBatch.init Pages: 1 -->
<svg width="380pt" height="88pt"
 viewBox="0.00 0.00 380.00 88.00" xmlns="http://www.w3.org/2000/svg" xmlns:xlink="http://www.w3.org/1999/xlink">
<g id="graph0" class="graph" transform="scale(1 1) rotate(0) translate(4 84)">
<title>nars.storage.Memory.NARSBatch.init</title>
<!-- Node1 -->
<g id="node1" class="node"><title>Node1</title>
<polygon fill="#bfbfbf" stroke="black" points="0,-30 0,-49 182,-49 182,-30 0,-30"/>
<text text-anchor="middle" x="91" y="-37" font-family="Helvetica,sans-Serif" font-size="10.00">nars.storage.Memory.NARSBatch.init</text>
</g>
<!-- Node2 -->
<g id="node2" class="node"><title>Node2</title>
<g id="a_node2"><a xlink:href="../../dd/da5/classnars_1_1storage_1_1Memory_1_1ReasonerBatch_ab57c8b17d75a77c308f50ed6fe4033fd.html#ab57c8b17d75a77c308f50ed6fe4033fd" target="_top" xlink:title="nars.storage.Memory.Reasoner\lBatch.addOutputChannel">
<polygon fill="none" stroke="black" points="218,-49.5 218,-79.5 372,-79.5 372,-49.5 218,-49.5"/>
<text text-anchor="start" x="226" y="-67.5" font-family="Helvetica,sans-Serif" font-size="10.00">nars.storage.Memory.Reasoner</text>
<text text-anchor="middle" x="295" y="-56.5" font-family="Helvetica,sans-Serif" font-size="10.00">Batch.addOutputChannel</text>
</a>
</g>
</g>
<!-- Node1&#45;&gt;Node2 -->
<g id="edge1" class="edge"><title>Node1&#45;&gt;Node2</title>
<path fill="none" stroke="midnightblue" d="M168.944,-49.0227C181.612,-50.5906 194.817,-52.2249 207.696,-53.8188"/>
<polygon fill="midnightblue" stroke="midnightblue" points="207.584,-57.3316 217.938,-55.0864 208.444,-50.3846 207.584,-57.3316"/>
</g>
<!-- Node3 -->
<g id="node3" class="node"><title>Node3</title>
<g id="a_node3"><a xlink:href="../../d7/d69/classnars_1_1io_1_1ExperienceReader_a9f3c8bc8f7309340a49f51ff680811dd.html#a9f3c8bc8f7309340a49f51ff680811dd" target="_top" xlink:title="Open an input experience file with a FileDialog. ">
<polygon fill="none" stroke="black" points="218.5,-0.5 218.5,-30.5 371.5,-30.5 371.5,-0.5 218.5,-0.5"/>
<text text-anchor="start" x="226.5" y="-18.5" font-family="Helvetica,sans-Serif" font-size="10.00">nars.io.ExperienceReader.open</text>
<text text-anchor="middle" x="295" y="-7.5" font-family="Helvetica,sans-Serif" font-size="10.00">LoadFile</text>
</a>
</g>
</g>
<!-- Node1&#45;&gt;Node3 -->
<g id="edge2" class="edge"><title>Node1&#45;&gt;Node3</title>
<path fill="none" stroke="midnightblue" d="M172.126,-29.9801C184.001,-28.5691 196.28,-27.1103 208.264,-25.6864"/>
<polygon fill="midnightblue" stroke="midnightblue" points="208.73,-29.1558 218.247,-24.5003 207.904,-22.2047 208.73,-29.1558"/>
</g>
</g>
</svg>
