<?xml version="1.0" encoding="UTF-8" standalone="no"?>
<!DOCTYPE svg PUBLIC "-//W3C//DTD SVG 1.1//EN"
 "http://www.w3.org/Graphics/SVG/1.1/DTD/svg11.dtd">
<!-- Generated by graphviz version 2.38.0 (20140413.2041)
 -->
<!-- Title: nars.entity.Stamp.make Pages: 1 -->
<svg width="290pt" height="104pt"
 viewBox="0.00 0.00 290.00 104.00" xmlns="http://www.w3.org/2000/svg" xmlns:xlink="http://www.w3.org/1999/xlink">
<g id="graph0" class="graph" transform="scale(1 1) rotate(0) translate(4 100)">
<title>nars.entity.Stamp.make</title>
<!-- Node1 -->
<g id="node1" class="node"><title>Node1</title>
<polygon fill="#bfbfbf" stroke="black" points="0,-38.5 0,-57.5 121,-57.5 121,-38.5 0,-38.5"/>
<text text-anchor="middle" x="60.5" y="-45.5" font-family="Helvetica,sans-Serif" font-size="10.00">nars.entity.Stamp.make</text>
</g>
<!-- Node2 -->
<g id="node2" class="node"><title>Node2</title>
<g id="a_node2"><a xlink:href="../../d1/d1e/classnars_1_1entity_1_1Stamp_a546d6921dc3e1e4a9d1b80bf7f0356b4.html#a546d6921dc3e1e4a9d1b80bf7f0356b4" target="_top" xlink:title="Get a number from the evidentialBase by index, called in this class only. ">
<polygon fill="none" stroke="black" points="164.5,-76.5 164.5,-95.5 274.5,-95.5 274.5,-76.5 164.5,-76.5"/>
<text text-anchor="middle" x="219.5" y="-83.5" font-family="Helvetica,sans-Serif" font-size="10.00">nars.entity.Stamp.get</text>
</a>
</g>
</g>
<!-- Node1&#45;&gt;Node2 -->
<g id="edge1" class="edge"><title>Node1&#45;&gt;Node2</title>
<path fill="none" stroke="midnightblue" d="M101.118,-57.589C121.836,-62.6035 147.388,-68.7881 169.356,-74.1053"/>
<polygon fill="midnightblue" stroke="midnightblue" points="168.624,-77.5292 179.167,-76.4799 170.271,-70.7256 168.624,-77.5292"/>
</g>
<!-- Node3 -->
<g id="node3" class="node"><title>Node3</title>
<g id="a_node3"><a xlink:href="../../d1/d1e/classnars_1_1entity_1_1Stamp_a316ac8d258c291cb941e50f17c2dc0eb.html#a316ac8d258c291cb941e50f17c2dc0eb" target="_top" xlink:title="Return the baseLength of the evidentialBase. ">
<polygon fill="none" stroke="black" points="158,-38.5 158,-57.5 281,-57.5 281,-38.5 158,-38.5"/>
<text text-anchor="middle" x="219.5" y="-45.5" font-family="Helvetica,sans-Serif" font-size="10.00">nars.entity.Stamp.length</text>
</a>
</g>
</g>
<!-- Node1&#45;&gt;Node3 -->
<g id="edge2" class="edge"><title>Node1&#45;&gt;Node3</title>
<path fill="none" stroke="midnightblue" d="M121.303,-48C129.898,-48 138.811,-48 147.596,-48"/>
<polygon fill="midnightblue" stroke="midnightblue" points="147.823,-51.5001 157.823,-48 147.822,-44.5001 147.823,-51.5001"/>
</g>
<!-- Node4 -->
<g id="node4" class="node"><title>Node4</title>
<g id="a_node4"><a xlink:href="../../d1/d1e/classnars_1_1entity_1_1Stamp_a959f21fb20f72cfd277d994332e862c3.html#a959f21fb20f72cfd277d994332e862c3" target="_top" xlink:title="Generate a new stamp, with a new serial number, for a new Task. ">
<polygon fill="none" stroke="black" points="157,-0.5 157,-19.5 282,-19.5 282,-0.5 157,-0.5"/>
<text text-anchor="middle" x="219.5" y="-7.5" font-family="Helvetica,sans-Serif" font-size="10.00">nars.entity.Stamp.Stamp</text>
</a>
</g>
</g>
<!-- Node1&#45;&gt;Node4 -->
<g id="edge3" class="edge"><title>Node1&#45;&gt;Node4</title>
<path fill="none" stroke="midnightblue" d="M101.118,-38.411C121.836,-33.3965 147.388,-27.2119 169.356,-21.8947"/>
<polygon fill="midnightblue" stroke="midnightblue" points="170.271,-25.2744 179.167,-19.5201 168.624,-18.4708 170.271,-25.2744"/>
</g>
</g>
</svg>
