<?xml version="1.0" encoding="UTF-8" standalone="no"?>
<!DOCTYPE svg PUBLIC "-//W3C//DTD SVG 1.1//EN"
 "http://www.w3.org/Graphics/SVG/1.1/DTD/svg11.dtd">
<!-- Generated by graphviz version 2.38.0 (20140413.2041)
 -->
<!-- Title: nars.entity.Stamp.length Pages: 1 -->
<!--zoomable 137 -->
<svg id="main" version="1.1" xmlns="http://www.w3.org/2000/svg" xmlns:xlink="http://www.w3.org/1999/xlink" xml:space="preserve" onload="init(evt)">
<style type="text/css"><![CDATA[
.edge:hover path { stroke: red; }
.edge:hover polygon { stroke: red; fill: red; }
]]></style>
<script type="text/javascript"><![CDATA[
var edges = document.getElementsByTagName('g');
if (edges && edges.length) {
  for (var i=0;i<edges.length;i++) {
    if (edges[i].id.substr(0,4)=='edge') {
      edges[i].setAttribute('class','edge');
    }
  }
}
]]></script>
        <defs>
                <circle id="rim" cx="0" cy="0" r="7"/>
                <circle id="rim2" cx="0" cy="0" r="3.5"/>
                <g id="zoomPlus">
                        <use xlink:href="#rim" fill="#404040">
                                <set attributeName="fill" to="#808080" begin="zoomplus.mouseover" end="zoomplus.mouseout"/>
                        </use>
                        <path d="M-4,0h8M0,-4v8" fill="none" stroke="white" stroke-width="1.5" pointer-events="none"/>
                </g>
                <g id="zoomMin">
                        <use xlink:href="#rim" fill="#404040">
                                <set attributeName="fill" to="#808080" begin="zoomminus.mouseover" end="zoomminus.mouseout"/>
                        </use>
                        <path d="M-4,0h8" fill="none" stroke="white" stroke-width="1.5" pointer-events="none"/>
                </g>
                <g id="dirArrow">
                        <path fill="none" stroke="white" stroke-width="1.5" d="M0,-3.0v7 M-2.5,-0.5L0,-3.0L2.5,-0.5"/>
                </g>
               <g id="resetDef">
                       <use xlink:href="#rim2" fill="#404040">
                               <set attributeName="fill" to="#808080" begin="reset.mouseover" end="reset.mouseout"/>
                       </use>
               </g>
        </defs>

<script type="text/javascript">
var viewWidth = 2475;
var viewHeight = 137;
var sectionId = 'dynsection-0';
</script>
<script xlink:href="../../svgpan.js"/>
<svg id="graph" class="graph">
<g id="viewport">
<title>nars.entity.Stamp.length</title>
<!-- Node1 -->
<g id="node1" class="node"><title>Node1</title>
<polygon fill="#bfbfbf" stroke="black" points="0,-57 0,-76 123,-76 123,-57 0,-57"/>
<text text-anchor="middle" x="61.5" y="-64" font-family="Helvetica,sans-Serif" font-size="10.00">nars.entity.Stamp.length</text>
</g>
<!-- Node2 -->
<g id="node2" class="node"><title>Node2</title>
<g id="a_node2"><a xlink:href="../../d1/d1e/classnars_1_1entity_1_1Stamp_a47f0e631d97f15a4b6520847c2c4d62a.html#a47f0e631d97f15a4b6520847c2c4d62a" target="_top" xlink:title="Try to merge two Stamps, return null if have overlap. ">
<polygon fill="none" stroke="black" points="376.5,-101 376.5,-120 497.5,-120 497.5,-101 376.5,-101"/>
<text text-anchor="middle" x="437" y="-108" font-family="Helvetica,sans-Serif" font-size="10.00">nars.entity.Stamp.make</text>
</a>
</g>
</g>
<!-- Node1&#45;&gt;Node2 -->
<g id="edge1" class="edge"><title>Node1&#45;&gt;Node2</title>
<path fill="none" stroke="midnightblue" d="M104.848,-78.7027C121.584,-83.0847 141.069,-87.6446 159,-90.5 233.399,-102.348 320.17,-107.183 376.494,-109.153"/>
<polygon fill="midnightblue" stroke="midnightblue" points="105.387,-75.2235 94.8215,-76.0141 103.574,-81.9847 105.387,-75.2235"/>
</g>
<!-- Node18 -->
<g id="node18" class="node"><title>Node18</title>
<g id="a_node18"><a xlink:href="../../d7/d11/classnars_1_1inference_1_1BudgetFunctions_a5c7290e12cda0925b936c07ed7b806f3.html#a5c7290e12cda0925b936c07ed7b806f3" target="_top" xlink:title="Determine the rank of a judgment by its confidence and originality (stamp length) ...">
<polygon fill="none" stroke="black" points="159,-51.5 159,-81.5 335,-81.5 335,-51.5 159,-51.5"/>
<text text-anchor="start" x="167" y="-69.5" font-family="Helvetica,sans-Serif" font-size="10.00">nars.inference.BudgetFunctions.rank</text>
<text text-anchor="middle" x="247" y="-58.5" font-family="Helvetica,sans-Serif" font-size="10.00">Belief</text>
</a>
</g>
</g>
<!-- Node1&#45;&gt;Node18 -->
<g id="edge19" class="edge"><title>Node1&#45;&gt;Node18</title>
<path fill="none" stroke="midnightblue" d="M133.216,-66.5C141.633,-66.5 150.3,-66.5 158.912,-66.5"/>
<polygon fill="midnightblue" stroke="midnightblue" points="133.093,-63.0001 123.093,-66.5 133.093,-70.0001 133.093,-63.0001"/>
</g>
<!-- Node20 -->
<g id="node20" class="node"><title>Node20</title>
<g id="a_node20"><a xlink:href="../../d1/d1e/classnars_1_1entity_1_1Stamp_ace10b17e33839430469efd8af6da5135.html#ace10b17e33839430469efd8af6da5135" target="_top" xlink:title="Generate a new stamp identical with a given one. ">
<polygon fill="none" stroke="black" points="184.5,-13 184.5,-32 309.5,-32 309.5,-13 184.5,-13"/>
<text text-anchor="middle" x="247" y="-20" font-family="Helvetica,sans-Serif" font-size="10.00">nars.entity.Stamp.Stamp</text>
</a>
</g>
</g>
<!-- Node1&#45;&gt;Node20 -->
<g id="edge22" class="edge"><title>Node1&#45;&gt;Node20</title>
<path fill="none" stroke="midnightblue" d="M107.88,-54.3597C123.989,-50.152 142.271,-45.4921 159,-41.5 172.534,-38.2703 187.305,-34.9631 200.77,-32.0322"/>
<polygon fill="midnightblue" stroke="midnightblue" points="106.947,-50.9859 98.1641,-56.9112 108.725,-57.7564 106.947,-50.9859"/>
</g>
<!-- Node3 -->
<g id="node3" class="node"><title>Node3</title>
<g id="a_node3"><a xlink:href="../../d4/d22/classnars_1_1entity_1_1Concept_a37e00599fc19c5931da40bd446890f89.html#a37e00599fc19c5931da40bd446890f89" target="_top" xlink:title="Select a isBelief to interact with the given task in inference. ">
<polygon fill="none" stroke="black" points="539,-102 539,-121 682,-121 682,-102 539,-102"/>
<text text-anchor="middle" x="610.5" y="-109" font-family="Helvetica,sans-Serif" font-size="10.00">nars.entity.Concept.getBelief</text>
</a>
</g>
</g>
<!-- Node2&#45;&gt;Node3 -->
<g id="edge2" class="edge"><title>Node2&#45;&gt;Node3</title>
<path fill="none" stroke="midnightblue" d="M507.667,-110.906C517.963,-110.966 528.58,-111.028 538.896,-111.088"/>
<polygon fill="midnightblue" stroke="midnightblue" points="507.521,-107.405 497.501,-110.847 507.48,-114.405 507.521,-107.405"/>
</g>
<!-- Node13 -->
<g id="node13" class="node"><title>Node13</title>
<g id="a_node13"><a xlink:href="../../d4/d22/classnars_1_1entity_1_1Concept_a40cddcc82ee28a1cf5b1f4bc14e2b078.html#a40cddcc82ee28a1cf5b1f4bc14e2b078" target="_top" xlink:title="To accept a new judgment as isBelief, and check for revisions and solutions. ">
<polygon fill="none" stroke="black" points="540.5,-51.5 540.5,-81.5 680.5,-81.5 680.5,-51.5 540.5,-51.5"/>
<text text-anchor="start" x="548.5" y="-69.5" font-family="Helvetica,sans-Serif" font-size="10.00">nars.entity.Concept.process</text>
<text text-anchor="middle" x="610.5" y="-58.5" font-family="Helvetica,sans-Serif" font-size="10.00">Judgment</text>
</a>
</g>
</g>
<!-- Node2&#45;&gt;Node13 -->
<g id="edge12" class="edge"><title>Node2&#45;&gt;Node13</title>
<path fill="none" stroke="midnightblue" d="M485.152,-98.4026C505.436,-93.1987 529.361,-87.0605 550.779,-81.5654"/>
<polygon fill="midnightblue" stroke="midnightblue" points="484.029,-95.0773 475.213,-100.953 485.769,-101.858 484.029,-95.0773"/>
</g>
<!-- Node4 -->
<g id="node4" class="node"><title>Node4</title>
<g id="a_node4"><a xlink:href="../../da/de3/classnars_1_1inference_1_1RuleTables_ac2d01dfdc40bdd47c757cb549217e6e3.html#ac2d01dfdc40bdd47c757cb549217e6e3" target="_top" xlink:title="Entry point of the inference engine. ">
<polygon fill="none" stroke="black" points="718,-103 718,-122 881,-122 881,-103 718,-103"/>
<text text-anchor="middle" x="799.5" y="-110" font-family="Helvetica,sans-Serif" font-size="10.00">nars.inference.RuleTables.reason</text>
</a>
</g>
</g>
<!-- Node3&#45;&gt;Node4 -->
<g id="edge3" class="edge"><title>Node3&#45;&gt;Node4</title>
<path fill="none" stroke="midnightblue" d="M692.44,-111.933C700.91,-111.978 709.52,-112.024 717.985,-112.069"/>
<polygon fill="midnightblue" stroke="midnightblue" points="692.215,-108.432 682.197,-111.878 692.178,-115.432 692.215,-108.432"/>
</g>
<!-- Node5 -->
<g id="node5" class="node"><title>Node5</title>
<g id="a_node5"><a xlink:href="../../d4/d22/classnars_1_1entity_1_1Concept_ae07576c8466ad65eeb61040e3f71cfc7.html#ae07576c8466ad65eeb61040e3f71cfc7" target="_top" xlink:title="An atomic step in a concept, only called in Memory# processConcept. ">
<polygon fill="none" stroke="black" points="936,-103 936,-122 1055,-122 1055,-103 936,-103"/>
<text text-anchor="middle" x="995.5" y="-110" font-family="Helvetica,sans-Serif" font-size="10.00">nars.entity.Concept.fire</text>
</a>
</g>
</g>
<!-- Node4&#45;&gt;Node5 -->
<g id="edge4" class="edge"><title>Node4&#45;&gt;Node5</title>
<path fill="none" stroke="midnightblue" d="M891.461,-112.5C906.516,-112.5 921.765,-112.5 935.751,-112.5"/>
<polygon fill="midnightblue" stroke="midnightblue" points="891.088,-109 881.088,-112.5 891.088,-116 891.088,-109"/>
</g>
<!-- Node6 -->
<g id="node6" class="node"><title>Node6</title>
<g id="a_node6"><a xlink:href="../../d8/df4/classnars_1_1storage_1_1Memory_a83154b55b922c82b73931d4f22e3a590.html#a83154b55b922c82b73931d4f22e3a590" target="_top" xlink:title="Select a concept to fire. ">
<polygon fill="none" stroke="black" points="1110,-98.5 1110,-128.5 1256,-128.5 1256,-98.5 1110,-98.5"/>
<text text-anchor="start" x="1118" y="-116.5" font-family="Helvetica,sans-Serif" font-size="10.00">nars.storage.Memory.process</text>
<text text-anchor="middle" x="1183" y="-105.5" font-family="Helvetica,sans-Serif" font-size="10.00">Concept</text>
</a>
</g>
</g>
<!-- Node5&#45;&gt;Node6 -->
<g id="edge5" class="edge"><title>Node5&#45;&gt;Node6</title>
<path fill="none" stroke="midnightblue" d="M1065.52,-112.872C1079.93,-112.95 1095.16,-113.032 1109.68,-113.11"/>
<polygon fill="midnightblue" stroke="midnightblue" points="1065.21,-109.37 1055.19,-112.816 1065.17,-116.37 1065.21,-109.37"/>
</g>
<!-- Node7 -->
<g id="node7" class="node"><title>Node7</title>
<g id="a_node7"><a xlink:href="../../d8/df4/classnars_1_1storage_1_1Memory_a49e2cbc8b78d535f4d69739886ee966a.html#a49e2cbc8b78d535f4d69739886ee966a" target="_top" xlink:title="An atomic working workCycle of the system: process new Tasks, then fire a concept. ">
<polygon fill="none" stroke="black" points="1292,-49.5 1292,-79.5 1425,-79.5 1425,-49.5 1292,-49.5"/>
<text text-anchor="start" x="1300" y="-67.5" font-family="Helvetica,sans-Serif" font-size="10.00">nars.storage.Memory.work</text>
<text text-anchor="middle" x="1358.5" y="-56.5" font-family="Helvetica,sans-Serif" font-size="10.00">Cycle</text>
</a>
</g>
</g>
<!-- Node6&#45;&gt;Node7 -->
<g id="edge6" class="edge"><title>Node6&#45;&gt;Node7</title>
<path fill="none" stroke="midnightblue" d="M1247.1,-95.6788C1265.83,-90.3882 1286.16,-84.6478 1304.21,-79.5516"/>
<polygon fill="midnightblue" stroke="midnightblue" points="1246.14,-92.3123 1237.47,-98.3986 1248.05,-99.0488 1246.14,-92.3123"/>
</g>
<!-- Node8 -->
<g id="node8" class="node"><title>Node8</title>
<g id="a_node8"><a xlink:href="../../dd/da5/classnars_1_1storage_1_1Memory_1_1ReasonerBatch_acc60dec23da774957a85362ed6d7448b.html#acc60dec23da774957a85362ed6d7448b" target="_top" xlink:title="nars.storage.Memory.Reasoner\lBatch.doTick">
<polygon fill="none" stroke="black" points="1461,-49.5 1461,-79.5 1615,-79.5 1615,-49.5 1461,-49.5"/>
<text text-anchor="start" x="1469" y="-67.5" font-family="Helvetica,sans-Serif" font-size="10.00">nars.storage.Memory.Reasoner</text>
<text text-anchor="middle" x="1538" y="-56.5" font-family="Helvetica,sans-Serif" font-size="10.00">Batch.doTick</text>
</a>
</g>
</g>
<!-- Node7&#45;&gt;Node8 -->
<g id="edge7" class="edge"><title>Node7&#45;&gt;Node8</title>
<path fill="none" stroke="midnightblue" d="M1435.32,-64.5C1443.79,-64.5 1452.41,-64.5 1460.89,-64.5"/>
<polygon fill="midnightblue" stroke="midnightblue" points="1435.09,-61.0001 1425.09,-64.5 1435.09,-68.0001 1435.09,-61.0001"/>
</g>
<!-- Node9 -->
<g id="node9" class="node"><title>Node9</title>
<g id="a_node9"><a xlink:href="../../dd/da5/classnars_1_1storage_1_1Memory_1_1ReasonerBatch_aed591f05899b98fd9e4ad01836ad0a40.html#aed591f05899b98fd9e4ad01836ad0a40" target="_top" xlink:title="A clock tick. ">
<polygon fill="none" stroke="black" points="1651,-49.5 1651,-79.5 1805,-79.5 1805,-49.5 1651,-49.5"/>
<text text-anchor="start" x="1659" y="-67.5" font-family="Helvetica,sans-Serif" font-size="10.00">nars.storage.Memory.Reasoner</text>
<text text-anchor="middle" x="1728" y="-56.5" font-family="Helvetica,sans-Serif" font-size="10.00">Batch.tick</text>
</a>
</g>
</g>
<!-- Node8&#45;&gt;Node9 -->
<g id="edge8" class="edge"><title>Node8&#45;&gt;Node9</title>
<path fill="none" stroke="midnightblue" d="M1625.42,-64.5C1633.86,-64.5 1642.37,-64.5 1650.7,-64.5"/>
<polygon fill="midnightblue" stroke="midnightblue" points="1625.2,-61.0001 1615.2,-64.5 1625.2,-68.0001 1625.2,-61.0001"/>
</g>
<!-- Node10 -->
<g id="node10" class="node"><title>Node10</title>
<g id="a_node10"><a xlink:href="../../d4/d88/classnars_1_1storage_1_1Memory_1_1NARSBatch_aad99db6cedde9cff2a997db8906ff821.html#aad99db6cedde9cff2a997db8906ff821" target="_top" xlink:title="Run to completion: repeatedly execute NARS working cycle, until Inputs are Finished, or 1000 steps. ">
<polygon fill="none" stroke="black" points="1841,-55 1841,-74 2023,-74 2023,-55 1841,-55"/>
<text text-anchor="middle" x="1932" y="-62" font-family="Helvetica,sans-Serif" font-size="10.00">nars.storage.Memory.NARSBatch.run</text>
</a>
</g>
</g>
<!-- Node9&#45;&gt;Node10 -->
<g id="edge9" class="edge"><title>Node9&#45;&gt;Node10</title>
<path fill="none" stroke="midnightblue" d="M1815.27,-64.5C1823.69,-64.5 1832.25,-64.5 1840.71,-64.5"/>
<polygon fill="midnightblue" stroke="midnightblue" points="1815.08,-61.0001 1805.08,-64.5 1815.08,-68.0001 1815.08,-61.0001"/>
</g>
<!-- Node11 -->
<g id="node11" class="node"><title>Node11</title>
<g id="a_node11"><a xlink:href="../../d4/d88/classnars_1_1storage_1_1Memory_1_1NARSBatch_a416c39463faa161661ed1d12fea03b3c.html#a416c39463faa161661ed1d12fea03b3c" target="_top" xlink:title="non&#45;static equivalent to main(String[]) : run to completion from an input file ">
<polygon fill="none" stroke="black" points="2059,-49.5 2059,-79.5 2241,-79.5 2241,-49.5 2059,-49.5"/>
<text text-anchor="start" x="2067" y="-67.5" font-family="Helvetica,sans-Serif" font-size="10.00">nars.storage.Memory.NARSBatch.run</text>
<text text-anchor="middle" x="2150" y="-56.5" font-family="Helvetica,sans-Serif" font-size="10.00">Inference</text>
</a>
</g>
</g>
<!-- Node10&#45;&gt;Node11 -->
<g id="edge10" class="edge"><title>Node10&#45;&gt;Node11</title>
<path fill="none" stroke="midnightblue" d="M2033.06,-64.5C2041.63,-64.5 2050.27,-64.5 2058.76,-64.5"/>
<polygon fill="midnightblue" stroke="midnightblue" points="2033.04,-61.0001 2023.04,-64.5 2033.04,-68.0001 2033.04,-61.0001"/>
</g>
<!-- Node12 -->
<g id="node12" class="node"><title>Node12</title>
<g id="a_node12"><a xlink:href="../../d4/d88/classnars_1_1storage_1_1Memory_1_1NARSBatch_aa97fcd68270583e60e6bf1b4579d1bdc.html#aa97fcd68270583e60e6bf1b4579d1bdc" target="_top" xlink:title="The entry point of the standalone application. ">
<polygon fill="none" stroke="black" points="2277,-55 2277,-74 2467,-74 2467,-55 2277,-55"/>
<text text-anchor="middle" x="2372" y="-62" font-family="Helvetica,sans-Serif" font-size="10.00">nars.storage.Memory.NARSBatch.main</text>
</a>
</g>
</g>
<!-- Node11&#45;&gt;Node12 -->
<g id="edge11" class="edge"><title>Node11&#45;&gt;Node12</title>
<path fill="none" stroke="midnightblue" d="M2251.37,-64.5C2259.82,-64.5 2268.34,-64.5 2276.74,-64.5"/>
<polygon fill="midnightblue" stroke="midnightblue" points="2251.12,-61.0001 2241.12,-64.5 2251.12,-68.0001 2251.12,-61.0001"/>
</g>
<!-- Node14 -->
<g id="node14" class="node"><title>Node14</title>
<g id="a_node14"><a xlink:href="../../d4/d22/classnars_1_1entity_1_1Concept_a9ea7c3154932d7a736c105eb55daeb5c.html#a9ea7c3154932d7a736c105eb55daeb5c" target="_top" xlink:title="Directly process a new task. ">
<polygon fill="none" stroke="black" points="735,-49.5 735,-79.5 864,-79.5 864,-49.5 735,-49.5"/>
<text text-anchor="start" x="743" y="-67.5" font-family="Helvetica,sans-Serif" font-size="10.00">nars.entity.Concept.direct</text>
<text text-anchor="middle" x="799.5" y="-56.5" font-family="Helvetica,sans-Serif" font-size="10.00">Process</text>
</a>
</g>
</g>
<!-- Node13&#45;&gt;Node14 -->
<g id="edge13" class="edge"><title>Node13&#45;&gt;Node14</title>
<path fill="none" stroke="midnightblue" d="M690.723,-65.6527C705.484,-65.4948 720.73,-65.3318 734.945,-65.1797"/>
<polygon fill="midnightblue" stroke="midnightblue" points="690.563,-62.1541 680.601,-65.761 690.637,-69.1537 690.563,-62.1541"/>
</g>
<!-- Node15 -->
<g id="node15" class="node"><title>Node15</title>
<g id="a_node15"><a xlink:href="../../d8/df4/classnars_1_1storage_1_1Memory_a175200c1f4c182222d0e66439b6e53a0.html#a175200c1f4c182222d0e66439b6e53a0" target="_top" xlink:title="Immediate processing of a new task, in constant time Local processing, in one concept only...">
<polygon fill="none" stroke="black" points="917,-49.5 917,-79.5 1074,-79.5 1074,-49.5 917,-49.5"/>
<text text-anchor="start" x="925" y="-67.5" font-family="Helvetica,sans-Serif" font-size="10.00">nars.storage.Memory.immediate</text>
<text text-anchor="middle" x="995.5" y="-56.5" font-family="Helvetica,sans-Serif" font-size="10.00">Process</text>
</a>
</g>
</g>
<!-- Node14&#45;&gt;Node15 -->
<g id="edge14" class="edge"><title>Node14&#45;&gt;Node15</title>
<path fill="none" stroke="midnightblue" d="M874.088,-64.5C888.105,-64.5 902.815,-64.5 916.95,-64.5"/>
<polygon fill="midnightblue" stroke="midnightblue" points="874.023,-61.0001 864.023,-64.5 874.023,-68.0001 874.023,-61.0001"/>
</g>
<!-- Node16 -->
<g id="node16" class="node"><title>Node16</title>
<g id="a_node16"><a xlink:href="../../d8/df4/classnars_1_1storage_1_1Memory_a105e44a3504921cc1036eb979b85d9f0.html#a105e44a3504921cc1036eb979b85d9f0" target="_top" xlink:title="Process the newTasks accumulated in the previous workCycle, accept input ones and those that correspo...">
<polygon fill="none" stroke="black" points="1110,-49.5 1110,-79.5 1256,-79.5 1256,-49.5 1110,-49.5"/>
<text text-anchor="start" x="1118" y="-67.5" font-family="Helvetica,sans-Serif" font-size="10.00">nars.storage.Memory.process</text>
<text text-anchor="middle" x="1183" y="-56.5" font-family="Helvetica,sans-Serif" font-size="10.00">NewTask</text>
</a>
</g>
</g>
<!-- Node15&#45;&gt;Node16 -->
<g id="edge15" class="edge"><title>Node15&#45;&gt;Node16</title>
<path fill="none" stroke="midnightblue" d="M1084.12,-64.5C1092.71,-64.5 1101.35,-64.5 1109.75,-64.5"/>
<polygon fill="midnightblue" stroke="midnightblue" points="1084.09,-61.0001 1074.09,-64.5 1084.09,-68.0001 1084.09,-61.0001"/>
</g>
<!-- Node17 -->
<g id="node17" class="node"><title>Node17</title>
<g id="a_node17"><a xlink:href="../../d8/df4/classnars_1_1storage_1_1Memory_afe3b4d1bb5fab652ceca53c04773af73.html#afe3b4d1bb5fab652ceca53c04773af73" target="_top" xlink:title="Select a novel task to process. ">
<polygon fill="none" stroke="black" points="1110,-0.5 1110,-30.5 1256,-30.5 1256,-0.5 1110,-0.5"/>
<text text-anchor="start" x="1118" y="-18.5" font-family="Helvetica,sans-Serif" font-size="10.00">nars.storage.Memory.process</text>
<text text-anchor="middle" x="1183" y="-7.5" font-family="Helvetica,sans-Serif" font-size="10.00">NovelTask</text>
</a>
</g>
</g>
<!-- Node15&#45;&gt;Node17 -->
<g id="edge17" class="edge"><title>Node15&#45;&gt;Node17</title>
<path fill="none" stroke="midnightblue" d="M1063.22,-46.8771C1083.51,-41.5163 1105.61,-35.6775 1125.19,-30.5062"/>
<polygon fill="midnightblue" stroke="midnightblue" points="1062.19,-43.5275 1053.42,-49.4654 1063.98,-50.2953 1062.19,-43.5275"/>
</g>
<!-- Node16&#45;&gt;Node7 -->
<g id="edge16" class="edge"><title>Node16&#45;&gt;Node7</title>
<path fill="none" stroke="midnightblue" d="M1266.12,-64.5C1274.72,-64.5 1283.37,-64.5 1291.76,-64.5"/>
<polygon fill="midnightblue" stroke="midnightblue" points="1266.07,-61.0001 1256.07,-64.5 1266.07,-68.0001 1266.07,-61.0001"/>
</g>
<!-- Node17&#45;&gt;Node7 -->
<g id="edge18" class="edge"><title>Node17&#45;&gt;Node7</title>
<path fill="none" stroke="midnightblue" d="M1247.1,-33.3212C1265.83,-38.6118 1286.16,-44.3522 1304.21,-49.4484"/>
<polygon fill="midnightblue" stroke="midnightblue" points="1248.05,-29.9512 1237.47,-30.6014 1246.14,-36.6877 1248.05,-29.9512"/>
</g>
<!-- Node19 -->
<g id="node19" class="node"><title>Node19</title>
<g id="a_node19"><a xlink:href="../../d4/d22/classnars_1_1entity_1_1Concept_a83976b43424cb26fe9cea8654cfee743.html#a83976b43424cb26fe9cea8654cfee743" target="_top" xlink:title="Add a new belief (or goal) into the table Sort the beliefs/goals by rank, and remove redundant or low...">
<polygon fill="none" stroke="black" points="371,-51.5 371,-81.5 503,-81.5 503,-51.5 371,-51.5"/>
<text text-anchor="start" x="379" y="-69.5" font-family="Helvetica,sans-Serif" font-size="10.00">nars.entity.Concept.addTo</text>
<text text-anchor="middle" x="437" y="-58.5" font-family="Helvetica,sans-Serif" font-size="10.00">Table</text>
</a>
</g>
</g>
<!-- Node18&#45;&gt;Node19 -->
<g id="edge20" class="edge"><title>Node18&#45;&gt;Node19</title>
<path fill="none" stroke="midnightblue" d="M345.269,-66.5C353.915,-66.5 362.523,-66.5 370.802,-66.5"/>
<polygon fill="midnightblue" stroke="midnightblue" points="345.121,-63.0001 335.121,-66.5 345.121,-70.0001 345.121,-63.0001"/>
</g>
<!-- Node19&#45;&gt;Node13 -->
<g id="edge21" class="edge"><title>Node19&#45;&gt;Node13</title>
<path fill="none" stroke="midnightblue" d="M513.373,-66.5C522.35,-66.5 531.48,-66.5 540.362,-66.5"/>
<polygon fill="midnightblue" stroke="midnightblue" points="513.326,-63.0001 503.326,-66.5 513.326,-70.0001 513.326,-63.0001"/>
</g>
</g>
</svg>
        <g id="navigator" transform="translate(0 0)" fill="#404254">
                <rect fill="#f2f5e9" fill-opacity="0.5" stroke="#606060" stroke-width=".5" x="0" y="0" width="60" height="60"/>
                <use id="zoomplus" xlink:href="#zoomPlus" x="17" y="9" onmousedown="handleZoom(evt,'in')"/>
                <use id="zoomminus" xlink:href="#zoomMin" x="42" y="9" onmousedown="handleZoom(evt,'out')"/>
                <use id="reset" xlink:href="#resetDef" x="30" y="36" onmousedown="handleReset()"/>
                <g id="arrowUp" xlink:href="#dirArrow" transform="translate(30 24)" onmousedown="handlePan(0,-1)">
                  <use xlink:href="#rim" fill="#404040">
                        <set attributeName="fill" to="#808080" begin="arrowUp.mouseover" end="arrowUp.mouseout"/>
                  </use>
                  <path fill="none" stroke="white" stroke-width="1.5" d="M0,-3.0v7 M-2.5,-0.5L0,-3.0L2.5,-0.5"/>
                </g>
                <g id="arrowRight" xlink:href="#dirArrow" transform="rotate(90) translate(36 -43)" onmousedown="handlePan(1,0)">
                  <use xlink:href="#rim" fill="#404040">
                        <set attributeName="fill" to="#808080" begin="arrowRight.mouseover" end="arrowRight.mouseout"/>
                  </use>
                  <path fill="none" stroke="white" stroke-width="1.5" d="M0,-3.0v7 M-2.5,-0.5L0,-3.0L2.5,-0.5"/>
                </g>
                <g id="arrowDown" xlink:href="#dirArrow" transform="rotate(180) translate(-30 -48)" onmousedown="handlePan(0,1)">
                  <use xlink:href="#rim" fill="#404040">
                        <set attributeName="fill" to="#808080" begin="arrowDown.mouseover" end="arrowDown.mouseout"/>
                  </use>
                  <path fill="none" stroke="white" stroke-width="1.5" d="M0,-3.0v7 M-2.5,-0.5L0,-3.0L2.5,-0.5"/>
                </g>
                <g id="arrowLeft" xlink:href="#dirArrow" transform="rotate(270) translate(-36 17)" onmousedown="handlePan(-1,0)">
                  <use xlink:href="#rim" fill="#404040">
                        <set attributeName="fill" to="#808080" begin="arrowLeft.mouseover" end="arrowLeft.mouseout"/>
                  </use>
                  <path fill="none" stroke="white" stroke-width="1.5" d="M0,-3.0v7 M-2.5,-0.5L0,-3.0L2.5,-0.5"/>
                </g>
        </g>
        <svg viewBox="0 0 15 15" width="100%" height="30px" preserveAspectRatio="xMaxYMin meet">
         <g id="arrow_out" transform="scale(0.3 0.3)">
          <a xlink:href="classnars_1_1entity_1_1Stamp_a316ac8d258c291cb941e50f17c2dc0eb_a316ac8d258c291cb941e50f17c2dc0eb_icgraph_org.svg" target="_base">
           <rect id="button" ry="5" rx="5" y="6" x="6" height="38" width="38"
                fill="#f2f5e9" fill-opacity="0.5" stroke="#606060" stroke-width="1.0"/>
           <path id="arrow"
             d="M 11.500037,31.436501 C 11.940474,20.09759 22.043105,11.32322 32.158766,21.979434 L 37.068811,17.246167 C 37.068811,17.246167 37.088388,32 37.088388,32 L 22.160133,31.978069 C 22.160133,31.978069 26.997745,27.140456 26.997745,27.140456 C 18.528582,18.264221 13.291696,25.230495 11.500037,31.436501 z"
             style="fill:#404040;"/>
          </a>
         </g>
        </svg>
</svg>
