<?xml version="1.0" encoding="UTF-8" standalone="no"?>
<!DOCTYPE svg PUBLIC "-//W3C//DTD SVG 1.1//EN"
 "http://www.w3.org/Graphics/SVG/1.1/DTD/svg11.dtd">
<!-- Generated by graphviz version 2.38.0 (20140413.2041)
 -->
<!-- Title: nars.entity.Stamp.Stamp Pages: 1 -->
<svg width="292pt" height="66pt"
 viewBox="0.00 0.00 292.00 66.00" xmlns="http://www.w3.org/2000/svg" xmlns:xlink="http://www.w3.org/1999/xlink">
<g id="graph0" class="graph" transform="scale(1 1) rotate(0) translate(4 62)">
<title>nars.entity.Stamp.Stamp</title>
<!-- Node1 -->
<g id="node1" class="node"><title>Node1</title>
<polygon fill="#bfbfbf" stroke="black" points="0,-19.5 0,-38.5 125,-38.5 125,-19.5 0,-19.5"/>
<text text-anchor="middle" x="62.5" y="-26.5" font-family="Helvetica,sans-Serif" font-size="10.00">nars.entity.Stamp.Stamp</text>
</g>
<!-- Node2 -->
<g id="node2" class="node"><title>Node2</title>
<g id="a_node2"><a xlink:href="../../d1/d1e/classnars_1_1entity_1_1Stamp_a546d6921dc3e1e4a9d1b80bf7f0356b4.html#a546d6921dc3e1e4a9d1b80bf7f0356b4" target="_top" xlink:title="Get a number from the evidentialBase by index, called in this class only. ">
<polygon fill="none" stroke="black" points="167.5,-38.5 167.5,-57.5 277.5,-57.5 277.5,-38.5 167.5,-38.5"/>
<text text-anchor="middle" x="222.5" y="-45.5" font-family="Helvetica,sans-Serif" font-size="10.00">nars.entity.Stamp.get</text>
</a>
</g>
</g>
<!-- Node1&#45;&gt;Node2 -->
<g id="edge1" class="edge"><title>Node1&#45;&gt;Node2</title>
<path fill="none" stroke="midnightblue" d="M125.039,-36.4003C135.611,-37.6716 146.622,-38.9957 157.262,-40.2752"/>
<polygon fill="midnightblue" stroke="midnightblue" points="156.978,-43.7661 167.324,-41.4852 157.813,-36.8162 156.978,-43.7661"/>
</g>
<!-- Node3 -->
<g id="node3" class="node"><title>Node3</title>
<g id="a_node3"><a xlink:href="../../d1/d1e/classnars_1_1entity_1_1Stamp_a316ac8d258c291cb941e50f17c2dc0eb.html#a316ac8d258c291cb941e50f17c2dc0eb" target="_top" xlink:title="Return the baseLength of the evidentialBase. ">
<polygon fill="none" stroke="black" points="161,-0.5 161,-19.5 284,-19.5 284,-0.5 161,-0.5"/>
<text text-anchor="middle" x="222.5" y="-7.5" font-family="Helvetica,sans-Serif" font-size="10.00">nars.entity.Stamp.length</text>
</a>
</g>
</g>
<!-- Node1&#45;&gt;Node3 -->
<g id="edge2" class="edge"><title>Node1&#45;&gt;Node3</title>
<path fill="none" stroke="midnightblue" d="M125.039,-21.5997C133.509,-20.5812 142.261,-19.5288 150.878,-18.4925"/>
<polygon fill="midnightblue" stroke="midnightblue" points="151.397,-21.9554 160.907,-17.2865 150.561,-15.0055 151.397,-21.9554"/>
</g>
</g>
</svg>
