<?xml version="1.0" encoding="UTF-8" standalone="no"?>
<!DOCTYPE svg PUBLIC "-//W3C//DTD SVG 1.1//EN"
 "http://www.w3.org/Graphics/SVG/1.1/DTD/svg11.dtd">
<!-- Generated by graphviz version 2.38.0 (20140413.2041)
 -->
<!-- Title: nars.entity.Stamp.get Pages: 1 -->
<svg width="2243pt" height="137pt"
 viewBox="0.00 0.00 2243.00 137.00" xmlns="http://www.w3.org/2000/svg" xmlns:xlink="http://www.w3.org/1999/xlink">
<g id="graph0" class="graph" transform="scale(1 1) rotate(0) translate(4 133)">
<title>nars.entity.Stamp.get</title>
<!-- Node1 -->
<g id="node1" class="node"><title>Node1</title>
<polygon fill="#bfbfbf" stroke="black" points="0,-60 0,-79 110,-79 110,-60 0,-60"/>
<text text-anchor="middle" x="55" y="-67" font-family="Helvetica,sans-Serif" font-size="10.00">nars.entity.Stamp.get</text>
</g>
<!-- Node2 -->
<g id="node2" class="node"><title>Node2</title>
<g id="a_node2"><a xlink:href="../../d1/d1e/classnars_1_1entity_1_1Stamp_a47f0e631d97f15a4b6520847c2c4d62a.html#a47f0e631d97f15a4b6520847c2c4d62a" target="_top" xlink:title="Try to merge two Stamps, return null if have overlap. ">
<polygon fill="none" stroke="black" points="148,-79 148,-98 269,-98 269,-79 148,-79"/>
<text text-anchor="middle" x="208.5" y="-86" font-family="Helvetica,sans-Serif" font-size="10.00">nars.entity.Stamp.make</text>
</a>
</g>
</g>
<!-- Node1&#45;&gt;Node2 -->
<g id="edge1" class="edge"><title>Node1&#45;&gt;Node2</title>
<path fill="none" stroke="midnightblue" d="M120.45,-77.5828C129.579,-78.7277 138.932,-79.9007 147.963,-81.0333"/>
<polygon fill="midnightblue" stroke="midnightblue" points="120.625,-74.0774 110.267,-76.3058 119.754,-81.023 120.625,-74.0774"/>
</g>
<!-- Node18 -->
<g id="node18" class="node"><title>Node18</title>
<g id="a_node18"><a xlink:href="../../d1/d1e/classnars_1_1entity_1_1Stamp_ae51a072ee3f452580f4421f6dc6643ab.html#ae51a072ee3f452580f4421f6dc6643ab" target="_top" xlink:title="Generate a new stamp for derived sentence by merging the two from parents the first one is no shorter...">
<polygon fill="none" stroke="black" points="146,-41 146,-60 271,-60 271,-41 146,-41"/>
<text text-anchor="middle" x="208.5" y="-48" font-family="Helvetica,sans-Serif" font-size="10.00">nars.entity.Stamp.Stamp</text>
</a>
</g>
</g>
<!-- Node1&#45;&gt;Node18 -->
<g id="edge19" class="edge"><title>Node1&#45;&gt;Node18</title>
<path fill="none" stroke="midnightblue" d="M120.434,-61.4192C128.87,-60.3612 137.498,-59.2792 145.886,-58.2272"/>
<polygon fill="midnightblue" stroke="midnightblue" points="119.754,-57.977 110.267,-62.6942 120.625,-64.9226 119.754,-57.977"/>
</g>
<!-- Node3 -->
<g id="node3" class="node"><title>Node3</title>
<g id="a_node3"><a xlink:href="../../d4/d22/classnars_1_1entity_1_1Concept_a37e00599fc19c5931da40bd446890f89.html#a37e00599fc19c5931da40bd446890f89" target="_top" xlink:title="Select a isBelief to interact with the given task in inference. ">
<polygon fill="none" stroke="black" points="307,-102 307,-121 450,-121 450,-102 307,-102"/>
<text text-anchor="middle" x="378.5" y="-109" font-family="Helvetica,sans-Serif" font-size="10.00">nars.entity.Concept.getBelief</text>
</a>
</g>
</g>
<!-- Node2&#45;&gt;Node3 -->
<g id="edge2" class="edge"><title>Node2&#45;&gt;Node3</title>
<path fill="none" stroke="midnightblue" d="M279.343,-98.0618C288.798,-99.3563 298.5,-100.684 307.95,-101.978"/>
<polygon fill="midnightblue" stroke="midnightblue" points="279.586,-94.5625 269.204,-96.6737 278.636,-101.498 279.586,-94.5625"/>
</g>
<!-- Node13 -->
<g id="node13" class="node"><title>Node13</title>
<g id="a_node13"><a xlink:href="../../d4/d22/classnars_1_1entity_1_1Concept_a40cddcc82ee28a1cf5b1f4bc14e2b078.html#a40cddcc82ee28a1cf5b1f4bc14e2b078" target="_top" xlink:title="To accept a new judgment as isBelief, and check for revisions and solutions. ">
<polygon fill="none" stroke="black" points="308.5,-51.5 308.5,-81.5 448.5,-81.5 448.5,-51.5 308.5,-51.5"/>
<text text-anchor="start" x="316.5" y="-69.5" font-family="Helvetica,sans-Serif" font-size="10.00">nars.entity.Concept.process</text>
<text text-anchor="middle" x="378.5" y="-58.5" font-family="Helvetica,sans-Serif" font-size="10.00">Judgment</text>
</a>
</g>
</g>
<!-- Node2&#45;&gt;Node13 -->
<g id="edge12" class="edge"><title>Node2&#45;&gt;Node13</title>
<path fill="none" stroke="midnightblue" d="M279.42,-79.3438C288.948,-78.0961 298.724,-76.8159 308.24,-75.5698"/>
<polygon fill="midnightblue" stroke="midnightblue" points="278.664,-75.9128 269.204,-80.6817 279.573,-82.8535 278.664,-75.9128"/>
</g>
<!-- Node4 -->
<g id="node4" class="node"><title>Node4</title>
<g id="a_node4"><a xlink:href="../../da/de3/classnars_1_1inference_1_1RuleTables_ac2d01dfdc40bdd47c757cb549217e6e3.html#ac2d01dfdc40bdd47c757cb549217e6e3" target="_top" xlink:title="Entry point of the inference engine. ">
<polygon fill="none" stroke="black" points="486,-103 486,-122 649,-122 649,-103 486,-103"/>
<text text-anchor="middle" x="567.5" y="-110" font-family="Helvetica,sans-Serif" font-size="10.00">nars.inference.RuleTables.reason</text>
</a>
</g>
</g>
<!-- Node3&#45;&gt;Node4 -->
<g id="edge3" class="edge"><title>Node3&#45;&gt;Node4</title>
<path fill="none" stroke="midnightblue" d="M460.44,-111.933C468.91,-111.978 477.52,-112.024 485.985,-112.069"/>
<polygon fill="midnightblue" stroke="midnightblue" points="460.215,-108.432 450.197,-111.878 460.178,-115.432 460.215,-108.432"/>
</g>
<!-- Node5 -->
<g id="node5" class="node"><title>Node5</title>
<g id="a_node5"><a xlink:href="../../d4/d22/classnars_1_1entity_1_1Concept_ae07576c8466ad65eeb61040e3f71cfc7.html#ae07576c8466ad65eeb61040e3f71cfc7" target="_top" xlink:title="An atomic step in a concept, only called in Memory# processConcept. ">
<polygon fill="none" stroke="black" points="704,-103 704,-122 823,-122 823,-103 704,-103"/>
<text text-anchor="middle" x="763.5" y="-110" font-family="Helvetica,sans-Serif" font-size="10.00">nars.entity.Concept.fire</text>
</a>
</g>
</g>
<!-- Node4&#45;&gt;Node5 -->
<g id="edge4" class="edge"><title>Node4&#45;&gt;Node5</title>
<path fill="none" stroke="midnightblue" d="M659.461,-112.5C674.516,-112.5 689.765,-112.5 703.751,-112.5"/>
<polygon fill="midnightblue" stroke="midnightblue" points="659.088,-109 649.088,-112.5 659.088,-116 659.088,-109"/>
</g>
<!-- Node6 -->
<g id="node6" class="node"><title>Node6</title>
<g id="a_node6"><a xlink:href="../../d8/df4/classnars_1_1storage_1_1Memory_a83154b55b922c82b73931d4f22e3a590.html#a83154b55b922c82b73931d4f22e3a590" target="_top" xlink:title="Select a concept to fire. ">
<polygon fill="none" stroke="black" points="878,-98.5 878,-128.5 1024,-128.5 1024,-98.5 878,-98.5"/>
<text text-anchor="start" x="886" y="-116.5" font-family="Helvetica,sans-Serif" font-size="10.00">nars.storage.Memory.process</text>
<text text-anchor="middle" x="951" y="-105.5" font-family="Helvetica,sans-Serif" font-size="10.00">Concept</text>
</a>
</g>
</g>
<!-- Node5&#45;&gt;Node6 -->
<g id="edge5" class="edge"><title>Node5&#45;&gt;Node6</title>
<path fill="none" stroke="midnightblue" d="M833.519,-112.872C847.929,-112.95 863.158,-113.032 877.683,-113.11"/>
<polygon fill="midnightblue" stroke="midnightblue" points="833.212,-109.37 823.193,-112.816 833.174,-116.37 833.212,-109.37"/>
</g>
<!-- Node7 -->
<g id="node7" class="node"><title>Node7</title>
<g id="a_node7"><a xlink:href="../../d8/df4/classnars_1_1storage_1_1Memory_a49e2cbc8b78d535f4d69739886ee966a.html#a49e2cbc8b78d535f4d69739886ee966a" target="_top" xlink:title="An atomic working workCycle of the system: process new Tasks, then fire a concept. ">
<polygon fill="none" stroke="black" points="1060,-49.5 1060,-79.5 1193,-79.5 1193,-49.5 1060,-49.5"/>
<text text-anchor="start" x="1068" y="-67.5" font-family="Helvetica,sans-Serif" font-size="10.00">nars.storage.Memory.work</text>
<text text-anchor="middle" x="1126.5" y="-56.5" font-family="Helvetica,sans-Serif" font-size="10.00">Cycle</text>
</a>
</g>
</g>
<!-- Node6&#45;&gt;Node7 -->
<g id="edge6" class="edge"><title>Node6&#45;&gt;Node7</title>
<path fill="none" stroke="midnightblue" d="M1015.1,-95.6788C1033.83,-90.3882 1054.16,-84.6478 1072.21,-79.5516"/>
<polygon fill="midnightblue" stroke="midnightblue" points="1014.14,-92.3123 1005.47,-98.3986 1016.05,-99.0488 1014.14,-92.3123"/>
</g>
<!-- Node8 -->
<g id="node8" class="node"><title>Node8</title>
<g id="a_node8"><a xlink:href="../../dd/da5/classnars_1_1storage_1_1Memory_1_1ReasonerBatch_acc60dec23da774957a85362ed6d7448b.html#acc60dec23da774957a85362ed6d7448b" target="_top" xlink:title="nars.storage.Memory.Reasoner\lBatch.doTick">
<polygon fill="none" stroke="black" points="1229,-49.5 1229,-79.5 1383,-79.5 1383,-49.5 1229,-49.5"/>
<text text-anchor="start" x="1237" y="-67.5" font-family="Helvetica,sans-Serif" font-size="10.00">nars.storage.Memory.Reasoner</text>
<text text-anchor="middle" x="1306" y="-56.5" font-family="Helvetica,sans-Serif" font-size="10.00">Batch.doTick</text>
</a>
</g>
</g>
<!-- Node7&#45;&gt;Node8 -->
<g id="edge7" class="edge"><title>Node7&#45;&gt;Node8</title>
<path fill="none" stroke="midnightblue" d="M1203.32,-64.5C1211.79,-64.5 1220.41,-64.5 1228.89,-64.5"/>
<polygon fill="midnightblue" stroke="midnightblue" points="1203.09,-61.0001 1193.09,-64.5 1203.09,-68.0001 1203.09,-61.0001"/>
</g>
<!-- Node9 -->
<g id="node9" class="node"><title>Node9</title>
<g id="a_node9"><a xlink:href="../../dd/da5/classnars_1_1storage_1_1Memory_1_1ReasonerBatch_aed591f05899b98fd9e4ad01836ad0a40.html#aed591f05899b98fd9e4ad01836ad0a40" target="_top" xlink:title="A clock tick. ">
<polygon fill="none" stroke="black" points="1419,-49.5 1419,-79.5 1573,-79.5 1573,-49.5 1419,-49.5"/>
<text text-anchor="start" x="1427" y="-67.5" font-family="Helvetica,sans-Serif" font-size="10.00">nars.storage.Memory.Reasoner</text>
<text text-anchor="middle" x="1496" y="-56.5" font-family="Helvetica,sans-Serif" font-size="10.00">Batch.tick</text>
</a>
</g>
</g>
<!-- Node8&#45;&gt;Node9 -->
<g id="edge8" class="edge"><title>Node8&#45;&gt;Node9</title>
<path fill="none" stroke="midnightblue" d="M1393.42,-64.5C1401.86,-64.5 1410.37,-64.5 1418.7,-64.5"/>
<polygon fill="midnightblue" stroke="midnightblue" points="1393.2,-61.0001 1383.2,-64.5 1393.2,-68.0001 1393.2,-61.0001"/>
</g>
<!-- Node10 -->
<g id="node10" class="node"><title>Node10</title>
<g id="a_node10"><a xlink:href="../../d4/d88/classnars_1_1storage_1_1Memory_1_1NARSBatch_aad99db6cedde9cff2a997db8906ff821.html#aad99db6cedde9cff2a997db8906ff821" target="_top" xlink:title="Run to completion: repeatedly execute NARS working cycle, until Inputs are Finished, or 1000 steps. ">
<polygon fill="none" stroke="black" points="1609,-55 1609,-74 1791,-74 1791,-55 1609,-55"/>
<text text-anchor="middle" x="1700" y="-62" font-family="Helvetica,sans-Serif" font-size="10.00">nars.storage.Memory.NARSBatch.run</text>
</a>
</g>
</g>
<!-- Node9&#45;&gt;Node10 -->
<g id="edge9" class="edge"><title>Node9&#45;&gt;Node10</title>
<path fill="none" stroke="midnightblue" d="M1583.27,-64.5C1591.69,-64.5 1600.25,-64.5 1608.71,-64.5"/>
<polygon fill="midnightblue" stroke="midnightblue" points="1583.08,-61.0001 1573.08,-64.5 1583.08,-68.0001 1583.08,-61.0001"/>
</g>
<!-- Node11 -->
<g id="node11" class="node"><title>Node11</title>
<g id="a_node11"><a xlink:href="../../d4/d88/classnars_1_1storage_1_1Memory_1_1NARSBatch_a416c39463faa161661ed1d12fea03b3c.html#a416c39463faa161661ed1d12fea03b3c" target="_top" xlink:title="non&#45;static equivalent to main(String[]) : run to completion from an input file ">
<polygon fill="none" stroke="black" points="1827,-49.5 1827,-79.5 2009,-79.5 2009,-49.5 1827,-49.5"/>
<text text-anchor="start" x="1835" y="-67.5" font-family="Helvetica,sans-Serif" font-size="10.00">nars.storage.Memory.NARSBatch.run</text>
<text text-anchor="middle" x="1918" y="-56.5" font-family="Helvetica,sans-Serif" font-size="10.00">Inference</text>
</a>
</g>
</g>
<!-- Node10&#45;&gt;Node11 -->
<g id="edge10" class="edge"><title>Node10&#45;&gt;Node11</title>
<path fill="none" stroke="midnightblue" d="M1801.06,-64.5C1809.63,-64.5 1818.27,-64.5 1826.76,-64.5"/>
<polygon fill="midnightblue" stroke="midnightblue" points="1801.04,-61.0001 1791.04,-64.5 1801.04,-68.0001 1801.04,-61.0001"/>
</g>
<!-- Node12 -->
<g id="node12" class="node"><title>Node12</title>
<g id="a_node12"><a xlink:href="../../d4/d88/classnars_1_1storage_1_1Memory_1_1NARSBatch_aa97fcd68270583e60e6bf1b4579d1bdc.html#aa97fcd68270583e60e6bf1b4579d1bdc" target="_top" xlink:title="The entry point of the standalone application. ">
<polygon fill="none" stroke="black" points="2045,-55 2045,-74 2235,-74 2235,-55 2045,-55"/>
<text text-anchor="middle" x="2140" y="-62" font-family="Helvetica,sans-Serif" font-size="10.00">nars.storage.Memory.NARSBatch.main</text>
</a>
</g>
</g>
<!-- Node11&#45;&gt;Node12 -->
<g id="edge11" class="edge"><title>Node11&#45;&gt;Node12</title>
<path fill="none" stroke="midnightblue" d="M2019.37,-64.5C2027.82,-64.5 2036.34,-64.5 2044.74,-64.5"/>
<polygon fill="midnightblue" stroke="midnightblue" points="2019.12,-61.0001 2009.12,-64.5 2019.12,-68.0001 2019.12,-61.0001"/>
</g>
<!-- Node14 -->
<g id="node14" class="node"><title>Node14</title>
<g id="a_node14"><a xlink:href="../../d4/d22/classnars_1_1entity_1_1Concept_a9ea7c3154932d7a736c105eb55daeb5c.html#a9ea7c3154932d7a736c105eb55daeb5c" target="_top" xlink:title="Directly process a new task. ">
<polygon fill="none" stroke="black" points="503,-49.5 503,-79.5 632,-79.5 632,-49.5 503,-49.5"/>
<text text-anchor="start" x="511" y="-67.5" font-family="Helvetica,sans-Serif" font-size="10.00">nars.entity.Concept.direct</text>
<text text-anchor="middle" x="567.5" y="-56.5" font-family="Helvetica,sans-Serif" font-size="10.00">Process</text>
</a>
</g>
</g>
<!-- Node13&#45;&gt;Node14 -->
<g id="edge13" class="edge"><title>Node13&#45;&gt;Node14</title>
<path fill="none" stroke="midnightblue" d="M458.723,-65.6527C473.484,-65.4948 488.73,-65.3318 502.945,-65.1797"/>
<polygon fill="midnightblue" stroke="midnightblue" points="458.563,-62.1541 448.601,-65.761 458.637,-69.1537 458.563,-62.1541"/>
</g>
<!-- Node15 -->
<g id="node15" class="node"><title>Node15</title>
<g id="a_node15"><a xlink:href="../../d8/df4/classnars_1_1storage_1_1Memory_a175200c1f4c182222d0e66439b6e53a0.html#a175200c1f4c182222d0e66439b6e53a0" target="_top" xlink:title="Immediate processing of a new task, in constant time Local processing, in one concept only...">
<polygon fill="none" stroke="black" points="685,-49.5 685,-79.5 842,-79.5 842,-49.5 685,-49.5"/>
<text text-anchor="start" x="693" y="-67.5" font-family="Helvetica,sans-Serif" font-size="10.00">nars.storage.Memory.immediate</text>
<text text-anchor="middle" x="763.5" y="-56.5" font-family="Helvetica,sans-Serif" font-size="10.00">Process</text>
</a>
</g>
</g>
<!-- Node14&#45;&gt;Node15 -->
<g id="edge14" class="edge"><title>Node14&#45;&gt;Node15</title>
<path fill="none" stroke="midnightblue" d="M642.088,-64.5C656.105,-64.5 670.815,-64.5 684.95,-64.5"/>
<polygon fill="midnightblue" stroke="midnightblue" points="642.023,-61.0001 632.023,-64.5 642.023,-68.0001 642.023,-61.0001"/>
</g>
<!-- Node16 -->
<g id="node16" class="node"><title>Node16</title>
<g id="a_node16"><a xlink:href="../../d8/df4/classnars_1_1storage_1_1Memory_a105e44a3504921cc1036eb979b85d9f0.html#a105e44a3504921cc1036eb979b85d9f0" target="_top" xlink:title="Process the newTasks accumulated in the previous workCycle, accept input ones and those that correspo...">
<polygon fill="none" stroke="black" points="878,-49.5 878,-79.5 1024,-79.5 1024,-49.5 878,-49.5"/>
<text text-anchor="start" x="886" y="-67.5" font-family="Helvetica,sans-Serif" font-size="10.00">nars.storage.Memory.process</text>
<text text-anchor="middle" x="951" y="-56.5" font-family="Helvetica,sans-Serif" font-size="10.00">NewTask</text>
</a>
</g>
</g>
<!-- Node15&#45;&gt;Node16 -->
<g id="edge15" class="edge"><title>Node15&#45;&gt;Node16</title>
<path fill="none" stroke="midnightblue" d="M852.125,-64.5C860.707,-64.5 869.349,-64.5 877.754,-64.5"/>
<polygon fill="midnightblue" stroke="midnightblue" points="852.094,-61.0001 842.094,-64.5 852.094,-68.0001 852.094,-61.0001"/>
</g>
<!-- Node17 -->
<g id="node17" class="node"><title>Node17</title>
<g id="a_node17"><a xlink:href="../../d8/df4/classnars_1_1storage_1_1Memory_afe3b4d1bb5fab652ceca53c04773af73.html#afe3b4d1bb5fab652ceca53c04773af73" target="_top" xlink:title="Select a novel task to process. ">
<polygon fill="none" stroke="black" points="878,-0.5 878,-30.5 1024,-30.5 1024,-0.5 878,-0.5"/>
<text text-anchor="start" x="886" y="-18.5" font-family="Helvetica,sans-Serif" font-size="10.00">nars.storage.Memory.process</text>
<text text-anchor="middle" x="951" y="-7.5" font-family="Helvetica,sans-Serif" font-size="10.00">NovelTask</text>
</a>
</g>
</g>
<!-- Node15&#45;&gt;Node17 -->
<g id="edge17" class="edge"><title>Node15&#45;&gt;Node17</title>
<path fill="none" stroke="midnightblue" d="M831.215,-46.8771C851.51,-41.5163 873.614,-35.6775 893.191,-30.5062"/>
<polygon fill="midnightblue" stroke="midnightblue" points="830.191,-43.5275 821.417,-49.4654 831.979,-50.2953 830.191,-43.5275"/>
</g>
<!-- Node16&#45;&gt;Node7 -->
<g id="edge16" class="edge"><title>Node16&#45;&gt;Node7</title>
<path fill="none" stroke="midnightblue" d="M1034.12,-64.5C1042.72,-64.5 1051.37,-64.5 1059.76,-64.5"/>
<polygon fill="midnightblue" stroke="midnightblue" points="1034.07,-61.0001 1024.07,-64.5 1034.07,-68.0001 1034.07,-61.0001"/>
</g>
<!-- Node17&#45;&gt;Node7 -->
<g id="edge18" class="edge"><title>Node17&#45;&gt;Node7</title>
<path fill="none" stroke="midnightblue" d="M1015.1,-33.3212C1033.83,-38.6118 1054.16,-44.3522 1072.21,-49.4484"/>
<polygon fill="midnightblue" stroke="midnightblue" points="1016.05,-29.9512 1005.47,-30.6014 1014.14,-36.6877 1016.05,-29.9512"/>
</g>
</g>
</svg>
