<?xml version="1.0" encoding="UTF-8" standalone="no"?>
<!DOCTYPE svg PUBLIC "-//W3C//DTD SVG 1.1//EN"
 "http://www.w3.org/Graphics/SVG/1.1/DTD/svg11.dtd">
<!-- Generated by graphviz version 2.38.0 (20140413.2041)
 -->
<!-- Title: nars.entity.Stamp.clone Pages: 1 -->
<svg width="2481pt" height="116pt"
 viewBox="0.00 0.00 2481.00 115.50" xmlns="http://www.w3.org/2000/svg" xmlns:xlink="http://www.w3.org/1999/xlink">
<g id="graph0" class="graph" transform="scale(1 1) rotate(0) translate(4 111.5)">
<title>nars.entity.Stamp.clone</title>
<!-- Node1 -->
<g id="node1" class="node"><title>Node1</title>
<polygon fill="#bfbfbf" stroke="black" points="0,-38.5 0,-57.5 120,-57.5 120,-38.5 0,-38.5"/>
<text text-anchor="middle" x="60" y="-45.5" font-family="Helvetica,sans-Serif" font-size="10.00">nars.entity.Stamp.clone</text>
</g>
<!-- Node2 -->
<g id="node2" class="node"><title>Node2</title>
<g id="a_node2"><a xlink:href="../../d6/d25/classnars_1_1entity_1_1Sentence_a721f626ab83f34dc2e6858a4eede7102.html#a721f626ab83f34dc2e6858a4eede7102" target="_top" xlink:title="Clone the Sentence. ">
<polygon fill="none" stroke="black" points="156,-38.5 156,-57.5 289,-57.5 289,-38.5 156,-38.5"/>
<text text-anchor="middle" x="222.5" y="-45.5" font-family="Helvetica,sans-Serif" font-size="10.00">nars.entity.Sentence.clone</text>
</a>
</g>
</g>
<!-- Node1&#45;&gt;Node2 -->
<g id="edge1" class="edge"><title>Node1&#45;&gt;Node2</title>
<path fill="none" stroke="midnightblue" d="M130.507,-48C138.955,-48 147.565,-48 155.953,-48"/>
<polygon fill="midnightblue" stroke="midnightblue" points="130.308,-44.5001 120.308,-48 130.308,-51.5001 130.308,-44.5001"/>
</g>
<!-- Node3 -->
<g id="node3" class="node"><title>Node3</title>
<g id="a_node3"><a xlink:href="../../da/de3/classnars_1_1inference_1_1RuleTables_a3e3eec10853be6dcf8c7532259cf4a84.html#a3e3eec10853be6dcf8c7532259cf4a84" target="_top" xlink:title="The detachment rule, with variable unification. ">
<polygon fill="none" stroke="black" points="325,-77 325,-107 510,-107 510,-77 325,-77"/>
<text text-anchor="start" x="333" y="-95" font-family="Helvetica,sans-Serif" font-size="10.00">nars.inference.RuleTables.detachment</text>
<text text-anchor="middle" x="417.5" y="-84" font-family="Helvetica,sans-Serif" font-size="10.00">WithVar</text>
</a>
</g>
</g>
<!-- Node2&#45;&gt;Node3 -->
<g id="edge2" class="edge"><title>Node2&#45;&gt;Node3</title>
<path fill="none" stroke="midnightblue" d="M275.317,-59.8132C298.406,-65.0769 325.874,-71.3391 350.418,-76.9346"/>
<polygon fill="midnightblue" stroke="midnightblue" points="275.906,-56.3577 265.378,-57.5473 274.35,-63.1826 275.906,-56.3577"/>
</g>
<!-- Node14 -->
<g id="node14" class="node"><title>Node14</title>
<g id="a_node14"><a xlink:href="../../d4/d22/classnars_1_1entity_1_1Concept_a37e00599fc19c5931da40bd446890f89.html#a37e00599fc19c5931da40bd446890f89" target="_top" xlink:title="Select a isBelief to interact with the given task in inference. ">
<polygon fill="none" stroke="black" points="564.5,-38.5 564.5,-57.5 707.5,-57.5 707.5,-38.5 564.5,-38.5"/>
<text text-anchor="middle" x="636" y="-45.5" font-family="Helvetica,sans-Serif" font-size="10.00">nars.entity.Concept.getBelief</text>
</a>
</g>
</g>
<!-- Node2&#45;&gt;Node14 -->
<g id="edge13" class="edge"><title>Node2&#45;&gt;Node14</title>
<path fill="none" stroke="midnightblue" d="M299.575,-48C375.319,-48 490.643,-48 564.405,-48"/>
<polygon fill="midnightblue" stroke="midnightblue" points="299.158,-44.5001 289.158,-48 299.158,-51.5001 299.158,-44.5001"/>
</g>
<!-- Node15 -->
<g id="node15" class="node"><title>Node15</title>
<g id="a_node15"><a xlink:href="../../d4/de9/classnars_1_1inference_1_1LocalRules_aac1c92950f50edd04d12229a8c992987.html#aac1c92950f50edd04d12229a8c992987" target="_top" xlink:title="The task and belief have the same content. ">
<polygon fill="none" stroke="black" points="337.5,-0.5 337.5,-19.5 497.5,-19.5 497.5,-0.5 337.5,-0.5"/>
<text text-anchor="middle" x="417.5" y="-7.5" font-family="Helvetica,sans-Serif" font-size="10.00">nars.inference.LocalRules.match</text>
</a>
</g>
</g>
<!-- Node2&#45;&gt;Node15 -->
<g id="edge15" class="edge"><title>Node2&#45;&gt;Node15</title>
<path fill="none" stroke="midnightblue" d="M282.102,-36.4619C309.629,-31.042 342.048,-24.659 368.148,-19.5201"/>
<polygon fill="midnightblue" stroke="midnightblue" points="281.338,-33.045 272.202,-38.411 282.69,-39.9132 281.338,-33.045"/>
</g>
<!-- Node4 -->
<g id="node4" class="node"><title>Node4</title>
<g id="a_node4"><a xlink:href="../../da/de3/classnars_1_1inference_1_1RuleTables_a8628d400a8ceda7fea05039ddfea319b.html#a8628d400a8ceda7fea05039ddfea319b" target="_top" xlink:title="Meta&#45;table of syllogistic rules, indexed by the content classes of the taskSentence and the belief...">
<polygon fill="none" stroke="black" points="546,-79.5 546,-98.5 726,-98.5 726,-79.5 546,-79.5"/>
<text text-anchor="middle" x="636" y="-86.5" font-family="Helvetica,sans-Serif" font-size="10.00">nars.inference.RuleTables.syllogisms</text>
</a>
</g>
</g>
<!-- Node3&#45;&gt;Node4 -->
<g id="edge3" class="edge"><title>Node3&#45;&gt;Node4</title>
<path fill="none" stroke="midnightblue" d="M520.084,-90.5924C528.705,-90.4729 537.383,-90.3527 545.898,-90.2347"/>
<polygon fill="midnightblue" stroke="midnightblue" points="519.952,-87.0938 510.002,-90.7321 520.049,-94.0931 519.952,-87.0938"/>
</g>
<!-- Node5 -->
<g id="node5" class="node"><title>Node5</title>
<g id="a_node5"><a xlink:href="../../da/de3/classnars_1_1inference_1_1RuleTables_ac2d01dfdc40bdd47c757cb549217e6e3.html#ac2d01dfdc40bdd47c757cb549217e6e3" target="_top" xlink:title="Entry point of the inference engine. ">
<polygon fill="none" stroke="black" points="762,-38.5 762,-57.5 925,-57.5 925,-38.5 762,-38.5"/>
<text text-anchor="middle" x="843.5" y="-45.5" font-family="Helvetica,sans-Serif" font-size="10.00">nars.inference.RuleTables.reason</text>
</a>
</g>
</g>
<!-- Node4&#45;&gt;Node5 -->
<g id="edge4" class="edge"><title>Node4&#45;&gt;Node5</title>
<path fill="none" stroke="midnightblue" d="M694.643,-77.4994C726.213,-71.2007 764.872,-63.4879 794.741,-57.5286"/>
<polygon fill="midnightblue" stroke="midnightblue" points="693.784,-74.1017 684.662,-79.4907 695.154,-80.9664 693.784,-74.1017"/>
</g>
<!-- Node6 -->
<g id="node6" class="node"><title>Node6</title>
<g id="a_node6"><a xlink:href="../../d4/d22/classnars_1_1entity_1_1Concept_ae07576c8466ad65eeb61040e3f71cfc7.html#ae07576c8466ad65eeb61040e3f71cfc7" target="_top" xlink:title="An atomic step in a concept, only called in Memory# processConcept. ">
<polygon fill="none" stroke="black" points="961,-38.5 961,-57.5 1080,-57.5 1080,-38.5 961,-38.5"/>
<text text-anchor="middle" x="1020.5" y="-45.5" font-family="Helvetica,sans-Serif" font-size="10.00">nars.entity.Concept.fire</text>
</a>
</g>
</g>
<!-- Node5&#45;&gt;Node6 -->
<g id="edge5" class="edge"><title>Node5&#45;&gt;Node6</title>
<path fill="none" stroke="midnightblue" d="M935.249,-48C943.907,-48 952.523,-48 960.757,-48"/>
<polygon fill="midnightblue" stroke="midnightblue" points="935.085,-44.5001 925.085,-48 935.085,-51.5001 935.085,-44.5001"/>
</g>
<!-- Node7 -->
<g id="node7" class="node"><title>Node7</title>
<g id="a_node7"><a xlink:href="../../d8/df4/classnars_1_1storage_1_1Memory_a83154b55b922c82b73931d4f22e3a590.html#a83154b55b922c82b73931d4f22e3a590" target="_top" xlink:title="Select a concept to fire. ">
<polygon fill="none" stroke="black" points="1116,-33 1116,-63 1262,-63 1262,-33 1116,-33"/>
<text text-anchor="start" x="1124" y="-51" font-family="Helvetica,sans-Serif" font-size="10.00">nars.storage.Memory.process</text>
<text text-anchor="middle" x="1189" y="-40" font-family="Helvetica,sans-Serif" font-size="10.00">Concept</text>
</a>
</g>
</g>
<!-- Node6&#45;&gt;Node7 -->
<g id="edge6" class="edge"><title>Node6&#45;&gt;Node7</title>
<path fill="none" stroke="midnightblue" d="M1090.34,-48C1098.75,-48 1107.36,-48 1115.82,-48"/>
<polygon fill="midnightblue" stroke="midnightblue" points="1090.2,-44.5001 1080.2,-48 1090.2,-51.5001 1090.2,-44.5001"/>
</g>
<!-- Node8 -->
<g id="node8" class="node"><title>Node8</title>
<g id="a_node8"><a xlink:href="../../d8/df4/classnars_1_1storage_1_1Memory_a49e2cbc8b78d535f4d69739886ee966a.html#a49e2cbc8b78d535f4d69739886ee966a" target="_top" xlink:title="An atomic working workCycle of the system: process new Tasks, then fire a concept. ">
<polygon fill="none" stroke="black" points="1298,-33 1298,-63 1431,-63 1431,-33 1298,-33"/>
<text text-anchor="start" x="1306" y="-51" font-family="Helvetica,sans-Serif" font-size="10.00">nars.storage.Memory.work</text>
<text text-anchor="middle" x="1364.5" y="-40" font-family="Helvetica,sans-Serif" font-size="10.00">Cycle</text>
</a>
</g>
</g>
<!-- Node7&#45;&gt;Node8 -->
<g id="edge7" class="edge"><title>Node7&#45;&gt;Node8</title>
<path fill="none" stroke="midnightblue" d="M1272.12,-48C1280.72,-48 1289.37,-48 1297.76,-48"/>
<polygon fill="midnightblue" stroke="midnightblue" points="1272.07,-44.5001 1262.07,-48 1272.07,-51.5001 1272.07,-44.5001"/>
</g>
<!-- Node9 -->
<g id="node9" class="node"><title>Node9</title>
<g id="a_node9"><a xlink:href="../../dd/da5/classnars_1_1storage_1_1Memory_1_1ReasonerBatch_acc60dec23da774957a85362ed6d7448b.html#acc60dec23da774957a85362ed6d7448b" target="_top" xlink:title="nars.storage.Memory.Reasoner\lBatch.doTick">
<polygon fill="none" stroke="black" points="1467,-33 1467,-63 1621,-63 1621,-33 1467,-33"/>
<text text-anchor="start" x="1475" y="-51" font-family="Helvetica,sans-Serif" font-size="10.00">nars.storage.Memory.Reasoner</text>
<text text-anchor="middle" x="1544" y="-40" font-family="Helvetica,sans-Serif" font-size="10.00">Batch.doTick</text>
</a>
</g>
</g>
<!-- Node8&#45;&gt;Node9 -->
<g id="edge8" class="edge"><title>Node8&#45;&gt;Node9</title>
<path fill="none" stroke="midnightblue" d="M1441.32,-48C1449.79,-48 1458.41,-48 1466.89,-48"/>
<polygon fill="midnightblue" stroke="midnightblue" points="1441.09,-44.5001 1431.09,-48 1441.09,-51.5001 1441.09,-44.5001"/>
</g>
<!-- Node10 -->
<g id="node10" class="node"><title>Node10</title>
<g id="a_node10"><a xlink:href="../../dd/da5/classnars_1_1storage_1_1Memory_1_1ReasonerBatch_aed591f05899b98fd9e4ad01836ad0a40.html#aed591f05899b98fd9e4ad01836ad0a40" target="_top" xlink:title="A clock tick. ">
<polygon fill="none" stroke="black" points="1657,-33 1657,-63 1811,-63 1811,-33 1657,-33"/>
<text text-anchor="start" x="1665" y="-51" font-family="Helvetica,sans-Serif" font-size="10.00">nars.storage.Memory.Reasoner</text>
<text text-anchor="middle" x="1734" y="-40" font-family="Helvetica,sans-Serif" font-size="10.00">Batch.tick</text>
</a>
</g>
</g>
<!-- Node9&#45;&gt;Node10 -->
<g id="edge9" class="edge"><title>Node9&#45;&gt;Node10</title>
<path fill="none" stroke="midnightblue" d="M1631.42,-48C1639.86,-48 1648.37,-48 1656.7,-48"/>
<polygon fill="midnightblue" stroke="midnightblue" points="1631.2,-44.5001 1621.2,-48 1631.2,-51.5001 1631.2,-44.5001"/>
</g>
<!-- Node11 -->
<g id="node11" class="node"><title>Node11</title>
<g id="a_node11"><a xlink:href="../../d4/d88/classnars_1_1storage_1_1Memory_1_1NARSBatch_aad99db6cedde9cff2a997db8906ff821.html#aad99db6cedde9cff2a997db8906ff821" target="_top" xlink:title="Run to completion: repeatedly execute NARS working cycle, until Inputs are Finished, or 1000 steps. ">
<polygon fill="none" stroke="black" points="1847,-38.5 1847,-57.5 2029,-57.5 2029,-38.5 1847,-38.5"/>
<text text-anchor="middle" x="1938" y="-45.5" font-family="Helvetica,sans-Serif" font-size="10.00">nars.storage.Memory.NARSBatch.run</text>
</a>
</g>
</g>
<!-- Node10&#45;&gt;Node11 -->
<g id="edge10" class="edge"><title>Node10&#45;&gt;Node11</title>
<path fill="none" stroke="midnightblue" d="M1821.27,-48C1829.69,-48 1838.25,-48 1846.71,-48"/>
<polygon fill="midnightblue" stroke="midnightblue" points="1821.08,-44.5001 1811.08,-48 1821.08,-51.5001 1821.08,-44.5001"/>
</g>
<!-- Node12 -->
<g id="node12" class="node"><title>Node12</title>
<g id="a_node12"><a xlink:href="../../d4/d88/classnars_1_1storage_1_1Memory_1_1NARSBatch_a416c39463faa161661ed1d12fea03b3c.html#a416c39463faa161661ed1d12fea03b3c" target="_top" xlink:title="non&#45;static equivalent to main(String[]) : run to completion from an input file ">
<polygon fill="none" stroke="black" points="2065,-33 2065,-63 2247,-63 2247,-33 2065,-33"/>
<text text-anchor="start" x="2073" y="-51" font-family="Helvetica,sans-Serif" font-size="10.00">nars.storage.Memory.NARSBatch.run</text>
<text text-anchor="middle" x="2156" y="-40" font-family="Helvetica,sans-Serif" font-size="10.00">Inference</text>
</a>
</g>
</g>
<!-- Node11&#45;&gt;Node12 -->
<g id="edge11" class="edge"><title>Node11&#45;&gt;Node12</title>
<path fill="none" stroke="midnightblue" d="M2039.06,-48C2047.63,-48 2056.27,-48 2064.76,-48"/>
<polygon fill="midnightblue" stroke="midnightblue" points="2039.04,-44.5001 2029.04,-48 2039.04,-51.5001 2039.04,-44.5001"/>
</g>
<!-- Node13 -->
<g id="node13" class="node"><title>Node13</title>
<g id="a_node13"><a xlink:href="../../d4/d88/classnars_1_1storage_1_1Memory_1_1NARSBatch_aa97fcd68270583e60e6bf1b4579d1bdc.html#aa97fcd68270583e60e6bf1b4579d1bdc" target="_top" xlink:title="The entry point of the standalone application. ">
<polygon fill="none" stroke="black" points="2283,-38.5 2283,-57.5 2473,-57.5 2473,-38.5 2283,-38.5"/>
<text text-anchor="middle" x="2378" y="-45.5" font-family="Helvetica,sans-Serif" font-size="10.00">nars.storage.Memory.NARSBatch.main</text>
</a>
</g>
</g>
<!-- Node12&#45;&gt;Node13 -->
<g id="edge12" class="edge"><title>Node12&#45;&gt;Node13</title>
<path fill="none" stroke="midnightblue" d="M2257.37,-48C2265.82,-48 2274.34,-48 2282.74,-48"/>
<polygon fill="midnightblue" stroke="midnightblue" points="2257.12,-44.5001 2247.12,-48 2257.12,-51.5001 2257.12,-44.5001"/>
</g>
<!-- Node14&#45;&gt;Node5 -->
<g id="edge14" class="edge"><title>Node14&#45;&gt;Node5</title>
<path fill="none" stroke="midnightblue" d="M718.065,-48C732.437,-48 747.402,-48 761.765,-48"/>
<polygon fill="midnightblue" stroke="midnightblue" points="717.721,-44.5001 707.721,-48 717.721,-51.5001 717.721,-44.5001"/>
</g>
<!-- Node15&#45;&gt;Node5 -->
<g id="edge16" class="edge"><title>Node15&#45;&gt;Node5</title>
<path fill="none" stroke="midnightblue" d="M507.746,-13.1556C569.232,-15.9069 652.739,-20.7834 726,-29 747.383,-31.3983 770.824,-35.0255 791.038,-38.4702"/>
<polygon fill="midnightblue" stroke="midnightblue" points="507.831,-9.65607 497.688,-12.7157 507.525,-16.6494 507.831,-9.65607"/>
</g>
</g>
</svg>
