<?xml version="1.0" encoding="UTF-8" standalone="no"?>
<!DOCTYPE svg PUBLIC "-//W3C//DTD SVG 1.1//EN"
 "http://www.w3.org/Graphics/SVG/1.1/DTD/svg11.dtd">
<!-- Generated by graphviz version 2.38.0 (20140413.2041)
 -->
<!-- Title: nars.language.Conjunction.clone Pages: 1 -->
<svg width="606pt" height="127pt"
 viewBox="0.00 0.00 606.00 126.50" xmlns="http://www.w3.org/2000/svg" xmlns:xlink="http://www.w3.org/1999/xlink">
<g id="graph0" class="graph" transform="scale(1 1) rotate(0) translate(4 122.5)">
<title>nars.language.Conjunction.clone</title>
<!-- Node1 -->
<g id="node1" class="node"><title>Node1</title>
<polygon fill="#bfbfbf" stroke="black" points="0,-55 0,-74 158,-74 158,-55 0,-55"/>
<text text-anchor="middle" x="79" y="-62" font-family="Helvetica,sans-Serif" font-size="10.00">nars.language.Conjunction.clone</text>
</g>
<!-- Node2 -->
<g id="node2" class="node"><title>Node2</title>
<g id="a_node2"><a xlink:href="../../d0/dee/classnars_1_1language_1_1CompoundTerm_a4f199daa7588f86b81b0912a5e52dfe0.html#a4f199daa7588f86b81b0912a5e52dfe0" target="_top" xlink:title="Deep clone an array list of terms. ">
<polygon fill="none" stroke="black" points="194,-99 194,-118 386,-118 386,-99 194,-99"/>
<text text-anchor="middle" x="290" y="-106" font-family="Helvetica,sans-Serif" font-size="10.00">nars.language.CompoundTerm.cloneList</text>
</a>
</g>
</g>
<!-- Node1&#45;&gt;Node2 -->
<g id="edge1" class="edge"><title>Node1&#45;&gt;Node2</title>
<path fill="none" stroke="midnightblue" d="M122.457,-74.0062C143.888,-78.7548 170.302,-84.5322 194,-89.5 205.703,-91.9534 218.233,-94.5094 230.228,-96.9219"/>
<polygon fill="midnightblue" stroke="midnightblue" points="229.655,-100.377 240.147,-98.9093 231.03,-93.513 229.655,-100.377"/>
</g>
<!-- Node4 -->
<g id="node4" class="node"><title>Node4</title>
<g id="a_node4"><a xlink:href="../../d6/d98/classnars_1_1language_1_1Conjunction_a22e499233fd604c704b1fb1a41290887.html#a22e499233fd604c704b1fb1a41290887" target="_top" xlink:title="Constructor with partial values, called by make. ">
<polygon fill="none" stroke="black" points="222.5,-49.5 222.5,-79.5 357.5,-79.5 357.5,-49.5 222.5,-49.5"/>
<text text-anchor="start" x="230.5" y="-67.5" font-family="Helvetica,sans-Serif" font-size="10.00">nars.language.Conjunction.</text>
<text text-anchor="middle" x="290" y="-56.5" font-family="Helvetica,sans-Serif" font-size="10.00">Conjunction</text>
</a>
</g>
</g>
<!-- Node1&#45;&gt;Node4 -->
<g id="edge3" class="edge"><title>Node1&#45;&gt;Node4</title>
<path fill="none" stroke="midnightblue" d="M158.121,-64.5C175.761,-64.5 194.474,-64.5 212.064,-64.5"/>
<polygon fill="midnightblue" stroke="midnightblue" points="212.275,-68.0001 222.275,-64.5 212.275,-61.0001 212.275,-68.0001"/>
</g>
<!-- Node5 -->
<g id="node5" class="node"><title>Node5</title>
<g id="a_node5"><a xlink:href="../../d0/dee/classnars_1_1language_1_1CompoundTerm_aee0ef6fd533b58caf22bee2a98eef67d.html#aee0ef6fd533b58caf22bee2a98eef67d" target="_top" xlink:title="check if the term contains free variable ">
<polygon fill="none" stroke="black" points="209.5,-0.5 209.5,-30.5 370.5,-30.5 370.5,-0.5 209.5,-0.5"/>
<text text-anchor="start" x="217.5" y="-18.5" font-family="Helvetica,sans-Serif" font-size="10.00">nars.language.CompoundTerm.is</text>
<text text-anchor="middle" x="290" y="-7.5" font-family="Helvetica,sans-Serif" font-size="10.00">Constant</text>
</a>
</g>
</g>
<!-- Node1&#45;&gt;Node5 -->
<g id="edge4" class="edge"><title>Node1&#45;&gt;Node5</title>
<path fill="none" stroke="midnightblue" d="M120.793,-54.936C147.485,-48.6782 183.142,-40.3183 214.757,-32.9063"/>
<polygon fill="midnightblue" stroke="midnightblue" points="215.926,-36.2272 224.863,-30.537 214.328,-29.412 215.926,-36.2272"/>
</g>
<!-- Node3 -->
<g id="node3" class="node"><title>Node3</title>
<g id="a_node3"><a xlink:href="../../d0/dee/classnars_1_1language_1_1CompoundTerm_a963e8aef1163f4ed8c364b5e448deaff.html#a963e8aef1163f4ed8c364b5e448deaff" target="_top" xlink:title="Abstract clone method. ">
<polygon fill="none" stroke="black" points="422,-99 422,-118 598,-118 598,-99 422,-99"/>
<text text-anchor="middle" x="510" y="-106" font-family="Helvetica,sans-Serif" font-size="10.00">nars.language.CompoundTerm.clone</text>
</a>
</g>
</g>
<!-- Node2&#45;&gt;Node3 -->
<g id="edge2" class="edge"><title>Node2&#45;&gt;Node3</title>
<path fill="none" stroke="midnightblue" d="M386.301,-108.5C394.69,-108.5 403.19,-108.5 411.597,-108.5"/>
<polygon fill="midnightblue" stroke="midnightblue" points="411.791,-112 421.791,-108.5 411.791,-105 411.791,-112"/>
</g>
</g>
</svg>
