<?xml version="1.0" encoding="UTF-8" standalone="no"?>
<!DOCTYPE svg PUBLIC "-//W3C//DTD SVG 1.1//EN"
 "http://www.w3.org/Graphics/SVG/1.1/DTD/svg11.dtd">
<!-- Generated by graphviz version 2.38.0 (20140413.2041)
 -->
<!-- Title: nars.language.Conjunction.Conjunction Pages: 1 -->
<svg width="338pt" height="66pt"
 viewBox="0.00 0.00 338.00 66.00" xmlns="http://www.w3.org/2000/svg" xmlns:xlink="http://www.w3.org/1999/xlink">
<g id="graph0" class="graph" transform="scale(1 1) rotate(0) translate(4 62)">
<title>nars.language.Conjunction.Conjunction</title>
<!-- Node1 -->
<g id="node1" class="node"><title>Node1</title>
<polygon fill="#bfbfbf" stroke="black" points="0,-14 0,-44 135,-44 135,-14 0,-14"/>
<text text-anchor="start" x="8" y="-32" font-family="Helvetica,sans-Serif" font-size="10.00">nars.language.Conjunction.</text>
<text text-anchor="middle" x="67.5" y="-21" font-family="Helvetica,sans-Serif" font-size="10.00">Conjunction</text>
</g>
<!-- Node2 -->
<g id="node2" class="node"><title>Node2</title>
<g id="a_node2"><a xlink:href="../../d6/d98/classnars_1_1language_1_1Conjunction_afab922cb7b88c6cb7ae619f20b4c90ed.html#afab922cb7b88c6cb7ae619f20b4c90ed" target="_top" xlink:title="Clone an object. ">
<polygon fill="none" stroke="black" points="171.5,-38.5 171.5,-57.5 329.5,-57.5 329.5,-38.5 171.5,-38.5"/>
<text text-anchor="middle" x="250.5" y="-45.5" font-family="Helvetica,sans-Serif" font-size="10.00">nars.language.Conjunction.clone</text>
</a>
</g>
</g>
<!-- Node1&#45;&gt;Node2 -->
<g id="edge1" class="edge"><title>Node1&#45;&gt;Node2</title>
<path fill="none" stroke="midnightblue" d="M145.196,-37.051C153.858,-37.9602 162.693,-38.8876 171.373,-39.7988"/>
<polygon fill="midnightblue" stroke="midnightblue" points="145.437,-33.5572 135.127,-35.994 144.707,-40.5189 145.437,-33.5572"/>
</g>
<!-- Node3 -->
<g id="node3" class="node"><title>Node3</title>
<g id="a_node3"><a xlink:href="../../d6/d98/classnars_1_1language_1_1Conjunction_a0441c74943ec5cb83e93eee1c6d167e0.html#a0441c74943ec5cb83e93eee1c6d167e0" target="_top" xlink:title="Try to make a new Disjunction from a set of components. ">
<polygon fill="none" stroke="black" points="171,-0.5 171,-19.5 330,-19.5 330,-0.5 171,-0.5"/>
<text text-anchor="middle" x="250.5" y="-7.5" font-family="Helvetica,sans-Serif" font-size="10.00">nars.language.Conjunction.make</text>
</a>
</g>
</g>
<!-- Node1&#45;&gt;Node3 -->
<g id="edge2" class="edge"><title>Node1&#45;&gt;Node3</title>
<path fill="none" stroke="midnightblue" d="M145.3,-20.9381C153.722,-20.054 162.307,-19.1528 170.753,-18.2663"/>
<polygon fill="midnightblue" stroke="midnightblue" points="144.707,-17.4811 135.127,-22.006 145.437,-24.4428 144.707,-17.4811"/>
</g>
</g>
</svg>
