<?xml version="1.0" encoding="UTF-8" standalone="no"?>
<!DOCTYPE svg PUBLIC "-//W3C//DTD SVG 1.1//EN"
 "http://www.w3.org/Graphics/SVG/1.1/DTD/svg11.dtd">
<!-- Generated by graphviz version 2.38.0 (20140413.2041)
 -->
<!-- Title: nars.language.Conjunction.make Pages: 1 -->
<svg width="2743pt" height="179pt"
 viewBox="0.00 0.00 2743.00 178.50" xmlns="http://www.w3.org/2000/svg" xmlns:xlink="http://www.w3.org/1999/xlink">
<g id="graph0" class="graph" transform="scale(1 1) rotate(0) translate(4 174.5)">
<title>nars.language.Conjunction.make</title>
<!-- Node1 -->
<g id="node1" class="node"><title>Node1</title>
<polygon fill="#bfbfbf" stroke="black" points="0,-76.5 0,-95.5 159,-95.5 159,-76.5 0,-76.5"/>
<text text-anchor="middle" x="79.5" y="-83.5" font-family="Helvetica,sans-Serif" font-size="10.00">nars.language.Conjunction.make</text>
</g>
<!-- Node2 -->
<g id="node2" class="node"><title>Node2</title>
<g id="a_node2"><a xlink:href="../../d8/d79/classnars_1_1inference_1_1CompositionalRules_a53f7edf7bfe7433da42e8fcf36fd6604.html#a53f7edf7bfe7433da42e8fcf36fd6604" target="_top" xlink:title="{&lt;S ==&gt; M&gt;, ">
<polygon fill="none" stroke="black" points="408,-140 408,-170 551,-170 551,-140 408,-140"/>
<text text-anchor="start" x="416" y="-158" font-family="Helvetica,sans-Serif" font-size="10.00">nars.inference.Compositional</text>
<text text-anchor="middle" x="479.5" y="-147" font-family="Helvetica,sans-Serif" font-size="10.00">Rules.composeCompound</text>
</a>
</g>
</g>
<!-- Node1&#45;&gt;Node2 -->
<g id="edge1" class="edge"><title>Node1&#45;&gt;Node2</title>
<path fill="none" stroke="midnightblue" d="M99.5402,-101.997C121.099,-118.97 158.052,-144.728 195,-155 265.419,-174.578 349.536,-171.442 407.764,-165.357"/>
<polygon fill="midnightblue" stroke="midnightblue" points="101.526,-99.102 91.5461,-95.545 97.1296,-104.549 101.526,-99.102"/>
</g>
<!-- Node14 -->
<g id="node14" class="node"><title>Node14</title>
<g id="a_node14"><a xlink:href="../../d8/d79/classnars_1_1inference_1_1CompositionalRules_ae7906cfca35e9c7568ace240aba808a0.html#ae7906cfca35e9c7568ace240aba808a0" target="_top" xlink:title=" &#160;&#160;&#160;&#160;Introduce a second independent variable into two terms with a common &#160;component ...">
<polygon fill="none" stroke="black" points="408,-71 408,-101 551,-101 551,-71 408,-71"/>
<text text-anchor="start" x="416" y="-89" font-family="Helvetica,sans-Serif" font-size="10.00">nars.inference.Compositional</text>
<text text-anchor="middle" x="479.5" y="-78" font-family="Helvetica,sans-Serif" font-size="10.00">Rules.introVarInner</text>
</a>
</g>
</g>
<!-- Node1&#45;&gt;Node14 -->
<g id="edge13" class="edge"><title>Node1&#45;&gt;Node14</title>
<path fill="none" stroke="midnightblue" d="M169.527,-86C241.408,-86 341.193,-86 407.706,-86"/>
<polygon fill="midnightblue" stroke="midnightblue" points="169.132,-82.5001 159.132,-86 169.132,-89.5001 169.132,-82.5001"/>
</g>
<!-- Node17 -->
<g id="node17" class="node"><title>Node17</title>
<g id="a_node17"><a xlink:href="../../d8/d79/classnars_1_1inference_1_1CompositionalRules_a4e01a00f3a024ecdbd3949fefb803dae.html#a4e01a00f3a024ecdbd3949fefb803dae" target="_top" xlink:title="Introduce a dependent variable in an outer&#45;layer conjunction. ">
<polygon fill="none" stroke="black" points="212,-115 212,-145 355,-145 355,-115 212,-115"/>
<text text-anchor="start" x="220" y="-133" font-family="Helvetica,sans-Serif" font-size="10.00">nars.inference.Compositional</text>
<text text-anchor="middle" x="283.5" y="-122" font-family="Helvetica,sans-Serif" font-size="10.00">Rules.introVarOuter</text>
</a>
</g>
</g>
<!-- Node1&#45;&gt;Node17 -->
<g id="edge18" class="edge"><title>Node1&#45;&gt;Node17</title>
<path fill="none" stroke="midnightblue" d="M134.408,-97.7424C158.641,-103.021 187.533,-109.314 213.336,-114.935"/>
<polygon fill="midnightblue" stroke="midnightblue" points="134.847,-94.2559 124.331,-95.5473 133.357,-101.096 134.847,-94.2559"/>
</g>
<!-- Node18 -->
<g id="node18" class="node"><title>Node18</title>
<g id="a_node18"><a xlink:href="../../d6/d98/classnars_1_1language_1_1Conjunction_aa997df7f04b5fdc6009b9a48f1418dd5.html#aa997df7f04b5fdc6009b9a48f1418dd5" target="_top" xlink:title="Try to make a new compound from two components. ">
<polygon fill="none" stroke="black" points="204,-38.5 204,-57.5 363,-57.5 363,-38.5 204,-38.5"/>
<text text-anchor="middle" x="283.5" y="-45.5" font-family="Helvetica,sans-Serif" font-size="10.00">nars.language.Conjunction.make</text>
</a>
</g>
</g>
<!-- Node1&#45;&gt;Node18 -->
<g id="edge20" class="edge"><title>Node1&#45;&gt;Node18</title>
<path fill="none" stroke="midnightblue" d="M141.196,-74.5819C170.099,-69.1448 204.269,-62.7168 231.767,-57.5439"/>
<polygon fill="midnightblue" stroke="midnightblue" points="140.393,-71.1715 131.212,-76.46 141.687,-78.0509 140.393,-71.1715"/>
</g>
<!-- Node19 -->
<g id="node19" class="node"><title>Node19</title>
<g id="a_node19"><a xlink:href="../../d0/dee/classnars_1_1language_1_1CompoundTerm_a80748e3181cffb66ac216637477507c3.html#a80748e3181cffb66ac216637477507c3" target="_top" xlink:title="Try to make a compound term from an operator and a list of components. ">
<polygon fill="none" stroke="black" points="195,-0.5 195,-19.5 372,-19.5 372,-0.5 195,-0.5"/>
<text text-anchor="middle" x="283.5" y="-7.5" font-family="Helvetica,sans-Serif" font-size="10.00">nars.language.CompoundTerm.make</text>
</a>
</g>
</g>
<!-- Node1&#45;&gt;Node19 -->
<g id="edge21" class="edge"><title>Node1&#45;&gt;Node19</title>
<path fill="none" stroke="midnightblue" d="M105.569,-71.2438C128.252,-58.4516 162.92,-40.2707 195,-29 205.56,-25.2901 217.101,-22.164 228.236,-19.5869"/>
<polygon fill="midnightblue" stroke="midnightblue" points="103.566,-68.3571 96.6237,-76.3604 107.042,-74.4333 103.566,-68.3571"/>
</g>
<!-- Node3 -->
<g id="node3" class="node"><title>Node3</title>
<g id="a_node3"><a xlink:href="../../da/de3/classnars_1_1inference_1_1RuleTables_a34927349efcf87db97d23c60983b115b.html#a34927349efcf87db97d23c60983b115b" target="_top" xlink:title="Syllogistic rules whose both premises are on the same asymmetric relation. ">
<polygon fill="none" stroke="black" points="587,-140 587,-170 772,-170 772,-140 587,-140"/>
<text text-anchor="start" x="595" y="-158" font-family="Helvetica,sans-Serif" font-size="10.00">nars.inference.RuleTables.asymmetric</text>
<text text-anchor="middle" x="679.5" y="-147" font-family="Helvetica,sans-Serif" font-size="10.00">Asymmetric</text>
</a>
</g>
</g>
<!-- Node2&#45;&gt;Node3 -->
<g id="edge2" class="edge"><title>Node2&#45;&gt;Node3</title>
<path fill="none" stroke="midnightblue" d="M561.284,-155C569.685,-155 578.267,-155 586.777,-155"/>
<polygon fill="midnightblue" stroke="midnightblue" points="561.144,-151.5 551.144,-155 561.144,-158.5 561.144,-151.5"/>
</g>
<!-- Node4 -->
<g id="node4" class="node"><title>Node4</title>
<g id="a_node4"><a xlink:href="../../da/de3/classnars_1_1inference_1_1RuleTables_a8628d400a8ceda7fea05039ddfea319b.html#a8628d400a8ceda7fea05039ddfea319b" target="_top" xlink:title="Meta&#45;table of syllogistic rules, indexed by the content classes of the taskSentence and the belief...">
<polygon fill="none" stroke="black" points="808,-96.5 808,-115.5 988,-115.5 988,-96.5 808,-96.5"/>
<text text-anchor="middle" x="898" y="-103.5" font-family="Helvetica,sans-Serif" font-size="10.00">nars.inference.RuleTables.syllogisms</text>
</a>
</g>
</g>
<!-- Node3&#45;&gt;Node4 -->
<g id="edge3" class="edge"><title>Node3&#45;&gt;Node4</title>
<path fill="none" stroke="midnightblue" d="M756.99,-137.688C789.905,-130.239 827.118,-121.816 854.902,-115.528"/>
<polygon fill="midnightblue" stroke="midnightblue" points="755.909,-134.344 746.928,-139.965 757.454,-141.172 755.909,-134.344"/>
</g>
<!-- Node5 -->
<g id="node5" class="node"><title>Node5</title>
<g id="a_node5"><a xlink:href="../../da/de3/classnars_1_1inference_1_1RuleTables_ac2d01dfdc40bdd47c757cb549217e6e3.html#ac2d01dfdc40bdd47c757cb549217e6e3" target="_top" xlink:title="Entry point of the inference engine. ">
<polygon fill="none" stroke="black" points="1024,-74.5 1024,-93.5 1187,-93.5 1187,-74.5 1024,-74.5"/>
<text text-anchor="middle" x="1105.5" y="-81.5" font-family="Helvetica,sans-Serif" font-size="10.00">nars.inference.RuleTables.reason</text>
</a>
</g>
</g>
<!-- Node4&#45;&gt;Node5 -->
<g id="edge4" class="edge"><title>Node4&#45;&gt;Node5</title>
<path fill="none" stroke="midnightblue" d="M998.053,-95.3958C1006.69,-94.4707 1015.37,-93.5419 1023.84,-92.6355"/>
<polygon fill="midnightblue" stroke="midnightblue" points="997.511,-91.9338 987.94,-96.4784 998.256,-98.894 997.511,-91.9338"/>
</g>
<!-- Node6 -->
<g id="node6" class="node"><title>Node6</title>
<g id="a_node6"><a xlink:href="../../d4/d22/classnars_1_1entity_1_1Concept_ae07576c8466ad65eeb61040e3f71cfc7.html#ae07576c8466ad65eeb61040e3f71cfc7" target="_top" xlink:title="An atomic step in a concept, only called in Memory# processConcept. ">
<polygon fill="none" stroke="black" points="1223,-74.5 1223,-93.5 1342,-93.5 1342,-74.5 1223,-74.5"/>
<text text-anchor="middle" x="1282.5" y="-81.5" font-family="Helvetica,sans-Serif" font-size="10.00">nars.entity.Concept.fire</text>
</a>
</g>
</g>
<!-- Node5&#45;&gt;Node6 -->
<g id="edge5" class="edge"><title>Node5&#45;&gt;Node6</title>
<path fill="none" stroke="midnightblue" d="M1197.25,-84C1205.91,-84 1214.52,-84 1222.76,-84"/>
<polygon fill="midnightblue" stroke="midnightblue" points="1197.09,-80.5001 1187.09,-84 1197.08,-87.5001 1197.09,-80.5001"/>
</g>
<!-- Node7 -->
<g id="node7" class="node"><title>Node7</title>
<g id="a_node7"><a xlink:href="../../d8/df4/classnars_1_1storage_1_1Memory_a83154b55b922c82b73931d4f22e3a590.html#a83154b55b922c82b73931d4f22e3a590" target="_top" xlink:title="Select a concept to fire. ">
<polygon fill="none" stroke="black" points="1378,-69 1378,-99 1524,-99 1524,-69 1378,-69"/>
<text text-anchor="start" x="1386" y="-87" font-family="Helvetica,sans-Serif" font-size="10.00">nars.storage.Memory.process</text>
<text text-anchor="middle" x="1451" y="-76" font-family="Helvetica,sans-Serif" font-size="10.00">Concept</text>
</a>
</g>
</g>
<!-- Node6&#45;&gt;Node7 -->
<g id="edge6" class="edge"><title>Node6&#45;&gt;Node7</title>
<path fill="none" stroke="midnightblue" d="M1352.34,-84C1360.75,-84 1369.36,-84 1377.82,-84"/>
<polygon fill="midnightblue" stroke="midnightblue" points="1352.2,-80.5001 1342.2,-84 1352.2,-87.5001 1352.2,-80.5001"/>
</g>
<!-- Node8 -->
<g id="node8" class="node"><title>Node8</title>
<g id="a_node8"><a xlink:href="../../d8/df4/classnars_1_1storage_1_1Memory_a49e2cbc8b78d535f4d69739886ee966a.html#a49e2cbc8b78d535f4d69739886ee966a" target="_top" xlink:title="An atomic working workCycle of the system: process new Tasks, then fire a concept. ">
<polygon fill="none" stroke="black" points="1560,-69 1560,-99 1693,-99 1693,-69 1560,-69"/>
<text text-anchor="start" x="1568" y="-87" font-family="Helvetica,sans-Serif" font-size="10.00">nars.storage.Memory.work</text>
<text text-anchor="middle" x="1626.5" y="-76" font-family="Helvetica,sans-Serif" font-size="10.00">Cycle</text>
</a>
</g>
</g>
<!-- Node7&#45;&gt;Node8 -->
<g id="edge7" class="edge"><title>Node7&#45;&gt;Node8</title>
<path fill="none" stroke="midnightblue" d="M1534.12,-84C1542.72,-84 1551.37,-84 1559.76,-84"/>
<polygon fill="midnightblue" stroke="midnightblue" points="1534.07,-80.5001 1524.07,-84 1534.07,-87.5001 1534.07,-80.5001"/>
</g>
<!-- Node9 -->
<g id="node9" class="node"><title>Node9</title>
<g id="a_node9"><a xlink:href="../../dd/da5/classnars_1_1storage_1_1Memory_1_1ReasonerBatch_acc60dec23da774957a85362ed6d7448b.html#acc60dec23da774957a85362ed6d7448b" target="_top" xlink:title="nars.storage.Memory.Reasoner\lBatch.doTick">
<polygon fill="none" stroke="black" points="1729,-69 1729,-99 1883,-99 1883,-69 1729,-69"/>
<text text-anchor="start" x="1737" y="-87" font-family="Helvetica,sans-Serif" font-size="10.00">nars.storage.Memory.Reasoner</text>
<text text-anchor="middle" x="1806" y="-76" font-family="Helvetica,sans-Serif" font-size="10.00">Batch.doTick</text>
</a>
</g>
</g>
<!-- Node8&#45;&gt;Node9 -->
<g id="edge8" class="edge"><title>Node8&#45;&gt;Node9</title>
<path fill="none" stroke="midnightblue" d="M1703.32,-84C1711.79,-84 1720.41,-84 1728.89,-84"/>
<polygon fill="midnightblue" stroke="midnightblue" points="1703.09,-80.5001 1693.09,-84 1703.09,-87.5001 1703.09,-80.5001"/>
</g>
<!-- Node10 -->
<g id="node10" class="node"><title>Node10</title>
<g id="a_node10"><a xlink:href="../../dd/da5/classnars_1_1storage_1_1Memory_1_1ReasonerBatch_aed591f05899b98fd9e4ad01836ad0a40.html#aed591f05899b98fd9e4ad01836ad0a40" target="_top" xlink:title="A clock tick. ">
<polygon fill="none" stroke="black" points="1919,-69 1919,-99 2073,-99 2073,-69 1919,-69"/>
<text text-anchor="start" x="1927" y="-87" font-family="Helvetica,sans-Serif" font-size="10.00">nars.storage.Memory.Reasoner</text>
<text text-anchor="middle" x="1996" y="-76" font-family="Helvetica,sans-Serif" font-size="10.00">Batch.tick</text>
</a>
</g>
</g>
<!-- Node9&#45;&gt;Node10 -->
<g id="edge9" class="edge"><title>Node9&#45;&gt;Node10</title>
<path fill="none" stroke="midnightblue" d="M1893.42,-84C1901.86,-84 1910.37,-84 1918.7,-84"/>
<polygon fill="midnightblue" stroke="midnightblue" points="1893.2,-80.5001 1883.2,-84 1893.2,-87.5001 1893.2,-80.5001"/>
</g>
<!-- Node11 -->
<g id="node11" class="node"><title>Node11</title>
<g id="a_node11"><a xlink:href="../../d4/d88/classnars_1_1storage_1_1Memory_1_1NARSBatch_aad99db6cedde9cff2a997db8906ff821.html#aad99db6cedde9cff2a997db8906ff821" target="_top" xlink:title="Run to completion: repeatedly execute NARS working cycle, until Inputs are Finished, or 1000 steps. ">
<polygon fill="none" stroke="black" points="2109,-74.5 2109,-93.5 2291,-93.5 2291,-74.5 2109,-74.5"/>
<text text-anchor="middle" x="2200" y="-81.5" font-family="Helvetica,sans-Serif" font-size="10.00">nars.storage.Memory.NARSBatch.run</text>
</a>
</g>
</g>
<!-- Node10&#45;&gt;Node11 -->
<g id="edge10" class="edge"><title>Node10&#45;&gt;Node11</title>
<path fill="none" stroke="midnightblue" d="M2083.27,-84C2091.69,-84 2100.25,-84 2108.71,-84"/>
<polygon fill="midnightblue" stroke="midnightblue" points="2083.08,-80.5001 2073.08,-84 2083.08,-87.5001 2083.08,-80.5001"/>
</g>
<!-- Node12 -->
<g id="node12" class="node"><title>Node12</title>
<g id="a_node12"><a xlink:href="../../d4/d88/classnars_1_1storage_1_1Memory_1_1NARSBatch_a416c39463faa161661ed1d12fea03b3c.html#a416c39463faa161661ed1d12fea03b3c" target="_top" xlink:title="non&#45;static equivalent to main(String[]) : run to completion from an input file ">
<polygon fill="none" stroke="black" points="2327,-69 2327,-99 2509,-99 2509,-69 2327,-69"/>
<text text-anchor="start" x="2335" y="-87" font-family="Helvetica,sans-Serif" font-size="10.00">nars.storage.Memory.NARSBatch.run</text>
<text text-anchor="middle" x="2418" y="-76" font-family="Helvetica,sans-Serif" font-size="10.00">Inference</text>
</a>
</g>
</g>
<!-- Node11&#45;&gt;Node12 -->
<g id="edge11" class="edge"><title>Node11&#45;&gt;Node12</title>
<path fill="none" stroke="midnightblue" d="M2301.06,-84C2309.63,-84 2318.27,-84 2326.76,-84"/>
<polygon fill="midnightblue" stroke="midnightblue" points="2301.04,-80.5001 2291.04,-84 2301.04,-87.5001 2301.04,-80.5001"/>
</g>
<!-- Node13 -->
<g id="node13" class="node"><title>Node13</title>
<g id="a_node13"><a xlink:href="../../d4/d88/classnars_1_1storage_1_1Memory_1_1NARSBatch_aa97fcd68270583e60e6bf1b4579d1bdc.html#aa97fcd68270583e60e6bf1b4579d1bdc" target="_top" xlink:title="The entry point of the standalone application. ">
<polygon fill="none" stroke="black" points="2545,-74.5 2545,-93.5 2735,-93.5 2735,-74.5 2545,-74.5"/>
<text text-anchor="middle" x="2640" y="-81.5" font-family="Helvetica,sans-Serif" font-size="10.00">nars.storage.Memory.NARSBatch.main</text>
</a>
</g>
</g>
<!-- Node12&#45;&gt;Node13 -->
<g id="edge12" class="edge"><title>Node12&#45;&gt;Node13</title>
<path fill="none" stroke="midnightblue" d="M2519.37,-84C2527.82,-84 2536.34,-84 2544.74,-84"/>
<polygon fill="midnightblue" stroke="midnightblue" points="2519.12,-80.5001 2509.12,-84 2519.12,-87.5001 2519.12,-80.5001"/>
</g>
<!-- Node15 -->
<g id="node15" class="node"><title>Node15</title>
<g id="a_node15"><a xlink:href="../../da/de3/classnars_1_1inference_1_1RuleTables_a8e422154fd8288d161435c3a53e44276.html#a8e422154fd8288d161435c3a53e44276" target="_top" xlink:title="Inference between a compound term and a statement. ">
<polygon fill="none" stroke="black" points="808.5,-47 808.5,-77 987.5,-77 987.5,-47 808.5,-47"/>
<text text-anchor="start" x="816.5" y="-65" font-family="Helvetica,sans-Serif" font-size="10.00">nars.inference.RuleTables.compound</text>
<text text-anchor="middle" x="898" y="-54" font-family="Helvetica,sans-Serif" font-size="10.00">AndStatement</text>
</a>
</g>
</g>
<!-- Node14&#45;&gt;Node15 -->
<g id="edge14" class="edge"><title>Node14&#45;&gt;Node15</title>
<path fill="none" stroke="midnightblue" d="M561.371,-81.34C632.243,-77.2561 735.074,-71.3307 808.207,-67.1165"/>
<polygon fill="midnightblue" stroke="midnightblue" points="560.936,-77.8592 551.154,-81.9287 561.338,-84.8476 560.936,-77.8592"/>
</g>
<!-- Node16 -->
<g id="node16" class="node"><title>Node16</title>
<g id="a_node16"><a xlink:href="../../da/de3/classnars_1_1inference_1_1RuleTables_a3e3eec10853be6dcf8c7532259cf4a84.html#a3e3eec10853be6dcf8c7532259cf4a84" target="_top" xlink:title="The detachment rule, with variable unification. ">
<polygon fill="none" stroke="black" points="587,-91 587,-121 772,-121 772,-91 587,-91"/>
<text text-anchor="start" x="595" y="-109" font-family="Helvetica,sans-Serif" font-size="10.00">nars.inference.RuleTables.detachment</text>
<text text-anchor="middle" x="679.5" y="-98" font-family="Helvetica,sans-Serif" font-size="10.00">WithVar</text>
</a>
</g>
</g>
<!-- Node14&#45;&gt;Node16 -->
<g id="edge16" class="edge"><title>Node14&#45;&gt;Node16</title>
<path fill="none" stroke="midnightblue" d="M561.284,-94.16C569.685,-95.0086 578.267,-95.8754 586.777,-96.735"/>
<polygon fill="midnightblue" stroke="midnightblue" points="561.445,-90.6586 551.144,-93.1358 560.742,-97.6231 561.445,-90.6586"/>
</g>
<!-- Node15&#45;&gt;Node5 -->
<g id="edge15" class="edge"><title>Node15&#45;&gt;Node5</title>
<path fill="none" stroke="midnightblue" d="M997.863,-72.5839C1006.6,-73.519 1015.37,-74.4581 1023.93,-75.3741"/>
<polygon fill="midnightblue" stroke="midnightblue" points="997.957,-69.0741 987.642,-71.4896 997.212,-76.0343 997.957,-69.0741"/>
</g>
<!-- Node16&#45;&gt;Node4 -->
<g id="edge17" class="edge"><title>Node16&#45;&gt;Node4</title>
<path fill="none" stroke="midnightblue" d="M782.084,-106C790.705,-106 799.383,-106 807.898,-106"/>
<polygon fill="midnightblue" stroke="midnightblue" points="782.002,-102.5 772.002,-106 782.002,-109.5 782.002,-102.5"/>
</g>
<!-- Node17&#45;&gt;Node2 -->
<g id="edge19" class="edge"><title>Node17&#45;&gt;Node2</title>
<path fill="none" stroke="midnightblue" d="M365.3,-140.412C379.466,-142.238 394.106,-144.124 407.965,-145.91"/>
<polygon fill="midnightblue" stroke="midnightblue" points="365.453,-136.903 355.087,-139.096 364.558,-143.846 365.453,-136.903"/>
</g>
</g>
</svg>
