<?xml version="1.0" encoding="UTF-8" standalone="no"?>
<!DOCTYPE svg PUBLIC "-//W3C//DTD SVG 1.1//EN"
 "http://www.w3.org/Graphics/SVG/1.1/DTD/svg11.dtd">
<!-- Generated by graphviz version 2.38.0 (20140413.2041)
 -->
<!-- Title: nars.language.Negation.make Pages: 1 -->
<svg width="606pt" height="192pt"
 viewBox="0.00 0.00 606.00 191.50" xmlns="http://www.w3.org/2000/svg" xmlns:xlink="http://www.w3.org/1999/xlink">
<g id="graph0" class="graph" transform="scale(1 1) rotate(0) translate(4 187.5)">
<title>nars.language.Negation.make</title>
<!-- Node1 -->
<g id="node1" class="node"><title>Node1</title>
<polygon fill="#bfbfbf" stroke="black" points="0,-52.5 0,-71.5 146,-71.5 146,-52.5 0,-52.5"/>
<text text-anchor="middle" x="73" y="-59.5" font-family="Helvetica,sans-Serif" font-size="10.00">nars.language.Negation.make</text>
</g>
<!-- Node2 -->
<g id="node2" class="node"><title>Node2</title>
<g id="a_node2"><a xlink:href="../../d0/dee/classnars_1_1language_1_1CompoundTerm_a8d1e610c509fa096c6b52eb5fe06d59b.html#a8d1e610c509fa096c6b52eb5fe06d59b" target="_top" xlink:title="default method to make the oldName of a compound term from given fields ">
<polygon fill="none" stroke="black" points="182,-109 182,-139 359,-139 359,-109 182,-109"/>
<text text-anchor="start" x="190" y="-127" font-family="Helvetica,sans-Serif" font-size="10.00">nars.language.CompoundTerm.make</text>
<text text-anchor="middle" x="270.5" y="-116" font-family="Helvetica,sans-Serif" font-size="10.00">CompoundName</text>
</a>
</g>
</g>
<!-- Node1&#45;&gt;Node2 -->
<g id="edge1" class="edge"><title>Node1&#45;&gt;Node2</title>
<path fill="none" stroke="midnightblue" d="M104.118,-71.5516C132.804,-80.6489 176.731,-94.5797 212.106,-105.798"/>
<polygon fill="midnightblue" stroke="midnightblue" points="211.246,-109.197 221.836,-108.884 213.362,-102.525 211.246,-109.197"/>
</g>
<!-- Node5 -->
<g id="node5" class="node"><title>Node5</title>
<g id="a_node5"><a xlink:href="../../d8/df4/classnars_1_1storage_1_1Memory_a63058cc52d77412e0aead8387c23aa93.html#a63058cc52d77412e0aead8387c23aa93" target="_top" xlink:title="Get a Term for a given name of a Concept or Operator. ">
<polygon fill="none" stroke="black" points="202.5,-47 202.5,-77 338.5,-77 338.5,-47 202.5,-47"/>
<text text-anchor="start" x="210.5" y="-65" font-family="Helvetica,sans-Serif" font-size="10.00">nars.storage.Memory.name</text>
<text text-anchor="middle" x="270.5" y="-54" font-family="Helvetica,sans-Serif" font-size="10.00">ToListedTerm</text>
</a>
</g>
</g>
<!-- Node1&#45;&gt;Node5 -->
<g id="edge5" class="edge"><title>Node1&#45;&gt;Node5</title>
<path fill="none" stroke="midnightblue" d="M146.242,-62C161.177,-62 176.967,-62 192.079,-62"/>
<polygon fill="midnightblue" stroke="midnightblue" points="192.413,-65.5001 202.413,-62 192.413,-58.5001 192.413,-65.5001"/>
</g>
<!-- Node9 -->
<g id="node9" class="node"><title>Node9</title>
<g id="a_node9"><a xlink:href="../../da/d1e/classnars_1_1language_1_1Negation_a76ebf4ceea15479151f90711b78ff1b9.html#a76ebf4ceea15479151f90711b78ff1b9" target="_top" xlink:title="Constructor with partial values, called by make. ">
<polygon fill="none" stroke="black" points="190,-8.5 190,-27.5 351,-27.5 351,-8.5 190,-8.5"/>
<text text-anchor="middle" x="270.5" y="-15.5" font-family="Helvetica,sans-Serif" font-size="10.00">nars.language.Negation.Negation</text>
</a>
</g>
</g>
<!-- Node1&#45;&gt;Node9 -->
<g id="edge9" class="edge"><title>Node1&#45;&gt;Node9</title>
<path fill="none" stroke="midnightblue" d="M114.486,-52.4904C134.745,-47.7669 159.653,-42.0125 182,-37 192.684,-34.6036 204.113,-32.0875 215.068,-29.699"/>
<polygon fill="midnightblue" stroke="midnightblue" points="215.932,-33.0929 224.961,-27.5484 214.445,-26.2527 215.932,-33.0929"/>
</g>
<!-- Node3 -->
<g id="node3" class="node"><title>Node3</title>
<g id="a_node3"><a xlink:href="../../d0/dee/classnars_1_1language_1_1CompoundTerm_a89000afae8017231889aaa549292d1e0.html#a89000afae8017231889aaa549292d1e0" target="_top" xlink:title="Default constructor. ">
<polygon fill="none" stroke="black" points="420,-153 420,-183 573,-183 573,-153 420,-153"/>
<text text-anchor="start" x="428" y="-171" font-family="Helvetica,sans-Serif" font-size="10.00">nars.language.CompoundTerm.</text>
<text text-anchor="middle" x="496.5" y="-160" font-family="Helvetica,sans-Serif" font-size="10.00">CompoundTerm</text>
</a>
</g>
</g>
<!-- Node2&#45;&gt;Node3 -->
<g id="edge2" class="edge"><title>Node2&#45;&gt;Node3</title>
<path fill="none" stroke="midnightblue" d="M347.962,-139.019C367.893,-142.934 389.501,-147.179 409.873,-151.18"/>
<polygon fill="midnightblue" stroke="midnightblue" points="409.276,-154.63 419.763,-153.123 410.625,-147.761 409.276,-154.63"/>
</g>
<!-- Node4 -->
<g id="node4" class="node"><title>Node4</title>
<g id="a_node4"><a xlink:href="../../d0/dee/classnars_1_1language_1_1CompoundTerm_aa26a304f6249c185836d8fde8b8f17a8.html#aa26a304f6249c185836d8fde8b8f17a8" target="_top" xlink:title="default method to make the oldName of the current term from existing fields ">
<polygon fill="none" stroke="black" points="395,-114.5 395,-133.5 598,-133.5 598,-114.5 395,-114.5"/>
<text text-anchor="middle" x="496.5" y="-121.5" font-family="Helvetica,sans-Serif" font-size="10.00">nars.language.CompoundTerm.makeName</text>
</a>
</g>
</g>
<!-- Node2&#45;&gt;Node4 -->
<g id="edge3" class="edge"><title>Node2&#45;&gt;Node4</title>
<path fill="none" stroke="midnightblue" d="M359.067,-117.395C367.533,-117.293 376.196,-117.245 384.848,-117.25"/>
<polygon fill="midnightblue" stroke="midnightblue" points="384.976,-120.751 394.987,-117.282 384.998,-113.751 384.976,-120.751"/>
</g>
<!-- Node4&#45;&gt;Node2 -->
<g id="edge4" class="edge"><title>Node4&#45;&gt;Node2</title>
<path fill="none" stroke="midnightblue" d="M394.987,-130.718C386.375,-130.766 377.672,-130.76 369.083,-130.7"/>
<polygon fill="midnightblue" stroke="midnightblue" points="369.099,-127.2 359.067,-130.605 369.033,-134.2 369.099,-127.2"/>
</g>
<!-- Node6 -->
<g id="node6" class="node"><title>Node6</title>
<g id="a_node6"><a xlink:href="../../d8/df4/classnars_1_1storage_1_1Memory_a33af7b3d806d32c85390563fec3c6d27.html#a33af7b3d806d32c85390563fec3c6d27" target="_top" xlink:title="Concept bag. ">
<polygon fill="none" stroke="black" points="413,-76.5 413,-95.5 580,-95.5 580,-76.5 413,-76.5"/>
<text text-anchor="middle" x="496.5" y="-83.5" font-family="Helvetica,sans-Serif" font-size="10.00">nars.storage.Memory.getConcepts</text>
</a>
</g>
</g>
<!-- Node5&#45;&gt;Node6 -->
<g id="edge6" class="edge"><title>Node5&#45;&gt;Node6</title>
<path fill="none" stroke="midnightblue" d="M338.707,-69.2008C358.844,-71.3582 381.292,-73.7635 402.767,-76.0643"/>
<polygon fill="midnightblue" stroke="midnightblue" points="402.568,-79.5629 412.884,-77.1482 403.313,-72.6027 402.568,-79.5629"/>
</g>
<!-- Node7 -->
<g id="node7" class="node"><title>Node7</title>
<g id="a_node7"><a xlink:href="../../d9/d37/classnars_1_1storage_1_1Bag_a011b37fc683db7fb7b41e33712a37d92.html#a011b37fc683db7fb7b41e33712a37d92" target="_top" xlink:title="Get an Item by key. ">
<polygon fill="none" stroke="black" points="443,-38.5 443,-57.5 550,-57.5 550,-38.5 443,-38.5"/>
<text text-anchor="middle" x="496.5" y="-45.5" font-family="Helvetica,sans-Serif" font-size="10.00">nars.storage.Bag.get</text>
</a>
</g>
</g>
<!-- Node5&#45;&gt;Node7 -->
<g id="edge7" class="edge"><title>Node5&#45;&gt;Node7</title>
<path fill="none" stroke="midnightblue" d="M338.707,-57.7995C368.564,-55.9335 403.505,-53.7497 432.816,-51.9178"/>
<polygon fill="midnightblue" stroke="midnightblue" points="433.169,-55.4026 442.931,-51.2856 432.732,-48.4162 433.169,-55.4026"/>
</g>
<!-- Node8 -->
<g id="node8" class="node"><title>Node8</title>
<g id="a_node8"><a xlink:href="../../d4/d22/classnars_1_1entity_1_1Concept_afcd1217b7680b073fa51f0d0f159dcea.html#afcd1217b7680b073fa51f0d0f159dcea" target="_top" xlink:title="Return the associated term, called from Memory only. ">
<polygon fill="none" stroke="black" points="426,-0.5 426,-19.5 567,-19.5 567,-0.5 426,-0.5"/>
<text text-anchor="middle" x="496.5" y="-7.5" font-family="Helvetica,sans-Serif" font-size="10.00">nars.entity.Concept.getTerm</text>
</a>
</g>
</g>
<!-- Node5&#45;&gt;Node8 -->
<g id="edge8" class="edge"><title>Node5&#45;&gt;Node8</title>
<path fill="none" stroke="midnightblue" d="M324.476,-46.9192C346.235,-40.9667 371.738,-34.299 395,-29 406.632,-26.3501 419.082,-23.7824 431.117,-21.4363"/>
<polygon fill="midnightblue" stroke="midnightblue" points="431.942,-24.8421 441.103,-19.5208 430.623,-17.9675 431.942,-24.8421"/>
</g>
</g>
</svg>
