<?xml version="1.0" encoding="UTF-8" standalone="no"?>
<!DOCTYPE svg PUBLIC "-//W3C//DTD SVG 1.1//EN"
 "http://www.w3.org/Graphics/SVG/1.1/DTD/svg11.dtd">
<!-- Generated by graphviz version 2.38.0 (20140413.2041)
 -->
<!-- Title: nars.language.Negation.Negation Pages: 1 -->
<svg width="351pt" height="66pt"
 viewBox="0.00 0.00 351.00 66.00" xmlns="http://www.w3.org/2000/svg" xmlns:xlink="http://www.w3.org/1999/xlink">
<g id="graph0" class="graph" transform="scale(1 1) rotate(0) translate(4 62)">
<title>nars.language.Negation.Negation</title>
<!-- Node1 -->
<g id="node1" class="node"><title>Node1</title>
<polygon fill="#bfbfbf" stroke="black" points="0,-19.5 0,-38.5 161,-38.5 161,-19.5 0,-19.5"/>
<text text-anchor="middle" x="80.5" y="-26.5" font-family="Helvetica,sans-Serif" font-size="10.00">nars.language.Negation.Negation</text>
</g>
<!-- Node2 -->
<g id="node2" class="node"><title>Node2</title>
<g id="a_node2"><a xlink:href="../../da/d1e/classnars_1_1language_1_1Negation_aa75de1d079c9867de603470387c64998.html#aa75de1d079c9867de603470387c64998" target="_top" xlink:title="Clone an object. ">
<polygon fill="none" stroke="black" points="197,-38.5 197,-57.5 343,-57.5 343,-38.5 197,-38.5"/>
<text text-anchor="middle" x="270" y="-45.5" font-family="Helvetica,sans-Serif" font-size="10.00">nars.language.Negation.clone</text>
</a>
</g>
</g>
<!-- Node1&#45;&gt;Node2 -->
<g id="edge1" class="edge"><title>Node1&#45;&gt;Node2</title>
<path fill="none" stroke="midnightblue" d="M171.095,-38.079C179.713,-38.9523 188.379,-39.8304 196.799,-40.6836"/>
<polygon fill="midnightblue" stroke="midnightblue" points="171.319,-34.5838 161.017,-37.0577 170.613,-41.5481 171.319,-34.5838"/>
</g>
<!-- Node3 -->
<g id="node3" class="node"><title>Node3</title>
<g id="a_node3"><a xlink:href="../../da/d1e/classnars_1_1language_1_1Negation_a61ea99afd1022df3750059189196c348.html#a61ea99afd1022df3750059189196c348" target="_top" xlink:title="Try to make a new SetExt. ">
<polygon fill="none" stroke="black" points="197,-0.5 197,-19.5 343,-19.5 343,-0.5 197,-0.5"/>
<text text-anchor="middle" x="270" y="-7.5" font-family="Helvetica,sans-Serif" font-size="10.00">nars.language.Negation.make</text>
</a>
</g>
</g>
<!-- Node1&#45;&gt;Node3 -->
<g id="edge2" class="edge"><title>Node1&#45;&gt;Node3</title>
<path fill="none" stroke="midnightblue" d="M171.095,-19.921C179.713,-19.0477 188.379,-18.1696 196.799,-17.3164"/>
<polygon fill="midnightblue" stroke="midnightblue" points="170.613,-16.4519 161.017,-20.9423 171.319,-23.4162 170.613,-16.4519"/>
</g>
</g>
</svg>
