<?xml version="1.0" encoding="UTF-8" standalone="no"?>
<!DOCTYPE svg PUBLIC "-//W3C//DTD SVG 1.1//EN"
 "http://www.w3.org/Graphics/SVG/1.1/DTD/svg11.dtd">
<!-- Generated by graphviz version 2.38.0 (20140413.2041)
 -->
<!-- Title: nars.language.Negation.clone Pages: 1 -->
<svg width="594pt" height="116pt"
 viewBox="0.00 0.00 594.00 116.00" xmlns="http://www.w3.org/2000/svg" xmlns:xlink="http://www.w3.org/1999/xlink">
<g id="graph0" class="graph" transform="scale(1 1) rotate(0) translate(4 112)">
<title>nars.language.Negation.clone</title>
<!-- Node1 -->
<g id="node1" class="node"><title>Node1</title>
<polygon fill="#bfbfbf" stroke="black" points="0,-44.5 0,-63.5 146,-63.5 146,-44.5 0,-44.5"/>
<text text-anchor="middle" x="73" y="-51.5" font-family="Helvetica,sans-Serif" font-size="10.00">nars.language.Negation.clone</text>
</g>
<!-- Node2 -->
<g id="node2" class="node"><title>Node2</title>
<g id="a_node2"><a xlink:href="../../d0/dee/classnars_1_1language_1_1CompoundTerm_a4f199daa7588f86b81b0912a5e52dfe0.html#a4f199daa7588f86b81b0912a5e52dfe0" target="_top" xlink:title="Deep clone an array list of terms. ">
<polygon fill="none" stroke="black" points="182,-88.5 182,-107.5 374,-107.5 374,-88.5 182,-88.5"/>
<text text-anchor="middle" x="278" y="-95.5" font-family="Helvetica,sans-Serif" font-size="10.00">nars.language.CompoundTerm.cloneList</text>
</a>
</g>
</g>
<!-- Node1&#45;&gt;Node2 -->
<g id="edge1" class="edge"><title>Node1&#45;&gt;Node2</title>
<path fill="none" stroke="midnightblue" d="M113.941,-63.5476C134.283,-68.3331 159.424,-74.1306 182,-79 193.56,-81.4935 205.937,-84.0506 217.81,-86.4482"/>
<polygon fill="midnightblue" stroke="midnightblue" points="217.142,-89.8838 227.635,-88.4198 218.519,-83.0207 217.142,-89.8838"/>
</g>
<!-- Node4 -->
<g id="node4" class="node"><title>Node4</title>
<g id="a_node4"><a xlink:href="../../d0/dee/classnars_1_1language_1_1CompoundTerm_aee0ef6fd533b58caf22bee2a98eef67d.html#aee0ef6fd533b58caf22bee2a98eef67d" target="_top" xlink:title="check if the term contains free variable ">
<polygon fill="none" stroke="black" points="197.5,-39 197.5,-69 358.5,-69 358.5,-39 197.5,-39"/>
<text text-anchor="start" x="205.5" y="-57" font-family="Helvetica,sans-Serif" font-size="10.00">nars.language.CompoundTerm.is</text>
<text text-anchor="middle" x="278" y="-46" font-family="Helvetica,sans-Serif" font-size="10.00">Constant</text>
</a>
</g>
</g>
<!-- Node1&#45;&gt;Node4 -->
<g id="edge3" class="edge"><title>Node1&#45;&gt;Node4</title>
<path fill="none" stroke="midnightblue" d="M146.142,-54C159.31,-54 173.199,-54 186.813,-54"/>
<polygon fill="midnightblue" stroke="midnightblue" points="187.154,-57.5001 197.154,-54 187.154,-50.5001 187.154,-57.5001"/>
</g>
<!-- Node5 -->
<g id="node5" class="node"><title>Node5</title>
<g id="a_node5"><a xlink:href="../../da/d1e/classnars_1_1language_1_1Negation_a76ebf4ceea15479151f90711b78ff1b9.html#a76ebf4ceea15479151f90711b78ff1b9" target="_top" xlink:title="Constructor with partial values, called by make. ">
<polygon fill="none" stroke="black" points="197.5,-0.5 197.5,-19.5 358.5,-19.5 358.5,-0.5 197.5,-0.5"/>
<text text-anchor="middle" x="278" y="-7.5" font-family="Helvetica,sans-Serif" font-size="10.00">nars.language.Negation.Negation</text>
</a>
</g>
</g>
<!-- Node1&#45;&gt;Node5 -->
<g id="edge4" class="edge"><title>Node1&#45;&gt;Node5</title>
<path fill="none" stroke="midnightblue" d="M116.292,-44.4871C136.216,-40.0349 160.317,-34.6914 182,-30 194.609,-27.2719 208.17,-24.3873 220.987,-21.6837"/>
<polygon fill="midnightblue" stroke="midnightblue" points="222.009,-25.0453 231.074,-19.5607 220.567,-18.1954 222.009,-25.0453"/>
</g>
<!-- Node3 -->
<g id="node3" class="node"><title>Node3</title>
<g id="a_node3"><a xlink:href="../../d0/dee/classnars_1_1language_1_1CompoundTerm_a963e8aef1163f4ed8c364b5e448deaff.html#a963e8aef1163f4ed8c364b5e448deaff" target="_top" xlink:title="Abstract clone method. ">
<polygon fill="none" stroke="black" points="410,-88.5 410,-107.5 586,-107.5 586,-88.5 410,-88.5"/>
<text text-anchor="middle" x="498" y="-95.5" font-family="Helvetica,sans-Serif" font-size="10.00">nars.language.CompoundTerm.clone</text>
</a>
</g>
</g>
<!-- Node2&#45;&gt;Node3 -->
<g id="edge2" class="edge"><title>Node2&#45;&gt;Node3</title>
<path fill="none" stroke="midnightblue" d="M374.301,-98C382.69,-98 391.19,-98 399.597,-98"/>
<polygon fill="midnightblue" stroke="midnightblue" points="399.791,-101.5 409.791,-98 399.791,-94.5001 399.791,-101.5"/>
</g>
</g>
</svg>
