<?xml version="1.0" encoding="UTF-8" standalone="no"?>
<!DOCTYPE svg PUBLIC "-//W3C//DTD SVG 1.1//EN"
 "http://www.w3.org/Graphics/SVG/1.1/DTD/svg11.dtd">
<!-- Generated by graphviz version 2.38.0 (20140413.2041)
 -->
<!-- Title: nars.storage.BagObserver.post Pages: 1 -->
<svg width="333pt" height="88pt"
 viewBox="0.00 0.00 333.00 88.00" xmlns="http://www.w3.org/2000/svg" xmlns:xlink="http://www.w3.org/1999/xlink">
<g id="graph0" class="graph" transform="scale(1 1) rotate(0) translate(4 84)">
<title>nars.storage.BagObserver.post</title>
<!-- Node1 -->
<g id="node1" class="node"><title>Node1</title>
<polygon fill="#bfbfbf" stroke="black" points="0,-30 0,-49 152,-49 152,-30 0,-30"/>
<text text-anchor="middle" x="76" y="-37" font-family="Helvetica,sans-Serif" font-size="10.00">nars.storage.BagObserver.post</text>
</g>
<!-- Node2 -->
<g id="node2" class="node"><title>Node2</title>
<g id="a_node2"><a xlink:href="../../d9/d37/classnars_1_1storage_1_1Bag_a73a559e1b77e6bc3a7db686816accef2.html#a73a559e1b77e6bc3a7db686816accef2" target="_top" xlink:title="To start displaying the Bag in a BagWindow. ">
<polygon fill="none" stroke="black" points="188,-49.5 188,-79.5 325,-79.5 325,-49.5 188,-49.5"/>
<text text-anchor="start" x="196" y="-67.5" font-family="Helvetica,sans-Serif" font-size="10.00">nars.storage.Bag&lt; Concept</text>
<text text-anchor="middle" x="256.5" y="-56.5" font-family="Helvetica,sans-Serif" font-size="10.00"> &gt;::addBagObserver</text>
</a>
</g>
</g>
<!-- Node1&#45;&gt;Node2 -->
<g id="edge1" class="edge"><title>Node1&#45;&gt;Node2</title>
<path fill="none" stroke="midnightblue" d="M155.003,-50.4248C165.995,-51.9643 177.219,-53.5362 187.992,-55.0451"/>
<polygon fill="midnightblue" stroke="midnightblue" points="155.381,-46.9437 144.992,-49.0227 154.41,-53.876 155.381,-46.9437"/>
</g>
<!-- Node3 -->
<g id="node3" class="node"><title>Node3</title>
<g id="a_node3"><a xlink:href="../../d9/d37/classnars_1_1storage_1_1Bag_aa47288dac94f3473bcb77afe929c0fc4.html#aa47288dac94f3473bcb77afe929c0fc4" target="_top" xlink:title="Resume display. ">
<polygon fill="none" stroke="black" points="188,-0.5 188,-30.5 325,-30.5 325,-0.5 188,-0.5"/>
<text text-anchor="start" x="196" y="-18.5" font-family="Helvetica,sans-Serif" font-size="10.00">nars.storage.Bag&lt; Concept</text>
<text text-anchor="middle" x="256.5" y="-7.5" font-family="Helvetica,sans-Serif" font-size="10.00"> &gt;::play</text>
</a>
</g>
</g>
<!-- Node1&#45;&gt;Node3 -->
<g id="edge2" class="edge"><title>Node1&#45;&gt;Node3</title>
<path fill="none" stroke="midnightblue" d="M157.819,-28.6335C167.902,-27.2779 178.13,-25.9027 187.981,-24.5782"/>
<polygon fill="midnightblue" stroke="midnightblue" points="157.249,-25.1787 147.804,-29.9801 158.182,-32.1162 157.249,-25.1787"/>
</g>
</g>
</svg>
