<?xml version="1.0" encoding="UTF-8" standalone="no"?>
<!DOCTYPE svg PUBLIC "-//W3C//DTD SVG 1.1//EN"
 "http://www.w3.org/Graphics/SVG/1.1/DTD/svg11.dtd">
<!-- Generated by graphviz version 2.38.0 (20140413.2041)
 -->
<!-- Title: nars.storage.BagObserver.setBag Pages: 1 -->
<svg width="360pt" height="88pt"
 viewBox="0.00 0.00 360.00 88.00" xmlns="http://www.w3.org/2000/svg" xmlns:xlink="http://www.w3.org/1999/xlink">
<g id="graph0" class="graph" transform="scale(1 1) rotate(0) translate(4 84)">
<title>nars.storage.BagObserver.setBag</title>
<!-- Node1 -->
<g id="node1" class="node"><title>Node1</title>
<polygon fill="#bfbfbf" stroke="black" points="0,-30 0,-49 164,-49 164,-30 0,-30"/>
<text text-anchor="middle" x="82" y="-37" font-family="Helvetica,sans-Serif" font-size="10.00">nars.storage.BagObserver.setBag</text>
</g>
<!-- Node2 -->
<g id="node2" class="node"><title>Node2</title>
<g id="a_node2"><a xlink:href="../../d8/df4/classnars_1_1storage_1_1Memory_a46268d511b467d42cd9ff1b2696ebbd7.html#a46268d511b467d42cd9ff1b2696ebbd7" target="_top" xlink:title="Display active concepts, called from MainWindow. ">
<polygon fill="none" stroke="black" points="200,-49.5 200,-79.5 352,-79.5 352,-49.5 200,-49.5"/>
<text text-anchor="start" x="208" y="-67.5" font-family="Helvetica,sans-Serif" font-size="10.00">nars.storage.Memory.concepts</text>
<text text-anchor="middle" x="276" y="-56.5" font-family="Helvetica,sans-Serif" font-size="10.00">StartPlay</text>
</a>
</g>
</g>
<!-- Node1&#45;&gt;Node2 -->
<g id="edge1" class="edge"><title>Node1&#45;&gt;Node2</title>
<path fill="none" stroke="midnightblue" d="M166.295,-50.3457C177.449,-51.798 188.836,-53.2807 199.839,-54.7134"/>
<polygon fill="midnightblue" stroke="midnightblue" points="166.503,-46.8433 156.135,-49.0227 165.599,-53.7847 166.503,-46.8433"/>
</g>
<!-- Node3 -->
<g id="node3" class="node"><title>Node3</title>
<g id="a_node3"><a xlink:href="../../d8/df4/classnars_1_1storage_1_1Memory_a8a2bb1cc322626bc711f1233e4fd281b.html#a8a2bb1cc322626bc711f1233e4fd281b" target="_top" xlink:title="Display new tasks, called from MainWindow. ">
<polygon fill="none" stroke="black" points="210.5,-0.5 210.5,-30.5 341.5,-30.5 341.5,-0.5 210.5,-0.5"/>
<text text-anchor="start" x="218.5" y="-18.5" font-family="Helvetica,sans-Serif" font-size="10.00">nars.storage.Memory.task</text>
<text text-anchor="middle" x="276" y="-7.5" font-family="Helvetica,sans-Serif" font-size="10.00">BuffersStartPlay</text>
</a>
</g>
</g>
<!-- Node1&#45;&gt;Node3 -->
<g id="edge2" class="edge"><title>Node1&#45;&gt;Node3</title>
<path fill="none" stroke="midnightblue" d="M169.18,-28.7276C183.031,-26.9962 197.157,-25.2304 210.39,-23.5763"/>
<polygon fill="midnightblue" stroke="midnightblue" points="168.648,-25.2667 159.159,-29.9801 169.516,-32.2126 168.648,-25.2667"/>
</g>
</g>
</svg>
