<?xml version="1.0" encoding="UTF-8" standalone="no"?>
<!DOCTYPE svg PUBLIC "-//W3C//DTD SVG 1.1//EN"
 "http://www.w3.org/Graphics/SVG/1.1/DTD/svg11.dtd">
<!-- Generated by graphviz version 2.38.0 (20140413.2041)
 -->
<!-- Title: nars.language.Term.isConstant Pages: 1 -->
<!--zoomable 241 -->
<svg id="main" version="1.1" xmlns="http://www.w3.org/2000/svg" xmlns:xlink="http://www.w3.org/1999/xlink" xml:space="preserve" onload="init(evt)">
<style type="text/css"><![CDATA[
.edge:hover path { stroke: red; }
.edge:hover polygon { stroke: red; fill: red; }
]]></style>
<script type="text/javascript"><![CDATA[
var edges = document.getElementsByTagName('g');
if (edges && edges.length) {
  for (var i=0;i<edges.length;i++) {
    if (edges[i].id.substr(0,4)=='edge') {
      edges[i].setAttribute('class','edge');
    }
  }
}
]]></script>
        <defs>
                <circle id="rim" cx="0" cy="0" r="7"/>
                <circle id="rim2" cx="0" cy="0" r="3.5"/>
                <g id="zoomPlus">
                        <use xlink:href="#rim" fill="#404040">
                                <set attributeName="fill" to="#808080" begin="zoomplus.mouseover" end="zoomplus.mouseout"/>
                        </use>
                        <path d="M-4,0h8M0,-4v8" fill="none" stroke="white" stroke-width="1.5" pointer-events="none"/>
                </g>
                <g id="zoomMin">
                        <use xlink:href="#rim" fill="#404040">
                                <set attributeName="fill" to="#808080" begin="zoomminus.mouseover" end="zoomminus.mouseout"/>
                        </use>
                        <path d="M-4,0h8" fill="none" stroke="white" stroke-width="1.5" pointer-events="none"/>
                </g>
                <g id="dirArrow">
                        <path fill="none" stroke="white" stroke-width="1.5" d="M0,-3.0v7 M-2.5,-0.5L0,-3.0L2.5,-0.5"/>
                </g>
               <g id="resetDef">
                       <use xlink:href="#rim2" fill="#404040">
                               <set attributeName="fill" to="#808080" begin="reset.mouseover" end="reset.mouseout"/>
                       </use>
               </g>
        </defs>

<script type="text/javascript">
var viewWidth = 2598;
var viewHeight = 241;
var sectionId = 'dynsection-0';
</script>
<script xlink:href="../../svgpan.js"/>
<svg id="graph" class="graph">
<g id="viewport">
<title>nars.language.Term.isConstant</title>
<!-- Node1 -->
<g id="node1" class="node"><title>Node1</title>
<polygon fill="#bfbfbf" stroke="black" points="0,-79 0,-98 153,-98 153,-79 0,-79"/>
<text text-anchor="middle" x="76.5" y="-86" font-family="Helvetica,sans-Serif" font-size="10.00">nars.language.Term.isConstant</text>
</g>
<!-- Node2 -->
<g id="node2" class="node"><title>Node2</title>
<g id="a_node2"><a xlink:href="../../da/de3/classnars_1_1inference_1_1RuleTables_a3e3eec10853be6dcf8c7532259cf4a84.html#a3e3eec10853be6dcf8c7532259cf4a84" target="_top" xlink:title="The detachment rule, with variable unification. ">
<polygon fill="none" stroke="black" points="189,-98.5 189,-128.5 374,-128.5 374,-98.5 189,-98.5"/>
<text text-anchor="start" x="197" y="-116.5" font-family="Helvetica,sans-Serif" font-size="10.00">nars.inference.RuleTables.detachment</text>
<text text-anchor="middle" x="281.5" y="-105.5" font-family="Helvetica,sans-Serif" font-size="10.00">WithVar</text>
</a>
</g>
</g>
<!-- Node1&#45;&gt;Node2 -->
<g id="edge1" class="edge"><title>Node1&#45;&gt;Node2</title>
<path fill="none" stroke="midnightblue" d="M163.264,-99.0621C171.678,-100.098 180.24,-101.153 188.711,-102.196"/>
<polygon fill="midnightblue" stroke="midnightblue" points="163.443,-95.5577 153.09,-97.8091 162.587,-102.505 163.443,-95.5577"/>
</g>
<!-- Node13 -->
<g id="node13" class="node"><title>Node13</title>
<g id="a_node13"><a xlink:href="../../d8/df4/classnars_1_1storage_1_1Memory_a3f45cdc40973611106276cfbc27a7a7a.html#a3f45cdc40973611106276cfbc27a7a7a" target="_top" xlink:title="Get the Concept associated to a Term, or create it. ">
<polygon fill="none" stroke="black" points="200.5,-155 200.5,-174 362.5,-174 362.5,-155 200.5,-155"/>
<text text-anchor="middle" x="281.5" y="-162" font-family="Helvetica,sans-Serif" font-size="10.00">nars.storage.Memory.getConcept</text>
</a>
</g>
</g>
<!-- Node1&#45;&gt;Node13 -->
<g id="edge12" class="edge"><title>Node1&#45;&gt;Node13</title>
<path fill="none" stroke="midnightblue" d="M106.556,-102.485C128.817,-112.901 160.457,-127.065 189,-137.5 206.889,-144.04 227.17,-150.153 244.085,-154.902"/>
<polygon fill="midnightblue" stroke="midnightblue" points="107.867,-99.234 97.3292,-98.1317 104.879,-105.565 107.867,-99.234"/>
</g>
<!-- Node20 -->
<g id="node20" class="node"><title>Node20</title>
<g id="a_node20"><a xlink:href="../../d0/dee/classnars_1_1language_1_1CompoundTerm_a43cdaac00db9c962696e13abd3e4a4c4.html#a43cdaac00db9c962696e13abd3e4a4c4" target="_top" xlink:title="Collect TermLink templates into a list, go down one level except in special cases. ">
<polygon fill="none" stroke="black" points="189,-49.5 189,-79.5 374,-79.5 374,-49.5 189,-49.5"/>
<text text-anchor="start" x="197" y="-67.5" font-family="Helvetica,sans-Serif" font-size="10.00">nars.language.CompoundTerm.prepare</text>
<text text-anchor="middle" x="281.5" y="-56.5" font-family="Helvetica,sans-Serif" font-size="10.00">ComponentLinks</text>
</a>
</g>
</g>
<!-- Node1&#45;&gt;Node20 -->
<g id="edge24" class="edge"><title>Node1&#45;&gt;Node20</title>
<path fill="none" stroke="midnightblue" d="M163.264,-78.3604C171.678,-77.3656 180.24,-76.3534 188.711,-75.3518"/>
<polygon fill="midnightblue" stroke="midnightblue" points="162.61,-74.9133 153.09,-79.5633 163.432,-81.8649 162.61,-74.9133"/>
</g>
<!-- Node21 -->
<g id="node21" class="node"><title>Node21</title>
<g id="a_node21"><a xlink:href="../../db/d49/classnars_1_1inference_1_1StructuralRules_aa98f40a1f1409b81531260124ebd13db.html#aa98f40a1f1409b81531260124ebd13db" target="_top" xlink:title="{(&amp;&amp;, A, B), A@(&amp;&amp;, A, B)} |&#45; A {(||, A, B), A@(||, A, B)} |&#45; A ">
<polygon fill="none" stroke="black" points="215,-0.5 215,-30.5 348,-30.5 348,-0.5 215,-0.5"/>
<text text-anchor="start" x="223" y="-18.5" font-family="Helvetica,sans-Serif" font-size="10.00">nars.inference.Structural</text>
<text text-anchor="middle" x="281.5" y="-7.5" font-family="Helvetica,sans-Serif" font-size="10.00">Rules.structuralCompound</text>
</a>
</g>
</g>
<!-- Node1&#45;&gt;Node21 -->
<g id="edge25" class="edge"><title>Node1&#45;&gt;Node21</title>
<path fill="none" stroke="midnightblue" d="M106.063,-74.4547C128.297,-63.8893 160.127,-49.5604 189,-39.5 198.15,-36.3118 207.942,-33.3184 217.595,-30.5993"/>
<polygon fill="midnightblue" stroke="midnightblue" points="104.363,-71.3884 96.8633,-78.8719 107.393,-77.6987 104.363,-71.3884"/>
</g>
<!-- Node3 -->
<g id="node3" class="node"><title>Node3</title>
<g id="a_node3"><a xlink:href="../../da/de3/classnars_1_1inference_1_1RuleTables_a8628d400a8ceda7fea05039ddfea319b.html#a8628d400a8ceda7fea05039ddfea319b" target="_top" xlink:title="Meta&#45;table of syllogistic rules, indexed by the content classes of the taskSentence and the belief...">
<polygon fill="none" stroke="black" points="625,-87 625,-106 805,-106 805,-87 625,-87"/>
<text text-anchor="middle" x="715" y="-94" font-family="Helvetica,sans-Serif" font-size="10.00">nars.inference.RuleTables.syllogisms</text>
</a>
</g>
</g>
<!-- Node2&#45;&gt;Node3 -->
<g id="edge2" class="edge"><title>Node2&#45;&gt;Node3</title>
<path fill="none" stroke="midnightblue" d="M384.152,-109.495C457.219,-106.617 554.798,-102.772 624.838,-100.013"/>
<polygon fill="midnightblue" stroke="midnightblue" points="383.864,-106.004 374.01,-109.895 384.14,-112.998 383.864,-106.004"/>
</g>
<!-- Node4 -->
<g id="node4" class="node"><title>Node4</title>
<g id="a_node4"><a xlink:href="../../da/de3/classnars_1_1inference_1_1RuleTables_ac2d01dfdc40bdd47c757cb549217e6e3.html#ac2d01dfdc40bdd47c757cb549217e6e3" target="_top" xlink:title="Entry point of the inference engine. ">
<polygon fill="none" stroke="black" points="841,-43 841,-62 1004,-62 1004,-43 841,-43"/>
<text text-anchor="middle" x="922.5" y="-50" font-family="Helvetica,sans-Serif" font-size="10.00">nars.inference.RuleTables.reason</text>
</a>
</g>
</g>
<!-- Node3&#45;&gt;Node4 -->
<g id="edge3" class="edge"><title>Node3&#45;&gt;Node4</title>
<path fill="none" stroke="midnightblue" d="M770.607,-84.808C803.849,-77.6904 845.779,-68.7128 876.997,-62.0287"/>
<polygon fill="midnightblue" stroke="midnightblue" points="769.636,-81.4365 760.59,-86.9527 771.102,-88.2813 769.636,-81.4365"/>
</g>
<!-- Node5 -->
<g id="node5" class="node"><title>Node5</title>
<g id="a_node5"><a xlink:href="../../d4/d22/classnars_1_1entity_1_1Concept_ae07576c8466ad65eeb61040e3f71cfc7.html#ae07576c8466ad65eeb61040e3f71cfc7" target="_top" xlink:title="An atomic step in a concept, only called in Memory# processConcept. ">
<polygon fill="none" stroke="black" points="1059,-43 1059,-62 1178,-62 1178,-43 1059,-43"/>
<text text-anchor="middle" x="1118.5" y="-50" font-family="Helvetica,sans-Serif" font-size="10.00">nars.entity.Concept.fire</text>
</a>
</g>
</g>
<!-- Node4&#45;&gt;Node5 -->
<g id="edge4" class="edge"><title>Node4&#45;&gt;Node5</title>
<path fill="none" stroke="midnightblue" d="M1014.46,-52.5C1029.52,-52.5 1044.76,-52.5 1058.75,-52.5"/>
<polygon fill="midnightblue" stroke="midnightblue" points="1014.09,-49.0001 1004.09,-52.5 1014.09,-56.0001 1014.09,-49.0001"/>
</g>
<!-- Node6 -->
<g id="node6" class="node"><title>Node6</title>
<g id="a_node6"><a xlink:href="../../d8/df4/classnars_1_1storage_1_1Memory_a83154b55b922c82b73931d4f22e3a590.html#a83154b55b922c82b73931d4f22e3a590" target="_top" xlink:title="Select a concept to fire. ">
<polygon fill="none" stroke="black" points="1233,-37.5 1233,-67.5 1379,-67.5 1379,-37.5 1233,-37.5"/>
<text text-anchor="start" x="1241" y="-55.5" font-family="Helvetica,sans-Serif" font-size="10.00">nars.storage.Memory.process</text>
<text text-anchor="middle" x="1306" y="-44.5" font-family="Helvetica,sans-Serif" font-size="10.00">Concept</text>
</a>
</g>
</g>
<!-- Node5&#45;&gt;Node6 -->
<g id="edge5" class="edge"><title>Node5&#45;&gt;Node6</title>
<path fill="none" stroke="midnightblue" d="M1188.52,-52.5C1202.93,-52.5 1218.16,-52.5 1232.68,-52.5"/>
<polygon fill="midnightblue" stroke="midnightblue" points="1188.19,-49.0001 1178.19,-52.5 1188.19,-56.0001 1188.19,-49.0001"/>
</g>
<!-- Node7 -->
<g id="node7" class="node"><title>Node7</title>
<g id="a_node7"><a xlink:href="../../d8/df4/classnars_1_1storage_1_1Memory_a49e2cbc8b78d535f4d69739886ee966a.html#a49e2cbc8b78d535f4d69739886ee966a" target="_top" xlink:title="An atomic working workCycle of the system: process new Tasks, then fire a concept. ">
<polygon fill="none" stroke="black" points="1415,-86.5 1415,-116.5 1548,-116.5 1548,-86.5 1415,-86.5"/>
<text text-anchor="start" x="1423" y="-104.5" font-family="Helvetica,sans-Serif" font-size="10.00">nars.storage.Memory.work</text>
<text text-anchor="middle" x="1481.5" y="-93.5" font-family="Helvetica,sans-Serif" font-size="10.00">Cycle</text>
</a>
</g>
</g>
<!-- Node6&#45;&gt;Node7 -->
<g id="edge6" class="edge"><title>Node6&#45;&gt;Node7</title>
<path fill="none" stroke="midnightblue" d="M1370.1,-70.3212C1388.83,-75.6118 1409.16,-81.3522 1427.21,-86.4484"/>
<polygon fill="midnightblue" stroke="midnightblue" points="1371.05,-66.9512 1360.47,-67.6014 1369.14,-73.6877 1371.05,-66.9512"/>
</g>
<!-- Node8 -->
<g id="node8" class="node"><title>Node8</title>
<g id="a_node8"><a xlink:href="../../dd/da5/classnars_1_1storage_1_1Memory_1_1ReasonerBatch_acc60dec23da774957a85362ed6d7448b.html#acc60dec23da774957a85362ed6d7448b" target="_top" xlink:title="nars.storage.Memory.Reasoner\lBatch.doTick">
<polygon fill="none" stroke="black" points="1584,-86.5 1584,-116.5 1738,-116.5 1738,-86.5 1584,-86.5"/>
<text text-anchor="start" x="1592" y="-104.5" font-family="Helvetica,sans-Serif" font-size="10.00">nars.storage.Memory.Reasoner</text>
<text text-anchor="middle" x="1661" y="-93.5" font-family="Helvetica,sans-Serif" font-size="10.00">Batch.doTick</text>
</a>
</g>
</g>
<!-- Node7&#45;&gt;Node8 -->
<g id="edge7" class="edge"><title>Node7&#45;&gt;Node8</title>
<path fill="none" stroke="midnightblue" d="M1558.32,-101.5C1566.79,-101.5 1575.41,-101.5 1583.89,-101.5"/>
<polygon fill="midnightblue" stroke="midnightblue" points="1558.09,-98.0001 1548.09,-101.5 1558.09,-105 1558.09,-98.0001"/>
</g>
<!-- Node9 -->
<g id="node9" class="node"><title>Node9</title>
<g id="a_node9"><a xlink:href="../../dd/da5/classnars_1_1storage_1_1Memory_1_1ReasonerBatch_aed591f05899b98fd9e4ad01836ad0a40.html#aed591f05899b98fd9e4ad01836ad0a40" target="_top" xlink:title="A clock tick. ">
<polygon fill="none" stroke="black" points="1774,-86.5 1774,-116.5 1928,-116.5 1928,-86.5 1774,-86.5"/>
<text text-anchor="start" x="1782" y="-104.5" font-family="Helvetica,sans-Serif" font-size="10.00">nars.storage.Memory.Reasoner</text>
<text text-anchor="middle" x="1851" y="-93.5" font-family="Helvetica,sans-Serif" font-size="10.00">Batch.tick</text>
</a>
</g>
</g>
<!-- Node8&#45;&gt;Node9 -->
<g id="edge8" class="edge"><title>Node8&#45;&gt;Node9</title>
<path fill="none" stroke="midnightblue" d="M1748.42,-101.5C1756.86,-101.5 1765.37,-101.5 1773.7,-101.5"/>
<polygon fill="midnightblue" stroke="midnightblue" points="1748.2,-98.0001 1738.2,-101.5 1748.2,-105 1748.2,-98.0001"/>
</g>
<!-- Node10 -->
<g id="node10" class="node"><title>Node10</title>
<g id="a_node10"><a xlink:href="../../d4/d88/classnars_1_1storage_1_1Memory_1_1NARSBatch_aad99db6cedde9cff2a997db8906ff821.html#aad99db6cedde9cff2a997db8906ff821" target="_top" xlink:title="Run to completion: repeatedly execute NARS working cycle, until Inputs are Finished, or 1000 steps. ">
<polygon fill="none" stroke="black" points="1964,-92 1964,-111 2146,-111 2146,-92 1964,-92"/>
<text text-anchor="middle" x="2055" y="-99" font-family="Helvetica,sans-Serif" font-size="10.00">nars.storage.Memory.NARSBatch.run</text>
</a>
</g>
</g>
<!-- Node9&#45;&gt;Node10 -->
<g id="edge9" class="edge"><title>Node9&#45;&gt;Node10</title>
<path fill="none" stroke="midnightblue" d="M1938.27,-101.5C1946.69,-101.5 1955.25,-101.5 1963.71,-101.5"/>
<polygon fill="midnightblue" stroke="midnightblue" points="1938.08,-98.0001 1928.08,-101.5 1938.08,-105 1938.08,-98.0001"/>
</g>
<!-- Node11 -->
<g id="node11" class="node"><title>Node11</title>
<g id="a_node11"><a xlink:href="../../d4/d88/classnars_1_1storage_1_1Memory_1_1NARSBatch_a416c39463faa161661ed1d12fea03b3c.html#a416c39463faa161661ed1d12fea03b3c" target="_top" xlink:title="non&#45;static equivalent to main(String[]) : run to completion from an input file ">
<polygon fill="none" stroke="black" points="2182,-86.5 2182,-116.5 2364,-116.5 2364,-86.5 2182,-86.5"/>
<text text-anchor="start" x="2190" y="-104.5" font-family="Helvetica,sans-Serif" font-size="10.00">nars.storage.Memory.NARSBatch.run</text>
<text text-anchor="middle" x="2273" y="-93.5" font-family="Helvetica,sans-Serif" font-size="10.00">Inference</text>
</a>
</g>
</g>
<!-- Node10&#45;&gt;Node11 -->
<g id="edge10" class="edge"><title>Node10&#45;&gt;Node11</title>
<path fill="none" stroke="midnightblue" d="M2156.06,-101.5C2164.63,-101.5 2173.27,-101.5 2181.76,-101.5"/>
<polygon fill="midnightblue" stroke="midnightblue" points="2156.04,-98.0001 2146.04,-101.5 2156.04,-105 2156.04,-98.0001"/>
</g>
<!-- Node12 -->
<g id="node12" class="node"><title>Node12</title>
<g id="a_node12"><a xlink:href="../../d4/d88/classnars_1_1storage_1_1Memory_1_1NARSBatch_aa97fcd68270583e60e6bf1b4579d1bdc.html#aa97fcd68270583e60e6bf1b4579d1bdc" target="_top" xlink:title="The entry point of the standalone application. ">
<polygon fill="none" stroke="black" points="2400,-92 2400,-111 2590,-111 2590,-92 2400,-92"/>
<text text-anchor="middle" x="2495" y="-99" font-family="Helvetica,sans-Serif" font-size="10.00">nars.storage.Memory.NARSBatch.main</text>
</a>
</g>
</g>
<!-- Node11&#45;&gt;Node12 -->
<g id="edge11" class="edge"><title>Node11&#45;&gt;Node12</title>
<path fill="none" stroke="midnightblue" d="M2374.37,-101.5C2382.82,-101.5 2391.34,-101.5 2399.74,-101.5"/>
<polygon fill="midnightblue" stroke="midnightblue" points="2374.12,-98.0001 2364.12,-101.5 2374.12,-105 2374.12,-98.0001"/>
</g>
<!-- Node14 -->
<g id="node14" class="node"><title>Node14</title>
<g id="a_node14"><a xlink:href="../../d4/d22/classnars_1_1entity_1_1Concept_a501121a11fc046eea4b69720cb622d84.html#a501121a11fc046eea4b69720cb622d84" target="_top" xlink:title="Link to a new task from all relevant concepts for continued processing in the near future for unspeci...">
<polygon fill="none" stroke="black" points="655,-163.5 655,-193.5 775,-193.5 775,-163.5 655,-163.5"/>
<text text-anchor="start" x="663" y="-181.5" font-family="Helvetica,sans-Serif" font-size="10.00">nars.entity.Concept.link</text>
<text text-anchor="middle" x="715" y="-170.5" font-family="Helvetica,sans-Serif" font-size="10.00">ToTask</text>
</a>
</g>
</g>
<!-- Node13&#45;&gt;Node14 -->
<g id="edge13" class="edge"><title>Node13&#45;&gt;Node14</title>
<path fill="none" stroke="midnightblue" d="M307.018,-179.223C331.937,-193.262 372.152,-213.425 410,-221.5 487.804,-238.1 510.534,-234.619 589,-221.5 620.916,-216.164 655.594,-203.661 680.31,-193.505"/>
<polygon fill="midnightblue" stroke="midnightblue" points="308.667,-176.134 298.254,-174.18 305.176,-182.201 308.667,-176.134"/>
</g>
<!-- Node16 -->
<g id="node16" class="node"><title>Node16</title>
<g id="a_node16"><a xlink:href="../../d8/df4/classnars_1_1storage_1_1Memory_a175200c1f4c182222d0e66439b6e53a0.html#a175200c1f4c182222d0e66439b6e53a0" target="_top" xlink:title="Immediate processing of a new task, in constant time Local processing, in one concept only...">
<polygon fill="none" stroke="black" points="1040,-127.5 1040,-157.5 1197,-157.5 1197,-127.5 1040,-127.5"/>
<text text-anchor="start" x="1048" y="-145.5" font-family="Helvetica,sans-Serif" font-size="10.00">nars.storage.Memory.immediate</text>
<text text-anchor="middle" x="1118.5" y="-134.5" font-family="Helvetica,sans-Serif" font-size="10.00">Process</text>
</a>
</g>
</g>
<!-- Node13&#45;&gt;Node16 -->
<g id="edge23" class="edge"><title>Node13&#45;&gt;Node16</title>
<path fill="none" stroke="midnightblue" d="M372.686,-155.923C385.21,-154.965 397.919,-154.114 410,-153.5 638.81,-141.866 909.732,-141.345 1039.97,-141.92"/>
<polygon fill="midnightblue" stroke="midnightblue" points="372.391,-152.436 362.697,-156.713 372.942,-159.414 372.391,-152.436"/>
</g>
<!-- Node19 -->
<g id="node19" class="node"><title>Node19</title>
<g id="a_node19"><a xlink:href="../../d4/d22/classnars_1_1entity_1_1Concept_a3f3f026223e459e041fbdd8c0f49f7c6.html#a3f3f026223e459e041fbdd8c0f49f7c6" target="_top" xlink:title="Recursively build TermLinks between a compound and its components. ">
<polygon fill="none" stroke="black" points="437,-163.5 437,-193.5 562,-193.5 562,-163.5 437,-163.5"/>
<text text-anchor="start" x="445" y="-181.5" font-family="Helvetica,sans-Serif" font-size="10.00">nars.entity.Concept.build</text>
<text text-anchor="middle" x="499.5" y="-170.5" font-family="Helvetica,sans-Serif" font-size="10.00">TermLinks</text>
</a>
</g>
</g>
<!-- Node13&#45;&gt;Node19 -->
<g id="edge20" class="edge"><title>Node13&#45;&gt;Node19</title>
<path fill="none" stroke="midnightblue" d="M372.77,-170.351C394.31,-171.747 416.816,-173.206 436.736,-174.497"/>
<polygon fill="midnightblue" stroke="midnightblue" points="372.829,-166.847 362.623,-169.693 372.376,-173.833 372.829,-166.847"/>
</g>
<!-- Node15 -->
<g id="node15" class="node"><title>Node15</title>
<g id="a_node15"><a xlink:href="../../d4/d22/classnars_1_1entity_1_1Concept_a9ea7c3154932d7a736c105eb55daeb5c.html#a9ea7c3154932d7a736c105eb55daeb5c" target="_top" xlink:title="Directly process a new task. ">
<polygon fill="none" stroke="black" points="858,-163.5 858,-193.5 987,-193.5 987,-163.5 858,-163.5"/>
<text text-anchor="start" x="866" y="-181.5" font-family="Helvetica,sans-Serif" font-size="10.00">nars.entity.Concept.direct</text>
<text text-anchor="middle" x="922.5" y="-170.5" font-family="Helvetica,sans-Serif" font-size="10.00">Process</text>
</a>
</g>
</g>
<!-- Node14&#45;&gt;Node15 -->
<g id="edge14" class="edge"><title>Node14&#45;&gt;Node15</title>
<path fill="none" stroke="midnightblue" d="M785.366,-178.5C808.774,-178.5 834.775,-178.5 857.729,-178.5"/>
<polygon fill="midnightblue" stroke="midnightblue" points="785.163,-175 775.163,-178.5 785.163,-182 785.163,-175"/>
</g>
<!-- Node15&#45;&gt;Node16 -->
<g id="edge15" class="edge"><title>Node15&#45;&gt;Node16</title>
<path fill="none" stroke="midnightblue" d="M997.088,-164.844C1011.1,-162.243 1025.81,-159.514 1039.95,-156.891"/>
<polygon fill="midnightblue" stroke="midnightblue" points="996.216,-161.446 987.023,-166.712 997.494,-168.329 996.216,-161.446"/>
</g>
<!-- Node17 -->
<g id="node17" class="node"><title>Node17</title>
<g id="a_node17"><a xlink:href="../../d8/df4/classnars_1_1storage_1_1Memory_a105e44a3504921cc1036eb979b85d9f0.html#a105e44a3504921cc1036eb979b85d9f0" target="_top" xlink:title="Process the newTasks accumulated in the previous workCycle, accept input ones and those that correspo...">
<polygon fill="none" stroke="black" points="1233,-86.5 1233,-116.5 1379,-116.5 1379,-86.5 1233,-86.5"/>
<text text-anchor="start" x="1241" y="-104.5" font-family="Helvetica,sans-Serif" font-size="10.00">nars.storage.Memory.process</text>
<text text-anchor="middle" x="1306" y="-93.5" font-family="Helvetica,sans-Serif" font-size="10.00">NewTask</text>
</a>
</g>
</g>
<!-- Node16&#45;&gt;Node17 -->
<g id="edge16" class="edge"><title>Node16&#45;&gt;Node17</title>
<path fill="none" stroke="midnightblue" d="M1197.46,-125.268C1210.6,-122.365 1224.13,-119.373 1236.99,-116.532"/>
<polygon fill="midnightblue" stroke="midnightblue" points="1196.53,-121.89 1187.52,-127.466 1198.04,-128.725 1196.53,-121.89"/>
</g>
<!-- Node18 -->
<g id="node18" class="node"><title>Node18</title>
<g id="a_node18"><a xlink:href="../../d8/df4/classnars_1_1storage_1_1Memory_afe3b4d1bb5fab652ceca53c04773af73.html#afe3b4d1bb5fab652ceca53c04773af73" target="_top" xlink:title="Select a novel task to process. ">
<polygon fill="none" stroke="black" points="1233,-135.5 1233,-165.5 1379,-165.5 1379,-135.5 1233,-135.5"/>
<text text-anchor="start" x="1241" y="-153.5" font-family="Helvetica,sans-Serif" font-size="10.00">nars.storage.Memory.process</text>
<text text-anchor="middle" x="1306" y="-142.5" font-family="Helvetica,sans-Serif" font-size="10.00">NovelTask</text>
</a>
</g>
</g>
<!-- Node16&#45;&gt;Node18 -->
<g id="edge18" class="edge"><title>Node16&#45;&gt;Node18</title>
<path fill="none" stroke="midnightblue" d="M1207.12,-146.279C1215.71,-146.649 1224.35,-147.022 1232.75,-147.384"/>
<polygon fill="midnightblue" stroke="midnightblue" points="1207.24,-142.781 1197.09,-145.846 1206.93,-149.774 1207.24,-142.781"/>
</g>
<!-- Node17&#45;&gt;Node7 -->
<g id="edge17" class="edge"><title>Node17&#45;&gt;Node7</title>
<path fill="none" stroke="midnightblue" d="M1389.12,-101.5C1397.72,-101.5 1406.37,-101.5 1414.76,-101.5"/>
<polygon fill="midnightblue" stroke="midnightblue" points="1389.07,-98.0001 1379.07,-101.5 1389.07,-105 1389.07,-98.0001"/>
</g>
<!-- Node18&#45;&gt;Node7 -->
<g id="edge19" class="edge"><title>Node18&#45;&gt;Node7</title>
<path fill="none" stroke="midnightblue" d="M1370.1,-132.679C1388.83,-127.388 1409.16,-121.648 1427.21,-116.552"/>
<polygon fill="midnightblue" stroke="midnightblue" points="1369.14,-129.312 1360.47,-135.399 1371.05,-136.049 1369.14,-129.312"/>
</g>
<!-- Node19&#45;&gt;Node14 -->
<g id="edge22" class="edge"><title>Node19&#45;&gt;Node14</title>
<path fill="none" stroke="midnightblue" d="M572.367,-178.5C599.223,-178.5 629.388,-178.5 654.956,-178.5"/>
<polygon fill="midnightblue" stroke="midnightblue" points="572.253,-175 562.253,-178.5 572.253,-182 572.253,-175"/>
</g>
<!-- Node19&#45;&gt;Node19 -->
<g id="edge21" class="edge"><title>Node19&#45;&gt;Node19</title>
<path fill="none" stroke="midnightblue" d="M461.475,-203.958C466.194,-208.679 478.869,-212 499.5,-212 533.355,-212 545.787,-203.057 536.794,-193.659"/>
<polygon fill="midnightblue" stroke="midnightblue" points="464.989,-203.882 462.206,-193.659 458.006,-203.386 464.989,-203.882"/>
</g>
<!-- Node22 -->
<g id="node22" class="node"><title>Node22</title>
<g id="a_node22"><a xlink:href="../../da/de3/classnars_1_1inference_1_1RuleTables_a00ffbf7a9069cfd135acae4b46d78d05.html#a00ffbf7a9069cfd135acae4b46d78d05" target="_top" xlink:title="Inference between a compound term and a component of it. ">
<polygon fill="none" stroke="black" points="410,-0.5 410,-30.5 589,-30.5 589,-0.5 410,-0.5"/>
<text text-anchor="start" x="418" y="-18.5" font-family="Helvetica,sans-Serif" font-size="10.00">nars.inference.RuleTables.compound</text>
<text text-anchor="middle" x="499.5" y="-7.5" font-family="Helvetica,sans-Serif" font-size="10.00">AndSelf</text>
</a>
</g>
</g>
<!-- Node21&#45;&gt;Node22 -->
<g id="edge26" class="edge"><title>Node21&#45;&gt;Node22</title>
<path fill="none" stroke="midnightblue" d="M358.346,-15.5C374.918,-15.5 392.601,-15.5 409.629,-15.5"/>
<polygon fill="midnightblue" stroke="midnightblue" points="358.187,-12.0001 348.187,-15.5 358.187,-19.0001 358.187,-12.0001"/>
</g>
<!-- Node22&#45;&gt;Node4 -->
<g id="edge29" class="edge"><title>Node22&#45;&gt;Node4</title>
<path fill="none" stroke="midnightblue" d="M599.292,-15.1043C659.048,-15.9288 736.649,-18.8844 805,-27.5 832.091,-30.9148 862.218,-37.4548 885.048,-42.9893"/>
<polygon fill="midnightblue" stroke="midnightblue" points="599.147,-11.6024 589.106,-14.982 599.063,-18.6019 599.147,-11.6024"/>
</g>
<!-- Node23 -->
<g id="node23" class="node"><title>Node23</title>
<g id="a_node23"><a xlink:href="../../da/de3/classnars_1_1inference_1_1RuleTables_a764dbc9ccccf406df45e09fbfeda928f.html#a764dbc9ccccf406df45e09fbfeda928f" target="_top" xlink:title="Inference between two compound terms. ">
<polygon fill="none" stroke="black" points="625.5,-37.5 625.5,-67.5 804.5,-67.5 804.5,-37.5 625.5,-37.5"/>
<text text-anchor="start" x="633.5" y="-55.5" font-family="Helvetica,sans-Serif" font-size="10.00">nars.inference.RuleTables.compound</text>
<text text-anchor="middle" x="715" y="-44.5" font-family="Helvetica,sans-Serif" font-size="10.00">AndCompound</text>
</a>
</g>
</g>
<!-- Node22&#45;&gt;Node23 -->
<g id="edge27" class="edge"><title>Node22&#45;&gt;Node23</title>
<path fill="none" stroke="midnightblue" d="M597.275,-32.2713C607.263,-34.0023 617.369,-35.7536 627.238,-37.464"/>
<polygon fill="midnightblue" stroke="midnightblue" points="597.789,-28.8084 587.339,-30.5493 596.594,-35.7056 597.789,-28.8084"/>
</g>
<!-- Node23&#45;&gt;Node4 -->
<g id="edge28" class="edge"><title>Node23&#45;&gt;Node4</title>
<path fill="none" stroke="midnightblue" d="M814.863,-52.5C823.598,-52.5 832.37,-52.5 840.927,-52.5"/>
<polygon fill="midnightblue" stroke="midnightblue" points="814.642,-49.0001 804.642,-52.5 814.642,-56.0001 814.642,-49.0001"/>
</g>
</g>
</svg>
        <g id="navigator" transform="translate(0 0)" fill="#404254">
                <rect fill="#f2f5e9" fill-opacity="0.5" stroke="#606060" stroke-width=".5" x="0" y="0" width="60" height="60"/>
                <use id="zoomplus" xlink:href="#zoomPlus" x="17" y="9" onmousedown="handleZoom(evt,'in')"/>
                <use id="zoomminus" xlink:href="#zoomMin" x="42" y="9" onmousedown="handleZoom(evt,'out')"/>
                <use id="reset" xlink:href="#resetDef" x="30" y="36" onmousedown="handleReset()"/>
                <g id="arrowUp" xlink:href="#dirArrow" transform="translate(30 24)" onmousedown="handlePan(0,-1)">
                  <use xlink:href="#rim" fill="#404040">
                        <set attributeName="fill" to="#808080" begin="arrowUp.mouseover" end="arrowUp.mouseout"/>
                  </use>
                  <path fill="none" stroke="white" stroke-width="1.5" d="M0,-3.0v7 M-2.5,-0.5L0,-3.0L2.5,-0.5"/>
                </g>
                <g id="arrowRight" xlink:href="#dirArrow" transform="rotate(90) translate(36 -43)" onmousedown="handlePan(1,0)">
                  <use xlink:href="#rim" fill="#404040">
                        <set attributeName="fill" to="#808080" begin="arrowRight.mouseover" end="arrowRight.mouseout"/>
                  </use>
                  <path fill="none" stroke="white" stroke-width="1.5" d="M0,-3.0v7 M-2.5,-0.5L0,-3.0L2.5,-0.5"/>
                </g>
                <g id="arrowDown" xlink:href="#dirArrow" transform="rotate(180) translate(-30 -48)" onmousedown="handlePan(0,1)">
                  <use xlink:href="#rim" fill="#404040">
                        <set attributeName="fill" to="#808080" begin="arrowDown.mouseover" end="arrowDown.mouseout"/>
                  </use>
                  <path fill="none" stroke="white" stroke-width="1.5" d="M0,-3.0v7 M-2.5,-0.5L0,-3.0L2.5,-0.5"/>
                </g>
                <g id="arrowLeft" xlink:href="#dirArrow" transform="rotate(270) translate(-36 17)" onmousedown="handlePan(-1,0)">
                  <use xlink:href="#rim" fill="#404040">
                        <set attributeName="fill" to="#808080" begin="arrowLeft.mouseover" end="arrowLeft.mouseout"/>
                  </use>
                  <path fill="none" stroke="white" stroke-width="1.5" d="M0,-3.0v7 M-2.5,-0.5L0,-3.0L2.5,-0.5"/>
                </g>
        </g>
        <svg viewBox="0 0 15 15" width="100%" height="30px" preserveAspectRatio="xMaxYMin meet">
         <g id="arrow_out" transform="scale(0.3 0.3)">
          <a xlink:href="classnars_1_1language_1_1Term_a88297bdbbfb5f3e292783647b14f0c70_a88297bdbbfb5f3e292783647b14f0c70_icgraph_org.svg" target="_base">
           <rect id="button" ry="5" rx="5" y="6" x="6" height="38" width="38"
                fill="#f2f5e9" fill-opacity="0.5" stroke="#606060" stroke-width="1.0"/>
           <path id="arrow"
             d="M 11.500037,31.436501 C 11.940474,20.09759 22.043105,11.32322 32.158766,21.979434 L 37.068811,17.246167 C 37.068811,17.246167 37.088388,32 37.088388,32 L 22.160133,31.978069 C 22.160133,31.978069 26.997745,27.140456 26.997745,27.140456 C 18.528582,18.264221 13.291696,25.230495 11.500037,31.436501 z"
             style="fill:#404040;"/>
          </a>
         </g>
        </svg>
</svg>
