<?xml version="1.0" encoding="UTF-8" standalone="no"?>
<!DOCTYPE svg PUBLIC "-//W3C//DTD SVG 1.1//EN"
 "http://www.w3.org/Graphics/SVG/1.1/DTD/svg11.dtd">
<!-- Generated by graphviz version 2.38.0 (20140413.2041)
 -->
<!-- Title: nars.language.Term.clone Pages: 1 -->
<svg width="2780pt" height="530pt"
 viewBox="0.00 0.00 2780.00 530.31" xmlns="http://www.w3.org/2000/svg" xmlns:xlink="http://www.w3.org/1999/xlink">
<g id="graph0" class="graph" transform="scale(1 1) rotate(0) translate(4 526.312)">
<title>nars.language.Term.clone</title>
<!-- Node1 -->
<g id="node1" class="node"><title>Node1</title>
<polygon fill="#bfbfbf" stroke="black" points="0,-277.5 0,-296.5 129,-296.5 129,-277.5 0,-277.5"/>
<text text-anchor="middle" x="64.5" y="-284.5" font-family="Helvetica,sans-Serif" font-size="10.00">nars.language.Term.clone</text>
</g>
<!-- Node2 -->
<g id="node2" class="node"><title>Node2</title>
<g id="a_node2"><a xlink:href="../../d0/dee/classnars_1_1language_1_1CompoundTerm_a7899e3d2c69785eeb83f2b78bf474da6.html#a7899e3d2c69785eeb83f2b78bf474da6" target="_top" xlink:title="Recursively apply a substitute to the current CompoundTerm. ">
<polygon fill="none" stroke="black" points="165,-343 165,-373 341,-373 341,-343 165,-343"/>
<text text-anchor="start" x="173" y="-361" font-family="Helvetica,sans-Serif" font-size="10.00">nars.language.CompoundTerm.apply</text>
<text text-anchor="middle" x="253" y="-350" font-family="Helvetica,sans-Serif" font-size="10.00">Substitute</text>
</a>
</g>
</g>
<!-- Node1&#45;&gt;Node2 -->
<g id="edge1" class="edge"><title>Node1&#45;&gt;Node2</title>
<path fill="none" stroke="midnightblue" d="M99.9462,-300.177C119.099,-307.499 143.367,-316.766 165,-325 180.4,-330.861 197.339,-337.291 212.147,-342.905"/>
<polygon fill="midnightblue" stroke="midnightblue" points="101.028,-296.844 90.4376,-296.542 98.5283,-303.382 101.028,-296.844"/>
</g>
<!-- Node5 -->
<g id="node5" class="node"><title>Node5</title>
<g id="a_node5"><a xlink:href="../../da/de3/classnars_1_1inference_1_1RuleTables_ac2d01dfdc40bdd47c757cb549217e6e3.html#ac2d01dfdc40bdd47c757cb549217e6e3" target="_top" xlink:title="Entry point of the inference engine. ">
<polygon fill="none" stroke="black" points="1044,-392.5 1044,-411.5 1207,-411.5 1207,-392.5 1044,-392.5"/>
<text text-anchor="middle" x="1125.5" y="-399.5" font-family="Helvetica,sans-Serif" font-size="10.00">nars.inference.RuleTables.reason</text>
</a>
</g>
</g>
<!-- Node1&#45;&gt;Node5 -->
<g id="edge44" class="edge"><title>Node1&#45;&gt;Node5</title>
<path fill="none" stroke="midnightblue" d="M70.8032,-306.936C81.7344,-343.899 110.445,-422.853 165,-462 275.09,-540.997 329,-519 464.5,-519 464.5,-519 464.5,-519 683.5,-519 821.754,-519 859.648,-515.136 991,-472 1037,-456.894 1086.23,-427.065 1110,-411.681"/>
<polygon fill="midnightblue" stroke="midnightblue" points="74.0566,-305.578 67.9727,-296.904 67.3196,-307.478 74.0566,-305.578"/>
</g>
<!-- Node16 -->
<g id="node16" class="node"><title>Node16</title>
<g id="a_node16"><a xlink:href="../../d6/d25/classnars_1_1entity_1_1Sentence_a721f626ab83f34dc2e6858a4eede7102.html#a721f626ab83f34dc2e6858a4eede7102" target="_top" xlink:title="Clone the Sentence. ">
<polygon fill="none" stroke="black" points="399,-418.5 399,-437.5 532,-437.5 532,-418.5 399,-418.5"/>
<text text-anchor="middle" x="465.5" y="-425.5" font-family="Helvetica,sans-Serif" font-size="10.00">nars.entity.Sentence.clone</text>
</a>
</g>
</g>
<!-- Node1&#45;&gt;Node16 -->
<g id="edge16" class="edge"><title>Node1&#45;&gt;Node16</title>
<path fill="none" stroke="midnightblue" d="M78.3087,-304.881C95.3579,-327.183 127.728,-364.612 165,-383 239.385,-419.698 335.821,-428.256 398.887,-429.419"/>
<polygon fill="midnightblue" stroke="midnightblue" points="80.9371,-302.55 72.1615,-296.613 75.3197,-306.726 80.9371,-302.55"/>
</g>
<!-- Node18 -->
<g id="node18" class="node"><title>Node18</title>
<g id="a_node18"><a xlink:href="../../d4/de9/classnars_1_1inference_1_1LocalRules_aac1c92950f50edd04d12229a8c992987.html#aac1c92950f50edd04d12229a8c992987" target="_top" xlink:title="The task and belief have the same content. ">
<polygon fill="none" stroke="black" points="602.5,-471.5 602.5,-490.5 762.5,-490.5 762.5,-471.5 602.5,-471.5"/>
<text text-anchor="middle" x="682.5" y="-478.5" font-family="Helvetica,sans-Serif" font-size="10.00">nars.inference.LocalRules.match</text>
</a>
</g>
</g>
<!-- Node1&#45;&gt;Node18 -->
<g id="edge43" class="edge"><title>Node1&#45;&gt;Node18</title>
<path fill="none" stroke="midnightblue" d="M73.8532,-305.838C87.9794,-335.251 119.555,-391.459 165,-418 302.486,-498.294 495.481,-497.889 602.384,-489.844"/>
<polygon fill="midnightblue" stroke="midnightblue" points="76.9721,-304.244 69.5902,-296.644 70.6216,-307.189 76.9721,-304.244"/>
</g>
<!-- Node19 -->
<g id="node19" class="node"><title>Node19</title>
<g id="a_node19"><a xlink:href="../../d6/d25/classnars_1_1entity_1_1Sentence_ac6fa0cb96108a540d7e768ffc1b95630.html#ac6fa0cb96108a540d7e768ffc1b95630" target="_top" xlink:title="Clone the content of the sentence. ">
<polygon fill="none" stroke="black" points="399,-301 399,-331 532,-331 532,-301 399,-301"/>
<text text-anchor="start" x="407" y="-319" font-family="Helvetica,sans-Serif" font-size="10.00">nars.entity.Sentence.clone</text>
<text text-anchor="middle" x="465.5" y="-308" font-family="Helvetica,sans-Serif" font-size="10.00">Content</text>
</a>
</g>
</g>
<!-- Node1&#45;&gt;Node19 -->
<g id="edge22" class="edge"><title>Node1&#45;&gt;Node19</title>
<path fill="none" stroke="midnightblue" d="M139.389,-292.37C213.763,-297.776 327.4,-306.035 398.74,-311.22"/>
<polygon fill="midnightblue" stroke="midnightblue" points="139.391,-288.861 129.164,-291.627 138.884,-295.843 139.391,-288.861"/>
</g>
<!-- Node23 -->
<g id="node23" class="node"><title>Node23</title>
<g id="a_node23"><a xlink:href="../../d2/d68/classnars_1_1language_1_1IntersectionExt_a84dcdd3c63e7219e8c3da43e163f2d78.html#a84dcdd3c63e7219e8c3da43e163f2d78" target="_top" xlink:title="Try to make a new compound from two components. ">
<polygon fill="none" stroke="black" points="187.5,-249 187.5,-279 318.5,-279 318.5,-249 187.5,-249"/>
<text text-anchor="start" x="195.5" y="-267" font-family="Helvetica,sans-Serif" font-size="10.00">nars.language.Intersection</text>
<text text-anchor="middle" x="253" y="-256" font-family="Helvetica,sans-Serif" font-size="10.00">Ext.make</text>
</a>
</g>
</g>
<!-- Node1&#45;&gt;Node23 -->
<g id="edge29" class="edge"><title>Node1&#45;&gt;Node23</title>
<path fill="none" stroke="midnightblue" d="M139.439,-277.882C155.281,-275.928 171.9,-273.878 187.358,-271.972"/>
<polygon fill="midnightblue" stroke="midnightblue" points="138.657,-274.451 129.161,-279.149 139.514,-281.399 138.657,-274.451"/>
</g>
<!-- Node27 -->
<g id="node27" class="node"><title>Node27</title>
<g id="a_node27"><a xlink:href="../../d9/d5d/classnars_1_1language_1_1Disjunction_a40b5b22629a8aa0f93da2439b201f59a.html#a40b5b22629a8aa0f93da2439b201f59a" target="_top" xlink:title="Try to make a new Disjunction from two components. ">
<polygon fill="none" stroke="black" points="175,-208.5 175,-227.5 331,-227.5 331,-208.5 175,-208.5"/>
<text text-anchor="middle" x="253" y="-215.5" font-family="Helvetica,sans-Serif" font-size="10.00">nars.language.Disjunction.make</text>
</a>
</g>
</g>
<!-- Node1&#45;&gt;Node27 -->
<g id="edge34" class="edge"><title>Node1&#45;&gt;Node27</title>
<path fill="none" stroke="midnightblue" d="M92.0143,-272.747C111.724,-262.582 139.502,-249.149 165,-240 178.491,-235.159 193.522,-230.957 207.243,-227.559"/>
<polygon fill="midnightblue" stroke="midnightblue" points="90.2737,-269.707 83.0322,-277.441 93.516,-275.911 90.2737,-269.707"/>
</g>
<!-- Node29 -->
<g id="node29" class="node"><title>Node29</title>
<g id="a_node29"><a xlink:href="../../d9/df4/classnars_1_1language_1_1IntersectionInt_acc3bb6e31a10d204254e827435391988.html#acc3bb6e31a10d204254e827435391988" target="_top" xlink:title="Try to make a new compound from two components. ">
<polygon fill="none" stroke="black" points="187.5,-159 187.5,-189 318.5,-189 318.5,-159 187.5,-159"/>
<text text-anchor="start" x="195.5" y="-177" font-family="Helvetica,sans-Serif" font-size="10.00">nars.language.Intersection</text>
<text text-anchor="middle" x="253" y="-166" font-family="Helvetica,sans-Serif" font-size="10.00">Int.make</text>
</a>
</g>
</g>
<!-- Node1&#45;&gt;Node29 -->
<g id="edge38" class="edge"><title>Node1&#45;&gt;Node29</title>
<path fill="none" stroke="midnightblue" d="M80.6492,-269.562C98.7994,-249.714 131.037,-217.641 165,-199 172.026,-195.144 179.706,-191.831 187.499,-189"/>
<polygon fill="midnightblue" stroke="midnightblue" points="77.833,-267.46 73.7691,-277.245 83.0477,-272.13 77.833,-267.46"/>
</g>
<!-- Node31 -->
<g id="node31" class="node"><title>Node31</title>
<g id="a_node31"><a xlink:href="../../d6/d98/classnars_1_1language_1_1Conjunction_aa997df7f04b5fdc6009b9a48f1418dd5.html#aa997df7f04b5fdc6009b9a48f1418dd5" target="_top" xlink:title="Try to make a new compound from two components. ">
<polygon fill="none" stroke="black" points="173.5,-0.5 173.5,-19.5 332.5,-19.5 332.5,-0.5 173.5,-0.5"/>
<text text-anchor="middle" x="253" y="-7.5" font-family="Helvetica,sans-Serif" font-size="10.00">nars.language.Conjunction.make</text>
</a>
</g>
</g>
<!-- Node1&#45;&gt;Node31 -->
<g id="edge42" class="edge"><title>Node1&#45;&gt;Node31</title>
<path fill="none" stroke="midnightblue" d="M67.3875,-267.043C72.9865,-219.357 93.8483,-98.0129 165,-34 171.989,-27.7123 180.481,-23.0537 189.387,-19.6058"/>
<polygon fill="midnightblue" stroke="midnightblue" points="63.8779,-266.947 66.2943,-277.263 70.8382,-267.692 63.8779,-266.947"/>
</g>
<!-- Node32 -->
<g id="node32" class="node"><title>Node32</title>
<g id="a_node32"><a xlink:href="../../da/de3/classnars_1_1inference_1_1RuleTables_a61c932b424464483bd80c783294ab446.html#a61c932b424464483bd80c783294ab446" target="_top" xlink:title="The TaskLink is of type TRANSFORM, and the conclusion is an equivalent transformation. ">
<polygon fill="none" stroke="black" points="1027,-120.5 1027,-139.5 1224,-139.5 1224,-120.5 1027,-120.5"/>
<text text-anchor="middle" x="1125.5" y="-127.5" font-family="Helvetica,sans-Serif" font-size="10.00">nars.inference.RuleTables.transformTask</text>
</a>
</g>
</g>
<!-- Node1&#45;&gt;Node32 -->
<g id="edge45" class="edge"><title>Node1&#45;&gt;Node32</title>
<path fill="none" stroke="midnightblue" d="M74.6807,-268.138C89.7446,-238.998 122.346,-182.961 165,-150 276.268,-64.0167 323.881,-48 464.5,-48 464.5,-48 464.5,-48 683.5,-48 840.418,-48 1023.53,-98.8024 1094.38,-120.433"/>
<polygon fill="midnightblue" stroke="midnightblue" points="71.4681,-266.736 70.0961,-277.242 77.72,-269.885 71.4681,-266.736"/>
</g>
<!-- Node3 -->
<g id="node3" class="node"><title>Node3</title>
<g id="a_node3"><a xlink:href="../../d8/d79/classnars_1_1inference_1_1CompositionalRules_ae7906cfca35e9c7568ace240aba808a0.html#ae7906cfca35e9c7568ace240aba808a0" target="_top" xlink:title=" &#160;&#160;&#160;&#160;Introduce a second independent variable into two terms with a common &#160;component ...">
<polygon fill="none" stroke="black" points="394,-350 394,-380 537,-380 537,-350 394,-350"/>
<text text-anchor="start" x="402" y="-368" font-family="Helvetica,sans-Serif" font-size="10.00">nars.inference.Compositional</text>
<text text-anchor="middle" x="465.5" y="-357" font-family="Helvetica,sans-Serif" font-size="10.00">Rules.introVarInner</text>
</a>
</g>
</g>
<!-- Node2&#45;&gt;Node3 -->
<g id="edge2" class="edge"><title>Node2&#45;&gt;Node3</title>
<path fill="none" stroke="midnightblue" d="M351.474,-361.241C365.737,-361.716 380.19,-362.196 393.78,-362.648"/>
<polygon fill="midnightblue" stroke="midnightblue" points="351.249,-357.732 341.138,-360.898 351.016,-364.728 351.249,-357.732"/>
</g>
<!-- Node4 -->
<g id="node4" class="node"><title>Node4</title>
<g id="a_node4"><a xlink:href="../../da/de3/classnars_1_1inference_1_1RuleTables_a8e422154fd8288d161435c3a53e44276.html#a8e422154fd8288d161435c3a53e44276" target="_top" xlink:title="Inference between a compound term and a statement. ">
<polygon fill="none" stroke="black" points="811.5,-362 811.5,-392 990.5,-392 990.5,-362 811.5,-362"/>
<text text-anchor="start" x="819.5" y="-380" font-family="Helvetica,sans-Serif" font-size="10.00">nars.inference.RuleTables.compound</text>
<text text-anchor="middle" x="901" y="-369" font-family="Helvetica,sans-Serif" font-size="10.00">AndStatement</text>
</a>
</g>
</g>
<!-- Node3&#45;&gt;Node4 -->
<g id="edge3" class="edge"><title>Node3&#45;&gt;Node4</title>
<path fill="none" stroke="midnightblue" d="M547.458,-367.241C622.528,-369.319 733.989,-372.405 811.409,-374.548"/>
<polygon fill="midnightblue" stroke="midnightblue" points="547.207,-363.733 537.114,-366.955 547.013,-370.73 547.207,-363.733"/>
</g>
<!-- Node14 -->
<g id="node14" class="node"><title>Node14</title>
<g id="a_node14"><a xlink:href="../../da/de3/classnars_1_1inference_1_1RuleTables_a3e3eec10853be6dcf8c7532259cf4a84.html#a3e3eec10853be6dcf8c7532259cf4a84" target="_top" xlink:title="The detachment rule, with variable unification. ">
<polygon fill="none" stroke="black" points="590,-384 590,-414 775,-414 775,-384 590,-384"/>
<text text-anchor="start" x="598" y="-402" font-family="Helvetica,sans-Serif" font-size="10.00">nars.inference.RuleTables.detachment</text>
<text text-anchor="middle" x="682.5" y="-391" font-family="Helvetica,sans-Serif" font-size="10.00">WithVar</text>
</a>
</g>
</g>
<!-- Node3&#45;&gt;Node14 -->
<g id="edge13" class="edge"><title>Node3&#45;&gt;Node14</title>
<path fill="none" stroke="midnightblue" d="M547.163,-377.756C561.023,-379.948 575.52,-382.24 589.648,-384.475"/>
<polygon fill="midnightblue" stroke="midnightblue" points="547.621,-374.285 537.197,-376.18 546.527,-381.199 547.621,-374.285"/>
</g>
<!-- Node4&#45;&gt;Node5 -->
<g id="edge4" class="edge"><title>Node4&#45;&gt;Node5</title>
<path fill="none" stroke="midnightblue" d="M1000.53,-388.071C1015,-389.696 1029.75,-391.354 1043.8,-392.933"/>
<polygon fill="midnightblue" stroke="midnightblue" points="1000.91,-384.591 990.577,-386.952 1000.12,-391.547 1000.91,-384.591"/>
</g>
<!-- Node6 -->
<g id="node6" class="node"><title>Node6</title>
<g id="a_node6"><a xlink:href="../../d4/d22/classnars_1_1entity_1_1Concept_ae07576c8466ad65eeb61040e3f71cfc7.html#ae07576c8466ad65eeb61040e3f71cfc7" target="_top" xlink:title="An atomic step in a concept, only called in Memory# processConcept. ">
<polygon fill="none" stroke="black" points="1260,-284.5 1260,-303.5 1379,-303.5 1379,-284.5 1260,-284.5"/>
<text text-anchor="middle" x="1319.5" y="-291.5" font-family="Helvetica,sans-Serif" font-size="10.00">nars.entity.Concept.fire</text>
</a>
</g>
</g>
<!-- Node5&#45;&gt;Node6 -->
<g id="edge5" class="edge"><title>Node5&#45;&gt;Node6</title>
<path fill="none" stroke="midnightblue" d="M1152.42,-387.422C1192.34,-364.964 1267.8,-322.519 1301.5,-303.563"/>
<polygon fill="midnightblue" stroke="midnightblue" points="1150.54,-384.463 1143.54,-392.416 1153.97,-390.564 1150.54,-384.463"/>
</g>
<!-- Node7 -->
<g id="node7" class="node"><title>Node7</title>
<g id="a_node7"><a xlink:href="../../d8/df4/classnars_1_1storage_1_1Memory_a83154b55b922c82b73931d4f22e3a590.html#a83154b55b922c82b73931d4f22e3a590" target="_top" xlink:title="Select a concept to fire. ">
<polygon fill="none" stroke="black" points="1415,-279 1415,-309 1561,-309 1561,-279 1415,-279"/>
<text text-anchor="start" x="1423" y="-297" font-family="Helvetica,sans-Serif" font-size="10.00">nars.storage.Memory.process</text>
<text text-anchor="middle" x="1488" y="-286" font-family="Helvetica,sans-Serif" font-size="10.00">Concept</text>
</a>
</g>
</g>
<!-- Node6&#45;&gt;Node7 -->
<g id="edge6" class="edge"><title>Node6&#45;&gt;Node7</title>
<path fill="none" stroke="midnightblue" d="M1389.34,-294C1397.75,-294 1406.36,-294 1414.82,-294"/>
<polygon fill="midnightblue" stroke="midnightblue" points="1389.2,-290.5 1379.2,-294 1389.2,-297.5 1389.2,-290.5"/>
</g>
<!-- Node8 -->
<g id="node8" class="node"><title>Node8</title>
<g id="a_node8"><a xlink:href="../../d8/df4/classnars_1_1storage_1_1Memory_a49e2cbc8b78d535f4d69739886ee966a.html#a49e2cbc8b78d535f4d69739886ee966a" target="_top" xlink:title="An atomic working workCycle of the system: process new Tasks, then fire a concept. ">
<polygon fill="none" stroke="black" points="1597,-279 1597,-309 1730,-309 1730,-279 1597,-279"/>
<text text-anchor="start" x="1605" y="-297" font-family="Helvetica,sans-Serif" font-size="10.00">nars.storage.Memory.work</text>
<text text-anchor="middle" x="1663.5" y="-286" font-family="Helvetica,sans-Serif" font-size="10.00">Cycle</text>
</a>
</g>
</g>
<!-- Node7&#45;&gt;Node8 -->
<g id="edge7" class="edge"><title>Node7&#45;&gt;Node8</title>
<path fill="none" stroke="midnightblue" d="M1571.12,-294C1579.72,-294 1588.37,-294 1596.76,-294"/>
<polygon fill="midnightblue" stroke="midnightblue" points="1571.07,-290.5 1561.07,-294 1571.07,-297.5 1571.07,-290.5"/>
</g>
<!-- Node9 -->
<g id="node9" class="node"><title>Node9</title>
<g id="a_node9"><a xlink:href="../../dd/da5/classnars_1_1storage_1_1Memory_1_1ReasonerBatch_acc60dec23da774957a85362ed6d7448b.html#acc60dec23da774957a85362ed6d7448b" target="_top" xlink:title="nars.storage.Memory.Reasoner\lBatch.doTick">
<polygon fill="none" stroke="black" points="1766,-279 1766,-309 1920,-309 1920,-279 1766,-279"/>
<text text-anchor="start" x="1774" y="-297" font-family="Helvetica,sans-Serif" font-size="10.00">nars.storage.Memory.Reasoner</text>
<text text-anchor="middle" x="1843" y="-286" font-family="Helvetica,sans-Serif" font-size="10.00">Batch.doTick</text>
</a>
</g>
</g>
<!-- Node8&#45;&gt;Node9 -->
<g id="edge8" class="edge"><title>Node8&#45;&gt;Node9</title>
<path fill="none" stroke="midnightblue" d="M1740.32,-294C1748.79,-294 1757.41,-294 1765.89,-294"/>
<polygon fill="midnightblue" stroke="midnightblue" points="1740.09,-290.5 1730.09,-294 1740.09,-297.5 1740.09,-290.5"/>
</g>
<!-- Node10 -->
<g id="node10" class="node"><title>Node10</title>
<g id="a_node10"><a xlink:href="../../dd/da5/classnars_1_1storage_1_1Memory_1_1ReasonerBatch_aed591f05899b98fd9e4ad01836ad0a40.html#aed591f05899b98fd9e4ad01836ad0a40" target="_top" xlink:title="A clock tick. ">
<polygon fill="none" stroke="black" points="1956,-279 1956,-309 2110,-309 2110,-279 1956,-279"/>
<text text-anchor="start" x="1964" y="-297" font-family="Helvetica,sans-Serif" font-size="10.00">nars.storage.Memory.Reasoner</text>
<text text-anchor="middle" x="2033" y="-286" font-family="Helvetica,sans-Serif" font-size="10.00">Batch.tick</text>
</a>
</g>
</g>
<!-- Node9&#45;&gt;Node10 -->
<g id="edge9" class="edge"><title>Node9&#45;&gt;Node10</title>
<path fill="none" stroke="midnightblue" d="M1930.42,-294C1938.86,-294 1947.37,-294 1955.7,-294"/>
<polygon fill="midnightblue" stroke="midnightblue" points="1930.2,-290.5 1920.2,-294 1930.2,-297.5 1930.2,-290.5"/>
</g>
<!-- Node11 -->
<g id="node11" class="node"><title>Node11</title>
<g id="a_node11"><a xlink:href="../../d4/d88/classnars_1_1storage_1_1Memory_1_1NARSBatch_aad99db6cedde9cff2a997db8906ff821.html#aad99db6cedde9cff2a997db8906ff821" target="_top" xlink:title="Run to completion: repeatedly execute NARS working cycle, until Inputs are Finished, or 1000 steps. ">
<polygon fill="none" stroke="black" points="2146,-284.5 2146,-303.5 2328,-303.5 2328,-284.5 2146,-284.5"/>
<text text-anchor="middle" x="2237" y="-291.5" font-family="Helvetica,sans-Serif" font-size="10.00">nars.storage.Memory.NARSBatch.run</text>
</a>
</g>
</g>
<!-- Node10&#45;&gt;Node11 -->
<g id="edge10" class="edge"><title>Node10&#45;&gt;Node11</title>
<path fill="none" stroke="midnightblue" d="M2120.27,-294C2128.69,-294 2137.25,-294 2145.71,-294"/>
<polygon fill="midnightblue" stroke="midnightblue" points="2120.08,-290.5 2110.08,-294 2120.08,-297.5 2120.08,-290.5"/>
</g>
<!-- Node12 -->
<g id="node12" class="node"><title>Node12</title>
<g id="a_node12"><a xlink:href="../../d4/d88/classnars_1_1storage_1_1Memory_1_1NARSBatch_a416c39463faa161661ed1d12fea03b3c.html#a416c39463faa161661ed1d12fea03b3c" target="_top" xlink:title="non&#45;static equivalent to main(String[]) : run to completion from an input file ">
<polygon fill="none" stroke="black" points="2364,-279 2364,-309 2546,-309 2546,-279 2364,-279"/>
<text text-anchor="start" x="2372" y="-297" font-family="Helvetica,sans-Serif" font-size="10.00">nars.storage.Memory.NARSBatch.run</text>
<text text-anchor="middle" x="2455" y="-286" font-family="Helvetica,sans-Serif" font-size="10.00">Inference</text>
</a>
</g>
</g>
<!-- Node11&#45;&gt;Node12 -->
<g id="edge11" class="edge"><title>Node11&#45;&gt;Node12</title>
<path fill="none" stroke="midnightblue" d="M2338.06,-294C2346.63,-294 2355.27,-294 2363.76,-294"/>
<polygon fill="midnightblue" stroke="midnightblue" points="2338.04,-290.5 2328.04,-294 2338.04,-297.5 2338.04,-290.5"/>
</g>
<!-- Node13 -->
<g id="node13" class="node"><title>Node13</title>
<g id="a_node13"><a xlink:href="../../d4/d88/classnars_1_1storage_1_1Memory_1_1NARSBatch_aa97fcd68270583e60e6bf1b4579d1bdc.html#aa97fcd68270583e60e6bf1b4579d1bdc" target="_top" xlink:title="The entry point of the standalone application. ">
<polygon fill="none" stroke="black" points="2582,-284.5 2582,-303.5 2772,-303.5 2772,-284.5 2582,-284.5"/>
<text text-anchor="middle" x="2677" y="-291.5" font-family="Helvetica,sans-Serif" font-size="10.00">nars.storage.Memory.NARSBatch.main</text>
</a>
</g>
</g>
<!-- Node12&#45;&gt;Node13 -->
<g id="edge12" class="edge"><title>Node12&#45;&gt;Node13</title>
<path fill="none" stroke="midnightblue" d="M2556.37,-294C2564.82,-294 2573.34,-294 2581.74,-294"/>
<polygon fill="midnightblue" stroke="midnightblue" points="2556.12,-290.5 2546.12,-294 2556.12,-297.5 2556.12,-290.5"/>
</g>
<!-- Node15 -->
<g id="node15" class="node"><title>Node15</title>
<g id="a_node15"><a xlink:href="../../da/de3/classnars_1_1inference_1_1RuleTables_a8628d400a8ceda7fea05039ddfea319b.html#a8628d400a8ceda7fea05039ddfea319b" target="_top" xlink:title="Meta&#45;table of syllogistic rules, indexed by the content classes of the taskSentence and the belief...">
<polygon fill="none" stroke="black" points="811,-301.5 811,-320.5 991,-320.5 991,-301.5 811,-301.5"/>
<text text-anchor="middle" x="901" y="-308.5" font-family="Helvetica,sans-Serif" font-size="10.00">nars.inference.RuleTables.syllogisms</text>
</a>
</g>
</g>
<!-- Node14&#45;&gt;Node15 -->
<g id="edge14" class="edge"><title>Node14&#45;&gt;Node15</title>
<path fill="none" stroke="midnightblue" d="M729.993,-380.102C775.08,-361.776 841.644,-334.72 876.601,-320.511"/>
<polygon fill="midnightblue" stroke="midnightblue" points="728.664,-376.864 720.718,-383.872 731.3,-383.349 728.664,-376.864"/>
</g>
<!-- Node15&#45;&gt;Node5 -->
<g id="edge15" class="edge"><title>Node15&#45;&gt;Node5</title>
<path fill="none" stroke="midnightblue" d="M934.79,-324.411C980.236,-342.998 1061.26,-376.137 1101.09,-392.425"/>
<polygon fill="midnightblue" stroke="midnightblue" points="935.972,-321.113 925.391,-320.567 933.322,-327.592 935.972,-321.113"/>
</g>
<!-- Node16&#45;&gt;Node14 -->
<g id="edge17" class="edge"><title>Node16&#45;&gt;Node14</title>
<path fill="none" stroke="midnightblue" d="M542.129,-417.799C557.507,-415.725 573.843,-413.521 589.712,-411.381"/>
<polygon fill="midnightblue" stroke="midnightblue" points="541.618,-414.336 532.175,-419.141 542.553,-421.273 541.618,-414.336"/>
</g>
<!-- Node17 -->
<g id="node17" class="node"><title>Node17</title>
<g id="a_node17"><a xlink:href="../../d4/d22/classnars_1_1entity_1_1Concept_a37e00599fc19c5931da40bd446890f89.html#a37e00599fc19c5931da40bd446890f89" target="_top" xlink:title="Select a isBelief to interact with the given task in inference. ">
<polygon fill="none" stroke="black" points="829.5,-417.5 829.5,-436.5 972.5,-436.5 972.5,-417.5 829.5,-417.5"/>
<text text-anchor="middle" x="901" y="-424.5" font-family="Helvetica,sans-Serif" font-size="10.00">nars.entity.Concept.getBelief</text>
</a>
</g>
</g>
<!-- Node16&#45;&gt;Node17 -->
<g id="edge18" class="edge"><title>Node16&#45;&gt;Node17</title>
<path fill="none" stroke="midnightblue" d="M542.458,-427.825C623.349,-427.638 750.355,-427.345 829.212,-427.163"/>
<polygon fill="midnightblue" stroke="midnightblue" points="542.331,-424.325 532.339,-427.848 542.347,-431.325 542.331,-424.325"/>
</g>
<!-- Node16&#45;&gt;Node18 -->
<g id="edge20" class="edge"><title>Node16&#45;&gt;Node18</title>
<path fill="none" stroke="midnightblue" d="M515.418,-440.059C554.037,-449.579 607.18,-462.679 642.855,-471.474"/>
<polygon fill="midnightblue" stroke="midnightblue" points="515.982,-436.593 505.435,-437.598 514.306,-443.39 515.982,-436.593"/>
</g>
<!-- Node17&#45;&gt;Node5 -->
<g id="edge19" class="edge"><title>Node17&#45;&gt;Node5</title>
<path fill="none" stroke="midnightblue" d="M982.676,-417.935C1002.61,-415.695 1023.97,-413.295 1043.91,-411.056"/>
<polygon fill="midnightblue" stroke="midnightblue" points="982.253,-414.461 972.706,-419.055 983.034,-421.417 982.253,-414.461"/>
</g>
<!-- Node18&#45;&gt;Node5 -->
<g id="edge21" class="edge"><title>Node18&#45;&gt;Node5</title>
<path fill="none" stroke="midnightblue" d="M772.701,-475.701C834.511,-470.85 918.415,-461.916 991,-446 1030.09,-437.428 1073.89,-421.781 1100.31,-411.642"/>
<polygon fill="midnightblue" stroke="midnightblue" points="772.294,-472.222 762.59,-476.473 772.827,-479.201 772.294,-472.222"/>
</g>
<!-- Node20 -->
<g id="node20" class="node"><title>Node20</title>
<g id="a_node20"><a xlink:href="../../da/de3/classnars_1_1inference_1_1RuleTables_a34927349efcf87db97d23c60983b115b.html#a34927349efcf87db97d23c60983b115b" target="_top" xlink:title="Syllogistic rules whose both premises are on the same asymmetric relation. ">
<polygon fill="none" stroke="black" points="590,-198 590,-228 775,-228 775,-198 590,-198"/>
<text text-anchor="start" x="598" y="-216" font-family="Helvetica,sans-Serif" font-size="10.00">nars.inference.RuleTables.asymmetric</text>
<text text-anchor="middle" x="682.5" y="-205" font-family="Helvetica,sans-Serif" font-size="10.00">Asymmetric</text>
</a>
</g>
</g>
<!-- Node19&#45;&gt;Node20 -->
<g id="edge23" class="edge"><title>Node19&#45;&gt;Node20</title>
<path fill="none" stroke="midnightblue" d="M541.597,-299.439C545.956,-297.259 550.132,-294.792 554,-292 577.388,-275.117 566.604,-254.871 590,-238 595.343,-234.147 601.25,-230.888 607.414,-228.131"/>
<polygon fill="midnightblue" stroke="midnightblue" points="540.143,-296.255 532.435,-303.524 542.993,-302.649 540.143,-296.255"/>
</g>
<!-- Node21 -->
<g id="node21" class="node"><title>Node21</title>
<g id="a_node21"><a xlink:href="../../da/de3/classnars_1_1inference_1_1RuleTables_a4f61a7c2dc75c9da475030894eac0735.html#a4f61a7c2dc75c9da475030894eac0735" target="_top" xlink:title="Syllogistic rules whose first premise is on an asymmetric relation, and the second on a symmetric rel...">
<polygon fill="none" stroke="black" points="590,-247 590,-277 775,-277 775,-247 590,-247"/>
<text text-anchor="start" x="598" y="-265" font-family="Helvetica,sans-Serif" font-size="10.00">nars.inference.RuleTables.asymmetric</text>
<text text-anchor="middle" x="682.5" y="-254" font-family="Helvetica,sans-Serif" font-size="10.00">Symmetric</text>
</a>
</g>
</g>
<!-- Node19&#45;&gt;Node21 -->
<g id="edge25" class="edge"><title>Node19&#45;&gt;Node21</title>
<path fill="none" stroke="midnightblue" d="M536.336,-298.46C563.838,-291.552 595.105,-283.699 621.559,-277.055"/>
<polygon fill="midnightblue" stroke="midnightblue" points="535.236,-295.127 526.389,-300.958 536.941,-301.917 535.236,-295.127"/>
</g>
<!-- Node22 -->
<g id="node22" class="node"><title>Node22</title>
<g id="a_node22"><a xlink:href="../../da/de3/classnars_1_1inference_1_1RuleTables_ab64fca3ebda3499b831c2b93df736530.html#ab64fca3ebda3499b831c2b93df736530" target="_top" xlink:title="Syllogistic rules whose both premises are on the same symmetric relation. ">
<polygon fill="none" stroke="black" points="593,-296 593,-326 772,-326 772,-296 593,-296"/>
<text text-anchor="start" x="601" y="-314" font-family="Helvetica,sans-Serif" font-size="10.00">nars.inference.RuleTables.symmetric</text>
<text text-anchor="middle" x="682.5" y="-303" font-family="Helvetica,sans-Serif" font-size="10.00">Symmetric</text>
</a>
</g>
</g>
<!-- Node19&#45;&gt;Node22 -->
<g id="edge27" class="edge"><title>Node19&#45;&gt;Node22</title>
<path fill="none" stroke="midnightblue" d="M542.215,-314.239C558.589,-313.858 576.044,-313.452 592.863,-313.061"/>
<polygon fill="midnightblue" stroke="midnightblue" points="542.091,-310.741 532.175,-314.473 542.254,-317.739 542.091,-310.741"/>
</g>
<!-- Node20&#45;&gt;Node15 -->
<g id="edge24" class="edge"><title>Node20&#45;&gt;Node15</title>
<path fill="none" stroke="midnightblue" d="M756.969,-231.229C763.138,-233.315 769.221,-235.573 775,-238 817.865,-256.004 864.056,-286.11 886.38,-301.424"/>
<polygon fill="midnightblue" stroke="midnightblue" points="757.826,-227.828 747.235,-228.094 755.68,-234.491 757.826,-227.828"/>
</g>
<!-- Node21&#45;&gt;Node15 -->
<g id="edge26" class="edge"><title>Node21&#45;&gt;Node15</title>
<path fill="none" stroke="midnightblue" d="M759.99,-279.312C792.905,-286.761 830.118,-295.184 857.902,-301.472"/>
<polygon fill="midnightblue" stroke="midnightblue" points="760.454,-275.828 749.928,-277.035 758.909,-282.656 760.454,-275.828"/>
</g>
<!-- Node22&#45;&gt;Node15 -->
<g id="edge28" class="edge"><title>Node22&#45;&gt;Node15</title>
<path fill="none" stroke="midnightblue" d="M782.392,-311C791.847,-311 801.398,-311 810.754,-311"/>
<polygon fill="midnightblue" stroke="midnightblue" points="782.184,-307.5 772.184,-311 782.183,-314.5 782.184,-307.5"/>
</g>
<!-- Node24 -->
<g id="node24" class="node"><title>Node24</title>
<g id="a_node24"><a xlink:href="../../d8/d79/classnars_1_1inference_1_1CompositionalRules_a53f7edf7bfe7433da42e8fcf36fd6604.html#a53f7edf7bfe7433da42e8fcf36fd6604" target="_top" xlink:title="{&lt;S ==&gt; M&gt;, ">
<polygon fill="none" stroke="black" points="394,-203 394,-233 537,-233 537,-203 394,-203"/>
<text text-anchor="start" x="402" y="-221" font-family="Helvetica,sans-Serif" font-size="10.00">nars.inference.Compositional</text>
<text text-anchor="middle" x="465.5" y="-210" font-family="Helvetica,sans-Serif" font-size="10.00">Rules.composeCompound</text>
</a>
</g>
</g>
<!-- Node23&#45;&gt;Node24 -->
<g id="edge30" class="edge"><title>Node23&#45;&gt;Node24</title>
<path fill="none" stroke="midnightblue" d="M328.482,-247.724C350.347,-242.946 374.154,-237.743 395.651,-233.045"/>
<polygon fill="midnightblue" stroke="midnightblue" points="327.61,-244.332 318.587,-249.886 329.104,-251.17 327.61,-244.332"/>
</g>
<!-- Node25 -->
<g id="node25" class="node"><title>Node25</title>
<g id="a_node25"><a xlink:href="../../d2/d68/classnars_1_1language_1_1IntersectionExt_ae240be787a8d6e5c8e9b6c9ce18799f5.html#ae240be787a8d6e5c8e9b6c9ce18799f5" target="_top" xlink:title="Try to make a new IntersectionExt. ">
<polygon fill="none" stroke="black" points="400,-252 400,-282 531,-282 531,-252 400,-252"/>
<text text-anchor="start" x="408" y="-270" font-family="Helvetica,sans-Serif" font-size="10.00">nars.language.Intersection</text>
<text text-anchor="middle" x="465.5" y="-259" font-family="Helvetica,sans-Serif" font-size="10.00">Ext.make</text>
</a>
</g>
</g>
<!-- Node23&#45;&gt;Node25 -->
<g id="edge32" class="edge"><title>Node23&#45;&gt;Node25</title>
<path fill="none" stroke="midnightblue" d="M328.717,-265.065C351.891,-265.395 377.228,-265.756 399.672,-266.076"/>
<polygon fill="midnightblue" stroke="midnightblue" points="328.636,-261.563 318.587,-264.92 328.537,-268.563 328.636,-261.563"/>
</g>
<!-- Node26 -->
<g id="node26" class="node"><title>Node26</title>
<g id="a_node26"><a xlink:href="../../d0/dee/classnars_1_1language_1_1CompoundTerm_a80748e3181cffb66ac216637477507c3.html#a80748e3181cffb66ac216637477507c3" target="_top" xlink:title="Try to make a compound term from an operator and a list of components. ">
<polygon fill="none" stroke="black" points="377,-164.5 377,-183.5 554,-183.5 554,-164.5 377,-164.5"/>
<text text-anchor="middle" x="465.5" y="-171.5" font-family="Helvetica,sans-Serif" font-size="10.00">nars.language.CompoundTerm.make</text>
</a>
</g>
</g>
<!-- Node23&#45;&gt;Node26 -->
<g id="edge33" class="edge"><title>Node23&#45;&gt;Node26</title>
<path fill="none" stroke="midnightblue" d="M327.188,-244.794C332.012,-242.472 336.668,-239.884 341,-237 361.748,-223.188 355.741,-207.012 377,-194 384.177,-189.607 392.22,-186.178 400.443,-183.501"/>
<polygon fill="midnightblue" stroke="midnightblue" points="325.494,-241.715 317.742,-248.937 328.305,-248.126 325.494,-241.715"/>
</g>
<!-- Node24&#45;&gt;Node20 -->
<g id="edge31" class="edge"><title>Node24&#45;&gt;Node20</title>
<path fill="none" stroke="midnightblue" d="M547.567,-216.115C561.305,-215.795 575.657,-215.461 589.648,-215.136"/>
<polygon fill="midnightblue" stroke="midnightblue" points="547.113,-212.624 537.197,-216.356 547.276,-219.622 547.113,-212.624"/>
</g>
<!-- Node27&#45;&gt;Node24 -->
<g id="edge35" class="edge"><title>Node27&#45;&gt;Node24</title>
<path fill="none" stroke="midnightblue" d="M341.403,-218C358.912,-218 377.1,-218 393.951,-218"/>
<polygon fill="midnightblue" stroke="midnightblue" points="341.187,-214.5 331.187,-218 341.187,-221.5 341.187,-214.5"/>
</g>
<!-- Node27&#45;&gt;Node26 -->
<g id="edge37" class="edge"><title>Node27&#45;&gt;Node26</title>
<path fill="none" stroke="midnightblue" d="M309.496,-206.4C343.616,-199.268 386.799,-190.242 418.914,-183.529"/>
<polygon fill="midnightblue" stroke="midnightblue" points="308.748,-202.981 299.675,-208.453 310.18,-209.832 308.748,-202.981"/>
</g>
<!-- Node28 -->
<g id="node28" class="node"><title>Node28</title>
<g id="a_node28"><a xlink:href="../../d9/d5d/classnars_1_1language_1_1Disjunction_ab701933d413f94434887866539bb50a3.html#ab701933d413f94434887866539bb50a3" target="_top" xlink:title="Try to make a new IntersectionExt. ">
<polygon fill="none" stroke="black" points="387.5,-126.5 387.5,-145.5 543.5,-145.5 543.5,-126.5 387.5,-126.5"/>
<text text-anchor="middle" x="465.5" y="-133.5" font-family="Helvetica,sans-Serif" font-size="10.00">nars.language.Disjunction.make</text>
</a>
</g>
</g>
<!-- Node27&#45;&gt;Node28 -->
<g id="edge36" class="edge"><title>Node27&#45;&gt;Node28</title>
<path fill="none" stroke="midnightblue" d="M330.084,-204.684C333.875,-203.007 337.54,-201.121 341,-199 362.54,-185.792 355.452,-168.195 377,-155 383.363,-151.103 390.417,-148 397.677,-145.53"/>
<polygon fill="midnightblue" stroke="midnightblue" points="328.492,-201.548 320.442,-208.436 331.031,-208.071 328.492,-201.548"/>
</g>
<!-- Node29&#45;&gt;Node24 -->
<g id="edge39" class="edge"><title>Node29&#45;&gt;Node24</title>
<path fill="none" stroke="midnightblue" d="M328.521,-189.577C349.751,-194.014 372.809,-198.834 393.804,-203.223"/>
<polygon fill="midnightblue" stroke="midnightblue" points="329.092,-186.121 318.587,-187.5 327.66,-192.973 329.092,-186.121"/>
</g>
<!-- Node29&#45;&gt;Node26 -->
<g id="edge41" class="edge"><title>Node29&#45;&gt;Node26</title>
<path fill="none" stroke="midnightblue" d="M328.663,-174C344.234,-174 360.783,-174 376.777,-174"/>
<polygon fill="midnightblue" stroke="midnightblue" points="328.588,-170.5 318.587,-174 328.587,-177.5 328.588,-170.5"/>
</g>
<!-- Node30 -->
<g id="node30" class="node"><title>Node30</title>
<g id="a_node30"><a xlink:href="../../d9/df4/classnars_1_1language_1_1IntersectionInt_adce6ae326247099d6a0edbd14cb96f69.html#adce6ae326247099d6a0edbd14cb96f69" target="_top" xlink:title="Try to make a new IntersectionExt. ">
<polygon fill="none" stroke="black" points="400,-77 400,-107 531,-107 531,-77 400,-77"/>
<text text-anchor="start" x="408" y="-95" font-family="Helvetica,sans-Serif" font-size="10.00">nars.language.Intersection</text>
<text text-anchor="middle" x="465.5" y="-84" font-family="Helvetica,sans-Serif" font-size="10.00">Int.make</text>
</a>
</g>
</g>
<!-- Node29&#45;&gt;Node30 -->
<g id="edge40" class="edge"><title>Node29&#45;&gt;Node30</title>
<path fill="none" stroke="midnightblue" d="M292.375,-154.335C316.312,-142.544 347.984,-127.794 377,-117 386.625,-113.42 397.003,-110.046 407.132,-107.004"/>
<polygon fill="midnightblue" stroke="midnightblue" points="290.672,-151.273 283.275,-158.859 293.788,-157.541 290.672,-151.273"/>
</g>
<!-- Node32&#45;&gt;Node6 -->
<g id="edge46" class="edge"><title>Node32&#45;&gt;Node6</title>
<path fill="none" stroke="midnightblue" d="M1145.27,-146.033C1184.8,-179.8 1275.6,-257.354 1307.32,-284.448"/>
<polygon fill="midnightblue" stroke="midnightblue" points="1147.53,-143.36 1137.65,-139.526 1142.98,-148.682 1147.53,-143.36"/>
</g>
</g>
</svg>
