<?xml version="1.0" encoding="UTF-8" standalone="no"?>
<!DOCTYPE svg PUBLIC "-//W3C//DTD SVG 1.1//EN"
 "http://www.w3.org/Graphics/SVG/1.1/DTD/svg11.dtd">
<!-- Generated by graphviz version 2.38.0 (20140413.2041)
 -->
<!-- Title: nars.language.Term.renameVariables Pages: 1 -->
<svg width="2691pt" height="116pt"
 viewBox="0.00 0.00 2691.00 115.50" xmlns="http://www.w3.org/2000/svg" xmlns:xlink="http://www.w3.org/1999/xlink">
<g id="graph0" class="graph" transform="scale(1 1) rotate(0) translate(4 111.5)">
<title>nars.language.Term.renameVariables</title>
<!-- Node1 -->
<g id="node1" class="node"><title>Node1</title>
<polygon fill="#bfbfbf" stroke="black" points="0,-14 0,-44 138,-44 138,-14 0,-14"/>
<text text-anchor="start" x="8" y="-32" font-family="Helvetica,sans-Serif" font-size="10.00">nars.language.Term.rename</text>
<text text-anchor="middle" x="69" y="-21" font-family="Helvetica,sans-Serif" font-size="10.00">Variables</text>
</g>
<!-- Node2 -->
<g id="node2" class="node"><title>Node2</title>
<g id="a_node2"><a xlink:href="../../d6/d25/classnars_1_1entity_1_1Sentence_ad7f0c103faac9d3ebebbe0e8c5b829ff.html#ad7f0c103faac9d3ebebbe0e8c5b829ff" target="_top" xlink:title="Create a Sentence with the given fields. ">
<polygon fill="none" stroke="black" points="174,-19.5 174,-38.5 325,-38.5 325,-19.5 174,-19.5"/>
<text text-anchor="middle" x="249.5" y="-26.5" font-family="Helvetica,sans-Serif" font-size="10.00">nars.entity.Sentence.Sentence</text>
</a>
</g>
</g>
<!-- Node1&#45;&gt;Node2 -->
<g id="edge1" class="edge"><title>Node1&#45;&gt;Node2</title>
<path fill="none" stroke="midnightblue" d="M148.424,-29C156.837,-29 165.38,-29 173.748,-29"/>
<polygon fill="midnightblue" stroke="midnightblue" points="148.247,-25.5001 138.247,-29 148.247,-32.5001 148.247,-25.5001"/>
</g>
<!-- Node3 -->
<g id="node3" class="node"><title>Node3</title>
<g id="a_node3"><a xlink:href="../../d6/d25/classnars_1_1entity_1_1Sentence_a721f626ab83f34dc2e6858a4eede7102.html#a721f626ab83f34dc2e6858a4eede7102" target="_top" xlink:title="Clone the Sentence. ">
<polygon fill="none" stroke="black" points="363.5,-38.5 363.5,-57.5 496.5,-57.5 496.5,-38.5 363.5,-38.5"/>
<text text-anchor="middle" x="430" y="-45.5" font-family="Helvetica,sans-Serif" font-size="10.00">nars.entity.Sentence.clone</text>
</a>
</g>
</g>
<!-- Node2&#45;&gt;Node3 -->
<g id="edge2" class="edge"><title>Node2&#45;&gt;Node3</title>
<path fill="none" stroke="midnightblue" d="M335.357,-38.0324C344.791,-39.0365 354.29,-40.0477 363.432,-41.0208"/>
<polygon fill="midnightblue" stroke="midnightblue" points="335.48,-34.5258 325.166,-36.9476 334.739,-41.4865 335.48,-34.5258"/>
</g>
<!-- Node17 -->
<g id="node17" class="node"><title>Node17</title>
<g id="a_node17"><a xlink:href="../../d6/d25/classnars_1_1entity_1_1Sentence_a6b64cf9f10e578e4831092ab31dcd5d9.html#a6b64cf9f10e578e4831092ab31dcd5d9" target="_top" xlink:title="To check whether two sentences are equal. ">
<polygon fill="none" stroke="black" points="361,-0.5 361,-19.5 499,-19.5 499,-0.5 361,-0.5"/>
<text text-anchor="middle" x="430" y="-7.5" font-family="Helvetica,sans-Serif" font-size="10.00">nars.entity.Sentence.equals</text>
</a>
</g>
</g>
<!-- Node2&#45;&gt;Node17 -->
<g id="edge18" class="edge"><title>Node2&#45;&gt;Node17</title>
<path fill="none" stroke="midnightblue" d="M335.225,-19.9816C343.833,-19.0654 352.497,-18.1432 360.896,-17.2492"/>
<polygon fill="midnightblue" stroke="midnightblue" points="334.739,-16.5135 325.166,-21.0524 335.48,-23.4742 334.739,-16.5135"/>
</g>
<!-- Node4 -->
<g id="node4" class="node"><title>Node4</title>
<g id="a_node4"><a xlink:href="../../da/de3/classnars_1_1inference_1_1RuleTables_a3e3eec10853be6dcf8c7532259cf4a84.html#a3e3eec10853be6dcf8c7532259cf4a84" target="_top" xlink:title="The detachment rule, with variable unification. ">
<polygon fill="none" stroke="black" points="535,-77 535,-107 720,-107 720,-77 535,-77"/>
<text text-anchor="start" x="543" y="-95" font-family="Helvetica,sans-Serif" font-size="10.00">nars.inference.RuleTables.detachment</text>
<text text-anchor="middle" x="627.5" y="-84" font-family="Helvetica,sans-Serif" font-size="10.00">WithVar</text>
</a>
</g>
</g>
<!-- Node3&#45;&gt;Node4 -->
<g id="edge3" class="edge"><title>Node3&#45;&gt;Node4</title>
<path fill="none" stroke="midnightblue" d="M483.488,-59.8132C506.876,-65.0769 534.7,-71.3391 559.562,-76.9346"/>
<polygon fill="midnightblue" stroke="midnightblue" points="483.945,-56.3285 473.421,-57.5473 482.408,-63.1577 483.945,-56.3285"/>
</g>
<!-- Node15 -->
<g id="node15" class="node"><title>Node15</title>
<g id="a_node15"><a xlink:href="../../d4/d22/classnars_1_1entity_1_1Concept_a37e00599fc19c5931da40bd446890f89.html#a37e00599fc19c5931da40bd446890f89" target="_top" xlink:title="Select a isBelief to interact with the given task in inference. ">
<polygon fill="none" stroke="black" points="774.5,-38.5 774.5,-57.5 917.5,-57.5 917.5,-38.5 774.5,-38.5"/>
<text text-anchor="middle" x="846" y="-45.5" font-family="Helvetica,sans-Serif" font-size="10.00">nars.entity.Concept.getBelief</text>
</a>
</g>
</g>
<!-- Node3&#45;&gt;Node15 -->
<g id="edge14" class="edge"><title>Node3&#45;&gt;Node15</title>
<path fill="none" stroke="midnightblue" d="M506.617,-48C582.869,-48 699.661,-48 774.162,-48"/>
<polygon fill="midnightblue" stroke="midnightblue" points="506.6,-44.5001 496.6,-48 506.599,-51.5001 506.6,-44.5001"/>
</g>
<!-- Node16 -->
<g id="node16" class="node"><title>Node16</title>
<g id="a_node16"><a xlink:href="../../d4/de9/classnars_1_1inference_1_1LocalRules_aac1c92950f50edd04d12229a8c992987.html#aac1c92950f50edd04d12229a8c992987" target="_top" xlink:title="The task and belief have the same content. ">
<polygon fill="none" stroke="black" points="547.5,-0.5 547.5,-19.5 707.5,-19.5 707.5,-0.5 547.5,-0.5"/>
<text text-anchor="middle" x="627.5" y="-7.5" font-family="Helvetica,sans-Serif" font-size="10.00">nars.inference.LocalRules.match</text>
</a>
</g>
</g>
<!-- Node3&#45;&gt;Node16 -->
<g id="edge16" class="edge"><title>Node3&#45;&gt;Node16</title>
<path fill="none" stroke="midnightblue" d="M490.11,-36.5106C518.004,-31.0886 550.902,-24.6942 577.399,-19.5439"/>
<polygon fill="midnightblue" stroke="midnightblue" points="489.229,-33.1162 480.081,-38.46 490.565,-39.9876 489.229,-33.1162"/>
</g>
<!-- Node5 -->
<g id="node5" class="node"><title>Node5</title>
<g id="a_node5"><a xlink:href="../../da/de3/classnars_1_1inference_1_1RuleTables_a8628d400a8ceda7fea05039ddfea319b.html#a8628d400a8ceda7fea05039ddfea319b" target="_top" xlink:title="Meta&#45;table of syllogistic rules, indexed by the content classes of the taskSentence and the belief...">
<polygon fill="none" stroke="black" points="756,-79.5 756,-98.5 936,-98.5 936,-79.5 756,-79.5"/>
<text text-anchor="middle" x="846" y="-86.5" font-family="Helvetica,sans-Serif" font-size="10.00">nars.inference.RuleTables.syllogisms</text>
</a>
</g>
</g>
<!-- Node4&#45;&gt;Node5 -->
<g id="edge4" class="edge"><title>Node4&#45;&gt;Node5</title>
<path fill="none" stroke="midnightblue" d="M730.084,-90.5924C738.705,-90.4729 747.383,-90.3527 755.898,-90.2347"/>
<polygon fill="midnightblue" stroke="midnightblue" points="729.952,-87.0938 720.002,-90.7321 730.049,-94.0931 729.952,-87.0938"/>
</g>
<!-- Node6 -->
<g id="node6" class="node"><title>Node6</title>
<g id="a_node6"><a xlink:href="../../da/de3/classnars_1_1inference_1_1RuleTables_ac2d01dfdc40bdd47c757cb549217e6e3.html#ac2d01dfdc40bdd47c757cb549217e6e3" target="_top" xlink:title="Entry point of the inference engine. ">
<polygon fill="none" stroke="black" points="972,-38.5 972,-57.5 1135,-57.5 1135,-38.5 972,-38.5"/>
<text text-anchor="middle" x="1053.5" y="-45.5" font-family="Helvetica,sans-Serif" font-size="10.00">nars.inference.RuleTables.reason</text>
</a>
</g>
</g>
<!-- Node5&#45;&gt;Node6 -->
<g id="edge5" class="edge"><title>Node5&#45;&gt;Node6</title>
<path fill="none" stroke="midnightblue" d="M904.643,-77.4994C936.213,-71.2007 974.872,-63.4879 1004.74,-57.5286"/>
<polygon fill="midnightblue" stroke="midnightblue" points="903.784,-74.1017 894.662,-79.4907 905.154,-80.9664 903.784,-74.1017"/>
</g>
<!-- Node7 -->
<g id="node7" class="node"><title>Node7</title>
<g id="a_node7"><a xlink:href="../../d4/d22/classnars_1_1entity_1_1Concept_ae07576c8466ad65eeb61040e3f71cfc7.html#ae07576c8466ad65eeb61040e3f71cfc7" target="_top" xlink:title="An atomic step in a concept, only called in Memory# processConcept. ">
<polygon fill="none" stroke="black" points="1171,-38.5 1171,-57.5 1290,-57.5 1290,-38.5 1171,-38.5"/>
<text text-anchor="middle" x="1230.5" y="-45.5" font-family="Helvetica,sans-Serif" font-size="10.00">nars.entity.Concept.fire</text>
</a>
</g>
</g>
<!-- Node6&#45;&gt;Node7 -->
<g id="edge6" class="edge"><title>Node6&#45;&gt;Node7</title>
<path fill="none" stroke="midnightblue" d="M1145.25,-48C1153.91,-48 1162.52,-48 1170.76,-48"/>
<polygon fill="midnightblue" stroke="midnightblue" points="1145.09,-44.5001 1135.09,-48 1145.08,-51.5001 1145.09,-44.5001"/>
</g>
<!-- Node8 -->
<g id="node8" class="node"><title>Node8</title>
<g id="a_node8"><a xlink:href="../../d8/df4/classnars_1_1storage_1_1Memory_a83154b55b922c82b73931d4f22e3a590.html#a83154b55b922c82b73931d4f22e3a590" target="_top" xlink:title="Select a concept to fire. ">
<polygon fill="none" stroke="black" points="1326,-33 1326,-63 1472,-63 1472,-33 1326,-33"/>
<text text-anchor="start" x="1334" y="-51" font-family="Helvetica,sans-Serif" font-size="10.00">nars.storage.Memory.process</text>
<text text-anchor="middle" x="1399" y="-40" font-family="Helvetica,sans-Serif" font-size="10.00">Concept</text>
</a>
</g>
</g>
<!-- Node7&#45;&gt;Node8 -->
<g id="edge7" class="edge"><title>Node7&#45;&gt;Node8</title>
<path fill="none" stroke="midnightblue" d="M1300.34,-48C1308.75,-48 1317.36,-48 1325.82,-48"/>
<polygon fill="midnightblue" stroke="midnightblue" points="1300.2,-44.5001 1290.2,-48 1300.2,-51.5001 1300.2,-44.5001"/>
</g>
<!-- Node9 -->
<g id="node9" class="node"><title>Node9</title>
<g id="a_node9"><a xlink:href="../../d8/df4/classnars_1_1storage_1_1Memory_a49e2cbc8b78d535f4d69739886ee966a.html#a49e2cbc8b78d535f4d69739886ee966a" target="_top" xlink:title="An atomic working workCycle of the system: process new Tasks, then fire a concept. ">
<polygon fill="none" stroke="black" points="1508,-33 1508,-63 1641,-63 1641,-33 1508,-33"/>
<text text-anchor="start" x="1516" y="-51" font-family="Helvetica,sans-Serif" font-size="10.00">nars.storage.Memory.work</text>
<text text-anchor="middle" x="1574.5" y="-40" font-family="Helvetica,sans-Serif" font-size="10.00">Cycle</text>
</a>
</g>
</g>
<!-- Node8&#45;&gt;Node9 -->
<g id="edge8" class="edge"><title>Node8&#45;&gt;Node9</title>
<path fill="none" stroke="midnightblue" d="M1482.12,-48C1490.72,-48 1499.37,-48 1507.76,-48"/>
<polygon fill="midnightblue" stroke="midnightblue" points="1482.07,-44.5001 1472.07,-48 1482.07,-51.5001 1482.07,-44.5001"/>
</g>
<!-- Node10 -->
<g id="node10" class="node"><title>Node10</title>
<g id="a_node10"><a xlink:href="../../dd/da5/classnars_1_1storage_1_1Memory_1_1ReasonerBatch_acc60dec23da774957a85362ed6d7448b.html#acc60dec23da774957a85362ed6d7448b" target="_top" xlink:title="nars.storage.Memory.Reasoner\lBatch.doTick">
<polygon fill="none" stroke="black" points="1677,-33 1677,-63 1831,-63 1831,-33 1677,-33"/>
<text text-anchor="start" x="1685" y="-51" font-family="Helvetica,sans-Serif" font-size="10.00">nars.storage.Memory.Reasoner</text>
<text text-anchor="middle" x="1754" y="-40" font-family="Helvetica,sans-Serif" font-size="10.00">Batch.doTick</text>
</a>
</g>
</g>
<!-- Node9&#45;&gt;Node10 -->
<g id="edge9" class="edge"><title>Node9&#45;&gt;Node10</title>
<path fill="none" stroke="midnightblue" d="M1651.32,-48C1659.79,-48 1668.41,-48 1676.89,-48"/>
<polygon fill="midnightblue" stroke="midnightblue" points="1651.09,-44.5001 1641.09,-48 1651.09,-51.5001 1651.09,-44.5001"/>
</g>
<!-- Node11 -->
<g id="node11" class="node"><title>Node11</title>
<g id="a_node11"><a xlink:href="../../dd/da5/classnars_1_1storage_1_1Memory_1_1ReasonerBatch_aed591f05899b98fd9e4ad01836ad0a40.html#aed591f05899b98fd9e4ad01836ad0a40" target="_top" xlink:title="A clock tick. ">
<polygon fill="none" stroke="black" points="1867,-33 1867,-63 2021,-63 2021,-33 1867,-33"/>
<text text-anchor="start" x="1875" y="-51" font-family="Helvetica,sans-Serif" font-size="10.00">nars.storage.Memory.Reasoner</text>
<text text-anchor="middle" x="1944" y="-40" font-family="Helvetica,sans-Serif" font-size="10.00">Batch.tick</text>
</a>
</g>
</g>
<!-- Node10&#45;&gt;Node11 -->
<g id="edge10" class="edge"><title>Node10&#45;&gt;Node11</title>
<path fill="none" stroke="midnightblue" d="M1841.42,-48C1849.86,-48 1858.37,-48 1866.7,-48"/>
<polygon fill="midnightblue" stroke="midnightblue" points="1841.2,-44.5001 1831.2,-48 1841.2,-51.5001 1841.2,-44.5001"/>
</g>
<!-- Node12 -->
<g id="node12" class="node"><title>Node12</title>
<g id="a_node12"><a xlink:href="../../d4/d88/classnars_1_1storage_1_1Memory_1_1NARSBatch_aad99db6cedde9cff2a997db8906ff821.html#aad99db6cedde9cff2a997db8906ff821" target="_top" xlink:title="Run to completion: repeatedly execute NARS working cycle, until Inputs are Finished, or 1000 steps. ">
<polygon fill="none" stroke="black" points="2057,-38.5 2057,-57.5 2239,-57.5 2239,-38.5 2057,-38.5"/>
<text text-anchor="middle" x="2148" y="-45.5" font-family="Helvetica,sans-Serif" font-size="10.00">nars.storage.Memory.NARSBatch.run</text>
</a>
</g>
</g>
<!-- Node11&#45;&gt;Node12 -->
<g id="edge11" class="edge"><title>Node11&#45;&gt;Node12</title>
<path fill="none" stroke="midnightblue" d="M2031.27,-48C2039.69,-48 2048.25,-48 2056.71,-48"/>
<polygon fill="midnightblue" stroke="midnightblue" points="2031.08,-44.5001 2021.08,-48 2031.08,-51.5001 2031.08,-44.5001"/>
</g>
<!-- Node13 -->
<g id="node13" class="node"><title>Node13</title>
<g id="a_node13"><a xlink:href="../../d4/d88/classnars_1_1storage_1_1Memory_1_1NARSBatch_a416c39463faa161661ed1d12fea03b3c.html#a416c39463faa161661ed1d12fea03b3c" target="_top" xlink:title="non&#45;static equivalent to main(String[]) : run to completion from an input file ">
<polygon fill="none" stroke="black" points="2275,-33 2275,-63 2457,-63 2457,-33 2275,-33"/>
<text text-anchor="start" x="2283" y="-51" font-family="Helvetica,sans-Serif" font-size="10.00">nars.storage.Memory.NARSBatch.run</text>
<text text-anchor="middle" x="2366" y="-40" font-family="Helvetica,sans-Serif" font-size="10.00">Inference</text>
</a>
</g>
</g>
<!-- Node12&#45;&gt;Node13 -->
<g id="edge12" class="edge"><title>Node12&#45;&gt;Node13</title>
<path fill="none" stroke="midnightblue" d="M2249.06,-48C2257.63,-48 2266.27,-48 2274.76,-48"/>
<polygon fill="midnightblue" stroke="midnightblue" points="2249.04,-44.5001 2239.04,-48 2249.04,-51.5001 2249.04,-44.5001"/>
</g>
<!-- Node14 -->
<g id="node14" class="node"><title>Node14</title>
<g id="a_node14"><a xlink:href="../../d4/d88/classnars_1_1storage_1_1Memory_1_1NARSBatch_aa97fcd68270583e60e6bf1b4579d1bdc.html#aa97fcd68270583e60e6bf1b4579d1bdc" target="_top" xlink:title="The entry point of the standalone application. ">
<polygon fill="none" stroke="black" points="2493,-38.5 2493,-57.5 2683,-57.5 2683,-38.5 2493,-38.5"/>
<text text-anchor="middle" x="2588" y="-45.5" font-family="Helvetica,sans-Serif" font-size="10.00">nars.storage.Memory.NARSBatch.main</text>
</a>
</g>
</g>
<!-- Node13&#45;&gt;Node14 -->
<g id="edge13" class="edge"><title>Node13&#45;&gt;Node14</title>
<path fill="none" stroke="midnightblue" d="M2467.37,-48C2475.82,-48 2484.34,-48 2492.74,-48"/>
<polygon fill="midnightblue" stroke="midnightblue" points="2467.12,-44.5001 2457.12,-48 2467.12,-51.5001 2467.12,-44.5001"/>
</g>
<!-- Node15&#45;&gt;Node6 -->
<g id="edge15" class="edge"><title>Node15&#45;&gt;Node6</title>
<path fill="none" stroke="midnightblue" d="M928.065,-48C942.437,-48 957.402,-48 971.765,-48"/>
<polygon fill="midnightblue" stroke="midnightblue" points="927.721,-44.5001 917.721,-48 927.721,-51.5001 927.721,-44.5001"/>
</g>
<!-- Node16&#45;&gt;Node6 -->
<g id="edge17" class="edge"><title>Node16&#45;&gt;Node6</title>
<path fill="none" stroke="midnightblue" d="M717.746,-13.1556C779.232,-15.9069 862.739,-20.7834 936,-29 957.383,-31.3983 980.824,-35.0255 1001.04,-38.4702"/>
<polygon fill="midnightblue" stroke="midnightblue" points="717.831,-9.65607 707.688,-12.7157 717.525,-16.6494 717.831,-9.65607"/>
</g>
</g>
</svg>
