<?xml version="1.0" encoding="UTF-8" standalone="no"?>
<!DOCTYPE svg PUBLIC "-//W3C//DTD SVG 1.1//EN"
 "http://www.w3.org/Graphics/SVG/1.1/DTD/svg11.dtd">
<!-- Generated by graphviz version 2.38.0 (20140413.2041)
 -->
<!-- Title: nars.entity.TaskLink Pages: 1 -->
<svg width="623pt" height="1070pt"
 viewBox="0.00 0.00 622.50 1070.00" xmlns="http://www.w3.org/2000/svg" xmlns:xlink="http://www.w3.org/1999/xlink">
<g id="graph0" class="graph" transform="scale(1 1) rotate(0) translate(4 1066)">
<title>nars.entity.TaskLink</title>
<!-- Node1 -->
<g id="node1" class="node"><title>Node1</title>
<polygon fill="#bfbfbf" stroke="black" points="226,-0.5 226,-112.5 331,-112.5 331,-0.5 226,-0.5"/>
<text text-anchor="middle" x="278.5" y="-100.5" font-family="Helvetica,sans-Serif" font-size="10.00">nars.entity.TaskLink</text>
<polyline fill="none" stroke="black" points="226,-93.5 331,-93.5 "/>
<text text-anchor="start" x="234" y="-81.5" font-family="Helvetica,sans-Serif" font-size="10.00">~ counter</text>
<text text-anchor="start" x="234" y="-70.5" font-family="Helvetica,sans-Serif" font-size="10.00">&#45; recordedLinks</text>
<text text-anchor="start" x="234" y="-59.5" font-family="Helvetica,sans-Serif" font-size="10.00">&#45; recordingTime</text>
<polyline fill="none" stroke="black" points="226,-52.5 331,-52.5 "/>
<text text-anchor="start" x="234" y="-40.5" font-family="Helvetica,sans-Serif" font-size="10.00">+ TaskLink()</text>
<text text-anchor="start" x="234" y="-29.5" font-family="Helvetica,sans-Serif" font-size="10.00">+ getTargetTask()</text>
<text text-anchor="start" x="234" y="-18.5" font-family="Helvetica,sans-Serif" font-size="10.00">+ novel()</text>
<text text-anchor="start" x="234" y="-7.5" font-family="Helvetica,sans-Serif" font-size="10.00">+ toString()</text>
</g>
<!-- Node2 -->
<g id="node2" class="node"><title>Node2</title>
<g id="a_node2"><a xlink:href="../../d4/d8b/classnars_1_1entity_1_1TermLink.html" target="_top" xlink:title="A link between a compound term and a component term. ">
<polygon fill="none" stroke="black" points="111,-160.5 111,-393.5 268,-393.5 268,-160.5 111,-160.5"/>
<text text-anchor="middle" x="189.5" y="-381.5" font-family="Helvetica,sans-Serif" font-size="10.00">nars.entity.TermLink</text>
<polyline fill="none" stroke="black" points="111,-374.5 268,-374.5 "/>
<text text-anchor="start" x="119" y="-362.5" font-family="Helvetica,sans-Serif" font-size="10.00">+ SELF</text>
<text text-anchor="start" x="119" y="-351.5" font-family="Helvetica,sans-Serif" font-size="10.00">+ COMPONENT</text>
<text text-anchor="start" x="119" y="-340.5" font-family="Helvetica,sans-Serif" font-size="10.00">+ COMPOUND</text>
<text text-anchor="start" x="119" y="-329.5" font-family="Helvetica,sans-Serif" font-size="10.00">+ COMPONENT_STATEMENT</text>
<text text-anchor="start" x="119" y="-318.5" font-family="Helvetica,sans-Serif" font-size="10.00">+ COMPOUND_STATEMENT</text>
<text text-anchor="start" x="119" y="-307.5" font-family="Helvetica,sans-Serif" font-size="10.00">+ COMPONENT_CONDITION</text>
<text text-anchor="start" x="119" y="-296.5" font-family="Helvetica,sans-Serif" font-size="10.00">+ COMPOUND_CONDITION</text>
<text text-anchor="start" x="119" y="-285.5" font-family="Helvetica,sans-Serif" font-size="10.00">+ TRANSFORM</text>
<text text-anchor="start" x="119" y="-274.5" font-family="Helvetica,sans-Serif" font-size="10.00"># type</text>
<text text-anchor="start" x="119" y="-263.5" font-family="Helvetica,sans-Serif" font-size="10.00"># index</text>
<polyline fill="none" stroke="black" points="111,-256.5 268,-256.5 "/>
<text text-anchor="start" x="119" y="-244.5" font-family="Helvetica,sans-Serif" font-size="10.00">+ TermLink()</text>
<text text-anchor="start" x="119" y="-233.5" font-family="Helvetica,sans-Serif" font-size="10.00">+ TermLink()</text>
<text text-anchor="start" x="119" y="-222.5" font-family="Helvetica,sans-Serif" font-size="10.00">+ getTarget()</text>
<text text-anchor="start" x="119" y="-211.5" font-family="Helvetica,sans-Serif" font-size="10.00">+ getType()</text>
<text text-anchor="start" x="119" y="-200.5" font-family="Helvetica,sans-Serif" font-size="10.00">+ getIndices()</text>
<text text-anchor="start" x="119" y="-189.5" font-family="Helvetica,sans-Serif" font-size="10.00">+ getIndex()</text>
<text text-anchor="start" x="119" y="-178.5" font-family="Helvetica,sans-Serif" font-size="10.00"># TermLink()</text>
<text text-anchor="start" x="119" y="-167.5" font-family="Helvetica,sans-Serif" font-size="10.00"># setKey()</text>
</a>
</g>
</g>
<!-- Node2&#45;&gt;Node1 -->
<g id="edge1" class="edge"><title>Node2&#45;&gt;Node1</title>
<path fill="none" stroke="midnightblue" d="M240.393,-151.055C245.839,-137.685 251.154,-124.635 256.004,-112.729"/>
<polygon fill="none" stroke="midnightblue" points="237.137,-149.77 236.606,-160.352 243.62,-152.411 237.137,-149.77"/>
</g>
<!-- Node3 -->
<g id="node3" class="node"><title>Node3</title>
<g id="a_node3"><a xlink:href="../../d1/dd1/classnars_1_1entity_1_1Item.html" target="_top" xlink:title="An item is an object that can be put into a Bag, to participate in the resource competition of the sy...">
<polygon fill="none" stroke="black" points="125,-463.5 125,-674.5 214,-674.5 214,-463.5 125,-463.5"/>
<text text-anchor="middle" x="169.5" y="-662.5" font-family="Helvetica,sans-Serif" font-size="10.00">nars.entity.Item</text>
<polyline fill="none" stroke="black" points="125,-655.5 214,-655.5 "/>
<text text-anchor="start" x="133" y="-643.5" font-family="Helvetica,sans-Serif" font-size="10.00"># key</text>
<polyline fill="none" stroke="black" points="125,-636.5 214,-636.5 "/>
<text text-anchor="start" x="133" y="-624.5" font-family="Helvetica,sans-Serif" font-size="10.00">+ getKey()</text>
<text text-anchor="start" x="133" y="-613.5" font-family="Helvetica,sans-Serif" font-size="10.00">+ getBudget()</text>
<text text-anchor="start" x="133" y="-602.5" font-family="Helvetica,sans-Serif" font-size="10.00">+ getPriority()</text>
<text text-anchor="start" x="133" y="-591.5" font-family="Helvetica,sans-Serif" font-size="10.00">+ setPriority()</text>
<text text-anchor="start" x="133" y="-580.5" font-family="Helvetica,sans-Serif" font-size="10.00">+ incPriority()</text>
<text text-anchor="start" x="133" y="-569.5" font-family="Helvetica,sans-Serif" font-size="10.00">+ decPriority()</text>
<text text-anchor="start" x="133" y="-558.5" font-family="Helvetica,sans-Serif" font-size="10.00">+ getDurability()</text>
<text text-anchor="start" x="133" y="-547.5" font-family="Helvetica,sans-Serif" font-size="10.00">+ setDurability()</text>
<text text-anchor="start" x="133" y="-536.5" font-family="Helvetica,sans-Serif" font-size="10.00">+ incDurability()</text>
<text text-anchor="start" x="133" y="-525.5" font-family="Helvetica,sans-Serif" font-size="10.00">+ decDurability()</text>
<text text-anchor="start" x="133" y="-514.5" font-family="Helvetica,sans-Serif" font-size="10.00">and 6 more...</text>
<text text-anchor="start" x="133" y="-503.5" font-family="Helvetica,sans-Serif" font-size="10.00"># Item()</text>
<text text-anchor="start" x="133" y="-492.5" font-family="Helvetica,sans-Serif" font-size="10.00"># Item()</text>
<text text-anchor="start" x="133" y="-481.5" font-family="Helvetica,sans-Serif" font-size="10.00"># Item()</text>
<text text-anchor="start" x="133" y="-470.5" font-family="Helvetica,sans-Serif" font-size="10.00"># setBudget()</text>
</a>
</g>
</g>
<!-- Node3&#45;&gt;Node2 -->
<g id="edge2" class="edge"><title>Node3&#45;&gt;Node2</title>
<path fill="none" stroke="midnightblue" d="M177.419,-453.175C178.765,-433.66 180.163,-413.381 181.511,-393.84"/>
<polygon fill="none" stroke="midnightblue" points="173.917,-453.086 176.72,-463.303 180.9,-453.568 173.917,-453.086"/>
</g>
<!-- Node11 -->
<g id="node11" class="node"><title>Node11</title>
<g id="a_node11"><a xlink:href="../../dc/ddc/classnars_1_1entity_1_1Task.html" target="_top" xlink:title="A task to be processed, consists of a Sentence and a BudgetValue. ">
<polygon fill="none" stroke="black" points="286.5,-182.5 286.5,-371.5 390.5,-371.5 390.5,-182.5 286.5,-182.5"/>
<text text-anchor="middle" x="338.5" y="-359.5" font-family="Helvetica,sans-Serif" font-size="10.00">nars.entity.Task</text>
<polyline fill="none" stroke="black" points="286.5,-352.5 390.5,-352.5 "/>
<text text-anchor="middle" x="338.5" y="-340.5" font-family="Helvetica,sans-Serif" font-size="10.00"> </text>
<polyline fill="none" stroke="black" points="286.5,-333.5 390.5,-333.5 "/>
<text text-anchor="start" x="294.5" y="-321.5" font-family="Helvetica,sans-Serif" font-size="10.00">+ Task()</text>
<text text-anchor="start" x="294.5" y="-310.5" font-family="Helvetica,sans-Serif" font-size="10.00">+ Task()</text>
<text text-anchor="start" x="294.5" y="-299.5" font-family="Helvetica,sans-Serif" font-size="10.00">+ Task()</text>
<text text-anchor="start" x="294.5" y="-288.5" font-family="Helvetica,sans-Serif" font-size="10.00">+ getSentence()</text>
<text text-anchor="start" x="294.5" y="-277.5" font-family="Helvetica,sans-Serif" font-size="10.00">+ getContent()</text>
<text text-anchor="start" x="294.5" y="-266.5" font-family="Helvetica,sans-Serif" font-size="10.00">+ getCreationTime()</text>
<text text-anchor="start" x="294.5" y="-255.5" font-family="Helvetica,sans-Serif" font-size="10.00">+ isInput()</text>
<text text-anchor="start" x="294.5" y="-244.5" font-family="Helvetica,sans-Serif" font-size="10.00">+ isStructural()</text>
<text text-anchor="start" x="294.5" y="-233.5" font-family="Helvetica,sans-Serif" font-size="10.00">+ merge()</text>
<text text-anchor="start" x="294.5" y="-222.5" font-family="Helvetica,sans-Serif" font-size="10.00">+ getBestSolution()</text>
<text text-anchor="start" x="294.5" y="-211.5" font-family="Helvetica,sans-Serif" font-size="10.00">+ setBestSolution()</text>
<text text-anchor="start" x="294.5" y="-200.5" font-family="Helvetica,sans-Serif" font-size="10.00">+ getParentBelief()</text>
<text text-anchor="start" x="294.5" y="-189.5" font-family="Helvetica,sans-Serif" font-size="10.00">+ toString()</text>
</a>
</g>
</g>
<!-- Node3&#45;&gt;Node11 -->
<g id="edge11" class="edge"><title>Node3&#45;&gt;Node11</title>
<path fill="none" stroke="midnightblue" d="M219.289,-478.046C222.357,-472.927 225.441,-467.881 228.5,-463 248.339,-431.346 256.995,-425.861 276.5,-394 280.911,-386.794 285.343,-379.248 289.696,-371.611"/>
<polygon fill="none" stroke="midnightblue" points="216.239,-476.328 214.148,-486.714 222.26,-479.899 216.239,-476.328"/>
</g>
<!-- Node4 -->
<g id="node4" class="node"><title>Node4</title>
<polygon fill="none" stroke="#bfbfbf" points="138.5,-816 138.5,-873 200.5,-873 200.5,-816 138.5,-816"/>
<text text-anchor="middle" x="169.5" y="-861" font-family="Helvetica,sans-Serif" font-size="10.00">ItemStruct</text>
<polyline fill="none" stroke="#bfbfbf" points="138.5,-854 200.5,-854 "/>
<text text-anchor="middle" x="169.5" y="-842" font-family="Helvetica,sans-Serif" font-size="10.00"> </text>
<polyline fill="none" stroke="#bfbfbf" points="138.5,-835 200.5,-835 "/>
<text text-anchor="middle" x="169.5" y="-823" font-family="Helvetica,sans-Serif" font-size="10.00"> </text>
</g>
<!-- Node4&#45;&gt;Node3 -->
<g id="edge3" class="edge"><title>Node4&#45;&gt;Node3</title>
<path fill="none" stroke="midnightblue" d="M169.5,-805.42C169.5,-771.59 169.5,-720.528 169.5,-674.596"/>
<polygon fill="none" stroke="midnightblue" points="166,-805.77 169.5,-815.77 173,-805.77 166,-805.77"/>
</g>
<!-- Node5 -->
<g id="node5" class="node"><title>Node5</title>
<g id="a_node5"><a xlink:href="../../db/d8e/classnars_1_1entity_1_1BudgetValue.html" target="_top" xlink:title="A triple of priority (current), durability (decay), and quality (long&#45;term average). ">
<polygon fill="none" stroke="black" points="0,-739 0,-950 121,-950 121,-739 0,-739"/>
<text text-anchor="middle" x="60.5" y="-938" font-family="Helvetica,sans-Serif" font-size="10.00">nars.entity.BudgetValue</text>
<polyline fill="none" stroke="black" points="0,-931 121,-931 "/>
<text text-anchor="start" x="8" y="-919" font-family="Helvetica,sans-Serif" font-size="10.00"># priority</text>
<text text-anchor="start" x="8" y="-908" font-family="Helvetica,sans-Serif" font-size="10.00"># durability</text>
<text text-anchor="start" x="8" y="-897" font-family="Helvetica,sans-Serif" font-size="10.00"># quality</text>
<text text-anchor="start" x="8" y="-886" font-family="Helvetica,sans-Serif" font-size="10.00">&#45; MARK</text>
<text text-anchor="start" x="8" y="-875" font-family="Helvetica,sans-Serif" font-size="10.00">&#45; SEPARATOR</text>
<polyline fill="none" stroke="black" points="0,-868 121,-868 "/>
<text text-anchor="start" x="8" y="-856" font-family="Helvetica,sans-Serif" font-size="10.00">+ BudgetValue()</text>
<text text-anchor="start" x="8" y="-845" font-family="Helvetica,sans-Serif" font-size="10.00">+ BudgetValue()</text>
<text text-anchor="start" x="8" y="-834" font-family="Helvetica,sans-Serif" font-size="10.00">+ BudgetValue()</text>
<text text-anchor="start" x="8" y="-823" font-family="Helvetica,sans-Serif" font-size="10.00">+ getPriority()</text>
<text text-anchor="start" x="8" y="-812" font-family="Helvetica,sans-Serif" font-size="10.00">+ setPriority()</text>
<text text-anchor="start" x="8" y="-801" font-family="Helvetica,sans-Serif" font-size="10.00">+ incPriority()</text>
<text text-anchor="start" x="8" y="-790" font-family="Helvetica,sans-Serif" font-size="10.00">+ decPriority()</text>
<text text-anchor="start" x="8" y="-779" font-family="Helvetica,sans-Serif" font-size="10.00">+ getDurability()</text>
<text text-anchor="start" x="8" y="-768" font-family="Helvetica,sans-Serif" font-size="10.00">+ setDurability()</text>
<text text-anchor="start" x="8" y="-757" font-family="Helvetica,sans-Serif" font-size="10.00">+ incDurability()</text>
<text text-anchor="start" x="8" y="-746" font-family="Helvetica,sans-Serif" font-size="10.00">and 10 more...</text>
</a>
</g>
</g>
<!-- Node5&#45;&gt;Node3 -->
<g id="edge4" class="edge"><title>Node5&#45;&gt;Node3</title>
<path fill="none" stroke="#404040" d="M102.175,-738.931C109.11,-721.53 116.338,-703.392 123.376,-685.733"/>
<polygon fill="none" stroke="#404040" points="123.406,-685.659 121.911,-678.604 127.848,-674.511 129.343,-681.566 123.406,-685.659"/>
<text text-anchor="middle" x="137.5" y="-696" font-family="Helvetica,sans-Serif" font-size="10.00"> #budget</text>
</g>
<!-- Node6 -->
<g id="node6" class="node"><title>Node6</title>
<polygon fill="none" stroke="#bfbfbf" points="23.5,-1004.5 23.5,-1061.5 97.5,-1061.5 97.5,-1004.5 23.5,-1004.5"/>
<text text-anchor="middle" x="60.5" y="-1049.5" font-family="Helvetica,sans-Serif" font-size="10.00">BudgetStruct</text>
<polyline fill="none" stroke="#bfbfbf" points="23.5,-1042.5 97.5,-1042.5 "/>
<text text-anchor="middle" x="60.5" y="-1030.5" font-family="Helvetica,sans-Serif" font-size="10.00"> </text>
<polyline fill="none" stroke="#bfbfbf" points="23.5,-1023.5 97.5,-1023.5 "/>
<text text-anchor="middle" x="60.5" y="-1011.5" font-family="Helvetica,sans-Serif" font-size="10.00"> </text>
</g>
<!-- Node6&#45;&gt;Node5 -->
<g id="edge5" class="edge"><title>Node6&#45;&gt;Node5</title>
<path fill="none" stroke="midnightblue" d="M60.5,-994.168C60.5,-981.216 60.5,-966.027 60.5,-950.393"/>
<polygon fill="none" stroke="midnightblue" points="57.0001,-994.481 60.5,-1004.48 64.0001,-994.481 57.0001,-994.481"/>
</g>
<!-- Node7 -->
<g id="node7" class="node"><title>Node7</title>
<g id="a_node7"><a xlink:href="../../d8/db8/classnars_1_1language_1_1Term.html" target="_top" xlink:title="Term is the basic component of Narsese, and the object of processing in NARS. ">
<polygon fill="none" stroke="black" points="218.5,-750 218.5,-939 322.5,-939 322.5,-750 218.5,-750"/>
<text text-anchor="middle" x="270.5" y="-927" font-family="Helvetica,sans-Serif" font-size="10.00">nars.language.Term</text>
<polyline fill="none" stroke="black" points="218.5,-920 322.5,-920 "/>
<text text-anchor="start" x="226.5" y="-908" font-family="Helvetica,sans-Serif" font-size="10.00"># name</text>
<polyline fill="none" stroke="black" points="218.5,-901 322.5,-901 "/>
<text text-anchor="start" x="226.5" y="-889" font-family="Helvetica,sans-Serif" font-size="10.00">+ Term()</text>
<text text-anchor="start" x="226.5" y="-878" font-family="Helvetica,sans-Serif" font-size="10.00">+ getName()</text>
<text text-anchor="start" x="226.5" y="-867" font-family="Helvetica,sans-Serif" font-size="10.00">+ setName()</text>
<text text-anchor="start" x="226.5" y="-856" font-family="Helvetica,sans-Serif" font-size="10.00">+ clone()</text>
<text text-anchor="start" x="226.5" y="-845" font-family="Helvetica,sans-Serif" font-size="10.00">+ equals()</text>
<text text-anchor="start" x="226.5" y="-834" font-family="Helvetica,sans-Serif" font-size="10.00">+ hashCode()</text>
<text text-anchor="start" x="226.5" y="-823" font-family="Helvetica,sans-Serif" font-size="10.00">+ isConstant()</text>
<text text-anchor="start" x="226.5" y="-812" font-family="Helvetica,sans-Serif" font-size="10.00">+ renameVariables()</text>
<text text-anchor="start" x="226.5" y="-801" font-family="Helvetica,sans-Serif" font-size="10.00">+ getComplexity()</text>
<text text-anchor="start" x="226.5" y="-790" font-family="Helvetica,sans-Serif" font-size="10.00">+ compareTo()</text>
<text text-anchor="start" x="226.5" y="-779" font-family="Helvetica,sans-Serif" font-size="10.00">+ containTerm()</text>
<text text-anchor="start" x="226.5" y="-768" font-family="Helvetica,sans-Serif" font-size="10.00">+ toString()</text>
<text text-anchor="start" x="226.5" y="-757" font-family="Helvetica,sans-Serif" font-size="10.00"># Term()</text>
</a>
</g>
</g>
<!-- Node7&#45;&gt;Node2 -->
<g id="edge6" class="edge"><title>Node7&#45;&gt;Node2</title>
<path fill="none" stroke="#404040" d="M260.039,-749.884C251.097,-672.751 237.349,-560.585 222.5,-463 219.675,-444.436 216.453,-424.869 213.154,-405.687"/>
<polygon fill="none" stroke="#404040" points="213.144,-405.63 208.177,-400.402 211.093,-393.806 216.06,-399.034 213.144,-405.63"/>
<text text-anchor="middle" x="266" y="-566.5" font-family="Helvetica,sans-Serif" font-size="10.00"> &#45;target</text>
</g>
<!-- Node12 -->
<g id="node12" class="node"><title>Node12</title>
<g id="a_node12"><a xlink:href="../../d6/d25/classnars_1_1entity_1_1Sentence.html" target="_top" xlink:title="A Sentence is an abstract class, mainly containing a Term, a TruthValue, and a Stamp. ">
<polygon fill="none" stroke="black" points="300,-480 300,-658 407,-658 407,-480 300,-480"/>
<text text-anchor="middle" x="353.5" y="-646" font-family="Helvetica,sans-Serif" font-size="10.00">nars.entity.Sentence</text>
<polyline fill="none" stroke="black" points="300,-639 407,-639 "/>
<text text-anchor="start" x="308" y="-627" font-family="Helvetica,sans-Serif" font-size="10.00">&#45; punctuation</text>
<text text-anchor="start" x="308" y="-616" font-family="Helvetica,sans-Serif" font-size="10.00">&#45; revisible</text>
<polyline fill="none" stroke="black" points="300,-609 407,-609 "/>
<text text-anchor="start" x="308" y="-597" font-family="Helvetica,sans-Serif" font-size="10.00">+ Sentence()</text>
<text text-anchor="start" x="308" y="-586" font-family="Helvetica,sans-Serif" font-size="10.00">+ Sentence()</text>
<text text-anchor="start" x="308" y="-575" font-family="Helvetica,sans-Serif" font-size="10.00">+ equals()</text>
<text text-anchor="start" x="308" y="-564" font-family="Helvetica,sans-Serif" font-size="10.00">+ hashCode()</text>
<text text-anchor="start" x="308" y="-553" font-family="Helvetica,sans-Serif" font-size="10.00">+ equivalentTo()</text>
<text text-anchor="start" x="308" y="-542" font-family="Helvetica,sans-Serif" font-size="10.00">+ clone()</text>
<text text-anchor="start" x="308" y="-531" font-family="Helvetica,sans-Serif" font-size="10.00">+ getContent()</text>
<text text-anchor="start" x="308" y="-520" font-family="Helvetica,sans-Serif" font-size="10.00">+ getPunctuation()</text>
<text text-anchor="start" x="308" y="-509" font-family="Helvetica,sans-Serif" font-size="10.00">+ cloneContent()</text>
<text text-anchor="start" x="308" y="-498" font-family="Helvetica,sans-Serif" font-size="10.00">+ setContent()</text>
<text text-anchor="start" x="308" y="-487" font-family="Helvetica,sans-Serif" font-size="10.00">and 10 more...</text>
</a>
</g>
</g>
<!-- Node7&#45;&gt;Node12 -->
<g id="edge17" class="edge"><title>Node7&#45;&gt;Node12</title>
<path fill="none" stroke="#404040" d="M283.551,-749.896C287.247,-730.857 291.848,-711.119 297.5,-693 299.894,-685.325 302.651,-677.501 305.63,-669.705"/>
<polygon fill="none" stroke="#404040" points="305.718,-669.481 304.209,-662.43 310.137,-658.324 311.647,-665.376 305.718,-669.481"/>
<text text-anchor="middle" x="317" y="-696" font-family="Helvetica,sans-Serif" font-size="10.00"> &#45;content</text>
</g>
<!-- Node8 -->
<g id="node8" class="node"><title>Node8</title>
<polygon fill="none" stroke="#bfbfbf" points="359.5,-1004.5 359.5,-1061.5 419.5,-1061.5 419.5,-1004.5 359.5,-1004.5"/>
<text text-anchor="middle" x="389.5" y="-1049.5" font-family="Helvetica,sans-Serif" font-size="10.00">Cloneable</text>
<polyline fill="none" stroke="#bfbfbf" points="359.5,-1042.5 419.5,-1042.5 "/>
<text text-anchor="middle" x="389.5" y="-1030.5" font-family="Helvetica,sans-Serif" font-size="10.00"> </text>
<polyline fill="none" stroke="#bfbfbf" points="359.5,-1023.5 419.5,-1023.5 "/>
<text text-anchor="middle" x="389.5" y="-1011.5" font-family="Helvetica,sans-Serif" font-size="10.00"> </text>
</g>
<!-- Node8&#45;&gt;Node7 -->
<g id="edge7" class="edge"><title>Node8&#45;&gt;Node7</title>
<path fill="none" stroke="midnightblue" d="M351.761,-1002.78C346.252,-997.548 340.947,-991.879 336.5,-986 325.77,-971.814 316.186,-955.604 307.87,-939.357"/>
<polygon fill="none" stroke="midnightblue" points="349.57,-1005.52 359.339,-1009.62 354.26,-1000.32 349.57,-1005.52"/>
</g>
<!-- Node8&#45;&gt;Node12 -->
<g id="edge14" class="edge"><title>Node8&#45;&gt;Node12</title>
<path fill="none" stroke="midnightblue" d="M376.858,-994.46C374.325,-985.553 371.989,-976.018 370.5,-967 353.142,-861.838 350.543,-739.01 351.212,-658.143"/>
<polygon fill="none" stroke="midnightblue" points="373.548,-995.609 379.765,-1004.19 380.255,-993.604 373.548,-995.609"/>
</g>
<!-- Node13 -->
<g id="node13" class="node"><title>Node13</title>
<g id="a_node13"><a xlink:href="../../d3/db8/classnars_1_1entity_1_1TruthValue.html" target="_top" xlink:title="Frequency and confidence. ">
<polygon fill="none" stroke="black" points="379,-739 379,-950 492,-950 492,-739 379,-739"/>
<text text-anchor="middle" x="435.5" y="-938" font-family="Helvetica,sans-Serif" font-size="10.00">nars.entity.TruthValue</text>
<polyline fill="none" stroke="black" points="379,-931 492,-931 "/>
<text text-anchor="start" x="387" y="-919" font-family="Helvetica,sans-Serif" font-size="10.00">&#45; frequency</text>
<text text-anchor="start" x="387" y="-908" font-family="Helvetica,sans-Serif" font-size="10.00">&#45; confidence</text>
<text text-anchor="start" x="387" y="-897" font-family="Helvetica,sans-Serif" font-size="10.00">&#45; DELIMITER</text>
<text text-anchor="start" x="387" y="-886" font-family="Helvetica,sans-Serif" font-size="10.00">&#45; SEPARATOR</text>
<polyline fill="none" stroke="black" points="379,-879 492,-879 "/>
<text text-anchor="start" x="387" y="-867" font-family="Helvetica,sans-Serif" font-size="10.00">+ TruthValue()</text>
<text text-anchor="start" x="387" y="-856" font-family="Helvetica,sans-Serif" font-size="10.00">+ TruthValue()</text>
<text text-anchor="start" x="387" y="-845" font-family="Helvetica,sans-Serif" font-size="10.00">+ getFrequency()</text>
<text text-anchor="start" x="387" y="-834" font-family="Helvetica,sans-Serif" font-size="10.00">+ getConfidence()</text>
<text text-anchor="start" x="387" y="-823" font-family="Helvetica,sans-Serif" font-size="10.00">+ getExpectation()</text>
<text text-anchor="start" x="387" y="-812" font-family="Helvetica,sans-Serif" font-size="10.00">+ getExpDifAbs()</text>
<text text-anchor="start" x="387" y="-801" font-family="Helvetica,sans-Serif" font-size="10.00">+ isNegative()</text>
<text text-anchor="start" x="387" y="-790" font-family="Helvetica,sans-Serif" font-size="10.00">+ equals()</text>
<text text-anchor="start" x="387" y="-779" font-family="Helvetica,sans-Serif" font-size="10.00">+ hashCode()</text>
<text text-anchor="start" x="387" y="-768" font-family="Helvetica,sans-Serif" font-size="10.00">+ clone()</text>
<text text-anchor="start" x="387" y="-757" font-family="Helvetica,sans-Serif" font-size="10.00">+ toString()</text>
<text text-anchor="start" x="387" y="-746" font-family="Helvetica,sans-Serif" font-size="10.00">+ toStringBrief()</text>
</a>
</g>
</g>
<!-- Node8&#45;&gt;Node13 -->
<g id="edge16" class="edge"><title>Node8&#45;&gt;Node13</title>
<path fill="none" stroke="midnightblue" d="M398.736,-994.556C401.951,-981.52 405.734,-966.183 409.628,-950.393"/>
<polygon fill="none" stroke="midnightblue" points="395.284,-993.934 396.287,-1004.48 402.08,-995.61 395.284,-993.934"/>
</g>
<!-- Node14 -->
<g id="node14" class="node"><title>Node14</title>
<g id="a_node14"><a xlink:href="../../d1/d1e/classnars_1_1entity_1_1Stamp.html" target="_top" xlink:title="Each Sentence has a time stamp, consisting the following components: (1) The creation time of the sen...">
<polygon fill="none" stroke="black" points="510.5,-722.5 510.5,-966.5 614.5,-966.5 614.5,-722.5 510.5,-722.5"/>
<text text-anchor="middle" x="562.5" y="-954.5" font-family="Helvetica,sans-Serif" font-size="10.00">nars.entity.Stamp</text>
<polyline fill="none" stroke="black" points="510.5,-947.5 614.5,-947.5 "/>
<text text-anchor="start" x="518.5" y="-935.5" font-family="Helvetica,sans-Serif" font-size="10.00">&#45; evidentialBase</text>
<text text-anchor="start" x="518.5" y="-924.5" font-family="Helvetica,sans-Serif" font-size="10.00">&#45; baseLength</text>
<text text-anchor="start" x="518.5" y="-913.5" font-family="Helvetica,sans-Serif" font-size="10.00">&#45; creationTime</text>
<text text-anchor="start" x="518.5" y="-902.5" font-family="Helvetica,sans-Serif" font-size="10.00">&#45; currentSerial</text>
<polyline fill="none" stroke="black" points="510.5,-895.5 614.5,-895.5 "/>
<text text-anchor="start" x="518.5" y="-883.5" font-family="Helvetica,sans-Serif" font-size="10.00">+ Stamp()</text>
<text text-anchor="start" x="518.5" y="-872.5" font-family="Helvetica,sans-Serif" font-size="10.00">+ Stamp()</text>
<text text-anchor="start" x="518.5" y="-861.5" font-family="Helvetica,sans-Serif" font-size="10.00">+ clone()</text>
<text text-anchor="start" x="518.5" y="-850.5" font-family="Helvetica,sans-Serif" font-size="10.00">+ length()</text>
<text text-anchor="start" x="518.5" y="-839.5" font-family="Helvetica,sans-Serif" font-size="10.00">+ equals()</text>
<text text-anchor="start" x="518.5" y="-828.5" font-family="Helvetica,sans-Serif" font-size="10.00">+ hashCode()</text>
<text text-anchor="start" x="518.5" y="-817.5" font-family="Helvetica,sans-Serif" font-size="10.00">+ getCreationTime()</text>
<text text-anchor="start" x="518.5" y="-806.5" font-family="Helvetica,sans-Serif" font-size="10.00">+ toString()</text>
<text text-anchor="start" x="518.5" y="-795.5" font-family="Helvetica,sans-Serif" font-size="10.00">+ make()</text>
<text text-anchor="start" x="518.5" y="-784.5" font-family="Helvetica,sans-Serif" font-size="10.00">+ init()</text>
<text text-anchor="start" x="518.5" y="-773.5" font-family="Helvetica,sans-Serif" font-size="10.00">~ get()</text>
<text text-anchor="start" x="518.5" y="-762.5" font-family="Helvetica,sans-Serif" font-size="10.00">&#45; Stamp()</text>
<text text-anchor="start" x="518.5" y="-751.5" font-family="Helvetica,sans-Serif" font-size="10.00">&#45; Stamp()</text>
<text text-anchor="start" x="518.5" y="-740.5" font-family="Helvetica,sans-Serif" font-size="10.00">&#45; getBase()</text>
<text text-anchor="start" x="518.5" y="-729.5" font-family="Helvetica,sans-Serif" font-size="10.00">&#45; toSet()</text>
</a>
</g>
</g>
<!-- Node8&#45;&gt;Node14 -->
<g id="edge19" class="edge"><title>Node8&#45;&gt;Node14</title>
<path fill="none" stroke="midnightblue" d="M429.117,-1015.97C452.479,-1004.95 481.322,-988.439 501.5,-967 504.574,-963.734 507.527,-960.284 510.361,-956.695"/>
<polygon fill="none" stroke="midnightblue" points="427.459,-1012.88 419.81,-1020.21 430.361,-1019.25 427.459,-1012.88"/>
</g>
<!-- Node9 -->
<g id="node9" class="node"><title>Node9</title>
<polygon fill="none" stroke="#bfbfbf" points="222.5,-1004.5 222.5,-1061.5 332.5,-1061.5 332.5,-1004.5 222.5,-1004.5"/>
<text text-anchor="middle" x="277.5" y="-1049.5" font-family="Helvetica,sans-Serif" font-size="10.00">Comparable&lt; Term &gt;</text>
<polyline fill="none" stroke="#bfbfbf" points="222.5,-1042.5 332.5,-1042.5 "/>
<text text-anchor="middle" x="277.5" y="-1030.5" font-family="Helvetica,sans-Serif" font-size="10.00"> </text>
<polyline fill="none" stroke="#bfbfbf" points="222.5,-1023.5 332.5,-1023.5 "/>
<text text-anchor="middle" x="277.5" y="-1011.5" font-family="Helvetica,sans-Serif" font-size="10.00"> </text>
</g>
<!-- Node9&#45;&gt;Node7 -->
<g id="edge8" class="edge"><title>Node9&#45;&gt;Node7</title>
<path fill="none" stroke="midnightblue" d="M276.091,-994.458C275.488,-978.385 274.754,-958.828 274.018,-939.241"/>
<polygon fill="none" stroke="midnightblue" points="272.594,-994.62 276.467,-1004.48 279.589,-994.357 272.594,-994.62"/>
</g>
<!-- Node10 -->
<g id="node10" class="node"><title>Node10</title>
<polygon fill="none" stroke="#bfbfbf" points="139,-1004.5 139,-1061.5 204,-1061.5 204,-1004.5 139,-1004.5"/>
<text text-anchor="middle" x="171.5" y="-1049.5" font-family="Helvetica,sans-Serif" font-size="10.00">TermStruct</text>
<polyline fill="none" stroke="#bfbfbf" points="139,-1042.5 204,-1042.5 "/>
<text text-anchor="middle" x="171.5" y="-1030.5" font-family="Helvetica,sans-Serif" font-size="10.00"> </text>
<polyline fill="none" stroke="#bfbfbf" points="139,-1023.5 204,-1023.5 "/>
<text text-anchor="middle" x="171.5" y="-1011.5" font-family="Helvetica,sans-Serif" font-size="10.00"> </text>
</g>
<!-- Node10&#45;&gt;Node7 -->
<g id="edge9" class="edge"><title>Node10&#45;&gt;Node7</title>
<path fill="none" stroke="midnightblue" d="M193.247,-995.738C198.674,-986.438 204.398,-976.403 209.5,-967 214.397,-957.976 219.391,-948.51 224.307,-939.014"/>
<polygon fill="none" stroke="midnightblue" points="190.214,-993.992 188.166,-1004.39 196.25,-997.538 190.214,-993.992"/>
</g>
<!-- Node11&#45;&gt;Node1 -->
<g id="edge10" class="edge"><title>Node11&#45;&gt;Node1</title>
<path fill="none" stroke="#404040" d="M312.793,-182.385C307.445,-162.907 301.91,-142.752 296.889,-124.465"/>
<polygon fill="none" stroke="#404040" points="296.848,-124.316 291.402,-119.589 293.67,-112.744 299.116,-117.471 296.848,-124.316"/>
<text text-anchor="middle" x="328" y="-134" font-family="Helvetica,sans-Serif" font-size="10.00"> &#45;targetTask</text>
</g>
<!-- Node11&#45;&gt;Node11 -->
<g id="edge12" class="edge"><title>Node11&#45;&gt;Node11</title>
<path fill="none" stroke="#404040" d="M390.702,-302.167C401.092,-299.334 408.5,-290.945 408.5,-277 408.5,-268.502 405.749,-262.067 401.249,-257.696"/>
<polygon fill="none" stroke="#404040" points="401.191,-257.664 394.003,-258.245 390.702,-251.833 397.89,-251.252 401.191,-257.664"/>
<text text-anchor="middle" x="436" y="-274.5" font-family="Helvetica,sans-Serif" font-size="10.00"> &#45;parentTask</text>
</g>
<!-- Node12&#45;&gt;Node11 -->
<g id="edge13" class="edge"><title>Node12&#45;&gt;Node11</title>
<path fill="none" stroke="#404040" d="M348.938,-479.809C347.375,-449.578 345.609,-415.433 343.98,-383.943"/>
<polygon fill="none" stroke="#404040" points="343.959,-383.543 339.655,-377.758 343.339,-371.559 347.644,-377.345 343.959,-383.543"/>
<text text-anchor="middle" x="377" y="-437" font-family="Helvetica,sans-Serif" font-size="10.00"> &#45;bestSolution</text>
<text text-anchor="middle" x="377" y="-426" font-family="Helvetica,sans-Serif" font-size="10.00">&#45;parentBelief</text>
<text text-anchor="middle" x="377" y="-415" font-family="Helvetica,sans-Serif" font-size="10.00">&#45;sentence</text>
</g>
<!-- Node13&#45;&gt;Node12 -->
<g id="edge15" class="edge"><title>Node13&#45;&gt;Node12</title>
<path fill="none" stroke="#404040" d="M404.148,-738.931C397.334,-716.201 390.142,-692.214 383.386,-669.679"/>
<polygon fill="none" stroke="#404040" points="383.343,-669.536 377.788,-664.938 379.896,-658.042 385.451,-662.64 383.343,-669.536"/>
<text text-anchor="middle" x="404.5" y="-696" font-family="Helvetica,sans-Serif" font-size="10.00"> &#45;truth</text>
</g>
<!-- Node14&#45;&gt;Node12 -->
<g id="edge18" class="edge"><title>Node14&#45;&gt;Node12</title>
<path fill="none" stroke="#404040" d="M510.323,-735.141C507.456,-730.631 504.512,-726.23 501.5,-722 476.925,-687.48 444.547,-653.288 416.343,-626.101"/>
<polygon fill="none" stroke="#404040" points="416.034,-625.807 408.931,-624.564 407.347,-617.529 414.45,-618.772 416.034,-625.807"/>
<text text-anchor="middle" x="504.5" y="-696" font-family="Helvetica,sans-Serif" font-size="10.00"> &#45;stamp</text>
</g>
</g>
</svg>
