<?xml version="1.0" encoding="UTF-8" standalone="no"?>
<!DOCTYPE svg PUBLIC "-//W3C//DTD SVG 1.1//EN"
 "http://www.w3.org/Graphics/SVG/1.1/DTD/svg11.dtd">
<!-- Generated by graphviz version 2.38.0 (20140413.2041)
 -->
<!-- Title: nars.entity.TermLink Pages: 1 -->
<svg width="498pt" height="855pt"
 viewBox="0.00 0.00 497.50 855.00" xmlns="http://www.w3.org/2000/svg" xmlns:xlink="http://www.w3.org/1999/xlink">
<g id="graph0" class="graph" transform="scale(1 1) rotate(0) translate(4 851)">
<title>nars.entity.TermLink</title>
<!-- Node1 -->
<g id="node1" class="node"><title>Node1</title>
<polygon fill="#bfbfbf" stroke="black" points="188.5,-0.5 188.5,-233.5 345.5,-233.5 345.5,-0.5 188.5,-0.5"/>
<text text-anchor="middle" x="267" y="-221.5" font-family="Helvetica,sans-Serif" font-size="10.00">nars.entity.TermLink</text>
<polyline fill="none" stroke="black" points="188.5,-214.5 345.5,-214.5 "/>
<text text-anchor="start" x="196.5" y="-202.5" font-family="Helvetica,sans-Serif" font-size="10.00">+ SELF</text>
<text text-anchor="start" x="196.5" y="-191.5" font-family="Helvetica,sans-Serif" font-size="10.00">+ COMPONENT</text>
<text text-anchor="start" x="196.5" y="-180.5" font-family="Helvetica,sans-Serif" font-size="10.00">+ COMPOUND</text>
<text text-anchor="start" x="196.5" y="-169.5" font-family="Helvetica,sans-Serif" font-size="10.00">+ COMPONENT_STATEMENT</text>
<text text-anchor="start" x="196.5" y="-158.5" font-family="Helvetica,sans-Serif" font-size="10.00">+ COMPOUND_STATEMENT</text>
<text text-anchor="start" x="196.5" y="-147.5" font-family="Helvetica,sans-Serif" font-size="10.00">+ COMPONENT_CONDITION</text>
<text text-anchor="start" x="196.5" y="-136.5" font-family="Helvetica,sans-Serif" font-size="10.00">+ COMPOUND_CONDITION</text>
<text text-anchor="start" x="196.5" y="-125.5" font-family="Helvetica,sans-Serif" font-size="10.00">+ TRANSFORM</text>
<text text-anchor="start" x="196.5" y="-114.5" font-family="Helvetica,sans-Serif" font-size="10.00"># type</text>
<text text-anchor="start" x="196.5" y="-103.5" font-family="Helvetica,sans-Serif" font-size="10.00"># index</text>
<polyline fill="none" stroke="black" points="188.5,-96.5 345.5,-96.5 "/>
<text text-anchor="start" x="196.5" y="-84.5" font-family="Helvetica,sans-Serif" font-size="10.00">+ TermLink()</text>
<text text-anchor="start" x="196.5" y="-73.5" font-family="Helvetica,sans-Serif" font-size="10.00">+ TermLink()</text>
<text text-anchor="start" x="196.5" y="-62.5" font-family="Helvetica,sans-Serif" font-size="10.00">+ getTarget()</text>
<text text-anchor="start" x="196.5" y="-51.5" font-family="Helvetica,sans-Serif" font-size="10.00">+ getType()</text>
<text text-anchor="start" x="196.5" y="-40.5" font-family="Helvetica,sans-Serif" font-size="10.00">+ getIndices()</text>
<text text-anchor="start" x="196.5" y="-29.5" font-family="Helvetica,sans-Serif" font-size="10.00">+ getIndex()</text>
<text text-anchor="start" x="196.5" y="-18.5" font-family="Helvetica,sans-Serif" font-size="10.00"># TermLink()</text>
<text text-anchor="start" x="196.5" y="-7.5" font-family="Helvetica,sans-Serif" font-size="10.00"># setKey()</text>
</g>
<!-- Node2 -->
<g id="node2" class="node"><title>Node2</title>
<g id="a_node2"><a xlink:href="../../d1/dd1/classnars_1_1entity_1_1Item.html" target="_top" xlink:title="An item is an object that can be put into a Bag, to participate in the resource competition of the sy...">
<polygon fill="none" stroke="black" points="95.5,-281.5 95.5,-492.5 184.5,-492.5 184.5,-281.5 95.5,-281.5"/>
<text text-anchor="middle" x="140" y="-480.5" font-family="Helvetica,sans-Serif" font-size="10.00">nars.entity.Item</text>
<polyline fill="none" stroke="black" points="95.5,-473.5 184.5,-473.5 "/>
<text text-anchor="start" x="103.5" y="-461.5" font-family="Helvetica,sans-Serif" font-size="10.00"># key</text>
<polyline fill="none" stroke="black" points="95.5,-454.5 184.5,-454.5 "/>
<text text-anchor="start" x="103.5" y="-442.5" font-family="Helvetica,sans-Serif" font-size="10.00">+ getKey()</text>
<text text-anchor="start" x="103.5" y="-431.5" font-family="Helvetica,sans-Serif" font-size="10.00">+ getBudget()</text>
<text text-anchor="start" x="103.5" y="-420.5" font-family="Helvetica,sans-Serif" font-size="10.00">+ getPriority()</text>
<text text-anchor="start" x="103.5" y="-409.5" font-family="Helvetica,sans-Serif" font-size="10.00">+ setPriority()</text>
<text text-anchor="start" x="103.5" y="-398.5" font-family="Helvetica,sans-Serif" font-size="10.00">+ incPriority()</text>
<text text-anchor="start" x="103.5" y="-387.5" font-family="Helvetica,sans-Serif" font-size="10.00">+ decPriority()</text>
<text text-anchor="start" x="103.5" y="-376.5" font-family="Helvetica,sans-Serif" font-size="10.00">+ getDurability()</text>
<text text-anchor="start" x="103.5" y="-365.5" font-family="Helvetica,sans-Serif" font-size="10.00">+ setDurability()</text>
<text text-anchor="start" x="103.5" y="-354.5" font-family="Helvetica,sans-Serif" font-size="10.00">+ incDurability()</text>
<text text-anchor="start" x="103.5" y="-343.5" font-family="Helvetica,sans-Serif" font-size="10.00">+ decDurability()</text>
<text text-anchor="start" x="103.5" y="-332.5" font-family="Helvetica,sans-Serif" font-size="10.00">and 6 more...</text>
<text text-anchor="start" x="103.5" y="-321.5" font-family="Helvetica,sans-Serif" font-size="10.00"># Item()</text>
<text text-anchor="start" x="103.5" y="-310.5" font-family="Helvetica,sans-Serif" font-size="10.00"># Item()</text>
<text text-anchor="start" x="103.5" y="-299.5" font-family="Helvetica,sans-Serif" font-size="10.00"># Item()</text>
<text text-anchor="start" x="103.5" y="-288.5" font-family="Helvetica,sans-Serif" font-size="10.00"># setBudget()</text>
</a>
</g>
</g>
<!-- Node2&#45;&gt;Node1 -->
<g id="edge1" class="edge"><title>Node2&#45;&gt;Node1</title>
<path fill="none" stroke="midnightblue" d="M189.035,-282.525C196.636,-266.485 204.529,-249.829 212.246,-233.544"/>
<polygon fill="none" stroke="midnightblue" points="185.716,-281.355 184.597,-291.89 192.042,-284.352 185.716,-281.355"/>
</g>
<!-- Node3 -->
<g id="node3" class="node"><title>Node3</title>
<polygon fill="none" stroke="#bfbfbf" points="0,-617.5 0,-674.5 62,-674.5 62,-617.5 0,-617.5"/>
<text text-anchor="middle" x="31" y="-662.5" font-family="Helvetica,sans-Serif" font-size="10.00">ItemStruct</text>
<polyline fill="none" stroke="#bfbfbf" points="0,-655.5 62,-655.5 "/>
<text text-anchor="middle" x="31" y="-643.5" font-family="Helvetica,sans-Serif" font-size="10.00"> </text>
<polyline fill="none" stroke="#bfbfbf" points="0,-636.5 62,-636.5 "/>
<text text-anchor="middle" x="31" y="-624.5" font-family="Helvetica,sans-Serif" font-size="10.00"> </text>
</g>
<!-- Node3&#45;&gt;Node2 -->
<g id="edge2" class="edge"><title>Node3&#45;&gt;Node2</title>
<path fill="none" stroke="midnightblue" d="M44.0817,-607.68C51.3511,-587.498 60.7708,-562.224 70,-540 77.8553,-521.084 86.6929,-501.059 95.3759,-481.97"/>
<polygon fill="none" stroke="midnightblue" points="40.7694,-606.548 40.696,-617.142 47.3603,-608.906 40.7694,-606.548"/>
</g>
<!-- Node4 -->
<g id="node4" class="node"><title>Node4</title>
<g id="a_node4"><a xlink:href="../../db/d8e/classnars_1_1entity_1_1BudgetValue.html" target="_top" xlink:title="A triple of priority (current), durability (decay), and quality (long&#45;term average). ">
<polygon fill="none" stroke="black" points="79.5,-540.5 79.5,-751.5 200.5,-751.5 200.5,-540.5 79.5,-540.5"/>
<text text-anchor="middle" x="140" y="-739.5" font-family="Helvetica,sans-Serif" font-size="10.00">nars.entity.BudgetValue</text>
<polyline fill="none" stroke="black" points="79.5,-732.5 200.5,-732.5 "/>
<text text-anchor="start" x="87.5" y="-720.5" font-family="Helvetica,sans-Serif" font-size="10.00"># priority</text>
<text text-anchor="start" x="87.5" y="-709.5" font-family="Helvetica,sans-Serif" font-size="10.00"># durability</text>
<text text-anchor="start" x="87.5" y="-698.5" font-family="Helvetica,sans-Serif" font-size="10.00"># quality</text>
<text text-anchor="start" x="87.5" y="-687.5" font-family="Helvetica,sans-Serif" font-size="10.00">&#45; MARK</text>
<text text-anchor="start" x="87.5" y="-676.5" font-family="Helvetica,sans-Serif" font-size="10.00">&#45; SEPARATOR</text>
<polyline fill="none" stroke="black" points="79.5,-669.5 200.5,-669.5 "/>
<text text-anchor="start" x="87.5" y="-657.5" font-family="Helvetica,sans-Serif" font-size="10.00">+ BudgetValue()</text>
<text text-anchor="start" x="87.5" y="-646.5" font-family="Helvetica,sans-Serif" font-size="10.00">+ BudgetValue()</text>
<text text-anchor="start" x="87.5" y="-635.5" font-family="Helvetica,sans-Serif" font-size="10.00">+ BudgetValue()</text>
<text text-anchor="start" x="87.5" y="-624.5" font-family="Helvetica,sans-Serif" font-size="10.00">+ getPriority()</text>
<text text-anchor="start" x="87.5" y="-613.5" font-family="Helvetica,sans-Serif" font-size="10.00">+ setPriority()</text>
<text text-anchor="start" x="87.5" y="-602.5" font-family="Helvetica,sans-Serif" font-size="10.00">+ incPriority()</text>
<text text-anchor="start" x="87.5" y="-591.5" font-family="Helvetica,sans-Serif" font-size="10.00">+ decPriority()</text>
<text text-anchor="start" x="87.5" y="-580.5" font-family="Helvetica,sans-Serif" font-size="10.00">+ getDurability()</text>
<text text-anchor="start" x="87.5" y="-569.5" font-family="Helvetica,sans-Serif" font-size="10.00">+ setDurability()</text>
<text text-anchor="start" x="87.5" y="-558.5" font-family="Helvetica,sans-Serif" font-size="10.00">+ incDurability()</text>
<text text-anchor="start" x="87.5" y="-547.5" font-family="Helvetica,sans-Serif" font-size="10.00">and 10 more...</text>
</a>
</g>
</g>
<!-- Node4&#45;&gt;Node2 -->
<g id="edge3" class="edge"><title>Node4&#45;&gt;Node2</title>
<path fill="none" stroke="#404040" d="M140,-540.468C140,-528.813 140,-516.886 140,-505.087"/>
<polygon fill="none" stroke="#404040" points="140,-504.856 136,-498.856 140,-492.856 144,-498.856 140,-504.856"/>
<text text-anchor="middle" x="159" y="-514" font-family="Helvetica,sans-Serif" font-size="10.00"> #budget</text>
</g>
<!-- Node5 -->
<g id="node5" class="node"><title>Node5</title>
<polygon fill="none" stroke="#bfbfbf" points="103,-789.5 103,-846.5 177,-846.5 177,-789.5 103,-789.5"/>
<text text-anchor="middle" x="140" y="-834.5" font-family="Helvetica,sans-Serif" font-size="10.00">BudgetStruct</text>
<polyline fill="none" stroke="#bfbfbf" points="103,-827.5 177,-827.5 "/>
<text text-anchor="middle" x="140" y="-815.5" font-family="Helvetica,sans-Serif" font-size="10.00"> </text>
<polyline fill="none" stroke="#bfbfbf" points="103,-808.5 177,-808.5 "/>
<text text-anchor="middle" x="140" y="-796.5" font-family="Helvetica,sans-Serif" font-size="10.00"> </text>
</g>
<!-- Node5&#45;&gt;Node4 -->
<g id="edge4" class="edge"><title>Node5&#45;&gt;Node4</title>
<path fill="none" stroke="midnightblue" d="M140,-779.194C140,-770.797 140,-761.5 140,-751.841"/>
<polygon fill="none" stroke="midnightblue" points="136.5,-779.308 140,-789.308 143.5,-779.308 136.5,-779.308"/>
</g>
<!-- Node6 -->
<g id="node6" class="node"><title>Node6</title>
<g id="a_node6"><a xlink:href="../../d8/db8/classnars_1_1language_1_1Term.html" target="_top" xlink:title="Term is the basic component of Narsese, and the object of processing in NARS. ">
<polygon fill="none" stroke="black" points="277,-292.5 277,-481.5 381,-481.5 381,-292.5 277,-292.5"/>
<text text-anchor="middle" x="329" y="-469.5" font-family="Helvetica,sans-Serif" font-size="10.00">nars.language.Term</text>
<polyline fill="none" stroke="black" points="277,-462.5 381,-462.5 "/>
<text text-anchor="start" x="285" y="-450.5" font-family="Helvetica,sans-Serif" font-size="10.00"># name</text>
<polyline fill="none" stroke="black" points="277,-443.5 381,-443.5 "/>
<text text-anchor="start" x="285" y="-431.5" font-family="Helvetica,sans-Serif" font-size="10.00">+ Term()</text>
<text text-anchor="start" x="285" y="-420.5" font-family="Helvetica,sans-Serif" font-size="10.00">+ getName()</text>
<text text-anchor="start" x="285" y="-409.5" font-family="Helvetica,sans-Serif" font-size="10.00">+ setName()</text>
<text text-anchor="start" x="285" y="-398.5" font-family="Helvetica,sans-Serif" font-size="10.00">+ clone()</text>
<text text-anchor="start" x="285" y="-387.5" font-family="Helvetica,sans-Serif" font-size="10.00">+ equals()</text>
<text text-anchor="start" x="285" y="-376.5" font-family="Helvetica,sans-Serif" font-size="10.00">+ hashCode()</text>
<text text-anchor="start" x="285" y="-365.5" font-family="Helvetica,sans-Serif" font-size="10.00">+ isConstant()</text>
<text text-anchor="start" x="285" y="-354.5" font-family="Helvetica,sans-Serif" font-size="10.00">+ renameVariables()</text>
<text text-anchor="start" x="285" y="-343.5" font-family="Helvetica,sans-Serif" font-size="10.00">+ getComplexity()</text>
<text text-anchor="start" x="285" y="-332.5" font-family="Helvetica,sans-Serif" font-size="10.00">+ compareTo()</text>
<text text-anchor="start" x="285" y="-321.5" font-family="Helvetica,sans-Serif" font-size="10.00">+ containTerm()</text>
<text text-anchor="start" x="285" y="-310.5" font-family="Helvetica,sans-Serif" font-size="10.00">+ toString()</text>
<text text-anchor="start" x="285" y="-299.5" font-family="Helvetica,sans-Serif" font-size="10.00"># Term()</text>
</a>
</g>
</g>
<!-- Node6&#45;&gt;Node1 -->
<g id="edge5" class="edge"><title>Node6&#45;&gt;Node1</title>
<path fill="none" stroke="#404040" d="M307.315,-292.267C303.837,-277.231 300.186,-261.45 296.562,-245.783"/>
<polygon fill="none" stroke="#404040" points="296.503,-245.529 291.254,-240.585 293.798,-233.838 299.048,-238.782 296.503,-245.529"/>
<text text-anchor="middle" x="315.5" y="-255" font-family="Helvetica,sans-Serif" font-size="10.00"> &#45;target</text>
</g>
<!-- Node7 -->
<g id="node7" class="node"><title>Node7</title>
<polygon fill="none" stroke="#bfbfbf" points="218,-617.5 218,-674.5 278,-674.5 278,-617.5 218,-617.5"/>
<text text-anchor="middle" x="248" y="-662.5" font-family="Helvetica,sans-Serif" font-size="10.00">Cloneable</text>
<polyline fill="none" stroke="#bfbfbf" points="218,-655.5 278,-655.5 "/>
<text text-anchor="middle" x="248" y="-643.5" font-family="Helvetica,sans-Serif" font-size="10.00"> </text>
<polyline fill="none" stroke="#bfbfbf" points="218,-636.5 278,-636.5 "/>
<text text-anchor="middle" x="248" y="-624.5" font-family="Helvetica,sans-Serif" font-size="10.00"> </text>
</g>
<!-- Node7&#45;&gt;Node6 -->
<g id="edge6" class="edge"><title>Node7&#45;&gt;Node6</title>
<path fill="none" stroke="midnightblue" d="M259.716,-607.828C270.1,-574.879 285.711,-525.349 299.487,-481.641"/>
<polygon fill="none" stroke="midnightblue" points="256.336,-606.907 256.668,-617.496 263.013,-609.011 256.336,-606.907"/>
</g>
<!-- Node8 -->
<g id="node8" class="node"><title>Node8</title>
<polygon fill="none" stroke="#bfbfbf" points="296,-617.5 296,-674.5 406,-674.5 406,-617.5 296,-617.5"/>
<text text-anchor="middle" x="351" y="-662.5" font-family="Helvetica,sans-Serif" font-size="10.00">Comparable&lt; Term &gt;</text>
<polyline fill="none" stroke="#bfbfbf" points="296,-655.5 406,-655.5 "/>
<text text-anchor="middle" x="351" y="-643.5" font-family="Helvetica,sans-Serif" font-size="10.00"> </text>
<polyline fill="none" stroke="#bfbfbf" points="296,-636.5 406,-636.5 "/>
<text text-anchor="middle" x="351" y="-624.5" font-family="Helvetica,sans-Serif" font-size="10.00"> </text>
</g>
<!-- Node8&#45;&gt;Node6 -->
<g id="edge7" class="edge"><title>Node8&#45;&gt;Node6</title>
<path fill="none" stroke="midnightblue" d="M347.781,-607.401C344.961,-574.452 340.741,-525.161 337.016,-481.641"/>
<polygon fill="none" stroke="midnightblue" points="344.305,-607.831 348.646,-617.496 351.28,-607.234 344.305,-607.831"/>
</g>
<!-- Node9 -->
<g id="node9" class="node"><title>Node9</title>
<polygon fill="none" stroke="#bfbfbf" points="424.5,-617.5 424.5,-674.5 489.5,-674.5 489.5,-617.5 424.5,-617.5"/>
<text text-anchor="middle" x="457" y="-662.5" font-family="Helvetica,sans-Serif" font-size="10.00">TermStruct</text>
<polyline fill="none" stroke="#bfbfbf" points="424.5,-655.5 489.5,-655.5 "/>
<text text-anchor="middle" x="457" y="-643.5" font-family="Helvetica,sans-Serif" font-size="10.00"> </text>
<polyline fill="none" stroke="#bfbfbf" points="424.5,-636.5 489.5,-636.5 "/>
<text text-anchor="middle" x="457" y="-624.5" font-family="Helvetica,sans-Serif" font-size="10.00"> </text>
</g>
<!-- Node9&#45;&gt;Node6 -->
<g id="edge8" class="edge"><title>Node9&#45;&gt;Node6</title>
<path fill="none" stroke="midnightblue" d="M443.535,-607.843C435.822,-587.516 425.591,-562.054 415,-540 404.762,-518.681 392.78,-496.243 381.065,-475.346"/>
<polygon fill="none" stroke="midnightblue" points="440.32,-609.238 447.11,-617.372 446.874,-606.779 440.32,-609.238"/>
</g>
</g>
</svg>
