ply
format ascii 1.0
comment created by ply_export.py from Blender
element vertex 200
property float32 x
property float32 y
property float32 z
property float32 nx
property float32 ny
property float32 nz
property float32 s
property float32 t
property uint8 red
property uint8 green
property uint8 blue
element face 224
property list uint8 int32 vertex_indices
end_header
3.299044 2.693607 20.732981 0.707083 -0.707083 0.000000 0.532191 0.915657 255 255 255
4.474644 2.693607 20.732981 -0.707083 -0.707083 0.000000 0.532410 0.548515 255 255 255
4.474644 2.693607 20.761066 0.577349 -0.577349 0.577349 0.532410 0.548515 255 255 255
3.299044 2.693607 20.761066 -0.408246 -0.408246 0.816492 0.532191 0.915657 255 255 255
4.474644 2.740080 20.732981 -0.707083 0.707083 0.000000 0.546924 0.548524 255 255 255
3.299044 2.740080 20.732981 0.707083 0.707083 0.000000 0.546704 0.915665 255 255 255
3.299044 2.740080 20.761066 -0.408246 0.408246 0.816492 0.546704 0.915665 255 255 255
4.474644 2.740080 20.761066 0.577349 0.577349 0.577349 0.546924 0.548524 255 255 255
4.474644 2.716228 20.732981 0.209235 0.127018 0.969573 0.539475 0.548519 255 255 255
4.474644 2.716228 20.761066 0.707083 0.000000 0.707083 0.539475 0.548519 255 255 255
3.299044 2.716228 20.732981 0.155828 0.128300 0.979400 0.539256 0.915661 255 255 255
3.299044 2.716228 20.761066 -0.707083 0.000000 0.707083 0.539256 0.915661 255 255 255
3.881194 2.716228 20.761066 0.000000 0.000000 1.000000 0.539364 0.733855 255 255 255
3.214126 3.193367 20.732981 0.151433 0.150456 0.976928 0.688251 0.942270 255 255 255
3.214126 3.431937 20.732981 0.151158 0.161412 0.975219 0.762757 0.942314 255 255 255
3.214126 3.431937 20.756403 0.707083 0.000000 0.707083 0.762757 0.942314 255 255 255
3.214126 3.193367 20.756403 0.554674 0.000000 0.832026 0.688251 0.942270 255 255 255
3.214126 3.670506 20.732981 0.150884 0.172308 0.973388 0.837262 0.942359 255 255 255
3.214126 3.670506 20.756403 0.301492 -0.301492 0.904508 0.837262 0.942359 255 255 255
3.214126 2.954798 20.732981 0.151677 0.139439 0.978515 0.613746 0.942225 255 255 255
3.214126 2.954798 20.756403 0.707083 0.000000 0.707083 0.613746 0.942225 255 255 255
3.214126 2.716228 20.732981 0.151921 0.128391 0.980010 0.539240 0.942181 255 255 255
3.214126 2.716228 20.756403 0.707083 0.000000 0.707083 0.539240 0.942181 255 255 255
3.299044 3.670506 20.732981 0.154790 0.172216 0.972808 0.837278 0.915839 255 255 255
3.881194 3.670506 20.732981 0.181249 0.171422 0.968352 0.837386 0.734032 255 255 255
3.881194 3.670506 20.756403 0.000000 -0.554674 0.832026 0.837386 0.734032 255 255 255
3.299044 3.670506 20.756403 0.000000 -0.707083 0.707083 0.837278 0.915839 255 255 255
4.474644 3.670506 20.732981 0.207862 0.170507 0.963164 0.837497 0.548697 255 255 255
4.474644 3.670506 20.756403 0.000000 -0.707083 0.707083 0.837497 0.548697 255 255 255
4.548261 3.670506 20.732981 0.211127 0.170385 0.962462 0.837511 0.525706 255 255 255
4.548261 3.670506 20.756403 0.000000 -0.707083 0.707083 0.837511 0.525706 255 255 255
5.215330 3.670506 20.732981 0.240425 0.169195 0.955779 0.837635 0.317380 255 255 255
5.812470 3.670506 20.732981 0.266091 0.168035 0.949156 0.837746 0.130892 255 255 255
5.548864 3.670506 20.756403 0.000000 -0.707083 0.707083 0.837697 0.213217 255 255 255
5.215330 3.670506 20.756403 0.000000 -0.554674 0.832026 0.837635 0.317380 255 255 255
5.882399 3.670506 20.732981 0.269051 0.167882 0.948363 0.837759 0.109053 255 255 255
5.882399 3.670506 20.756403 -0.301492 -0.301492 0.904508 0.837759 0.109053 255 255 255
4.622877 3.670506 20.732981 0.214423 0.170263 0.961760 0.837525 0.502403 255 255 255
4.881795 3.670506 20.756403 0.000000 -0.707083 0.707083 0.837573 0.421543 255 255 255
5.882399 3.601416 20.732981 -0.001404 0.999969 0.000000 0.816182 0.109040 255 255 255
5.882399 3.193367 20.732981 0.269997 0.146550 0.951628 0.688748 0.108964 255 255 255
5.882399 3.193367 20.756403 -0.554674 0.000000 0.832026 0.688748 0.108964 255 255 255
5.882399 3.431936 20.756403 -0.707083 0.000000 0.707083 0.763254 0.109009 255 255 255
5.882399 2.738279 20.732981 0.270760 0.126041 0.954344 0.546624 0.108880 255 255 255
5.882399 2.954797 20.756403 -0.707083 0.000000 0.707083 0.614242 0.108920 255 255 255
5.882399 2.716228 20.732981 0.270791 0.125034 0.954466 0.539737 0.108875 255 255 255
5.882399 2.716228 20.756403 -0.707083 0.000000 0.707083 0.539737 0.108875 255 255 255
3.214126 2.005590 20.732981 0.152470 0.095157 0.983703 0.317307 0.942048 255 255 255
3.214126 2.242469 20.732981 0.152318 0.106265 0.982574 0.391284 0.942092 255 255 255
3.214126 2.242469 20.756403 0.554674 0.000000 0.832026 0.391284 0.942092 255 255 255
3.214126 2.005590 20.756403 0.707083 0.000000 0.707083 0.317307 0.942048 255 255 255
3.214126 1.768711 20.732981 0.152623 0.083987 0.984680 0.243329 0.942004 255 255 255
3.214126 1.768711 20.756403 0.301492 0.301492 0.904508 0.243329 0.942004 255 255 255
3.214126 2.479349 20.732981 0.152135 0.117344 0.981353 0.465262 0.942137 255 255 255
3.214126 2.479349 20.756403 0.707083 0.000000 0.707083 0.465262 0.942137 255 255 255
3.881194 1.768711 20.732981 0.183355 0.083529 0.979461 0.243453 0.733678 255 255 255
3.299044 1.768711 20.732981 0.156560 0.083926 0.984069 0.243345 0.915484 255 255 255
3.299044 1.768711 20.756403 0.000000 0.707083 0.707083 0.243345 0.915484 255 255 255
3.881194 1.768711 20.756403 0.000000 0.554674 0.832026 0.243453 0.733678 255 255 255
4.474644 1.768711 20.732981 0.210212 0.083071 0.974090 0.243564 0.548343 255 255 255
4.474644 1.768711 20.756403 0.000000 0.707083 0.707083 0.243564 0.548343 255 255 255
4.548261 1.768711 20.732981 0.213507 0.083010 0.973388 0.243578 0.525352 255 255 255
4.548261 1.768711 20.756403 0.000000 0.707083 0.707083 0.243578 0.525352 255 255 255
5.882399 2.242469 20.732981 0.271462 0.103488 0.956847 0.391782 0.108787 255 255 255
5.882399 1.836133 20.732981 0.000000 -1.000000 0.000000 0.264882 0.108711 255 255 255
5.882399 2.005589 20.756403 -0.707083 0.000000 0.707083 0.317804 0.108743 255 255 255
5.882399 2.242469 20.756403 -0.554674 0.000000 0.832026 0.391782 0.108787 255 255 255
5.882399 1.768710 20.732981 0.272011 0.081790 0.958800 0.243826 0.108699 255 255 255
5.882399 1.768710 20.756403 -0.301492 0.301492 0.904508 0.243826 0.108699 255 255 255
5.882399 2.691016 20.732981 0.270821 0.123875 0.954588 0.531863 0.108871 255 255 255
5.882399 2.479348 20.756403 -0.707083 0.000000 0.707083 0.465759 0.108831 255 255 255
5.812470 1.768710 20.732981 0.269021 0.081851 0.959624 0.243813 0.130538 255 255 255
5.215330 1.768710 20.732981 0.039491 0.000000 -0.999207 0.243702 0.317025 255 255 255
5.215330 1.768710 20.756403 0.000000 0.554674 0.832026 0.243702 0.317025 255 255 255
5.548864 1.768710 20.756403 0.000000 0.707083 0.707083 0.243764 0.212863 255 255 255
4.622877 1.768711 20.732981 0.039491 0.000000 -0.999207 0.243592 0.502049 255 255 255
4.881795 1.768711 20.756403 0.000000 0.707083 0.707083 0.243640 0.421189 255 255 255
3.168299 3.670506 20.732981 -1.000000 0.000000 0.000000 0.837253 0.956670 255 255 255
3.168299 2.716228 20.732981 -1.000000 0.000000 0.000000 0.539231 0.956493 255 255 255
3.168299 2.716228 20.756403 -0.316202 0.000000 0.948668 0.539231 0.956493 255 255 255
3.168299 3.670506 20.756403 -0.447188 0.000000 0.894406 0.837253 0.956670 255 255 255
3.168299 3.716228 20.732981 -0.707083 0.707083 0.000000 0.851532 0.956679 255 255 255
3.168299 3.716228 20.756403 -0.577349 0.577349 0.577349 0.851532 0.956679 255 255 255
3.168299 1.768711 20.732981 -1.000000 0.000000 0.000000 0.243321 0.956316 255 255 255
3.168299 1.768711 20.756403 -0.447188 0.000000 0.894406 0.243321 0.956316 255 255 255
3.168299 1.716228 20.732981 -0.707083 -0.707083 0.000000 0.226930 0.956306 255 255 255
3.168299 1.716228 20.756403 -0.577349 -0.577349 0.577349 0.226930 0.956306 255 255 255
4.548261 3.716228 20.732981 0.000000 1.000000 0.000000 0.851789 0.525715 255 255 255
3.214126 3.716228 20.732981 0.000000 1.000000 0.000000 0.851541 0.942367 255 255 255
3.214126 3.716228 20.756403 0.000000 0.447188 0.894406 0.851541 0.942367 255 255 255
4.548261 3.716228 20.756403 0.000000 0.316202 0.948668 0.851789 0.525715 255 255 255
5.882399 3.716228 20.732981 0.000000 1.000000 0.000000 0.852038 0.109062 255 255 255
5.882399 3.716228 20.756403 0.000000 0.447188 0.894406 0.852038 0.109062 255 255 255
5.928222 3.716228 20.732981 0.707083 0.707083 0.000000 0.852047 0.094751 255 255 255
5.928222 3.716228 20.756403 0.577349 0.577349 0.577349 0.852047 0.094751 255 255 255
5.928222 1.768710 20.732981 1.000000 0.000000 0.000000 0.243835 0.094388 255 255 255
5.928222 2.716228 20.732981 1.000000 0.000000 0.000000 0.539746 0.094565 255 255 255
5.928222 2.716228 20.756403 0.316202 0.000000 0.948668 0.539746 0.094565 255 255 255
5.928222 1.768710 20.756403 0.447188 0.000000 0.894406 0.243835 0.094388 255 255 255
5.928222 1.716228 20.732981 0.707083 -0.707083 0.000000 0.227445 0.094378 255 255 255
5.928222 1.716228 20.756403 0.577349 -0.577349 0.577349 0.227445 0.094378 255 255 255
5.928222 3.670506 20.732981 1.000000 0.000000 0.000000 0.837768 0.094743 255 255 255
5.928222 3.670506 20.756403 0.447188 0.000000 0.894406 0.837768 0.094743 255 255 255
3.214126 1.716228 20.732981 0.000000 -1.000000 0.000000 0.226939 0.941994 255 255 255
4.548261 1.716228 20.732981 0.000000 -1.000000 0.000000 0.227187 0.525342 255 255 255
4.548261 1.716228 20.756403 0.000000 -0.316202 0.948668 0.227187 0.525342 255 255 255
3.214126 1.716228 20.756403 0.000000 -0.447188 0.894406 0.226939 0.941994 255 255 255
5.882399 1.716228 20.732981 0.000000 -1.000000 0.000000 0.227436 0.108689 255 255 255
5.882399 1.716228 20.756403 0.000000 -0.447188 0.894406 0.227436 0.108689 255 255 255
4.474644 1.836080 20.732981 -0.550340 0.560472 0.618824 0.264603 0.548355 255 255 255
3.299044 1.836080 20.732981 0.707083 0.707083 0.000000 0.264384 0.915497 255 255 255
3.299044 1.836080 20.742107 0.235694 0.235694 0.942808 0.264384 0.915497 255 255 255
4.474644 1.836080 20.742107 -0.210334 0.213660 0.953978 0.264603 0.548355 255 255 255
3.299044 3.601448 20.732981 0.707083 -0.707083 0.000000 0.815711 0.915826 255 255 255
4.474644 3.601447 20.732981 -0.550371 -0.560472 0.618824 0.815930 0.548684 255 255 255
4.474644 3.601447 20.742107 -0.210364 -0.213660 0.953978 0.815930 0.548684 255 255 255
3.299044 3.601448 20.742107 0.235694 -0.235694 0.942808 0.815711 0.915826 255 255 255
3.299044 2.716228 20.742107 0.707083 0.000000 0.707083 0.539256 0.915661 255 255 255
3.299044 2.693607 20.742107 0.554674 0.000000 0.832026 0.532191 0.915657 255 255 255
3.299044 2.740080 20.742107 0.554674 0.000000 0.832026 0.546704 0.915665 255 255 255
3.214126 3.193367 20.742107 -0.707083 0.000000 0.707083 0.688251 0.942270 255 255 255
3.214126 3.431937 20.742107 -0.707083 0.000000 0.707083 0.762757 0.942314 255 255 255
3.214126 3.670506 20.742107 -0.577349 0.577349 0.577349 0.837262 0.942359 255 255 255
3.214126 2.954798 20.742107 -0.707083 0.000000 0.707083 0.613746 0.942225 255 255 255
3.214126 2.716228 20.742107 -0.707083 0.000000 0.707083 0.539240 0.942181 255 255 255
3.299044 3.670506 20.742107 0.000000 0.707083 0.707083 0.837278 0.915839 255 255 255
3.881194 3.670506 20.742107 0.000000 0.707083 0.707083 0.837386 0.734032 255 255 255
4.474644 3.670506 20.742107 0.000000 0.707083 0.707083 0.837497 0.548697 255 255 255
4.548261 3.670506 20.742107 -0.001770 0.708060 0.706137 0.837511 0.525706 255 255 255
3.214126 2.005590 20.742107 -0.707083 0.000000 0.707083 0.317307 0.942048 255 255 255
3.214126 2.242469 20.742107 -0.707083 0.000000 0.707083 0.391284 0.942092 255 255 255
3.214126 1.768711 20.742107 -0.577349 -0.577349 0.577349 0.243329 0.942004 255 255 255
3.214126 2.479349 20.742107 -0.707083 0.000000 0.707083 0.465262 0.942137 255 255 255
3.881194 1.768711 20.742107 0.000000 -0.707083 0.707083 0.243453 0.733678 255 255 255
3.299044 1.768711 20.742107 0.000000 -0.707083 0.707083 0.243345 0.915484 255 255 255
4.474644 1.768711 20.742107 0.000000 -0.707083 0.707083 0.243564 0.548343 255 255 255
4.548261 1.768711 20.742107 -0.001770 -0.708090 0.706107 0.243578 0.525352 255 255 255
4.548261 3.601417 20.732981 0.122349 0.106265 0.986755 0.815934 0.525693 255 255 255
4.548261 3.431937 20.742107 0.578692 0.029206 0.814997 0.763005 0.525662 255 255 255
4.548261 1.836133 20.732981 0.122410 -0.106265 0.986755 0.264634 0.525364 255 255 255
4.548261 2.005590 20.742107 0.578722 -0.029206 0.814997 0.317556 0.525396 255 255 255
4.474644 2.693607 20.742542 -0.554979 -0.000214 0.831843 0.532410 0.548515 255 255 255
4.474644 2.716228 20.742542 -0.707083 0.000000 0.707083 0.539475 0.548519 255 255 255
4.474644 2.740080 20.742542 -0.554979 0.000214 0.831843 0.546924 0.548524 255 255 255
4.548261 3.193367 20.732981 0.211890 0.148747 0.965880 0.688500 0.525617 255 255 255
4.548261 3.193367 20.742542 -0.001068 0.000061 0.999969 0.688500 0.525617 255 255 255
4.548261 2.738279 20.732981 0.212500 0.127934 0.968719 0.546375 0.525532 255 255 255
4.548261 2.954797 20.742542 0.707083 0.000000 0.707083 0.613994 0.525573 255 255 255
4.548261 2.716228 20.732981 0.212531 0.126926 0.968871 0.539488 0.525528 255 255 255
4.548261 2.716228 20.742542 -0.001038 -0.000244 0.999969 0.539488 0.525528 255 255 255
4.548261 2.242469 20.732981 0.213080 0.105045 0.971343 0.391533 0.525440 255 255 255
4.548261 2.242469 20.742542 -0.001068 -0.000305 0.999969 0.391533 0.525440 255 255 255
4.548261 2.691016 20.732981 0.212561 0.125767 0.968993 0.531615 0.525524 255 255 255
4.548261 2.479349 20.742542 0.707083 0.000000 0.707083 0.465511 0.525484 255 255 255
4.622812 2.690187 20.732981 0.707083 -0.707083 0.000000 0.531370 0.502241 255 255 255
4.622877 2.716228 20.732981 -1.000000 0.000000 0.000000 0.539502 0.502226 255 255 255
4.622877 2.716228 20.742857 0.706351 -0.000183 0.707816 0.539502 0.502226 255 255 255
4.622812 2.690187 20.742857 0.553728 0.000855 0.832667 0.531370 0.502241 255 255 255
4.622812 2.738279 20.732981 0.707083 0.707083 0.000000 0.546389 0.502250 255 255 255
4.622812 2.738279 20.742857 0.706229 -0.001373 0.707938 0.546389 0.502250 255 255 255
5.812470 1.836133 20.732981 -1.000000 0.000000 0.000000 0.264869 0.130550 255 255 255
4.622812 1.836133 20.732981 0.707083 0.707083 0.000000 0.264648 0.502082 255 255 255
4.622812 1.836133 20.742857 0.234016 0.234596 0.943480 0.264648 0.502082 255 255 255
5.812470 1.836133 20.742857 -0.316691 -0.000153 0.948515 0.264869 0.130550 255 255 255
4.622812 3.601316 20.732981 0.707083 -0.707083 0.000000 0.815916 0.502411 255 255 255
4.622812 3.601316 20.742857 0.191015 -0.191595 0.962676 0.815916 0.502411 255 255 255
5.812470 3.601316 20.732981 -1.000000 0.000000 0.000000 0.816138 0.130879 255 255 255
5.812470 3.601316 20.742857 -0.243233 0.000244 0.969939 0.816138 0.130879 255 255 255
5.215330 3.670506 20.742857 0.000000 0.707083 0.707083 0.837635 0.317380 255 255 255
5.812470 3.670506 20.742857 0.000000 0.707083 0.707083 0.837746 0.130892 255 255 255
5.882399 3.670506 20.742857 0.577349 0.577349 0.577349 0.837759 0.109053 255 255 255
4.622877 3.670506 20.742857 -0.001770 0.708060 0.706137 0.837525 0.502403 255 255 255
5.882399 3.601416 20.742857 0.666311 0.333659 0.666799 0.816182 0.109040 255 255 255
5.882399 1.836133 20.742857 0.666280 -0.333598 0.666860 0.264882 0.108711 255 255 255
5.882399 1.768710 20.742857 0.577349 -0.577349 0.577349 0.243826 0.108699 255 255 255
5.812470 1.768710 20.742857 0.000000 -0.707083 0.707083 0.243813 0.130538 255 255 255
5.215330 1.768710 20.742857 0.000000 -0.707083 0.707083 0.243702 0.317025 255 255 255
4.622877 1.768711 20.742857 -0.001770 -0.708090 0.706107 0.243592 0.502049 255 255 255
4.548261 3.601417 20.742857 -0.707968 0.001617 0.706198 0.815934 0.525693 255 255 255
4.548261 2.738279 20.742857 -0.707968 -0.002411 0.706229 0.546375 0.525532 255 255 255
4.548261 1.836133 20.742857 -0.708487 -0.001862 0.705679 0.264634 0.525364 255 255 255
4.548261 2.691016 20.742857 -0.707450 0.001923 0.706717 0.531615 0.525524 255 255 255
5.812470 2.716228 20.732981 0.267800 0.125126 0.955290 0.539724 0.130714 255 255 255
5.812470 2.690187 20.732981 -0.707083 -0.707083 0.000000 0.531592 0.130709 255 255 255
5.812470 2.690187 20.743195 -0.555010 -0.000122 0.831813 0.531592 0.130709 255 255 255
5.812470 2.716228 20.743195 -0.707083 0.000000 0.707083 0.539724 0.130714 255 255 255
5.812470 2.738279 20.732981 -0.707083 0.707083 0.000000 0.546611 0.130718 255 255 255
5.812470 2.738279 20.743195 -0.707389 0.000061 0.706809 0.546611 0.130718 255 255 255
5.882399 3.193367 20.743195 0.706809 0.000366 0.707389 0.688748 0.108964 255 255 255
5.882399 2.738279 20.743195 0.706809 0.000061 0.707389 0.546624 0.108880 255 255 255
5.882399 2.716228 20.743195 0.707083 0.000000 0.707083 0.539737 0.108875 255 255 255
5.882399 2.242469 20.743195 0.706778 -0.000183 0.707389 0.391782 0.108787 255 255 255
5.882399 2.691016 20.743195 0.707083 0.000000 0.707083 0.531863 0.108871 255 255 255
5.812470 2.716228 20.756365 0.707083 0.000000 0.707083 0.539724 0.130714 255 255 255
5.812470 2.690187 20.756365 0.577349 -0.577349 0.577349 0.531592 0.130709 255 255 255
4.622812 2.690187 20.756365 -0.408399 -0.407392 0.816828 0.531370 0.502241 255 255 255
4.622877 2.716228 20.756365 -0.707083 -0.000153 0.707083 0.539502 0.502226 255 255 255
4.622812 2.738279 20.756365 -0.408429 0.407239 0.816889 0.546389 0.502250 255 255 255
5.812470 2.738279 20.756365 0.577349 0.577349 0.577349 0.546611 0.130718 255 255 255
5.215330 2.716228 20.756365 0.000000 0.000000 1.000000 0.539613 0.317202 255 255 255
4 0 1 2 3
4 4 5 6 7
4 1 8 9 2
4 10 0 3 11
4 8 4 7 9
4 5 10 11 6
4 3 2 9 12
3 3 12 11
4 12 9 7 6
3 11 12 6
4 13 14 15 16
4 14 17 18 15
4 19 13 16 20
4 21 19 20 22
4 23 24 25 26
4 17 23 26 18
4 24 27 28 25
4 27 29 30 28
4 31 32 33 34
4 32 35 36 33
4 37 31 34 38
4 29 37 38 30
4 39 40 41 42
4 35 39 42 36
4 40 43 44 41
4 43 45 46 44
4 47 48 49 50
4 51 47 50 52
4 48 53 54 49
4 53 21 22 54
4 55 56 57 58
4 56 51 52 57
4 59 55 58 60
4 61 59 60 62
4 63 64 65 66
4 64 67 68 65
4 69 63 66 70
4 45 69 70 46
4 71 72 73 74
4 67 71 74 68
4 72 75 76 73
4 75 61 62 76
4 77 78 79 80
4 81 77 80 82
4 78 83 84 79
4 83 85 86 84
4 87 88 89 90
4 88 81 82 89
4 91 87 90 92
4 93 91 92 94
4 95 96 97 98
4 99 95 98 100
4 96 101 102 97
4 101 93 94 102
4 103 104 105 106
4 85 103 106 86
4 104 107 108 105
4 107 99 100 108
4 108 100 98 68
4 86 106 52 84
4 94 92 36 102
4 80 18 89 82
3 73 105 108
3 66 98 97
3 58 106 105
3 49 79 84
3 41 97 102
3 34 92 90
3 16 80 79
3 25 90 89
3 68 74 108
3 74 73 108
3 73 76 105
3 76 62 105
3 46 70 97
3 70 66 97
3 66 65 98
3 65 68 98
3 62 60 105
3 60 58 105
3 58 57 106
3 57 52 106
3 52 50 84
3 50 49 84
3 49 54 79
3 54 22 79
3 36 42 102
3 42 41 102
3 41 44 97
3 44 46 97
3 30 38 90
3 38 34 90
3 34 33 92
3 33 36 92
3 22 20 79
3 20 16 79
3 16 15 80
3 15 18 80
3 18 26 89
3 26 25 89
3 25 28 90
3 28 30 90
4 109 110 111 112
4 113 114 115 116
4 0 10 117 118
4 10 5 119 117
4 5 113 116 119
4 110 0 118 111
4 14 13 120 121
4 17 14 121 122
4 13 19 123 120
4 19 21 124 123
4 24 23 125 126
4 23 17 122 125
4 27 24 126 127
4 29 27 127 128
4 48 47 129 130
4 47 51 131 129
4 53 48 130 132
4 21 53 132 124
4 56 55 133 134
4 51 56 134 131
4 55 59 135 133
4 59 61 136 135
4 137 29 128 138
4 61 139 140 136
4 135 136 140 112
4 133 135 112 111
3 134 133 111
4 131 134 111 129
4 129 111 118 130
3 130 118 132
4 132 118 117 124
4 124 117 119 123
3 123 119 120
4 115 138 128 127
4 116 115 127 126
4 120 119 116 121
3 116 126 125
4 121 116 125 122
4 8 1 141 142
4 4 8 142 143
4 114 4 143 115
4 137 114 115 138
4 1 109 112 141
4 109 139 140 112
4 144 137 138 145
4 146 144 145 147
4 148 146 147 149
4 139 150 151 140
4 150 152 153 151
4 152 148 149 153
4 112 140 151 141
3 141 151 153
4 141 153 149 142
4 142 149 147 143
3 143 147 145
4 143 145 138 115
4 154 155 156 157
4 155 158 159 156
4 160 161 162 163
4 158 164 165 159
4 164 166 167 165
4 161 154 157 162
4 32 31 168 169
4 35 32 169 170
4 31 37 171 168
4 37 29 128 171
4 39 35 170 172
4 67 64 173 174
4 72 71 175 176
4 71 67 174 175
4 75 72 176 177
4 61 75 177 136
4 137 144 145 178
4 29 137 178 128
4 144 146 179 145
4 146 148 149 179
4 150 139 180 151
4 139 61 136 180
4 152 150 151 181
4 148 152 181 149
4 175 174 173 163
4 176 175 163 162
3 177 176 162
4 136 177 162 180
4 180 162 157 151
3 151 157 181
4 181 157 156 149
4 149 156 159 179
4 179 159 165 145
4 167 172 170 169
4 165 167 169 168
3 145 165 178
3 165 168 171
4 178 165 171 128
4 182 183 184 185
4 39 166 167 172
4 166 186 187 167
4 186 182 185 187
4 183 160 163 184
4 160 64 173 163
4 40 39 172 188
4 43 40 188 189
4 45 43 189 190
4 64 63 191 173
4 63 69 192 191
4 69 45 190 192
4 163 173 191 184
3 184 191 192
4 184 192 190 185
4 185 190 189 187
4 187 189 188 167
3 167 188 172
4 183 182 193 194
4 155 154 195 196
4 158 155 196 197
4 186 158 197 198
4 182 186 198 193
4 154 183 194 195
4 195 194 193 199
3 195 199 196
4 199 193 198 197
3 196 199 197
