ply
format ascii 1.0
comment created by ply_export.py from Blender
element vertex 492
property float32 x
property float32 y
property float32 z
property float32 nx
property float32 ny
property float32 nz
element face 582
property list uint8 int32 vertex_indices
end_header
-0.000001 -0.000001 -1.414214 0.000000 0.000000 -1.000000
0.210403 0.068364 -1.396803 0.148747 0.048311 -0.987671
0.221231 0.000000 -1.396802 0.156407 0.000000 -0.987671
0.415626 0.135045 -1.344997 0.293832 0.095462 -0.951048
0.437015 0.000000 -1.344997 0.308969 0.000000 -0.951048
0.610615 0.198401 -1.260074 0.431715 0.140263 -0.891018
0.642039 0.000000 -1.260074 0.453932 0.000000 -0.891018
0.790569 0.256871 -1.144123 0.558946 0.181616 -0.809046
0.831253 0.000000 -1.144123 0.587725 0.000000 -0.809046
0.951056 0.309017 -1.000001 0.672445 0.218482 -0.707144
1.000000 0.000000 -1.000000 0.707022 0.000000 -0.707144
1.088125 0.353553 -0.831254 0.769372 0.249977 -0.587817
1.144122 0.000000 -0.831254 0.808954 0.000000 -0.587817
1.198401 0.389384 -0.642040 0.847346 0.275307 -0.454024
1.260073 0.000000 -0.642040 0.890957 0.000000 -0.454024
1.279168 0.415627 -0.437016 0.904477 0.293863 -0.309030
1.344997 0.000000 -0.437016 0.951018 0.000000 -0.309030
1.328438 0.431636 -0.221232 0.939329 0.305185 -0.156438
1.396802 0.000000 -0.221232 0.987671 0.000000 -0.156438
1.344997 0.437016 -0.000000 0.951048 0.309000 0.000000
1.414214 0.000000 -0.000000 1.000000 0.000000 0.000000
1.328438 0.431636 0.221232 0.939329 0.305185 0.156438
1.396802 0.000000 0.221232 0.987671 0.000000 0.156438
1.279168 0.415627 0.437016 0.904477 0.293863 0.309030
1.344997 0.000000 0.437016 0.951018 0.000000 0.309030
1.198401 0.389384 0.642040 0.847346 0.275307 0.454024
1.260073 0.000000 0.642040 0.890957 0.000000 0.454024
1.088125 0.353553 0.831254 0.769372 0.249977 0.587817
1.144123 0.000000 0.831254 0.808954 0.000000 0.587817
0.951056 0.309017 1.000000 0.672445 0.218482 0.707144
1.000000 0.000000 1.000000 0.700247 -0.010559 0.713797
0.790569 0.256872 1.144123 0.557939 0.167211 0.812830
0.831254 0.000000 1.144123 0.605213 0.026276 0.795618
0.210404 0.068364 1.396802 0.148747 0.048311 0.987671
0.221232 0.000000 1.396802 0.170232 -0.001434 0.985382
0.437016 0.000000 1.344997 0.286630 0.015259 0.957915
0.415627 0.135045 1.344997 0.301279 0.092898 0.948973
0.000000 0.000000 1.414214 0.000000 0.000000 1.000000
0.178980 0.130037 1.396802 0.126530 0.091922 0.987671
0.353553 0.256872 1.344997 0.249947 0.181585 0.951048
0.610616 0.198401 1.260073 0.436384 0.125736 0.890896
0.519421 0.377381 1.260073 0.367229 0.266793 0.891018
0.672498 0.488599 1.144123 0.475478 0.345439 0.809046
0.809017 0.587785 1.000000 0.572008 0.415571 0.707144
0.925615 0.672499 0.831254 0.654469 0.475478 0.587817
1.019421 0.740653 0.642040 0.720817 0.523698 0.454024
1.088125 0.790569 0.437016 0.769402 0.559008 0.309030
1.130037 0.821020 0.221232 0.799036 0.580523 0.156438
1.144123 0.831254 -0.000000 0.809015 0.587756 0.000000
1.130037 0.821020 -0.221232 0.799036 0.580523 -0.156438
1.088125 0.790569 -0.437016 0.769402 0.559008 -0.309030
1.019421 0.740653 -0.642040 0.720817 0.523698 -0.454024
0.925614 0.672498 -0.831254 0.654469 0.475478 -0.587817
0.809016 0.587785 -1.000001 0.572008 0.415571 -0.707144
0.672498 0.488598 -1.144123 0.475478 0.345439 -0.809046
0.519420 0.377381 -1.260074 0.367229 0.266793 -0.891018
0.353553 0.256871 -1.344997 0.249947 0.181585 -0.951048
0.178979 0.130036 -1.396803 0.126530 0.091922 -0.987671
0.130036 0.178979 -1.396803 0.091922 0.126530 -0.987671
0.256871 0.353553 -1.344997 0.181585 0.249947 -0.951048
0.377381 0.519420 -1.260074 0.266793 0.367229 -0.891018
0.488598 0.672498 -1.144123 0.345439 0.475478 -0.809046
0.587785 0.809017 -1.000001 0.415571 0.572008 -0.707144
0.672498 0.925615 -0.831254 0.475478 0.654469 -0.587817
0.740652 1.019421 -0.642040 0.523698 0.720817 -0.454024
0.790569 1.088125 -0.437016 0.559008 0.769402 -0.309030
0.821020 1.130037 -0.221232 0.580523 0.799036 -0.156438
0.831254 1.144123 -0.000000 0.587756 0.809015 0.000000
0.821020 1.130037 0.221232 0.580523 0.799036 0.156438
0.790569 1.088125 0.437016 0.559008 0.769402 0.309030
0.740652 1.019421 0.642040 0.523698 0.720817 0.454024
0.672498 0.925615 0.831254 0.475478 0.654469 0.587817
0.587785 0.809017 1.000000 0.415571 0.572008 0.707144
0.488599 0.672499 1.144123 0.345439 0.475478 0.809046
0.377381 0.519421 1.260073 0.266793 0.367229 0.891018
0.256872 0.353553 1.344997 0.181585 0.249947 0.951048
0.130037 0.178980 1.396802 0.091922 0.126530 0.987671
0.068364 0.210404 1.396802 0.048311 0.148747 0.987671
0.135045 0.415627 1.344997 0.095462 0.293832 0.951048
0.198401 0.610616 1.260073 0.140263 0.431715 0.891018
0.256871 0.790569 1.144123 0.181616 0.558946 0.809046
0.309017 0.951056 1.000000 0.218482 0.672445 0.707144
0.353553 1.088125 0.831254 0.249977 0.769372 0.587817
0.389384 1.198401 0.642040 0.275307 0.847346 0.454024
0.415627 1.279168 0.437016 0.293863 0.904477 0.309030
0.431635 1.328438 0.221232 0.305185 0.939329 0.156438
0.437016 1.344997 -0.000000 0.309000 0.951048 0.000000
0.431635 1.328438 -0.221232 0.305185 0.939329 -0.156438
0.415627 1.279168 -0.437016 0.293863 0.904477 -0.309030
0.389384 1.198401 -0.642040 0.275307 0.847346 -0.454024
0.353553 1.088125 -0.831254 0.249977 0.769372 -0.587817
0.309017 0.951056 -1.000001 0.218482 0.672445 -0.707144
0.256871 0.790569 -1.144123 0.181616 0.558946 -0.809046
0.198401 0.610615 -1.260074 0.140263 0.431715 -0.891018
0.135045 0.415626 -1.344997 0.095462 0.293832 -0.951048
0.068364 0.210403 -1.396803 0.048311 0.148747 -0.987671
-0.000000 0.221231 -1.396803 0.000000 0.156407 -0.987671
-0.000000 0.437015 -1.344997 0.000000 0.308969 -0.951048
-0.000000 0.642039 -1.260074 0.000000 0.453932 -0.891018
-0.000000 0.831253 -1.144123 0.000000 0.587725 -0.809046
-0.000000 0.999999 -1.000001 0.000000 0.707022 -0.707144
-0.000000 1.144122 -0.831254 0.000000 0.808954 -0.587817
-0.000000 1.260073 -0.642040 0.000000 0.890957 -0.454024
-0.000000 1.344997 -0.437016 0.000000 0.951018 -0.309030
-0.000000 1.396802 -0.221232 0.000000 0.987671 -0.156438
-0.000000 1.414213 -0.000000 0.000000 1.000000 0.000000
-0.000000 1.396802 0.221232 0.000000 0.987671 0.156438
-0.000000 1.344997 0.437016 0.000000 0.951018 0.309030
-0.000000 1.260073 0.642040 0.000000 0.890957 0.454024
-0.000000 1.144123 0.831254 0.000000 0.808954 0.587817
-0.000000 1.000000 1.000000 0.000000 0.707022 0.707144
-0.000000 0.831254 1.144123 -0.013367 0.582293 0.812830
-0.000000 0.642039 1.260073 -0.015229 0.453871 0.890896
-0.000000 0.437016 1.344997 -0.004730 0.315256 0.948973
-0.000000 0.221232 1.396802 0.000000 0.156407 0.987671
-0.068364 0.210404 1.396802 -0.053957 0.161443 0.985382
-0.135045 0.415627 1.344997 -0.074038 0.277322 0.957915
-0.309017 0.951056 1.000000 -0.226447 0.662679 0.713797
-0.256872 0.790569 1.144123 -0.161992 0.583697 0.795618
-0.353554 1.088125 0.831254 -0.249977 0.769372 0.587817
-0.389384 1.198401 0.642040 -0.275307 0.847346 0.454024
-0.415627 1.279168 0.437016 -0.293863 0.904477 0.309030
-0.431636 1.328438 0.221232 -0.305185 0.939329 0.156438
-0.437016 1.344997 -0.000000 -0.309000 0.951048 0.000000
-0.431636 1.328438 -0.221232 -0.305185 0.939329 -0.156438
-0.415627 1.279168 -0.437016 -0.293863 0.904477 -0.309030
-0.389384 1.198401 -0.642040 -0.275307 0.847346 -0.454024
-0.353554 1.088125 -0.831254 -0.249977 0.769372 -0.587817
-0.309017 0.951056 -1.000001 -0.218482 0.672445 -0.707144
-0.256872 0.790569 -1.144123 -0.181616 0.558946 -0.809046
-0.198401 0.610615 -1.260074 -0.140263 0.431715 -0.891018
-0.135045 0.415626 -1.344997 -0.095462 0.293832 -0.951048
-0.068364 0.210403 -1.396803 -0.048311 0.148747 -0.987671
-0.130036 0.178979 -1.396803 -0.091922 0.126530 -0.987671
-0.256871 0.353553 -1.344997 -0.181585 0.249947 -0.951048
-0.377381 0.519420 -1.260074 -0.266793 0.367229 -0.891018
-0.488599 0.672498 -1.144123 -0.345439 0.475478 -0.809046
-0.587785 0.809016 -1.000001 -0.415571 0.572008 -0.707144
-0.672499 0.925614 -0.831254 -0.475478 0.654469 -0.587817
-0.740653 1.019420 -0.642040 -0.523698 0.720786 -0.454024
-0.790570 1.088125 -0.437016 -0.559008 0.769402 -0.309030
-0.821020 1.130036 -0.221232 -0.580523 0.799036 -0.156438
-0.831254 1.144122 -0.000000 -0.587756 0.809015 0.000000
-0.821020 1.130036 0.221232 -0.580523 0.799036 0.156438
-0.790570 1.088125 0.437016 -0.559008 0.769402 0.309030
-0.740653 1.019420 0.642040 -0.523698 0.720817 0.454024
-0.672499 0.925614 0.831254 -0.475478 0.654469 0.587817
-0.587785 0.809017 1.000000 -0.408948 0.562853 0.718253
-0.130037 0.178980 1.396802 -0.105441 0.145146 0.983764
-0.178980 0.130037 1.396802 -0.136876 0.101199 0.985382
-0.925615 0.672498 0.831254 -0.654469 0.475478 0.587817
-0.809017 0.587785 1.000000 -0.560289 0.420148 0.713797
-1.019421 0.740652 0.642040 -0.720817 0.523698 0.454024
-1.088125 0.790569 0.437016 -0.769402 0.559008 0.309030
-1.130037 0.821019 0.221232 -0.799036 0.580523 0.156438
-1.144123 0.831253 -0.000000 -0.809015 0.587756 0.000000
-1.130037 0.821019 -0.221232 -0.799036 0.580523 -0.156438
-1.088125 0.790569 -0.437016 -0.769402 0.559008 -0.309030
-1.019421 0.740652 -0.642040 -0.720817 0.523698 -0.454024
-0.925615 0.672498 -0.831254 -0.654469 0.475478 -0.587817
-0.809017 0.587785 -1.000001 -0.572008 0.415571 -0.707144
-0.672498 0.488598 -1.144123 -0.475478 0.345439 -0.809046
-0.519420 0.377381 -1.260074 -0.367229 0.266793 -0.891018
-0.353553 0.256871 -1.344997 -0.249947 0.181585 -0.951048
-0.178979 0.130036 -1.396803 -0.126530 0.091922 -0.987671
-0.210403 0.068364 -1.396803 -0.148747 0.048311 -0.987671
-0.415626 0.135045 -1.344997 -0.293832 0.095462 -0.951048
-0.610615 0.198401 -1.260074 -0.431715 0.140263 -0.891018
-0.790569 0.256871 -1.144123 -0.558946 0.181616 -0.809046
-0.951056 0.309016 -1.000001 -0.672445 0.218482 -0.707144
-1.088125 0.353553 -0.831254 -0.769372 0.249977 -0.587817
-1.198401 0.389383 -0.642040 -0.847346 0.275307 -0.454024
-1.279168 0.415626 -0.437016 -0.904477 0.293863 -0.309030
-1.328438 0.431635 -0.221232 -0.939329 0.305185 -0.156438
-1.344997 0.437015 -0.000000 -0.951048 0.309000 0.000000
-1.328438 0.431635 0.221232 -0.939329 0.305185 0.156438
-1.279168 0.415626 0.437016 -0.904477 0.293863 0.309030
-1.198401 0.389383 0.642040 -0.847346 0.275307 0.454024
-1.088125 0.353553 0.831254 -0.769372 0.249977 0.587817
-0.951056 0.309017 1.000000 -0.669301 0.207038 0.713523
-0.790569 0.256871 1.144123 -0.554094 0.222266 0.802210
-0.672499 0.488598 1.144123 -0.505081 0.334452 0.795618
-0.353553 0.256871 1.344997 -0.240852 0.156102 0.957915
-0.415627 0.135045 1.344997 -0.276009 0.114628 0.954283
-0.210404 0.068364 1.396802 -0.162145 0.051515 0.985412
-0.221232 -0.000000 1.396802 -0.179327 -0.000275 0.983764
-1.144123 -0.000001 0.831254 -0.808954 0.000000 0.587817
-1.000000 -0.000000 1.000000 -0.695975 -0.000519 0.718040
-1.260073 -0.000001 0.642040 -0.890957 0.000000 0.454024
-1.344997 -0.000001 0.437016 -0.951018 0.000000 0.309030
-1.396802 -0.000001 0.221232 -0.987671 0.000000 0.156438
-1.414213 -0.000001 -0.000000 -1.000000 0.000000 0.000000
-1.396802 -0.000001 -0.221232 -0.987671 0.000000 -0.156438
-1.344997 -0.000001 -0.437016 -0.951018 0.000000 -0.309030
-1.260073 -0.000001 -0.642040 -0.890957 0.000000 -0.454024
-1.144122 -0.000001 -0.831254 -0.808954 0.000000 -0.587817
-0.999999 -0.000000 -1.000001 -0.707022 0.000000 -0.707144
-0.831253 -0.000000 -1.144123 -0.587725 0.000000 -0.809046
-0.642039 -0.000000 -1.260074 -0.453932 0.000000 -0.891018
-0.437015 -0.000000 -1.344997 -0.308969 0.000000 -0.951048
-0.221231 -0.000000 -1.396803 -0.156407 0.000000 -0.987671
-0.210403 -0.068364 -1.396803 -0.148747 -0.048311 -0.987671
-0.415626 -0.135045 -1.344997 -0.293832 -0.095462 -0.951048
-0.610615 -0.198401 -1.260074 -0.431715 -0.140263 -0.891018
-0.790569 -0.256872 -1.144123 -0.558946 -0.181616 -0.809046
-0.951056 -0.309017 -1.000001 -0.672445 -0.218482 -0.707144
-1.088125 -0.353554 -0.831254 -0.769372 -0.249977 -0.587817
-1.198400 -0.389385 -0.642040 -0.847346 -0.275307 -0.454024
-1.279168 -0.415627 -0.437016 -0.904477 -0.293863 -0.309030
-1.328437 -0.431636 -0.221232 -0.939329 -0.305185 -0.156438
-1.344996 -0.437017 -0.000000 -0.951048 -0.309000 0.000000
-1.328437 -0.431636 0.221232 -0.939329 -0.305185 0.156438
-1.279168 -0.415627 0.437016 -0.904477 -0.293863 0.309030
-1.198400 -0.389385 0.642040 -0.847346 -0.275307 0.454024
-1.088125 -0.353554 0.831254 -0.769372 -0.249977 0.587817
-0.951056 -0.309017 1.000000 -0.669240 -0.206305 0.713797
-0.210404 -0.068364 1.396802 -0.162328 -0.051210 0.985382
-0.178980 -0.130037 1.396802 -0.126530 -0.091922 0.987671
-0.415627 -0.135046 1.344997 -0.267891 -0.103092 0.957915
-0.353553 -0.256872 1.344997 -0.257820 -0.181463 0.948973
-0.809016 -0.587786 1.000000 -0.572008 -0.415571 0.707144
-0.672498 -0.488599 1.144123 -0.478957 -0.331431 0.812830
-0.790569 -0.256872 1.144123 -0.567461 -0.212012 0.795618
-0.925614 -0.672499 0.831254 -0.654469 -0.475478 0.587817
-1.019420 -0.740653 0.642040 -0.720786 -0.523698 0.454024
-1.088125 -0.790570 0.437016 -0.769402 -0.559008 0.309030
-1.130036 -0.821020 0.221232 -0.799036 -0.580523 0.156438
-1.144122 -0.831254 -0.000000 -0.809015 -0.587756 0.000000
-1.130036 -0.821020 -0.221232 -0.799036 -0.580523 -0.156438
-1.088125 -0.790570 -0.437016 -0.769402 -0.559008 -0.309030
-1.019420 -0.740653 -0.642040 -0.720786 -0.523698 -0.454024
-0.925614 -0.672499 -0.831254 -0.654469 -0.475478 -0.587817
-0.809016 -0.587785 -1.000001 -0.572008 -0.415571 -0.707144
-0.672498 -0.488599 -1.144123 -0.475478 -0.345439 -0.809046
-0.519420 -0.377381 -1.260074 -0.367229 -0.266793 -0.891018
-0.353552 -0.256871 -1.344997 -0.249947 -0.181585 -0.951048
-0.178979 -0.130036 -1.396803 -0.126530 -0.091922 -0.987671
-0.130036 -0.178979 -1.396803 -0.091922 -0.126530 -0.987671
-0.256871 -0.353553 -1.344997 -0.181585 -0.249947 -0.951048
-0.377381 -0.519420 -1.260074 -0.266793 -0.367229 -0.891018
-0.488598 -0.672498 -1.144123 -0.345439 -0.475478 -0.809046
-0.587784 -0.809017 -1.000001 -0.415571 -0.572008 -0.707144
-0.672498 -0.925615 -0.831254 -0.475478 -0.654469 -0.587817
-0.740652 -1.019421 -0.642040 -0.523698 -0.720817 -0.454024
-0.790568 -1.088125 -0.437016 -0.559008 -0.769402 -0.309030
-0.821019 -1.130037 -0.221232 -0.580523 -0.799036 -0.156438
-0.831253 -1.144123 -0.000000 -0.587756 -0.809015 0.000000
-0.821019 -1.130037 0.221232 -0.580523 -0.799036 0.156438
-0.790569 -1.088126 0.437016 -0.559008 -0.769402 0.309030
-0.740652 -1.019421 0.642040 -0.523698 -0.720817 0.454024
-0.672498 -0.925615 0.831254 -0.475478 -0.654469 0.587817
-0.587785 -0.809017 1.000000 -0.415571 -0.572008 0.707144
-0.488598 -0.672499 1.144123 -0.345439 -0.475478 0.809046
-0.377381 -0.519421 1.260073 -0.266793 -0.367229 0.891018
-0.519420 -0.377382 1.260073 -0.376171 -0.254433 0.890896
-0.256871 -0.353553 1.344997 -0.181585 -0.249947 0.951048
-0.130037 -0.178980 1.396802 -0.091922 -0.126530 0.987671
-0.068364 -0.210404 1.396802 -0.048311 -0.148747 0.987671
-0.135045 -0.415627 1.344997 -0.095462 -0.293832 0.951048
-0.198401 -0.610616 1.260073 -0.140263 -0.431715 0.891018
-0.256871 -0.790569 1.144123 -0.181616 -0.558946 0.809046
-0.309016 -0.951056 1.000000 -0.218482 -0.672445 0.707144
-0.353552 -1.088125 0.831254 -0.249977 -0.769372 0.587817
-0.389383 -1.198401 0.642040 -0.275307 -0.847346 0.454024
-0.415626 -1.279168 0.437016 -0.293863 -0.904477 0.309030
-0.431635 -1.328438 0.221232 -0.305185 -0.939329 0.156438
-0.437015 -1.344997 -0.000000 -0.309000 -0.951048 0.000000
-0.431635 -1.328438 -0.221232 -0.305185 -0.939329 -0.156438
-0.415626 -1.279168 -0.437016 -0.293863 -0.904477 -0.309030
-0.389383 -1.198401 -0.642040 -0.275307 -0.847346 -0.454024
-0.353552 -1.088125 -0.831254 -0.249977 -0.769372 -0.587817
-0.309016 -0.951056 -1.000001 -0.218482 -0.672445 -0.707144
-0.256871 -0.790569 -1.144123 -0.181616 -0.558946 -0.809046
-0.198400 -0.610615 -1.260074 -0.140263 -0.431715 -0.891018
-0.135045 -0.415626 -1.344997 -0.095462 -0.293832 -0.951048
-0.068364 -0.210403 -1.396803 -0.048311 -0.148747 -0.987671
0.000000 -0.221231 -1.396803 0.000000 -0.156407 -0.987671
0.000000 -0.437015 -1.344997 0.000000 -0.308969 -0.951048
0.000000 -0.642039 -1.260074 0.000000 -0.453932 -0.891018
0.000001 -0.831253 -1.144123 0.000000 -0.587725 -0.809046
0.000001 -0.999999 -1.000001 0.000000 -0.707022 -0.707144
0.000001 -1.144122 -0.831254 0.000000 -0.808954 -0.587817
0.000001 -1.260073 -0.642040 0.000000 -0.890957 -0.454024
0.000001 -1.344996 -0.437016 0.000000 -0.951018 -0.309030
0.000001 -1.396802 -0.221232 0.000000 -0.987671 -0.156438
0.000001 -1.414213 -0.000000 0.000000 -1.000000 0.000000
0.000001 -1.396802 0.221232 0.000000 -0.987671 0.156438
0.000001 -1.344997 0.437016 0.000000 -0.951018 0.309030
0.000001 -1.260073 0.642040 0.000000 -0.890957 0.454024
0.000001 -1.144122 0.831254 0.000000 -0.808954 0.587817
0.000001 -1.000000 1.000000 0.000000 -0.707053 0.707144
0.000001 -0.831254 1.144123 0.000000 -0.587725 0.809046
0.000000 -0.642039 1.260073 0.000000 -0.453932 0.891018
0.000000 -0.437016 1.344997 0.000000 -0.308969 0.951048
0.000000 -0.221232 1.396802 0.000000 -0.156407 0.987671
0.068365 -0.210404 1.396802 0.048311 -0.148747 0.987671
0.135046 -0.415627 1.344997 0.095462 -0.293832 0.951048
0.198402 -0.610615 1.260073 0.140263 -0.431715 0.891018
0.256872 -0.790569 1.144123 0.181616 -0.558946 0.809046
0.309018 -0.951056 1.000000 0.218482 -0.672445 0.707144
0.353554 -1.088125 0.831254 0.249977 -0.769372 0.587817
0.389385 -1.198400 0.642040 0.275307 -0.847346 0.454024
0.415628 -1.279167 0.437016 0.293863 -0.904477 0.309030
0.431637 -1.328437 0.221232 0.305185 -0.939329 0.156438
0.437017 -1.344996 -0.000000 0.309000 -0.951048 0.000000
0.431637 -1.328437 -0.221232 0.305185 -0.939329 -0.156438
0.415628 -1.279167 -0.437016 0.293863 -0.904477 -0.309030
0.389385 -1.198400 -0.642040 0.275307 -0.847346 -0.454024
0.353554 -1.088125 -0.831254 0.249977 -0.769372 -0.587817
0.309018 -0.951055 -1.000001 0.218482 -0.672445 -0.707144
0.256872 -0.790568 -1.144123 0.181616 -0.558946 -0.809046
0.198401 -0.610615 -1.260074 0.140263 -0.431715 -0.891018
0.135045 -0.415626 -1.344997 0.095462 -0.293832 -0.951048
0.068364 -0.210403 -1.396803 0.048311 -0.148747 -0.987671
0.130036 -0.178979 -1.396803 0.091922 -0.126530 -0.987671
0.256871 -0.353552 -1.344997 0.181585 -0.249947 -0.951048
0.377381 -0.519420 -1.260074 0.266793 -0.367229 -0.891018
0.488599 -0.672497 -1.144123 0.345439 -0.475478 -0.809046
0.587785 -0.809016 -1.000001 0.415571 -0.572008 -0.707144
0.672499 -0.925614 -0.831254 0.475478 -0.654469 -0.587817
0.740653 -1.019420 -0.642040 0.523698 -0.720786 -0.454024
0.790570 -1.088124 -0.437016 0.559008 -0.769402 -0.309030
0.821020 -1.130036 -0.221232 0.580523 -0.799036 -0.156438
0.831254 -1.144122 -0.000000 0.587756 -0.809015 0.000000
0.821020 -1.130036 0.221232 0.580523 -0.799036 0.156438
0.790570 -1.088124 0.437016 0.559008 -0.769402 0.309030
0.740653 -1.019420 0.642040 0.523698 -0.720786 0.454024
0.672499 -0.925614 0.831254 0.475478 -0.654469 0.587817
0.587786 -0.809016 1.000000 0.415571 -0.572008 0.707144
0.488599 -0.672498 1.144123 0.353099 -0.463210 0.812830
0.377382 -0.519420 1.260073 0.279122 -0.358226 0.890896
0.256872 -0.353553 1.344997 0.189123 -0.252266 0.948973
0.130037 -0.178980 1.396802 0.091922 -0.126530 0.987671
0.178980 -0.130037 1.396802 0.138554 -0.098880 0.985382
0.353553 -0.256871 1.344997 0.222907 -0.180822 0.957915
0.809017 -0.587784 1.000000 0.572710 -0.403027 0.713797
0.672499 -0.488598 1.144123 0.474136 -0.376995 0.795618
0.925615 -0.672497 0.831254 0.654469 -0.475478 0.587817
1.019421 -0.740651 0.642040 0.720817 -0.523698 0.454024
1.088126 -0.790568 0.437016 0.769402 -0.559008 0.309030
1.130037 -0.821019 0.221232 0.799036 -0.580523 0.156438
1.144123 -0.831252 -0.000000 0.809015 -0.587756 0.000000
1.130037 -0.821019 -0.221232 0.799036 -0.580523 -0.156438
1.088125 -0.790568 -0.437016 0.769402 -0.559008 -0.309030
1.019421 -0.740651 -0.642040 0.720817 -0.523698 -0.454024
0.925615 -0.672497 -0.831254 0.654469 -0.475478 -0.587817
0.809017 -0.587784 -1.000001 0.572008 -0.415571 -0.707144
0.672498 -0.488598 -1.144123 0.475478 -0.345439 -0.809046
0.519420 -0.377380 -1.260074 0.367229 -0.266793 -0.891018
0.353553 -0.256871 -1.344997 0.249947 -0.181585 -0.951048
0.178979 -0.130036 -1.396803 0.126530 -0.091922 -0.987671
0.210403 -0.068364 -1.396803 0.148747 -0.048311 -0.987671
0.415626 -0.135045 -1.344997 0.293832 -0.095462 -0.951048
0.610615 -0.198400 -1.260074 0.431715 -0.140263 -0.891018
0.790569 -0.256871 -1.144123 0.558946 -0.181616 -0.809046
0.951056 -0.309016 -1.000001 0.672445 -0.218482 -0.707144
1.088125 -0.353552 -0.831254 0.769372 -0.249977 -0.587817
1.198401 -0.389383 -0.642040 0.847346 -0.275307 -0.454024
1.279168 -0.415626 -0.437016 0.904477 -0.293863 -0.309030
1.328438 -0.431634 -0.221232 0.939329 -0.305185 -0.156438
1.344997 -0.437014 -0.000000 0.951048 -0.309000 0.000000
1.328438 -0.431634 0.221232 0.939329 -0.305185 0.156438
1.279168 -0.415626 0.437016 0.904477 -0.293863 0.309030
1.198401 -0.389383 0.642040 0.847346 -0.275307 0.454024
1.088125 -0.353552 0.831254 0.769372 -0.249977 0.587817
0.951056 -0.309016 1.000000 0.661702 -0.214972 0.718253
0.210404 -0.068364 1.396802 0.170629 -0.055422 0.983764
-0.167323 0.514965 1.307218 -0.095248 0.372295 0.923185
-0.198401 0.610616 1.260073 -0.131718 0.432722 0.891812
-0.228455 0.703110 1.206420 -0.130955 0.500900 0.855525
-0.374575 0.735145 1.149772 -0.281106 0.541948 0.791986
-0.488599 0.672498 1.144123 -0.348949 0.480270 0.804682
-0.332794 0.653144 1.211126 -0.227760 0.475265 0.849818
-0.243302 0.477507 1.309953 -0.159948 0.330912 0.929991
-0.196226 0.385115 1.346832 -0.130497 0.251045 0.959105
-0.256872 0.353553 1.344997 -0.177526 0.244362 0.953276
-0.305629 0.305629 1.346832 -0.198431 0.201697 0.959105
-0.378952 0.378952 1.309953 -0.265297 0.254372 0.929991
-0.438056 0.318266 1.307218 -0.326182 0.205054 0.922788
-0.583415 0.583414 1.149772 -0.428541 0.434828 0.791986
-0.598102 0.434546 1.206420 -0.439741 0.276315 0.854518
-0.518338 0.518338 1.211126 -0.381634 0.363475 0.849818
-0.519421 0.377381 1.260073 -0.370861 0.258980 0.891812
-0.610616 0.198401 1.260073 -0.418470 0.177160 0.890774
-0.384034 0.626235 1.209949 -0.274728 0.485641 0.829829
-0.434546 0.598101 1.206420 -0.338939 0.468886 0.815607
-0.417906 0.578011 1.234352 0.194159 -0.284433 0.938810
-0.358986 0.585365 1.237503 -0.378277 -0.166204 0.910642
-0.311048 0.610466 1.238551 -0.198187 0.436933 0.877346
-0.309829 0.558395 1.262855 -0.729362 -0.049776 0.682302
-0.288739 0.566682 1.263785 -0.190710 0.406293 0.893582
-0.307378 0.501170 1.287210 -0.678121 0.346782 0.647938
-0.266256 0.522556 1.288013 -0.172369 0.381664 0.908048
-0.324972 0.459840 1.284802 -0.540819 0.669698 0.508927
-0.318266 0.438056 1.307218 -0.263283 0.350352 0.898831
-0.280927 0.458021 1.309267 -0.238746 0.309122 0.920530
-0.414703 0.414703 1.288013 -0.310190 0.278207 0.909024
-0.449722 0.449721 1.263785 -0.333384 0.301981 0.893094
-0.433156 0.472935 1.262855 0.294076 0.674001 0.677633
-0.381656 0.447204 1.287210 -0.133305 0.735710 0.664022
-0.348793 0.408714 1.309267 -0.221931 0.315409 0.922605
-0.476912 0.558755 1.209949 -0.375622 0.411420 0.830439
-0.484469 0.484469 1.238551 -0.358470 0.323191 0.875790
-0.445783 0.522303 1.237503 0.261086 0.321940 0.910031
-0.307378 0.501170 0.566082 -0.727531 0.215552 0.651326
-0.324972 0.459840 0.563674 -0.552568 0.658864 0.510422
-0.309829 0.558395 0.541727 -0.744285 -0.068148 0.664327
-0.358986 0.585365 0.516375 -0.280526 -0.574267 0.769066
-0.381656 0.447204 0.566082 0.012421 0.750359 0.660878
-0.433156 0.472935 0.541727 0.326670 0.685110 0.651051
-0.445783 0.522303 0.516375 0.627979 0.108036 0.770684
-0.417906 0.578011 0.513224 0.494278 -0.700247 0.515030
-0.426941 0.067632 1.346937 -0.270058 0.043062 0.961852
-0.437016 -0.000000 1.344997 -0.295724 -0.001495 0.955260
-0.628350 0.099591 1.264178 -0.444105 0.061525 0.893826
-0.529383 0.083896 1.310084 -0.378857 0.055879 0.923734
-0.514901 0.167354 1.307009 -0.356639 0.136082 0.924253
-0.541467 -0.000000 1.307217 -0.371075 0.009095 0.928526
-0.815140 0.129198 1.150166 -0.611591 0.097049 0.785180
-0.831254 -0.000000 1.144123 -0.621784 0.038606 0.782220
-0.739294 -0.000000 1.206420 -0.075991 -0.337901 0.938078
-0.724148 0.114795 1.211446 -0.511704 0.075900 0.855770
-0.702957 0.228478 1.206255 -0.487503 0.185766 0.853114
-0.814915 -0.129070 1.149772 -0.617603 -0.129795 0.775689
-0.703110 -0.228455 1.206419 -0.487564 -0.194525 0.851131
-0.724015 -0.114673 1.211126 -0.161596 0.341380 0.925901
-0.529321 -0.083836 1.309953 -0.361766 -0.064913 0.929991
-0.514965 -0.167323 1.307218 -0.357189 -0.141758 0.923185
-0.426903 -0.067615 1.346832 -0.279855 -0.041902 0.959105
-0.610616 -0.198401 1.260073 -0.419935 -0.151799 0.894742
-0.592270 -0.000002 1.284804 -0.442305 -0.016633 0.896695
-0.642039 -0.000000 1.260073 -0.669759 -0.375530 0.640584
-0.691288 0.024935 1.234355 -0.418043 -0.488174 0.766076
-0.756794 -0.057403 1.209924 0.035768 0.039460 0.998566
-0.676707 -0.128078 1.238550 -0.477798 0.419477 0.771813
-0.628172 -0.099493 1.263784 -0.708762 0.260353 0.655629
-0.579257 -0.091746 1.288013 -0.437300 -0.058748 0.897366
-0.611106 -0.049790 1.262832 -0.864071 -0.087161 0.495743
-0.586119 -0.045908 1.287192 -0.476028 -0.035401 0.878689
-0.535666 -0.041944 1.309252 -0.361003 -0.022523 0.932279
-0.642039 -0.000000 0.798861 -0.593829 -0.379223 0.709586
-0.611106 -0.049790 0.801620 -0.875118 -0.081606 0.476913
-0.628172 -0.099493 0.802572 -0.631855 0.320475 0.705679
-0.676707 -0.128078 0.777338 -0.328929 0.857143 0.396313
-0.691288 0.024935 0.773143 -0.227149 -0.878719 0.419782
-0.739294 -0.000000 0.745208 0.164251 -0.398419 0.902341
-0.756794 -0.057403 0.748712 0.876064 0.118107 0.467452
-0.724015 -0.114673 0.749914 0.069124 0.486770 0.870785
0.739294 -0.000000 1.206420 0.516861 0.030213 0.855525
0.642040 0.000000 1.260073 0.452254 0.008423 0.891812
0.541467 -0.000000 1.307218 0.383526 0.024445 0.923185
0.438056 -0.318266 1.307218 0.295907 -0.245216 0.923185
0.519421 -0.377381 1.260073 0.360912 -0.272652 0.891812
0.598102 -0.434545 1.206420 0.400372 -0.328257 0.855525
0.735145 -0.374574 1.149772 0.545976 -0.273202 0.791986
0.790569 -0.256871 1.144123 0.564592 -0.183447 0.804682
0.653144 -0.332793 1.211126 0.463637 -0.250618 0.849818
0.477508 -0.243302 1.309953 0.323893 -0.173681 0.929991
0.385115 -0.196225 1.346832 0.253151 -0.126377 0.959105
0.415627 -0.135045 1.344997 0.287271 -0.093326 0.953276
0.426903 -0.067615 1.346832 0.279092 -0.046510 0.959105
0.529321 -0.083836 1.309953 0.364147 -0.049837 0.929991
0.814915 -0.129069 1.149772 0.602283 -0.099887 0.791986
0.724016 -0.114672 1.211126 0.522416 -0.069735 0.849818
0.678782 -0.280904 1.209949 0.503983 -0.218726 0.835536
0.703110 -0.228454 1.206420 0.535417 -0.171178 0.827052
0.673243 -0.213619 1.234352 -0.393658 0.099612 0.913816
0.634494 -0.262563 1.237503 0.211158 0.343150 0.915220
0.610467 -0.311048 1.238551 0.416730 -0.235084 0.878079
0.580919 -0.262229 1.262855 0.565111 0.494217 0.660543
0.566682 -0.288738 1.263785 0.394635 -0.213202 0.893735
0.543255 -0.224782 1.287210 0.741874 0.105716 0.662130
0.522556 -0.266255 1.288013 0.365520 -0.206641 0.907559
0.538324 -0.176721 1.284802 0.819361 -0.256691 0.512558
0.514965 -0.167322 1.307218 0.407147 -0.130894 0.903897
0.496493 -0.205422 1.309267 0.366771 -0.114689 0.923185
0.579258 -0.091745 1.288013 0.419904 -0.052675 0.906034
0.628172 -0.099492 1.263785 0.442732 -0.070009 0.893887
0.619849 -0.130573 1.262855 0.174291 -0.743767 0.645283
0.571626 -0.137463 1.287210 0.541429 -0.520981 0.659841
0.522415 -0.125640 1.309267 0.363598 -0.121464 0.923582
0.714258 -0.171720 1.209949 0.538347 -0.117710 0.834437
0.676707 -0.107180 1.238551 0.471297 -0.058199 0.880032
0.667648 -0.160527 1.237503 -0.014557 -0.432783 0.901364
0.543255 -0.224782 0.827911 0.886563 0.350536 0.301767
0.538324 -0.176721 0.825503 0.760521 -0.235023 0.605243
0.571626 -0.137463 0.827911 0.523453 -0.797571 0.299661
0.580919 -0.262229 0.803556 0.568926 0.399884 0.718589
0.619849 -0.130573 0.803556 0.236671 -0.654164 0.718345
0.667648 -0.160527 0.778204 -0.630848 -0.569414 0.526994
0.673243 -0.213619 0.775054 -0.208441 0.053377 0.976562
0.634494 -0.262563 0.778204 -0.222602 0.819422 0.528153
3 0 1 2
4 2 1 3 4
4 4 3 5 6
4 6 5 7 8
4 8 7 9 10
4 10 9 11 12
4 12 11 13 14
4 14 13 15 16
4 16 15 17 18
4 18 17 19 20
4 20 19 21 22
4 22 21 23 24
4 24 23 25 26
4 26 25 27 28
4 28 27 29 30
4 30 29 31 32
4 33 34 35 36
3 34 33 37
3 33 38 37
4 36 39 38 33
4 40 41 39 36
4 31 42 41 40
4 29 43 42 31
4 27 44 43 29
4 25 45 44 27
4 23 46 45 25
4 21 47 46 23
4 19 48 47 21
4 17 49 48 19
4 15 50 49 17
4 13 51 50 15
4 11 52 51 13
4 9 53 52 11
4 7 54 53 9
4 5 55 54 7
4 3 56 55 5
4 1 57 56 3
3 0 57 1
3 0 58 57
4 57 58 59 56
4 56 59 60 55
4 55 60 61 54
4 54 61 62 53
4 53 62 63 52
4 52 63 64 51
4 51 64 65 50
4 50 65 66 49
4 49 66 67 48
4 48 67 68 47
4 47 68 69 46
4 46 69 70 45
4 45 70 71 44
4 44 71 72 43
4 43 72 73 42
4 42 73 74 41
4 41 74 75 39
4 39 75 76 38
3 38 76 37
3 76 77 37
4 75 78 77 76
4 74 79 78 75
4 73 80 79 74
4 72 81 80 73
4 71 82 81 72
4 70 83 82 71
4 69 84 83 70
4 68 85 84 69
4 67 86 85 68
4 66 87 86 67
4 65 88 87 66
4 64 89 88 65
4 63 90 89 64
4 62 91 90 63
4 61 92 91 62
4 60 93 92 61
4 59 94 93 60
4 58 95 94 59
3 0 95 58
3 0 96 95
4 95 96 97 94
4 94 97 98 93
4 93 98 99 92
4 92 99 100 91
4 91 100 101 90
4 90 101 102 89
4 89 102 103 88
4 88 103 104 87
4 87 104 105 86
4 86 105 106 85
4 85 106 107 84
4 84 107 108 83
4 83 108 109 82
4 82 109 110 81
4 81 110 111 80
4 80 111 112 79
4 79 112 113 78
4 78 113 114 77
3 77 114 37
3 114 115 37
4 113 116 115 114
4 110 117 118 111
4 109 119 117 110
4 108 120 119 109
4 107 121 120 108
4 106 122 121 107
4 105 123 122 106
4 104 124 123 105
4 103 125 124 104
4 102 126 125 103
4 101 127 126 102
4 100 128 127 101
4 99 129 128 100
4 98 130 129 99
4 97 131 130 98
4 96 132 131 97
3 0 132 96
3 0 133 132
4 132 133 134 131
4 131 134 135 130
4 130 135 136 129
4 129 136 137 128
4 128 137 138 127
4 127 138 139 126
4 126 139 140 125
4 125 140 141 124
4 124 141 142 123
4 123 142 143 122
4 122 143 144 121
4 121 144 145 120
4 120 145 146 119
4 119 146 147 117
3 115 148 37
3 148 149 37
4 146 150 151 147
4 145 152 150 146
4 144 153 152 145
4 143 154 153 144
4 142 155 154 143
4 141 156 155 142
4 140 157 156 141
4 139 158 157 140
4 138 159 158 139
4 137 160 159 138
4 136 161 160 137
4 135 162 161 136
4 134 163 162 135
4 133 164 163 134
3 0 164 133
3 0 165 164
4 164 165 166 163
4 163 166 167 162
4 162 167 168 161
4 161 168 169 160
4 160 169 170 159
4 159 170 171 158
4 158 171 172 157
4 157 172 173 156
4 156 173 174 155
4 155 174 175 154
4 154 175 176 153
4 153 176 177 152
4 152 177 178 150
4 150 178 179 151
4 151 179 180 181
4 182 183 184 149
3 149 184 37
3 184 185 37
4 178 186 187 179
4 177 188 186 178
4 176 189 188 177
4 175 190 189 176
4 174 191 190 175
4 173 192 191 174
4 172 193 192 173
4 171 194 193 172
4 170 195 194 171
4 169 196 195 170
4 168 197 196 169
4 167 198 197 168
4 166 199 198 167
4 165 200 199 166
3 0 200 165
3 0 201 200
4 200 201 202 199
4 199 202 203 198
4 198 203 204 197
4 197 204 205 196
4 196 205 206 195
4 195 206 207 194
4 194 207 208 193
4 193 208 209 192
4 192 209 210 191
4 191 210 211 190
4 190 211 212 189
4 189 212 213 188
4 188 213 214 186
4 186 214 215 187
3 185 216 37
3 216 217 37
4 218 219 217 216
4 215 220 221 222
4 214 223 220 215
4 213 224 223 214
4 212 225 224 213
4 211 226 225 212
4 210 227 226 211
4 209 228 227 210
4 208 229 228 209
4 207 230 229 208
4 206 231 230 207
4 205 232 231 206
4 204 233 232 205
4 203 234 233 204
4 202 235 234 203
4 201 236 235 202
3 0 236 201
3 0 237 236
4 236 237 238 235
4 235 238 239 234
4 234 239 240 233
4 233 240 241 232
4 232 241 242 231
4 231 242 243 230
4 230 243 244 229
4 229 244 245 228
4 228 245 246 227
4 227 246 247 226
4 226 247 248 225
4 225 248 249 224
4 224 249 250 223
4 223 250 251 220
4 220 251 252 221
4 221 252 253 254
4 254 253 255 219
4 219 255 256 217
3 217 256 37
3 256 257 37
4 255 258 257 256
4 253 259 258 255
4 252 260 259 253
4 251 261 260 252
4 250 262 261 251
4 249 263 262 250
4 248 264 263 249
4 247 265 264 248
4 246 266 265 247
4 245 267 266 246
4 244 268 267 245
4 243 269 268 244
4 242 270 269 243
4 241 271 270 242
4 240 272 271 241
4 239 273 272 240
4 238 274 273 239
4 237 275 274 238
3 0 275 237
3 0 276 275
4 275 276 277 274
4 274 277 278 273
4 273 278 279 272
4 272 279 280 271
4 271 280 281 270
4 270 281 282 269
4 269 282 283 268
4 268 283 284 267
4 267 284 285 266
4 266 285 286 265
4 265 286 287 264
4 264 287 288 263
4 263 288 289 262
4 262 289 290 261
4 261 290 291 260
4 260 291 292 259
4 259 292 293 258
4 258 293 294 257
3 257 294 37
3 294 295 37
4 293 296 295 294
4 292 297 296 293
4 291 298 297 292
4 290 299 298 291
4 289 300 299 290
4 288 301 300 289
4 287 302 301 288
4 286 303 302 287
4 285 304 303 286
4 284 305 304 285
4 283 306 305 284
4 282 307 306 283
4 281 308 307 282
4 280 309 308 281
4 279 310 309 280
4 278 311 310 279
4 277 312 311 278
4 276 313 312 277
3 0 313 276
3 0 314 313
4 313 314 315 312
4 312 315 316 311
4 311 316 317 310
4 310 317 318 309
4 309 318 319 308
4 308 319 320 307
4 307 320 321 306
4 306 321 322 305
4 305 322 323 304
4 304 323 324 303
4 303 324 325 302
4 302 325 326 301
4 301 326 327 300
4 300 327 328 299
4 299 328 329 298
4 298 329 330 297
4 297 330 331 296
4 296 331 332 295
3 295 332 37
3 332 333 37
4 331 334 333 332
4 328 335 336 329
4 327 337 335 328
4 326 338 337 327
4 325 339 338 326
4 324 340 339 325
4 323 341 340 324
4 322 342 341 323
4 321 343 342 322
4 320 344 343 321
4 319 345 344 320
4 318 346 345 319
4 317 347 346 318
4 316 348 347 317
4 315 349 348 316
4 314 350 349 315
3 0 350 314
3 0 351 350
4 350 351 352 349
4 349 352 353 348
4 348 353 354 347
4 347 354 355 346
4 346 355 356 345
4 345 356 357 344
4 344 357 358 343
4 343 358 359 342
4 342 359 360 341
4 341 360 361 340
4 340 361 362 339
4 339 362 363 338
4 338 363 364 337
4 337 364 365 335
3 333 366 37
3 366 34 37
4 364 28 30 365
4 363 26 28 364
4 362 24 26 363
4 361 22 24 362
4 360 20 22 361
4 359 18 20 360
4 358 16 18 359
4 357 14 16 358
4 356 12 14 357
4 355 10 12 356
4 354 8 10 355
4 353 6 8 354
4 352 4 6 353
4 351 2 4 352
3 0 2 351
3 367 113 112
3 368 367 112
3 367 116 113
3 369 112 111
3 118 369 111
3 369 368 112
3 370 117 147
3 371 370 147
3 370 118 117
4 118 370 372 369
4 367 373 374 116
3 374 148 115
3 116 374 115
3 374 375 148
3 376 149 148
3 375 376 148
3 376 182 149
4 377 378 182 376
4 379 181 380 381
3 379 147 151
3 181 379 151
3 379 371 147
3 382 380 383
3 380 181 180
3 182 378 183
3 378 382 383
3 384 370 371
3 385 384 371
3 384 372 370
4 384 385 386 387
4 372 384 387 388
4 388 387 389 390
3 388 368 369
3 372 388 369
3 388 390 368
4 390 389 391 392
4 391 393 394 395
4 392 391 395 373
3 392 367 368
3 390 392 368
3 392 373 367
3 395 375 374
3 373 395 374
3 395 394 375
3 396 382 378
3 377 396 378
3 396 397 382
4 398 397 396 399
4 399 396 377 400
4 393 399 400 394
3 400 376 375
3 394 400 375
3 400 377 376
3 401 371 379
3 381 401 379
3 401 385 371
3 402 380 382
3 397 402 382
3 402 381 380
4 401 381 402 403
4 385 401 403 386
4 403 402 397 398
4 393 391 404 405
4 389 406 404 391
4 389 387 407 406
4 393 405 408 399
4 398 399 408 409
4 398 409 410 403
4 386 403 410 411
4 386 411 407 387
3 405 404 408
4 406 409 408 404
4 406 407 410 409
3 411 410 407
3 412 185 184
3 183 412 184
3 412 413 185
4 383 414 415 416
4 415 417 413 412
4 416 415 412 183
4 418 419 420 421
4 180 418 421 422
4 422 421 414 383
3 418 179 187
3 419 418 187
3 418 180 179
3 423 187 215
3 222 423 215
3 423 419 187
4 423 222 424 425
4 426 427 218 428
3 428 216 185
3 413 428 185
3 428 218 216
3 427 254 219
3 218 427 219
3 427 429 254
3 424 221 254
3 429 424 254
3 424 222 221
3 180 422 380
3 422 383 380
3 383 416 378
3 416 183 378
3 430 415 414
3 431 430 414
3 430 417 415
3 432 414 421
3 420 432 421
3 432 431 414
3 433 419 423
3 425 433 423
3 433 420 419
3 434 424 429
3 435 434 429
3 434 425 424
3 436 429 427
3 426 436 427
3 436 435 429
4 437 435 436 438
4 431 437 438 430
4 438 436 426 439
4 430 438 439 417
3 439 428 413
3 417 439 413
3 439 426 428
4 431 440 441 437
4 435 437 441 442
4 435 442 443 434
4 431 432 444 440
4 420 445 444 432
4 420 433 446 445
4 425 434 443 447
3 442 447 443
3 440 444 445
3 440 442 441
4 440 445 447 442
3 445 446 447
4 425 447 446 433
3 448 31 40
3 449 448 40
3 448 32 31
3 450 40 36
3 35 450 36
3 450 449 40
3 451 331 330
3 452 451 330
3 451 334 331
3 453 330 329
3 336 453 329
3 453 452 330
3 454 335 365
3 455 454 365
3 454 336 335
4 336 454 456 453
4 451 457 458 334
3 458 366 333
3 334 458 333
3 458 459 366
3 460 34 366
3 459 460 366
3 35 34 460
4 461 450 35 460
4 462 32 448 463
3 462 365 30
3 32 462 30
3 462 455 365
3 464 454 455
3 465 464 455
3 464 456 454
4 464 465 466 467
4 456 464 467 468
4 468 467 469 470
3 468 452 453
3 456 468 453
3 468 470 452
4 470 469 471 472
4 471 473 474 475
4 472 471 475 457
3 472 451 452
3 470 472 452
3 472 457 451
3 475 459 458
3 457 475 458
3 475 474 459
3 476 449 450
3 461 476 450
3 476 477 449
4 478 477 476 479
4 479 476 461 480
4 473 479 480 474
3 480 460 459
3 474 480 459
3 480 461 460
3 481 455 462
3 463 481 462
3 481 465 455
3 482 448 449
3 477 482 449
3 482 463 448
4 481 463 482 483
4 465 481 483 466
4 483 482 477 478
4 473 471 484 485
4 473 485 486 479
4 469 487 484 471
4 478 479 486 488
4 478 488 489 483
3 485 488 486
4 487 490 488 485
3 490 489 488
4 466 483 489 490
4 469 467 491 487
3 487 485 484
4 466 490 491 467
3 487 491 490
