ply
format ascii 1.0
comment created by ply_export.py from Blender
element vertex 205
property float32 x
property float32 y
property float32 z
property float32 nx
property float32 ny
property float32 nz
property float32 s
property float32 t
property uint8 red
property uint8 green
property uint8 blue
element face 120
property list uint8 int32 vertex_indices
end_header
7.666967 2.965686 -5.463241 0.707083 0.707083 0.000000 0.000000 1.000000 255 255 255
7.534122 2.965686 -4.285426 0.000000 1.000000 0.000000 0.000000 0.000000 255 255 255
7.666969 2.965684 -0.440961 0.000000 1.000000 0.000000 1.000000 0.000000 255 255 255
-3.144253 2.965687 -4.285426 0.000000 1.000000 0.000000 0.000000 1.000000 255 255 255
-3.259513 2.965687 -5.463241 -0.894406 0.447188 0.000000 0.000000 0.000000 255 255 255
-3.259515 2.965686 -0.440961 0.000000 1.000000 0.000000 1.000000 0.000000 255 255 255
-1.210801 -4.546270 -0.303119 0.832026 0.000000 0.554674 0.000000 1.000000 255 255 255
-1.210801 -3.863365 -0.166952 0.894406 0.447188 0.000000 0.000000 0.000000 255 255 255
-1.210801 -5.229176 -0.166952 0.707083 -0.707083 0.000000 1.000000 0.000000 255 255 255
-1.210801 -5.229176 -0.303119 0.408246 -0.408246 0.816492 0.000000 1.000000 255 255 255
-1.210801 -4.546270 -0.303119 0.832026 0.000000 0.554674 0.000000 0.000000 255 255 255
-1.210801 -3.863365 -0.303119 0.333323 0.666646 0.666646 0.000000 0.000000 255 255 255
-1.210801 -3.863365 -0.166952 0.894406 0.447188 0.000000 1.000000 0.000000 255 255 255
5.618250 -4.546273 -0.303119 -0.832026 0.000000 0.554674 0.000000 1.000000 255 255 255
5.618250 -5.229178 -0.166952 -0.894406 -0.447188 0.000000 0.000000 0.000000 255 255 255
5.618251 -3.863367 -0.166952 -0.707083 0.707083 0.000000 1.000000 0.000000 255 255 255
5.618251 -3.863367 -0.303119 -0.408246 0.408246 0.816492 0.000000 1.000000 255 255 255
5.618250 -4.546273 -0.303119 -0.832026 0.000000 0.554674 0.000000 0.000000 255 255 255
5.618250 -5.229178 -0.303119 -0.333323 -0.666646 0.666646 0.000000 0.000000 255 255 255
5.618250 -5.229178 -0.166952 -0.894406 -0.447188 0.000000 1.000000 0.000000 255 255 255
2.891667 -0.448841 -0.303119 0.461501 0.154973 0.873470 0.000000 1.000000 255 255 255
5.610909 -0.448841 -0.303119 -0.832026 -0.002960 0.554704 0.000000 0.000000 255 255 255
5.618253 0.234064 -0.303119 -0.665029 0.339671 0.665059 1.000000 0.000000 255 255 255
5.618253 0.234064 -0.303119 -0.665029 0.339671 0.665059 0.000000 0.000000 255 255 255
2.203726 0.234065 -0.303119 -0.234443 0.708518 0.665578 1.000000 0.000000 255 255 255
2.203726 -1.131746 -0.303119 0.234443 -0.708518 0.665578 0.000000 1.000000 255 255 255
5.618252 -1.131746 -0.303119 -0.332499 -0.668630 0.665059 0.000000 0.000000 255 255 255
2.891667 -0.448841 -0.303119 0.461501 0.154973 0.873470 1.000000 0.000000 255 255 255
5.618252 -1.131746 -0.303119 -0.332499 -0.668630 0.665059 0.000000 1.000000 255 255 255
2.203725 -3.863366 -0.303119 -0.234474 0.708487 0.665609 0.000000 1.000000 255 255 255
2.891534 -4.546271 -0.303119 0.461562 0.154942 0.873440 0.000000 0.000000 255 255 255
5.618251 -3.863367 -0.303119 -0.408246 0.408246 0.816492 1.000000 0.000000 255 255 255
2.891534 -4.546271 -0.303119 0.461562 0.154942 0.873440 0.000000 1.000000 255 255 255
2.203724 -5.229177 -0.303119 0.234474 -0.708487 0.665609 0.000000 0.000000 255 255 255
5.618250 -5.229178 -0.303119 -0.333323 -0.666646 0.666646 1.000000 0.000000 255 255 255
5.618250 -4.546273 -0.303119 -0.832026 0.000000 0.554674 1.000000 0.000000 255 255 255
1.515915 -4.546271 -0.303119 -0.461562 -0.154942 0.873440 1.000000 0.000000 255 255 255
-1.210801 -3.863365 -0.303119 0.333323 0.666646 0.666646 0.000000 1.000000 255 255 255
1.515915 -4.546271 -0.303119 -0.461562 -0.154942 0.873440 0.000000 1.000000 255 255 255
-1.210801 -5.229176 -0.303119 0.408246 -0.408246 0.816492 1.000000 0.000000 255 255 255
-1.210801 -5.229176 -0.303119 0.408246 -0.408246 0.816492 0.000000 0.000000 255 255 255
2.203724 -5.229177 -0.303119 0.234474 -0.708487 0.665609 1.000000 0.000000 255 255 255
1.515785 -0.448840 -0.303119 -0.461501 -0.154973 0.873470 0.000000 1.000000 255 255 255
2.203726 0.234065 -0.303119 -0.234443 0.708518 0.665578 0.000000 0.000000 255 255 255
-1.210800 0.234065 -0.303119 0.333811 0.665395 0.667653 1.000000 0.000000 255 255 255
-1.210800 0.234065 -0.303119 0.333811 0.665395 0.667653 0.000000 0.000000 255 255 255
-1.215424 -0.448840 -0.303119 0.832026 -0.001862 0.554704 1.000000 0.000000 255 255 255
1.515785 -0.448840 -0.303119 -0.461501 -0.154973 0.873470 0.000000 0.000000 255 255 255
-1.210801 -1.131745 -0.303119 0.667653 -0.329295 0.667653 1.000000 0.000000 255 255 255
-1.215424 -0.448840 -0.303119 0.832026 -0.001862 0.554704 0.000000 0.000000 255 255 255
-1.893706 -1.131745 -0.303119 -0.408246 -0.816492 0.408246 0.000000 1.000000 255 255 255
-1.893706 0.234065 -0.303119 -0.666646 0.333323 0.666646 0.000000 0.000000 255 255 255
-3.259516 -1.131744 -0.303119 0.000000 0.000000 1.000000 1.000000 0.000000 255 255 255
-1.893706 0.234065 -0.303119 -0.666646 0.333323 0.666646 0.000000 1.000000 255 255 255
-3.259516 0.234066 -0.303119 0.000000 0.000000 1.000000 0.000000 0.000000 255 255 255
6.301157 -1.131747 -0.303119 0.666646 -0.333323 0.666646 0.000000 1.000000 255 255 255
7.666967 -1.131747 -0.303119 0.000000 0.000000 1.000000 0.000000 0.000000 255 255 255
7.666968 0.234063 -0.303119 0.000000 0.000000 1.000000 1.000000 0.000000 255 255 255
7.666968 0.234063 -0.303119 0.000000 0.000000 1.000000 0.000000 0.000000 255 255 255
6.301158 0.234064 -0.303119 0.408246 0.816492 0.408246 1.000000 0.000000 255 255 255
-1.893706 -3.863365 -0.303119 -0.666646 0.333323 0.666646 0.000000 1.000000 255 255 255
-3.259516 -3.863364 -0.303119 0.000000 0.000000 1.000000 0.000000 0.000000 255 255 255
-3.259516 -5.229175 -0.303119 0.000000 0.000000 1.000000 1.000000 0.000000 255 255 255
-3.259516 -5.229175 -0.303119 0.000000 0.000000 1.000000 0.000000 0.000000 255 255 255
-1.893706 -5.229176 -0.303119 -0.408246 -0.816492 0.408246 1.000000 0.000000 255 255 255
6.301156 -3.863368 -0.303119 0.333323 0.666646 0.666646 0.000000 1.000000 255 255 255
6.301155 -5.229178 -0.303119 0.816492 -0.408246 0.408246 0.000000 0.000000 255 255 255
7.666965 -5.229179 -0.303119 0.000000 0.000000 1.000000 1.000000 0.000000 255 255 255
7.666965 -5.229179 -0.303119 0.000000 0.000000 1.000000 0.000000 0.000000 255 255 255
7.666965 -3.863369 -0.303119 0.000000 0.000000 1.000000 1.000000 0.000000 255 255 255
-3.259516 -1.131744 -0.303119 0.000000 0.000000 1.000000 0.000000 1.000000 255 255 255
7.666965 -3.863369 -0.303119 0.000000 0.000000 1.000000 0.000000 0.000000 255 255 255
7.666967 -1.131747 -0.303119 0.000000 0.000000 1.000000 1.000000 0.000000 255 255 255
-3.259516 0.234066 -0.303119 0.000000 0.000000 1.000000 0.000000 1.000000 255 255 255
7.666969 2.965684 -0.303119 0.666646 0.333323 0.666646 0.000000 0.000000 255 255 255
-3.259515 2.965686 -0.303119 -0.408246 0.816492 0.408246 1.000000 0.000000 255 255 255
7.666969 2.965684 -0.303119 0.666646 0.333323 0.666646 1.000000 0.000000 255 255 255
-3.259516 -5.229175 -0.303119 0.000000 0.000000 1.000000 0.000000 1.000000 255 255 255
-3.259517 -8.117018 -0.303119 -0.666646 -0.333323 0.666646 0.000000 0.000000 255 255 255
-3.259517 -8.117018 -0.303119 -0.666646 -0.333323 0.666646 0.000000 1.000000 255 255 255
7.666964 -8.117023 -0.303119 0.408246 -0.816492 0.408246 0.000000 0.000000 255 255 255
6.886826 -8.117020 -3.475670 -0.333323 -0.666646 -0.666646 0.000000 1.000000 255 255 255
6.886827 -8.117019 -5.463241 -0.666646 -0.333323 -0.666646 0.000000 0.000000 255 255 255
7.666967 -8.117020 -5.463241 0.666646 -0.666646 -0.333323 1.000000 0.000000 255 255 255
7.666967 -8.117020 -5.463241 0.666646 -0.666646 -0.333323 0.000000 0.000000 255 255 255
7.666965 -8.117021 -3.472492 0.000000 -1.000000 0.000000 1.000000 0.000000 255 255 255
4.153974 -8.117019 -3.475670 0.666646 -0.666646 -0.333323 0.000000 1.000000 255 255 255
-3.259516 -8.117018 -3.472492 0.000000 -1.000000 0.000000 0.000000 0.000000 255 255 255
-3.259515 -8.117019 -5.463241 -0.408246 -0.816492 -0.408246 1.000000 0.000000 255 255 255
-3.259515 -8.117019 -5.463241 -0.408246 -0.816492 -0.408246 0.000000 0.000000 255 255 255
4.153975 -8.117019 -5.463241 0.408246 -0.408246 -0.816492 1.000000 0.000000 255 255 255
7.666964 -8.117023 -0.303119 0.408246 -0.816492 0.408246 0.000000 1.000000 255 255 255
-3.259516 -8.117018 -3.472492 0.000000 -1.000000 0.000000 1.000000 0.000000 255 255 255
-3.259513 2.965687 -5.463241 -0.894406 0.447188 0.000000 0.000000 1.000000 255 255 255
-3.259517 -8.117018 -0.303119 -0.666646 -0.333323 0.666646 1.000000 0.000000 255 255 255
7.666969 2.965684 -0.303119 0.666646 0.333323 0.666646 0.000000 1.000000 255 255 255
-4.229592 3.916114 -5.464964 -0.577349 0.577349 0.577349 0.000000 1.000000 255 255 255
-4.229592 -8.811060 -5.464966 -0.577349 -0.577349 0.577349 0.000000 0.000000 255 255 255
8.497582 3.916114 -5.464967 0.333323 0.666646 0.666646 1.000000 0.000000 255 255 255
-4.229592 -8.811060 -5.464966 -0.577349 -0.577349 0.577349 0.000000 1.000000 255 255 255
8.497590 -8.811060 -5.464970 0.816492 -0.408246 0.408216 0.000000 0.000000 255 255 255
-4.229592 3.916113 -5.709121 -0.577349 0.577349 -0.577349 0.000000 1.000000 255 255 255
-4.229592 -8.811060 -5.709121 -0.577349 -0.577349 -0.577349 0.000000 0.000000 255 255 255
-4.229592 -8.811060 -5.464966 -0.577349 -0.577349 0.577349 1.000000 0.000000 255 255 255
-4.229592 3.916114 -5.464964 -0.577349 0.577349 0.577349 1.000000 0.000000 255 255 255
8.497582 3.916113 -5.709121 0.816462 0.408216 -0.408246 0.000000 1.000000 255 255 255
8.497578 -8.811060 -5.709126 0.333323 -0.666646 -0.666646 0.000000 0.000000 255 255 255
-4.229592 3.916113 -5.709121 -0.577349 0.577349 -0.577349 1.000000 0.000000 255 255 255
8.497578 -8.811060 -5.709126 0.333323 -0.666646 -0.666646 0.000000 1.000000 255 255 255
8.497582 3.916114 -5.464967 0.333323 0.666646 0.666646 0.000000 1.000000 255 255 255
8.497582 3.916113 -5.709121 0.816462 0.408216 -0.408246 1.000000 0.000000 255 255 255
8.497590 -8.811060 -5.464970 0.816492 -0.408246 0.408216 0.000000 1.000000 255 255 255
8.497578 -8.811060 -5.709126 0.333323 -0.666646 -0.666646 1.000000 0.000000 255 255 255
-4.229592 3.916114 -5.464964 -0.577349 0.577349 0.577349 0.000000 0.000000 255 255 255
8.497582 3.916114 -5.464967 0.333323 0.666646 0.666646 0.000000 0.000000 255 255 255
-3.259515 -7.960796 -5.463241 0.000000 0.000000 -1.000000 0.000000 1.000000 255 255 255
4.153975 -7.960796 -5.463241 0.894406 0.000000 -0.447188 0.000000 0.000000 255 255 255
4.153975 -8.117019 -5.463241 0.408246 -0.408246 -0.816492 0.000000 0.000000 255 255 255
6.886827 -7.960796 -5.463241 -0.707083 0.000000 -0.707083 0.000000 1.000000 255 255 255
7.666967 -7.960797 -5.463241 0.000000 0.000000 -1.000000 0.000000 0.000000 255 255 255
6.886827 -8.117019 -5.463241 -0.666646 -0.333323 -0.666646 1.000000 0.000000 255 255 255
7.666967 -7.960797 -5.463241 0.000000 0.000000 -1.000000 0.000000 1.000000 255 255 255
4.153975 -7.960796 -5.463241 0.894406 0.000000 -0.447188 0.000000 1.000000 255 255 255
4.153974 -7.960796 -3.475670 0.447188 0.000000 -0.894406 0.000000 0.000000 255 255 255
4.153974 -8.117019 -3.475670 0.666646 -0.666646 -0.333323 1.000000 0.000000 255 255 255
4.153974 -8.117019 -3.475670 0.666646 -0.666646 -0.333323 0.000000 0.000000 255 255 255
6.886826 -7.960797 -3.475670 -0.894406 0.000000 -0.447188 0.000000 1.000000 255 255 255
6.886827 -7.960796 -5.463241 -0.707083 0.000000 -0.707083 0.000000 0.000000 255 255 255
6.886826 -8.117020 -3.475670 -0.333323 -0.666646 -0.666646 1.000000 0.000000 255 255 255
4.153974 -7.960796 -3.475670 0.447188 0.000000 -0.894406 0.000000 1.000000 255 255 255
6.886826 -7.960797 -3.475670 -0.894406 0.000000 -0.447188 0.000000 0.000000 255 255 255
6.886826 -8.117020 -3.475670 -0.333323 -0.666646 -0.666646 0.000000 0.000000 255 255 255
-1.210801 -5.229176 -0.166952 0.707083 -0.707083 0.000000 0.000000 1.000000 255 255 255
-1.893706 -5.229176 -0.166952 -0.894406 -0.447188 0.000000 0.000000 0.000000 255 255 255
-1.893706 -5.229176 -0.303119 -0.408246 -0.816492 0.408246 0.000000 0.000000 255 255 255
-1.893706 -5.229176 -0.166952 -0.894406 -0.447188 0.000000 0.000000 1.000000 255 255 255
-1.893706 -3.863365 -0.166952 -0.447188 0.894406 0.000000 0.000000 0.000000 255 255 255
-1.893706 -3.863365 -0.303119 -0.666646 0.333323 0.666646 1.000000 0.000000 255 255 255
-1.893706 -3.863365 -0.303119 -0.666646 0.333323 0.666646 0.000000 0.000000 255 255 255
-1.893706 -1.131745 -0.166952 -0.894406 -0.447188 0.000000 0.000000 1.000000 255 255 255
-1.893706 0.234065 -0.166952 -0.447188 0.894406 0.000000 0.000000 0.000000 255 255 255
-1.893706 0.234065 -0.303119 -0.666646 0.333323 0.666646 1.000000 0.000000 255 255 255
-1.893706 -1.131745 -0.303119 -0.408246 -0.816492 0.408246 1.000000 0.000000 255 255 255
6.301155 -5.229178 -0.166952 0.447188 -0.894406 0.000000 0.000000 1.000000 255 255 255
6.301155 -5.229178 -0.303119 0.816492 -0.408246 0.408246 1.000000 0.000000 255 255 255
6.301156 -3.863368 -0.166952 0.894406 0.447188 0.000000 0.000000 1.000000 255 255 255
6.301155 -5.229178 -0.166952 0.447188 -0.894406 0.000000 0.000000 0.000000 255 255 255
6.301156 -3.863368 -0.303119 0.333323 0.666646 0.666646 1.000000 0.000000 255 255 255
6.301158 0.234064 -0.166952 0.894406 0.447188 0.000000 0.000000 1.000000 255 255 255
6.301157 -1.131747 -0.166952 0.447188 -0.894406 0.000000 0.000000 0.000000 255 255 255
6.301157 -1.131747 -0.303119 0.666646 -0.333323 0.666646 1.000000 0.000000 255 255 255
6.301157 -1.131747 -0.303119 0.666646 -0.333323 0.666646 0.000000 0.000000 255 255 255
-1.893706 -3.863365 -0.166952 -0.447188 0.894406 0.000000 0.000000 1.000000 255 255 255
-1.210801 -3.863365 -0.303119 0.333323 0.666646 0.666646 1.000000 0.000000 255 255 255
-1.210801 -1.131745 -0.166952 0.448408 -0.893796 0.000000 0.000000 1.000000 255 255 255
-1.893706 -1.131745 -0.166952 -0.894406 -0.447188 0.000000 0.000000 0.000000 255 255 255
-1.893706 -1.131745 -0.303119 -0.408246 -0.816492 0.408246 0.000000 0.000000 255 255 255
5.618251 -3.863367 -0.166952 -0.707083 0.707083 0.000000 0.000000 1.000000 255 255 255
6.301156 -3.863368 -0.166952 0.894406 0.447188 0.000000 0.000000 0.000000 255 255 255
6.301156 -3.863368 -0.303119 0.333323 0.666646 0.666646 0.000000 0.000000 255 255 255
6.301157 -1.131747 -0.166952 0.447188 -0.894406 0.000000 0.000000 1.000000 255 255 255
5.618252 -1.131746 -0.166952 -0.890530 -0.454848 0.000000 0.000000 0.000000 255 255 255
5.618252 -1.131746 -0.303119 -0.332499 -0.668630 0.665059 1.000000 0.000000 255 255 255
5.618252 -1.131746 -0.166952 -0.890530 -0.454848 0.000000 0.000000 1.000000 255 255 255
5.610909 -0.448841 -0.166952 -0.999969 0.003571 0.000000 0.000000 0.000000 255 255 255
5.610909 -0.448841 -0.303119 -0.832026 -0.002960 0.554704 1.000000 0.000000 255 255 255
-1.215424 -0.448840 -0.166952 0.999969 0.002228 0.000000 0.000000 1.000000 255 255 255
-1.210801 -1.131745 -0.166952 0.448408 -0.893796 0.000000 0.000000 0.000000 255 255 255
-1.210801 -1.131745 -0.303119 0.667653 -0.329295 0.667653 0.000000 0.000000 255 255 255
-1.893706 0.234065 -0.166952 -0.447188 0.894406 0.000000 0.000000 1.000000 255 255 255
-1.210800 0.234065 -0.166952 0.896817 0.442335 0.000000 0.000000 0.000000 255 255 255
5.618253 0.234064 -0.166952 -0.445265 0.895383 0.000000 0.000000 1.000000 255 255 255
6.301158 0.234064 -0.166952 0.894406 0.447188 0.000000 0.000000 0.000000 255 255 255
6.301158 0.234064 -0.303119 0.408246 0.816492 0.408246 0.000000 0.000000 255 255 255
2.203724 -5.229177 -0.166952 -0.314188 -0.949339 0.000000 0.000000 1.000000 255 255 255
1.515915 -4.546271 -0.166952 -0.947996 0.318247 0.000000 0.000000 0.000000 255 255 255
1.515915 -4.546271 -0.303119 -0.461562 -0.154942 0.873440 0.000000 0.000000 255 255 255
2.891534 -4.546271 -0.166952 0.947996 -0.318247 0.000000 0.000000 1.000000 255 255 255
2.203724 -5.229177 -0.166952 -0.314188 -0.949339 0.000000 0.000000 0.000000 255 255 255
2.891534 -4.546271 -0.303119 0.461562 0.154942 0.873440 1.000000 0.000000 255 255 255
2.203726 0.234065 -0.166952 0.314127 0.949370 0.000000 0.000000 1.000000 255 255 255
2.891667 -0.448841 -0.166952 0.947966 -0.318308 0.000000 0.000000 0.000000 255 255 255
2.891667 -0.448841 -0.303119 0.461501 0.154973 0.873470 0.000000 0.000000 255 255 255
1.515785 -0.448840 -0.166952 -0.947966 0.318308 0.000000 0.000000 1.000000 255 255 255
2.203726 0.234065 -0.166952 0.314127 0.949370 0.000000 0.000000 0.000000 255 255 255
1.515785 -0.448840 -0.303119 -0.461501 -0.154973 0.873470 1.000000 0.000000 255 255 255
2.203725 -3.863366 -0.166952 0.314188 0.949339 0.000000 0.000000 1.000000 255 255 255
2.891534 -4.546271 -0.166952 0.947996 -0.318247 0.000000 0.000000 0.000000 255 255 255
2.203725 -3.863366 -0.303119 -0.234474 0.708487 0.665609 1.000000 0.000000 255 255 255
1.515915 -4.546271 -0.166952 -0.947996 0.318247 0.000000 0.000000 1.000000 255 255 255
2.203725 -3.863366 -0.166952 0.314188 0.949339 0.000000 0.000000 0.000000 255 255 255
2.203725 -3.863366 -0.303119 -0.234474 0.708487 0.665609 0.000000 0.000000 255 255 255
2.203726 -1.131746 -0.166952 -0.314127 -0.949370 0.000000 0.000000 1.000000 255 255 255
1.515785 -0.448840 -0.166952 -0.947966 0.318308 0.000000 0.000000 0.000000 255 255 255
2.203726 -1.131746 -0.303119 0.234443 -0.708518 0.665578 1.000000 0.000000 255 255 255
2.891667 -0.448841 -0.166952 0.947966 -0.318308 0.000000 0.000000 1.000000 255 255 255
2.203726 -1.131746 -0.166952 -0.314127 -0.949370 0.000000 0.000000 0.000000 255 255 255
2.203726 -1.131746 -0.303119 0.234443 -0.708518 0.665578 0.000000 0.000000 255 255 255
-1.210800 0.234065 -0.166952 0.896817 0.442335 0.000000 0.000000 1.000000 255 255 255
-1.215424 -0.448840 -0.166952 0.999969 0.002228 0.000000 0.000000 0.000000 255 255 255
5.610909 -0.448841 -0.166952 -0.999969 0.003571 0.000000 0.000000 1.000000 255 255 255
5.618253 0.234064 -0.166952 -0.445265 0.895383 0.000000 0.000000 0.000000 255 255 255
-3.259515 2.965686 -0.303119 -0.408246 0.816492 0.408246 0.000000 1.000000 255 255 255
7.534122 2.965686 -4.285426 0.000000 1.000000 0.000000 1.000000 0.000000 255 255 255
-3.144253 2.965687 -4.285426 0.000000 1.000000 0.000000 1.000000 1.000000 255 255 255
3 0 1 2
3 3 4 5
3 6 7 8
3 9 10 8
3 6 11 12
3 13 14 15
3 16 17 15
3 13 18 19
3 20 21 22
3 20 23 24
3 25 26 27
3 28 21 27
3 29 30 31
3 32 17 31
3 32 33 34
3 32 18 35
3 29 11 36
3 37 10 36
3 38 10 39
3 38 40 41
3 42 43 44
3 42 45 46
3 25 47 48
3 42 49 48
3 50 51 52
3 53 54 52
3 55 56 57
3 55 58 59
3 60 61 62
3 60 63 64
3 65 66 67
3 65 68 69
3 70 61 69
3 70 71 72
3 73 74 75
3 73 58 76
3 77 78 67
3 79 80 67
3 81 82 83
3 81 84 85
3 86 87 88
3 86 89 90
3 91 78 92
3 91 87 85
3 93 78 75
3 93 89 94
3 0 74 83
3 95 80 83
3 96 97 98
3 99 100 98
3 101 102 103
3 101 97 104
3 105 106 107
3 108 102 107
3 109 100 110
3 111 106 110
3 111 97 112
3 99 102 112
3 101 113 98
3 101 114 110
3 115 116 90
3 115 117 88
3 118 119 120
3 121 84 120
3 122 123 124
3 122 125 90
3 126 127 120
3 126 82 128
3 129 130 128
3 129 131 124
3 132 133 64
3 132 134 39
3 135 136 137
3 135 138 64
3 139 140 141
3 139 51 142
3 143 14 34
3 143 18 144
3 145 146 144
3 145 66 147
3 148 149 150
3 148 151 59
3 152 7 153
3 152 11 137
3 154 155 142
3 154 156 48
3 157 158 147
3 157 159 31
3 160 161 162
3 160 26 150
3 163 164 165
3 163 21 162
3 166 167 48
3 166 168 46
3 169 170 44
3 169 45 141
3 171 172 59
3 171 173 22
3 174 175 36
3 174 176 41
3 177 178 41
3 177 33 179
3 180 181 27
3 180 182 24
3 183 184 24
3 183 43 185
3 186 187 179
3 186 30 188
3 189 190 188
3 189 191 36
3 192 193 185
3 192 47 194
3 195 196 194
3 195 197 27
3 198 199 46
3 198 49 44
3 200 201 22
3 200 23 165
3 202 74 203
3 202 203 204
