ply
format ascii 1.0
comment created by ply_export.py from Blender
element vertex 112
property float32 x
property float32 y
property float32 z
property float32 nx
property float32 ny
property float32 nz
property float32 s
property float32 t
property uint8 red
property uint8 green
property uint8 blue
element face 106
property list uint8 int32 vertex_indices
end_header
0.064769 -0.064204 1.611143 -0.708182 -0.705985 0.000000 0.482746 0.539740 255 255 255
-0.016936 -0.063949 1.611144 -0.894833 -0.446333 0.000000 0.485267 0.540708 255 255 255
-0.016936 -0.063947 -17.140671 -0.449507 -0.893246 0.000000 0.667788 0.056630 255 255 255
0.064769 -0.064203 -17.140671 -0.708213 -0.705985 0.000000 0.665267 0.055662 255 255 255
-0.016851 0.144268 1.611144 -0.447279 -0.894375 0.000000 0.483876 0.544235 255 255 255
-0.016851 0.144269 -17.140671 -0.894559 -0.446913 0.000000 0.666397 0.060156 255 255 255
-0.116057 0.144268 1.611144 0.893521 -0.448958 0.000000 0.486939 0.545405 255 255 255
-0.116057 0.144269 -17.140671 0.446760 -0.894620 0.000000 0.669460 0.061327 255 255 255
-0.116569 -0.064204 1.611144 0.446760 -0.894620 0.000000 0.488345 0.541879 255 255 255
-0.116569 -0.064203 -17.140671 0.893521 -0.448958 0.000000 0.670866 0.057801 255 255 255
-0.248247 -0.064204 1.611143 0.894406 -0.447188 0.000000 0.492411 0.543432 255 255 255
-0.248247 -0.064203 -17.140671 0.447188 -0.894406 0.000000 0.674932 0.059354 255 255 255
0.818123 -0.193882 1.611143 -0.831446 -0.555559 0.000000 0.460350 0.528656 255 255 255
0.749734 -0.065935 1.611143 -0.517777 -0.855495 0.000000 0.461608 0.531630 255 255 255
0.749734 -0.065934 -17.140671 -0.517777 -0.855495 0.000000 0.644129 0.047552 255 255 255
0.818123 -0.193881 -17.140671 -0.831446 -0.555559 0.000000 0.642870 0.044578 255 255 255
0.910160 -0.306027 -17.140671 -0.707083 -0.707083 0.000000 0.640776 0.041592 255 255 255
0.910160 -0.306029 1.611143 -0.707083 -0.707083 0.000000 0.458256 0.525670 255 255 255
1.022306 -0.398065 1.611143 -0.582537 -0.812769 0.000000 0.455407 0.522788 255 255 255
1.022306 -0.398064 -17.140671 -0.527970 -0.849239 0.000000 0.637927 0.038710 255 255 255
1.150253 -0.466454 1.611143 -0.412763 -0.910825 0.000000 0.451912 0.520120 255 255 255
1.150253 -0.466453 -17.140671 -0.352153 -0.935911 0.000000 0.634433 0.036042 255 255 255
1.289084 -0.508568 1.611143 -0.195074 -0.980773 0.000000 0.447906 0.517769 255 255 255
1.289084 -0.508567 -17.140671 -0.195074 -0.980773 0.000000 0.630427 0.033691 255 255 255
1.433463 -0.522787 -17.140671 0.000000 -1.000000 0.000000 0.626064 0.031746 255 255 255
1.433463 -0.522788 1.611143 0.000000 -1.000000 0.000000 0.443543 0.515825 255 255 255
1.577842 -0.508568 1.611143 0.162786 -0.986633 0.000000 0.438990 0.514362 255 255 255
1.577842 -0.508566 -17.140671 0.227149 -0.973846 0.000000 0.621511 0.030284 255 255 255
1.716673 -0.466454 1.611143 0.222266 -0.974975 0.000000 0.434423 0.513438 255 255 255
1.716673 -0.466453 -17.140671 0.152806 -0.988250 0.000000 0.616943 0.029360 255 255 255
2.112366 -0.433518 1.611143 0.082949 -0.996551 0.000000 0.421985 0.509328 255 255 255
2.112366 -0.433516 -17.140671 0.082949 -0.996551 0.000000 0.604506 0.025250 255 255 255
0.548151 -0.064204 1.611143 0.441023 -0.897458 0.000000 0.467821 0.534038 255 255 255
0.548151 -0.064203 -17.140671 0.893643 -0.448714 0.000000 0.650342 0.049959 255 255 255
0.548151 -0.128243 1.611143 0.997040 -0.076785 0.000000 0.468248 0.532953 255 255 255
0.548151 -0.128241 -17.140671 0.988128 -0.153600 0.000000 0.650769 0.048874 255 255 255
0.533490 -0.190551 1.611143 0.941404 -0.337260 0.000000 0.469116 0.532070 255 255 255
0.533490 -0.190549 -17.140671 0.896725 -0.442518 0.000000 0.651637 0.047992 255 255 255
0.500503 -0.241863 1.611143 0.749443 -0.662038 0.000000 0.470477 0.531590 255 255 255
0.500503 -0.241861 -17.140671 0.637562 -0.770348 0.000000 0.652997 0.047512 255 255 255
0.452856 -0.270369 1.611143 0.400983 -0.916074 0.000000 0.472138 0.531669 255 255 255
0.452856 -0.270368 -17.140671 0.280160 -0.959929 0.000000 0.654659 0.047591 255 255 255
0.401543 -0.278514 1.611143 0.128361 -0.991699 0.000000 0.473777 0.532136 255 255 255
0.401543 -0.278513 -17.140671 0.099826 -0.994995 0.000000 0.656297 0.048058 255 255 255
0.350231 -0.282180 1.611143 0.047517 -0.998840 0.000000 0.475386 0.532679 255 255 255
0.350231 -0.282178 -17.140671 0.023743 -0.999695 0.000000 0.657906 0.048601 255 255 255
0.306963 -0.282180 1.611143 0.000000 -1.000000 0.000000 0.476722 0.533190 255 255 255
0.306963 -0.282178 -17.140671 0.000000 -1.000000 0.000000 0.659242 0.049112 255 255 255
0.305957 -0.282180 1.611143 0.000000 -1.000000 0.000000 0.476753 0.533202 255 255 255
0.262689 -0.282180 1.611143 -0.047517 -0.998840 0.000000 0.478089 0.533712 255 255 255
0.262689 -0.282178 -17.140671 -0.023743 -0.999695 0.000000 0.660609 0.049634 255 255 255
0.305957 -0.282178 -17.140671 0.000000 -1.000000 0.000000 0.659273 0.049124 255 255 255
0.211376 -0.278514 1.611143 -0.128361 -0.991699 0.000000 0.479649 0.534380 255 255 255
0.211376 -0.278513 -17.140671 -0.099826 -0.994995 0.000000 0.662169 0.050301 255 255 255
0.160064 -0.270369 1.611143 -0.400983 -0.916074 0.000000 0.481179 0.535123 255 255 255
0.160064 -0.270368 -17.140671 -0.280160 -0.959929 0.000000 0.663699 0.051045 255 255 255
0.112416 -0.241863 1.611143 -0.749443 -0.662038 0.000000 0.482460 0.536168 255 255 255
0.112416 -0.241861 -17.140671 -0.637562 -0.770379 0.000000 0.664980 0.052090 255 255 255
0.079430 -0.190551 1.611143 -0.941404 -0.337260 0.000000 0.483136 0.537426 255 255 255
0.079430 -0.190549 -17.140671 -0.896756 -0.442518 0.000000 0.665657 0.053348 255 255 255
0.064769 -0.128243 1.611143 -0.993316 -0.115268 0.000000 0.483173 0.538655 255 255 255
0.064769 -0.128241 -17.140671 -0.993316 -0.115268 0.000000 0.665694 0.054577 255 255 255
-0.248247 -0.128243 1.611143 0.988128 -0.153569 0.000000 0.492838 0.542347 255 255 255
-0.248247 -0.128241 -17.140671 0.997040 -0.076785 0.000000 0.675359 0.058269 255 255 255
-0.262907 -0.190551 1.611143 0.896725 -0.442518 0.000000 0.493706 0.541465 255 255 255
-0.262907 -0.190549 -17.140671 0.941404 -0.337260 0.000000 0.676227 0.057387 255 255 255
-0.295894 -0.241863 1.611143 0.637562 -0.770348 0.000000 0.495067 0.540985 255 255 255
-0.295894 -0.241861 -17.140671 0.749443 -0.662038 0.000000 0.677588 0.056906 255 255 255
-0.343541 -0.270369 1.611143 0.280160 -0.959929 0.000000 0.496728 0.541064 255 255 255
-0.343541 -0.270368 -17.140671 0.400983 -0.916074 0.000000 0.679249 0.056985 255 255 255
-0.394854 -0.278514 1.611143 0.099826 -0.994995 0.000000 0.498367 0.541531 255 255 255
-0.394854 -0.278513 -17.140671 0.128361 -0.991699 0.000000 0.680888 0.057453 255 255 255
-0.446166 -0.282180 1.611143 0.023743 -0.999695 0.000000 0.499976 0.542074 255 255 255
-0.446166 -0.282178 -17.140671 0.047517 -0.998840 0.000000 0.682497 0.057996 255 255 255
-0.489435 -0.282180 1.611143 0.000000 -1.000000 0.000000 0.501312 0.542585 255 255 255
-0.489435 -0.282178 -17.140671 0.000000 -1.000000 0.000000 0.683833 0.058507 255 255 255
-0.490440 -0.282180 1.611143 0.000000 -1.000000 0.000000 0.501343 0.542597 255 255 255
-0.533708 -0.282180 1.611143 -0.047517 -0.998840 0.000000 0.502679 0.543107 255 255 255
-0.533708 -0.282178 -17.140671 -0.023743 -0.999695 0.000000 0.685200 0.059029 255 255 255
-0.490440 -0.282178 -17.140671 0.000000 -1.000000 0.000000 0.683864 0.058518 255 255 255
-0.585021 -0.278514 1.611143 -0.128361 -0.991699 0.000000 0.504239 0.543774 255 255 255
-0.585021 -0.278513 -17.140671 -0.099826 -0.994995 0.000000 0.686760 0.059696 255 255 255
-0.636333 -0.270369 1.611143 -0.400983 -0.916074 0.000000 0.505769 0.544518 255 255 255
-0.636333 -0.270368 -17.140671 -0.280160 -0.959929 0.000000 0.688290 0.060439 255 255 255
-0.683981 -0.241863 1.611143 -0.749443 -0.662038 0.000000 0.507050 0.545563 255 255 255
-0.683981 -0.241861 -17.140671 -0.637562 -0.770379 0.000000 0.689571 0.061485 255 255 255
-0.716967 -0.190551 1.611143 -0.941404 -0.337260 0.000000 0.507726 0.546821 255 255 255
-0.716967 -0.190549 -17.140671 -0.896756 -0.442518 0.000000 0.690247 0.062743 255 255 255
-0.731628 -0.128243 1.611143 -0.997040 -0.076785 0.000000 0.507764 0.548050 255 255 255
-0.731628 -0.128241 -17.140671 -0.988128 -0.153600 0.000000 0.690284 0.063972 255 255 255
-0.731628 -0.064204 1.611143 -0.441023 -0.897458 0.000000 0.507337 0.549135 255 255 255
-0.731628 -0.064203 -17.140671 -0.893643 -0.448714 0.000000 0.689857 0.065056 255 255 255
-0.933212 -0.065935 1.611143 0.517777 -0.855495 0.000000 0.513572 0.551483 255 255 255
-0.933212 -0.065934 -17.140671 0.517777 -0.855495 0.000000 0.696093 0.067405 255 255 255
-2.504136 -0.486899 1.611143 0.033815 -0.999420 0.000000 0.564885 0.562883 255 255 255
-2.504136 -0.486897 -17.140671 0.033815 -0.999420 0.000000 0.747406 0.078805 255 255 255
-1.900150 -0.466453 -17.140671 -0.075076 -0.997162 0.000000 0.728620 0.072026 255 255 255
-1.900150 -0.466454 1.611143 -0.184423 -0.982818 0.000000 0.546099 0.556104 255 255 255
-1.761320 -0.508566 -17.140671 -0.227149 -0.973846 0.000000 0.724614 0.069675 255 255 255
-1.761320 -0.508568 1.611143 -0.162786 -0.986633 0.000000 0.542094 0.553753 255 255 255
-1.616941 -0.522787 -17.140671 -0.032807 -0.999451 0.000000 0.720251 0.067731 255 255 255
-1.616941 -0.522788 1.611143 0.032807 -0.999451 0.000000 0.537730 0.551809 255 255 255
-1.472562 -0.508567 -17.140671 0.162786 -0.986633 0.000000 0.715698 0.066269 255 255 255
-1.472562 -0.508568 1.611143 0.227149 -0.973846 0.000000 0.533178 0.550347 255 255 255
-1.333731 -0.466453 -17.140671 0.352153 -0.935911 0.000000 0.711131 0.065344 255 255 255
-1.333731 -0.466454 1.611143 0.412763 -0.910825 0.000000 0.528610 0.549423 255 255 255
-1.205784 -0.398064 -17.140671 0.527970 -0.849239 0.000000 0.706724 0.064994 255 255 255
-1.205784 -0.398065 1.611143 0.582537 -0.812769 0.000000 0.524203 0.549072 255 255 255
-1.093637 -0.306027 -17.140671 0.683523 -0.729911 0.000000 0.702648 0.065230 255 255 255
-1.093637 -0.306029 1.611143 0.729911 -0.683523 0.000000 0.520127 0.549308 255 255 255
-1.001601 -0.193881 -17.140671 0.812769 -0.582537 0.000000 0.699058 0.066044 255 255 255
-1.001601 -0.193882 1.611143 0.849239 -0.527970 0.000000 0.516537 0.550122 255 255 255
3 0 1 2
3 0 2 3
3 1 4 5
3 1 5 2
3 4 6 7
3 4 7 5
3 6 8 9
3 6 9 7
3 8 10 11
3 8 11 9
3 12 13 14
3 12 14 15
3 12 15 16
3 12 16 17
3 18 17 16
3 18 16 19
3 20 18 19
3 20 19 21
3 22 20 21
3 22 21 23
3 22 23 24
3 22 24 25
3 26 25 24
3 26 24 27
3 28 26 27
3 28 27 29
3 30 28 29
3 30 29 31
3 32 33 14
3 32 14 13
3 34 35 33
3 34 33 32
3 36 37 35
3 36 35 34
3 38 39 37
3 38 37 36
3 40 41 39
3 40 39 38
3 42 43 41
3 42 41 40
3 44 45 43
3 44 43 42
3 46 47 45
3 46 45 44
3 48 49 50
3 48 50 51
3 49 52 53
3 49 53 50
3 52 54 55
3 52 55 53
3 54 56 57
3 54 57 55
3 56 58 59
3 56 59 57
3 58 60 61
3 58 61 59
3 0 3 61
3 0 61 60
3 10 62 63
3 10 63 11
3 62 64 65
3 62 65 63
3 64 66 67
3 64 67 65
3 66 68 69
3 66 69 67
3 68 70 71
3 68 71 69
3 70 72 73
3 70 73 71
3 72 74 75
3 72 75 73
3 76 77 78
3 76 78 79
3 77 80 81
3 77 81 78
3 80 82 83
3 80 83 81
3 82 84 85
3 82 85 83
3 84 86 87
3 84 87 85
3 86 88 89
3 86 89 87
3 88 90 91
3 88 91 89
3 90 92 93
3 90 93 91
3 94 95 96
3 94 96 97
3 97 96 98
3 97 98 99
3 99 98 100
3 99 100 101
3 101 100 102
3 101 102 103
3 103 102 104
3 103 104 105
3 105 104 106
3 105 106 107
3 107 106 108
3 107 108 109
3 109 108 110
3 109 110 111
3 111 110 93
3 93 92 111
