ply
format ascii 1.0
comment created by ply_export.py from Blender
element vertex 32
property float32 x
property float32 y
property float32 z
property float32 nx
property float32 ny
property float32 nz
element face 29
property list uint8 int32 vertex_indices
end_header
0.355290 10.233753 -0.355289 0.577349 0.577349 -0.577349
0.355290 0.263752 -0.355290 0.577349 -0.577349 -0.577349
-0.355290 0.263752 -0.355290 -0.577349 -0.577349 -0.577349
-0.355290 10.233753 -0.355289 -0.577349 0.577349 -0.577349
0.355290 10.233753 0.355290 0.577349 0.577349 0.577349
-0.355290 10.233753 0.355290 -0.577349 0.577349 0.577349
-0.355290 0.263752 0.355290 -0.577349 -0.577349 0.577349
0.355289 0.263751 0.355290 0.577349 -0.577349 0.577349
11.933125 10.233753 -0.355289 -0.577349 0.577349 -0.577349
11.933125 10.233753 0.355290 -0.577349 0.577349 0.577349
12.643704 10.233753 0.355290 0.577349 0.577349 0.577349
12.643704 10.233753 -0.355289 0.577349 0.577349 -0.577349
11.933125 0.263752 -0.355290 -0.577349 -0.577349 -0.577349
11.933125 0.263752 0.355290 -0.577349 -0.577349 0.577349
12.643704 0.263752 -0.355290 0.577349 -0.577349 -0.577349
12.643704 0.263751 0.355290 0.577349 -0.577349 0.577349
13.221659 0.349273 -1.000000 0.289590 0.438398 -0.850826
13.221659 -1.000000 -1.000000 0.230628 -0.698325 -0.677572
-1.000000 -1.000000 -1.000000 -0.570727 -0.820460 -0.032685
-1.000000 0.349274 -1.000000 -0.811121 0.583026 -0.046449
13.221659 0.349273 1.000000 0.800775 0.597858 0.035493
-1.000000 0.349273 1.000000 -0.270669 0.444624 0.853816
-1.000000 -1.000000 1.000000 -0.214454 -0.704550 0.676443
13.221657 -1.000001 1.000000 0.556261 -0.830622 0.024628
12.713990 -1.000000 -0.816811 -0.556261 -0.830622 0.024628
-0.569085 -1.000000 -0.816811 0.214454 -0.704550 0.676443
-0.569085 -1.000000 0.816811 0.448469 -0.644704 0.619007
12.713989 -1.000000 0.816811 -0.313486 -0.949156 0.028169
-0.569085 -0.210024 0.816811 0.586688 0.000000 0.809778
-0.569085 -0.210024 -0.816811 0.302194 0.000000 0.953215
12.713990 -0.210024 -0.816811 -0.998993 0.000000 0.044252
12.713989 -0.210025 0.816811 -0.707083 0.000000 0.707083
4 0 1 2 3
4 4 5 6 7
4 0 4 7 1
4 1 7 6 2
4 2 6 5 3
4 4 0 3 5
4 8 9 10 11
4 12 13 9 8
4 14 15 13 12
4 11 10 15 14
4 10 9 13 15
4 12 8 11 14
4 16 17 18 19
4 20 21 22 23
4 16 20 23 17
4 18 22 21 19
4 20 16 19 21
4 17 24 25 18
4 18 25 26 22
4 23 22 26 27
4 17 23 27 24
4 22 26 28 21
4 18 25 29 19
3 20 23 27
4 16 17 24 30
4 27 31 28 26
4 25 29 28 26
4 24 27 31 30
4 24 30 29 25
