ply
format ascii 1.0
comment created by ply_export.py from Blender
element vertex 225
property float32 x
property float32 y
property float32 z
property float32 nx
property float32 ny
property float32 nz
element face 432
property list uint8 int32 vertex_indices
end_header
-0.000000 -0.000000 -3.657926 0.000000 0.000000 -1.000000
0.254897 0.105582 -3.630752 0.209815 0.086886 -0.973846
0.275899 0.000000 -3.630752 0.195013 0.000000 -0.980773
0.195090 0.195090 -3.630752 0.143315 0.159703 -0.976684
0.105582 0.254898 -3.630752 0.071291 0.202399 -0.976684
-0.000000 0.275899 -3.630752 -0.011567 0.214270 -0.976684
-0.105582 0.254898 -3.630752 -0.092715 0.193518 -0.976684
-0.195090 0.195090 -3.630752 -0.159703 0.143315 -0.976684
-0.254898 0.105582 -3.630752 -0.202399 0.071291 -0.976684
-0.275899 0.000000 -3.630752 -0.214270 -0.011567 -0.976684
-0.254898 -0.105582 -3.630752 -0.193518 -0.092715 -0.976684
-0.195090 -0.195090 -3.630752 -0.143315 -0.159703 -0.976684
-0.105582 -0.254897 -3.630752 -0.071291 -0.202399 -0.976684
-0.000000 -0.275899 -3.630752 0.011567 -0.214270 -0.976684
0.105582 -0.254897 -3.630752 0.092715 -0.193518 -0.976684
0.195090 -0.195090 -3.630752 0.159703 -0.143315 -0.976684
0.254897 -0.105582 -3.630752 0.202399 -0.071291 -0.976684
0.785695 0.000000 8.921056 0.335459 -0.022217 0.941771
0.725887 0.300672 8.921056 0.318430 0.107822 0.941771
0.001684 0.000698 8.921058 0.000000 0.000000 1.000000
0.001823 0.000000 8.921058 0.000000 0.000000 1.000000
0.725887 -0.300672 8.921056 0.301401 -0.148930 0.941771
0.001684 -0.000697 8.921058 0.000000 0.000000 1.000000
0.555570 -0.555570 8.921056 0.221473 -0.252937 0.941771
0.001289 -0.001289 8.921058 0.000000 0.000000 1.000000
0.300672 -0.725887 8.921056 0.107822 -0.318430 0.941771
0.000698 -0.001684 8.921058 0.000000 0.000000 1.000000
-0.000000 -0.785695 8.921056 -0.022217 -0.335459 0.941771
-0.000000 -0.001823 8.921058 0.000000 0.000000 1.000000
-0.300672 -0.725887 8.921056 -0.148930 -0.301401 0.941771
-0.000698 -0.001684 8.921058 0.000000 0.000000 1.000000
-0.555570 -0.555570 8.921056 -0.252937 -0.221473 0.941771
-0.001289 -0.001289 8.921058 0.000000 0.000000 1.000000
-0.725887 -0.300672 8.921056 -0.318430 -0.107822 0.941771
-0.001684 -0.000697 8.921058 0.000000 0.000000 1.000000
-0.785695 -0.000000 8.921056 -0.335459 0.022217 0.941771
-0.001823 0.000000 8.921058 0.000000 0.000000 1.000000
-0.725887 0.300672 8.921056 -0.301401 0.148930 0.941771
-0.001684 0.000698 8.921058 0.000000 0.000000 1.000000
-0.555570 0.555570 8.921056 -0.221473 0.252937 0.941771
-0.001289 0.001289 8.921058 0.000000 0.000000 1.000000
-0.300672 0.725887 8.921056 -0.107822 0.318430 0.941771
-0.000698 0.001684 8.921058 0.000000 0.000000 1.000000
-0.000000 0.785695 8.921056 0.019013 0.286996 0.957732
-0.000000 0.001823 8.921058 0.000000 0.000000 1.000000
0.300672 0.725887 8.921056 0.178381 0.361064 0.915311
0.000698 0.001684 8.921058 0.000000 0.000000 1.000000
0.555570 0.555570 8.921056 0.252937 0.221473 0.941771
0.001289 0.001289 8.921058 0.000000 0.000000 1.000000
0.541195 0.000000 -3.550275 0.352031 0.000000 -0.935972
0.499999 -0.207106 -3.550275 0.355724 -0.140843 -0.923887
0.785694 0.000000 -3.419588 0.527848 0.000000 -0.849330
0.725887 -0.300672 -3.419588 0.515183 -0.207587 -0.831538
0.999999 0.000000 -3.243712 0.683401 0.000000 -0.730033
0.923879 -0.382683 -3.243712 0.654866 -0.266335 -0.707205
1.175875 0.000000 -3.029407 0.812677 0.000000 -0.582659
1.086367 -0.449987 -3.029407 0.769433 -0.314859 -0.555681
1.306562 0.000000 -2.784908 0.917997 0.027253 -0.395611
1.207106 -0.499999 -2.784908 0.854427 -0.351299 -0.382794
1.387040 0.000000 -2.519611 0.984039 -0.065218 -0.165380
1.281458 -0.530797 -2.519611 0.884182 -0.436842 -0.165380
1.306562 -0.541195 -1.810759 0.934538 -0.316416 0.162725
1.414213 0.000000 -1.810759 0.984497 0.065249 0.162725
0.752224 0.000000 -0.080827 0.998047 0.001221 0.062075
0.694964 -0.287863 -0.080827 0.922544 -0.380779 0.062075
1.783067 -0.000000 4.102236 0.998749 0.000610 -0.049440
1.647339 -0.682350 4.102236 0.922971 -0.381634 -0.049440
1.175875 0.000000 8.325272 0.963775 -0.002167 0.266610
1.086367 -0.449988 8.325272 0.889584 -0.370830 0.266610
0.999999 0.000000 8.745181 0.801324 -0.009583 0.598102
0.923879 -0.382683 8.745181 0.736656 -0.315531 0.598102
0.707106 -0.707106 8.745181 0.559832 -0.573412 0.598102
0.831469 -0.831469 8.325272 0.679952 -0.683035 0.266610
1.260819 -1.260819 4.102236 0.706656 -0.705802 -0.049440
0.531902 -0.531902 -0.080827 0.706595 -0.704856 0.062075
0.999999 -0.999999 -1.810759 0.719596 -0.681265 0.134129
0.980785 -0.980785 -2.519611 0.666433 -0.720695 -0.190924
0.923879 -0.923879 -2.784908 0.654927 -0.651509 -0.382794
0.831469 -0.831469 -3.029407 0.619983 -0.570238 -0.538865
0.707106 -0.707106 -3.243712 0.493973 -0.519639 -0.697104
0.555570 -0.555570 -3.419588 0.396527 -0.388928 -0.831538
0.382683 -0.382683 -3.550275 0.274728 -0.266243 -0.923887
0.207106 -0.499999 -3.550275 0.151921 -0.351115 -0.923887
0.300672 -0.725887 -3.419588 0.217505 -0.511063 -0.831538
0.382683 -0.923879 -3.243712 0.241615 -0.649678 -0.720786
0.449988 -1.086366 -3.029407 0.338237 -0.750938 -0.567156
0.500000 -1.207106 -2.784908 0.355754 -0.852565 -0.382794
0.530797 -1.281457 -2.519611 0.353008 -0.923887 -0.147496
0.541196 -1.306562 -1.810759 0.409436 -0.889401 0.203131
0.287863 -0.694964 -0.080827 0.383068 -0.921598 0.062075
0.682350 -1.647339 4.102236 0.382763 -0.922513 -0.049440
0.449988 -1.086367 8.325272 0.366802 -0.891263 0.266610
0.382683 -0.923879 8.745181 0.297769 -0.744011 0.598102
0.000000 -1.000000 8.745181 -0.009583 -0.801324 0.598102
0.000000 -1.175875 8.325272 -0.002167 -0.963775 0.266610
0.000000 -1.783067 4.102236 0.000610 -0.998749 -0.049440
-0.000000 -0.752224 -0.080827 0.001221 -0.998047 0.062075
-0.000000 -1.414213 -1.810759 0.065249 -0.984497 0.162725
-0.000000 -1.387040 -2.519611 -0.040010 -0.989288 -0.140172
-0.000000 -1.306562 -2.784908 -0.025208 -0.928800 -0.369640
-0.000000 -1.175875 -3.029407 0.003510 -0.831355 -0.555681
-0.000000 -0.999999 -3.243712 0.004517 -0.706961 -0.707205
-0.000000 -0.785694 -3.419588 0.005341 -0.555406 -0.831538
-0.000000 -0.541195 -3.550275 0.005982 -0.382550 -0.923887
-0.207107 -0.499999 -3.550275 -0.140843 -0.355724 -0.923887
-0.300672 -0.725887 -3.419588 -0.207587 -0.515183 -0.831538
-0.382683 -0.923879 -3.243712 -0.266335 -0.654866 -0.707205
-0.449988 -1.086367 -3.029407 -0.314859 -0.769433 -0.555681
-0.500000 -1.207106 -2.784908 -0.409345 -0.828486 -0.382061
-0.530797 -1.281457 -2.519611 -0.378643 -0.910550 -0.165746
-0.541196 -1.306562 -1.810759 -0.316416 -0.934538 0.162725
-0.287864 -0.694964 -0.080827 -0.380779 -0.922544 0.062075
-0.682350 -1.647339 4.102236 -0.381634 -0.922971 -0.049440
-0.449988 -1.086367 8.325272 -0.370830 -0.889584 0.266610
-0.382683 -0.923879 8.745181 -0.315531 -0.736656 0.598102
-0.707107 -0.707107 8.745181 -0.573412 -0.559832 0.598102
-0.831469 -0.831469 8.325272 -0.683035 -0.679952 0.266610
-1.260819 -1.260819 4.102236 -0.705802 -0.706656 -0.049440
-0.531903 -0.531902 -0.080827 -0.704856 -0.706595 0.062075
-1.000000 -0.999999 -1.810759 -0.649983 -0.742302 0.162725
-0.980785 -0.980785 -2.519611 -0.714957 -0.674551 -0.183782
-0.923880 -0.923879 -2.784908 -0.672292 -0.622425 -0.400647
-0.831469 -0.831469 -3.029407 -0.585345 -0.590350 -0.555681
-0.707107 -0.707106 -3.243712 -0.496689 -0.503098 -0.707205
-0.555570 -0.555570 -3.419588 -0.388928 -0.396527 -0.831538
-0.382683 -0.382683 -3.550275 -0.266243 -0.274728 -0.923887
-0.500000 -0.207106 -3.550275 -0.351115 -0.151921 -0.923887
-0.725887 -0.300672 -3.419588 -0.511063 -0.217505 -0.831538
-0.923879 -0.382683 -3.243712 -0.651418 -0.274728 -0.707205
-1.086367 -0.449988 -3.029407 -0.766717 -0.321390 -0.555681
-1.207107 -0.500000 -2.784908 -0.852565 -0.355754 -0.382794
-1.281458 -0.530797 -2.519611 -0.934111 -0.316294 -0.165380
-1.306563 -0.541196 -1.810759 -0.884579 -0.437056 0.162725
-0.694965 -0.287863 -0.080827 -0.921598 -0.383068 0.062075
-1.647339 -0.682350 4.102236 -0.922513 -0.382763 -0.049440
-1.086367 -0.449988 8.325272 -0.891263 -0.366802 0.266610
-0.923879 -0.382683 8.745181 -0.744011 -0.297769 0.598102
-1.000000 -0.000000 8.745181 -0.801324 0.009583 0.598102
-1.175875 -0.000000 8.325272 -0.963775 0.002167 0.266610
-1.783067 0.000000 4.102236 -0.998749 -0.000610 -0.049440
-0.752224 0.000000 -0.080827 -0.998047 -0.001221 0.062075
-1.414213 0.000000 -1.810759 -0.990570 -0.027100 0.134129
-1.387040 0.000000 -2.519611 -0.980834 0.038362 -0.190924
-1.306563 0.000000 -2.784908 -0.923826 -0.002411 -0.382794
-1.175876 0.000000 -3.029407 -0.841639 -0.035157 -0.538865
-1.000000 0.000000 -3.243712 -0.716727 0.018128 -0.697104
-0.785695 0.000000 -3.419588 -0.555406 -0.005341 -0.831538
-0.541196 0.000000 -3.550275 -0.382550 -0.005982 -0.923887
-0.500000 0.207107 -3.550275 -0.355724 0.140843 -0.923887
-0.725887 0.300673 -3.419588 -0.515183 0.207587 -0.831538
-0.923880 0.382684 -3.243712 -0.634510 0.313486 -0.706442
-1.086367 0.449988 -3.029407 -0.787988 0.266793 -0.554857
-1.207107 0.500000 -2.784908 -0.854427 0.351299 -0.382794
-1.281458 0.530798 -2.519611 -0.902921 0.403668 -0.147496
-1.306563 0.541196 -1.810759 -0.918424 0.339396 0.203131
-0.694965 0.287864 -0.080827 -0.922544 0.380779 0.062075
-1.647339 0.682350 4.102236 -0.922971 0.381634 -0.049440
-1.086367 0.449988 8.325272 -0.889584 0.370830 0.266610
-0.923879 0.382683 8.745181 -0.736656 0.315531 0.598102
-0.707107 0.707107 8.745181 -0.559832 0.573412 0.598102
-0.831470 0.831469 8.325272 -0.679952 0.683035 0.266610
-1.260819 1.260819 4.102236 -0.706656 0.705802 -0.049440
-0.531903 0.531903 -0.080827 -0.706595 0.704856 0.062075
-1.000000 1.000000 -1.810759 -0.719596 0.681265 0.134129
-0.980785 0.980786 -2.519611 -0.666433 0.720695 -0.190924
-0.923880 0.923880 -2.784908 -0.654927 0.651509 -0.382794
-0.831470 0.831470 -3.029407 -0.599841 0.564318 -0.567156
-0.707107 0.707107 -3.243712 -0.471847 0.507736 -0.720786
-0.555570 0.555570 -3.419588 -0.396527 0.388928 -0.831538
-0.382683 0.382684 -3.550275 -0.274728 0.266243 -0.923887
-0.207107 0.500000 -3.550275 -0.151921 0.351115 -0.923887
-0.300673 0.725888 -3.419588 -0.217505 0.511063 -0.831538
-0.382684 0.923880 -3.243712 -0.274728 0.651418 -0.707205
-0.449988 1.086368 -3.029407 -0.321390 0.766717 -0.555681
-0.500000 1.207107 -2.784908 -0.355754 0.852565 -0.382794
-0.530797 1.281458 -2.519611 -0.378643 0.910550 -0.165746
-0.541196 1.306563 -1.810759 -0.375561 0.912320 0.163091
-0.287864 0.694965 -0.080827 -0.383068 0.921598 0.062075
-0.682350 1.647340 4.102236 -0.382763 0.922513 -0.049440
-0.449988 1.086367 8.325272 -0.366802 0.891263 0.266610
-0.382683 0.923879 8.745181 -0.297769 0.744011 0.598102
-0.000000 1.000000 8.745181 0.009583 0.801324 0.598102
-0.000000 1.175876 8.325272 0.002167 0.963775 0.266610
0.000000 1.783068 4.102236 -0.000610 0.998749 -0.049440
-0.000000 0.752225 -0.080827 -0.001221 0.998047 0.062075
-0.000000 1.414214 -1.810759 0.002106 0.986602 0.163091
-0.000000 1.387040 -2.519611 -0.001343 0.986145 -0.165746
-0.000000 1.306563 -2.784908 -0.002411 0.923826 -0.382794
-0.000000 1.175876 -3.029407 -0.003510 0.831355 -0.555681
-0.000000 1.000000 -3.243712 -0.004517 0.706961 -0.707205
-0.000000 0.785695 -3.419588 -0.005341 0.555406 -0.831538
-0.000000 0.541196 -3.550275 -0.005982 0.382550 -0.923887
0.207106 0.500000 -3.550275 0.140843 0.355724 -0.923887
0.300672 0.725888 -3.419588 0.207587 0.515183 -0.831538
0.382683 0.923880 -3.243712 0.266335 0.654866 -0.707205
0.449988 1.086368 -3.029407 0.314859 0.769433 -0.555681
0.500000 1.207107 -2.784908 0.351299 0.854427 -0.382794
0.530797 1.281458 -2.519611 0.376110 0.911618 -0.165746
0.541196 1.306563 -1.810759 0.379498 0.910672 0.163091
0.287864 0.694965 -0.080827 0.380779 0.922544 0.062075
0.682350 1.647340 4.102236 0.381634 0.922971 -0.049440
0.449988 1.086367 8.325272 0.370830 0.889584 0.266610
0.382683 0.923879 8.745181 0.315531 0.736656 0.598102
0.707107 0.707107 8.745181 0.573412 0.559832 0.598102
0.831470 0.831470 8.325272 0.683035 0.679952 0.266610
1.260819 1.260819 4.102236 0.705802 0.706656 -0.049440
0.531903 0.531903 -0.080827 0.704856 0.706595 0.062075
1.000000 1.000000 -1.810759 0.699118 0.696127 0.163091
0.980785 0.980786 -2.519611 0.696341 0.698264 -0.165746
0.923879 0.923880 -2.784908 0.651509 0.654927 -0.382794
0.831469 0.831470 -3.029407 0.585345 0.590350 -0.555681
0.707107 0.707107 -3.243712 0.496689 0.503098 -0.707205
0.555570 0.555570 -3.419588 0.388928 0.396527 -0.831538
0.382683 0.382684 -3.550275 0.266243 0.274728 -0.923887
0.500000 0.207107 -3.550275 0.381268 0.157903 -0.910855
0.725887 0.300673 -3.419588 0.538072 0.222877 -0.812860
0.923879 0.382684 -3.243712 0.674245 0.279275 -0.683615
1.086367 0.449988 -3.029407 0.784509 0.324961 -0.528092
1.207107 0.500000 -2.784908 0.845058 0.391339 -0.364238
1.281458 0.530798 -2.519611 0.923887 0.353008 -0.147496
1.306563 0.541196 -1.810759 0.889401 0.409436 0.203131
0.694964 0.287864 -0.080827 0.921598 0.383068 0.062075
1.647340 0.682350 4.102236 0.922513 0.382763 -0.049440
1.086367 0.449988 8.325272 0.891263 0.366802 0.266610
0.923880 0.382683 8.745181 0.744011 0.297769 0.598102
3 0 1 2
3 3 1 0
3 0 4 3
3 0 5 4
3 0 6 5
3 0 7 6
3 0 8 7
3 0 9 8
3 0 10 9
3 0 11 10
3 0 12 11
3 0 13 12
3 0 14 13
3 0 15 14
3 0 16 15
3 0 2 16
3 17 18 19
3 17 19 20
3 21 17 20
3 21 20 22
3 23 21 22
3 23 22 24
3 25 23 24
3 25 24 26
3 27 25 26
3 27 26 28
3 29 27 28
3 29 28 30
3 31 29 30
3 31 30 32
3 33 31 32
3 33 32 34
3 35 33 34
3 35 34 36
3 37 35 36
3 37 36 38
3 39 37 38
3 39 38 40
3 41 39 40
3 41 40 42
3 43 41 42
3 43 42 44
3 45 43 46
3 43 44 46
3 47 45 46
3 47 46 48
3 18 47 48
3 18 48 19
3 16 2 49
3 16 49 50
3 50 49 51
3 50 51 52
3 52 51 53
3 52 53 54
3 54 53 55
3 54 55 56
3 56 55 57
3 56 57 58
3 58 57 59
3 58 59 60
3 60 59 61
3 59 62 61
3 61 62 63
3 61 63 64
3 64 63 65
3 64 65 66
3 66 65 67
3 66 67 68
3 68 67 69
3 68 69 70
3 70 69 17
3 70 17 21
3 71 70 21
3 71 21 23
3 72 68 70
3 72 70 71
3 73 66 68
3 73 68 72
3 74 64 66
3 74 66 73
3 75 61 64
3 75 64 74
3 76 60 75
3 60 61 75
3 77 58 60
3 77 60 76
3 78 56 58
3 78 58 77
3 79 54 56
3 79 56 78
3 80 52 54
3 80 54 79
3 81 50 52
3 81 52 80
3 15 16 50
3 15 50 81
3 14 15 81
3 14 81 82
3 82 81 80
3 82 80 83
3 83 80 79
3 83 79 84
3 84 79 85
3 79 78 85
3 85 78 77
3 85 77 86
3 86 77 76
3 86 76 87
3 87 76 75
3 87 75 88
3 88 75 74
3 88 74 89
3 89 74 73
3 89 73 90
3 90 73 72
3 90 72 91
3 91 72 71
3 91 71 92
3 92 71 23
3 92 23 25
3 93 92 25
3 93 25 27
3 94 91 92
3 94 92 93
3 95 90 91
3 95 91 94
3 96 89 90
3 96 90 95
3 97 88 89
3 97 89 96
3 98 87 97
3 87 88 97
3 99 86 87
3 99 87 98
3 100 85 86
3 100 86 99
3 101 84 85
3 101 85 100
3 102 83 84
3 102 84 101
3 103 82 83
3 103 83 102
3 13 14 82
3 13 82 103
3 12 13 103
3 12 103 104
3 104 103 102
3 104 102 105
3 105 102 101
3 105 101 106
3 106 101 100
3 106 100 107
3 107 100 99
3 107 99 108
3 108 99 109
3 99 98 109
3 109 98 110
3 98 97 110
3 110 97 96
3 110 96 111
3 111 96 95
3 111 95 112
3 112 95 94
3 112 94 113
3 113 94 93
3 113 93 114
3 114 93 27
3 114 27 29
3 115 114 29
3 115 29 31
3 116 113 114
3 116 114 115
3 117 112 113
3 117 113 116
3 118 111 112
3 118 112 117
3 119 110 111
3 119 111 118
3 120 109 119
3 109 110 119
3 121 108 120
3 108 109 120
3 122 107 108
3 122 108 121
3 123 106 107
3 123 107 122
3 124 105 106
3 124 106 123
3 125 104 105
3 125 105 124
3 11 12 104
3 11 104 125
3 10 11 125
3 10 125 126
3 126 125 124
3 126 124 127
3 127 124 123
3 127 123 128
3 128 123 122
3 128 122 129
3 129 122 121
3 129 121 130
3 130 121 120
3 130 120 131
3 131 120 132
3 120 119 132
3 132 119 118
3 132 118 133
3 133 118 117
3 133 117 134
3 134 117 116
3 134 116 135
3 135 116 115
3 135 115 136
3 136 115 31
3 136 31 33
3 137 136 33
3 137 33 35
3 138 135 136
3 138 136 137
3 139 134 135
3 139 135 138
3 140 133 134
3 140 134 139
3 141 132 133
3 141 133 140
3 142 131 141
3 131 132 141
3 143 130 131
3 143 131 142
3 144 129 130
3 144 130 143
3 145 128 129
3 145 129 144
3 146 127 128
3 146 128 145
3 147 126 127
3 147 127 146
3 9 10 126
3 9 126 147
3 8 9 147
3 8 147 148
3 148 147 146
3 148 146 149
3 149 146 145
3 149 145 150
3 150 145 151
3 145 144 151
3 151 144 143
3 151 143 152
3 152 143 142
3 152 142 153
3 153 142 141
3 153 141 154
3 154 141 140
3 154 140 155
3 155 140 139
3 155 139 156
3 156 139 138
3 156 138 157
3 157 138 137
3 157 137 158
3 158 137 35
3 158 35 37
3 159 158 37
3 159 37 39
3 160 157 158
3 160 158 159
3 161 156 157
3 161 157 160
3 162 155 156
3 162 156 161
3 163 154 155
3 163 155 162
3 164 153 163
3 153 154 163
3 165 152 153
3 165 153 164
3 166 151 152
3 166 152 165
3 167 150 166
3 150 151 166
3 168 149 150
3 168 150 167
3 169 148 149
3 169 149 168
3 7 8 148
3 7 148 169
3 6 7 169
3 6 169 170
3 170 169 168
3 170 168 171
3 171 168 167
3 171 167 172
3 172 167 166
3 172 166 173
3 173 166 165
3 173 165 174
3 174 165 164
3 174 164 175
3 175 164 163
3 175 163 176
3 176 163 162
3 176 162 177
3 177 162 161
3 177 161 178
3 178 161 160
3 178 160 179
3 179 160 159
3 179 159 180
3 180 159 39
3 180 39 41
3 181 180 41
3 181 41 43
3 182 179 180
3 182 180 181
3 183 178 179
3 183 179 182
3 184 177 178
3 184 178 183
3 185 176 177
3 185 177 184
3 186 175 176
3 186 176 185
3 187 174 175
3 187 175 186
3 188 173 174
3 188 174 187
3 189 172 173
3 189 173 188
3 190 171 172
3 190 172 189
3 191 170 171
3 191 171 190
3 5 6 170
3 5 170 191
3 4 5 191
3 4 191 192
3 192 191 190
3 192 190 193
3 193 190 189
3 193 189 194
3 194 189 188
3 194 188 195
3 195 188 187
3 195 187 196
3 196 187 186
3 196 186 197
3 197 186 185
3 197 185 198
3 198 185 184
3 198 184 199
3 199 184 183
3 199 183 200
3 200 183 182
3 200 182 201
3 201 182 181
3 201 181 202
3 202 181 43
3 202 43 45
3 203 202 45
3 203 45 47
3 204 201 202
3 204 202 203
3 205 200 201
3 205 201 204
3 206 199 200
3 206 200 205
3 207 198 199
3 207 199 206
3 208 197 198
3 208 198 207
3 209 196 197
3 209 197 208
3 210 195 196
3 210 196 209
3 211 194 195
3 211 195 210
3 212 193 194
3 212 194 211
3 213 192 193
3 213 193 212
3 3 4 192
3 3 192 213
3 1 3 213
3 1 213 214
3 214 213 212
3 214 212 215
3 215 212 211
3 215 211 216
3 216 211 210
3 216 210 217
3 217 210 209
3 217 209 218
3 218 209 208
3 218 208 219
3 219 208 207
3 219 207 220
3 220 207 206
3 220 206 221
3 221 206 205
3 221 205 222
3 222 205 204
3 222 204 223
3 223 204 203
3 223 203 224
3 224 203 47
3 224 47 18
3 69 224 18
3 69 18 17
3 67 223 224
3 67 224 69
3 65 222 223
3 65 223 67
3 63 221 222
3 63 222 65
3 62 220 221
3 62 221 63
3 59 219 62
3 219 220 62
3 57 218 219
3 57 219 59
3 55 217 57
3 217 218 57
3 53 216 55
3 216 217 55
3 51 215 53
3 215 216 53
3 49 214 51
3 214 215 51
3 2 1 49
3 1 214 49
