<?xml version="1.0" encoding="UTF-8" standalone="no"?>
<!DOCTYPE svg PUBLIC "-//W3C//DTD SVG 1.1//EN"
 "http://www.w3.org/Graphics/SVG/1.1/DTD/svg11.dtd">
<!-- Generated by graphviz version 2.38.0 (20140413.2041)
 -->
<!-- Title: nars.inference.TruthFunctions.induction Pages: 1 -->
<svg width="2738pt" height="220pt"
 viewBox="0.00 0.00 2738.00 220.00" xmlns="http://www.w3.org/2000/svg" xmlns:xlink="http://www.w3.org/1999/xlink">
<g id="graph0" class="graph" transform="scale(1 1) rotate(0) translate(4 216)">
<title>nars.inference.TruthFunctions.induction</title>
<!-- Node1 -->
<g id="node1" class="node"><title>Node1</title>
<polygon fill="#bfbfbf" stroke="black" points="0,-66 0,-85 188,-85 188,-66 0,-66"/>
<text text-anchor="middle" x="94" y="-73" font-family="Helvetica,sans-Serif" font-size="10.00">nars.inference.TruthFunctions.induction</text>
</g>
<!-- Node2 -->
<g id="node2" class="node"><title>Node2</title>
<g id="a_node2"><a xlink:href="../../d4/daa/classnars_1_1inference_1_1SyllogisticRules_a6ee55e2d5114b506fdf5c59ae00dcd19.html#a6ee55e2d5114b506fdf5c59ae00dcd19" target="_top" xlink:title="{&lt;(&amp;&amp;, S1, S2, S3) ==&gt; P&gt;, S1} |&#45; &lt;(&amp;&amp;, S2, S3) ==&gt; P&gt; {&lt;(&amp;&amp;, S2, S3) ==&gt; P&gt;, &lt;S1 ==&gt; S2&gt;} |&#45; &lt;(&amp;&amp;...">
<polygon fill="none" stroke="black" points="611.5,-137.5 611.5,-167.5 737.5,-167.5 737.5,-137.5 611.5,-137.5"/>
<text text-anchor="start" x="619.5" y="-155.5" font-family="Helvetica,sans-Serif" font-size="10.00">nars.inference.Syllogistic</text>
<text text-anchor="middle" x="674.5" y="-144.5" font-family="Helvetica,sans-Serif" font-size="10.00">Rules.conditionalDedInd</text>
</a>
</g>
</g>
<!-- Node1&#45;&gt;Node2 -->
<g id="edge1" class="edge"><title>Node1&#45;&gt;Node2</title>
<path fill="none" stroke="midnightblue" d="M176.492,-86.3468C293.437,-101.913 506.315,-130.247 611.408,-144.235"/>
<polygon fill="midnightblue" stroke="midnightblue" points="176.89,-82.869 166.516,-85.0189 175.966,-89.8078 176.89,-82.869"/>
</g>
<!-- Node13 -->
<g id="node13" class="node"><title>Node13</title>
<g id="a_node13"><a xlink:href="../../d8/d79/classnars_1_1inference_1_1CompositionalRules_ae7906cfca35e9c7568ace240aba808a0.html#ae7906cfca35e9c7568ace240aba808a0" target="_top" xlink:title=" &#160;&#160;&#160;&#160;Introduce a second independent variable into two terms with a common &#160;component ...">
<polygon fill="none" stroke="black" points="403,-60.5 403,-90.5 546,-90.5 546,-60.5 403,-60.5"/>
<text text-anchor="start" x="411" y="-78.5" font-family="Helvetica,sans-Serif" font-size="10.00">nars.inference.Compositional</text>
<text text-anchor="middle" x="474.5" y="-67.5" font-family="Helvetica,sans-Serif" font-size="10.00">Rules.introVarInner</text>
</a>
</g>
</g>
<!-- Node1&#45;&gt;Node13 -->
<g id="edge13" class="edge"><title>Node1&#45;&gt;Node13</title>
<path fill="none" stroke="midnightblue" d="M198.34,-75.5C263.245,-75.5 345.263,-75.5 402.802,-75.5"/>
<polygon fill="midnightblue" stroke="midnightblue" points="198.076,-72.0001 188.076,-75.5 198.076,-79.0001 198.076,-72.0001"/>
</g>
<!-- Node17 -->
<g id="node17" class="node"><title>Node17</title>
<g id="a_node17"><a xlink:href="../../d8/d79/classnars_1_1inference_1_1CompositionalRules_a4e01a00f3a024ecdbd3949fefb803dae.html#a4e01a00f3a024ecdbd3949fefb803dae" target="_top" xlink:title="Introduce a dependent variable in an outer&#45;layer conjunction. ">
<polygon fill="none" stroke="black" points="224,-14.5 224,-44.5 367,-44.5 367,-14.5 224,-14.5"/>
<text text-anchor="start" x="232" y="-32.5" font-family="Helvetica,sans-Serif" font-size="10.00">nars.inference.Compositional</text>
<text text-anchor="middle" x="295.5" y="-21.5" font-family="Helvetica,sans-Serif" font-size="10.00">Rules.introVarOuter</text>
</a>
</g>
</g>
<!-- Node1&#45;&gt;Node17 -->
<g id="edge19" class="edge"><title>Node1&#45;&gt;Node17</title>
<path fill="none" stroke="midnightblue" d="M146.102,-63.7171C171.414,-57.8806 202.261,-50.7681 229.26,-44.5427"/>
<polygon fill="midnightblue" stroke="midnightblue" points="145.294,-60.3114 136.337,-65.9688 146.867,-67.1324 145.294,-60.3114"/>
</g>
<!-- Node3 -->
<g id="node3" class="node"><title>Node3</title>
<g id="a_node3"><a xlink:href="../../da/de3/classnars_1_1inference_1_1RuleTables_a62599450d65ff257b92df0d48d7c1bdf.html#a62599450d65ff257b92df0d48d7c1bdf" target="_top" xlink:title="Conditional deduction or induction, with variable unification. ">
<polygon fill="none" stroke="black" points="803,-181.5 803,-211.5 983,-211.5 983,-181.5 803,-181.5"/>
<text text-anchor="start" x="811" y="-199.5" font-family="Helvetica,sans-Serif" font-size="10.00">nars.inference.RuleTables.conditional</text>
<text text-anchor="middle" x="893" y="-188.5" font-family="Helvetica,sans-Serif" font-size="10.00">DedIndWithVar</text>
</a>
</g>
</g>
<!-- Node2&#45;&gt;Node3 -->
<g id="edge2" class="edge"><title>Node2&#45;&gt;Node3</title>
<path fill="none" stroke="midnightblue" d="M747.441,-167.121C770.134,-171.733 795.235,-176.834 818.064,-181.474"/>
<polygon fill="midnightblue" stroke="midnightblue" points="748.037,-163.67 737.54,-165.109 746.643,-170.53 748.037,-163.67"/>
</g>
<!-- Node4 -->
<g id="node4" class="node"><title>Node4</title>
<g id="a_node4"><a xlink:href="../../da/de3/classnars_1_1inference_1_1RuleTables_ac2d01dfdc40bdd47c757cb549217e6e3.html#ac2d01dfdc40bdd47c757cb549217e6e3" target="_top" xlink:title="Entry point of the inference engine. ">
<polygon fill="none" stroke="black" points="1019,-121 1019,-140 1182,-140 1182,-121 1019,-121"/>
<text text-anchor="middle" x="1100.5" y="-128" font-family="Helvetica,sans-Serif" font-size="10.00">nars.inference.RuleTables.reason</text>
</a>
</g>
</g>
<!-- Node2&#45;&gt;Node4 -->
<g id="edge12" class="edge"><title>Node2&#45;&gt;Node4</title>
<path fill="none" stroke="midnightblue" d="M747.932,-148.742C823.149,-144.839 940.549,-138.747 1018.72,-134.691"/>
<polygon fill="midnightblue" stroke="midnightblue" points="747.412,-145.264 737.607,-149.277 747.775,-152.254 747.412,-145.264"/>
</g>
<!-- Node3&#45;&gt;Node4 -->
<g id="edge3" class="edge"><title>Node3&#45;&gt;Node4</title>
<path fill="none" stroke="midnightblue" d="M950.434,-178.375C988.984,-165.994 1038.53,-150.08 1069.66,-140.082"/>
<polygon fill="midnightblue" stroke="midnightblue" points="949.339,-175.051 940.888,-181.441 951.48,-181.715 949.339,-175.051"/>
</g>
<!-- Node5 -->
<g id="node5" class="node"><title>Node5</title>
<g id="a_node5"><a xlink:href="../../d4/d22/classnars_1_1entity_1_1Concept_ae07576c8466ad65eeb61040e3f71cfc7.html#ae07576c8466ad65eeb61040e3f71cfc7" target="_top" xlink:title="An atomic step in a concept, only called in Memory# processConcept. ">
<polygon fill="none" stroke="black" points="1218,-121 1218,-140 1337,-140 1337,-121 1218,-121"/>
<text text-anchor="middle" x="1277.5" y="-128" font-family="Helvetica,sans-Serif" font-size="10.00">nars.entity.Concept.fire</text>
</a>
</g>
</g>
<!-- Node4&#45;&gt;Node5 -->
<g id="edge4" class="edge"><title>Node4&#45;&gt;Node5</title>
<path fill="none" stroke="midnightblue" d="M1192.25,-130.5C1200.91,-130.5 1209.52,-130.5 1217.76,-130.5"/>
<polygon fill="midnightblue" stroke="midnightblue" points="1192.09,-127 1182.09,-130.5 1192.08,-134 1192.09,-127"/>
</g>
<!-- Node6 -->
<g id="node6" class="node"><title>Node6</title>
<g id="a_node6"><a xlink:href="../../d8/df4/classnars_1_1storage_1_1Memory_a83154b55b922c82b73931d4f22e3a590.html#a83154b55b922c82b73931d4f22e3a590" target="_top" xlink:title="Select a concept to fire. ">
<polygon fill="none" stroke="black" points="1373,-115.5 1373,-145.5 1519,-145.5 1519,-115.5 1373,-115.5"/>
<text text-anchor="start" x="1381" y="-133.5" font-family="Helvetica,sans-Serif" font-size="10.00">nars.storage.Memory.process</text>
<text text-anchor="middle" x="1446" y="-122.5" font-family="Helvetica,sans-Serif" font-size="10.00">Concept</text>
</a>
</g>
</g>
<!-- Node5&#45;&gt;Node6 -->
<g id="edge5" class="edge"><title>Node5&#45;&gt;Node6</title>
<path fill="none" stroke="midnightblue" d="M1347.34,-130.5C1355.75,-130.5 1364.36,-130.5 1372.82,-130.5"/>
<polygon fill="midnightblue" stroke="midnightblue" points="1347.2,-127 1337.2,-130.5 1347.2,-134 1347.2,-127"/>
</g>
<!-- Node7 -->
<g id="node7" class="node"><title>Node7</title>
<g id="a_node7"><a xlink:href="../../d8/df4/classnars_1_1storage_1_1Memory_a49e2cbc8b78d535f4d69739886ee966a.html#a49e2cbc8b78d535f4d69739886ee966a" target="_top" xlink:title="An atomic working workCycle of the system: process new Tasks, then fire a concept. ">
<polygon fill="none" stroke="black" points="1555,-115.5 1555,-145.5 1688,-145.5 1688,-115.5 1555,-115.5"/>
<text text-anchor="start" x="1563" y="-133.5" font-family="Helvetica,sans-Serif" font-size="10.00">nars.storage.Memory.work</text>
<text text-anchor="middle" x="1621.5" y="-122.5" font-family="Helvetica,sans-Serif" font-size="10.00">Cycle</text>
</a>
</g>
</g>
<!-- Node6&#45;&gt;Node7 -->
<g id="edge6" class="edge"><title>Node6&#45;&gt;Node7</title>
<path fill="none" stroke="midnightblue" d="M1529.12,-130.5C1537.72,-130.5 1546.37,-130.5 1554.76,-130.5"/>
<polygon fill="midnightblue" stroke="midnightblue" points="1529.07,-127 1519.07,-130.5 1529.07,-134 1529.07,-127"/>
</g>
<!-- Node8 -->
<g id="node8" class="node"><title>Node8</title>
<g id="a_node8"><a xlink:href="../../dd/da5/classnars_1_1storage_1_1Memory_1_1ReasonerBatch_acc60dec23da774957a85362ed6d7448b.html#acc60dec23da774957a85362ed6d7448b" target="_top" xlink:title="nars.storage.Memory.Reasoner\lBatch.doTick">
<polygon fill="none" stroke="black" points="1724,-115.5 1724,-145.5 1878,-145.5 1878,-115.5 1724,-115.5"/>
<text text-anchor="start" x="1732" y="-133.5" font-family="Helvetica,sans-Serif" font-size="10.00">nars.storage.Memory.Reasoner</text>
<text text-anchor="middle" x="1801" y="-122.5" font-family="Helvetica,sans-Serif" font-size="10.00">Batch.doTick</text>
</a>
</g>
</g>
<!-- Node7&#45;&gt;Node8 -->
<g id="edge7" class="edge"><title>Node7&#45;&gt;Node8</title>
<path fill="none" stroke="midnightblue" d="M1698.32,-130.5C1706.79,-130.5 1715.41,-130.5 1723.89,-130.5"/>
<polygon fill="midnightblue" stroke="midnightblue" points="1698.09,-127 1688.09,-130.5 1698.09,-134 1698.09,-127"/>
</g>
<!-- Node9 -->
<g id="node9" class="node"><title>Node9</title>
<g id="a_node9"><a xlink:href="../../dd/da5/classnars_1_1storage_1_1Memory_1_1ReasonerBatch_aed591f05899b98fd9e4ad01836ad0a40.html#aed591f05899b98fd9e4ad01836ad0a40" target="_top" xlink:title="A clock tick. ">
<polygon fill="none" stroke="black" points="1914,-115.5 1914,-145.5 2068,-145.5 2068,-115.5 1914,-115.5"/>
<text text-anchor="start" x="1922" y="-133.5" font-family="Helvetica,sans-Serif" font-size="10.00">nars.storage.Memory.Reasoner</text>
<text text-anchor="middle" x="1991" y="-122.5" font-family="Helvetica,sans-Serif" font-size="10.00">Batch.tick</text>
</a>
</g>
</g>
<!-- Node8&#45;&gt;Node9 -->
<g id="edge8" class="edge"><title>Node8&#45;&gt;Node9</title>
<path fill="none" stroke="midnightblue" d="M1888.42,-130.5C1896.86,-130.5 1905.37,-130.5 1913.7,-130.5"/>
<polygon fill="midnightblue" stroke="midnightblue" points="1888.2,-127 1878.2,-130.5 1888.2,-134 1888.2,-127"/>
</g>
<!-- Node10 -->
<g id="node10" class="node"><title>Node10</title>
<g id="a_node10"><a xlink:href="../../d4/d88/classnars_1_1storage_1_1Memory_1_1NARSBatch_aad99db6cedde9cff2a997db8906ff821.html#aad99db6cedde9cff2a997db8906ff821" target="_top" xlink:title="Run to completion: repeatedly execute NARS working cycle, until Inputs are Finished, or 1000 steps. ">
<polygon fill="none" stroke="black" points="2104,-121 2104,-140 2286,-140 2286,-121 2104,-121"/>
<text text-anchor="middle" x="2195" y="-128" font-family="Helvetica,sans-Serif" font-size="10.00">nars.storage.Memory.NARSBatch.run</text>
</a>
</g>
</g>
<!-- Node9&#45;&gt;Node10 -->
<g id="edge9" class="edge"><title>Node9&#45;&gt;Node10</title>
<path fill="none" stroke="midnightblue" d="M2078.27,-130.5C2086.69,-130.5 2095.25,-130.5 2103.71,-130.5"/>
<polygon fill="midnightblue" stroke="midnightblue" points="2078.08,-127 2068.08,-130.5 2078.08,-134 2078.08,-127"/>
</g>
<!-- Node11 -->
<g id="node11" class="node"><title>Node11</title>
<g id="a_node11"><a xlink:href="../../d4/d88/classnars_1_1storage_1_1Memory_1_1NARSBatch_a416c39463faa161661ed1d12fea03b3c.html#a416c39463faa161661ed1d12fea03b3c" target="_top" xlink:title="non&#45;static equivalent to main(String[]) : run to completion from an input file ">
<polygon fill="none" stroke="black" points="2322,-115.5 2322,-145.5 2504,-145.5 2504,-115.5 2322,-115.5"/>
<text text-anchor="start" x="2330" y="-133.5" font-family="Helvetica,sans-Serif" font-size="10.00">nars.storage.Memory.NARSBatch.run</text>
<text text-anchor="middle" x="2413" y="-122.5" font-family="Helvetica,sans-Serif" font-size="10.00">Inference</text>
</a>
</g>
</g>
<!-- Node10&#45;&gt;Node11 -->
<g id="edge10" class="edge"><title>Node10&#45;&gt;Node11</title>
<path fill="none" stroke="midnightblue" d="M2296.06,-130.5C2304.63,-130.5 2313.27,-130.5 2321.76,-130.5"/>
<polygon fill="midnightblue" stroke="midnightblue" points="2296.04,-127 2286.04,-130.5 2296.04,-134 2296.04,-127"/>
</g>
<!-- Node12 -->
<g id="node12" class="node"><title>Node12</title>
<g id="a_node12"><a xlink:href="../../d4/d88/classnars_1_1storage_1_1Memory_1_1NARSBatch_aa97fcd68270583e60e6bf1b4579d1bdc.html#aa97fcd68270583e60e6bf1b4579d1bdc" target="_top" xlink:title="The entry point of the standalone application. ">
<polygon fill="none" stroke="black" points="2540,-121 2540,-140 2730,-140 2730,-121 2540,-121"/>
<text text-anchor="middle" x="2635" y="-128" font-family="Helvetica,sans-Serif" font-size="10.00">nars.storage.Memory.NARSBatch.main</text>
</a>
</g>
</g>
<!-- Node11&#45;&gt;Node12 -->
<g id="edge11" class="edge"><title>Node11&#45;&gt;Node12</title>
<path fill="none" stroke="midnightblue" d="M2514.37,-130.5C2522.82,-130.5 2531.34,-130.5 2539.74,-130.5"/>
<polygon fill="midnightblue" stroke="midnightblue" points="2514.12,-127 2504.12,-130.5 2514.12,-134 2514.12,-127"/>
</g>
<!-- Node14 -->
<g id="node14" class="node"><title>Node14</title>
<g id="a_node14"><a xlink:href="../../da/de3/classnars_1_1inference_1_1RuleTables_a8e422154fd8288d161435c3a53e44276.html#a8e422154fd8288d161435c3a53e44276" target="_top" xlink:title="Inference between a compound term and a statement. ">
<polygon fill="none" stroke="black" points="803.5,-93.5 803.5,-123.5 982.5,-123.5 982.5,-93.5 803.5,-93.5"/>
<text text-anchor="start" x="811.5" y="-111.5" font-family="Helvetica,sans-Serif" font-size="10.00">nars.inference.RuleTables.compound</text>
<text text-anchor="middle" x="893" y="-100.5" font-family="Helvetica,sans-Serif" font-size="10.00">AndStatement</text>
</a>
</g>
</g>
<!-- Node13&#45;&gt;Node14 -->
<g id="edge14" class="edge"><title>Node13&#45;&gt;Node14</title>
<path fill="none" stroke="midnightblue" d="M556.321,-85.8557C564.982,-86.819 573.669,-87.7234 582,-88.5 656.507,-95.4451 741.314,-100.737 803.369,-104.127"/>
<polygon fill="midnightblue" stroke="midnightblue" points="556.52,-82.3559 546.188,-84.7018 555.728,-89.3109 556.52,-82.3559"/>
</g>
<!-- Node15 -->
<g id="node15" class="node"><title>Node15</title>
<g id="a_node15"><a xlink:href="../../da/de3/classnars_1_1inference_1_1RuleTables_a3e3eec10853be6dcf8c7532259cf4a84.html#a3e3eec10853be6dcf8c7532259cf4a84" target="_top" xlink:title="The detachment rule, with variable unification. ">
<polygon fill="none" stroke="black" points="582,-49.5 582,-79.5 767,-79.5 767,-49.5 582,-49.5"/>
<text text-anchor="start" x="590" y="-67.5" font-family="Helvetica,sans-Serif" font-size="10.00">nars.inference.RuleTables.detachment</text>
<text text-anchor="middle" x="674.5" y="-56.5" font-family="Helvetica,sans-Serif" font-size="10.00">WithVar</text>
</a>
</g>
</g>
<!-- Node13&#45;&gt;Node15 -->
<g id="edge16" class="edge"><title>Node13&#45;&gt;Node15</title>
<path fill="none" stroke="midnightblue" d="M556.284,-71.012C564.685,-70.5453 573.267,-70.0685 581.777,-69.5957"/>
<polygon fill="midnightblue" stroke="midnightblue" points="555.934,-67.5259 546.144,-71.5753 556.323,-74.5152 555.934,-67.5259"/>
</g>
<!-- Node14&#45;&gt;Node4 -->
<g id="edge15" class="edge"><title>Node14&#45;&gt;Node4</title>
<path fill="none" stroke="midnightblue" d="M992.863,-119.084C1001.6,-120.019 1010.37,-120.958 1018.93,-121.874"/>
<polygon fill="midnightblue" stroke="midnightblue" points="992.957,-115.574 982.642,-117.99 992.212,-122.534 992.957,-115.574"/>
</g>
<!-- Node16 -->
<g id="node16" class="node"><title>Node16</title>
<g id="a_node16"><a xlink:href="../../da/de3/classnars_1_1inference_1_1RuleTables_a8628d400a8ceda7fea05039ddfea319b.html#a8628d400a8ceda7fea05039ddfea319b" target="_top" xlink:title="Meta&#45;table of syllogistic rules, indexed by the content classes of the taskSentence and the belief...">
<polygon fill="none" stroke="black" points="803,-55 803,-74 983,-74 983,-55 803,-55"/>
<text text-anchor="middle" x="893" y="-62" font-family="Helvetica,sans-Serif" font-size="10.00">nars.inference.RuleTables.syllogisms</text>
</a>
</g>
</g>
<!-- Node15&#45;&gt;Node16 -->
<g id="edge17" class="edge"><title>Node15&#45;&gt;Node16</title>
<path fill="none" stroke="midnightblue" d="M777.084,-64.5C785.705,-64.5 794.383,-64.5 802.898,-64.5"/>
<polygon fill="midnightblue" stroke="midnightblue" points="777.002,-61.0001 767.002,-64.5 777.002,-68.0001 777.002,-61.0001"/>
</g>
<!-- Node16&#45;&gt;Node4 -->
<g id="edge18" class="edge"><title>Node16&#45;&gt;Node4</title>
<path fill="none" stroke="midnightblue" d="M955.982,-76.2858C965.108,-78.4383 974.346,-80.8524 983,-83.5 1017.41,-94.0277 1055.86,-110.509 1078.85,-120.896"/>
<polygon fill="midnightblue" stroke="midnightblue" points="956.683,-72.8559 946.156,-74.0542 955.133,-79.6821 956.683,-72.8559"/>
</g>
<!-- Node18 -->
<g id="node18" class="node"><title>Node18</title>
<g id="a_node18"><a xlink:href="../../d8/d79/classnars_1_1inference_1_1CompositionalRules_a53f7edf7bfe7433da42e8fcf36fd6604.html#a53f7edf7bfe7433da42e8fcf36fd6604" target="_top" xlink:title="{&lt;S ==&gt; M&gt;, ">
<polygon fill="none" stroke="black" points="403,-11.5 403,-41.5 546,-41.5 546,-11.5 403,-11.5"/>
<text text-anchor="start" x="411" y="-29.5" font-family="Helvetica,sans-Serif" font-size="10.00">nars.inference.Compositional</text>
<text text-anchor="middle" x="474.5" y="-18.5" font-family="Helvetica,sans-Serif" font-size="10.00">Rules.composeCompound</text>
</a>
</g>
</g>
<!-- Node17&#45;&gt;Node18 -->
<g id="edge20" class="edge"><title>Node17&#45;&gt;Node18</title>
<path fill="none" stroke="midnightblue" d="M377.494,-28.1272C385.973,-27.9835 394.544,-27.8382 402.894,-27.6967"/>
<polygon fill="midnightblue" stroke="midnightblue" points="377.157,-24.6323 367.218,-28.3014 377.276,-31.6313 377.157,-24.6323"/>
</g>
<!-- Node19 -->
<g id="node19" class="node"><title>Node19</title>
<g id="a_node19"><a xlink:href="../../da/de3/classnars_1_1inference_1_1RuleTables_a34927349efcf87db97d23c60983b115b.html#a34927349efcf87db97d23c60983b115b" target="_top" xlink:title="Syllogistic rules whose both premises are on the same asymmetric relation. ">
<polygon fill="none" stroke="black" points="582,-0.5 582,-30.5 767,-30.5 767,-0.5 582,-0.5"/>
<text text-anchor="start" x="590" y="-18.5" font-family="Helvetica,sans-Serif" font-size="10.00">nars.inference.RuleTables.asymmetric</text>
<text text-anchor="middle" x="674.5" y="-7.5" font-family="Helvetica,sans-Serif" font-size="10.00">Asymmetric</text>
</a>
</g>
</g>
<!-- Node18&#45;&gt;Node19 -->
<g id="edge21" class="edge"><title>Node18&#45;&gt;Node19</title>
<path fill="none" stroke="midnightblue" d="M556.284,-22.012C564.685,-21.5453 573.267,-21.0685 581.777,-20.5957"/>
<polygon fill="midnightblue" stroke="midnightblue" points="555.934,-18.5259 546.144,-22.5753 556.323,-25.5152 555.934,-18.5259"/>
</g>
<!-- Node19&#45;&gt;Node16 -->
<g id="edge22" class="edge"><title>Node19&#45;&gt;Node16</title>
<path fill="none" stroke="midnightblue" d="M751.99,-32.8119C784.905,-40.2615 822.118,-48.6838 849.902,-54.972"/>
<polygon fill="midnightblue" stroke="midnightblue" points="752.454,-29.3285 741.928,-30.5346 750.909,-36.1558 752.454,-29.3285"/>
</g>
</g>
</svg>
