<?xml version="1.0" encoding="UTF-8" standalone="no"?>
<!DOCTYPE svg PUBLIC "-//W3C//DTD SVG 1.1//EN"
 "http://www.w3.org/Graphics/SVG/1.1/DTD/svg11.dtd">
<!-- Generated by graphviz version 2.38.0 (20140413.2041)
 -->
<!-- Title: nars.inference.TruthFunctions.desireWeak Pages: 1 -->
<svg width="415pt" height="165pt"
 viewBox="0.00 0.00 415.00 165.00" xmlns="http://www.w3.org/2000/svg" xmlns:xlink="http://www.w3.org/1999/xlink">
<g id="graph0" class="graph" transform="scale(1 1) rotate(0) translate(4 161)">
<title>nars.inference.TruthFunctions.desireWeak</title>
<!-- Node1 -->
<g id="node1" class="node"><title>Node1</title>
<polygon fill="#bfbfbf" stroke="black" points="0,-68.5 0,-87.5 201,-87.5 201,-68.5 0,-68.5"/>
<text text-anchor="middle" x="100.5" y="-75.5" font-family="Helvetica,sans-Serif" font-size="10.00">nars.inference.TruthFunctions.desireWeak</text>
</g>
<!-- Node2 -->
<g id="node2" class="node"><title>Node2</title>
<g id="a_node2"><a xlink:href="../../d4/de4/classnars_1_1inference_1_1UtilityFunctions_a35ac262407303cdf8d11f7892f9a3a03.html#a35ac262407303cdf8d11f7892f9a3a03" target="_top" xlink:title="A function where the output is conjunctively determined by the inputs. ">
<polygon fill="none" stroke="black" points="238,-137.5 238,-156.5 406,-156.5 406,-137.5 238,-137.5"/>
<text text-anchor="middle" x="322" y="-144.5" font-family="Helvetica,sans-Serif" font-size="10.00">nars.inference.UtilityFunctions.and</text>
</a>
</g>
</g>
<!-- Node1&#45;&gt;Node2 -->
<g id="edge1" class="edge"><title>Node1&#45;&gt;Node2</title>
<path fill="none" stroke="midnightblue" d="M124.686,-87.6155C151.42,-98.4531 196.849,-116.107 237,-128 245.541,-130.53 254.656,-132.911 263.616,-135.076"/>
<polygon fill="midnightblue" stroke="midnightblue" points="263.091,-138.548 273.626,-137.425 264.69,-131.733 263.091,-138.548"/>
</g>
<!-- Node3 -->
<g id="node3" class="node"><title>Node3</title>
<g id="a_node3"><a xlink:href="../../d3/db8/classnars_1_1entity_1_1TruthValue_a68ca7d92e9ea20d2a9a9f578ad7b681c.html#a68ca7d92e9ea20d2a9a9f578ad7b681c" target="_top" xlink:title="Get the confidence value. ">
<polygon fill="none" stroke="black" points="257.5,-88 257.5,-118 386.5,-118 386.5,-88 257.5,-88"/>
<text text-anchor="start" x="265.5" y="-106" font-family="Helvetica,sans-Serif" font-size="10.00">nars.entity.TruthValue.get</text>
<text text-anchor="middle" x="322" y="-95" font-family="Helvetica,sans-Serif" font-size="10.00">Confidence</text>
</a>
</g>
</g>
<!-- Node1&#45;&gt;Node3 -->
<g id="edge2" class="edge"><title>Node1&#45;&gt;Node3</title>
<path fill="none" stroke="midnightblue" d="M185.11,-87.5227C205.631,-89.86 227.447,-92.3448 247.455,-94.6236"/>
<polygon fill="midnightblue" stroke="midnightblue" points="247.094,-98.1051 257.426,-95.7593 247.887,-91.15 247.094,-98.1051"/>
</g>
<!-- Node4 -->
<g id="node4" class="node"><title>Node4</title>
<g id="a_node4"><a xlink:href="../../d3/db8/classnars_1_1entity_1_1TruthValue_a9eac33f2495441c77911a8581a5bbe61.html#a9eac33f2495441c77911a8581a5bbe61" target="_top" xlink:title="Get the frequency value. ">
<polygon fill="none" stroke="black" points="257.5,-39 257.5,-69 386.5,-69 386.5,-39 257.5,-39"/>
<text text-anchor="start" x="265.5" y="-57" font-family="Helvetica,sans-Serif" font-size="10.00">nars.entity.TruthValue.get</text>
<text text-anchor="middle" x="322" y="-46" font-family="Helvetica,sans-Serif" font-size="10.00">Frequency</text>
</a>
</g>
</g>
<!-- Node1&#45;&gt;Node4 -->
<g id="edge3" class="edge"><title>Node1&#45;&gt;Node4</title>
<path fill="none" stroke="midnightblue" d="M188.567,-68.4801C208.048,-66.3502 228.525,-64.1112 247.396,-62.0478"/>
<polygon fill="midnightblue" stroke="midnightblue" points="247.841,-65.5201 257.401,-60.9539 247.08,-58.5616 247.841,-65.5201"/>
</g>
<!-- Node5 -->
<g id="node5" class="node"><title>Node5</title>
<g id="a_node5"><a xlink:href="../../d4/de4/classnars_1_1inference_1_1UtilityFunctions_a957a91e3b91d4a4043c3959838c370f2.html#a957a91e3b91d4a4043c3959838c370f2" target="_top" xlink:title="A function to convert weight to confidence. ">
<polygon fill="none" stroke="black" points="237,-0.5 237,-19.5 407,-19.5 407,-0.5 237,-0.5"/>
<text text-anchor="middle" x="322" y="-7.5" font-family="Helvetica,sans-Serif" font-size="10.00">nars.inference.UtilityFunctions.w2c</text>
</a>
</g>
</g>
<!-- Node1&#45;&gt;Node5 -->
<g id="edge4" class="edge"><title>Node1&#45;&gt;Node5</title>
<path fill="none" stroke="midnightblue" d="M126.213,-68.3485C153.177,-58.0294 197.746,-41.5898 237,-30 246.705,-27.1346 257.132,-24.3898 267.225,-21.9013"/>
<polygon fill="midnightblue" stroke="midnightblue" points="268.268,-25.2502 277.169,-19.5031 266.627,-18.4453 268.268,-25.2502"/>
</g>
</g>
</svg>
