<?xml version="1.0" encoding="UTF-8" standalone="no"?>
<!DOCTYPE svg PUBLIC "-//W3C//DTD SVG 1.1//EN"
 "http://www.w3.org/Graphics/SVG/1.1/DTD/svg11.dtd">
<!-- Generated by graphviz version 2.38.0 (20140413.2041)
 -->
<!-- Title: nars.inference.TruthFunctions.abduction Pages: 1 -->
<svg width="405pt" height="165pt"
 viewBox="0.00 0.00 405.00 165.00" xmlns="http://www.w3.org/2000/svg" xmlns:xlink="http://www.w3.org/1999/xlink">
<g id="graph0" class="graph" transform="scale(1 1) rotate(0) translate(4 161)">
<title>nars.inference.TruthFunctions.abduction</title>
<!-- Node1 -->
<g id="node1" class="node"><title>Node1</title>
<polygon fill="#bfbfbf" stroke="black" points="0,-68.5 0,-87.5 191,-87.5 191,-68.5 0,-68.5"/>
<text text-anchor="middle" x="95.5" y="-75.5" font-family="Helvetica,sans-Serif" font-size="10.00">nars.inference.TruthFunctions.abduction</text>
</g>
<!-- Node2 -->
<g id="node2" class="node"><title>Node2</title>
<g id="a_node2"><a xlink:href="../../d4/de4/classnars_1_1inference_1_1UtilityFunctions_a35ac262407303cdf8d11f7892f9a3a03.html#a35ac262407303cdf8d11f7892f9a3a03" target="_top" xlink:title="A function where the output is conjunctively determined by the inputs. ">
<polygon fill="none" stroke="black" points="228,-137.5 228,-156.5 396,-156.5 396,-137.5 228,-137.5"/>
<text text-anchor="middle" x="312" y="-144.5" font-family="Helvetica,sans-Serif" font-size="10.00">nars.inference.UtilityFunctions.and</text>
</a>
</g>
</g>
<!-- Node1&#45;&gt;Node2 -->
<g id="edge1" class="edge"><title>Node1&#45;&gt;Node2</title>
<path fill="none" stroke="midnightblue" d="M118.791,-87.668C144.503,-98.5539 188.223,-116.252 227,-128 235.421,-130.551 244.41,-132.934 253.26,-135.09"/>
<polygon fill="midnightblue" stroke="midnightblue" points="252.619,-138.535 263.156,-137.425 254.227,-131.722 252.619,-138.535"/>
</g>
<!-- Node3 -->
<g id="node3" class="node"><title>Node3</title>
<g id="a_node3"><a xlink:href="../../d3/db8/classnars_1_1entity_1_1TruthValue_a68ca7d92e9ea20d2a9a9f578ad7b681c.html#a68ca7d92e9ea20d2a9a9f578ad7b681c" target="_top" xlink:title="Get the confidence value. ">
<polygon fill="none" stroke="black" points="247.5,-88 247.5,-118 376.5,-118 376.5,-88 247.5,-88"/>
<text text-anchor="start" x="255.5" y="-106" font-family="Helvetica,sans-Serif" font-size="10.00">nars.entity.TruthValue.get</text>
<text text-anchor="middle" x="312" y="-95" font-family="Helvetica,sans-Serif" font-size="10.00">Confidence</text>
</a>
</g>
</g>
<!-- Node1&#45;&gt;Node3 -->
<g id="edge2" class="edge"><title>Node1&#45;&gt;Node3</title>
<path fill="none" stroke="midnightblue" d="M178.205,-87.5227C197.574,-89.7802 218.123,-92.1752 237.121,-94.3894"/>
<polygon fill="midnightblue" stroke="midnightblue" points="236.86,-97.8825 247.198,-95.5638 237.67,-90.9296 236.86,-97.8825"/>
</g>
<!-- Node4 -->
<g id="node4" class="node"><title>Node4</title>
<g id="a_node4"><a xlink:href="../../d3/db8/classnars_1_1entity_1_1TruthValue_a9eac33f2495441c77911a8581a5bbe61.html#a9eac33f2495441c77911a8581a5bbe61" target="_top" xlink:title="Get the frequency value. ">
<polygon fill="none" stroke="black" points="247.5,-39 247.5,-69 376.5,-69 376.5,-39 247.5,-39"/>
<text text-anchor="start" x="255.5" y="-57" font-family="Helvetica,sans-Serif" font-size="10.00">nars.entity.TruthValue.get</text>
<text text-anchor="middle" x="312" y="-46" font-family="Helvetica,sans-Serif" font-size="10.00">Frequency</text>
</a>
</g>
</g>
<!-- Node1&#45;&gt;Node4 -->
<g id="edge3" class="edge"><title>Node1&#45;&gt;Node4</title>
<path fill="none" stroke="midnightblue" d="M181.584,-68.4801C199.954,-66.4247 219.231,-64.2679 237.13,-62.2652"/>
<polygon fill="midnightblue" stroke="midnightblue" points="237.655,-65.7284 247.204,-61.138 236.877,-58.7718 237.655,-65.7284"/>
</g>
<!-- Node5 -->
<g id="node5" class="node"><title>Node5</title>
<g id="a_node5"><a xlink:href="../../d4/de4/classnars_1_1inference_1_1UtilityFunctions_a957a91e3b91d4a4043c3959838c370f2.html#a957a91e3b91d4a4043c3959838c370f2" target="_top" xlink:title="A function to convert weight to confidence. ">
<polygon fill="none" stroke="black" points="227,-0.5 227,-19.5 397,-19.5 397,-0.5 227,-0.5"/>
<text text-anchor="middle" x="312" y="-7.5" font-family="Helvetica,sans-Serif" font-size="10.00">nars.inference.UtilityFunctions.w2c</text>
</a>
</g>
</g>
<!-- Node1&#45;&gt;Node5 -->
<g id="edge4" class="edge"><title>Node1&#45;&gt;Node5</title>
<path fill="none" stroke="midnightblue" d="M119.791,-68.4789C145.678,-58.1218 188.867,-41.5081 227,-30 236.58,-27.1089 246.875,-24.3657 256.861,-21.8899"/>
<polygon fill="midnightblue" stroke="midnightblue" points="257.809,-25.2615 266.705,-19.5076 256.163,-18.4578 257.809,-25.2615"/>
</g>
</g>
</svg>
