<?xml version="1.0" encoding="UTF-8" standalone="no"?>
<!DOCTYPE svg PUBLIC "-//W3C//DTD SVG 1.1//EN"
 "http://www.w3.org/Graphics/SVG/1.1/DTD/svg11.dtd">
<!-- Generated by graphviz version 2.38.0 (20140413.2041)
 -->
<!-- Title: nars.inference.TruthFunctions.desireInd Pages: 1 -->
<svg width="403pt" height="165pt"
 viewBox="0.00 0.00 403.00 165.00" xmlns="http://www.w3.org/2000/svg" xmlns:xlink="http://www.w3.org/1999/xlink">
<g id="graph0" class="graph" transform="scale(1 1) rotate(0) translate(4 161)">
<title>nars.inference.TruthFunctions.desireInd</title>
<!-- Node1 -->
<g id="node1" class="node"><title>Node1</title>
<polygon fill="#bfbfbf" stroke="black" points="0,-68.5 0,-87.5 189,-87.5 189,-68.5 0,-68.5"/>
<text text-anchor="middle" x="94.5" y="-75.5" font-family="Helvetica,sans-Serif" font-size="10.00">nars.inference.TruthFunctions.desireInd</text>
</g>
<!-- Node2 -->
<g id="node2" class="node"><title>Node2</title>
<g id="a_node2"><a xlink:href="../../d4/de4/classnars_1_1inference_1_1UtilityFunctions_a35ac262407303cdf8d11f7892f9a3a03.html#a35ac262407303cdf8d11f7892f9a3a03" target="_top" xlink:title="A function where the output is conjunctively determined by the inputs. ">
<polygon fill="none" stroke="black" points="226,-137.5 226,-156.5 394,-156.5 394,-137.5 226,-137.5"/>
<text text-anchor="middle" x="310" y="-144.5" font-family="Helvetica,sans-Serif" font-size="10.00">nars.inference.UtilityFunctions.and</text>
</a>
</g>
</g>
<!-- Node1&#45;&gt;Node2 -->
<g id="edge1" class="edge"><title>Node1&#45;&gt;Node2</title>
<path fill="none" stroke="midnightblue" d="M117.612,-87.6785C143.119,-98.5739 186.497,-116.281 225,-128 233.418,-130.562 242.405,-132.95 251.254,-135.109"/>
<polygon fill="midnightblue" stroke="midnightblue" points="250.613,-138.554 261.149,-137.446 252.222,-131.741 250.613,-138.554"/>
</g>
<!-- Node3 -->
<g id="node3" class="node"><title>Node3</title>
<g id="a_node3"><a xlink:href="../../d3/db8/classnars_1_1entity_1_1TruthValue_a68ca7d92e9ea20d2a9a9f578ad7b681c.html#a68ca7d92e9ea20d2a9a9f578ad7b681c" target="_top" xlink:title="Get the confidence value. ">
<polygon fill="none" stroke="black" points="245.5,-88 245.5,-118 374.5,-118 374.5,-88 245.5,-88"/>
<text text-anchor="start" x="253.5" y="-106" font-family="Helvetica,sans-Serif" font-size="10.00">nars.entity.TruthValue.get</text>
<text text-anchor="middle" x="310" y="-95" font-family="Helvetica,sans-Serif" font-size="10.00">Confidence</text>
</a>
</g>
</g>
<!-- Node1&#45;&gt;Node3 -->
<g id="edge2" class="edge"><title>Node1&#45;&gt;Node3</title>
<path fill="none" stroke="midnightblue" d="M176.824,-87.5227C196.103,-89.7802 216.556,-92.1752 235.465,-94.3894"/>
<polygon fill="midnightblue" stroke="midnightblue" points="235.156,-97.877 245.495,-95.5638 235.97,-90.9245 235.156,-97.877"/>
</g>
<!-- Node4 -->
<g id="node4" class="node"><title>Node4</title>
<g id="a_node4"><a xlink:href="../../d3/db8/classnars_1_1entity_1_1TruthValue_a9eac33f2495441c77911a8581a5bbe61.html#a9eac33f2495441c77911a8581a5bbe61" target="_top" xlink:title="Get the frequency value. ">
<polygon fill="none" stroke="black" points="245.5,-39 245.5,-69 374.5,-69 374.5,-39 245.5,-39"/>
<text text-anchor="start" x="253.5" y="-57" font-family="Helvetica,sans-Serif" font-size="10.00">nars.entity.TruthValue.get</text>
<text text-anchor="middle" x="310" y="-46" font-family="Helvetica,sans-Serif" font-size="10.00">Frequency</text>
</a>
</g>
</g>
<!-- Node1&#45;&gt;Node4 -->
<g id="edge3" class="edge"><title>Node1&#45;&gt;Node4</title>
<path fill="none" stroke="midnightblue" d="M180.187,-68.4801C198.289,-66.4452 217.276,-64.3109 234.941,-62.3251"/>
<polygon fill="midnightblue" stroke="midnightblue" points="235.626,-65.7703 245.172,-61.175 234.844,-58.8141 235.626,-65.7703"/>
</g>
<!-- Node5 -->
<g id="node5" class="node"><title>Node5</title>
<g id="a_node5"><a xlink:href="../../d4/de4/classnars_1_1inference_1_1UtilityFunctions_a957a91e3b91d4a4043c3959838c370f2.html#a957a91e3b91d4a4043c3959838c370f2" target="_top" xlink:title="A function to convert weight to confidence. ">
<polygon fill="none" stroke="black" points="225,-0.5 225,-19.5 395,-19.5 395,-0.5 225,-0.5"/>
<text text-anchor="middle" x="310" y="-7.5" font-family="Helvetica,sans-Serif" font-size="10.00">nars.inference.UtilityFunctions.w2c</text>
</a>
</g>
</g>
<!-- Node1&#45;&gt;Node5 -->
<g id="edge4" class="edge"><title>Node1&#45;&gt;Node5</title>
<path fill="none" stroke="midnightblue" d="M118.605,-68.4674C144.286,-58.1002 187.139,-41.4778 225,-30 234.469,-27.1296 244.638,-24.4098 254.518,-21.9539"/>
<polygon fill="midnightblue" stroke="midnightblue" points="255.371,-25.3485 264.264,-19.5901 253.721,-18.5458 255.371,-25.3485"/>
</g>
</g>
</svg>
