<?xml version="1.0" encoding="UTF-8" standalone="no"?>
<!DOCTYPE svg PUBLIC "-//W3C//DTD SVG 1.1//EN"
 "http://www.w3.org/Graphics/SVG/1.1/DTD/svg11.dtd">
<!-- Generated by graphviz version 2.38.0 (20140413.2041)
 -->
<!-- Title: nars.inference.TruthFunctions.deduction Pages: 1 -->
<svg width="403pt" height="127pt"
 viewBox="0.00 0.00 403.00 126.50" xmlns="http://www.w3.org/2000/svg" xmlns:xlink="http://www.w3.org/1999/xlink">
<g id="graph0" class="graph" transform="scale(1 1) rotate(0) translate(4 122.5)">
<title>nars.inference.TruthFunctions.deduction</title>
<!-- Node1 -->
<g id="node1" class="node"><title>Node1</title>
<polygon fill="#bfbfbf" stroke="black" points="0,-55 0,-74 191,-74 191,-55 0,-55"/>
<text text-anchor="middle" x="95.5" y="-62" font-family="Helvetica,sans-Serif" font-size="10.00">nars.inference.TruthFunctions.deduction</text>
</g>
<!-- Node2 -->
<g id="node2" class="node"><title>Node2</title>
<g id="a_node2"><a xlink:href="../../d4/de4/classnars_1_1inference_1_1UtilityFunctions_a35ac262407303cdf8d11f7892f9a3a03.html#a35ac262407303cdf8d11f7892f9a3a03" target="_top" xlink:title="A function where the output is conjunctively determined by the inputs. ">
<polygon fill="none" stroke="black" points="227,-99 227,-118 395,-118 395,-99 227,-99"/>
<text text-anchor="middle" x="311" y="-106" font-family="Helvetica,sans-Serif" font-size="10.00">nars.inference.UtilityFunctions.and</text>
</a>
</g>
</g>
<!-- Node1&#45;&gt;Node2 -->
<g id="edge1" class="edge"><title>Node1&#45;&gt;Node2</title>
<path fill="none" stroke="midnightblue" d="M142.826,-74.0473C175.42,-80.7645 219.219,-89.7911 253.81,-96.9198"/>
<polygon fill="midnightblue" stroke="midnightblue" points="253.263,-100.381 263.764,-98.9713 254.676,-93.5248 253.263,-100.381"/>
</g>
<!-- Node3 -->
<g id="node3" class="node"><title>Node3</title>
<g id="a_node3"><a xlink:href="../../d3/db8/classnars_1_1entity_1_1TruthValue_a68ca7d92e9ea20d2a9a9f578ad7b681c.html#a68ca7d92e9ea20d2a9a9f578ad7b681c" target="_top" xlink:title="Get the confidence value. ">
<polygon fill="none" stroke="black" points="246.5,-49.5 246.5,-79.5 375.5,-79.5 375.5,-49.5 246.5,-49.5"/>
<text text-anchor="start" x="254.5" y="-67.5" font-family="Helvetica,sans-Serif" font-size="10.00">nars.entity.TruthValue.get</text>
<text text-anchor="middle" x="311" y="-56.5" font-family="Helvetica,sans-Serif" font-size="10.00">Confidence</text>
</a>
</g>
</g>
<!-- Node1&#45;&gt;Node3 -->
<g id="edge2" class="edge"><title>Node1&#45;&gt;Node3</title>
<path fill="none" stroke="midnightblue" d="M191.077,-64.5C206.155,-64.5 221.562,-64.5 236.072,-64.5"/>
<polygon fill="midnightblue" stroke="midnightblue" points="236.462,-68.0001 246.462,-64.5 236.462,-61.0001 236.462,-68.0001"/>
</g>
<!-- Node4 -->
<g id="node4" class="node"><title>Node4</title>
<g id="a_node4"><a xlink:href="../../d3/db8/classnars_1_1entity_1_1TruthValue_a9eac33f2495441c77911a8581a5bbe61.html#a9eac33f2495441c77911a8581a5bbe61" target="_top" xlink:title="Get the frequency value. ">
<polygon fill="none" stroke="black" points="246.5,-0.5 246.5,-30.5 375.5,-30.5 375.5,-0.5 246.5,-0.5"/>
<text text-anchor="start" x="254.5" y="-18.5" font-family="Helvetica,sans-Serif" font-size="10.00">nars.entity.TruthValue.get</text>
<text text-anchor="middle" x="311" y="-7.5" font-family="Helvetica,sans-Serif" font-size="10.00">Frequency</text>
</a>
</g>
</g>
<!-- Node1&#45;&gt;Node4 -->
<g id="edge3" class="edge"><title>Node1&#45;&gt;Node4</title>
<path fill="none" stroke="midnightblue" d="M137.918,-54.9942C165.831,-48.5879 203.428,-39.9591 236.36,-32.4011"/>
<polygon fill="midnightblue" stroke="midnightblue" points="237.45,-35.7419 246.414,-30.0935 235.884,-28.9192 237.45,-35.7419"/>
</g>
</g>
</svg>
