<?xml version="1.0" encoding="UTF-8" standalone="no"?>
<!DOCTYPE svg PUBLIC "-//W3C//DTD SVG 1.1//EN"
 "http://www.w3.org/Graphics/SVG/1.1/DTD/svg11.dtd">
<!-- Generated by graphviz version 2.38.0 (20140413.2041)
 -->
<!-- Title: nars.inference.TruthFunctions.resemblance Pages: 1 -->
<svg width="417pt" height="165pt"
 viewBox="0.00 0.00 417.00 165.00" xmlns="http://www.w3.org/2000/svg" xmlns:xlink="http://www.w3.org/1999/xlink">
<g id="graph0" class="graph" transform="scale(1 1) rotate(0) translate(4 161)">
<title>nars.inference.TruthFunctions.resemblance</title>
<!-- Node1 -->
<g id="node1" class="node"><title>Node1</title>
<polygon fill="#bfbfbf" stroke="black" points="0,-68.5 0,-87.5 205,-87.5 205,-68.5 0,-68.5"/>
<text text-anchor="middle" x="102.5" y="-75.5" font-family="Helvetica,sans-Serif" font-size="10.00">nars.inference.TruthFunctions.resemblance</text>
</g>
<!-- Node2 -->
<g id="node2" class="node"><title>Node2</title>
<g id="a_node2"><a xlink:href="../../d4/de4/classnars_1_1inference_1_1UtilityFunctions_a35ac262407303cdf8d11f7892f9a3a03.html#a35ac262407303cdf8d11f7892f9a3a03" target="_top" xlink:title="A function where the output is conjunctively determined by the inputs. ">
<polygon fill="none" stroke="black" points="241,-137.5 241,-156.5 409,-156.5 409,-137.5 241,-137.5"/>
<text text-anchor="middle" x="325" y="-144.5" font-family="Helvetica,sans-Serif" font-size="10.00">nars.inference.UtilityFunctions.and</text>
</a>
</g>
</g>
<!-- Node1&#45;&gt;Node2 -->
<g id="edge1" class="edge"><title>Node1&#45;&gt;Node2</title>
<path fill="none" stroke="midnightblue" d="M127.049,-87.5752C154.197,-98.3758 200.315,-115.996 241,-128 249.55,-130.523 258.678,-132.911 267.636,-135.089"/>
<polygon fill="midnightblue" stroke="midnightblue" points="267.102,-138.559 277.639,-137.453 268.713,-131.747 267.102,-138.559"/>
</g>
<!-- Node3 -->
<g id="node3" class="node"><title>Node3</title>
<g id="a_node3"><a xlink:href="../../d3/db8/classnars_1_1entity_1_1TruthValue_a68ca7d92e9ea20d2a9a9f578ad7b681c.html#a68ca7d92e9ea20d2a9a9f578ad7b681c" target="_top" xlink:title="Get the confidence value. ">
<polygon fill="none" stroke="black" points="260.5,-88 260.5,-118 389.5,-118 389.5,-88 260.5,-88"/>
<text text-anchor="start" x="268.5" y="-106" font-family="Helvetica,sans-Serif" font-size="10.00">nars.entity.TruthValue.get</text>
<text text-anchor="middle" x="325" y="-95" font-family="Helvetica,sans-Serif" font-size="10.00">Confidence</text>
</a>
</g>
</g>
<!-- Node1&#45;&gt;Node3 -->
<g id="edge2" class="edge"><title>Node1&#45;&gt;Node3</title>
<path fill="none" stroke="midnightblue" d="M187.491,-87.5227C208.21,-89.8718 230.242,-92.3699 250.424,-94.6581"/>
<polygon fill="midnightblue" stroke="midnightblue" points="250.149,-98.1492 260.48,-95.7982 250.938,-91.1938 250.149,-98.1492"/>
</g>
<!-- Node4 -->
<g id="node4" class="node"><title>Node4</title>
<g id="a_node4"><a xlink:href="../../d3/db8/classnars_1_1entity_1_1TruthValue_a9eac33f2495441c77911a8581a5bbe61.html#a9eac33f2495441c77911a8581a5bbe61" target="_top" xlink:title="Get the frequency value. ">
<polygon fill="none" stroke="black" points="260.5,-39 260.5,-69 389.5,-69 389.5,-39 260.5,-39"/>
<text text-anchor="start" x="268.5" y="-57" font-family="Helvetica,sans-Serif" font-size="10.00">nars.entity.TruthValue.get</text>
<text text-anchor="middle" x="325" y="-46" font-family="Helvetica,sans-Serif" font-size="10.00">Frequency</text>
</a>
</g>
</g>
<!-- Node1&#45;&gt;Node4 -->
<g id="edge3" class="edge"><title>Node1&#45;&gt;Node4</title>
<path fill="none" stroke="midnightblue" d="M190.964,-68.4801C210.635,-66.3391 231.318,-64.0879 250.357,-62.0155"/>
<polygon fill="midnightblue" stroke="midnightblue" points="250.886,-65.4788 260.448,-60.9172 250.128,-58.5199 250.886,-65.4788"/>
</g>
<!-- Node5 -->
<g id="node5" class="node"><title>Node5</title>
<g id="a_node5"><a xlink:href="../../d4/de4/classnars_1_1inference_1_1UtilityFunctions_a24093a77b49f21322e62c9bed7ff5ee2.html#a24093a77b49f21322e62c9bed7ff5ee2" target="_top" xlink:title="A function where the output is disjunctively determined by the inputs. ">
<polygon fill="none" stroke="black" points="244.5,-0.5 244.5,-19.5 405.5,-19.5 405.5,-0.5 244.5,-0.5"/>
<text text-anchor="middle" x="325" y="-7.5" font-family="Helvetica,sans-Serif" font-size="10.00">nars.inference.UtilityFunctions.or</text>
</a>
</g>
</g>
<!-- Node1&#45;&gt;Node5 -->
<g id="edge4" class="edge"><title>Node1&#45;&gt;Node5</title>
<path fill="none" stroke="midnightblue" d="M128.598,-68.393C155.978,-58.112 201.22,-41.7047 241,-30 250.598,-27.1759 260.905,-24.4506 270.88,-21.9684"/>
<polygon fill="midnightblue" stroke="midnightblue" points="271.819,-25.3419 280.705,-19.5725 270.161,-18.5412 271.819,-25.3419"/>
</g>
</g>
</svg>
