<?xml version="1.0" encoding="UTF-8" standalone="no"?>
<!DOCTYPE svg PUBLIC "-//W3C//DTD SVG 1.1//EN"
 "http://www.w3.org/Graphics/SVG/1.1/DTD/svg11.dtd">
<!-- Generated by graphviz version 2.38.0 (20140413.2041)
 -->
<!-- Title: nars.inference.TruthFunctions.reduceConjunction Pages: 1 -->
<!--zoomable 127 -->
<svg id="main" version="1.1" xmlns="http://www.w3.org/2000/svg" xmlns:xlink="http://www.w3.org/1999/xlink" xml:space="preserve" onload="init(evt)">
<style type="text/css"><![CDATA[
.edge:hover path { stroke: red; }
.edge:hover polygon { stroke: red; fill: red; }
]]></style>
<script type="text/javascript"><![CDATA[
var edges = document.getElementsByTagName('g');
if (edges && edges.length) {
  for (var i=0;i<edges.length;i++) {
    if (edges[i].id.substr(0,4)=='edge') {
      edges[i].setAttribute('class','edge');
    }
  }
}
]]></script>
        <defs>
                <circle id="rim" cx="0" cy="0" r="7"/>
                <circle id="rim2" cx="0" cy="0" r="3.5"/>
                <g id="zoomPlus">
                        <use xlink:href="#rim" fill="#404040">
                                <set attributeName="fill" to="#808080" begin="zoomplus.mouseover" end="zoomplus.mouseout"/>
                        </use>
                        <path d="M-4,0h8M0,-4v8" fill="none" stroke="white" stroke-width="1.5" pointer-events="none"/>
                </g>
                <g id="zoomMin">
                        <use xlink:href="#rim" fill="#404040">
                                <set attributeName="fill" to="#808080" begin="zoomminus.mouseover" end="zoomminus.mouseout"/>
                        </use>
                        <path d="M-4,0h8" fill="none" stroke="white" stroke-width="1.5" pointer-events="none"/>
                </g>
                <g id="dirArrow">
                        <path fill="none" stroke="white" stroke-width="1.5" d="M0,-3.0v7 M-2.5,-0.5L0,-3.0L2.5,-0.5"/>
                </g>
               <g id="resetDef">
                       <use xlink:href="#rim2" fill="#404040">
                               <set attributeName="fill" to="#808080" begin="reset.mouseover" end="reset.mouseout"/>
                       </use>
               </g>
        </defs>

<script type="text/javascript">
var viewWidth = 627;
var viewHeight = 127;
var sectionId = 'dynsection-0';
</script>
<script xlink:href="../../svgpan.js"/>
<svg id="graph" class="graph">
<g id="viewport">
<title>nars.inference.TruthFunctions.reduceConjunction</title>
<!-- Node1 -->
<g id="node1" class="node"><title>Node1</title>
<polygon fill="#bfbfbf" stroke="black" points="0,-43.5 0,-73.5 179,-73.5 179,-43.5 0,-43.5"/>
<text text-anchor="start" x="8" y="-61.5" font-family="Helvetica,sans-Serif" font-size="10.00">nars.inference.TruthFunctions.reduce</text>
<text text-anchor="middle" x="89.5" y="-50.5" font-family="Helvetica,sans-Serif" font-size="10.00">Conjunction</text>
</g>
<!-- Node2 -->
<g id="node2" class="node"><title>Node2</title>
<g id="a_node2"><a xlink:href="../../d1/d58/classnars_1_1inference_1_1TruthFunctions_af0cd0f846c8a7e500840b517ab006b94.html#af0cd0f846c8a7e500840b517ab006b94" target="_top" xlink:title="{&lt;S ==&gt; M&gt;, &lt;M ==&gt; P&gt;} |&#45; &lt;S ==&gt; P&gt; ">
<polygon fill="none" stroke="black" points="219.5,-49 219.5,-68 410.5,-68 410.5,-49 219.5,-49"/>
<text text-anchor="middle" x="315" y="-56" font-family="Helvetica,sans-Serif" font-size="10.00">nars.inference.TruthFunctions.deduction</text>
</a>
</g>
</g>
<!-- Node1&#45;&gt;Node2 -->
<g id="edge1" class="edge"><title>Node1&#45;&gt;Node2</title>
<path fill="none" stroke="midnightblue" d="M179.154,-58.5C189.026,-58.5 199.149,-58.5 209.197,-58.5"/>
<polygon fill="midnightblue" stroke="midnightblue" points="209.208,-62.0001 219.208,-58.5 209.208,-55.0001 209.208,-62.0001"/>
</g>
<!-- Node6 -->
<g id="node6" class="node"><title>Node6</title>
<g id="a_node6"><a xlink:href="../../d1/d58/classnars_1_1inference_1_1TruthFunctions_a20446cf012806110b595d9d1309bba24.html#a20446cf012806110b595d9d1309bba24" target="_top" xlink:title="{&lt;M &#45;&#45;&gt; S&gt;, &lt;M &lt;&#45;&gt; P&gt;} |&#45; &lt;M &#45;&#45;&gt; (S&amp;P)&gt; ">
<polygon fill="none" stroke="black" points="215,-87 215,-106 415,-106 415,-87 215,-87"/>
<text text-anchor="middle" x="315" y="-94" font-family="Helvetica,sans-Serif" font-size="10.00">nars.inference.TruthFunctions.intersection</text>
</a>
</g>
</g>
<!-- Node1&#45;&gt;Node6 -->
<g id="edge5" class="edge"><title>Node1&#45;&gt;Node6</title>
<path fill="none" stroke="midnightblue" d="M178.833,-73.5186C201.901,-77.4407 226.363,-81.5998 248.044,-85.2861"/>
<polygon fill="midnightblue" stroke="midnightblue" points="247.674,-88.7733 258.12,-86.9991 248.848,-81.8723 247.674,-88.7733"/>
</g>
<!-- Node7 -->
<g id="node7" class="node"><title>Node7</title>
<g id="a_node7"><a xlink:href="../../d1/d58/classnars_1_1inference_1_1TruthFunctions_ace28b3a18d275b33d2a094189842b2ed.html#ace28b3a18d275b33d2a094189842b2ed" target="_top" xlink:title="{A} |&#45; (–A) ">
<polygon fill="none" stroke="black" points="222,-11 222,-30 408,-30 408,-11 222,-11"/>
<text text-anchor="middle" x="315" y="-18" font-family="Helvetica,sans-Serif" font-size="10.00">nars.inference.TruthFunctions.negation</text>
</a>
</g>
</g>
<!-- Node1&#45;&gt;Node7 -->
<g id="edge9" class="edge"><title>Node1&#45;&gt;Node7</title>
<path fill="none" stroke="midnightblue" d="M178.833,-43.4814C201.901,-39.5593 226.363,-35.4002 248.044,-31.7139"/>
<polygon fill="midnightblue" stroke="midnightblue" points="248.848,-35.1277 258.12,-30.0009 247.674,-28.2267 248.848,-35.1277"/>
</g>
<!-- Node3 -->
<g id="node3" class="node"><title>Node3</title>
<g id="a_node3"><a xlink:href="../../d4/de4/classnars_1_1inference_1_1UtilityFunctions_a35ac262407303cdf8d11f7892f9a3a03.html#a35ac262407303cdf8d11f7892f9a3a03" target="_top" xlink:title="A function where the output is conjunctively determined by the inputs. ">
<polygon fill="none" stroke="black" points="451,-99 451,-118 619,-118 619,-99 451,-99"/>
<text text-anchor="middle" x="535" y="-106" font-family="Helvetica,sans-Serif" font-size="10.00">nars.inference.UtilityFunctions.and</text>
</a>
</g>
</g>
<!-- Node2&#45;&gt;Node3 -->
<g id="edge2" class="edge"><title>Node2&#45;&gt;Node3</title>
<path fill="none" stroke="midnightblue" d="M371.212,-68.0133C385.538,-70.7773 400.901,-74.0037 415,-77.5 431.238,-81.5269 434.86,-84.094 451,-88.5 461.077,-91.2511 471.897,-94.0032 482.286,-96.5473"/>
<polygon fill="midnightblue" stroke="midnightblue" points="481.534,-99.9662 492.076,-98.9159 483.18,-93.1625 481.534,-99.9662"/>
</g>
<!-- Node4 -->
<g id="node4" class="node"><title>Node4</title>
<g id="a_node4"><a xlink:href="../../d3/db8/classnars_1_1entity_1_1TruthValue_a68ca7d92e9ea20d2a9a9f578ad7b681c.html#a68ca7d92e9ea20d2a9a9f578ad7b681c" target="_top" xlink:title="Get the confidence value. ">
<polygon fill="none" stroke="black" points="470.5,-0.5 470.5,-30.5 599.5,-30.5 599.5,-0.5 470.5,-0.5"/>
<text text-anchor="start" x="478.5" y="-18.5" font-family="Helvetica,sans-Serif" font-size="10.00">nars.entity.TruthValue.get</text>
<text text-anchor="middle" x="535" y="-7.5" font-family="Helvetica,sans-Serif" font-size="10.00">Confidence</text>
</a>
</g>
</g>
<!-- Node2&#45;&gt;Node4 -->
<g id="edge3" class="edge"><title>Node2&#45;&gt;Node4</title>
<path fill="none" stroke="midnightblue" d="M366.128,-48.9743C381.786,-45.9734 399.116,-42.6259 415,-39.5 429.618,-36.6233 445.236,-33.5054 460.187,-30.4989"/>
<polygon fill="midnightblue" stroke="midnightblue" points="461.299,-33.8452 470.411,-28.4395 459.917,-26.9831 461.299,-33.8452"/>
</g>
<!-- Node5 -->
<g id="node5" class="node"><title>Node5</title>
<g id="a_node5"><a xlink:href="../../d3/db8/classnars_1_1entity_1_1TruthValue_a9eac33f2495441c77911a8581a5bbe61.html#a9eac33f2495441c77911a8581a5bbe61" target="_top" xlink:title="Get the frequency value. ">
<polygon fill="none" stroke="black" points="470.5,-49.5 470.5,-79.5 599.5,-79.5 599.5,-49.5 470.5,-49.5"/>
<text text-anchor="start" x="478.5" y="-67.5" font-family="Helvetica,sans-Serif" font-size="10.00">nars.entity.TruthValue.get</text>
<text text-anchor="middle" x="535" y="-56.5" font-family="Helvetica,sans-Serif" font-size="10.00">Frequency</text>
</a>
</g>
</g>
<!-- Node2&#45;&gt;Node5 -->
<g id="edge4" class="edge"><title>Node2&#45;&gt;Node5</title>
<path fill="none" stroke="midnightblue" d="M410.667,-61.1055C427.256,-61.5621 444.297,-62.0311 460.215,-62.4692"/>
<polygon fill="midnightblue" stroke="midnightblue" points="460.404,-65.9757 470.497,-62.7522 460.597,-58.9783 460.404,-65.9757"/>
</g>
<!-- Node6&#45;&gt;Node3 -->
<g id="edge6" class="edge"><title>Node6&#45;&gt;Node3</title>
<path fill="none" stroke="midnightblue" d="M415.113,-101.956C423.589,-102.422 432.145,-102.893 440.575,-103.357"/>
<polygon fill="midnightblue" stroke="midnightblue" points="440.603,-106.864 450.781,-103.919 440.988,-99.8747 440.603,-106.864"/>
</g>
<!-- Node6&#45;&gt;Node4 -->
<g id="edge7" class="edge"><title>Node6&#45;&gt;Node4</title>
<path fill="none" stroke="midnightblue" d="M392.305,-86.926C400.219,-84.4575 407.939,-81.3668 415,-77.5 435.405,-66.3257 431.129,-51.5995 451,-39.5 454.199,-37.5521 457.563,-35.7559 461.031,-34.1003"/>
<polygon fill="midnightblue" stroke="midnightblue" points="462.622,-37.2255 470.406,-30.0386 459.839,-30.8024 462.622,-37.2255"/>
</g>
<!-- Node6&#45;&gt;Node5 -->
<g id="edge8" class="edge"><title>Node6&#45;&gt;Node5</title>
<path fill="none" stroke="midnightblue" d="M380.817,-86.9856C405.747,-83.3261 434.389,-79.1218 460.111,-75.3461"/>
<polygon fill="midnightblue" stroke="midnightblue" points="460.798,-78.7828 470.184,-73.8675 459.782,-71.857 460.798,-78.7828"/>
</g>
<!-- Node7&#45;&gt;Node4 -->
<g id="edge10" class="edge"><title>Node7&#45;&gt;Node4</title>
<path fill="none" stroke="midnightblue" d="M408.136,-18.3868C425.458,-17.9895 443.362,-17.5789 460.041,-17.1963"/>
<polygon fill="midnightblue" stroke="midnightblue" points="460.335,-20.6906 470.252,-16.9621 460.174,-13.6924 460.335,-20.6906"/>
</g>
<!-- Node7&#45;&gt;Node5 -->
<g id="edge11" class="edge"><title>Node7&#45;&gt;Node5</title>
<path fill="none" stroke="midnightblue" d="M366.652,-30.0447C382.176,-33.0176 399.3,-36.3446 415,-39.5 429.771,-42.4687 445.554,-45.7251 460.638,-48.8781"/>
<polygon fill="midnightblue" stroke="midnightblue" points="459.926,-52.3049 470.432,-50.9311 461.362,-45.4538 459.926,-52.3049"/>
</g>
</g>
</svg>
        <g id="navigator" transform="translate(0 0)" fill="#404254">
                <rect fill="#f2f5e9" fill-opacity="0.5" stroke="#606060" stroke-width=".5" x="0" y="0" width="60" height="60"/>
                <use id="zoomplus" xlink:href="#zoomPlus" x="17" y="9" onmousedown="handleZoom(evt,'in')"/>
                <use id="zoomminus" xlink:href="#zoomMin" x="42" y="9" onmousedown="handleZoom(evt,'out')"/>
                <use id="reset" xlink:href="#resetDef" x="30" y="36" onmousedown="handleReset()"/>
                <g id="arrowUp" xlink:href="#dirArrow" transform="translate(30 24)" onmousedown="handlePan(0,-1)">
                  <use xlink:href="#rim" fill="#404040">
                        <set attributeName="fill" to="#808080" begin="arrowUp.mouseover" end="arrowUp.mouseout"/>
                  </use>
                  <path fill="none" stroke="white" stroke-width="1.5" d="M0,-3.0v7 M-2.5,-0.5L0,-3.0L2.5,-0.5"/>
                </g>
                <g id="arrowRight" xlink:href="#dirArrow" transform="rotate(90) translate(36 -43)" onmousedown="handlePan(1,0)">
                  <use xlink:href="#rim" fill="#404040">
                        <set attributeName="fill" to="#808080" begin="arrowRight.mouseover" end="arrowRight.mouseout"/>
                  </use>
                  <path fill="none" stroke="white" stroke-width="1.5" d="M0,-3.0v7 M-2.5,-0.5L0,-3.0L2.5,-0.5"/>
                </g>
                <g id="arrowDown" xlink:href="#dirArrow" transform="rotate(180) translate(-30 -48)" onmousedown="handlePan(0,1)">
                  <use xlink:href="#rim" fill="#404040">
                        <set attributeName="fill" to="#808080" begin="arrowDown.mouseover" end="arrowDown.mouseout"/>
                  </use>
                  <path fill="none" stroke="white" stroke-width="1.5" d="M0,-3.0v7 M-2.5,-0.5L0,-3.0L2.5,-0.5"/>
                </g>
                <g id="arrowLeft" xlink:href="#dirArrow" transform="rotate(270) translate(-36 17)" onmousedown="handlePan(-1,0)">
                  <use xlink:href="#rim" fill="#404040">
                        <set attributeName="fill" to="#808080" begin="arrowLeft.mouseover" end="arrowLeft.mouseout"/>
                  </use>
                  <path fill="none" stroke="white" stroke-width="1.5" d="M0,-3.0v7 M-2.5,-0.5L0,-3.0L2.5,-0.5"/>
                </g>
        </g>
        <svg viewBox="0 0 15 15" width="100%" height="30px" preserveAspectRatio="xMaxYMin meet">
         <g id="arrow_out" transform="scale(0.3 0.3)">
          <a xlink:href="classnars_1_1inference_1_1TruthFunctions_ae8945611915519f50ab3392c9168b170_ae8945611915519f50ab3392c9168b170_cgraph_org.svg" target="_base">
           <rect id="button" ry="5" rx="5" y="6" x="6" height="38" width="38"
                fill="#f2f5e9" fill-opacity="0.5" stroke="#606060" stroke-width="1.0"/>
           <path id="arrow"
             d="M 11.500037,31.436501 C 11.940474,20.09759 22.043105,11.32322 32.158766,21.979434 L 37.068811,17.246167 C 37.068811,17.246167 37.088388,32 37.088388,32 L 22.160133,31.978069 C 22.160133,31.978069 26.997745,27.140456 26.997745,27.140456 C 18.528582,18.264221 13.291696,25.230495 11.500037,31.436501 z"
             style="fill:#404040;"/>
          </a>
         </g>
        </svg>
</svg>
