<?xml version="1.0" encoding="UTF-8" standalone="no"?>
<!DOCTYPE svg PUBLIC "-//W3C//DTD SVG 1.1//EN"
 "http://www.w3.org/Graphics/SVG/1.1/DTD/svg11.dtd">
<!-- Generated by graphviz version 2.38.0 (20140413.2041)
 -->
<!-- Title: nars.inference.TruthFunctions.contraposition Pages: 1 -->
<svg width="2342pt" height="39pt"
 viewBox="0.00 0.00 2342.00 39.00" xmlns="http://www.w3.org/2000/svg" xmlns:xlink="http://www.w3.org/1999/xlink">
<g id="graph0" class="graph" transform="scale(1 1) rotate(0) translate(4 35)">
<title>nars.inference.TruthFunctions.contraposition</title>
<!-- Node1 -->
<g id="node1" class="node"><title>Node1</title>
<polygon fill="#bfbfbf" stroke="black" points="0,-6 0,-25 210,-25 210,-6 0,-6"/>
<text text-anchor="middle" x="105" y="-13" font-family="Helvetica,sans-Serif" font-size="10.00">nars.inference.TruthFunctions.contraposition</text>
</g>
<!-- Node2 -->
<g id="node2" class="node"><title>Node2</title>
<g id="a_node2"><a xlink:href="../../db/d49/classnars_1_1inference_1_1StructuralRules_a7eed75f5c3aa4d832eeb95dd5374d5c1.html#a7eed75f5c3aa4d832eeb95dd5374d5c1" target="_top" xlink:title="{&lt;A ==&gt; B&gt;, A@(–, A)} |&#45; &lt;(–, B) ==&gt; (–, A)&gt; ">
<polygon fill="none" stroke="black" points="246,-0.5 246,-30.5 369,-30.5 369,-0.5 246,-0.5"/>
<text text-anchor="start" x="254" y="-18.5" font-family="Helvetica,sans-Serif" font-size="10.00">nars.inference.Structural</text>
<text text-anchor="middle" x="307.5" y="-7.5" font-family="Helvetica,sans-Serif" font-size="10.00">Rules.contraposition</text>
</a>
</g>
</g>
<!-- Node1&#45;&gt;Node2 -->
<g id="edge1" class="edge"><title>Node1&#45;&gt;Node2</title>
<path fill="none" stroke="midnightblue" d="M220.125,-15.5C228.992,-15.5 237.71,-15.5 245.997,-15.5"/>
<polygon fill="midnightblue" stroke="midnightblue" points="220.067,-12.0001 210.067,-15.5 220.067,-19.0001 220.067,-12.0001"/>
</g>
<!-- Node3 -->
<g id="node3" class="node"><title>Node3</title>
<g id="a_node3"><a xlink:href="../../da/de3/classnars_1_1inference_1_1RuleTables_a274b39b31e00ef27ae6baeaad3894a6a.html#a274b39b31e00ef27ae6baeaad3894a6a" target="_top" xlink:title="Inference between a component term (of the current term) and a statement. ">
<polygon fill="none" stroke="black" points="405,-0.5 405,-30.5 587,-30.5 587,-0.5 405,-0.5"/>
<text text-anchor="start" x="413" y="-18.5" font-family="Helvetica,sans-Serif" font-size="10.00">nars.inference.RuleTables.component</text>
<text text-anchor="middle" x="496" y="-7.5" font-family="Helvetica,sans-Serif" font-size="10.00">AndStatement</text>
</a>
</g>
</g>
<!-- Node2&#45;&gt;Node3 -->
<g id="edge2" class="edge"><title>Node2&#45;&gt;Node3</title>
<path fill="none" stroke="midnightblue" d="M379.183,-15.5C387.611,-15.5 396.302,-15.5 404.955,-15.5"/>
<polygon fill="midnightblue" stroke="midnightblue" points="379.051,-12.0001 369.051,-15.5 379.051,-19.0001 379.051,-12.0001"/>
</g>
<!-- Node4 -->
<g id="node4" class="node"><title>Node4</title>
<g id="a_node4"><a xlink:href="../../da/de3/classnars_1_1inference_1_1RuleTables_ac2d01dfdc40bdd47c757cb549217e6e3.html#ac2d01dfdc40bdd47c757cb549217e6e3" target="_top" xlink:title="Entry point of the inference engine. ">
<polygon fill="none" stroke="black" points="623,-6 623,-25 786,-25 786,-6 623,-6"/>
<text text-anchor="middle" x="704.5" y="-13" font-family="Helvetica,sans-Serif" font-size="10.00">nars.inference.RuleTables.reason</text>
</a>
</g>
</g>
<!-- Node3&#45;&gt;Node4 -->
<g id="edge3" class="edge"><title>Node3&#45;&gt;Node4</title>
<path fill="none" stroke="midnightblue" d="M597.295,-15.5C605.855,-15.5 614.442,-15.5 622.82,-15.5"/>
<polygon fill="midnightblue" stroke="midnightblue" points="597.274,-12.0001 587.274,-15.5 597.273,-19.0001 597.274,-12.0001"/>
</g>
<!-- Node5 -->
<g id="node5" class="node"><title>Node5</title>
<g id="a_node5"><a xlink:href="../../d4/d22/classnars_1_1entity_1_1Concept_ae07576c8466ad65eeb61040e3f71cfc7.html#ae07576c8466ad65eeb61040e3f71cfc7" target="_top" xlink:title="An atomic step in a concept, only called in Memory# processConcept. ">
<polygon fill="none" stroke="black" points="822,-6 822,-25 941,-25 941,-6 822,-6"/>
<text text-anchor="middle" x="881.5" y="-13" font-family="Helvetica,sans-Serif" font-size="10.00">nars.entity.Concept.fire</text>
</a>
</g>
</g>
<!-- Node4&#45;&gt;Node5 -->
<g id="edge4" class="edge"><title>Node4&#45;&gt;Node5</title>
<path fill="none" stroke="midnightblue" d="M796.249,-15.5C804.907,-15.5 813.523,-15.5 821.757,-15.5"/>
<polygon fill="midnightblue" stroke="midnightblue" points="796.085,-12.0001 786.085,-15.5 796.085,-19.0001 796.085,-12.0001"/>
</g>
<!-- Node6 -->
<g id="node6" class="node"><title>Node6</title>
<g id="a_node6"><a xlink:href="../../d8/df4/classnars_1_1storage_1_1Memory_a83154b55b922c82b73931d4f22e3a590.html#a83154b55b922c82b73931d4f22e3a590" target="_top" xlink:title="Select a concept to fire. ">
<polygon fill="none" stroke="black" points="977,-0.5 977,-30.5 1123,-30.5 1123,-0.5 977,-0.5"/>
<text text-anchor="start" x="985" y="-18.5" font-family="Helvetica,sans-Serif" font-size="10.00">nars.storage.Memory.process</text>
<text text-anchor="middle" x="1050" y="-7.5" font-family="Helvetica,sans-Serif" font-size="10.00">Concept</text>
</a>
</g>
</g>
<!-- Node5&#45;&gt;Node6 -->
<g id="edge5" class="edge"><title>Node5&#45;&gt;Node6</title>
<path fill="none" stroke="midnightblue" d="M951.337,-15.5C959.748,-15.5 968.361,-15.5 976.819,-15.5"/>
<polygon fill="midnightblue" stroke="midnightblue" points="951.202,-12.0001 941.202,-15.5 951.202,-19.0001 951.202,-12.0001"/>
</g>
<!-- Node7 -->
<g id="node7" class="node"><title>Node7</title>
<g id="a_node7"><a xlink:href="../../d8/df4/classnars_1_1storage_1_1Memory_a49e2cbc8b78d535f4d69739886ee966a.html#a49e2cbc8b78d535f4d69739886ee966a" target="_top" xlink:title="An atomic working workCycle of the system: process new Tasks, then fire a concept. ">
<polygon fill="none" stroke="black" points="1159,-0.5 1159,-30.5 1292,-30.5 1292,-0.5 1159,-0.5"/>
<text text-anchor="start" x="1167" y="-18.5" font-family="Helvetica,sans-Serif" font-size="10.00">nars.storage.Memory.work</text>
<text text-anchor="middle" x="1225.5" y="-7.5" font-family="Helvetica,sans-Serif" font-size="10.00">Cycle</text>
</a>
</g>
</g>
<!-- Node6&#45;&gt;Node7 -->
<g id="edge6" class="edge"><title>Node6&#45;&gt;Node7</title>
<path fill="none" stroke="midnightblue" d="M1133.12,-15.5C1141.72,-15.5 1150.37,-15.5 1158.76,-15.5"/>
<polygon fill="midnightblue" stroke="midnightblue" points="1133.07,-12.0001 1123.07,-15.5 1133.07,-19.0001 1133.07,-12.0001"/>
</g>
<!-- Node8 -->
<g id="node8" class="node"><title>Node8</title>
<g id="a_node8"><a xlink:href="../../dd/da5/classnars_1_1storage_1_1Memory_1_1ReasonerBatch_acc60dec23da774957a85362ed6d7448b.html#acc60dec23da774957a85362ed6d7448b" target="_top" xlink:title="nars.storage.Memory.Reasoner\lBatch.doTick">
<polygon fill="none" stroke="black" points="1328,-0.5 1328,-30.5 1482,-30.5 1482,-0.5 1328,-0.5"/>
<text text-anchor="start" x="1336" y="-18.5" font-family="Helvetica,sans-Serif" font-size="10.00">nars.storage.Memory.Reasoner</text>
<text text-anchor="middle" x="1405" y="-7.5" font-family="Helvetica,sans-Serif" font-size="10.00">Batch.doTick</text>
</a>
</g>
</g>
<!-- Node7&#45;&gt;Node8 -->
<g id="edge7" class="edge"><title>Node7&#45;&gt;Node8</title>
<path fill="none" stroke="midnightblue" d="M1302.32,-15.5C1310.79,-15.5 1319.41,-15.5 1327.89,-15.5"/>
<polygon fill="midnightblue" stroke="midnightblue" points="1302.09,-12.0001 1292.09,-15.5 1302.09,-19.0001 1302.09,-12.0001"/>
</g>
<!-- Node9 -->
<g id="node9" class="node"><title>Node9</title>
<g id="a_node9"><a xlink:href="../../dd/da5/classnars_1_1storage_1_1Memory_1_1ReasonerBatch_aed591f05899b98fd9e4ad01836ad0a40.html#aed591f05899b98fd9e4ad01836ad0a40" target="_top" xlink:title="A clock tick. ">
<polygon fill="none" stroke="black" points="1518,-0.5 1518,-30.5 1672,-30.5 1672,-0.5 1518,-0.5"/>
<text text-anchor="start" x="1526" y="-18.5" font-family="Helvetica,sans-Serif" font-size="10.00">nars.storage.Memory.Reasoner</text>
<text text-anchor="middle" x="1595" y="-7.5" font-family="Helvetica,sans-Serif" font-size="10.00">Batch.tick</text>
</a>
</g>
</g>
<!-- Node8&#45;&gt;Node9 -->
<g id="edge8" class="edge"><title>Node8&#45;&gt;Node9</title>
<path fill="none" stroke="midnightblue" d="M1492.42,-15.5C1500.86,-15.5 1509.37,-15.5 1517.7,-15.5"/>
<polygon fill="midnightblue" stroke="midnightblue" points="1492.2,-12.0001 1482.2,-15.5 1492.2,-19.0001 1492.2,-12.0001"/>
</g>
<!-- Node10 -->
<g id="node10" class="node"><title>Node10</title>
<g id="a_node10"><a xlink:href="../../d4/d88/classnars_1_1storage_1_1Memory_1_1NARSBatch_aad99db6cedde9cff2a997db8906ff821.html#aad99db6cedde9cff2a997db8906ff821" target="_top" xlink:title="Run to completion: repeatedly execute NARS working cycle, until Inputs are Finished, or 1000 steps. ">
<polygon fill="none" stroke="black" points="1708,-6 1708,-25 1890,-25 1890,-6 1708,-6"/>
<text text-anchor="middle" x="1799" y="-13" font-family="Helvetica,sans-Serif" font-size="10.00">nars.storage.Memory.NARSBatch.run</text>
</a>
</g>
</g>
<!-- Node9&#45;&gt;Node10 -->
<g id="edge9" class="edge"><title>Node9&#45;&gt;Node10</title>
<path fill="none" stroke="midnightblue" d="M1682.27,-15.5C1690.69,-15.5 1699.25,-15.5 1707.71,-15.5"/>
<polygon fill="midnightblue" stroke="midnightblue" points="1682.08,-12.0001 1672.08,-15.5 1682.08,-19.0001 1682.08,-12.0001"/>
</g>
<!-- Node11 -->
<g id="node11" class="node"><title>Node11</title>
<g id="a_node11"><a xlink:href="../../d4/d88/classnars_1_1storage_1_1Memory_1_1NARSBatch_a416c39463faa161661ed1d12fea03b3c.html#a416c39463faa161661ed1d12fea03b3c" target="_top" xlink:title="non&#45;static equivalent to main(String[]) : run to completion from an input file ">
<polygon fill="none" stroke="black" points="1926,-0.5 1926,-30.5 2108,-30.5 2108,-0.5 1926,-0.5"/>
<text text-anchor="start" x="1934" y="-18.5" font-family="Helvetica,sans-Serif" font-size="10.00">nars.storage.Memory.NARSBatch.run</text>
<text text-anchor="middle" x="2017" y="-7.5" font-family="Helvetica,sans-Serif" font-size="10.00">Inference</text>
</a>
</g>
</g>
<!-- Node10&#45;&gt;Node11 -->
<g id="edge10" class="edge"><title>Node10&#45;&gt;Node11</title>
<path fill="none" stroke="midnightblue" d="M1900.06,-15.5C1908.63,-15.5 1917.27,-15.5 1925.76,-15.5"/>
<polygon fill="midnightblue" stroke="midnightblue" points="1900.04,-12.0001 1890.04,-15.5 1900.04,-19.0001 1900.04,-12.0001"/>
</g>
<!-- Node12 -->
<g id="node12" class="node"><title>Node12</title>
<g id="a_node12"><a xlink:href="../../d4/d88/classnars_1_1storage_1_1Memory_1_1NARSBatch_aa97fcd68270583e60e6bf1b4579d1bdc.html#aa97fcd68270583e60e6bf1b4579d1bdc" target="_top" xlink:title="The entry point of the standalone application. ">
<polygon fill="none" stroke="black" points="2144,-6 2144,-25 2334,-25 2334,-6 2144,-6"/>
<text text-anchor="middle" x="2239" y="-13" font-family="Helvetica,sans-Serif" font-size="10.00">nars.storage.Memory.NARSBatch.main</text>
</a>
</g>
</g>
<!-- Node11&#45;&gt;Node12 -->
<g id="edge11" class="edge"><title>Node11&#45;&gt;Node12</title>
<path fill="none" stroke="midnightblue" d="M2118.37,-15.5C2126.82,-15.5 2135.34,-15.5 2143.74,-15.5"/>
<polygon fill="midnightblue" stroke="midnightblue" points="2118.12,-12.0001 2108.12,-15.5 2118.12,-19.0001 2118.12,-12.0001"/>
</g>
</g>
</svg>
