<?xml version="1.0" encoding="UTF-8" standalone="no"?>
<!DOCTYPE svg PUBLIC "-//W3C//DTD SVG 1.1//EN"
 "http://www.w3.org/Graphics/SVG/1.1/DTD/svg11.dtd">
<!-- Generated by graphviz version 2.38.0 (20140413.2041)
 -->
<!-- Title: nars.inference.TruthFunctions.comparison Pages: 1 -->
<svg width="2750pt" height="132pt"
 viewBox="0.00 0.00 2750.00 132.00" xmlns="http://www.w3.org/2000/svg" xmlns:xlink="http://www.w3.org/1999/xlink">
<g id="graph0" class="graph" transform="scale(1 1) rotate(0) translate(4 128)">
<title>nars.inference.TruthFunctions.comparison</title>
<!-- Node1 -->
<g id="node1" class="node"><title>Node1</title>
<polygon fill="#bfbfbf" stroke="black" points="0,-50 0,-69 200,-69 200,-50 0,-50"/>
<text text-anchor="middle" x="100" y="-57" font-family="Helvetica,sans-Serif" font-size="10.00">nars.inference.TruthFunctions.comparison</text>
</g>
<!-- Node2 -->
<g id="node2" class="node"><title>Node2</title>
<g id="a_node2"><a xlink:href="../../d4/daa/classnars_1_1inference_1_1SyllogisticRules_a698f01981603a38d9da0e48930095d50.html#a698f01981603a38d9da0e48930095d50" target="_top" xlink:title="{&lt;M ==&gt; S&gt;, &lt;M ==&gt; P&gt;} |&#45; {&lt;S ==&gt; P&gt;, ">
<polygon fill="none" stroke="black" points="423.5,-44.5 423.5,-74.5 549.5,-74.5 549.5,-44.5 423.5,-44.5"/>
<text text-anchor="start" x="431.5" y="-62.5" font-family="Helvetica,sans-Serif" font-size="10.00">nars.inference.Syllogistic</text>
<text text-anchor="middle" x="486.5" y="-51.5" font-family="Helvetica,sans-Serif" font-size="10.00">Rules.abdIndCom</text>
</a>
</g>
</g>
<!-- Node1&#45;&gt;Node2 -->
<g id="edge1" class="edge"><title>Node1&#45;&gt;Node2</title>
<path fill="none" stroke="midnightblue" d="M210.061,-59.5C279.039,-59.5 365.717,-59.5 423.221,-59.5"/>
<polygon fill="midnightblue" stroke="midnightblue" points="210.018,-56.0001 200.018,-59.5 210.018,-63.0001 210.018,-56.0001"/>
</g>
<!-- Node14 -->
<g id="node14" class="node"><title>Node14</title>
<g id="a_node14"><a xlink:href="../../d4/daa/classnars_1_1inference_1_1SyllogisticRules_a90588e33b6d7ca522e787ee476a2a012.html#a90588e33b6d7ca522e787ee476a2a012" target="_top" xlink:title="{&lt;(&amp;&amp;, S1, S2) &lt;=&gt; P&gt;, (&amp;&amp;, S1, S2)} |&#45; P ">
<polygon fill="none" stroke="black" points="623.5,-0.5 623.5,-30.5 749.5,-30.5 749.5,-0.5 623.5,-0.5"/>
<text text-anchor="start" x="631.5" y="-18.5" font-family="Helvetica,sans-Serif" font-size="10.00">nars.inference.Syllogistic</text>
<text text-anchor="middle" x="686.5" y="-7.5" font-family="Helvetica,sans-Serif" font-size="10.00">Rules.conditionalAna</text>
</a>
</g>
</g>
<!-- Node1&#45;&gt;Node14 -->
<g id="edge13" class="edge"><title>Node1&#45;&gt;Node14</title>
<path fill="none" stroke="midnightblue" d="M210.629,-50.5196C270.929,-45.6435 347.081,-39.589 415,-34.5 486.475,-29.1446 568.61,-23.4389 623.444,-19.6938"/>
<polygon fill="midnightblue" stroke="midnightblue" points="210.013,-47.0579 200.328,-51.3536 210.578,-54.0351 210.013,-47.0579"/>
</g>
<!-- Node15 -->
<g id="node15" class="node"><title>Node15</title>
<g id="a_node15"><a xlink:href="../../d8/d79/classnars_1_1inference_1_1CompositionalRules_a4e01a00f3a024ecdbd3949fefb803dae.html#a4e01a00f3a024ecdbd3949fefb803dae" target="_top" xlink:title="Introduce a dependent variable in an outer&#45;layer conjunction. ">
<polygon fill="none" stroke="black" points="236,-90.5 236,-120.5 379,-120.5 379,-90.5 236,-90.5"/>
<text text-anchor="start" x="244" y="-108.5" font-family="Helvetica,sans-Serif" font-size="10.00">nars.inference.Compositional</text>
<text text-anchor="middle" x="307.5" y="-97.5" font-family="Helvetica,sans-Serif" font-size="10.00">Rules.introVarOuter</text>
</a>
</g>
</g>
<!-- Node1&#45;&gt;Node15 -->
<g id="edge15" class="edge"><title>Node1&#45;&gt;Node15</title>
<path fill="none" stroke="midnightblue" d="M153.639,-71.2829C179.713,-77.1194 211.487,-84.2319 239.298,-90.4573"/>
<polygon fill="midnightblue" stroke="midnightblue" points="154.103,-67.8002 143.58,-69.0312 152.574,-74.6312 154.103,-67.8002"/>
</g>
<!-- Node3 -->
<g id="node3" class="node"><title>Node3</title>
<g id="a_node3"><a xlink:href="../../da/de3/classnars_1_1inference_1_1RuleTables_a34927349efcf87db97d23c60983b115b.html#a34927349efcf87db97d23c60983b115b" target="_top" xlink:title="Syllogistic rules whose both premises are on the same asymmetric relation. ">
<polygon fill="none" stroke="black" points="594,-49.5 594,-79.5 779,-79.5 779,-49.5 594,-49.5"/>
<text text-anchor="start" x="602" y="-67.5" font-family="Helvetica,sans-Serif" font-size="10.00">nars.inference.RuleTables.asymmetric</text>
<text text-anchor="middle" x="686.5" y="-56.5" font-family="Helvetica,sans-Serif" font-size="10.00">Asymmetric</text>
</a>
</g>
</g>
<!-- Node2&#45;&gt;Node3 -->
<g id="edge2" class="edge"><title>Node2&#45;&gt;Node3</title>
<path fill="none" stroke="midnightblue" d="M559.666,-61.3224C570.791,-61.6033 582.405,-61.8966 593.885,-62.1865"/>
<polygon fill="midnightblue" stroke="midnightblue" points="559.69,-57.822 549.605,-61.0683 559.514,-64.8197 559.69,-57.822"/>
</g>
<!-- Node4 -->
<g id="node4" class="node"><title>Node4</title>
<g id="a_node4"><a xlink:href="../../da/de3/classnars_1_1inference_1_1RuleTables_a8628d400a8ceda7fea05039ddfea319b.html#a8628d400a8ceda7fea05039ddfea319b" target="_top" xlink:title="Meta&#45;table of syllogistic rules, indexed by the content classes of the taskSentence and the belief...">
<polygon fill="none" stroke="black" points="815,-52 815,-71 995,-71 995,-52 815,-52"/>
<text text-anchor="middle" x="905" y="-59" font-family="Helvetica,sans-Serif" font-size="10.00">nars.inference.RuleTables.syllogisms</text>
</a>
</g>
</g>
<!-- Node3&#45;&gt;Node4 -->
<g id="edge3" class="edge"><title>Node3&#45;&gt;Node4</title>
<path fill="none" stroke="midnightblue" d="M789.084,-63.0924C797.705,-62.9729 806.383,-62.8527 814.898,-62.7347"/>
<polygon fill="midnightblue" stroke="midnightblue" points="788.952,-59.5938 779.002,-63.2321 789.049,-66.5931 788.952,-59.5938"/>
</g>
<!-- Node5 -->
<g id="node5" class="node"><title>Node5</title>
<g id="a_node5"><a xlink:href="../../da/de3/classnars_1_1inference_1_1RuleTables_ac2d01dfdc40bdd47c757cb549217e6e3.html#ac2d01dfdc40bdd47c757cb549217e6e3" target="_top" xlink:title="Entry point of the inference engine. ">
<polygon fill="none" stroke="black" points="1031,-31 1031,-50 1194,-50 1194,-31 1031,-31"/>
<text text-anchor="middle" x="1112.5" y="-38" font-family="Helvetica,sans-Serif" font-size="10.00">nars.inference.RuleTables.reason</text>
</a>
</g>
</g>
<!-- Node4&#45;&gt;Node5 -->
<g id="edge4" class="edge"><title>Node4&#45;&gt;Node5</title>
<path fill="none" stroke="midnightblue" d="M1005.24,-51.3583C1013.79,-50.4848 1022.37,-49.608 1030.75,-48.7521"/>
<polygon fill="midnightblue" stroke="midnightblue" points="1004.83,-47.8822 995.239,-52.3807 1005.54,-54.8459 1004.83,-47.8822"/>
</g>
<!-- Node6 -->
<g id="node6" class="node"><title>Node6</title>
<g id="a_node6"><a xlink:href="../../d4/d22/classnars_1_1entity_1_1Concept_ae07576c8466ad65eeb61040e3f71cfc7.html#ae07576c8466ad65eeb61040e3f71cfc7" target="_top" xlink:title="An atomic step in a concept, only called in Memory# processConcept. ">
<polygon fill="none" stroke="black" points="1230,-31 1230,-50 1349,-50 1349,-31 1230,-31"/>
<text text-anchor="middle" x="1289.5" y="-38" font-family="Helvetica,sans-Serif" font-size="10.00">nars.entity.Concept.fire</text>
</a>
</g>
</g>
<!-- Node5&#45;&gt;Node6 -->
<g id="edge5" class="edge"><title>Node5&#45;&gt;Node6</title>
<path fill="none" stroke="midnightblue" d="M1204.25,-40.5C1212.91,-40.5 1221.52,-40.5 1229.76,-40.5"/>
<polygon fill="midnightblue" stroke="midnightblue" points="1204.09,-37.0001 1194.09,-40.5 1204.08,-44.0001 1204.09,-37.0001"/>
</g>
<!-- Node7 -->
<g id="node7" class="node"><title>Node7</title>
<g id="a_node7"><a xlink:href="../../d8/df4/classnars_1_1storage_1_1Memory_a83154b55b922c82b73931d4f22e3a590.html#a83154b55b922c82b73931d4f22e3a590" target="_top" xlink:title="Select a concept to fire. ">
<polygon fill="none" stroke="black" points="1385,-25.5 1385,-55.5 1531,-55.5 1531,-25.5 1385,-25.5"/>
<text text-anchor="start" x="1393" y="-43.5" font-family="Helvetica,sans-Serif" font-size="10.00">nars.storage.Memory.process</text>
<text text-anchor="middle" x="1458" y="-32.5" font-family="Helvetica,sans-Serif" font-size="10.00">Concept</text>
</a>
</g>
</g>
<!-- Node6&#45;&gt;Node7 -->
<g id="edge6" class="edge"><title>Node6&#45;&gt;Node7</title>
<path fill="none" stroke="midnightblue" d="M1359.34,-40.5C1367.75,-40.5 1376.36,-40.5 1384.82,-40.5"/>
<polygon fill="midnightblue" stroke="midnightblue" points="1359.2,-37.0001 1349.2,-40.5 1359.2,-44.0001 1359.2,-37.0001"/>
</g>
<!-- Node8 -->
<g id="node8" class="node"><title>Node8</title>
<g id="a_node8"><a xlink:href="../../d8/df4/classnars_1_1storage_1_1Memory_a49e2cbc8b78d535f4d69739886ee966a.html#a49e2cbc8b78d535f4d69739886ee966a" target="_top" xlink:title="An atomic working workCycle of the system: process new Tasks, then fire a concept. ">
<polygon fill="none" stroke="black" points="1567,-25.5 1567,-55.5 1700,-55.5 1700,-25.5 1567,-25.5"/>
<text text-anchor="start" x="1575" y="-43.5" font-family="Helvetica,sans-Serif" font-size="10.00">nars.storage.Memory.work</text>
<text text-anchor="middle" x="1633.5" y="-32.5" font-family="Helvetica,sans-Serif" font-size="10.00">Cycle</text>
</a>
</g>
</g>
<!-- Node7&#45;&gt;Node8 -->
<g id="edge7" class="edge"><title>Node7&#45;&gt;Node8</title>
<path fill="none" stroke="midnightblue" d="M1541.12,-40.5C1549.72,-40.5 1558.37,-40.5 1566.76,-40.5"/>
<polygon fill="midnightblue" stroke="midnightblue" points="1541.07,-37.0001 1531.07,-40.5 1541.07,-44.0001 1541.07,-37.0001"/>
</g>
<!-- Node9 -->
<g id="node9" class="node"><title>Node9</title>
<g id="a_node9"><a xlink:href="../../dd/da5/classnars_1_1storage_1_1Memory_1_1ReasonerBatch_acc60dec23da774957a85362ed6d7448b.html#acc60dec23da774957a85362ed6d7448b" target="_top" xlink:title="nars.storage.Memory.Reasoner\lBatch.doTick">
<polygon fill="none" stroke="black" points="1736,-25.5 1736,-55.5 1890,-55.5 1890,-25.5 1736,-25.5"/>
<text text-anchor="start" x="1744" y="-43.5" font-family="Helvetica,sans-Serif" font-size="10.00">nars.storage.Memory.Reasoner</text>
<text text-anchor="middle" x="1813" y="-32.5" font-family="Helvetica,sans-Serif" font-size="10.00">Batch.doTick</text>
</a>
</g>
</g>
<!-- Node8&#45;&gt;Node9 -->
<g id="edge8" class="edge"><title>Node8&#45;&gt;Node9</title>
<path fill="none" stroke="midnightblue" d="M1710.32,-40.5C1718.79,-40.5 1727.41,-40.5 1735.89,-40.5"/>
<polygon fill="midnightblue" stroke="midnightblue" points="1710.09,-37.0001 1700.09,-40.5 1710.09,-44.0001 1710.09,-37.0001"/>
</g>
<!-- Node10 -->
<g id="node10" class="node"><title>Node10</title>
<g id="a_node10"><a xlink:href="../../dd/da5/classnars_1_1storage_1_1Memory_1_1ReasonerBatch_aed591f05899b98fd9e4ad01836ad0a40.html#aed591f05899b98fd9e4ad01836ad0a40" target="_top" xlink:title="A clock tick. ">
<polygon fill="none" stroke="black" points="1926,-25.5 1926,-55.5 2080,-55.5 2080,-25.5 1926,-25.5"/>
<text text-anchor="start" x="1934" y="-43.5" font-family="Helvetica,sans-Serif" font-size="10.00">nars.storage.Memory.Reasoner</text>
<text text-anchor="middle" x="2003" y="-32.5" font-family="Helvetica,sans-Serif" font-size="10.00">Batch.tick</text>
</a>
</g>
</g>
<!-- Node9&#45;&gt;Node10 -->
<g id="edge9" class="edge"><title>Node9&#45;&gt;Node10</title>
<path fill="none" stroke="midnightblue" d="M1900.42,-40.5C1908.86,-40.5 1917.37,-40.5 1925.7,-40.5"/>
<polygon fill="midnightblue" stroke="midnightblue" points="1900.2,-37.0001 1890.2,-40.5 1900.2,-44.0001 1900.2,-37.0001"/>
</g>
<!-- Node11 -->
<g id="node11" class="node"><title>Node11</title>
<g id="a_node11"><a xlink:href="../../d4/d88/classnars_1_1storage_1_1Memory_1_1NARSBatch_aad99db6cedde9cff2a997db8906ff821.html#aad99db6cedde9cff2a997db8906ff821" target="_top" xlink:title="Run to completion: repeatedly execute NARS working cycle, until Inputs are Finished, or 1000 steps. ">
<polygon fill="none" stroke="black" points="2116,-31 2116,-50 2298,-50 2298,-31 2116,-31"/>
<text text-anchor="middle" x="2207" y="-38" font-family="Helvetica,sans-Serif" font-size="10.00">nars.storage.Memory.NARSBatch.run</text>
</a>
</g>
</g>
<!-- Node10&#45;&gt;Node11 -->
<g id="edge10" class="edge"><title>Node10&#45;&gt;Node11</title>
<path fill="none" stroke="midnightblue" d="M2090.27,-40.5C2098.69,-40.5 2107.25,-40.5 2115.71,-40.5"/>
<polygon fill="midnightblue" stroke="midnightblue" points="2090.08,-37.0001 2080.08,-40.5 2090.08,-44.0001 2090.08,-37.0001"/>
</g>
<!-- Node12 -->
<g id="node12" class="node"><title>Node12</title>
<g id="a_node12"><a xlink:href="../../d4/d88/classnars_1_1storage_1_1Memory_1_1NARSBatch_a416c39463faa161661ed1d12fea03b3c.html#a416c39463faa161661ed1d12fea03b3c" target="_top" xlink:title="non&#45;static equivalent to main(String[]) : run to completion from an input file ">
<polygon fill="none" stroke="black" points="2334,-25.5 2334,-55.5 2516,-55.5 2516,-25.5 2334,-25.5"/>
<text text-anchor="start" x="2342" y="-43.5" font-family="Helvetica,sans-Serif" font-size="10.00">nars.storage.Memory.NARSBatch.run</text>
<text text-anchor="middle" x="2425" y="-32.5" font-family="Helvetica,sans-Serif" font-size="10.00">Inference</text>
</a>
</g>
</g>
<!-- Node11&#45;&gt;Node12 -->
<g id="edge11" class="edge"><title>Node11&#45;&gt;Node12</title>
<path fill="none" stroke="midnightblue" d="M2308.06,-40.5C2316.63,-40.5 2325.27,-40.5 2333.76,-40.5"/>
<polygon fill="midnightblue" stroke="midnightblue" points="2308.04,-37.0001 2298.04,-40.5 2308.04,-44.0001 2308.04,-37.0001"/>
</g>
<!-- Node13 -->
<g id="node13" class="node"><title>Node13</title>
<g id="a_node13"><a xlink:href="../../d4/d88/classnars_1_1storage_1_1Memory_1_1NARSBatch_aa97fcd68270583e60e6bf1b4579d1bdc.html#aa97fcd68270583e60e6bf1b4579d1bdc" target="_top" xlink:title="The entry point of the standalone application. ">
<polygon fill="none" stroke="black" points="2552,-31 2552,-50 2742,-50 2742,-31 2552,-31"/>
<text text-anchor="middle" x="2647" y="-38" font-family="Helvetica,sans-Serif" font-size="10.00">nars.storage.Memory.NARSBatch.main</text>
</a>
</g>
</g>
<!-- Node12&#45;&gt;Node13 -->
<g id="edge12" class="edge"><title>Node12&#45;&gt;Node13</title>
<path fill="none" stroke="midnightblue" d="M2526.37,-40.5C2534.82,-40.5 2543.34,-40.5 2551.74,-40.5"/>
<polygon fill="midnightblue" stroke="midnightblue" points="2526.12,-37.0001 2516.12,-40.5 2526.12,-44.0001 2526.12,-37.0001"/>
</g>
<!-- Node14&#45;&gt;Node5 -->
<g id="edge14" class="edge"><title>Node14&#45;&gt;Node5</title>
<path fill="none" stroke="midnightblue" d="M759.932,-19.7708C835.149,-24.2057 952.549,-31.1279 1030.72,-35.737"/>
<polygon fill="midnightblue" stroke="midnightblue" points="759.796,-16.2567 749.607,-19.162 759.384,-23.2446 759.796,-16.2567"/>
</g>
<!-- Node16 -->
<g id="node16" class="node"><title>Node16</title>
<g id="a_node16"><a xlink:href="../../d8/d79/classnars_1_1inference_1_1CompositionalRules_a53f7edf7bfe7433da42e8fcf36fd6604.html#a53f7edf7bfe7433da42e8fcf36fd6604" target="_top" xlink:title="{&lt;S ==&gt; M&gt;, ">
<polygon fill="none" stroke="black" points="415,-93.5 415,-123.5 558,-123.5 558,-93.5 415,-93.5"/>
<text text-anchor="start" x="423" y="-111.5" font-family="Helvetica,sans-Serif" font-size="10.00">nars.inference.Compositional</text>
<text text-anchor="middle" x="486.5" y="-100.5" font-family="Helvetica,sans-Serif" font-size="10.00">Rules.composeCompound</text>
</a>
</g>
</g>
<!-- Node15&#45;&gt;Node16 -->
<g id="edge16" class="edge"><title>Node15&#45;&gt;Node16</title>
<path fill="none" stroke="midnightblue" d="M389.494,-106.873C397.973,-107.016 406.544,-107.162 414.894,-107.303"/>
<polygon fill="midnightblue" stroke="midnightblue" points="389.276,-103.369 379.218,-106.699 389.157,-110.368 389.276,-103.369"/>
</g>
<!-- Node16&#45;&gt;Node3 -->
<g id="edge17" class="edge"><title>Node16&#45;&gt;Node3</title>
<path fill="none" stroke="midnightblue" d="M565.208,-91.2316C582.608,-87.3648 600.93,-83.2934 617.882,-79.5262"/>
<polygon fill="midnightblue" stroke="midnightblue" points="564.089,-87.8947 555.087,-93.4808 565.608,-94.728 564.089,-87.8947"/>
</g>
</g>
</svg>
