<?xml version="1.0" encoding="UTF-8" standalone="no"?>
<!DOCTYPE svg PUBLIC "-//W3C//DTD SVG 1.1//EN"
 "http://www.w3.org/Graphics/SVG/1.1/DTD/svg11.dtd">
<!-- Generated by graphviz version 2.38.0 (20140413.2041)
 -->
<!-- Title: nars.inference.TruthFunctions.abduction Pages: 1 -->
<!--zoomable 264 -->
<svg id="main" version="1.1" xmlns="http://www.w3.org/2000/svg" xmlns:xlink="http://www.w3.org/1999/xlink" xml:space="preserve" onload="init(evt)">
<style type="text/css"><![CDATA[
.edge:hover path { stroke: red; }
.edge:hover polygon { stroke: red; fill: red; }
]]></style>
<script type="text/javascript"><![CDATA[
var edges = document.getElementsByTagName('g');
if (edges && edges.length) {
  for (var i=0;i<edges.length;i++) {
    if (edges[i].id.substr(0,4)=='edge') {
      edges[i].setAttribute('class','edge');
    }
  }
}
]]></script>
        <defs>
                <circle id="rim" cx="0" cy="0" r="7"/>
                <circle id="rim2" cx="0" cy="0" r="3.5"/>
                <g id="zoomPlus">
                        <use xlink:href="#rim" fill="#404040">
                                <set attributeName="fill" to="#808080" begin="zoomplus.mouseover" end="zoomplus.mouseout"/>
                        </use>
                        <path d="M-4,0h8M0,-4v8" fill="none" stroke="white" stroke-width="1.5" pointer-events="none"/>
                </g>
                <g id="zoomMin">
                        <use xlink:href="#rim" fill="#404040">
                                <set attributeName="fill" to="#808080" begin="zoomminus.mouseover" end="zoomminus.mouseout"/>
                        </use>
                        <path d="M-4,0h8" fill="none" stroke="white" stroke-width="1.5" pointer-events="none"/>
                </g>
                <g id="dirArrow">
                        <path fill="none" stroke="white" stroke-width="1.5" d="M0,-3.0v7 M-2.5,-0.5L0,-3.0L2.5,-0.5"/>
                </g>
               <g id="resetDef">
                       <use xlink:href="#rim2" fill="#404040">
                               <set attributeName="fill" to="#808080" begin="reset.mouseover" end="reset.mouseout"/>
                       </use>
               </g>
        </defs>

<script type="text/javascript">
var viewWidth = 2982;
var viewHeight = 264;
var sectionId = 'dynsection-1';
</script>
<script xlink:href="../../svgpan.js"/>
<svg id="graph" class="graph">
<g id="viewport">
<title>nars.inference.TruthFunctions.abduction</title>
<!-- Node1 -->
<g id="node1" class="node"><title>Node1</title>
<polygon fill="#bfbfbf" stroke="black" points="0,-143 0,-162 191,-162 191,-143 0,-143"/>
<text text-anchor="middle" x="95.5" y="-150" font-family="Helvetica,sans-Serif" font-size="10.00">nars.inference.TruthFunctions.abduction</text>
</g>
<!-- Node2 -->
<g id="node2" class="node"><title>Node2</title>
<g id="a_node2"><a xlink:href="../../d4/daa/classnars_1_1inference_1_1SyllogisticRules_a698f01981603a38d9da0e48930095d50.html#a698f01981603a38d9da0e48930095d50" target="_top" xlink:title="{&lt;M ==&gt; S&gt;, &lt;M ==&gt; P&gt;} |&#45; {&lt;S ==&gt; P&gt;, ">
<polygon fill="none" stroke="black" points="468,-137.5 468,-167.5 594,-167.5 594,-137.5 468,-137.5"/>
<text text-anchor="start" x="476" y="-155.5" font-family="Helvetica,sans-Serif" font-size="10.00">nars.inference.Syllogistic</text>
<text text-anchor="middle" x="531" y="-144.5" font-family="Helvetica,sans-Serif" font-size="10.00">Rules.abdIndCom</text>
</a>
</g>
</g>
<!-- Node1&#45;&gt;Node2 -->
<g id="edge1" class="edge"><title>Node1&#45;&gt;Node2</title>
<path fill="none" stroke="midnightblue" d="M201.351,-152.5C284.607,-152.5 398.211,-152.5 467.713,-152.5"/>
<polygon fill="midnightblue" stroke="midnightblue" points="201.098,-149 191.098,-152.5 201.098,-156 201.098,-149"/>
</g>
<!-- Node14 -->
<g id="node14" class="node"><title>Node14</title>
<g id="a_node14"><a xlink:href="../../d4/daa/classnars_1_1inference_1_1SyllogisticRules_a188ed61b1cef0b9e8af45d5dc372da31.html#a188ed61b1cef0b9e8af45d5dc372da31" target="_top" xlink:title="{&lt;(&amp;&amp;, S2, S3) ==&gt; P&gt;, &lt;(&amp;&amp;, S1, S3) ==&gt; P&gt;} |&#45; &lt;S1 ==&gt; S2&gt; ">
<polygon fill="none" stroke="black" points="258,-44.5 258,-74.5 384,-74.5 384,-44.5 258,-44.5"/>
<text text-anchor="start" x="266" y="-62.5" font-family="Helvetica,sans-Serif" font-size="10.00">nars.inference.Syllogistic</text>
<text text-anchor="middle" x="321" y="-51.5" font-family="Helvetica,sans-Serif" font-size="10.00">Rules.conditionalAbd</text>
</a>
</g>
</g>
<!-- Node1&#45;&gt;Node14 -->
<g id="edge13" class="edge"><title>Node1&#45;&gt;Node14</title>
<path fill="none" stroke="midnightblue" d="M120.721,-137.831C146.372,-122.791 188.414,-99.5322 227,-84.5 236.815,-80.6765 247.431,-77.2209 257.86,-74.1835"/>
<polygon fill="midnightblue" stroke="midnightblue" points="118.867,-134.861 112.048,-142.97 122.436,-140.883 118.867,-134.861"/>
</g>
<!-- Node15 -->
<g id="node15" class="node"><title>Node15</title>
<g id="a_node15"><a xlink:href="../../d4/de9/classnars_1_1inference_1_1LocalRules_ae878f1b2fff31ef78b7916bde1b939b3.html#ae878f1b2fff31ef78b7916bde1b939b3" target="_top" xlink:title="{&lt;S &#45;&#45;&gt; P&gt;} |&#45; &lt;S &lt;&#45;&gt; P&gt; {&lt;S &lt;&#45;&gt; P&gt;} |&#45; &lt;S &#45;&#45;&gt; P&gt; Switch between Inheritance/Implication and Similari...">
<polygon fill="none" stroke="black" points="238.5,-225.5 238.5,-255.5 403.5,-255.5 403.5,-225.5 238.5,-225.5"/>
<text text-anchor="start" x="246.5" y="-243.5" font-family="Helvetica,sans-Serif" font-size="10.00">nars.inference.LocalRules.convert</text>
<text text-anchor="middle" x="321" y="-232.5" font-family="Helvetica,sans-Serif" font-size="10.00">Relation</text>
</a>
</g>
</g>
<!-- Node1&#45;&gt;Node15 -->
<g id="edge14" class="edge"><title>Node1&#45;&gt;Node15</title>
<path fill="none" stroke="midnightblue" d="M125.463,-166.437C151.665,-178.788 191.474,-196.919 227,-210.5 240.787,-215.77 255.944,-220.923 269.947,-225.43"/>
<polygon fill="midnightblue" stroke="midnightblue" points="126.659,-163.13 116.124,-162.007 123.659,-169.455 126.659,-163.13"/>
</g>
<!-- Node18 -->
<g id="node18" class="node"><title>Node18</title>
<g id="a_node18"><a xlink:href="../../d4/daa/classnars_1_1inference_1_1SyllogisticRules_a08c8ce3ed165e9c09a7a379d9e871626.html#a08c8ce3ed165e9c09a7a379d9e871626" target="_top" xlink:title="{&lt;&lt;M &#45;&#45;&gt; S&gt; ==&gt; &lt;M &#45;&#45;&gt; P&gt;&gt;, &lt;M &#45;&#45;&gt; S&gt;} |&#45; &lt;M &#45;&#45;&gt; P&gt; {&lt;&lt;M &#45;&#45;&gt; S&gt; ==&gt; &lt;M –&gt; P&gt;&gt;, &lt;M &#45;&#45;&gt; P&gt;} |&#45; &lt;M &#45;&#45;&gt; ...">
<polygon fill="none" stroke="black" points="655.5,-181.5 655.5,-211.5 781.5,-211.5 781.5,-181.5 655.5,-181.5"/>
<text text-anchor="start" x="663.5" y="-199.5" font-family="Helvetica,sans-Serif" font-size="10.00">nars.inference.Syllogistic</text>
<text text-anchor="middle" x="718.5" y="-188.5" font-family="Helvetica,sans-Serif" font-size="10.00">Rules.detachment</text>
</a>
</g>
</g>
<!-- Node1&#45;&gt;Node18 -->
<g id="edge18" class="edge"><title>Node1&#45;&gt;Node18</title>
<path fill="none" stroke="midnightblue" d="M190.298,-163.084C202.634,-164.323 215.115,-165.5 227,-166.5 380.877,-179.453 562.36,-189.086 655.49,-193.619"/>
<polygon fill="midnightblue" stroke="midnightblue" points="190.29,-159.565 179.987,-162.031 189.579,-166.529 190.29,-159.565"/>
</g>
<!-- Node20 -->
<g id="node20" class="node"><title>Node20</title>
<g id="a_node20"><a xlink:href="../../d1/d58/classnars_1_1inference_1_1TruthFunctions_aed67308b830f5b1780c075f2736f3ad0.html#aed67308b830f5b1780c075f2736f3ad0" target="_top" xlink:title="{&lt;M ==&gt; S&gt;, &lt;M ==&gt; P&gt;} |&#45; &lt;S ==&gt; P&gt; ">
<polygon fill="none" stroke="black" points="227,-94 227,-113 415,-113 415,-94 227,-94"/>
<text text-anchor="middle" x="321" y="-101" font-family="Helvetica,sans-Serif" font-size="10.00">nars.inference.TruthFunctions.induction</text>
</a>
</g>
</g>
<!-- Node1&#45;&gt;Node20 -->
<g id="edge22" class="edge"><title>Node1&#45;&gt;Node20</title>
<path fill="none" stroke="midnightblue" d="M149.893,-140.794C188.56,-132.317 240.183,-120.999 276.382,-113.063"/>
<polygon fill="midnightblue" stroke="midnightblue" points="148.876,-137.434 139.858,-142.994 150.376,-144.271 148.876,-137.434"/>
</g>
<!-- Node3 -->
<g id="node3" class="node"><title>Node3</title>
<g id="a_node3"><a xlink:href="../../da/de3/classnars_1_1inference_1_1RuleTables_a34927349efcf87db97d23c60983b115b.html#a34927349efcf87db97d23c60983b115b" target="_top" xlink:title="Syllogistic rules whose both premises are on the same asymmetric relation. ">
<polygon fill="none" stroke="black" points="826,-137.5 826,-167.5 1011,-167.5 1011,-137.5 826,-137.5"/>
<text text-anchor="start" x="834" y="-155.5" font-family="Helvetica,sans-Serif" font-size="10.00">nars.inference.RuleTables.asymmetric</text>
<text text-anchor="middle" x="918.5" y="-144.5" font-family="Helvetica,sans-Serif" font-size="10.00">Asymmetric</text>
</a>
</g>
</g>
<!-- Node2&#45;&gt;Node3 -->
<g id="edge2" class="edge"><title>Node2&#45;&gt;Node3</title>
<path fill="none" stroke="midnightblue" d="M604.557,-152.5C667.2,-152.5 758.03,-152.5 825.716,-152.5"/>
<polygon fill="midnightblue" stroke="midnightblue" points="604.366,-149 594.366,-152.5 604.366,-156 604.366,-149"/>
</g>
<!-- Node4 -->
<g id="node4" class="node"><title>Node4</title>
<g id="a_node4"><a xlink:href="../../da/de3/classnars_1_1inference_1_1RuleTables_a8628d400a8ceda7fea05039ddfea319b.html#a8628d400a8ceda7fea05039ddfea319b" target="_top" xlink:title="Meta&#45;table of syllogistic rules, indexed by the content classes of the taskSentence and the belief...">
<polygon fill="none" stroke="black" points="1047,-143 1047,-162 1227,-162 1227,-143 1047,-143"/>
<text text-anchor="middle" x="1137" y="-150" font-family="Helvetica,sans-Serif" font-size="10.00">nars.inference.RuleTables.syllogisms</text>
</a>
</g>
</g>
<!-- Node3&#45;&gt;Node4 -->
<g id="edge3" class="edge"><title>Node3&#45;&gt;Node4</title>
<path fill="none" stroke="midnightblue" d="M1021.08,-152.5C1029.71,-152.5 1038.38,-152.5 1046.9,-152.5"/>
<polygon fill="midnightblue" stroke="midnightblue" points="1021,-149 1011,-152.5 1021,-156 1021,-149"/>
</g>
<!-- Node5 -->
<g id="node5" class="node"><title>Node5</title>
<g id="a_node5"><a xlink:href="../../da/de3/classnars_1_1inference_1_1RuleTables_ac2d01dfdc40bdd47c757cb549217e6e3.html#ac2d01dfdc40bdd47c757cb549217e6e3" target="_top" xlink:title="Entry point of the inference engine. ">
<polygon fill="none" stroke="black" points="1263,-99 1263,-118 1426,-118 1426,-99 1263,-99"/>
<text text-anchor="middle" x="1344.5" y="-106" font-family="Helvetica,sans-Serif" font-size="10.00">nars.inference.RuleTables.reason</text>
</a>
</g>
</g>
<!-- Node4&#45;&gt;Node5 -->
<g id="edge4" class="edge"><title>Node4&#45;&gt;Node5</title>
<path fill="none" stroke="midnightblue" d="M1192.63,-140.846C1203.99,-138.421 1215.89,-135.879 1227,-133.5 1250.87,-128.391 1277.49,-122.68 1299.25,-118.008"/>
<polygon fill="midnightblue" stroke="midnightblue" points="1191.87,-137.43 1182.82,-142.941 1193.33,-144.276 1191.87,-137.43"/>
</g>
<!-- Node6 -->
<g id="node6" class="node"><title>Node6</title>
<g id="a_node6"><a xlink:href="../../d4/d22/classnars_1_1entity_1_1Concept_ae07576c8466ad65eeb61040e3f71cfc7.html#ae07576c8466ad65eeb61040e3f71cfc7" target="_top" xlink:title="An atomic step in a concept, only called in Memory# processConcept. ">
<polygon fill="none" stroke="black" points="1462,-99 1462,-118 1581,-118 1581,-99 1462,-99"/>
<text text-anchor="middle" x="1521.5" y="-106" font-family="Helvetica,sans-Serif" font-size="10.00">nars.entity.Concept.fire</text>
</a>
</g>
</g>
<!-- Node5&#45;&gt;Node6 -->
<g id="edge5" class="edge"><title>Node5&#45;&gt;Node6</title>
<path fill="none" stroke="midnightblue" d="M1436.25,-108.5C1444.91,-108.5 1453.52,-108.5 1461.76,-108.5"/>
<polygon fill="midnightblue" stroke="midnightblue" points="1436.09,-105 1426.09,-108.5 1436.08,-112 1436.09,-105"/>
</g>
<!-- Node7 -->
<g id="node7" class="node"><title>Node7</title>
<g id="a_node7"><a xlink:href="../../d8/df4/classnars_1_1storage_1_1Memory_a83154b55b922c82b73931d4f22e3a590.html#a83154b55b922c82b73931d4f22e3a590" target="_top" xlink:title="Select a concept to fire. ">
<polygon fill="none" stroke="black" points="1617,-93.5 1617,-123.5 1763,-123.5 1763,-93.5 1617,-93.5"/>
<text text-anchor="start" x="1625" y="-111.5" font-family="Helvetica,sans-Serif" font-size="10.00">nars.storage.Memory.process</text>
<text text-anchor="middle" x="1690" y="-100.5" font-family="Helvetica,sans-Serif" font-size="10.00">Concept</text>
</a>
</g>
</g>
<!-- Node6&#45;&gt;Node7 -->
<g id="edge6" class="edge"><title>Node6&#45;&gt;Node7</title>
<path fill="none" stroke="midnightblue" d="M1591.34,-108.5C1599.75,-108.5 1608.36,-108.5 1616.82,-108.5"/>
<polygon fill="midnightblue" stroke="midnightblue" points="1591.2,-105 1581.2,-108.5 1591.2,-112 1591.2,-105"/>
</g>
<!-- Node8 -->
<g id="node8" class="node"><title>Node8</title>
<g id="a_node8"><a xlink:href="../../d8/df4/classnars_1_1storage_1_1Memory_a49e2cbc8b78d535f4d69739886ee966a.html#a49e2cbc8b78d535f4d69739886ee966a" target="_top" xlink:title="An atomic working workCycle of the system: process new Tasks, then fire a concept. ">
<polygon fill="none" stroke="black" points="1799,-93.5 1799,-123.5 1932,-123.5 1932,-93.5 1799,-93.5"/>
<text text-anchor="start" x="1807" y="-111.5" font-family="Helvetica,sans-Serif" font-size="10.00">nars.storage.Memory.work</text>
<text text-anchor="middle" x="1865.5" y="-100.5" font-family="Helvetica,sans-Serif" font-size="10.00">Cycle</text>
</a>
</g>
</g>
<!-- Node7&#45;&gt;Node8 -->
<g id="edge7" class="edge"><title>Node7&#45;&gt;Node8</title>
<path fill="none" stroke="midnightblue" d="M1773.12,-108.5C1781.72,-108.5 1790.37,-108.5 1798.76,-108.5"/>
<polygon fill="midnightblue" stroke="midnightblue" points="1773.07,-105 1763.07,-108.5 1773.07,-112 1773.07,-105"/>
</g>
<!-- Node9 -->
<g id="node9" class="node"><title>Node9</title>
<g id="a_node9"><a xlink:href="../../dd/da5/classnars_1_1storage_1_1Memory_1_1ReasonerBatch_acc60dec23da774957a85362ed6d7448b.html#acc60dec23da774957a85362ed6d7448b" target="_top" xlink:title="nars.storage.Memory.Reasoner\lBatch.doTick">
<polygon fill="none" stroke="black" points="1968,-93.5 1968,-123.5 2122,-123.5 2122,-93.5 1968,-93.5"/>
<text text-anchor="start" x="1976" y="-111.5" font-family="Helvetica,sans-Serif" font-size="10.00">nars.storage.Memory.Reasoner</text>
<text text-anchor="middle" x="2045" y="-100.5" font-family="Helvetica,sans-Serif" font-size="10.00">Batch.doTick</text>
</a>
</g>
</g>
<!-- Node8&#45;&gt;Node9 -->
<g id="edge8" class="edge"><title>Node8&#45;&gt;Node9</title>
<path fill="none" stroke="midnightblue" d="M1942.32,-108.5C1950.79,-108.5 1959.41,-108.5 1967.89,-108.5"/>
<polygon fill="midnightblue" stroke="midnightblue" points="1942.09,-105 1932.09,-108.5 1942.09,-112 1942.09,-105"/>
</g>
<!-- Node10 -->
<g id="node10" class="node"><title>Node10</title>
<g id="a_node10"><a xlink:href="../../dd/da5/classnars_1_1storage_1_1Memory_1_1ReasonerBatch_aed591f05899b98fd9e4ad01836ad0a40.html#aed591f05899b98fd9e4ad01836ad0a40" target="_top" xlink:title="A clock tick. ">
<polygon fill="none" stroke="black" points="2158,-93.5 2158,-123.5 2312,-123.5 2312,-93.5 2158,-93.5"/>
<text text-anchor="start" x="2166" y="-111.5" font-family="Helvetica,sans-Serif" font-size="10.00">nars.storage.Memory.Reasoner</text>
<text text-anchor="middle" x="2235" y="-100.5" font-family="Helvetica,sans-Serif" font-size="10.00">Batch.tick</text>
</a>
</g>
</g>
<!-- Node9&#45;&gt;Node10 -->
<g id="edge9" class="edge"><title>Node9&#45;&gt;Node10</title>
<path fill="none" stroke="midnightblue" d="M2132.42,-108.5C2140.86,-108.5 2149.37,-108.5 2157.7,-108.5"/>
<polygon fill="midnightblue" stroke="midnightblue" points="2132.2,-105 2122.2,-108.5 2132.2,-112 2132.2,-105"/>
</g>
<!-- Node11 -->
<g id="node11" class="node"><title>Node11</title>
<g id="a_node11"><a xlink:href="../../d4/d88/classnars_1_1storage_1_1Memory_1_1NARSBatch_aad99db6cedde9cff2a997db8906ff821.html#aad99db6cedde9cff2a997db8906ff821" target="_top" xlink:title="Run to completion: repeatedly execute NARS working cycle, until Inputs are Finished, or 1000 steps. ">
<polygon fill="none" stroke="black" points="2348,-99 2348,-118 2530,-118 2530,-99 2348,-99"/>
<text text-anchor="middle" x="2439" y="-106" font-family="Helvetica,sans-Serif" font-size="10.00">nars.storage.Memory.NARSBatch.run</text>
</a>
</g>
</g>
<!-- Node10&#45;&gt;Node11 -->
<g id="edge10" class="edge"><title>Node10&#45;&gt;Node11</title>
<path fill="none" stroke="midnightblue" d="M2322.27,-108.5C2330.69,-108.5 2339.25,-108.5 2347.71,-108.5"/>
<polygon fill="midnightblue" stroke="midnightblue" points="2322.08,-105 2312.08,-108.5 2322.08,-112 2322.08,-105"/>
</g>
<!-- Node12 -->
<g id="node12" class="node"><title>Node12</title>
<g id="a_node12"><a xlink:href="../../d4/d88/classnars_1_1storage_1_1Memory_1_1NARSBatch_a416c39463faa161661ed1d12fea03b3c.html#a416c39463faa161661ed1d12fea03b3c" target="_top" xlink:title="non&#45;static equivalent to main(String[]) : run to completion from an input file ">
<polygon fill="none" stroke="black" points="2566,-93.5 2566,-123.5 2748,-123.5 2748,-93.5 2566,-93.5"/>
<text text-anchor="start" x="2574" y="-111.5" font-family="Helvetica,sans-Serif" font-size="10.00">nars.storage.Memory.NARSBatch.run</text>
<text text-anchor="middle" x="2657" y="-100.5" font-family="Helvetica,sans-Serif" font-size="10.00">Inference</text>
</a>
</g>
</g>
<!-- Node11&#45;&gt;Node12 -->
<g id="edge11" class="edge"><title>Node11&#45;&gt;Node12</title>
<path fill="none" stroke="midnightblue" d="M2540.06,-108.5C2548.63,-108.5 2557.27,-108.5 2565.76,-108.5"/>
<polygon fill="midnightblue" stroke="midnightblue" points="2540.04,-105 2530.04,-108.5 2540.04,-112 2540.04,-105"/>
</g>
<!-- Node13 -->
<g id="node13" class="node"><title>Node13</title>
<g id="a_node13"><a xlink:href="../../d4/d88/classnars_1_1storage_1_1Memory_1_1NARSBatch_aa97fcd68270583e60e6bf1b4579d1bdc.html#aa97fcd68270583e60e6bf1b4579d1bdc" target="_top" xlink:title="The entry point of the standalone application. ">
<polygon fill="none" stroke="black" points="2784,-99 2784,-118 2974,-118 2974,-99 2784,-99"/>
<text text-anchor="middle" x="2879" y="-106" font-family="Helvetica,sans-Serif" font-size="10.00">nars.storage.Memory.NARSBatch.main</text>
</a>
</g>
</g>
<!-- Node12&#45;&gt;Node13 -->
<g id="edge12" class="edge"><title>Node12&#45;&gt;Node13</title>
<path fill="none" stroke="midnightblue" d="M2758.37,-108.5C2766.82,-108.5 2775.34,-108.5 2783.74,-108.5"/>
<polygon fill="midnightblue" stroke="midnightblue" points="2758.12,-105 2748.12,-108.5 2758.12,-112 2758.12,-105"/>
</g>
<!-- Node16 -->
<g id="node16" class="node"><title>Node16</title>
<g id="a_node16"><a xlink:href="../../d4/de9/classnars_1_1inference_1_1LocalRules_a2a6db5879fbb7ba315891fa9d49c985b.html#a2a6db5879fbb7ba315891fa9d49c985b" target="_top" xlink:title="Inheritance/Implication matches Similarity/Equivalence. ">
<polygon fill="none" stroke="black" points="451,-225.5 451,-255.5 611,-255.5 611,-225.5 451,-225.5"/>
<text text-anchor="start" x="459" y="-243.5" font-family="Helvetica,sans-Serif" font-size="10.00">nars.inference.LocalRules.match</text>
<text text-anchor="middle" x="531" y="-232.5" font-family="Helvetica,sans-Serif" font-size="10.00">AsymSym</text>
</a>
</g>
</g>
<!-- Node15&#45;&gt;Node16 -->
<g id="edge15" class="edge"><title>Node15&#45;&gt;Node16</title>
<path fill="none" stroke="midnightblue" d="M413.852,-240.5C426.128,-240.5 438.632,-240.5 450.669,-240.5"/>
<polygon fill="midnightblue" stroke="midnightblue" points="413.61,-237 403.61,-240.5 413.61,-244 413.61,-237"/>
</g>
<!-- Node17 -->
<g id="node17" class="node"><title>Node17</title>
<g id="a_node17"><a xlink:href="../../da/de3/classnars_1_1inference_1_1RuleTables_a4f61a7c2dc75c9da475030894eac0735.html#a4f61a7c2dc75c9da475030894eac0735" target="_top" xlink:title="Syllogistic rules whose first premise is on an asymmetric relation, and the second on a symmetric rel...">
<polygon fill="none" stroke="black" points="826,-225.5 826,-255.5 1011,-255.5 1011,-225.5 826,-225.5"/>
<text text-anchor="start" x="834" y="-243.5" font-family="Helvetica,sans-Serif" font-size="10.00">nars.inference.RuleTables.asymmetric</text>
<text text-anchor="middle" x="918.5" y="-232.5" font-family="Helvetica,sans-Serif" font-size="10.00">Symmetric</text>
</a>
</g>
</g>
<!-- Node16&#45;&gt;Node17 -->
<g id="edge16" class="edge"><title>Node16&#45;&gt;Node17</title>
<path fill="none" stroke="midnightblue" d="M621.457,-240.5C682.763,-240.5 763.855,-240.5 825.665,-240.5"/>
<polygon fill="midnightblue" stroke="midnightblue" points="621.408,-237 611.408,-240.5 621.408,-244 621.408,-237"/>
</g>
<!-- Node17&#45;&gt;Node4 -->
<g id="edge17" class="edge"><title>Node17&#45;&gt;Node4</title>
<path fill="none" stroke="midnightblue" d="M965.993,-221.602C1011.08,-203.276 1077.64,-176.22 1112.6,-162.011"/>
<polygon fill="midnightblue" stroke="midnightblue" points="964.664,-218.364 956.718,-225.372 967.3,-224.849 964.664,-218.364"/>
</g>
<!-- Node18&#45;&gt;Node5 -->
<g id="edge21" class="edge"><title>Node18&#45;&gt;Node5</title>
<path fill="none" stroke="midnightblue" d="M791.827,-202.84C891.74,-209.389 1076.69,-213.502 1227,-171.5 1267.53,-160.176 1309.64,-132.849 1330.37,-118.184"/>
<polygon fill="midnightblue" stroke="midnightblue" points="792.053,-199.348 781.838,-202.159 791.577,-206.331 792.053,-199.348"/>
</g>
<!-- Node19 -->
<g id="node19" class="node"><title>Node19</title>
<g id="a_node19"><a xlink:href="../../da/de3/classnars_1_1inference_1_1RuleTables_a3e3eec10853be6dcf8c7532259cf4a84.html#a3e3eec10853be6dcf8c7532259cf4a84" target="_top" xlink:title="The detachment rule, with variable unification. ">
<polygon fill="none" stroke="black" points="826,-88.5 826,-118.5 1011,-118.5 1011,-88.5 826,-88.5"/>
<text text-anchor="start" x="834" y="-106.5" font-family="Helvetica,sans-Serif" font-size="10.00">nars.inference.RuleTables.detachment</text>
<text text-anchor="middle" x="918.5" y="-95.5" font-family="Helvetica,sans-Serif" font-size="10.00">WithVar</text>
</a>
</g>
</g>
<!-- Node18&#45;&gt;Node19 -->
<g id="edge19" class="edge"><title>Node18&#45;&gt;Node19</title>
<path fill="none" stroke="midnightblue" d="M747.603,-175.215C768.341,-160.362 797.75,-141.03 826,-128.5 834.43,-124.761 843.55,-121.461 852.655,-118.588"/>
<polygon fill="midnightblue" stroke="midnightblue" points="745.303,-172.56 739.275,-181.273 749.421,-178.221 745.303,-172.56"/>
</g>
<!-- Node19&#45;&gt;Node4 -->
<g id="edge20" class="edge"><title>Node19&#45;&gt;Node4</title>
<path fill="none" stroke="midnightblue" d="M992.154,-120.87C1010.07,-125.077 1029.21,-129.51 1047,-133.5 1061.03,-136.648 1076.33,-139.958 1090.23,-142.918"/>
<polygon fill="midnightblue" stroke="midnightblue" points="992.882,-117.446 982.346,-118.561 991.277,-124.26 992.882,-117.446"/>
</g>
<!-- Node21 -->
<g id="node21" class="node"><title>Node21</title>
<g id="a_node21"><a xlink:href="../../d4/daa/classnars_1_1inference_1_1SyllogisticRules_a6ee55e2d5114b506fdf5c59ae00dcd19.html#a6ee55e2d5114b506fdf5c59ae00dcd19" target="_top" xlink:title="{&lt;(&amp;&amp;, S1, S2, S3) ==&gt; P&gt;, S1} |&#45; &lt;(&amp;&amp;, S2, S3) ==&gt; P&gt; {&lt;(&amp;&amp;, S2, S3) ==&gt; P&gt;, &lt;S1 ==&gt; S2&gt;} |&#45; &lt;(&amp;&amp;...">
<polygon fill="none" stroke="black" points="855.5,-0.5 855.5,-30.5 981.5,-30.5 981.5,-0.5 855.5,-0.5"/>
<text text-anchor="start" x="863.5" y="-18.5" font-family="Helvetica,sans-Serif" font-size="10.00">nars.inference.Syllogistic</text>
<text text-anchor="middle" x="918.5" y="-7.5" font-family="Helvetica,sans-Serif" font-size="10.00">Rules.conditionalDedInd</text>
</a>
</g>
</g>
<!-- Node20&#45;&gt;Node21 -->
<g id="edge23" class="edge"><title>Node20&#45;&gt;Node21</title>
<path fill="none" stroke="midnightblue" d="M390.693,-91.4856C399.009,-89.2274 407.284,-86.5835 415,-83.5 432.412,-76.5415 433.339,-67.8013 451,-61.5 589.161,-12.204 764.035,-9.52188 855.428,-12.2507"/>
<polygon fill="midnightblue" stroke="midnightblue" points="389.772,-88.1081 380.942,-93.9624 391.495,-94.8927 389.772,-88.1081"/>
</g>
<!-- Node23 -->
<g id="node23" class="node"><title>Node23</title>
<g id="a_node23"><a xlink:href="../../d8/d79/classnars_1_1inference_1_1CompositionalRules_ae7906cfca35e9c7568ace240aba808a0.html#ae7906cfca35e9c7568ace240aba808a0" target="_top" xlink:title=" &#160;&#160;&#160;&#160;Introduce a second independent variable into two terms with a common &#160;component ...">
<polygon fill="none" stroke="black" points="647,-44.5 647,-74.5 790,-74.5 790,-44.5 647,-44.5"/>
<text text-anchor="start" x="655" y="-62.5" font-family="Helvetica,sans-Serif" font-size="10.00">nars.inference.Compositional</text>
<text text-anchor="middle" x="718.5" y="-51.5" font-family="Helvetica,sans-Serif" font-size="10.00">Rules.introVarInner</text>
</a>
</g>
</g>
<!-- Node20&#45;&gt;Node23 -->
<g id="edge27" class="edge"><title>Node20&#45;&gt;Node23</title>
<path fill="none" stroke="midnightblue" d="M376.471,-92.0038C399.392,-87.5213 426.403,-82.7014 451,-79.5 517.139,-70.8919 593.03,-65.6449 646.868,-62.6986"/>
<polygon fill="midnightblue" stroke="midnightblue" points="375.713,-88.586 366.585,-93.9653 377.075,-95.4521 375.713,-88.586"/>
</g>
<!-- Node25 -->
<g id="node25" class="node"><title>Node25</title>
<g id="a_node25"><a xlink:href="../../d8/d79/classnars_1_1inference_1_1CompositionalRules_a4e01a00f3a024ecdbd3949fefb803dae.html#a4e01a00f3a024ecdbd3949fefb803dae" target="_top" xlink:title="Introduce a dependent variable in an outer&#45;layer conjunction. ">
<polygon fill="none" stroke="black" points="459.5,-88.5 459.5,-118.5 602.5,-118.5 602.5,-88.5 459.5,-88.5"/>
<text text-anchor="start" x="467.5" y="-106.5" font-family="Helvetica,sans-Serif" font-size="10.00">nars.inference.Compositional</text>
<text text-anchor="middle" x="531" y="-95.5" font-family="Helvetica,sans-Serif" font-size="10.00">Rules.introVarOuter</text>
</a>
</g>
</g>
<!-- Node20&#45;&gt;Node25 -->
<g id="edge31" class="edge"><title>Node20&#45;&gt;Node25</title>
<path fill="none" stroke="midnightblue" d="M425.227,-103.5C436.829,-103.5 448.444,-103.5 459.495,-103.5"/>
<polygon fill="midnightblue" stroke="midnightblue" points="425.049,-100 415.049,-103.5 425.049,-107 425.049,-100"/>
</g>
<!-- Node21&#45;&gt;Node5 -->
<g id="edge26" class="edge"><title>Node21&#45;&gt;Node5</title>
<path fill="none" stroke="midnightblue" d="M991.885,-9.94775C1055.43,-7.40441 1149.53,-9.35923 1227,-34.5 1270.07,-48.4789 1313.05,-82.1515 1332.59,-98.8194"/>
<polygon fill="midnightblue" stroke="midnightblue" points="991.398,-6.46599 981.565,-10.4111 991.712,-13.4589 991.398,-6.46599"/>
</g>
<!-- Node22 -->
<g id="node22" class="node"><title>Node22</title>
<g id="a_node22"><a xlink:href="../../da/de3/classnars_1_1inference_1_1RuleTables_a62599450d65ff257b92df0d48d7c1bdf.html#a62599450d65ff257b92df0d48d7c1bdf" target="_top" xlink:title="Conditional deduction or induction, with variable unification. ">
<polygon fill="none" stroke="black" points="1047,-44.5 1047,-74.5 1227,-74.5 1227,-44.5 1047,-44.5"/>
<text text-anchor="start" x="1055" y="-62.5" font-family="Helvetica,sans-Serif" font-size="10.00">nars.inference.RuleTables.conditional</text>
<text text-anchor="middle" x="1137" y="-51.5" font-family="Helvetica,sans-Serif" font-size="10.00">DedIndWithVar</text>
</a>
</g>
</g>
<!-- Node21&#45;&gt;Node22 -->
<g id="edge24" class="edge"><title>Node21&#45;&gt;Node22</title>
<path fill="none" stroke="midnightblue" d="M991.441,-30.1209C1014.13,-34.7328 1039.23,-39.8341 1062.06,-44.4738"/>
<polygon fill="midnightblue" stroke="midnightblue" points="992.037,-26.6704 981.54,-28.1086 990.643,-33.5302 992.037,-26.6704"/>
</g>
<!-- Node22&#45;&gt;Node5 -->
<g id="edge25" class="edge"><title>Node22&#45;&gt;Node5</title>
<path fill="none" stroke="midnightblue" d="M1211.01,-76.9083C1242.15,-84.334 1277.28,-92.7109 1303.54,-98.972"/>
<polygon fill="midnightblue" stroke="midnightblue" points="1211.59,-73.4495 1201.05,-74.5346 1209.97,-80.2587 1211.59,-73.4495"/>
</g>
<!-- Node23&#45;&gt;Node19 -->
<g id="edge30" class="edge"><title>Node23&#45;&gt;Node19</title>
<path fill="none" stroke="midnightblue" d="M797.208,-76.7684C814.608,-80.6352 832.93,-84.7066 849.882,-88.4738"/>
<polygon fill="midnightblue" stroke="midnightblue" points="797.608,-73.272 787.087,-74.5192 796.089,-80.1053 797.608,-73.272"/>
</g>
<!-- Node24 -->
<g id="node24" class="node"><title>Node24</title>
<g id="a_node24"><a xlink:href="../../da/de3/classnars_1_1inference_1_1RuleTables_a8e422154fd8288d161435c3a53e44276.html#a8e422154fd8288d161435c3a53e44276" target="_top" xlink:title="Inference between a compound term and a statement. ">
<polygon fill="none" stroke="black" points="1047.5,-93.5 1047.5,-123.5 1226.5,-123.5 1226.5,-93.5 1047.5,-93.5"/>
<text text-anchor="start" x="1055.5" y="-111.5" font-family="Helvetica,sans-Serif" font-size="10.00">nars.inference.RuleTables.compound</text>
<text text-anchor="middle" x="1137" y="-100.5" font-family="Helvetica,sans-Serif" font-size="10.00">AndStatement</text>
</a>
</g>
</g>
<!-- Node23&#45;&gt;Node24 -->
<g id="edge28" class="edge"><title>Node23&#45;&gt;Node24</title>
<path fill="none" stroke="midnightblue" d="M800.551,-61.5969C859.25,-63.9564 940.362,-68.9516 1011,-79.5 1033.69,-82.889 1058.36,-88.2454 1079.74,-93.4375"/>
<polygon fill="midnightblue" stroke="midnightblue" points="800.355,-58.0868 790.228,-61.1997 800.086,-65.0816 800.355,-58.0868"/>
</g>
<!-- Node24&#45;&gt;Node5 -->
<g id="edge29" class="edge"><title>Node24&#45;&gt;Node5</title>
<path fill="none" stroke="midnightblue" d="M1236.86,-108.5C1245.6,-108.5 1254.37,-108.5 1262.93,-108.5"/>
<polygon fill="midnightblue" stroke="midnightblue" points="1236.64,-105 1226.64,-108.5 1236.64,-112 1236.64,-105"/>
</g>
<!-- Node26 -->
<g id="node26" class="node"><title>Node26</title>
<g id="a_node26"><a xlink:href="../../d8/d79/classnars_1_1inference_1_1CompositionalRules_a53f7edf7bfe7433da42e8fcf36fd6604.html#a53f7edf7bfe7433da42e8fcf36fd6604" target="_top" xlink:title="{&lt;S ==&gt; M&gt;, ">
<polygon fill="none" stroke="black" points="647,-93.5 647,-123.5 790,-123.5 790,-93.5 647,-93.5"/>
<text text-anchor="start" x="655" y="-111.5" font-family="Helvetica,sans-Serif" font-size="10.00">nars.inference.Compositional</text>
<text text-anchor="middle" x="718.5" y="-100.5" font-family="Helvetica,sans-Serif" font-size="10.00">Rules.composeCompound</text>
</a>
</g>
</g>
<!-- Node25&#45;&gt;Node26 -->
<g id="edge32" class="edge"><title>Node25&#45;&gt;Node26</title>
<path fill="none" stroke="midnightblue" d="M612.915,-105.681C624.176,-105.985 635.675,-106.294 646.731,-106.592"/>
<polygon fill="midnightblue" stroke="midnightblue" points="612.749,-102.175 602.659,-105.405 612.561,-109.173 612.749,-102.175"/>
</g>
<!-- Node26&#45;&gt;Node3 -->
<g id="edge33" class="edge"><title>Node26&#45;&gt;Node3</title>
<path fill="none" stroke="midnightblue" d="M797.208,-125.768C814.608,-129.635 832.93,-133.707 849.882,-137.474"/>
<polygon fill="midnightblue" stroke="midnightblue" points="797.608,-122.272 787.087,-123.519 796.089,-129.105 797.608,-122.272"/>
</g>
</g>
</svg>
        <g id="navigator" transform="translate(0 0)" fill="#404254">
                <rect fill="#f2f5e9" fill-opacity="0.5" stroke="#606060" stroke-width=".5" x="0" y="0" width="60" height="60"/>
                <use id="zoomplus" xlink:href="#zoomPlus" x="17" y="9" onmousedown="handleZoom(evt,'in')"/>
                <use id="zoomminus" xlink:href="#zoomMin" x="42" y="9" onmousedown="handleZoom(evt,'out')"/>
                <use id="reset" xlink:href="#resetDef" x="30" y="36" onmousedown="handleReset()"/>
                <g id="arrowUp" xlink:href="#dirArrow" transform="translate(30 24)" onmousedown="handlePan(0,-1)">
                  <use xlink:href="#rim" fill="#404040">
                        <set attributeName="fill" to="#808080" begin="arrowUp.mouseover" end="arrowUp.mouseout"/>
                  </use>
                  <path fill="none" stroke="white" stroke-width="1.5" d="M0,-3.0v7 M-2.5,-0.5L0,-3.0L2.5,-0.5"/>
                </g>
                <g id="arrowRight" xlink:href="#dirArrow" transform="rotate(90) translate(36 -43)" onmousedown="handlePan(1,0)">
                  <use xlink:href="#rim" fill="#404040">
                        <set attributeName="fill" to="#808080" begin="arrowRight.mouseover" end="arrowRight.mouseout"/>
                  </use>
                  <path fill="none" stroke="white" stroke-width="1.5" d="M0,-3.0v7 M-2.5,-0.5L0,-3.0L2.5,-0.5"/>
                </g>
                <g id="arrowDown" xlink:href="#dirArrow" transform="rotate(180) translate(-30 -48)" onmousedown="handlePan(0,1)">
                  <use xlink:href="#rim" fill="#404040">
                        <set attributeName="fill" to="#808080" begin="arrowDown.mouseover" end="arrowDown.mouseout"/>
                  </use>
                  <path fill="none" stroke="white" stroke-width="1.5" d="M0,-3.0v7 M-2.5,-0.5L0,-3.0L2.5,-0.5"/>
                </g>
                <g id="arrowLeft" xlink:href="#dirArrow" transform="rotate(270) translate(-36 17)" onmousedown="handlePan(-1,0)">
                  <use xlink:href="#rim" fill="#404040">
                        <set attributeName="fill" to="#808080" begin="arrowLeft.mouseover" end="arrowLeft.mouseout"/>
                  </use>
                  <path fill="none" stroke="white" stroke-width="1.5" d="M0,-3.0v7 M-2.5,-0.5L0,-3.0L2.5,-0.5"/>
                </g>
        </g>
        <svg viewBox="0 0 15 15" width="100%" height="30px" preserveAspectRatio="xMaxYMin meet">
         <g id="arrow_out" transform="scale(0.3 0.3)">
          <a xlink:href="classnars_1_1inference_1_1TruthFunctions_ab001ba72b5926188d21dd48a5eaaeb8b_ab001ba72b5926188d21dd48a5eaaeb8b_icgraph_org.svg" target="_base">
           <rect id="button" ry="5" rx="5" y="6" x="6" height="38" width="38"
                fill="#f2f5e9" fill-opacity="0.5" stroke="#606060" stroke-width="1.0"/>
           <path id="arrow"
             d="M 11.500037,31.436501 C 11.940474,20.09759 22.043105,11.32322 32.158766,21.979434 L 37.068811,17.246167 C 37.068811,17.246167 37.088388,32 37.088388,32 L 22.160133,31.978069 C 22.160133,31.978069 26.997745,27.140456 26.997745,27.140456 C 18.528582,18.264221 13.291696,25.230495 11.500037,31.436501 z"
             style="fill:#404040;"/>
          </a>
         </g>
        </svg>
</svg>
