<?xml version="1.0" encoding="UTF-8" standalone="no"?>
<!DOCTYPE svg PUBLIC "-//W3C//DTD SVG 1.1//EN"
 "http://www.w3.org/Graphics/SVG/1.1/DTD/svg11.dtd">
<!-- Generated by graphviz version 2.38.0 (20140413.2041)
 -->
<!-- Title: nars.inference.TruthFunctions.reduceDisjunction Pages: 1 -->
<svg width="2729pt" height="121pt"
 viewBox="0.00 0.00 2729.00 121.00" xmlns="http://www.w3.org/2000/svg" xmlns:xlink="http://www.w3.org/1999/xlink">
<g id="graph0" class="graph" transform="scale(1 1) rotate(0) translate(4 117)">
<title>nars.inference.TruthFunctions.reduceDisjunction</title>
<!-- Node1 -->
<g id="node1" class="node"><title>Node1</title>
<polygon fill="#bfbfbf" stroke="black" points="0,-57.5 0,-87.5 179,-87.5 179,-57.5 0,-57.5"/>
<text text-anchor="start" x="8" y="-75.5" font-family="Helvetica,sans-Serif" font-size="10.00">nars.inference.TruthFunctions.reduce</text>
<text text-anchor="middle" x="89.5" y="-64.5" font-family="Helvetica,sans-Serif" font-size="10.00">Disjunction</text>
</g>
<!-- Node2 -->
<g id="node2" class="node"><title>Node2</title>
<g id="a_node2"><a xlink:href="../../d8/d79/classnars_1_1inference_1_1CompositionalRules_a4479c479bb3ceeb78130e03ce5e3f293.html#a4479c479bb3ceeb78130e03ce5e3f293" target="_top" xlink:title="{&lt;(S|P) ==&gt; M&gt;, ">
<polygon fill="none" stroke="black" points="215,-82.5 215,-112.5 358,-112.5 358,-82.5 215,-82.5"/>
<text text-anchor="start" x="223" y="-100.5" font-family="Helvetica,sans-Serif" font-size="10.00">nars.inference.Compositional</text>
<text text-anchor="middle" x="286.5" y="-89.5" font-family="Helvetica,sans-Serif" font-size="10.00">Rules.decomposeCompound</text>
</a>
</g>
</g>
<!-- Node1&#45;&gt;Node2 -->
<g id="edge1" class="edge"><title>Node1&#45;&gt;Node2</title>
<path fill="none" stroke="midnightblue" d="M189.284,-85.1646C197.92,-86.2718 206.543,-87.3773 214.881,-88.4463"/>
<polygon fill="midnightblue" stroke="midnightblue" points="189.52,-81.6663 179.156,-83.8661 188.63,-88.6094 189.52,-81.6663"/>
</g>
<!-- Node15 -->
<g id="node15" class="node"><title>Node15</title>
<g id="a_node15"><a xlink:href="../../d8/d79/classnars_1_1inference_1_1CompositionalRules_a6ce4b4caba57fe856aff6f6a2c7ee552.html#a6ce4b4caba57fe856aff6f6a2c7ee552" target="_top" xlink:title="{(||, S, P), P} |&#45; S {(&amp;&amp;, S, P), P} |&#45; S ">
<polygon fill="none" stroke="black" points="215,-33.5 215,-63.5 358,-63.5 358,-33.5 215,-33.5"/>
<text text-anchor="start" x="223" y="-51.5" font-family="Helvetica,sans-Serif" font-size="10.00">nars.inference.Compositional</text>
<text text-anchor="middle" x="286.5" y="-40.5" font-family="Helvetica,sans-Serif" font-size="10.00">Rules.decomposeStatement</text>
</a>
</g>
</g>
<!-- Node1&#45;&gt;Node15 -->
<g id="edge14" class="edge"><title>Node1&#45;&gt;Node15</title>
<path fill="none" stroke="midnightblue" d="M189.284,-60.342C197.92,-59.279 206.543,-58.2178 214.881,-57.1915"/>
<polygon fill="midnightblue" stroke="midnightblue" points="188.653,-56.8931 179.156,-61.5885 189.509,-63.8407 188.653,-56.8931"/>
</g>
<!-- Node3 -->
<g id="node3" class="node"><title>Node3</title>
<g id="a_node3"><a xlink:href="../../d8/d79/classnars_1_1inference_1_1CompositionalRules_a53f7edf7bfe7433da42e8fcf36fd6604.html#a53f7edf7bfe7433da42e8fcf36fd6604" target="_top" xlink:title="{&lt;S ==&gt; M&gt;, ">
<polygon fill="none" stroke="black" points="394,-82.5 394,-112.5 537,-112.5 537,-82.5 394,-82.5"/>
<text text-anchor="start" x="402" y="-100.5" font-family="Helvetica,sans-Serif" font-size="10.00">nars.inference.Compositional</text>
<text text-anchor="middle" x="465.5" y="-89.5" font-family="Helvetica,sans-Serif" font-size="10.00">Rules.composeCompound</text>
</a>
</g>
</g>
<!-- Node2&#45;&gt;Node3 -->
<g id="edge2" class="edge"><title>Node2&#45;&gt;Node3</title>
<path fill="none" stroke="midnightblue" d="M368.494,-97.5C376.973,-97.5 385.544,-97.5 393.894,-97.5"/>
<polygon fill="midnightblue" stroke="midnightblue" points="368.218,-94.0001 358.218,-97.5 368.218,-101 368.218,-94.0001"/>
</g>
<!-- Node4 -->
<g id="node4" class="node"><title>Node4</title>
<g id="a_node4"><a xlink:href="../../da/de3/classnars_1_1inference_1_1RuleTables_a34927349efcf87db97d23c60983b115b.html#a34927349efcf87db97d23c60983b115b" target="_top" xlink:title="Syllogistic rules whose both premises are on the same asymmetric relation. ">
<polygon fill="none" stroke="black" points="573,-82.5 573,-112.5 758,-112.5 758,-82.5 573,-82.5"/>
<text text-anchor="start" x="581" y="-100.5" font-family="Helvetica,sans-Serif" font-size="10.00">nars.inference.RuleTables.asymmetric</text>
<text text-anchor="middle" x="665.5" y="-89.5" font-family="Helvetica,sans-Serif" font-size="10.00">Asymmetric</text>
</a>
</g>
</g>
<!-- Node3&#45;&gt;Node4 -->
<g id="edge3" class="edge"><title>Node3&#45;&gt;Node4</title>
<path fill="none" stroke="midnightblue" d="M547.284,-97.5C555.685,-97.5 564.267,-97.5 572.777,-97.5"/>
<polygon fill="midnightblue" stroke="midnightblue" points="547.144,-94.0001 537.144,-97.5 547.144,-101 547.144,-94.0001"/>
</g>
<!-- Node5 -->
<g id="node5" class="node"><title>Node5</title>
<g id="a_node5"><a xlink:href="../../da/de3/classnars_1_1inference_1_1RuleTables_a8628d400a8ceda7fea05039ddfea319b.html#a8628d400a8ceda7fea05039ddfea319b" target="_top" xlink:title="Meta&#45;table of syllogistic rules, indexed by the content classes of the taskSentence and the belief...">
<polygon fill="none" stroke="black" points="794,-88 794,-107 974,-107 974,-88 794,-88"/>
<text text-anchor="middle" x="884" y="-95" font-family="Helvetica,sans-Serif" font-size="10.00">nars.inference.RuleTables.syllogisms</text>
</a>
</g>
</g>
<!-- Node4&#45;&gt;Node5 -->
<g id="edge4" class="edge"><title>Node4&#45;&gt;Node5</title>
<path fill="none" stroke="midnightblue" d="M768.084,-97.5C776.705,-97.5 785.383,-97.5 793.898,-97.5"/>
<polygon fill="midnightblue" stroke="midnightblue" points="768.002,-94.0001 758.002,-97.5 768.002,-101 768.002,-94.0001"/>
</g>
<!-- Node6 -->
<g id="node6" class="node"><title>Node6</title>
<g id="a_node6"><a xlink:href="../../da/de3/classnars_1_1inference_1_1RuleTables_ac2d01dfdc40bdd47c757cb549217e6e3.html#ac2d01dfdc40bdd47c757cb549217e6e3" target="_top" xlink:title="Entry point of the inference engine. ">
<polygon fill="none" stroke="black" points="1010,-50 1010,-69 1173,-69 1173,-50 1010,-50"/>
<text text-anchor="middle" x="1091.5" y="-57" font-family="Helvetica,sans-Serif" font-size="10.00">nars.inference.RuleTables.reason</text>
</a>
</g>
</g>
<!-- Node5&#45;&gt;Node6 -->
<g id="edge5" class="edge"><title>Node5&#45;&gt;Node6</title>
<path fill="none" stroke="midnightblue" d="M946.748,-86.0819C976.151,-80.6448 1010.91,-74.2168 1038.89,-69.0439"/>
<polygon fill="midnightblue" stroke="midnightblue" points="945.788,-82.7 936.591,-87.96 947.061,-89.5833 945.788,-82.7"/>
</g>
<!-- Node7 -->
<g id="node7" class="node"><title>Node7</title>
<g id="a_node7"><a xlink:href="../../d4/d22/classnars_1_1entity_1_1Concept_ae07576c8466ad65eeb61040e3f71cfc7.html#ae07576c8466ad65eeb61040e3f71cfc7" target="_top" xlink:title="An atomic step in a concept, only called in Memory# processConcept. ">
<polygon fill="none" stroke="black" points="1209,-50 1209,-69 1328,-69 1328,-50 1209,-50"/>
<text text-anchor="middle" x="1268.5" y="-57" font-family="Helvetica,sans-Serif" font-size="10.00">nars.entity.Concept.fire</text>
</a>
</g>
</g>
<!-- Node6&#45;&gt;Node7 -->
<g id="edge6" class="edge"><title>Node6&#45;&gt;Node7</title>
<path fill="none" stroke="midnightblue" d="M1183.25,-59.5C1191.91,-59.5 1200.52,-59.5 1208.76,-59.5"/>
<polygon fill="midnightblue" stroke="midnightblue" points="1183.09,-56.0001 1173.09,-59.5 1183.08,-63.0001 1183.09,-56.0001"/>
</g>
<!-- Node8 -->
<g id="node8" class="node"><title>Node8</title>
<g id="a_node8"><a xlink:href="../../d8/df4/classnars_1_1storage_1_1Memory_a83154b55b922c82b73931d4f22e3a590.html#a83154b55b922c82b73931d4f22e3a590" target="_top" xlink:title="Select a concept to fire. ">
<polygon fill="none" stroke="black" points="1364,-44.5 1364,-74.5 1510,-74.5 1510,-44.5 1364,-44.5"/>
<text text-anchor="start" x="1372" y="-62.5" font-family="Helvetica,sans-Serif" font-size="10.00">nars.storage.Memory.process</text>
<text text-anchor="middle" x="1437" y="-51.5" font-family="Helvetica,sans-Serif" font-size="10.00">Concept</text>
</a>
</g>
</g>
<!-- Node7&#45;&gt;Node8 -->
<g id="edge7" class="edge"><title>Node7&#45;&gt;Node8</title>
<path fill="none" stroke="midnightblue" d="M1338.34,-59.5C1346.75,-59.5 1355.36,-59.5 1363.82,-59.5"/>
<polygon fill="midnightblue" stroke="midnightblue" points="1338.2,-56.0001 1328.2,-59.5 1338.2,-63.0001 1338.2,-56.0001"/>
</g>
<!-- Node9 -->
<g id="node9" class="node"><title>Node9</title>
<g id="a_node9"><a xlink:href="../../d8/df4/classnars_1_1storage_1_1Memory_a49e2cbc8b78d535f4d69739886ee966a.html#a49e2cbc8b78d535f4d69739886ee966a" target="_top" xlink:title="An atomic working workCycle of the system: process new Tasks, then fire a concept. ">
<polygon fill="none" stroke="black" points="1546,-44.5 1546,-74.5 1679,-74.5 1679,-44.5 1546,-44.5"/>
<text text-anchor="start" x="1554" y="-62.5" font-family="Helvetica,sans-Serif" font-size="10.00">nars.storage.Memory.work</text>
<text text-anchor="middle" x="1612.5" y="-51.5" font-family="Helvetica,sans-Serif" font-size="10.00">Cycle</text>
</a>
</g>
</g>
<!-- Node8&#45;&gt;Node9 -->
<g id="edge8" class="edge"><title>Node8&#45;&gt;Node9</title>
<path fill="none" stroke="midnightblue" d="M1520.12,-59.5C1528.72,-59.5 1537.37,-59.5 1545.76,-59.5"/>
<polygon fill="midnightblue" stroke="midnightblue" points="1520.07,-56.0001 1510.07,-59.5 1520.07,-63.0001 1520.07,-56.0001"/>
</g>
<!-- Node10 -->
<g id="node10" class="node"><title>Node10</title>
<g id="a_node10"><a xlink:href="../../dd/da5/classnars_1_1storage_1_1Memory_1_1ReasonerBatch_acc60dec23da774957a85362ed6d7448b.html#acc60dec23da774957a85362ed6d7448b" target="_top" xlink:title="nars.storage.Memory.Reasoner\lBatch.doTick">
<polygon fill="none" stroke="black" points="1715,-44.5 1715,-74.5 1869,-74.5 1869,-44.5 1715,-44.5"/>
<text text-anchor="start" x="1723" y="-62.5" font-family="Helvetica,sans-Serif" font-size="10.00">nars.storage.Memory.Reasoner</text>
<text text-anchor="middle" x="1792" y="-51.5" font-family="Helvetica,sans-Serif" font-size="10.00">Batch.doTick</text>
</a>
</g>
</g>
<!-- Node9&#45;&gt;Node10 -->
<g id="edge9" class="edge"><title>Node9&#45;&gt;Node10</title>
<path fill="none" stroke="midnightblue" d="M1689.32,-59.5C1697.79,-59.5 1706.41,-59.5 1714.89,-59.5"/>
<polygon fill="midnightblue" stroke="midnightblue" points="1689.09,-56.0001 1679.09,-59.5 1689.09,-63.0001 1689.09,-56.0001"/>
</g>
<!-- Node11 -->
<g id="node11" class="node"><title>Node11</title>
<g id="a_node11"><a xlink:href="../../dd/da5/classnars_1_1storage_1_1Memory_1_1ReasonerBatch_aed591f05899b98fd9e4ad01836ad0a40.html#aed591f05899b98fd9e4ad01836ad0a40" target="_top" xlink:title="A clock tick. ">
<polygon fill="none" stroke="black" points="1905,-44.5 1905,-74.5 2059,-74.5 2059,-44.5 1905,-44.5"/>
<text text-anchor="start" x="1913" y="-62.5" font-family="Helvetica,sans-Serif" font-size="10.00">nars.storage.Memory.Reasoner</text>
<text text-anchor="middle" x="1982" y="-51.5" font-family="Helvetica,sans-Serif" font-size="10.00">Batch.tick</text>
</a>
</g>
</g>
<!-- Node10&#45;&gt;Node11 -->
<g id="edge10" class="edge"><title>Node10&#45;&gt;Node11</title>
<path fill="none" stroke="midnightblue" d="M1879.42,-59.5C1887.86,-59.5 1896.37,-59.5 1904.7,-59.5"/>
<polygon fill="midnightblue" stroke="midnightblue" points="1879.2,-56.0001 1869.2,-59.5 1879.2,-63.0001 1879.2,-56.0001"/>
</g>
<!-- Node12 -->
<g id="node12" class="node"><title>Node12</title>
<g id="a_node12"><a xlink:href="../../d4/d88/classnars_1_1storage_1_1Memory_1_1NARSBatch_aad99db6cedde9cff2a997db8906ff821.html#aad99db6cedde9cff2a997db8906ff821" target="_top" xlink:title="Run to completion: repeatedly execute NARS working cycle, until Inputs are Finished, or 1000 steps. ">
<polygon fill="none" stroke="black" points="2095,-50 2095,-69 2277,-69 2277,-50 2095,-50"/>
<text text-anchor="middle" x="2186" y="-57" font-family="Helvetica,sans-Serif" font-size="10.00">nars.storage.Memory.NARSBatch.run</text>
</a>
</g>
</g>
<!-- Node11&#45;&gt;Node12 -->
<g id="edge11" class="edge"><title>Node11&#45;&gt;Node12</title>
<path fill="none" stroke="midnightblue" d="M2069.27,-59.5C2077.69,-59.5 2086.25,-59.5 2094.71,-59.5"/>
<polygon fill="midnightblue" stroke="midnightblue" points="2069.08,-56.0001 2059.08,-59.5 2069.08,-63.0001 2069.08,-56.0001"/>
</g>
<!-- Node13 -->
<g id="node13" class="node"><title>Node13</title>
<g id="a_node13"><a xlink:href="../../d4/d88/classnars_1_1storage_1_1Memory_1_1NARSBatch_a416c39463faa161661ed1d12fea03b3c.html#a416c39463faa161661ed1d12fea03b3c" target="_top" xlink:title="non&#45;static equivalent to main(String[]) : run to completion from an input file ">
<polygon fill="none" stroke="black" points="2313,-44.5 2313,-74.5 2495,-74.5 2495,-44.5 2313,-44.5"/>
<text text-anchor="start" x="2321" y="-62.5" font-family="Helvetica,sans-Serif" font-size="10.00">nars.storage.Memory.NARSBatch.run</text>
<text text-anchor="middle" x="2404" y="-51.5" font-family="Helvetica,sans-Serif" font-size="10.00">Inference</text>
</a>
</g>
</g>
<!-- Node12&#45;&gt;Node13 -->
<g id="edge12" class="edge"><title>Node12&#45;&gt;Node13</title>
<path fill="none" stroke="midnightblue" d="M2287.06,-59.5C2295.63,-59.5 2304.27,-59.5 2312.76,-59.5"/>
<polygon fill="midnightblue" stroke="midnightblue" points="2287.04,-56.0001 2277.04,-59.5 2287.04,-63.0001 2287.04,-56.0001"/>
</g>
<!-- Node14 -->
<g id="node14" class="node"><title>Node14</title>
<g id="a_node14"><a xlink:href="../../d4/d88/classnars_1_1storage_1_1Memory_1_1NARSBatch_aa97fcd68270583e60e6bf1b4579d1bdc.html#aa97fcd68270583e60e6bf1b4579d1bdc" target="_top" xlink:title="The entry point of the standalone application. ">
<polygon fill="none" stroke="black" points="2531,-50 2531,-69 2721,-69 2721,-50 2531,-50"/>
<text text-anchor="middle" x="2626" y="-57" font-family="Helvetica,sans-Serif" font-size="10.00">nars.storage.Memory.NARSBatch.main</text>
</a>
</g>
</g>
<!-- Node13&#45;&gt;Node14 -->
<g id="edge13" class="edge"><title>Node13&#45;&gt;Node14</title>
<path fill="none" stroke="midnightblue" d="M2505.37,-59.5C2513.82,-59.5 2522.34,-59.5 2530.74,-59.5"/>
<polygon fill="midnightblue" stroke="midnightblue" points="2505.12,-56.0001 2495.12,-59.5 2505.12,-63.0001 2505.12,-56.0001"/>
</g>
<!-- Node16 -->
<g id="node16" class="node"><title>Node16</title>
<g id="a_node16"><a xlink:href="../../da/de3/classnars_1_1inference_1_1RuleTables_a00ffbf7a9069cfd135acae4b46d78d05.html#a00ffbf7a9069cfd135acae4b46d78d05" target="_top" xlink:title="Inference between a compound term and a component of it. ">
<polygon fill="none" stroke="black" points="576,-33.5 576,-63.5 755,-63.5 755,-33.5 576,-33.5"/>
<text text-anchor="start" x="584" y="-51.5" font-family="Helvetica,sans-Serif" font-size="10.00">nars.inference.RuleTables.compound</text>
<text text-anchor="middle" x="665.5" y="-40.5" font-family="Helvetica,sans-Serif" font-size="10.00">AndSelf</text>
</a>
</g>
</g>
<!-- Node15&#45;&gt;Node16 -->
<g id="edge15" class="edge"><title>Node15&#45;&gt;Node16</title>
<path fill="none" stroke="midnightblue" d="M368.766,-48.5C429.781,-48.5 513.257,-48.5 575.965,-48.5"/>
<polygon fill="midnightblue" stroke="midnightblue" points="368.411,-45.0001 358.411,-48.5 368.411,-52.0001 368.411,-45.0001"/>
</g>
<!-- Node16&#45;&gt;Node6 -->
<g id="edge18" class="edge"><title>Node16&#45;&gt;Node6</title>
<path fill="none" stroke="midnightblue" d="M765.438,-51.0668C839.793,-52.9958 940.378,-55.6053 1009.87,-57.4083"/>
<polygon fill="midnightblue" stroke="midnightblue" points="765.214,-47.5599 755.126,-50.7993 765.032,-54.5575 765.214,-47.5599"/>
</g>
<!-- Node17 -->
<g id="node17" class="node"><title>Node17</title>
<g id="a_node17"><a xlink:href="../../da/de3/classnars_1_1inference_1_1RuleTables_a764dbc9ccccf406df45e09fbfeda928f.html#a764dbc9ccccf406df45e09fbfeda928f" target="_top" xlink:title="Inference between two compound terms. ">
<polygon fill="none" stroke="black" points="794.5,-0.5 794.5,-30.5 973.5,-30.5 973.5,-0.5 794.5,-0.5"/>
<text text-anchor="start" x="802.5" y="-18.5" font-family="Helvetica,sans-Serif" font-size="10.00">nars.inference.RuleTables.compound</text>
<text text-anchor="middle" x="884" y="-7.5" font-family="Helvetica,sans-Serif" font-size="10.00">AndCompound</text>
</a>
</g>
</g>
<!-- Node16&#45;&gt;Node17 -->
<g id="edge16" class="edge"><title>Node16&#45;&gt;Node17</title>
<path fill="none" stroke="midnightblue" d="M765.273,-33.4446C775.003,-31.9614 784.836,-30.4626 794.454,-28.9966"/>
<polygon fill="midnightblue" stroke="midnightblue" points="764.542,-30.0155 755.184,-34.9824 765.597,-36.9355 764.542,-30.0155"/>
</g>
<!-- Node17&#45;&gt;Node6 -->
<g id="edge17" class="edge"><title>Node17&#45;&gt;Node6</title>
<path fill="none" stroke="midnightblue" d="M965.162,-32.6637C992.668,-38.553 1022.45,-44.9288 1046.07,-49.9876"/>
<polygon fill="midnightblue" stroke="midnightblue" points="965.658,-29.1906 955.147,-30.5192 964.192,-36.0354 965.658,-29.1906"/>
</g>
</g>
</svg>
