<?xml version="1.0" encoding="UTF-8" standalone="no"?>
<!DOCTYPE svg PUBLIC "-//W3C//DTD SVG 1.1//EN"
 "http://www.w3.org/Graphics/SVG/1.1/DTD/svg11.dtd">
<!-- Generated by graphviz version 2.38.0 (20140413.2041)
 -->
<!-- Title: nars.inference.TruthFunctions.exemplification Pages: 1 -->
<svg width="2569pt" height="39pt"
 viewBox="0.00 0.00 2569.00 39.00" xmlns="http://www.w3.org/2000/svg" xmlns:xlink="http://www.w3.org/1999/xlink">
<g id="graph0" class="graph" transform="scale(1 1) rotate(0) translate(4 35)">
<title>nars.inference.TruthFunctions.exemplification</title>
<!-- Node1 -->
<g id="node1" class="node"><title>Node1</title>
<polygon fill="#bfbfbf" stroke="black" points="0,-6 0,-25 215,-25 215,-6 0,-6"/>
<text text-anchor="middle" x="107.5" y="-13" font-family="Helvetica,sans-Serif" font-size="10.00">nars.inference.TruthFunctions.exemplification</text>
</g>
<!-- Node2 -->
<g id="node2" class="node"><title>Node2</title>
<g id="a_node2"><a xlink:href="../../d4/daa/classnars_1_1inference_1_1SyllogisticRules_a5724b3ed7e885c29110acceac0d677d5.html#a5724b3ed7e885c29110acceac0d677d5" target="_top" xlink:title="nars.inference.Syllogistic\lRules.dedExe">
<polygon fill="none" stroke="black" points="251,-0.5 251,-30.5 377,-30.5 377,-0.5 251,-0.5"/>
<text text-anchor="start" x="259" y="-18.5" font-family="Helvetica,sans-Serif" font-size="10.00">nars.inference.Syllogistic</text>
<text text-anchor="middle" x="314" y="-7.5" font-family="Helvetica,sans-Serif" font-size="10.00">Rules.dedExe</text>
</a>
</g>
</g>
<!-- Node1&#45;&gt;Node2 -->
<g id="edge1" class="edge"><title>Node1&#45;&gt;Node2</title>
<path fill="none" stroke="midnightblue" d="M225.502,-15.5C234.198,-15.5 242.749,-15.5 250.896,-15.5"/>
<polygon fill="midnightblue" stroke="midnightblue" points="225.242,-12.0001 215.242,-15.5 225.242,-19.0001 225.242,-12.0001"/>
</g>
<!-- Node3 -->
<g id="node3" class="node"><title>Node3</title>
<g id="a_node3"><a xlink:href="../../da/de3/classnars_1_1inference_1_1RuleTables_a34927349efcf87db97d23c60983b115b.html#a34927349efcf87db97d23c60983b115b" target="_top" xlink:title="Syllogistic rules whose both premises are on the same asymmetric relation. ">
<polygon fill="none" stroke="black" points="413,-0.5 413,-30.5 598,-30.5 598,-0.5 413,-0.5"/>
<text text-anchor="start" x="421" y="-18.5" font-family="Helvetica,sans-Serif" font-size="10.00">nars.inference.RuleTables.asymmetric</text>
<text text-anchor="middle" x="505.5" y="-7.5" font-family="Helvetica,sans-Serif" font-size="10.00">Asymmetric</text>
</a>
</g>
</g>
<!-- Node2&#45;&gt;Node3 -->
<g id="edge2" class="edge"><title>Node2&#45;&gt;Node3</title>
<path fill="none" stroke="midnightblue" d="M387.134,-15.5C395.52,-15.5 404.156,-15.5 412.76,-15.5"/>
<polygon fill="midnightblue" stroke="midnightblue" points="387.049,-12.0001 377.049,-15.5 387.049,-19.0001 387.049,-12.0001"/>
</g>
<!-- Node4 -->
<g id="node4" class="node"><title>Node4</title>
<g id="a_node4"><a xlink:href="../../da/de3/classnars_1_1inference_1_1RuleTables_a8628d400a8ceda7fea05039ddfea319b.html#a8628d400a8ceda7fea05039ddfea319b" target="_top" xlink:title="Meta&#45;table of syllogistic rules, indexed by the content classes of the taskSentence and the belief...">
<polygon fill="none" stroke="black" points="634,-6 634,-25 814,-25 814,-6 634,-6"/>
<text text-anchor="middle" x="724" y="-13" font-family="Helvetica,sans-Serif" font-size="10.00">nars.inference.RuleTables.syllogisms</text>
</a>
</g>
</g>
<!-- Node3&#45;&gt;Node4 -->
<g id="edge3" class="edge"><title>Node3&#45;&gt;Node4</title>
<path fill="none" stroke="midnightblue" d="M608.084,-15.5C616.705,-15.5 625.383,-15.5 633.898,-15.5"/>
<polygon fill="midnightblue" stroke="midnightblue" points="608.002,-12.0001 598.002,-15.5 608.002,-19.0001 608.002,-12.0001"/>
</g>
<!-- Node5 -->
<g id="node5" class="node"><title>Node5</title>
<g id="a_node5"><a xlink:href="../../da/de3/classnars_1_1inference_1_1RuleTables_ac2d01dfdc40bdd47c757cb549217e6e3.html#ac2d01dfdc40bdd47c757cb549217e6e3" target="_top" xlink:title="Entry point of the inference engine. ">
<polygon fill="none" stroke="black" points="850,-6 850,-25 1013,-25 1013,-6 850,-6"/>
<text text-anchor="middle" x="931.5" y="-13" font-family="Helvetica,sans-Serif" font-size="10.00">nars.inference.RuleTables.reason</text>
</a>
</g>
</g>
<!-- Node4&#45;&gt;Node5 -->
<g id="edge4" class="edge"><title>Node4&#45;&gt;Node5</title>
<path fill="none" stroke="midnightblue" d="M824.244,-15.5C832.792,-15.5 841.372,-15.5 849.747,-15.5"/>
<polygon fill="midnightblue" stroke="midnightblue" points="824.239,-12.0001 814.239,-15.5 824.239,-19.0001 824.239,-12.0001"/>
</g>
<!-- Node6 -->
<g id="node6" class="node"><title>Node6</title>
<g id="a_node6"><a xlink:href="../../d4/d22/classnars_1_1entity_1_1Concept_ae07576c8466ad65eeb61040e3f71cfc7.html#ae07576c8466ad65eeb61040e3f71cfc7" target="_top" xlink:title="An atomic step in a concept, only called in Memory# processConcept. ">
<polygon fill="none" stroke="black" points="1049,-6 1049,-25 1168,-25 1168,-6 1049,-6"/>
<text text-anchor="middle" x="1108.5" y="-13" font-family="Helvetica,sans-Serif" font-size="10.00">nars.entity.Concept.fire</text>
</a>
</g>
</g>
<!-- Node5&#45;&gt;Node6 -->
<g id="edge5" class="edge"><title>Node5&#45;&gt;Node6</title>
<path fill="none" stroke="midnightblue" d="M1023.25,-15.5C1031.91,-15.5 1040.52,-15.5 1048.76,-15.5"/>
<polygon fill="midnightblue" stroke="midnightblue" points="1023.09,-12.0001 1013.09,-15.5 1023.08,-19.0001 1023.09,-12.0001"/>
</g>
<!-- Node7 -->
<g id="node7" class="node"><title>Node7</title>
<g id="a_node7"><a xlink:href="../../d8/df4/classnars_1_1storage_1_1Memory_a83154b55b922c82b73931d4f22e3a590.html#a83154b55b922c82b73931d4f22e3a590" target="_top" xlink:title="Select a concept to fire. ">
<polygon fill="none" stroke="black" points="1204,-0.5 1204,-30.5 1350,-30.5 1350,-0.5 1204,-0.5"/>
<text text-anchor="start" x="1212" y="-18.5" font-family="Helvetica,sans-Serif" font-size="10.00">nars.storage.Memory.process</text>
<text text-anchor="middle" x="1277" y="-7.5" font-family="Helvetica,sans-Serif" font-size="10.00">Concept</text>
</a>
</g>
</g>
<!-- Node6&#45;&gt;Node7 -->
<g id="edge6" class="edge"><title>Node6&#45;&gt;Node7</title>
<path fill="none" stroke="midnightblue" d="M1178.34,-15.5C1186.75,-15.5 1195.36,-15.5 1203.82,-15.5"/>
<polygon fill="midnightblue" stroke="midnightblue" points="1178.2,-12.0001 1168.2,-15.5 1178.2,-19.0001 1178.2,-12.0001"/>
</g>
<!-- Node8 -->
<g id="node8" class="node"><title>Node8</title>
<g id="a_node8"><a xlink:href="../../d8/df4/classnars_1_1storage_1_1Memory_a49e2cbc8b78d535f4d69739886ee966a.html#a49e2cbc8b78d535f4d69739886ee966a" target="_top" xlink:title="An atomic working workCycle of the system: process new Tasks, then fire a concept. ">
<polygon fill="none" stroke="black" points="1386,-0.5 1386,-30.5 1519,-30.5 1519,-0.5 1386,-0.5"/>
<text text-anchor="start" x="1394" y="-18.5" font-family="Helvetica,sans-Serif" font-size="10.00">nars.storage.Memory.work</text>
<text text-anchor="middle" x="1452.5" y="-7.5" font-family="Helvetica,sans-Serif" font-size="10.00">Cycle</text>
</a>
</g>
</g>
<!-- Node7&#45;&gt;Node8 -->
<g id="edge7" class="edge"><title>Node7&#45;&gt;Node8</title>
<path fill="none" stroke="midnightblue" d="M1360.12,-15.5C1368.72,-15.5 1377.37,-15.5 1385.76,-15.5"/>
<polygon fill="midnightblue" stroke="midnightblue" points="1360.07,-12.0001 1350.07,-15.5 1360.07,-19.0001 1360.07,-12.0001"/>
</g>
<!-- Node9 -->
<g id="node9" class="node"><title>Node9</title>
<g id="a_node9"><a xlink:href="../../dd/da5/classnars_1_1storage_1_1Memory_1_1ReasonerBatch_acc60dec23da774957a85362ed6d7448b.html#acc60dec23da774957a85362ed6d7448b" target="_top" xlink:title="nars.storage.Memory.Reasoner\lBatch.doTick">
<polygon fill="none" stroke="black" points="1555,-0.5 1555,-30.5 1709,-30.5 1709,-0.5 1555,-0.5"/>
<text text-anchor="start" x="1563" y="-18.5" font-family="Helvetica,sans-Serif" font-size="10.00">nars.storage.Memory.Reasoner</text>
<text text-anchor="middle" x="1632" y="-7.5" font-family="Helvetica,sans-Serif" font-size="10.00">Batch.doTick</text>
</a>
</g>
</g>
<!-- Node8&#45;&gt;Node9 -->
<g id="edge8" class="edge"><title>Node8&#45;&gt;Node9</title>
<path fill="none" stroke="midnightblue" d="M1529.32,-15.5C1537.79,-15.5 1546.41,-15.5 1554.89,-15.5"/>
<polygon fill="midnightblue" stroke="midnightblue" points="1529.09,-12.0001 1519.09,-15.5 1529.09,-19.0001 1529.09,-12.0001"/>
</g>
<!-- Node10 -->
<g id="node10" class="node"><title>Node10</title>
<g id="a_node10"><a xlink:href="../../dd/da5/classnars_1_1storage_1_1Memory_1_1ReasonerBatch_aed591f05899b98fd9e4ad01836ad0a40.html#aed591f05899b98fd9e4ad01836ad0a40" target="_top" xlink:title="A clock tick. ">
<polygon fill="none" stroke="black" points="1745,-0.5 1745,-30.5 1899,-30.5 1899,-0.5 1745,-0.5"/>
<text text-anchor="start" x="1753" y="-18.5" font-family="Helvetica,sans-Serif" font-size="10.00">nars.storage.Memory.Reasoner</text>
<text text-anchor="middle" x="1822" y="-7.5" font-family="Helvetica,sans-Serif" font-size="10.00">Batch.tick</text>
</a>
</g>
</g>
<!-- Node9&#45;&gt;Node10 -->
<g id="edge9" class="edge"><title>Node9&#45;&gt;Node10</title>
<path fill="none" stroke="midnightblue" d="M1719.42,-15.5C1727.86,-15.5 1736.37,-15.5 1744.7,-15.5"/>
<polygon fill="midnightblue" stroke="midnightblue" points="1719.2,-12.0001 1709.2,-15.5 1719.2,-19.0001 1719.2,-12.0001"/>
</g>
<!-- Node11 -->
<g id="node11" class="node"><title>Node11</title>
<g id="a_node11"><a xlink:href="../../d4/d88/classnars_1_1storage_1_1Memory_1_1NARSBatch_aad99db6cedde9cff2a997db8906ff821.html#aad99db6cedde9cff2a997db8906ff821" target="_top" xlink:title="Run to completion: repeatedly execute NARS working cycle, until Inputs are Finished, or 1000 steps. ">
<polygon fill="none" stroke="black" points="1935,-6 1935,-25 2117,-25 2117,-6 1935,-6"/>
<text text-anchor="middle" x="2026" y="-13" font-family="Helvetica,sans-Serif" font-size="10.00">nars.storage.Memory.NARSBatch.run</text>
</a>
</g>
</g>
<!-- Node10&#45;&gt;Node11 -->
<g id="edge10" class="edge"><title>Node10&#45;&gt;Node11</title>
<path fill="none" stroke="midnightblue" d="M1909.27,-15.5C1917.69,-15.5 1926.25,-15.5 1934.71,-15.5"/>
<polygon fill="midnightblue" stroke="midnightblue" points="1909.08,-12.0001 1899.08,-15.5 1909.08,-19.0001 1909.08,-12.0001"/>
</g>
<!-- Node12 -->
<g id="node12" class="node"><title>Node12</title>
<g id="a_node12"><a xlink:href="../../d4/d88/classnars_1_1storage_1_1Memory_1_1NARSBatch_a416c39463faa161661ed1d12fea03b3c.html#a416c39463faa161661ed1d12fea03b3c" target="_top" xlink:title="non&#45;static equivalent to main(String[]) : run to completion from an input file ">
<polygon fill="none" stroke="black" points="2153,-0.5 2153,-30.5 2335,-30.5 2335,-0.5 2153,-0.5"/>
<text text-anchor="start" x="2161" y="-18.5" font-family="Helvetica,sans-Serif" font-size="10.00">nars.storage.Memory.NARSBatch.run</text>
<text text-anchor="middle" x="2244" y="-7.5" font-family="Helvetica,sans-Serif" font-size="10.00">Inference</text>
</a>
</g>
</g>
<!-- Node11&#45;&gt;Node12 -->
<g id="edge11" class="edge"><title>Node11&#45;&gt;Node12</title>
<path fill="none" stroke="midnightblue" d="M2127.06,-15.5C2135.63,-15.5 2144.27,-15.5 2152.76,-15.5"/>
<polygon fill="midnightblue" stroke="midnightblue" points="2127.04,-12.0001 2117.04,-15.5 2127.04,-19.0001 2127.04,-12.0001"/>
</g>
<!-- Node13 -->
<g id="node13" class="node"><title>Node13</title>
<g id="a_node13"><a xlink:href="../../d4/d88/classnars_1_1storage_1_1Memory_1_1NARSBatch_aa97fcd68270583e60e6bf1b4579d1bdc.html#aa97fcd68270583e60e6bf1b4579d1bdc" target="_top" xlink:title="The entry point of the standalone application. ">
<polygon fill="none" stroke="black" points="2371,-6 2371,-25 2561,-25 2561,-6 2371,-6"/>
<text text-anchor="middle" x="2466" y="-13" font-family="Helvetica,sans-Serif" font-size="10.00">nars.storage.Memory.NARSBatch.main</text>
</a>
</g>
</g>
<!-- Node12&#45;&gt;Node13 -->
<g id="edge12" class="edge"><title>Node12&#45;&gt;Node13</title>
<path fill="none" stroke="midnightblue" d="M2345.37,-15.5C2353.82,-15.5 2362.34,-15.5 2370.74,-15.5"/>
<polygon fill="midnightblue" stroke="midnightblue" points="2345.12,-12.0001 2335.12,-15.5 2345.12,-19.0001 2345.12,-12.0001"/>
</g>
</g>
</svg>
