<?xml version="1.0" encoding="UTF-8" standalone="no"?>
<!DOCTYPE svg PUBLIC "-//W3C//DTD SVG 1.1//EN"
 "http://www.w3.org/Graphics/SVG/1.1/DTD/svg11.dtd">
<!-- Generated by graphviz version 2.38.0 (20140413.2041)
 -->
<!-- Title: nars.inference.TruthFunctions.reduceConjunction Pages: 1 -->
<!--zoomable 176 -->
<svg id="main" version="1.1" xmlns="http://www.w3.org/2000/svg" xmlns:xlink="http://www.w3.org/1999/xlink" xml:space="preserve" onload="init(evt)">
<style type="text/css"><![CDATA[
.edge:hover path { stroke: red; }
.edge:hover polygon { stroke: red; fill: red; }
]]></style>
<script type="text/javascript"><![CDATA[
var edges = document.getElementsByTagName('g');
if (edges && edges.length) {
  for (var i=0;i<edges.length;i++) {
    if (edges[i].id.substr(0,4)=='edge') {
      edges[i].setAttribute('class','edge');
    }
  }
}
]]></script>
        <defs>
                <circle id="rim" cx="0" cy="0" r="7"/>
                <circle id="rim2" cx="0" cy="0" r="3.5"/>
                <g id="zoomPlus">
                        <use xlink:href="#rim" fill="#404040">
                                <set attributeName="fill" to="#808080" begin="zoomplus.mouseover" end="zoomplus.mouseout"/>
                        </use>
                        <path d="M-4,0h8M0,-4v8" fill="none" stroke="white" stroke-width="1.5" pointer-events="none"/>
                </g>
                <g id="zoomMin">
                        <use xlink:href="#rim" fill="#404040">
                                <set attributeName="fill" to="#808080" begin="zoomminus.mouseover" end="zoomminus.mouseout"/>
                        </use>
                        <path d="M-4,0h8" fill="none" stroke="white" stroke-width="1.5" pointer-events="none"/>
                </g>
                <g id="dirArrow">
                        <path fill="none" stroke="white" stroke-width="1.5" d="M0,-3.0v7 M-2.5,-0.5L0,-3.0L2.5,-0.5"/>
                </g>
               <g id="resetDef">
                       <use xlink:href="#rim2" fill="#404040">
                               <set attributeName="fill" to="#808080" begin="reset.mouseover" end="reset.mouseout"/>
                       </use>
               </g>
        </defs>

<script type="text/javascript">
var viewWidth = 3003;
var viewHeight = 176;
var sectionId = 'dynsection-1';
</script>
<script xlink:href="../../svgpan.js"/>
<svg id="graph" class="graph">
<g id="viewport">
<title>nars.inference.TruthFunctions.reduceConjunction</title>
<!-- Node1 -->
<g id="node1" class="node"><title>Node1</title>
<polygon fill="#bfbfbf" stroke="black" points="0,-66.5 0,-96.5 179,-96.5 179,-66.5 0,-66.5"/>
<text text-anchor="start" x="8" y="-84.5" font-family="Helvetica,sans-Serif" font-size="10.00">nars.inference.TruthFunctions.reduce</text>
<text text-anchor="middle" x="89.5" y="-73.5" font-family="Helvetica,sans-Serif" font-size="10.00">Conjunction</text>
</g>
<!-- Node2 -->
<g id="node2" class="node"><title>Node2</title>
<g id="a_node2"><a xlink:href="../../d8/d79/classnars_1_1inference_1_1CompositionalRules_a4479c479bb3ceeb78130e03ce5e3f293.html#a4479c479bb3ceeb78130e03ce5e3f293" target="_top" xlink:title="{&lt;(S|P) ==&gt; M&gt;, ">
<polygon fill="none" stroke="black" points="438.5,-83.5 438.5,-113.5 581.5,-113.5 581.5,-83.5 438.5,-83.5"/>
<text text-anchor="start" x="446.5" y="-101.5" font-family="Helvetica,sans-Serif" font-size="10.00">nars.inference.Compositional</text>
<text text-anchor="middle" x="510" y="-90.5" font-family="Helvetica,sans-Serif" font-size="10.00">Rules.decomposeCompound</text>
</a>
</g>
</g>
<!-- Node1&#45;&gt;Node2 -->
<g id="edge1" class="edge"><title>Node1&#45;&gt;Node2</title>
<path fill="none" stroke="midnightblue" d="M189.446,-75.7409C248.858,-73.4719 325.886,-72.6212 394,-78.5 408.436,-79.7459 423.779,-81.856 438.396,-84.2504"/>
<polygon fill="midnightblue" stroke="midnightblue" points="189.168,-72.2491 179.317,-76.1479 189.449,-79.2435 189.168,-72.2491"/>
</g>
<!-- Node15 -->
<g id="node15" class="node"><title>Node15</title>
<g id="a_node15"><a xlink:href="../../d8/d79/classnars_1_1inference_1_1CompositionalRules_a6ce4b4caba57fe856aff6f6a2c7ee552.html#a6ce4b4caba57fe856aff6f6a2c7ee552" target="_top" xlink:title="{(||, S, P), P} |&#45; S {(&amp;&amp;, S, P), P} |&#45; S ">
<polygon fill="none" stroke="black" points="233,-0.5 233,-30.5 376,-30.5 376,-0.5 233,-0.5"/>
<text text-anchor="start" x="241" y="-18.5" font-family="Helvetica,sans-Serif" font-size="10.00">nars.inference.Compositional</text>
<text text-anchor="middle" x="304.5" y="-7.5" font-family="Helvetica,sans-Serif" font-size="10.00">Rules.decomposeStatement</text>
</a>
</g>
</g>
<!-- Node1&#45;&gt;Node15 -->
<g id="edge14" class="edge"><title>Node1&#45;&gt;Node15</title>
<path fill="none" stroke="midnightblue" d="M148.699,-63.4665C181.959,-53.1604 223.194,-40.3835 254.741,-30.6084"/>
<polygon fill="midnightblue" stroke="midnightblue" points="147.616,-60.138 139.1,-66.441 149.687,-66.8243 147.616,-60.138"/>
</g>
<!-- Node18 -->
<g id="node18" class="node"><title>Node18</title>
<g id="a_node18"><a xlink:href="../../d4/de9/classnars_1_1inference_1_1LocalRules_ada47dcf3767d0fb0dc24b00872edf8b3.html#ada47dcf3767d0fb0dc24b00872edf8b3" target="_top" xlink:title="{&lt;S &lt;&#45;&gt; P&gt;, ">
<polygon fill="none" stroke="black" points="228.5,-137.5 228.5,-167.5 380.5,-167.5 380.5,-137.5 228.5,-137.5"/>
<text text-anchor="start" x="236.5" y="-155.5" font-family="Helvetica,sans-Serif" font-size="10.00">nars.inference.LocalRules.infer</text>
<text text-anchor="middle" x="304.5" y="-144.5" font-family="Helvetica,sans-Serif" font-size="10.00">ToAsym</text>
</a>
</g>
</g>
<!-- Node1&#45;&gt;Node18 -->
<g id="edge19" class="edge"><title>Node1&#45;&gt;Node18</title>
<path fill="none" stroke="midnightblue" d="M138.451,-100.219C161.456,-108.942 189.5,-119.202 215,-127.5 225.476,-130.909 236.734,-134.297 247.591,-137.427"/>
<polygon fill="midnightblue" stroke="midnightblue" points="139.512,-96.8783 128.922,-96.5851 137.018,-103.419 139.512,-96.8783"/>
</g>
<!-- Node21 -->
<g id="node21" class="node"><title>Node21</title>
<g id="a_node21"><a xlink:href="../../d1/d58/classnars_1_1inference_1_1TruthFunctions_af3bd991ec2bf11c3c8c622b0857ece31.html#af3bd991ec2bf11c3c8c622b0857ece31" target="_top" xlink:title="{(–, (&amp;&amp;, A, (–, B))), (–, B)} |&#45; (–, A) ">
<polygon fill="none" stroke="black" points="215,-88.5 215,-118.5 394,-118.5 394,-88.5 215,-88.5"/>
<text text-anchor="start" x="223" y="-106.5" font-family="Helvetica,sans-Serif" font-size="10.00">nars.inference.TruthFunctions.reduce</text>
<text text-anchor="middle" x="304.5" y="-95.5" font-family="Helvetica,sans-Serif" font-size="10.00">ConjunctionNeg</text>
</a>
</g>
</g>
<!-- Node1&#45;&gt;Node21 -->
<g id="edge23" class="edge"><title>Node1&#45;&gt;Node21</title>
<path fill="none" stroke="midnightblue" d="M189.266,-91.7012C197.803,-92.5829 206.406,-93.4715 214.855,-94.3442"/>
<polygon fill="midnightblue" stroke="midnightblue" points="189.596,-88.2167 179.289,-90.6707 188.876,-95.1796 189.596,-88.2167"/>
</g>
<!-- Node3 -->
<g id="node3" class="node"><title>Node3</title>
<g id="a_node3"><a xlink:href="../../d8/d79/classnars_1_1inference_1_1CompositionalRules_a53f7edf7bfe7433da42e8fcf36fd6604.html#a53f7edf7bfe7433da42e8fcf36fd6604" target="_top" xlink:title="{&lt;S ==&gt; M&gt;, ">
<polygon fill="none" stroke="black" points="647,-83.5 647,-113.5 790,-113.5 790,-83.5 647,-83.5"/>
<text text-anchor="start" x="655" y="-101.5" font-family="Helvetica,sans-Serif" font-size="10.00">nars.inference.Compositional</text>
<text text-anchor="middle" x="718.5" y="-90.5" font-family="Helvetica,sans-Serif" font-size="10.00">Rules.composeCompound</text>
</a>
</g>
</g>
<!-- Node2&#45;&gt;Node3 -->
<g id="edge2" class="edge"><title>Node2&#45;&gt;Node3</title>
<path fill="none" stroke="midnightblue" d="M592.011,-98.5C610.112,-98.5 629.171,-98.5 646.816,-98.5"/>
<polygon fill="midnightblue" stroke="midnightblue" points="591.777,-95.0001 581.777,-98.5 591.777,-102 591.777,-95.0001"/>
</g>
<!-- Node4 -->
<g id="node4" class="node"><title>Node4</title>
<g id="a_node4"><a xlink:href="../../da/de3/classnars_1_1inference_1_1RuleTables_a34927349efcf87db97d23c60983b115b.html#a34927349efcf87db97d23c60983b115b" target="_top" xlink:title="Syllogistic rules whose both premises are on the same asymmetric relation. ">
<polygon fill="none" stroke="black" points="847,-83.5 847,-113.5 1032,-113.5 1032,-83.5 847,-83.5"/>
<text text-anchor="start" x="855" y="-101.5" font-family="Helvetica,sans-Serif" font-size="10.00">nars.inference.RuleTables.asymmetric</text>
<text text-anchor="middle" x="939.5" y="-90.5" font-family="Helvetica,sans-Serif" font-size="10.00">Asymmetric</text>
</a>
</g>
</g>
<!-- Node3&#45;&gt;Node4 -->
<g id="edge3" class="edge"><title>Node3&#45;&gt;Node4</title>
<path fill="none" stroke="midnightblue" d="M800.577,-98.5C815.619,-98.5 831.431,-98.5 846.764,-98.5"/>
<polygon fill="midnightblue" stroke="midnightblue" points="800.301,-95.0001 790.301,-98.5 800.301,-102 800.301,-95.0001"/>
</g>
<!-- Node5 -->
<g id="node5" class="node"><title>Node5</title>
<g id="a_node5"><a xlink:href="../../da/de3/classnars_1_1inference_1_1RuleTables_a8628d400a8ceda7fea05039ddfea319b.html#a8628d400a8ceda7fea05039ddfea319b" target="_top" xlink:title="Meta&#45;table of syllogistic rules, indexed by the content classes of the taskSentence and the belief...">
<polygon fill="none" stroke="black" points="1068,-89 1068,-108 1248,-108 1248,-89 1068,-89"/>
<text text-anchor="middle" x="1158" y="-96" font-family="Helvetica,sans-Serif" font-size="10.00">nars.inference.RuleTables.syllogisms</text>
</a>
</g>
</g>
<!-- Node4&#45;&gt;Node5 -->
<g id="edge4" class="edge"><title>Node4&#45;&gt;Node5</title>
<path fill="none" stroke="midnightblue" d="M1042.08,-98.5C1050.71,-98.5 1059.38,-98.5 1067.9,-98.5"/>
<polygon fill="midnightblue" stroke="midnightblue" points="1042,-95.0001 1032,-98.5 1042,-102 1042,-95.0001"/>
</g>
<!-- Node6 -->
<g id="node6" class="node"><title>Node6</title>
<g id="a_node6"><a xlink:href="../../da/de3/classnars_1_1inference_1_1RuleTables_ac2d01dfdc40bdd47c757cb549217e6e3.html#ac2d01dfdc40bdd47c757cb549217e6e3" target="_top" xlink:title="Entry point of the inference engine. ">
<polygon fill="none" stroke="black" points="1284,-51 1284,-70 1447,-70 1447,-51 1284,-51"/>
<text text-anchor="middle" x="1365.5" y="-58" font-family="Helvetica,sans-Serif" font-size="10.00">nars.inference.RuleTables.reason</text>
</a>
</g>
</g>
<!-- Node5&#45;&gt;Node6 -->
<g id="edge5" class="edge"><title>Node5&#45;&gt;Node6</title>
<path fill="none" stroke="midnightblue" d="M1220.75,-87.0819C1250.15,-81.6448 1284.91,-75.2168 1312.89,-70.0439"/>
<polygon fill="midnightblue" stroke="midnightblue" points="1219.79,-83.7 1210.59,-88.96 1221.06,-90.5833 1219.79,-83.7"/>
</g>
<!-- Node7 -->
<g id="node7" class="node"><title>Node7</title>
<g id="a_node7"><a xlink:href="../../d4/d22/classnars_1_1entity_1_1Concept_ae07576c8466ad65eeb61040e3f71cfc7.html#ae07576c8466ad65eeb61040e3f71cfc7" target="_top" xlink:title="An atomic step in a concept, only called in Memory# processConcept. ">
<polygon fill="none" stroke="black" points="1483,-51 1483,-70 1602,-70 1602,-51 1483,-51"/>
<text text-anchor="middle" x="1542.5" y="-58" font-family="Helvetica,sans-Serif" font-size="10.00">nars.entity.Concept.fire</text>
</a>
</g>
</g>
<!-- Node6&#45;&gt;Node7 -->
<g id="edge6" class="edge"><title>Node6&#45;&gt;Node7</title>
<path fill="none" stroke="midnightblue" d="M1457.25,-60.5C1465.91,-60.5 1474.52,-60.5 1482.76,-60.5"/>
<polygon fill="midnightblue" stroke="midnightblue" points="1457.09,-57.0001 1447.09,-60.5 1457.08,-64.0001 1457.09,-57.0001"/>
</g>
<!-- Node8 -->
<g id="node8" class="node"><title>Node8</title>
<g id="a_node8"><a xlink:href="../../d8/df4/classnars_1_1storage_1_1Memory_a83154b55b922c82b73931d4f22e3a590.html#a83154b55b922c82b73931d4f22e3a590" target="_top" xlink:title="Select a concept to fire. ">
<polygon fill="none" stroke="black" points="1638,-45.5 1638,-75.5 1784,-75.5 1784,-45.5 1638,-45.5"/>
<text text-anchor="start" x="1646" y="-63.5" font-family="Helvetica,sans-Serif" font-size="10.00">nars.storage.Memory.process</text>
<text text-anchor="middle" x="1711" y="-52.5" font-family="Helvetica,sans-Serif" font-size="10.00">Concept</text>
</a>
</g>
</g>
<!-- Node7&#45;&gt;Node8 -->
<g id="edge7" class="edge"><title>Node7&#45;&gt;Node8</title>
<path fill="none" stroke="midnightblue" d="M1612.34,-60.5C1620.75,-60.5 1629.36,-60.5 1637.82,-60.5"/>
<polygon fill="midnightblue" stroke="midnightblue" points="1612.2,-57.0001 1602.2,-60.5 1612.2,-64.0001 1612.2,-57.0001"/>
</g>
<!-- Node9 -->
<g id="node9" class="node"><title>Node9</title>
<g id="a_node9"><a xlink:href="../../d8/df4/classnars_1_1storage_1_1Memory_a49e2cbc8b78d535f4d69739886ee966a.html#a49e2cbc8b78d535f4d69739886ee966a" target="_top" xlink:title="An atomic working workCycle of the system: process new Tasks, then fire a concept. ">
<polygon fill="none" stroke="black" points="1820,-45.5 1820,-75.5 1953,-75.5 1953,-45.5 1820,-45.5"/>
<text text-anchor="start" x="1828" y="-63.5" font-family="Helvetica,sans-Serif" font-size="10.00">nars.storage.Memory.work</text>
<text text-anchor="middle" x="1886.5" y="-52.5" font-family="Helvetica,sans-Serif" font-size="10.00">Cycle</text>
</a>
</g>
</g>
<!-- Node8&#45;&gt;Node9 -->
<g id="edge8" class="edge"><title>Node8&#45;&gt;Node9</title>
<path fill="none" stroke="midnightblue" d="M1794.12,-60.5C1802.72,-60.5 1811.37,-60.5 1819.76,-60.5"/>
<polygon fill="midnightblue" stroke="midnightblue" points="1794.07,-57.0001 1784.07,-60.5 1794.07,-64.0001 1794.07,-57.0001"/>
</g>
<!-- Node10 -->
<g id="node10" class="node"><title>Node10</title>
<g id="a_node10"><a xlink:href="../../dd/da5/classnars_1_1storage_1_1Memory_1_1ReasonerBatch_acc60dec23da774957a85362ed6d7448b.html#acc60dec23da774957a85362ed6d7448b" target="_top" xlink:title="nars.storage.Memory.Reasoner\lBatch.doTick">
<polygon fill="none" stroke="black" points="1989,-45.5 1989,-75.5 2143,-75.5 2143,-45.5 1989,-45.5"/>
<text text-anchor="start" x="1997" y="-63.5" font-family="Helvetica,sans-Serif" font-size="10.00">nars.storage.Memory.Reasoner</text>
<text text-anchor="middle" x="2066" y="-52.5" font-family="Helvetica,sans-Serif" font-size="10.00">Batch.doTick</text>
</a>
</g>
</g>
<!-- Node9&#45;&gt;Node10 -->
<g id="edge9" class="edge"><title>Node9&#45;&gt;Node10</title>
<path fill="none" stroke="midnightblue" d="M1963.32,-60.5C1971.79,-60.5 1980.41,-60.5 1988.89,-60.5"/>
<polygon fill="midnightblue" stroke="midnightblue" points="1963.09,-57.0001 1953.09,-60.5 1963.09,-64.0001 1963.09,-57.0001"/>
</g>
<!-- Node11 -->
<g id="node11" class="node"><title>Node11</title>
<g id="a_node11"><a xlink:href="../../dd/da5/classnars_1_1storage_1_1Memory_1_1ReasonerBatch_aed591f05899b98fd9e4ad01836ad0a40.html#aed591f05899b98fd9e4ad01836ad0a40" target="_top" xlink:title="A clock tick. ">
<polygon fill="none" stroke="black" points="2179,-45.5 2179,-75.5 2333,-75.5 2333,-45.5 2179,-45.5"/>
<text text-anchor="start" x="2187" y="-63.5" font-family="Helvetica,sans-Serif" font-size="10.00">nars.storage.Memory.Reasoner</text>
<text text-anchor="middle" x="2256" y="-52.5" font-family="Helvetica,sans-Serif" font-size="10.00">Batch.tick</text>
</a>
</g>
</g>
<!-- Node10&#45;&gt;Node11 -->
<g id="edge10" class="edge"><title>Node10&#45;&gt;Node11</title>
<path fill="none" stroke="midnightblue" d="M2153.42,-60.5C2161.86,-60.5 2170.37,-60.5 2178.7,-60.5"/>
<polygon fill="midnightblue" stroke="midnightblue" points="2153.2,-57.0001 2143.2,-60.5 2153.2,-64.0001 2153.2,-57.0001"/>
</g>
<!-- Node12 -->
<g id="node12" class="node"><title>Node12</title>
<g id="a_node12"><a xlink:href="../../d4/d88/classnars_1_1storage_1_1Memory_1_1NARSBatch_aad99db6cedde9cff2a997db8906ff821.html#aad99db6cedde9cff2a997db8906ff821" target="_top" xlink:title="Run to completion: repeatedly execute NARS working cycle, until Inputs are Finished, or 1000 steps. ">
<polygon fill="none" stroke="black" points="2369,-51 2369,-70 2551,-70 2551,-51 2369,-51"/>
<text text-anchor="middle" x="2460" y="-58" font-family="Helvetica,sans-Serif" font-size="10.00">nars.storage.Memory.NARSBatch.run</text>
</a>
</g>
</g>
<!-- Node11&#45;&gt;Node12 -->
<g id="edge11" class="edge"><title>Node11&#45;&gt;Node12</title>
<path fill="none" stroke="midnightblue" d="M2343.27,-60.5C2351.69,-60.5 2360.25,-60.5 2368.71,-60.5"/>
<polygon fill="midnightblue" stroke="midnightblue" points="2343.08,-57.0001 2333.08,-60.5 2343.08,-64.0001 2343.08,-57.0001"/>
</g>
<!-- Node13 -->
<g id="node13" class="node"><title>Node13</title>
<g id="a_node13"><a xlink:href="../../d4/d88/classnars_1_1storage_1_1Memory_1_1NARSBatch_a416c39463faa161661ed1d12fea03b3c.html#a416c39463faa161661ed1d12fea03b3c" target="_top" xlink:title="non&#45;static equivalent to main(String[]) : run to completion from an input file ">
<polygon fill="none" stroke="black" points="2587,-45.5 2587,-75.5 2769,-75.5 2769,-45.5 2587,-45.5"/>
<text text-anchor="start" x="2595" y="-63.5" font-family="Helvetica,sans-Serif" font-size="10.00">nars.storage.Memory.NARSBatch.run</text>
<text text-anchor="middle" x="2678" y="-52.5" font-family="Helvetica,sans-Serif" font-size="10.00">Inference</text>
</a>
</g>
</g>
<!-- Node12&#45;&gt;Node13 -->
<g id="edge12" class="edge"><title>Node12&#45;&gt;Node13</title>
<path fill="none" stroke="midnightblue" d="M2561.06,-60.5C2569.63,-60.5 2578.27,-60.5 2586.76,-60.5"/>
<polygon fill="midnightblue" stroke="midnightblue" points="2561.04,-57.0001 2551.04,-60.5 2561.04,-64.0001 2561.04,-57.0001"/>
</g>
<!-- Node14 -->
<g id="node14" class="node"><title>Node14</title>
<g id="a_node14"><a xlink:href="../../d4/d88/classnars_1_1storage_1_1Memory_1_1NARSBatch_aa97fcd68270583e60e6bf1b4579d1bdc.html#aa97fcd68270583e60e6bf1b4579d1bdc" target="_top" xlink:title="The entry point of the standalone application. ">
<polygon fill="none" stroke="black" points="2805,-51 2805,-70 2995,-70 2995,-51 2805,-51"/>
<text text-anchor="middle" x="2900" y="-58" font-family="Helvetica,sans-Serif" font-size="10.00">nars.storage.Memory.NARSBatch.main</text>
</a>
</g>
</g>
<!-- Node13&#45;&gt;Node14 -->
<g id="edge13" class="edge"><title>Node13&#45;&gt;Node14</title>
<path fill="none" stroke="midnightblue" d="M2779.37,-60.5C2787.82,-60.5 2796.34,-60.5 2804.74,-60.5"/>
<polygon fill="midnightblue" stroke="midnightblue" points="2779.12,-57.0001 2769.12,-60.5 2779.12,-64.0001 2779.12,-57.0001"/>
</g>
<!-- Node16 -->
<g id="node16" class="node"><title>Node16</title>
<g id="a_node16"><a xlink:href="../../da/de3/classnars_1_1inference_1_1RuleTables_a00ffbf7a9069cfd135acae4b46d78d05.html#a00ffbf7a9069cfd135acae4b46d78d05" target="_top" xlink:title="Inference between a compound term and a component of it. ">
<polygon fill="none" stroke="black" points="850,-1.5 850,-31.5 1029,-31.5 1029,-1.5 850,-1.5"/>
<text text-anchor="start" x="858" y="-19.5" font-family="Helvetica,sans-Serif" font-size="10.00">nars.inference.RuleTables.compound</text>
<text text-anchor="middle" x="939.5" y="-8.5" font-family="Helvetica,sans-Serif" font-size="10.00">AndSelf</text>
</a>
</g>
</g>
<!-- Node15&#45;&gt;Node16 -->
<g id="edge15" class="edge"><title>Node15&#45;&gt;Node16</title>
<path fill="none" stroke="midnightblue" d="M386.409,-15.6278C505.4,-15.8158 726.778,-16.1655 849.974,-16.3601"/>
<polygon fill="midnightblue" stroke="midnightblue" points="386.276,-12.1277 376.271,-15.6118 386.265,-19.1277 386.276,-12.1277"/>
</g>
<!-- Node16&#45;&gt;Node6 -->
<g id="edge18" class="edge"><title>Node16&#45;&gt;Node6</title>
<path fill="none" stroke="midnightblue" d="M1021.99,-33.3281C1037.23,-36.0513 1053.06,-38.5971 1068,-40.5 1140.67,-49.7578 1223.95,-54.8988 1283.71,-57.6416"/>
<polygon fill="midnightblue" stroke="midnightblue" points="1022.54,-29.8712 1012.08,-31.5179 1021.29,-36.7573 1022.54,-29.8712"/>
</g>
<!-- Node17 -->
<g id="node17" class="node"><title>Node17</title>
<g id="a_node17"><a xlink:href="../../da/de3/classnars_1_1inference_1_1RuleTables_a764dbc9ccccf406df45e09fbfeda928f.html#a764dbc9ccccf406df45e09fbfeda928f" target="_top" xlink:title="Inference between two compound terms. ">
<polygon fill="none" stroke="black" points="1068.5,-1.5 1068.5,-31.5 1247.5,-31.5 1247.5,-1.5 1068.5,-1.5"/>
<text text-anchor="start" x="1076.5" y="-19.5" font-family="Helvetica,sans-Serif" font-size="10.00">nars.inference.RuleTables.compound</text>
<text text-anchor="middle" x="1158" y="-8.5" font-family="Helvetica,sans-Serif" font-size="10.00">AndCompound</text>
</a>
</g>
</g>
<!-- Node16&#45;&gt;Node17 -->
<g id="edge16" class="edge"><title>Node16&#45;&gt;Node17</title>
<path fill="none" stroke="midnightblue" d="M1039.27,-16.5C1049,-16.5 1058.84,-16.5 1068.45,-16.5"/>
<polygon fill="midnightblue" stroke="midnightblue" points="1039.18,-13.0001 1029.18,-16.5 1039.18,-20.0001 1039.18,-13.0001"/>
</g>
<!-- Node17&#45;&gt;Node6 -->
<g id="edge17" class="edge"><title>Node17&#45;&gt;Node6</title>
<path fill="none" stroke="midnightblue" d="M1239.16,-33.6637C1266.67,-39.553 1296.45,-45.9288 1320.07,-50.9876"/>
<polygon fill="midnightblue" stroke="midnightblue" points="1239.66,-30.1906 1229.15,-31.5192 1238.19,-37.0354 1239.66,-30.1906"/>
</g>
<!-- Node19 -->
<g id="node19" class="node"><title>Node19</title>
<g id="a_node19"><a xlink:href="../../d4/de9/classnars_1_1inference_1_1LocalRules_a2a6db5879fbb7ba315891fa9d49c985b.html#a2a6db5879fbb7ba315891fa9d49c985b" target="_top" xlink:title="Inheritance/Implication matches Similarity/Equivalence. ">
<polygon fill="none" stroke="black" points="430,-136.5 430,-166.5 590,-166.5 590,-136.5 430,-136.5"/>
<text text-anchor="start" x="438" y="-154.5" font-family="Helvetica,sans-Serif" font-size="10.00">nars.inference.LocalRules.match</text>
<text text-anchor="middle" x="510" y="-143.5" font-family="Helvetica,sans-Serif" font-size="10.00">AsymSym</text>
</a>
</g>
</g>
<!-- Node18&#45;&gt;Node19 -->
<g id="edge20" class="edge"><title>Node18&#45;&gt;Node19</title>
<path fill="none" stroke="midnightblue" d="M390.909,-152.08C403.757,-152.017 416.963,-151.952 429.676,-151.89"/>
<polygon fill="midnightblue" stroke="midnightblue" points="390.68,-148.581 380.698,-152.13 390.715,-155.581 390.68,-148.581"/>
</g>
<!-- Node20 -->
<g id="node20" class="node"><title>Node20</title>
<g id="a_node20"><a xlink:href="../../da/de3/classnars_1_1inference_1_1RuleTables_a4f61a7c2dc75c9da475030894eac0735.html#a4f61a7c2dc75c9da475030894eac0735" target="_top" xlink:title="Syllogistic rules whose first premise is on an asymmetric relation, and the second on a symmetric rel...">
<polygon fill="none" stroke="black" points="626,-133.5 626,-163.5 811,-163.5 811,-133.5 626,-133.5"/>
<text text-anchor="start" x="634" y="-151.5" font-family="Helvetica,sans-Serif" font-size="10.00">nars.inference.RuleTables.asymmetric</text>
<text text-anchor="middle" x="718.5" y="-140.5" font-family="Helvetica,sans-Serif" font-size="10.00">Symmetric</text>
</a>
</g>
</g>
<!-- Node19&#45;&gt;Node20 -->
<g id="edge21" class="edge"><title>Node19&#45;&gt;Node20</title>
<path fill="none" stroke="midnightblue" d="M600.4,-150.201C608.787,-150.079 617.297,-149.956 625.705,-149.834"/>
<polygon fill="midnightblue" stroke="midnightblue" points="600.196,-146.704 590.248,-150.349 600.298,-153.703 600.196,-146.704"/>
</g>
<!-- Node20&#45;&gt;Node5 -->
<g id="edge22" class="edge"><title>Node20&#45;&gt;Node5</title>
<path fill="none" stroke="midnightblue" d="M821.114,-142.797C882.379,-138.676 961.877,-132.121 1032,-122.5 1059.26,-118.76 1089.57,-112.982 1113.51,-108.032"/>
<polygon fill="midnightblue" stroke="midnightblue" points="820.804,-139.31 811.057,-143.463 821.266,-146.295 820.804,-139.31"/>
</g>
<!-- Node21&#45;&gt;Node2 -->
<g id="edge24" class="edge"><title>Node21&#45;&gt;Node2</title>
<path fill="none" stroke="midnightblue" d="M404.255,-101.074C415.768,-100.791 427.332,-100.507 438.357,-100.236"/>
<polygon fill="midnightblue" stroke="midnightblue" points="404.077,-97.5768 394.166,-101.321 404.249,-104.575 404.077,-97.5768"/>
</g>
</g>
</svg>
        <g id="navigator" transform="translate(0 0)" fill="#404254">
                <rect fill="#f2f5e9" fill-opacity="0.5" stroke="#606060" stroke-width=".5" x="0" y="0" width="60" height="60"/>
                <use id="zoomplus" xlink:href="#zoomPlus" x="17" y="9" onmousedown="handleZoom(evt,'in')"/>
                <use id="zoomminus" xlink:href="#zoomMin" x="42" y="9" onmousedown="handleZoom(evt,'out')"/>
                <use id="reset" xlink:href="#resetDef" x="30" y="36" onmousedown="handleReset()"/>
                <g id="arrowUp" xlink:href="#dirArrow" transform="translate(30 24)" onmousedown="handlePan(0,-1)">
                  <use xlink:href="#rim" fill="#404040">
                        <set attributeName="fill" to="#808080" begin="arrowUp.mouseover" end="arrowUp.mouseout"/>
                  </use>
                  <path fill="none" stroke="white" stroke-width="1.5" d="M0,-3.0v7 M-2.5,-0.5L0,-3.0L2.5,-0.5"/>
                </g>
                <g id="arrowRight" xlink:href="#dirArrow" transform="rotate(90) translate(36 -43)" onmousedown="handlePan(1,0)">
                  <use xlink:href="#rim" fill="#404040">
                        <set attributeName="fill" to="#808080" begin="arrowRight.mouseover" end="arrowRight.mouseout"/>
                  </use>
                  <path fill="none" stroke="white" stroke-width="1.5" d="M0,-3.0v7 M-2.5,-0.5L0,-3.0L2.5,-0.5"/>
                </g>
                <g id="arrowDown" xlink:href="#dirArrow" transform="rotate(180) translate(-30 -48)" onmousedown="handlePan(0,1)">
                  <use xlink:href="#rim" fill="#404040">
                        <set attributeName="fill" to="#808080" begin="arrowDown.mouseover" end="arrowDown.mouseout"/>
                  </use>
                  <path fill="none" stroke="white" stroke-width="1.5" d="M0,-3.0v7 M-2.5,-0.5L0,-3.0L2.5,-0.5"/>
                </g>
                <g id="arrowLeft" xlink:href="#dirArrow" transform="rotate(270) translate(-36 17)" onmousedown="handlePan(-1,0)">
                  <use xlink:href="#rim" fill="#404040">
                        <set attributeName="fill" to="#808080" begin="arrowLeft.mouseover" end="arrowLeft.mouseout"/>
                  </use>
                  <path fill="none" stroke="white" stroke-width="1.5" d="M0,-3.0v7 M-2.5,-0.5L0,-3.0L2.5,-0.5"/>
                </g>
        </g>
        <svg viewBox="0 0 15 15" width="100%" height="30px" preserveAspectRatio="xMaxYMin meet">
         <g id="arrow_out" transform="scale(0.3 0.3)">
          <a xlink:href="classnars_1_1inference_1_1TruthFunctions_ae8945611915519f50ab3392c9168b170_ae8945611915519f50ab3392c9168b170_icgraph_org.svg" target="_base">
           <rect id="button" ry="5" rx="5" y="6" x="6" height="38" width="38"
                fill="#f2f5e9" fill-opacity="0.5" stroke="#606060" stroke-width="1.0"/>
           <path id="arrow"
             d="M 11.500037,31.436501 C 11.940474,20.09759 22.043105,11.32322 32.158766,21.979434 L 37.068811,17.246167 C 37.068811,17.246167 37.088388,32 37.088388,32 L 22.160133,31.978069 C 22.160133,31.978069 26.997745,27.140456 26.997745,27.140456 C 18.528582,18.264221 13.291696,25.230495 11.500037,31.436501 z"
             style="fill:#404040;"/>
          </a>
         </g>
        </svg>
</svg>
