<?xml version="1.0" encoding="UTF-8" standalone="no"?>
<!DOCTYPE svg PUBLIC "-//W3C//DTD SVG 1.1//EN"
 "http://www.w3.org/Graphics/SVG/1.1/DTD/svg11.dtd">
<!-- Generated by graphviz version 2.38.0 (20140413.2041)
 -->
<!-- Title: nars.inference.TruthFunctions.anonymousAnalogy Pages: 1 -->
<!--zoomable 154 -->
<svg id="main" version="1.1" xmlns="http://www.w3.org/2000/svg" xmlns:xlink="http://www.w3.org/1999/xlink" xml:space="preserve" onload="init(evt)">
<style type="text/css"><![CDATA[
.edge:hover path { stroke: red; }
.edge:hover polygon { stroke: red; fill: red; }
]]></style>
<script type="text/javascript"><![CDATA[
var edges = document.getElementsByTagName('g');
if (edges && edges.length) {
  for (var i=0;i<edges.length;i++) {
    if (edges[i].id.substr(0,4)=='edge') {
      edges[i].setAttribute('class','edge');
    }
  }
}
]]></script>
        <defs>
                <circle id="rim" cx="0" cy="0" r="7"/>
                <circle id="rim2" cx="0" cy="0" r="3.5"/>
                <g id="zoomPlus">
                        <use xlink:href="#rim" fill="#404040">
                                <set attributeName="fill" to="#808080" begin="zoomplus.mouseover" end="zoomplus.mouseout"/>
                        </use>
                        <path d="M-4,0h8M0,-4v8" fill="none" stroke="white" stroke-width="1.5" pointer-events="none"/>
                </g>
                <g id="zoomMin">
                        <use xlink:href="#rim" fill="#404040">
                                <set attributeName="fill" to="#808080" begin="zoomminus.mouseover" end="zoomminus.mouseout"/>
                        </use>
                        <path d="M-4,0h8" fill="none" stroke="white" stroke-width="1.5" pointer-events="none"/>
                </g>
                <g id="dirArrow">
                        <path fill="none" stroke="white" stroke-width="1.5" d="M0,-3.0v7 M-2.5,-0.5L0,-3.0L2.5,-0.5"/>
                </g>
               <g id="resetDef">
                       <use xlink:href="#rim2" fill="#404040">
                               <set attributeName="fill" to="#808080" begin="reset.mouseover" end="reset.mouseout"/>
                       </use>
               </g>
        </defs>

<script type="text/javascript">
var viewWidth = 631;
var viewHeight = 154;
var sectionId = 'dynsection-0';
</script>
<script xlink:href="../../svgpan.js"/>
<svg id="graph" class="graph">
<g id="viewport">
<title>nars.inference.TruthFunctions.anonymousAnalogy</title>
<!-- Node1 -->
<g id="node1" class="node"><title>Node1</title>
<polygon fill="#bfbfbf" stroke="black" points="0,-52 0,-82 200,-82 200,-52 0,-52"/>
<text text-anchor="start" x="8" y="-70" font-family="Helvetica,sans-Serif" font-size="10.00">nars.inference.TruthFunctions.anonymous</text>
<text text-anchor="middle" x="100" y="-59" font-family="Helvetica,sans-Serif" font-size="10.00">Analogy</text>
</g>
<!-- Node2 -->
<g id="node2" class="node"><title>Node2</title>
<g id="a_node2"><a xlink:href="../../d1/d58/classnars_1_1inference_1_1TruthFunctions_a93ca820557fc8d18ef741bd33501126f.html#a93ca820557fc8d18ef741bd33501126f" target="_top" xlink:title="{&lt;S ==&gt; M&gt;, &lt;M &lt;=&gt; P&gt;} |&#45; &lt;S ==&gt; P&gt; ">
<polygon fill="none" stroke="black" points="236,-76.5 236,-95.5 419,-95.5 419,-76.5 236,-76.5"/>
<text text-anchor="middle" x="327.5" y="-83.5" font-family="Helvetica,sans-Serif" font-size="10.00">nars.inference.TruthFunctions.analogy</text>
</a>
</g>
</g>
<!-- Node1&#45;&gt;Node2 -->
<g id="edge1" class="edge"><title>Node1&#45;&gt;Node2</title>
<path fill="none" stroke="midnightblue" d="M200.236,-75.3613C208.636,-76.0691 217.138,-76.7855 225.552,-77.4944"/>
<polygon fill="midnightblue" stroke="midnightblue" points="225.499,-81.0023 235.758,-78.3543 226.087,-74.027 225.499,-81.0023"/>
</g>
<!-- Node4 -->
<g id="node4" class="node"><title>Node4</title>
<g id="a_node4"><a xlink:href="../../d3/db8/classnars_1_1entity_1_1TruthValue_a68ca7d92e9ea20d2a9a9f578ad7b681c.html#a68ca7d92e9ea20d2a9a9f578ad7b681c" target="_top" xlink:title="Get the confidence value. ">
<polygon fill="none" stroke="black" points="474.5,-115 474.5,-145 603.5,-145 603.5,-115 474.5,-115"/>
<text text-anchor="start" x="482.5" y="-133" font-family="Helvetica,sans-Serif" font-size="10.00">nars.entity.TruthValue.get</text>
<text text-anchor="middle" x="539" y="-122" font-family="Helvetica,sans-Serif" font-size="10.00">Confidence</text>
</a>
</g>
</g>
<!-- Node1&#45;&gt;Node4 -->
<g id="edge5" class="edge"><title>Node1&#45;&gt;Node4</title>
<path fill="none" stroke="midnightblue" d="M146.11,-82.0406C172.106,-90.115 205.569,-99.51 236,-105 313.244,-118.935 403.027,-125.119 464.497,-127.853"/>
<polygon fill="midnightblue" stroke="midnightblue" points="464.354,-131.35 474.493,-128.279 464.651,-124.356 464.354,-131.35"/>
</g>
<!-- Node5 -->
<g id="node5" class="node"><title>Node5</title>
<g id="a_node5"><a xlink:href="../../d3/db8/classnars_1_1entity_1_1TruthValue_a9eac33f2495441c77911a8581a5bbe61.html#a9eac33f2495441c77911a8581a5bbe61" target="_top" xlink:title="Get the frequency value. ">
<polygon fill="none" stroke="black" points="474.5,-27 474.5,-57 603.5,-57 603.5,-27 474.5,-27"/>
<text text-anchor="start" x="482.5" y="-45" font-family="Helvetica,sans-Serif" font-size="10.00">nars.entity.TruthValue.get</text>
<text text-anchor="middle" x="539" y="-34" font-family="Helvetica,sans-Serif" font-size="10.00">Frequency</text>
</a>
</g>
</g>
<!-- Node1&#45;&gt;Node5 -->
<g id="edge6" class="edge"><title>Node1&#45;&gt;Node5</title>
<path fill="none" stroke="midnightblue" d="M200.162,-61.3271C280.328,-56.7409 391.411,-50.3861 463.973,-46.235"/>
<polygon fill="midnightblue" stroke="midnightblue" points="464.607,-49.7045 474.391,-45.639 464.207,-42.7159 464.607,-49.7045"/>
</g>
<!-- Node6 -->
<g id="node6" class="node"><title>Node6</title>
<g id="a_node6"><a xlink:href="../../d4/de4/classnars_1_1inference_1_1UtilityFunctions_a957a91e3b91d4a4043c3959838c370f2.html#a957a91e3b91d4a4043c3959838c370f2" target="_top" xlink:title="A function to convert weight to confidence. ">
<polygon fill="none" stroke="black" points="242.5,-0.5 242.5,-19.5 412.5,-19.5 412.5,-0.5 242.5,-0.5"/>
<text text-anchor="middle" x="327.5" y="-7.5" font-family="Helvetica,sans-Serif" font-size="10.00">nars.inference.UtilityFunctions.w2c</text>
</a>
</g>
</g>
<!-- Node1&#45;&gt;Node6 -->
<g id="edge7" class="edge"><title>Node1&#45;&gt;Node6</title>
<path fill="none" stroke="midnightblue" d="M160.542,-51.9494C197.478,-42.6132 244.297,-30.7785 278.783,-22.0614"/>
<polygon fill="midnightblue" stroke="midnightblue" points="279.777,-25.4205 288.614,-19.5765 278.061,-18.634 279.777,-25.4205"/>
</g>
<!-- Node3 -->
<g id="node3" class="node"><title>Node3</title>
<g id="a_node3"><a xlink:href="../../d4/de4/classnars_1_1inference_1_1UtilityFunctions_a35ac262407303cdf8d11f7892f9a3a03.html#a35ac262407303cdf8d11f7892f9a3a03" target="_top" xlink:title="A function where the output is conjunctively determined by the inputs. ">
<polygon fill="none" stroke="black" points="455,-76.5 455,-95.5 623,-95.5 623,-76.5 455,-76.5"/>
<text text-anchor="middle" x="539" y="-83.5" font-family="Helvetica,sans-Serif" font-size="10.00">nars.inference.UtilityFunctions.and</text>
</a>
</g>
</g>
<!-- Node2&#45;&gt;Node3 -->
<g id="edge2" class="edge"><title>Node2&#45;&gt;Node3</title>
<path fill="none" stroke="midnightblue" d="M419.171,-86C427.584,-86 436.119,-86 444.556,-86"/>
<polygon fill="midnightblue" stroke="midnightblue" points="444.783,-89.5001 454.783,-86 444.783,-82.5001 444.783,-89.5001"/>
</g>
<!-- Node2&#45;&gt;Node4 -->
<g id="edge3" class="edge"><title>Node2&#45;&gt;Node4</title>
<path fill="none" stroke="midnightblue" d="M373.958,-95.5473C400.34,-101.088 434.203,-108.2 464.304,-114.522"/>
<polygon fill="midnightblue" stroke="midnightblue" points="463.846,-118.002 474.352,-116.632 465.285,-111.152 463.846,-118.002"/>
</g>
<!-- Node2&#45;&gt;Node5 -->
<g id="edge4" class="edge"><title>Node2&#45;&gt;Node5</title>
<path fill="none" stroke="midnightblue" d="M373.958,-76.4527C400.34,-70.9119 434.203,-63.7999 464.304,-57.4779"/>
<polygon fill="midnightblue" stroke="midnightblue" points="465.285,-60.8483 474.352,-55.3676 463.846,-53.9978 465.285,-60.8483"/>
</g>
</g>
</svg>
        <g id="navigator" transform="translate(0 0)" fill="#404254">
                <rect fill="#f2f5e9" fill-opacity="0.5" stroke="#606060" stroke-width=".5" x="0" y="0" width="60" height="60"/>
                <use id="zoomplus" xlink:href="#zoomPlus" x="17" y="9" onmousedown="handleZoom(evt,'in')"/>
                <use id="zoomminus" xlink:href="#zoomMin" x="42" y="9" onmousedown="handleZoom(evt,'out')"/>
                <use id="reset" xlink:href="#resetDef" x="30" y="36" onmousedown="handleReset()"/>
                <g id="arrowUp" xlink:href="#dirArrow" transform="translate(30 24)" onmousedown="handlePan(0,-1)">
                  <use xlink:href="#rim" fill="#404040">
                        <set attributeName="fill" to="#808080" begin="arrowUp.mouseover" end="arrowUp.mouseout"/>
                  </use>
                  <path fill="none" stroke="white" stroke-width="1.5" d="M0,-3.0v7 M-2.5,-0.5L0,-3.0L2.5,-0.5"/>
                </g>
                <g id="arrowRight" xlink:href="#dirArrow" transform="rotate(90) translate(36 -43)" onmousedown="handlePan(1,0)">
                  <use xlink:href="#rim" fill="#404040">
                        <set attributeName="fill" to="#808080" begin="arrowRight.mouseover" end="arrowRight.mouseout"/>
                  </use>
                  <path fill="none" stroke="white" stroke-width="1.5" d="M0,-3.0v7 M-2.5,-0.5L0,-3.0L2.5,-0.5"/>
                </g>
                <g id="arrowDown" xlink:href="#dirArrow" transform="rotate(180) translate(-30 -48)" onmousedown="handlePan(0,1)">
                  <use xlink:href="#rim" fill="#404040">
                        <set attributeName="fill" to="#808080" begin="arrowDown.mouseover" end="arrowDown.mouseout"/>
                  </use>
                  <path fill="none" stroke="white" stroke-width="1.5" d="M0,-3.0v7 M-2.5,-0.5L0,-3.0L2.5,-0.5"/>
                </g>
                <g id="arrowLeft" xlink:href="#dirArrow" transform="rotate(270) translate(-36 17)" onmousedown="handlePan(-1,0)">
                  <use xlink:href="#rim" fill="#404040">
                        <set attributeName="fill" to="#808080" begin="arrowLeft.mouseover" end="arrowLeft.mouseout"/>
                  </use>
                  <path fill="none" stroke="white" stroke-width="1.5" d="M0,-3.0v7 M-2.5,-0.5L0,-3.0L2.5,-0.5"/>
                </g>
        </g>
        <svg viewBox="0 0 15 15" width="100%" height="30px" preserveAspectRatio="xMaxYMin meet">
         <g id="arrow_out" transform="scale(0.3 0.3)">
          <a xlink:href="classnars_1_1inference_1_1TruthFunctions_ad7f4353395335ad37f76d83ea8aae8e2_ad7f4353395335ad37f76d83ea8aae8e2_cgraph_org.svg" target="_base">
           <rect id="button" ry="5" rx="5" y="6" x="6" height="38" width="38"
                fill="#f2f5e9" fill-opacity="0.5" stroke="#606060" stroke-width="1.0"/>
           <path id="arrow"
             d="M 11.500037,31.436501 C 11.940474,20.09759 22.043105,11.32322 32.158766,21.979434 L 37.068811,17.246167 C 37.068811,17.246167 37.088388,32 37.088388,32 L 22.160133,31.978069 C 22.160133,31.978069 26.997745,27.140456 26.997745,27.140456 C 18.528582,18.264221 13.291696,25.230495 11.500037,31.436501 z"
             style="fill:#404040;"/>
          </a>
         </g>
        </svg>
</svg>
