<?xml version="1.0" encoding="UTF-8" standalone="no"?>
<!DOCTYPE svg PUBLIC "-//W3C//DTD SVG 1.1//EN"
 "http://www.w3.org/Graphics/SVG/1.1/DTD/svg11.dtd">
<!-- Generated by graphviz version 2.38.0 (20140413.2041)
 -->
<!-- Title: nars.inference.TruthFunctions.resemblance Pages: 1 -->
<svg width="2553pt" height="39pt"
 viewBox="0.00 0.00 2553.00 39.00" xmlns="http://www.w3.org/2000/svg" xmlns:xlink="http://www.w3.org/1999/xlink">
<g id="graph0" class="graph" transform="scale(1 1) rotate(0) translate(4 35)">
<title>nars.inference.TruthFunctions.resemblance</title>
<!-- Node1 -->
<g id="node1" class="node"><title>Node1</title>
<polygon fill="#bfbfbf" stroke="black" points="0,-6 0,-25 205,-25 205,-6 0,-6"/>
<text text-anchor="middle" x="102.5" y="-13" font-family="Helvetica,sans-Serif" font-size="10.00">nars.inference.TruthFunctions.resemblance</text>
</g>
<!-- Node2 -->
<g id="node2" class="node"><title>Node2</title>
<g id="a_node2"><a xlink:href="../../d4/daa/classnars_1_1inference_1_1SyllogisticRules_a171a1f81d7f22d9cd0301220a79f4a63.html#a171a1f81d7f22d9cd0301220a79f4a63" target="_top" xlink:title="{&lt;S &lt;=&gt; M&gt;, &lt;M &lt;=&gt; P&gt;} |&#45; &lt;S &lt;=&gt; P&gt; ">
<polygon fill="none" stroke="black" points="241,-0.5 241,-30.5 367,-30.5 367,-0.5 241,-0.5"/>
<text text-anchor="start" x="249" y="-18.5" font-family="Helvetica,sans-Serif" font-size="10.00">nars.inference.Syllogistic</text>
<text text-anchor="middle" x="304" y="-7.5" font-family="Helvetica,sans-Serif" font-size="10.00">Rules.resemblance</text>
</a>
</g>
</g>
<!-- Node1&#45;&gt;Node2 -->
<g id="edge1" class="edge"><title>Node1&#45;&gt;Node2</title>
<path fill="none" stroke="midnightblue" d="M215.008,-15.5C223.837,-15.5 232.54,-15.5 240.837,-15.5"/>
<polygon fill="midnightblue" stroke="midnightblue" points="215.003,-12.0001 205.003,-15.5 215.003,-19.0001 215.003,-12.0001"/>
</g>
<!-- Node3 -->
<g id="node3" class="node"><title>Node3</title>
<g id="a_node3"><a xlink:href="../../da/de3/classnars_1_1inference_1_1RuleTables_ab64fca3ebda3499b831c2b93df736530.html#ab64fca3ebda3499b831c2b93df736530" target="_top" xlink:title="Syllogistic rules whose both premises are on the same symmetric relation. ">
<polygon fill="none" stroke="black" points="403,-0.5 403,-30.5 582,-30.5 582,-0.5 403,-0.5"/>
<text text-anchor="start" x="411" y="-18.5" font-family="Helvetica,sans-Serif" font-size="10.00">nars.inference.RuleTables.symmetric</text>
<text text-anchor="middle" x="492.5" y="-7.5" font-family="Helvetica,sans-Serif" font-size="10.00">Symmetric</text>
</a>
</g>
</g>
<!-- Node2&#45;&gt;Node3 -->
<g id="edge2" class="edge"><title>Node2&#45;&gt;Node3</title>
<path fill="none" stroke="midnightblue" d="M377.184,-15.5C385.562,-15.5 394.18,-15.5 402.748,-15.5"/>
<polygon fill="midnightblue" stroke="midnightblue" points="377.102,-12.0001 367.102,-15.5 377.102,-19.0001 377.102,-12.0001"/>
</g>
<!-- Node4 -->
<g id="node4" class="node"><title>Node4</title>
<g id="a_node4"><a xlink:href="../../da/de3/classnars_1_1inference_1_1RuleTables_a8628d400a8ceda7fea05039ddfea319b.html#a8628d400a8ceda7fea05039ddfea319b" target="_top" xlink:title="Meta&#45;table of syllogistic rules, indexed by the content classes of the taskSentence and the belief...">
<polygon fill="none" stroke="black" points="618,-6 618,-25 798,-25 798,-6 618,-6"/>
<text text-anchor="middle" x="708" y="-13" font-family="Helvetica,sans-Serif" font-size="10.00">nars.inference.RuleTables.syllogisms</text>
</a>
</g>
</g>
<!-- Node3&#45;&gt;Node4 -->
<g id="edge3" class="edge"><title>Node3&#45;&gt;Node4</title>
<path fill="none" stroke="midnightblue" d="M592.204,-15.5C600.774,-15.5 609.414,-15.5 617.9,-15.5"/>
<polygon fill="midnightblue" stroke="midnightblue" points="592.188,-12.0001 582.188,-15.5 592.188,-19.0001 592.188,-12.0001"/>
</g>
<!-- Node5 -->
<g id="node5" class="node"><title>Node5</title>
<g id="a_node5"><a xlink:href="../../da/de3/classnars_1_1inference_1_1RuleTables_ac2d01dfdc40bdd47c757cb549217e6e3.html#ac2d01dfdc40bdd47c757cb549217e6e3" target="_top" xlink:title="Entry point of the inference engine. ">
<polygon fill="none" stroke="black" points="834,-6 834,-25 997,-25 997,-6 834,-6"/>
<text text-anchor="middle" x="915.5" y="-13" font-family="Helvetica,sans-Serif" font-size="10.00">nars.inference.RuleTables.reason</text>
</a>
</g>
</g>
<!-- Node4&#45;&gt;Node5 -->
<g id="edge4" class="edge"><title>Node4&#45;&gt;Node5</title>
<path fill="none" stroke="midnightblue" d="M808.244,-15.5C816.792,-15.5 825.372,-15.5 833.747,-15.5"/>
<polygon fill="midnightblue" stroke="midnightblue" points="808.239,-12.0001 798.239,-15.5 808.239,-19.0001 808.239,-12.0001"/>
</g>
<!-- Node6 -->
<g id="node6" class="node"><title>Node6</title>
<g id="a_node6"><a xlink:href="../../d4/d22/classnars_1_1entity_1_1Concept_ae07576c8466ad65eeb61040e3f71cfc7.html#ae07576c8466ad65eeb61040e3f71cfc7" target="_top" xlink:title="An atomic step in a concept, only called in Memory# processConcept. ">
<polygon fill="none" stroke="black" points="1033,-6 1033,-25 1152,-25 1152,-6 1033,-6"/>
<text text-anchor="middle" x="1092.5" y="-13" font-family="Helvetica,sans-Serif" font-size="10.00">nars.entity.Concept.fire</text>
</a>
</g>
</g>
<!-- Node5&#45;&gt;Node6 -->
<g id="edge5" class="edge"><title>Node5&#45;&gt;Node6</title>
<path fill="none" stroke="midnightblue" d="M1007.25,-15.5C1015.91,-15.5 1024.52,-15.5 1032.76,-15.5"/>
<polygon fill="midnightblue" stroke="midnightblue" points="1007.09,-12.0001 997.085,-15.5 1007.08,-19.0001 1007.09,-12.0001"/>
</g>
<!-- Node7 -->
<g id="node7" class="node"><title>Node7</title>
<g id="a_node7"><a xlink:href="../../d8/df4/classnars_1_1storage_1_1Memory_a83154b55b922c82b73931d4f22e3a590.html#a83154b55b922c82b73931d4f22e3a590" target="_top" xlink:title="Select a concept to fire. ">
<polygon fill="none" stroke="black" points="1188,-0.5 1188,-30.5 1334,-30.5 1334,-0.5 1188,-0.5"/>
<text text-anchor="start" x="1196" y="-18.5" font-family="Helvetica,sans-Serif" font-size="10.00">nars.storage.Memory.process</text>
<text text-anchor="middle" x="1261" y="-7.5" font-family="Helvetica,sans-Serif" font-size="10.00">Concept</text>
</a>
</g>
</g>
<!-- Node6&#45;&gt;Node7 -->
<g id="edge6" class="edge"><title>Node6&#45;&gt;Node7</title>
<path fill="none" stroke="midnightblue" d="M1162.34,-15.5C1170.75,-15.5 1179.36,-15.5 1187.82,-15.5"/>
<polygon fill="midnightblue" stroke="midnightblue" points="1162.2,-12.0001 1152.2,-15.5 1162.2,-19.0001 1162.2,-12.0001"/>
</g>
<!-- Node8 -->
<g id="node8" class="node"><title>Node8</title>
<g id="a_node8"><a xlink:href="../../d8/df4/classnars_1_1storage_1_1Memory_a49e2cbc8b78d535f4d69739886ee966a.html#a49e2cbc8b78d535f4d69739886ee966a" target="_top" xlink:title="An atomic working workCycle of the system: process new Tasks, then fire a concept. ">
<polygon fill="none" stroke="black" points="1370,-0.5 1370,-30.5 1503,-30.5 1503,-0.5 1370,-0.5"/>
<text text-anchor="start" x="1378" y="-18.5" font-family="Helvetica,sans-Serif" font-size="10.00">nars.storage.Memory.work</text>
<text text-anchor="middle" x="1436.5" y="-7.5" font-family="Helvetica,sans-Serif" font-size="10.00">Cycle</text>
</a>
</g>
</g>
<!-- Node7&#45;&gt;Node8 -->
<g id="edge7" class="edge"><title>Node7&#45;&gt;Node8</title>
<path fill="none" stroke="midnightblue" d="M1344.12,-15.5C1352.72,-15.5 1361.37,-15.5 1369.76,-15.5"/>
<polygon fill="midnightblue" stroke="midnightblue" points="1344.07,-12.0001 1334.07,-15.5 1344.07,-19.0001 1344.07,-12.0001"/>
</g>
<!-- Node9 -->
<g id="node9" class="node"><title>Node9</title>
<g id="a_node9"><a xlink:href="../../dd/da5/classnars_1_1storage_1_1Memory_1_1ReasonerBatch_acc60dec23da774957a85362ed6d7448b.html#acc60dec23da774957a85362ed6d7448b" target="_top" xlink:title="nars.storage.Memory.Reasoner\lBatch.doTick">
<polygon fill="none" stroke="black" points="1539,-0.5 1539,-30.5 1693,-30.5 1693,-0.5 1539,-0.5"/>
<text text-anchor="start" x="1547" y="-18.5" font-family="Helvetica,sans-Serif" font-size="10.00">nars.storage.Memory.Reasoner</text>
<text text-anchor="middle" x="1616" y="-7.5" font-family="Helvetica,sans-Serif" font-size="10.00">Batch.doTick</text>
</a>
</g>
</g>
<!-- Node8&#45;&gt;Node9 -->
<g id="edge8" class="edge"><title>Node8&#45;&gt;Node9</title>
<path fill="none" stroke="midnightblue" d="M1513.32,-15.5C1521.79,-15.5 1530.41,-15.5 1538.89,-15.5"/>
<polygon fill="midnightblue" stroke="midnightblue" points="1513.09,-12.0001 1503.09,-15.5 1513.09,-19.0001 1513.09,-12.0001"/>
</g>
<!-- Node10 -->
<g id="node10" class="node"><title>Node10</title>
<g id="a_node10"><a xlink:href="../../dd/da5/classnars_1_1storage_1_1Memory_1_1ReasonerBatch_aed591f05899b98fd9e4ad01836ad0a40.html#aed591f05899b98fd9e4ad01836ad0a40" target="_top" xlink:title="A clock tick. ">
<polygon fill="none" stroke="black" points="1729,-0.5 1729,-30.5 1883,-30.5 1883,-0.5 1729,-0.5"/>
<text text-anchor="start" x="1737" y="-18.5" font-family="Helvetica,sans-Serif" font-size="10.00">nars.storage.Memory.Reasoner</text>
<text text-anchor="middle" x="1806" y="-7.5" font-family="Helvetica,sans-Serif" font-size="10.00">Batch.tick</text>
</a>
</g>
</g>
<!-- Node9&#45;&gt;Node10 -->
<g id="edge9" class="edge"><title>Node9&#45;&gt;Node10</title>
<path fill="none" stroke="midnightblue" d="M1703.42,-15.5C1711.86,-15.5 1720.37,-15.5 1728.7,-15.5"/>
<polygon fill="midnightblue" stroke="midnightblue" points="1703.2,-12.0001 1693.2,-15.5 1703.2,-19.0001 1703.2,-12.0001"/>
</g>
<!-- Node11 -->
<g id="node11" class="node"><title>Node11</title>
<g id="a_node11"><a xlink:href="../../d4/d88/classnars_1_1storage_1_1Memory_1_1NARSBatch_aad99db6cedde9cff2a997db8906ff821.html#aad99db6cedde9cff2a997db8906ff821" target="_top" xlink:title="Run to completion: repeatedly execute NARS working cycle, until Inputs are Finished, or 1000 steps. ">
<polygon fill="none" stroke="black" points="1919,-6 1919,-25 2101,-25 2101,-6 1919,-6"/>
<text text-anchor="middle" x="2010" y="-13" font-family="Helvetica,sans-Serif" font-size="10.00">nars.storage.Memory.NARSBatch.run</text>
</a>
</g>
</g>
<!-- Node10&#45;&gt;Node11 -->
<g id="edge10" class="edge"><title>Node10&#45;&gt;Node11</title>
<path fill="none" stroke="midnightblue" d="M1893.27,-15.5C1901.69,-15.5 1910.25,-15.5 1918.71,-15.5"/>
<polygon fill="midnightblue" stroke="midnightblue" points="1893.08,-12.0001 1883.08,-15.5 1893.08,-19.0001 1893.08,-12.0001"/>
</g>
<!-- Node12 -->
<g id="node12" class="node"><title>Node12</title>
<g id="a_node12"><a xlink:href="../../d4/d88/classnars_1_1storage_1_1Memory_1_1NARSBatch_a416c39463faa161661ed1d12fea03b3c.html#a416c39463faa161661ed1d12fea03b3c" target="_top" xlink:title="non&#45;static equivalent to main(String[]) : run to completion from an input file ">
<polygon fill="none" stroke="black" points="2137,-0.5 2137,-30.5 2319,-30.5 2319,-0.5 2137,-0.5"/>
<text text-anchor="start" x="2145" y="-18.5" font-family="Helvetica,sans-Serif" font-size="10.00">nars.storage.Memory.NARSBatch.run</text>
<text text-anchor="middle" x="2228" y="-7.5" font-family="Helvetica,sans-Serif" font-size="10.00">Inference</text>
</a>
</g>
</g>
<!-- Node11&#45;&gt;Node12 -->
<g id="edge11" class="edge"><title>Node11&#45;&gt;Node12</title>
<path fill="none" stroke="midnightblue" d="M2111.06,-15.5C2119.63,-15.5 2128.27,-15.5 2136.76,-15.5"/>
<polygon fill="midnightblue" stroke="midnightblue" points="2111.04,-12.0001 2101.04,-15.5 2111.04,-19.0001 2111.04,-12.0001"/>
</g>
<!-- Node13 -->
<g id="node13" class="node"><title>Node13</title>
<g id="a_node13"><a xlink:href="../../d4/d88/classnars_1_1storage_1_1Memory_1_1NARSBatch_aa97fcd68270583e60e6bf1b4579d1bdc.html#aa97fcd68270583e60e6bf1b4579d1bdc" target="_top" xlink:title="The entry point of the standalone application. ">
<polygon fill="none" stroke="black" points="2355,-6 2355,-25 2545,-25 2545,-6 2355,-6"/>
<text text-anchor="middle" x="2450" y="-13" font-family="Helvetica,sans-Serif" font-size="10.00">nars.storage.Memory.NARSBatch.main</text>
</a>
</g>
</g>
<!-- Node12&#45;&gt;Node13 -->
<g id="edge12" class="edge"><title>Node12&#45;&gt;Node13</title>
<path fill="none" stroke="midnightblue" d="M2329.37,-15.5C2337.82,-15.5 2346.34,-15.5 2354.74,-15.5"/>
<polygon fill="midnightblue" stroke="midnightblue" points="2329.12,-12.0001 2319.12,-15.5 2329.12,-19.0001 2329.12,-12.0001"/>
</g>
</g>
</svg>
