<?xml version="1.0" encoding="UTF-8" standalone="no"?>
<!DOCTYPE svg PUBLIC "-//W3C//DTD SVG 1.1//EN"
 "http://www.w3.org/Graphics/SVG/1.1/DTD/svg11.dtd">
<!-- Generated by graphviz version 2.38.0 (20140413.2041)
 -->
<!-- Title: nars.inference.TruthFunctions.reduceConjunctionNeg Pages: 1 -->
<svg width="842pt" height="127pt"
 viewBox="0.00 0.00 842.00 126.50" xmlns="http://www.w3.org/2000/svg" xmlns:xlink="http://www.w3.org/1999/xlink">
<g id="graph0" class="graph" transform="scale(1 1) rotate(0) translate(4 122.5)">
<title>nars.inference.TruthFunctions.reduceConjunctionNeg</title>
<!-- Node1 -->
<g id="node1" class="node"><title>Node1</title>
<polygon fill="#bfbfbf" stroke="black" points="0,-64 0,-94 179,-94 179,-64 0,-64"/>
<text text-anchor="start" x="8" y="-82" font-family="Helvetica,sans-Serif" font-size="10.00">nars.inference.TruthFunctions.reduce</text>
<text text-anchor="middle" x="89.5" y="-71" font-family="Helvetica,sans-Serif" font-size="10.00">ConjunctionNeg</text>
</g>
<!-- Node2 -->
<g id="node2" class="node"><title>Node2</title>
<g id="a_node2"><a xlink:href="../../d1/d58/classnars_1_1inference_1_1TruthFunctions_ace28b3a18d275b33d2a094189842b2ed.html#ace28b3a18d275b33d2a094189842b2ed" target="_top" xlink:title="{A} |&#45; (–A) ">
<polygon fill="none" stroke="black" points="437,-88.5 437,-107.5 623,-107.5 623,-88.5 437,-88.5"/>
<text text-anchor="middle" x="530" y="-95.5" font-family="Helvetica,sans-Serif" font-size="10.00">nars.inference.TruthFunctions.negation</text>
</a>
</g>
</g>
<!-- Node1&#45;&gt;Node2 -->
<g id="edge1" class="edge"><title>Node1&#45;&gt;Node2</title>
<path fill="none" stroke="midnightblue" d="M179.237,-82.8449C250.822,-85.9467 351.591,-90.3129 426.591,-93.5626"/>
<polygon fill="midnightblue" stroke="midnightblue" points="426.855,-97.0773 436.997,-94.0135 427.158,-90.0838 426.855,-97.0773"/>
</g>
<!-- Node5 -->
<g id="node5" class="node"><title>Node5</title>
<g id="a_node5"><a xlink:href="../../d1/d58/classnars_1_1inference_1_1TruthFunctions_ae8945611915519f50ab3392c9168b170.html#ae8945611915519f50ab3392c9168b170" target="_top" xlink:title="{(–, (&amp;&amp;, A, B)), B} |&#45; (–, A) ">
<polygon fill="none" stroke="black" points="215,-42 215,-72 394,-72 394,-42 215,-42"/>
<text text-anchor="start" x="223" y="-60" font-family="Helvetica,sans-Serif" font-size="10.00">nars.inference.TruthFunctions.reduce</text>
<text text-anchor="middle" x="304.5" y="-49" font-family="Helvetica,sans-Serif" font-size="10.00">Conjunction</text>
</a>
</g>
</g>
<!-- Node1&#45;&gt;Node5 -->
<g id="edge4" class="edge"><title>Node1&#45;&gt;Node5</title>
<path fill="none" stroke="midnightblue" d="M179.289,-69.8293C187.739,-68.9565 196.343,-68.0678 204.879,-67.1862"/>
<polygon fill="midnightblue" stroke="midnightblue" points="205.268,-70.6648 214.855,-66.1558 204.548,-63.7018 205.268,-70.6648"/>
</g>
<!-- Node3 -->
<g id="node3" class="node"><title>Node3</title>
<g id="a_node3"><a xlink:href="../../d3/db8/classnars_1_1entity_1_1TruthValue_a68ca7d92e9ea20d2a9a9f578ad7b681c.html#a68ca7d92e9ea20d2a9a9f578ad7b681c" target="_top" xlink:title="Get the confidence value. ">
<polygon fill="none" stroke="black" points="685.5,-39 685.5,-69 814.5,-69 814.5,-39 685.5,-39"/>
<text text-anchor="start" x="693.5" y="-57" font-family="Helvetica,sans-Serif" font-size="10.00">nars.entity.TruthValue.get</text>
<text text-anchor="middle" x="750" y="-46" font-family="Helvetica,sans-Serif" font-size="10.00">Confidence</text>
</a>
</g>
</g>
<!-- Node2&#45;&gt;Node3 -->
<g id="edge2" class="edge"><title>Node2&#45;&gt;Node3</title>
<path fill="none" stroke="midnightblue" d="M578.303,-88.4527C606.552,-82.751 643.045,-75.3854 675.033,-68.9291"/>
<polygon fill="midnightblue" stroke="midnightblue" points="676.135,-72.2774 685.245,-66.868 674.75,-65.4158 676.135,-72.2774"/>
</g>
<!-- Node4 -->
<g id="node4" class="node"><title>Node4</title>
<g id="a_node4"><a xlink:href="../../d3/db8/classnars_1_1entity_1_1TruthValue_a9eac33f2495441c77911a8581a5bbe61.html#a9eac33f2495441c77911a8581a5bbe61" target="_top" xlink:title="Get the frequency value. ">
<polygon fill="none" stroke="black" points="685.5,-88 685.5,-118 814.5,-118 814.5,-88 685.5,-88"/>
<text text-anchor="start" x="693.5" y="-106" font-family="Helvetica,sans-Serif" font-size="10.00">nars.entity.TruthValue.get</text>
<text text-anchor="middle" x="750" y="-95" font-family="Helvetica,sans-Serif" font-size="10.00">Frequency</text>
</a>
</g>
</g>
<!-- Node2&#45;&gt;Node4 -->
<g id="edge3" class="edge"><title>Node2&#45;&gt;Node4</title>
<path fill="none" stroke="midnightblue" d="M623.136,-100.113C640.458,-100.51 658.362,-100.921 675.041,-101.304"/>
<polygon fill="midnightblue" stroke="midnightblue" points="675.174,-104.808 685.252,-101.538 675.335,-97.8094 675.174,-104.808"/>
</g>
<!-- Node5&#45;&gt;Node2 -->
<g id="edge13" class="edge"><title>Node5&#45;&gt;Node2</title>
<path fill="none" stroke="midnightblue" d="M387.454,-72.0341C413.733,-76.8549 442.384,-82.1108 466.992,-86.625"/>
<polygon fill="midnightblue" stroke="midnightblue" points="466.449,-90.0837 476.916,-88.4455 467.712,-83.1985 466.449,-90.0837"/>
</g>
<!-- Node6 -->
<g id="node6" class="node"><title>Node6</title>
<g id="a_node6"><a xlink:href="../../d1/d58/classnars_1_1inference_1_1TruthFunctions_af0cd0f846c8a7e500840b517ab006b94.html#af0cd0f846c8a7e500840b517ab006b94" target="_top" xlink:title="{&lt;S ==&gt; M&gt;, &lt;M ==&gt; P&gt;} |&#45; &lt;S ==&gt; P&gt; ">
<polygon fill="none" stroke="black" points="434.5,-49.5 434.5,-68.5 625.5,-68.5 625.5,-49.5 434.5,-49.5"/>
<text text-anchor="middle" x="530" y="-56.5" font-family="Helvetica,sans-Serif" font-size="10.00">nars.inference.TruthFunctions.deduction</text>
</a>
</g>
</g>
<!-- Node5&#45;&gt;Node6 -->
<g id="edge5" class="edge"><title>Node5&#45;&gt;Node6</title>
<path fill="none" stroke="midnightblue" d="M394.154,-57.7933C404.026,-57.8817 414.149,-57.9723 424.197,-58.0622"/>
<polygon fill="midnightblue" stroke="midnightblue" points="424.177,-61.562 434.208,-58.1518 424.24,-54.5623 424.177,-61.562"/>
</g>
<!-- Node8 -->
<g id="node8" class="node"><title>Node8</title>
<g id="a_node8"><a xlink:href="../../d1/d58/classnars_1_1inference_1_1TruthFunctions_a20446cf012806110b595d9d1309bba24.html#a20446cf012806110b595d9d1309bba24" target="_top" xlink:title="{&lt;M &#45;&#45;&gt; S&gt;, &lt;M &lt;&#45;&gt; P&gt;} |&#45; &lt;M &#45;&#45;&gt; (S&amp;P)&gt; ">
<polygon fill="none" stroke="black" points="430,-11.5 430,-30.5 630,-30.5 630,-11.5 430,-11.5"/>
<text text-anchor="middle" x="530" y="-18.5" font-family="Helvetica,sans-Serif" font-size="10.00">nars.inference.TruthFunctions.intersection</text>
</a>
</g>
</g>
<!-- Node5&#45;&gt;Node8 -->
<g id="edge9" class="edge"><title>Node5&#45;&gt;Node8</title>
<path fill="none" stroke="midnightblue" d="M394.154,-42.7201C416.044,-39.1943 439.17,-35.4692 459.971,-32.1187"/>
<polygon fill="midnightblue" stroke="midnightblue" points="460.664,-35.5523 469.981,-30.5065 459.551,-28.6414 460.664,-35.5523"/>
</g>
<!-- Node6&#45;&gt;Node3 -->
<g id="edge7" class="edge"><title>Node6&#45;&gt;Node3</title>
<path fill="none" stroke="midnightblue" d="M625.667,-56.8287C642.256,-56.4482 659.297,-56.0574 675.215,-55.6923"/>
<polygon fill="midnightblue" stroke="midnightblue" points="675.58,-59.185 685.497,-55.4565 675.419,-52.1868 675.58,-59.185"/>
</g>
<!-- Node6&#45;&gt;Node4 -->
<g id="edge8" class="edge"><title>Node6&#45;&gt;Node4</title>
<path fill="none" stroke="midnightblue" d="M578.303,-68.5473C606.552,-74.249 643.045,-81.6146 675.033,-88.0709"/>
<polygon fill="midnightblue" stroke="midnightblue" points="674.75,-91.5842 685.245,-90.132 676.135,-84.7226 674.75,-91.5842"/>
</g>
<!-- Node7 -->
<g id="node7" class="node"><title>Node7</title>
<g id="a_node7"><a xlink:href="../../d4/de4/classnars_1_1inference_1_1UtilityFunctions_a35ac262407303cdf8d11f7892f9a3a03.html#a35ac262407303cdf8d11f7892f9a3a03" target="_top" xlink:title="A function where the output is conjunctively determined by the inputs. ">
<polygon fill="none" stroke="black" points="666,-0.5 666,-19.5 834,-19.5 834,-0.5 666,-0.5"/>
<text text-anchor="middle" x="750" y="-7.5" font-family="Helvetica,sans-Serif" font-size="10.00">nars.inference.UtilityFunctions.and</text>
</a>
</g>
</g>
<!-- Node6&#45;&gt;Node7 -->
<g id="edge6" class="edge"><title>Node6&#45;&gt;Node7</title>
<path fill="none" stroke="midnightblue" d="M586.212,-49.4867C600.538,-46.7227 615.901,-43.4963 630,-40 646.238,-35.9731 649.835,-33.3138 666,-29 675.222,-26.5388 685.073,-24.1105 694.648,-21.8549"/>
<polygon fill="midnightblue" stroke="midnightblue" points="695.538,-25.2415 704.488,-19.5728 693.956,-18.4225 695.538,-25.2415"/>
</g>
<!-- Node8&#45;&gt;Node3 -->
<g id="edge11" class="edge"><title>Node8&#45;&gt;Node3</title>
<path fill="none" stroke="midnightblue" d="M593.762,-30.5007C619.192,-34.3502 648.744,-38.8236 675.197,-42.828"/>
<polygon fill="midnightblue" stroke="midnightblue" points="674.758,-46.3013 685.169,-44.3375 675.806,-39.3801 674.758,-46.3013"/>
</g>
<!-- Node8&#45;&gt;Node4 -->
<g id="edge12" class="edge"><title>Node8&#45;&gt;Node4</title>
<path fill="none" stroke="midnightblue" d="M607.305,-30.574C615.219,-33.0425 622.939,-36.1332 630,-40 650.405,-51.1743 646.197,-65.7906 666,-78 669.433,-80.1164 673.056,-82.0637 676.793,-83.854"/>
<polygon fill="midnightblue" stroke="midnightblue" points="675.705,-87.1979 686.271,-87.988 678.504,-80.7817 675.705,-87.1979"/>
</g>
<!-- Node8&#45;&gt;Node7 -->
<g id="edge10" class="edge"><title>Node8&#45;&gt;Node7</title>
<path fill="none" stroke="midnightblue" d="M630.113,-15.9989C638.589,-15.5712 647.145,-15.1395 655.575,-14.7141"/>
<polygon fill="midnightblue" stroke="midnightblue" points="655.97,-18.1987 665.781,-14.1991 655.617,-11.2076 655.97,-18.1987"/>
</g>
</g>
</svg>
