<?xml version="1.0" encoding="UTF-8" standalone="no"?>
<!DOCTYPE svg PUBLIC "-//W3C//DTD SVG 1.1//EN"
 "http://www.w3.org/Graphics/SVG/1.1/DTD/svg11.dtd">
<!-- Generated by graphviz version 2.38.0 (20140413.2041)
 -->
<!-- Title: nars.inference.LocalRules.inferToSym Pages: 1 -->
<svg width="2540pt" height="39pt"
 viewBox="0.00 0.00 2540.00 39.00" xmlns="http://www.w3.org/2000/svg" xmlns:xlink="http://www.w3.org/1999/xlink">
<g id="graph0" class="graph" transform="scale(1 1) rotate(0) translate(4 35)">
<title>nars.inference.LocalRules.inferToSym</title>
<!-- Node1 -->
<g id="node1" class="node"><title>Node1</title>
<polygon fill="#bfbfbf" stroke="black" points="0,-0.5 0,-30.5 152,-30.5 152,-0.5 0,-0.5"/>
<text text-anchor="start" x="8" y="-18.5" font-family="Helvetica,sans-Serif" font-size="10.00">nars.inference.LocalRules.infer</text>
<text text-anchor="middle" x="76" y="-7.5" font-family="Helvetica,sans-Serif" font-size="10.00">ToSym</text>
</g>
<!-- Node2 -->
<g id="node2" class="node"><title>Node2</title>
<g id="a_node2"><a xlink:href="../../d4/de9/classnars_1_1inference_1_1LocalRules_a93af32adec92cf57671c32e9ccc2dffc.html#a93af32adec92cf57671c32e9ccc2dffc" target="_top" xlink:title="The task and belief match reversely. ">
<polygon fill="none" stroke="black" points="188,-0.5 188,-30.5 348,-30.5 348,-0.5 188,-0.5"/>
<text text-anchor="start" x="196" y="-18.5" font-family="Helvetica,sans-Serif" font-size="10.00">nars.inference.LocalRules.match</text>
<text text-anchor="middle" x="268" y="-7.5" font-family="Helvetica,sans-Serif" font-size="10.00">Reverse</text>
</a>
</g>
</g>
<!-- Node1&#45;&gt;Node2 -->
<g id="edge1" class="edge"><title>Node1&#45;&gt;Node2</title>
<path fill="none" stroke="midnightblue" d="M162.345,-15.5C170.807,-15.5 179.372,-15.5 187.769,-15.5"/>
<polygon fill="midnightblue" stroke="midnightblue" points="162.093,-12.0001 152.093,-15.5 162.093,-19.0001 162.093,-12.0001"/>
</g>
<!-- Node3 -->
<g id="node3" class="node"><title>Node3</title>
<g id="a_node3"><a xlink:href="../../da/de3/classnars_1_1inference_1_1RuleTables_a34927349efcf87db97d23c60983b115b.html#a34927349efcf87db97d23c60983b115b" target="_top" xlink:title="Syllogistic rules whose both premises are on the same asymmetric relation. ">
<polygon fill="none" stroke="black" points="384,-0.5 384,-30.5 569,-30.5 569,-0.5 384,-0.5"/>
<text text-anchor="start" x="392" y="-18.5" font-family="Helvetica,sans-Serif" font-size="10.00">nars.inference.RuleTables.asymmetric</text>
<text text-anchor="middle" x="476.5" y="-7.5" font-family="Helvetica,sans-Serif" font-size="10.00">Asymmetric</text>
</a>
</g>
</g>
<!-- Node2&#45;&gt;Node3 -->
<g id="edge2" class="edge"><title>Node2&#45;&gt;Node3</title>
<path fill="none" stroke="midnightblue" d="M358.4,-15.5C366.787,-15.5 375.297,-15.5 383.705,-15.5"/>
<polygon fill="midnightblue" stroke="midnightblue" points="358.248,-12.0001 348.248,-15.5 358.248,-19.0001 358.248,-12.0001"/>
</g>
<!-- Node4 -->
<g id="node4" class="node"><title>Node4</title>
<g id="a_node4"><a xlink:href="../../da/de3/classnars_1_1inference_1_1RuleTables_a8628d400a8ceda7fea05039ddfea319b.html#a8628d400a8ceda7fea05039ddfea319b" target="_top" xlink:title="Meta&#45;table of syllogistic rules, indexed by the content classes of the taskSentence and the belief...">
<polygon fill="none" stroke="black" points="605,-6 605,-25 785,-25 785,-6 605,-6"/>
<text text-anchor="middle" x="695" y="-13" font-family="Helvetica,sans-Serif" font-size="10.00">nars.inference.RuleTables.syllogisms</text>
</a>
</g>
</g>
<!-- Node3&#45;&gt;Node4 -->
<g id="edge3" class="edge"><title>Node3&#45;&gt;Node4</title>
<path fill="none" stroke="midnightblue" d="M579.084,-15.5C587.705,-15.5 596.383,-15.5 604.898,-15.5"/>
<polygon fill="midnightblue" stroke="midnightblue" points="579.002,-12.0001 569.002,-15.5 579.002,-19.0001 579.002,-12.0001"/>
</g>
<!-- Node5 -->
<g id="node5" class="node"><title>Node5</title>
<g id="a_node5"><a xlink:href="../../da/de3/classnars_1_1inference_1_1RuleTables_ac2d01dfdc40bdd47c757cb549217e6e3.html#ac2d01dfdc40bdd47c757cb549217e6e3" target="_top" xlink:title="Entry point of the inference engine. ">
<polygon fill="none" stroke="black" points="821,-6 821,-25 984,-25 984,-6 821,-6"/>
<text text-anchor="middle" x="902.5" y="-13" font-family="Helvetica,sans-Serif" font-size="10.00">nars.inference.RuleTables.reason</text>
</a>
</g>
</g>
<!-- Node4&#45;&gt;Node5 -->
<g id="edge4" class="edge"><title>Node4&#45;&gt;Node5</title>
<path fill="none" stroke="midnightblue" d="M795.244,-15.5C803.792,-15.5 812.372,-15.5 820.747,-15.5"/>
<polygon fill="midnightblue" stroke="midnightblue" points="795.239,-12.0001 785.239,-15.5 795.239,-19.0001 795.239,-12.0001"/>
</g>
<!-- Node6 -->
<g id="node6" class="node"><title>Node6</title>
<g id="a_node6"><a xlink:href="../../d4/d22/classnars_1_1entity_1_1Concept_ae07576c8466ad65eeb61040e3f71cfc7.html#ae07576c8466ad65eeb61040e3f71cfc7" target="_top" xlink:title="An atomic step in a concept, only called in Memory# processConcept. ">
<polygon fill="none" stroke="black" points="1020,-6 1020,-25 1139,-25 1139,-6 1020,-6"/>
<text text-anchor="middle" x="1079.5" y="-13" font-family="Helvetica,sans-Serif" font-size="10.00">nars.entity.Concept.fire</text>
</a>
</g>
</g>
<!-- Node5&#45;&gt;Node6 -->
<g id="edge5" class="edge"><title>Node5&#45;&gt;Node6</title>
<path fill="none" stroke="midnightblue" d="M994.249,-15.5C1002.91,-15.5 1011.52,-15.5 1019.76,-15.5"/>
<polygon fill="midnightblue" stroke="midnightblue" points="994.085,-12.0001 984.085,-15.5 994.085,-19.0001 994.085,-12.0001"/>
</g>
<!-- Node7 -->
<g id="node7" class="node"><title>Node7</title>
<g id="a_node7"><a xlink:href="../../d8/df4/classnars_1_1storage_1_1Memory_a83154b55b922c82b73931d4f22e3a590.html#a83154b55b922c82b73931d4f22e3a590" target="_top" xlink:title="Select a concept to fire. ">
<polygon fill="none" stroke="black" points="1175,-0.5 1175,-30.5 1321,-30.5 1321,-0.5 1175,-0.5"/>
<text text-anchor="start" x="1183" y="-18.5" font-family="Helvetica,sans-Serif" font-size="10.00">nars.storage.Memory.process</text>
<text text-anchor="middle" x="1248" y="-7.5" font-family="Helvetica,sans-Serif" font-size="10.00">Concept</text>
</a>
</g>
</g>
<!-- Node6&#45;&gt;Node7 -->
<g id="edge6" class="edge"><title>Node6&#45;&gt;Node7</title>
<path fill="none" stroke="midnightblue" d="M1149.34,-15.5C1157.75,-15.5 1166.36,-15.5 1174.82,-15.5"/>
<polygon fill="midnightblue" stroke="midnightblue" points="1149.2,-12.0001 1139.2,-15.5 1149.2,-19.0001 1149.2,-12.0001"/>
</g>
<!-- Node8 -->
<g id="node8" class="node"><title>Node8</title>
<g id="a_node8"><a xlink:href="../../d8/df4/classnars_1_1storage_1_1Memory_a49e2cbc8b78d535f4d69739886ee966a.html#a49e2cbc8b78d535f4d69739886ee966a" target="_top" xlink:title="An atomic working workCycle of the system: process new Tasks, then fire a concept. ">
<polygon fill="none" stroke="black" points="1357,-0.5 1357,-30.5 1490,-30.5 1490,-0.5 1357,-0.5"/>
<text text-anchor="start" x="1365" y="-18.5" font-family="Helvetica,sans-Serif" font-size="10.00">nars.storage.Memory.work</text>
<text text-anchor="middle" x="1423.5" y="-7.5" font-family="Helvetica,sans-Serif" font-size="10.00">Cycle</text>
</a>
</g>
</g>
<!-- Node7&#45;&gt;Node8 -->
<g id="edge7" class="edge"><title>Node7&#45;&gt;Node8</title>
<path fill="none" stroke="midnightblue" d="M1331.12,-15.5C1339.72,-15.5 1348.37,-15.5 1356.76,-15.5"/>
<polygon fill="midnightblue" stroke="midnightblue" points="1331.07,-12.0001 1321.07,-15.5 1331.07,-19.0001 1331.07,-12.0001"/>
</g>
<!-- Node9 -->
<g id="node9" class="node"><title>Node9</title>
<g id="a_node9"><a xlink:href="../../dd/da5/classnars_1_1storage_1_1Memory_1_1ReasonerBatch_acc60dec23da774957a85362ed6d7448b.html#acc60dec23da774957a85362ed6d7448b" target="_top" xlink:title="nars.storage.Memory.Reasoner\lBatch.doTick">
<polygon fill="none" stroke="black" points="1526,-0.5 1526,-30.5 1680,-30.5 1680,-0.5 1526,-0.5"/>
<text text-anchor="start" x="1534" y="-18.5" font-family="Helvetica,sans-Serif" font-size="10.00">nars.storage.Memory.Reasoner</text>
<text text-anchor="middle" x="1603" y="-7.5" font-family="Helvetica,sans-Serif" font-size="10.00">Batch.doTick</text>
</a>
</g>
</g>
<!-- Node8&#45;&gt;Node9 -->
<g id="edge8" class="edge"><title>Node8&#45;&gt;Node9</title>
<path fill="none" stroke="midnightblue" d="M1500.32,-15.5C1508.79,-15.5 1517.41,-15.5 1525.89,-15.5"/>
<polygon fill="midnightblue" stroke="midnightblue" points="1500.09,-12.0001 1490.09,-15.5 1500.09,-19.0001 1500.09,-12.0001"/>
</g>
<!-- Node10 -->
<g id="node10" class="node"><title>Node10</title>
<g id="a_node10"><a xlink:href="../../dd/da5/classnars_1_1storage_1_1Memory_1_1ReasonerBatch_aed591f05899b98fd9e4ad01836ad0a40.html#aed591f05899b98fd9e4ad01836ad0a40" target="_top" xlink:title="A clock tick. ">
<polygon fill="none" stroke="black" points="1716,-0.5 1716,-30.5 1870,-30.5 1870,-0.5 1716,-0.5"/>
<text text-anchor="start" x="1724" y="-18.5" font-family="Helvetica,sans-Serif" font-size="10.00">nars.storage.Memory.Reasoner</text>
<text text-anchor="middle" x="1793" y="-7.5" font-family="Helvetica,sans-Serif" font-size="10.00">Batch.tick</text>
</a>
</g>
</g>
<!-- Node9&#45;&gt;Node10 -->
<g id="edge9" class="edge"><title>Node9&#45;&gt;Node10</title>
<path fill="none" stroke="midnightblue" d="M1690.42,-15.5C1698.86,-15.5 1707.37,-15.5 1715.7,-15.5"/>
<polygon fill="midnightblue" stroke="midnightblue" points="1690.2,-12.0001 1680.2,-15.5 1690.2,-19.0001 1690.2,-12.0001"/>
</g>
<!-- Node11 -->
<g id="node11" class="node"><title>Node11</title>
<g id="a_node11"><a xlink:href="../../d4/d88/classnars_1_1storage_1_1Memory_1_1NARSBatch_aad99db6cedde9cff2a997db8906ff821.html#aad99db6cedde9cff2a997db8906ff821" target="_top" xlink:title="Run to completion: repeatedly execute NARS working cycle, until Inputs are Finished, or 1000 steps. ">
<polygon fill="none" stroke="black" points="1906,-6 1906,-25 2088,-25 2088,-6 1906,-6"/>
<text text-anchor="middle" x="1997" y="-13" font-family="Helvetica,sans-Serif" font-size="10.00">nars.storage.Memory.NARSBatch.run</text>
</a>
</g>
</g>
<!-- Node10&#45;&gt;Node11 -->
<g id="edge10" class="edge"><title>Node10&#45;&gt;Node11</title>
<path fill="none" stroke="midnightblue" d="M1880.27,-15.5C1888.69,-15.5 1897.25,-15.5 1905.71,-15.5"/>
<polygon fill="midnightblue" stroke="midnightblue" points="1880.08,-12.0001 1870.08,-15.5 1880.08,-19.0001 1880.08,-12.0001"/>
</g>
<!-- Node12 -->
<g id="node12" class="node"><title>Node12</title>
<g id="a_node12"><a xlink:href="../../d4/d88/classnars_1_1storage_1_1Memory_1_1NARSBatch_a416c39463faa161661ed1d12fea03b3c.html#a416c39463faa161661ed1d12fea03b3c" target="_top" xlink:title="non&#45;static equivalent to main(String[]) : run to completion from an input file ">
<polygon fill="none" stroke="black" points="2124,-0.5 2124,-30.5 2306,-30.5 2306,-0.5 2124,-0.5"/>
<text text-anchor="start" x="2132" y="-18.5" font-family="Helvetica,sans-Serif" font-size="10.00">nars.storage.Memory.NARSBatch.run</text>
<text text-anchor="middle" x="2215" y="-7.5" font-family="Helvetica,sans-Serif" font-size="10.00">Inference</text>
</a>
</g>
</g>
<!-- Node11&#45;&gt;Node12 -->
<g id="edge11" class="edge"><title>Node11&#45;&gt;Node12</title>
<path fill="none" stroke="midnightblue" d="M2098.06,-15.5C2106.63,-15.5 2115.27,-15.5 2123.76,-15.5"/>
<polygon fill="midnightblue" stroke="midnightblue" points="2098.04,-12.0001 2088.04,-15.5 2098.04,-19.0001 2098.04,-12.0001"/>
</g>
<!-- Node13 -->
<g id="node13" class="node"><title>Node13</title>
<g id="a_node13"><a xlink:href="../../d4/d88/classnars_1_1storage_1_1Memory_1_1NARSBatch_aa97fcd68270583e60e6bf1b4579d1bdc.html#aa97fcd68270583e60e6bf1b4579d1bdc" target="_top" xlink:title="The entry point of the standalone application. ">
<polygon fill="none" stroke="black" points="2342,-6 2342,-25 2532,-25 2532,-6 2342,-6"/>
<text text-anchor="middle" x="2437" y="-13" font-family="Helvetica,sans-Serif" font-size="10.00">nars.storage.Memory.NARSBatch.main</text>
</a>
</g>
</g>
<!-- Node12&#45;&gt;Node13 -->
<g id="edge12" class="edge"><title>Node12&#45;&gt;Node13</title>
<path fill="none" stroke="midnightblue" d="M2316.37,-15.5C2324.82,-15.5 2333.34,-15.5 2341.74,-15.5"/>
<polygon fill="midnightblue" stroke="midnightblue" points="2316.12,-12.0001 2306.12,-15.5 2316.12,-19.0001 2316.12,-12.0001"/>
</g>
</g>
</svg>
