<?xml version="1.0" encoding="UTF-8" standalone="no"?>
<!DOCTYPE svg PUBLIC "-//W3C//DTD SVG 1.1//EN"
 "http://www.w3.org/Graphics/SVG/1.1/DTD/svg11.dtd">
<!-- Generated by graphviz version 2.38.0 (20140413.2041)
 -->
<!-- Title: nars.inference.LocalRules.trySolution Pages: 1 -->
<svg width="2133pt" height="137pt"
 viewBox="0.00 0.00 2133.00 137.00" xmlns="http://www.w3.org/2000/svg" xmlns:xlink="http://www.w3.org/1999/xlink">
<g id="graph0" class="graph" transform="scale(1 1) rotate(0) translate(4 133)">
<title>nars.inference.LocalRules.trySolution</title>
<!-- Node1 -->
<g id="node1" class="node"><title>Node1</title>
<polygon fill="#bfbfbf" stroke="black" points="0,-54.5 0,-84.5 144,-84.5 144,-54.5 0,-54.5"/>
<text text-anchor="start" x="8" y="-72.5" font-family="Helvetica,sans-Serif" font-size="10.00">nars.inference.LocalRules.try</text>
<text text-anchor="middle" x="72" y="-61.5" font-family="Helvetica,sans-Serif" font-size="10.00">Solution</text>
</g>
<!-- Node2 -->
<g id="node2" class="node"><title>Node2</title>
<g id="a_node2"><a xlink:href="../../d4/de9/classnars_1_1inference_1_1LocalRules_aac1c92950f50edd04d12229a8c992987.html#aac1c92950f50edd04d12229a8c992987" target="_top" xlink:title="The task and belief have the same content. ">
<polygon fill="none" stroke="black" points="180,-104 180,-123 340,-123 340,-104 180,-104"/>
<text text-anchor="middle" x="260" y="-111" font-family="Helvetica,sans-Serif" font-size="10.00">nars.inference.LocalRules.match</text>
</a>
</g>
</g>
<!-- Node1&#45;&gt;Node2 -->
<g id="edge1" class="edge"><title>Node1&#45;&gt;Node2</title>
<path fill="none" stroke="midnightblue" d="M146.539,-86.8964C171.16,-92.7206 197.685,-98.9954 218.788,-103.988"/>
<polygon fill="midnightblue" stroke="midnightblue" points="147.028,-83.4154 136.49,-84.5192 145.416,-90.2274 147.028,-83.4154"/>
</g>
<!-- Node12 -->
<g id="node12" class="node"><title>Node12</title>
<g id="a_node12"><a xlink:href="../../d4/d22/classnars_1_1entity_1_1Concept_a40cddcc82ee28a1cf5b1f4bc14e2b078.html#a40cddcc82ee28a1cf5b1f4bc14e2b078" target="_top" xlink:title="To accept a new judgment as isBelief, and check for revisions and solutions. ">
<polygon fill="none" stroke="black" points="190,-54.5 190,-84.5 330,-84.5 330,-54.5 190,-54.5"/>
<text text-anchor="start" x="198" y="-72.5" font-family="Helvetica,sans-Serif" font-size="10.00">nars.entity.Concept.process</text>
<text text-anchor="middle" x="260" y="-61.5" font-family="Helvetica,sans-Serif" font-size="10.00">Judgment</text>
</a>
</g>
</g>
<!-- Node1&#45;&gt;Node12 -->
<g id="edge11" class="edge"><title>Node1&#45;&gt;Node12</title>
<path fill="none" stroke="midnightblue" d="M154.396,-69.5C166.191,-69.5 178.24,-69.5 189.766,-69.5"/>
<polygon fill="midnightblue" stroke="midnightblue" points="154.115,-66.0001 144.115,-69.5 154.115,-73.0001 154.115,-66.0001"/>
</g>
<!-- Node17 -->
<g id="node17" class="node"><title>Node17</title>
<g id="a_node17"><a xlink:href="../../d4/d22/classnars_1_1entity_1_1Concept_a3900248991e7adb57e82231312337f8f.html#a3900248991e7adb57e82231312337f8f" target="_top" xlink:title="To answer a question by existing beliefs. ">
<polygon fill="none" stroke="black" points="190,-5.5 190,-35.5 330,-35.5 330,-5.5 190,-5.5"/>
<text text-anchor="start" x="198" y="-23.5" font-family="Helvetica,sans-Serif" font-size="10.00">nars.entity.Concept.process</text>
<text text-anchor="middle" x="260" y="-12.5" font-family="Helvetica,sans-Serif" font-size="10.00">Question</text>
</a>
</g>
</g>
<!-- Node1&#45;&gt;Node17 -->
<g id="edge18" class="edge"><title>Node1&#45;&gt;Node17</title>
<path fill="none" stroke="midnightblue" d="M139.895,-51.8771C160.244,-46.5163 182.408,-40.6775 202.038,-35.5062"/>
<polygon fill="midnightblue" stroke="midnightblue" points="138.849,-48.5333 130.07,-54.4654 140.632,-55.3023 138.849,-48.5333"/>
</g>
<!-- Node3 -->
<g id="node3" class="node"><title>Node3</title>
<g id="a_node3"><a xlink:href="../../da/de3/classnars_1_1inference_1_1RuleTables_ac2d01dfdc40bdd47c757cb549217e6e3.html#ac2d01dfdc40bdd47c757cb549217e6e3" target="_top" xlink:title="Entry point of the inference engine. ">
<polygon fill="none" stroke="black" points="376,-104 376,-123 539,-123 539,-104 376,-104"/>
<text text-anchor="middle" x="457.5" y="-111" font-family="Helvetica,sans-Serif" font-size="10.00">nars.inference.RuleTables.reason</text>
</a>
</g>
</g>
<!-- Node2&#45;&gt;Node3 -->
<g id="edge2" class="edge"><title>Node2&#45;&gt;Node3</title>
<path fill="none" stroke="midnightblue" d="M350.499,-113.5C358.962,-113.5 367.507,-113.5 375.88,-113.5"/>
<polygon fill="midnightblue" stroke="midnightblue" points="350.236,-110 340.236,-113.5 350.235,-117 350.236,-110"/>
</g>
<!-- Node4 -->
<g id="node4" class="node"><title>Node4</title>
<g id="a_node4"><a xlink:href="../../d4/d22/classnars_1_1entity_1_1Concept_ae07576c8466ad65eeb61040e3f71cfc7.html#ae07576c8466ad65eeb61040e3f71cfc7" target="_top" xlink:title="An atomic step in a concept, only called in Memory# processConcept. ">
<polygon fill="none" stroke="black" points="594,-104 594,-123 713,-123 713,-104 594,-104"/>
<text text-anchor="middle" x="653.5" y="-111" font-family="Helvetica,sans-Serif" font-size="10.00">nars.entity.Concept.fire</text>
</a>
</g>
</g>
<!-- Node3&#45;&gt;Node4 -->
<g id="edge3" class="edge"><title>Node3&#45;&gt;Node4</title>
<path fill="none" stroke="midnightblue" d="M549.461,-113.5C564.516,-113.5 579.765,-113.5 593.751,-113.5"/>
<polygon fill="midnightblue" stroke="midnightblue" points="549.088,-110 539.088,-113.5 549.088,-117 549.088,-110"/>
</g>
<!-- Node5 -->
<g id="node5" class="node"><title>Node5</title>
<g id="a_node5"><a xlink:href="../../d8/df4/classnars_1_1storage_1_1Memory_a83154b55b922c82b73931d4f22e3a590.html#a83154b55b922c82b73931d4f22e3a590" target="_top" xlink:title="Select a concept to fire. ">
<polygon fill="none" stroke="black" points="768,-98.5 768,-128.5 914,-128.5 914,-98.5 768,-98.5"/>
<text text-anchor="start" x="776" y="-116.5" font-family="Helvetica,sans-Serif" font-size="10.00">nars.storage.Memory.process</text>
<text text-anchor="middle" x="841" y="-105.5" font-family="Helvetica,sans-Serif" font-size="10.00">Concept</text>
</a>
</g>
</g>
<!-- Node4&#45;&gt;Node5 -->
<g id="edge4" class="edge"><title>Node4&#45;&gt;Node5</title>
<path fill="none" stroke="midnightblue" d="M723.519,-113.5C737.929,-113.5 753.158,-113.5 767.683,-113.5"/>
<polygon fill="midnightblue" stroke="midnightblue" points="723.193,-110 713.193,-113.5 723.193,-117 723.193,-110"/>
</g>
<!-- Node6 -->
<g id="node6" class="node"><title>Node6</title>
<g id="a_node6"><a xlink:href="../../d8/df4/classnars_1_1storage_1_1Memory_a49e2cbc8b78d535f4d69739886ee966a.html#a49e2cbc8b78d535f4d69739886ee966a" target="_top" xlink:title="An atomic working workCycle of the system: process new Tasks, then fire a concept. ">
<polygon fill="none" stroke="black" points="950,-49.5 950,-79.5 1083,-79.5 1083,-49.5 950,-49.5"/>
<text text-anchor="start" x="958" y="-67.5" font-family="Helvetica,sans-Serif" font-size="10.00">nars.storage.Memory.work</text>
<text text-anchor="middle" x="1016.5" y="-56.5" font-family="Helvetica,sans-Serif" font-size="10.00">Cycle</text>
</a>
</g>
</g>
<!-- Node5&#45;&gt;Node6 -->
<g id="edge5" class="edge"><title>Node5&#45;&gt;Node6</title>
<path fill="none" stroke="midnightblue" d="M905.102,-95.6788C923.835,-90.3882 944.16,-84.6478 962.205,-79.5516"/>
<polygon fill="midnightblue" stroke="midnightblue" points="904.144,-92.3123 895.471,-98.3986 906.046,-99.0488 904.144,-92.3123"/>
</g>
<!-- Node7 -->
<g id="node7" class="node"><title>Node7</title>
<g id="a_node7"><a xlink:href="../../dd/da5/classnars_1_1storage_1_1Memory_1_1ReasonerBatch_acc60dec23da774957a85362ed6d7448b.html#acc60dec23da774957a85362ed6d7448b" target="_top" xlink:title="nars.storage.Memory.Reasoner\lBatch.doTick">
<polygon fill="none" stroke="black" points="1119,-49.5 1119,-79.5 1273,-79.5 1273,-49.5 1119,-49.5"/>
<text text-anchor="start" x="1127" y="-67.5" font-family="Helvetica,sans-Serif" font-size="10.00">nars.storage.Memory.Reasoner</text>
<text text-anchor="middle" x="1196" y="-56.5" font-family="Helvetica,sans-Serif" font-size="10.00">Batch.doTick</text>
</a>
</g>
</g>
<!-- Node6&#45;&gt;Node7 -->
<g id="edge6" class="edge"><title>Node6&#45;&gt;Node7</title>
<path fill="none" stroke="midnightblue" d="M1093.32,-64.5C1101.79,-64.5 1110.41,-64.5 1118.89,-64.5"/>
<polygon fill="midnightblue" stroke="midnightblue" points="1093.09,-61.0001 1083.09,-64.5 1093.09,-68.0001 1093.09,-61.0001"/>
</g>
<!-- Node8 -->
<g id="node8" class="node"><title>Node8</title>
<g id="a_node8"><a xlink:href="../../dd/da5/classnars_1_1storage_1_1Memory_1_1ReasonerBatch_aed591f05899b98fd9e4ad01836ad0a40.html#aed591f05899b98fd9e4ad01836ad0a40" target="_top" xlink:title="A clock tick. ">
<polygon fill="none" stroke="black" points="1309,-49.5 1309,-79.5 1463,-79.5 1463,-49.5 1309,-49.5"/>
<text text-anchor="start" x="1317" y="-67.5" font-family="Helvetica,sans-Serif" font-size="10.00">nars.storage.Memory.Reasoner</text>
<text text-anchor="middle" x="1386" y="-56.5" font-family="Helvetica,sans-Serif" font-size="10.00">Batch.tick</text>
</a>
</g>
</g>
<!-- Node7&#45;&gt;Node8 -->
<g id="edge7" class="edge"><title>Node7&#45;&gt;Node8</title>
<path fill="none" stroke="midnightblue" d="M1283.42,-64.5C1291.86,-64.5 1300.37,-64.5 1308.7,-64.5"/>
<polygon fill="midnightblue" stroke="midnightblue" points="1283.2,-61.0001 1273.2,-64.5 1283.2,-68.0001 1283.2,-61.0001"/>
</g>
<!-- Node9 -->
<g id="node9" class="node"><title>Node9</title>
<g id="a_node9"><a xlink:href="../../d4/d88/classnars_1_1storage_1_1Memory_1_1NARSBatch_aad99db6cedde9cff2a997db8906ff821.html#aad99db6cedde9cff2a997db8906ff821" target="_top" xlink:title="Run to completion: repeatedly execute NARS working cycle, until Inputs are Finished, or 1000 steps. ">
<polygon fill="none" stroke="black" points="1499,-55 1499,-74 1681,-74 1681,-55 1499,-55"/>
<text text-anchor="middle" x="1590" y="-62" font-family="Helvetica,sans-Serif" font-size="10.00">nars.storage.Memory.NARSBatch.run</text>
</a>
</g>
</g>
<!-- Node8&#45;&gt;Node9 -->
<g id="edge8" class="edge"><title>Node8&#45;&gt;Node9</title>
<path fill="none" stroke="midnightblue" d="M1473.27,-64.5C1481.69,-64.5 1490.25,-64.5 1498.71,-64.5"/>
<polygon fill="midnightblue" stroke="midnightblue" points="1473.08,-61.0001 1463.08,-64.5 1473.08,-68.0001 1473.08,-61.0001"/>
</g>
<!-- Node10 -->
<g id="node10" class="node"><title>Node10</title>
<g id="a_node10"><a xlink:href="../../d4/d88/classnars_1_1storage_1_1Memory_1_1NARSBatch_a416c39463faa161661ed1d12fea03b3c.html#a416c39463faa161661ed1d12fea03b3c" target="_top" xlink:title="non&#45;static equivalent to main(String[]) : run to completion from an input file ">
<polygon fill="none" stroke="black" points="1717,-49.5 1717,-79.5 1899,-79.5 1899,-49.5 1717,-49.5"/>
<text text-anchor="start" x="1725" y="-67.5" font-family="Helvetica,sans-Serif" font-size="10.00">nars.storage.Memory.NARSBatch.run</text>
<text text-anchor="middle" x="1808" y="-56.5" font-family="Helvetica,sans-Serif" font-size="10.00">Inference</text>
</a>
</g>
</g>
<!-- Node9&#45;&gt;Node10 -->
<g id="edge9" class="edge"><title>Node9&#45;&gt;Node10</title>
<path fill="none" stroke="midnightblue" d="M1691.06,-64.5C1699.63,-64.5 1708.27,-64.5 1716.76,-64.5"/>
<polygon fill="midnightblue" stroke="midnightblue" points="1691.04,-61.0001 1681.04,-64.5 1691.04,-68.0001 1691.04,-61.0001"/>
</g>
<!-- Node11 -->
<g id="node11" class="node"><title>Node11</title>
<g id="a_node11"><a xlink:href="../../d4/d88/classnars_1_1storage_1_1Memory_1_1NARSBatch_aa97fcd68270583e60e6bf1b4579d1bdc.html#aa97fcd68270583e60e6bf1b4579d1bdc" target="_top" xlink:title="The entry point of the standalone application. ">
<polygon fill="none" stroke="black" points="1935,-55 1935,-74 2125,-74 2125,-55 1935,-55"/>
<text text-anchor="middle" x="2030" y="-62" font-family="Helvetica,sans-Serif" font-size="10.00">nars.storage.Memory.NARSBatch.main</text>
</a>
</g>
</g>
<!-- Node10&#45;&gt;Node11 -->
<g id="edge10" class="edge"><title>Node10&#45;&gt;Node11</title>
<path fill="none" stroke="midnightblue" d="M1909.37,-64.5C1917.82,-64.5 1926.34,-64.5 1934.74,-64.5"/>
<polygon fill="midnightblue" stroke="midnightblue" points="1909.12,-61.0001 1899.12,-64.5 1909.12,-68.0001 1909.12,-61.0001"/>
</g>
<!-- Node13 -->
<g id="node13" class="node"><title>Node13</title>
<g id="a_node13"><a xlink:href="../../d4/d22/classnars_1_1entity_1_1Concept_a9ea7c3154932d7a736c105eb55daeb5c.html#a9ea7c3154932d7a736c105eb55daeb5c" target="_top" xlink:title="Directly process a new task. ">
<polygon fill="none" stroke="black" points="393,-27.5 393,-57.5 522,-57.5 522,-27.5 393,-27.5"/>
<text text-anchor="start" x="401" y="-45.5" font-family="Helvetica,sans-Serif" font-size="10.00">nars.entity.Concept.direct</text>
<text text-anchor="middle" x="457.5" y="-34.5" font-family="Helvetica,sans-Serif" font-size="10.00">Process</text>
</a>
</g>
</g>
<!-- Node12&#45;&gt;Node13 -->
<g id="edge12" class="edge"><title>Node12&#45;&gt;Node13</title>
<path fill="none" stroke="midnightblue" d="M340.386,-58.5362C357.875,-56.1209 376.177,-53.5932 392.943,-51.2776"/>
<polygon fill="midnightblue" stroke="midnightblue" points="339.628,-55.1075 330.201,-59.9428 340.586,-62.0417 339.628,-55.1075"/>
</g>
<!-- Node14 -->
<g id="node14" class="node"><title>Node14</title>
<g id="a_node14"><a xlink:href="../../d8/df4/classnars_1_1storage_1_1Memory_a175200c1f4c182222d0e66439b6e53a0.html#a175200c1f4c182222d0e66439b6e53a0" target="_top" xlink:title="Immediate processing of a new task, in constant time Local processing, in one concept only...">
<polygon fill="none" stroke="black" points="575,-27.5 575,-57.5 732,-57.5 732,-27.5 575,-27.5"/>
<text text-anchor="start" x="583" y="-45.5" font-family="Helvetica,sans-Serif" font-size="10.00">nars.storage.Memory.immediate</text>
<text text-anchor="middle" x="653.5" y="-34.5" font-family="Helvetica,sans-Serif" font-size="10.00">Process</text>
</a>
</g>
</g>
<!-- Node13&#45;&gt;Node14 -->
<g id="edge13" class="edge"><title>Node13&#45;&gt;Node14</title>
<path fill="none" stroke="midnightblue" d="M532.088,-42.5C546.105,-42.5 560.815,-42.5 574.95,-42.5"/>
<polygon fill="midnightblue" stroke="midnightblue" points="532.023,-39.0001 522.023,-42.5 532.023,-46.0001 532.023,-39.0001"/>
</g>
<!-- Node15 -->
<g id="node15" class="node"><title>Node15</title>
<g id="a_node15"><a xlink:href="../../d8/df4/classnars_1_1storage_1_1Memory_a105e44a3504921cc1036eb979b85d9f0.html#a105e44a3504921cc1036eb979b85d9f0" target="_top" xlink:title="Process the newTasks accumulated in the previous workCycle, accept input ones and those that correspo...">
<polygon fill="none" stroke="black" points="768,-49.5 768,-79.5 914,-79.5 914,-49.5 768,-49.5"/>
<text text-anchor="start" x="776" y="-67.5" font-family="Helvetica,sans-Serif" font-size="10.00">nars.storage.Memory.process</text>
<text text-anchor="middle" x="841" y="-56.5" font-family="Helvetica,sans-Serif" font-size="10.00">NewTask</text>
</a>
</g>
</g>
<!-- Node14&#45;&gt;Node15 -->
<g id="edge14" class="edge"><title>Node14&#45;&gt;Node15</title>
<path fill="none" stroke="midnightblue" d="M742.125,-52.8921C750.707,-53.91 759.349,-54.9349 767.754,-55.9317"/>
<polygon fill="midnightblue" stroke="midnightblue" points="742.437,-49.4047 732.094,-51.7025 741.612,-56.356 742.437,-49.4047"/>
</g>
<!-- Node16 -->
<g id="node16" class="node"><title>Node16</title>
<g id="a_node16"><a xlink:href="../../d8/df4/classnars_1_1storage_1_1Memory_afe3b4d1bb5fab652ceca53c04773af73.html#afe3b4d1bb5fab652ceca53c04773af73" target="_top" xlink:title="Select a novel task to process. ">
<polygon fill="none" stroke="black" points="768,-0.5 768,-30.5 914,-30.5 914,-0.5 768,-0.5"/>
<text text-anchor="start" x="776" y="-18.5" font-family="Helvetica,sans-Serif" font-size="10.00">nars.storage.Memory.process</text>
<text text-anchor="middle" x="841" y="-7.5" font-family="Helvetica,sans-Serif" font-size="10.00">NovelTask</text>
</a>
</g>
</g>
<!-- Node14&#45;&gt;Node16 -->
<g id="edge16" class="edge"><title>Node14&#45;&gt;Node16</title>
<path fill="none" stroke="midnightblue" d="M742.125,-29.746C750.707,-28.4968 759.349,-27.239 767.754,-26.0156"/>
<polygon fill="midnightblue" stroke="midnightblue" points="741.485,-26.3021 732.094,-31.206 742.494,-33.2291 741.485,-26.3021"/>
</g>
<!-- Node15&#45;&gt;Node6 -->
<g id="edge15" class="edge"><title>Node15&#45;&gt;Node6</title>
<path fill="none" stroke="midnightblue" d="M924.118,-64.5C932.716,-64.5 941.375,-64.5 949.755,-64.5"/>
<polygon fill="midnightblue" stroke="midnightblue" points="924.072,-61.0001 914.072,-64.5 924.072,-68.0001 924.072,-61.0001"/>
</g>
<!-- Node16&#45;&gt;Node6 -->
<g id="edge17" class="edge"><title>Node16&#45;&gt;Node6</title>
<path fill="none" stroke="midnightblue" d="M905.102,-33.3212C923.835,-38.6118 944.16,-44.3522 962.205,-49.4484"/>
<polygon fill="midnightblue" stroke="midnightblue" points="906.046,-29.9512 895.471,-30.6014 904.144,-36.6877 906.046,-29.9512"/>
</g>
<!-- Node17&#45;&gt;Node13 -->
<g id="edge19" class="edge"><title>Node17&#45;&gt;Node13</title>
<path fill="none" stroke="midnightblue" d="M340.386,-29.4335C357.875,-31.4015 376.177,-33.4611 392.943,-35.3478"/>
<polygon fill="midnightblue" stroke="midnightblue" points="340.53,-25.9276 330.201,-28.2873 339.747,-32.8837 340.53,-25.9276"/>
</g>
</g>
</svg>
