<?xml version="1.0" encoding="UTF-8" standalone="no"?>
<!DOCTYPE svg PUBLIC "-//W3C//DTD SVG 1.1//EN"
 "http://www.w3.org/Graphics/SVG/1.1/DTD/svg11.dtd">
<!-- Generated by graphviz version 2.38.0 (20140413.2041)
 -->
<!-- Title: nars.inference.LocalRules.solutionQuality Pages: 1 -->
<svg width="562pt" height="274pt"
 viewBox="0.00 0.00 562.00 274.00" xmlns="http://www.w3.org/2000/svg" xmlns:xlink="http://www.w3.org/1999/xlink">
<g id="graph0" class="graph" transform="scale(1 1) rotate(0) translate(4 270)">
<title>nars.inference.LocalRules.solutionQuality</title>
<!-- Node1 -->
<g id="node1" class="node"><title>Node1</title>
<polygon fill="#bfbfbf" stroke="black" points="0,-122.5 0,-152.5 167,-152.5 167,-122.5 0,-122.5"/>
<text text-anchor="start" x="8" y="-140.5" font-family="Helvetica,sans-Serif" font-size="10.00">nars.inference.LocalRules.solution</text>
<text text-anchor="middle" x="83.5" y="-129.5" font-family="Helvetica,sans-Serif" font-size="10.00">Quality</text>
</g>
<!-- Node2 -->
<g id="node2" class="node"><title>Node2</title>
<g id="a_node2"><a xlink:href="../../d6/d25/classnars_1_1entity_1_1Sentence_a3664d0b53eca935536d60cd0e3a13256.html#a3664d0b53eca935536d60cd0e3a13256" target="_top" xlink:title="nars.entity.Sentence.contain\lQueryVar">
<polygon fill="none" stroke="black" points="217,-235.5 217,-265.5 358,-265.5 358,-235.5 217,-235.5"/>
<text text-anchor="start" x="225" y="-253.5" font-family="Helvetica,sans-Serif" font-size="10.00">nars.entity.Sentence.contain</text>
<text text-anchor="middle" x="287.5" y="-242.5" font-family="Helvetica,sans-Serif" font-size="10.00">QueryVar</text>
</a>
</g>
</g>
<!-- Node1&#45;&gt;Node2 -->
<g id="edge1" class="edge"><title>Node1&#45;&gt;Node2</title>
<path fill="none" stroke="midnightblue" d="M100.918,-152.65C122.723,-172.042 163.143,-205.512 203,-225.5 207.534,-227.774 212.311,-229.88 217.191,-231.825"/>
<polygon fill="midnightblue" stroke="midnightblue" points="216.073,-235.143 226.666,-235.366 218.524,-228.586 216.073,-235.143"/>
</g>
<!-- Node4 -->
<g id="node4" class="node"><title>Node4</title>
<g id="a_node4"><a xlink:href="../../d8/db8/classnars_1_1language_1_1Term_ae14632d1d25bcde8d6698ea0b58eb19a.html#ae14632d1d25bcde8d6698ea0b58eb19a" target="_top" xlink:title="The syntactic complexity, for constant automic Term, is 1. ">
<polygon fill="none" stroke="black" points="203,-197 203,-216 372,-216 372,-197 203,-197"/>
<text text-anchor="middle" x="287.5" y="-204" font-family="Helvetica,sans-Serif" font-size="10.00">nars.language.Term.getComplexity</text>
</a>
</g>
</g>
<!-- Node1&#45;&gt;Node4 -->
<g id="edge3" class="edge"><title>Node1&#45;&gt;Node4</title>
<path fill="none" stroke="midnightblue" d="M116.113,-152.633C139.66,-163.461 172.818,-177.782 203,-187.5 211.035,-190.087 219.614,-192.462 228.1,-194.59"/>
<polygon fill="midnightblue" stroke="midnightblue" points="227.439,-198.031 237.981,-196.974 229.08,-191.226 227.439,-198.031"/>
</g>
<!-- Node5 -->
<g id="node5" class="node"><title>Node5</title>
<g id="a_node5"><a xlink:href="../../d3/db8/classnars_1_1entity_1_1TruthValue_a68ca7d92e9ea20d2a9a9f578ad7b681c.html#a68ca7d92e9ea20d2a9a9f578ad7b681c" target="_top" xlink:title="Get the confidence value. ">
<polygon fill="none" stroke="black" points="223,-147.5 223,-177.5 352,-177.5 352,-147.5 223,-147.5"/>
<text text-anchor="start" x="231" y="-165.5" font-family="Helvetica,sans-Serif" font-size="10.00">nars.entity.TruthValue.get</text>
<text text-anchor="middle" x="287.5" y="-154.5" font-family="Helvetica,sans-Serif" font-size="10.00">Confidence</text>
</a>
</g>
</g>
<!-- Node1&#45;&gt;Node5 -->
<g id="edge4" class="edge"><title>Node1&#45;&gt;Node5</title>
<path fill="none" stroke="midnightblue" d="M167.244,-147.741C182.293,-149.603 197.902,-151.535 212.673,-153.363"/>
<polygon fill="midnightblue" stroke="midnightblue" points="212.394,-156.855 222.748,-154.61 213.254,-149.908 212.394,-156.855"/>
</g>
<!-- Node6 -->
<g id="node6" class="node"><title>Node6</title>
<g id="a_node6"><a xlink:href="../../d6/d25/classnars_1_1entity_1_1Sentence_ad1ded9a02cae3557948d05530cd4d37e.html#ad1ded9a02cae3557948d05530cd4d37e" target="_top" xlink:title="Get the content of the sentence. ">
<polygon fill="none" stroke="black" points="226,-98.5 226,-128.5 349,-128.5 349,-98.5 226,-98.5"/>
<text text-anchor="start" x="234" y="-116.5" font-family="Helvetica,sans-Serif" font-size="10.00">nars.entity.Sentence.get</text>
<text text-anchor="middle" x="287.5" y="-105.5" font-family="Helvetica,sans-Serif" font-size="10.00">Content</text>
</a>
</g>
</g>
<!-- Node1&#45;&gt;Node6 -->
<g id="edge5" class="edge"><title>Node1&#45;&gt;Node6</title>
<path fill="none" stroke="midnightblue" d="M167.244,-127.669C183.332,-125.758 200.059,-123.77 215.719,-121.91"/>
<polygon fill="midnightblue" stroke="midnightblue" points="216.321,-125.363 225.838,-120.707 215.495,-118.412 216.321,-125.363"/>
</g>
<!-- Node7 -->
<g id="node7" class="node"><title>Node7</title>
<g id="a_node7"><a xlink:href="../../d3/db8/classnars_1_1entity_1_1TruthValue_aa5ffcde3ae611b087ba7fdd4cd67b216.html#aa5ffcde3ae611b087ba7fdd4cd67b216" target="_top" xlink:title="Calculate the expectation value of the truth value. ">
<polygon fill="none" stroke="black" points="223,-49.5 223,-79.5 352,-79.5 352,-49.5 223,-49.5"/>
<text text-anchor="start" x="231" y="-67.5" font-family="Helvetica,sans-Serif" font-size="10.00">nars.entity.TruthValue.get</text>
<text text-anchor="middle" x="287.5" y="-56.5" font-family="Helvetica,sans-Serif" font-size="10.00">Expectation</text>
</a>
</g>
</g>
<!-- Node1&#45;&gt;Node7 -->
<g id="edge6" class="edge"><title>Node1&#45;&gt;Node7</title>
<path fill="none" stroke="midnightblue" d="M119.171,-122.453C142.623,-112.523 174.415,-99.5437 203,-89.5 209.523,-87.2082 216.377,-84.9382 223.236,-82.7551"/>
<polygon fill="midnightblue" stroke="midnightblue" points="224.75,-85.949 233.252,-79.6265 222.663,-79.2674 224.75,-85.949"/>
</g>
<!-- Node8 -->
<g id="node8" class="node"><title>Node8</title>
<g id="a_node8"><a xlink:href="../../d6/d25/classnars_1_1entity_1_1Sentence_a9f69b4fef64c81abad21404946cd41f9.html#a9f69b4fef64c81abad21404946cd41f9" target="_top" xlink:title="Get the truth value of the sentence. ">
<polygon fill="none" stroke="black" points="226,-0.5 226,-30.5 349,-30.5 349,-0.5 226,-0.5"/>
<text text-anchor="start" x="234" y="-18.5" font-family="Helvetica,sans-Serif" font-size="10.00">nars.entity.Sentence.get</text>
<text text-anchor="middle" x="287.5" y="-7.5" font-family="Helvetica,sans-Serif" font-size="10.00">Truth</text>
</a>
</g>
</g>
<!-- Node1&#45;&gt;Node8 -->
<g id="edge7" class="edge"><title>Node1&#45;&gt;Node8</title>
<path fill="none" stroke="midnightblue" d="M99.1603,-122.157C120.244,-100.928 161.21,-62.7064 203,-40.5 207.205,-38.2655 211.638,-36.2026 216.18,-34.3028"/>
<polygon fill="midnightblue" stroke="midnightblue" points="217.566,-37.519 225.615,-30.6298 215.027,-30.9958 217.566,-37.519"/>
</g>
<!-- Node3 -->
<g id="node3" class="node"><title>Node3</title>
<g id="a_node3"><a xlink:href="../../d8/db8/classnars_1_1language_1_1Term_a3aad4654016b8615fd4fa8a26668e1db.html#a3aad4654016b8615fd4fa8a26668e1db" target="_top" xlink:title="Reporting the name of the current Term. ">
<polygon fill="none" stroke="black" points="408,-241 408,-260 554,-260 554,-241 408,-241"/>
<text text-anchor="middle" x="481" y="-248" font-family="Helvetica,sans-Serif" font-size="10.00">nars.language.Term.getName</text>
</a>
</g>
</g>
<!-- Node2&#45;&gt;Node3 -->
<g id="edge2" class="edge"><title>Node2&#45;&gt;Node3</title>
<path fill="none" stroke="midnightblue" d="M358.178,-250.5C371.046,-250.5 384.594,-250.5 397.792,-250.5"/>
<polygon fill="midnightblue" stroke="midnightblue" points="397.799,-254 407.799,-250.5 397.799,-247 397.799,-254"/>
</g>
</g>
</svg>
