<?xml version="1.0" encoding="UTF-8" standalone="no"?>
<!DOCTYPE svg PUBLIC "-//W3C//DTD SVG 1.1//EN"
 "http://www.w3.org/Graphics/SVG/1.1/DTD/svg11.dtd">
<!-- Generated by graphviz version 2.38.0 (20140413.2041)
 -->
<!-- Title: nars.inference.LocalRules.revisible Pages: 1 -->
<svg width="529pt" height="127pt"
 viewBox="0.00 0.00 529.00 126.50" xmlns="http://www.w3.org/2000/svg" xmlns:xlink="http://www.w3.org/1999/xlink">
<g id="graph0" class="graph" transform="scale(1 1) rotate(0) translate(4 122.5)">
<title>nars.inference.LocalRules.revisible</title>
<!-- Node1 -->
<g id="node1" class="node"><title>Node1</title>
<polygon fill="#bfbfbf" stroke="black" points="0,-55 0,-74 169,-74 169,-55 0,-55"/>
<text text-anchor="middle" x="84.5" y="-62" font-family="Helvetica,sans-Serif" font-size="10.00">nars.inference.LocalRules.revisible</text>
</g>
<!-- Node2 -->
<g id="node2" class="node"><title>Node2</title>
<g id="a_node2"><a xlink:href="../../d8/db8/classnars_1_1language_1_1Term_ad85f45a7858737445d5158801774ff5f.html#ad85f45a7858737445d5158801774ff5f" target="_top" xlink:title="Equal terms have identical name, though not necessarily the same reference. ">
<polygon fill="none" stroke="black" points="205,-99 205,-118 339,-118 339,-99 205,-99"/>
<text text-anchor="middle" x="272" y="-106" font-family="Helvetica,sans-Serif" font-size="10.00">nars.language.Term.equals</text>
</a>
</g>
</g>
<!-- Node1&#45;&gt;Node2 -->
<g id="edge1" class="edge"><title>Node1&#45;&gt;Node2</title>
<path fill="none" stroke="midnightblue" d="M125.751,-74.0473C153.705,-80.6781 191.147,-89.5591 221.014,-96.6435"/>
<polygon fill="midnightblue" stroke="midnightblue" points="220.29,-100.069 230.828,-98.9713 221.906,-93.2578 220.29,-100.069"/>
</g>
<!-- Node4 -->
<g id="node4" class="node"><title>Node4</title>
<g id="a_node4"><a xlink:href="../../d6/d25/classnars_1_1entity_1_1Sentence_ad1ded9a02cae3557948d05530cd4d37e.html#ad1ded9a02cae3557948d05530cd4d37e" target="_top" xlink:title="Get the content of the sentence. ">
<polygon fill="none" stroke="black" points="210.5,-49.5 210.5,-79.5 333.5,-79.5 333.5,-49.5 210.5,-49.5"/>
<text text-anchor="start" x="218.5" y="-67.5" font-family="Helvetica,sans-Serif" font-size="10.00">nars.entity.Sentence.get</text>
<text text-anchor="middle" x="272" y="-56.5" font-family="Helvetica,sans-Serif" font-size="10.00">Content</text>
</a>
</g>
</g>
<!-- Node1&#45;&gt;Node4 -->
<g id="edge3" class="edge"><title>Node1&#45;&gt;Node4</title>
<path fill="none" stroke="midnightblue" d="M169.025,-64.5C179.483,-64.5 190.099,-64.5 200.334,-64.5"/>
<polygon fill="midnightblue" stroke="midnightblue" points="200.422,-68.0001 210.422,-64.5 200.422,-61.0001 200.422,-68.0001"/>
</g>
<!-- Node5 -->
<g id="node5" class="node"><title>Node5</title>
<g id="a_node5"><a xlink:href="../../d6/d25/classnars_1_1entity_1_1Sentence_ae57a195c3623dc9b8245d977adc94b4d.html#ae57a195c3623dc9b8245d977adc94b4d" target="_top" xlink:title="nars.entity.Sentence.get\lRevisible">
<polygon fill="none" stroke="black" points="210.5,-0.5 210.5,-30.5 333.5,-30.5 333.5,-0.5 210.5,-0.5"/>
<text text-anchor="start" x="218.5" y="-18.5" font-family="Helvetica,sans-Serif" font-size="10.00">nars.entity.Sentence.get</text>
<text text-anchor="middle" x="272" y="-7.5" font-family="Helvetica,sans-Serif" font-size="10.00">Revisible</text>
</a>
</g>
</g>
<!-- Node1&#45;&gt;Node5 -->
<g id="edge4" class="edge"><title>Node1&#45;&gt;Node5</title>
<path fill="none" stroke="midnightblue" d="M121.707,-54.936C145.192,-48.7324 176.498,-40.4629 204.375,-33.099"/>
<polygon fill="midnightblue" stroke="midnightblue" points="205.3,-36.4749 214.074,-30.537 203.512,-29.707 205.3,-36.4749"/>
</g>
<!-- Node3 -->
<g id="node3" class="node"><title>Node3</title>
<g id="a_node3"><a xlink:href="../../d8/db8/classnars_1_1language_1_1Term_a3aad4654016b8615fd4fa8a26668e1db.html#a3aad4654016b8615fd4fa8a26668e1db" target="_top" xlink:title="Reporting the name of the current Term. ">
<polygon fill="none" stroke="black" points="375,-99 375,-118 521,-118 521,-99 375,-99"/>
<text text-anchor="middle" x="448" y="-106" font-family="Helvetica,sans-Serif" font-size="10.00">nars.language.Term.getName</text>
</a>
</g>
</g>
<!-- Node2&#45;&gt;Node3 -->
<g id="edge2" class="edge"><title>Node2&#45;&gt;Node3</title>
<path fill="none" stroke="midnightblue" d="M339.278,-108.5C347.631,-108.5 356.254,-108.5 364.814,-108.5"/>
<polygon fill="midnightblue" stroke="midnightblue" points="364.815,-112 374.815,-108.5 364.815,-105 364.815,-112"/>
</g>
</g>
</svg>
