<?xml version="1.0" encoding="UTF-8" standalone="no"?>
<!DOCTYPE svg PUBLIC "-//W3C//DTD SVG 1.1//EN"
 "http://www.w3.org/Graphics/SVG/1.1/DTD/svg11.dtd">
<!-- Generated by graphviz version 2.38.0 (20140413.2041)
 -->
<!-- Title: nars.storage.Memory.init Pages: 1 -->
<!--zoomable 378 -->
<svg id="main" version="1.1" xmlns="http://www.w3.org/2000/svg" xmlns:xlink="http://www.w3.org/1999/xlink" xml:space="preserve" onload="init(evt)">
<style type="text/css"><![CDATA[
.edge:hover path { stroke: red; }
.edge:hover polygon { stroke: red; fill: red; }
]]></style>
<script type="text/javascript"><![CDATA[
var edges = document.getElementsByTagName('g');
if (edges && edges.length) {
  for (var i=0;i<edges.length;i++) {
    if (edges[i].id.substr(0,4)=='edge') {
      edges[i].setAttribute('class','edge');
    }
  }
}
]]></script>
        <defs>
                <circle id="rim" cx="0" cy="0" r="7"/>
                <circle id="rim2" cx="0" cy="0" r="3.5"/>
                <g id="zoomPlus">
                        <use xlink:href="#rim" fill="#404040">
                                <set attributeName="fill" to="#808080" begin="zoomplus.mouseover" end="zoomplus.mouseout"/>
                        </use>
                        <path d="M-4,0h8M0,-4v8" fill="none" stroke="white" stroke-width="1.5" pointer-events="none"/>
                </g>
                <g id="zoomMin">
                        <use xlink:href="#rim" fill="#404040">
                                <set attributeName="fill" to="#808080" begin="zoomminus.mouseover" end="zoomminus.mouseout"/>
                        </use>
                        <path d="M-4,0h8" fill="none" stroke="white" stroke-width="1.5" pointer-events="none"/>
                </g>
                <g id="dirArrow">
                        <path fill="none" stroke="white" stroke-width="1.5" d="M0,-3.0v7 M-2.5,-0.5L0,-3.0L2.5,-0.5"/>
                </g>
               <g id="resetDef">
                       <use xlink:href="#rim2" fill="#404040">
                               <set attributeName="fill" to="#808080" begin="reset.mouseover" end="reset.mouseout"/>
                       </use>
               </g>
        </defs>

<script type="text/javascript">
var viewWidth = 526;
var viewHeight = 378;
var sectionId = 'dynsection-0';
</script>
<script xlink:href="../../svgpan.js"/>
<svg id="graph" class="graph">
<g id="viewport">
<title>nars.storage.Memory.init</title>
<!-- Node1 -->
<g id="node1" class="node"><title>Node1</title>
<polygon fill="#bfbfbf" stroke="black" points="0,-170 0,-189 125,-189 125,-170 0,-170"/>
<text text-anchor="middle" x="62.5" y="-177" font-family="Helvetica,sans-Serif" font-size="10.00">nars.storage.Memory.init</text>
</g>
<!-- Node2 -->
<g id="node2" class="node"><title>Node2</title>
<g id="a_node2"><a xlink:href="../../db/d34/interfacenars_1_1io_1_1IInferenceRecorder_acb473be6e5d774c10781bc8e74453459.html#acb473be6e5d774c10781bc8e74453459" target="_top" xlink:title="Add new text to display. ">
<polygon fill="none" stroke="black" points="161,-350 161,-369 328,-369 328,-350 161,-350"/>
<text text-anchor="middle" x="244.5" y="-357" font-family="Helvetica,sans-Serif" font-size="10.00">nars.io.IInferenceRecorder.append</text>
</a>
</g>
</g>
<!-- Node1&#45;&gt;Node2 -->
<g id="edge1" class="edge"><title>Node1&#45;&gt;Node2</title>
<path fill="none" stroke="midnightblue" d="M66.4275,-189.331C75.4107,-217.706 105.403,-300.276 161,-340.5 163.679,-342.438 166.525,-344.183 169.487,-345.753"/>
<polygon fill="midnightblue" stroke="midnightblue" points="168.123,-348.977 178.672,-349.956 171.036,-342.612 168.123,-348.977"/>
</g>
<!-- Node3 -->
<g id="node3" class="node"><title>Node3</title>
<g id="a_node3"><a xlink:href="../../d8/df4/classnars_1_1storage_1_1Memory_a33af7b3d806d32c85390563fec3c6d27.html#a33af7b3d806d32c85390563fec3c6d27" target="_top" xlink:title="Concept bag. ">
<polygon fill="none" stroke="black" points="161,-312 161,-331 328,-331 328,-312 161,-312"/>
<text text-anchor="middle" x="244.5" y="-319" font-family="Helvetica,sans-Serif" font-size="10.00">nars.storage.Memory.getConcepts</text>
</a>
</g>
</g>
<!-- Node1&#45;&gt;Node3 -->
<g id="edge2" class="edge"><title>Node1&#45;&gt;Node3</title>
<path fill="none" stroke="midnightblue" d="M68.2934,-189.334C80.3283,-212.924 114.235,-272.956 161,-302.5 164.33,-304.604 167.866,-306.475 171.53,-308.14"/>
<polygon fill="midnightblue" stroke="midnightblue" points="170.268,-311.405 180.853,-311.867 172.867,-304.905 170.268,-311.405"/>
</g>
<!-- Node4 -->
<g id="node4" class="node"><title>Node4</title>
<g id="a_node4"><a xlink:href="../../d8/df4/classnars_1_1storage_1_1Memory_a1a17565c7b06ca4ecc1ed57c3fce973f.html#a1a17565c7b06ca4ecc1ed57c3fce973f" target="_top" xlink:title="List of Strings or Tasks to be sent to the output channels. ">
<polygon fill="none" stroke="black" points="167.5,-262.5 167.5,-292.5 321.5,-292.5 321.5,-262.5 167.5,-262.5"/>
<text text-anchor="start" x="175.5" y="-280.5" font-family="Helvetica,sans-Serif" font-size="10.00">nars.storage.Memory.getExport</text>
<text text-anchor="middle" x="244.5" y="-269.5" font-family="Helvetica,sans-Serif" font-size="10.00">Strings</text>
</a>
</g>
</g>
<!-- Node1&#45;&gt;Node4 -->
<g id="edge3" class="edge"><title>Node1&#45;&gt;Node4</title>
<path fill="none" stroke="midnightblue" d="M73.4632,-189.088C90.2212,-204.721 125.692,-235.735 161,-253.5 164.748,-255.386 168.668,-257.147 172.677,-258.788"/>
<polygon fill="midnightblue" stroke="midnightblue" points="171.564,-262.109 182.154,-262.401 174.057,-255.568 171.564,-262.109"/>
</g>
<!-- Node5 -->
<g id="node5" class="node"><title>Node5</title>
<g id="a_node5"><a xlink:href="../../d8/df4/classnars_1_1storage_1_1Memory_a8c50bdf4f2750032f24965e12e9fb59c.html#a8c50bdf4f2750032f24965e12e9fb59c" target="_top" xlink:title="List of new tasks accumulated in one cycle, to be processed in the next cycle. ">
<polygon fill="none" stroke="black" points="171.5,-213.5 171.5,-243.5 317.5,-243.5 317.5,-213.5 171.5,-213.5"/>
<text text-anchor="start" x="179.5" y="-231.5" font-family="Helvetica,sans-Serif" font-size="10.00">nars.storage.Memory.getNew</text>
<text text-anchor="middle" x="244.5" y="-220.5" font-family="Helvetica,sans-Serif" font-size="10.00">Tasks</text>
</a>
</g>
</g>
<!-- Node1&#45;&gt;Node5 -->
<g id="edge4" class="edge"><title>Node1&#45;&gt;Node5</title>
<path fill="none" stroke="midnightblue" d="M98.6331,-189.064C121.322,-195.24 151.534,-203.465 178.496,-210.804"/>
<polygon fill="midnightblue" stroke="midnightblue" points="177.694,-214.213 188.262,-213.463 179.533,-207.459 177.694,-214.213"/>
</g>
<!-- Node6 -->
<g id="node6" class="node"><title>Node6</title>
<g id="a_node6"><a xlink:href="../../d8/df4/classnars_1_1storage_1_1Memory_aa15a4cd104018dc9b98ceaa12d54255d.html#aa15a4cd104018dc9b98ceaa12d54255d" target="_top" xlink:title="New tasks with novel composed terms, for delayed and selective processing. ">
<polygon fill="none" stroke="black" points="169,-164.5 169,-194.5 320,-194.5 320,-164.5 169,-164.5"/>
<text text-anchor="start" x="177" y="-182.5" font-family="Helvetica,sans-Serif" font-size="10.00">nars.storage.Memory.getNovel</text>
<text text-anchor="middle" x="244.5" y="-171.5" font-family="Helvetica,sans-Serif" font-size="10.00">Tasks</text>
</a>
</g>
</g>
<!-- Node1&#45;&gt;Node6 -->
<g id="edge5" class="edge"><title>Node1&#45;&gt;Node6</title>
<path fill="none" stroke="midnightblue" d="M125.194,-179.5C135.947,-179.5 147.299,-179.5 158.547,-179.5"/>
<polygon fill="midnightblue" stroke="midnightblue" points="158.826,-183 168.826,-179.5 158.826,-176 158.826,-183"/>
</g>
<!-- Node7 -->
<g id="node7" class="node"><title>Node7</title>
<g id="a_node7"><a xlink:href="../../d8/df4/classnars_1_1storage_1_1Memory_a076ad9a0e872386bca3f2d17fa7cb2d4.html#a076ad9a0e872386bca3f2d17fa7cb2d4" target="_top" xlink:title="Backward pointer to the reasoner. ">
<polygon fill="none" stroke="black" points="161,-126 161,-145 328,-145 328,-126 161,-126"/>
<text text-anchor="middle" x="244.5" y="-133" font-family="Helvetica,sans-Serif" font-size="10.00">nars.storage.Memory.getReasoner</text>
</a>
</g>
</g>
<!-- Node1&#45;&gt;Node7 -->
<g id="edge6" class="edge"><title>Node1&#45;&gt;Node7</title>
<path fill="none" stroke="midnightblue" d="M102.397,-169.892C120.249,-165.491 141.695,-160.216 161,-155.5 171.742,-152.876 183.274,-150.072 194.211,-147.419"/>
<polygon fill="midnightblue" stroke="midnightblue" points="195.153,-150.792 204.047,-145.034 193.504,-143.989 195.153,-150.792"/>
</g>
<!-- Node8 -->
<g id="node8" class="node"><title>Node8</title>
<g id="a_node8"><a xlink:href="../../d8/df4/classnars_1_1storage_1_1Memory_aa4c7e1f5823d0404c0cab49b617968f1.html#aa4c7e1f5823d0404c0cab49b617968f1" target="_top" xlink:title="Inference record text to be written into a log file. ">
<polygon fill="none" stroke="black" points="162,-88 162,-107 327,-107 327,-88 162,-88"/>
<text text-anchor="middle" x="244.5" y="-95" font-family="Helvetica,sans-Serif" font-size="10.00">nars.storage.Memory.getRecorder</text>
</a>
</g>
</g>
<!-- Node1&#45;&gt;Node8 -->
<g id="edge7" class="edge"><title>Node1&#45;&gt;Node8</title>
<path fill="none" stroke="midnightblue" d="M75.3429,-169.875C92.959,-156.034 127.588,-130.627 161,-116.5 167.094,-113.923 173.596,-111.665 180.174,-109.694"/>
<polygon fill="midnightblue" stroke="midnightblue" points="181.132,-113.06 189.826,-107.006 179.254,-106.317 181.132,-113.06"/>
</g>
<!-- Node9 -->
<g id="node9" class="node"><title>Node9</title>
<g id="a_node9"><a xlink:href="../../d9/d37/classnars_1_1storage_1_1Bag_a4f481c434a5a4ac0004138ba81fd426f.html#a4f481c434a5a4ac0004138ba81fd426f" target="_top" xlink:title="nars.storage.Bag.init">
<polygon fill="none" stroke="black" points="191,-50 191,-69 298,-69 298,-50 191,-50"/>
<text text-anchor="middle" x="244.5" y="-57" font-family="Helvetica,sans-Serif" font-size="10.00">nars.storage.Bag.init</text>
</a>
</g>
</g>
<!-- Node1&#45;&gt;Node9 -->
<g id="edge8" class="edge"><title>Node1&#45;&gt;Node9</title>
<path fill="none" stroke="midnightblue" d="M69.7781,-169.954C83.6416,-149.683 118.995,-102.255 161,-78.5 167.245,-74.9683 174.108,-72.0926 181.126,-69.7512"/>
<polygon fill="midnightblue" stroke="midnightblue" points="182.168,-73.0928 190.749,-66.8781 180.165,-66.3854 182.168,-73.0928"/>
</g>
<!-- Node10 -->
<g id="node10" class="node"><title>Node10</title>
<g id="a_node10"><a xlink:href="../../dd/da5/classnars_1_1storage_1_1Memory_1_1ReasonerBatch_af29e66c0813aeea26cc4afea9735473e.html#af29e66c0813aeea26cc4afea9735473e" target="_top" xlink:title="nars.storage.Memory.Reasoner\lBatch.initTimer">
<polygon fill="none" stroke="black" points="167.5,-0.5 167.5,-30.5 321.5,-30.5 321.5,-0.5 167.5,-0.5"/>
<text text-anchor="start" x="175.5" y="-18.5" font-family="Helvetica,sans-Serif" font-size="10.00">nars.storage.Memory.Reasoner</text>
<text text-anchor="middle" x="244.5" y="-7.5" font-family="Helvetica,sans-Serif" font-size="10.00">Batch.initTimer</text>
</a>
</g>
</g>
<!-- Node1&#45;&gt;Node10 -->
<g id="edge9" class="edge"><title>Node1&#45;&gt;Node10</title>
<path fill="none" stroke="midnightblue" d="M67.5765,-169.739C78.6541,-144.416 111.816,-76.1105 161,-40.5 163.667,-38.5691 166.485,-36.7854 169.408,-35.1379"/>
<polygon fill="midnightblue" stroke="midnightblue" points="171.085,-38.2121 178.447,-30.5931 167.941,-31.9581 171.085,-38.2121"/>
</g>
<!-- Node11 -->
<g id="node11" class="node"><title>Node11</title>
<g id="a_node11"><a xlink:href="../../dd/da5/classnars_1_1storage_1_1Memory_1_1ReasonerBatch_a364bf53ee103367ae0518803bc746bc2.html#a364bf53ee103367ae0518803bc746bc2" target="_top" xlink:title="nars.storage.Memory.Reasoner\lBatch.setTimer">
<polygon fill="none" stroke="black" points="364,-0.5 364,-30.5 518,-30.5 518,-0.5 364,-0.5"/>
<text text-anchor="start" x="372" y="-18.5" font-family="Helvetica,sans-Serif" font-size="10.00">nars.storage.Memory.Reasoner</text>
<text text-anchor="middle" x="441" y="-7.5" font-family="Helvetica,sans-Serif" font-size="10.00">Batch.setTimer</text>
</a>
</g>
</g>
<!-- Node10&#45;&gt;Node11 -->
<g id="edge10" class="edge"><title>Node10&#45;&gt;Node11</title>
<path fill="none" stroke="midnightblue" d="M321.534,-15.5C332.031,-15.5 342.874,-15.5 353.542,-15.5"/>
<polygon fill="midnightblue" stroke="midnightblue" points="353.699,-19.0001 363.699,-15.5 353.699,-12.0001 353.699,-19.0001"/>
</g>
</g>
</svg>
        <g id="navigator" transform="translate(0 0)" fill="#404254">
                <rect fill="#f2f5e9" fill-opacity="0.5" stroke="#606060" stroke-width=".5" x="0" y="0" width="60" height="60"/>
                <use id="zoomplus" xlink:href="#zoomPlus" x="17" y="9" onmousedown="handleZoom(evt,'in')"/>
                <use id="zoomminus" xlink:href="#zoomMin" x="42" y="9" onmousedown="handleZoom(evt,'out')"/>
                <use id="reset" xlink:href="#resetDef" x="30" y="36" onmousedown="handleReset()"/>
                <g id="arrowUp" xlink:href="#dirArrow" transform="translate(30 24)" onmousedown="handlePan(0,-1)">
                  <use xlink:href="#rim" fill="#404040">
                        <set attributeName="fill" to="#808080" begin="arrowUp.mouseover" end="arrowUp.mouseout"/>
                  </use>
                  <path fill="none" stroke="white" stroke-width="1.5" d="M0,-3.0v7 M-2.5,-0.5L0,-3.0L2.5,-0.5"/>
                </g>
                <g id="arrowRight" xlink:href="#dirArrow" transform="rotate(90) translate(36 -43)" onmousedown="handlePan(1,0)">
                  <use xlink:href="#rim" fill="#404040">
                        <set attributeName="fill" to="#808080" begin="arrowRight.mouseover" end="arrowRight.mouseout"/>
                  </use>
                  <path fill="none" stroke="white" stroke-width="1.5" d="M0,-3.0v7 M-2.5,-0.5L0,-3.0L2.5,-0.5"/>
                </g>
                <g id="arrowDown" xlink:href="#dirArrow" transform="rotate(180) translate(-30 -48)" onmousedown="handlePan(0,1)">
                  <use xlink:href="#rim" fill="#404040">
                        <set attributeName="fill" to="#808080" begin="arrowDown.mouseover" end="arrowDown.mouseout"/>
                  </use>
                  <path fill="none" stroke="white" stroke-width="1.5" d="M0,-3.0v7 M-2.5,-0.5L0,-3.0L2.5,-0.5"/>
                </g>
                <g id="arrowLeft" xlink:href="#dirArrow" transform="rotate(270) translate(-36 17)" onmousedown="handlePan(-1,0)">
                  <use xlink:href="#rim" fill="#404040">
                        <set attributeName="fill" to="#808080" begin="arrowLeft.mouseover" end="arrowLeft.mouseout"/>
                  </use>
                  <path fill="none" stroke="white" stroke-width="1.5" d="M0,-3.0v7 M-2.5,-0.5L0,-3.0L2.5,-0.5"/>
                </g>
        </g>
        <svg viewBox="0 0 15 15" width="100%" height="30px" preserveAspectRatio="xMaxYMin meet">
         <g id="arrow_out" transform="scale(0.3 0.3)">
          <a xlink:href="classnars_1_1storage_1_1Memory_ac58580cf0e27e42f1972939bec1c0553_ac58580cf0e27e42f1972939bec1c0553_cgraph_org.svg" target="_base">
           <rect id="button" ry="5" rx="5" y="6" x="6" height="38" width="38"
                fill="#f2f5e9" fill-opacity="0.5" stroke="#606060" stroke-width="1.0"/>
           <path id="arrow"
             d="M 11.500037,31.436501 C 11.940474,20.09759 22.043105,11.32322 32.158766,21.979434 L 37.068811,17.246167 C 37.068811,17.246167 37.088388,32 37.088388,32 L 22.160133,31.978069 C 22.160133,31.978069 26.997745,27.140456 26.997745,27.140456 C 18.528582,18.264221 13.291696,25.230495 11.500037,31.436501 z"
             style="fill:#404040;"/>
          </a>
         </g>
        </svg>
</svg>
