<?xml version="1.0" encoding="UTF-8" standalone="no"?>
<!DOCTYPE svg PUBLIC "-//W3C//DTD SVG 1.1//EN"
 "http://www.w3.org/Graphics/SVG/1.1/DTD/svg11.dtd">
<!-- Generated by graphviz version 2.38.0 (20140413.2041)
 -->
<!-- Title: nars.storage.Memory.inputTask Pages: 1 -->
<!--zoomable 460 -->
<svg id="main" version="1.1" xmlns="http://www.w3.org/2000/svg" xmlns:xlink="http://www.w3.org/1999/xlink" xml:space="preserve" onload="init(evt)">
<style type="text/css"><![CDATA[
.edge:hover path { stroke: red; }
.edge:hover polygon { stroke: red; fill: red; }
]]></style>
<script type="text/javascript"><![CDATA[
var edges = document.getElementsByTagName('g');
if (edges && edges.length) {
  for (var i=0;i<edges.length;i++) {
    if (edges[i].id.substr(0,4)=='edge') {
      edges[i].setAttribute('class','edge');
    }
  }
}
]]></script>
        <defs>
                <circle id="rim" cx="0" cy="0" r="7"/>
                <circle id="rim2" cx="0" cy="0" r="3.5"/>
                <g id="zoomPlus">
                        <use xlink:href="#rim" fill="#404040">
                                <set attributeName="fill" to="#808080" begin="zoomplus.mouseover" end="zoomplus.mouseout"/>
                        </use>
                        <path d="M-4,0h8M0,-4v8" fill="none" stroke="white" stroke-width="1.5" pointer-events="none"/>
                </g>
                <g id="zoomMin">
                        <use xlink:href="#rim" fill="#404040">
                                <set attributeName="fill" to="#808080" begin="zoomminus.mouseover" end="zoomminus.mouseout"/>
                        </use>
                        <path d="M-4,0h8" fill="none" stroke="white" stroke-width="1.5" pointer-events="none"/>
                </g>
                <g id="dirArrow">
                        <path fill="none" stroke="white" stroke-width="1.5" d="M0,-3.0v7 M-2.5,-0.5L0,-3.0L2.5,-0.5"/>
                </g>
               <g id="resetDef">
                       <use xlink:href="#rim2" fill="#404040">
                               <set attributeName="fill" to="#808080" begin="reset.mouseover" end="reset.mouseout"/>
                       </use>
               </g>
        </defs>

<script type="text/javascript">
var viewWidth = 978;
var viewHeight = 460;
var sectionId = 'dynsection-0';
</script>
<script xlink:href="../../svgpan.js"/>
<svg id="graph" class="graph">
<g id="viewport">
<title>nars.storage.Memory.inputTask</title>
<!-- Node1 -->
<g id="node1" class="node"><title>Node1</title>
<polygon fill="#bfbfbf" stroke="black" points="0,-301 0,-320 155,-320 155,-301 0,-301"/>
<text text-anchor="middle" x="77.5" y="-308" font-family="Helvetica,sans-Serif" font-size="10.00">nars.storage.Memory.inputTask</text>
</g>
<!-- Node2 -->
<g id="node2" class="node"><title>Node2</title>
<g id="a_node2"><a xlink:href="../../db/d8e/classnars_1_1entity_1_1BudgetValue_ae83b822f3bab4c1831e94d72fc770f58.html#ae83b822f3bab4c1831e94d72fc770f58" target="_top" xlink:title="Whether the budget should get any processing at all. ">
<polygon fill="none" stroke="black" points="199.5,-421.5 199.5,-451.5 349.5,-451.5 349.5,-421.5 199.5,-421.5"/>
<text text-anchor="start" x="207.5" y="-439.5" font-family="Helvetica,sans-Serif" font-size="10.00">nars.entity.BudgetValue.above</text>
<text text-anchor="middle" x="274.5" y="-428.5" font-family="Helvetica,sans-Serif" font-size="10.00">Threshold</text>
</a>
</g>
</g>
<!-- Node1&#45;&gt;Node2 -->
<g id="edge1" class="edge"><title>Node1&#45;&gt;Node2</title>
<path fill="none" stroke="midnightblue" d="M86.493,-320.078C103.613,-339.994 145.946,-386.126 191,-411.5 194.92,-413.708 199.057,-415.742 203.307,-417.612"/>
<polygon fill="midnightblue" stroke="midnightblue" points="202.165,-420.926 212.747,-421.451 204.801,-414.442 202.165,-420.926"/>
</g>
<!-- Node5 -->
<g id="node5" class="node"><title>Node5</title>
<g id="a_node5"><a xlink:href="../../db/d34/interfacenars_1_1io_1_1IInferenceRecorder_acb473be6e5d774c10781bc8e74453459.html#acb473be6e5d774c10781bc8e74453459" target="_top" xlink:title="Add new text to display. ">
<polygon fill="none" stroke="black" points="191,-383 191,-402 358,-402 358,-383 191,-383"/>
<text text-anchor="middle" x="274.5" y="-390" font-family="Helvetica,sans-Serif" font-size="10.00">nars.io.IInferenceRecorder.append</text>
</a>
</g>
</g>
<!-- Node1&#45;&gt;Node5 -->
<g id="edge4" class="edge"><title>Node1&#45;&gt;Node5</title>
<path fill="none" stroke="midnightblue" d="M92.4195,-320.024C113.063,-333.738 153.41,-358.989 191,-373.5 197.693,-376.084 204.833,-378.373 212.006,-380.386"/>
<polygon fill="midnightblue" stroke="midnightblue" points="211.208,-383.795 221.77,-382.962 212.993,-377.027 211.208,-383.795"/>
</g>
<!-- Node6 -->
<g id="node6" class="node"><title>Node6</title>
<g id="a_node6"><a xlink:href="../../d1/dd1/classnars_1_1entity_1_1Item_a54fc0a370b847dd77c0a698c765e6e55.html#a54fc0a370b847dd77c0a698c765e6e55" target="_top" xlink:title="Get BudgetValue. ">
<polygon fill="none" stroke="black" points="208.5,-345 208.5,-364 340.5,-364 340.5,-345 208.5,-345"/>
<text text-anchor="middle" x="274.5" y="-352" font-family="Helvetica,sans-Serif" font-size="10.00">nars.entity.Item.getBudget</text>
</a>
</g>
</g>
<!-- Node1&#45;&gt;Node6 -->
<g id="edge5" class="edge"><title>Node1&#45;&gt;Node6</title>
<path fill="none" stroke="midnightblue" d="M120.812,-320.047C150.326,-326.707 189.9,-335.636 221.363,-342.736"/>
<polygon fill="midnightblue" stroke="midnightblue" points="220.745,-346.184 231.27,-344.971 222.286,-339.356 220.745,-346.184"/>
</g>
<!-- Node7 -->
<g id="node7" class="node"><title>Node7</title>
<g id="a_node7"><a xlink:href="../../d8/df4/classnars_1_1storage_1_1Memory_a8c50bdf4f2750032f24965e12e9fb59c.html#a8c50bdf4f2750032f24965e12e9fb59c" target="_top" xlink:title="List of new tasks accumulated in one cycle, to be processed in the next cycle. ">
<polygon fill="none" stroke="black" points="201.5,-295.5 201.5,-325.5 347.5,-325.5 347.5,-295.5 201.5,-295.5"/>
<text text-anchor="start" x="209.5" y="-313.5" font-family="Helvetica,sans-Serif" font-size="10.00">nars.storage.Memory.getNew</text>
<text text-anchor="middle" x="274.5" y="-302.5" font-family="Helvetica,sans-Serif" font-size="10.00">Tasks</text>
</a>
</g>
</g>
<!-- Node1&#45;&gt;Node7 -->
<g id="edge6" class="edge"><title>Node1&#45;&gt;Node7</title>
<path fill="none" stroke="midnightblue" d="M155.009,-310.5C166.93,-310.5 179.29,-310.5 191.33,-310.5"/>
<polygon fill="midnightblue" stroke="midnightblue" points="191.351,-314 201.351,-310.5 191.351,-307 191.351,-314"/>
</g>
<!-- Node8 -->
<g id="node8" class="node"><title>Node8</title>
<g id="a_node8"><a xlink:href="../../d8/df4/classnars_1_1storage_1_1Memory_aa4c7e1f5823d0404c0cab49b617968f1.html#aa4c7e1f5823d0404c0cab49b617968f1" target="_top" xlink:title="Inference record text to be written into a log file. ">
<polygon fill="none" stroke="black" points="192,-257 192,-276 357,-276 357,-257 192,-257"/>
<text text-anchor="middle" x="274.5" y="-264" font-family="Helvetica,sans-Serif" font-size="10.00">nars.storage.Memory.getRecorder</text>
</a>
</g>
</g>
<!-- Node1&#45;&gt;Node8 -->
<g id="edge7" class="edge"><title>Node1&#45;&gt;Node8</title>
<path fill="none" stroke="midnightblue" d="M120.812,-300.953C150.326,-294.293 189.9,-285.364 221.363,-278.264"/>
<polygon fill="midnightblue" stroke="midnightblue" points="222.286,-281.644 231.27,-276.029 220.745,-274.816 222.286,-281.644"/>
</g>
<!-- Node9 -->
<g id="node9" class="node"><title>Node9</title>
<g id="a_node9"><a xlink:href="../../dc/ddc/classnars_1_1entity_1_1Task_ab140cb553a6cf40b07093d1df283567f.html#ab140cb553a6cf40b07093d1df283567f" target="_top" xlink:title="Get the sentence. ">
<polygon fill="none" stroke="black" points="202,-219 202,-238 347,-238 347,-219 202,-219"/>
<text text-anchor="middle" x="274.5" y="-226" font-family="Helvetica,sans-Serif" font-size="10.00">nars.entity.Task.getSentence</text>
</a>
</g>
</g>
<!-- Node1&#45;&gt;Node9 -->
<g id="edge8" class="edge"><title>Node1&#45;&gt;Node9</title>
<path fill="none" stroke="midnightblue" d="M92.4195,-300.976C113.063,-287.262 153.41,-262.011 191,-247.5 197.693,-244.916 204.833,-242.627 212.006,-240.614"/>
<polygon fill="midnightblue" stroke="midnightblue" points="212.993,-243.973 221.77,-238.038 211.208,-237.205 212.993,-243.973"/>
</g>
<!-- Node10 -->
<g id="node10" class="node"><title>Node10</title>
<g id="a_node10"><a xlink:href="../../d8/df4/classnars_1_1storage_1_1Memory_a26cbb4acec5bb2c23a048d7deba4051d.html#a26cbb4acec5bb2c23a048d7deba4051d" target="_top" xlink:title="Display input/output sentence in the output channels. ">
<polygon fill="none" stroke="black" points="206,-181 206,-200 343,-200 343,-181 206,-181"/>
<text text-anchor="middle" x="274.5" y="-188" font-family="Helvetica,sans-Serif" font-size="10.00">nars.storage.Memory.report</text>
</a>
</g>
</g>
<!-- Node1&#45;&gt;Node10 -->
<g id="edge9" class="edge"><title>Node1&#45;&gt;Node10</title>
<path fill="none" stroke="midnightblue" d="M86.105,-300.984C102.803,-280.772 144.878,-233.451 191,-209.5 195.531,-207.147 200.351,-205.083 205.298,-203.273"/>
<polygon fill="midnightblue" stroke="midnightblue" points="206.528,-206.553 214.927,-200.094 204.334,-199.905 206.528,-206.553"/>
</g>
<!-- Node3 -->
<g id="node3" class="node"><title>Node3</title>
<g id="a_node3"><a xlink:href="../../db/d8e/classnars_1_1entity_1_1BudgetValue_af414899759992288edbba78d7457c534.html#af414899759992288edbba78d7457c534" target="_top" xlink:title="To summarize a BudgetValue into a single number in [0, 1]. ">
<polygon fill="none" stroke="black" points="394,-427 394,-446 558,-446 558,-427 394,-427"/>
<text text-anchor="middle" x="476" y="-434" font-family="Helvetica,sans-Serif" font-size="10.00">nars.entity.BudgetValue.summary</text>
</a>
</g>
</g>
<!-- Node2&#45;&gt;Node3 -->
<g id="edge2" class="edge"><title>Node2&#45;&gt;Node3</title>
<path fill="none" stroke="midnightblue" d="M349.503,-436.5C360.653,-436.5 372.263,-436.5 383.723,-436.5"/>
<polygon fill="midnightblue" stroke="midnightblue" points="383.74,-440 393.74,-436.5 383.74,-433 383.74,-440"/>
</g>
<!-- Node4 -->
<g id="node4" class="node"><title>Node4</title>
<g id="a_node4"><a xlink:href="../../d4/de4/classnars_1_1inference_1_1UtilityFunctions_a7649e37bb61cac9b8a2601fdff3a5f7a.html#a7649e37bb61cac9b8a2601fdff3a5f7a" target="_top" xlink:title="A function where the output is the geometric average the inputs. ">
<polygon fill="none" stroke="black" points="594,-427 594,-446 780,-446 780,-427 594,-427"/>
<text text-anchor="middle" x="687" y="-434" font-family="Helvetica,sans-Serif" font-size="10.00">nars.inference.UtilityFunctions.aveGeo</text>
</a>
</g>
</g>
<!-- Node3&#45;&gt;Node4 -->
<g id="edge3" class="edge"><title>Node3&#45;&gt;Node4</title>
<path fill="none" stroke="midnightblue" d="M558.104,-436.5C566.516,-436.5 575.141,-436.5 583.746,-436.5"/>
<polygon fill="midnightblue" stroke="midnightblue" points="583.825,-440 593.825,-436.5 583.825,-433 583.825,-440"/>
</g>
<!-- Node11 -->
<g id="node11" class="node"><title>Node11</title>
<g id="a_node11"><a xlink:href="../../d8/df4/classnars_1_1storage_1_1Memory_a1a17565c7b06ca4ecc1ed57c3fce973f.html#a1a17565c7b06ca4ecc1ed57c3fce973f" target="_top" xlink:title="List of Strings or Tasks to be sent to the output channels. ">
<polygon fill="none" stroke="black" points="399,-257.5 399,-287.5 553,-287.5 553,-257.5 399,-257.5"/>
<text text-anchor="start" x="407" y="-275.5" font-family="Helvetica,sans-Serif" font-size="10.00">nars.storage.Memory.getExport</text>
<text text-anchor="middle" x="476" y="-264.5" font-family="Helvetica,sans-Serif" font-size="10.00">Strings</text>
</a>
</g>
</g>
<!-- Node10&#45;&gt;Node11 -->
<g id="edge10" class="edge"><title>Node10&#45;&gt;Node11</title>
<path fill="none" stroke="midnightblue" d="M334.11,-200.025C342.382,-202.496 350.585,-205.601 358,-209.5 377.211,-219.603 375.477,-231.186 394,-242.5 400.659,-246.567 407.957,-250.22 415.359,-253.46"/>
<polygon fill="midnightblue" stroke="midnightblue" points="414.173,-256.756 424.751,-257.342 416.847,-250.287 414.173,-256.756"/>
</g>
<!-- Node12 -->
<g id="node12" class="node"><title>Node12</title>
<g id="a_node12"><a xlink:href="../../d8/df4/classnars_1_1storage_1_1Memory_a076ad9a0e872386bca3f2d17fa7cb2d4.html#a076ad9a0e872386bca3f2d17fa7cb2d4" target="_top" xlink:title="Backward pointer to the reasoner. ">
<polygon fill="none" stroke="black" points="603.5,-225 603.5,-244 770.5,-244 770.5,-225 603.5,-225"/>
<text text-anchor="middle" x="687" y="-232" font-family="Helvetica,sans-Serif" font-size="10.00">nars.storage.Memory.getReasoner</text>
</a>
</g>
</g>
<!-- Node10&#45;&gt;Node12 -->
<g id="edge11" class="edge"><title>Node10&#45;&gt;Node12</title>
<path fill="none" stroke="midnightblue" d="M329.654,-200.042C349.809,-203.367 372.906,-206.909 394,-209.5 460.458,-217.662 535.752,-224.038 593.236,-228.309"/>
<polygon fill="midnightblue" stroke="midnightblue" points="593.162,-231.813 603.391,-229.055 593.675,-224.832 593.162,-231.813"/>
</g>
<!-- Node13 -->
<g id="node13" class="node"><title>Node13</title>
<g id="a_node13"><a xlink:href="../../d8/df4/classnars_1_1storage_1_1Memory_aaa97540563b646b33db1263fa3a97d53.html#aaa97540563b646b33db1263fa3a97d53" target="_top" xlink:title="nars.storage.Memory.getTime">
<polygon fill="none" stroke="black" points="402.5,-181 402.5,-200 549.5,-200 549.5,-181 402.5,-181"/>
<text text-anchor="middle" x="476" y="-188" font-family="Helvetica,sans-Serif" font-size="10.00">nars.storage.Memory.getTime</text>
</a>
</g>
</g>
<!-- Node10&#45;&gt;Node13 -->
<g id="edge12" class="edge"><title>Node10&#45;&gt;Node13</title>
<path fill="none" stroke="midnightblue" d="M343.042,-190.5C358.862,-190.5 375.893,-190.5 392.291,-190.5"/>
<polygon fill="midnightblue" stroke="midnightblue" points="392.403,-194 402.403,-190.5 392.403,-187 392.403,-194"/>
</g>
<!-- Node15 -->
<g id="node15" class="node"><title>Node15</title>
<g id="a_node15"><a xlink:href="../../d6/d25/classnars_1_1entity_1_1Sentence_aed4fff67fb986a938db98460a16dda2d.html#aed4fff67fb986a938db98460a16dda2d" target="_top" xlink:title="Get a String representation of the sentence, with 2&#45;digit accuracy. ">
<polygon fill="none" stroke="black" points="404.5,-131.5 404.5,-161.5 547.5,-161.5 547.5,-131.5 404.5,-131.5"/>
<text text-anchor="start" x="412.5" y="-149.5" font-family="Helvetica,sans-Serif" font-size="10.00">nars.entity.Sentence.toString</text>
<text text-anchor="middle" x="476" y="-138.5" font-family="Helvetica,sans-Serif" font-size="10.00">Brief</text>
</a>
</g>
</g>
<!-- Node10&#45;&gt;Node15 -->
<g id="edge15" class="edge"><title>Node10&#45;&gt;Node15</title>
<path fill="none" stroke="midnightblue" d="M318.789,-180.953C341.551,-175.932 370.162,-169.622 396.658,-163.779"/>
<polygon fill="midnightblue" stroke="midnightblue" points="397.681,-167.137 406.692,-161.565 396.173,-160.301 397.681,-167.137"/>
</g>
<!-- Node20 -->
<g id="node20" class="node"><title>Node20</title>
<g id="a_node20"><a xlink:href="../../dd/da5/classnars_1_1storage_1_1Memory_1_1ReasonerBatch_ad567a9256ef8674e839ed6fe62664987.html#ad567a9256ef8674e839ed6fe62664987" target="_top" xlink:title="To get the timer value and then to reset it. ">
<polygon fill="none" stroke="black" points="399,-49.5 399,-79.5 553,-79.5 553,-49.5 399,-49.5"/>
<text text-anchor="start" x="407" y="-67.5" font-family="Helvetica,sans-Serif" font-size="10.00">nars.storage.Memory.Reasoner</text>
<text text-anchor="middle" x="476" y="-56.5" font-family="Helvetica,sans-Serif" font-size="10.00">Batch.updateTimer</text>
</a>
</g>
</g>
<!-- Node10&#45;&gt;Node20 -->
<g id="edge20" class="edge"><title>Node10&#45;&gt;Node20</title>
<path fill="none" stroke="midnightblue" d="M290.823,-180.822C323.175,-160.39 399.047,-112.47 442.646,-84.9339"/>
<polygon fill="midnightblue" stroke="midnightblue" points="444.587,-87.8477 451.173,-79.5485 440.849,-81.9293 444.587,-87.8477"/>
</g>
<!-- Node13&#45;&gt;Node12 -->
<g id="edge13" class="edge"><title>Node13&#45;&gt;Node12</title>
<path fill="none" stroke="midnightblue" d="M522.35,-200.047C554.12,-206.736 596.765,-215.714 630.557,-222.828"/>
<polygon fill="midnightblue" stroke="midnightblue" points="630.232,-226.336 640.739,-224.971 631.674,-219.486 630.232,-226.336"/>
</g>
<!-- Node14 -->
<g id="node14" class="node"><title>Node14</title>
<g id="a_node14"><a xlink:href="../../dd/da5/classnars_1_1storage_1_1Memory_1_1ReasonerBatch_aaf7efb6a6732b702669e9548bdb3a243.html#aaf7efb6a6732b702669e9548bdb3a243" target="_top" xlink:title="Get the current time from the clock Called in nars.entity.Stamp. ">
<polygon fill="none" stroke="black" points="610,-175.5 610,-205.5 764,-205.5 764,-175.5 610,-175.5"/>
<text text-anchor="start" x="618" y="-193.5" font-family="Helvetica,sans-Serif" font-size="10.00">nars.storage.Memory.Reasoner</text>
<text text-anchor="middle" x="687" y="-182.5" font-family="Helvetica,sans-Serif" font-size="10.00">Batch.getTime</text>
</a>
</g>
</g>
<!-- Node13&#45;&gt;Node14 -->
<g id="edge14" class="edge"><title>Node13&#45;&gt;Node14</title>
<path fill="none" stroke="midnightblue" d="M549.512,-190.5C565.621,-190.5 582.854,-190.5 599.462,-190.5"/>
<polygon fill="midnightblue" stroke="midnightblue" points="599.706,-194 609.706,-190.5 599.706,-187 599.706,-194"/>
</g>
<!-- Node16 -->
<g id="node16" class="node"><title>Node16</title>
<g id="a_node16"><a xlink:href="../../d6/d25/classnars_1_1entity_1_1Sentence_a32d81c9525d514aca8ddc5f4db48a762.html#a32d81c9525d514aca8ddc5f4db48a762" target="_top" xlink:title="Get a String representation of the sentence for key of Task and TaskLink. ">
<polygon fill="none" stroke="black" points="619.5,-137 619.5,-156 754.5,-156 754.5,-137 619.5,-137"/>
<text text-anchor="middle" x="687" y="-144" font-family="Helvetica,sans-Serif" font-size="10.00">nars.entity.Sentence.toKey</text>
</a>
</g>
</g>
<!-- Node15&#45;&gt;Node16 -->
<g id="edge16" class="edge"><title>Node15&#45;&gt;Node16</title>
<path fill="none" stroke="midnightblue" d="M547.758,-146.5C567.513,-146.5 589.07,-146.5 609.158,-146.5"/>
<polygon fill="midnightblue" stroke="midnightblue" points="609.198,-150 619.198,-146.5 609.198,-143 609.198,-150"/>
</g>
<!-- Node19 -->
<g id="node19" class="node"><title>Node19</title>
<g id="a_node19"><a xlink:href="../../d1/d1e/classnars_1_1entity_1_1Stamp_ad1aee19cfc0bb8ca9232bad251f74ffc.html#ad1aee19cfc0bb8ca9232bad251f74ffc" target="_top" xlink:title="Get a String form of the Stamp for display Format: {creationTime [: eventTime] : evidentialBase}. ">
<polygon fill="none" stroke="black" points="621.5,-99 621.5,-118 752.5,-118 752.5,-99 621.5,-99"/>
<text text-anchor="middle" x="687" y="-106" font-family="Helvetica,sans-Serif" font-size="10.00">nars.entity.Stamp.toString</text>
</a>
</g>
</g>
<!-- Node15&#45;&gt;Node19 -->
<g id="edge19" class="edge"><title>Node15&#45;&gt;Node19</title>
<path fill="none" stroke="midnightblue" d="M547.758,-133.635C572.316,-129.17 599.659,-124.198 623.502,-119.863"/>
<polygon fill="midnightblue" stroke="midnightblue" points="624.276,-123.28 633.488,-118.048 623.023,-116.393 624.276,-123.28"/>
</g>
<!-- Node17 -->
<g id="node17" class="node"><title>Node17</title>
<g id="a_node17"><a xlink:href="../../d8/db8/classnars_1_1language_1_1Term_a04fc046ba98c451bded562f79cff4244.html#a04fc046ba98c451bded562f79cff4244" target="_top" xlink:title="The same as getName by default, used in display only. ">
<polygon fill="none" stroke="black" points="823,-159 823,-178 963,-178 963,-159 823,-159"/>
<text text-anchor="middle" x="893" y="-166" font-family="Helvetica,sans-Serif" font-size="10.00">nars.language.Term.toString</text>
</a>
</g>
</g>
<!-- Node16&#45;&gt;Node17 -->
<g id="edge17" class="edge"><title>Node16&#45;&gt;Node17</title>
<path fill="none" stroke="midnightblue" d="M754.515,-153.673C773.129,-155.681 793.545,-157.882 812.815,-159.96"/>
<polygon fill="midnightblue" stroke="midnightblue" points="812.455,-163.442 822.773,-161.034 813.206,-156.482 812.455,-163.442"/>
</g>
<!-- Node18 -->
<g id="node18" class="node"><title>Node18</title>
<g id="a_node18"><a xlink:href="../../d3/db8/classnars_1_1entity_1_1TruthValue_a5af8b2fe37987ba1e8396ec1aad38e90.html#a5af8b2fe37987ba1e8396ec1aad38e90" target="_top" xlink:title="A simplified String representation of a TruthValue, where each factor is accruate to 1%...">
<polygon fill="none" stroke="black" points="831,-109.5 831,-139.5 955,-139.5 955,-109.5 831,-109.5"/>
<text text-anchor="start" x="839" y="-127.5" font-family="Helvetica,sans-Serif" font-size="10.00">nars.entity.TruthValue.to</text>
<text text-anchor="middle" x="893" y="-116.5" font-family="Helvetica,sans-Serif" font-size="10.00">StringBrief</text>
</a>
</g>
</g>
<!-- Node16&#45;&gt;Node18 -->
<g id="edge18" class="edge"><title>Node16&#45;&gt;Node18</title>
<path fill="none" stroke="midnightblue" d="M754.515,-139.327C775.694,-137.043 799.205,-134.507 820.708,-132.188"/>
<polygon fill="midnightblue" stroke="midnightblue" points="821.189,-135.657 830.756,-131.105 820.438,-128.697 821.189,-135.657"/>
</g>
<!-- Node21 -->
<g id="node21" class="node"><title>Node21</title>
<g id="a_node21"><a xlink:href="../../dd/da5/classnars_1_1storage_1_1Memory_1_1ReasonerBatch_a10e1e86d98e1a12f6652ab7452dc7954.html#a10e1e86d98e1a12f6652ab7452dc7954" target="_top" xlink:title="nars.storage.Memory.Reasoner\lBatch.getTimer">
<polygon fill="none" stroke="black" points="610,-49.5 610,-79.5 764,-79.5 764,-49.5 610,-49.5"/>
<text text-anchor="start" x="618" y="-67.5" font-family="Helvetica,sans-Serif" font-size="10.00">nars.storage.Memory.Reasoner</text>
<text text-anchor="middle" x="687" y="-56.5" font-family="Helvetica,sans-Serif" font-size="10.00">Batch.getTimer</text>
</a>
</g>
</g>
<!-- Node20&#45;&gt;Node21 -->
<g id="edge21" class="edge"><title>Node20&#45;&gt;Node21</title>
<path fill="none" stroke="midnightblue" d="M553.045,-64.5C568.172,-64.5 584.161,-64.5 599.605,-64.5"/>
<polygon fill="midnightblue" stroke="midnightblue" points="599.661,-68.0001 609.661,-64.5 599.661,-61.0001 599.661,-68.0001"/>
</g>
<!-- Node22 -->
<g id="node22" class="node"><title>Node22</title>
<g id="a_node22"><a xlink:href="../../dd/da5/classnars_1_1storage_1_1Memory_1_1ReasonerBatch_af29e66c0813aeea26cc4afea9735473e.html#af29e66c0813aeea26cc4afea9735473e" target="_top" xlink:title="nars.storage.Memory.Reasoner\lBatch.initTimer">
<polygon fill="none" stroke="black" points="610,-0.5 610,-30.5 764,-30.5 764,-0.5 610,-0.5"/>
<text text-anchor="start" x="618" y="-18.5" font-family="Helvetica,sans-Serif" font-size="10.00">nars.storage.Memory.Reasoner</text>
<text text-anchor="middle" x="687" y="-7.5" font-family="Helvetica,sans-Serif" font-size="10.00">Batch.initTimer</text>
</a>
</g>
</g>
<!-- Node20&#45;&gt;Node22 -->
<g id="edge22" class="edge"><title>Node20&#45;&gt;Node22</title>
<path fill="none" stroke="midnightblue" d="M541.127,-49.4654C563.596,-44.1976 589.007,-38.2399 612.203,-32.8016"/>
<polygon fill="midnightblue" stroke="midnightblue" points="613.057,-36.1965 621.994,-30.5062 611.459,-29.3813 613.057,-36.1965"/>
</g>
<!-- Node23 -->
<g id="node23" class="node"><title>Node23</title>
<g id="a_node23"><a xlink:href="../../dd/da5/classnars_1_1storage_1_1Memory_1_1ReasonerBatch_a364bf53ee103367ae0518803bc746bc2.html#a364bf53ee103367ae0518803bc746bc2" target="_top" xlink:title="nars.storage.Memory.Reasoner\lBatch.setTimer">
<polygon fill="none" stroke="black" points="816,-0.5 816,-30.5 970,-30.5 970,-0.5 816,-0.5"/>
<text text-anchor="start" x="824" y="-18.5" font-family="Helvetica,sans-Serif" font-size="10.00">nars.storage.Memory.Reasoner</text>
<text text-anchor="middle" x="893" y="-7.5" font-family="Helvetica,sans-Serif" font-size="10.00">Batch.setTimer</text>
</a>
</g>
</g>
<!-- Node22&#45;&gt;Node23 -->
<g id="edge23" class="edge"><title>Node22&#45;&gt;Node23</title>
<path fill="none" stroke="midnightblue" d="M764.252,-15.5C777.689,-15.5 791.764,-15.5 805.459,-15.5"/>
<polygon fill="midnightblue" stroke="midnightblue" points="805.84,-19.0001 815.84,-15.5 805.84,-12.0001 805.84,-19.0001"/>
</g>
</g>
</svg>
        <g id="navigator" transform="translate(0 0)" fill="#404254">
                <rect fill="#f2f5e9" fill-opacity="0.5" stroke="#606060" stroke-width=".5" x="0" y="0" width="60" height="60"/>
                <use id="zoomplus" xlink:href="#zoomPlus" x="17" y="9" onmousedown="handleZoom(evt,'in')"/>
                <use id="zoomminus" xlink:href="#zoomMin" x="42" y="9" onmousedown="handleZoom(evt,'out')"/>
                <use id="reset" xlink:href="#resetDef" x="30" y="36" onmousedown="handleReset()"/>
                <g id="arrowUp" xlink:href="#dirArrow" transform="translate(30 24)" onmousedown="handlePan(0,-1)">
                  <use xlink:href="#rim" fill="#404040">
                        <set attributeName="fill" to="#808080" begin="arrowUp.mouseover" end="arrowUp.mouseout"/>
                  </use>
                  <path fill="none" stroke="white" stroke-width="1.5" d="M0,-3.0v7 M-2.5,-0.5L0,-3.0L2.5,-0.5"/>
                </g>
                <g id="arrowRight" xlink:href="#dirArrow" transform="rotate(90) translate(36 -43)" onmousedown="handlePan(1,0)">
                  <use xlink:href="#rim" fill="#404040">
                        <set attributeName="fill" to="#808080" begin="arrowRight.mouseover" end="arrowRight.mouseout"/>
                  </use>
                  <path fill="none" stroke="white" stroke-width="1.5" d="M0,-3.0v7 M-2.5,-0.5L0,-3.0L2.5,-0.5"/>
                </g>
                <g id="arrowDown" xlink:href="#dirArrow" transform="rotate(180) translate(-30 -48)" onmousedown="handlePan(0,1)">
                  <use xlink:href="#rim" fill="#404040">
                        <set attributeName="fill" to="#808080" begin="arrowDown.mouseover" end="arrowDown.mouseout"/>
                  </use>
                  <path fill="none" stroke="white" stroke-width="1.5" d="M0,-3.0v7 M-2.5,-0.5L0,-3.0L2.5,-0.5"/>
                </g>
                <g id="arrowLeft" xlink:href="#dirArrow" transform="rotate(270) translate(-36 17)" onmousedown="handlePan(-1,0)">
                  <use xlink:href="#rim" fill="#404040">
                        <set attributeName="fill" to="#808080" begin="arrowLeft.mouseover" end="arrowLeft.mouseout"/>
                  </use>
                  <path fill="none" stroke="white" stroke-width="1.5" d="M0,-3.0v7 M-2.5,-0.5L0,-3.0L2.5,-0.5"/>
                </g>
        </g>
        <svg viewBox="0 0 15 15" width="100%" height="30px" preserveAspectRatio="xMaxYMin meet">
         <g id="arrow_out" transform="scale(0.3 0.3)">
          <a xlink:href="classnars_1_1storage_1_1Memory_aced4c4f51d46fb7046111aac85deffdc_aced4c4f51d46fb7046111aac85deffdc_cgraph_org.svg" target="_base">
           <rect id="button" ry="5" rx="5" y="6" x="6" height="38" width="38"
                fill="#f2f5e9" fill-opacity="0.5" stroke="#606060" stroke-width="1.0"/>
           <path id="arrow"
             d="M 11.500037,31.436501 C 11.940474,20.09759 22.043105,11.32322 32.158766,21.979434 L 37.068811,17.246167 C 37.068811,17.246167 37.088388,32 37.088388,32 L 22.160133,31.978069 C 22.160133,31.978069 26.997745,27.140456 26.997745,27.140456 C 18.528582,18.264221 13.291696,25.230495 11.500037,31.436501 z"
             style="fill:#404040;"/>
          </a>
         </g>
        </svg>
</svg>
