<?xml version="1.0" encoding="UTF-8" standalone="no"?>
<!DOCTYPE svg PUBLIC "-//W3C//DTD SVG 1.1//EN"
 "http://www.w3.org/Graphics/SVG/1.1/DTD/svg11.dtd">
<!-- Generated by graphviz version 2.38.0 (20140413.2041)
 -->
<!-- Title: nars.storage.Memory.noResult Pages: 1 -->
<svg width="1906pt" height="63pt"
 viewBox="0.00 0.00 1906.00 62.82" xmlns="http://www.w3.org/2000/svg" xmlns:xlink="http://www.w3.org/1999/xlink">
<g id="graph0" class="graph" transform="scale(1 1) rotate(0) translate(4 58.8173)">
<title>nars.storage.Memory.noResult</title>
<!-- Node1 -->
<g id="node1" class="node"><title>Node1</title>
<polygon fill="#bfbfbf" stroke="black" points="0,-22 0,-41 151,-41 151,-22 0,-22"/>
<text text-anchor="middle" x="75.5" y="-29" font-family="Helvetica,sans-Serif" font-size="10.00">nars.storage.Memory.noResult</text>
</g>
<!-- Node2 -->
<g id="node2" class="node"><title>Node2</title>
<g id="a_node2"><a xlink:href="../../d4/d22/classnars_1_1entity_1_1Concept_ae07576c8466ad65eeb61040e3f71cfc7.html#ae07576c8466ad65eeb61040e3f71cfc7" target="_top" xlink:title="An atomic step in a concept, only called in Memory# processConcept. ">
<polygon fill="none" stroke="black" points="386,-28 386,-47 505,-47 505,-28 386,-28"/>
<text text-anchor="middle" x="445.5" y="-35" font-family="Helvetica,sans-Serif" font-size="10.00">nars.entity.Concept.fire</text>
</a>
</g>
</g>
<!-- Node1&#45;&gt;Node2 -->
<g id="edge1" class="edge"><title>Node1&#45;&gt;Node2</title>
<path fill="none" stroke="midnightblue" d="M131.555,-42.8644C149.185,-45.9927 168.841,-48.9502 187,-50.5 259.182,-56.6605 277.725,-55.448 350,-50.5 361.648,-49.7026 374.047,-48.3584 385.901,-46.8292"/>
<polygon fill="midnightblue" stroke="midnightblue" points="131.903,-39.37 121.436,-41.0122 130.642,-46.2556 131.903,-39.37"/>
</g>
<!-- Node4 -->
<g id="node4" class="node"><title>Node4</title>
<g id="a_node4"><a xlink:href="../../d8/df4/classnars_1_1storage_1_1Memory_a49e2cbc8b78d535f4d69739886ee966a.html#a49e2cbc8b78d535f4d69739886ee966a" target="_top" xlink:title="An atomic working workCycle of the system: process new Tasks, then fire a concept. ">
<polygon fill="none" stroke="black" points="723,-0.5 723,-30.5 856,-30.5 856,-0.5 723,-0.5"/>
<text text-anchor="start" x="731" y="-18.5" font-family="Helvetica,sans-Serif" font-size="10.00">nars.storage.Memory.work</text>
<text text-anchor="middle" x="789.5" y="-7.5" font-family="Helvetica,sans-Serif" font-size="10.00">Cycle</text>
</a>
</g>
</g>
<!-- Node1&#45;&gt;Node4 -->
<g id="edge11" class="edge"><title>Node1&#45;&gt;Node4</title>
<path fill="none" stroke="midnightblue" d="M131.555,-20.1356C149.185,-17.0073 168.841,-14.0498 187,-12.5 381.314,4.08401 612.22,-5.12427 722.926,-11.3196"/>
<polygon fill="midnightblue" stroke="midnightblue" points="130.642,-16.7444 121.436,-21.9878 131.903,-23.63 130.642,-16.7444"/>
</g>
<!-- Node10 -->
<g id="node10" class="node"><title>Node10</title>
<g id="a_node10"><a xlink:href="../../da/de3/classnars_1_1inference_1_1RuleTables_ac2d01dfdc40bdd47c757cb549217e6e3.html#ac2d01dfdc40bdd47c757cb549217e6e3" target="_top" xlink:title="Entry point of the inference engine. ">
<polygon fill="none" stroke="black" points="187,-22 187,-41 350,-41 350,-22 187,-22"/>
<text text-anchor="middle" x="268.5" y="-29" font-family="Helvetica,sans-Serif" font-size="10.00">nars.inference.RuleTables.reason</text>
</a>
</g>
</g>
<!-- Node1&#45;&gt;Node10 -->
<g id="edge9" class="edge"><title>Node1&#45;&gt;Node10</title>
<path fill="none" stroke="midnightblue" d="M161.42,-31.5C169.888,-31.5 178.467,-31.5 186.888,-31.5"/>
<polygon fill="midnightblue" stroke="midnightblue" points="161.166,-28.0001 151.166,-31.5 161.166,-35.0001 161.166,-28.0001"/>
</g>
<!-- Node3 -->
<g id="node3" class="node"><title>Node3</title>
<g id="a_node3"><a xlink:href="../../d8/df4/classnars_1_1storage_1_1Memory_a83154b55b922c82b73931d4f22e3a590.html#a83154b55b922c82b73931d4f22e3a590" target="_top" xlink:title="Select a concept to fire. ">
<polygon fill="none" stroke="black" points="541,-22.5 541,-52.5 687,-52.5 687,-22.5 541,-22.5"/>
<text text-anchor="start" x="549" y="-40.5" font-family="Helvetica,sans-Serif" font-size="10.00">nars.storage.Memory.process</text>
<text text-anchor="middle" x="614" y="-29.5" font-family="Helvetica,sans-Serif" font-size="10.00">Concept</text>
</a>
</g>
</g>
<!-- Node2&#45;&gt;Node3 -->
<g id="edge2" class="edge"><title>Node2&#45;&gt;Node3</title>
<path fill="none" stroke="midnightblue" d="M515.337,-37.5C523.748,-37.5 532.361,-37.5 540.819,-37.5"/>
<polygon fill="midnightblue" stroke="midnightblue" points="515.202,-34.0001 505.202,-37.5 515.202,-41.0001 515.202,-34.0001"/>
</g>
<!-- Node3&#45;&gt;Node4 -->
<g id="edge3" class="edge"><title>Node3&#45;&gt;Node4</title>
<path fill="none" stroke="midnightblue" d="M697.118,-27.0874C705.716,-25.9971 714.375,-24.8992 722.755,-23.8365"/>
<polygon fill="midnightblue" stroke="midnightblue" points="696.553,-23.6309 687.072,-28.3611 697.433,-30.5753 696.553,-23.6309"/>
</g>
<!-- Node5 -->
<g id="node5" class="node"><title>Node5</title>
<g id="a_node5"><a xlink:href="../../dd/da5/classnars_1_1storage_1_1Memory_1_1ReasonerBatch_acc60dec23da774957a85362ed6d7448b.html#acc60dec23da774957a85362ed6d7448b" target="_top" xlink:title="nars.storage.Memory.Reasoner\lBatch.doTick">
<polygon fill="none" stroke="black" points="892,-0.5 892,-30.5 1046,-30.5 1046,-0.5 892,-0.5"/>
<text text-anchor="start" x="900" y="-18.5" font-family="Helvetica,sans-Serif" font-size="10.00">nars.storage.Memory.Reasoner</text>
<text text-anchor="middle" x="969" y="-7.5" font-family="Helvetica,sans-Serif" font-size="10.00">Batch.doTick</text>
</a>
</g>
</g>
<!-- Node4&#45;&gt;Node5 -->
<g id="edge4" class="edge"><title>Node4&#45;&gt;Node5</title>
<path fill="none" stroke="midnightblue" d="M866.318,-15.5C874.786,-15.5 883.414,-15.5 891.885,-15.5"/>
<polygon fill="midnightblue" stroke="midnightblue" points="866.09,-12.0001 856.09,-15.5 866.09,-19.0001 866.09,-12.0001"/>
</g>
<!-- Node6 -->
<g id="node6" class="node"><title>Node6</title>
<g id="a_node6"><a xlink:href="../../dd/da5/classnars_1_1storage_1_1Memory_1_1ReasonerBatch_aed591f05899b98fd9e4ad01836ad0a40.html#aed591f05899b98fd9e4ad01836ad0a40" target="_top" xlink:title="A clock tick. ">
<polygon fill="none" stroke="black" points="1082,-0.5 1082,-30.5 1236,-30.5 1236,-0.5 1082,-0.5"/>
<text text-anchor="start" x="1090" y="-18.5" font-family="Helvetica,sans-Serif" font-size="10.00">nars.storage.Memory.Reasoner</text>
<text text-anchor="middle" x="1159" y="-7.5" font-family="Helvetica,sans-Serif" font-size="10.00">Batch.tick</text>
</a>
</g>
</g>
<!-- Node5&#45;&gt;Node6 -->
<g id="edge5" class="edge"><title>Node5&#45;&gt;Node6</title>
<path fill="none" stroke="midnightblue" d="M1056.42,-15.5C1064.86,-15.5 1073.37,-15.5 1081.7,-15.5"/>
<polygon fill="midnightblue" stroke="midnightblue" points="1056.2,-12.0001 1046.2,-15.5 1056.2,-19.0001 1056.2,-12.0001"/>
</g>
<!-- Node7 -->
<g id="node7" class="node"><title>Node7</title>
<g id="a_node7"><a xlink:href="../../d4/d88/classnars_1_1storage_1_1Memory_1_1NARSBatch_aad99db6cedde9cff2a997db8906ff821.html#aad99db6cedde9cff2a997db8906ff821" target="_top" xlink:title="Run to completion: repeatedly execute NARS working cycle, until Inputs are Finished, or 1000 steps. ">
<polygon fill="none" stroke="black" points="1272,-6 1272,-25 1454,-25 1454,-6 1272,-6"/>
<text text-anchor="middle" x="1363" y="-13" font-family="Helvetica,sans-Serif" font-size="10.00">nars.storage.Memory.NARSBatch.run</text>
</a>
</g>
</g>
<!-- Node6&#45;&gt;Node7 -->
<g id="edge6" class="edge"><title>Node6&#45;&gt;Node7</title>
<path fill="none" stroke="midnightblue" d="M1246.27,-15.5C1254.69,-15.5 1263.25,-15.5 1271.71,-15.5"/>
<polygon fill="midnightblue" stroke="midnightblue" points="1246.08,-12.0001 1236.08,-15.5 1246.08,-19.0001 1246.08,-12.0001"/>
</g>
<!-- Node8 -->
<g id="node8" class="node"><title>Node8</title>
<g id="a_node8"><a xlink:href="../../d4/d88/classnars_1_1storage_1_1Memory_1_1NARSBatch_a416c39463faa161661ed1d12fea03b3c.html#a416c39463faa161661ed1d12fea03b3c" target="_top" xlink:title="non&#45;static equivalent to main(String[]) : run to completion from an input file ">
<polygon fill="none" stroke="black" points="1490,-0.5 1490,-30.5 1672,-30.5 1672,-0.5 1490,-0.5"/>
<text text-anchor="start" x="1498" y="-18.5" font-family="Helvetica,sans-Serif" font-size="10.00">nars.storage.Memory.NARSBatch.run</text>
<text text-anchor="middle" x="1581" y="-7.5" font-family="Helvetica,sans-Serif" font-size="10.00">Inference</text>
</a>
</g>
</g>
<!-- Node7&#45;&gt;Node8 -->
<g id="edge7" class="edge"><title>Node7&#45;&gt;Node8</title>
<path fill="none" stroke="midnightblue" d="M1464.06,-15.5C1472.63,-15.5 1481.27,-15.5 1489.76,-15.5"/>
<polygon fill="midnightblue" stroke="midnightblue" points="1464.04,-12.0001 1454.04,-15.5 1464.04,-19.0001 1464.04,-12.0001"/>
</g>
<!-- Node9 -->
<g id="node9" class="node"><title>Node9</title>
<g id="a_node9"><a xlink:href="../../d4/d88/classnars_1_1storage_1_1Memory_1_1NARSBatch_aa97fcd68270583e60e6bf1b4579d1bdc.html#aa97fcd68270583e60e6bf1b4579d1bdc" target="_top" xlink:title="The entry point of the standalone application. ">
<polygon fill="none" stroke="black" points="1708,-6 1708,-25 1898,-25 1898,-6 1708,-6"/>
<text text-anchor="middle" x="1803" y="-13" font-family="Helvetica,sans-Serif" font-size="10.00">nars.storage.Memory.NARSBatch.main</text>
</a>
</g>
</g>
<!-- Node8&#45;&gt;Node9 -->
<g id="edge8" class="edge"><title>Node8&#45;&gt;Node9</title>
<path fill="none" stroke="midnightblue" d="M1682.37,-15.5C1690.82,-15.5 1699.34,-15.5 1707.74,-15.5"/>
<polygon fill="midnightblue" stroke="midnightblue" points="1682.12,-12.0001 1672.12,-15.5 1682.12,-19.0001 1682.12,-12.0001"/>
</g>
<!-- Node10&#45;&gt;Node2 -->
<g id="edge10" class="edge"><title>Node10&#45;&gt;Node2</title>
<path fill="none" stroke="midnightblue" d="M360.249,-34.6114C368.907,-34.9082 377.523,-35.2036 385.757,-35.486"/>
<polygon fill="midnightblue" stroke="midnightblue" points="360.199,-31.1077 350.085,-34.2629 359.959,-38.1036 360.199,-31.1077"/>
</g>
</g>
</svg>
