<?xml version="1.0" encoding="UTF-8" standalone="no"?>
<!DOCTYPE svg PUBLIC "-//W3C//DTD SVG 1.1//EN"
 "http://www.w3.org/Graphics/SVG/1.1/DTD/svg11.dtd">
<!-- Generated by graphviz version 2.38.0 (20140413.2041)
 -->
<!-- Title: nars.storage.Memory.report Pages: 1 -->
<svg width="728pt" height="296pt"
 viewBox="0.00 0.00 728.00 296.00" xmlns="http://www.w3.org/2000/svg" xmlns:xlink="http://www.w3.org/1999/xlink">
<g id="graph0" class="graph" transform="scale(1 1) rotate(0) translate(4 292)">
<title>nars.storage.Memory.report</title>
<!-- Node1 -->
<g id="node1" class="node"><title>Node1</title>
<polygon fill="#bfbfbf" stroke="black" points="0,-181 0,-200 137,-200 137,-181 0,-181"/>
<text text-anchor="middle" x="68.5" y="-188" font-family="Helvetica,sans-Serif" font-size="10.00">nars.storage.Memory.report</text>
</g>
<!-- Node2 -->
<g id="node2" class="node"><title>Node2</title>
<g id="a_node2"><a xlink:href="../../d8/df4/classnars_1_1storage_1_1Memory_a1a17565c7b06ca4ecc1ed57c3fce973f.html#a1a17565c7b06ca4ecc1ed57c3fce973f" target="_top" xlink:title="List of Strings or Tasks to be sent to the output channels. ">
<polygon fill="none" stroke="black" points="173,-257.5 173,-287.5 327,-287.5 327,-257.5 173,-257.5"/>
<text text-anchor="start" x="181" y="-275.5" font-family="Helvetica,sans-Serif" font-size="10.00">nars.storage.Memory.getExport</text>
<text text-anchor="middle" x="250" y="-264.5" font-family="Helvetica,sans-Serif" font-size="10.00">Strings</text>
</a>
</g>
</g>
<!-- Node1&#45;&gt;Node2 -->
<g id="edge1" class="edge"><title>Node1&#45;&gt;Node2</title>
<path fill="none" stroke="midnightblue" d="M87.2159,-200.011C107.642,-210.834 142.347,-228.783 173,-242.5 181.463,-246.287 190.558,-250.096 199.411,-253.668"/>
<polygon fill="midnightblue" stroke="midnightblue" points="198.297,-256.992 208.882,-257.44 200.887,-250.488 198.297,-256.992"/>
</g>
<!-- Node3 -->
<g id="node3" class="node"><title>Node3</title>
<g id="a_node3"><a xlink:href="../../d8/df4/classnars_1_1storage_1_1Memory_a076ad9a0e872386bca3f2d17fa7cb2d4.html#a076ad9a0e872386bca3f2d17fa7cb2d4" target="_top" xlink:title="Backward pointer to the reasoner. ">
<polygon fill="none" stroke="black" points="363,-225 363,-244 530,-244 530,-225 363,-225"/>
<text text-anchor="middle" x="446.5" y="-232" font-family="Helvetica,sans-Serif" font-size="10.00">nars.storage.Memory.getReasoner</text>
</a>
</g>
</g>
<!-- Node1&#45;&gt;Node3 -->
<g id="edge2" class="edge"><title>Node1&#45;&gt;Node3</title>
<path fill="none" stroke="midnightblue" d="M116.242,-200.004C133.962,-203.363 154.358,-206.939 173,-209.5 232.692,-217.7 300.12,-223.911 352.969,-228.091"/>
<polygon fill="midnightblue" stroke="midnightblue" points="352.758,-231.586 363,-228.874 353.303,-224.607 352.758,-231.586"/>
</g>
<!-- Node4 -->
<g id="node4" class="node"><title>Node4</title>
<g id="a_node4"><a xlink:href="../../d8/df4/classnars_1_1storage_1_1Memory_aaa97540563b646b33db1263fa3a97d53.html#aaa97540563b646b33db1263fa3a97d53" target="_top" xlink:title="nars.storage.Memory.getTime">
<polygon fill="none" stroke="black" points="176.5,-181 176.5,-200 323.5,-200 323.5,-181 176.5,-181"/>
<text text-anchor="middle" x="250" y="-188" font-family="Helvetica,sans-Serif" font-size="10.00">nars.storage.Memory.getTime</text>
</a>
</g>
</g>
<!-- Node1&#45;&gt;Node4 -->
<g id="edge3" class="edge"><title>Node1&#45;&gt;Node4</title>
<path fill="none" stroke="midnightblue" d="M137.105,-190.5C146.62,-190.5 156.489,-190.5 166.248,-190.5"/>
<polygon fill="midnightblue" stroke="midnightblue" points="166.357,-194 176.357,-190.5 166.357,-187 166.357,-194"/>
</g>
<!-- Node6 -->
<g id="node6" class="node"><title>Node6</title>
<g id="a_node6"><a xlink:href="../../d6/d25/classnars_1_1entity_1_1Sentence_aed4fff67fb986a938db98460a16dda2d.html#aed4fff67fb986a938db98460a16dda2d" target="_top" xlink:title="Get a String representation of the sentence, with 2&#45;digit accuracy. ">
<polygon fill="none" stroke="black" points="178.5,-131.5 178.5,-161.5 321.5,-161.5 321.5,-131.5 178.5,-131.5"/>
<text text-anchor="start" x="186.5" y="-149.5" font-family="Helvetica,sans-Serif" font-size="10.00">nars.entity.Sentence.toString</text>
<text text-anchor="middle" x="250" y="-138.5" font-family="Helvetica,sans-Serif" font-size="10.00">Brief</text>
</a>
</g>
</g>
<!-- Node1&#45;&gt;Node6 -->
<g id="edge6" class="edge"><title>Node1&#45;&gt;Node6</title>
<path fill="none" stroke="midnightblue" d="M108.449,-180.953C128.658,-175.999 153.992,-169.789 177.565,-164.01"/>
<polygon fill="midnightblue" stroke="midnightblue" points="178.661,-167.346 187.54,-161.565 176.994,-160.547 178.661,-167.346"/>
</g>
<!-- Node11 -->
<g id="node11" class="node"><title>Node11</title>
<g id="a_node11"><a xlink:href="../../dd/da5/classnars_1_1storage_1_1Memory_1_1ReasonerBatch_ad567a9256ef8674e839ed6fe62664987.html#ad567a9256ef8674e839ed6fe62664987" target="_top" xlink:title="To get the timer value and then to reset it. ">
<polygon fill="none" stroke="black" points="173,-49.5 173,-79.5 327,-79.5 327,-49.5 173,-49.5"/>
<text text-anchor="start" x="181" y="-67.5" font-family="Helvetica,sans-Serif" font-size="10.00">nars.storage.Memory.Reasoner</text>
<text text-anchor="middle" x="250" y="-56.5" font-family="Helvetica,sans-Serif" font-size="10.00">Batch.updateTimer</text>
</a>
</g>
</g>
<!-- Node1&#45;&gt;Node11 -->
<g id="edge11" class="edge"><title>Node1&#45;&gt;Node11</title>
<path fill="none" stroke="midnightblue" d="M83.287,-180.822C112.213,-160.518 179.808,-113.069 219.149,-85.4536"/>
<polygon fill="midnightblue" stroke="midnightblue" points="221.388,-88.1586 227.562,-79.5485 217.366,-82.4292 221.388,-88.1586"/>
</g>
<!-- Node4&#45;&gt;Node3 -->
<g id="edge4" class="edge"><title>Node4&#45;&gt;Node3</title>
<path fill="none" stroke="midnightblue" d="M293.204,-200.047C322.642,-206.707 362.114,-215.636 393.497,-222.736"/>
<polygon fill="midnightblue" stroke="midnightblue" points="392.853,-226.178 403.379,-224.971 394.398,-219.351 392.853,-226.178"/>
</g>
<!-- Node5 -->
<g id="node5" class="node"><title>Node5</title>
<g id="a_node5"><a xlink:href="../../dd/da5/classnars_1_1storage_1_1Memory_1_1ReasonerBatch_aaf7efb6a6732b702669e9548bdb3a243.html#aaf7efb6a6732b702669e9548bdb3a243" target="_top" xlink:title="Get the current time from the clock Called in nars.entity.Stamp. ">
<polygon fill="none" stroke="black" points="369.5,-175.5 369.5,-205.5 523.5,-205.5 523.5,-175.5 369.5,-175.5"/>
<text text-anchor="start" x="377.5" y="-193.5" font-family="Helvetica,sans-Serif" font-size="10.00">nars.storage.Memory.Reasoner</text>
<text text-anchor="middle" x="446.5" y="-182.5" font-family="Helvetica,sans-Serif" font-size="10.00">Batch.getTime</text>
</a>
</g>
</g>
<!-- Node4&#45;&gt;Node5 -->
<g id="edge5" class="edge"><title>Node4&#45;&gt;Node5</title>
<path fill="none" stroke="midnightblue" d="M323.701,-190.5C335.218,-190.5 347.226,-190.5 359.02,-190.5"/>
<polygon fill="midnightblue" stroke="midnightblue" points="359.312,-194 369.312,-190.5 359.312,-187 359.312,-194"/>
</g>
<!-- Node7 -->
<g id="node7" class="node"><title>Node7</title>
<g id="a_node7"><a xlink:href="../../d6/d25/classnars_1_1entity_1_1Sentence_a32d81c9525d514aca8ddc5f4db48a762.html#a32d81c9525d514aca8ddc5f4db48a762" target="_top" xlink:title="Get a String representation of the sentence for key of Task and TaskLink. ">
<polygon fill="none" stroke="black" points="379,-137 379,-156 514,-156 514,-137 379,-137"/>
<text text-anchor="middle" x="446.5" y="-144" font-family="Helvetica,sans-Serif" font-size="10.00">nars.entity.Sentence.toKey</text>
</a>
</g>
</g>
<!-- Node6&#45;&gt;Node7 -->
<g id="edge7" class="edge"><title>Node6&#45;&gt;Node7</title>
<path fill="none" stroke="midnightblue" d="M321.769,-146.5C337.094,-146.5 353.37,-146.5 368.907,-146.5"/>
<polygon fill="midnightblue" stroke="midnightblue" points="368.993,-150 378.993,-146.5 368.993,-143 368.993,-150"/>
</g>
<!-- Node10 -->
<g id="node10" class="node"><title>Node10</title>
<g id="a_node10"><a xlink:href="../../d1/d1e/classnars_1_1entity_1_1Stamp_ad1aee19cfc0bb8ca9232bad251f74ffc.html#ad1aee19cfc0bb8ca9232bad251f74ffc" target="_top" xlink:title="Get a String form of the Stamp for display Format: {creationTime [: eventTime] : evidentialBase}. ">
<polygon fill="none" stroke="black" points="381,-99 381,-118 512,-118 512,-99 381,-99"/>
<text text-anchor="middle" x="446.5" y="-106" font-family="Helvetica,sans-Serif" font-size="10.00">nars.entity.Stamp.toString</text>
</a>
</g>
</g>
<!-- Node6&#45;&gt;Node10 -->
<g id="edge10" class="edge"><title>Node6&#45;&gt;Node10</title>
<path fill="none" stroke="midnightblue" d="M321.769,-132.674C343.145,-128.497 366.368,-123.96 386.861,-119.957"/>
<polygon fill="midnightblue" stroke="midnightblue" points="387.538,-123.39 396.681,-118.038 386.196,-116.52 387.538,-123.39"/>
</g>
<!-- Node8 -->
<g id="node8" class="node"><title>Node8</title>
<g id="a_node8"><a xlink:href="../../d8/db8/classnars_1_1language_1_1Term_a04fc046ba98c451bded562f79cff4244.html#a04fc046ba98c451bded562f79cff4244" target="_top" xlink:title="The same as getName by default, used in display only. ">
<polygon fill="none" stroke="black" points="573,-159 573,-178 713,-178 713,-159 573,-159"/>
<text text-anchor="middle" x="643" y="-166" font-family="Helvetica,sans-Serif" font-size="10.00">nars.language.Term.toString</text>
</a>
</g>
</g>
<!-- Node7&#45;&gt;Node8 -->
<g id="edge8" class="edge"><title>Node7&#45;&gt;Node8</title>
<path fill="none" stroke="midnightblue" d="M514.164,-154.04C529.827,-155.812 546.67,-157.717 562.822,-159.544"/>
<polygon fill="midnightblue" stroke="midnightblue" points="562.444,-163.024 572.774,-160.67 563.231,-156.068 562.444,-163.024"/>
</g>
<!-- Node9 -->
<g id="node9" class="node"><title>Node9</title>
<g id="a_node9"><a xlink:href="../../d3/db8/classnars_1_1entity_1_1TruthValue_a5af8b2fe37987ba1e8396ec1aad38e90.html#a5af8b2fe37987ba1e8396ec1aad38e90" target="_top" xlink:title="A simplified String representation of a TruthValue, where each factor is accruate to 1%...">
<polygon fill="none" stroke="black" points="581,-109.5 581,-139.5 705,-139.5 705,-109.5 581,-109.5"/>
<text text-anchor="start" x="589" y="-127.5" font-family="Helvetica,sans-Serif" font-size="10.00">nars.entity.TruthValue.to</text>
<text text-anchor="middle" x="643" y="-116.5" font-family="Helvetica,sans-Serif" font-size="10.00">StringBrief</text>
</a>
</g>
</g>
<!-- Node7&#45;&gt;Node9 -->
<g id="edge9" class="edge"><title>Node7&#45;&gt;Node9</title>
<path fill="none" stroke="midnightblue" d="M514.164,-138.96C532.443,-136.892 552.326,-134.643 570.847,-132.548"/>
<polygon fill="midnightblue" stroke="midnightblue" points="571.433,-136.004 580.976,-131.402 570.646,-129.049 571.433,-136.004"/>
</g>
<!-- Node12 -->
<g id="node12" class="node"><title>Node12</title>
<g id="a_node12"><a xlink:href="../../dd/da5/classnars_1_1storage_1_1Memory_1_1ReasonerBatch_a10e1e86d98e1a12f6652ab7452dc7954.html#a10e1e86d98e1a12f6652ab7452dc7954" target="_top" xlink:title="nars.storage.Memory.Reasoner\lBatch.getTimer">
<polygon fill="none" stroke="black" points="369.5,-49.5 369.5,-79.5 523.5,-79.5 523.5,-49.5 369.5,-49.5"/>
<text text-anchor="start" x="377.5" y="-67.5" font-family="Helvetica,sans-Serif" font-size="10.00">nars.storage.Memory.Reasoner</text>
<text text-anchor="middle" x="446.5" y="-56.5" font-family="Helvetica,sans-Serif" font-size="10.00">Batch.getTimer</text>
</a>
</g>
</g>
<!-- Node11&#45;&gt;Node12 -->
<g id="edge12" class="edge"><title>Node11&#45;&gt;Node12</title>
<path fill="none" stroke="midnightblue" d="M327.034,-64.5C337.531,-64.5 348.374,-64.5 359.042,-64.5"/>
<polygon fill="midnightblue" stroke="midnightblue" points="359.199,-68.0001 369.199,-64.5 359.199,-61.0001 359.199,-68.0001"/>
</g>
<!-- Node13 -->
<g id="node13" class="node"><title>Node13</title>
<g id="a_node13"><a xlink:href="../../dd/da5/classnars_1_1storage_1_1Memory_1_1ReasonerBatch_af29e66c0813aeea26cc4afea9735473e.html#af29e66c0813aeea26cc4afea9735473e" target="_top" xlink:title="nars.storage.Memory.Reasoner\lBatch.initTimer">
<polygon fill="none" stroke="black" points="369.5,-0.5 369.5,-30.5 523.5,-30.5 523.5,-0.5 369.5,-0.5"/>
<text text-anchor="start" x="377.5" y="-18.5" font-family="Helvetica,sans-Serif" font-size="10.00">nars.storage.Memory.Reasoner</text>
<text text-anchor="middle" x="446.5" y="-7.5" font-family="Helvetica,sans-Serif" font-size="10.00">Batch.initTimer</text>
</a>
</g>
</g>
<!-- Node11&#45;&gt;Node13 -->
<g id="edge13" class="edge"><title>Node11&#45;&gt;Node13</title>
<path fill="none" stroke="midnightblue" d="M310.678,-49.4654C331.308,-44.2682 354.603,-38.3994 375.955,-33.0204"/>
<polygon fill="midnightblue" stroke="midnightblue" points="377.093,-36.3432 385.935,-30.5062 375.383,-29.5553 377.093,-36.3432"/>
</g>
<!-- Node14 -->
<g id="node14" class="node"><title>Node14</title>
<g id="a_node14"><a xlink:href="../../dd/da5/classnars_1_1storage_1_1Memory_1_1ReasonerBatch_a364bf53ee103367ae0518803bc746bc2.html#a364bf53ee103367ae0518803bc746bc2" target="_top" xlink:title="nars.storage.Memory.Reasoner\lBatch.setTimer">
<polygon fill="none" stroke="black" points="566,-0.5 566,-30.5 720,-30.5 720,-0.5 566,-0.5"/>
<text text-anchor="start" x="574" y="-18.5" font-family="Helvetica,sans-Serif" font-size="10.00">nars.storage.Memory.Reasoner</text>
<text text-anchor="middle" x="643" y="-7.5" font-family="Helvetica,sans-Serif" font-size="10.00">Batch.setTimer</text>
</a>
</g>
</g>
<!-- Node13&#45;&gt;Node14 -->
<g id="edge14" class="edge"><title>Node13&#45;&gt;Node14</title>
<path fill="none" stroke="midnightblue" d="M523.534,-15.5C534.031,-15.5 544.874,-15.5 555.542,-15.5"/>
<polygon fill="midnightblue" stroke="midnightblue" points="555.699,-19.0001 565.699,-15.5 555.699,-12.0001 555.699,-19.0001"/>
</g>
</g>
</svg>
