<?xml version="1.0" encoding="UTF-8" standalone="no"?>
<!DOCTYPE svg PUBLIC "-//W3C//DTD SVG 1.1//EN"
 "http://www.w3.org/Graphics/SVG/1.1/DTD/svg11.dtd">
<!-- Generated by graphviz version 2.38.0 (20140413.2041)
 -->
<!-- Title: nars.storage.Memory.toStringLongIfNotNull Pages: 1 -->
<svg width="491pt" height="39pt"
 viewBox="0.00 0.00 491.00 39.00" xmlns="http://www.w3.org/2000/svg" xmlns:xlink="http://www.w3.org/1999/xlink">
<g id="graph0" class="graph" transform="scale(1 1) rotate(0) translate(4 35)">
<title>nars.storage.Memory.toStringLongIfNotNull</title>
<!-- Node1 -->
<g id="node1" class="node"><title>Node1</title>
<polygon fill="#bfbfbf" stroke="black" points="0,-0.5 0,-30.5 146,-30.5 146,-0.5 0,-0.5"/>
<text text-anchor="start" x="8" y="-18.5" font-family="Helvetica,sans-Serif" font-size="10.00">nars.storage.Memory.toString</text>
<text text-anchor="middle" x="73" y="-7.5" font-family="Helvetica,sans-Serif" font-size="10.00">LongIfNotNull</text>
</g>
<!-- Node2 -->
<g id="node2" class="node"><title>Node2</title>
<g id="a_node2"><a xlink:href="../../d1/dd1/classnars_1_1entity_1_1Item_af06f82dd62f5ddf754886b15e1d76dbc.html#af06f82dd62f5ddf754886b15e1d76dbc" target="_top" xlink:title="nars.entity.Item.toStringLong">
<polygon fill="none" stroke="black" points="182,-6 182,-25 325,-25 325,-6 182,-6"/>
<text text-anchor="middle" x="253.5" y="-13" font-family="Helvetica,sans-Serif" font-size="10.00">nars.entity.Item.toStringLong</text>
</a>
</g>
</g>
<!-- Node1&#45;&gt;Node2 -->
<g id="edge1" class="edge"><title>Node1&#45;&gt;Node2</title>
<path fill="none" stroke="midnightblue" d="M146.088,-15.5C154.573,-15.5 163.272,-15.5 171.864,-15.5"/>
<polygon fill="midnightblue" stroke="midnightblue" points="171.882,-19.0001 181.882,-15.5 171.882,-12.0001 171.882,-19.0001"/>
</g>
<!-- Node3 -->
<g id="node3" class="node"><title>Node3</title>
<g id="a_node3"><a xlink:href="../../d1/dd1/classnars_1_1entity_1_1Item_aa09cfb045062f89cbea45a6975e6a2f2.html#aa09cfb045062f89cbea45a6975e6a2f2" target="_top" xlink:title="Return a String representation of the Item. ">
<polygon fill="none" stroke="black" points="361,-6 361,-25 483,-25 483,-6 361,-6"/>
<text text-anchor="middle" x="422" y="-13" font-family="Helvetica,sans-Serif" font-size="10.00">nars.entity.Item.toString</text>
</a>
</g>
</g>
<!-- Node2&#45;&gt;Node3 -->
<g id="edge2" class="edge"><title>Node2&#45;&gt;Node3</title>
<path fill="none" stroke="midnightblue" d="M325.111,-15.5C333.555,-15.5 342.176,-15.5 350.616,-15.5"/>
<polygon fill="midnightblue" stroke="midnightblue" points="350.798,-19.0001 360.798,-15.5 350.798,-12.0001 350.798,-19.0001"/>
</g>
</g>
</svg>
