<?xml version="1.0" encoding="UTF-8" standalone="no"?>
<!DOCTYPE svg PUBLIC "-//W3C//DTD SVG 1.1//EN"
 "http://www.w3.org/Graphics/SVG/1.1/DTD/svg11.dtd">
<!-- Generated by graphviz version 2.38.0 (20140413.2041)
 -->
<!-- Title: nars.storage.Memory.setReasoner Pages: 1 -->
<svg width="548pt" height="39pt"
 viewBox="0.00 0.00 548.00 39.00" xmlns="http://www.w3.org/2000/svg" xmlns:xlink="http://www.w3.org/1999/xlink">
<g id="graph0" class="graph" transform="scale(1 1) rotate(0) translate(4 35)">
<title>nars.storage.Memory.setReasoner</title>
<!-- Node1 -->
<g id="node1" class="node"><title>Node1</title>
<polygon fill="#bfbfbf" stroke="black" points="0,-6 0,-25 167,-25 167,-6 0,-6"/>
<text text-anchor="middle" x="83.5" y="-13" font-family="Helvetica,sans-Serif" font-size="10.00">nars.storage.Memory.setReasoner</text>
</g>
<!-- Node2 -->
<g id="node2" class="node"><title>Node2</title>
<g id="a_node2"><a xlink:href="../../d8/df4/classnars_1_1storage_1_1Memory_a3d47e1393f4751a94e1b18e64c9fa2ef.html#a3d47e1393f4751a94e1b18e64c9fa2ef" target="_top" xlink:title="Create a new memory. ">
<polygon fill="none" stroke="black" points="203,-6 203,-25 350,-25 350,-6 203,-6"/>
<text text-anchor="middle" x="276.5" y="-13" font-family="Helvetica,sans-Serif" font-size="10.00">nars.storage.Memory.Memory</text>
</a>
</g>
</g>
<!-- Node1&#45;&gt;Node2 -->
<g id="edge1" class="edge"><title>Node1&#45;&gt;Node2</title>
<path fill="none" stroke="midnightblue" d="M177.25,-15.5C185.867,-15.5 194.514,-15.5 202.91,-15.5"/>
<polygon fill="midnightblue" stroke="midnightblue" points="177.165,-12.0001 167.165,-15.5 177.164,-19.0001 177.165,-12.0001"/>
</g>
<!-- Node3 -->
<g id="node3" class="node"><title>Node3</title>
<g id="a_node3"><a xlink:href="../../dd/da5/classnars_1_1storage_1_1Memory_1_1ReasonerBatch_a82e17451a5291bbbaaaa92ef3ce5d830.html#a82e17451a5291bbbaaaa92ef3ce5d830" target="_top" xlink:title="nars.storage.Memory.Reasoner\lBatch.ReasonerBatch">
<polygon fill="none" stroke="black" points="386,-0.5 386,-30.5 540,-30.5 540,-0.5 386,-0.5"/>
<text text-anchor="start" x="394" y="-18.5" font-family="Helvetica,sans-Serif" font-size="10.00">nars.storage.Memory.Reasoner</text>
<text text-anchor="middle" x="463" y="-7.5" font-family="Helvetica,sans-Serif" font-size="10.00">Batch.ReasonerBatch</text>
</a>
</g>
</g>
<!-- Node2&#45;&gt;Node3 -->
<g id="edge2" class="edge"><title>Node2&#45;&gt;Node3</title>
<path fill="none" stroke="midnightblue" d="M360.389,-15.5C368.839,-15.5 377.395,-15.5 385.769,-15.5"/>
<polygon fill="midnightblue" stroke="midnightblue" points="360.154,-12.0001 350.154,-15.5 360.154,-19.0001 360.154,-12.0001"/>
</g>
</g>
</svg>
