<?xml version="1.0" encoding="UTF-8" standalone="no"?>
<!DOCTYPE svg PUBLIC "-//W3C//DTD SVG 1.1//EN"
 "http://www.w3.org/Graphics/SVG/1.1/DTD/svg11.dtd">
<!-- Generated by graphviz version 2.38.0 (20140413.2041)
 -->
<!-- Title: nars.storage.Memory.doublePremiseTask Pages: 1 -->
<svg width="1178pt" height="531pt"
 viewBox="0.00 0.00 1178.00 531.00" xmlns="http://www.w3.org/2000/svg" xmlns:xlink="http://www.w3.org/1999/xlink">
<g id="graph0" class="graph" transform="scale(1 1) rotate(0) translate(4 527)">
<title>nars.storage.Memory.doublePremiseTask</title>
<!-- Node1 -->
<g id="node1" class="node"><title>Node1</title>
<polygon fill="#bfbfbf" stroke="black" points="0,-117.5 0,-147.5 140,-147.5 140,-117.5 0,-117.5"/>
<text text-anchor="start" x="8" y="-135.5" font-family="Helvetica,sans-Serif" font-size="10.00">nars.storage.Memory.double</text>
<text text-anchor="middle" x="70" y="-124.5" font-family="Helvetica,sans-Serif" font-size="10.00">PremiseTask</text>
</g>
<!-- Node2 -->
<g id="node2" class="node"><title>Node2</title>
<g id="a_node2"><a xlink:href="../../d8/df4/classnars_1_1storage_1_1Memory_af46c161061654d05bfe6c5db768ef2ef.html#af46c161061654d05bfe6c5db768ef2ef" target="_top" xlink:title="Derived task comes from the inference rules. ">
<polygon fill="none" stroke="black" points="183,-290 183,-309 348,-309 348,-290 183,-290"/>
<text text-anchor="middle" x="265.5" y="-297" font-family="Helvetica,sans-Serif" font-size="10.00">nars.storage.Memory.derivedTask</text>
</a>
</g>
</g>
<!-- Node1&#45;&gt;Node2 -->
<g id="edge1" class="edge"><title>Node1&#45;&gt;Node2</title>
<path fill="none" stroke="midnightblue" d="M88.5131,-147.615C124.839,-178.965 208.114,-250.836 245.601,-283.189"/>
<polygon fill="midnightblue" stroke="midnightblue" points="243.423,-285.933 253.28,-289.817 247.997,-280.633 243.423,-285.933"/>
</g>
<!-- Node11 -->
<g id="node11" class="node"><title>Node11</title>
<g id="a_node11"><a xlink:href="../../dc/ddc/classnars_1_1entity_1_1Task_ab140cb553a6cf40b07093d1df283567f.html#ab140cb553a6cf40b07093d1df283567f" target="_top" xlink:title="Get the sentence. ">
<polygon fill="none" stroke="black" points="402,-126 402,-145 547,-145 547,-126 402,-126"/>
<text text-anchor="middle" x="474.5" y="-133" font-family="Helvetica,sans-Serif" font-size="10.00">nars.entity.Task.getSentence</text>
</a>
</g>
</g>
<!-- Node1&#45;&gt;Node11 -->
<g id="edge32" class="edge"><title>Node1&#45;&gt;Node11</title>
<path fill="none" stroke="midnightblue" d="M97.1722,-147.608C117.821,-158.613 147.755,-172.584 176,-178.5 253.866,-194.808 278.858,-201.554 355,-178.5 373.405,-172.928 373.343,-162.115 391,-154.5 396.846,-151.979 403.075,-149.767 409.39,-147.832"/>
<polygon fill="midnightblue" stroke="midnightblue" points="410.675,-151.106 419.343,-145.014 408.768,-144.371 410.675,-151.106"/>
</g>
<!-- Node26 -->
<g id="node26" class="node"><title>Node26</title>
<g id="a_node26"><a xlink:href="../../d8/df4/classnars_1_1storage_1_1Memory_aae366ea198c2340fef786120d5c2163b.html#aae366ea198c2340fef786120d5c2163b" target="_top" xlink:title="The selected belief. ">
<polygon fill="none" stroke="black" points="186.5,-139.5 186.5,-169.5 344.5,-169.5 344.5,-139.5 186.5,-139.5"/>
<text text-anchor="start" x="194.5" y="-157.5" font-family="Helvetica,sans-Serif" font-size="10.00">nars.storage.Memory.getCurrent</text>
<text text-anchor="middle" x="265.5" y="-146.5" font-family="Helvetica,sans-Serif" font-size="10.00">Belief</text>
</a>
</g>
</g>
<!-- Node1&#45;&gt;Node26 -->
<g id="edge28" class="edge"><title>Node1&#45;&gt;Node26</title>
<path fill="none" stroke="midnightblue" d="M140.038,-140.349C151.74,-141.68 164.032,-143.077 176.147,-144.455"/>
<polygon fill="midnightblue" stroke="midnightblue" points="175.934,-147.953 186.266,-145.605 176.725,-140.998 175.934,-147.953"/>
</g>
<!-- Node27 -->
<g id="node27" class="node"><title>Node27</title>
<g id="a_node27"><a xlink:href="../../d8/df4/classnars_1_1storage_1_1Memory_a26eda4f00b333b706b4e3d069fdf1508.html#a26eda4f00b333b706b4e3d069fdf1508" target="_top" xlink:title="The selected Task. ">
<polygon fill="none" stroke="black" points="176,-101 176,-120 355,-120 355,-101 176,-101"/>
<text text-anchor="middle" x="265.5" y="-108" font-family="Helvetica,sans-Serif" font-size="10.00">nars.storage.Memory.getCurrentTask</text>
</a>
</g>
</g>
<!-- Node1&#45;&gt;Node27 -->
<g id="edge29" class="edge"><title>Node1&#45;&gt;Node27</title>
<path fill="none" stroke="midnightblue" d="M140.038,-124.651C150.073,-123.51 160.542,-122.32 170.961,-121.135"/>
<polygon fill="midnightblue" stroke="midnightblue" points="171.379,-124.61 180.919,-120.003 170.588,-117.655 171.379,-124.61"/>
</g>
<!-- Node28 -->
<g id="node28" class="node"><title>Node28</title>
<g id="a_node28"><a xlink:href="../../d8/df4/classnars_1_1storage_1_1Memory_a09af34150e8562d5c93170388c8804b7.html#a09af34150e8562d5c93170388c8804b7" target="_top" xlink:title="The new Stamp. ">
<polygon fill="none" stroke="black" points="192.5,-51.5 192.5,-81.5 338.5,-81.5 338.5,-51.5 192.5,-51.5"/>
<text text-anchor="start" x="200.5" y="-69.5" font-family="Helvetica,sans-Serif" font-size="10.00">nars.storage.Memory.getNew</text>
<text text-anchor="middle" x="265.5" y="-58.5" font-family="Helvetica,sans-Serif" font-size="10.00">Stamp</text>
</a>
</g>
</g>
<!-- Node1&#45;&gt;Node28 -->
<g id="edge30" class="edge"><title>Node1&#45;&gt;Node28</title>
<path fill="none" stroke="midnightblue" d="M107.127,-117.393C127.232,-109.24 152.809,-99.2829 176,-91.5 183.237,-89.0712 190.858,-86.6777 198.467,-84.3908"/>
<polygon fill="midnightblue" stroke="midnightblue" points="199.468,-87.7446 208.068,-81.5567 197.486,-81.0309 199.468,-87.7446"/>
</g>
<!-- Node29 -->
<g id="node29" class="node"><title>Node29</title>
<g id="a_node29"><a xlink:href="../../d6/d25/classnars_1_1entity_1_1Sentence_a3e0fe978c5d87f921a277fd067982980.html#a3e0fe978c5d87f921a277fd067982980" target="_top" xlink:title="Get the punctuation of the sentence. ">
<polygon fill="none" stroke="black" points="204,-2.5 204,-32.5 327,-32.5 327,-2.5 204,-2.5"/>
<text text-anchor="start" x="212" y="-20.5" font-family="Helvetica,sans-Serif" font-size="10.00">nars.entity.Sentence.get</text>
<text text-anchor="middle" x="265.5" y="-9.5" font-family="Helvetica,sans-Serif" font-size="10.00">Punctuation</text>
</a>
</g>
</g>
<!-- Node1&#45;&gt;Node29 -->
<g id="edge31" class="edge"><title>Node1&#45;&gt;Node29</title>
<path fill="none" stroke="midnightblue" d="M84.3752,-117.242C102.952,-96.9869 138.529,-61.4603 176,-41.5 181.625,-38.5039 187.654,-35.8579 193.824,-33.5259"/>
<polygon fill="midnightblue" stroke="midnightblue" points="195.31,-36.7143 203.599,-30.1144 193.004,-30.1053 195.31,-36.7143"/>
</g>
<!-- Node3 -->
<g id="node3" class="node"><title>Node3</title>
<g id="a_node3"><a xlink:href="../../db/d8e/classnars_1_1entity_1_1BudgetValue_ae83b822f3bab4c1831e94d72fc770f58.html#ae83b822f3bab4c1831e94d72fc770f58" target="_top" xlink:title="Whether the budget should get any processing at all. ">
<polygon fill="none" stroke="black" points="399.5,-492.5 399.5,-522.5 549.5,-522.5 549.5,-492.5 399.5,-492.5"/>
<text text-anchor="start" x="407.5" y="-510.5" font-family="Helvetica,sans-Serif" font-size="10.00">nars.entity.BudgetValue.above</text>
<text text-anchor="middle" x="474.5" y="-499.5" font-family="Helvetica,sans-Serif" font-size="10.00">Threshold</text>
</a>
</g>
</g>
<!-- Node2&#45;&gt;Node3 -->
<g id="edge2" class="edge"><title>Node2&#45;&gt;Node3</title>
<path fill="none" stroke="midnightblue" d="M270.649,-309.153C283.818,-338.697 327.578,-428.823 391,-477.5 396.28,-481.552 402.159,-485.095 408.28,-488.184"/>
<polygon fill="midnightblue" stroke="midnightblue" points="406.833,-491.371 417.379,-492.392 409.771,-485.018 406.833,-491.371"/>
</g>
<!-- Node4 -->
<g id="node4" class="node"><title>Node4</title>
<g id="a_node4"><a xlink:href="../../db/d8e/classnars_1_1entity_1_1BudgetValue_af414899759992288edbba78d7457c534.html#af414899759992288edbba78d7457c534" target="_top" xlink:title="To summarize a BudgetValue into a single number in [0, 1]. ">
<polygon fill="none" stroke="black" points="594,-476 594,-495 758,-495 758,-476 594,-476"/>
<text text-anchor="middle" x="676" y="-483" font-family="Helvetica,sans-Serif" font-size="10.00">nars.entity.BudgetValue.summary</text>
</a>
</g>
</g>
<!-- Node2&#45;&gt;Node4 -->
<g id="edge27" class="edge"><title>Node2&#45;&gt;Node4</title>
<path fill="none" stroke="midnightblue" d="M271.61,-309.377C286.128,-336.316 330.512,-411.271 391,-444.5 423.356,-462.275 513.439,-473.211 583.561,-479.269"/>
<polygon fill="midnightblue" stroke="midnightblue" points="583.495,-482.775 593.753,-480.127 584.082,-475.8 583.495,-482.775"/>
</g>
<!-- Node6 -->
<g id="node6" class="node"><title>Node6</title>
<g id="a_node6"><a xlink:href="../../db/d34/interfacenars_1_1io_1_1IInferenceRecorder_acb473be6e5d774c10781bc8e74453459.html#acb473be6e5d774c10781bc8e74453459" target="_top" xlink:title="Add new text to display. ">
<polygon fill="none" stroke="black" points="391,-416 391,-435 558,-435 558,-416 391,-416"/>
<text text-anchor="middle" x="474.5" y="-423" font-family="Helvetica,sans-Serif" font-size="10.00">nars.io.IInferenceRecorder.append</text>
</a>
</g>
</g>
<!-- Node2&#45;&gt;Node6 -->
<g id="edge5" class="edge"><title>Node2&#45;&gt;Node6</title>
<path fill="none" stroke="midnightblue" d="M274.74,-309.245C293.23,-330.447 340.387,-380.908 391,-406.5 395.636,-408.844 400.564,-410.903 405.616,-412.711"/>
<polygon fill="midnightblue" stroke="midnightblue" points="404.846,-416.141 415.438,-415.887 407,-409.48 404.846,-416.141"/>
</g>
<!-- Node7 -->
<g id="node7" class="node"><title>Node7</title>
<g id="a_node7"><a xlink:href="../../d1/dd1/classnars_1_1entity_1_1Item_a54fc0a370b847dd77c0a698c765e6e55.html#a54fc0a370b847dd77c0a698c765e6e55" target="_top" xlink:title="Get BudgetValue. ">
<polygon fill="none" stroke="black" points="408.5,-378 408.5,-397 540.5,-397 540.5,-378 408.5,-378"/>
<text text-anchor="middle" x="474.5" y="-385" font-family="Helvetica,sans-Serif" font-size="10.00">nars.entity.Item.getBudget</text>
</a>
</g>
</g>
<!-- Node2&#45;&gt;Node7 -->
<g id="edge6" class="edge"><title>Node2&#45;&gt;Node7</title>
<path fill="none" stroke="midnightblue" d="M280.797,-309.182C303.299,-324.005 348.776,-352.306 391,-368.5 397.699,-371.069 404.842,-373.349 412.017,-375.357"/>
<polygon fill="midnightblue" stroke="midnightblue" points="411.221,-378.767 421.783,-377.928 413.003,-371.997 411.221,-378.767"/>
</g>
<!-- Node8 -->
<g id="node8" class="node"><title>Node8</title>
<g id="a_node8"><a xlink:href="../../d8/df4/classnars_1_1storage_1_1Memory_a8c50bdf4f2750032f24965e12e9fb59c.html#a8c50bdf4f2750032f24965e12e9fb59c" target="_top" xlink:title="List of new tasks accumulated in one cycle, to be processed in the next cycle. ">
<polygon fill="none" stroke="black" points="401.5,-328.5 401.5,-358.5 547.5,-358.5 547.5,-328.5 401.5,-328.5"/>
<text text-anchor="start" x="409.5" y="-346.5" font-family="Helvetica,sans-Serif" font-size="10.00">nars.storage.Memory.getNew</text>
<text text-anchor="middle" x="474.5" y="-335.5" font-family="Helvetica,sans-Serif" font-size="10.00">Tasks</text>
</a>
</g>
</g>
<!-- Node2&#45;&gt;Node8 -->
<g id="edge7" class="edge"><title>Node2&#45;&gt;Node8</title>
<path fill="none" stroke="midnightblue" d="M311.416,-309.047C335.138,-314.09 364.982,-320.433 392.576,-326.299"/>
<polygon fill="midnightblue" stroke="midnightblue" points="392.115,-329.779 402.624,-328.435 393.571,-322.932 392.115,-329.779"/>
</g>
<!-- Node9 -->
<g id="node9" class="node"><title>Node9</title>
<g id="a_node9"><a xlink:href="../../d8/df4/classnars_1_1storage_1_1Memory_a076ad9a0e872386bca3f2d17fa7cb2d4.html#a076ad9a0e872386bca3f2d17fa7cb2d4" target="_top" xlink:title="Backward pointer to the reasoner. ">
<polygon fill="none" stroke="black" points="803.5,-252 803.5,-271 970.5,-271 970.5,-252 803.5,-252"/>
<text text-anchor="middle" x="887" y="-259" font-family="Helvetica,sans-Serif" font-size="10.00">nars.storage.Memory.getReasoner</text>
</a>
</g>
</g>
<!-- Node2&#45;&gt;Node9 -->
<g id="edge8" class="edge"><title>Node2&#45;&gt;Node9</title>
<path fill="none" stroke="midnightblue" d="M348.312,-296.19C445.911,-292.006 613.977,-284.056 758,-273.5 769.478,-272.659 781.525,-271.67 793.446,-270.626"/>
<polygon fill="midnightblue" stroke="midnightblue" points="793.764,-274.112 803.415,-269.739 793.144,-267.139 793.764,-274.112"/>
</g>
<!-- Node10 -->
<g id="node10" class="node"><title>Node10</title>
<g id="a_node10"><a xlink:href="../../d8/df4/classnars_1_1storage_1_1Memory_aa4c7e1f5823d0404c0cab49b617968f1.html#aa4c7e1f5823d0404c0cab49b617968f1" target="_top" xlink:title="Inference record text to be written into a log file. ">
<polygon fill="none" stroke="black" points="392,-252 392,-271 557,-271 557,-252 392,-252"/>
<text text-anchor="middle" x="474.5" y="-259" font-family="Helvetica,sans-Serif" font-size="10.00">nars.storage.Memory.getRecorder</text>
</a>
</g>
</g>
<!-- Node2&#45;&gt;Node10 -->
<g id="edge9" class="edge"><title>Node2&#45;&gt;Node10</title>
<path fill="none" stroke="midnightblue" d="M318.468,-289.96C346.766,-284.765 381.964,-278.304 411.667,-272.851"/>
<polygon fill="midnightblue" stroke="midnightblue" points="412.307,-276.292 421.511,-271.044 411.043,-269.407 412.307,-276.292"/>
</g>
<!-- Node2&#45;&gt;Node11 -->
<g id="edge10" class="edge"><title>Node2&#45;&gt;Node11</title>
<path fill="none" stroke="midnightblue" d="M277.976,-289.822C295.73,-274.516 330.37,-243.289 355,-212.5 373.953,-188.808 366.322,-172.149 391,-154.5 393.69,-152.576 396.544,-150.844 399.513,-149.284"/>
<polygon fill="midnightblue" stroke="midnightblue" points="401.058,-152.427 408.715,-145.104 398.163,-146.053 401.058,-152.427"/>
</g>
<!-- Node12 -->
<g id="node12" class="node"><title>Node12</title>
<g id="a_node12"><a xlink:href="../../dd/da5/classnars_1_1storage_1_1Memory_1_1ReasonerBatch_a482c1432496bcae846033c7ef917edb7.html#a482c1432496bcae846033c7ef917edb7" target="_top" xlink:title="Report Silence Level. ">
<polygon fill="none" stroke="black" points="397.5,-202.5 397.5,-232.5 551.5,-232.5 551.5,-202.5 397.5,-202.5"/>
<text text-anchor="start" x="405.5" y="-220.5" font-family="Helvetica,sans-Serif" font-size="10.00">nars.storage.Memory.Reasoner</text>
<text text-anchor="middle" x="474.5" y="-209.5" font-family="Helvetica,sans-Serif" font-size="10.00">Batch.getSilenceValue</text>
</a>
</g>
</g>
<!-- Node2&#45;&gt;Node12 -->
<g id="edge11" class="edge"><title>Node2&#45;&gt;Node12</title>
<path fill="none" stroke="midnightblue" d="M285.565,-289.791C309.703,-277.728 352.759,-256.972 391,-242.5 397.207,-240.151 403.739,-237.866 410.297,-235.692"/>
<polygon fill="midnightblue" stroke="midnightblue" points="411.449,-238.998 419.89,-232.594 409.298,-232.337 411.449,-238.998"/>
</g>
<!-- Node13 -->
<g id="node13" class="node"><title>Node13</title>
<g id="a_node13"><a xlink:href="../../d8/df4/classnars_1_1storage_1_1Memory_a26cbb4acec5bb2c23a048d7deba4051d.html#a26cbb4acec5bb2c23a048d7deba4051d" target="_top" xlink:title="Display input/output sentence in the output channels. ">
<polygon fill="none" stroke="black" points="406,-164 406,-183 543,-183 543,-164 406,-164"/>
<text text-anchor="middle" x="474.5" y="-171" font-family="Helvetica,sans-Serif" font-size="10.00">nars.storage.Memory.report</text>
</a>
</g>
</g>
<!-- Node2&#45;&gt;Node13 -->
<g id="edge12" class="edge"><title>Node2&#45;&gt;Node13</title>
<path fill="none" stroke="midnightblue" d="M274.74,-289.755C293.23,-268.553 340.387,-218.092 391,-192.5 395.636,-190.156 400.564,-188.097 405.616,-186.289"/>
<polygon fill="midnightblue" stroke="midnightblue" points="407,-189.52 415.438,-183.113 404.846,-182.859 407,-189.52"/>
</g>
<!-- Node3&#45;&gt;Node4 -->
<g id="edge3" class="edge"><title>Node3&#45;&gt;Node4</title>
<path fill="none" stroke="midnightblue" d="M549.503,-499.339C560.653,-498.11 572.263,-496.829 583.723,-495.566"/>
<polygon fill="midnightblue" stroke="midnightblue" points="584.184,-499.036 593.74,-494.461 583.417,-492.078 584.184,-499.036"/>
</g>
<!-- Node5 -->
<g id="node5" class="node"><title>Node5</title>
<g id="a_node5"><a xlink:href="../../d4/de4/classnars_1_1inference_1_1UtilityFunctions_a7649e37bb61cac9b8a2601fdff3a5f7a.html#a7649e37bb61cac9b8a2601fdff3a5f7a" target="_top" xlink:title="A function where the output is the geometric average the inputs. ">
<polygon fill="none" stroke="black" points="794,-476 794,-495 980,-495 980,-476 794,-476"/>
<text text-anchor="middle" x="887" y="-483" font-family="Helvetica,sans-Serif" font-size="10.00">nars.inference.UtilityFunctions.aveGeo</text>
</a>
</g>
</g>
<!-- Node4&#45;&gt;Node5 -->
<g id="edge4" class="edge"><title>Node4&#45;&gt;Node5</title>
<path fill="none" stroke="midnightblue" d="M758.104,-485.5C766.516,-485.5 775.141,-485.5 783.746,-485.5"/>
<polygon fill="midnightblue" stroke="midnightblue" points="783.825,-489 793.825,-485.5 783.825,-482 783.825,-489"/>
</g>
<!-- Node13&#45;&gt;Node9 -->
<g id="edge14" class="edge"><title>Node13&#45;&gt;Node9</title>
<path fill="none" stroke="midnightblue" d="M538.713,-183.069C545.521,-185.532 552.106,-188.623 558,-192.5 580.578,-207.349 570.321,-228.478 594,-241.5 663.592,-279.769 757.053,-278.764 819.295,-272.176"/>
<polygon fill="midnightblue" stroke="midnightblue" points="819.849,-275.636 829.391,-271.03 819.06,-268.68 819.849,-275.636"/>
</g>
<!-- Node14 -->
<g id="node14" class="node"><title>Node14</title>
<g id="a_node14"><a xlink:href="../../d8/df4/classnars_1_1storage_1_1Memory_a1a17565c7b06ca4ecc1ed57c3fce973f.html#a1a17565c7b06ca4ecc1ed57c3fce973f" target="_top" xlink:title="List of Strings or Tasks to be sent to the output channels. ">
<polygon fill="none" stroke="black" points="599,-202.5 599,-232.5 753,-232.5 753,-202.5 599,-202.5"/>
<text text-anchor="start" x="607" y="-220.5" font-family="Helvetica,sans-Serif" font-size="10.00">nars.storage.Memory.getExport</text>
<text text-anchor="middle" x="676" y="-209.5" font-family="Helvetica,sans-Serif" font-size="10.00">Strings</text>
</a>
</g>
</g>
<!-- Node13&#45;&gt;Node14 -->
<g id="edge13" class="edge"><title>Node13&#45;&gt;Node14</title>
<path fill="none" stroke="midnightblue" d="M518.789,-183.047C541.551,-188.068 570.162,-194.378 596.658,-200.221"/>
<polygon fill="midnightblue" stroke="midnightblue" points="596.173,-203.699 606.692,-202.435 597.681,-196.863 596.173,-203.699"/>
</g>
<!-- Node15 -->
<g id="node15" class="node"><title>Node15</title>
<g id="a_node15"><a xlink:href="../../d8/df4/classnars_1_1storage_1_1Memory_aaa97540563b646b33db1263fa3a97d53.html#aaa97540563b646b33db1263fa3a97d53" target="_top" xlink:title="nars.storage.Memory.getTime">
<polygon fill="none" stroke="black" points="602.5,-164 602.5,-183 749.5,-183 749.5,-164 602.5,-164"/>
<text text-anchor="middle" x="676" y="-171" font-family="Helvetica,sans-Serif" font-size="10.00">nars.storage.Memory.getTime</text>
</a>
</g>
</g>
<!-- Node13&#45;&gt;Node15 -->
<g id="edge15" class="edge"><title>Node13&#45;&gt;Node15</title>
<path fill="none" stroke="midnightblue" d="M543.042,-173.5C558.862,-173.5 575.893,-173.5 592.291,-173.5"/>
<polygon fill="midnightblue" stroke="midnightblue" points="592.403,-177 602.403,-173.5 592.403,-170 592.403,-177"/>
</g>
<!-- Node17 -->
<g id="node17" class="node"><title>Node17</title>
<g id="a_node17"><a xlink:href="../../d6/d25/classnars_1_1entity_1_1Sentence_aed4fff67fb986a938db98460a16dda2d.html#aed4fff67fb986a938db98460a16dda2d" target="_top" xlink:title="Get a String representation of the sentence, with 2&#45;digit accuracy. ">
<polygon fill="none" stroke="black" points="604.5,-114.5 604.5,-144.5 747.5,-144.5 747.5,-114.5 604.5,-114.5"/>
<text text-anchor="start" x="612.5" y="-132.5" font-family="Helvetica,sans-Serif" font-size="10.00">nars.entity.Sentence.toString</text>
<text text-anchor="middle" x="676" y="-121.5" font-family="Helvetica,sans-Serif" font-size="10.00">Brief</text>
</a>
</g>
</g>
<!-- Node13&#45;&gt;Node17 -->
<g id="edge18" class="edge"><title>Node13&#45;&gt;Node17</title>
<path fill="none" stroke="midnightblue" d="M518.789,-163.953C541.551,-158.932 570.162,-152.622 596.658,-146.779"/>
<polygon fill="midnightblue" stroke="midnightblue" points="597.681,-150.137 606.692,-144.565 596.173,-143.301 597.681,-150.137"/>
</g>
<!-- Node22 -->
<g id="node22" class="node"><title>Node22</title>
<g id="a_node22"><a xlink:href="../../dd/da5/classnars_1_1storage_1_1Memory_1_1ReasonerBatch_ad567a9256ef8674e839ed6fe62664987.html#ad567a9256ef8674e839ed6fe62664987" target="_top" xlink:title="To get the timer value and then to reset it. ">
<polygon fill="none" stroke="black" points="599,-49.5 599,-79.5 753,-79.5 753,-49.5 599,-49.5"/>
<text text-anchor="start" x="607" y="-67.5" font-family="Helvetica,sans-Serif" font-size="10.00">nars.storage.Memory.Reasoner</text>
<text text-anchor="middle" x="676" y="-56.5" font-family="Helvetica,sans-Serif" font-size="10.00">Batch.updateTimer</text>
</a>
</g>
</g>
<!-- Node13&#45;&gt;Node22 -->
<g id="edge23" class="edge"><title>Node13&#45;&gt;Node22</title>
<path fill="none" stroke="midnightblue" d="M538.75,-163.987C545.552,-161.514 552.124,-158.405 558,-154.5 580.806,-139.343 573.105,-122.198 594,-104.5 603.35,-96.5809 614.537,-89.7699 625.569,-84.1282"/>
<polygon fill="midnightblue" stroke="midnightblue" points="627.29,-87.1834 634.755,-79.6656 624.231,-80.8869 627.29,-87.1834"/>
</g>
<!-- Node15&#45;&gt;Node9 -->
<g id="edge16" class="edge"><title>Node15&#45;&gt;Node9</title>
<path fill="none" stroke="midnightblue" d="M728.76,-183.045C738.646,-185.591 748.78,-188.716 758,-192.5 775.347,-199.62 777.639,-205.339 794,-214.5 814.79,-226.14 838.776,-238.356 857.044,-247.415"/>
<polygon fill="midnightblue" stroke="midnightblue" points="855.512,-250.562 866.029,-251.845 858.607,-244.284 855.512,-250.562"/>
</g>
<!-- Node16 -->
<g id="node16" class="node"><title>Node16</title>
<g id="a_node16"><a xlink:href="../../dd/da5/classnars_1_1storage_1_1Memory_1_1ReasonerBatch_aaf7efb6a6732b702669e9548bdb3a243.html#aaf7efb6a6732b702669e9548bdb3a243" target="_top" xlink:title="Get the current time from the clock Called in nars.entity.Stamp. ">
<polygon fill="none" stroke="black" points="810,-175.5 810,-205.5 964,-205.5 964,-175.5 810,-175.5"/>
<text text-anchor="start" x="818" y="-193.5" font-family="Helvetica,sans-Serif" font-size="10.00">nars.storage.Memory.Reasoner</text>
<text text-anchor="middle" x="887" y="-182.5" font-family="Helvetica,sans-Serif" font-size="10.00">Batch.getTime</text>
</a>
</g>
</g>
<!-- Node15&#45;&gt;Node16 -->
<g id="edge17" class="edge"><title>Node15&#45;&gt;Node16</title>
<path fill="none" stroke="midnightblue" d="M749.512,-179.398C765.621,-180.708 782.854,-182.11 799.462,-183.461"/>
<polygon fill="midnightblue" stroke="midnightblue" points="799.456,-186.972 809.706,-184.294 800.023,-179.995 799.456,-186.972"/>
</g>
<!-- Node18 -->
<g id="node18" class="node"><title>Node18</title>
<g id="a_node18"><a xlink:href="../../d6/d25/classnars_1_1entity_1_1Sentence_a32d81c9525d514aca8ddc5f4db48a762.html#a32d81c9525d514aca8ddc5f4db48a762" target="_top" xlink:title="Get a String representation of the sentence for key of Task and TaskLink. ">
<polygon fill="none" stroke="black" points="819.5,-137 819.5,-156 954.5,-156 954.5,-137 819.5,-137"/>
<text text-anchor="middle" x="887" y="-144" font-family="Helvetica,sans-Serif" font-size="10.00">nars.entity.Sentence.toKey</text>
</a>
</g>
</g>
<!-- Node17&#45;&gt;Node18 -->
<g id="edge19" class="edge"><title>Node17&#45;&gt;Node18</title>
<path fill="none" stroke="midnightblue" d="M747.758,-135.255C767.513,-136.862 789.07,-138.616 809.158,-140.25"/>
<polygon fill="midnightblue" stroke="midnightblue" points="808.947,-143.744 819.198,-141.066 809.514,-136.767 808.947,-143.744"/>
</g>
<!-- Node21 -->
<g id="node21" class="node"><title>Node21</title>
<g id="a_node21"><a xlink:href="../../d1/d1e/classnars_1_1entity_1_1Stamp_ad1aee19cfc0bb8ca9232bad251f74ffc.html#ad1aee19cfc0bb8ca9232bad251f74ffc" target="_top" xlink:title="Get a String form of the Stamp for display Format: {creationTime [: eventTime] : evidentialBase}. ">
<polygon fill="none" stroke="black" points="821.5,-99 821.5,-118 952.5,-118 952.5,-99 821.5,-99"/>
<text text-anchor="middle" x="887" y="-106" font-family="Helvetica,sans-Serif" font-size="10.00">nars.entity.Stamp.toString</text>
</a>
</g>
</g>
<!-- Node17&#45;&gt;Node21 -->
<g id="edge22" class="edge"><title>Node17&#45;&gt;Node21</title>
<path fill="none" stroke="midnightblue" d="M747.758,-122.39C768.214,-120.335 790.602,-118.085 811.29,-116.007"/>
<polygon fill="midnightblue" stroke="midnightblue" points="811.694,-119.484 821.293,-115.002 810.994,-112.519 811.694,-119.484"/>
</g>
<!-- Node19 -->
<g id="node19" class="node"><title>Node19</title>
<g id="a_node19"><a xlink:href="../../d8/db8/classnars_1_1language_1_1Term_a04fc046ba98c451bded562f79cff4244.html#a04fc046ba98c451bded562f79cff4244" target="_top" xlink:title="The same as getName by default, used in display only. ">
<polygon fill="none" stroke="black" points="1023,-159 1023,-178 1163,-178 1163,-159 1023,-159"/>
<text text-anchor="middle" x="1093" y="-166" font-family="Helvetica,sans-Serif" font-size="10.00">nars.language.Term.toString</text>
</a>
</g>
</g>
<!-- Node18&#45;&gt;Node19 -->
<g id="edge20" class="edge"><title>Node18&#45;&gt;Node19</title>
<path fill="none" stroke="midnightblue" d="M954.515,-153.673C973.129,-155.681 993.545,-157.882 1012.82,-159.96"/>
<polygon fill="midnightblue" stroke="midnightblue" points="1012.45,-163.442 1022.77,-161.034 1013.21,-156.482 1012.45,-163.442"/>
</g>
<!-- Node20 -->
<g id="node20" class="node"><title>Node20</title>
<g id="a_node20"><a xlink:href="../../d3/db8/classnars_1_1entity_1_1TruthValue_a5af8b2fe37987ba1e8396ec1aad38e90.html#a5af8b2fe37987ba1e8396ec1aad38e90" target="_top" xlink:title="A simplified String representation of a TruthValue, where each factor is accruate to 1%...">
<polygon fill="none" stroke="black" points="1031,-109.5 1031,-139.5 1155,-139.5 1155,-109.5 1031,-109.5"/>
<text text-anchor="start" x="1039" y="-127.5" font-family="Helvetica,sans-Serif" font-size="10.00">nars.entity.TruthValue.to</text>
<text text-anchor="middle" x="1093" y="-116.5" font-family="Helvetica,sans-Serif" font-size="10.00">StringBrief</text>
</a>
</g>
</g>
<!-- Node18&#45;&gt;Node20 -->
<g id="edge21" class="edge"><title>Node18&#45;&gt;Node20</title>
<path fill="none" stroke="midnightblue" d="M954.515,-139.327C975.694,-137.043 999.205,-134.507 1020.71,-132.188"/>
<polygon fill="midnightblue" stroke="midnightblue" points="1021.19,-135.657 1030.76,-131.105 1020.44,-128.697 1021.19,-135.657"/>
</g>
<!-- Node23 -->
<g id="node23" class="node"><title>Node23</title>
<g id="a_node23"><a xlink:href="../../dd/da5/classnars_1_1storage_1_1Memory_1_1ReasonerBatch_a10e1e86d98e1a12f6652ab7452dc7954.html#a10e1e86d98e1a12f6652ab7452dc7954" target="_top" xlink:title="nars.storage.Memory.Reasoner\lBatch.getTimer">
<polygon fill="none" stroke="black" points="810,-49.5 810,-79.5 964,-79.5 964,-49.5 810,-49.5"/>
<text text-anchor="start" x="818" y="-67.5" font-family="Helvetica,sans-Serif" font-size="10.00">nars.storage.Memory.Reasoner</text>
<text text-anchor="middle" x="887" y="-56.5" font-family="Helvetica,sans-Serif" font-size="10.00">Batch.getTimer</text>
</a>
</g>
</g>
<!-- Node22&#45;&gt;Node23 -->
<g id="edge24" class="edge"><title>Node22&#45;&gt;Node23</title>
<path fill="none" stroke="midnightblue" d="M753.045,-64.5C768.172,-64.5 784.161,-64.5 799.605,-64.5"/>
<polygon fill="midnightblue" stroke="midnightblue" points="799.661,-68.0001 809.661,-64.5 799.661,-61.0001 799.661,-68.0001"/>
</g>
<!-- Node24 -->
<g id="node24" class="node"><title>Node24</title>
<g id="a_node24"><a xlink:href="../../dd/da5/classnars_1_1storage_1_1Memory_1_1ReasonerBatch_af29e66c0813aeea26cc4afea9735473e.html#af29e66c0813aeea26cc4afea9735473e" target="_top" xlink:title="nars.storage.Memory.Reasoner\lBatch.initTimer">
<polygon fill="none" stroke="black" points="810,-0.5 810,-30.5 964,-30.5 964,-0.5 810,-0.5"/>
<text text-anchor="start" x="818" y="-18.5" font-family="Helvetica,sans-Serif" font-size="10.00">nars.storage.Memory.Reasoner</text>
<text text-anchor="middle" x="887" y="-7.5" font-family="Helvetica,sans-Serif" font-size="10.00">Batch.initTimer</text>
</a>
</g>
</g>
<!-- Node22&#45;&gt;Node24 -->
<g id="edge25" class="edge"><title>Node22&#45;&gt;Node24</title>
<path fill="none" stroke="midnightblue" d="M741.127,-49.4654C763.596,-44.1976 789.007,-38.2399 812.203,-32.8016"/>
<polygon fill="midnightblue" stroke="midnightblue" points="813.057,-36.1965 821.994,-30.5062 811.459,-29.3813 813.057,-36.1965"/>
</g>
<!-- Node25 -->
<g id="node25" class="node"><title>Node25</title>
<g id="a_node25"><a xlink:href="../../dd/da5/classnars_1_1storage_1_1Memory_1_1ReasonerBatch_a364bf53ee103367ae0518803bc746bc2.html#a364bf53ee103367ae0518803bc746bc2" target="_top" xlink:title="nars.storage.Memory.Reasoner\lBatch.setTimer">
<polygon fill="none" stroke="black" points="1016,-0.5 1016,-30.5 1170,-30.5 1170,-0.5 1016,-0.5"/>
<text text-anchor="start" x="1024" y="-18.5" font-family="Helvetica,sans-Serif" font-size="10.00">nars.storage.Memory.Reasoner</text>
<text text-anchor="middle" x="1093" y="-7.5" font-family="Helvetica,sans-Serif" font-size="10.00">Batch.setTimer</text>
</a>
</g>
</g>
<!-- Node24&#45;&gt;Node25 -->
<g id="edge26" class="edge"><title>Node24&#45;&gt;Node25</title>
<path fill="none" stroke="midnightblue" d="M964.252,-15.5C977.689,-15.5 991.764,-15.5 1005.46,-15.5"/>
<polygon fill="midnightblue" stroke="midnightblue" points="1005.84,-19.0001 1015.84,-15.5 1005.84,-12.0001 1005.84,-19.0001"/>
</g>
</g>
</svg>
