<?xml version="1.0" encoding="UTF-8" standalone="no"?>
<!DOCTYPE svg PUBLIC "-//W3C//DTD SVG 1.1//EN"
 "http://www.w3.org/Graphics/SVG/1.1/DTD/svg11.dtd">
<!-- Generated by graphviz version 2.38.0 (20140413.2041)
 -->
<!-- Title: nars.storage.Memory.setRecorder Pages: 1 -->
<svg width="546pt" height="39pt"
 viewBox="0.00 0.00 546.00 39.00" xmlns="http://www.w3.org/2000/svg" xmlns:xlink="http://www.w3.org/1999/xlink">
<g id="graph0" class="graph" transform="scale(1 1) rotate(0) translate(4 35)">
<title>nars.storage.Memory.setRecorder</title>
<!-- Node1 -->
<g id="node1" class="node"><title>Node1</title>
<polygon fill="#bfbfbf" stroke="black" points="0,-6 0,-25 165,-25 165,-6 0,-6"/>
<text text-anchor="middle" x="82.5" y="-13" font-family="Helvetica,sans-Serif" font-size="10.00">nars.storage.Memory.setRecorder</text>
</g>
<!-- Node2 -->
<g id="node2" class="node"><title>Node2</title>
<g id="a_node2"><a xlink:href="../../d8/df4/classnars_1_1storage_1_1Memory_a3d47e1393f4751a94e1b18e64c9fa2ef.html#a3d47e1393f4751a94e1b18e64c9fa2ef" target="_top" xlink:title="Create a new memory. ">
<polygon fill="none" stroke="black" points="201,-6 201,-25 348,-25 348,-6 201,-6"/>
<text text-anchor="middle" x="274.5" y="-13" font-family="Helvetica,sans-Serif" font-size="10.00">nars.storage.Memory.Memory</text>
</a>
</g>
</g>
<!-- Node1&#45;&gt;Node2 -->
<g id="edge1" class="edge"><title>Node1&#45;&gt;Node2</title>
<path fill="none" stroke="midnightblue" d="M175.244,-15.5C183.845,-15.5 192.483,-15.5 200.873,-15.5"/>
<polygon fill="midnightblue" stroke="midnightblue" points="175.18,-12.0001 165.18,-15.5 175.18,-19.0001 175.18,-12.0001"/>
</g>
<!-- Node3 -->
<g id="node3" class="node"><title>Node3</title>
<g id="a_node3"><a xlink:href="../../dd/da5/classnars_1_1storage_1_1Memory_1_1ReasonerBatch_a82e17451a5291bbbaaaa92ef3ce5d830.html#a82e17451a5291bbbaaaa92ef3ce5d830" target="_top" xlink:title="nars.storage.Memory.Reasoner\lBatch.ReasonerBatch">
<polygon fill="none" stroke="black" points="384,-0.5 384,-30.5 538,-30.5 538,-0.5 384,-0.5"/>
<text text-anchor="start" x="392" y="-18.5" font-family="Helvetica,sans-Serif" font-size="10.00">nars.storage.Memory.Reasoner</text>
<text text-anchor="middle" x="461" y="-7.5" font-family="Helvetica,sans-Serif" font-size="10.00">Batch.ReasonerBatch</text>
</a>
</g>
</g>
<!-- Node2&#45;&gt;Node3 -->
<g id="edge2" class="edge"><title>Node2&#45;&gt;Node3</title>
<path fill="none" stroke="midnightblue" d="M358.389,-15.5C366.839,-15.5 375.395,-15.5 383.769,-15.5"/>
<polygon fill="midnightblue" stroke="midnightblue" points="358.154,-12.0001 348.154,-15.5 358.154,-19.0001 358.154,-12.0001"/>
</g>
</g>
</svg>
