<?xml version="1.0" encoding="UTF-8" standalone="no"?>
<!DOCTYPE svg PUBLIC "-//W3C//DTD SVG 1.1//EN"
 "http://www.w3.org/Graphics/SVG/1.1/DTD/svg11.dtd">
<!-- Generated by graphviz version 2.38.0 (20140413.2041)
 -->
<!-- Title: nars.storage.Memory.taskBuffersStartPlay Pages: 1 -->
<svg width="342pt" height="116pt"
 viewBox="0.00 0.00 342.00 116.00" xmlns="http://www.w3.org/2000/svg" xmlns:xlink="http://www.w3.org/1999/xlink">
<g id="graph0" class="graph" transform="scale(1 1) rotate(0) translate(4 112)">
<title>nars.storage.Memory.taskBuffersStartPlay</title>
<!-- Node1 -->
<g id="node1" class="node"><title>Node1</title>
<polygon fill="#bfbfbf" stroke="black" points="0,-39 0,-69 131,-69 131,-39 0,-39"/>
<text text-anchor="start" x="8" y="-57" font-family="Helvetica,sans-Serif" font-size="10.00">nars.storage.Memory.task</text>
<text text-anchor="middle" x="65.5" y="-46" font-family="Helvetica,sans-Serif" font-size="10.00">BuffersStartPlay</text>
</g>
<!-- Node2 -->
<g id="node2" class="node"><title>Node2</title>
<g id="a_node2"><a xlink:href="../../d9/d37/classnars_1_1storage_1_1Bag_a73a559e1b77e6bc3a7db686816accef2.html#a73a559e1b77e6bc3a7db686816accef2" target="_top" xlink:title="To start displaying the Bag in a BagWindow. ">
<polygon fill="none" stroke="black" points="167,-88.5 167,-107.5 334,-107.5 334,-88.5 167,-88.5"/>
<text text-anchor="middle" x="250.5" y="-95.5" font-family="Helvetica,sans-Serif" font-size="10.00">nars.storage.Bag.addBagObserver</text>
</a>
</g>
</g>
<!-- Node1&#45;&gt;Node2 -->
<g id="edge1" class="edge"><title>Node1&#45;&gt;Node2</title>
<path fill="none" stroke="midnightblue" d="M126.243,-69.0436C139.643,-72.3668 153.799,-75.8382 167,-79 176.863,-81.3622 187.402,-83.8313 197.537,-86.1781"/>
<polygon fill="midnightblue" stroke="midnightblue" points="196.966,-89.6383 207.497,-88.4756 198.54,-82.8174 196.966,-89.6383"/>
</g>
<!-- Node3 -->
<g id="node3" class="node"><title>Node3</title>
<g id="a_node3"><a xlink:href="../../d8/df4/classnars_1_1storage_1_1Memory_aa15a4cd104018dc9b98ceaa12d54255d.html#aa15a4cd104018dc9b98ceaa12d54255d" target="_top" xlink:title="New tasks with novel composed terms, for delayed and selective processing. ">
<polygon fill="none" stroke="black" points="175,-39 175,-69 326,-69 326,-39 175,-39"/>
<text text-anchor="start" x="183" y="-57" font-family="Helvetica,sans-Serif" font-size="10.00">nars.storage.Memory.getNovel</text>
<text text-anchor="middle" x="250.5" y="-46" font-family="Helvetica,sans-Serif" font-size="10.00">Tasks</text>
</a>
</g>
</g>
<!-- Node1&#45;&gt;Node3 -->
<g id="edge2" class="edge"><title>Node1&#45;&gt;Node3</title>
<path fill="none" stroke="midnightblue" d="M131.019,-54C141.891,-54 153.322,-54 164.617,-54"/>
<polygon fill="midnightblue" stroke="midnightblue" points="164.933,-57.5001 174.933,-54 164.933,-50.5001 164.933,-57.5001"/>
</g>
<!-- Node4 -->
<g id="node4" class="node"><title>Node4</title>
<g id="a_node4"><a xlink:href="../../df/d32/interfacenars_1_1storage_1_1BagObserver_ae0455b8e5d7053bd0a868d1c45616bfd.html#ae0455b8e5d7053bd0a868d1c45616bfd" target="_top" xlink:title="nars.storage.BagObserver.setBag">
<polygon fill="none" stroke="black" points="168.5,-0.5 168.5,-19.5 332.5,-19.5 332.5,-0.5 168.5,-0.5"/>
<text text-anchor="middle" x="250.5" y="-7.5" font-family="Helvetica,sans-Serif" font-size="10.00">nars.storage.BagObserver.setBag</text>
</a>
</g>
</g>
<!-- Node1&#45;&gt;Node4 -->
<g id="edge3" class="edge"><title>Node1&#45;&gt;Node4</title>
<path fill="none" stroke="midnightblue" d="M128.966,-38.9808C152.222,-33.3892 178.269,-27.1265 200.184,-21.8574"/>
<polygon fill="midnightblue" stroke="midnightblue" points="201.032,-25.2533 209.937,-19.5124 199.396,-18.4472 201.032,-25.2533"/>
</g>
</g>
</svg>
