<?xml version="1.0" encoding="UTF-8" standalone="no"?>
<!DOCTYPE svg PUBLIC "-//W3C//DTD SVG 1.1//EN"
 "http://www.w3.org/Graphics/SVG/1.1/DTD/svg11.dtd">
<!-- Generated by graphviz version 2.38.0 (20140413.2041)
 -->
<!-- Title: nars.storage.Memory.activatedTask Pages: 1 -->
<!--zoomable 470 -->
<svg id="main" version="1.1" xmlns="http://www.w3.org/2000/svg" xmlns:xlink="http://www.w3.org/1999/xlink" xml:space="preserve" onload="init(evt)">
<style type="text/css"><![CDATA[
.edge:hover path { stroke: red; }
.edge:hover polygon { stroke: red; fill: red; }
]]></style>
<script type="text/javascript"><![CDATA[
var edges = document.getElementsByTagName('g');
if (edges && edges.length) {
  for (var i=0;i<edges.length;i++) {
    if (edges[i].id.substr(0,4)=='edge') {
      edges[i].setAttribute('class','edge');
    }
  }
}
]]></script>
        <defs>
                <circle id="rim" cx="0" cy="0" r="7"/>
                <circle id="rim2" cx="0" cy="0" r="3.5"/>
                <g id="zoomPlus">
                        <use xlink:href="#rim" fill="#404040">
                                <set attributeName="fill" to="#808080" begin="zoomplus.mouseover" end="zoomplus.mouseout"/>
                        </use>
                        <path d="M-4,0h8M0,-4v8" fill="none" stroke="white" stroke-width="1.5" pointer-events="none"/>
                </g>
                <g id="zoomMin">
                        <use xlink:href="#rim" fill="#404040">
                                <set attributeName="fill" to="#808080" begin="zoomminus.mouseover" end="zoomminus.mouseout"/>
                        </use>
                        <path d="M-4,0h8" fill="none" stroke="white" stroke-width="1.5" pointer-events="none"/>
                </g>
                <g id="dirArrow">
                        <path fill="none" stroke="white" stroke-width="1.5" d="M0,-3.0v7 M-2.5,-0.5L0,-3.0L2.5,-0.5"/>
                </g>
               <g id="resetDef">
                       <use xlink:href="#rim2" fill="#404040">
                               <set attributeName="fill" to="#808080" begin="reset.mouseover" end="reset.mouseout"/>
                       </use>
               </g>
        </defs>

<script type="text/javascript">
var viewWidth = 1011;
var viewHeight = 470;
var sectionId = 'dynsection-0';
</script>
<script xlink:href="../../svgpan.js"/>
<svg id="graph" class="graph">
<g id="viewport">
<title>nars.storage.Memory.activatedTask</title>
<!-- Node1 -->
<g id="node1" class="node"><title>Node1</title>
<polygon fill="#bfbfbf" stroke="black" points="0,-221.5 0,-240.5 173,-240.5 173,-221.5 0,-221.5"/>
<text text-anchor="middle" x="86.5" y="-228.5" font-family="Helvetica,sans-Serif" font-size="10.00">nars.storage.Memory.activatedTask</text>
</g>
<!-- Node2 -->
<g id="node2" class="node"><title>Node2</title>
<g id="a_node2"><a xlink:href="../../db/d34/interfacenars_1_1io_1_1IInferenceRecorder_acb473be6e5d774c10781bc8e74453459.html#acb473be6e5d774c10781bc8e74453459" target="_top" xlink:title="Add new text to display. ">
<polygon fill="none" stroke="black" points="215,-442.5 215,-461.5 382,-461.5 382,-442.5 215,-442.5"/>
<text text-anchor="middle" x="298.5" y="-449.5" font-family="Helvetica,sans-Serif" font-size="10.00">nars.io.IInferenceRecorder.append</text>
</a>
</g>
</g>
<!-- Node1&#45;&gt;Node2 -->
<g id="edge1" class="edge"><title>Node1&#45;&gt;Node2</title>
<path fill="none" stroke="midnightblue" d="M90.3422,-240.948C100.37,-274.137 137.408,-381.849 209,-433 211.685,-434.918 214.525,-436.65 217.477,-438.213"/>
<polygon fill="midnightblue" stroke="midnightblue" points="216.074,-441.42 226.623,-442.41 218.994,-435.058 216.074,-441.42"/>
</g>
<!-- Node3 -->
<g id="node3" class="node"><title>Node3</title>
<g id="a_node3"><a xlink:href="../../d1/dd1/classnars_1_1entity_1_1Item_a54fc0a370b847dd77c0a698c765e6e55.html#a54fc0a370b847dd77c0a698c765e6e55" target="_top" xlink:title="Get BudgetValue. ">
<polygon fill="none" stroke="black" points="232.5,-404.5 232.5,-423.5 364.5,-423.5 364.5,-404.5 232.5,-404.5"/>
<text text-anchor="middle" x="298.5" y="-411.5" font-family="Helvetica,sans-Serif" font-size="10.00">nars.entity.Item.getBudget</text>
</a>
</g>
</g>
<!-- Node1&#45;&gt;Node3 -->
<g id="edge2" class="edge"><title>Node1&#45;&gt;Node3</title>
<path fill="none" stroke="midnightblue" d="M91.6166,-240.667C104.364,-269.353 146.148,-354.507 209,-395 213.347,-397.801 218.039,-400.195 222.915,-402.242"/>
<polygon fill="midnightblue" stroke="midnightblue" points="221.883,-405.592 232.477,-405.764 224.303,-399.023 221.883,-405.592"/>
</g>
<!-- Node4 -->
<g id="node4" class="node"><title>Node4</title>
<g id="a_node4"><a xlink:href="../../d8/df4/classnars_1_1storage_1_1Memory_a26eda4f00b333b706b4e3d069fdf1508.html#a26eda4f00b333b706b4e3d069fdf1508" target="_top" xlink:title="The selected Task. ">
<polygon fill="none" stroke="black" points="209,-366.5 209,-385.5 388,-385.5 388,-366.5 209,-366.5"/>
<text text-anchor="middle" x="298.5" y="-373.5" font-family="Helvetica,sans-Serif" font-size="10.00">nars.storage.Memory.getCurrentTask</text>
</a>
</g>
</g>
<!-- Node1&#45;&gt;Node4 -->
<g id="edge3" class="edge"><title>Node1&#45;&gt;Node4</title>
<path fill="none" stroke="midnightblue" d="M93.8367,-240.64C109.968,-264.359 155.146,-325.811 209,-356 213.895,-358.744 219.141,-361.112 224.547,-363.154"/>
<polygon fill="midnightblue" stroke="midnightblue" points="223.812,-366.601 234.406,-366.492 226.057,-359.97 223.812,-366.601"/>
</g>
<!-- Node5 -->
<g id="node5" class="node"><title>Node5</title>
<g id="a_node5"><a xlink:href="../../d8/df4/classnars_1_1storage_1_1Memory_a8c50bdf4f2750032f24965e12e9fb59c.html#a8c50bdf4f2750032f24965e12e9fb59c" target="_top" xlink:title="List of new tasks accumulated in one cycle, to be processed in the next cycle. ">
<polygon fill="none" stroke="black" points="225.5,-317 225.5,-347 371.5,-347 371.5,-317 225.5,-317"/>
<text text-anchor="start" x="233.5" y="-335" font-family="Helvetica,sans-Serif" font-size="10.00">nars.storage.Memory.getNew</text>
<text text-anchor="middle" x="298.5" y="-324" font-family="Helvetica,sans-Serif" font-size="10.00">Tasks</text>
</a>
</g>
</g>
<!-- Node1&#45;&gt;Node5 -->
<g id="edge4" class="edge"><title>Node1&#45;&gt;Node5</title>
<path fill="none" stroke="midnightblue" d="M101.581,-240.502C123.713,-255.14 168.321,-283.45 209,-302 218.078,-306.14 227.902,-310.022 237.589,-313.531"/>
<polygon fill="midnightblue" stroke="midnightblue" points="236.604,-316.894 247.199,-316.912 238.927,-310.291 236.604,-316.894"/>
</g>
<!-- Node6 -->
<g id="node6" class="node"><title>Node6</title>
<g id="a_node6"><a xlink:href="../../d8/df4/classnars_1_1storage_1_1Memory_a076ad9a0e872386bca3f2d17fa7cb2d4.html#a076ad9a0e872386bca3f2d17fa7cb2d4" target="_top" xlink:title="Backward pointer to the reasoner. ">
<polygon fill="none" stroke="black" points="646,-246.5 646,-265.5 813,-265.5 813,-246.5 646,-246.5"/>
<text text-anchor="middle" x="729.5" y="-253.5" font-family="Helvetica,sans-Serif" font-size="10.00">nars.storage.Memory.getReasoner</text>
</a>
</g>
</g>
<!-- Node1&#45;&gt;Node6 -->
<g id="edge5" class="edge"><title>Node1&#45;&gt;Node6</title>
<path fill="none" stroke="midnightblue" d="M115.274,-240.505C139.762,-248.688 176.502,-260.489 209,-269 287.675,-289.605 309.258,-286.653 388,-307 404.198,-311.186 407.453,-315.528 424,-318 505.76,-330.212 529.723,-337.732 610,-318 646.464,-309.037 684.147,-286.656 706.958,-271.387"/>
<polygon fill="midnightblue" stroke="midnightblue" points="709.227,-274.075 715.497,-265.534 705.27,-268.301 709.227,-274.075"/>
</g>
<!-- Node7 -->
<g id="node7" class="node"><title>Node7</title>
<g id="a_node7"><a xlink:href="../../d8/df4/classnars_1_1storage_1_1Memory_aa4c7e1f5823d0404c0cab49b617968f1.html#aa4c7e1f5823d0404c0cab49b617968f1" target="_top" xlink:title="Inference record text to be written into a log file. ">
<polygon fill="none" stroke="black" points="216,-126.5 216,-145.5 381,-145.5 381,-126.5 216,-126.5"/>
<text text-anchor="middle" x="298.5" y="-133.5" font-family="Helvetica,sans-Serif" font-size="10.00">nars.storage.Memory.getRecorder</text>
</a>
</g>
</g>
<!-- Node1&#45;&gt;Node7 -->
<g id="edge6" class="edge"><title>Node1&#45;&gt;Node7</title>
<path fill="none" stroke="midnightblue" d="M101.088,-221.434C122.912,-206.452 167.54,-177.374 209,-160 219.788,-155.479 231.674,-151.576 243.139,-148.309"/>
<polygon fill="midnightblue" stroke="midnightblue" points="244.34,-151.609 253.067,-145.602 242.499,-144.856 244.34,-151.609"/>
</g>
<!-- Node8 -->
<g id="node8" class="node"><title>Node8</title>
<g id="a_node8"><a xlink:href="../../dc/ddc/classnars_1_1entity_1_1Task_ab140cb553a6cf40b07093d1df283567f.html#ab140cb553a6cf40b07093d1df283567f" target="_top" xlink:title="Get the sentence. ">
<polygon fill="none" stroke="black" points="444.5,-65.5 444.5,-84.5 589.5,-84.5 589.5,-65.5 444.5,-65.5"/>
<text text-anchor="middle" x="517" y="-72.5" font-family="Helvetica,sans-Serif" font-size="10.00">nars.entity.Task.getSentence</text>
</a>
</g>
</g>
<!-- Node1&#45;&gt;Node8 -->
<g id="edge7" class="edge"><title>Node1&#45;&gt;Node8</title>
<path fill="none" stroke="midnightblue" d="M115.274,-221.495C139.762,-213.312 176.502,-201.511 209,-193 287.675,-172.395 321.97,-202.48 388,-155 413.559,-136.621 398.391,-112.308 424,-94 427.433,-91.5458 431.112,-89.3936 434.952,-87.5074"/>
<polygon fill="midnightblue" stroke="midnightblue" points="436.343,-90.7191 444.164,-83.5722 433.593,-84.2818 436.343,-90.7191"/>
</g>
<!-- Node9 -->
<g id="node9" class="node"><title>Node9</title>
<g id="a_node9"><a xlink:href="../../dd/da5/classnars_1_1storage_1_1Memory_1_1ReasonerBatch_a482c1432496bcae846033c7ef917edb7.html#a482c1432496bcae846033c7ef917edb7" target="_top" xlink:title="Report Silence Level. ">
<polygon fill="none" stroke="black" points="221.5,-77 221.5,-107 375.5,-107 375.5,-77 221.5,-77"/>
<text text-anchor="start" x="229.5" y="-95" font-family="Helvetica,sans-Serif" font-size="10.00">nars.storage.Memory.Reasoner</text>
<text text-anchor="middle" x="298.5" y="-84" font-family="Helvetica,sans-Serif" font-size="10.00">Batch.getSilenceValue</text>
</a>
</g>
</g>
<!-- Node1&#45;&gt;Node9 -->
<g id="edge8" class="edge"><title>Node1&#45;&gt;Node9</title>
<path fill="none" stroke="midnightblue" d="M94.906,-221.436C112.351,-199.57 158.386,-145.607 209,-117 212.937,-114.775 217.087,-112.736 221.354,-110.869"/>
<polygon fill="midnightblue" stroke="midnightblue" points="222.873,-114.031 230.845,-107.052 220.261,-107.536 222.873,-114.031"/>
</g>
<!-- Node10 -->
<g id="node10" class="node"><title>Node10</title>
<g id="a_node10"><a xlink:href="../../d6/d25/classnars_1_1entity_1_1Sentence_acb98b40c8990dbe5e15061f0759c60ee.html#acb98b40c8990dbe5e15061f0759c60ee" target="_top" xlink:title="Distinguish Question from Quest (&quot;instanceof Question&quot; doesn&#39;t work) ">
<polygon fill="none" stroke="black" points="220.5,-38.5 220.5,-57.5 376.5,-57.5 376.5,-38.5 220.5,-38.5"/>
<text text-anchor="middle" x="298.5" y="-45.5" font-family="Helvetica,sans-Serif" font-size="10.00">nars.entity.Sentence.isQuestion</text>
</a>
</g>
</g>
<!-- Node1&#45;&gt;Node10 -->
<g id="edge9" class="edge"><title>Node1&#45;&gt;Node10</title>
<path fill="none" stroke="midnightblue" d="M91.6166,-221.333C104.364,-192.647 146.148,-107.493 209,-67 212.158,-64.9654 215.498,-63.145 218.959,-61.5167"/>
<polygon fill="midnightblue" stroke="midnightblue" points="220.448,-64.6886 228.358,-57.6398 217.779,-58.2175 220.448,-64.6886"/>
</g>
<!-- Node11 -->
<g id="node11" class="node"><title>Node11</title>
<g id="a_node11"><a xlink:href="../../d8/df4/classnars_1_1storage_1_1Memory_a26cbb4acec5bb2c23a048d7deba4051d.html#a26cbb4acec5bb2c23a048d7deba4051d" target="_top" xlink:title="Display input/output sentence in the output channels. ">
<polygon fill="none" stroke="black" points="230,-240.5 230,-259.5 367,-259.5 367,-240.5 230,-240.5"/>
<text text-anchor="middle" x="298.5" y="-247.5" font-family="Helvetica,sans-Serif" font-size="10.00">nars.storage.Memory.report</text>
</a>
</g>
</g>
<!-- Node1&#45;&gt;Node11 -->
<g id="edge10" class="edge"><title>Node1&#45;&gt;Node11</title>
<path fill="none" stroke="midnightblue" d="M173.218,-238.755C188.514,-240.139 204.376,-241.575 219.444,-242.938"/>
<polygon fill="midnightblue" stroke="midnightblue" points="219.458,-246.453 229.732,-243.869 220.089,-239.482 219.458,-246.453"/>
</g>
<!-- Node24 -->
<g id="node24" class="node"><title>Node24</title>
<g id="a_node24"><a xlink:href="../../db/d8e/classnars_1_1entity_1_1BudgetValue_af414899759992288edbba78d7457c534.html#af414899759992288edbba78d7457c534" target="_top" xlink:title="To summarize a BudgetValue into a single number in [0, 1]. ">
<polygon fill="none" stroke="black" points="216.5,-0.5 216.5,-19.5 380.5,-19.5 380.5,-0.5 216.5,-0.5"/>
<text text-anchor="middle" x="298.5" y="-7.5" font-family="Helvetica,sans-Serif" font-size="10.00">nars.entity.BudgetValue.summary</text>
</a>
</g>
</g>
<!-- Node1&#45;&gt;Node24 -->
<g id="edge25" class="edge"><title>Node1&#45;&gt;Node24</title>
<path fill="none" stroke="midnightblue" d="M90.3422,-221.052C100.37,-187.863 137.408,-80.1513 209,-29 211.685,-27.0815 214.525,-25.3499 217.477,-23.7875"/>
<polygon fill="midnightblue" stroke="midnightblue" points="218.994,-26.9421 226.623,-19.5898 216.074,-20.5802 218.994,-26.9421"/>
</g>
<!-- Node26 -->
<g id="node26" class="node"><title>Node26</title>
<g id="a_node26"><a xlink:href="../../dc/ddc/classnars_1_1entity_1_1Task_a73b96cd17fd93eeab0cc94bd36f25e66.html#a73b96cd17fd93eeab0cc94bd36f25e66" target="_top" xlink:title="Get a String representation of the Task. ">
<polygon fill="none" stroke="black" points="236.5,-202.5 236.5,-221.5 360.5,-221.5 360.5,-202.5 236.5,-202.5"/>
<text text-anchor="middle" x="298.5" y="-209.5" font-family="Helvetica,sans-Serif" font-size="10.00">nars.entity.Task.toString</text>
</a>
</g>
</g>
<!-- Node1&#45;&gt;Node26 -->
<g id="edge27" class="edge"><title>Node1&#45;&gt;Node26</title>
<path fill="none" stroke="midnightblue" d="M173.218,-223.245C190.781,-221.656 209.089,-219.999 226.085,-218.461"/>
<polygon fill="midnightblue" stroke="midnightblue" points="226.836,-221.908 236.48,-217.521 226.205,-214.936 226.836,-221.908"/>
</g>
<!-- Node11&#45;&gt;Node6 -->
<g id="edge12" class="edge"><title>Node11&#45;&gt;Node6</title>
<path fill="none" stroke="midnightblue" d="M367.003,-250.944C439.414,-251.957 554.887,-253.572 635.79,-254.703"/>
<polygon fill="midnightblue" stroke="midnightblue" points="635.927,-258.206 645.975,-254.846 636.025,-251.206 635.927,-258.206"/>
</g>
<!-- Node12 -->
<g id="node12" class="node"><title>Node12</title>
<g id="a_node12"><a xlink:href="../../d8/df4/classnars_1_1storage_1_1Memory_a1a17565c7b06ca4ecc1ed57c3fce973f.html#a1a17565c7b06ca4ecc1ed57c3fce973f" target="_top" xlink:title="List of Strings or Tasks to be sent to the output channels. ">
<polygon fill="none" stroke="black" points="440,-279 440,-309 594,-309 594,-279 440,-279"/>
<text text-anchor="start" x="448" y="-297" font-family="Helvetica,sans-Serif" font-size="10.00">nars.storage.Memory.getExport</text>
<text text-anchor="middle" x="517" y="-286" font-family="Helvetica,sans-Serif" font-size="10.00">Strings</text>
</a>
</g>
</g>
<!-- Node11&#45;&gt;Node12 -->
<g id="edge11" class="edge"><title>Node11&#45;&gt;Node12</title>
<path fill="none" stroke="midnightblue" d="M346.477,-259.547C371.397,-264.612 402.776,-270.989 431.741,-276.876"/>
<polygon fill="midnightblue" stroke="midnightblue" points="431.375,-280.373 441.872,-278.935 432.769,-273.513 431.375,-280.373"/>
</g>
<!-- Node13 -->
<g id="node13" class="node"><title>Node13</title>
<g id="a_node13"><a xlink:href="../../d8/df4/classnars_1_1storage_1_1Memory_aaa97540563b646b33db1263fa3a97d53.html#aaa97540563b646b33db1263fa3a97d53" target="_top" xlink:title="nars.storage.Memory.getTime">
<polygon fill="none" stroke="black" points="443.5,-202.5 443.5,-221.5 590.5,-221.5 590.5,-202.5 443.5,-202.5"/>
<text text-anchor="middle" x="517" y="-209.5" font-family="Helvetica,sans-Serif" font-size="10.00">nars.storage.Memory.getTime</text>
</a>
</g>
</g>
<!-- Node11&#45;&gt;Node13 -->
<g id="edge13" class="edge"><title>Node11&#45;&gt;Node13</title>
<path fill="none" stroke="midnightblue" d="M353.853,-240.46C383.578,-235.243 420.583,-228.747 451.734,-223.28"/>
<polygon fill="midnightblue" stroke="midnightblue" points="452.381,-226.72 461.625,-221.544 451.17,-219.825 452.381,-226.72"/>
</g>
<!-- Node15 -->
<g id="node15" class="node"><title>Node15</title>
<g id="a_node15"><a xlink:href="../../d6/d25/classnars_1_1entity_1_1Sentence_aed4fff67fb986a938db98460a16dda2d.html#aed4fff67fb986a938db98460a16dda2d" target="_top" xlink:title="Get a String representation of the sentence, with 2&#45;digit accuracy. ">
<polygon fill="none" stroke="black" points="445.5,-153 445.5,-183 588.5,-183 588.5,-153 445.5,-153"/>
<text text-anchor="start" x="453.5" y="-171" font-family="Helvetica,sans-Serif" font-size="10.00">nars.entity.Sentence.toString</text>
<text text-anchor="middle" x="517" y="-160" font-family="Helvetica,sans-Serif" font-size="10.00">Brief</text>
</a>
</g>
</g>
<!-- Node11&#45;&gt;Node15 -->
<g id="edge16" class="edge"><title>Node11&#45;&gt;Node15</title>
<path fill="none" stroke="midnightblue" d="M365.884,-240.368C373.6,-237.919 381.15,-234.849 388,-231 408.282,-219.603 404.032,-204.939 424,-193 427.676,-190.802 431.548,-188.793 435.54,-186.958"/>
<polygon fill="midnightblue" stroke="midnightblue" points="437.164,-190.072 445.036,-182.981 434.46,-183.616 437.164,-190.072"/>
</g>
<!-- Node20 -->
<g id="node20" class="node"><title>Node20</title>
<g id="a_node20"><a xlink:href="../../dd/da5/classnars_1_1storage_1_1Memory_1_1ReasonerBatch_ad567a9256ef8674e839ed6fe62664987.html#ad567a9256ef8674e839ed6fe62664987" target="_top" xlink:title="To get the timer value and then to reset it. ">
<polygon fill="none" stroke="black" points="440,-367 440,-397 594,-397 594,-367 440,-367"/>
<text text-anchor="start" x="448" y="-385" font-family="Helvetica,sans-Serif" font-size="10.00">nars.storage.Memory.Reasoner</text>
<text text-anchor="middle" x="517" y="-374" font-family="Helvetica,sans-Serif" font-size="10.00">Batch.updateTimer</text>
</a>
</g>
</g>
<!-- Node11&#45;&gt;Node20 -->
<g id="edge21" class="edge"><title>Node11&#45;&gt;Node20</title>
<path fill="none" stroke="midnightblue" d="M315.42,-259.706C350.556,-281.129 435.367,-332.838 482.682,-361.686"/>
<polygon fill="midnightblue" stroke="midnightblue" points="480.98,-364.747 491.34,-366.965 484.624,-358.771 480.98,-364.747"/>
</g>
<!-- Node13&#45;&gt;Node6 -->
<g id="edge14" class="edge"><title>Node13&#45;&gt;Node6</title>
<path fill="none" stroke="midnightblue" d="M563.675,-221.547C595.811,-228.265 638.995,-237.291 673.099,-244.42"/>
<polygon fill="midnightblue" stroke="midnightblue" points="672.409,-247.851 682.914,-246.471 673.841,-240.999 672.409,-247.851"/>
</g>
<!-- Node14 -->
<g id="node14" class="node"><title>Node14</title>
<g id="a_node14"><a xlink:href="../../dd/da5/classnars_1_1storage_1_1Memory_1_1ReasonerBatch_aaf7efb6a6732b702669e9548bdb3a243.html#aaf7efb6a6732b702669e9548bdb3a243" target="_top" xlink:title="Get the current time from the clock Called in nars.entity.Stamp. ">
<polygon fill="none" stroke="black" points="652.5,-197 652.5,-227 806.5,-227 806.5,-197 652.5,-197"/>
<text text-anchor="start" x="660.5" y="-215" font-family="Helvetica,sans-Serif" font-size="10.00">nars.storage.Memory.Reasoner</text>
<text text-anchor="middle" x="729.5" y="-204" font-family="Helvetica,sans-Serif" font-size="10.00">Batch.getTime</text>
</a>
</g>
</g>
<!-- Node13&#45;&gt;Node14 -->
<g id="edge15" class="edge"><title>Node13&#45;&gt;Node14</title>
<path fill="none" stroke="midnightblue" d="M590.737,-212C607.172,-212 624.779,-212 641.727,-212"/>
<polygon fill="midnightblue" stroke="midnightblue" points="642.177,-215.5 652.177,-212 642.177,-208.5 642.177,-215.5"/>
</g>
<!-- Node16 -->
<g id="node16" class="node"><title>Node16</title>
<g id="a_node16"><a xlink:href="../../d6/d25/classnars_1_1entity_1_1Sentence_a32d81c9525d514aca8ddc5f4db48a762.html#a32d81c9525d514aca8ddc5f4db48a762" target="_top" xlink:title="Get a String representation of the sentence for key of Task and TaskLink. ">
<polygon fill="none" stroke="black" points="662,-158.5 662,-177.5 797,-177.5 797,-158.5 662,-158.5"/>
<text text-anchor="middle" x="729.5" y="-165.5" font-family="Helvetica,sans-Serif" font-size="10.00">nars.entity.Sentence.toKey</text>
</a>
</g>
</g>
<!-- Node15&#45;&gt;Node16 -->
<g id="edge17" class="edge"><title>Node15&#45;&gt;Node16</title>
<path fill="none" stroke="midnightblue" d="M588.679,-168C608.91,-168 631.058,-168 651.64,-168"/>
<polygon fill="midnightblue" stroke="midnightblue" points="651.921,-171.5 661.921,-168 651.921,-164.5 651.921,-171.5"/>
</g>
<!-- Node19 -->
<g id="node19" class="node"><title>Node19</title>
<g id="a_node19"><a xlink:href="../../d1/d1e/classnars_1_1entity_1_1Stamp_ad1aee19cfc0bb8ca9232bad251f74ffc.html#ad1aee19cfc0bb8ca9232bad251f74ffc" target="_top" xlink:title="Get a String form of the Stamp for display Format: {creationTime [: eventTime] : evidentialBase}. ">
<polygon fill="none" stroke="black" points="664,-120.5 664,-139.5 795,-139.5 795,-120.5 664,-120.5"/>
<text text-anchor="middle" x="729.5" y="-127.5" font-family="Helvetica,sans-Serif" font-size="10.00">nars.entity.Stamp.toString</text>
</a>
</g>
</g>
<!-- Node15&#45;&gt;Node19 -->
<g id="edge20" class="edge"><title>Node15&#45;&gt;Node19</title>
<path fill="none" stroke="midnightblue" d="M588.679,-155.241C613.552,-150.751 641.323,-145.737 665.519,-141.369"/>
<polygon fill="midnightblue" stroke="midnightblue" points="666.432,-144.761 675.652,-139.54 665.189,-137.873 666.432,-144.761"/>
</g>
<!-- Node17 -->
<g id="node17" class="node"><title>Node17</title>
<g id="a_node17"><a xlink:href="../../d8/db8/classnars_1_1language_1_1Term_a04fc046ba98c451bded562f79cff4244.html#a04fc046ba98c451bded562f79cff4244" target="_top" xlink:title="The same as getName by default, used in display only. ">
<polygon fill="none" stroke="black" points="856,-136.5 856,-155.5 996,-155.5 996,-136.5 856,-136.5"/>
<text text-anchor="middle" x="926" y="-143.5" font-family="Helvetica,sans-Serif" font-size="10.00">nars.language.Term.toString</text>
</a>
</g>
</g>
<!-- Node16&#45;&gt;Node17 -->
<g id="edge18" class="edge"><title>Node16&#45;&gt;Node17</title>
<path fill="none" stroke="midnightblue" d="M797.164,-160.46C812.827,-158.688 829.67,-156.783 845.822,-154.956"/>
<polygon fill="midnightblue" stroke="midnightblue" points="846.231,-158.432 855.774,-153.83 845.444,-151.476 846.231,-158.432"/>
</g>
<!-- Node18 -->
<g id="node18" class="node"><title>Node18</title>
<g id="a_node18"><a xlink:href="../../d3/db8/classnars_1_1entity_1_1TruthValue_a5af8b2fe37987ba1e8396ec1aad38e90.html#a5af8b2fe37987ba1e8396ec1aad38e90" target="_top" xlink:title="A simplified String representation of a TruthValue, where each factor is accruate to 1%...">
<polygon fill="none" stroke="black" points="864,-175 864,-205 988,-205 988,-175 864,-175"/>
<text text-anchor="start" x="872" y="-193" font-family="Helvetica,sans-Serif" font-size="10.00">nars.entity.TruthValue.to</text>
<text text-anchor="middle" x="926" y="-182" font-family="Helvetica,sans-Serif" font-size="10.00">StringBrief</text>
</a>
</g>
</g>
<!-- Node16&#45;&gt;Node18 -->
<g id="edge19" class="edge"><title>Node16&#45;&gt;Node18</title>
<path fill="none" stroke="midnightblue" d="M797.164,-175.54C815.443,-177.608 835.326,-179.857 853.847,-181.952"/>
<polygon fill="midnightblue" stroke="midnightblue" points="853.646,-185.451 863.976,-183.098 854.433,-178.496 853.646,-185.451"/>
</g>
<!-- Node21 -->
<g id="node21" class="node"><title>Node21</title>
<g id="a_node21"><a xlink:href="../../dd/da5/classnars_1_1storage_1_1Memory_1_1ReasonerBatch_a10e1e86d98e1a12f6652ab7452dc7954.html#a10e1e86d98e1a12f6652ab7452dc7954" target="_top" xlink:title="nars.storage.Memory.Reasoner\lBatch.getTimer">
<polygon fill="none" stroke="black" points="652.5,-391 652.5,-421 806.5,-421 806.5,-391 652.5,-391"/>
<text text-anchor="start" x="660.5" y="-409" font-family="Helvetica,sans-Serif" font-size="10.00">nars.storage.Memory.Reasoner</text>
<text text-anchor="middle" x="729.5" y="-398" font-family="Helvetica,sans-Serif" font-size="10.00">Batch.getTimer</text>
</a>
</g>
</g>
<!-- Node20&#45;&gt;Node21 -->
<g id="edge22" class="edge"><title>Node20&#45;&gt;Node21</title>
<path fill="none" stroke="midnightblue" d="M594.293,-390.698C609.832,-392.47 626.285,-394.346 642.145,-396.154"/>
<polygon fill="midnightblue" stroke="midnightblue" points="642.135,-399.676 652.467,-397.331 642.928,-392.721 642.135,-399.676"/>
</g>
<!-- Node22 -->
<g id="node22" class="node"><title>Node22</title>
<g id="a_node22"><a xlink:href="../../dd/da5/classnars_1_1storage_1_1Memory_1_1ReasonerBatch_af29e66c0813aeea26cc4afea9735473e.html#af29e66c0813aeea26cc4afea9735473e" target="_top" xlink:title="nars.storage.Memory.Reasoner\lBatch.initTimer">
<polygon fill="none" stroke="black" points="652.5,-342 652.5,-372 806.5,-372 806.5,-342 652.5,-342"/>
<text text-anchor="start" x="660.5" y="-360" font-family="Helvetica,sans-Serif" font-size="10.00">nars.storage.Memory.Reasoner</text>
<text text-anchor="middle" x="729.5" y="-349" font-family="Helvetica,sans-Serif" font-size="10.00">Batch.initTimer</text>
</a>
</g>
</g>
<!-- Node20&#45;&gt;Node22 -->
<g id="edge23" class="edge"><title>Node20&#45;&gt;Node22</title>
<path fill="none" stroke="midnightblue" d="M594.293,-372.939C609.832,-371.094 626.285,-369.14 642.145,-367.256"/>
<polygon fill="midnightblue" stroke="midnightblue" points="642.949,-370.685 652.467,-366.03 642.124,-363.734 642.949,-370.685"/>
</g>
<!-- Node23 -->
<g id="node23" class="node"><title>Node23</title>
<g id="a_node23"><a xlink:href="../../dd/da5/classnars_1_1storage_1_1Memory_1_1ReasonerBatch_a364bf53ee103367ae0518803bc746bc2.html#a364bf53ee103367ae0518803bc746bc2" target="_top" xlink:title="nars.storage.Memory.Reasoner\lBatch.setTimer">
<polygon fill="none" stroke="black" points="849,-342 849,-372 1003,-372 1003,-342 849,-342"/>
<text text-anchor="start" x="857" y="-360" font-family="Helvetica,sans-Serif" font-size="10.00">nars.storage.Memory.Reasoner</text>
<text text-anchor="middle" x="926" y="-349" font-family="Helvetica,sans-Serif" font-size="10.00">Batch.setTimer</text>
</a>
</g>
</g>
<!-- Node22&#45;&gt;Node23 -->
<g id="edge24" class="edge"><title>Node22&#45;&gt;Node23</title>
<path fill="none" stroke="midnightblue" d="M806.534,-357C817.031,-357 827.874,-357 838.542,-357"/>
<polygon fill="midnightblue" stroke="midnightblue" points="838.699,-360.5 848.699,-357 838.699,-353.5 838.699,-360.5"/>
</g>
<!-- Node25 -->
<g id="node25" class="node"><title>Node25</title>
<g id="a_node25"><a xlink:href="../../d4/de4/classnars_1_1inference_1_1UtilityFunctions_a7649e37bb61cac9b8a2601fdff3a5f7a.html#a7649e37bb61cac9b8a2601fdff3a5f7a" target="_top" xlink:title="A function where the output is the geometric average the inputs. ">
<polygon fill="none" stroke="black" points="424,-0.5 424,-19.5 610,-19.5 610,-0.5 424,-0.5"/>
<text text-anchor="middle" x="517" y="-7.5" font-family="Helvetica,sans-Serif" font-size="10.00">nars.inference.UtilityFunctions.aveGeo</text>
</a>
</g>
</g>
<!-- Node24&#45;&gt;Node25 -->
<g id="edge26" class="edge"><title>Node24&#45;&gt;Node25</title>
<path fill="none" stroke="midnightblue" d="M380.733,-10C391.481,-10 402.608,-10 413.654,-10"/>
<polygon fill="midnightblue" stroke="midnightblue" points="413.761,-13.5001 423.761,-10 413.761,-6.5001 413.761,-13.5001"/>
</g>
<!-- Node26&#45;&gt;Node8 -->
<g id="edge28" class="edge"><title>Node26&#45;&gt;Node8</title>
<path fill="none" stroke="midnightblue" d="M360.505,-203.606C370.547,-200.053 380.205,-195.045 388,-188 421.189,-158.002 389.909,-122.969 424,-94 427.356,-91.1485 431.027,-88.6872 434.91,-86.5655"/>
<polygon fill="midnightblue" stroke="midnightblue" points="436.706,-89.5903 444.305,-82.2071 433.76,-83.2403 436.706,-89.5903"/>
</g>
<!-- Node26&#45;&gt;Node15 -->
<g id="edge31" class="edge"><title>Node26&#45;&gt;Node15</title>
<path fill="none" stroke="midnightblue" d="M346.477,-202.453C372.399,-197.184 405.311,-190.496 435.225,-184.416"/>
<polygon fill="midnightblue" stroke="midnightblue" points="436.138,-187.802 445.241,-182.381 434.744,-180.942 436.138,-187.802"/>
</g>
<!-- Node27 -->
<g id="node27" class="node"><title>Node27</title>
<g id="a_node27"><a xlink:href="../../d1/dd1/classnars_1_1entity_1_1Item_a7c18bbc91147504a285041d636284acd.html#a7c18bbc91147504a285041d636284acd" target="_top" xlink:title="Return a String representation of the Item after simplification. ">
<polygon fill="none" stroke="black" points="456,-104 456,-134 578,-134 578,-104 456,-104"/>
<text text-anchor="start" x="464" y="-122" font-family="Helvetica,sans-Serif" font-size="10.00">nars.entity.Item.toString</text>
<text text-anchor="middle" x="517" y="-111" font-family="Helvetica,sans-Serif" font-size="10.00">Brief</text>
</a>
</g>
</g>
<!-- Node26&#45;&gt;Node27 -->
<g id="edge29" class="edge"><title>Node26&#45;&gt;Node27</title>
<path fill="none" stroke="midnightblue" d="M356.082,-202.369C367.221,-198.934 378.415,-194.286 388,-188 409.418,-173.954 402.515,-156.942 424,-143 430.792,-138.592 438.36,-134.992 446.156,-132.053"/>
<polygon fill="midnightblue" stroke="midnightblue" points="447.406,-135.324 455.742,-128.785 445.147,-128.699 447.406,-135.324"/>
</g>
<!-- Node28 -->
<g id="node28" class="node"><title>Node28</title>
<g id="a_node28"><a xlink:href="../../db/d8e/classnars_1_1entity_1_1BudgetValue_aff75d0d4fed143961e843d2959687fb0.html#aff75d0d4fed143961e843d2959687fb0" target="_top" xlink:title="Briefly display the BudgetValue. ">
<polygon fill="none" stroke="black" points="663.5,-71 663.5,-101 795.5,-101 795.5,-71 663.5,-71"/>
<text text-anchor="start" x="671.5" y="-89" font-family="Helvetica,sans-Serif" font-size="10.00">nars.entity.BudgetValue.to</text>
<text text-anchor="middle" x="729.5" y="-78" font-family="Helvetica,sans-Serif" font-size="10.00">StringBrief</text>
</a>
</g>
</g>
<!-- Node27&#45;&gt;Node28 -->
<g id="edge30" class="edge"><title>Node27&#45;&gt;Node28</title>
<path fill="none" stroke="midnightblue" d="M578.039,-109.588C601.429,-105.921 628.498,-101.677 653.173,-97.809"/>
<polygon fill="midnightblue" stroke="midnightblue" points="653.882,-101.241 663.22,-96.234 652.798,-94.3251 653.882,-101.241"/>
</g>
</g>
</svg>
        <g id="navigator" transform="translate(0 0)" fill="#404254">
                <rect fill="#f2f5e9" fill-opacity="0.5" stroke="#606060" stroke-width=".5" x="0" y="0" width="60" height="60"/>
                <use id="zoomplus" xlink:href="#zoomPlus" x="17" y="9" onmousedown="handleZoom(evt,'in')"/>
                <use id="zoomminus" xlink:href="#zoomMin" x="42" y="9" onmousedown="handleZoom(evt,'out')"/>
                <use id="reset" xlink:href="#resetDef" x="30" y="36" onmousedown="handleReset()"/>
                <g id="arrowUp" xlink:href="#dirArrow" transform="translate(30 24)" onmousedown="handlePan(0,-1)">
                  <use xlink:href="#rim" fill="#404040">
                        <set attributeName="fill" to="#808080" begin="arrowUp.mouseover" end="arrowUp.mouseout"/>
                  </use>
                  <path fill="none" stroke="white" stroke-width="1.5" d="M0,-3.0v7 M-2.5,-0.5L0,-3.0L2.5,-0.5"/>
                </g>
                <g id="arrowRight" xlink:href="#dirArrow" transform="rotate(90) translate(36 -43)" onmousedown="handlePan(1,0)">
                  <use xlink:href="#rim" fill="#404040">
                        <set attributeName="fill" to="#808080" begin="arrowRight.mouseover" end="arrowRight.mouseout"/>
                  </use>
                  <path fill="none" stroke="white" stroke-width="1.5" d="M0,-3.0v7 M-2.5,-0.5L0,-3.0L2.5,-0.5"/>
                </g>
                <g id="arrowDown" xlink:href="#dirArrow" transform="rotate(180) translate(-30 -48)" onmousedown="handlePan(0,1)">
                  <use xlink:href="#rim" fill="#404040">
                        <set attributeName="fill" to="#808080" begin="arrowDown.mouseover" end="arrowDown.mouseout"/>
                  </use>
                  <path fill="none" stroke="white" stroke-width="1.5" d="M0,-3.0v7 M-2.5,-0.5L0,-3.0L2.5,-0.5"/>
                </g>
                <g id="arrowLeft" xlink:href="#dirArrow" transform="rotate(270) translate(-36 17)" onmousedown="handlePan(-1,0)">
                  <use xlink:href="#rim" fill="#404040">
                        <set attributeName="fill" to="#808080" begin="arrowLeft.mouseover" end="arrowLeft.mouseout"/>
                  </use>
                  <path fill="none" stroke="white" stroke-width="1.5" d="M0,-3.0v7 M-2.5,-0.5L0,-3.0L2.5,-0.5"/>
                </g>
        </g>
        <svg viewBox="0 0 15 15" width="100%" height="30px" preserveAspectRatio="xMaxYMin meet">
         <g id="arrow_out" transform="scale(0.3 0.3)">
          <a xlink:href="classnars_1_1storage_1_1Memory_aa0cec63b98350a34c10513f3efeaff86_aa0cec63b98350a34c10513f3efeaff86_cgraph_org.svg" target="_base">
           <rect id="button" ry="5" rx="5" y="6" x="6" height="38" width="38"
                fill="#f2f5e9" fill-opacity="0.5" stroke="#606060" stroke-width="1.0"/>
           <path id="arrow"
             d="M 11.500037,31.436501 C 11.940474,20.09759 22.043105,11.32322 32.158766,21.979434 L 37.068811,17.246167 C 37.068811,17.246167 37.088388,32 37.088388,32 L 22.160133,31.978069 C 22.160133,31.978069 26.997745,27.140456 26.997745,27.140456 C 18.528582,18.264221 13.291696,25.230495 11.500037,31.436501 z"
             style="fill:#404040;"/>
          </a>
         </g>
        </svg>
</svg>
