<?xml version="1.0" encoding="UTF-8" standalone="no"?>
<!DOCTYPE svg PUBLIC "-//W3C//DTD SVG 1.1//EN"
 "http://www.w3.org/Graphics/SVG/1.1/DTD/svg11.dtd">
<!-- Generated by graphviz version 2.38.0 (20140413.2041)
 -->
<!-- Title: nars.storage.Memory.toString Pages: 1 -->
<svg width="554pt" height="362pt"
 viewBox="0.00 0.00 554.00 361.50" xmlns="http://www.w3.org/2000/svg" xmlns:xlink="http://www.w3.org/1999/xlink">
<g id="graph0" class="graph" transform="scale(1 1) rotate(0) translate(4 357.5)">
<title>nars.storage.Memory.toString</title>
<!-- Node1 -->
<g id="node1" class="node"><title>Node1</title>
<polygon fill="#bfbfbf" stroke="black" points="0,-175 0,-194 146,-194 146,-175 0,-175"/>
<text text-anchor="middle" x="73" y="-182" font-family="Helvetica,sans-Serif" font-size="10.00">nars.storage.Memory.toString</text>
</g>
<!-- Node2 -->
<g id="node2" class="node"><title>Node2</title>
<g id="a_node2"><a xlink:href="../../d8/df4/classnars_1_1storage_1_1Memory_a33af7b3d806d32c85390563fec3c6d27.html#a33af7b3d806d32c85390563fec3c6d27" target="_top" xlink:title="Concept bag. ">
<polygon fill="none" stroke="black" points="188,-334 188,-353 355,-353 355,-334 188,-334"/>
<text text-anchor="middle" x="271.5" y="-341" font-family="Helvetica,sans-Serif" font-size="10.00">nars.storage.Memory.getConcepts</text>
</a>
</g>
</g>
<!-- Node1&#45;&gt;Node2 -->
<g id="edge1" class="edge"><title>Node1&#45;&gt;Node2</title>
<path fill="none" stroke="midnightblue" d="M78.4479,-194.199C90.8111,-219.99 128.251,-290.607 182,-324.5 185.344,-326.609 188.885,-328.486 192.553,-330.158"/>
<polygon fill="midnightblue" stroke="midnightblue" points="191.305,-333.429 201.889,-333.904 193.911,-326.932 191.305,-333.429"/>
</g>
<!-- Node3 -->
<g id="node3" class="node"><title>Node3</title>
<g id="a_node3"><a xlink:href="../../d8/df4/classnars_1_1storage_1_1Memory_aae366ea198c2340fef786120d5c2163b.html#aae366ea198c2340fef786120d5c2163b" target="_top" xlink:title="The selected belief. ">
<polygon fill="none" stroke="black" points="192.5,-284.5 192.5,-314.5 350.5,-314.5 350.5,-284.5 192.5,-284.5"/>
<text text-anchor="start" x="200.5" y="-302.5" font-family="Helvetica,sans-Serif" font-size="10.00">nars.storage.Memory.getCurrent</text>
<text text-anchor="middle" x="271.5" y="-291.5" font-family="Helvetica,sans-Serif" font-size="10.00">Belief</text>
</a>
</g>
</g>
<!-- Node1&#45;&gt;Node3 -->
<g id="edge2" class="edge"><title>Node1&#45;&gt;Node3</title>
<path fill="none" stroke="midnightblue" d="M82.5214,-194.044C99.5683,-212.55 139.864,-253.43 182,-275.5 185.548,-277.358 189.253,-279.083 193.05,-280.682"/>
<polygon fill="midnightblue" stroke="midnightblue" points="192.052,-284.05 202.641,-284.406 194.585,-277.524 192.052,-284.05"/>
</g>
<!-- Node4 -->
<g id="node4" class="node"><title>Node4</title>
<g id="a_node4"><a xlink:href="../../d8/df4/classnars_1_1storage_1_1Memory_afb74806ef37665d392a86dce2e3c6546.html#afb74806ef37665d392a86dce2e3c6546" target="_top" xlink:title="The selected TermLink. ">
<polygon fill="none" stroke="black" points="192.5,-235.5 192.5,-265.5 350.5,-265.5 350.5,-235.5 192.5,-235.5"/>
<text text-anchor="start" x="200.5" y="-253.5" font-family="Helvetica,sans-Serif" font-size="10.00">nars.storage.Memory.getCurrent</text>
<text text-anchor="middle" x="271.5" y="-242.5" font-family="Helvetica,sans-Serif" font-size="10.00">BeliefLink</text>
</a>
</g>
</g>
<!-- Node1&#45;&gt;Node4 -->
<g id="edge3" class="edge"><title>Node1&#45;&gt;Node4</title>
<path fill="none" stroke="midnightblue" d="M97.3839,-194.056C119.117,-202.775 152.483,-215.749 182,-225.5 189.248,-227.895 196.876,-230.267 204.489,-232.541"/>
<polygon fill="midnightblue" stroke="midnightblue" points="203.513,-235.902 214.094,-235.365 205.487,-229.187 203.513,-235.902"/>
</g>
<!-- Node5 -->
<g id="node5" class="node"><title>Node5</title>
<g id="a_node5"><a xlink:href="../../d8/df4/classnars_1_1storage_1_1Memory_a26eda4f00b333b706b4e3d069fdf1508.html#a26eda4f00b333b706b4e3d069fdf1508" target="_top" xlink:title="The selected Task. ">
<polygon fill="none" stroke="black" points="182,-197 182,-216 361,-216 361,-197 182,-197"/>
<text text-anchor="middle" x="271.5" y="-204" font-family="Helvetica,sans-Serif" font-size="10.00">nars.storage.Memory.getCurrentTask</text>
</a>
</g>
</g>
<!-- Node1&#45;&gt;Node5 -->
<g id="edge4" class="edge"><title>Node1&#45;&gt;Node5</title>
<path fill="none" stroke="midnightblue" d="M146.054,-192.567C155.565,-193.632 165.43,-194.736 175.254,-195.836"/>
<polygon fill="midnightblue" stroke="midnightblue" points="175.134,-199.345 185.462,-196.979 175.913,-192.388 175.134,-199.345"/>
</g>
<!-- Node6 -->
<g id="node6" class="node"><title>Node6</title>
<g id="a_node6"><a xlink:href="../../d8/df4/classnars_1_1storage_1_1Memory_a8c50bdf4f2750032f24965e12e9fb59c.html#a8c50bdf4f2750032f24965e12e9fb59c" target="_top" xlink:title="List of new tasks accumulated in one cycle, to be processed in the next cycle. ">
<polygon fill="none" stroke="black" points="198.5,-147.5 198.5,-177.5 344.5,-177.5 344.5,-147.5 198.5,-147.5"/>
<text text-anchor="start" x="206.5" y="-165.5" font-family="Helvetica,sans-Serif" font-size="10.00">nars.storage.Memory.getNew</text>
<text text-anchor="middle" x="271.5" y="-154.5" font-family="Helvetica,sans-Serif" font-size="10.00">Tasks</text>
</a>
</g>
</g>
<!-- Node1&#45;&gt;Node6 -->
<g id="edge5" class="edge"><title>Node1&#45;&gt;Node6</title>
<path fill="none" stroke="midnightblue" d="M146.054,-176.433C159.803,-174.894 174.292,-173.271 188.33,-171.7"/>
<polygon fill="midnightblue" stroke="midnightblue" points="188.907,-175.157 198.455,-170.566 188.128,-168.201 188.907,-175.157"/>
</g>
<!-- Node7 -->
<g id="node7" class="node"><title>Node7</title>
<g id="a_node7"><a xlink:href="../../d8/df4/classnars_1_1storage_1_1Memory_aa15a4cd104018dc9b98ceaa12d54255d.html#aa15a4cd104018dc9b98ceaa12d54255d" target="_top" xlink:title="New tasks with novel composed terms, for delayed and selective processing. ">
<polygon fill="none" stroke="black" points="196,-98.5 196,-128.5 347,-128.5 347,-98.5 196,-98.5"/>
<text text-anchor="start" x="204" y="-116.5" font-family="Helvetica,sans-Serif" font-size="10.00">nars.storage.Memory.getNovel</text>
<text text-anchor="middle" x="271.5" y="-105.5" font-family="Helvetica,sans-Serif" font-size="10.00">Tasks</text>
</a>
</g>
</g>
<!-- Node1&#45;&gt;Node7 -->
<g id="edge6" class="edge"><title>Node1&#45;&gt;Node7</title>
<path fill="none" stroke="midnightblue" d="M94.3963,-174.889C115.885,-164.983 150.863,-149.479 182,-138.5 188.832,-136.091 196.023,-133.751 203.23,-131.53"/>
<polygon fill="midnightblue" stroke="midnightblue" points="204.468,-134.813 213.036,-128.581 202.452,-128.109 204.468,-134.813"/>
</g>
<!-- Node8 -->
<g id="node8" class="node"><title>Node8</title>
<g id="a_node8"><a xlink:href="../../d8/df4/classnars_1_1storage_1_1Memory_a4017bddb252ecdfc193a7465f2d0b8b7.html#a4017bddb252ecdfc193a7465f2d0b8b7" target="_top" xlink:title="nars.storage.Memory.toString\lIfNotNull">
<polygon fill="none" stroke="black" points="198.5,-49.5 198.5,-79.5 344.5,-79.5 344.5,-49.5 198.5,-49.5"/>
<text text-anchor="start" x="206.5" y="-67.5" font-family="Helvetica,sans-Serif" font-size="10.00">nars.storage.Memory.toString</text>
<text text-anchor="middle" x="271.5" y="-56.5" font-family="Helvetica,sans-Serif" font-size="10.00">IfNotNull</text>
</a>
</g>
</g>
<!-- Node1&#45;&gt;Node8 -->
<g id="edge7" class="edge"><title>Node1&#45;&gt;Node8</title>
<path fill="none" stroke="midnightblue" d="M82.1883,-174.854C98.9535,-155.713 139.229,-112.776 182,-89.5 186.163,-87.2343 190.551,-85.1579 195.056,-83.2574"/>
<polygon fill="midnightblue" stroke="midnightblue" points="196.387,-86.495 204.43,-79.5989 193.842,-79.9739 196.387,-86.495"/>
</g>
<!-- Node9 -->
<g id="node9" class="node"><title>Node9</title>
<g id="a_node9"><a xlink:href="../../d8/df4/classnars_1_1storage_1_1Memory_ac64adce71654729811395e76e0217856.html#ac64adce71654729811395e76e0217856" target="_top" xlink:title="nars.storage.Memory.toString\lLongIfNotNull">
<polygon fill="none" stroke="black" points="198.5,-0.5 198.5,-30.5 344.5,-30.5 344.5,-0.5 198.5,-0.5"/>
<text text-anchor="start" x="206.5" y="-18.5" font-family="Helvetica,sans-Serif" font-size="10.00">nars.storage.Memory.toString</text>
<text text-anchor="middle" x="271.5" y="-7.5" font-family="Helvetica,sans-Serif" font-size="10.00">LongIfNotNull</text>
</a>
</g>
</g>
<!-- Node1&#45;&gt;Node9 -->
<g id="edge8" class="edge"><title>Node1&#45;&gt;Node9</title>
<path fill="none" stroke="midnightblue" d="M78.4928,-174.715C90.9673,-148.66 128.659,-77.0949 182,-40.5 184.919,-38.4974 187.996,-36.6542 191.182,-34.9577"/>
<polygon fill="midnightblue" stroke="midnightblue" points="192.891,-38.0204 200.409,-30.5549 189.877,-31.7028 192.891,-38.0204"/>
</g>
<!-- Node10 -->
<g id="node10" class="node"><title>Node10</title>
<g id="a_node10"><a xlink:href="../../d9/d37/classnars_1_1storage_1_1Bag_adff1bdb7ded17b66dc84068e49571ba7.html#adff1bdb7ded17b66dc84068e49571ba7" target="_top" xlink:title="TODO bad paste from preceding. ">
<polygon fill="none" stroke="black" points="397,-6 397,-25 546,-25 546,-6 397,-6"/>
<text text-anchor="middle" x="471.5" y="-13" font-family="Helvetica,sans-Serif" font-size="10.00">nars.storage.Bag.toStringLong</text>
</a>
</g>
</g>
<!-- Node9&#45;&gt;Node10 -->
<g id="edge9" class="edge"><title>Node9&#45;&gt;Node10</title>
<path fill="none" stroke="midnightblue" d="M344.543,-15.5C358.245,-15.5 372.693,-15.5 386.723,-15.5"/>
<polygon fill="midnightblue" stroke="midnightblue" points="386.849,-19.0001 396.849,-15.5 386.849,-12.0001 386.849,-19.0001"/>
</g>
</g>
</svg>
