<?xml version="1.0" encoding="UTF-8" standalone="no"?>
<!DOCTYPE svg PUBLIC "-//W3C//DTD SVG 1.1//EN"
 "http://www.w3.org/Graphics/SVG/1.1/DTD/svg11.dtd">
<!-- Generated by graphviz version 2.38.0 (20140413.2041)
 -->
<!-- Title: nars.storage.Memory.setCurrentTerm Pages: 1 -->
<!--zoomable 132 -->
<svg id="main" version="1.1" xmlns="http://www.w3.org/2000/svg" xmlns:xlink="http://www.w3.org/1999/xlink" xml:space="preserve" onload="init(evt)">
<style type="text/css"><![CDATA[
.edge:hover path { stroke: red; }
.edge:hover polygon { stroke: red; fill: red; }
]]></style>
<script type="text/javascript"><![CDATA[
var edges = document.getElementsByTagName('g');
if (edges && edges.length) {
  for (var i=0;i<edges.length;i++) {
    if (edges[i].id.substr(0,4)=='edge') {
      edges[i].setAttribute('class','edge');
    }
  }
}
]]></script>
        <defs>
                <circle id="rim" cx="0" cy="0" r="7"/>
                <circle id="rim2" cx="0" cy="0" r="3.5"/>
                <g id="zoomPlus">
                        <use xlink:href="#rim" fill="#404040">
                                <set attributeName="fill" to="#808080" begin="zoomplus.mouseover" end="zoomplus.mouseout"/>
                        </use>
                        <path d="M-4,0h8M0,-4v8" fill="none" stroke="white" stroke-width="1.5" pointer-events="none"/>
                </g>
                <g id="zoomMin">
                        <use xlink:href="#rim" fill="#404040">
                                <set attributeName="fill" to="#808080" begin="zoomminus.mouseover" end="zoomminus.mouseout"/>
                        </use>
                        <path d="M-4,0h8" fill="none" stroke="white" stroke-width="1.5" pointer-events="none"/>
                </g>
                <g id="dirArrow">
                        <path fill="none" stroke="white" stroke-width="1.5" d="M0,-3.0v7 M-2.5,-0.5L0,-3.0L2.5,-0.5"/>
                </g>
               <g id="resetDef">
                       <use xlink:href="#rim2" fill="#404040">
                               <set attributeName="fill" to="#808080" begin="reset.mouseover" end="reset.mouseout"/>
                       </use>
               </g>
        </defs>

<script type="text/javascript">
var viewWidth = 1774;
var viewHeight = 132;
var sectionId = 'dynsection-0';
</script>
<script xlink:href="../../svgpan.js"/>
<svg id="graph" class="graph">
<g id="viewport">
<title>nars.storage.Memory.setCurrentTerm</title>
<!-- Node1 -->
<g id="node1" class="node"><title>Node1</title>
<polygon fill="#bfbfbf" stroke="black" points="0,-30 0,-49 180,-49 180,-30 0,-30"/>
<text text-anchor="middle" x="90" y="-37" font-family="Helvetica,sans-Serif" font-size="10.00">nars.storage.Memory.setCurrentTerm</text>
</g>
<!-- Node2 -->
<g id="node2" class="node"><title>Node2</title>
<g id="a_node2"><a xlink:href="../../d8/df4/classnars_1_1storage_1_1Memory_a175200c1f4c182222d0e66439b6e53a0.html#a175200c1f4c182222d0e66439b6e53a0" target="_top" xlink:title="Immediate processing of a new task, in constant time Local processing, in one concept only...">
<polygon fill="none" stroke="black" points="216,-49.5 216,-79.5 373,-79.5 373,-49.5 216,-49.5"/>
<text text-anchor="start" x="224" y="-67.5" font-family="Helvetica,sans-Serif" font-size="10.00">nars.storage.Memory.immediate</text>
<text text-anchor="middle" x="294.5" y="-56.5" font-family="Helvetica,sans-Serif" font-size="10.00">Process</text>
</a>
</g>
</g>
<!-- Node1&#45;&gt;Node2 -->
<g id="edge1" class="edge"><title>Node1&#45;&gt;Node2</title>
<path fill="none" stroke="midnightblue" d="M178.13,-50.2568C190.692,-51.8077 203.55,-53.395 215.909,-54.9209"/>
<polygon fill="midnightblue" stroke="midnightblue" points="178.488,-46.7745 168.134,-49.0227 177.63,-53.7217 178.488,-46.7745"/>
</g>
<!-- Node11 -->
<g id="node11" class="node"><title>Node11</title>
<g id="a_node11"><a xlink:href="../../d8/df4/classnars_1_1storage_1_1Memory_a83154b55b922c82b73931d4f22e3a590.html#a83154b55b922c82b73931d4f22e3a590" target="_top" xlink:title="Select a concept to fire. ">
<polygon fill="none" stroke="black" points="221.5,-0.5 221.5,-30.5 367.5,-30.5 367.5,-0.5 221.5,-0.5"/>
<text text-anchor="start" x="229.5" y="-18.5" font-family="Helvetica,sans-Serif" font-size="10.00">nars.storage.Memory.process</text>
<text text-anchor="middle" x="294.5" y="-7.5" font-family="Helvetica,sans-Serif" font-size="10.00">Concept</text>
</a>
</g>
</g>
<!-- Node1&#45;&gt;Node11 -->
<g id="edge11" class="edge"><title>Node1&#45;&gt;Node11</title>
<path fill="none" stroke="midnightblue" d="M181.499,-28.7742C194.889,-27.1873 208.533,-25.5702 221.479,-24.0358"/>
<polygon fill="midnightblue" stroke="midnightblue" points="180.843,-25.3274 171.324,-29.9801 181.667,-32.2787 180.843,-25.3274"/>
</g>
<!-- Node3 -->
<g id="node3" class="node"><title>Node3</title>
<g id="a_node3"><a xlink:href="../../d8/df4/classnars_1_1storage_1_1Memory_a105e44a3504921cc1036eb979b85d9f0.html#a105e44a3504921cc1036eb979b85d9f0" target="_top" xlink:title="Process the newTasks accumulated in the previous workCycle, accept input ones and those that correspo...">
<polygon fill="none" stroke="black" points="409,-93.5 409,-123.5 555,-123.5 555,-93.5 409,-93.5"/>
<text text-anchor="start" x="417" y="-111.5" font-family="Helvetica,sans-Serif" font-size="10.00">nars.storage.Memory.process</text>
<text text-anchor="middle" x="482" y="-100.5" font-family="Helvetica,sans-Serif" font-size="10.00">NewTask</text>
</a>
</g>
</g>
<!-- Node2&#45;&gt;Node3 -->
<g id="edge2" class="edge"><title>Node2&#45;&gt;Node3</title>
<path fill="none" stroke="midnightblue" d="M368.759,-81.8769C384.925,-85.7112 401.917,-89.7418 417.651,-93.4738"/>
<polygon fill="midnightblue" stroke="midnightblue" points="369.358,-78.4217 358.82,-79.5192 367.742,-85.2328 369.358,-78.4217"/>
</g>
<!-- Node10 -->
<g id="node10" class="node"><title>Node10</title>
<g id="a_node10"><a xlink:href="../../d8/df4/classnars_1_1storage_1_1Memory_afe3b4d1bb5fab652ceca53c04773af73.html#afe3b4d1bb5fab652ceca53c04773af73" target="_top" xlink:title="Select a novel task to process. ">
<polygon fill="none" stroke="black" points="409,-44.5 409,-74.5 555,-74.5 555,-44.5 409,-44.5"/>
<text text-anchor="start" x="417" y="-62.5" font-family="Helvetica,sans-Serif" font-size="10.00">nars.storage.Memory.process</text>
<text text-anchor="middle" x="482" y="-51.5" font-family="Helvetica,sans-Serif" font-size="10.00">NovelTask</text>
</a>
</g>
</g>
<!-- Node2&#45;&gt;Node10 -->
<g id="edge9" class="edge"><title>Node2&#45;&gt;Node10</title>
<path fill="none" stroke="midnightblue" d="M383.125,-62.1381C391.707,-61.9068 400.349,-61.6739 408.754,-61.4473"/>
<polygon fill="midnightblue" stroke="midnightblue" points="382.996,-58.6403 373.094,-62.4085 383.185,-65.6377 382.996,-58.6403"/>
</g>
<!-- Node4 -->
<g id="node4" class="node"><title>Node4</title>
<g id="a_node4"><a xlink:href="../../d8/df4/classnars_1_1storage_1_1Memory_a49e2cbc8b78d535f4d69739886ee966a.html#a49e2cbc8b78d535f4d69739886ee966a" target="_top" xlink:title="An atomic working workCycle of the system: process new Tasks, then fire a concept. ">
<polygon fill="none" stroke="black" points="591,-44.5 591,-74.5 724,-74.5 724,-44.5 591,-44.5"/>
<text text-anchor="start" x="599" y="-62.5" font-family="Helvetica,sans-Serif" font-size="10.00">nars.storage.Memory.work</text>
<text text-anchor="middle" x="657.5" y="-51.5" font-family="Helvetica,sans-Serif" font-size="10.00">Cycle</text>
</a>
</g>
</g>
<!-- Node3&#45;&gt;Node4 -->
<g id="edge3" class="edge"><title>Node3&#45;&gt;Node4</title>
<path fill="none" stroke="midnightblue" d="M546.102,-90.6788C564.835,-85.3882 585.16,-79.6478 603.205,-74.5516"/>
<polygon fill="midnightblue" stroke="midnightblue" points="545.144,-87.3123 536.471,-93.3986 547.046,-94.0488 545.144,-87.3123"/>
</g>
<!-- Node5 -->
<g id="node5" class="node"><title>Node5</title>
<g id="a_node5"><a xlink:href="../../dd/da5/classnars_1_1storage_1_1Memory_1_1ReasonerBatch_acc60dec23da774957a85362ed6d7448b.html#acc60dec23da774957a85362ed6d7448b" target="_top" xlink:title="nars.storage.Memory.Reasoner\lBatch.doTick">
<polygon fill="none" stroke="black" points="760,-44.5 760,-74.5 914,-74.5 914,-44.5 760,-44.5"/>
<text text-anchor="start" x="768" y="-62.5" font-family="Helvetica,sans-Serif" font-size="10.00">nars.storage.Memory.Reasoner</text>
<text text-anchor="middle" x="837" y="-51.5" font-family="Helvetica,sans-Serif" font-size="10.00">Batch.doTick</text>
</a>
</g>
</g>
<!-- Node4&#45;&gt;Node5 -->
<g id="edge4" class="edge"><title>Node4&#45;&gt;Node5</title>
<path fill="none" stroke="midnightblue" d="M734.318,-59.5C742.786,-59.5 751.414,-59.5 759.885,-59.5"/>
<polygon fill="midnightblue" stroke="midnightblue" points="734.09,-56.0001 724.09,-59.5 734.09,-63.0001 734.09,-56.0001"/>
</g>
<!-- Node6 -->
<g id="node6" class="node"><title>Node6</title>
<g id="a_node6"><a xlink:href="../../dd/da5/classnars_1_1storage_1_1Memory_1_1ReasonerBatch_aed591f05899b98fd9e4ad01836ad0a40.html#aed591f05899b98fd9e4ad01836ad0a40" target="_top" xlink:title="A clock tick. ">
<polygon fill="none" stroke="black" points="950,-44.5 950,-74.5 1104,-74.5 1104,-44.5 950,-44.5"/>
<text text-anchor="start" x="958" y="-62.5" font-family="Helvetica,sans-Serif" font-size="10.00">nars.storage.Memory.Reasoner</text>
<text text-anchor="middle" x="1027" y="-51.5" font-family="Helvetica,sans-Serif" font-size="10.00">Batch.tick</text>
</a>
</g>
</g>
<!-- Node5&#45;&gt;Node6 -->
<g id="edge5" class="edge"><title>Node5&#45;&gt;Node6</title>
<path fill="none" stroke="midnightblue" d="M924.424,-59.5C932.857,-59.5 941.372,-59.5 949.696,-59.5"/>
<polygon fill="midnightblue" stroke="midnightblue" points="924.196,-56.0001 914.196,-59.5 924.196,-63.0001 924.196,-56.0001"/>
</g>
<!-- Node7 -->
<g id="node7" class="node"><title>Node7</title>
<g id="a_node7"><a xlink:href="../../d4/d88/classnars_1_1storage_1_1Memory_1_1NARSBatch_aad99db6cedde9cff2a997db8906ff821.html#aad99db6cedde9cff2a997db8906ff821" target="_top" xlink:title="Run to completion: repeatedly execute NARS working cycle, until Inputs are Finished, or 1000 steps. ">
<polygon fill="none" stroke="black" points="1140,-50 1140,-69 1322,-69 1322,-50 1140,-50"/>
<text text-anchor="middle" x="1231" y="-57" font-family="Helvetica,sans-Serif" font-size="10.00">nars.storage.Memory.NARSBatch.run</text>
</a>
</g>
</g>
<!-- Node6&#45;&gt;Node7 -->
<g id="edge6" class="edge"><title>Node6&#45;&gt;Node7</title>
<path fill="none" stroke="midnightblue" d="M1114.27,-59.5C1122.69,-59.5 1131.25,-59.5 1139.71,-59.5"/>
<polygon fill="midnightblue" stroke="midnightblue" points="1114.08,-56.0001 1104.08,-59.5 1114.08,-63.0001 1114.08,-56.0001"/>
</g>
<!-- Node8 -->
<g id="node8" class="node"><title>Node8</title>
<g id="a_node8"><a xlink:href="../../d4/d88/classnars_1_1storage_1_1Memory_1_1NARSBatch_a416c39463faa161661ed1d12fea03b3c.html#a416c39463faa161661ed1d12fea03b3c" target="_top" xlink:title="non&#45;static equivalent to main(String[]) : run to completion from an input file ">
<polygon fill="none" stroke="black" points="1358,-44.5 1358,-74.5 1540,-74.5 1540,-44.5 1358,-44.5"/>
<text text-anchor="start" x="1366" y="-62.5" font-family="Helvetica,sans-Serif" font-size="10.00">nars.storage.Memory.NARSBatch.run</text>
<text text-anchor="middle" x="1449" y="-51.5" font-family="Helvetica,sans-Serif" font-size="10.00">Inference</text>
</a>
</g>
</g>
<!-- Node7&#45;&gt;Node8 -->
<g id="edge7" class="edge"><title>Node7&#45;&gt;Node8</title>
<path fill="none" stroke="midnightblue" d="M1332.06,-59.5C1340.63,-59.5 1349.27,-59.5 1357.76,-59.5"/>
<polygon fill="midnightblue" stroke="midnightblue" points="1332.04,-56.0001 1322.04,-59.5 1332.04,-63.0001 1332.04,-56.0001"/>
</g>
<!-- Node9 -->
<g id="node9" class="node"><title>Node9</title>
<g id="a_node9"><a xlink:href="../../d4/d88/classnars_1_1storage_1_1Memory_1_1NARSBatch_aa97fcd68270583e60e6bf1b4579d1bdc.html#aa97fcd68270583e60e6bf1b4579d1bdc" target="_top" xlink:title="The entry point of the standalone application. ">
<polygon fill="none" stroke="black" points="1576,-50 1576,-69 1766,-69 1766,-50 1576,-50"/>
<text text-anchor="middle" x="1671" y="-57" font-family="Helvetica,sans-Serif" font-size="10.00">nars.storage.Memory.NARSBatch.main</text>
</a>
</g>
</g>
<!-- Node8&#45;&gt;Node9 -->
<g id="edge8" class="edge"><title>Node8&#45;&gt;Node9</title>
<path fill="none" stroke="midnightblue" d="M1550.37,-59.5C1558.82,-59.5 1567.34,-59.5 1575.74,-59.5"/>
<polygon fill="midnightblue" stroke="midnightblue" points="1550.12,-56.0001 1540.12,-59.5 1550.12,-63.0001 1550.12,-56.0001"/>
</g>
<!-- Node10&#45;&gt;Node4 -->
<g id="edge10" class="edge"><title>Node10&#45;&gt;Node4</title>
<path fill="none" stroke="midnightblue" d="M565.118,-59.5C573.716,-59.5 582.375,-59.5 590.755,-59.5"/>
<polygon fill="midnightblue" stroke="midnightblue" points="565.072,-56.0001 555.072,-59.5 565.072,-63.0001 565.072,-56.0001"/>
</g>
<!-- Node11&#45;&gt;Node4 -->
<g id="edge12" class="edge"><title>Node11&#45;&gt;Node4</title>
<path fill="none" stroke="midnightblue" d="M377.773,-17.9831C429.003,-20.4033 496.129,-25.1629 555,-34.5 570.684,-36.9875 587.504,-40.6951 602.851,-44.4983"/>
<polygon fill="midnightblue" stroke="midnightblue" points="377.894,-14.4851 367.746,-17.5296 377.578,-21.4779 377.894,-14.4851"/>
</g>
</g>
</svg>
        <g id="navigator" transform="translate(0 0)" fill="#404254">
                <rect fill="#f2f5e9" fill-opacity="0.5" stroke="#606060" stroke-width=".5" x="0" y="0" width="60" height="60"/>
                <use id="zoomplus" xlink:href="#zoomPlus" x="17" y="9" onmousedown="handleZoom(evt,'in')"/>
                <use id="zoomminus" xlink:href="#zoomMin" x="42" y="9" onmousedown="handleZoom(evt,'out')"/>
                <use id="reset" xlink:href="#resetDef" x="30" y="36" onmousedown="handleReset()"/>
                <g id="arrowUp" xlink:href="#dirArrow" transform="translate(30 24)" onmousedown="handlePan(0,-1)">
                  <use xlink:href="#rim" fill="#404040">
                        <set attributeName="fill" to="#808080" begin="arrowUp.mouseover" end="arrowUp.mouseout"/>
                  </use>
                  <path fill="none" stroke="white" stroke-width="1.5" d="M0,-3.0v7 M-2.5,-0.5L0,-3.0L2.5,-0.5"/>
                </g>
                <g id="arrowRight" xlink:href="#dirArrow" transform="rotate(90) translate(36 -43)" onmousedown="handlePan(1,0)">
                  <use xlink:href="#rim" fill="#404040">
                        <set attributeName="fill" to="#808080" begin="arrowRight.mouseover" end="arrowRight.mouseout"/>
                  </use>
                  <path fill="none" stroke="white" stroke-width="1.5" d="M0,-3.0v7 M-2.5,-0.5L0,-3.0L2.5,-0.5"/>
                </g>
                <g id="arrowDown" xlink:href="#dirArrow" transform="rotate(180) translate(-30 -48)" onmousedown="handlePan(0,1)">
                  <use xlink:href="#rim" fill="#404040">
                        <set attributeName="fill" to="#808080" begin="arrowDown.mouseover" end="arrowDown.mouseout"/>
                  </use>
                  <path fill="none" stroke="white" stroke-width="1.5" d="M0,-3.0v7 M-2.5,-0.5L0,-3.0L2.5,-0.5"/>
                </g>
                <g id="arrowLeft" xlink:href="#dirArrow" transform="rotate(270) translate(-36 17)" onmousedown="handlePan(-1,0)">
                  <use xlink:href="#rim" fill="#404040">
                        <set attributeName="fill" to="#808080" begin="arrowLeft.mouseover" end="arrowLeft.mouseout"/>
                  </use>
                  <path fill="none" stroke="white" stroke-width="1.5" d="M0,-3.0v7 M-2.5,-0.5L0,-3.0L2.5,-0.5"/>
                </g>
        </g>
        <svg viewBox="0 0 15 15" width="100%" height="30px" preserveAspectRatio="xMaxYMin meet">
         <g id="arrow_out" transform="scale(0.3 0.3)">
          <a xlink:href="classnars_1_1storage_1_1Memory_ae810a2e5d300b64d6aec58e1393a12cc_ae810a2e5d300b64d6aec58e1393a12cc_icgraph_org.svg" target="_base">
           <rect id="button" ry="5" rx="5" y="6" x="6" height="38" width="38"
                fill="#f2f5e9" fill-opacity="0.5" stroke="#606060" stroke-width="1.0"/>
           <path id="arrow"
             d="M 11.500037,31.436501 C 11.940474,20.09759 22.043105,11.32322 32.158766,21.979434 L 37.068811,17.246167 C 37.068811,17.246167 37.088388,32 37.088388,32 L 22.160133,31.978069 C 22.160133,31.978069 26.997745,27.140456 26.997745,27.140456 C 18.528582,18.264221 13.291696,25.230495 11.500037,31.436501 z"
             style="fill:#404040;"/>
          </a>
         </g>
        </svg>
</svg>
