<?xml version="1.0" encoding="UTF-8" standalone="no"?>
<!DOCTYPE svg PUBLIC "-//W3C//DTD SVG 1.1//EN"
 "http://www.w3.org/Graphics/SVG/1.1/DTD/svg11.dtd">
<!-- Generated by graphviz version 2.38.0 (20140413.2041)
 -->
<!-- Title: nars.storage.Memory.termToConcept Pages: 1 -->
<svg width="1913pt" height="83pt"
 viewBox="0.00 0.00 1913.00 83.00" xmlns="http://www.w3.org/2000/svg" xmlns:xlink="http://www.w3.org/1999/xlink">
<g id="graph0" class="graph" transform="scale(1 1) rotate(0) translate(4 79)">
<title>nars.storage.Memory.termToConcept</title>
<!-- Node1 -->
<g id="node1" class="node"><title>Node1</title>
<polygon fill="#bfbfbf" stroke="black" points="0,-22.5 0,-52.5 131,-52.5 131,-22.5 0,-22.5"/>
<text text-anchor="start" x="8" y="-40.5" font-family="Helvetica,sans-Serif" font-size="10.00">nars.storage.Memory.term</text>
<text text-anchor="middle" x="65.5" y="-29.5" font-family="Helvetica,sans-Serif" font-size="10.00">ToConcept</text>
</g>
<!-- Node2 -->
<g id="node2" class="node"><title>Node2</title>
<g id="a_node2"><a xlink:href="../../d8/df4/classnars_1_1storage_1_1Memory_a105e44a3504921cc1036eb979b85d9f0.html#a105e44a3504921cc1036eb979b85d9f0" target="_top" xlink:title="Process the newTasks accumulated in the previous workCycle, accept input ones and those that correspo...">
<polygon fill="none" stroke="black" points="366,-44.5 366,-74.5 512,-74.5 512,-44.5 366,-44.5"/>
<text text-anchor="start" x="374" y="-62.5" font-family="Helvetica,sans-Serif" font-size="10.00">nars.storage.Memory.process</text>
<text text-anchor="middle" x="439" y="-51.5" font-family="Helvetica,sans-Serif" font-size="10.00">NewTask</text>
</a>
</g>
</g>
<!-- Node1&#45;&gt;Node2 -->
<g id="edge1" class="edge"><title>Node1&#45;&gt;Node2</title>
<path fill="none" stroke="midnightblue" d="M141.452,-41.9386C206.87,-45.8126 301.182,-51.3977 365.779,-55.2231"/>
<polygon fill="midnightblue" stroke="midnightblue" points="141.4,-38.4295 131.21,-41.3321 140.986,-45.4172 141.4,-38.4295"/>
</g>
<!-- Node9 -->
<g id="node9" class="node"><title>Node9</title>
<g id="a_node9"><a xlink:href="../../da/de3/classnars_1_1inference_1_1RuleTables_ac2d01dfdc40bdd47c757cb549217e6e3.html#ac2d01dfdc40bdd47c757cb549217e6e3" target="_top" xlink:title="Entry point of the inference engine. ">
<polygon fill="none" stroke="black" points="167,-9 167,-28 330,-28 330,-9 167,-9"/>
<text text-anchor="middle" x="248.5" y="-16" font-family="Helvetica,sans-Serif" font-size="10.00">nars.inference.RuleTables.reason</text>
</a>
</g>
</g>
<!-- Node1&#45;&gt;Node9 -->
<g id="edge8" class="edge"><title>Node1&#45;&gt;Node9</title>
<path fill="none" stroke="midnightblue" d="M141.25,-29.6534C149.681,-28.7683 158.301,-27.8634 166.804,-26.9708"/>
<polygon fill="midnightblue" stroke="midnightblue" points="140.659,-26.1961 131.079,-30.721 141.389,-33.1578 140.659,-26.1961"/>
</g>
<!-- Node3 -->
<g id="node3" class="node"><title>Node3</title>
<g id="a_node3"><a xlink:href="../../d8/df4/classnars_1_1storage_1_1Memory_a49e2cbc8b78d535f4d69739886ee966a.html#a49e2cbc8b78d535f4d69739886ee966a" target="_top" xlink:title="An atomic working workCycle of the system: process new Tasks, then fire a concept. ">
<polygon fill="none" stroke="black" points="730,-22.5 730,-52.5 863,-52.5 863,-22.5 730,-22.5"/>
<text text-anchor="start" x="738" y="-40.5" font-family="Helvetica,sans-Serif" font-size="10.00">nars.storage.Memory.work</text>
<text text-anchor="middle" x="796.5" y="-29.5" font-family="Helvetica,sans-Serif" font-size="10.00">Cycle</text>
</a>
</g>
</g>
<!-- Node2&#45;&gt;Node3 -->
<g id="edge2" class="edge"><title>Node2&#45;&gt;Node3</title>
<path fill="none" stroke="midnightblue" d="M522.682,-54.3833C585.739,-50.481 671.414,-45.179 729.822,-41.5645"/>
<polygon fill="midnightblue" stroke="midnightblue" points="522.134,-50.9104 512.369,-55.0215 522.566,-57.897 522.134,-50.9104"/>
</g>
<!-- Node4 -->
<g id="node4" class="node"><title>Node4</title>
<g id="a_node4"><a xlink:href="../../dd/da5/classnars_1_1storage_1_1Memory_1_1ReasonerBatch_acc60dec23da774957a85362ed6d7448b.html#acc60dec23da774957a85362ed6d7448b" target="_top" xlink:title="nars.storage.Memory.Reasoner\lBatch.doTick">
<polygon fill="none" stroke="black" points="899,-22.5 899,-52.5 1053,-52.5 1053,-22.5 899,-22.5"/>
<text text-anchor="start" x="907" y="-40.5" font-family="Helvetica,sans-Serif" font-size="10.00">nars.storage.Memory.Reasoner</text>
<text text-anchor="middle" x="976" y="-29.5" font-family="Helvetica,sans-Serif" font-size="10.00">Batch.doTick</text>
</a>
</g>
</g>
<!-- Node3&#45;&gt;Node4 -->
<g id="edge3" class="edge"><title>Node3&#45;&gt;Node4</title>
<path fill="none" stroke="midnightblue" d="M873.318,-37.5C881.786,-37.5 890.414,-37.5 898.885,-37.5"/>
<polygon fill="midnightblue" stroke="midnightblue" points="873.09,-34.0001 863.09,-37.5 873.09,-41.0001 873.09,-34.0001"/>
</g>
<!-- Node5 -->
<g id="node5" class="node"><title>Node5</title>
<g id="a_node5"><a xlink:href="../../dd/da5/classnars_1_1storage_1_1Memory_1_1ReasonerBatch_aed591f05899b98fd9e4ad01836ad0a40.html#aed591f05899b98fd9e4ad01836ad0a40" target="_top" xlink:title="A clock tick. ">
<polygon fill="none" stroke="black" points="1089,-22.5 1089,-52.5 1243,-52.5 1243,-22.5 1089,-22.5"/>
<text text-anchor="start" x="1097" y="-40.5" font-family="Helvetica,sans-Serif" font-size="10.00">nars.storage.Memory.Reasoner</text>
<text text-anchor="middle" x="1166" y="-29.5" font-family="Helvetica,sans-Serif" font-size="10.00">Batch.tick</text>
</a>
</g>
</g>
<!-- Node4&#45;&gt;Node5 -->
<g id="edge4" class="edge"><title>Node4&#45;&gt;Node5</title>
<path fill="none" stroke="midnightblue" d="M1063.42,-37.5C1071.86,-37.5 1080.37,-37.5 1088.7,-37.5"/>
<polygon fill="midnightblue" stroke="midnightblue" points="1063.2,-34.0001 1053.2,-37.5 1063.2,-41.0001 1063.2,-34.0001"/>
</g>
<!-- Node6 -->
<g id="node6" class="node"><title>Node6</title>
<g id="a_node6"><a xlink:href="../../d4/d88/classnars_1_1storage_1_1Memory_1_1NARSBatch_aad99db6cedde9cff2a997db8906ff821.html#aad99db6cedde9cff2a997db8906ff821" target="_top" xlink:title="Run to completion: repeatedly execute NARS working cycle, until Inputs are Finished, or 1000 steps. ">
<polygon fill="none" stroke="black" points="1279,-28 1279,-47 1461,-47 1461,-28 1279,-28"/>
<text text-anchor="middle" x="1370" y="-35" font-family="Helvetica,sans-Serif" font-size="10.00">nars.storage.Memory.NARSBatch.run</text>
</a>
</g>
</g>
<!-- Node5&#45;&gt;Node6 -->
<g id="edge5" class="edge"><title>Node5&#45;&gt;Node6</title>
<path fill="none" stroke="midnightblue" d="M1253.27,-37.5C1261.69,-37.5 1270.25,-37.5 1278.71,-37.5"/>
<polygon fill="midnightblue" stroke="midnightblue" points="1253.08,-34.0001 1243.08,-37.5 1253.08,-41.0001 1253.08,-34.0001"/>
</g>
<!-- Node7 -->
<g id="node7" class="node"><title>Node7</title>
<g id="a_node7"><a xlink:href="../../d4/d88/classnars_1_1storage_1_1Memory_1_1NARSBatch_a416c39463faa161661ed1d12fea03b3c.html#a416c39463faa161661ed1d12fea03b3c" target="_top" xlink:title="non&#45;static equivalent to main(String[]) : run to completion from an input file ">
<polygon fill="none" stroke="black" points="1497,-22.5 1497,-52.5 1679,-52.5 1679,-22.5 1497,-22.5"/>
<text text-anchor="start" x="1505" y="-40.5" font-family="Helvetica,sans-Serif" font-size="10.00">nars.storage.Memory.NARSBatch.run</text>
<text text-anchor="middle" x="1588" y="-29.5" font-family="Helvetica,sans-Serif" font-size="10.00">Inference</text>
</a>
</g>
</g>
<!-- Node6&#45;&gt;Node7 -->
<g id="edge6" class="edge"><title>Node6&#45;&gt;Node7</title>
<path fill="none" stroke="midnightblue" d="M1471.06,-37.5C1479.63,-37.5 1488.27,-37.5 1496.76,-37.5"/>
<polygon fill="midnightblue" stroke="midnightblue" points="1471.04,-34.0001 1461.04,-37.5 1471.04,-41.0001 1471.04,-34.0001"/>
</g>
<!-- Node8 -->
<g id="node8" class="node"><title>Node8</title>
<g id="a_node8"><a xlink:href="../../d4/d88/classnars_1_1storage_1_1Memory_1_1NARSBatch_aa97fcd68270583e60e6bf1b4579d1bdc.html#aa97fcd68270583e60e6bf1b4579d1bdc" target="_top" xlink:title="The entry point of the standalone application. ">
<polygon fill="none" stroke="black" points="1715,-28 1715,-47 1905,-47 1905,-28 1715,-28"/>
<text text-anchor="middle" x="1810" y="-35" font-family="Helvetica,sans-Serif" font-size="10.00">nars.storage.Memory.NARSBatch.main</text>
</a>
</g>
</g>
<!-- Node7&#45;&gt;Node8 -->
<g id="edge7" class="edge"><title>Node7&#45;&gt;Node8</title>
<path fill="none" stroke="midnightblue" d="M1689.37,-37.5C1697.82,-37.5 1706.34,-37.5 1714.74,-37.5"/>
<polygon fill="midnightblue" stroke="midnightblue" points="1689.12,-34.0001 1679.12,-37.5 1689.12,-41.0001 1689.12,-34.0001"/>
</g>
<!-- Node10 -->
<g id="node10" class="node"><title>Node10</title>
<g id="a_node10"><a xlink:href="../../d4/d22/classnars_1_1entity_1_1Concept_ae07576c8466ad65eeb61040e3f71cfc7.html#ae07576c8466ad65eeb61040e3f71cfc7" target="_top" xlink:title="An atomic step in a concept, only called in Memory# processConcept. ">
<polygon fill="none" stroke="black" points="379.5,-6 379.5,-25 498.5,-25 498.5,-6 379.5,-6"/>
<text text-anchor="middle" x="439" y="-13" font-family="Helvetica,sans-Serif" font-size="10.00">nars.entity.Concept.fire</text>
</a>
</g>
</g>
<!-- Node9&#45;&gt;Node10 -->
<g id="edge9" class="edge"><title>Node9&#45;&gt;Node10</title>
<path fill="none" stroke="midnightblue" d="M340.361,-17.0539C353.613,-16.843 366.955,-16.6307 379.337,-16.4336"/>
<polygon fill="midnightblue" stroke="midnightblue" points="340.204,-13.5559 330.261,-17.2147 340.316,-20.555 340.204,-13.5559"/>
</g>
<!-- Node11 -->
<g id="node11" class="node"><title>Node11</title>
<g id="a_node11"><a xlink:href="../../d8/df4/classnars_1_1storage_1_1Memory_a83154b55b922c82b73931d4f22e3a590.html#a83154b55b922c82b73931d4f22e3a590" target="_top" xlink:title="Select a concept to fire. ">
<polygon fill="none" stroke="black" points="548,-0.5 548,-30.5 694,-30.5 694,-0.5 548,-0.5"/>
<text text-anchor="start" x="556" y="-18.5" font-family="Helvetica,sans-Serif" font-size="10.00">nars.storage.Memory.process</text>
<text text-anchor="middle" x="621" y="-7.5" font-family="Helvetica,sans-Serif" font-size="10.00">Concept</text>
</a>
</g>
</g>
<!-- Node10&#45;&gt;Node11 -->
<g id="edge10" class="edge"><title>Node10&#45;&gt;Node11</title>
<path fill="none" stroke="midnightblue" d="M508.969,-15.5C521.66,-15.5 534.942,-15.5 547.727,-15.5"/>
<polygon fill="midnightblue" stroke="midnightblue" points="508.939,-12.0001 498.939,-15.5 508.939,-19.0001 508.939,-12.0001"/>
</g>
<!-- Node11&#45;&gt;Node3 -->
<g id="edge11" class="edge"><title>Node11&#45;&gt;Node3</title>
<path fill="none" stroke="midnightblue" d="M704.118,-25.9126C712.716,-27.0029 721.375,-28.1008 729.755,-29.1635"/>
<polygon fill="midnightblue" stroke="midnightblue" points="704.433,-22.4247 694.072,-24.6389 703.553,-29.3691 704.433,-22.4247"/>
</g>
</g>
</svg>
