<?xml version="1.0" encoding="UTF-8" standalone="no"?>
<!DOCTYPE svg PUBLIC "-//W3C//DTD SVG 1.1//EN"
 "http://www.w3.org/Graphics/SVG/1.1/DTD/svg11.dtd">
<!-- Generated by graphviz version 2.38.0 (20140413.2041)
 -->
<!-- Title: nars.storage.Memory.getConcept Pages: 1 -->
<svg width="2238pt" height="141pt"
 viewBox="0.00 0.00 2238.00 141.00" xmlns="http://www.w3.org/2000/svg" xmlns:xlink="http://www.w3.org/1999/xlink">
<g id="graph0" class="graph" transform="scale(1 1) rotate(0) translate(4 137)">
<title>nars.storage.Memory.getConcept</title>
<!-- Node1 -->
<g id="node1" class="node"><title>Node1</title>
<polygon fill="#bfbfbf" stroke="black" points="0,-46 0,-65 162,-65 162,-46 0,-46"/>
<text text-anchor="middle" x="81" y="-53" font-family="Helvetica,sans-Serif" font-size="10.00">nars.storage.Memory.getConcept</text>
</g>
<!-- Node2 -->
<g id="node2" class="node"><title>Node2</title>
<g id="a_node2"><a xlink:href="../../d4/d22/classnars_1_1entity_1_1Concept_a3f3f026223e459e041fbdd8c0f49f7c6.html#a3f3f026223e459e041fbdd8c0f49f7c6" target="_top" xlink:title="Recursively build TermLinks between a compound and its components. ">
<polygon fill="none" stroke="black" points="198,-84.5 198,-114.5 323,-114.5 323,-84.5 198,-84.5"/>
<text text-anchor="start" x="206" y="-102.5" font-family="Helvetica,sans-Serif" font-size="10.00">nars.entity.Concept.build</text>
<text text-anchor="middle" x="260.5" y="-91.5" font-family="Helvetica,sans-Serif" font-size="10.00">TermLinks</text>
</a>
</g>
</g>
<!-- Node1&#45;&gt;Node2 -->
<g id="edge1" class="edge"><title>Node1&#45;&gt;Node2</title>
<path fill="none" stroke="midnightblue" d="M130.228,-67.455C151.343,-72.6892 176.355,-78.8893 198.725,-84.4346"/>
<polygon fill="midnightblue" stroke="midnightblue" points="131.063,-64.0563 120.515,-65.0473 129.379,-70.8507 131.063,-64.0563"/>
</g>
<!-- Node3 -->
<g id="node3" class="node"><title>Node3</title>
<g id="a_node3"><a xlink:href="../../d4/d22/classnars_1_1entity_1_1Concept_a501121a11fc046eea4b69720cb622d84.html#a501121a11fc046eea4b69720cb622d84" target="_top" xlink:title="Link to a new task from all relevant concepts for continued processing in the near future for unspeci...">
<polygon fill="none" stroke="black" points="359,-46.5 359,-76.5 479,-76.5 479,-46.5 359,-46.5"/>
<text text-anchor="start" x="367" y="-64.5" font-family="Helvetica,sans-Serif" font-size="10.00">nars.entity.Concept.link</text>
<text text-anchor="middle" x="419" y="-53.5" font-family="Helvetica,sans-Serif" font-size="10.00">ToTask</text>
</a>
</g>
</g>
<!-- Node1&#45;&gt;Node3 -->
<g id="edge16" class="edge"><title>Node1&#45;&gt;Node3</title>
<path fill="none" stroke="midnightblue" d="M172.155,-57.1099C231.365,-58.1672 307.136,-59.5203 358.808,-60.443"/>
<polygon fill="midnightblue" stroke="midnightblue" points="172.114,-53.6087 162.053,-56.9295 171.989,-60.6076 172.114,-53.6087"/>
</g>
<!-- Node5 -->
<g id="node5" class="node"><title>Node5</title>
<g id="a_node5"><a xlink:href="../../d8/df4/classnars_1_1storage_1_1Memory_a175200c1f4c182222d0e66439b6e53a0.html#a175200c1f4c182222d0e66439b6e53a0" target="_top" xlink:title="Immediate processing of a new task, in constant time Local processing, in one concept only...">
<polygon fill="none" stroke="black" points="680,-24.5 680,-54.5 837,-54.5 837,-24.5 680,-24.5"/>
<text text-anchor="start" x="688" y="-42.5" font-family="Helvetica,sans-Serif" font-size="10.00">nars.storage.Memory.immediate</text>
<text text-anchor="middle" x="758.5" y="-31.5" font-family="Helvetica,sans-Serif" font-size="10.00">Process</text>
</a>
</g>
</g>
<!-- Node1&#45;&gt;Node5 -->
<g id="edge15" class="edge"><title>Node1&#45;&gt;Node5</title>
<path fill="none" stroke="midnightblue" d="M172.479,-47.7236C226.56,-43.4673 296.657,-38.6356 359,-36.5 485.592,-32.1635 517.344,-34.8264 644,-36.5 655.629,-36.6537 667.926,-36.8958 679.966,-37.1776"/>
<polygon fill="midnightblue" stroke="midnightblue" points="171.92,-44.2569 162.229,-48.5384 172.475,-51.2349 171.92,-44.2569"/>
</g>
<!-- Node2&#45;&gt;Node2 -->
<g id="edge2" class="edge"><title>Node2&#45;&gt;Node2</title>
<path fill="none" stroke="midnightblue" d="M232.425,-124.958C235.91,-129.679 245.268,-133 260.5,-133 285.496,-133 294.674,-124.057 288.035,-114.659"/>
<polygon fill="midnightblue" stroke="midnightblue" points="235.937,-124.829 232.965,-114.659 228.946,-124.462 235.937,-124.829"/>
</g>
<!-- Node2&#45;&gt;Node3 -->
<g id="edge3" class="edge"><title>Node2&#45;&gt;Node3</title>
<path fill="none" stroke="midnightblue" d="M333.326,-82.0598C341.883,-79.9821 350.543,-77.8793 358.893,-75.8518"/>
<polygon fill="midnightblue" stroke="midnightblue" points="332.245,-78.7206 323.353,-84.4814 333.896,-85.5229 332.245,-78.7206"/>
</g>
<!-- Node4 -->
<g id="node4" class="node"><title>Node4</title>
<g id="a_node4"><a xlink:href="../../d4/d22/classnars_1_1entity_1_1Concept_a9ea7c3154932d7a736c105eb55daeb5c.html#a9ea7c3154932d7a736c105eb55daeb5c" target="_top" xlink:title="Directly process a new task. ">
<polygon fill="none" stroke="black" points="515,-46.5 515,-76.5 644,-76.5 644,-46.5 515,-46.5"/>
<text text-anchor="start" x="523" y="-64.5" font-family="Helvetica,sans-Serif" font-size="10.00">nars.entity.Concept.direct</text>
<text text-anchor="middle" x="579.5" y="-53.5" font-family="Helvetica,sans-Serif" font-size="10.00">Process</text>
</a>
</g>
</g>
<!-- Node3&#45;&gt;Node4 -->
<g id="edge4" class="edge"><title>Node3&#45;&gt;Node4</title>
<path fill="none" stroke="midnightblue" d="M489.021,-61.5C497.627,-61.5 506.396,-61.5 514.913,-61.5"/>
<polygon fill="midnightblue" stroke="midnightblue" points="489.02,-58.0001 479.02,-61.5 489.02,-65.0001 489.02,-58.0001"/>
</g>
<!-- Node4&#45;&gt;Node5 -->
<g id="edge5" class="edge"><title>Node4&#45;&gt;Node5</title>
<path fill="none" stroke="midnightblue" d="M654.492,-52.3033C662.854,-51.2639 671.393,-50.2025 679.801,-49.1575"/>
<polygon fill="midnightblue" stroke="midnightblue" points="653.893,-48.8507 644.401,-53.5575 654.756,-55.7972 653.893,-48.8507"/>
</g>
<!-- Node6 -->
<g id="node6" class="node"><title>Node6</title>
<g id="a_node6"><a xlink:href="../../d8/df4/classnars_1_1storage_1_1Memory_a105e44a3504921cc1036eb979b85d9f0.html#a105e44a3504921cc1036eb979b85d9f0" target="_top" xlink:title="Process the newTasks accumulated in the previous workCycle, accept input ones and those that correspo...">
<polygon fill="none" stroke="black" points="873,-49.5 873,-79.5 1019,-79.5 1019,-49.5 873,-49.5"/>
<text text-anchor="start" x="881" y="-67.5" font-family="Helvetica,sans-Serif" font-size="10.00">nars.storage.Memory.process</text>
<text text-anchor="middle" x="946" y="-56.5" font-family="Helvetica,sans-Serif" font-size="10.00">NewTask</text>
</a>
</g>
</g>
<!-- Node5&#45;&gt;Node6 -->
<g id="edge6" class="edge"><title>Node5&#45;&gt;Node6</title>
<path fill="none" stroke="midnightblue" d="M847.125,-51.3093C855.707,-52.466 864.349,-53.6306 872.754,-54.7633"/>
<polygon fill="midnightblue" stroke="midnightblue" points="847.472,-47.8245 837.094,-49.9574 846.537,-54.7618 847.472,-47.8245"/>
</g>
<!-- Node13 -->
<g id="node13" class="node"><title>Node13</title>
<g id="a_node13"><a xlink:href="../../d8/df4/classnars_1_1storage_1_1Memory_afe3b4d1bb5fab652ceca53c04773af73.html#afe3b4d1bb5fab652ceca53c04773af73" target="_top" xlink:title="Select a novel task to process. ">
<polygon fill="none" stroke="black" points="873,-0.5 873,-30.5 1019,-30.5 1019,-0.5 873,-0.5"/>
<text text-anchor="start" x="881" y="-18.5" font-family="Helvetica,sans-Serif" font-size="10.00">nars.storage.Memory.process</text>
<text text-anchor="middle" x="946" y="-7.5" font-family="Helvetica,sans-Serif" font-size="10.00">NovelTask</text>
</a>
</g>
</g>
<!-- Node5&#45;&gt;Node13 -->
<g id="edge13" class="edge"><title>Node5&#45;&gt;Node13</title>
<path fill="none" stroke="midnightblue" d="M847.125,-28.1631C855.707,-27.0527 864.349,-25.9346 872.754,-24.8472"/>
<polygon fill="midnightblue" stroke="midnightblue" points="846.562,-24.7066 837.094,-29.4609 847.46,-31.6488 846.562,-24.7066"/>
</g>
<!-- Node7 -->
<g id="node7" class="node"><title>Node7</title>
<g id="a_node7"><a xlink:href="../../d8/df4/classnars_1_1storage_1_1Memory_a49e2cbc8b78d535f4d69739886ee966a.html#a49e2cbc8b78d535f4d69739886ee966a" target="_top" xlink:title="An atomic working workCycle of the system: process new Tasks, then fire a concept. ">
<polygon fill="none" stroke="black" points="1055,-24.5 1055,-54.5 1188,-54.5 1188,-24.5 1055,-24.5"/>
<text text-anchor="start" x="1063" y="-42.5" font-family="Helvetica,sans-Serif" font-size="10.00">nars.storage.Memory.work</text>
<text text-anchor="middle" x="1121.5" y="-31.5" font-family="Helvetica,sans-Serif" font-size="10.00">Cycle</text>
</a>
</g>
</g>
<!-- Node6&#45;&gt;Node7 -->
<g id="edge7" class="edge"><title>Node6&#45;&gt;Node7</title>
<path fill="none" stroke="midnightblue" d="M1029.12,-52.6675C1037.72,-51.4286 1046.37,-50.1809 1054.76,-48.9733"/>
<polygon fill="midnightblue" stroke="midnightblue" points="1028.47,-49.2244 1019.07,-54.1149 1029.47,-56.1529 1028.47,-49.2244"/>
</g>
<!-- Node8 -->
<g id="node8" class="node"><title>Node8</title>
<g id="a_node8"><a xlink:href="../../dd/da5/classnars_1_1storage_1_1Memory_1_1ReasonerBatch_acc60dec23da774957a85362ed6d7448b.html#acc60dec23da774957a85362ed6d7448b" target="_top" xlink:title="nars.storage.Memory.Reasoner\lBatch.doTick">
<polygon fill="none" stroke="black" points="1224,-24.5 1224,-54.5 1378,-54.5 1378,-24.5 1224,-24.5"/>
<text text-anchor="start" x="1232" y="-42.5" font-family="Helvetica,sans-Serif" font-size="10.00">nars.storage.Memory.Reasoner</text>
<text text-anchor="middle" x="1301" y="-31.5" font-family="Helvetica,sans-Serif" font-size="10.00">Batch.doTick</text>
</a>
</g>
</g>
<!-- Node7&#45;&gt;Node8 -->
<g id="edge8" class="edge"><title>Node7&#45;&gt;Node8</title>
<path fill="none" stroke="midnightblue" d="M1198.32,-39.5C1206.79,-39.5 1215.41,-39.5 1223.89,-39.5"/>
<polygon fill="midnightblue" stroke="midnightblue" points="1198.09,-36.0001 1188.09,-39.5 1198.09,-43.0001 1198.09,-36.0001"/>
</g>
<!-- Node9 -->
<g id="node9" class="node"><title>Node9</title>
<g id="a_node9"><a xlink:href="../../dd/da5/classnars_1_1storage_1_1Memory_1_1ReasonerBatch_aed591f05899b98fd9e4ad01836ad0a40.html#aed591f05899b98fd9e4ad01836ad0a40" target="_top" xlink:title="A clock tick. ">
<polygon fill="none" stroke="black" points="1414,-24.5 1414,-54.5 1568,-54.5 1568,-24.5 1414,-24.5"/>
<text text-anchor="start" x="1422" y="-42.5" font-family="Helvetica,sans-Serif" font-size="10.00">nars.storage.Memory.Reasoner</text>
<text text-anchor="middle" x="1491" y="-31.5" font-family="Helvetica,sans-Serif" font-size="10.00">Batch.tick</text>
</a>
</g>
</g>
<!-- Node8&#45;&gt;Node9 -->
<g id="edge9" class="edge"><title>Node8&#45;&gt;Node9</title>
<path fill="none" stroke="midnightblue" d="M1388.42,-39.5C1396.86,-39.5 1405.37,-39.5 1413.7,-39.5"/>
<polygon fill="midnightblue" stroke="midnightblue" points="1388.2,-36.0001 1378.2,-39.5 1388.2,-43.0001 1388.2,-36.0001"/>
</g>
<!-- Node10 -->
<g id="node10" class="node"><title>Node10</title>
<g id="a_node10"><a xlink:href="../../d4/d88/classnars_1_1storage_1_1Memory_1_1NARSBatch_aad99db6cedde9cff2a997db8906ff821.html#aad99db6cedde9cff2a997db8906ff821" target="_top" xlink:title="Run to completion: repeatedly execute NARS working cycle, until Inputs are Finished, or 1000 steps. ">
<polygon fill="none" stroke="black" points="1604,-30 1604,-49 1786,-49 1786,-30 1604,-30"/>
<text text-anchor="middle" x="1695" y="-37" font-family="Helvetica,sans-Serif" font-size="10.00">nars.storage.Memory.NARSBatch.run</text>
</a>
</g>
</g>
<!-- Node9&#45;&gt;Node10 -->
<g id="edge10" class="edge"><title>Node9&#45;&gt;Node10</title>
<path fill="none" stroke="midnightblue" d="M1578.27,-39.5C1586.69,-39.5 1595.25,-39.5 1603.71,-39.5"/>
<polygon fill="midnightblue" stroke="midnightblue" points="1578.08,-36.0001 1568.08,-39.5 1578.08,-43.0001 1578.08,-36.0001"/>
</g>
<!-- Node11 -->
<g id="node11" class="node"><title>Node11</title>
<g id="a_node11"><a xlink:href="../../d4/d88/classnars_1_1storage_1_1Memory_1_1NARSBatch_a416c39463faa161661ed1d12fea03b3c.html#a416c39463faa161661ed1d12fea03b3c" target="_top" xlink:title="non&#45;static equivalent to main(String[]) : run to completion from an input file ">
<polygon fill="none" stroke="black" points="1822,-24.5 1822,-54.5 2004,-54.5 2004,-24.5 1822,-24.5"/>
<text text-anchor="start" x="1830" y="-42.5" font-family="Helvetica,sans-Serif" font-size="10.00">nars.storage.Memory.NARSBatch.run</text>
<text text-anchor="middle" x="1913" y="-31.5" font-family="Helvetica,sans-Serif" font-size="10.00">Inference</text>
</a>
</g>
</g>
<!-- Node10&#45;&gt;Node11 -->
<g id="edge11" class="edge"><title>Node10&#45;&gt;Node11</title>
<path fill="none" stroke="midnightblue" d="M1796.06,-39.5C1804.63,-39.5 1813.27,-39.5 1821.76,-39.5"/>
<polygon fill="midnightblue" stroke="midnightblue" points="1796.04,-36.0001 1786.04,-39.5 1796.04,-43.0001 1796.04,-36.0001"/>
</g>
<!-- Node12 -->
<g id="node12" class="node"><title>Node12</title>
<g id="a_node12"><a xlink:href="../../d4/d88/classnars_1_1storage_1_1Memory_1_1NARSBatch_aa97fcd68270583e60e6bf1b4579d1bdc.html#aa97fcd68270583e60e6bf1b4579d1bdc" target="_top" xlink:title="The entry point of the standalone application. ">
<polygon fill="none" stroke="black" points="2040,-30 2040,-49 2230,-49 2230,-30 2040,-30"/>
<text text-anchor="middle" x="2135" y="-37" font-family="Helvetica,sans-Serif" font-size="10.00">nars.storage.Memory.NARSBatch.main</text>
</a>
</g>
</g>
<!-- Node11&#45;&gt;Node12 -->
<g id="edge12" class="edge"><title>Node11&#45;&gt;Node12</title>
<path fill="none" stroke="midnightblue" d="M2014.37,-39.5C2022.82,-39.5 2031.34,-39.5 2039.74,-39.5"/>
<polygon fill="midnightblue" stroke="midnightblue" points="2014.12,-36.0001 2004.12,-39.5 2014.12,-43.0001 2014.12,-36.0001"/>
</g>
<!-- Node13&#45;&gt;Node7 -->
<g id="edge14" class="edge"><title>Node13&#45;&gt;Node7</title>
<path fill="none" stroke="midnightblue" d="M1029.12,-26.8592C1037.72,-28.0486 1046.37,-29.2464 1054.76,-30.4056"/>
<polygon fill="midnightblue" stroke="midnightblue" points="1029.46,-23.373 1019.07,-25.4697 1028.5,-30.307 1029.46,-23.373"/>
</g>
</g>
</svg>
