<?xml version="1.0" encoding="UTF-8" standalone="no"?>
<!DOCTYPE svg PUBLIC "-//W3C//DTD SVG 1.1//EN"
 "http://www.w3.org/Graphics/SVG/1.1/DTD/svg11.dtd">
<!-- Generated by graphviz version 2.38.0 (20140413.2041)
 -->
<!-- Title: nars.language.CompoundTerm Pages: 1 -->
<svg width="2346pt" height="1091pt"
 viewBox="0.00 0.00 2345.50 1091.00" xmlns="http://www.w3.org/2000/svg" xmlns:xlink="http://www.w3.org/1999/xlink">
<g id="graph0" class="graph" transform="scale(1 1) rotate(0) translate(4 1087)">
<title>nars.language.CompoundTerm</title>
<!-- Node1 -->
<g id="node1" class="node"><title>Node1</title>
<polygon fill="#bfbfbf" stroke="black" points="917,-375.5 917,-762.5 1067,-762.5 1067,-375.5 917,-375.5"/>
<text text-anchor="middle" x="992" y="-750.5" font-family="Helvetica,sans-Serif" font-size="10.00">nars.language.CompoundTerm</text>
<polyline fill="none" stroke="black" points="917,-743.5 1067,-743.5 "/>
<text text-anchor="start" x="925" y="-731.5" font-family="Helvetica,sans-Serif" font-size="10.00"># components</text>
<text text-anchor="start" x="925" y="-720.5" font-family="Helvetica,sans-Serif" font-size="10.00"># complexity</text>
<text text-anchor="start" x="925" y="-709.5" font-family="Helvetica,sans-Serif" font-size="10.00"># isConstant</text>
<polyline fill="none" stroke="black" points="917,-702.5 1067,-702.5 "/>
<text text-anchor="start" x="925" y="-690.5" font-family="Helvetica,sans-Serif" font-size="10.00">+ operator()</text>
<text text-anchor="start" x="925" y="-679.5" font-family="Helvetica,sans-Serif" font-size="10.00">+ clone()</text>
<text text-anchor="start" x="925" y="-668.5" font-family="Helvetica,sans-Serif" font-size="10.00">+ setName()</text>
<text text-anchor="start" x="925" y="-657.5" font-family="Helvetica,sans-Serif" font-size="10.00">+ getComplexity()</text>
<text text-anchor="start" x="925" y="-646.5" font-family="Helvetica,sans-Serif" font-size="10.00">+ isConstant()</text>
<text text-anchor="start" x="925" y="-635.5" font-family="Helvetica,sans-Serif" font-size="10.00">+ setConstant()</text>
<text text-anchor="start" x="925" y="-624.5" font-family="Helvetica,sans-Serif" font-size="10.00">+ isCommutative()</text>
<text text-anchor="start" x="925" y="-613.5" font-family="Helvetica,sans-Serif" font-size="10.00">+ size()</text>
<text text-anchor="start" x="925" y="-602.5" font-family="Helvetica,sans-Serif" font-size="10.00">+ componentAt()</text>
<text text-anchor="start" x="925" y="-591.5" font-family="Helvetica,sans-Serif" font-size="10.00">+ getComponents()</text>
<text text-anchor="start" x="925" y="-580.5" font-family="Helvetica,sans-Serif" font-size="10.00">and 9 more...</text>
<text text-anchor="start" x="925" y="-569.5" font-family="Helvetica,sans-Serif" font-size="10.00">+ make()</text>
<text text-anchor="start" x="925" y="-558.5" font-family="Helvetica,sans-Serif" font-size="10.00">+ make()</text>
<text text-anchor="start" x="925" y="-547.5" font-family="Helvetica,sans-Serif" font-size="10.00">+ isOperator()</text>
<text text-anchor="start" x="925" y="-536.5" font-family="Helvetica,sans-Serif" font-size="10.00">+ cloneList()</text>
<text text-anchor="start" x="925" y="-525.5" font-family="Helvetica,sans-Serif" font-size="10.00">+ addComponents()</text>
<text text-anchor="start" x="925" y="-514.5" font-family="Helvetica,sans-Serif" font-size="10.00">+ reduceComponents()</text>
<text text-anchor="start" x="925" y="-503.5" font-family="Helvetica,sans-Serif" font-size="10.00">+ setComponent()</text>
<text text-anchor="start" x="925" y="-492.5" font-family="Helvetica,sans-Serif" font-size="10.00"># CompoundTerm()</text>
<text text-anchor="start" x="925" y="-481.5" font-family="Helvetica,sans-Serif" font-size="10.00"># CompoundTerm()</text>
<text text-anchor="start" x="925" y="-470.5" font-family="Helvetica,sans-Serif" font-size="10.00"># CompoundTerm()</text>
<text text-anchor="start" x="925" y="-459.5" font-family="Helvetica,sans-Serif" font-size="10.00"># CompoundTerm()</text>
<text text-anchor="start" x="925" y="-448.5" font-family="Helvetica,sans-Serif" font-size="10.00"># makeName()</text>
<text text-anchor="start" x="925" y="-437.5" font-family="Helvetica,sans-Serif" font-size="10.00"># argumentsToList()</text>
<text text-anchor="start" x="925" y="-426.5" font-family="Helvetica,sans-Serif" font-size="10.00"># makeCompoundName()</text>
<text text-anchor="start" x="925" y="-415.5" font-family="Helvetica,sans-Serif" font-size="10.00"># makeSetName()</text>
<text text-anchor="start" x="925" y="-404.5" font-family="Helvetica,sans-Serif" font-size="10.00"># makeImageName()</text>
<text text-anchor="start" x="925" y="-393.5" font-family="Helvetica,sans-Serif" font-size="10.00">&#45; calcComplexity()</text>
<text text-anchor="start" x="925" y="-382.5" font-family="Helvetica,sans-Serif" font-size="10.00">&#45; prepareComponentLinks()</text>
</g>
<!-- Node6 -->
<g id="node6" class="node"><title>Node6</title>
<g id="a_node6"><a xlink:href="../../d6/d98/classnars_1_1language_1_1Conjunction.html" target="_top" xlink:title="Conjunction of statements. ">
<polygon fill="none" stroke="black" points="0,-177 0,-311 132,-311 132,-177 0,-177"/>
<text text-anchor="middle" x="66" y="-299" font-family="Helvetica,sans-Serif" font-size="10.00">nars.language.Conjunction</text>
<polyline fill="none" stroke="black" points="0,-292 132,-292 "/>
<text text-anchor="middle" x="66" y="-280" font-family="Helvetica,sans-Serif" font-size="10.00"> </text>
<polyline fill="none" stroke="black" points="0,-273 132,-273 "/>
<text text-anchor="start" x="8" y="-261" font-family="Helvetica,sans-Serif" font-size="10.00">+ clone()</text>
<text text-anchor="start" x="8" y="-250" font-family="Helvetica,sans-Serif" font-size="10.00">+ operator()</text>
<text text-anchor="start" x="8" y="-239" font-family="Helvetica,sans-Serif" font-size="10.00">+ isCommutative()</text>
<text text-anchor="start" x="8" y="-228" font-family="Helvetica,sans-Serif" font-size="10.00">+ make()</text>
<text text-anchor="start" x="8" y="-217" font-family="Helvetica,sans-Serif" font-size="10.00">+ make()</text>
<text text-anchor="start" x="8" y="-206" font-family="Helvetica,sans-Serif" font-size="10.00"># Conjunction()</text>
<text text-anchor="start" x="8" y="-195" font-family="Helvetica,sans-Serif" font-size="10.00">&#45; Conjunction()</text>
<text text-anchor="start" x="8" y="-184" font-family="Helvetica,sans-Serif" font-size="10.00">&#45; make()</text>
</a>
</g>
</g>
<!-- Node1&#45;&gt;Node6 -->
<g id="edge5" class="edge"><title>Node1&#45;&gt;Node6</title>
<path fill="none" stroke="midnightblue" d="M906.424,-562.523C744.476,-548.582 387.369,-500.452 141,-339 129.65,-331.562 119.228,-321.841 109.995,-311.476"/>
<polygon fill="none" stroke="midnightblue" points="906.548,-566.046 916.806,-563.393 907.133,-559.07 906.548,-566.046"/>
</g>
<!-- Node7 -->
<g id="node7" class="node"><title>Node7</title>
<g id="a_node7"><a xlink:href="../../d3/d12/classnars_1_1language_1_1DifferenceExt.html" target="_top" xlink:title="A compound term whose extension is the difference of the extensions of its components. ">
<polygon fill="none" stroke="black" points="150,-188 150,-300 290,-300 290,-188 150,-188"/>
<text text-anchor="middle" x="220" y="-288" font-family="Helvetica,sans-Serif" font-size="10.00">nars.language.DifferenceExt</text>
<polyline fill="none" stroke="black" points="150,-281 290,-281 "/>
<text text-anchor="middle" x="220" y="-269" font-family="Helvetica,sans-Serif" font-size="10.00"> </text>
<polyline fill="none" stroke="black" points="150,-262 290,-262 "/>
<text text-anchor="start" x="158" y="-250" font-family="Helvetica,sans-Serif" font-size="10.00">+ clone()</text>
<text text-anchor="start" x="158" y="-239" font-family="Helvetica,sans-Serif" font-size="10.00">+ operator()</text>
<text text-anchor="start" x="158" y="-228" font-family="Helvetica,sans-Serif" font-size="10.00">+ make()</text>
<text text-anchor="start" x="158" y="-217" font-family="Helvetica,sans-Serif" font-size="10.00">+ make()</text>
<text text-anchor="start" x="158" y="-206" font-family="Helvetica,sans-Serif" font-size="10.00">&#45; DifferenceExt()</text>
<text text-anchor="start" x="158" y="-195" font-family="Helvetica,sans-Serif" font-size="10.00">&#45; DifferenceExt()</text>
</a>
</g>
</g>
<!-- Node1&#45;&gt;Node7 -->
<g id="edge6" class="edge"><title>Node1&#45;&gt;Node7</title>
<path fill="none" stroke="midnightblue" d="M906.696,-555.315C768.901,-531.606 493.186,-470.576 299,-339 283.646,-328.597 269.604,-314.408 257.756,-300.208"/>
<polygon fill="none" stroke="midnightblue" points="906.334,-558.804 916.778,-557.025 907.505,-551.902 906.334,-558.804"/>
</g>
<!-- Node8 -->
<g id="node8" class="node"><title>Node8</title>
<g id="a_node8"><a xlink:href="../../d4/d5b/classnars_1_1language_1_1DifferenceInt.html" target="_top" xlink:title="A compound term whose extension is the difference of the intensions of its components. ">
<polygon fill="none" stroke="black" points="308.5,-188 308.5,-300 445.5,-300 445.5,-188 308.5,-188"/>
<text text-anchor="middle" x="377" y="-288" font-family="Helvetica,sans-Serif" font-size="10.00">nars.language.DifferenceInt</text>
<polyline fill="none" stroke="black" points="308.5,-281 445.5,-281 "/>
<text text-anchor="middle" x="377" y="-269" font-family="Helvetica,sans-Serif" font-size="10.00"> </text>
<polyline fill="none" stroke="black" points="308.5,-262 445.5,-262 "/>
<text text-anchor="start" x="316.5" y="-250" font-family="Helvetica,sans-Serif" font-size="10.00">+ clone()</text>
<text text-anchor="start" x="316.5" y="-239" font-family="Helvetica,sans-Serif" font-size="10.00">+ operator()</text>
<text text-anchor="start" x="316.5" y="-228" font-family="Helvetica,sans-Serif" font-size="10.00">+ make()</text>
<text text-anchor="start" x="316.5" y="-217" font-family="Helvetica,sans-Serif" font-size="10.00">+ make()</text>
<text text-anchor="start" x="316.5" y="-206" font-family="Helvetica,sans-Serif" font-size="10.00">&#45; DifferenceInt()</text>
<text text-anchor="start" x="316.5" y="-195" font-family="Helvetica,sans-Serif" font-size="10.00">&#45; DifferenceInt()</text>
</a>
</g>
</g>
<!-- Node1&#45;&gt;Node8 -->
<g id="edge7" class="edge"><title>Node1&#45;&gt;Node8</title>
<path fill="none" stroke="midnightblue" d="M906.661,-545.589C794.722,-513.245 595.9,-445.415 454,-339 439.654,-328.242 426.346,-314.265 414.968,-300.392"/>
<polygon fill="none" stroke="midnightblue" points="905.978,-549.034 916.555,-548.421 907.904,-542.304 905.978,-549.034"/>
</g>
<!-- Node9 -->
<g id="node9" class="node"><title>Node9</title>
<g id="a_node9"><a xlink:href="../../d9/d5d/classnars_1_1language_1_1Disjunction.html" target="_top" xlink:title="A disjunction of Statements. ">
<polygon fill="none" stroke="black" points="463.5,-177 463.5,-311 592.5,-311 592.5,-177 463.5,-177"/>
<text text-anchor="middle" x="528" y="-299" font-family="Helvetica,sans-Serif" font-size="10.00">nars.language.Disjunction</text>
<polyline fill="none" stroke="black" points="463.5,-292 592.5,-292 "/>
<text text-anchor="middle" x="528" y="-280" font-family="Helvetica,sans-Serif" font-size="10.00"> </text>
<polyline fill="none" stroke="black" points="463.5,-273 592.5,-273 "/>
<text text-anchor="start" x="471.5" y="-261" font-family="Helvetica,sans-Serif" font-size="10.00">+ clone()</text>
<text text-anchor="start" x="471.5" y="-250" font-family="Helvetica,sans-Serif" font-size="10.00">+ operator()</text>
<text text-anchor="start" x="471.5" y="-239" font-family="Helvetica,sans-Serif" font-size="10.00">+ isCommutative()</text>
<text text-anchor="start" x="471.5" y="-228" font-family="Helvetica,sans-Serif" font-size="10.00">+ make()</text>
<text text-anchor="start" x="471.5" y="-217" font-family="Helvetica,sans-Serif" font-size="10.00">+ make()</text>
<text text-anchor="start" x="471.5" y="-206" font-family="Helvetica,sans-Serif" font-size="10.00">+ make()</text>
<text text-anchor="start" x="471.5" y="-195" font-family="Helvetica,sans-Serif" font-size="10.00">&#45; Disjunction()</text>
<text text-anchor="start" x="471.5" y="-184" font-family="Helvetica,sans-Serif" font-size="10.00">&#45; Disjunction()</text>
</a>
</g>
</g>
<!-- Node1&#45;&gt;Node9 -->
<g id="edge8" class="edge"><title>Node1&#45;&gt;Node9</title>
<path fill="none" stroke="midnightblue" d="M907.787,-530.026C824.569,-489.985 696.378,-421.345 602,-339 592.453,-330.671 583.255,-320.974 574.78,-311.034"/>
<polygon fill="none" stroke="midnightblue" points="906.421,-533.252 916.952,-534.408 909.44,-526.937 906.421,-533.252"/>
</g>
<!-- Node10 -->
<g id="node10" class="node"><title>Node10</title>
<g id="a_node10"><a xlink:href="../../db/dbb/classnars_1_1language_1_1ImageExt.html" target="_top" xlink:title="An extension image. ">
<polygon fill="none" stroke="black" points="611,-155 611,-333 747,-333 747,-155 611,-155"/>
<text text-anchor="middle" x="679" y="-321" font-family="Helvetica,sans-Serif" font-size="10.00">nars.language.ImageExt</text>
<polyline fill="none" stroke="black" points="611,-314 747,-314 "/>
<text text-anchor="start" x="619" y="-302" font-family="Helvetica,sans-Serif" font-size="10.00">&#45; relationIndex</text>
<polyline fill="none" stroke="black" points="611,-295 747,-295 "/>
<text text-anchor="start" x="619" y="-283" font-family="Helvetica,sans-Serif" font-size="10.00">+ clone()</text>
<text text-anchor="start" x="619" y="-272" font-family="Helvetica,sans-Serif" font-size="10.00">+ getRelationIndex()</text>
<text text-anchor="start" x="619" y="-261" font-family="Helvetica,sans-Serif" font-size="10.00">+ getRelation()</text>
<text text-anchor="start" x="619" y="-250" font-family="Helvetica,sans-Serif" font-size="10.00">+ getTheOtherComponent()</text>
<text text-anchor="start" x="619" y="-239" font-family="Helvetica,sans-Serif" font-size="10.00">+ makeName()</text>
<text text-anchor="start" x="619" y="-228" font-family="Helvetica,sans-Serif" font-size="10.00">+ operator()</text>
<text text-anchor="start" x="619" y="-217" font-family="Helvetica,sans-Serif" font-size="10.00">+ make()</text>
<text text-anchor="start" x="619" y="-206" font-family="Helvetica,sans-Serif" font-size="10.00">+ make()</text>
<text text-anchor="start" x="619" y="-195" font-family="Helvetica,sans-Serif" font-size="10.00">+ make()</text>
<text text-anchor="start" x="619" y="-184" font-family="Helvetica,sans-Serif" font-size="10.00">+ make()</text>
<text text-anchor="start" x="619" y="-173" font-family="Helvetica,sans-Serif" font-size="10.00">&#45; ImageExt()</text>
<text text-anchor="start" x="619" y="-162" font-family="Helvetica,sans-Serif" font-size="10.00">&#45; ImageExt()</text>
</a>
</g>
</g>
<!-- Node1&#45;&gt;Node10 -->
<g id="edge9" class="edge"><title>Node1&#45;&gt;Node10</title>
<path fill="none" stroke="midnightblue" d="M909.429,-492.286C863.06,-448.691 804.87,-392.16 756,-339 753.145,-335.894 750.265,-332.699 747.383,-329.449"/>
<polygon fill="none" stroke="midnightblue" points="907.079,-494.88 916.767,-499.169 911.868,-489.774 907.079,-494.88"/>
</g>
<!-- Node11 -->
<g id="node11" class="node"><title>Node11</title>
<g id="a_node11"><a xlink:href="../../df/de3/classnars_1_1language_1_1ImageInt.html" target="_top" xlink:title="An intension image. ">
<polygon fill="none" stroke="black" points="765,-155 765,-333 901,-333 901,-155 765,-155"/>
<text text-anchor="middle" x="833" y="-321" font-family="Helvetica,sans-Serif" font-size="10.00">nars.language.ImageInt</text>
<polyline fill="none" stroke="black" points="765,-314 901,-314 "/>
<text text-anchor="start" x="773" y="-302" font-family="Helvetica,sans-Serif" font-size="10.00">&#45; relationIndex</text>
<polyline fill="none" stroke="black" points="765,-295 901,-295 "/>
<text text-anchor="start" x="773" y="-283" font-family="Helvetica,sans-Serif" font-size="10.00">+ clone()</text>
<text text-anchor="start" x="773" y="-272" font-family="Helvetica,sans-Serif" font-size="10.00">+ getRelationIndex()</text>
<text text-anchor="start" x="773" y="-261" font-family="Helvetica,sans-Serif" font-size="10.00">+ getRelation()</text>
<text text-anchor="start" x="773" y="-250" font-family="Helvetica,sans-Serif" font-size="10.00">+ getTheOtherComponent()</text>
<text text-anchor="start" x="773" y="-239" font-family="Helvetica,sans-Serif" font-size="10.00">+ makeName()</text>
<text text-anchor="start" x="773" y="-228" font-family="Helvetica,sans-Serif" font-size="10.00">+ operator()</text>
<text text-anchor="start" x="773" y="-217" font-family="Helvetica,sans-Serif" font-size="10.00">+ make()</text>
<text text-anchor="start" x="773" y="-206" font-family="Helvetica,sans-Serif" font-size="10.00">+ make()</text>
<text text-anchor="start" x="773" y="-195" font-family="Helvetica,sans-Serif" font-size="10.00">+ make()</text>
<text text-anchor="start" x="773" y="-184" font-family="Helvetica,sans-Serif" font-size="10.00">+ make()</text>
<text text-anchor="start" x="773" y="-173" font-family="Helvetica,sans-Serif" font-size="10.00">&#45; ImageInt()</text>
<text text-anchor="start" x="773" y="-162" font-family="Helvetica,sans-Serif" font-size="10.00">&#45; ImageInt()</text>
</a>
</g>
</g>
<!-- Node1&#45;&gt;Node11 -->
<g id="edge10" class="edge"><title>Node1&#45;&gt;Node11</title>
<path fill="none" stroke="midnightblue" d="M912.355,-406.205C899.949,-381.003 887.547,-355.81 876.359,-333.082"/>
<polygon fill="none" stroke="midnightblue" points="909.367,-408.06 916.923,-415.486 915.647,-404.968 909.367,-408.06"/>
</g>
<!-- Node12 -->
<g id="node12" class="node"><title>Node12</title>
<g id="a_node12"><a xlink:href="../../d2/d68/classnars_1_1language_1_1IntersectionExt.html" target="_top" xlink:title="A compound term whose extension is the intersection of the extensions of its components. ">
<polygon fill="none" stroke="black" points="919,-177 919,-311 1065,-311 1065,-177 919,-177"/>
<text text-anchor="middle" x="992" y="-299" font-family="Helvetica,sans-Serif" font-size="10.00">nars.language.IntersectionExt</text>
<polyline fill="none" stroke="black" points="919,-292 1065,-292 "/>
<text text-anchor="middle" x="992" y="-280" font-family="Helvetica,sans-Serif" font-size="10.00"> </text>
<polyline fill="none" stroke="black" points="919,-273 1065,-273 "/>
<text text-anchor="start" x="927" y="-261" font-family="Helvetica,sans-Serif" font-size="10.00">+ clone()</text>
<text text-anchor="start" x="927" y="-250" font-family="Helvetica,sans-Serif" font-size="10.00">+ operator()</text>
<text text-anchor="start" x="927" y="-239" font-family="Helvetica,sans-Serif" font-size="10.00">+ isCommutative()</text>
<text text-anchor="start" x="927" y="-228" font-family="Helvetica,sans-Serif" font-size="10.00">+ make()</text>
<text text-anchor="start" x="927" y="-217" font-family="Helvetica,sans-Serif" font-size="10.00">+ make()</text>
<text text-anchor="start" x="927" y="-206" font-family="Helvetica,sans-Serif" font-size="10.00">+ make()</text>
<text text-anchor="start" x="927" y="-195" font-family="Helvetica,sans-Serif" font-size="10.00">&#45; IntersectionExt()</text>
<text text-anchor="start" x="927" y="-184" font-family="Helvetica,sans-Serif" font-size="10.00">&#45; IntersectionExt()</text>
</a>
</g>
</g>
<!-- Node1&#45;&gt;Node12 -->
<g id="edge11" class="edge"><title>Node1&#45;&gt;Node12</title>
<path fill="none" stroke="midnightblue" d="M992,-365.282C992,-345.981 992,-327.521 992,-311.11"/>
<polygon fill="none" stroke="midnightblue" points="988.5,-365.445 992,-375.445 995.5,-365.445 988.5,-365.445"/>
</g>
<!-- Node13 -->
<g id="node13" class="node"><title>Node13</title>
<g id="a_node13"><a xlink:href="../../d9/df4/classnars_1_1language_1_1IntersectionInt.html" target="_top" xlink:title="A compound term whose intension is the intersection of the extensions of its components. ">
<polygon fill="none" stroke="black" points="1083.5,-177 1083.5,-311 1226.5,-311 1226.5,-177 1083.5,-177"/>
<text text-anchor="middle" x="1155" y="-299" font-family="Helvetica,sans-Serif" font-size="10.00">nars.language.IntersectionInt</text>
<polyline fill="none" stroke="black" points="1083.5,-292 1226.5,-292 "/>
<text text-anchor="middle" x="1155" y="-280" font-family="Helvetica,sans-Serif" font-size="10.00"> </text>
<polyline fill="none" stroke="black" points="1083.5,-273 1226.5,-273 "/>
<text text-anchor="start" x="1091.5" y="-261" font-family="Helvetica,sans-Serif" font-size="10.00">+ clone()</text>
<text text-anchor="start" x="1091.5" y="-250" font-family="Helvetica,sans-Serif" font-size="10.00">+ operator()</text>
<text text-anchor="start" x="1091.5" y="-239" font-family="Helvetica,sans-Serif" font-size="10.00">+ isCommutative()</text>
<text text-anchor="start" x="1091.5" y="-228" font-family="Helvetica,sans-Serif" font-size="10.00">+ make()</text>
<text text-anchor="start" x="1091.5" y="-217" font-family="Helvetica,sans-Serif" font-size="10.00">+ make()</text>
<text text-anchor="start" x="1091.5" y="-206" font-family="Helvetica,sans-Serif" font-size="10.00">+ make()</text>
<text text-anchor="start" x="1091.5" y="-195" font-family="Helvetica,sans-Serif" font-size="10.00">&#45; IntersectionInt()</text>
<text text-anchor="start" x="1091.5" y="-184" font-family="Helvetica,sans-Serif" font-size="10.00">&#45; IntersectionInt()</text>
</a>
</g>
</g>
<!-- Node1&#45;&gt;Node13 -->
<g id="edge12" class="edge"><title>Node1&#45;&gt;Node13</title>
<path fill="none" stroke="midnightblue" d="M1071.78,-409.918C1089.38,-375.022 1107.1,-339.914 1121.64,-311.114"/>
<polygon fill="none" stroke="midnightblue" points="1068.44,-408.759 1067.06,-419.263 1074.69,-411.912 1068.44,-408.759"/>
</g>
<!-- Node14 -->
<g id="node14" class="node"><title>Node14</title>
<g id="a_node14"><a xlink:href="../../da/d1e/classnars_1_1language_1_1Negation.html" target="_top" xlink:title="A negation of a Statement. ">
<polygon fill="none" stroke="black" points="1244.5,-188 1244.5,-300 1363.5,-300 1363.5,-188 1244.5,-188"/>
<text text-anchor="middle" x="1304" y="-288" font-family="Helvetica,sans-Serif" font-size="10.00">nars.language.Negation</text>
<polyline fill="none" stroke="black" points="1244.5,-281 1363.5,-281 "/>
<text text-anchor="middle" x="1304" y="-269" font-family="Helvetica,sans-Serif" font-size="10.00"> </text>
<polyline fill="none" stroke="black" points="1244.5,-262 1363.5,-262 "/>
<text text-anchor="start" x="1252.5" y="-250" font-family="Helvetica,sans-Serif" font-size="10.00">+ clone()</text>
<text text-anchor="start" x="1252.5" y="-239" font-family="Helvetica,sans-Serif" font-size="10.00">+ operator()</text>
<text text-anchor="start" x="1252.5" y="-228" font-family="Helvetica,sans-Serif" font-size="10.00">+ make()</text>
<text text-anchor="start" x="1252.5" y="-217" font-family="Helvetica,sans-Serif" font-size="10.00">+ make()</text>
<text text-anchor="start" x="1252.5" y="-206" font-family="Helvetica,sans-Serif" font-size="10.00">&#45; Negation()</text>
<text text-anchor="start" x="1252.5" y="-195" font-family="Helvetica,sans-Serif" font-size="10.00">&#45; Negation()</text>
</a>
</g>
</g>
<!-- Node1&#45;&gt;Node14 -->
<g id="edge13" class="edge"><title>Node1&#45;&gt;Node14</title>
<path fill="none" stroke="midnightblue" d="M1074.86,-496.774C1123.6,-453.235 1185.24,-395.263 1235,-339 1245.6,-327.02 1256.22,-313.482 1265.85,-300.489"/>
<polygon fill="none" stroke="midnightblue" points="1072.29,-494.372 1067.15,-503.635 1076.94,-499.601 1072.29,-494.372"/>
</g>
<!-- Node15 -->
<g id="node15" class="node"><title>Node15</title>
<g id="a_node15"><a xlink:href="../../d8/d73/classnars_1_1language_1_1Product.html" target="_top" xlink:title="A Product is a sequence of terms. ">
<polygon fill="none" stroke="black" points="1382,-188 1382,-300 1496,-300 1496,-188 1382,-188"/>
<text text-anchor="middle" x="1439" y="-288" font-family="Helvetica,sans-Serif" font-size="10.00">nars.language.Product</text>
<polyline fill="none" stroke="black" points="1382,-281 1496,-281 "/>
<text text-anchor="middle" x="1439" y="-269" font-family="Helvetica,sans-Serif" font-size="10.00"> </text>
<polyline fill="none" stroke="black" points="1382,-262 1496,-262 "/>
<text text-anchor="start" x="1390" y="-250" font-family="Helvetica,sans-Serif" font-size="10.00">+ clone()</text>
<text text-anchor="start" x="1390" y="-239" font-family="Helvetica,sans-Serif" font-size="10.00">+ operator()</text>
<text text-anchor="start" x="1390" y="-228" font-family="Helvetica,sans-Serif" font-size="10.00">+ make()</text>
<text text-anchor="start" x="1390" y="-217" font-family="Helvetica,sans-Serif" font-size="10.00">+ make()</text>
<text text-anchor="start" x="1390" y="-206" font-family="Helvetica,sans-Serif" font-size="10.00">&#45; Product()</text>
<text text-anchor="start" x="1390" y="-195" font-family="Helvetica,sans-Serif" font-size="10.00">&#45; Product()</text>
</a>
</g>
</g>
<!-- Node1&#45;&gt;Node15 -->
<g id="edge14" class="edge"><title>Node1&#45;&gt;Node15</title>
<path fill="none" stroke="midnightblue" d="M1076.55,-529.666C1158.26,-489.875 1282.48,-421.891 1372,-339 1384.21,-327.699 1395.54,-313.845 1405.28,-300.281"/>
<polygon fill="none" stroke="midnightblue" points="1074.78,-526.636 1067.3,-534.141 1077.83,-532.938 1074.78,-526.636"/>
</g>
<!-- Node16 -->
<g id="node16" class="node"><title>Node16</title>
<g id="a_node16"><a xlink:href="../../de/d1d/classnars_1_1language_1_1SetExt.html" target="_top" xlink:title="An extensionally defined set, which contains one or more instances. ">
<polygon fill="none" stroke="black" points="1514,-171.5 1514,-316.5 1624,-316.5 1624,-171.5 1514,-171.5"/>
<text text-anchor="middle" x="1569" y="-304.5" font-family="Helvetica,sans-Serif" font-size="10.00">nars.language.SetExt</text>
<polyline fill="none" stroke="black" points="1514,-297.5 1624,-297.5 "/>
<text text-anchor="middle" x="1569" y="-285.5" font-family="Helvetica,sans-Serif" font-size="10.00"> </text>
<polyline fill="none" stroke="black" points="1514,-278.5 1624,-278.5 "/>
<text text-anchor="start" x="1522" y="-266.5" font-family="Helvetica,sans-Serif" font-size="10.00">+ clone()</text>
<text text-anchor="start" x="1522" y="-255.5" font-family="Helvetica,sans-Serif" font-size="10.00">+ operator()</text>
<text text-anchor="start" x="1522" y="-244.5" font-family="Helvetica,sans-Serif" font-size="10.00">+ isCommutative()</text>
<text text-anchor="start" x="1522" y="-233.5" font-family="Helvetica,sans-Serif" font-size="10.00">+ makeName()</text>
<text text-anchor="start" x="1522" y="-222.5" font-family="Helvetica,sans-Serif" font-size="10.00">+ make()</text>
<text text-anchor="start" x="1522" y="-211.5" font-family="Helvetica,sans-Serif" font-size="10.00">+ make()</text>
<text text-anchor="start" x="1522" y="-200.5" font-family="Helvetica,sans-Serif" font-size="10.00">+ make()</text>
<text text-anchor="start" x="1522" y="-189.5" font-family="Helvetica,sans-Serif" font-size="10.00">&#45; SetExt()</text>
<text text-anchor="start" x="1522" y="-178.5" font-family="Helvetica,sans-Serif" font-size="10.00">&#45; SetExt()</text>
</a>
</g>
</g>
<!-- Node1&#45;&gt;Node16 -->
<g id="edge15" class="edge"><title>Node1&#45;&gt;Node16</title>
<path fill="none" stroke="midnightblue" d="M1077.02,-545.809C1185.67,-514.162 1375.18,-447.562 1505,-339 1512.72,-332.541 1519.91,-324.925 1526.47,-316.869"/>
<polygon fill="none" stroke="midnightblue" points="1076.05,-542.447 1067.41,-548.579 1077.99,-549.173 1076.05,-542.447"/>
</g>
<!-- Node17 -->
<g id="node17" class="node"><title>Node17</title>
<g id="a_node17"><a xlink:href="../../d2/dfc/classnars_1_1language_1_1SetInt.html" target="_top" xlink:title="An intensionally defined set, which contains one or more instances defining the Term. ">
<polygon fill="none" stroke="black" points="1642.5,-171.5 1642.5,-316.5 1749.5,-316.5 1749.5,-171.5 1642.5,-171.5"/>
<text text-anchor="middle" x="1696" y="-304.5" font-family="Helvetica,sans-Serif" font-size="10.00">nars.language.SetInt</text>
<polyline fill="none" stroke="black" points="1642.5,-297.5 1749.5,-297.5 "/>
<text text-anchor="middle" x="1696" y="-285.5" font-family="Helvetica,sans-Serif" font-size="10.00"> </text>
<polyline fill="none" stroke="black" points="1642.5,-278.5 1749.5,-278.5 "/>
<text text-anchor="start" x="1650.5" y="-266.5" font-family="Helvetica,sans-Serif" font-size="10.00">+ clone()</text>
<text text-anchor="start" x="1650.5" y="-255.5" font-family="Helvetica,sans-Serif" font-size="10.00">+ operator()</text>
<text text-anchor="start" x="1650.5" y="-244.5" font-family="Helvetica,sans-Serif" font-size="10.00">+ isCommutative()</text>
<text text-anchor="start" x="1650.5" y="-233.5" font-family="Helvetica,sans-Serif" font-size="10.00">+ makeName()</text>
<text text-anchor="start" x="1650.5" y="-222.5" font-family="Helvetica,sans-Serif" font-size="10.00">+ make()</text>
<text text-anchor="start" x="1650.5" y="-211.5" font-family="Helvetica,sans-Serif" font-size="10.00">+ make()</text>
<text text-anchor="start" x="1650.5" y="-200.5" font-family="Helvetica,sans-Serif" font-size="10.00">+ make()</text>
<text text-anchor="start" x="1650.5" y="-189.5" font-family="Helvetica,sans-Serif" font-size="10.00">&#45; SetInt()</text>
<text text-anchor="start" x="1650.5" y="-178.5" font-family="Helvetica,sans-Serif" font-size="10.00">&#45; SetInt()</text>
</a>
</g>
</g>
<!-- Node1&#45;&gt;Node17 -->
<g id="edge16" class="edge"><title>Node1&#45;&gt;Node17</title>
<path fill="none" stroke="midnightblue" d="M1077.06,-555.167C1208.19,-531.795 1462.4,-471.874 1633,-339 1641.21,-332.602 1648.73,-324.824 1655.48,-316.512"/>
<polygon fill="none" stroke="midnightblue" points="1076.31,-551.745 1067.06,-556.92 1077.52,-558.64 1076.31,-551.745"/>
</g>
<!-- Node18 -->
<g id="node18" class="node"><title>Node18</title>
<g id="a_node18"><a xlink:href="../../d1/d5e/classnars_1_1language_1_1Statement.html" target="_top" xlink:title="A statement is a compound term, consisting of a subject, a predicate, and a relation symbol in betwee...">
<polygon fill="none" stroke="black" points="1768,-149.5 1768,-338.5 1894,-338.5 1894,-149.5 1768,-149.5"/>
<text text-anchor="middle" x="1831" y="-326.5" font-family="Helvetica,sans-Serif" font-size="10.00">nars.language.Statement</text>
<polyline fill="none" stroke="black" points="1768,-319.5 1894,-319.5 "/>
<text text-anchor="middle" x="1831" y="-307.5" font-family="Helvetica,sans-Serif" font-size="10.00"> </text>
<polyline fill="none" stroke="black" points="1768,-300.5 1894,-300.5 "/>
<text text-anchor="start" x="1776" y="-288.5" font-family="Helvetica,sans-Serif" font-size="10.00">+ invalid()</text>
<text text-anchor="start" x="1776" y="-277.5" font-family="Helvetica,sans-Serif" font-size="10.00">+ getSubject()</text>
<text text-anchor="start" x="1776" y="-266.5" font-family="Helvetica,sans-Serif" font-size="10.00">+ getPredicate()</text>
<text text-anchor="start" x="1776" y="-255.5" font-family="Helvetica,sans-Serif" font-size="10.00">+ make()</text>
<text text-anchor="start" x="1776" y="-244.5" font-family="Helvetica,sans-Serif" font-size="10.00">+ make()</text>
<text text-anchor="start" x="1776" y="-233.5" font-family="Helvetica,sans-Serif" font-size="10.00">+ makeSym()</text>
<text text-anchor="start" x="1776" y="-222.5" font-family="Helvetica,sans-Serif" font-size="10.00">+ isRelation()</text>
<text text-anchor="start" x="1776" y="-211.5" font-family="Helvetica,sans-Serif" font-size="10.00">+ invalidStatement()</text>
<text text-anchor="start" x="1776" y="-200.5" font-family="Helvetica,sans-Serif" font-size="10.00"># Statement()</text>
<text text-anchor="start" x="1776" y="-189.5" font-family="Helvetica,sans-Serif" font-size="10.00"># Statement()</text>
<text text-anchor="start" x="1776" y="-178.5" font-family="Helvetica,sans-Serif" font-size="10.00"># Statement()</text>
<text text-anchor="start" x="1776" y="-167.5" font-family="Helvetica,sans-Serif" font-size="10.00"># makeName()</text>
<text text-anchor="start" x="1776" y="-156.5" font-family="Helvetica,sans-Serif" font-size="10.00"># makeStatementName()</text>
</a>
</g>
</g>
<!-- Node1&#45;&gt;Node18 -->
<g id="edge17" class="edge"><title>Node1&#45;&gt;Node18</title>
<path fill="none" stroke="midnightblue" d="M1077.1,-559.658C1226.68,-541.497 1541.38,-487.353 1758,-339 1761.41,-336.665 1764.73,-334.121 1767.96,-331.415"/>
<polygon fill="none" stroke="midnightblue" points="1076.57,-556.196 1067.05,-560.854 1077.4,-563.147 1076.57,-556.196"/>
</g>
<!-- Node2 -->
<g id="node2" class="node"><title>Node2</title>
<g id="a_node2"><a xlink:href="../../d8/db8/classnars_1_1language_1_1Term.html" target="_top" xlink:title="Term is the basic component of Narsese, and the object of processing in NARS. ">
<polygon fill="none" stroke="black" points="940,-799.5 940,-988.5 1044,-988.5 1044,-799.5 940,-799.5"/>
<text text-anchor="middle" x="992" y="-976.5" font-family="Helvetica,sans-Serif" font-size="10.00">nars.language.Term</text>
<polyline fill="none" stroke="black" points="940,-969.5 1044,-969.5 "/>
<text text-anchor="start" x="948" y="-957.5" font-family="Helvetica,sans-Serif" font-size="10.00"># name</text>
<polyline fill="none" stroke="black" points="940,-950.5 1044,-950.5 "/>
<text text-anchor="start" x="948" y="-938.5" font-family="Helvetica,sans-Serif" font-size="10.00">+ Term()</text>
<text text-anchor="start" x="948" y="-927.5" font-family="Helvetica,sans-Serif" font-size="10.00">+ getName()</text>
<text text-anchor="start" x="948" y="-916.5" font-family="Helvetica,sans-Serif" font-size="10.00">+ setName()</text>
<text text-anchor="start" x="948" y="-905.5" font-family="Helvetica,sans-Serif" font-size="10.00">+ clone()</text>
<text text-anchor="start" x="948" y="-894.5" font-family="Helvetica,sans-Serif" font-size="10.00">+ equals()</text>
<text text-anchor="start" x="948" y="-883.5" font-family="Helvetica,sans-Serif" font-size="10.00">+ hashCode()</text>
<text text-anchor="start" x="948" y="-872.5" font-family="Helvetica,sans-Serif" font-size="10.00">+ isConstant()</text>
<text text-anchor="start" x="948" y="-861.5" font-family="Helvetica,sans-Serif" font-size="10.00">+ renameVariables()</text>
<text text-anchor="start" x="948" y="-850.5" font-family="Helvetica,sans-Serif" font-size="10.00">+ getComplexity()</text>
<text text-anchor="start" x="948" y="-839.5" font-family="Helvetica,sans-Serif" font-size="10.00">+ compareTo()</text>
<text text-anchor="start" x="948" y="-828.5" font-family="Helvetica,sans-Serif" font-size="10.00">+ containTerm()</text>
<text text-anchor="start" x="948" y="-817.5" font-family="Helvetica,sans-Serif" font-size="10.00">+ toString()</text>
<text text-anchor="start" x="948" y="-806.5" font-family="Helvetica,sans-Serif" font-size="10.00"># Term()</text>
</a>
</g>
</g>
<!-- Node2&#45;&gt;Node1 -->
<g id="edge1" class="edge"><title>Node2&#45;&gt;Node1</title>
<path fill="none" stroke="midnightblue" d="M992,-789.109C992,-780.458 992,-771.553 992,-762.514"/>
<polygon fill="none" stroke="midnightblue" points="988.5,-789.141 992,-799.141 995.5,-789.141 988.5,-789.141"/>
</g>
<!-- Node3 -->
<g id="node3" class="node"><title>Node3</title>
<polygon fill="none" stroke="#bfbfbf" points="859,-1025.5 859,-1082.5 919,-1082.5 919,-1025.5 859,-1025.5"/>
<text text-anchor="middle" x="889" y="-1070.5" font-family="Helvetica,sans-Serif" font-size="10.00">Cloneable</text>
<polyline fill="none" stroke="#bfbfbf" points="859,-1063.5 919,-1063.5 "/>
<text text-anchor="middle" x="889" y="-1051.5" font-family="Helvetica,sans-Serif" font-size="10.00"> </text>
<polyline fill="none" stroke="#bfbfbf" points="859,-1044.5 919,-1044.5 "/>
<text text-anchor="middle" x="889" y="-1032.5" font-family="Helvetica,sans-Serif" font-size="10.00"> </text>
</g>
<!-- Node3&#45;&gt;Node2 -->
<g id="edge2" class="edge"><title>Node3&#45;&gt;Node2</title>
<path fill="none" stroke="midnightblue" d="M912.416,-1017.08C920.667,-1004.42 930.305,-989.639 939.967,-974.817"/>
<polygon fill="none" stroke="midnightblue" points="909.47,-1015.19 906.941,-1025.48 915.334,-1019.01 909.47,-1015.19"/>
</g>
<!-- Node4 -->
<g id="node4" class="node"><title>Node4</title>
<polygon fill="none" stroke="#bfbfbf" points="937,-1025.5 937,-1082.5 1047,-1082.5 1047,-1025.5 937,-1025.5"/>
<text text-anchor="middle" x="992" y="-1070.5" font-family="Helvetica,sans-Serif" font-size="10.00">Comparable&lt; Term &gt;</text>
<polyline fill="none" stroke="#bfbfbf" points="937,-1063.5 1047,-1063.5 "/>
<text text-anchor="middle" x="992" y="-1051.5" font-family="Helvetica,sans-Serif" font-size="10.00"> </text>
<polyline fill="none" stroke="#bfbfbf" points="937,-1044.5 1047,-1044.5 "/>
<text text-anchor="middle" x="992" y="-1032.5" font-family="Helvetica,sans-Serif" font-size="10.00"> </text>
</g>
<!-- Node4&#45;&gt;Node2 -->
<g id="edge3" class="edge"><title>Node4&#45;&gt;Node2</title>
<path fill="none" stroke="midnightblue" d="M992,-1015.22C992,-1007.01 992,-997.986 992,-988.678"/>
<polygon fill="none" stroke="midnightblue" points="988.5,-1015.48 992,-1025.48 995.5,-1015.48 988.5,-1015.48"/>
</g>
<!-- Node5 -->
<g id="node5" class="node"><title>Node5</title>
<polygon fill="none" stroke="#bfbfbf" points="1065.5,-1025.5 1065.5,-1082.5 1130.5,-1082.5 1130.5,-1025.5 1065.5,-1025.5"/>
<text text-anchor="middle" x="1098" y="-1070.5" font-family="Helvetica,sans-Serif" font-size="10.00">TermStruct</text>
<polyline fill="none" stroke="#bfbfbf" points="1065.5,-1063.5 1130.5,-1063.5 "/>
<text text-anchor="middle" x="1098" y="-1051.5" font-family="Helvetica,sans-Serif" font-size="10.00"> </text>
<polyline fill="none" stroke="#bfbfbf" points="1065.5,-1044.5 1130.5,-1044.5 "/>
<text text-anchor="middle" x="1098" y="-1032.5" font-family="Helvetica,sans-Serif" font-size="10.00"> </text>
</g>
<!-- Node5&#45;&gt;Node2 -->
<g id="edge4" class="edge"><title>Node5&#45;&gt;Node2</title>
<path fill="none" stroke="midnightblue" d="M1073.94,-1017.13C1065.05,-1003.88 1054.59,-988.299 1044.18,-972.778"/>
<polygon fill="none" stroke="midnightblue" points="1071.06,-1019.12 1079.54,-1025.48 1076.87,-1015.22 1071.06,-1019.12"/>
</g>
<!-- Node19 -->
<g id="node19" class="node"><title>Node19</title>
<g id="a_node19"><a xlink:href="../../d1/d8b/classnars_1_1language_1_1Equivalence.html" target="_top" xlink:title="A Statement about an Equivalence relation. ">
<polygon fill="none" stroke="black" points="1328,-0.5 1328,-112.5 1462,-112.5 1462,-0.5 1328,-0.5"/>
<text text-anchor="middle" x="1395" y="-100.5" font-family="Helvetica,sans-Serif" font-size="10.00">nars.language.Equivalence</text>
<polyline fill="none" stroke="black" points="1328,-93.5 1462,-93.5 "/>
<text text-anchor="middle" x="1395" y="-81.5" font-family="Helvetica,sans-Serif" font-size="10.00"> </text>
<polyline fill="none" stroke="black" points="1328,-74.5 1462,-74.5 "/>
<text text-anchor="start" x="1336" y="-62.5" font-family="Helvetica,sans-Serif" font-size="10.00">+ clone()</text>
<text text-anchor="start" x="1336" y="-51.5" font-family="Helvetica,sans-Serif" font-size="10.00">+ operator()</text>
<text text-anchor="start" x="1336" y="-40.5" font-family="Helvetica,sans-Serif" font-size="10.00">+ isCommutative()</text>
<text text-anchor="start" x="1336" y="-29.5" font-family="Helvetica,sans-Serif" font-size="10.00">+ make()</text>
<text text-anchor="start" x="1336" y="-18.5" font-family="Helvetica,sans-Serif" font-size="10.00"># Equivalence()</text>
<text text-anchor="start" x="1336" y="-7.5" font-family="Helvetica,sans-Serif" font-size="10.00"># Equivalence()</text>
</a>
</g>
</g>
<!-- Node18&#45;&gt;Node19 -->
<g id="edge18" class="edge"><title>Node18&#45;&gt;Node19</title>
<path fill="none" stroke="midnightblue" d="M1759.59,-149.927C1759.06,-149.613 1758.53,-149.304 1758,-149 1646.29,-85.3873 1590.49,-160.417 1471,-113 1468.11,-111.855 1465.24,-110.574 1462.39,-109.184"/>
<polygon fill="none" stroke="midnightblue" points="1757.65,-152.843 1767.92,-155.471 1761.53,-147.016 1757.65,-152.843"/>
</g>
<!-- Node20 -->
<g id="node20" class="node"><title>Node20</title>
<g id="a_node20"><a xlink:href="../../da/db6/classnars_1_1language_1_1Implication.html" target="_top" xlink:title="A Statement about an Inheritance relation. ">
<polygon fill="none" stroke="black" points="1480,-6 1480,-107 1608,-107 1608,-6 1480,-6"/>
<text text-anchor="middle" x="1544" y="-95" font-family="Helvetica,sans-Serif" font-size="10.00">nars.language.Implication</text>
<polyline fill="none" stroke="black" points="1480,-88 1608,-88 "/>
<text text-anchor="middle" x="1544" y="-76" font-family="Helvetica,sans-Serif" font-size="10.00"> </text>
<polyline fill="none" stroke="black" points="1480,-69 1608,-69 "/>
<text text-anchor="start" x="1488" y="-57" font-family="Helvetica,sans-Serif" font-size="10.00">+ clone()</text>
<text text-anchor="start" x="1488" y="-46" font-family="Helvetica,sans-Serif" font-size="10.00">+ operator()</text>
<text text-anchor="start" x="1488" y="-35" font-family="Helvetica,sans-Serif" font-size="10.00">+ make()</text>
<text text-anchor="start" x="1488" y="-24" font-family="Helvetica,sans-Serif" font-size="10.00"># Implication()</text>
<text text-anchor="start" x="1488" y="-13" font-family="Helvetica,sans-Serif" font-size="10.00"># Implication()</text>
</a>
</g>
</g>
<!-- Node18&#45;&gt;Node20 -->
<g id="edge19" class="edge"><title>Node18&#45;&gt;Node20</title>
<path fill="none" stroke="midnightblue" d="M1759.53,-150.023C1759.02,-149.677 1758.51,-149.336 1758,-149 1703.91,-113.543 1675.24,-141.133 1617,-113 1613.27,-111.199 1609.55,-109.192 1605.87,-107.039"/>
<polygon fill="none" stroke="midnightblue" points="1757.47,-152.855 1767.59,-156.01 1761.65,-147.236 1757.47,-152.855"/>
</g>
<!-- Node21 -->
<g id="node21" class="node"><title>Node21</title>
<g id="a_node21"><a xlink:href="../../d0/df3/classnars_1_1language_1_1Inheritance.html" target="_top" xlink:title="A Statement about an Inheritance relation. ">
<polygon fill="none" stroke="black" points="1626,-6 1626,-107 1754,-107 1754,-6 1626,-6"/>
<text text-anchor="middle" x="1690" y="-95" font-family="Helvetica,sans-Serif" font-size="10.00">nars.language.Inheritance</text>
<polyline fill="none" stroke="black" points="1626,-88 1754,-88 "/>
<text text-anchor="middle" x="1690" y="-76" font-family="Helvetica,sans-Serif" font-size="10.00"> </text>
<polyline fill="none" stroke="black" points="1626,-69 1754,-69 "/>
<text text-anchor="start" x="1634" y="-57" font-family="Helvetica,sans-Serif" font-size="10.00">+ clone()</text>
<text text-anchor="start" x="1634" y="-46" font-family="Helvetica,sans-Serif" font-size="10.00">+ operator()</text>
<text text-anchor="start" x="1634" y="-35" font-family="Helvetica,sans-Serif" font-size="10.00">+ make()</text>
<text text-anchor="start" x="1634" y="-24" font-family="Helvetica,sans-Serif" font-size="10.00">&#45; Inheritance()</text>
<text text-anchor="start" x="1634" y="-13" font-family="Helvetica,sans-Serif" font-size="10.00">&#45; Inheritance()</text>
</a>
</g>
</g>
<!-- Node18&#45;&gt;Node21 -->
<g id="edge20" class="edge"><title>Node18&#45;&gt;Node21</title>
<path fill="none" stroke="midnightblue" d="M1761.8,-151.959C1750.07,-136.524 1738.29,-121.025 1727.76,-107.174"/>
<polygon fill="none" stroke="midnightblue" points="1759.09,-154.173 1767.92,-160.016 1764.66,-149.937 1759.09,-154.173"/>
</g>
<!-- Node22 -->
<g id="node22" class="node"><title>Node22</title>
<g id="a_node22"><a xlink:href="../../df/d4e/classnars_1_1language_1_1Instance.html" target="_top" xlink:title="A Statement about an Instance relation, which is used only in Narsese for I/O, and translated into In...">
<polygon fill="none" stroke="black" points="1772,-28 1772,-85 1890,-85 1890,-28 1772,-28"/>
<text text-anchor="middle" x="1831" y="-73" font-family="Helvetica,sans-Serif" font-size="10.00">nars.language.Instance</text>
<polyline fill="none" stroke="black" points="1772,-66 1890,-66 "/>
<text text-anchor="middle" x="1831" y="-54" font-family="Helvetica,sans-Serif" font-size="10.00"> </text>
<polyline fill="none" stroke="black" points="1772,-47 1890,-47 "/>
<text text-anchor="start" x="1780" y="-35" font-family="Helvetica,sans-Serif" font-size="10.00">+ make()</text>
</a>
</g>
</g>
<!-- Node18&#45;&gt;Node22 -->
<g id="edge21" class="edge"><title>Node18&#45;&gt;Node22</title>
<path fill="none" stroke="midnightblue" d="M1831,-139.306C1831,-119.403 1831,-100.181 1831,-85.3763"/>
<polygon fill="none" stroke="midnightblue" points="1827.5,-139.435 1831,-149.435 1834.5,-139.435 1827.5,-139.435"/>
</g>
<!-- Node23 -->
<g id="node23" class="node"><title>Node23</title>
<g id="a_node23"><a xlink:href="../../d6/d3b/classnars_1_1language_1_1InstanceProperty.html" target="_top" xlink:title="A Statement about an InstanceProperty relation, which is used only in Narsese for I/O...">
<polygon fill="none" stroke="black" points="1908.5,-28 1908.5,-85 2063.5,-85 2063.5,-28 1908.5,-28"/>
<text text-anchor="middle" x="1986" y="-73" font-family="Helvetica,sans-Serif" font-size="10.00">nars.language.InstanceProperty</text>
<polyline fill="none" stroke="black" points="1908.5,-66 2063.5,-66 "/>
<text text-anchor="middle" x="1986" y="-54" font-family="Helvetica,sans-Serif" font-size="10.00"> </text>
<polyline fill="none" stroke="black" points="1908.5,-47 2063.5,-47 "/>
<text text-anchor="start" x="1916.5" y="-35" font-family="Helvetica,sans-Serif" font-size="10.00">+ make()</text>
</a>
</g>
</g>
<!-- Node18&#45;&gt;Node23 -->
<g id="edge22" class="edge"><title>Node18&#45;&gt;Node23</title>
<path fill="none" stroke="midnightblue" d="M1900.64,-159.661C1923.01,-132.889 1946.26,-105.06 1962.84,-85.2211"/>
<polygon fill="none" stroke="midnightblue" points="1897.77,-157.632 1894.04,-167.55 1903.14,-162.121 1897.77,-157.632"/>
</g>
<!-- Node24 -->
<g id="node24" class="node"><title>Node24</title>
<g id="a_node24"><a xlink:href="../../dd/dd7/classnars_1_1language_1_1Property.html" target="_top" xlink:title="A Statement about a Property relation, which is used only in Narsese for I/O, and translated into Inh...">
<polygon fill="none" stroke="black" points="2081.5,-28 2081.5,-85 2198.5,-85 2198.5,-28 2081.5,-28"/>
<text text-anchor="middle" x="2140" y="-73" font-family="Helvetica,sans-Serif" font-size="10.00">nars.language.Property</text>
<polyline fill="none" stroke="black" points="2081.5,-66 2198.5,-66 "/>
<text text-anchor="middle" x="2140" y="-54" font-family="Helvetica,sans-Serif" font-size="10.00"> </text>
<polyline fill="none" stroke="black" points="2081.5,-47 2198.5,-47 "/>
<text text-anchor="start" x="2089.5" y="-35" font-family="Helvetica,sans-Serif" font-size="10.00">+ make()</text>
</a>
</g>
</g>
<!-- Node18&#45;&gt;Node24 -->
<g id="edge23" class="edge"><title>Node18&#45;&gt;Node24</title>
<path fill="none" stroke="midnightblue" d="M1903.3,-208.53C1952.28,-184.099 2017.71,-149.318 2072,-113 2084.54,-104.612 2097.55,-94.411 2108.79,-85.0543"/>
<polygon fill="none" stroke="midnightblue" points="1901.44,-205.543 1894.04,-213.123 1904.55,-211.814 1901.44,-205.543"/>
</g>
<!-- Node25 -->
<g id="node25" class="node"><title>Node25</title>
<g id="a_node25"><a xlink:href="../../d3/d1f/classnars_1_1language_1_1Similarity.html" target="_top" xlink:title="A Statement about a Similarity relation. ">
<polygon fill="none" stroke="black" points="2216.5,-0.5 2216.5,-112.5 2337.5,-112.5 2337.5,-0.5 2216.5,-0.5"/>
<text text-anchor="middle" x="2277" y="-100.5" font-family="Helvetica,sans-Serif" font-size="10.00">nars.language.Similarity</text>
<polyline fill="none" stroke="black" points="2216.5,-93.5 2337.5,-93.5 "/>
<text text-anchor="middle" x="2277" y="-81.5" font-family="Helvetica,sans-Serif" font-size="10.00"> </text>
<polyline fill="none" stroke="black" points="2216.5,-74.5 2337.5,-74.5 "/>
<text text-anchor="start" x="2224.5" y="-62.5" font-family="Helvetica,sans-Serif" font-size="10.00">+ clone()</text>
<text text-anchor="start" x="2224.5" y="-51.5" font-family="Helvetica,sans-Serif" font-size="10.00">+ operator()</text>
<text text-anchor="start" x="2224.5" y="-40.5" font-family="Helvetica,sans-Serif" font-size="10.00">+ isCommutative()</text>
<text text-anchor="start" x="2224.5" y="-29.5" font-family="Helvetica,sans-Serif" font-size="10.00">+ make()</text>
<text text-anchor="start" x="2224.5" y="-18.5" font-family="Helvetica,sans-Serif" font-size="10.00">&#45; Similarity()</text>
<text text-anchor="start" x="2224.5" y="-7.5" font-family="Helvetica,sans-Serif" font-size="10.00">&#45; Similarity()</text>
</a>
</g>
</g>
<!-- Node18&#45;&gt;Node25 -->
<g id="edge24" class="edge"><title>Node18&#45;&gt;Node25</title>
<path fill="none" stroke="midnightblue" d="M1904,-225.619C1982.06,-205.272 2107.98,-167.304 2207,-113 2210.13,-111.285 2213.26,-109.43 2216.37,-107.474"/>
<polygon fill="none" stroke="midnightblue" points="1903.06,-222.246 1894.26,-228.133 1904.81,-229.024 1903.06,-222.246"/>
</g>
</g>
</svg>
