<?xml version="1.0" encoding="UTF-8" standalone="no"?>
<!DOCTYPE svg PUBLIC "-//W3C//DTD SVG 1.1//EN"
 "http://www.w3.org/Graphics/SVG/1.1/DTD/svg11.dtd">
<!-- Generated by graphviz version 2.38.0 (20140413.2041)
 -->
<!-- Title: nars.language.ImageInt.make Pages: 1 -->
<svg width="806pt" height="127pt"
 viewBox="0.00 0.00 806.00 126.50" xmlns="http://www.w3.org/2000/svg" xmlns:xlink="http://www.w3.org/1999/xlink">
<g id="graph0" class="graph" transform="scale(1 1) rotate(0) translate(4 122.5)">
<title>nars.language.ImageInt.make</title>
<!-- Node1 -->
<g id="node1" class="node"><title>Node1</title>
<polygon fill="#bfbfbf" stroke="black" points="0,-44.5 0,-63.5 146,-63.5 146,-44.5 0,-44.5"/>
<text text-anchor="middle" x="73" y="-51.5" font-family="Helvetica,sans-Serif" font-size="10.00">nars.language.ImageInt.make</text>
</g>
<!-- Node2 -->
<g id="node2" class="node"><title>Node2</title>
<g id="a_node2"><a xlink:href="../../d0/dee/classnars_1_1language_1_1CompoundTerm_a5923e4b211c0c1e1e53b39ebed2c7be1.html#a5923e4b211c0c1e1e53b39ebed2c7be1" target="_top" xlink:title="Clone the component list. ">
<polygon fill="none" stroke="black" points="182,-88 182,-118 358,-118 358,-88 182,-88"/>
<text text-anchor="start" x="190" y="-106" font-family="Helvetica,sans-Serif" font-size="10.00">nars.language.CompoundTerm.clone</text>
<text text-anchor="middle" x="270" y="-95" font-family="Helvetica,sans-Serif" font-size="10.00">Components</text>
</a>
</g>
</g>
<!-- Node1&#45;&gt;Node2 -->
<g id="edge1" class="edge"><title>Node1&#45;&gt;Node2</title>
<path fill="none" stroke="midnightblue" d="M112.061,-63.564C136.856,-69.7947 169.945,-78.1094 199.347,-85.4974"/>
<polygon fill="midnightblue" stroke="midnightblue" points="198.608,-88.9204 209.159,-87.963 200.314,-82.1314 198.608,-88.9204"/>
</g>
<!-- Node5 -->
<g id="node5" class="node"><title>Node5</title>
<g id="a_node5"><a xlink:href="../../df/de3/classnars_1_1language_1_1ImageInt_afbf552d3fd7d6b7430ae58dcf6fa2959.html#afbf552d3fd7d6b7430ae58dcf6fa2959" target="_top" xlink:title="get the index of the relation in the component list ">
<polygon fill="none" stroke="black" points="202.5,-39 202.5,-69 337.5,-69 337.5,-39 202.5,-39"/>
<text text-anchor="start" x="210.5" y="-57" font-family="Helvetica,sans-Serif" font-size="10.00">nars.language.ImageInt.get</text>
<text text-anchor="middle" x="270" y="-46" font-family="Helvetica,sans-Serif" font-size="10.00">RelationIndex</text>
</a>
</g>
</g>
<!-- Node1&#45;&gt;Node5 -->
<g id="edge4" class="edge"><title>Node1&#45;&gt;Node5</title>
<path fill="none" stroke="midnightblue" d="M146.057,-54C161.042,-54 176.89,-54 192.044,-54"/>
<polygon fill="midnightblue" stroke="midnightblue" points="192.406,-57.5001 202.406,-54 192.405,-50.5001 192.406,-57.5001"/>
</g>
<!-- Node6 -->
<g id="node6" class="node"><title>Node6</title>
<g id="a_node6"><a xlink:href="../../df/de3/classnars_1_1language_1_1ImageInt_ad05e4231ed31d78ad4c8b4fefbc964fa.html#ad05e4231ed31d78ad4c8b4fefbc964fa" target="_top" xlink:title="Try to make a new ImageExt. ">
<polygon fill="none" stroke="black" points="197,-0.5 197,-19.5 343,-19.5 343,-0.5 197,-0.5"/>
<text text-anchor="middle" x="270" y="-7.5" font-family="Helvetica,sans-Serif" font-size="10.00">nars.language.ImageInt.make</text>
</a>
</g>
</g>
<!-- Node1&#45;&gt;Node6 -->
<g id="edge5" class="edge"><title>Node1&#45;&gt;Node6</title>
<path fill="none" stroke="midnightblue" d="M116.312,-44.4527C145.826,-37.7931 185.4,-28.8637 216.863,-21.7642"/>
<polygon fill="midnightblue" stroke="midnightblue" points="217.786,-25.144 226.77,-19.5287 216.245,-18.3157 217.786,-25.144"/>
</g>
<!-- Node3 -->
<g id="node3" class="node"><title>Node3</title>
<g id="a_node3"><a xlink:href="../../d0/dee/classnars_1_1language_1_1CompoundTerm_a4f199daa7588f86b81b0912a5e52dfe0.html#a4f199daa7588f86b81b0912a5e52dfe0" target="_top" xlink:title="Deep clone an array list of terms. ">
<polygon fill="none" stroke="black" points="394,-93.5 394,-112.5 586,-112.5 586,-93.5 394,-93.5"/>
<text text-anchor="middle" x="490" y="-100.5" font-family="Helvetica,sans-Serif" font-size="10.00">nars.language.CompoundTerm.cloneList</text>
</a>
</g>
</g>
<!-- Node2&#45;&gt;Node3 -->
<g id="edge2" class="edge"><title>Node2&#45;&gt;Node3</title>
<path fill="none" stroke="midnightblue" d="M358.099,-103C366.538,-103 375.16,-103 383.75,-103"/>
<polygon fill="midnightblue" stroke="midnightblue" points="383.808,-106.5 393.808,-103 383.807,-99.5001 383.808,-106.5"/>
</g>
<!-- Node4 -->
<g id="node4" class="node"><title>Node4</title>
<g id="a_node4"><a xlink:href="../../d0/dee/classnars_1_1language_1_1CompoundTerm_a963e8aef1163f4ed8c364b5e448deaff.html#a963e8aef1163f4ed8c364b5e448deaff" target="_top" xlink:title="Abstract clone method. ">
<polygon fill="none" stroke="black" points="622,-93.5 622,-112.5 798,-112.5 798,-93.5 622,-93.5"/>
<text text-anchor="middle" x="710" y="-100.5" font-family="Helvetica,sans-Serif" font-size="10.00">nars.language.CompoundTerm.clone</text>
</a>
</g>
</g>
<!-- Node3&#45;&gt;Node4 -->
<g id="edge3" class="edge"><title>Node3&#45;&gt;Node4</title>
<path fill="none" stroke="midnightblue" d="M586.301,-103C594.69,-103 603.19,-103 611.597,-103"/>
<polygon fill="midnightblue" stroke="midnightblue" points="611.791,-106.5 621.791,-103 611.791,-99.5001 611.791,-106.5"/>
</g>
</g>
</svg>
