<?xml version="1.0" encoding="UTF-8" standalone="no"?>
<!DOCTYPE svg PUBLIC "-//W3C//DTD SVG 1.1//EN"
 "http://www.w3.org/Graphics/SVG/1.1/DTD/svg11.dtd">
<!-- Generated by graphviz version 2.38.0 (20140413.2041)
 -->
<!-- Title: nars.language.ImageInt.clone Pages: 1 -->
<svg width="593pt" height="116pt"
 viewBox="0.00 0.00 593.00 115.50" xmlns="http://www.w3.org/2000/svg" xmlns:xlink="http://www.w3.org/1999/xlink">
<g id="graph0" class="graph" transform="scale(1 1) rotate(0) translate(4 111.5)">
<title>nars.language.ImageInt.clone</title>
<!-- Node1 -->
<g id="node1" class="node"><title>Node1</title>
<polygon fill="#bfbfbf" stroke="black" points="0,-50 0,-69 145,-69 145,-50 0,-50"/>
<text text-anchor="middle" x="72.5" y="-57" font-family="Helvetica,sans-Serif" font-size="10.00">nars.language.ImageInt.clone</text>
</g>
<!-- Node2 -->
<g id="node2" class="node"><title>Node2</title>
<g id="a_node2"><a xlink:href="../../d0/dee/classnars_1_1language_1_1CompoundTerm_a4f199daa7588f86b81b0912a5e52dfe0.html#a4f199daa7588f86b81b0912a5e52dfe0" target="_top" xlink:title="Deep clone an array list of terms. ">
<polygon fill="none" stroke="black" points="181,-88 181,-107 373,-107 373,-88 181,-88"/>
<text text-anchor="middle" x="277" y="-95" font-family="Helvetica,sans-Serif" font-size="10.00">nars.language.CompoundTerm.cloneList</text>
</a>
</g>
</g>
<!-- Node1&#45;&gt;Node2 -->
<g id="edge1" class="edge"><title>Node1&#45;&gt;Node2</title>
<path fill="none" stroke="midnightblue" d="M124.338,-69.04C151.9,-74.2122 186.155,-80.6401 215.131,-86.0778"/>
<polygon fill="midnightblue" stroke="midnightblue" points="214.667,-89.5516 225.141,-87.9561 215.958,-82.6717 214.667,-89.5516"/>
</g>
<!-- Node4 -->
<g id="node4" class="node"><title>Node4</title>
<g id="a_node4"><a xlink:href="../../df/de3/classnars_1_1language_1_1ImageInt_a588d82aa3f377df8c58de039088ee835.html#a588d82aa3f377df8c58de039088ee835" target="_top" xlink:title="constructor with partial values, called by make ">
<polygon fill="none" stroke="black" points="197,-50 197,-69 357,-69 357,-50 197,-50"/>
<text text-anchor="middle" x="277" y="-57" font-family="Helvetica,sans-Serif" font-size="10.00">nars.language.ImageInt.ImageInt</text>
</a>
</g>
</g>
<!-- Node1&#45;&gt;Node4 -->
<g id="edge3" class="edge"><title>Node1&#45;&gt;Node4</title>
<path fill="none" stroke="midnightblue" d="M145.179,-59.5C158.637,-59.5 172.86,-59.5 186.775,-59.5"/>
<polygon fill="midnightblue" stroke="midnightblue" points="186.838,-63.0001 196.838,-59.5 186.838,-56.0001 186.838,-63.0001"/>
</g>
<!-- Node5 -->
<g id="node5" class="node"><title>Node5</title>
<g id="a_node5"><a xlink:href="../../d0/dee/classnars_1_1language_1_1CompoundTerm_aee0ef6fd533b58caf22bee2a98eef67d.html#aee0ef6fd533b58caf22bee2a98eef67d" target="_top" xlink:title="check if the term contains free variable ">
<polygon fill="none" stroke="black" points="196.5,-0.5 196.5,-30.5 357.5,-30.5 357.5,-0.5 196.5,-0.5"/>
<text text-anchor="start" x="204.5" y="-18.5" font-family="Helvetica,sans-Serif" font-size="10.00">nars.language.CompoundTerm.is</text>
<text text-anchor="middle" x="277" y="-7.5" font-family="Helvetica,sans-Serif" font-size="10.00">Constant</text>
</a>
</g>
</g>
<!-- Node1&#45;&gt;Node5 -->
<g id="edge4" class="edge"><title>Node1&#45;&gt;Node5</title>
<path fill="none" stroke="midnightblue" d="M117.439,-49.9527C140.646,-44.9103 169.841,-38.5666 196.835,-32.7013"/>
<polygon fill="midnightblue" stroke="midnightblue" points="197.636,-36.1089 206.665,-30.5654 196.15,-29.2685 197.636,-36.1089"/>
</g>
<!-- Node3 -->
<g id="node3" class="node"><title>Node3</title>
<g id="a_node3"><a xlink:href="../../d0/dee/classnars_1_1language_1_1CompoundTerm_a963e8aef1163f4ed8c364b5e448deaff.html#a963e8aef1163f4ed8c364b5e448deaff" target="_top" xlink:title="Abstract clone method. ">
<polygon fill="none" stroke="black" points="409,-88 409,-107 585,-107 585,-88 409,-88"/>
<text text-anchor="middle" x="497" y="-95" font-family="Helvetica,sans-Serif" font-size="10.00">nars.language.CompoundTerm.clone</text>
</a>
</g>
</g>
<!-- Node2&#45;&gt;Node3 -->
<g id="edge2" class="edge"><title>Node2&#45;&gt;Node3</title>
<path fill="none" stroke="midnightblue" d="M373.301,-97.5C381.69,-97.5 390.19,-97.5 398.597,-97.5"/>
<polygon fill="midnightblue" stroke="midnightblue" points="398.791,-101 408.791,-97.5 398.791,-94.0001 398.791,-101"/>
</g>
</g>
</svg>
