<?xml version="1.0" encoding="UTF-8" standalone="no"?>
<!DOCTYPE svg PUBLIC "-//W3C//DTD SVG 1.1//EN"
 "http://www.w3.org/Graphics/SVG/1.1/DTD/svg11.dtd">
<!-- Generated by graphviz version 2.38.0 (20140413.2041)
 -->
<!-- Title: nars.language.ImageInt.make Pages: 1 -->
<svg width="570pt" height="159pt"
 viewBox="0.00 0.00 570.00 159.00" xmlns="http://www.w3.org/2000/svg" xmlns:xlink="http://www.w3.org/1999/xlink">
<g id="graph0" class="graph" transform="scale(1 1) rotate(0) translate(4 155)">
<title>nars.language.ImageInt.make</title>
<!-- Node1 -->
<g id="node1" class="node"><title>Node1</title>
<polygon fill="#bfbfbf" stroke="black" points="5.68434e-14,-87.5 5.68434e-14,-106.5 146,-106.5 146,-87.5 5.68434e-14,-87.5"/>
<text text-anchor="middle" x="73" y="-94.5" font-family="Helvetica,sans-Serif" font-size="10.00">nars.language.ImageInt.make</text>
</g>
<!-- Node2 -->
<g id="node2" class="node"><title>Node2</title>
<g id="a_node2"><a xlink:href="../../df/de3/classnars_1_1language_1_1ImageInt_a588d82aa3f377df8c58de039088ee835.html#a588d82aa3f377df8c58de039088ee835" target="_top" xlink:title="constructor with partial values, called by make ">
<polygon fill="none" stroke="black" points="190.5,-131.5 190.5,-150.5 350.5,-150.5 350.5,-131.5 190.5,-131.5"/>
<text text-anchor="middle" x="270.5" y="-138.5" font-family="Helvetica,sans-Serif" font-size="10.00">nars.language.ImageInt.ImageInt</text>
</a>
</g>
</g>
<!-- Node1&#45;&gt;Node2 -->
<g id="edge1" class="edge"><title>Node1&#45;&gt;Node2</title>
<path fill="none" stroke="midnightblue" d="M114.486,-106.51C134.745,-111.233 159.653,-116.987 182,-122 192.684,-124.396 204.113,-126.913 215.068,-129.301"/>
<polygon fill="midnightblue" stroke="midnightblue" points="214.445,-132.747 224.961,-131.452 215.932,-125.907 214.445,-132.747"/>
</g>
<!-- Node3 -->
<g id="node3" class="node"><title>Node3</title>
<g id="a_node3"><a xlink:href="../../d0/dee/classnars_1_1language_1_1CompoundTerm_adf2b3d71c10b80f512455c952137b200.html#adf2b3d71c10b80f512455c952137b200" target="_top" xlink:title="default method to make the oldName of an image term from given fields ">
<polygon fill="none" stroke="black" points="182,-82 182,-112 359,-112 359,-82 182,-82"/>
<text text-anchor="start" x="190" y="-100" font-family="Helvetica,sans-Serif" font-size="10.00">nars.language.CompoundTerm.make</text>
<text text-anchor="middle" x="270.5" y="-89" font-family="Helvetica,sans-Serif" font-size="10.00">ImageName</text>
</a>
</g>
</g>
<!-- Node1&#45;&gt;Node3 -->
<g id="edge2" class="edge"><title>Node1&#45;&gt;Node3</title>
<path fill="none" stroke="midnightblue" d="M146.242,-97C154.607,-97 163.24,-97 171.872,-97"/>
<polygon fill="midnightblue" stroke="midnightblue" points="171.988,-100.5 181.988,-97 171.988,-93.5001 171.988,-100.5"/>
</g>
<!-- Node4 -->
<g id="node4" class="node"><title>Node4</title>
<g id="a_node4"><a xlink:href="../../d8/df4/classnars_1_1storage_1_1Memory_a63058cc52d77412e0aead8387c23aa93.html#a63058cc52d77412e0aead8387c23aa93" target="_top" xlink:title="Get a Term for a given name of a Concept or Operator. ">
<polygon fill="none" stroke="black" points="202.5,-33 202.5,-63 338.5,-63 338.5,-33 202.5,-33"/>
<text text-anchor="start" x="210.5" y="-51" font-family="Helvetica,sans-Serif" font-size="10.00">nars.storage.Memory.name</text>
<text text-anchor="middle" x="270.5" y="-40" font-family="Helvetica,sans-Serif" font-size="10.00">ToListedTerm</text>
</a>
</g>
</g>
<!-- Node1&#45;&gt;Node4 -->
<g id="edge3" class="edge"><title>Node1&#45;&gt;Node4</title>
<path fill="none" stroke="midnightblue" d="M112.158,-87.436C137.018,-81.2053 170.191,-72.8906 199.668,-65.5026"/>
<polygon fill="midnightblue" stroke="midnightblue" points="200.657,-68.8632 209.506,-63.037 198.955,-62.0732 200.657,-68.8632"/>
</g>
<!-- Node5 -->
<g id="node5" class="node"><title>Node5</title>
<g id="a_node5"><a xlink:href="../../d8/df4/classnars_1_1storage_1_1Memory_a33af7b3d806d32c85390563fec3c6d27.html#a33af7b3d806d32c85390563fec3c6d27" target="_top" xlink:title="Concept bag. ">
<polygon fill="none" stroke="black" points="395,-76.5 395,-95.5 562,-95.5 562,-76.5 395,-76.5"/>
<text text-anchor="middle" x="478.5" y="-83.5" font-family="Helvetica,sans-Serif" font-size="10.00">nars.storage.Memory.getConcepts</text>
</a>
</g>
</g>
<!-- Node4&#45;&gt;Node5 -->
<g id="edge4" class="edge"><title>Node4&#45;&gt;Node5</title>
<path fill="none" stroke="midnightblue" d="M338.667,-60.39C363.537,-64.9777 391.591,-70.1526 415.937,-74.6438"/>
<polygon fill="midnightblue" stroke="midnightblue" points="415.302,-78.0856 425.771,-76.4578 416.572,-71.2018 415.302,-78.0856"/>
</g>
<!-- Node6 -->
<g id="node6" class="node"><title>Node6</title>
<g id="a_node6"><a xlink:href="../../d9/d37/classnars_1_1storage_1_1Bag_a011b37fc683db7fb7b41e33712a37d92.html#a011b37fc683db7fb7b41e33712a37d92" target="_top" xlink:title="Get an Item by key. ">
<polygon fill="none" stroke="black" points="425,-38.5 425,-57.5 532,-57.5 532,-38.5 425,-38.5"/>
<text text-anchor="middle" x="478.5" y="-45.5" font-family="Helvetica,sans-Serif" font-size="10.00">nars.storage.Bag.get</text>
</a>
</g>
</g>
<!-- Node4&#45;&gt;Node6 -->
<g id="edge5" class="edge"><title>Node4&#45;&gt;Node6</title>
<path fill="none" stroke="midnightblue" d="M338.667,-48C363.118,-48 390.647,-48 414.704,-48"/>
<polygon fill="midnightblue" stroke="midnightblue" points="414.783,-51.5001 424.783,-48 414.783,-44.5001 414.783,-51.5001"/>
</g>
<!-- Node7 -->
<g id="node7" class="node"><title>Node7</title>
<g id="a_node7"><a xlink:href="../../d4/d22/classnars_1_1entity_1_1Concept_afcd1217b7680b073fa51f0d0f159dcea.html#afcd1217b7680b073fa51f0d0f159dcea" target="_top" xlink:title="Return the associated term, called from Memory only. ">
<polygon fill="none" stroke="black" points="408,-0.5 408,-19.5 549,-19.5 549,-0.5 408,-0.5"/>
<text text-anchor="middle" x="478.5" y="-7.5" font-family="Helvetica,sans-Serif" font-size="10.00">nars.entity.Concept.getTerm</text>
</a>
</g>
</g>
<!-- Node4&#45;&gt;Node7 -->
<g id="edge6" class="edge"><title>Node4&#45;&gt;Node7</title>
<path fill="none" stroke="midnightblue" d="M338.667,-35.61C363.537,-31.0223 391.591,-25.8474 415.937,-21.3562"/>
<polygon fill="midnightblue" stroke="midnightblue" points="416.572,-24.7982 425.771,-19.5422 415.302,-17.9144 416.572,-24.7982"/>
</g>
</g>
</svg>
