<?xml version="1.0" encoding="UTF-8" standalone="no"?>
<!DOCTYPE svg PUBLIC "-//W3C//DTD SVG 1.1//EN"
 "http://www.w3.org/Graphics/SVG/1.1/DTD/svg11.dtd">
<!-- Generated by graphviz version 2.38.0 (20140413.2041)
 -->
<!-- Title: nars.language.ImageInt.getRelationIndex Pages: 1 -->
<svg width="2503pt" height="137pt"
 viewBox="0.00 0.00 2503.00 137.00" xmlns="http://www.w3.org/2000/svg" xmlns:xlink="http://www.w3.org/1999/xlink">
<g id="graph0" class="graph" transform="scale(1 1) rotate(0) translate(4 133)">
<title>nars.language.ImageInt.getRelationIndex</title>
<!-- Node1 -->
<g id="node1" class="node"><title>Node1</title>
<polygon fill="#bfbfbf" stroke="black" points="0,-49.5 0,-79.5 135,-79.5 135,-49.5 0,-49.5"/>
<text text-anchor="start" x="8" y="-67.5" font-family="Helvetica,sans-Serif" font-size="10.00">nars.language.ImageInt.get</text>
<text text-anchor="middle" x="67.5" y="-56.5" font-family="Helvetica,sans-Serif" font-size="10.00">RelationIndex</text>
</g>
<!-- Node2 -->
<g id="node2" class="node"><title>Node2</title>
<g id="a_node2"><a xlink:href="../../df/de3/classnars_1_1language_1_1ImageInt_a845220073ca8309bd174697474fefca4.html#a845220073ca8309bd174697474fefca4" target="_top" xlink:title="Try to make an Image from an existing Image and a component. ">
<polygon fill="none" stroke="black" points="171,-99 171,-118 317,-118 317,-99 171,-99"/>
<text text-anchor="middle" x="244" y="-106" font-family="Helvetica,sans-Serif" font-size="10.00">nars.language.ImageInt.make</text>
</a>
</g>
</g>
<!-- Node1&#45;&gt;Node2 -->
<g id="edge1" class="edge"><title>Node1&#45;&gt;Node2</title>
<path fill="none" stroke="midnightblue" d="M137.801,-81.9741C160.812,-87.7763 185.564,-94.0176 205.275,-98.9876"/>
<polygon fill="midnightblue" stroke="midnightblue" points="138.617,-78.5705 128.065,-79.5192 136.906,-85.3581 138.617,-78.5705"/>
</g>
<!-- Node3 -->
<g id="node3" class="node"><title>Node3</title>
<g id="a_node3"><a xlink:href="../../db/d49/classnars_1_1inference_1_1StructuralRules_a9153919870a10912311c0a865850e753.html#a9153919870a10912311c0a865850e753" target="_top" xlink:title="List the cases where the direction of inheritance is revised in conclusion. ">
<polygon fill="none" stroke="black" points="182.5,-49.5 182.5,-79.5 305.5,-79.5 305.5,-49.5 182.5,-49.5"/>
<text text-anchor="start" x="190.5" y="-67.5" font-family="Helvetica,sans-Serif" font-size="10.00">nars.inference.Structural</text>
<text text-anchor="middle" x="244" y="-56.5" font-family="Helvetica,sans-Serif" font-size="10.00">Rules.switchOrder</text>
</a>
</g>
</g>
<!-- Node1&#45;&gt;Node3 -->
<g id="edge2" class="edge"><title>Node1&#45;&gt;Node3</title>
<path fill="none" stroke="midnightblue" d="M145.73,-64.5C158.048,-64.5 170.637,-64.5 182.496,-64.5"/>
<polygon fill="midnightblue" stroke="midnightblue" points="145.467,-61.0001 135.467,-64.5 145.467,-68.0001 145.467,-61.0001"/>
</g>
<!-- Node17 -->
<g id="node17" class="node"><title>Node17</title>
<g id="a_node17"><a xlink:href="../../db/d49/classnars_1_1inference_1_1StructuralRules_a45ae086cf44c9f32cbe9a729f2419594.html#a45ae086cf44c9f32cbe9a729f2419594" target="_top" xlink:title="Equivalent transformation between products and images when the subject is a compound {&lt;(*...">
<polygon fill="none" stroke="black" points="360,-0.5 360,-30.5 489,-30.5 489,-0.5 360,-0.5"/>
<text text-anchor="start" x="368" y="-18.5" font-family="Helvetica,sans-Serif" font-size="10.00">nars.inference.Structural</text>
<text text-anchor="middle" x="424.5" y="-7.5" font-family="Helvetica,sans-Serif" font-size="10.00">Rules.transformSubjectPI</text>
</a>
</g>
</g>
<!-- Node1&#45;&gt;Node17 -->
<g id="edge17" class="edge"><title>Node1&#45;&gt;Node17</title>
<path fill="none" stroke="midnightblue" d="M133.568,-47.1359C145.933,-44.2618 158.815,-41.5541 171,-39.5 234.83,-28.7403 308.611,-22.424 359.869,-18.9959"/>
<polygon fill="midnightblue" stroke="midnightblue" points="132.703,-43.7442 123.786,-49.4673 134.325,-50.5535 132.703,-43.7442"/>
</g>
<!-- Node4 -->
<g id="node4" class="node"><title>Node4</title>
<g id="a_node4"><a xlink:href="../../db/d49/classnars_1_1inference_1_1StructuralRules_a7baceb5d0b1adc6005f24cf83bc88e01.html#a7baceb5d0b1adc6005f24cf83bc88e01" target="_top" xlink:title="{&lt;S &#45;&#45;&gt; P&gt;, S@(S&amp;T)} |&#45; &lt;(S&amp;T) –&gt; (P&amp;T)&gt; {&lt;S &#45;&#45;&gt; P&gt;, S@(M&#45;S)} |&#45; &lt;(M&#45;P) –&gt; (M&#45;S)&gt; ...">
<polygon fill="none" stroke="black" points="358,-98.5 358,-128.5 491,-128.5 491,-98.5 358,-98.5"/>
<text text-anchor="start" x="366" y="-116.5" font-family="Helvetica,sans-Serif" font-size="10.00">nars.inference.Structural</text>
<text text-anchor="middle" x="424.5" y="-105.5" font-family="Helvetica,sans-Serif" font-size="10.00">Rules.structuralCompose2</text>
</a>
</g>
</g>
<!-- Node3&#45;&gt;Node4 -->
<g id="edge3" class="edge"><title>Node3&#45;&gt;Node4</title>
<path fill="none" stroke="midnightblue" d="M309.92,-82.3212C329.193,-87.6118 350.104,-93.3522 368.669,-98.4484"/>
<polygon fill="midnightblue" stroke="midnightblue" points="310.582,-78.8735 300.012,-79.6014 308.729,-85.6238 310.582,-78.8735"/>
</g>
<!-- Node15 -->
<g id="node15" class="node"><title>Node15</title>
<g id="a_node15"><a xlink:href="../../db/d49/classnars_1_1inference_1_1StructuralRules_a38aabb9f3b3a70e03852da1e32ec665d.html#a38aabb9f3b3a70e03852da1e32ec665d" target="_top" xlink:title="{&lt;(S&amp;T) –&gt; (P&amp;T)&gt;, S@(S&amp;T)} |&#45; &lt;S &#45;&#45;&gt; P&gt; ">
<polygon fill="none" stroke="black" points="353,-49.5 353,-79.5 496,-79.5 496,-49.5 353,-49.5"/>
<text text-anchor="start" x="361" y="-67.5" font-family="Helvetica,sans-Serif" font-size="10.00">nars.inference.Structural</text>
<text text-anchor="middle" x="424.5" y="-56.5" font-family="Helvetica,sans-Serif" font-size="10.00">Rules.structuralDecompose2</text>
</a>
</g>
</g>
<!-- Node3&#45;&gt;Node15 -->
<g id="edge14" class="edge"><title>Node3&#45;&gt;Node15</title>
<path fill="none" stroke="midnightblue" d="M315.957,-64.5C328.05,-64.5 340.61,-64.5 352.699,-64.5"/>
<polygon fill="midnightblue" stroke="midnightblue" points="315.93,-61.0001 305.93,-64.5 315.93,-68.0001 315.93,-61.0001"/>
</g>
<!-- Node5 -->
<g id="node5" class="node"><title>Node5</title>
<g id="a_node5"><a xlink:href="../../da/de3/classnars_1_1inference_1_1RuleTables_a8e422154fd8288d161435c3a53e44276.html#a8e422154fd8288d161435c3a53e44276" target="_top" xlink:title="Inference between a compound term and a statement. ">
<polygon fill="none" stroke="black" points="533.5,-98.5 533.5,-128.5 712.5,-128.5 712.5,-98.5 533.5,-98.5"/>
<text text-anchor="start" x="541.5" y="-116.5" font-family="Helvetica,sans-Serif" font-size="10.00">nars.inference.RuleTables.compound</text>
<text text-anchor="middle" x="623" y="-105.5" font-family="Helvetica,sans-Serif" font-size="10.00">AndStatement</text>
</a>
</g>
</g>
<!-- Node4&#45;&gt;Node5 -->
<g id="edge4" class="edge"><title>Node4&#45;&gt;Node5</title>
<path fill="none" stroke="midnightblue" d="M501.485,-113.5C511.9,-113.5 522.668,-113.5 533.287,-113.5"/>
<polygon fill="midnightblue" stroke="midnightblue" points="501.205,-110 491.205,-113.5 501.205,-117 501.205,-110"/>
</g>
<!-- Node6 -->
<g id="node6" class="node"><title>Node6</title>
<g id="a_node6"><a xlink:href="../../da/de3/classnars_1_1inference_1_1RuleTables_ac2d01dfdc40bdd47c757cb549217e6e3.html#ac2d01dfdc40bdd47c757cb549217e6e3" target="_top" xlink:title="Entry point of the inference engine. ">
<polygon fill="none" stroke="black" points="767,-55 767,-74 930,-74 930,-55 767,-55"/>
<text text-anchor="middle" x="848.5" y="-62" font-family="Helvetica,sans-Serif" font-size="10.00">nars.inference.RuleTables.reason</text>
</a>
</g>
</g>
<!-- Node5&#45;&gt;Node6 -->
<g id="edge5" class="edge"><title>Node5&#45;&gt;Node6</title>
<path fill="none" stroke="midnightblue" d="M702.524,-96.2844C736.611,-88.8112 775.235,-80.3433 804.041,-74.028"/>
<polygon fill="midnightblue" stroke="midnightblue" points="701.595,-92.905 692.576,-98.4654 703.094,-99.7426 701.595,-92.905"/>
</g>
<!-- Node7 -->
<g id="node7" class="node"><title>Node7</title>
<g id="a_node7"><a xlink:href="../../d4/d22/classnars_1_1entity_1_1Concept_ae07576c8466ad65eeb61040e3f71cfc7.html#ae07576c8466ad65eeb61040e3f71cfc7" target="_top" xlink:title="An atomic step in a concept, only called in Memory# processConcept. ">
<polygon fill="none" stroke="black" points="983,-33 983,-52 1102,-52 1102,-33 983,-33"/>
<text text-anchor="middle" x="1042.5" y="-40" font-family="Helvetica,sans-Serif" font-size="10.00">nars.entity.Concept.fire</text>
</a>
</g>
</g>
<!-- Node6&#45;&gt;Node7 -->
<g id="edge6" class="edge"><title>Node6&#45;&gt;Node7</title>
<path fill="none" stroke="midnightblue" d="M940.078,-54.1212C954.567,-52.4611 969.22,-50.782 982.714,-49.2359"/>
<polygon fill="midnightblue" stroke="midnightblue" points="939.627,-50.6499 930.091,-55.2656 940.424,-57.6044 939.627,-50.6499"/>
</g>
<!-- Node8 -->
<g id="node8" class="node"><title>Node8</title>
<g id="a_node8"><a xlink:href="../../d8/df4/classnars_1_1storage_1_1Memory_a83154b55b922c82b73931d4f22e3a590.html#a83154b55b922c82b73931d4f22e3a590" target="_top" xlink:title="Select a concept to fire. ">
<polygon fill="none" stroke="black" points="1138,-27.5 1138,-57.5 1284,-57.5 1284,-27.5 1138,-27.5"/>
<text text-anchor="start" x="1146" y="-45.5" font-family="Helvetica,sans-Serif" font-size="10.00">nars.storage.Memory.process</text>
<text text-anchor="middle" x="1211" y="-34.5" font-family="Helvetica,sans-Serif" font-size="10.00">Concept</text>
</a>
</g>
</g>
<!-- Node7&#45;&gt;Node8 -->
<g id="edge7" class="edge"><title>Node7&#45;&gt;Node8</title>
<path fill="none" stroke="midnightblue" d="M1112.34,-42.5C1120.75,-42.5 1129.36,-42.5 1137.82,-42.5"/>
<polygon fill="midnightblue" stroke="midnightblue" points="1112.2,-39.0001 1102.2,-42.5 1112.2,-46.0001 1112.2,-39.0001"/>
</g>
<!-- Node9 -->
<g id="node9" class="node"><title>Node9</title>
<g id="a_node9"><a xlink:href="../../d8/df4/classnars_1_1storage_1_1Memory_a49e2cbc8b78d535f4d69739886ee966a.html#a49e2cbc8b78d535f4d69739886ee966a" target="_top" xlink:title="An atomic working workCycle of the system: process new Tasks, then fire a concept. ">
<polygon fill="none" stroke="black" points="1320,-27.5 1320,-57.5 1453,-57.5 1453,-27.5 1320,-27.5"/>
<text text-anchor="start" x="1328" y="-45.5" font-family="Helvetica,sans-Serif" font-size="10.00">nars.storage.Memory.work</text>
<text text-anchor="middle" x="1386.5" y="-34.5" font-family="Helvetica,sans-Serif" font-size="10.00">Cycle</text>
</a>
</g>
</g>
<!-- Node8&#45;&gt;Node9 -->
<g id="edge8" class="edge"><title>Node8&#45;&gt;Node9</title>
<path fill="none" stroke="midnightblue" d="M1294.12,-42.5C1302.72,-42.5 1311.37,-42.5 1319.76,-42.5"/>
<polygon fill="midnightblue" stroke="midnightblue" points="1294.07,-39.0001 1284.07,-42.5 1294.07,-46.0001 1294.07,-39.0001"/>
</g>
<!-- Node10 -->
<g id="node10" class="node"><title>Node10</title>
<g id="a_node10"><a xlink:href="../../dd/da5/classnars_1_1storage_1_1Memory_1_1ReasonerBatch_acc60dec23da774957a85362ed6d7448b.html#acc60dec23da774957a85362ed6d7448b" target="_top" xlink:title="nars.storage.Memory.Reasoner\lBatch.doTick">
<polygon fill="none" stroke="black" points="1489,-27.5 1489,-57.5 1643,-57.5 1643,-27.5 1489,-27.5"/>
<text text-anchor="start" x="1497" y="-45.5" font-family="Helvetica,sans-Serif" font-size="10.00">nars.storage.Memory.Reasoner</text>
<text text-anchor="middle" x="1566" y="-34.5" font-family="Helvetica,sans-Serif" font-size="10.00">Batch.doTick</text>
</a>
</g>
</g>
<!-- Node9&#45;&gt;Node10 -->
<g id="edge9" class="edge"><title>Node9&#45;&gt;Node10</title>
<path fill="none" stroke="midnightblue" d="M1463.32,-42.5C1471.79,-42.5 1480.41,-42.5 1488.89,-42.5"/>
<polygon fill="midnightblue" stroke="midnightblue" points="1463.09,-39.0001 1453.09,-42.5 1463.09,-46.0001 1463.09,-39.0001"/>
</g>
<!-- Node11 -->
<g id="node11" class="node"><title>Node11</title>
<g id="a_node11"><a xlink:href="../../dd/da5/classnars_1_1storage_1_1Memory_1_1ReasonerBatch_aed591f05899b98fd9e4ad01836ad0a40.html#aed591f05899b98fd9e4ad01836ad0a40" target="_top" xlink:title="A clock tick. ">
<polygon fill="none" stroke="black" points="1679,-27.5 1679,-57.5 1833,-57.5 1833,-27.5 1679,-27.5"/>
<text text-anchor="start" x="1687" y="-45.5" font-family="Helvetica,sans-Serif" font-size="10.00">nars.storage.Memory.Reasoner</text>
<text text-anchor="middle" x="1756" y="-34.5" font-family="Helvetica,sans-Serif" font-size="10.00">Batch.tick</text>
</a>
</g>
</g>
<!-- Node10&#45;&gt;Node11 -->
<g id="edge10" class="edge"><title>Node10&#45;&gt;Node11</title>
<path fill="none" stroke="midnightblue" d="M1653.42,-42.5C1661.86,-42.5 1670.37,-42.5 1678.7,-42.5"/>
<polygon fill="midnightblue" stroke="midnightblue" points="1653.2,-39.0001 1643.2,-42.5 1653.2,-46.0001 1653.2,-39.0001"/>
</g>
<!-- Node12 -->
<g id="node12" class="node"><title>Node12</title>
<g id="a_node12"><a xlink:href="../../d4/d88/classnars_1_1storage_1_1Memory_1_1NARSBatch_aad99db6cedde9cff2a997db8906ff821.html#aad99db6cedde9cff2a997db8906ff821" target="_top" xlink:title="Run to completion: repeatedly execute NARS working cycle, until Inputs are Finished, or 1000 steps. ">
<polygon fill="none" stroke="black" points="1869,-33 1869,-52 2051,-52 2051,-33 1869,-33"/>
<text text-anchor="middle" x="1960" y="-40" font-family="Helvetica,sans-Serif" font-size="10.00">nars.storage.Memory.NARSBatch.run</text>
</a>
</g>
</g>
<!-- Node11&#45;&gt;Node12 -->
<g id="edge11" class="edge"><title>Node11&#45;&gt;Node12</title>
<path fill="none" stroke="midnightblue" d="M1843.27,-42.5C1851.69,-42.5 1860.25,-42.5 1868.71,-42.5"/>
<polygon fill="midnightblue" stroke="midnightblue" points="1843.08,-39.0001 1833.08,-42.5 1843.08,-46.0001 1843.08,-39.0001"/>
</g>
<!-- Node13 -->
<g id="node13" class="node"><title>Node13</title>
<g id="a_node13"><a xlink:href="../../d4/d88/classnars_1_1storage_1_1Memory_1_1NARSBatch_a416c39463faa161661ed1d12fea03b3c.html#a416c39463faa161661ed1d12fea03b3c" target="_top" xlink:title="non&#45;static equivalent to main(String[]) : run to completion from an input file ">
<polygon fill="none" stroke="black" points="2087,-27.5 2087,-57.5 2269,-57.5 2269,-27.5 2087,-27.5"/>
<text text-anchor="start" x="2095" y="-45.5" font-family="Helvetica,sans-Serif" font-size="10.00">nars.storage.Memory.NARSBatch.run</text>
<text text-anchor="middle" x="2178" y="-34.5" font-family="Helvetica,sans-Serif" font-size="10.00">Inference</text>
</a>
</g>
</g>
<!-- Node12&#45;&gt;Node13 -->
<g id="edge12" class="edge"><title>Node12&#45;&gt;Node13</title>
<path fill="none" stroke="midnightblue" d="M2061.06,-42.5C2069.63,-42.5 2078.27,-42.5 2086.76,-42.5"/>
<polygon fill="midnightblue" stroke="midnightblue" points="2061.04,-39.0001 2051.04,-42.5 2061.04,-46.0001 2061.04,-39.0001"/>
</g>
<!-- Node14 -->
<g id="node14" class="node"><title>Node14</title>
<g id="a_node14"><a xlink:href="../../d4/d88/classnars_1_1storage_1_1Memory_1_1NARSBatch_aa97fcd68270583e60e6bf1b4579d1bdc.html#aa97fcd68270583e60e6bf1b4579d1bdc" target="_top" xlink:title="The entry point of the standalone application. ">
<polygon fill="none" stroke="black" points="2305,-33 2305,-52 2495,-52 2495,-33 2305,-33"/>
<text text-anchor="middle" x="2400" y="-40" font-family="Helvetica,sans-Serif" font-size="10.00">nars.storage.Memory.NARSBatch.main</text>
</a>
</g>
</g>
<!-- Node13&#45;&gt;Node14 -->
<g id="edge13" class="edge"><title>Node13&#45;&gt;Node14</title>
<path fill="none" stroke="midnightblue" d="M2279.37,-42.5C2287.82,-42.5 2296.34,-42.5 2304.74,-42.5"/>
<polygon fill="midnightblue" stroke="midnightblue" points="2279.12,-39.0001 2269.12,-42.5 2279.12,-46.0001 2279.12,-39.0001"/>
</g>
<!-- Node16 -->
<g id="node16" class="node"><title>Node16</title>
<g id="a_node16"><a xlink:href="../../da/de3/classnars_1_1inference_1_1RuleTables_a274b39b31e00ef27ae6baeaad3894a6a.html#a274b39b31e00ef27ae6baeaad3894a6a" target="_top" xlink:title="Inference between a component term (of the current term) and a statement. ">
<polygon fill="none" stroke="black" points="532,-49.5 532,-79.5 714,-79.5 714,-49.5 532,-49.5"/>
<text text-anchor="start" x="540" y="-67.5" font-family="Helvetica,sans-Serif" font-size="10.00">nars.inference.RuleTables.component</text>
<text text-anchor="middle" x="623" y="-56.5" font-family="Helvetica,sans-Serif" font-size="10.00">AndStatement</text>
</a>
</g>
</g>
<!-- Node15&#45;&gt;Node16 -->
<g id="edge15" class="edge"><title>Node15&#45;&gt;Node16</title>
<path fill="none" stroke="midnightblue" d="M506.304,-64.5C514.702,-64.5 523.277,-64.5 531.771,-64.5"/>
<polygon fill="midnightblue" stroke="midnightblue" points="506.163,-61.0001 496.163,-64.5 506.163,-68.0001 506.163,-61.0001"/>
</g>
<!-- Node16&#45;&gt;Node6 -->
<g id="edge16" class="edge"><title>Node16&#45;&gt;Node6</title>
<path fill="none" stroke="midnightblue" d="M724.554,-64.5C738.765,-64.5 753.221,-64.5 766.989,-64.5"/>
<polygon fill="midnightblue" stroke="midnightblue" points="724.262,-61.0001 714.262,-64.5 724.262,-68.0001 724.262,-61.0001"/>
</g>
<!-- Node18 -->
<g id="node18" class="node"><title>Node18</title>
<g id="a_node18"><a xlink:href="../../db/d49/classnars_1_1inference_1_1StructuralRules_a6f7188931508f5b84e6de02301bf798d.html#a6f7188931508f5b84e6de02301bf798d" target="_top" xlink:title="Equivalent transformation between products and images {&lt;(*, S, M) –&gt; P&gt;, S@(*, S, M)} |&#45; &lt;S &#45;&#45;&gt; (/, P, _, M)&gt; {&lt;S &#45;&#45;&gt; (/, P, _, M)&gt;, P@(/, P, _, M)} |&#45; &lt;(*, S, M) –&gt; P&gt; {&lt;S &#45;&#45;&gt; (/, P, _, M)&gt;, M@(/, P, _, M)} |&#45; &lt;M &#45;&#45;&gt; (/, P, S, _)&gt; ">
<polygon fill="none" stroke="black" points="549.5,-0.5 549.5,-30.5 696.5,-30.5 696.5,-0.5 549.5,-0.5"/>
<text text-anchor="start" x="557.5" y="-18.5" font-family="Helvetica,sans-Serif" font-size="10.00">nars.inference.Structural</text>
<text text-anchor="middle" x="623" y="-7.5" font-family="Helvetica,sans-Serif" font-size="10.00">Rules.transformProductImage</text>
</a>
</g>
</g>
<!-- Node17&#45;&gt;Node18 -->
<g id="edge18" class="edge"><title>Node17&#45;&gt;Node18</title>
<path fill="none" stroke="midnightblue" d="M499.135,-15.5C515.602,-15.5 533.056,-15.5 549.478,-15.5"/>
<polygon fill="midnightblue" stroke="midnightblue" points="499.027,-12.0001 489.027,-15.5 499.027,-19.0001 499.027,-12.0001"/>
</g>
<!-- Node19 -->
<g id="node19" class="node"><title>Node19</title>
<g id="a_node19"><a xlink:href="../../da/de3/classnars_1_1inference_1_1RuleTables_a61c932b424464483bd80c783294ab446.html#a61c932b424464483bd80c783294ab446" target="_top" xlink:title="The TaskLink is of type TRANSFORM, and the conclusion is an equivalent transformation. ">
<polygon fill="none" stroke="black" points="750,-12 750,-31 947,-31 947,-12 750,-12"/>
<text text-anchor="middle" x="848.5" y="-19" font-family="Helvetica,sans-Serif" font-size="10.00">nars.inference.RuleTables.transformTask</text>
</a>
</g>
</g>
<!-- Node18&#45;&gt;Node19 -->
<g id="edge19" class="edge"><title>Node18&#45;&gt;Node19</title>
<path fill="none" stroke="midnightblue" d="M706.641,-17.7185C720.658,-18.0949 735.332,-18.4888 749.694,-18.8743"/>
<polygon fill="midnightblue" stroke="midnightblue" points="706.654,-14.2177 696.564,-17.448 706.466,-21.2152 706.654,-14.2177"/>
</g>
<!-- Node19&#45;&gt;Node7 -->
<g id="edge20" class="edge"><title>Node19&#45;&gt;Node7</title>
<path fill="none" stroke="midnightblue" d="M946.459,-32.1049C958.877,-33.4631 971.274,-34.819 982.818,-36.0816"/>
<polygon fill="midnightblue" stroke="midnightblue" points="946.833,-28.625 936.512,-31.0169 946.072,-35.5835 946.833,-28.625"/>
</g>
</g>
</svg>
