<?xml version="1.0" encoding="UTF-8" standalone="no"?>
<!DOCTYPE svg PUBLIC "-//W3C//DTD SVG 1.1//EN"
 "http://www.w3.org/Graphics/SVG/1.1/DTD/svg11.dtd">
<!-- Generated by graphviz version 2.38.0 (20140413.2041)
 -->
<!-- Title: nars.language.ImageInt.ImageInt Pages: 1 -->
<svg width="350pt" height="66pt"
 viewBox="0.00 0.00 350.00 66.00" xmlns="http://www.w3.org/2000/svg" xmlns:xlink="http://www.w3.org/1999/xlink">
<g id="graph0" class="graph" transform="scale(1 1) rotate(0) translate(4 62)">
<title>nars.language.ImageInt.ImageInt</title>
<!-- Node1 -->
<g id="node1" class="node"><title>Node1</title>
<polygon fill="#bfbfbf" stroke="black" points="0,-19.5 0,-38.5 160,-38.5 160,-19.5 0,-19.5"/>
<text text-anchor="middle" x="80" y="-26.5" font-family="Helvetica,sans-Serif" font-size="10.00">nars.language.ImageInt.ImageInt</text>
</g>
<!-- Node2 -->
<g id="node2" class="node"><title>Node2</title>
<g id="a_node2"><a xlink:href="../../df/de3/classnars_1_1language_1_1ImageInt_a926536f74b2950c52901d5299f06c019.html#a926536f74b2950c52901d5299f06c019" target="_top" xlink:title="Clone an object. ">
<polygon fill="none" stroke="black" points="196.5,-38.5 196.5,-57.5 341.5,-57.5 341.5,-38.5 196.5,-38.5"/>
<text text-anchor="middle" x="269" y="-45.5" font-family="Helvetica,sans-Serif" font-size="10.00">nars.language.ImageInt.clone</text>
</a>
</g>
</g>
<!-- Node1&#45;&gt;Node2 -->
<g id="edge1" class="edge"><title>Node1&#45;&gt;Node2</title>
<path fill="none" stroke="midnightblue" d="M169.985,-38.0412C178.834,-38.9403 187.737,-39.8449 196.376,-40.7227"/>
<polygon fill="midnightblue" stroke="midnightblue" points="170.336,-34.559 160.034,-37.0302 169.629,-41.5232 170.336,-34.559"/>
</g>
<!-- Node3 -->
<g id="node3" class="node"><title>Node3</title>
<g id="a_node3"><a xlink:href="../../df/de3/classnars_1_1language_1_1ImageInt_a6c80d27670942b32acff9f9a9f7c29aa.html#a6c80d27670942b32acff9f9a9f7c29aa" target="_top" xlink:title="Try to make a new compound from a set of components. ">
<polygon fill="none" stroke="black" points="196,-0.5 196,-19.5 342,-19.5 342,-0.5 196,-0.5"/>
<text text-anchor="middle" x="269" y="-7.5" font-family="Helvetica,sans-Serif" font-size="10.00">nars.language.ImageInt.make</text>
</a>
</g>
</g>
<!-- Node1&#45;&gt;Node3 -->
<g id="edge2" class="edge"><title>Node1&#45;&gt;Node3</title>
<path fill="none" stroke="midnightblue" d="M170.1,-19.947C178.71,-19.0722 187.37,-18.1924 195.786,-17.3372"/>
<polygon fill="midnightblue" stroke="midnightblue" points="169.629,-16.4768 160.034,-20.9698 170.336,-23.441 169.629,-16.4768"/>
</g>
</g>
</svg>
