<?xml version="1.0" encoding="UTF-8" standalone="no"?>
<!DOCTYPE svg PUBLIC "-//W3C//DTD SVG 1.1//EN"
 "http://www.w3.org/Graphics/SVG/1.1/DTD/svg11.dtd">
<!-- Generated by graphviz version 2.38.0 (20140413.2041)
 -->
<!-- Title: nars.language.Inheritance Pages: 1 -->
<!--zoomable 1080 -->
<svg id="main" version="1.1" xmlns="http://www.w3.org/2000/svg" xmlns:xlink="http://www.w3.org/1999/xlink" xml:space="preserve" onload="init(evt)">
<style type="text/css"><![CDATA[
.edge:hover path { stroke: red; }
.edge:hover polygon { stroke: red; fill: red; }
]]></style>
<script type="text/javascript"><![CDATA[
var edges = document.getElementsByTagName('g');
if (edges && edges.length) {
  for (var i=0;i<edges.length;i++) {
    if (edges[i].id.substr(0,4)=='edge') {
      edges[i].setAttribute('class','edge');
    }
  }
}
]]></script>
        <defs>
                <circle id="rim" cx="0" cy="0" r="7"/>
                <circle id="rim2" cx="0" cy="0" r="3.5"/>
                <g id="zoomPlus">
                        <use xlink:href="#rim" fill="#404040">
                                <set attributeName="fill" to="#808080" begin="zoomplus.mouseover" end="zoomplus.mouseout"/>
                        </use>
                        <path d="M-4,0h8M0,-4v8" fill="none" stroke="white" stroke-width="1.5" pointer-events="none"/>
                </g>
                <g id="zoomMin">
                        <use xlink:href="#rim" fill="#404040">
                                <set attributeName="fill" to="#808080" begin="zoomminus.mouseover" end="zoomminus.mouseout"/>
                        </use>
                        <path d="M-4,0h8" fill="none" stroke="white" stroke-width="1.5" pointer-events="none"/>
                </g>
                <g id="dirArrow">
                        <path fill="none" stroke="white" stroke-width="1.5" d="M0,-3.0v7 M-2.5,-0.5L0,-3.0L2.5,-0.5"/>
                </g>
               <g id="resetDef">
                       <use xlink:href="#rim2" fill="#404040">
                               <set attributeName="fill" to="#808080" begin="reset.mouseover" end="reset.mouseout"/>
                       </use>
               </g>
        </defs>

<script type="text/javascript">
var viewWidth = 280;
var viewHeight = 1080;
var sectionId = 'dynsection-0';
</script>
<script xlink:href="../../svgpan.js"/>
<svg id="graph" class="graph">
<g id="viewport">
<title>nars.language.Inheritance</title>
<!-- Node1 -->
<g id="node1" class="node"><title>Node1</title>
<polygon fill="#bfbfbf" stroke="black" points="69,-0.5 69,-101.5 197,-101.5 197,-0.5 69,-0.5"/>
<text text-anchor="middle" x="133" y="-89.5" font-family="Helvetica,sans-Serif" font-size="10.00">nars.language.Inheritance</text>
<polyline fill="none" stroke="black" points="69,-82.5 197,-82.5 "/>
<text text-anchor="middle" x="133" y="-70.5" font-family="Helvetica,sans-Serif" font-size="10.00"> </text>
<polyline fill="none" stroke="black" points="69,-63.5 197,-63.5 "/>
<text text-anchor="start" x="77" y="-51.5" font-family="Helvetica,sans-Serif" font-size="10.00">+ clone()</text>
<text text-anchor="start" x="77" y="-40.5" font-family="Helvetica,sans-Serif" font-size="10.00">+ operator()</text>
<text text-anchor="start" x="77" y="-29.5" font-family="Helvetica,sans-Serif" font-size="10.00">+ make()</text>
<text text-anchor="start" x="77" y="-18.5" font-family="Helvetica,sans-Serif" font-size="10.00">&#45; Inheritance()</text>
<text text-anchor="start" x="77" y="-7.5" font-family="Helvetica,sans-Serif" font-size="10.00">&#45; Inheritance()</text>
</g>
<!-- Node2 -->
<g id="node2" class="node"><title>Node2</title>
<g id="a_node2"><a xlink:href="../../d1/d5e/classnars_1_1language_1_1Statement.html" target="_top" xlink:title="A statement is a compound term, consisting of a subject, a predicate, and a relation symbol in betwee...">
<polygon fill="none" stroke="black" points="70,-138.5 70,-327.5 196,-327.5 196,-138.5 70,-138.5"/>
<text text-anchor="middle" x="133" y="-315.5" font-family="Helvetica,sans-Serif" font-size="10.00">nars.language.Statement</text>
<polyline fill="none" stroke="black" points="70,-308.5 196,-308.5 "/>
<text text-anchor="middle" x="133" y="-296.5" font-family="Helvetica,sans-Serif" font-size="10.00"> </text>
<polyline fill="none" stroke="black" points="70,-289.5 196,-289.5 "/>
<text text-anchor="start" x="78" y="-277.5" font-family="Helvetica,sans-Serif" font-size="10.00">+ invalid()</text>
<text text-anchor="start" x="78" y="-266.5" font-family="Helvetica,sans-Serif" font-size="10.00">+ getSubject()</text>
<text text-anchor="start" x="78" y="-255.5" font-family="Helvetica,sans-Serif" font-size="10.00">+ getPredicate()</text>
<text text-anchor="start" x="78" y="-244.5" font-family="Helvetica,sans-Serif" font-size="10.00">+ make()</text>
<text text-anchor="start" x="78" y="-233.5" font-family="Helvetica,sans-Serif" font-size="10.00">+ make()</text>
<text text-anchor="start" x="78" y="-222.5" font-family="Helvetica,sans-Serif" font-size="10.00">+ makeSym()</text>
<text text-anchor="start" x="78" y="-211.5" font-family="Helvetica,sans-Serif" font-size="10.00">+ isRelation()</text>
<text text-anchor="start" x="78" y="-200.5" font-family="Helvetica,sans-Serif" font-size="10.00">+ invalidStatement()</text>
<text text-anchor="start" x="78" y="-189.5" font-family="Helvetica,sans-Serif" font-size="10.00"># Statement()</text>
<text text-anchor="start" x="78" y="-178.5" font-family="Helvetica,sans-Serif" font-size="10.00"># Statement()</text>
<text text-anchor="start" x="78" y="-167.5" font-family="Helvetica,sans-Serif" font-size="10.00"># Statement()</text>
<text text-anchor="start" x="78" y="-156.5" font-family="Helvetica,sans-Serif" font-size="10.00"># makeName()</text>
<text text-anchor="start" x="78" y="-145.5" font-family="Helvetica,sans-Serif" font-size="10.00"># makeStatementName()</text>
</a>
</g>
</g>
<!-- Node2&#45;&gt;Node1 -->
<g id="edge1" class="edge"><title>Node2&#45;&gt;Node1</title>
<path fill="none" stroke="midnightblue" d="M133,-128.274C133,-119.08 133,-110.081 133,-101.673"/>
<polygon fill="none" stroke="midnightblue" points="129.5,-128.309 133,-138.31 136.5,-128.31 129.5,-128.309"/>
</g>
<!-- Node3 -->
<g id="node3" class="node"><title>Node3</title>
<g id="a_node3"><a xlink:href="../../d0/dee/classnars_1_1language_1_1CompoundTerm.html" target="_top" xlink:title="A CompoundTerm is a Term with internal (syntactic) structure. ">
<polygon fill="none" stroke="black" points="58,-364.5 58,-751.5 208,-751.5 208,-364.5 58,-364.5"/>
<text text-anchor="middle" x="133" y="-739.5" font-family="Helvetica,sans-Serif" font-size="10.00">nars.language.CompoundTerm</text>
<polyline fill="none" stroke="black" points="58,-732.5 208,-732.5 "/>
<text text-anchor="start" x="66" y="-720.5" font-family="Helvetica,sans-Serif" font-size="10.00"># components</text>
<text text-anchor="start" x="66" y="-709.5" font-family="Helvetica,sans-Serif" font-size="10.00"># complexity</text>
<text text-anchor="start" x="66" y="-698.5" font-family="Helvetica,sans-Serif" font-size="10.00"># isConstant</text>
<polyline fill="none" stroke="black" points="58,-691.5 208,-691.5 "/>
<text text-anchor="start" x="66" y="-679.5" font-family="Helvetica,sans-Serif" font-size="10.00">+ operator()</text>
<text text-anchor="start" x="66" y="-668.5" font-family="Helvetica,sans-Serif" font-size="10.00">+ clone()</text>
<text text-anchor="start" x="66" y="-657.5" font-family="Helvetica,sans-Serif" font-size="10.00">+ setName()</text>
<text text-anchor="start" x="66" y="-646.5" font-family="Helvetica,sans-Serif" font-size="10.00">+ getComplexity()</text>
<text text-anchor="start" x="66" y="-635.5" font-family="Helvetica,sans-Serif" font-size="10.00">+ isConstant()</text>
<text text-anchor="start" x="66" y="-624.5" font-family="Helvetica,sans-Serif" font-size="10.00">+ setConstant()</text>
<text text-anchor="start" x="66" y="-613.5" font-family="Helvetica,sans-Serif" font-size="10.00">+ isCommutative()</text>
<text text-anchor="start" x="66" y="-602.5" font-family="Helvetica,sans-Serif" font-size="10.00">+ size()</text>
<text text-anchor="start" x="66" y="-591.5" font-family="Helvetica,sans-Serif" font-size="10.00">+ componentAt()</text>
<text text-anchor="start" x="66" y="-580.5" font-family="Helvetica,sans-Serif" font-size="10.00">+ getComponents()</text>
<text text-anchor="start" x="66" y="-569.5" font-family="Helvetica,sans-Serif" font-size="10.00">and 9 more...</text>
<text text-anchor="start" x="66" y="-558.5" font-family="Helvetica,sans-Serif" font-size="10.00">+ make()</text>
<text text-anchor="start" x="66" y="-547.5" font-family="Helvetica,sans-Serif" font-size="10.00">+ make()</text>
<text text-anchor="start" x="66" y="-536.5" font-family="Helvetica,sans-Serif" font-size="10.00">+ isOperator()</text>
<text text-anchor="start" x="66" y="-525.5" font-family="Helvetica,sans-Serif" font-size="10.00">+ cloneList()</text>
<text text-anchor="start" x="66" y="-514.5" font-family="Helvetica,sans-Serif" font-size="10.00">+ addComponents()</text>
<text text-anchor="start" x="66" y="-503.5" font-family="Helvetica,sans-Serif" font-size="10.00">+ reduceComponents()</text>
<text text-anchor="start" x="66" y="-492.5" font-family="Helvetica,sans-Serif" font-size="10.00">+ setComponent()</text>
<text text-anchor="start" x="66" y="-481.5" font-family="Helvetica,sans-Serif" font-size="10.00"># CompoundTerm()</text>
<text text-anchor="start" x="66" y="-470.5" font-family="Helvetica,sans-Serif" font-size="10.00"># CompoundTerm()</text>
<text text-anchor="start" x="66" y="-459.5" font-family="Helvetica,sans-Serif" font-size="10.00"># CompoundTerm()</text>
<text text-anchor="start" x="66" y="-448.5" font-family="Helvetica,sans-Serif" font-size="10.00"># CompoundTerm()</text>
<text text-anchor="start" x="66" y="-437.5" font-family="Helvetica,sans-Serif" font-size="10.00"># makeName()</text>
<text text-anchor="start" x="66" y="-426.5" font-family="Helvetica,sans-Serif" font-size="10.00"># argumentsToList()</text>
<text text-anchor="start" x="66" y="-415.5" font-family="Helvetica,sans-Serif" font-size="10.00"># makeCompoundName()</text>
<text text-anchor="start" x="66" y="-404.5" font-family="Helvetica,sans-Serif" font-size="10.00"># makeSetName()</text>
<text text-anchor="start" x="66" y="-393.5" font-family="Helvetica,sans-Serif" font-size="10.00"># makeImageName()</text>
<text text-anchor="start" x="66" y="-382.5" font-family="Helvetica,sans-Serif" font-size="10.00">&#45; calcComplexity()</text>
<text text-anchor="start" x="66" y="-371.5" font-family="Helvetica,sans-Serif" font-size="10.00">&#45; prepareComponentLinks()</text>
</a>
</g>
</g>
<!-- Node3&#45;&gt;Node2 -->
<g id="edge2" class="edge"><title>Node3&#45;&gt;Node2</title>
<path fill="none" stroke="midnightblue" d="M133,-354.204C133,-345.196 133,-336.372 133,-327.854"/>
<polygon fill="none" stroke="midnightblue" points="129.5,-354.445 133,-364.445 136.5,-354.445 129.5,-354.445"/>
</g>
<!-- Node4 -->
<g id="node4" class="node"><title>Node4</title>
<g id="a_node4"><a xlink:href="../../d8/db8/classnars_1_1language_1_1Term.html" target="_top" xlink:title="Term is the basic component of Narsese, and the object of processing in NARS. ">
<polygon fill="none" stroke="black" points="81,-788.5 81,-977.5 185,-977.5 185,-788.5 81,-788.5"/>
<text text-anchor="middle" x="133" y="-965.5" font-family="Helvetica,sans-Serif" font-size="10.00">nars.language.Term</text>
<polyline fill="none" stroke="black" points="81,-958.5 185,-958.5 "/>
<text text-anchor="start" x="89" y="-946.5" font-family="Helvetica,sans-Serif" font-size="10.00"># name</text>
<polyline fill="none" stroke="black" points="81,-939.5 185,-939.5 "/>
<text text-anchor="start" x="89" y="-927.5" font-family="Helvetica,sans-Serif" font-size="10.00">+ Term()</text>
<text text-anchor="start" x="89" y="-916.5" font-family="Helvetica,sans-Serif" font-size="10.00">+ getName()</text>
<text text-anchor="start" x="89" y="-905.5" font-family="Helvetica,sans-Serif" font-size="10.00">+ setName()</text>
<text text-anchor="start" x="89" y="-894.5" font-family="Helvetica,sans-Serif" font-size="10.00">+ clone()</text>
<text text-anchor="start" x="89" y="-883.5" font-family="Helvetica,sans-Serif" font-size="10.00">+ equals()</text>
<text text-anchor="start" x="89" y="-872.5" font-family="Helvetica,sans-Serif" font-size="10.00">+ hashCode()</text>
<text text-anchor="start" x="89" y="-861.5" font-family="Helvetica,sans-Serif" font-size="10.00">+ isConstant()</text>
<text text-anchor="start" x="89" y="-850.5" font-family="Helvetica,sans-Serif" font-size="10.00">+ renameVariables()</text>
<text text-anchor="start" x="89" y="-839.5" font-family="Helvetica,sans-Serif" font-size="10.00">+ getComplexity()</text>
<text text-anchor="start" x="89" y="-828.5" font-family="Helvetica,sans-Serif" font-size="10.00">+ compareTo()</text>
<text text-anchor="start" x="89" y="-817.5" font-family="Helvetica,sans-Serif" font-size="10.00">+ containTerm()</text>
<text text-anchor="start" x="89" y="-806.5" font-family="Helvetica,sans-Serif" font-size="10.00">+ toString()</text>
<text text-anchor="start" x="89" y="-795.5" font-family="Helvetica,sans-Serif" font-size="10.00"># Term()</text>
</a>
</g>
</g>
<!-- Node4&#45;&gt;Node3 -->
<g id="edge3" class="edge"><title>Node4&#45;&gt;Node3</title>
<path fill="none" stroke="midnightblue" d="M133,-778.109C133,-769.458 133,-760.553 133,-751.514"/>
<polygon fill="none" stroke="midnightblue" points="129.5,-778.141 133,-788.141 136.5,-778.141 129.5,-778.141"/>
</g>
<!-- Node5 -->
<g id="node5" class="node"><title>Node5</title>
<polygon fill="none" stroke="#bfbfbf" points="0,-1014.5 0,-1071.5 60,-1071.5 60,-1014.5 0,-1014.5"/>
<text text-anchor="middle" x="30" y="-1059.5" font-family="Helvetica,sans-Serif" font-size="10.00">Cloneable</text>
<polyline fill="none" stroke="#bfbfbf" points="0,-1052.5 60,-1052.5 "/>
<text text-anchor="middle" x="30" y="-1040.5" font-family="Helvetica,sans-Serif" font-size="10.00"> </text>
<polyline fill="none" stroke="#bfbfbf" points="0,-1033.5 60,-1033.5 "/>
<text text-anchor="middle" x="30" y="-1021.5" font-family="Helvetica,sans-Serif" font-size="10.00"> </text>
</g>
<!-- Node5&#45;&gt;Node4 -->
<g id="edge4" class="edge"><title>Node5&#45;&gt;Node4</title>
<path fill="none" stroke="midnightblue" d="M53.4158,-1006.08C61.6675,-993.423 71.3048,-978.639 80.9672,-963.817"/>
<polygon fill="none" stroke="midnightblue" points="50.4703,-1004.19 47.9412,-1014.48 56.3343,-1008.01 50.4703,-1004.19"/>
</g>
<!-- Node6 -->
<g id="node6" class="node"><title>Node6</title>
<polygon fill="none" stroke="#bfbfbf" points="78,-1014.5 78,-1071.5 188,-1071.5 188,-1014.5 78,-1014.5"/>
<text text-anchor="middle" x="133" y="-1059.5" font-family="Helvetica,sans-Serif" font-size="10.00">Comparable&lt; Term &gt;</text>
<polyline fill="none" stroke="#bfbfbf" points="78,-1052.5 188,-1052.5 "/>
<text text-anchor="middle" x="133" y="-1040.5" font-family="Helvetica,sans-Serif" font-size="10.00"> </text>
<polyline fill="none" stroke="#bfbfbf" points="78,-1033.5 188,-1033.5 "/>
<text text-anchor="middle" x="133" y="-1021.5" font-family="Helvetica,sans-Serif" font-size="10.00"> </text>
</g>
<!-- Node6&#45;&gt;Node4 -->
<g id="edge5" class="edge"><title>Node6&#45;&gt;Node4</title>
<path fill="none" stroke="midnightblue" d="M133,-1004.22C133,-996.012 133,-986.986 133,-977.678"/>
<polygon fill="none" stroke="midnightblue" points="129.5,-1004.48 133,-1014.48 136.5,-1004.48 129.5,-1004.48"/>
</g>
<!-- Node7 -->
<g id="node7" class="node"><title>Node7</title>
<polygon fill="none" stroke="#bfbfbf" points="206.5,-1014.5 206.5,-1071.5 271.5,-1071.5 271.5,-1014.5 206.5,-1014.5"/>
<text text-anchor="middle" x="239" y="-1059.5" font-family="Helvetica,sans-Serif" font-size="10.00">TermStruct</text>
<polyline fill="none" stroke="#bfbfbf" points="206.5,-1052.5 271.5,-1052.5 "/>
<text text-anchor="middle" x="239" y="-1040.5" font-family="Helvetica,sans-Serif" font-size="10.00"> </text>
<polyline fill="none" stroke="#bfbfbf" points="206.5,-1033.5 271.5,-1033.5 "/>
<text text-anchor="middle" x="239" y="-1021.5" font-family="Helvetica,sans-Serif" font-size="10.00"> </text>
</g>
<!-- Node7&#45;&gt;Node4 -->
<g id="edge6" class="edge"><title>Node7&#45;&gt;Node4</title>
<path fill="none" stroke="midnightblue" d="M214.937,-1006.13C206.048,-992.883 195.593,-977.299 185.18,-961.778"/>
<polygon fill="none" stroke="midnightblue" points="212.058,-1008.12 220.536,-1014.48 217.871,-1004.22 212.058,-1008.12"/>
</g>
</g>
</svg>
        <g id="navigator" transform="translate(0 0)" fill="#404254">
                <rect fill="#f2f5e9" fill-opacity="0.5" stroke="#606060" stroke-width=".5" x="0" y="0" width="60" height="60"/>
                <use id="zoomplus" xlink:href="#zoomPlus" x="17" y="9" onmousedown="handleZoom(evt,'in')"/>
                <use id="zoomminus" xlink:href="#zoomMin" x="42" y="9" onmousedown="handleZoom(evt,'out')"/>
                <use id="reset" xlink:href="#resetDef" x="30" y="36" onmousedown="handleReset()"/>
                <g id="arrowUp" xlink:href="#dirArrow" transform="translate(30 24)" onmousedown="handlePan(0,-1)">
                  <use xlink:href="#rim" fill="#404040">
                        <set attributeName="fill" to="#808080" begin="arrowUp.mouseover" end="arrowUp.mouseout"/>
                  </use>
                  <path fill="none" stroke="white" stroke-width="1.5" d="M0,-3.0v7 M-2.5,-0.5L0,-3.0L2.5,-0.5"/>
                </g>
                <g id="arrowRight" xlink:href="#dirArrow" transform="rotate(90) translate(36 -43)" onmousedown="handlePan(1,0)">
                  <use xlink:href="#rim" fill="#404040">
                        <set attributeName="fill" to="#808080" begin="arrowRight.mouseover" end="arrowRight.mouseout"/>
                  </use>
                  <path fill="none" stroke="white" stroke-width="1.5" d="M0,-3.0v7 M-2.5,-0.5L0,-3.0L2.5,-0.5"/>
                </g>
                <g id="arrowDown" xlink:href="#dirArrow" transform="rotate(180) translate(-30 -48)" onmousedown="handlePan(0,1)">
                  <use xlink:href="#rim" fill="#404040">
                        <set attributeName="fill" to="#808080" begin="arrowDown.mouseover" end="arrowDown.mouseout"/>
                  </use>
                  <path fill="none" stroke="white" stroke-width="1.5" d="M0,-3.0v7 M-2.5,-0.5L0,-3.0L2.5,-0.5"/>
                </g>
                <g id="arrowLeft" xlink:href="#dirArrow" transform="rotate(270) translate(-36 17)" onmousedown="handlePan(-1,0)">
                  <use xlink:href="#rim" fill="#404040">
                        <set attributeName="fill" to="#808080" begin="arrowLeft.mouseover" end="arrowLeft.mouseout"/>
                  </use>
                  <path fill="none" stroke="white" stroke-width="1.5" d="M0,-3.0v7 M-2.5,-0.5L0,-3.0L2.5,-0.5"/>
                </g>
        </g>
        <svg viewBox="0 0 15 15" width="100%" height="30px" preserveAspectRatio="xMaxYMin meet">
         <g id="arrow_out" transform="scale(0.3 0.3)">
          <a xlink:href="classnars_1_1language_1_1Inheritance__inherit__graph_org.svg" target="_base">
           <rect id="button" ry="5" rx="5" y="6" x="6" height="38" width="38"
                fill="#f2f5e9" fill-opacity="0.5" stroke="#606060" stroke-width="1.0"/>
           <path id="arrow"
             d="M 11.500037,31.436501 C 11.940474,20.09759 22.043105,11.32322 32.158766,21.979434 L 37.068811,17.246167 C 37.068811,17.246167 37.088388,32 37.088388,32 L 22.160133,31.978069 C 22.160133,31.978069 26.997745,27.140456 26.997745,27.140456 C 18.528582,18.264221 13.291696,25.230495 11.500037,31.436501 z"
             style="fill:#404040;"/>
          </a>
         </g>
        </svg>
</svg>
