<?xml version="1.0" encoding="UTF-8" standalone="no"?>
<!DOCTYPE svg PUBLIC "-//W3C//DTD SVG 1.1//EN"
 "http://www.w3.org/Graphics/SVG/1.1/DTD/svg11.dtd">
<!-- Generated by graphviz version 2.38.0 (20140413.2041)
 -->
<!-- Title: nars.entity.EntityObserver.post Pages: 1 -->
<svg width="340pt" height="66pt"
 viewBox="0.00 0.00 340.00 66.00" xmlns="http://www.w3.org/2000/svg" xmlns:xlink="http://www.w3.org/1999/xlink">
<g id="graph0" class="graph" transform="scale(1 1) rotate(0) translate(4 62)">
<title>nars.entity.EntityObserver.post</title>
<!-- Node1 -->
<g id="node1" class="node"><title>Node1</title>
<polygon fill="#bfbfbf" stroke="black" points="0,-19.5 0,-38.5 152,-38.5 152,-19.5 0,-19.5"/>
<text text-anchor="middle" x="76" y="-26.5" font-family="Helvetica,sans-Serif" font-size="10.00">nars.entity.EntityObserver.post</text>
</g>
<!-- Node2 -->
<g id="node2" class="node"><title>Node2</title>
<g id="a_node2"><a xlink:href="../../d4/d22/classnars_1_1entity_1_1Concept_add08a37b7cf7b272838532c942c083a4.html#add08a37b7cf7b272838532c942c083a4" target="_top" xlink:title="Resume display, called from ConceptWindow only. ">
<polygon fill="none" stroke="black" points="198.5,-38.5 198.5,-57.5 321.5,-57.5 321.5,-38.5 198.5,-38.5"/>
<text text-anchor="middle" x="260" y="-45.5" font-family="Helvetica,sans-Serif" font-size="10.00">nars.entity.Concept.play</text>
</a>
</g>
</g>
<!-- Node1&#45;&gt;Node2 -->
<g id="edge1" class="edge"><title>Node1&#45;&gt;Node2</title>
<path fill="none" stroke="midnightblue" d="M162.236,-37.8983C174.392,-39.1673 186.686,-40.4507 198.244,-41.6574"/>
<polygon fill="midnightblue" stroke="midnightblue" points="162.387,-34.395 152.077,-36.8377 161.66,-41.3572 162.387,-34.395"/>
</g>
<!-- Node3 -->
<g id="node3" class="node"><title>Node3</title>
<g id="a_node3"><a xlink:href="../../d4/d22/classnars_1_1entity_1_1Concept_a5a010290c8c42603dd13387f415abf43.html#a5a010290c8c42603dd13387f415abf43" target="_top" xlink:title="Start displaying contents and links, called from ConceptWindow, TermWindow or Memory.processTask only. ">
<polygon fill="none" stroke="black" points="188,-0.5 188,-19.5 332,-19.5 332,-0.5 188,-0.5"/>
<text text-anchor="middle" x="260" y="-7.5" font-family="Helvetica,sans-Serif" font-size="10.00">nars.entity.Concept.startPlay</text>
</a>
</g>
</g>
<!-- Node1&#45;&gt;Node3 -->
<g id="edge2" class="edge"><title>Node1&#45;&gt;Node3</title>
<path fill="none" stroke="midnightblue" d="M162.144,-20.1114C170.762,-19.2117 179.451,-18.3046 187.899,-17.4226"/>
<polygon fill="midnightblue" stroke="midnightblue" points="161.66,-16.6428 152.077,-21.1623 162.387,-23.605 161.66,-16.6428"/>
</g>
</g>
</svg>
