<?xml version="1.0" encoding="UTF-8" standalone="no"?>
<!DOCTYPE svg PUBLIC "-//W3C//DTD SVG 1.1//EN"
 "http://www.w3.org/Graphics/SVG/1.1/DTD/svg11.dtd">
<!-- Generated by graphviz version 2.38.0 (20140413.2041)
 -->
<!-- Title: nars.io.StringParser.showWarning Pages: 1 -->
<svg width="869pt" height="152pt"
 viewBox="0.00 0.00 869.00 151.94" xmlns="http://www.w3.org/2000/svg" xmlns:xlink="http://www.w3.org/1999/xlink">
<g id="graph0" class="graph" transform="scale(1 1) rotate(0) translate(4 147.943)">
<title>nars.io.StringParser.showWarning</title>
<!-- Node1 -->
<g id="node1" class="node"><title>Node1</title>
<polygon fill="#bfbfbf" stroke="black" points="0,-89.4427 0,-119.443 129,-119.443 129,-89.4427 0,-89.4427"/>
<text text-anchor="start" x="8" y="-107.443" font-family="Helvetica,sans-Serif" font-size="10.00">nars.io.StringParser.show</text>
<text text-anchor="middle" x="64.5" y="-96.4427" font-family="Helvetica,sans-Serif" font-size="10.00">Warning</text>
</g>
<!-- Node2 -->
<g id="node2" class="node"><title>Node2</title>
<g id="a_node2"><a xlink:href="../../d3/dca/classnars_1_1io_1_1StringParser_a75b446999d71c676a9915ecc75077a7d.html#a75b446999d71c676a9915ecc75077a7d" target="_top" xlink:title="Enter a new Task in String into the memory, called from InputWindow or locally. ">
<polygon fill="none" stroke="black" points="353,-118.943 353,-137.943 505,-137.943 505,-118.943 353,-118.943"/>
<text text-anchor="middle" x="429" y="-125.943" font-family="Helvetica,sans-Serif" font-size="10.00">nars.io.StringParser.parseTask</text>
</a>
</g>
</g>
<!-- Node1&#45;&gt;Node2 -->
<g id="edge1" class="edge"><title>Node1&#45;&gt;Node2</title>
<path fill="none" stroke="midnightblue" d="M139.2,-109.322C201.463,-113.444 290.253,-119.323 352.907,-123.471"/>
<polygon fill="midnightblue" stroke="midnightblue" points="139.267,-105.819 129.057,-108.651 138.804,-112.804 139.267,-105.819"/>
</g>
<!-- Node5 -->
<g id="node5" class="node"><title>Node5</title>
<g id="a_node5"><a xlink:href="../../d3/dca/classnars_1_1io_1_1StringParser_a5c31494d6f7862dcf15a4d5716b6200e.html#a5c31494d6f7862dcf15a4d5716b6200e" target="_top" xlink:title="Top&#45;level method that parse a Term in general, which may recursively call itself. ...">
<polygon fill="none" stroke="black" points="165,-74.9427 165,-93.9427 317,-93.9427 317,-74.9427 165,-74.9427"/>
<text text-anchor="middle" x="241" y="-81.9427" font-family="Helvetica,sans-Serif" font-size="10.00">nars.io.StringParser.parseTerm</text>
</a>
</g>
</g>
<!-- Node1&#45;&gt;Node5 -->
<g id="edge4" class="edge"><title>Node1&#45;&gt;Node5</title>
<path fill="none" stroke="midnightblue" d="M139.564,-95.954C147.91,-94.9974 156.421,-94.022 164.782,-93.0637"/>
<polygon fill="midnightblue" stroke="midnightblue" points="139.023,-92.493 129.486,-97.109 139.82,-99.4475 139.023,-92.493"/>
</g>
<!-- Node3 -->
<g id="node3" class="node"><title>Node3</title>
<g id="a_node3"><a xlink:href="../../d3/dca/classnars_1_1io_1_1StringParser_a37ff864d959aba58138170a3f9a3e7c8.html#a37ff864d959aba58138170a3f9a3e7c8" target="_top" xlink:title="Parse a line of input experience. ">
<polygon fill="none" stroke="black" points="541,-113.443 541,-143.443 671,-143.443 671,-113.443 541,-113.443"/>
<text text-anchor="start" x="549" y="-131.443" font-family="Helvetica,sans-Serif" font-size="10.00">nars.io.StringParser.parse</text>
<text text-anchor="middle" x="606" y="-120.443" font-family="Helvetica,sans-Serif" font-size="10.00">Experience</text>
</a>
</g>
</g>
<!-- Node2&#45;&gt;Node3 -->
<g id="edge2" class="edge"><title>Node2&#45;&gt;Node3</title>
<path fill="none" stroke="midnightblue" d="M515.289,-128.443C523.885,-128.443 532.509,-128.443 540.83,-128.443"/>
<polygon fill="midnightblue" stroke="midnightblue" points="515.231,-124.943 505.231,-128.443 515.231,-131.943 515.231,-124.943"/>
</g>
<!-- Node4 -->
<g id="node4" class="node"><title>Node4</title>
<g id="a_node4"><a xlink:href="../../dd/da5/classnars_1_1storage_1_1Memory_1_1ReasonerBatch_a2f22be33d98b4366712ff91b93c2be8a.html#a2f22be33d98b4366712ff91b93c2be8a" target="_top" xlink:title="To process a line of input text. ">
<polygon fill="none" stroke="black" points="707,-113.443 707,-143.443 861,-143.443 861,-113.443 707,-113.443"/>
<text text-anchor="start" x="715" y="-131.443" font-family="Helvetica,sans-Serif" font-size="10.00">nars.storage.Memory.Reasoner</text>
<text text-anchor="middle" x="784" y="-120.443" font-family="Helvetica,sans-Serif" font-size="10.00">Batch.textInputLine</text>
</a>
</g>
</g>
<!-- Node3&#45;&gt;Node4 -->
<g id="edge3" class="edge"><title>Node3&#45;&gt;Node4</title>
<path fill="none" stroke="midnightblue" d="M681.225,-128.443C689.664,-128.443 698.276,-128.443 706.742,-128.443"/>
<polygon fill="midnightblue" stroke="midnightblue" points="681.038,-124.943 671.038,-128.443 681.038,-131.943 681.038,-124.943"/>
</g>
<!-- Node5&#45;&gt;Node2 -->
<g id="edge11" class="edge"><title>Node5&#45;&gt;Node2</title>
<path fill="none" stroke="midnightblue" d="M292.205,-96.3192C322.167,-103.407 359.708,-112.288 387.72,-118.914"/>
<polygon fill="midnightblue" stroke="midnightblue" points="292.896,-92.8862 282.359,-93.9901 291.285,-99.6982 292.896,-92.8862"/>
</g>
<!-- Node6 -->
<g id="node6" class="node"><title>Node6</title>
<g id="a_node6"><a xlink:href="../../d3/dca/classnars_1_1io_1_1StringParser_a7a11182c36a2fae68be8952110f47570.html#a7a11182c36a2fae68be8952110f47570" target="_top" xlink:title="Parse a String into the argument get of a CompoundTerm. ">
<polygon fill="none" stroke="black" points="364,-69.4427 364,-99.4427 494,-99.4427 494,-69.4427 364,-69.4427"/>
<text text-anchor="start" x="372" y="-87.4427" font-family="Helvetica,sans-Serif" font-size="10.00">nars.io.StringParser.parse</text>
<text text-anchor="middle" x="429" y="-76.4427" font-family="Helvetica,sans-Serif" font-size="10.00">Arguments</text>
</a>
</g>
</g>
<!-- Node5&#45;&gt;Node6 -->
<g id="edge5" class="edge"><title>Node5&#45;&gt;Node6</title>
<path fill="none" stroke="midnightblue" d="M327.387,-77.7129C339.685,-77.6477 352.163,-77.7408 363.951,-77.9922"/>
<polygon fill="midnightblue" stroke="midnightblue" points="327.085,-74.2153 317.117,-77.8049 327.148,-81.2151 327.085,-74.2153"/>
</g>
<!-- Node8 -->
<g id="node8" class="node"><title>Node8</title>
<g id="a_node8"><a xlink:href="../../d3/dca/classnars_1_1io_1_1StringParser_a7c129938c8d721e3db0a9804988f0588.html#a7c129938c8d721e3db0a9804988f0588" target="_top" xlink:title="Parse a String to create a Statement. ">
<polygon fill="none" stroke="black" points="364,-20.4427 364,-50.4427 494,-50.4427 494,-20.4427 364,-20.4427"/>
<text text-anchor="start" x="372" y="-38.4427" font-family="Helvetica,sans-Serif" font-size="10.00">nars.io.StringParser.parse</text>
<text text-anchor="middle" x="429" y="-27.4427" font-family="Helvetica,sans-Serif" font-size="10.00">Statement</text>
</a>
</g>
</g>
<!-- Node5&#45;&gt;Node8 -->
<g id="edge9" class="edge"><title>Node5&#45;&gt;Node8</title>
<path fill="none" stroke="midnightblue" d="M271.43,-71.6037C296.161,-63.5115 332.394,-53.5101 363.778,-45.9073"/>
<polygon fill="midnightblue" stroke="midnightblue" points="270.255,-68.3063 261.905,-74.8285 272.5,-74.9366 270.255,-68.3063"/>
</g>
<!-- Node6&#45;&gt;Node5 -->
<g id="edge8" class="edge"><title>Node6&#45;&gt;Node5</title>
<path fill="none" stroke="midnightblue" d="M353.906,-91.0672C341.8,-91.23 329.248,-91.2345 317.117,-91.0806"/>
<polygon fill="midnightblue" stroke="midnightblue" points="354.013,-94.566 363.951,-90.8932 353.892,-87.567 354.013,-94.566"/>
</g>
<!-- Node7 -->
<g id="node7" class="node"><title>Node7</title>
<g id="a_node7"><a xlink:href="../../d3/dca/classnars_1_1io_1_1StringParser_a944bb677dff9f232ce6b896c853e24e0.html#a944bb677dff9f232ce6b896c853e24e0" target="_top" xlink:title="Parse a String to create a CompoundTerm. ">
<polygon fill="none" stroke="black" points="541,-20.4427 541,-50.4427 671,-50.4427 671,-20.4427 541,-20.4427"/>
<text text-anchor="start" x="549" y="-38.4427" font-family="Helvetica,sans-Serif" font-size="10.00">nars.io.StringParser.parse</text>
<text text-anchor="middle" x="606" y="-27.4427" font-family="Helvetica,sans-Serif" font-size="10.00">CompoundTerm</text>
</a>
</g>
</g>
<!-- Node6&#45;&gt;Node7 -->
<g id="edge6" class="edge"><title>Node6&#45;&gt;Node7</title>
<path fill="none" stroke="midnightblue" d="M493.647,-66.6215C512.542,-61.331 533.043,-55.5906 551.244,-50.4943"/>
<polygon fill="midnightblue" stroke="midnightblue" points="492.62,-63.2745 483.934,-69.3413 494.507,-70.0153 492.62,-63.2745"/>
</g>
<!-- Node7&#45;&gt;Node5 -->
<g id="edge7" class="edge"><title>Node7&#45;&gt;Node5</title>
<path fill="none" stroke="midnightblue" d="M549.213,-17.7439C497.332,-4.10836 418.423,9.36581 353,-10.4427 310.883,-23.1948 270.14,-57.7803 251.931,-74.7659"/>
<polygon fill="midnightblue" stroke="midnightblue" points="548.328,-21.1305 558.896,-20.3735 550.163,-14.3751 548.328,-21.1305"/>
</g>
<!-- Node8&#45;&gt;Node5 -->
<g id="edge10" class="edge"><title>Node8&#45;&gt;Node5</title>
<path fill="none" stroke="midnightblue" d="M382.155,-53.4307C358.094,-60.7071 328.307,-68.7063 302.389,-74.9006"/>
<polygon fill="midnightblue" stroke="midnightblue" points="383.226,-56.7633 391.749,-50.4708 381.162,-50.0744 383.226,-56.7633"/>
</g>
</g>
</svg>
