<?xml version="1.0" encoding="UTF-8" standalone="no"?>
<!DOCTYPE svg PUBLIC "-//W3C//DTD SVG 1.1//EN"
 "http://www.w3.org/Graphics/SVG/1.1/DTD/svg11.dtd">
<!-- Generated by graphviz version 2.38.0 (20140413.2041)
 -->
<!-- Title: nars.io.StringParser.isOpener Pages: 1 -->
<!--zoomable 140 -->
<svg id="main" version="1.1" xmlns="http://www.w3.org/2000/svg" xmlns:xlink="http://www.w3.org/1999/xlink" xml:space="preserve" onload="init(evt)">
<style type="text/css"><![CDATA[
.edge:hover path { stroke: red; }
.edge:hover polygon { stroke: red; fill: red; }
]]></style>
<script type="text/javascript"><![CDATA[
var edges = document.getElementsByTagName('g');
if (edges && edges.length) {
  for (var i=0;i<edges.length;i++) {
    if (edges[i].id.substr(0,4)=='edge') {
      edges[i].setAttribute('class','edge');
    }
  }
}
]]></script>
        <defs>
                <circle id="rim" cx="0" cy="0" r="7"/>
                <circle id="rim2" cx="0" cy="0" r="3.5"/>
                <g id="zoomPlus">
                        <use xlink:href="#rim" fill="#404040">
                                <set attributeName="fill" to="#808080" begin="zoomplus.mouseover" end="zoomplus.mouseout"/>
                        </use>
                        <path d="M-4,0h8M0,-4v8" fill="none" stroke="white" stroke-width="1.5" pointer-events="none"/>
                </g>
                <g id="zoomMin">
                        <use xlink:href="#rim" fill="#404040">
                                <set attributeName="fill" to="#808080" begin="zoomminus.mouseover" end="zoomminus.mouseout"/>
                        </use>
                        <path d="M-4,0h8" fill="none" stroke="white" stroke-width="1.5" pointer-events="none"/>
                </g>
                <g id="dirArrow">
                        <path fill="none" stroke="white" stroke-width="1.5" d="M0,-3.0v7 M-2.5,-0.5L0,-3.0L2.5,-0.5"/>
                </g>
               <g id="resetDef">
                       <use xlink:href="#rim2" fill="#404040">
                               <set attributeName="fill" to="#808080" begin="reset.mouseover" end="reset.mouseout"/>
                       </use>
               </g>
        </defs>

<script type="text/javascript">
var viewWidth = 1378;
var viewHeight = 140;
var sectionId = 'dynsection-1';
</script>
<script xlink:href="../../svgpan.js"/>
<svg id="graph" class="graph">
<g id="viewport">
<title>nars.io.StringParser.isOpener</title>
<!-- Node1 -->
<g id="node1" class="node"><title>Node1</title>
<polygon fill="#bfbfbf" stroke="black" points="0,-30 0,-49 145,-49 145,-30 0,-30"/>
<text text-anchor="middle" x="72.5" y="-37" font-family="Helvetica,sans-Serif" font-size="10.00">nars.io.StringParser.isOpener</text>
</g>
<!-- Node2 -->
<g id="node2" class="node"><title>Node2</title>
<g id="a_node2"><a xlink:href="../../d3/dca/classnars_1_1io_1_1StringParser_aa197c4c362373f0e74165794ba7b033a.html#aa197c4c362373f0e74165794ba7b033a" target="_top" xlink:title="Locate the first top&#45;level separator in a CompoundTerm. ">
<polygon fill="none" stroke="black" points="181,-47.5 181,-77.5 306,-77.5 306,-47.5 181,-47.5"/>
<text text-anchor="start" x="189" y="-65.5" font-family="Helvetica,sans-Serif" font-size="10.00">nars.io.StringParser.next</text>
<text text-anchor="middle" x="243.5" y="-54.5" font-family="Helvetica,sans-Serif" font-size="10.00">Separator</text>
</a>
</g>
</g>
<!-- Node1&#45;&gt;Node2 -->
<g id="edge1" class="edge"><title>Node1&#45;&gt;Node2</title>
<path fill="none" stroke="midnightblue" d="M153.892,-50.4409C162.96,-51.675 172.091,-52.9178 180.867,-54.1121"/>
<polygon fill="midnightblue" stroke="midnightblue" points="154.084,-46.9348 143.703,-49.0543 153.14,-53.8709 154.084,-46.9348"/>
</g>
<!-- Node10 -->
<g id="node10" class="node"><title>Node10</title>
<g id="a_node10"><a xlink:href="../../d3/dca/classnars_1_1io_1_1StringParser_a841830a5d2348da4024f4db083b37c2a.html#a841830a5d2348da4024f4db083b37c2a" target="_top" xlink:title="locate the top&#45;level relation in a statement ">
<polygon fill="none" stroke="black" points="347.5,-0.5 347.5,-30.5 466.5,-30.5 466.5,-0.5 347.5,-0.5"/>
<text text-anchor="start" x="355.5" y="-18.5" font-family="Helvetica,sans-Serif" font-size="10.00">nars.io.StringParser.top</text>
<text text-anchor="middle" x="407" y="-7.5" font-family="Helvetica,sans-Serif" font-size="10.00">Relation</text>
</a>
</g>
</g>
<!-- Node1&#45;&gt;Node10 -->
<g id="edge12" class="edge"><title>Node1&#45;&gt;Node10</title>
<path fill="none" stroke="midnightblue" d="M155.366,-33.5909C214.911,-29.2929 294.109,-23.5763 347.406,-19.7293"/>
<polygon fill="midnightblue" stroke="midnightblue" points="154.96,-30.111 145.238,-34.3219 155.464,-37.0928 154.96,-30.111"/>
</g>
<!-- Node3 -->
<g id="node3" class="node"><title>Node3</title>
<g id="a_node3"><a xlink:href="../../d3/dca/classnars_1_1io_1_1StringParser_a7a11182c36a2fae68be8952110f47570.html#a7a11182c36a2fae68be8952110f47570" target="_top" xlink:title="Parse a String into the argument get of a CompoundTerm. ">
<polygon fill="none" stroke="black" points="342,-49.5 342,-79.5 472,-79.5 472,-49.5 342,-49.5"/>
<text text-anchor="start" x="350" y="-67.5" font-family="Helvetica,sans-Serif" font-size="10.00">nars.io.StringParser.parse</text>
<text text-anchor="middle" x="407" y="-56.5" font-family="Helvetica,sans-Serif" font-size="10.00">Arguments</text>
</a>
</g>
</g>
<!-- Node2&#45;&gt;Node3 -->
<g id="edge2" class="edge"><title>Node2&#45;&gt;Node3</title>
<path fill="none" stroke="midnightblue" d="M316.058,-63.3862C324.688,-63.493 333.459,-63.6017 341.972,-63.7071"/>
<polygon fill="midnightblue" stroke="midnightblue" points="316.06,-59.886 306.017,-63.2618 315.973,-66.8855 316.06,-59.886"/>
</g>
<!-- Node4 -->
<g id="node4" class="node"><title>Node4</title>
<g id="a_node4"><a xlink:href="../../d3/dca/classnars_1_1io_1_1StringParser_a944bb677dff9f232ce6b896c853e24e0.html#a944bb677dff9f232ce6b896c853e24e0" target="_top" xlink:title="Parse a String to create a CompoundTerm. ">
<polygon fill="none" stroke="black" points="508,-101.5 508,-131.5 638,-131.5 638,-101.5 508,-101.5"/>
<text text-anchor="start" x="516" y="-119.5" font-family="Helvetica,sans-Serif" font-size="10.00">nars.io.StringParser.parse</text>
<text text-anchor="middle" x="573" y="-108.5" font-family="Helvetica,sans-Serif" font-size="10.00">CompoundTerm</text>
</a>
</g>
</g>
<!-- Node3&#45;&gt;Node4 -->
<g id="edge3" class="edge"><title>Node3&#45;&gt;Node4</title>
<path fill="none" stroke="midnightblue" d="M465.095,-82.6032C484.549,-88.7715 506.069,-95.595 524.671,-101.493"/>
<polygon fill="midnightblue" stroke="midnightblue" points="466.026,-79.2268 455.436,-79.5406 463.91,-85.8994 466.026,-79.2268"/>
</g>
<!-- Node5 -->
<g id="node5" class="node"><title>Node5</title>
<g id="a_node5"><a xlink:href="../../d3/dca/classnars_1_1io_1_1StringParser_a5c31494d6f7862dcf15a4d5716b6200e.html#a5c31494d6f7862dcf15a4d5716b6200e" target="_top" xlink:title="Top&#45;level method that parse a Term in general, which may recursively call itself. ...">
<polygon fill="none" stroke="black" points="674,-54 674,-73 826,-73 826,-54 674,-54"/>
<text text-anchor="middle" x="750" y="-61" font-family="Helvetica,sans-Serif" font-size="10.00">nars.io.StringParser.parseTerm</text>
</a>
</g>
</g>
<!-- Node3&#45;&gt;Node5 -->
<g id="edge11" class="edge"><title>Node3&#45;&gt;Node5</title>
<path fill="none" stroke="midnightblue" d="M482.476,-58.5911C539.2,-57.0176 616.964,-56.7841 673.853,-58.0133"/>
<polygon fill="midnightblue" stroke="midnightblue" points="482.03,-55.1028 472.139,-58.9005 482.24,-62.0997 482.03,-55.1028"/>
</g>
<!-- Node4&#45;&gt;Node5 -->
<g id="edge4" class="edge"><title>Node4&#45;&gt;Node5</title>
<path fill="none" stroke="midnightblue" d="M633.433,-98.5004C661.579,-89.9761 694.058,-80.1395 717.404,-73.0691"/>
<polygon fill="midnightblue" stroke="midnightblue" points="632.236,-95.2057 623.68,-101.454 634.265,-101.905 632.236,-95.2057"/>
</g>
<!-- Node5&#45;&gt;Node3 -->
<g id="edge5" class="edge"><title>Node5&#45;&gt;Node3</title>
<path fill="none" stroke="midnightblue" d="M663.736,-69.6862C604.317,-71.0988 526.306,-71.1527 472.139,-69.7234"/>
<polygon fill="midnightblue" stroke="midnightblue" points="663.946,-73.1821 673.853,-69.4274 663.767,-66.1844 663.946,-73.1821"/>
</g>
<!-- Node6 -->
<g id="node6" class="node"><title>Node6</title>
<g id="a_node6"><a xlink:href="../../d3/dca/classnars_1_1io_1_1StringParser_a7c129938c8d721e3db0a9804988f0588.html#a7c129938c8d721e3db0a9804988f0588" target="_top" xlink:title="Parse a String to create a Statement. ">
<polygon fill="none" stroke="black" points="873,-26.5 873,-56.5 1003,-56.5 1003,-26.5 873,-26.5"/>
<text text-anchor="start" x="881" y="-44.5" font-family="Helvetica,sans-Serif" font-size="10.00">nars.io.StringParser.parse</text>
<text text-anchor="middle" x="938" y="-33.5" font-family="Helvetica,sans-Serif" font-size="10.00">Statement</text>
</a>
</g>
</g>
<!-- Node5&#45;&gt;Node6 -->
<g id="edge6" class="edge"><title>Node5&#45;&gt;Node6</title>
<path fill="none" stroke="midnightblue" d="M796.152,-52.2761C819.17,-48.6378 847.562,-45.0896 872.81,-42.6389"/>
<polygon fill="midnightblue" stroke="midnightblue" points="795.283,-48.872 785.985,-53.9505 796.421,-55.7789 795.283,-48.872"/>
</g>
<!-- Node7 -->
<g id="node7" class="node"><title>Node7</title>
<g id="a_node7"><a xlink:href="../../d3/dca/classnars_1_1io_1_1StringParser_a75b446999d71c676a9915ecc75077a7d.html#a75b446999d71c676a9915ecc75077a7d" target="_top" xlink:title="Enter a new Task in String into the memory, called from InputWindow or locally. ">
<polygon fill="none" stroke="black" points="862,-76 862,-95 1014,-95 1014,-76 862,-76"/>
<text text-anchor="middle" x="938" y="-83" font-family="Helvetica,sans-Serif" font-size="10.00">nars.io.StringParser.parseTask</text>
</a>
</g>
</g>
<!-- Node5&#45;&gt;Node7 -->
<g id="edge8" class="edge"><title>Node5&#45;&gt;Node7</title>
<path fill="none" stroke="midnightblue" d="M836.147,-73.5712C844.742,-74.5877 853.426,-75.615 861.905,-76.6178"/>
<polygon fill="midnightblue" stroke="midnightblue" points="836.459,-70.0838 826.117,-72.3848 835.637,-77.0353 836.459,-70.0838"/>
</g>
<!-- Node6&#45;&gt;Node5 -->
<g id="edge7" class="edge"><title>Node6&#45;&gt;Node5</title>
<path fill="none" stroke="midnightblue" d="M862.906,-56.8883C850.8,-58.483 838.248,-59.9721 826.117,-61.253"/>
<polygon fill="midnightblue" stroke="midnightblue" points="863.512,-60.3383 872.951,-55.5262 862.571,-53.4017 863.512,-60.3383"/>
</g>
<!-- Node8 -->
<g id="node8" class="node"><title>Node8</title>
<g id="a_node8"><a xlink:href="../../d3/dca/classnars_1_1io_1_1StringParser_a37ff864d959aba58138170a3f9a3e7c8.html#a37ff864d959aba58138170a3f9a3e7c8" target="_top" xlink:title="Parse a line of input experience. ">
<polygon fill="none" stroke="black" points="1050,-70.5 1050,-100.5 1180,-100.5 1180,-70.5 1050,-70.5"/>
<text text-anchor="start" x="1058" y="-88.5" font-family="Helvetica,sans-Serif" font-size="10.00">nars.io.StringParser.parse</text>
<text text-anchor="middle" x="1115" y="-77.5" font-family="Helvetica,sans-Serif" font-size="10.00">Experience</text>
</a>
</g>
</g>
<!-- Node7&#45;&gt;Node8 -->
<g id="edge9" class="edge"><title>Node7&#45;&gt;Node8</title>
<path fill="none" stroke="midnightblue" d="M1024.29,-85.5C1032.89,-85.5 1041.51,-85.5 1049.83,-85.5"/>
<polygon fill="midnightblue" stroke="midnightblue" points="1024.23,-82.0001 1014.23,-85.5 1024.23,-89.0001 1024.23,-82.0001"/>
</g>
<!-- Node9 -->
<g id="node9" class="node"><title>Node9</title>
<g id="a_node9"><a xlink:href="../../dd/da5/classnars_1_1storage_1_1Memory_1_1ReasonerBatch_a2f22be33d98b4366712ff91b93c2be8a.html#a2f22be33d98b4366712ff91b93c2be8a" target="_top" xlink:title="To process a line of input text. ">
<polygon fill="none" stroke="black" points="1216,-70.5 1216,-100.5 1370,-100.5 1370,-70.5 1216,-70.5"/>
<text text-anchor="start" x="1224" y="-88.5" font-family="Helvetica,sans-Serif" font-size="10.00">nars.storage.Memory.Reasoner</text>
<text text-anchor="middle" x="1293" y="-77.5" font-family="Helvetica,sans-Serif" font-size="10.00">Batch.textInputLine</text>
</a>
</g>
</g>
<!-- Node8&#45;&gt;Node9 -->
<g id="edge10" class="edge"><title>Node8&#45;&gt;Node9</title>
<path fill="none" stroke="midnightblue" d="M1190.22,-85.5C1198.66,-85.5 1207.28,-85.5 1215.74,-85.5"/>
<polygon fill="midnightblue" stroke="midnightblue" points="1190.04,-82.0001 1180.04,-85.5 1190.04,-89.0001 1190.04,-82.0001"/>
</g>
<!-- Node10&#45;&gt;Node6 -->
<g id="edge13" class="edge"><title>Node10&#45;&gt;Node6</title>
<path fill="none" stroke="midnightblue" d="M476.92,-18.8874C579.911,-23.9493 772.559,-33.4178 872.756,-38.3424"/>
<polygon fill="midnightblue" stroke="midnightblue" points="476.793,-15.377 466.633,-18.3818 476.45,-22.3686 476.793,-15.377"/>
</g>
</g>
</svg>
        <g id="navigator" transform="translate(0 0)" fill="#404254">
                <rect fill="#f2f5e9" fill-opacity="0.5" stroke="#606060" stroke-width=".5" x="0" y="0" width="60" height="60"/>
                <use id="zoomplus" xlink:href="#zoomPlus" x="17" y="9" onmousedown="handleZoom(evt,'in')"/>
                <use id="zoomminus" xlink:href="#zoomMin" x="42" y="9" onmousedown="handleZoom(evt,'out')"/>
                <use id="reset" xlink:href="#resetDef" x="30" y="36" onmousedown="handleReset()"/>
                <g id="arrowUp" xlink:href="#dirArrow" transform="translate(30 24)" onmousedown="handlePan(0,-1)">
                  <use xlink:href="#rim" fill="#404040">
                        <set attributeName="fill" to="#808080" begin="arrowUp.mouseover" end="arrowUp.mouseout"/>
                  </use>
                  <path fill="none" stroke="white" stroke-width="1.5" d="M0,-3.0v7 M-2.5,-0.5L0,-3.0L2.5,-0.5"/>
                </g>
                <g id="arrowRight" xlink:href="#dirArrow" transform="rotate(90) translate(36 -43)" onmousedown="handlePan(1,0)">
                  <use xlink:href="#rim" fill="#404040">
                        <set attributeName="fill" to="#808080" begin="arrowRight.mouseover" end="arrowRight.mouseout"/>
                  </use>
                  <path fill="none" stroke="white" stroke-width="1.5" d="M0,-3.0v7 M-2.5,-0.5L0,-3.0L2.5,-0.5"/>
                </g>
                <g id="arrowDown" xlink:href="#dirArrow" transform="rotate(180) translate(-30 -48)" onmousedown="handlePan(0,1)">
                  <use xlink:href="#rim" fill="#404040">
                        <set attributeName="fill" to="#808080" begin="arrowDown.mouseover" end="arrowDown.mouseout"/>
                  </use>
                  <path fill="none" stroke="white" stroke-width="1.5" d="M0,-3.0v7 M-2.5,-0.5L0,-3.0L2.5,-0.5"/>
                </g>
                <g id="arrowLeft" xlink:href="#dirArrow" transform="rotate(270) translate(-36 17)" onmousedown="handlePan(-1,0)">
                  <use xlink:href="#rim" fill="#404040">
                        <set attributeName="fill" to="#808080" begin="arrowLeft.mouseover" end="arrowLeft.mouseout"/>
                  </use>
                  <path fill="none" stroke="white" stroke-width="1.5" d="M0,-3.0v7 M-2.5,-0.5L0,-3.0L2.5,-0.5"/>
                </g>
        </g>
        <svg viewBox="0 0 15 15" width="100%" height="30px" preserveAspectRatio="xMaxYMin meet">
         <g id="arrow_out" transform="scale(0.3 0.3)">
          <a xlink:href="classnars_1_1io_1_1StringParser_ae9b91054186389c3930bc2aaecd4aee8_ae9b91054186389c3930bc2aaecd4aee8_icgraph_org.svg" target="_base">
           <rect id="button" ry="5" rx="5" y="6" x="6" height="38" width="38"
                fill="#f2f5e9" fill-opacity="0.5" stroke="#606060" stroke-width="1.0"/>
           <path id="arrow"
             d="M 11.500037,31.436501 C 11.940474,20.09759 22.043105,11.32322 32.158766,21.979434 L 37.068811,17.246167 C 37.068811,17.246167 37.088388,32 37.088388,32 L 22.160133,31.978069 C 22.160133,31.978069 26.997745,27.140456 26.997745,27.140456 C 18.528582,18.264221 13.291696,25.230495 11.500037,31.436501 z"
             style="fill:#404040;"/>
          </a>
         </g>
        </svg>
</svg>
