<?xml version="1.0" encoding="UTF-8" standalone="no"?>
<!DOCTYPE svg PUBLIC "-//W3C//DTD SVG 1.1//EN"
 "http://www.w3.org/Graphics/SVG/1.1/DTD/svg11.dtd">
<!-- Generated by graphviz version 2.38.0 (20140413.2041)
 -->
<!-- Title: nars.io.StringParser.parseArguments Pages: 1 -->
<svg width="1036pt" height="136pt"
 viewBox="0.00 0.00 1036.00 136.00" xmlns="http://www.w3.org/2000/svg" xmlns:xlink="http://www.w3.org/1999/xlink">
<g id="graph0" class="graph" transform="scale(1 1) rotate(0) translate(4 132)">
<title>nars.io.StringParser.parseArguments</title>
<!-- Node1 -->
<g id="node1" class="node"><title>Node1</title>
<polygon fill="#bfbfbf" stroke="black" points="0,-44.5 0,-74.5 130,-74.5 130,-44.5 0,-44.5"/>
<text text-anchor="start" x="8" y="-62.5" font-family="Helvetica,sans-Serif" font-size="10.00">nars.io.StringParser.parse</text>
<text text-anchor="middle" x="65" y="-51.5" font-family="Helvetica,sans-Serif" font-size="10.00">Arguments</text>
</g>
<!-- Node2 -->
<g id="node2" class="node"><title>Node2</title>
<g id="a_node2"><a xlink:href="../../d3/dca/classnars_1_1io_1_1StringParser_a944bb677dff9f232ce6b896c853e24e0.html#a944bb677dff9f232ce6b896c853e24e0" target="_top" xlink:title="Parse a String to create a CompoundTerm. ">
<polygon fill="none" stroke="black" points="166,-97.5 166,-127.5 296,-127.5 296,-97.5 166,-97.5"/>
<text text-anchor="start" x="174" y="-115.5" font-family="Helvetica,sans-Serif" font-size="10.00">nars.io.StringParser.parse</text>
<text text-anchor="middle" x="231" y="-104.5" font-family="Helvetica,sans-Serif" font-size="10.00">CompoundTerm</text>
</a>
</g>
</g>
<!-- Node1&#45;&gt;Node2 -->
<g id="edge1" class="edge"><title>Node1&#45;&gt;Node2</title>
<path fill="none" stroke="midnightblue" d="M122.136,-77.6414C142.067,-84.0827 164.27,-91.2581 183.326,-97.4165"/>
<polygon fill="midnightblue" stroke="midnightblue" points="123.149,-74.2907 112.557,-74.5459 120.996,-80.9515 123.149,-74.2907"/>
</g>
<!-- Node3 -->
<g id="node3" class="node"><title>Node3</title>
<g id="a_node3"><a xlink:href="../../d3/dca/classnars_1_1io_1_1StringParser_a5c31494d6f7862dcf15a4d5716b6200e.html#a5c31494d6f7862dcf15a4d5716b6200e" target="_top" xlink:title="Top&#45;level method that parse a Term in general, which may recursively call itself. ...">
<polygon fill="none" stroke="black" points="332,-50 332,-69 484,-69 484,-50 332,-50"/>
<text text-anchor="middle" x="408" y="-57" font-family="Helvetica,sans-Serif" font-size="10.00">nars.io.StringParser.parseTerm</text>
</a>
</g>
</g>
<!-- Node1&#45;&gt;Node3 -->
<g id="edge9" class="edge"><title>Node1&#45;&gt;Node3</title>
<path fill="none" stroke="midnightblue" d="M140.476,-53.8095C197.2,-52.4024 274.964,-52.3969 331.853,-53.793"/>
<polygon fill="midnightblue" stroke="midnightblue" points="140.041,-50.3199 130.139,-54.0885 140.23,-57.3173 140.041,-50.3199"/>
</g>
<!-- Node2&#45;&gt;Node3 -->
<g id="edge2" class="edge"><title>Node2&#45;&gt;Node3</title>
<path fill="none" stroke="midnightblue" d="M291.433,-94.5004C319.579,-85.9761 352.058,-76.1395 375.404,-69.0691"/>
<polygon fill="midnightblue" stroke="midnightblue" points="290.236,-91.2057 281.68,-97.4541 292.265,-97.9052 290.236,-91.2057"/>
</g>
<!-- Node3&#45;&gt;Node1 -->
<g id="edge3" class="edge"><title>Node3&#45;&gt;Node1</title>
<path fill="none" stroke="midnightblue" d="M321.736,-65.4362C262.317,-66.6745 184.306,-66.4996 130.139,-64.9115"/>
<polygon fill="midnightblue" stroke="midnightblue" points="321.935,-68.9326 331.853,-65.207 321.776,-61.9344 321.935,-68.9326"/>
</g>
<!-- Node4 -->
<g id="node4" class="node"><title>Node4</title>
<g id="a_node4"><a xlink:href="../../d3/dca/classnars_1_1io_1_1StringParser_a7c129938c8d721e3db0a9804988f0588.html#a7c129938c8d721e3db0a9804988f0588" target="_top" xlink:title="Parse a String to create a Statement. ">
<polygon fill="none" stroke="black" points="531,-44.5 531,-74.5 661,-74.5 661,-44.5 531,-44.5"/>
<text text-anchor="start" x="539" y="-62.5" font-family="Helvetica,sans-Serif" font-size="10.00">nars.io.StringParser.parse</text>
<text text-anchor="middle" x="596" y="-51.5" font-family="Helvetica,sans-Serif" font-size="10.00">Statement</text>
</a>
</g>
</g>
<!-- Node3&#45;&gt;Node4 -->
<g id="edge4" class="edge"><title>Node3&#45;&gt;Node4</title>
<path fill="none" stroke="midnightblue" d="M494.387,-52.7701C506.685,-52.7049 519.163,-52.7981 530.951,-53.0495"/>
<polygon fill="midnightblue" stroke="midnightblue" points="494.085,-49.2726 484.117,-52.8622 494.148,-56.2723 494.085,-49.2726"/>
</g>
<!-- Node5 -->
<g id="node5" class="node"><title>Node5</title>
<g id="a_node5"><a xlink:href="../../d3/dca/classnars_1_1io_1_1StringParser_a75b446999d71c676a9915ecc75077a7d.html#a75b446999d71c676a9915ecc75077a7d" target="_top" xlink:title="Enter a new Task in String into the memory, called from InputWindow or locally. ">
<polygon fill="none" stroke="black" points="520,-6 520,-25 672,-25 672,-6 520,-6"/>
<text text-anchor="middle" x="596" y="-13" font-family="Helvetica,sans-Serif" font-size="10.00">nars.io.StringParser.parseTask</text>
</a>
</g>
</g>
<!-- Node3&#45;&gt;Node5 -->
<g id="edge6" class="edge"><title>Node3&#45;&gt;Node5</title>
<path fill="none" stroke="midnightblue" d="M459.205,-47.6236C489.167,-40.5358 526.708,-31.6552 554.72,-25.0287"/>
<polygon fill="midnightblue" stroke="midnightblue" points="458.285,-44.2445 449.359,-49.9527 459.896,-51.0565 458.285,-44.2445"/>
</g>
<!-- Node4&#45;&gt;Node3 -->
<g id="edge5" class="edge"><title>Node4&#45;&gt;Node3</title>
<path fill="none" stroke="midnightblue" d="M520.906,-66.1245C508.8,-66.2873 496.248,-66.2917 484.117,-66.1378"/>
<polygon fill="midnightblue" stroke="midnightblue" points="521.013,-69.6232 530.951,-65.9505 520.892,-62.6243 521.013,-69.6232"/>
</g>
<!-- Node6 -->
<g id="node6" class="node"><title>Node6</title>
<g id="a_node6"><a xlink:href="../../d3/dca/classnars_1_1io_1_1StringParser_a37ff864d959aba58138170a3f9a3e7c8.html#a37ff864d959aba58138170a3f9a3e7c8" target="_top" xlink:title="Parse a line of input experience. ">
<polygon fill="none" stroke="black" points="708,-0.5 708,-30.5 838,-30.5 838,-0.5 708,-0.5"/>
<text text-anchor="start" x="716" y="-18.5" font-family="Helvetica,sans-Serif" font-size="10.00">nars.io.StringParser.parse</text>
<text text-anchor="middle" x="773" y="-7.5" font-family="Helvetica,sans-Serif" font-size="10.00">Experience</text>
</a>
</g>
</g>
<!-- Node5&#45;&gt;Node6 -->
<g id="edge7" class="edge"><title>Node5&#45;&gt;Node6</title>
<path fill="none" stroke="midnightblue" d="M682.289,-15.5C690.885,-15.5 699.509,-15.5 707.83,-15.5"/>
<polygon fill="midnightblue" stroke="midnightblue" points="682.231,-12.0001 672.231,-15.5 682.231,-19.0001 682.231,-12.0001"/>
</g>
<!-- Node7 -->
<g id="node7" class="node"><title>Node7</title>
<g id="a_node7"><a xlink:href="../../dd/da5/classnars_1_1storage_1_1Memory_1_1ReasonerBatch_a2f22be33d98b4366712ff91b93c2be8a.html#a2f22be33d98b4366712ff91b93c2be8a" target="_top" xlink:title="To process a line of input text. ">
<polygon fill="none" stroke="black" points="874,-0.5 874,-30.5 1028,-30.5 1028,-0.5 874,-0.5"/>
<text text-anchor="start" x="882" y="-18.5" font-family="Helvetica,sans-Serif" font-size="10.00">nars.storage.Memory.Reasoner</text>
<text text-anchor="middle" x="951" y="-7.5" font-family="Helvetica,sans-Serif" font-size="10.00">Batch.textInputLine</text>
</a>
</g>
</g>
<!-- Node6&#45;&gt;Node7 -->
<g id="edge8" class="edge"><title>Node6&#45;&gt;Node7</title>
<path fill="none" stroke="midnightblue" d="M848.225,-15.5C856.664,-15.5 865.276,-15.5 873.742,-15.5"/>
<polygon fill="midnightblue" stroke="midnightblue" points="848.038,-12.0001 838.038,-15.5 848.038,-19.0001 848.038,-12.0001"/>
</g>
</g>
</svg>
