<?xml version="1.0" encoding="UTF-8" standalone="no"?>
<!DOCTYPE svg PUBLIC "-//W3C//DTD SVG 1.1//EN"
 "http://www.w3.org/Graphics/SVG/1.1/DTD/svg11.dtd">
<!-- Generated by graphviz version 2.38.0 (20140413.2041)
 -->
<!-- Title: nars.entity.Concept.toStringLong Pages: 1 -->
<svg width="511pt" height="88pt"
 viewBox="0.00 0.00 511.00 88.00" xmlns="http://www.w3.org/2000/svg" xmlns:xlink="http://www.w3.org/1999/xlink">
<g id="graph0" class="graph" transform="scale(1 1) rotate(0) translate(4 84)">
<title>nars.entity.Concept.toStringLong</title>
<!-- Node1 -->
<g id="node1" class="node"><title>Node1</title>
<polygon fill="#bfbfbf" stroke="black" points="0,-30 0,-49 160,-49 160,-30 0,-30"/>
<text text-anchor="middle" x="80" y="-37" font-family="Helvetica,sans-Serif" font-size="10.00">nars.entity.Concept.toStringLong</text>
</g>
<!-- Node2 -->
<g id="node2" class="node"><title>Node2</title>
<g id="a_node2"><a xlink:href="../../d1/dd1/classnars_1_1entity_1_1Item_a7c18bbc91147504a285041d636284acd.html#a7c18bbc91147504a285041d636284acd" target="_top" xlink:title="Return a String representation of the Item after simplification. ">
<polygon fill="none" stroke="black" points="204.5,-49.5 204.5,-79.5 326.5,-79.5 326.5,-49.5 204.5,-49.5"/>
<text text-anchor="start" x="212.5" y="-67.5" font-family="Helvetica,sans-Serif" font-size="10.00">nars.entity.Item.toString</text>
<text text-anchor="middle" x="265.5" y="-56.5" font-family="Helvetica,sans-Serif" font-size="10.00">Brief</text>
</a>
</g>
</g>
<!-- Node1&#45;&gt;Node2 -->
<g id="edge1" class="edge"><title>Node1&#45;&gt;Node2</title>
<path fill="none" stroke="midnightblue" d="M150.897,-49.0227C165.078,-50.9548 179.999,-52.9876 194.194,-54.9216"/>
<polygon fill="midnightblue" stroke="midnightblue" points="194.001,-58.4274 204.381,-56.3095 194.946,-51.4915 194.001,-58.4274"/>
</g>
<!-- Node4 -->
<g id="node4" class="node"><title>Node4</title>
<g id="a_node4"><a xlink:href="../../d4/d22/classnars_1_1entity_1_1Concept_a06378e75b0874a8ef80a7f1ac6cdebcd.html#a06378e75b0874a8ef80a7f1ac6cdebcd" target="_top" xlink:title="nars.entity.Concept.toString\lIfNotNull">
<polygon fill="none" stroke="black" points="196,-0.5 196,-30.5 335,-30.5 335,-0.5 196,-0.5"/>
<text text-anchor="start" x="204" y="-18.5" font-family="Helvetica,sans-Serif" font-size="10.00">nars.entity.Concept.toString</text>
<text text-anchor="middle" x="265.5" y="-7.5" font-family="Helvetica,sans-Serif" font-size="10.00">IfNotNull</text>
</a>
</g>
</g>
<!-- Node1&#45;&gt;Node4 -->
<g id="edge3" class="edge"><title>Node1&#45;&gt;Node4</title>
<path fill="none" stroke="midnightblue" d="M153.788,-29.9801C164.328,-28.6015 175.217,-27.1773 185.866,-25.7846"/>
<polygon fill="midnightblue" stroke="midnightblue" points="186.521,-29.2288 195.982,-24.4614 185.613,-22.2879 186.521,-29.2288"/>
</g>
<!-- Node3 -->
<g id="node3" class="node"><title>Node3</title>
<g id="a_node3"><a xlink:href="../../db/d8e/classnars_1_1entity_1_1BudgetValue_aff75d0d4fed143961e843d2959687fb0.html#aff75d0d4fed143961e843d2959687fb0" target="_top" xlink:title="Briefly display the BudgetValue. ">
<polygon fill="none" stroke="black" points="371,-49.5 371,-79.5 503,-79.5 503,-49.5 371,-49.5"/>
<text text-anchor="start" x="379" y="-67.5" font-family="Helvetica,sans-Serif" font-size="10.00">nars.entity.BudgetValue.to</text>
<text text-anchor="middle" x="437" y="-56.5" font-family="Helvetica,sans-Serif" font-size="10.00">StringBrief</text>
</a>
</g>
</g>
<!-- Node2&#45;&gt;Node3 -->
<g id="edge2" class="edge"><title>Node2&#45;&gt;Node3</title>
<path fill="none" stroke="midnightblue" d="M326.737,-64.5C337.665,-64.5 349.187,-64.5 360.488,-64.5"/>
<polygon fill="midnightblue" stroke="midnightblue" points="360.781,-68.0001 370.781,-64.5 360.781,-61.0001 360.781,-68.0001"/>
</g>
</g>
</svg>
