<?xml version="1.0" encoding="UTF-8" standalone="no"?>
<!DOCTYPE svg PUBLIC "-//W3C//DTD SVG 1.1//EN"
 "http://www.w3.org/Graphics/SVG/1.1/DTD/svg11.dtd">
<!-- Generated by graphviz version 2.38.0 (20140413.2041)
 -->
<!-- Title: nars.entity.Concept.insertTaskLink Pages: 1 -->
<svg width="968pt" height="362pt"
 viewBox="0.00 0.00 968.00 362.00" xmlns="http://www.w3.org/2000/svg" xmlns:xlink="http://www.w3.org/1999/xlink">
<g id="graph0" class="graph" transform="scale(1 1) rotate(0) translate(4 358)">
<title>nars.entity.Concept.insertTaskLink</title>
<!-- Node1 -->
<g id="node1" class="node"><title>Node1</title>
<polygon fill="#bfbfbf" stroke="black" points="0,-173.5 0,-203.5 129,-203.5 129,-173.5 0,-173.5"/>
<text text-anchor="start" x="8" y="-191.5" font-family="Helvetica,sans-Serif" font-size="10.00">nars.entity.Concept.insert</text>
<text text-anchor="middle" x="64.5" y="-180.5" font-family="Helvetica,sans-Serif" font-size="10.00">TaskLink</text>
</g>
<!-- Node2 -->
<g id="node2" class="node"><title>Node2</title>
<g id="a_node2"><a xlink:href="../../d8/df4/classnars_1_1storage_1_1Memory_a765f58846c419efbd2d9f1a0dd9f4c4d.html#a765f58846c419efbd2d9f1a0dd9f4c4d" target="_top" xlink:title="Adjust the activation level of a Concept. ">
<polygon fill="none" stroke="black" points="165,-217.5 165,-247.5 311,-247.5 311,-217.5 165,-217.5"/>
<text text-anchor="start" x="173" y="-235.5" font-family="Helvetica,sans-Serif" font-size="10.00">nars.storage.Memory.activate</text>
<text text-anchor="middle" x="238" y="-224.5" font-family="Helvetica,sans-Serif" font-size="10.00">Concept</text>
</a>
</g>
</g>
<!-- Node1&#45;&gt;Node2 -->
<g id="edge1" class="edge"><title>Node1&#45;&gt;Node2</title>
<path fill="none" stroke="midnightblue" d="M124.041,-203.519C138.311,-207.18 153.703,-211.129 168.395,-214.899"/>
<polygon fill="midnightblue" stroke="midnightblue" points="167.876,-218.379 178.432,-217.474 169.615,-211.598 167.876,-218.379"/>
</g>
<!-- Node23 -->
<g id="node23" class="node"><title>Node23</title>
<g id="a_node23"><a xlink:href="../../d1/dd1/classnars_1_1entity_1_1Item_a54fc0a370b847dd77c0a698c765e6e55.html#a54fc0a370b847dd77c0a698c765e6e55" target="_top" xlink:title="Get BudgetValue. ">
<polygon fill="none" stroke="black" points="172,-179 172,-198 304,-198 304,-179 172,-179"/>
<text text-anchor="middle" x="238" y="-186" font-family="Helvetica,sans-Serif" font-size="10.00">nars.entity.Item.getBudget</text>
</a>
</g>
</g>
<!-- Node1&#45;&gt;Node23 -->
<g id="edge23" class="edge"><title>Node1&#45;&gt;Node23</title>
<path fill="none" stroke="midnightblue" d="M129.36,-188.5C139.897,-188.5 150.906,-188.5 161.692,-188.5"/>
<polygon fill="midnightblue" stroke="midnightblue" points="161.942,-192 171.942,-188.5 161.942,-185 161.942,-192"/>
</g>
<!-- Node24 -->
<g id="node24" class="node"><title>Node24</title>
<g id="a_node24"><a xlink:href="../../d9/d37/classnars_1_1storage_1_1Bag_a9d42fa45681a07796750a350e08d095b.html#a9d42fa45681a07796750a350e08d095b" target="_top" xlink:title="Add a new Item into the Bag. ">
<polygon fill="none" stroke="black" points="180,-141 180,-160 296,-160 296,-141 180,-141"/>
<text text-anchor="middle" x="238" y="-148" font-family="Helvetica,sans-Serif" font-size="10.00">nars.storage.Bag.putIn</text>
</a>
</g>
</g>
<!-- Node1&#45;&gt;Node24 -->
<g id="edge24" class="edge"><title>Node1&#45;&gt;Node24</title>
<path fill="none" stroke="midnightblue" d="M129.36,-174.35C147.352,-170.364 166.722,-166.072 184.003,-162.243"/>
<polygon fill="midnightblue" stroke="midnightblue" points="184.904,-165.628 193.91,-160.048 183.39,-158.794 184.904,-165.628"/>
</g>
<!-- Node3 -->
<g id="node3" class="node"><title>Node3</title>
<g id="a_node3"><a xlink:href="../../d8/df4/classnars_1_1storage_1_1Memory_a33af7b3d806d32c85390563fec3c6d27.html#a33af7b3d806d32c85390563fec3c6d27" target="_top" xlink:title="Concept bag. ">
<polygon fill="none" stroke="black" points="359.5,-299 359.5,-318 526.5,-318 526.5,-299 359.5,-299"/>
<text text-anchor="middle" x="443" y="-306" font-family="Helvetica,sans-Serif" font-size="10.00">nars.storage.Memory.getConcepts</text>
</a>
</g>
</g>
<!-- Node2&#45;&gt;Node3 -->
<g id="edge2" class="edge"><title>Node2&#45;&gt;Node3</title>
<path fill="none" stroke="midnightblue" d="M262.956,-247.735C284.254,-260.636 316.635,-278.707 347,-289.5 354.605,-292.203 362.698,-294.561 370.827,-296.607"/>
<polygon fill="midnightblue" stroke="midnightblue" points="370.194,-300.054 380.731,-298.951 371.806,-293.242 370.194,-300.054"/>
</g>
<!-- Node4 -->
<g id="node4" class="node"><title>Node4</title>
<g id="a_node4"><a xlink:href="../../d9/d37/classnars_1_1storage_1_1Bag_ac72ca10afde302a1c190a185947781e3.html#ac72ca10afde302a1c190a185947781e3" target="_top" xlink:title="Pick an item by key, then remove it from the bag. ">
<polygon fill="none" stroke="black" points="379,-261 379,-280 507,-280 507,-261 379,-261"/>
<text text-anchor="middle" x="443" y="-268" font-family="Helvetica,sans-Serif" font-size="10.00">nars.storage.Bag.pickOut</text>
</a>
</g>
</g>
<!-- Node2&#45;&gt;Node4 -->
<g id="edge3" class="edge"><title>Node2&#45;&gt;Node4</title>
<path fill="none" stroke="midnightblue" d="M311.142,-246.004C334.069,-250.296 359.184,-254.997 381.226,-259.124"/>
<polygon fill="midnightblue" stroke="midnightblue" points="380.645,-262.576 391.118,-260.975 381.933,-255.695 380.645,-262.576"/>
</g>
<!-- Node5 -->
<g id="node5" class="node"><title>Node5</title>
<g id="a_node5"><a xlink:href="../../d1/dd1/classnars_1_1entity_1_1Item_ab5c9fbb171f325844966b496010acf60.html#ab5c9fbb171f325844966b496010acf60" target="_top" xlink:title="Get the current key. ">
<polygon fill="none" stroke="black" points="383.5,-223 383.5,-242 502.5,-242 502.5,-223 383.5,-223"/>
<text text-anchor="middle" x="443" y="-230" font-family="Helvetica,sans-Serif" font-size="10.00">nars.entity.Item.getKey</text>
</a>
</g>
</g>
<!-- Node2&#45;&gt;Node5 -->
<g id="edge4" class="edge"><title>Node2&#45;&gt;Node5</title>
<path fill="none" stroke="midnightblue" d="M311.142,-232.5C331.327,-232.5 353.207,-232.5 373.194,-232.5"/>
<polygon fill="midnightblue" stroke="midnightblue" points="373.454,-236 383.454,-232.5 373.454,-229 373.454,-236"/>
</g>
<!-- Node6 -->
<g id="node6" class="node"><title>Node6</title>
<g id="a_node6"><a xlink:href="../../d7/d11/classnars_1_1inference_1_1BudgetFunctions_aabac530761ea7ac0f43f0d1ea8d085c8.html#aabac530761ea7ac0f43f0d1ea8d085c8" target="_top" xlink:title="Activate a concept by an incoming TaskLink. ">
<polygon fill="none" stroke="black" points="347,-185 347,-204 539,-204 539,-185 347,-185"/>
<text text-anchor="middle" x="443" y="-192" font-family="Helvetica,sans-Serif" font-size="10.00">nars.inference.BudgetFunctions.activate</text>
</a>
</g>
</g>
<!-- Node2&#45;&gt;Node6 -->
<g id="edge5" class="edge"><title>Node2&#45;&gt;Node6</title>
<path fill="none" stroke="midnightblue" d="M311.142,-218.996C334.069,-214.704 359.184,-210.003 381.226,-205.876"/>
<polygon fill="midnightblue" stroke="midnightblue" points="381.933,-209.305 391.118,-204.025 380.645,-202.424 381.933,-209.305"/>
</g>
<!-- Node22 -->
<g id="node22" class="node"><title>Node22</title>
<g id="a_node22"><a xlink:href="../../d9/d37/classnars_1_1storage_1_1Bag_a64b0b75c54e6882a28702d7810094656.html#a64b0b75c54e6882a28702d7810094656" target="_top" xlink:title="Put an item back into the itemTable. ">
<polygon fill="none" stroke="black" points="378,-147 378,-166 508,-166 508,-147 378,-147"/>
<text text-anchor="middle" x="443" y="-154" font-family="Helvetica,sans-Serif" font-size="10.00">nars.storage.Bag.putBack</text>
</a>
</g>
</g>
<!-- Node2&#45;&gt;Node22 -->
<g id="edge22" class="edge"><title>Node2&#45;&gt;Node22</title>
<path fill="none" stroke="midnightblue" d="M290.468,-217.43C297.568,-214.554 304.608,-211.249 311,-207.5 329.466,-196.67 327.837,-185.042 347,-175.5 353.573,-172.227 360.667,-169.518 367.913,-167.275"/>
<polygon fill="midnightblue" stroke="midnightblue" points="369.164,-170.559 377.853,-164.497 367.28,-163.818 369.164,-170.559"/>
</g>
<!-- Node7 -->
<g id="node7" class="node"><title>Node7</title>
<g id="a_node7"><a xlink:href="../../d1/dd1/classnars_1_1entity_1_1Item_a97b35888ceaad90e7a428701051c51d7.html#a97b35888ceaad90e7a428701051c51d7" target="_top" xlink:title="Get priority value. ">
<polygon fill="none" stroke="black" points="599,-323 599,-342 731,-342 731,-323 599,-323"/>
<text text-anchor="middle" x="665" y="-330" font-family="Helvetica,sans-Serif" font-size="10.00">nars.entity.Item.getPriority</text>
</a>
</g>
</g>
<!-- Node6&#45;&gt;Node7 -->
<g id="edge6" class="edge"><title>Node6&#45;&gt;Node7</title>
<path fill="none" stroke="midnightblue" d="M524.117,-204.023C529.47,-206.574 534.509,-209.694 539,-213.5 573.447,-242.691 541.535,-278.189 575,-308.5 579.483,-312.561 584.583,-315.945 590.019,-318.765"/>
<polygon fill="midnightblue" stroke="midnightblue" points="588.879,-322.09 599.435,-322.997 591.749,-315.706 588.879,-322.09"/>
</g>
<!-- Node9 -->
<g id="node9" class="node"><title>Node9</title>
<g id="a_node9"><a xlink:href="../../d4/de4/classnars_1_1inference_1_1UtilityFunctions_a24093a77b49f21322e62c9bed7ff5ee2.html#a24093a77b49f21322e62c9bed7ff5ee2" target="_top" xlink:title="A function where the output is disjunctively determined by the inputs. ">
<polygon fill="none" stroke="black" points="795,-236 795,-255 956,-255 956,-236 795,-236"/>
<text text-anchor="middle" x="875.5" y="-243" font-family="Helvetica,sans-Serif" font-size="10.00">nars.inference.UtilityFunctions.or</text>
</a>
</g>
</g>
<!-- Node6&#45;&gt;Node9 -->
<g id="edge8" class="edge"><title>Node6&#45;&gt;Node9</title>
<path fill="none" stroke="midnightblue" d="M524.217,-204.003C598.134,-212.76 707.688,-225.738 784.546,-234.843"/>
<polygon fill="midnightblue" stroke="midnightblue" points="784.352,-238.345 794.695,-236.046 785.176,-231.393 784.352,-238.345"/>
</g>
<!-- Node10 -->
<g id="node10" class="node"><title>Node10</title>
<g id="a_node10"><a xlink:href="../../d4/de4/classnars_1_1inference_1_1UtilityFunctions_a8abd4e228bb1ac62df2efdf4487ff34d.html#a8abd4e228bb1ac62df2efdf4487ff34d" target="_top" xlink:title="A function where the output is the arithmetic average the inputs. ">
<polygon fill="none" stroke="black" points="575,-242 575,-261 755,-261 755,-242 575,-242"/>
<text text-anchor="middle" x="665" y="-249" font-family="Helvetica,sans-Serif" font-size="10.00">nars.inference.UtilityFunctions.aveAri</text>
</a>
</g>
</g>
<!-- Node6&#45;&gt;Node10 -->
<g id="edge9" class="edge"><title>Node6&#45;&gt;Node10</title>
<path fill="none" stroke="midnightblue" d="M499.902,-204.001C512.844,-206.663 526.487,-209.846 539,-213.5 555.479,-218.313 558.689,-222.146 575,-227.5 587.844,-231.716 601.901,-235.762 614.973,-239.292"/>
<polygon fill="midnightblue" stroke="midnightblue" points="614.178,-242.702 624.741,-241.885 615.974,-235.937 614.178,-242.702"/>
</g>
<!-- Node11 -->
<g id="node11" class="node"><title>Node11</title>
<g id="a_node11"><a xlink:href="../../d1/dd1/classnars_1_1entity_1_1Item_adbb21c1891722e30c1d6cfaf5fee18ee.html#adbb21c1891722e30c1d6cfaf5fee18ee" target="_top" xlink:title="Get durability value. ">
<polygon fill="none" stroke="black" points="593.5,-280 593.5,-299 736.5,-299 736.5,-280 593.5,-280"/>
<text text-anchor="middle" x="665" y="-287" font-family="Helvetica,sans-Serif" font-size="10.00">nars.entity.Item.getDurability</text>
</a>
</g>
</g>
<!-- Node6&#45;&gt;Node11 -->
<g id="edge10" class="edge"><title>Node6&#45;&gt;Node11</title>
<path fill="none" stroke="midnightblue" d="M520.927,-204.111C527.326,-206.603 533.457,-209.688 539,-213.5 563.688,-230.479 550.422,-253.362 575,-270.5 577.873,-272.504 580.917,-274.303 584.079,-275.918"/>
<polygon fill="midnightblue" stroke="midnightblue" points="582.703,-279.136 593.263,-279.998 585.546,-272.739 582.703,-279.136"/>
</g>
<!-- Node13 -->
<g id="node13" class="node"><title>Node13</title>
<g id="a_node13"><a xlink:href="../../d4/d22/classnars_1_1entity_1_1Concept_acf3c7af84e64586a6b1d549f02bfeead.html#acf3c7af84e64586a6b1d549f02bfeead" target="_top" xlink:title="Recalculate the quality of the concept [to be refined to show extension/intension balance]...">
<polygon fill="none" stroke="black" points="590.5,-166 590.5,-185 739.5,-185 739.5,-166 590.5,-166"/>
<text text-anchor="middle" x="665" y="-173" font-family="Helvetica,sans-Serif" font-size="10.00">nars.entity.Concept.getQuality</text>
</a>
</g>
</g>
<!-- Node6&#45;&gt;Node13 -->
<g id="edge12" class="edge"><title>Node6&#45;&gt;Node13</title>
<path fill="none" stroke="midnightblue" d="M539.216,-186.277C552.819,-185.102 566.73,-183.901 580.095,-182.746"/>
<polygon fill="midnightblue" stroke="midnightblue" points="580.533,-186.222 590.195,-181.874 579.93,-179.248 580.533,-186.222"/>
</g>
<!-- Node16 -->
<g id="node16" class="node"><title>Node16</title>
<g id="a_node16"><a xlink:href="../../d1/dd1/classnars_1_1entity_1_1Item_aeda0763b2c90f6fef3f23b9b4d3d68f0.html#aeda0763b2c90f6fef3f23b9b4d3d68f0" target="_top" xlink:title="Set priority value. ">
<polygon fill="none" stroke="black" points="599,-116 599,-135 731,-135 731,-116 599,-116"/>
<text text-anchor="middle" x="665" y="-123" font-family="Helvetica,sans-Serif" font-size="10.00">nars.entity.Item.setPriority</text>
</a>
</g>
</g>
<!-- Node6&#45;&gt;Node16 -->
<g id="edge16" class="edge"><title>Node6&#45;&gt;Node16</title>
<path fill="none" stroke="midnightblue" d="M505.269,-184.951C516.641,-182.42 528.302,-179.302 539,-175.5 556.047,-169.441 558.411,-163.718 575,-156.5 590.507,-149.753 608.001,-143.4 623.348,-138.224"/>
<polygon fill="midnightblue" stroke="midnightblue" points="624.689,-141.467 633.082,-135 622.488,-134.822 624.689,-141.467"/>
</g>
<!-- Node18 -->
<g id="node18" class="node"><title>Node18</title>
<g id="a_node18"><a xlink:href="../../d1/dd1/classnars_1_1entity_1_1Item_a0f27e5a39dc50b5f108732f59199db22.html#a0f27e5a39dc50b5f108732f59199db22" target="_top" xlink:title="Set durability value. ">
<polygon fill="none" stroke="black" points="593.5,-66 593.5,-85 736.5,-85 736.5,-66 593.5,-66"/>
<text text-anchor="middle" x="665" y="-73" font-family="Helvetica,sans-Serif" font-size="10.00">nars.entity.Item.setDurability</text>
</a>
</g>
</g>
<!-- Node6&#45;&gt;Node18 -->
<g id="edge18" class="edge"><title>Node6&#45;&gt;Node18</title>
<path fill="none" stroke="midnightblue" d="M522.219,-184.976C528.199,-182.451 533.887,-179.336 539,-175.5 566.669,-154.742 548.826,-129.113 575,-106.5 583.996,-98.7282 595.054,-92.8708 606.28,-88.4672"/>
<polygon fill="midnightblue" stroke="midnightblue" points="607.467,-91.7597 615.707,-85.1 605.113,-85.1676 607.467,-91.7597"/>
</g>
<!-- Node20 -->
<g id="node20" class="node"><title>Node20</title>
<g id="a_node20"><a xlink:href="../../d1/dd1/classnars_1_1entity_1_1Item_a686c257308a15eba9458a438cc60227a.html#a686c257308a15eba9458a438cc60227a" target="_top" xlink:title="Set quality value. ">
<polygon fill="none" stroke="black" points="599,-23 599,-42 731,-42 731,-23 599,-23"/>
<text text-anchor="middle" x="665" y="-30" font-family="Helvetica,sans-Serif" font-size="10.00">nars.entity.Item.setQuality</text>
</a>
</g>
</g>
<!-- Node6&#45;&gt;Node20 -->
<g id="edge20" class="edge"><title>Node6&#45;&gt;Node20</title>
<path fill="none" stroke="midnightblue" d="M525.317,-184.859C530.262,-182.316 534.891,-179.231 539,-175.5 579.909,-138.355 535.339,-94.9742 575,-56.5 579.268,-52.3597 584.172,-48.9157 589.437,-46.053"/>
<polygon fill="midnightblue" stroke="midnightblue" points="591.021,-49.1762 598.591,-41.764 588.051,-42.8375 591.021,-49.1762"/>
</g>
<!-- Node8 -->
<g id="node8" class="node"><title>Node8</title>
<g id="a_node8"><a xlink:href="../../db/d8e/classnars_1_1entity_1_1BudgetValue_a1e7b6826531f03f792f3516ce0e97ac3.html#a1e7b6826531f03f792f3516ce0e97ac3" target="_top" xlink:title="Get priority value. ">
<polygon fill="none" stroke="black" points="807,-323.5 807,-353.5 944,-353.5 944,-323.5 807,-323.5"/>
<text text-anchor="start" x="815" y="-341.5" font-family="Helvetica,sans-Serif" font-size="10.00">nars.entity.BudgetValue.get</text>
<text text-anchor="middle" x="875.5" y="-330.5" font-family="Helvetica,sans-Serif" font-size="10.00">Priority</text>
</a>
</g>
</g>
<!-- Node7&#45;&gt;Node8 -->
<g id="edge7" class="edge"><title>Node7&#45;&gt;Node8</title>
<path fill="none" stroke="midnightblue" d="M731.113,-334.374C751.846,-334.97 774.995,-335.637 796.541,-336.257"/>
<polygon fill="midnightblue" stroke="midnightblue" points="796.545,-339.758 806.641,-336.547 796.746,-332.761 796.545,-339.758"/>
</g>
<!-- Node12 -->
<g id="node12" class="node"><title>Node12</title>
<g id="a_node12"><a xlink:href="../../db/d8e/classnars_1_1entity_1_1BudgetValue_ab0e0dc2172d3fab6390670acb68da1a6.html#ab0e0dc2172d3fab6390670acb68da1a6" target="_top" xlink:title="Get durability value. ">
<polygon fill="none" stroke="black" points="807,-274.5 807,-304.5 944,-304.5 944,-274.5 807,-274.5"/>
<text text-anchor="start" x="815" y="-292.5" font-family="Helvetica,sans-Serif" font-size="10.00">nars.entity.BudgetValue.get</text>
<text text-anchor="middle" x="875.5" y="-281.5" font-family="Helvetica,sans-Serif" font-size="10.00">Durability</text>
</a>
</g>
</g>
<!-- Node11&#45;&gt;Node12 -->
<g id="edge11" class="edge"><title>Node11&#45;&gt;Node12</title>
<path fill="none" stroke="midnightblue" d="M736.589,-289.5C755.904,-289.5 776.947,-289.5 796.645,-289.5"/>
<polygon fill="midnightblue" stroke="midnightblue" points="796.806,-293 806.806,-289.5 796.806,-286 796.806,-293"/>
</g>
<!-- Node13&#45;&gt;Node9 -->
<g id="edge15" class="edge"><title>Node13&#45;&gt;Node9</title>
<path fill="none" stroke="midnightblue" d="M714.253,-185.119C727.795,-188.717 742.285,-193.445 755,-199.5 772.819,-207.986 773.063,-217.267 791,-225.5 797.281,-228.383 804.025,-230.877 810.859,-233.029"/>
<polygon fill="midnightblue" stroke="midnightblue" points="810.313,-236.515 820.892,-235.944 812.265,-229.793 810.313,-236.515"/>
</g>
<!-- Node14 -->
<g id="node14" class="node"><title>Node14</title>
<g id="a_node14"><a xlink:href="../../d9/d37/classnars_1_1storage_1_1Bag_a5ff587f448a7a832732b4d86eb9a7642.html#a5ff587f448a7a832732b4d86eb9a7642" target="_top" xlink:title="Get the average priority of Items. ">
<polygon fill="none" stroke="black" points="811.5,-186.5 811.5,-216.5 939.5,-216.5 939.5,-186.5 811.5,-186.5"/>
<text text-anchor="start" x="819.5" y="-204.5" font-family="Helvetica,sans-Serif" font-size="10.00">nars.storage.Bag.average</text>
<text text-anchor="middle" x="875.5" y="-193.5" font-family="Helvetica,sans-Serif" font-size="10.00">Priority</text>
</a>
</g>
</g>
<!-- Node13&#45;&gt;Node14 -->
<g id="edge13" class="edge"><title>Node13&#45;&gt;Node14</title>
<path fill="none" stroke="midnightblue" d="M739.509,-184.667C759.569,-187.168 781.296,-189.877 801.336,-192.376"/>
<polygon fill="midnightblue" stroke="midnightblue" points="800.977,-195.859 811.333,-193.623 801.843,-188.912 800.977,-195.859"/>
</g>
<!-- Node15 -->
<g id="node15" class="node"><title>Node15</title>
<g id="a_node15"><a xlink:href="../../d8/db8/classnars_1_1language_1_1Term_ae14632d1d25bcde8d6698ea0b58eb19a.html#ae14632d1d25bcde8d6698ea0b58eb19a" target="_top" xlink:title="The syntactic complexity, for constant automic Term, is 1. ">
<polygon fill="none" stroke="black" points="791,-148 791,-167 960,-167 960,-148 791,-148"/>
<text text-anchor="middle" x="875.5" y="-155" font-family="Helvetica,sans-Serif" font-size="10.00">nars.language.Term.getComplexity</text>
</a>
</g>
</g>
<!-- Node13&#45;&gt;Node15 -->
<g id="edge14" class="edge"><title>Node13&#45;&gt;Node15</title>
<path fill="none" stroke="midnightblue" d="M739.509,-169.154C752.906,-167.997 767.047,-166.777 780.932,-165.578"/>
<polygon fill="midnightblue" stroke="midnightblue" points="781.321,-169.057 790.983,-164.71 780.719,-162.083 781.321,-169.057"/>
</g>
<!-- Node17 -->
<g id="node17" class="node"><title>Node17</title>
<g id="a_node17"><a xlink:href="../../db/d8e/classnars_1_1entity_1_1BudgetValue_ac2cb3449a15125e5f0e4165aeee0befb.html#ac2cb3449a15125e5f0e4165aeee0befb" target="_top" xlink:title="Change priority value. ">
<polygon fill="none" stroke="black" points="807,-98.5 807,-128.5 944,-128.5 944,-98.5 807,-98.5"/>
<text text-anchor="start" x="815" y="-116.5" font-family="Helvetica,sans-Serif" font-size="10.00">nars.entity.BudgetValue.set</text>
<text text-anchor="middle" x="875.5" y="-105.5" font-family="Helvetica,sans-Serif" font-size="10.00">Priority</text>
</a>
</g>
</g>
<!-- Node16&#45;&gt;Node17 -->
<g id="edge17" class="edge"><title>Node16&#45;&gt;Node17</title>
<path fill="none" stroke="midnightblue" d="M731.113,-121.752C751.846,-120.559 774.995,-119.227 796.541,-117.987"/>
<polygon fill="midnightblue" stroke="midnightblue" points="796.859,-121.474 806.641,-117.406 796.457,-114.486 796.859,-121.474"/>
</g>
<!-- Node19 -->
<g id="node19" class="node"><title>Node19</title>
<g id="a_node19"><a xlink:href="../../db/d8e/classnars_1_1entity_1_1BudgetValue_ab72bce41fd8a1512fc8baa07ed93fc1b.html#ab72bce41fd8a1512fc8baa07ed93fc1b" target="_top" xlink:title="Change durability value. ">
<polygon fill="none" stroke="black" points="807,-49.5 807,-79.5 944,-79.5 944,-49.5 807,-49.5"/>
<text text-anchor="start" x="815" y="-67.5" font-family="Helvetica,sans-Serif" font-size="10.00">nars.entity.BudgetValue.set</text>
<text text-anchor="middle" x="875.5" y="-56.5" font-family="Helvetica,sans-Serif" font-size="10.00">Durability</text>
</a>
</g>
</g>
<!-- Node18&#45;&gt;Node19 -->
<g id="edge19" class="edge"><title>Node18&#45;&gt;Node19</title>
<path fill="none" stroke="midnightblue" d="M736.589,-71.7759C755.904,-70.7568 776.947,-69.6467 796.645,-68.6075"/>
<polygon fill="midnightblue" stroke="midnightblue" points="797.004,-72.0935 806.806,-68.0714 796.635,-65.1032 797.004,-72.0935"/>
</g>
<!-- Node21 -->
<g id="node21" class="node"><title>Node21</title>
<g id="a_node21"><a xlink:href="../../db/d8e/classnars_1_1entity_1_1BudgetValue_ab134287bfbdfe703501697c5f9eac50b.html#ab134287bfbdfe703501697c5f9eac50b" target="_top" xlink:title="Change quality value. ">
<polygon fill="none" stroke="black" points="807,-0.5 807,-30.5 944,-30.5 944,-0.5 807,-0.5"/>
<text text-anchor="start" x="815" y="-18.5" font-family="Helvetica,sans-Serif" font-size="10.00">nars.entity.BudgetValue.set</text>
<text text-anchor="middle" x="875.5" y="-7.5" font-family="Helvetica,sans-Serif" font-size="10.00">Quality</text>
</a>
</g>
</g>
<!-- Node20&#45;&gt;Node21 -->
<g id="edge21" class="edge"><title>Node20&#45;&gt;Node21</title>
<path fill="none" stroke="midnightblue" d="M731.113,-27.191C751.846,-25.5006 774.995,-23.6131 796.541,-21.8564"/>
<polygon fill="midnightblue" stroke="midnightblue" points="796.959,-25.334 806.641,-21.0329 796.39,-18.3572 796.959,-25.334"/>
</g>
</g>
</svg>
