<?xml version="1.0" encoding="UTF-8" standalone="no"?>
<!DOCTYPE svg PUBLIC "-//W3C//DTD SVG 1.1//EN"
 "http://www.w3.org/Graphics/SVG/1.1/DTD/svg11.dtd">
<!-- Generated by graphviz version 2.38.0 (20140413.2041)
 -->
<!-- Title: nars.entity.Concept.startPlay Pages: 1 -->
<svg width="361pt" height="203pt"
 viewBox="0.00 0.00 361.00 203.00" xmlns="http://www.w3.org/2000/svg" xmlns:xlink="http://www.w3.org/1999/xlink">
<g id="graph0" class="graph" transform="scale(1 1) rotate(0) translate(4 199)">
<title>nars.entity.Concept.startPlay</title>
<!-- Node1 -->
<g id="node1" class="node"><title>Node1</title>
<polygon fill="#bfbfbf" stroke="black" points="0,-82.5 0,-101.5 144,-101.5 144,-82.5 0,-82.5"/>
<text text-anchor="middle" x="72" y="-89.5" font-family="Helvetica,sans-Serif" font-size="10.00">nars.entity.Concept.startPlay</text>
</g>
<!-- Node2 -->
<g id="node2" class="node"><title>Node2</title>
<g id="a_node2"><a xlink:href="../../d9/d37/classnars_1_1storage_1_1Bag_a73a559e1b77e6bc3a7db686816accef2.html#a73a559e1b77e6bc3a7db686816accef2" target="_top" xlink:title="To start displaying the Bag in a BagWindow. ">
<polygon fill="none" stroke="black" points="183,-175.5 183,-194.5 350,-194.5 350,-175.5 183,-175.5"/>
<text text-anchor="middle" x="266.5" y="-182.5" font-family="Helvetica,sans-Serif" font-size="10.00">nars.storage.Bag.addBagObserver</text>
</a>
</g>
</g>
<!-- Node1&#45;&gt;Node2 -->
<g id="edge1" class="edge"><title>Node1&#45;&gt;Node2</title>
<path fill="none" stroke="midnightblue" d="M83.6942,-101.545C102.043,-117.4 141.296,-149.092 180,-166 185.761,-168.517 191.891,-170.716 198.121,-172.635"/>
<polygon fill="midnightblue" stroke="midnightblue" points="197.379,-176.062 207.954,-175.425 199.289,-169.328 197.379,-176.062"/>
</g>
<!-- Node3 -->
<g id="node3" class="node"><title>Node3</title>
<g id="a_node3"><a xlink:href="../../d4/d96/interfacenars_1_1entity_1_1EntityObserver_a58888a42bc7ce9a40165517c8ca81667.html#a58888a42bc7ce9a40165517c8ca81667" target="_top" xlink:title="nars.entity.EntityObserver.create\lBagObserver">
<polygon fill="none" stroke="black" points="186,-126 186,-156 347,-156 347,-126 186,-126"/>
<text text-anchor="start" x="194" y="-144" font-family="Helvetica,sans-Serif" font-size="10.00">nars.entity.EntityObserver.create</text>
<text text-anchor="middle" x="266.5" y="-133" font-family="Helvetica,sans-Serif" font-size="10.00">BagObserver</text>
</a>
</g>
</g>
<!-- Node1&#45;&gt;Node3 -->
<g id="edge2" class="edge"><title>Node1&#45;&gt;Node3</title>
<path fill="none" stroke="midnightblue" d="M110.573,-101.564C134.944,-107.768 167.431,-116.037 196.361,-123.401"/>
<polygon fill="midnightblue" stroke="midnightblue" points="195.872,-126.888 206.426,-125.963 197.599,-120.104 195.872,-126.888"/>
</g>
<!-- Node4 -->
<g id="node4" class="node"><title>Node4</title>
<g id="a_node4"><a xlink:href="../../d4/d22/classnars_1_1entity_1_1Concept_a2b2088a51d2519fe76c791b6c6945409.html#a2b2088a51d2519fe76c791b6c6945409" target="_top" xlink:title="Collect direct isBelief, questions, and goals for display. ">
<polygon fill="none" stroke="black" points="198.5,-77 198.5,-107 334.5,-107 334.5,-77 198.5,-77"/>
<text text-anchor="start" x="206.5" y="-95" font-family="Helvetica,sans-Serif" font-size="10.00">nars.entity.Concept.display</text>
<text text-anchor="middle" x="266.5" y="-84" font-family="Helvetica,sans-Serif" font-size="10.00">Content</text>
</a>
</g>
</g>
<!-- Node1&#45;&gt;Node4 -->
<g id="edge3" class="edge"><title>Node1&#45;&gt;Node4</title>
<path fill="none" stroke="midnightblue" d="M144.133,-92C158.578,-92 173.835,-92 188.474,-92"/>
<polygon fill="midnightblue" stroke="midnightblue" points="188.492,-95.5001 198.492,-92 188.492,-88.5001 188.492,-95.5001"/>
</g>
<!-- Node5 -->
<g id="node5" class="node"><title>Node5</title>
<g id="a_node5"><a xlink:href="../../d4/d96/interfacenars_1_1entity_1_1EntityObserver_ac62aeea4d8b2ba99f935a2380b8e9407.html#ac62aeea4d8b2ba99f935a2380b8e9407" target="_top" xlink:title="Display the content of the concept. ">
<polygon fill="none" stroke="black" points="190.5,-38.5 190.5,-57.5 342.5,-57.5 342.5,-38.5 190.5,-38.5"/>
<text text-anchor="middle" x="266.5" y="-45.5" font-family="Helvetica,sans-Serif" font-size="10.00">nars.entity.EntityObserver.post</text>
</a>
</g>
</g>
<!-- Node1&#45;&gt;Node5 -->
<g id="edge4" class="edge"><title>Node1&#45;&gt;Node5</title>
<path fill="none" stroke="midnightblue" d="M114.77,-82.4527C143.905,-75.7931 182.972,-66.8637 214.032,-59.7642"/>
<polygon fill="midnightblue" stroke="midnightblue" points="214.843,-63.169 223.812,-57.5287 213.283,-56.345 214.843,-63.169"/>
</g>
<!-- Node6 -->
<g id="node6" class="node"><title>Node6</title>
<g id="a_node6"><a xlink:href="../../d4/d96/interfacenars_1_1entity_1_1EntityObserver_aef3ebd18d9e7d210d5c46e49e749142a.html#aef3ebd18d9e7d210d5c46e49e749142a" target="_top" xlink:title="nars.entity.EntityObserver.startPlay">
<polygon fill="none" stroke="black" points="180,-0.5 180,-19.5 353,-19.5 353,-0.5 180,-0.5"/>
<text text-anchor="middle" x="266.5" y="-7.5" font-family="Helvetica,sans-Serif" font-size="10.00">nars.entity.EntityObserver.startPlay</text>
</a>
</g>
</g>
<!-- Node1&#45;&gt;Node6 -->
<g id="edge5" class="edge"><title>Node1&#45;&gt;Node6</title>
<path fill="none" stroke="midnightblue" d="M86.1468,-82.401C105.666,-68.5935 143.899,-43.2269 180,-29 186.614,-26.3936 193.663,-24.1055 200.769,-22.1064"/>
<polygon fill="midnightblue" stroke="midnightblue" points="201.677,-25.4866 210.457,-19.5568 199.896,-18.7171 201.677,-25.4866"/>
</g>
</g>
</svg>
