<?xml version="1.0" encoding="UTF-8" standalone="no"?>
<!DOCTYPE svg PUBLIC "-//W3C//DTD SVG 1.1//EN"
 "http://www.w3.org/Graphics/SVG/1.1/DTD/svg11.dtd">
<!-- Generated by graphviz version 2.38.0 (20140413.2041)
 -->
<!-- Title: nars.entity.Concept.addToTable Pages: 1 -->
<!--zoomable 416 -->
<svg id="main" version="1.1" xmlns="http://www.w3.org/2000/svg" xmlns:xlink="http://www.w3.org/1999/xlink" xml:space="preserve" onload="init(evt)">
<style type="text/css"><![CDATA[
.edge:hover path { stroke: red; }
.edge:hover polygon { stroke: red; fill: red; }
]]></style>
<script type="text/javascript"><![CDATA[
var edges = document.getElementsByTagName('g');
if (edges && edges.length) {
  for (var i=0;i<edges.length;i++) {
    if (edges[i].id.substr(0,4)=='edge') {
      edges[i].setAttribute('class','edge');
    }
  }
}
]]></script>
        <defs>
                <circle id="rim" cx="0" cy="0" r="7"/>
                <circle id="rim2" cx="0" cy="0" r="3.5"/>
                <g id="zoomPlus">
                        <use xlink:href="#rim" fill="#404040">
                                <set attributeName="fill" to="#808080" begin="zoomplus.mouseover" end="zoomplus.mouseout"/>
                        </use>
                        <path d="M-4,0h8M0,-4v8" fill="none" stroke="white" stroke-width="1.5" pointer-events="none"/>
                </g>
                <g id="zoomMin">
                        <use xlink:href="#rim" fill="#404040">
                                <set attributeName="fill" to="#808080" begin="zoomminus.mouseover" end="zoomminus.mouseout"/>
                        </use>
                        <path d="M-4,0h8" fill="none" stroke="white" stroke-width="1.5" pointer-events="none"/>
                </g>
                <g id="dirArrow">
                        <path fill="none" stroke="white" stroke-width="1.5" d="M0,-3.0v7 M-2.5,-0.5L0,-3.0L2.5,-0.5"/>
                </g>
               <g id="resetDef">
                       <use xlink:href="#rim2" fill="#404040">
                               <set attributeName="fill" to="#808080" begin="reset.mouseover" end="reset.mouseout"/>
                       </use>
               </g>
        </defs>

<script type="text/javascript">
var viewWidth = 731;
var viewHeight = 416;
var sectionId = 'dynsection-0';
</script>
<script xlink:href="../../svgpan.js"/>
<svg id="graph" class="graph">
<g id="viewport">
<title>nars.entity.Concept.addToTable</title>
<!-- Node1 -->
<g id="node1" class="node"><title>Node1</title>
<polygon fill="#bfbfbf" stroke="black" points="0,-171 0,-201 132,-201 132,-171 0,-171"/>
<text text-anchor="start" x="8" y="-189" font-family="Helvetica,sans-Serif" font-size="10.00">nars.entity.Concept.addTo</text>
<text text-anchor="middle" x="66" y="-178" font-family="Helvetica,sans-Serif" font-size="10.00">Table</text>
</g>
<!-- Node2 -->
<g id="node2" class="node"><title>Node2</title>
<g id="a_node2"><a xlink:href="../../d6/d25/classnars_1_1entity_1_1Sentence_a8fee2d32f0024964146b13d7698210c5.html#a8fee2d32f0024964146b13d7698210c5" target="_top" xlink:title="Check whether the judgment is equivalent to another one. ">
<polygon fill="none" stroke="black" points="173.5,-232.5 173.5,-251.5 338.5,-251.5 338.5,-232.5 173.5,-232.5"/>
<text text-anchor="middle" x="256" y="-239.5" font-family="Helvetica,sans-Serif" font-size="10.00">nars.entity.Sentence.equivalentTo</text>
</a>
</g>
</g>
<!-- Node1&#45;&gt;Node2 -->
<g id="edge1" class="edge"><title>Node1&#45;&gt;Node2</title>
<path fill="none" stroke="midnightblue" d="M117.381,-201.007C147.444,-209.962 185.157,-221.196 213.498,-229.638"/>
<polygon fill="midnightblue" stroke="midnightblue" points="212.52,-232.998 223.103,-232.499 214.519,-226.29 212.52,-232.998"/>
</g>
<!-- Node15 -->
<g id="node15" class="node"><title>Node15</title>
<g id="a_node15"><a xlink:href="../../d7/d11/classnars_1_1inference_1_1BudgetFunctions_a5c7290e12cda0925b936c07ed7b806f3.html#a5c7290e12cda0925b936c07ed7b806f3" target="_top" xlink:title="Determine the rank of a judgment by its confidence and originality (stamp length) ...">
<polygon fill="none" stroke="black" points="168,-93 168,-123 344,-123 344,-93 168,-93"/>
<text text-anchor="start" x="176" y="-111" font-family="Helvetica,sans-Serif" font-size="10.00">nars.inference.BudgetFunctions.rank</text>
<text text-anchor="middle" x="256" y="-100" font-family="Helvetica,sans-Serif" font-size="10.00">Belief</text>
</a>
</g>
</g>
<!-- Node1&#45;&gt;Node15 -->
<g id="edge14" class="edge"><title>Node1&#45;&gt;Node15</title>
<path fill="none" stroke="midnightblue" d="M103.248,-170.961C133.451,-158.43 176.64,-140.511 209.226,-126.991"/>
<polygon fill="midnightblue" stroke="midnightblue" points="210.647,-130.191 218.543,-123.126 207.965,-123.725 210.647,-130.191"/>
</g>
<!-- Node3 -->
<g id="node3" class="node"><title>Node3</title>
<g id="a_node3"><a xlink:href="../../d8/db8/classnars_1_1language_1_1Term_ad85f45a7858737445d5158801774ff5f.html#ad85f45a7858737445d5158801774ff5f" target="_top" xlink:title="Equal terms have identical name, though not necessarily the same reference. ">
<polygon fill="none" stroke="black" points="393.5,-388.5 393.5,-407.5 527.5,-407.5 527.5,-388.5 393.5,-388.5"/>
<text text-anchor="middle" x="460.5" y="-395.5" font-family="Helvetica,sans-Serif" font-size="10.00">nars.language.Term.equals</text>
</a>
</g>
</g>
<!-- Node2&#45;&gt;Node3 -->
<g id="edge2" class="edge"><title>Node2&#45;&gt;Node3</title>
<path fill="none" stroke="midnightblue" d="M262.768,-251.783C278.252,-277.134 323.418,-345.322 380,-379 383.635,-381.164 387.502,-383.081 391.497,-384.781"/>
<polygon fill="midnightblue" stroke="midnightblue" points="390.411,-388.112 401.003,-388.363 392.88,-381.561 390.411,-388.112"/>
</g>
<!-- Node5 -->
<g id="node5" class="node"><title>Node5</title>
<g id="a_node5"><a xlink:href="../../d6/d25/classnars_1_1entity_1_1Sentence_ad1ded9a02cae3557948d05530cd4d37e.html#ad1ded9a02cae3557948d05530cd4d37e" target="_top" xlink:title="Get the content of the sentence. ">
<polygon fill="none" stroke="black" points="399,-339 399,-369 522,-369 522,-339 399,-339"/>
<text text-anchor="start" x="407" y="-357" font-family="Helvetica,sans-Serif" font-size="10.00">nars.entity.Sentence.get</text>
<text text-anchor="middle" x="460.5" y="-346" font-family="Helvetica,sans-Serif" font-size="10.00">Content</text>
</a>
</g>
</g>
<!-- Node2&#45;&gt;Node5 -->
<g id="edge4" class="edge"><title>Node2&#45;&gt;Node5</title>
<path fill="none" stroke="midnightblue" d="M267.737,-251.578C288.194,-269.375 334.763,-307.75 380,-330 383.784,-331.861 387.741,-333.61 391.783,-335.249"/>
<polygon fill="midnightblue" stroke="midnightblue" points="390.732,-338.594 401.324,-338.872 393.217,-332.05 390.732,-338.594"/>
</g>
<!-- Node6 -->
<g id="node6" class="node"><title>Node6</title>
<g id="a_node6"><a xlink:href="../../d6/d25/classnars_1_1entity_1_1Sentence_a3e0fe978c5d87f921a277fd067982980.html#a3e0fe978c5d87f921a277fd067982980" target="_top" xlink:title="Get the punctuation of the sentence. ">
<polygon fill="none" stroke="black" points="399,-290 399,-320 522,-320 522,-290 399,-290"/>
<text text-anchor="start" x="407" y="-308" font-family="Helvetica,sans-Serif" font-size="10.00">nars.entity.Sentence.get</text>
<text text-anchor="middle" x="460.5" y="-297" font-family="Helvetica,sans-Serif" font-size="10.00">Punctuation</text>
</a>
</g>
</g>
<!-- Node2&#45;&gt;Node6 -->
<g id="edge5" class="edge"><title>Node2&#45;&gt;Node6</title>
<path fill="none" stroke="midnightblue" d="M287.755,-251.568C317.819,-260.921 364.344,-275.396 401.391,-286.921"/>
<polygon fill="midnightblue" stroke="midnightblue" points="400.488,-290.306 411.077,-289.935 402.568,-283.622 400.488,-290.306"/>
</g>
<!-- Node7 -->
<g id="node7" class="node"><title>Node7</title>
<g id="a_node7"><a xlink:href="../../d3/db8/classnars_1_1entity_1_1TruthValue_a6c90107ab2c878d9527d4330f08ecac8.html#a6c90107ab2c878d9527d4330f08ecac8" target="_top" xlink:title="Compare two truth values. ">
<polygon fill="none" stroke="black" points="388.5,-213.5 388.5,-232.5 532.5,-232.5 532.5,-213.5 388.5,-213.5"/>
<text text-anchor="middle" x="460.5" y="-220.5" font-family="Helvetica,sans-Serif" font-size="10.00">nars.entity.TruthValue.equals</text>
</a>
</g>
</g>
<!-- Node2&#45;&gt;Node7 -->
<g id="edge6" class="edge"><title>Node2&#45;&gt;Node7</title>
<path fill="none" stroke="midnightblue" d="M338.781,-234.327C351.773,-233.108 365.209,-231.847 378.191,-230.629"/>
<polygon fill="midnightblue" stroke="midnightblue" points="378.857,-234.082 388.486,-229.663 378.203,-227.113 378.857,-234.082"/>
</g>
<!-- Node10 -->
<g id="node10" class="node"><title>Node10</title>
<g id="a_node10"><a xlink:href="../../d6/d25/classnars_1_1entity_1_1Sentence_a9f69b4fef64c81abad21404946cd41f9.html#a9f69b4fef64c81abad21404946cd41f9" target="_top" xlink:title="Get the truth value of the sentence. ">
<polygon fill="none" stroke="black" points="399,-164 399,-194 522,-194 522,-164 399,-164"/>
<text text-anchor="start" x="407" y="-182" font-family="Helvetica,sans-Serif" font-size="10.00">nars.entity.Sentence.get</text>
<text text-anchor="middle" x="460.5" y="-171" font-family="Helvetica,sans-Serif" font-size="10.00">Truth</text>
</a>
</g>
</g>
<!-- Node2&#45;&gt;Node10 -->
<g id="edge9" class="edge"><title>Node2&#45;&gt;Node10</title>
<path fill="none" stroke="midnightblue" d="M287.755,-232.432C317.819,-223.079 364.344,-208.604 401.391,-197.079"/>
<polygon fill="midnightblue" stroke="midnightblue" points="402.568,-200.378 411.077,-194.065 400.488,-193.694 402.568,-200.378"/>
</g>
<!-- Node11 -->
<g id="node11" class="node"><title>Node11</title>
<g id="a_node11"><a xlink:href="../../d1/d1e/classnars_1_1entity_1_1Stamp_adb33cdf9f13e1a919f7220cb622e7446.html#adb33cdf9f13e1a919f7220cb622e7446" target="_top" xlink:title="Check if two stamps contains the same content. ">
<polygon fill="none" stroke="black" points="398,-251.5 398,-270.5 523,-270.5 523,-251.5 398,-251.5"/>
<text text-anchor="middle" x="460.5" y="-258.5" font-family="Helvetica,sans-Serif" font-size="10.00">nars.entity.Stamp.equals</text>
</a>
</g>
</g>
<!-- Node2&#45;&gt;Node11 -->
<g id="edge10" class="edge"><title>Node2&#45;&gt;Node11</title>
<path fill="none" stroke="midnightblue" d="M338.781,-249.673C354.989,-251.194 371.888,-252.78 387.733,-254.266"/>
<polygon fill="midnightblue" stroke="midnightblue" points="387.691,-257.778 397.974,-255.227 388.345,-250.808 387.691,-257.778"/>
</g>
<!-- Node14 -->
<g id="node14" class="node"><title>Node14</title>
<g id="a_node14"><a xlink:href="../../d6/d25/classnars_1_1entity_1_1Sentence_ac0ed749c50e55120d5b63219ed7eb082.html#ac0ed749c50e55120d5b63219ed7eb082" target="_top" xlink:title="Get the stamp of the sentence. ">
<polygon fill="none" stroke="black" points="399,-115 399,-145 522,-145 522,-115 399,-115"/>
<text text-anchor="start" x="407" y="-133" font-family="Helvetica,sans-Serif" font-size="10.00">nars.entity.Sentence.get</text>
<text text-anchor="middle" x="460.5" y="-122" font-family="Helvetica,sans-Serif" font-size="10.00">Stamp</text>
</a>
</g>
</g>
<!-- Node2&#45;&gt;Node14 -->
<g id="edge13" class="edge"><title>Node2&#45;&gt;Node14</title>
<path fill="none" stroke="midnightblue" d="M267.737,-232.422C288.194,-214.625 334.763,-176.25 380,-154 383.784,-152.139 387.741,-150.39 391.783,-148.751"/>
<polygon fill="midnightblue" stroke="midnightblue" points="393.217,-151.95 401.324,-145.128 390.732,-145.406 393.217,-151.95"/>
</g>
<!-- Node4 -->
<g id="node4" class="node"><title>Node4</title>
<g id="a_node4"><a xlink:href="../../d8/db8/classnars_1_1language_1_1Term_a3aad4654016b8615fd4fa8a26668e1db.html#a3aad4654016b8615fd4fa8a26668e1db" target="_top" xlink:title="Reporting the name of the current Term. ">
<polygon fill="none" stroke="black" points="577,-388.5 577,-407.5 723,-407.5 723,-388.5 577,-388.5"/>
<text text-anchor="middle" x="650" y="-395.5" font-family="Helvetica,sans-Serif" font-size="10.00">nars.language.Term.getName</text>
</a>
</g>
</g>
<!-- Node3&#45;&gt;Node4 -->
<g id="edge3" class="edge"><title>Node3&#45;&gt;Node4</title>
<path fill="none" stroke="midnightblue" d="M527.605,-398C540.168,-398 553.457,-398 566.456,-398"/>
<polygon fill="midnightblue" stroke="midnightblue" points="566.798,-401.5 576.798,-398 566.798,-394.5 566.798,-401.5"/>
</g>
<!-- Node8 -->
<g id="node8" class="node"><title>Node8</title>
<g id="a_node8"><a xlink:href="../../d3/db8/classnars_1_1entity_1_1TruthValue_a9eac33f2495441c77911a8581a5bbe61.html#a9eac33f2495441c77911a8581a5bbe61" target="_top" xlink:title="Get the frequency value. ">
<polygon fill="none" stroke="black" points="585.5,-202 585.5,-232 714.5,-232 714.5,-202 585.5,-202"/>
<text text-anchor="start" x="593.5" y="-220" font-family="Helvetica,sans-Serif" font-size="10.00">nars.entity.TruthValue.get</text>
<text text-anchor="middle" x="650" y="-209" font-family="Helvetica,sans-Serif" font-size="10.00">Frequency</text>
</a>
</g>
</g>
<!-- Node7&#45;&gt;Node8 -->
<g id="edge7" class="edge"><title>Node7&#45;&gt;Node8</title>
<path fill="none" stroke="midnightblue" d="M532.653,-220.723C546.575,-220.278 561.204,-219.809 575.209,-219.361"/>
<polygon fill="midnightblue" stroke="midnightblue" points="575.395,-222.857 585.278,-219.039 575.171,-215.861 575.395,-222.857"/>
</g>
<!-- Node9 -->
<g id="node9" class="node"><title>Node9</title>
<g id="a_node9"><a xlink:href="../../d3/db8/classnars_1_1entity_1_1TruthValue_a68ca7d92e9ea20d2a9a9f578ad7b681c.html#a68ca7d92e9ea20d2a9a9f578ad7b681c" target="_top" xlink:title="Get the confidence value. ">
<polygon fill="none" stroke="black" points="585.5,-112 585.5,-142 714.5,-142 714.5,-112 585.5,-112"/>
<text text-anchor="start" x="593.5" y="-130" font-family="Helvetica,sans-Serif" font-size="10.00">nars.entity.TruthValue.get</text>
<text text-anchor="middle" x="650" y="-119" font-family="Helvetica,sans-Serif" font-size="10.00">Confidence</text>
</a>
</g>
</g>
<!-- Node7&#45;&gt;Node9 -->
<g id="edge8" class="edge"><title>Node7&#45;&gt;Node9</title>
<path fill="none" stroke="midnightblue" d="M511.235,-213.474C521.321,-210.72 531.685,-207.27 541,-203 571.911,-188.83 603.255,-165.57 624.155,-148.508"/>
<polygon fill="midnightblue" stroke="midnightblue" points="626.443,-151.158 631.901,-142.077 621.971,-145.773 626.443,-151.158"/>
</g>
<!-- Node12 -->
<g id="node12" class="node"><title>Node12</title>
<g id="a_node12"><a xlink:href="../../d1/d1e/classnars_1_1entity_1_1Stamp_a7b5d3afaab9fc48e2d4d571b8508970d.html#a7b5d3afaab9fc48e2d4d571b8508970d" target="_top" xlink:title="Convert the evidentialBase into a set. ">
<polygon fill="none" stroke="black" points="590,-251.5 590,-270.5 710,-270.5 710,-251.5 590,-251.5"/>
<text text-anchor="middle" x="650" y="-258.5" font-family="Helvetica,sans-Serif" font-size="10.00">nars.entity.Stamp.toSet</text>
</a>
</g>
</g>
<!-- Node11&#45;&gt;Node12 -->
<g id="edge11" class="edge"><title>Node11&#45;&gt;Node12</title>
<path fill="none" stroke="midnightblue" d="M523.154,-261C541.256,-261 561.173,-261 579.718,-261"/>
<polygon fill="midnightblue" stroke="midnightblue" points="579.858,-264.5 589.858,-261 579.858,-257.5 579.858,-264.5"/>
</g>
<!-- Node13 -->
<g id="node13" class="node"><title>Node13</title>
<g id="a_node13"><a xlink:href="../../d1/d1e/classnars_1_1entity_1_1Stamp_a959f21fb20f72cfd277d994332e862c3.html#a959f21fb20f72cfd277d994332e862c3" target="_top" xlink:title="Generate a new stamp, with a new serial number, for a new Task. ">
<polygon fill="none" stroke="black" points="587.5,-289.5 587.5,-308.5 712.5,-308.5 712.5,-289.5 587.5,-289.5"/>
<text text-anchor="middle" x="650" y="-296.5" font-family="Helvetica,sans-Serif" font-size="10.00">nars.entity.Stamp.Stamp</text>
</a>
</g>
</g>
<!-- Node11&#45;&gt;Node13 -->
<g id="edge12" class="edge"><title>Node11&#45;&gt;Node13</title>
<path fill="none" stroke="midnightblue" d="M508.814,-270.589C534.114,-275.716 565.45,-282.067 592.075,-287.463"/>
<polygon fill="midnightblue" stroke="midnightblue" points="591.53,-290.924 602.026,-289.48 592.921,-284.063 591.53,-290.924"/>
</g>
<!-- Node15&#45;&gt;Node9 -->
<g id="edge16" class="edge"><title>Node15&#45;&gt;Node9</title>
<path fill="none" stroke="midnightblue" d="M344.232,-102.09C400.529,-99.505 475.26,-98.3723 541,-105 552.412,-106.151 564.401,-107.968 576.071,-110.078"/>
<polygon fill="midnightblue" stroke="midnightblue" points="575.745,-113.578 586.222,-111.998 577.046,-106.7 575.745,-113.578"/>
</g>
<!-- Node15&#45;&gt;Node10 -->
<g id="edge15" class="edge"><title>Node15&#45;&gt;Node10</title>
<path fill="none" stroke="midnightblue" d="M295.588,-123.033C319.729,-132.288 351.542,-144.212 380,-154 386.527,-156.245 393.381,-158.521 400.215,-160.739"/>
<polygon fill="midnightblue" stroke="midnightblue" points="399.581,-164.212 410.172,-163.937 401.721,-157.547 399.581,-164.212"/>
</g>
<!-- Node15&#45;&gt;Node14 -->
<g id="edge17" class="edge"><title>Node15&#45;&gt;Node14</title>
<path fill="none" stroke="midnightblue" d="M344.053,-117.458C358.89,-119.07 374.142,-120.726 388.499,-122.286"/>
<polygon fill="midnightblue" stroke="midnightblue" points="388.458,-125.802 398.778,-123.403 389.214,-118.843 388.458,-125.802"/>
</g>
<!-- Node16 -->
<g id="node16" class="node"><title>Node16</title>
<g id="a_node16"><a xlink:href="../../d1/d1e/classnars_1_1entity_1_1Stamp_a316ac8d258c291cb941e50f17c2dc0eb.html#a316ac8d258c291cb941e50f17c2dc0eb" target="_top" xlink:title="Return the baseLength of the evidentialBase. ">
<polygon fill="none" stroke="black" points="399,-0.5 399,-19.5 522,-19.5 522,-0.5 399,-0.5"/>
<text text-anchor="middle" x="460.5" y="-7.5" font-family="Helvetica,sans-Serif" font-size="10.00">nars.entity.Stamp.length</text>
</a>
</g>
</g>
<!-- Node15&#45;&gt;Node16 -->
<g id="edge18" class="edge"><title>Node15&#45;&gt;Node16</title>
<path fill="none" stroke="midnightblue" d="M275.878,-92.9691C299.091,-75.1994 340.308,-45.911 380,-29 385.826,-26.5179 392.036,-24.3237 398.32,-22.3927"/>
<polygon fill="midnightblue" stroke="midnightblue" points="399.555,-25.6802 408.211,-19.571 397.635,-18.9488 399.555,-25.6802"/>
</g>
<!-- Node17 -->
<g id="node17" class="node"><title>Node17</title>
<g id="a_node17"><a xlink:href="../../d4/de4/classnars_1_1inference_1_1UtilityFunctions_a24093a77b49f21322e62c9bed7ff5ee2.html#a24093a77b49f21322e62c9bed7ff5ee2" target="_top" xlink:title="A function where the output is disjunctively determined by the inputs. ">
<polygon fill="none" stroke="black" points="380,-38.5 380,-57.5 541,-57.5 541,-38.5 380,-38.5"/>
<text text-anchor="middle" x="460.5" y="-45.5" font-family="Helvetica,sans-Serif" font-size="10.00">nars.inference.UtilityFunctions.or</text>
</a>
</g>
</g>
<!-- Node15&#45;&gt;Node17 -->
<g id="edge19" class="edge"><title>Node15&#45;&gt;Node17</title>
<path fill="none" stroke="midnightblue" d="M307.838,-92.9369C341.667,-82.9135 385.576,-69.9033 417.437,-60.4632"/>
<polygon fill="midnightblue" stroke="midnightblue" points="418.736,-63.7288 427.329,-57.532 416.747,-57.0172 418.736,-63.7288"/>
</g>
</g>
</svg>
        <g id="navigator" transform="translate(0 0)" fill="#404254">
                <rect fill="#f2f5e9" fill-opacity="0.5" stroke="#606060" stroke-width=".5" x="0" y="0" width="60" height="60"/>
                <use id="zoomplus" xlink:href="#zoomPlus" x="17" y="9" onmousedown="handleZoom(evt,'in')"/>
                <use id="zoomminus" xlink:href="#zoomMin" x="42" y="9" onmousedown="handleZoom(evt,'out')"/>
                <use id="reset" xlink:href="#resetDef" x="30" y="36" onmousedown="handleReset()"/>
                <g id="arrowUp" xlink:href="#dirArrow" transform="translate(30 24)" onmousedown="handlePan(0,-1)">
                  <use xlink:href="#rim" fill="#404040">
                        <set attributeName="fill" to="#808080" begin="arrowUp.mouseover" end="arrowUp.mouseout"/>
                  </use>
                  <path fill="none" stroke="white" stroke-width="1.5" d="M0,-3.0v7 M-2.5,-0.5L0,-3.0L2.5,-0.5"/>
                </g>
                <g id="arrowRight" xlink:href="#dirArrow" transform="rotate(90) translate(36 -43)" onmousedown="handlePan(1,0)">
                  <use xlink:href="#rim" fill="#404040">
                        <set attributeName="fill" to="#808080" begin="arrowRight.mouseover" end="arrowRight.mouseout"/>
                  </use>
                  <path fill="none" stroke="white" stroke-width="1.5" d="M0,-3.0v7 M-2.5,-0.5L0,-3.0L2.5,-0.5"/>
                </g>
                <g id="arrowDown" xlink:href="#dirArrow" transform="rotate(180) translate(-30 -48)" onmousedown="handlePan(0,1)">
                  <use xlink:href="#rim" fill="#404040">
                        <set attributeName="fill" to="#808080" begin="arrowDown.mouseover" end="arrowDown.mouseout"/>
                  </use>
                  <path fill="none" stroke="white" stroke-width="1.5" d="M0,-3.0v7 M-2.5,-0.5L0,-3.0L2.5,-0.5"/>
                </g>
                <g id="arrowLeft" xlink:href="#dirArrow" transform="rotate(270) translate(-36 17)" onmousedown="handlePan(-1,0)">
                  <use xlink:href="#rim" fill="#404040">
                        <set attributeName="fill" to="#808080" begin="arrowLeft.mouseover" end="arrowLeft.mouseout"/>
                  </use>
                  <path fill="none" stroke="white" stroke-width="1.5" d="M0,-3.0v7 M-2.5,-0.5L0,-3.0L2.5,-0.5"/>
                </g>
        </g>
        <svg viewBox="0 0 15 15" width="100%" height="30px" preserveAspectRatio="xMaxYMin meet">
         <g id="arrow_out" transform="scale(0.3 0.3)">
          <a xlink:href="classnars_1_1entity_1_1Concept_a83976b43424cb26fe9cea8654cfee743_a83976b43424cb26fe9cea8654cfee743_cgraph_org.svg" target="_base">
           <rect id="button" ry="5" rx="5" y="6" x="6" height="38" width="38"
                fill="#f2f5e9" fill-opacity="0.5" stroke="#606060" stroke-width="1.0"/>
           <path id="arrow"
             d="M 11.500037,31.436501 C 11.940474,20.09759 22.043105,11.32322 32.158766,21.979434 L 37.068811,17.246167 C 37.068811,17.246167 37.088388,32 37.088388,32 L 22.160133,31.978069 C 22.160133,31.978069 26.997745,27.140456 26.997745,27.140456 C 18.528582,18.264221 13.291696,25.230495 11.500037,31.436501 z"
             style="fill:#404040;"/>
          </a>
         </g>
        </svg>
</svg>
