<?xml version="1.0" encoding="UTF-8" standalone="no"?>
<!DOCTYPE svg PUBLIC "-//W3C//DTD SVG 1.1//EN"
 "http://www.w3.org/Graphics/SVG/1.1/DTD/svg11.dtd">
<!-- Generated by graphviz version 2.38.0 (20140413.2041)
 -->
<!-- Title: nars.entity.Item.toString Pages: 1 -->
<svg width="491pt" height="39pt"
 viewBox="0.00 0.00 491.00 39.00" xmlns="http://www.w3.org/2000/svg" xmlns:xlink="http://www.w3.org/1999/xlink">
<g id="graph0" class="graph" transform="scale(1 1) rotate(0) translate(4 35)">
<title>nars.entity.Item.toString</title>
<!-- Node1 -->
<g id="node1" class="node"><title>Node1</title>
<polygon fill="#bfbfbf" stroke="black" points="0,-6 0,-25 122,-25 122,-6 0,-6"/>
<text text-anchor="middle" x="61" y="-13" font-family="Helvetica,sans-Serif" font-size="10.00">nars.entity.Item.toString</text>
</g>
<!-- Node2 -->
<g id="node2" class="node"><title>Node2</title>
<g id="a_node2"><a xlink:href="../../d1/dd1/classnars_1_1entity_1_1Item_af06f82dd62f5ddf754886b15e1d76dbc.html#af06f82dd62f5ddf754886b15e1d76dbc" target="_top" xlink:title="nars.entity.Item.toStringLong">
<polygon fill="none" stroke="black" points="158,-6 158,-25 301,-25 301,-6 158,-6"/>
<text text-anchor="middle" x="229.5" y="-13" font-family="Helvetica,sans-Serif" font-size="10.00">nars.entity.Item.toStringLong</text>
</a>
</g>
</g>
<!-- Node1&#45;&gt;Node2 -->
<g id="edge1" class="edge"><title>Node1&#45;&gt;Node2</title>
<path fill="none" stroke="midnightblue" d="M132.347,-15.5C140.835,-15.5 149.505,-15.5 157.995,-15.5"/>
<polygon fill="midnightblue" stroke="midnightblue" points="132.11,-12.0001 122.11,-15.5 132.11,-19.0001 132.11,-12.0001"/>
</g>
<!-- Node3 -->
<g id="node3" class="node"><title>Node3</title>
<g id="a_node3"><a xlink:href="../../d8/df4/classnars_1_1storage_1_1Memory_ac887d547c5ab3eff63f44a07bb9ff339.html#ac887d547c5ab3eff63f44a07bb9ff339" target="_top" xlink:title="nars.storage.Memory.toString\lLongIfNotNull">
<polygon fill="none" stroke="black" points="337,-0.5 337,-30.5 483,-30.5 483,-0.5 337,-0.5"/>
<text text-anchor="start" x="345" y="-18.5" font-family="Helvetica,sans-Serif" font-size="10.00">nars.storage.Memory.toString</text>
<text text-anchor="middle" x="410" y="-7.5" font-family="Helvetica,sans-Serif" font-size="10.00">LongIfNotNull</text>
</a>
</g>
</g>
<!-- Node2&#45;&gt;Node3 -->
<g id="edge2" class="edge"><title>Node2&#45;&gt;Node3</title>
<path fill="none" stroke="midnightblue" d="M311.086,-15.5C319.695,-15.5 328.414,-15.5 336.916,-15.5"/>
<polygon fill="midnightblue" stroke="midnightblue" points="311.048,-12.0001 301.048,-15.5 311.048,-19.0001 311.048,-12.0001"/>
</g>
</g>
</svg>
