<?xml version="1.0" encoding="UTF-8" standalone="no"?>
<!DOCTYPE svg PUBLIC "-//W3C//DTD SVG 1.1//EN"
 "http://www.w3.org/Graphics/SVG/1.1/DTD/svg11.dtd">
<!-- Generated by graphviz version 2.38.0 (20140413.2041)
 -->
<!-- Title: nars.entity.Item.decDurability Pages: 1 -->
<!--zoomable 137 -->
<svg id="main" version="1.1" xmlns="http://www.w3.org/2000/svg" xmlns:xlink="http://www.w3.org/1999/xlink" xml:space="preserve" onload="init(evt)">
<style type="text/css"><![CDATA[
.edge:hover path { stroke: red; }
.edge:hover polygon { stroke: red; fill: red; }
]]></style>
<script type="text/javascript"><![CDATA[
var edges = document.getElementsByTagName('g');
if (edges && edges.length) {
  for (var i=0;i<edges.length;i++) {
    if (edges[i].id.substr(0,4)=='edge') {
      edges[i].setAttribute('class','edge');
    }
  }
}
]]></script>
        <defs>
                <circle id="rim" cx="0" cy="0" r="7"/>
                <circle id="rim2" cx="0" cy="0" r="3.5"/>
                <g id="zoomPlus">
                        <use xlink:href="#rim" fill="#404040">
                                <set attributeName="fill" to="#808080" begin="zoomplus.mouseover" end="zoomplus.mouseout"/>
                        </use>
                        <path d="M-4,0h8M0,-4v8" fill="none" stroke="white" stroke-width="1.5" pointer-events="none"/>
                </g>
                <g id="zoomMin">
                        <use xlink:href="#rim" fill="#404040">
                                <set attributeName="fill" to="#808080" begin="zoomminus.mouseover" end="zoomminus.mouseout"/>
                        </use>
                        <path d="M-4,0h8" fill="none" stroke="white" stroke-width="1.5" pointer-events="none"/>
                </g>
                <g id="dirArrow">
                        <path fill="none" stroke="white" stroke-width="1.5" d="M0,-3.0v7 M-2.5,-0.5L0,-3.0L2.5,-0.5"/>
                </g>
               <g id="resetDef">
                       <use xlink:href="#rim2" fill="#404040">
                               <set attributeName="fill" to="#808080" begin="reset.mouseover" end="reset.mouseout"/>
                       </use>
               </g>
        </defs>

<script type="text/javascript">
var viewWidth = 2557;
var viewHeight = 137;
var sectionId = 'dynsection-1';
</script>
<script xlink:href="../../svgpan.js"/>
<svg id="graph" class="graph">
<g id="viewport">
<title>nars.entity.Item.decDurability</title>
<!-- Node1 -->
<g id="node1" class="node"><title>Node1</title>
<polygon fill="#bfbfbf" stroke="black" points="0,-31 0,-50 145,-50 145,-31 0,-31"/>
<text text-anchor="middle" x="72.5" y="-38" font-family="Helvetica,sans-Serif" font-size="10.00">nars.entity.Item.decDurability</text>
</g>
<!-- Node2 -->
<g id="node2" class="node"><title>Node2</title>
<g id="a_node2"><a xlink:href="../../d7/d11/classnars_1_1inference_1_1BudgetFunctions_ac5e336432ebc7744461334f04bfd5216.html#ac5e336432ebc7744461334f04bfd5216" target="_top" xlink:title="Evaluate the quality of a revision, then de&#45;prioritize the premises. ">
<polygon fill="none" stroke="black" points="181,-31 181,-50 365,-50 365,-31 181,-31"/>
<text text-anchor="middle" x="273" y="-38" font-family="Helvetica,sans-Serif" font-size="10.00">nars.inference.BudgetFunctions.revise</text>
</a>
</g>
</g>
<!-- Node1&#45;&gt;Node2 -->
<g id="edge1" class="edge"><title>Node1&#45;&gt;Node2</title>
<path fill="none" stroke="midnightblue" d="M155.297,-40.5C163.689,-40.5 172.253,-40.5 180.739,-40.5"/>
<polygon fill="midnightblue" stroke="midnightblue" points="155.163,-37.0001 145.163,-40.5 155.163,-44.0001 155.163,-37.0001"/>
</g>
<!-- Node3 -->
<g id="node3" class="node"><title>Node3</title>
<g id="a_node3"><a xlink:href="../../d4/de9/classnars_1_1inference_1_1LocalRules_a40edb0903d098da966e3ef972e5c8abd.html#a40edb0903d098da966e3ef972e5c8abd" target="_top" xlink:title="Belief revision. ">
<polygon fill="none" stroke="black" points="401,-31 401,-50 568,-50 568,-31 401,-31"/>
<text text-anchor="middle" x="484.5" y="-38" font-family="Helvetica,sans-Serif" font-size="10.00">nars.inference.LocalRules.revision</text>
</a>
</g>
</g>
<!-- Node2&#45;&gt;Node3 -->
<g id="edge2" class="edge"><title>Node2&#45;&gt;Node3</title>
<path fill="none" stroke="midnightblue" d="M375.555,-40.5C384.002,-40.5 392.476,-40.5 400.759,-40.5"/>
<polygon fill="midnightblue" stroke="midnightblue" points="375.28,-37.0001 365.28,-40.5 375.28,-44.0001 375.28,-37.0001"/>
</g>
<!-- Node4 -->
<g id="node4" class="node"><title>Node4</title>
<g id="a_node4"><a xlink:href="../../d4/d22/classnars_1_1entity_1_1Concept_a40cddcc82ee28a1cf5b1f4bc14e2b078.html#a40cddcc82ee28a1cf5b1f4bc14e2b078" target="_top" xlink:title="To accept a new judgment as isBelief, and check for revisions and solutions. ">
<polygon fill="none" stroke="black" points="614,-48.5 614,-78.5 754,-78.5 754,-48.5 614,-48.5"/>
<text text-anchor="start" x="622" y="-66.5" font-family="Helvetica,sans-Serif" font-size="10.00">nars.entity.Concept.process</text>
<text text-anchor="middle" x="684" y="-55.5" font-family="Helvetica,sans-Serif" font-size="10.00">Judgment</text>
</a>
</g>
</g>
<!-- Node3&#45;&gt;Node4 -->
<g id="edge3" class="edge"><title>Node3&#45;&gt;Node4</title>
<path fill="none" stroke="midnightblue" d="M577.49,-51.2128C589.732,-52.6384 602.113,-54.0802 613.875,-55.45"/>
<polygon fill="midnightblue" stroke="midnightblue" points="577.594,-47.7013 567.256,-50.021 576.784,-54.6543 577.594,-47.7013"/>
</g>
<!-- Node15 -->
<g id="node15" class="node"><title>Node15</title>
<g id="a_node15"><a xlink:href="../../d4/de9/classnars_1_1inference_1_1LocalRules_aac1c92950f50edd04d12229a8c992987.html#aac1c92950f50edd04d12229a8c992987" target="_top" xlink:title="The task and belief have the same content. ">
<polygon fill="none" stroke="black" points="604,-8 604,-27 764,-27 764,-8 604,-8"/>
<text text-anchor="middle" x="684" y="-15" font-family="Helvetica,sans-Serif" font-size="10.00">nars.inference.LocalRules.match</text>
</a>
</g>
</g>
<!-- Node3&#45;&gt;Node15 -->
<g id="edge15" class="edge"><title>Node3&#45;&gt;Node15</title>
<path fill="none" stroke="midnightblue" d="M577.244,-29.8159C586.132,-28.7809 595.096,-27.7369 603.846,-26.7179"/>
<polygon fill="midnightblue" stroke="midnightblue" points="576.784,-26.3457 567.256,-30.979 577.594,-33.2987 576.784,-26.3457"/>
</g>
<!-- Node5 -->
<g id="node5" class="node"><title>Node5</title>
<g id="a_node5"><a xlink:href="../../d4/d22/classnars_1_1entity_1_1Concept_a9ea7c3154932d7a736c105eb55daeb5c.html#a9ea7c3154932d7a736c105eb55daeb5c" target="_top" xlink:title="Directly process a new task. ">
<polygon fill="none" stroke="black" points="817,-49.5 817,-79.5 946,-79.5 946,-49.5 817,-49.5"/>
<text text-anchor="start" x="825" y="-67.5" font-family="Helvetica,sans-Serif" font-size="10.00">nars.entity.Concept.direct</text>
<text text-anchor="middle" x="881.5" y="-56.5" font-family="Helvetica,sans-Serif" font-size="10.00">Process</text>
</a>
</g>
</g>
<!-- Node4&#45;&gt;Node5 -->
<g id="edge4" class="edge"><title>Node4&#45;&gt;Node5</title>
<path fill="none" stroke="midnightblue" d="M764.386,-63.9061C781.875,-63.9955 800.177,-64.0891 816.943,-64.1749"/>
<polygon fill="midnightblue" stroke="midnightblue" points="764.219,-60.4053 754.201,-63.854 764.183,-67.4052 764.219,-60.4053"/>
</g>
<!-- Node6 -->
<g id="node6" class="node"><title>Node6</title>
<g id="a_node6"><a xlink:href="../../d8/df4/classnars_1_1storage_1_1Memory_a175200c1f4c182222d0e66439b6e53a0.html#a175200c1f4c182222d0e66439b6e53a0" target="_top" xlink:title="Immediate processing of a new task, in constant time Local processing, in one concept only...">
<polygon fill="none" stroke="black" points="999,-49.5 999,-79.5 1156,-79.5 1156,-49.5 999,-49.5"/>
<text text-anchor="start" x="1007" y="-67.5" font-family="Helvetica,sans-Serif" font-size="10.00">nars.storage.Memory.immediate</text>
<text text-anchor="middle" x="1077.5" y="-56.5" font-family="Helvetica,sans-Serif" font-size="10.00">Process</text>
</a>
</g>
</g>
<!-- Node5&#45;&gt;Node6 -->
<g id="edge5" class="edge"><title>Node5&#45;&gt;Node6</title>
<path fill="none" stroke="midnightblue" d="M956.088,-64.5C970.105,-64.5 984.815,-64.5 998.95,-64.5"/>
<polygon fill="midnightblue" stroke="midnightblue" points="956.023,-61.0001 946.023,-64.5 956.023,-68.0001 956.023,-61.0001"/>
</g>
<!-- Node7 -->
<g id="node7" class="node"><title>Node7</title>
<g id="a_node7"><a xlink:href="../../d8/df4/classnars_1_1storage_1_1Memory_a105e44a3504921cc1036eb979b85d9f0.html#a105e44a3504921cc1036eb979b85d9f0" target="_top" xlink:title="Process the newTasks accumulated in the previous workCycle, accept input ones and those that correspo...">
<polygon fill="none" stroke="black" points="1192,-98.5 1192,-128.5 1338,-128.5 1338,-98.5 1192,-98.5"/>
<text text-anchor="start" x="1200" y="-116.5" font-family="Helvetica,sans-Serif" font-size="10.00">nars.storage.Memory.process</text>
<text text-anchor="middle" x="1265" y="-105.5" font-family="Helvetica,sans-Serif" font-size="10.00">NewTask</text>
</a>
</g>
</g>
<!-- Node6&#45;&gt;Node7 -->
<g id="edge6" class="edge"><title>Node6&#45;&gt;Node7</title>
<path fill="none" stroke="midnightblue" d="M1145.22,-82.1229C1165.51,-87.4837 1187.61,-93.3225 1207.19,-98.4938"/>
<polygon fill="midnightblue" stroke="midnightblue" points="1145.98,-78.7047 1135.42,-79.5346 1144.19,-85.4725 1145.98,-78.7047"/>
</g>
<!-- Node14 -->
<g id="node14" class="node"><title>Node14</title>
<g id="a_node14"><a xlink:href="../../d8/df4/classnars_1_1storage_1_1Memory_afe3b4d1bb5fab652ceca53c04773af73.html#afe3b4d1bb5fab652ceca53c04773af73" target="_top" xlink:title="Select a novel task to process. ">
<polygon fill="none" stroke="black" points="1192,-49.5 1192,-79.5 1338,-79.5 1338,-49.5 1192,-49.5"/>
<text text-anchor="start" x="1200" y="-67.5" font-family="Helvetica,sans-Serif" font-size="10.00">nars.storage.Memory.process</text>
<text text-anchor="middle" x="1265" y="-56.5" font-family="Helvetica,sans-Serif" font-size="10.00">NovelTask</text>
</a>
</g>
</g>
<!-- Node6&#45;&gt;Node14 -->
<g id="edge13" class="edge"><title>Node6&#45;&gt;Node14</title>
<path fill="none" stroke="midnightblue" d="M1166.12,-64.5C1174.71,-64.5 1183.35,-64.5 1191.75,-64.5"/>
<polygon fill="midnightblue" stroke="midnightblue" points="1166.09,-61.0001 1156.09,-64.5 1166.09,-68.0001 1166.09,-61.0001"/>
</g>
<!-- Node8 -->
<g id="node8" class="node"><title>Node8</title>
<g id="a_node8"><a xlink:href="../../d8/df4/classnars_1_1storage_1_1Memory_a49e2cbc8b78d535f4d69739886ee966a.html#a49e2cbc8b78d535f4d69739886ee966a" target="_top" xlink:title="An atomic working workCycle of the system: process new Tasks, then fire a concept. ">
<polygon fill="none" stroke="black" points="1374,-49.5 1374,-79.5 1507,-79.5 1507,-49.5 1374,-49.5"/>
<text text-anchor="start" x="1382" y="-67.5" font-family="Helvetica,sans-Serif" font-size="10.00">nars.storage.Memory.work</text>
<text text-anchor="middle" x="1440.5" y="-56.5" font-family="Helvetica,sans-Serif" font-size="10.00">Cycle</text>
</a>
</g>
</g>
<!-- Node7&#45;&gt;Node8 -->
<g id="edge7" class="edge"><title>Node7&#45;&gt;Node8</title>
<path fill="none" stroke="midnightblue" d="M1329.1,-95.6788C1347.83,-90.3882 1368.16,-84.6478 1386.21,-79.5516"/>
<polygon fill="midnightblue" stroke="midnightblue" points="1328.14,-92.3123 1319.47,-98.3986 1330.05,-99.0488 1328.14,-92.3123"/>
</g>
<!-- Node9 -->
<g id="node9" class="node"><title>Node9</title>
<g id="a_node9"><a xlink:href="../../dd/da5/classnars_1_1storage_1_1Memory_1_1ReasonerBatch_acc60dec23da774957a85362ed6d7448b.html#acc60dec23da774957a85362ed6d7448b" target="_top" xlink:title="nars.storage.Memory.Reasoner\lBatch.doTick">
<polygon fill="none" stroke="black" points="1543,-49.5 1543,-79.5 1697,-79.5 1697,-49.5 1543,-49.5"/>
<text text-anchor="start" x="1551" y="-67.5" font-family="Helvetica,sans-Serif" font-size="10.00">nars.storage.Memory.Reasoner</text>
<text text-anchor="middle" x="1620" y="-56.5" font-family="Helvetica,sans-Serif" font-size="10.00">Batch.doTick</text>
</a>
</g>
</g>
<!-- Node8&#45;&gt;Node9 -->
<g id="edge8" class="edge"><title>Node8&#45;&gt;Node9</title>
<path fill="none" stroke="midnightblue" d="M1517.32,-64.5C1525.79,-64.5 1534.41,-64.5 1542.89,-64.5"/>
<polygon fill="midnightblue" stroke="midnightblue" points="1517.09,-61.0001 1507.09,-64.5 1517.09,-68.0001 1517.09,-61.0001"/>
</g>
<!-- Node10 -->
<g id="node10" class="node"><title>Node10</title>
<g id="a_node10"><a xlink:href="../../dd/da5/classnars_1_1storage_1_1Memory_1_1ReasonerBatch_aed591f05899b98fd9e4ad01836ad0a40.html#aed591f05899b98fd9e4ad01836ad0a40" target="_top" xlink:title="A clock tick. ">
<polygon fill="none" stroke="black" points="1733,-49.5 1733,-79.5 1887,-79.5 1887,-49.5 1733,-49.5"/>
<text text-anchor="start" x="1741" y="-67.5" font-family="Helvetica,sans-Serif" font-size="10.00">nars.storage.Memory.Reasoner</text>
<text text-anchor="middle" x="1810" y="-56.5" font-family="Helvetica,sans-Serif" font-size="10.00">Batch.tick</text>
</a>
</g>
</g>
<!-- Node9&#45;&gt;Node10 -->
<g id="edge9" class="edge"><title>Node9&#45;&gt;Node10</title>
<path fill="none" stroke="midnightblue" d="M1707.42,-64.5C1715.86,-64.5 1724.37,-64.5 1732.7,-64.5"/>
<polygon fill="midnightblue" stroke="midnightblue" points="1707.2,-61.0001 1697.2,-64.5 1707.2,-68.0001 1707.2,-61.0001"/>
</g>
<!-- Node11 -->
<g id="node11" class="node"><title>Node11</title>
<g id="a_node11"><a xlink:href="../../d4/d88/classnars_1_1storage_1_1Memory_1_1NARSBatch_aad99db6cedde9cff2a997db8906ff821.html#aad99db6cedde9cff2a997db8906ff821" target="_top" xlink:title="Run to completion: repeatedly execute NARS working cycle, until Inputs are Finished, or 1000 steps. ">
<polygon fill="none" stroke="black" points="1923,-55 1923,-74 2105,-74 2105,-55 1923,-55"/>
<text text-anchor="middle" x="2014" y="-62" font-family="Helvetica,sans-Serif" font-size="10.00">nars.storage.Memory.NARSBatch.run</text>
</a>
</g>
</g>
<!-- Node10&#45;&gt;Node11 -->
<g id="edge10" class="edge"><title>Node10&#45;&gt;Node11</title>
<path fill="none" stroke="midnightblue" d="M1897.27,-64.5C1905.69,-64.5 1914.25,-64.5 1922.71,-64.5"/>
<polygon fill="midnightblue" stroke="midnightblue" points="1897.08,-61.0001 1887.08,-64.5 1897.08,-68.0001 1897.08,-61.0001"/>
</g>
<!-- Node12 -->
<g id="node12" class="node"><title>Node12</title>
<g id="a_node12"><a xlink:href="../../d4/d88/classnars_1_1storage_1_1Memory_1_1NARSBatch_a416c39463faa161661ed1d12fea03b3c.html#a416c39463faa161661ed1d12fea03b3c" target="_top" xlink:title="non&#45;static equivalent to main(String[]) : run to completion from an input file ">
<polygon fill="none" stroke="black" points="2141,-49.5 2141,-79.5 2323,-79.5 2323,-49.5 2141,-49.5"/>
<text text-anchor="start" x="2149" y="-67.5" font-family="Helvetica,sans-Serif" font-size="10.00">nars.storage.Memory.NARSBatch.run</text>
<text text-anchor="middle" x="2232" y="-56.5" font-family="Helvetica,sans-Serif" font-size="10.00">Inference</text>
</a>
</g>
</g>
<!-- Node11&#45;&gt;Node12 -->
<g id="edge11" class="edge"><title>Node11&#45;&gt;Node12</title>
<path fill="none" stroke="midnightblue" d="M2115.06,-64.5C2123.63,-64.5 2132.27,-64.5 2140.76,-64.5"/>
<polygon fill="midnightblue" stroke="midnightblue" points="2115.04,-61.0001 2105.04,-64.5 2115.04,-68.0001 2115.04,-61.0001"/>
</g>
<!-- Node13 -->
<g id="node13" class="node"><title>Node13</title>
<g id="a_node13"><a xlink:href="../../d4/d88/classnars_1_1storage_1_1Memory_1_1NARSBatch_aa97fcd68270583e60e6bf1b4579d1bdc.html#aa97fcd68270583e60e6bf1b4579d1bdc" target="_top" xlink:title="The entry point of the standalone application. ">
<polygon fill="none" stroke="black" points="2359,-55 2359,-74 2549,-74 2549,-55 2359,-55"/>
<text text-anchor="middle" x="2454" y="-62" font-family="Helvetica,sans-Serif" font-size="10.00">nars.storage.Memory.NARSBatch.main</text>
</a>
</g>
</g>
<!-- Node12&#45;&gt;Node13 -->
<g id="edge12" class="edge"><title>Node12&#45;&gt;Node13</title>
<path fill="none" stroke="midnightblue" d="M2333.37,-64.5C2341.82,-64.5 2350.34,-64.5 2358.74,-64.5"/>
<polygon fill="midnightblue" stroke="midnightblue" points="2333.12,-61.0001 2323.12,-64.5 2333.12,-68.0001 2333.12,-61.0001"/>
</g>
<!-- Node14&#45;&gt;Node8 -->
<g id="edge14" class="edge"><title>Node14&#45;&gt;Node8</title>
<path fill="none" stroke="midnightblue" d="M1348.12,-64.5C1356.72,-64.5 1365.37,-64.5 1373.76,-64.5"/>
<polygon fill="midnightblue" stroke="midnightblue" points="1348.07,-61.0001 1338.07,-64.5 1348.07,-68.0001 1348.07,-61.0001"/>
</g>
<!-- Node16 -->
<g id="node16" class="node"><title>Node16</title>
<g id="a_node16"><a xlink:href="../../da/de3/classnars_1_1inference_1_1RuleTables_ac2d01dfdc40bdd47c757cb549217e6e3.html#ac2d01dfdc40bdd47c757cb549217e6e3" target="_top" xlink:title="Entry point of the inference engine. ">
<polygon fill="none" stroke="black" points="800,-7 800,-26 963,-26 963,-7 800,-7"/>
<text text-anchor="middle" x="881.5" y="-14" font-family="Helvetica,sans-Serif" font-size="10.00">nars.inference.RuleTables.reason</text>
</a>
</g>
</g>
<!-- Node15&#45;&gt;Node16 -->
<g id="edge16" class="edge"><title>Node15&#45;&gt;Node16</title>
<path fill="none" stroke="midnightblue" d="M774.499,-17.0422C782.962,-16.9989 791.507,-16.9552 799.88,-16.9124"/>
<polygon fill="midnightblue" stroke="midnightblue" points="774.217,-13.5435 764.236,-17.0947 774.253,-20.5434 774.217,-13.5435"/>
</g>
<!-- Node17 -->
<g id="node17" class="node"><title>Node17</title>
<g id="a_node17"><a xlink:href="../../d4/d22/classnars_1_1entity_1_1Concept_ae07576c8466ad65eeb61040e3f71cfc7.html#ae07576c8466ad65eeb61040e3f71cfc7" target="_top" xlink:title="An atomic step in a concept, only called in Memory# processConcept. ">
<polygon fill="none" stroke="black" points="1018,-6 1018,-25 1137,-25 1137,-6 1018,-6"/>
<text text-anchor="middle" x="1077.5" y="-13" font-family="Helvetica,sans-Serif" font-size="10.00">nars.entity.Concept.fire</text>
</a>
</g>
</g>
<!-- Node16&#45;&gt;Node17 -->
<g id="edge17" class="edge"><title>Node16&#45;&gt;Node17</title>
<path fill="none" stroke="midnightblue" d="M973.461,-16.0311C988.516,-15.9535 1003.76,-15.8749 1017.75,-15.8028"/>
<polygon fill="midnightblue" stroke="midnightblue" points="973.07,-12.533 963.088,-16.0846 973.106,-19.5329 973.07,-12.533"/>
</g>
<!-- Node18 -->
<g id="node18" class="node"><title>Node18</title>
<g id="a_node18"><a xlink:href="../../d8/df4/classnars_1_1storage_1_1Memory_a83154b55b922c82b73931d4f22e3a590.html#a83154b55b922c82b73931d4f22e3a590" target="_top" xlink:title="Select a concept to fire. ">
<polygon fill="none" stroke="black" points="1192,-0.5 1192,-30.5 1338,-30.5 1338,-0.5 1192,-0.5"/>
<text text-anchor="start" x="1200" y="-18.5" font-family="Helvetica,sans-Serif" font-size="10.00">nars.storage.Memory.process</text>
<text text-anchor="middle" x="1265" y="-7.5" font-family="Helvetica,sans-Serif" font-size="10.00">Concept</text>
</a>
</g>
</g>
<!-- Node17&#45;&gt;Node18 -->
<g id="edge18" class="edge"><title>Node17&#45;&gt;Node18</title>
<path fill="none" stroke="midnightblue" d="M1147.52,-15.5C1161.93,-15.5 1177.16,-15.5 1191.68,-15.5"/>
<polygon fill="midnightblue" stroke="midnightblue" points="1147.19,-12.0001 1137.19,-15.5 1147.19,-19.0001 1147.19,-12.0001"/>
</g>
<!-- Node18&#45;&gt;Node8 -->
<g id="edge19" class="edge"><title>Node18&#45;&gt;Node8</title>
<path fill="none" stroke="midnightblue" d="M1329.1,-33.3212C1347.83,-38.6118 1368.16,-44.3522 1386.21,-49.4484"/>
<polygon fill="midnightblue" stroke="midnightblue" points="1330.05,-29.9512 1319.47,-30.6014 1328.14,-36.6877 1330.05,-29.9512"/>
</g>
</g>
</svg>
        <g id="navigator" transform="translate(0 0)" fill="#404254">
                <rect fill="#f2f5e9" fill-opacity="0.5" stroke="#606060" stroke-width=".5" x="0" y="0" width="60" height="60"/>
                <use id="zoomplus" xlink:href="#zoomPlus" x="17" y="9" onmousedown="handleZoom(evt,'in')"/>
                <use id="zoomminus" xlink:href="#zoomMin" x="42" y="9" onmousedown="handleZoom(evt,'out')"/>
                <use id="reset" xlink:href="#resetDef" x="30" y="36" onmousedown="handleReset()"/>
                <g id="arrowUp" xlink:href="#dirArrow" transform="translate(30 24)" onmousedown="handlePan(0,-1)">
                  <use xlink:href="#rim" fill="#404040">
                        <set attributeName="fill" to="#808080" begin="arrowUp.mouseover" end="arrowUp.mouseout"/>
                  </use>
                  <path fill="none" stroke="white" stroke-width="1.5" d="M0,-3.0v7 M-2.5,-0.5L0,-3.0L2.5,-0.5"/>
                </g>
                <g id="arrowRight" xlink:href="#dirArrow" transform="rotate(90) translate(36 -43)" onmousedown="handlePan(1,0)">
                  <use xlink:href="#rim" fill="#404040">
                        <set attributeName="fill" to="#808080" begin="arrowRight.mouseover" end="arrowRight.mouseout"/>
                  </use>
                  <path fill="none" stroke="white" stroke-width="1.5" d="M0,-3.0v7 M-2.5,-0.5L0,-3.0L2.5,-0.5"/>
                </g>
                <g id="arrowDown" xlink:href="#dirArrow" transform="rotate(180) translate(-30 -48)" onmousedown="handlePan(0,1)">
                  <use xlink:href="#rim" fill="#404040">
                        <set attributeName="fill" to="#808080" begin="arrowDown.mouseover" end="arrowDown.mouseout"/>
                  </use>
                  <path fill="none" stroke="white" stroke-width="1.5" d="M0,-3.0v7 M-2.5,-0.5L0,-3.0L2.5,-0.5"/>
                </g>
                <g id="arrowLeft" xlink:href="#dirArrow" transform="rotate(270) translate(-36 17)" onmousedown="handlePan(-1,0)">
                  <use xlink:href="#rim" fill="#404040">
                        <set attributeName="fill" to="#808080" begin="arrowLeft.mouseover" end="arrowLeft.mouseout"/>
                  </use>
                  <path fill="none" stroke="white" stroke-width="1.5" d="M0,-3.0v7 M-2.5,-0.5L0,-3.0L2.5,-0.5"/>
                </g>
        </g>
        <svg viewBox="0 0 15 15" width="100%" height="30px" preserveAspectRatio="xMaxYMin meet">
         <g id="arrow_out" transform="scale(0.3 0.3)">
          <a xlink:href="classnars_1_1entity_1_1Item_a4761275e8e265c669dc539af3e15eef8_a4761275e8e265c669dc539af3e15eef8_icgraph_org.svg" target="_base">
           <rect id="button" ry="5" rx="5" y="6" x="6" height="38" width="38"
                fill="#f2f5e9" fill-opacity="0.5" stroke="#606060" stroke-width="1.0"/>
           <path id="arrow"
             d="M 11.500037,31.436501 C 11.940474,20.09759 22.043105,11.32322 32.158766,21.979434 L 37.068811,17.246167 C 37.068811,17.246167 37.088388,32 37.088388,32 L 22.160133,31.978069 C 22.160133,31.978069 26.997745,27.140456 26.997745,27.140456 C 18.528582,18.264221 13.291696,25.230495 11.500037,31.436501 z"
             style="fill:#404040;"/>
          </a>
         </g>
        </svg>
</svg>
