<?xml version="1.0" encoding="UTF-8" standalone="no"?>
<!DOCTYPE svg PUBLIC "-//W3C//DTD SVG 1.1//EN"
 "http://www.w3.org/Graphics/SVG/1.1/DTD/svg11.dtd">
<!-- Generated by graphviz version 2.38.0 (20140413.2041)
 -->
<!-- Title: nars.entity.Item.merge Pages: 1 -->
<!--zoomable 235 -->
<svg id="main" version="1.1" xmlns="http://www.w3.org/2000/svg" xmlns:xlink="http://www.w3.org/1999/xlink" xml:space="preserve" onload="init(evt)">
<style type="text/css"><![CDATA[
.edge:hover path { stroke: red; }
.edge:hover polygon { stroke: red; fill: red; }
]]></style>
<script type="text/javascript"><![CDATA[
var edges = document.getElementsByTagName('g');
if (edges && edges.length) {
  for (var i=0;i<edges.length;i++) {
    if (edges[i].id.substr(0,4)=='edge') {
      edges[i].setAttribute('class','edge');
    }
  }
}
]]></script>
        <defs>
                <circle id="rim" cx="0" cy="0" r="7"/>
                <circle id="rim2" cx="0" cy="0" r="3.5"/>
                <g id="zoomPlus">
                        <use xlink:href="#rim" fill="#404040">
                                <set attributeName="fill" to="#808080" begin="zoomplus.mouseover" end="zoomplus.mouseout"/>
                        </use>
                        <path d="M-4,0h8M0,-4v8" fill="none" stroke="white" stroke-width="1.5" pointer-events="none"/>
                </g>
                <g id="zoomMin">
                        <use xlink:href="#rim" fill="#404040">
                                <set attributeName="fill" to="#808080" begin="zoomminus.mouseover" end="zoomminus.mouseout"/>
                        </use>
                        <path d="M-4,0h8" fill="none" stroke="white" stroke-width="1.5" pointer-events="none"/>
                </g>
                <g id="dirArrow">
                        <path fill="none" stroke="white" stroke-width="1.5" d="M0,-3.0v7 M-2.5,-0.5L0,-3.0L2.5,-0.5"/>
                </g>
               <g id="resetDef">
                       <use xlink:href="#rim2" fill="#404040">
                               <set attributeName="fill" to="#808080" begin="reset.mouseover" end="reset.mouseout"/>
                       </use>
               </g>
        </defs>

<script type="text/javascript">
var viewWidth = 901;
var viewHeight = 235;
var sectionId = 'dynsection-0';
</script>
<script xlink:href="../../svgpan.js"/>
<svg id="graph" class="graph">
<g id="viewport">
<title>nars.entity.Item.merge</title>
<!-- Node1 -->
<g id="node1" class="node"><title>Node1</title>
<polygon fill="#bfbfbf" stroke="black" points="0,-123 0,-142 115,-142 115,-123 0,-123"/>
<text text-anchor="middle" x="57.5" y="-130" font-family="Helvetica,sans-Serif" font-size="10.00">nars.entity.Item.merge</text>
</g>
<!-- Node2 -->
<g id="node2" class="node"><title>Node2</title>
<g id="a_node2"><a xlink:href="../../d1/dd1/classnars_1_1entity_1_1Item_a54fc0a370b847dd77c0a698c765e6e55.html#a54fc0a370b847dd77c0a698c765e6e55" target="_top" xlink:title="Get BudgetValue. ">
<polygon fill="none" stroke="black" points="160.5,-142 160.5,-161 292.5,-161 292.5,-142 160.5,-142"/>
<text text-anchor="middle" x="226.5" y="-149" font-family="Helvetica,sans-Serif" font-size="10.00">nars.entity.Item.getBudget</text>
</a>
</g>
</g>
<!-- Node1&#45;&gt;Node2 -->
<g id="edge1" class="edge"><title>Node1&#45;&gt;Node2</title>
<path fill="none" stroke="midnightblue" d="M115.039,-138.933C126.309,-140.215 138.314,-141.581 150.102,-142.922"/>
<polygon fill="midnightblue" stroke="midnightblue" points="150.049,-146.438 160.38,-144.091 150.84,-139.483 150.049,-146.438"/>
</g>
<!-- Node3 -->
<g id="node3" class="node"><title>Node3</title>
<g id="a_node3"><a xlink:href="../../db/d8e/classnars_1_1entity_1_1BudgetValue_a4fdeae08389c60a4d89bc0b85a92848f.html#a4fdeae08389c60a4d89bc0b85a92848f" target="_top" xlink:title="Merge one BudgetValue into another. ">
<polygon fill="none" stroke="black" points="151,-104 151,-123 302,-123 302,-104 151,-104"/>
<text text-anchor="middle" x="226.5" y="-111" font-family="Helvetica,sans-Serif" font-size="10.00">nars.entity.BudgetValue.merge</text>
</a>
</g>
</g>
<!-- Node1&#45;&gt;Node3 -->
<g id="edge2" class="edge"><title>Node1&#45;&gt;Node3</title>
<path fill="none" stroke="midnightblue" d="M115.039,-126.067C123.336,-125.123 132.031,-124.134 140.745,-123.143"/>
<polygon fill="midnightblue" stroke="midnightblue" points="141.419,-126.589 150.959,-121.981 140.628,-119.634 141.419,-126.589"/>
</g>
<!-- Node4 -->
<g id="node4" class="node"><title>Node4</title>
<g id="a_node4"><a xlink:href="../../d7/d11/classnars_1_1inference_1_1BudgetFunctions_a64bec0b466ef31bc3150de23f0623309.html#a64bec0b466ef31bc3150de23f0623309" target="_top" xlink:title="Merge an item into another one in a bag, when the two are identical except in budget values...">
<polygon fill="none" stroke="black" points="338,-104 338,-123 523,-123 523,-104 338,-104"/>
<text text-anchor="middle" x="430.5" y="-111" font-family="Helvetica,sans-Serif" font-size="10.00">nars.inference.BudgetFunctions.merge</text>
</a>
</g>
</g>
<!-- Node3&#45;&gt;Node4 -->
<g id="edge3" class="edge"><title>Node3&#45;&gt;Node4</title>
<path fill="none" stroke="midnightblue" d="M302.143,-113.5C310.464,-113.5 319.04,-113.5 327.625,-113.5"/>
<polygon fill="midnightblue" stroke="midnightblue" points="327.693,-117 337.693,-113.5 327.693,-110 327.693,-117"/>
</g>
<!-- Node5 -->
<g id="node5" class="node"><title>Node5</title>
<g id="a_node5"><a xlink:href="../../db/d8e/classnars_1_1entity_1_1BudgetValue_a088e64163126211239b6afd25a9cdca3.html#a088e64163126211239b6afd25a9cdca3" target="_top" xlink:title="Increase priority value by a percentage of the remaining range. ">
<polygon fill="none" stroke="black" points="559,-196.5 559,-226.5 696,-226.5 696,-196.5 559,-196.5"/>
<text text-anchor="start" x="567" y="-214.5" font-family="Helvetica,sans-Serif" font-size="10.00">nars.entity.BudgetValue.inc</text>
<text text-anchor="middle" x="627.5" y="-203.5" font-family="Helvetica,sans-Serif" font-size="10.00">Priority</text>
</a>
</g>
</g>
<!-- Node4&#45;&gt;Node5 -->
<g id="edge4" class="edge"><title>Node4&#45;&gt;Node5</title>
<path fill="none" stroke="midnightblue" d="M445.943,-123.071C469.097,-138.139 516.269,-167.708 559,-187.5 562.872,-189.294 566.919,-191.037 571.025,-192.713"/>
<polygon fill="midnightblue" stroke="midnightblue" points="570.067,-196.097 580.654,-196.489 572.622,-189.58 570.067,-196.097"/>
</g>
<!-- Node7 -->
<g id="node7" class="node"><title>Node7</title>
<g id="a_node7"><a xlink:href="../../db/d8e/classnars_1_1entity_1_1BudgetValue_ab72bce41fd8a1512fc8baa07ed93fc1b.html#ab72bce41fd8a1512fc8baa07ed93fc1b" target="_top" xlink:title="Change durability value. ">
<polygon fill="none" stroke="black" points="559,-147.5 559,-177.5 696,-177.5 696,-147.5 559,-147.5"/>
<text text-anchor="start" x="567" y="-165.5" font-family="Helvetica,sans-Serif" font-size="10.00">nars.entity.BudgetValue.set</text>
<text text-anchor="middle" x="627.5" y="-154.5" font-family="Helvetica,sans-Serif" font-size="10.00">Durability</text>
</a>
</g>
</g>
<!-- Node4&#45;&gt;Node7 -->
<g id="edge6" class="edge"><title>Node4&#45;&gt;Node7</title>
<path fill="none" stroke="midnightblue" d="M469.561,-123.064C494.356,-129.295 527.445,-137.609 556.847,-144.997"/>
<polygon fill="midnightblue" stroke="midnightblue" points="556.108,-148.42 566.659,-147.463 557.814,-141.631 556.108,-148.42"/>
</g>
<!-- Node8 -->
<g id="node8" class="node"><title>Node8</title>
<g id="a_node8"><a xlink:href="../../db/d8e/classnars_1_1entity_1_1BudgetValue_ab0e0dc2172d3fab6390670acb68da1a6.html#ab0e0dc2172d3fab6390670acb68da1a6" target="_top" xlink:title="Get durability value. ">
<polygon fill="none" stroke="black" points="559,-98.5 559,-128.5 696,-128.5 696,-98.5 559,-98.5"/>
<text text-anchor="start" x="567" y="-116.5" font-family="Helvetica,sans-Serif" font-size="10.00">nars.entity.BudgetValue.get</text>
<text text-anchor="middle" x="627.5" y="-105.5" font-family="Helvetica,sans-Serif" font-size="10.00">Durability</text>
</a>
</g>
</g>
<!-- Node4&#45;&gt;Node8 -->
<g id="edge7" class="edge"><title>Node4&#45;&gt;Node8</title>
<path fill="none" stroke="midnightblue" d="M523.005,-113.5C531.587,-113.5 540.232,-113.5 548.672,-113.5"/>
<polygon fill="midnightblue" stroke="midnightblue" points="548.847,-117 558.847,-113.5 548.847,-110 548.847,-117"/>
</g>
<!-- Node9 -->
<g id="node9" class="node"><title>Node9</title>
<g id="a_node9"><a xlink:href="../../db/d8e/classnars_1_1entity_1_1BudgetValue_ab134287bfbdfe703501697c5f9eac50b.html#ab134287bfbdfe703501697c5f9eac50b" target="_top" xlink:title="Change quality value. ">
<polygon fill="none" stroke="black" points="559,-49.5 559,-79.5 696,-79.5 696,-49.5 559,-49.5"/>
<text text-anchor="start" x="567" y="-67.5" font-family="Helvetica,sans-Serif" font-size="10.00">nars.entity.BudgetValue.set</text>
<text text-anchor="middle" x="627.5" y="-56.5" font-family="Helvetica,sans-Serif" font-size="10.00">Quality</text>
</a>
</g>
</g>
<!-- Node4&#45;&gt;Node9 -->
<g id="edge8" class="edge"><title>Node4&#45;&gt;Node9</title>
<path fill="none" stroke="midnightblue" d="M469.561,-103.936C494.356,-97.7053 527.445,-89.3906 556.847,-82.0026"/>
<polygon fill="midnightblue" stroke="midnightblue" points="557.814,-85.3686 566.659,-79.537 556.108,-78.5796 557.814,-85.3686"/>
</g>
<!-- Node10 -->
<g id="node10" class="node"><title>Node10</title>
<g id="a_node10"><a xlink:href="../../db/d8e/classnars_1_1entity_1_1BudgetValue_ae48fee1252f685c6ce2033bb855d13e1.html#ae48fee1252f685c6ce2033bb855d13e1" target="_top" xlink:title="Get quality value. ">
<polygon fill="none" stroke="black" points="559,-0.5 559,-30.5 696,-30.5 696,-0.5 559,-0.5"/>
<text text-anchor="start" x="567" y="-18.5" font-family="Helvetica,sans-Serif" font-size="10.00">nars.entity.BudgetValue.get</text>
<text text-anchor="middle" x="627.5" y="-7.5" font-family="Helvetica,sans-Serif" font-size="10.00">Quality</text>
</a>
</g>
</g>
<!-- Node4&#45;&gt;Node10 -->
<g id="edge9" class="edge"><title>Node4&#45;&gt;Node10</title>
<path fill="none" stroke="midnightblue" d="M446.375,-103.9C469.732,-89.078 516.716,-60.2697 559,-40.5 563.553,-38.3713 568.341,-36.2944 573.179,-34.3056"/>
<polygon fill="midnightblue" stroke="midnightblue" points="574.496,-37.5485 582.493,-30.599 571.908,-31.0445 574.496,-37.5485"/>
</g>
<!-- Node6 -->
<g id="node6" class="node"><title>Node6</title>
<g id="a_node6"><a xlink:href="../../d4/de4/classnars_1_1inference_1_1UtilityFunctions_a24093a77b49f21322e62c9bed7ff5ee2.html#a24093a77b49f21322e62c9bed7ff5ee2" target="_top" xlink:title="A function where the output is disjunctively determined by the inputs. ">
<polygon fill="none" stroke="black" points="732,-202 732,-221 893,-221 893,-202 732,-202"/>
<text text-anchor="middle" x="812.5" y="-209" font-family="Helvetica,sans-Serif" font-size="10.00">nars.inference.UtilityFunctions.or</text>
</a>
</g>
</g>
<!-- Node5&#45;&gt;Node6 -->
<g id="edge5" class="edge"><title>Node5&#45;&gt;Node6</title>
<path fill="none" stroke="midnightblue" d="M696.123,-211.5C704.465,-211.5 713.092,-211.5 721.7,-211.5"/>
<polygon fill="midnightblue" stroke="midnightblue" points="721.776,-215 731.776,-211.5 721.776,-208 721.776,-215"/>
</g>
</g>
</svg>
        <g id="navigator" transform="translate(0 0)" fill="#404254">
                <rect fill="#f2f5e9" fill-opacity="0.5" stroke="#606060" stroke-width=".5" x="0" y="0" width="60" height="60"/>
                <use id="zoomplus" xlink:href="#zoomPlus" x="17" y="9" onmousedown="handleZoom(evt,'in')"/>
                <use id="zoomminus" xlink:href="#zoomMin" x="42" y="9" onmousedown="handleZoom(evt,'out')"/>
                <use id="reset" xlink:href="#resetDef" x="30" y="36" onmousedown="handleReset()"/>
                <g id="arrowUp" xlink:href="#dirArrow" transform="translate(30 24)" onmousedown="handlePan(0,-1)">
                  <use xlink:href="#rim" fill="#404040">
                        <set attributeName="fill" to="#808080" begin="arrowUp.mouseover" end="arrowUp.mouseout"/>
                  </use>
                  <path fill="none" stroke="white" stroke-width="1.5" d="M0,-3.0v7 M-2.5,-0.5L0,-3.0L2.5,-0.5"/>
                </g>
                <g id="arrowRight" xlink:href="#dirArrow" transform="rotate(90) translate(36 -43)" onmousedown="handlePan(1,0)">
                  <use xlink:href="#rim" fill="#404040">
                        <set attributeName="fill" to="#808080" begin="arrowRight.mouseover" end="arrowRight.mouseout"/>
                  </use>
                  <path fill="none" stroke="white" stroke-width="1.5" d="M0,-3.0v7 M-2.5,-0.5L0,-3.0L2.5,-0.5"/>
                </g>
                <g id="arrowDown" xlink:href="#dirArrow" transform="rotate(180) translate(-30 -48)" onmousedown="handlePan(0,1)">
                  <use xlink:href="#rim" fill="#404040">
                        <set attributeName="fill" to="#808080" begin="arrowDown.mouseover" end="arrowDown.mouseout"/>
                  </use>
                  <path fill="none" stroke="white" stroke-width="1.5" d="M0,-3.0v7 M-2.5,-0.5L0,-3.0L2.5,-0.5"/>
                </g>
                <g id="arrowLeft" xlink:href="#dirArrow" transform="rotate(270) translate(-36 17)" onmousedown="handlePan(-1,0)">
                  <use xlink:href="#rim" fill="#404040">
                        <set attributeName="fill" to="#808080" begin="arrowLeft.mouseover" end="arrowLeft.mouseout"/>
                  </use>
                  <path fill="none" stroke="white" stroke-width="1.5" d="M0,-3.0v7 M-2.5,-0.5L0,-3.0L2.5,-0.5"/>
                </g>
        </g>
        <svg viewBox="0 0 15 15" width="100%" height="30px" preserveAspectRatio="xMaxYMin meet">
         <g id="arrow_out" transform="scale(0.3 0.3)">
          <a xlink:href="classnars_1_1entity_1_1Item_af5627be72cf674ebd5d25427d84a66a7_af5627be72cf674ebd5d25427d84a66a7_cgraph_org.svg" target="_base">
           <rect id="button" ry="5" rx="5" y="6" x="6" height="38" width="38"
                fill="#f2f5e9" fill-opacity="0.5" stroke="#606060" stroke-width="1.0"/>
           <path id="arrow"
             d="M 11.500037,31.436501 C 11.940474,20.09759 22.043105,11.32322 32.158766,21.979434 L 37.068811,17.246167 C 37.068811,17.246167 37.088388,32 37.088388,32 L 22.160133,31.978069 C 22.160133,31.978069 26.997745,27.140456 26.997745,27.140456 C 18.528582,18.264221 13.291696,25.230495 11.500037,31.436501 z"
             style="fill:#404040;"/>
          </a>
         </g>
        </svg>
</svg>
