<?xml version="1.0" encoding="UTF-8" standalone="no"?>
<!DOCTYPE svg PUBLIC "-//W3C//DTD SVG 1.1//EN"
 "http://www.w3.org/Graphics/SVG/1.1/DTD/svg11.dtd">
<!-- Generated by graphviz version 2.38.0 (20140413.2041)
 -->
<!-- Title: nars.entity.TaskLink.novel Pages: 1 -->
<svg width="1892pt" height="39pt"
 viewBox="0.00 0.00 1892.00 39.00" xmlns="http://www.w3.org/2000/svg" xmlns:xlink="http://www.w3.org/1999/xlink">
<g id="graph0" class="graph" transform="scale(1 1) rotate(0) translate(4 35)">
<title>nars.entity.TaskLink.novel</title>
<!-- Node1 -->
<g id="node1" class="node"><title>Node1</title>
<polygon fill="#bfbfbf" stroke="black" points="0,-6 0,-25 131,-25 131,-6 0,-6"/>
<text text-anchor="middle" x="65.5" y="-13" font-family="Helvetica,sans-Serif" font-size="10.00">nars.entity.TaskLink.novel</text>
</g>
<!-- Node2 -->
<g id="node2" class="node"><title>Node2</title>
<g id="a_node2"><a xlink:href="../../de/d86/classnars_1_1storage_1_1TermLinkBag_a2f98120a5db1a3c065d3dc5712562d71.html#a2f98120a5db1a3c065d3dc5712562d71" target="_top" xlink:title="Replace default to prevent repeated inference, by checking TaskLink. ">
<polygon fill="none" stroke="black" points="167,-6 167,-25 336,-25 336,-6 167,-6"/>
<text text-anchor="middle" x="251.5" y="-13" font-family="Helvetica,sans-Serif" font-size="10.00">nars.storage.TermLinkBag.takeOut</text>
</a>
</g>
</g>
<!-- Node1&#45;&gt;Node2 -->
<g id="edge1" class="edge"><title>Node1&#45;&gt;Node2</title>
<path fill="none" stroke="midnightblue" d="M141.31,-15.5C149.768,-15.5 158.428,-15.5 166.988,-15.5"/>
<polygon fill="midnightblue" stroke="midnightblue" points="141.113,-12.0001 131.113,-15.5 141.113,-19.0001 141.113,-12.0001"/>
</g>
<!-- Node3 -->
<g id="node3" class="node"><title>Node3</title>
<g id="a_node3"><a xlink:href="../../d4/d22/classnars_1_1entity_1_1Concept_ae07576c8466ad65eeb61040e3f71cfc7.html#ae07576c8466ad65eeb61040e3f71cfc7" target="_top" xlink:title="An atomic step in a concept, only called in Memory# processConcept. ">
<polygon fill="none" stroke="black" points="372,-6 372,-25 491,-25 491,-6 372,-6"/>
<text text-anchor="middle" x="431.5" y="-13" font-family="Helvetica,sans-Serif" font-size="10.00">nars.entity.Concept.fire</text>
</a>
</g>
</g>
<!-- Node2&#45;&gt;Node3 -->
<g id="edge2" class="edge"><title>Node2&#45;&gt;Node3</title>
<path fill="none" stroke="midnightblue" d="M346.252,-15.5C354.955,-15.5 363.598,-15.5 371.845,-15.5"/>
<polygon fill="midnightblue" stroke="midnightblue" points="346.028,-12.0001 336.027,-15.5 346.027,-19.0001 346.028,-12.0001"/>
</g>
<!-- Node4 -->
<g id="node4" class="node"><title>Node4</title>
<g id="a_node4"><a xlink:href="../../d8/df4/classnars_1_1storage_1_1Memory_a83154b55b922c82b73931d4f22e3a590.html#a83154b55b922c82b73931d4f22e3a590" target="_top" xlink:title="Select a concept to fire. ">
<polygon fill="none" stroke="black" points="527,-0.5 527,-30.5 673,-30.5 673,-0.5 527,-0.5"/>
<text text-anchor="start" x="535" y="-18.5" font-family="Helvetica,sans-Serif" font-size="10.00">nars.storage.Memory.process</text>
<text text-anchor="middle" x="600" y="-7.5" font-family="Helvetica,sans-Serif" font-size="10.00">Concept</text>
</a>
</g>
</g>
<!-- Node3&#45;&gt;Node4 -->
<g id="edge3" class="edge"><title>Node3&#45;&gt;Node4</title>
<path fill="none" stroke="midnightblue" d="M501.337,-15.5C509.748,-15.5 518.361,-15.5 526.819,-15.5"/>
<polygon fill="midnightblue" stroke="midnightblue" points="501.202,-12.0001 491.202,-15.5 501.202,-19.0001 501.202,-12.0001"/>
</g>
<!-- Node5 -->
<g id="node5" class="node"><title>Node5</title>
<g id="a_node5"><a xlink:href="../../d8/df4/classnars_1_1storage_1_1Memory_a49e2cbc8b78d535f4d69739886ee966a.html#a49e2cbc8b78d535f4d69739886ee966a" target="_top" xlink:title="An atomic working workCycle of the system: process new Tasks, then fire a concept. ">
<polygon fill="none" stroke="black" points="709,-0.5 709,-30.5 842,-30.5 842,-0.5 709,-0.5"/>
<text text-anchor="start" x="717" y="-18.5" font-family="Helvetica,sans-Serif" font-size="10.00">nars.storage.Memory.work</text>
<text text-anchor="middle" x="775.5" y="-7.5" font-family="Helvetica,sans-Serif" font-size="10.00">Cycle</text>
</a>
</g>
</g>
<!-- Node4&#45;&gt;Node5 -->
<g id="edge4" class="edge"><title>Node4&#45;&gt;Node5</title>
<path fill="none" stroke="midnightblue" d="M683.118,-15.5C691.716,-15.5 700.375,-15.5 708.755,-15.5"/>
<polygon fill="midnightblue" stroke="midnightblue" points="683.072,-12.0001 673.072,-15.5 683.072,-19.0001 683.072,-12.0001"/>
</g>
<!-- Node6 -->
<g id="node6" class="node"><title>Node6</title>
<g id="a_node6"><a xlink:href="../../dd/da5/classnars_1_1storage_1_1Memory_1_1ReasonerBatch_acc60dec23da774957a85362ed6d7448b.html#acc60dec23da774957a85362ed6d7448b" target="_top" xlink:title="nars.storage.Memory.Reasoner\lBatch.doTick">
<polygon fill="none" stroke="black" points="878,-0.5 878,-30.5 1032,-30.5 1032,-0.5 878,-0.5"/>
<text text-anchor="start" x="886" y="-18.5" font-family="Helvetica,sans-Serif" font-size="10.00">nars.storage.Memory.Reasoner</text>
<text text-anchor="middle" x="955" y="-7.5" font-family="Helvetica,sans-Serif" font-size="10.00">Batch.doTick</text>
</a>
</g>
</g>
<!-- Node5&#45;&gt;Node6 -->
<g id="edge5" class="edge"><title>Node5&#45;&gt;Node6</title>
<path fill="none" stroke="midnightblue" d="M852.318,-15.5C860.786,-15.5 869.414,-15.5 877.885,-15.5"/>
<polygon fill="midnightblue" stroke="midnightblue" points="852.09,-12.0001 842.09,-15.5 852.09,-19.0001 852.09,-12.0001"/>
</g>
<!-- Node7 -->
<g id="node7" class="node"><title>Node7</title>
<g id="a_node7"><a xlink:href="../../dd/da5/classnars_1_1storage_1_1Memory_1_1ReasonerBatch_aed591f05899b98fd9e4ad01836ad0a40.html#aed591f05899b98fd9e4ad01836ad0a40" target="_top" xlink:title="A clock tick. ">
<polygon fill="none" stroke="black" points="1068,-0.5 1068,-30.5 1222,-30.5 1222,-0.5 1068,-0.5"/>
<text text-anchor="start" x="1076" y="-18.5" font-family="Helvetica,sans-Serif" font-size="10.00">nars.storage.Memory.Reasoner</text>
<text text-anchor="middle" x="1145" y="-7.5" font-family="Helvetica,sans-Serif" font-size="10.00">Batch.tick</text>
</a>
</g>
</g>
<!-- Node6&#45;&gt;Node7 -->
<g id="edge6" class="edge"><title>Node6&#45;&gt;Node7</title>
<path fill="none" stroke="midnightblue" d="M1042.42,-15.5C1050.86,-15.5 1059.37,-15.5 1067.7,-15.5"/>
<polygon fill="midnightblue" stroke="midnightblue" points="1042.2,-12.0001 1032.2,-15.5 1042.2,-19.0001 1042.2,-12.0001"/>
</g>
<!-- Node8 -->
<g id="node8" class="node"><title>Node8</title>
<g id="a_node8"><a xlink:href="../../d4/d88/classnars_1_1storage_1_1Memory_1_1NARSBatch_aad99db6cedde9cff2a997db8906ff821.html#aad99db6cedde9cff2a997db8906ff821" target="_top" xlink:title="Run to completion: repeatedly execute NARS working cycle, until Inputs are Finished, or 1000 steps. ">
<polygon fill="none" stroke="black" points="1258,-6 1258,-25 1440,-25 1440,-6 1258,-6"/>
<text text-anchor="middle" x="1349" y="-13" font-family="Helvetica,sans-Serif" font-size="10.00">nars.storage.Memory.NARSBatch.run</text>
</a>
</g>
</g>
<!-- Node7&#45;&gt;Node8 -->
<g id="edge7" class="edge"><title>Node7&#45;&gt;Node8</title>
<path fill="none" stroke="midnightblue" d="M1232.27,-15.5C1240.69,-15.5 1249.25,-15.5 1257.71,-15.5"/>
<polygon fill="midnightblue" stroke="midnightblue" points="1232.08,-12.0001 1222.08,-15.5 1232.08,-19.0001 1232.08,-12.0001"/>
</g>
<!-- Node9 -->
<g id="node9" class="node"><title>Node9</title>
<g id="a_node9"><a xlink:href="../../d4/d88/classnars_1_1storage_1_1Memory_1_1NARSBatch_a416c39463faa161661ed1d12fea03b3c.html#a416c39463faa161661ed1d12fea03b3c" target="_top" xlink:title="non&#45;static equivalent to main(String[]) : run to completion from an input file ">
<polygon fill="none" stroke="black" points="1476,-0.5 1476,-30.5 1658,-30.5 1658,-0.5 1476,-0.5"/>
<text text-anchor="start" x="1484" y="-18.5" font-family="Helvetica,sans-Serif" font-size="10.00">nars.storage.Memory.NARSBatch.run</text>
<text text-anchor="middle" x="1567" y="-7.5" font-family="Helvetica,sans-Serif" font-size="10.00">Inference</text>
</a>
</g>
</g>
<!-- Node8&#45;&gt;Node9 -->
<g id="edge8" class="edge"><title>Node8&#45;&gt;Node9</title>
<path fill="none" stroke="midnightblue" d="M1450.06,-15.5C1458.63,-15.5 1467.27,-15.5 1475.76,-15.5"/>
<polygon fill="midnightblue" stroke="midnightblue" points="1450.04,-12.0001 1440.04,-15.5 1450.04,-19.0001 1450.04,-12.0001"/>
</g>
<!-- Node10 -->
<g id="node10" class="node"><title>Node10</title>
<g id="a_node10"><a xlink:href="../../d4/d88/classnars_1_1storage_1_1Memory_1_1NARSBatch_aa97fcd68270583e60e6bf1b4579d1bdc.html#aa97fcd68270583e60e6bf1b4579d1bdc" target="_top" xlink:title="The entry point of the standalone application. ">
<polygon fill="none" stroke="black" points="1694,-6 1694,-25 1884,-25 1884,-6 1694,-6"/>
<text text-anchor="middle" x="1789" y="-13" font-family="Helvetica,sans-Serif" font-size="10.00">nars.storage.Memory.NARSBatch.main</text>
</a>
</g>
</g>
<!-- Node9&#45;&gt;Node10 -->
<g id="edge9" class="edge"><title>Node9&#45;&gt;Node10</title>
<path fill="none" stroke="midnightblue" d="M1668.37,-15.5C1676.82,-15.5 1685.34,-15.5 1693.74,-15.5"/>
<polygon fill="midnightblue" stroke="midnightblue" points="1668.12,-12.0001 1658.12,-15.5 1668.12,-19.0001 1668.12,-12.0001"/>
</g>
</g>
</svg>
