<?xml version="1.0" encoding="UTF-8" standalone="no"?>
<!DOCTYPE svg PUBLIC "-//W3C//DTD SVG 1.1//EN"
 "http://www.w3.org/Graphics/SVG/1.1/DTD/svg11.dtd">
<!-- Generated by graphviz version 2.38.0 (20140413.2041)
 -->
<!-- Title: nars.entity.TaskLink.novel Pages: 1 -->
<svg width="502pt" height="204pt"
 viewBox="0.00 0.00 502.00 203.50" xmlns="http://www.w3.org/2000/svg" xmlns:xlink="http://www.w3.org/1999/xlink">
<g id="graph0" class="graph" transform="scale(1 1) rotate(0) translate(4 199.5)">
<title>nars.entity.TaskLink.novel</title>
<!-- Node1 -->
<g id="node1" class="node"><title>Node1</title>
<polygon fill="#bfbfbf" stroke="black" points="0,-88 0,-107 131,-107 131,-88 0,-88"/>
<text text-anchor="middle" x="65.5" y="-95" font-family="Helvetica,sans-Serif" font-size="10.00">nars.entity.TaskLink.novel</text>
</g>
<!-- Node2 -->
<g id="node2" class="node"><title>Node2</title>
<g id="a_node2"><a xlink:href="../../d8/db8/classnars_1_1language_1_1Term_ad85f45a7858737445d5158801774ff5f.html#ad85f45a7858737445d5158801774ff5f" target="_top" xlink:title="Equal terms have identical name, though not necessarily the same reference. ">
<polygon fill="none" stroke="black" points="172.5,-176 172.5,-195 306.5,-195 306.5,-176 172.5,-176"/>
<text text-anchor="middle" x="239.5" y="-183" font-family="Helvetica,sans-Serif" font-size="10.00">nars.language.Term.equals</text>
</a>
</g>
</g>
<!-- Node1&#45;&gt;Node2 -->
<g id="edge1" class="edge"><title>Node1&#45;&gt;Node2</title>
<path fill="none" stroke="midnightblue" d="M77.7703,-107.188C95.5729,-122.019 131.806,-150.33 167,-166.5 172.234,-168.905 177.828,-171.05 183.495,-172.953"/>
<polygon fill="midnightblue" stroke="midnightblue" points="182.464,-176.297 193.052,-175.929 184.546,-169.614 182.464,-176.297"/>
</g>
<!-- Node4 -->
<g id="node4" class="node"><title>Node4</title>
<g id="a_node4"><a xlink:href="../../d6/d25/classnars_1_1entity_1_1Sentence_ad1ded9a02cae3557948d05530cd4d37e.html#ad1ded9a02cae3557948d05530cd4d37e" target="_top" xlink:title="Get the content of the sentence. ">
<polygon fill="none" stroke="black" points="178,-126.5 178,-156.5 301,-156.5 301,-126.5 178,-126.5"/>
<text text-anchor="start" x="186" y="-144.5" font-family="Helvetica,sans-Serif" font-size="10.00">nars.entity.Sentence.get</text>
<text text-anchor="middle" x="239.5" y="-133.5" font-family="Helvetica,sans-Serif" font-size="10.00">Content</text>
</a>
</g>
</g>
<!-- Node1&#45;&gt;Node4 -->
<g id="edge3" class="edge"><title>Node1&#45;&gt;Node4</title>
<path fill="none" stroke="midnightblue" d="M103.821,-107.047C123.1,-111.979 147.245,-118.156 169.747,-123.912"/>
<polygon fill="midnightblue" stroke="midnightblue" points="169.053,-127.347 179.608,-126.435 170.788,-120.565 169.053,-127.347"/>
</g>
<!-- Node5 -->
<g id="node5" class="node"><title>Node5</title>
<g id="a_node5"><a xlink:href="../../d1/dd1/classnars_1_1entity_1_1Item_ab5c9fbb171f325844966b496010acf60.html#ab5c9fbb171f325844966b496010acf60" target="_top" xlink:title="Get the current key. ">
<polygon fill="none" stroke="black" points="180,-88 180,-107 299,-107 299,-88 180,-88"/>
<text text-anchor="middle" x="239.5" y="-95" font-family="Helvetica,sans-Serif" font-size="10.00">nars.entity.Item.getKey</text>
</a>
</g>
</g>
<!-- Node1&#45;&gt;Node5 -->
<g id="edge4" class="edge"><title>Node1&#45;&gt;Node5</title>
<path fill="none" stroke="midnightblue" d="M131.036,-97.5C143.672,-97.5 156.969,-97.5 169.737,-97.5"/>
<polygon fill="midnightblue" stroke="midnightblue" points="169.841,-101 179.841,-97.5 169.841,-94.0001 169.841,-101"/>
</g>
<!-- Node6 -->
<g id="node6" class="node"><title>Node6</title>
<g id="a_node6"><a xlink:href="../../dc/ddc/classnars_1_1entity_1_1Task_ab140cb553a6cf40b07093d1df283567f.html#ab140cb553a6cf40b07093d1df283567f" target="_top" xlink:title="Get the sentence. ">
<polygon fill="none" stroke="black" points="167,-50 167,-69 312,-69 312,-50 167,-50"/>
<text text-anchor="middle" x="239.5" y="-57" font-family="Helvetica,sans-Serif" font-size="10.00">nars.entity.Task.getSentence</text>
</a>
</g>
</g>
<!-- Node1&#45;&gt;Node6 -->
<g id="edge5" class="edge"><title>Node1&#45;&gt;Node6</title>
<path fill="none" stroke="midnightblue" d="M109.903,-87.911C132.907,-82.8287 161.351,-76.5446 185.634,-71.1797"/>
<polygon fill="midnightblue" stroke="midnightblue" points="186.4,-74.595 195.409,-69.0201 184.89,-67.7598 186.4,-74.595"/>
</g>
<!-- Node7 -->
<g id="node7" class="node"><title>Node7</title>
<g id="a_node7"><a xlink:href="../../d4/d8b/classnars_1_1entity_1_1TermLink_a133e3243292f9daacaa8443acef6b185.html#a133e3243292f9daacaa8443acef6b185" target="_top" xlink:title="Get the target of the link. ">
<polygon fill="none" stroke="black" points="178.5,-0.5 178.5,-30.5 300.5,-30.5 300.5,-0.5 178.5,-0.5"/>
<text text-anchor="start" x="186.5" y="-18.5" font-family="Helvetica,sans-Serif" font-size="10.00">nars.entity.TermLink.get</text>
<text text-anchor="middle" x="239.5" y="-7.5" font-family="Helvetica,sans-Serif" font-size="10.00">Target</text>
</a>
</g>
</g>
<!-- Node1&#45;&gt;Node7 -->
<g id="edge6" class="edge"><title>Node1&#45;&gt;Node7</title>
<path fill="none" stroke="midnightblue" d="M81.3781,-87.9337C100.614,-75.8323 135.402,-54.8444 167,-40.5 171.743,-38.3469 176.73,-36.2616 181.772,-34.2747"/>
<polygon fill="midnightblue" stroke="midnightblue" points="183.381,-37.4073 191.485,-30.5829 180.894,-30.8639 183.381,-37.4073"/>
</g>
<!-- Node3 -->
<g id="node3" class="node"><title>Node3</title>
<g id="a_node3"><a xlink:href="../../d8/db8/classnars_1_1language_1_1Term_a3aad4654016b8615fd4fa8a26668e1db.html#a3aad4654016b8615fd4fa8a26668e1db" target="_top" xlink:title="Reporting the name of the current Term. ">
<polygon fill="none" stroke="black" points="348,-176 348,-195 494,-195 494,-176 348,-176"/>
<text text-anchor="middle" x="421" y="-183" font-family="Helvetica,sans-Serif" font-size="10.00">nars.language.Term.getName</text>
</a>
</g>
</g>
<!-- Node2&#45;&gt;Node3 -->
<g id="edge2" class="edge"><title>Node2&#45;&gt;Node3</title>
<path fill="none" stroke="midnightblue" d="M306.574,-185.5C316.621,-185.5 327.093,-185.5 337.438,-185.5"/>
<polygon fill="midnightblue" stroke="midnightblue" points="337.719,-189 347.719,-185.5 337.719,-182 337.719,-189"/>
</g>
</g>
</svg>
