<?xml version="1.0" encoding="UTF-8" standalone="no"?>
<!DOCTYPE svg PUBLIC "-//W3C//DTD SVG 1.1//EN"
 "http://www.w3.org/Graphics/SVG/1.1/DTD/svg11.dtd">
<!-- Generated by graphviz version 2.38.0 (20140413.2041)
 -->
<!-- Title: nars.entity.TaskLink.toString Pages: 1 -->
<svg width="331pt" height="127pt"
 viewBox="0.00 0.00 331.00 126.50" xmlns="http://www.w3.org/2000/svg" xmlns:xlink="http://www.w3.org/1999/xlink">
<g id="graph0" class="graph" transform="scale(1 1) rotate(0) translate(4 122.5)">
<title>nars.entity.TaskLink.toString</title>
<!-- Node1 -->
<g id="node1" class="node"><title>Node1</title>
<polygon fill="#bfbfbf" stroke="black" points="0,-55 0,-74 142,-74 142,-55 0,-55"/>
<text text-anchor="middle" x="71" y="-62" font-family="Helvetica,sans-Serif" font-size="10.00">nars.entity.TaskLink.toString</text>
</g>
<!-- Node2 -->
<g id="node2" class="node"><title>Node2</title>
<g id="a_node2"><a xlink:href="../../dc/ddc/classnars_1_1entity_1_1Task_ab140cb553a6cf40b07093d1df283567f.html#ab140cb553a6cf40b07093d1df283567f" target="_top" xlink:title="Get the sentence. ">
<polygon fill="none" stroke="black" points="178,-99 178,-118 323,-118 323,-99 178,-99"/>
<text text-anchor="middle" x="250.5" y="-106" font-family="Helvetica,sans-Serif" font-size="10.00">nars.entity.Task.getSentence</text>
</a>
</g>
</g>
<!-- Node1&#45;&gt;Node2 -->
<g id="edge1" class="edge"><title>Node1&#45;&gt;Node2</title>
<path fill="none" stroke="midnightblue" d="M110.515,-74.0473C137.147,-80.6492 172.779,-89.4819 201.297,-96.551"/>
<polygon fill="midnightblue" stroke="midnightblue" points="200.512,-99.9623 211.06,-98.9713 202.196,-93.168 200.512,-99.9623"/>
</g>
<!-- Node3 -->
<g id="node3" class="node"><title>Node3</title>
<g id="a_node3"><a xlink:href="../../d6/d25/classnars_1_1entity_1_1Sentence_ac0ed749c50e55120d5b63219ed7eb082.html#ac0ed749c50e55120d5b63219ed7eb082" target="_top" xlink:title="Get the stamp of the sentence. ">
<polygon fill="none" stroke="black" points="189,-49.5 189,-79.5 312,-79.5 312,-49.5 189,-49.5"/>
<text text-anchor="start" x="197" y="-67.5" font-family="Helvetica,sans-Serif" font-size="10.00">nars.entity.Sentence.get</text>
<text text-anchor="middle" x="250.5" y="-56.5" font-family="Helvetica,sans-Serif" font-size="10.00">Stamp</text>
</a>
</g>
</g>
<!-- Node1&#45;&gt;Node3 -->
<g id="edge2" class="edge"><title>Node1&#45;&gt;Node3</title>
<path fill="none" stroke="midnightblue" d="M142.153,-64.5C154.069,-64.5 166.455,-64.5 178.396,-64.5"/>
<polygon fill="midnightblue" stroke="midnightblue" points="178.752,-68.0001 188.752,-64.5 178.752,-61.0001 178.752,-68.0001"/>
</g>
<!-- Node4 -->
<g id="node4" class="node"><title>Node4</title>
<g id="a_node4"><a xlink:href="../../d9/d27/classnars_1_1entity_1_1TaskLink_a60ac6941518e78c1f0049b90437b9053.html#a60ac6941518e78c1f0049b90437b9053" target="_top" xlink:title="Get the target Task. ">
<polygon fill="none" stroke="black" points="189.5,-0.5 189.5,-30.5 311.5,-30.5 311.5,-0.5 189.5,-0.5"/>
<text text-anchor="start" x="197.5" y="-18.5" font-family="Helvetica,sans-Serif" font-size="10.00">nars.entity.TaskLink.get</text>
<text text-anchor="middle" x="250.5" y="-7.5" font-family="Helvetica,sans-Serif" font-size="10.00">TargetTask</text>
</a>
</g>
</g>
<!-- Node1&#45;&gt;Node4 -->
<g id="edge3" class="edge"><title>Node1&#45;&gt;Node4</title>
<path fill="none" stroke="midnightblue" d="M106.645,-54.936C128.921,-48.7866 158.55,-40.6072 185.049,-33.2922"/>
<polygon fill="midnightblue" stroke="midnightblue" points="186.321,-36.5719 195.029,-30.537 184.459,-29.8243 186.321,-36.5719"/>
</g>
</g>
</svg>
