<?xml version="1.0" encoding="UTF-8" standalone="no"?>
<!DOCTYPE svg PUBLIC "-//W3C//DTD SVG 1.1//EN"
 "http://www.w3.org/Graphics/SVG/1.1/DTD/svg11.dtd">
<!-- Generated by graphviz version 2.38.0 (20140413.2041)
 -->
<!-- Title: nars.language.Similarity.make Pages: 1 -->
<svg width="776pt" height="376pt"
 viewBox="0.00 0.00 776.00 376.42" xmlns="http://www.w3.org/2000/svg" xmlns:xlink="http://www.w3.org/1999/xlink">
<g id="graph0" class="graph" transform="scale(1 1) rotate(0) translate(4 372.42)">
<title>nars.language.Similarity.make</title>
<!-- Node1 -->
<g id="node1" class="node"><title>Node1</title>
<polygon fill="#bfbfbf" stroke="black" points="0,-171.5 0,-190.5 148,-190.5 148,-171.5 0,-171.5"/>
<text text-anchor="middle" x="74" y="-178.5" font-family="Helvetica,sans-Serif" font-size="10.00">nars.language.Similarity.make</text>
</g>
<!-- Node2 -->
<g id="node2" class="node"><title>Node2</title>
<g id="a_node2"><a xlink:href="../../d0/dee/classnars_1_1language_1_1CompoundTerm_a26cc2a0123b22a3019ca81de239c5007.html#a26cc2a0123b22a3019ca81de239c5007" target="_top" xlink:title="build a component list from two terms ">
<polygon fill="none" stroke="black" points="184,-279 184,-309 383,-309 383,-279 184,-279"/>
<text text-anchor="start" x="192" y="-297" font-family="Helvetica,sans-Serif" font-size="10.00">nars.language.CompoundTerm.arguments</text>
<text text-anchor="middle" x="283.5" y="-286" font-family="Helvetica,sans-Serif" font-size="10.00">ToList</text>
</a>
</g>
</g>
<!-- Node1&#45;&gt;Node2 -->
<g id="edge1" class="edge"><title>Node1&#45;&gt;Node2</title>
<path fill="none" stroke="midnightblue" d="M83.9277,-190.55C101.386,-208.646 142.021,-247.998 184,-269 188.832,-271.417 193.918,-273.614 199.127,-275.609"/>
<polygon fill="midnightblue" stroke="midnightblue" points="198.015,-278.928 208.61,-278.984 200.362,-272.333 198.015,-278.928"/>
</g>
<!-- Node3 -->
<g id="node3" class="node"><title>Node3</title>
<g id="a_node3"><a xlink:href="../../d8/db8/classnars_1_1language_1_1Term_ab9bc1c9cc779c07b09983b41ed8491e1.html#ab9bc1c9cc779c07b09983b41ed8491e1" target="_top" xlink:title="Check the relative order of two Terms. ">
<polygon fill="none" stroke="black" points="206,-240.5 206,-259.5 361,-259.5 361,-240.5 206,-240.5"/>
<text text-anchor="middle" x="283.5" y="-247.5" font-family="Helvetica,sans-Serif" font-size="10.00">nars.language.Term.compareTo</text>
</a>
</g>
</g>
<!-- Node1&#45;&gt;Node3 -->
<g id="edge2" class="edge"><title>Node1&#45;&gt;Node3</title>
<path fill="none" stroke="midnightblue" d="M92.6013,-190.676C113.724,-201.907 150.495,-220.256 184,-231 192.647,-233.773 201.858,-236.204 211.044,-238.319"/>
<polygon fill="midnightblue" stroke="midnightblue" points="210.458,-241.773 220.974,-240.489 211.953,-234.935 210.458,-241.773"/>
</g>
<!-- Node5 -->
<g id="node5" class="node"><title>Node5</title>
<g id="a_node5"><a xlink:href="../../d1/d5e/classnars_1_1language_1_1Statement_a96d4bf7bb99f48b6496cdb7457bc0e50.html#a96d4bf7bb99f48b6496cdb7457bc0e50" target="_top" xlink:title="Check the validity of a potential Statement. ">
<polygon fill="none" stroke="black" points="205.5,-191 205.5,-221 361.5,-221 361.5,-191 205.5,-191"/>
<text text-anchor="start" x="213.5" y="-209" font-family="Helvetica,sans-Serif" font-size="10.00">nars.language.Statement.invalid</text>
<text text-anchor="middle" x="283.5" y="-198" font-family="Helvetica,sans-Serif" font-size="10.00">Statement</text>
</a>
</g>
</g>
<!-- Node1&#45;&gt;Node5 -->
<g id="edge4" class="edge"><title>Node1&#45;&gt;Node5</title>
<path fill="none" stroke="midnightblue" d="M148.157,-189.814C163.375,-191.648 179.558,-193.597 195.227,-195.485"/>
<polygon fill="midnightblue" stroke="midnightblue" points="195.087,-198.994 205.434,-196.715 195.924,-192.044 195.087,-198.994"/>
</g>
<!-- Node11 -->
<g id="node11" class="node"><title>Node11</title>
<g id="a_node11"><a xlink:href="../../d1/d5e/classnars_1_1language_1_1Statement_a7123aba1c8c566f291e2c9b9d147557d.html#a7123aba1c8c566f291e2c9b9d147557d" target="_top" xlink:title="Default method to make the nameStr of an image term from given fields. ">
<polygon fill="none" stroke="black" points="207.5,-142 207.5,-172 359.5,-172 359.5,-142 207.5,-142"/>
<text text-anchor="start" x="215.5" y="-160" font-family="Helvetica,sans-Serif" font-size="10.00">nars.language.Statement.make</text>
<text text-anchor="middle" x="283.5" y="-149" font-family="Helvetica,sans-Serif" font-size="10.00">StatementName</text>
</a>
</g>
</g>
<!-- Node1&#45;&gt;Node11 -->
<g id="edge11" class="edge"><title>Node1&#45;&gt;Node11</title>
<path fill="none" stroke="midnightblue" d="M148.157,-172.538C164.003,-170.706 180.896,-168.752 197.164,-166.87"/>
<polygon fill="midnightblue" stroke="midnightblue" points="197.666,-170.335 207.198,-165.71 196.862,-163.382 197.666,-170.335"/>
</g>
<!-- Node12 -->
<g id="node12" class="node"><title>Node12</title>
<g id="a_node12"><a xlink:href="../../d8/df4/classnars_1_1storage_1_1Memory_a63058cc52d77412e0aead8387c23aa93.html#a63058cc52d77412e0aead8387c23aa93" target="_top" xlink:title="Get a Term for a given name of a Concept or Operator. ">
<polygon fill="none" stroke="black" points="215.5,-71 215.5,-101 351.5,-101 351.5,-71 215.5,-71"/>
<text text-anchor="start" x="223.5" y="-89" font-family="Helvetica,sans-Serif" font-size="10.00">nars.storage.Memory.name</text>
<text text-anchor="middle" x="283.5" y="-78" font-family="Helvetica,sans-Serif" font-size="10.00">ToListedTerm</text>
</a>
</g>
</g>
<!-- Node1&#45;&gt;Node12 -->
<g id="edge12" class="edge"><title>Node1&#45;&gt;Node12</title>
<path fill="none" stroke="midnightblue" d="M96.0381,-171.368C129.73,-155.943 196.446,-125.398 240.259,-105.339"/>
<polygon fill="midnightblue" stroke="midnightblue" points="241.875,-108.449 249.511,-101.103 238.961,-102.084 241.875,-108.449"/>
</g>
<!-- Node16 -->
<g id="node16" class="node"><title>Node16</title>
<g id="a_node16"><a xlink:href="../../d3/d1f/classnars_1_1language_1_1Similarity_ad0a41421c692d6b4ff8fc4cef5b98b4a.html#ad0a41421c692d6b4ff8fc4cef5b98b4a" target="_top" xlink:title="Constructor with partial values, called by make. ">
<polygon fill="none" stroke="black" points="221.5,-22 221.5,-52 345.5,-52 345.5,-22 221.5,-22"/>
<text text-anchor="start" x="229.5" y="-40" font-family="Helvetica,sans-Serif" font-size="10.00">nars.language.Similarity.</text>
<text text-anchor="middle" x="283.5" y="-29" font-family="Helvetica,sans-Serif" font-size="10.00">Similarity</text>
</a>
</g>
</g>
<!-- Node1&#45;&gt;Node16 -->
<g id="edge16" class="edge"><title>Node1&#45;&gt;Node16</title>
<path fill="none" stroke="midnightblue" d="M80.7658,-171.453C95.1239,-148.542 134.884,-90.1881 184,-61 192.511,-55.9421 202.038,-51.9482 211.722,-48.7949"/>
<polygon fill="midnightblue" stroke="midnightblue" points="212.837,-52.1149 221.428,-45.9135 210.845,-45.4043 212.837,-52.1149"/>
</g>
<!-- Node4 -->
<g id="node4" class="node"><title>Node4</title>
<g id="a_node4"><a xlink:href="../../d8/db8/classnars_1_1language_1_1Term_a3aad4654016b8615fd4fa8a26668e1db.html#a3aad4654016b8615fd4fa8a26668e1db" target="_top" xlink:title="Reporting the name of the current Term. ">
<polygon fill="none" stroke="black" points="622,-330.5 622,-349.5 768,-349.5 768,-330.5 622,-330.5"/>
<text text-anchor="middle" x="695" y="-337.5" font-family="Helvetica,sans-Serif" font-size="10.00">nars.language.Term.getName</text>
</a>
</g>
</g>
<!-- Node3&#45;&gt;Node4 -->
<g id="edge3" class="edge"><title>Node3&#45;&gt;Node4</title>
<path fill="none" stroke="midnightblue" d="M361.184,-258.326C369.004,-261.242 376.461,-265.049 383,-270 410.892,-291.118 389.137,-321.777 419,-340 491.856,-384.457 597.059,-366.825 653.906,-352.139"/>
<polygon fill="midnightblue" stroke="midnightblue" points="654.852,-355.509 663.605,-349.54 653.04,-348.748 654.852,-355.509"/>
</g>
<!-- Node6 -->
<g id="node6" class="node"><title>Node6</title>
<g id="a_node6"><a xlink:href="../../d8/db8/classnars_1_1language_1_1Term_ad85f45a7858737445d5158801774ff5f.html#ad85f45a7858737445d5158801774ff5f" target="_top" xlink:title="Equal terms have identical name, though not necessarily the same reference. ">
<polygon fill="none" stroke="black" points="435.5,-311.5 435.5,-330.5 569.5,-330.5 569.5,-311.5 435.5,-311.5"/>
<text text-anchor="middle" x="502.5" y="-318.5" font-family="Helvetica,sans-Serif" font-size="10.00">nars.language.Term.equals</text>
</a>
</g>
</g>
<!-- Node5&#45;&gt;Node6 -->
<g id="edge5" class="edge"><title>Node5&#45;&gt;Node6</title>
<path fill="none" stroke="midnightblue" d="M361.812,-218.63C369.425,-221.872 376.664,-225.928 383,-231 410.621,-253.11 391.136,-280.198 419,-302 421.203,-303.724 423.534,-305.296 425.963,-306.73"/>
<polygon fill="midnightblue" stroke="midnightblue" points="424.619,-309.972 435.125,-311.341 427.766,-303.719 424.619,-309.972"/>
</g>
<!-- Node7 -->
<g id="node7" class="node"><title>Node7</title>
<g id="a_node7"><a xlink:href="../../d0/dee/classnars_1_1language_1_1CompoundTerm_a89000afae8017231889aaa549292d1e0.html#a89000afae8017231889aaa549292d1e0" target="_top" xlink:title="Default constructor. ">
<polygon fill="none" stroke="black" points="426,-262 426,-292 579,-292 579,-262 426,-262"/>
<text text-anchor="start" x="434" y="-280" font-family="Helvetica,sans-Serif" font-size="10.00">nars.language.CompoundTerm.</text>
<text text-anchor="middle" x="502.5" y="-269" font-family="Helvetica,sans-Serif" font-size="10.00">CompoundTerm</text>
</a>
</g>
</g>
<!-- Node5&#45;&gt;Node7 -->
<g id="edge7" class="edge"><title>Node5&#45;&gt;Node7</title>
<path fill="none" stroke="midnightblue" d="M354.775,-221.069C364.41,-223.933 374.057,-227.234 383,-231 400.281,-238.277 401.847,-245.426 419,-253 423.456,-254.968 428.118,-256.824 432.86,-258.565"/>
<polygon fill="midnightblue" stroke="midnightblue" points="432.073,-261.997 442.668,-261.976 434.373,-255.385 432.073,-261.997"/>
</g>
<!-- Node8 -->
<g id="node8" class="node"><title>Node8</title>
<g id="a_node8"><a xlink:href="../../d1/d5e/classnars_1_1language_1_1Statement_ac56b558891dd2088e0b66b437780c7b7.html#ac56b558891dd2088e0b66b437780c7b7" target="_top" xlink:title="Default constructor. ">
<polygon fill="none" stroke="black" points="438.5,-213 438.5,-243 566.5,-243 566.5,-213 438.5,-213"/>
<text text-anchor="start" x="446.5" y="-231" font-family="Helvetica,sans-Serif" font-size="10.00">nars.language.Statement.</text>
<text text-anchor="middle" x="502.5" y="-220" font-family="Helvetica,sans-Serif" font-size="10.00">Statement</text>
</a>
</g>
</g>
<!-- Node5&#45;&gt;Node8 -->
<g id="edge8" class="edge"><title>Node5&#45;&gt;Node8</title>
<path fill="none" stroke="midnightblue" d="M361.617,-213.818C383.281,-216.015 406.772,-218.396 428.206,-220.569"/>
<polygon fill="midnightblue" stroke="midnightblue" points="427.918,-224.058 438.22,-221.584 428.624,-217.094 427.918,-224.058"/>
</g>
<!-- Node9 -->
<g id="node9" class="node"><title>Node9</title>
<g id="a_node9"><a xlink:href="../../d1/d5e/classnars_1_1language_1_1Statement_ace4f80751d303c613e467163913bebf5.html#ace4f80751d303c613e467163913bebf5" target="_top" xlink:title="Return the first component of the statement. ">
<polygon fill="none" stroke="black" points="431.5,-164 431.5,-194 573.5,-194 573.5,-164 431.5,-164"/>
<text text-anchor="start" x="439.5" y="-182" font-family="Helvetica,sans-Serif" font-size="10.00">nars.language.Statement.get</text>
<text text-anchor="middle" x="502.5" y="-171" font-family="Helvetica,sans-Serif" font-size="10.00">Subject</text>
</a>
</g>
</g>
<!-- Node5&#45;&gt;Node9 -->
<g id="edge9" class="edge"><title>Node5&#45;&gt;Node9</title>
<path fill="none" stroke="midnightblue" d="M361.617,-196.405C380.912,-194.004 401.656,-191.423 421.106,-189.003"/>
<polygon fill="midnightblue" stroke="midnightblue" points="421.653,-192.462 431.145,-187.754 420.789,-185.515 421.653,-192.462"/>
</g>
<!-- Node10 -->
<g id="node10" class="node"><title>Node10</title>
<g id="a_node10"><a xlink:href="../../d1/d5e/classnars_1_1language_1_1Statement_ababe6155e2f78e769f76493317e118e0.html#ababe6155e2f78e769f76493317e118e0" target="_top" xlink:title="Return the second component of the statement. ">
<polygon fill="none" stroke="black" points="431.5,-115 431.5,-145 573.5,-145 573.5,-115 431.5,-115"/>
<text text-anchor="start" x="439.5" y="-133" font-family="Helvetica,sans-Serif" font-size="10.00">nars.language.Statement.get</text>
<text text-anchor="middle" x="502.5" y="-122" font-family="Helvetica,sans-Serif" font-size="10.00">Predicate</text>
</a>
</g>
</g>
<!-- Node5&#45;&gt;Node10 -->
<g id="edge10" class="edge"><title>Node5&#45;&gt;Node10</title>
<path fill="none" stroke="midnightblue" d="M357.475,-190.965C366.262,-188.143 374.962,-184.844 383,-181 401.043,-172.372 401.108,-162.938 419,-154 422.753,-152.125 426.677,-150.373 430.69,-148.738"/>
<polygon fill="midnightblue" stroke="midnightblue" points="432.067,-151.959 440.173,-145.136 429.582,-145.415 432.067,-151.959"/>
</g>
<!-- Node6&#45;&gt;Node4 -->
<g id="edge6" class="edge"><title>Node6&#45;&gt;Node4</title>
<path fill="none" stroke="midnightblue" d="M569.593,-327.592C583.169,-328.946 597.62,-330.387 611.688,-331.79"/>
<polygon fill="midnightblue" stroke="midnightblue" points="611.547,-335.294 621.845,-332.803 612.242,-328.328 611.547,-335.294"/>
</g>
<!-- Node13 -->
<g id="node13" class="node"><title>Node13</title>
<g id="a_node13"><a xlink:href="../../d8/df4/classnars_1_1storage_1_1Memory_a33af7b3d806d32c85390563fec3c6d27.html#a33af7b3d806d32c85390563fec3c6d27" target="_top" xlink:title="Concept bag. ">
<polygon fill="none" stroke="black" points="419,-76.5 419,-95.5 586,-95.5 586,-76.5 419,-76.5"/>
<text text-anchor="middle" x="502.5" y="-83.5" font-family="Helvetica,sans-Serif" font-size="10.00">nars.storage.Memory.getConcepts</text>
</a>
</g>
</g>
<!-- Node12&#45;&gt;Node13 -->
<g id="edge13" class="edge"><title>Node12&#45;&gt;Node13</title>
<path fill="none" stroke="midnightblue" d="M351.674,-86C369.716,-86 389.551,-86 408.718,-86"/>
<polygon fill="midnightblue" stroke="midnightblue" points="408.973,-89.5001 418.973,-86 408.973,-82.5001 408.973,-89.5001"/>
</g>
<!-- Node14 -->
<g id="node14" class="node"><title>Node14</title>
<g id="a_node14"><a xlink:href="../../d9/d37/classnars_1_1storage_1_1Bag_a011b37fc683db7fb7b41e33712a37d92.html#a011b37fc683db7fb7b41e33712a37d92" target="_top" xlink:title="Get an Item by key. ">
<polygon fill="none" stroke="black" points="449,-38.5 449,-57.5 556,-57.5 556,-38.5 449,-38.5"/>
<text text-anchor="middle" x="502.5" y="-45.5" font-family="Helvetica,sans-Serif" font-size="10.00">nars.storage.Bag.get</text>
</a>
</g>
</g>
<!-- Node12&#45;&gt;Node14 -->
<g id="edge14" class="edge"><title>Node12&#45;&gt;Node14</title>
<path fill="none" stroke="midnightblue" d="M351.674,-74.2368C379.378,-69.3855 411.308,-63.7941 438.554,-59.0227"/>
<polygon fill="midnightblue" stroke="midnightblue" points="439.503,-62.41 448.749,-57.2375 438.295,-55.5149 439.503,-62.41"/>
</g>
<!-- Node15 -->
<g id="node15" class="node"><title>Node15</title>
<g id="a_node15"><a xlink:href="../../d4/d22/classnars_1_1entity_1_1Concept_afcd1217b7680b073fa51f0d0f159dcea.html#afcd1217b7680b073fa51f0d0f159dcea" target="_top" xlink:title="Return the associated term, called from Memory only. ">
<polygon fill="none" stroke="black" points="432,-0.5 432,-19.5 573,-19.5 573,-0.5 432,-0.5"/>
<text text-anchor="middle" x="502.5" y="-7.5" font-family="Helvetica,sans-Serif" font-size="10.00">nars.entity.Concept.getTerm</text>
</a>
</g>
</g>
<!-- Node12&#45;&gt;Node15 -->
<g id="edge15" class="edge"><title>Node12&#45;&gt;Node15</title>
<path fill="none" stroke="midnightblue" d="M351.557,-73.5974C362.402,-70.2999 373.258,-66.1661 383,-61 401.912,-50.9705 399.977,-38.8189 419,-29 423.537,-26.6584 428.361,-24.6024 433.311,-22.7977"/>
<polygon fill="midnightblue" stroke="midnightblue" points="434.539,-26.0783 442.944,-19.6277 432.351,-19.4291 434.539,-26.0783"/>
</g>
</g>
</svg>
