<?xml version="1.0" encoding="UTF-8" standalone="no"?>
<!DOCTYPE svg PUBLIC "-//W3C//DTD SVG 1.1//EN"
 "http://www.w3.org/Graphics/SVG/1.1/DTD/svg11.dtd">
<!-- Generated by graphviz version 2.38.0 (20140413.2041)
 -->
<!-- Title: nars.language.DifferenceExt.make Pages: 1 -->
<!--zoomable 197 -->
<svg id="main" version="1.1" xmlns="http://www.w3.org/2000/svg" xmlns:xlink="http://www.w3.org/1999/xlink" xml:space="preserve" onload="init(evt)">
<style type="text/css"><![CDATA[
.edge:hover path { stroke: red; }
.edge:hover polygon { stroke: red; fill: red; }
]]></style>
<script type="text/javascript"><![CDATA[
var edges = document.getElementsByTagName('g');
if (edges && edges.length) {
  for (var i=0;i<edges.length;i++) {
    if (edges[i].id.substr(0,4)=='edge') {
      edges[i].setAttribute('class','edge');
    }
  }
}
]]></script>
        <defs>
                <circle id="rim" cx="0" cy="0" r="7"/>
                <circle id="rim2" cx="0" cy="0" r="3.5"/>
                <g id="zoomPlus">
                        <use xlink:href="#rim" fill="#404040">
                                <set attributeName="fill" to="#808080" begin="zoomplus.mouseover" end="zoomplus.mouseout"/>
                        </use>
                        <path d="M-4,0h8M0,-4v8" fill="none" stroke="white" stroke-width="1.5" pointer-events="none"/>
                </g>
                <g id="zoomMin">
                        <use xlink:href="#rim" fill="#404040">
                                <set attributeName="fill" to="#808080" begin="zoomminus.mouseover" end="zoomminus.mouseout"/>
                        </use>
                        <path d="M-4,0h8" fill="none" stroke="white" stroke-width="1.5" pointer-events="none"/>
                </g>
                <g id="dirArrow">
                        <path fill="none" stroke="white" stroke-width="1.5" d="M0,-3.0v7 M-2.5,-0.5L0,-3.0L2.5,-0.5"/>
                </g>
               <g id="resetDef">
                       <use xlink:href="#rim2" fill="#404040">
                               <set attributeName="fill" to="#808080" begin="reset.mouseover" end="reset.mouseout"/>
                       </use>
               </g>
        </defs>

<script type="text/javascript">
var viewWidth = 585;
var viewHeight = 197;
var sectionId = 'dynsection-0';
</script>
<script xlink:href="../../svgpan.js"/>
<svg id="graph" class="graph">
<g id="viewport">
<title>nars.language.DifferenceExt.make</title>
<!-- Node1 -->
<g id="node1" class="node"><title>Node1</title>
<polygon fill="#bfbfbf" stroke="black" points="0,-109 0,-139 125,-139 125,-109 0,-109"/>
<text text-anchor="start" x="8" y="-127" font-family="Helvetica,sans-Serif" font-size="10.00">nars.language.Difference</text>
<text text-anchor="middle" x="62.5" y="-116" font-family="Helvetica,sans-Serif" font-size="10.00">Ext.make</text>
</g>
<!-- Node2 -->
<g id="node2" class="node"><title>Node2</title>
<g id="a_node2"><a xlink:href="../../d3/d12/classnars_1_1language_1_1DifferenceExt_adff82f0809669284ade79e6d22576777.html#adff82f0809669284ade79e6d22576777" target="_top" xlink:title="Constructor with partial values, called by make. ">
<polygon fill="none" stroke="black" points="187,-158 187,-188 312,-188 312,-158 187,-158"/>
<text text-anchor="start" x="195" y="-176" font-family="Helvetica,sans-Serif" font-size="10.00">nars.language.Difference</text>
<text text-anchor="middle" x="249.5" y="-165" font-family="Helvetica,sans-Serif" font-size="10.00">Ext.DifferenceExt</text>
</a>
</g>
</g>
<!-- Node1&#45;&gt;Node2 -->
<g id="edge1" class="edge"><title>Node1&#45;&gt;Node2</title>
<path fill="none" stroke="midnightblue" d="M120.263,-139.035C139.797,-144.208 161.843,-150.048 182.076,-155.407"/>
<polygon fill="midnightblue" stroke="midnightblue" points="181.281,-158.817 191.844,-157.994 183.073,-152.05 181.281,-158.817"/>
</g>
<!-- Node3 -->
<g id="node3" class="node"><title>Node3</title>
<g id="a_node3"><a xlink:href="../../d0/dee/classnars_1_1language_1_1CompoundTerm_a8d1e610c509fa096c6b52eb5fe06d59b.html#a8d1e610c509fa096c6b52eb5fe06d59b" target="_top" xlink:title="default method to make the oldName of a compound term from given fields ">
<polygon fill="none" stroke="black" points="161,-109 161,-139 338,-139 338,-109 161,-109"/>
<text text-anchor="start" x="169" y="-127" font-family="Helvetica,sans-Serif" font-size="10.00">nars.language.CompoundTerm.make</text>
<text text-anchor="middle" x="249.5" y="-116" font-family="Helvetica,sans-Serif" font-size="10.00">CompoundName</text>
</a>
</g>
</g>
<!-- Node1&#45;&gt;Node3 -->
<g id="edge2" class="edge"><title>Node1&#45;&gt;Node3</title>
<path fill="none" stroke="midnightblue" d="M125.102,-124C133.337,-124 141.941,-124 150.608,-124"/>
<polygon fill="midnightblue" stroke="midnightblue" points="150.793,-127.5 160.793,-124 150.793,-120.5 150.793,-127.5"/>
</g>
<!-- Node6 -->
<g id="node6" class="node"><title>Node6</title>
<g id="a_node6"><a xlink:href="../../d8/df4/classnars_1_1storage_1_1Memory_a63058cc52d77412e0aead8387c23aa93.html#a63058cc52d77412e0aead8387c23aa93" target="_top" xlink:title="Get a Term for a given name of a Concept or Operator. ">
<polygon fill="none" stroke="black" points="181.5,-47 181.5,-77 317.5,-77 317.5,-47 181.5,-47"/>
<text text-anchor="start" x="189.5" y="-65" font-family="Helvetica,sans-Serif" font-size="10.00">nars.storage.Memory.name</text>
<text text-anchor="middle" x="249.5" y="-54" font-family="Helvetica,sans-Serif" font-size="10.00">ToListedTerm</text>
</a>
</g>
</g>
<!-- Node1&#45;&gt;Node6 -->
<g id="edge6" class="edge"><title>Node1&#45;&gt;Node6</title>
<path fill="none" stroke="midnightblue" d="M108.283,-108.992C133.998,-100.374 166.488,-89.4851 193.717,-80.3598"/>
<polygon fill="midnightblue" stroke="midnightblue" points="195.118,-83.5815 203.488,-77.0851 192.894,-76.9443 195.118,-83.5815"/>
</g>
<!-- Node4 -->
<g id="node4" class="node"><title>Node4</title>
<g id="a_node4"><a xlink:href="../../d0/dee/classnars_1_1language_1_1CompoundTerm_a89000afae8017231889aaa549292d1e0.html#a89000afae8017231889aaa549292d1e0" target="_top" xlink:title="Default constructor. ">
<polygon fill="none" stroke="black" points="399,-153 399,-183 552,-183 552,-153 399,-153"/>
<text text-anchor="start" x="407" y="-171" font-family="Helvetica,sans-Serif" font-size="10.00">nars.language.CompoundTerm.</text>
<text text-anchor="middle" x="475.5" y="-160" font-family="Helvetica,sans-Serif" font-size="10.00">CompoundTerm</text>
</a>
</g>
</g>
<!-- Node3&#45;&gt;Node4 -->
<g id="edge3" class="edge"><title>Node3&#45;&gt;Node4</title>
<path fill="none" stroke="midnightblue" d="M326.962,-139.019C346.893,-142.934 368.501,-147.179 388.873,-151.18"/>
<polygon fill="midnightblue" stroke="midnightblue" points="388.276,-154.63 398.763,-153.123 389.625,-147.761 388.276,-154.63"/>
</g>
<!-- Node5 -->
<g id="node5" class="node"><title>Node5</title>
<g id="a_node5"><a xlink:href="../../d0/dee/classnars_1_1language_1_1CompoundTerm_aa26a304f6249c185836d8fde8b8f17a8.html#aa26a304f6249c185836d8fde8b8f17a8" target="_top" xlink:title="default method to make the oldName of the current term from existing fields ">
<polygon fill="none" stroke="black" points="374,-114.5 374,-133.5 577,-133.5 577,-114.5 374,-114.5"/>
<text text-anchor="middle" x="475.5" y="-121.5" font-family="Helvetica,sans-Serif" font-size="10.00">nars.language.CompoundTerm.makeName</text>
</a>
</g>
</g>
<!-- Node3&#45;&gt;Node5 -->
<g id="edge4" class="edge"><title>Node3&#45;&gt;Node5</title>
<path fill="none" stroke="midnightblue" d="M338.067,-117.395C346.533,-117.293 355.196,-117.245 363.848,-117.25"/>
<polygon fill="midnightblue" stroke="midnightblue" points="363.976,-120.751 373.987,-117.282 363.998,-113.751 363.976,-120.751"/>
</g>
<!-- Node5&#45;&gt;Node3 -->
<g id="edge5" class="edge"><title>Node5&#45;&gt;Node3</title>
<path fill="none" stroke="midnightblue" d="M373.987,-130.718C365.375,-130.766 356.672,-130.76 348.083,-130.7"/>
<polygon fill="midnightblue" stroke="midnightblue" points="348.099,-127.2 338.067,-130.605 348.033,-134.2 348.099,-127.2"/>
</g>
<!-- Node7 -->
<g id="node7" class="node"><title>Node7</title>
<g id="a_node7"><a xlink:href="../../d8/df4/classnars_1_1storage_1_1Memory_a33af7b3d806d32c85390563fec3c6d27.html#a33af7b3d806d32c85390563fec3c6d27" target="_top" xlink:title="Concept bag. ">
<polygon fill="none" stroke="black" points="392,-76.5 392,-95.5 559,-95.5 559,-76.5 392,-76.5"/>
<text text-anchor="middle" x="475.5" y="-83.5" font-family="Helvetica,sans-Serif" font-size="10.00">nars.storage.Memory.getConcepts</text>
</a>
</g>
</g>
<!-- Node6&#45;&gt;Node7 -->
<g id="edge7" class="edge"><title>Node6&#45;&gt;Node7</title>
<path fill="none" stroke="midnightblue" d="M317.707,-69.2008C337.844,-71.3582 360.292,-73.7635 381.767,-76.0643"/>
<polygon fill="midnightblue" stroke="midnightblue" points="381.568,-79.5629 391.884,-77.1482 382.313,-72.6027 381.568,-79.5629"/>
</g>
<!-- Node8 -->
<g id="node8" class="node"><title>Node8</title>
<g id="a_node8"><a xlink:href="../../d9/d37/classnars_1_1storage_1_1Bag_a011b37fc683db7fb7b41e33712a37d92.html#a011b37fc683db7fb7b41e33712a37d92" target="_top" xlink:title="Get an Item by key. ">
<polygon fill="none" stroke="black" points="422,-38.5 422,-57.5 529,-57.5 529,-38.5 422,-38.5"/>
<text text-anchor="middle" x="475.5" y="-45.5" font-family="Helvetica,sans-Serif" font-size="10.00">nars.storage.Bag.get</text>
</a>
</g>
</g>
<!-- Node6&#45;&gt;Node8 -->
<g id="edge8" class="edge"><title>Node6&#45;&gt;Node8</title>
<path fill="none" stroke="midnightblue" d="M317.707,-57.7995C347.564,-55.9335 382.505,-53.7497 411.816,-51.9178"/>
<polygon fill="midnightblue" stroke="midnightblue" points="412.169,-55.4026 421.931,-51.2856 411.732,-48.4162 412.169,-55.4026"/>
</g>
<!-- Node9 -->
<g id="node9" class="node"><title>Node9</title>
<g id="a_node9"><a xlink:href="../../d4/d22/classnars_1_1entity_1_1Concept_afcd1217b7680b073fa51f0d0f159dcea.html#afcd1217b7680b073fa51f0d0f159dcea" target="_top" xlink:title="Return the associated term, called from Memory only. ">
<polygon fill="none" stroke="black" points="405,-0.5 405,-19.5 546,-19.5 546,-0.5 405,-0.5"/>
<text text-anchor="middle" x="475.5" y="-7.5" font-family="Helvetica,sans-Serif" font-size="10.00">nars.entity.Concept.getTerm</text>
</a>
</g>
</g>
<!-- Node6&#45;&gt;Node9 -->
<g id="edge9" class="edge"><title>Node6&#45;&gt;Node9</title>
<path fill="none" stroke="midnightblue" d="M303.476,-46.9192C325.235,-40.9667 350.738,-34.299 374,-29 385.632,-26.3501 398.082,-23.7824 410.117,-21.4363"/>
<polygon fill="midnightblue" stroke="midnightblue" points="410.942,-24.8421 420.103,-19.5208 409.623,-17.9675 410.942,-24.8421"/>
</g>
</g>
</svg>
        <g id="navigator" transform="translate(0 0)" fill="#404254">
                <rect fill="#f2f5e9" fill-opacity="0.5" stroke="#606060" stroke-width=".5" x="0" y="0" width="60" height="60"/>
                <use id="zoomplus" xlink:href="#zoomPlus" x="17" y="9" onmousedown="handleZoom(evt,'in')"/>
                <use id="zoomminus" xlink:href="#zoomMin" x="42" y="9" onmousedown="handleZoom(evt,'out')"/>
                <use id="reset" xlink:href="#resetDef" x="30" y="36" onmousedown="handleReset()"/>
                <g id="arrowUp" xlink:href="#dirArrow" transform="translate(30 24)" onmousedown="handlePan(0,-1)">
                  <use xlink:href="#rim" fill="#404040">
                        <set attributeName="fill" to="#808080" begin="arrowUp.mouseover" end="arrowUp.mouseout"/>
                  </use>
                  <path fill="none" stroke="white" stroke-width="1.5" d="M0,-3.0v7 M-2.5,-0.5L0,-3.0L2.5,-0.5"/>
                </g>
                <g id="arrowRight" xlink:href="#dirArrow" transform="rotate(90) translate(36 -43)" onmousedown="handlePan(1,0)">
                  <use xlink:href="#rim" fill="#404040">
                        <set attributeName="fill" to="#808080" begin="arrowRight.mouseover" end="arrowRight.mouseout"/>
                  </use>
                  <path fill="none" stroke="white" stroke-width="1.5" d="M0,-3.0v7 M-2.5,-0.5L0,-3.0L2.5,-0.5"/>
                </g>
                <g id="arrowDown" xlink:href="#dirArrow" transform="rotate(180) translate(-30 -48)" onmousedown="handlePan(0,1)">
                  <use xlink:href="#rim" fill="#404040">
                        <set attributeName="fill" to="#808080" begin="arrowDown.mouseover" end="arrowDown.mouseout"/>
                  </use>
                  <path fill="none" stroke="white" stroke-width="1.5" d="M0,-3.0v7 M-2.5,-0.5L0,-3.0L2.5,-0.5"/>
                </g>
                <g id="arrowLeft" xlink:href="#dirArrow" transform="rotate(270) translate(-36 17)" onmousedown="handlePan(-1,0)">
                  <use xlink:href="#rim" fill="#404040">
                        <set attributeName="fill" to="#808080" begin="arrowLeft.mouseover" end="arrowLeft.mouseout"/>
                  </use>
                  <path fill="none" stroke="white" stroke-width="1.5" d="M0,-3.0v7 M-2.5,-0.5L0,-3.0L2.5,-0.5"/>
                </g>
        </g>
        <svg viewBox="0 0 15 15" width="100%" height="30px" preserveAspectRatio="xMaxYMin meet">
         <g id="arrow_out" transform="scale(0.3 0.3)">
          <a xlink:href="classnars_1_1language_1_1DifferenceExt_ad52f31a8b4209efc46c918c21120179d_ad52f31a8b4209efc46c918c21120179d_cgraph_org.svg" target="_base">
           <rect id="button" ry="5" rx="5" y="6" x="6" height="38" width="38"
                fill="#f2f5e9" fill-opacity="0.5" stroke="#606060" stroke-width="1.0"/>
           <path id="arrow"
             d="M 11.500037,31.436501 C 11.940474,20.09759 22.043105,11.32322 32.158766,21.979434 L 37.068811,17.246167 C 37.068811,17.246167 37.088388,32 37.088388,32 L 22.160133,31.978069 C 22.160133,31.978069 26.997745,27.140456 26.997745,27.140456 C 18.528582,18.264221 13.291696,25.230495 11.500037,31.436501 z"
             style="fill:#404040;"/>
          </a>
         </g>
        </svg>
</svg>
