<?xml version="1.0" encoding="UTF-8" standalone="no"?>
<!DOCTYPE svg PUBLIC "-//W3C//DTD SVG 1.1//EN"
 "http://www.w3.org/Graphics/SVG/1.1/DTD/svg11.dtd">
<!-- Generated by graphviz version 2.38.0 (20140413.2041)
 -->
<!-- Title: nars.language.DifferenceExt.DifferenceExt Pages: 1 -->
<svg width="2691pt" height="127pt"
 viewBox="0.00 0.00 2691.00 126.50" xmlns="http://www.w3.org/2000/svg" xmlns:xlink="http://www.w3.org/1999/xlink">
<g id="graph0" class="graph" transform="scale(1 1) rotate(0) translate(4 122.5)">
<title>nars.language.DifferenceExt.DifferenceExt</title>
<!-- Node1 -->
<g id="node1" class="node"><title>Node1</title>
<polygon fill="#bfbfbf" stroke="black" points="0,-63 0,-93 125,-93 125,-63 0,-63"/>
<text text-anchor="start" x="8" y="-81" font-family="Helvetica,sans-Serif" font-size="10.00">nars.language.Difference</text>
<text text-anchor="middle" x="62.5" y="-70" font-family="Helvetica,sans-Serif" font-size="10.00">Ext.DifferenceExt</text>
</g>
<!-- Node2 -->
<g id="node2" class="node"><title>Node2</title>
<g id="a_node2"><a xlink:href="../../d3/d12/classnars_1_1language_1_1DifferenceExt_adce6da4f9eb348cdc59c3493f039f50a.html#adce6da4f9eb348cdc59c3493f039f50a" target="_top" xlink:title="Clone an object. ">
<polygon fill="none" stroke="black" points="161,-88 161,-118 286,-118 286,-88 161,-88"/>
<text text-anchor="start" x="169" y="-106" font-family="Helvetica,sans-Serif" font-size="10.00">nars.language.Difference</text>
<text text-anchor="middle" x="223.5" y="-95" font-family="Helvetica,sans-Serif" font-size="10.00">Ext.clone</text>
</a>
</g>
</g>
<!-- Node1&#45;&gt;Node2 -->
<g id="edge1" class="edge"><title>Node1&#45;&gt;Node2</title>
<path fill="none" stroke="midnightblue" d="M135.315,-89.2917C143.803,-90.6262 152.408,-91.9793 160.74,-93.2893"/>
<polygon fill="midnightblue" stroke="midnightblue" points="135.851,-85.833 125.429,-87.7372 134.764,-92.7481 135.851,-85.833"/>
</g>
<!-- Node3 -->
<g id="node3" class="node"><title>Node3</title>
<g id="a_node3"><a xlink:href="../../d3/d12/classnars_1_1language_1_1DifferenceExt_ad52f31a8b4209efc46c918c21120179d.html#ad52f31a8b4209efc46c918c21120179d" target="_top" xlink:title="Try to make a new DifferenceExt. ">
<polygon fill="none" stroke="black" points="161,-39 161,-69 286,-69 286,-39 161,-39"/>
<text text-anchor="start" x="169" y="-57" font-family="Helvetica,sans-Serif" font-size="10.00">nars.language.Difference</text>
<text text-anchor="middle" x="223.5" y="-46" font-family="Helvetica,sans-Serif" font-size="10.00">Ext.make</text>
</a>
</g>
</g>
<!-- Node1&#45;&gt;Node3 -->
<g id="edge2" class="edge"><title>Node1&#45;&gt;Node3</title>
<path fill="none" stroke="midnightblue" d="M135.592,-67.1182C143.99,-65.8506 152.499,-64.5662 160.74,-63.3222"/>
<polygon fill="midnightblue" stroke="midnightblue" points="134.794,-63.6988 125.429,-68.6523 135.839,-70.6204 134.794,-63.6988"/>
</g>
<!-- Node4 -->
<g id="node4" class="node"><title>Node4</title>
<g id="a_node4"><a xlink:href="../../d8/d79/classnars_1_1inference_1_1CompositionalRules_a53f7edf7bfe7433da42e8fcf36fd6604.html#a53f7edf7bfe7433da42e8fcf36fd6604" target="_top" xlink:title="{&lt;S ==&gt; M&gt;, ">
<polygon fill="none" stroke="black" points="339,-88 339,-118 482,-118 482,-88 339,-88"/>
<text text-anchor="start" x="347" y="-106" font-family="Helvetica,sans-Serif" font-size="10.00">nars.inference.Compositional</text>
<text text-anchor="middle" x="410.5" y="-95" font-family="Helvetica,sans-Serif" font-size="10.00">Rules.composeCompound</text>
</a>
</g>
</g>
<!-- Node3&#45;&gt;Node4 -->
<g id="edge3" class="edge"><title>Node3&#45;&gt;Node4</title>
<path fill="none" stroke="midnightblue" d="M291.035,-71.6229C311.275,-76.9837 333.32,-82.8225 352.844,-87.9938"/>
<polygon fill="midnightblue" stroke="midnightblue" points="291.826,-68.2117 281.263,-69.0346 290.034,-74.9784 291.826,-68.2117"/>
</g>
<!-- Node16 -->
<g id="node16" class="node"><title>Node16</title>
<g id="a_node16"><a xlink:href="../../d3/d12/classnars_1_1language_1_1DifferenceExt_a8b349561a0235f537ce4e946c3cfd719.html#a8b349561a0235f537ce4e946c3cfd719" target="_top" xlink:title="Try to make a new compound from two components. ">
<polygon fill="none" stroke="black" points="348,-39 348,-69 473,-69 473,-39 348,-39"/>
<text text-anchor="start" x="356" y="-57" font-family="Helvetica,sans-Serif" font-size="10.00">nars.language.Difference</text>
<text text-anchor="middle" x="410.5" y="-46" font-family="Helvetica,sans-Serif" font-size="10.00">Ext.make</text>
</a>
</g>
</g>
<!-- Node3&#45;&gt;Node16 -->
<g id="edge15" class="edge"><title>Node3&#45;&gt;Node16</title>
<path fill="none" stroke="midnightblue" d="M296.514,-54C313.472,-54 331.397,-54 347.851,-54"/>
<polygon fill="midnightblue" stroke="midnightblue" points="296.102,-50.5001 286.102,-54 296.102,-57.5001 296.102,-50.5001"/>
</g>
<!-- Node17 -->
<g id="node17" class="node"><title>Node17</title>
<g id="a_node17"><a xlink:href="../../d0/dee/classnars_1_1language_1_1CompoundTerm_a80748e3181cffb66ac216637477507c3.html#a80748e3181cffb66ac216637477507c3" target="_top" xlink:title="Try to make a compound term from an operator and a list of components. ">
<polygon fill="none" stroke="black" points="322,-0.5 322,-19.5 499,-19.5 499,-0.5 322,-0.5"/>
<text text-anchor="middle" x="410.5" y="-7.5" font-family="Helvetica,sans-Serif" font-size="10.00">nars.language.CompoundTerm.make</text>
</a>
</g>
</g>
<!-- Node3&#45;&gt;Node17 -->
<g id="edge16" class="edge"><title>Node3&#45;&gt;Node17</title>
<path fill="none" stroke="midnightblue" d="M294.69,-36.5744C303.871,-34.3386 313.156,-32.099 322,-30 336.707,-26.5094 352.831,-22.7927 367.187,-19.5222"/>
<polygon fill="midnightblue" stroke="midnightblue" points="293.678,-33.2186 284.794,-38.9922 295.339,-40.0185 293.678,-33.2186"/>
</g>
<!-- Node5 -->
<g id="node5" class="node"><title>Node5</title>
<g id="a_node5"><a xlink:href="../../da/de3/classnars_1_1inference_1_1RuleTables_a34927349efcf87db97d23c60983b115b.html#a34927349efcf87db97d23c60983b115b" target="_top" xlink:title="Syllogistic rules whose both premises are on the same asymmetric relation. ">
<polygon fill="none" stroke="black" points="535,-88 535,-118 720,-118 720,-88 535,-88"/>
<text text-anchor="start" x="543" y="-106" font-family="Helvetica,sans-Serif" font-size="10.00">nars.inference.RuleTables.asymmetric</text>
<text text-anchor="middle" x="627.5" y="-95" font-family="Helvetica,sans-Serif" font-size="10.00">Asymmetric</text>
</a>
</g>
</g>
<!-- Node4&#45;&gt;Node5 -->
<g id="edge4" class="edge"><title>Node4&#45;&gt;Node5</title>
<path fill="none" stroke="midnightblue" d="M492.567,-103C506.305,-103 520.657,-103 534.648,-103"/>
<polygon fill="midnightblue" stroke="midnightblue" points="492.197,-99.5001 482.197,-103 492.197,-106.5 492.197,-99.5001"/>
</g>
<!-- Node6 -->
<g id="node6" class="node"><title>Node6</title>
<g id="a_node6"><a xlink:href="../../da/de3/classnars_1_1inference_1_1RuleTables_a8628d400a8ceda7fea05039ddfea319b.html#a8628d400a8ceda7fea05039ddfea319b" target="_top" xlink:title="Meta&#45;table of syllogistic rules, indexed by the content classes of the taskSentence and the belief...">
<polygon fill="none" stroke="black" points="756,-93.5 756,-112.5 936,-112.5 936,-93.5 756,-93.5"/>
<text text-anchor="middle" x="846" y="-100.5" font-family="Helvetica,sans-Serif" font-size="10.00">nars.inference.RuleTables.syllogisms</text>
</a>
</g>
</g>
<!-- Node5&#45;&gt;Node6 -->
<g id="edge5" class="edge"><title>Node5&#45;&gt;Node6</title>
<path fill="none" stroke="midnightblue" d="M730.084,-103C738.705,-103 747.383,-103 755.898,-103"/>
<polygon fill="midnightblue" stroke="midnightblue" points="730.002,-99.5001 720.002,-103 730.002,-106.5 730.002,-99.5001"/>
</g>
<!-- Node7 -->
<g id="node7" class="node"><title>Node7</title>
<g id="a_node7"><a xlink:href="../../da/de3/classnars_1_1inference_1_1RuleTables_ac2d01dfdc40bdd47c757cb549217e6e3.html#ac2d01dfdc40bdd47c757cb549217e6e3" target="_top" xlink:title="Entry point of the inference engine. ">
<polygon fill="none" stroke="black" points="972,-93.5 972,-112.5 1135,-112.5 1135,-93.5 972,-93.5"/>
<text text-anchor="middle" x="1053.5" y="-100.5" font-family="Helvetica,sans-Serif" font-size="10.00">nars.inference.RuleTables.reason</text>
</a>
</g>
</g>
<!-- Node6&#45;&gt;Node7 -->
<g id="edge6" class="edge"><title>Node6&#45;&gt;Node7</title>
<path fill="none" stroke="midnightblue" d="M946.244,-103C954.792,-103 963.372,-103 971.747,-103"/>
<polygon fill="midnightblue" stroke="midnightblue" points="946.239,-99.5001 936.239,-103 946.239,-106.5 946.239,-99.5001"/>
</g>
<!-- Node8 -->
<g id="node8" class="node"><title>Node8</title>
<g id="a_node8"><a xlink:href="../../d4/d22/classnars_1_1entity_1_1Concept_ae07576c8466ad65eeb61040e3f71cfc7.html#ae07576c8466ad65eeb61040e3f71cfc7" target="_top" xlink:title="An atomic step in a concept, only called in Memory# processConcept. ">
<polygon fill="none" stroke="black" points="1171,-93.5 1171,-112.5 1290,-112.5 1290,-93.5 1171,-93.5"/>
<text text-anchor="middle" x="1230.5" y="-100.5" font-family="Helvetica,sans-Serif" font-size="10.00">nars.entity.Concept.fire</text>
</a>
</g>
</g>
<!-- Node7&#45;&gt;Node8 -->
<g id="edge7" class="edge"><title>Node7&#45;&gt;Node8</title>
<path fill="none" stroke="midnightblue" d="M1145.25,-103C1153.91,-103 1162.52,-103 1170.76,-103"/>
<polygon fill="midnightblue" stroke="midnightblue" points="1145.09,-99.5001 1135.09,-103 1145.08,-106.5 1145.09,-99.5001"/>
</g>
<!-- Node9 -->
<g id="node9" class="node"><title>Node9</title>
<g id="a_node9"><a xlink:href="../../d8/df4/classnars_1_1storage_1_1Memory_a83154b55b922c82b73931d4f22e3a590.html#a83154b55b922c82b73931d4f22e3a590" target="_top" xlink:title="Select a concept to fire. ">
<polygon fill="none" stroke="black" points="1326,-88 1326,-118 1472,-118 1472,-88 1326,-88"/>
<text text-anchor="start" x="1334" y="-106" font-family="Helvetica,sans-Serif" font-size="10.00">nars.storage.Memory.process</text>
<text text-anchor="middle" x="1399" y="-95" font-family="Helvetica,sans-Serif" font-size="10.00">Concept</text>
</a>
</g>
</g>
<!-- Node8&#45;&gt;Node9 -->
<g id="edge8" class="edge"><title>Node8&#45;&gt;Node9</title>
<path fill="none" stroke="midnightblue" d="M1300.34,-103C1308.75,-103 1317.36,-103 1325.82,-103"/>
<polygon fill="midnightblue" stroke="midnightblue" points="1300.2,-99.5001 1290.2,-103 1300.2,-106.5 1300.2,-99.5001"/>
</g>
<!-- Node10 -->
<g id="node10" class="node"><title>Node10</title>
<g id="a_node10"><a xlink:href="../../d8/df4/classnars_1_1storage_1_1Memory_a49e2cbc8b78d535f4d69739886ee966a.html#a49e2cbc8b78d535f4d69739886ee966a" target="_top" xlink:title="An atomic working workCycle of the system: process new Tasks, then fire a concept. ">
<polygon fill="none" stroke="black" points="1508,-88 1508,-118 1641,-118 1641,-88 1508,-88"/>
<text text-anchor="start" x="1516" y="-106" font-family="Helvetica,sans-Serif" font-size="10.00">nars.storage.Memory.work</text>
<text text-anchor="middle" x="1574.5" y="-95" font-family="Helvetica,sans-Serif" font-size="10.00">Cycle</text>
</a>
</g>
</g>
<!-- Node9&#45;&gt;Node10 -->
<g id="edge9" class="edge"><title>Node9&#45;&gt;Node10</title>
<path fill="none" stroke="midnightblue" d="M1482.12,-103C1490.72,-103 1499.37,-103 1507.76,-103"/>
<polygon fill="midnightblue" stroke="midnightblue" points="1482.07,-99.5001 1472.07,-103 1482.07,-106.5 1482.07,-99.5001"/>
</g>
<!-- Node11 -->
<g id="node11" class="node"><title>Node11</title>
<g id="a_node11"><a xlink:href="../../dd/da5/classnars_1_1storage_1_1Memory_1_1ReasonerBatch_acc60dec23da774957a85362ed6d7448b.html#acc60dec23da774957a85362ed6d7448b" target="_top" xlink:title="nars.storage.Memory.Reasoner\lBatch.doTick">
<polygon fill="none" stroke="black" points="1677,-88 1677,-118 1831,-118 1831,-88 1677,-88"/>
<text text-anchor="start" x="1685" y="-106" font-family="Helvetica,sans-Serif" font-size="10.00">nars.storage.Memory.Reasoner</text>
<text text-anchor="middle" x="1754" y="-95" font-family="Helvetica,sans-Serif" font-size="10.00">Batch.doTick</text>
</a>
</g>
</g>
<!-- Node10&#45;&gt;Node11 -->
<g id="edge10" class="edge"><title>Node10&#45;&gt;Node11</title>
<path fill="none" stroke="midnightblue" d="M1651.32,-103C1659.79,-103 1668.41,-103 1676.89,-103"/>
<polygon fill="midnightblue" stroke="midnightblue" points="1651.09,-99.5001 1641.09,-103 1651.09,-106.5 1651.09,-99.5001"/>
</g>
<!-- Node12 -->
<g id="node12" class="node"><title>Node12</title>
<g id="a_node12"><a xlink:href="../../dd/da5/classnars_1_1storage_1_1Memory_1_1ReasonerBatch_aed591f05899b98fd9e4ad01836ad0a40.html#aed591f05899b98fd9e4ad01836ad0a40" target="_top" xlink:title="A clock tick. ">
<polygon fill="none" stroke="black" points="1867,-88 1867,-118 2021,-118 2021,-88 1867,-88"/>
<text text-anchor="start" x="1875" y="-106" font-family="Helvetica,sans-Serif" font-size="10.00">nars.storage.Memory.Reasoner</text>
<text text-anchor="middle" x="1944" y="-95" font-family="Helvetica,sans-Serif" font-size="10.00">Batch.tick</text>
</a>
</g>
</g>
<!-- Node11&#45;&gt;Node12 -->
<g id="edge11" class="edge"><title>Node11&#45;&gt;Node12</title>
<path fill="none" stroke="midnightblue" d="M1841.42,-103C1849.86,-103 1858.37,-103 1866.7,-103"/>
<polygon fill="midnightblue" stroke="midnightblue" points="1841.2,-99.5001 1831.2,-103 1841.2,-106.5 1841.2,-99.5001"/>
</g>
<!-- Node13 -->
<g id="node13" class="node"><title>Node13</title>
<g id="a_node13"><a xlink:href="../../d4/d88/classnars_1_1storage_1_1Memory_1_1NARSBatch_aad99db6cedde9cff2a997db8906ff821.html#aad99db6cedde9cff2a997db8906ff821" target="_top" xlink:title="Run to completion: repeatedly execute NARS working cycle, until Inputs are Finished, or 1000 steps. ">
<polygon fill="none" stroke="black" points="2057,-93.5 2057,-112.5 2239,-112.5 2239,-93.5 2057,-93.5"/>
<text text-anchor="middle" x="2148" y="-100.5" font-family="Helvetica,sans-Serif" font-size="10.00">nars.storage.Memory.NARSBatch.run</text>
</a>
</g>
</g>
<!-- Node12&#45;&gt;Node13 -->
<g id="edge12" class="edge"><title>Node12&#45;&gt;Node13</title>
<path fill="none" stroke="midnightblue" d="M2031.27,-103C2039.69,-103 2048.25,-103 2056.71,-103"/>
<polygon fill="midnightblue" stroke="midnightblue" points="2031.08,-99.5001 2021.08,-103 2031.08,-106.5 2031.08,-99.5001"/>
</g>
<!-- Node14 -->
<g id="node14" class="node"><title>Node14</title>
<g id="a_node14"><a xlink:href="../../d4/d88/classnars_1_1storage_1_1Memory_1_1NARSBatch_a416c39463faa161661ed1d12fea03b3c.html#a416c39463faa161661ed1d12fea03b3c" target="_top" xlink:title="non&#45;static equivalent to main(String[]) : run to completion from an input file ">
<polygon fill="none" stroke="black" points="2275,-88 2275,-118 2457,-118 2457,-88 2275,-88"/>
<text text-anchor="start" x="2283" y="-106" font-family="Helvetica,sans-Serif" font-size="10.00">nars.storage.Memory.NARSBatch.run</text>
<text text-anchor="middle" x="2366" y="-95" font-family="Helvetica,sans-Serif" font-size="10.00">Inference</text>
</a>
</g>
</g>
<!-- Node13&#45;&gt;Node14 -->
<g id="edge13" class="edge"><title>Node13&#45;&gt;Node14</title>
<path fill="none" stroke="midnightblue" d="M2249.06,-103C2257.63,-103 2266.27,-103 2274.76,-103"/>
<polygon fill="midnightblue" stroke="midnightblue" points="2249.04,-99.5001 2239.04,-103 2249.04,-106.5 2249.04,-99.5001"/>
</g>
<!-- Node15 -->
<g id="node15" class="node"><title>Node15</title>
<g id="a_node15"><a xlink:href="../../d4/d88/classnars_1_1storage_1_1Memory_1_1NARSBatch_aa97fcd68270583e60e6bf1b4579d1bdc.html#aa97fcd68270583e60e6bf1b4579d1bdc" target="_top" xlink:title="The entry point of the standalone application. ">
<polygon fill="none" stroke="black" points="2493,-93.5 2493,-112.5 2683,-112.5 2683,-93.5 2493,-93.5"/>
<text text-anchor="middle" x="2588" y="-100.5" font-family="Helvetica,sans-Serif" font-size="10.00">nars.storage.Memory.NARSBatch.main</text>
</a>
</g>
</g>
<!-- Node14&#45;&gt;Node15 -->
<g id="edge14" class="edge"><title>Node14&#45;&gt;Node15</title>
<path fill="none" stroke="midnightblue" d="M2467.37,-103C2475.82,-103 2484.34,-103 2492.74,-103"/>
<polygon fill="midnightblue" stroke="midnightblue" points="2467.12,-99.5001 2457.12,-103 2467.12,-106.5 2467.12,-99.5001"/>
</g>
</g>
</svg>
