<?xml version="1.0" encoding="UTF-8" standalone="no"?>
<!DOCTYPE svg PUBLIC "-//W3C//DTD SVG 1.1//EN"
 "http://www.w3.org/Graphics/SVG/1.1/DTD/svg11.dtd">
<!-- Generated by graphviz version 2.38.0 (20140413.2041)
 -->
<!-- Title: nars.language.InstanceProperty Pages: 1 -->
<!--zoomable 1049 -->
<svg id="main" version="1.1" xmlns="http://www.w3.org/2000/svg" xmlns:xlink="http://www.w3.org/1999/xlink" xml:space="preserve" onload="init(evt)">
<style type="text/css"><![CDATA[
.edge:hover path { stroke: red; }
.edge:hover polygon { stroke: red; fill: red; }
]]></style>
<script type="text/javascript"><![CDATA[
var edges = document.getElementsByTagName('g');
if (edges && edges.length) {
  for (var i=0;i<edges.length;i++) {
    if (edges[i].id.substr(0,4)=='edge') {
      edges[i].setAttribute('class','edge');
    }
  }
}
]]></script>
        <defs>
                <circle id="rim" cx="0" cy="0" r="7"/>
                <circle id="rim2" cx="0" cy="0" r="3.5"/>
                <g id="zoomPlus">
                        <use xlink:href="#rim" fill="#404040">
                                <set attributeName="fill" to="#808080" begin="zoomplus.mouseover" end="zoomplus.mouseout"/>
                        </use>
                        <path d="M-4,0h8M0,-4v8" fill="none" stroke="white" stroke-width="1.5" pointer-events="none"/>
                </g>
                <g id="zoomMin">
                        <use xlink:href="#rim" fill="#404040">
                                <set attributeName="fill" to="#808080" begin="zoomminus.mouseover" end="zoomminus.mouseout"/>
                        </use>
                        <path d="M-4,0h8" fill="none" stroke="white" stroke-width="1.5" pointer-events="none"/>
                </g>
                <g id="dirArrow">
                        <path fill="none" stroke="white" stroke-width="1.5" d="M0,-3.0v7 M-2.5,-0.5L0,-3.0L2.5,-0.5"/>
                </g>
               <g id="resetDef">
                       <use xlink:href="#rim2" fill="#404040">
                               <set attributeName="fill" to="#808080" begin="reset.mouseover" end="reset.mouseout"/>
                       </use>
               </g>
        </defs>

<script type="text/javascript">
var viewWidth = 438;
var viewHeight = 1049;
var sectionId = 'dynsection-1';
</script>
<script xlink:href="../../svgpan.js"/>
<svg id="graph" class="graph">
<g id="viewport">
<title>nars.language.InstanceProperty</title>
<!-- Node1 -->
<g id="node1" class="node"><title>Node1</title>
<polygon fill="#bfbfbf" stroke="black" points="185.5,-0.5 185.5,-57.5 340.5,-57.5 340.5,-0.5 185.5,-0.5"/>
<text text-anchor="middle" x="263" y="-45.5" font-family="Helvetica,sans-Serif" font-size="10.00">nars.language.InstanceProperty</text>
<polyline fill="none" stroke="black" points="185.5,-38.5 340.5,-38.5 "/>
<text text-anchor="middle" x="263" y="-26.5" font-family="Helvetica,sans-Serif" font-size="10.00"> </text>
<polyline fill="none" stroke="black" points="185.5,-19.5 340.5,-19.5 "/>
<text text-anchor="start" x="193.5" y="-7.5" font-family="Helvetica,sans-Serif" font-size="10.00">+ make()</text>
</g>
<!-- Node2 -->
<g id="node2" class="node"><title>Node2</title>
<g id="a_node2"><a xlink:href="../../d1/d5e/classnars_1_1language_1_1Statement.html" target="_top" xlink:title="A statement is a compound term, consisting of a subject, a predicate, and a relation symbol in betwee...">
<polygon fill="none" stroke="black" points="200,-95.5 200,-284.5 326,-284.5 326,-95.5 200,-95.5"/>
<text text-anchor="middle" x="263" y="-272.5" font-family="Helvetica,sans-Serif" font-size="10.00">nars.language.Statement</text>
<polyline fill="none" stroke="black" points="200,-265.5 326,-265.5 "/>
<text text-anchor="middle" x="263" y="-253.5" font-family="Helvetica,sans-Serif" font-size="10.00"> </text>
<polyline fill="none" stroke="black" points="200,-246.5 326,-246.5 "/>
<text text-anchor="start" x="208" y="-234.5" font-family="Helvetica,sans-Serif" font-size="10.00">+ invalid()</text>
<text text-anchor="start" x="208" y="-223.5" font-family="Helvetica,sans-Serif" font-size="10.00">+ getSubject()</text>
<text text-anchor="start" x="208" y="-212.5" font-family="Helvetica,sans-Serif" font-size="10.00">+ getPredicate()</text>
<text text-anchor="start" x="208" y="-201.5" font-family="Helvetica,sans-Serif" font-size="10.00">+ make()</text>
<text text-anchor="start" x="208" y="-190.5" font-family="Helvetica,sans-Serif" font-size="10.00">+ make()</text>
<text text-anchor="start" x="208" y="-179.5" font-family="Helvetica,sans-Serif" font-size="10.00">+ makeSym()</text>
<text text-anchor="start" x="208" y="-168.5" font-family="Helvetica,sans-Serif" font-size="10.00">+ isRelation()</text>
<text text-anchor="start" x="208" y="-157.5" font-family="Helvetica,sans-Serif" font-size="10.00">+ invalidStatement()</text>
<text text-anchor="start" x="208" y="-146.5" font-family="Helvetica,sans-Serif" font-size="10.00"># Statement()</text>
<text text-anchor="start" x="208" y="-135.5" font-family="Helvetica,sans-Serif" font-size="10.00"># Statement()</text>
<text text-anchor="start" x="208" y="-124.5" font-family="Helvetica,sans-Serif" font-size="10.00"># Statement()</text>
<text text-anchor="start" x="208" y="-113.5" font-family="Helvetica,sans-Serif" font-size="10.00"># makeName()</text>
<text text-anchor="start" x="208" y="-102.5" font-family="Helvetica,sans-Serif" font-size="10.00"># makeStatementName()</text>
</a>
</g>
</g>
<!-- Node2&#45;&gt;Node1 -->
<g id="edge1" class="edge"><title>Node2&#45;&gt;Node1</title>
<path fill="none" stroke="midnightblue" d="M263,-85.0785C263,-75.1871 263,-65.8544 263,-57.7795"/>
<polygon fill="none" stroke="midnightblue" points="259.5,-85.1301 263,-95.1302 266.5,-85.1302 259.5,-85.1301"/>
</g>
<!-- Node3 -->
<g id="node3" class="node"><title>Node3</title>
<g id="a_node3"><a xlink:href="../../d0/dee/classnars_1_1language_1_1CompoundTerm.html" target="_top" xlink:title="A CompoundTerm is a Term with internal (syntactic) structure. ">
<polygon fill="none" stroke="black" points="188,-322.5 188,-698.5 338,-698.5 338,-322.5 188,-322.5"/>
<text text-anchor="middle" x="263" y="-686.5" font-family="Helvetica,sans-Serif" font-size="10.00">nars.language.CompoundTerm</text>
<polyline fill="none" stroke="black" points="188,-679.5 338,-679.5 "/>
<text text-anchor="start" x="196" y="-667.5" font-family="Helvetica,sans-Serif" font-size="10.00"># complexity</text>
<text text-anchor="start" x="196" y="-656.5" font-family="Helvetica,sans-Serif" font-size="10.00"># isConstant</text>
<polyline fill="none" stroke="black" points="188,-649.5 338,-649.5 "/>
<text text-anchor="start" x="196" y="-637.5" font-family="Helvetica,sans-Serif" font-size="10.00">+ operator()</text>
<text text-anchor="start" x="196" y="-626.5" font-family="Helvetica,sans-Serif" font-size="10.00">+ clone()</text>
<text text-anchor="start" x="196" y="-615.5" font-family="Helvetica,sans-Serif" font-size="10.00">+ setName()</text>
<text text-anchor="start" x="196" y="-604.5" font-family="Helvetica,sans-Serif" font-size="10.00">+ getComplexity()</text>
<text text-anchor="start" x="196" y="-593.5" font-family="Helvetica,sans-Serif" font-size="10.00">+ isConstant()</text>
<text text-anchor="start" x="196" y="-582.5" font-family="Helvetica,sans-Serif" font-size="10.00">+ setConstant()</text>
<text text-anchor="start" x="196" y="-571.5" font-family="Helvetica,sans-Serif" font-size="10.00">+ isCommutative()</text>
<text text-anchor="start" x="196" y="-560.5" font-family="Helvetica,sans-Serif" font-size="10.00">+ size()</text>
<text text-anchor="start" x="196" y="-549.5" font-family="Helvetica,sans-Serif" font-size="10.00">+ componentAt()</text>
<text text-anchor="start" x="196" y="-538.5" font-family="Helvetica,sans-Serif" font-size="10.00">+ getComponents()</text>
<text text-anchor="start" x="196" y="-527.5" font-family="Helvetica,sans-Serif" font-size="10.00">and 9 more...</text>
<text text-anchor="start" x="196" y="-516.5" font-family="Helvetica,sans-Serif" font-size="10.00">+ make()</text>
<text text-anchor="start" x="196" y="-505.5" font-family="Helvetica,sans-Serif" font-size="10.00">+ make()</text>
<text text-anchor="start" x="196" y="-494.5" font-family="Helvetica,sans-Serif" font-size="10.00">+ isOperator()</text>
<text text-anchor="start" x="196" y="-483.5" font-family="Helvetica,sans-Serif" font-size="10.00">+ cloneList()</text>
<text text-anchor="start" x="196" y="-472.5" font-family="Helvetica,sans-Serif" font-size="10.00">+ addComponents()</text>
<text text-anchor="start" x="196" y="-461.5" font-family="Helvetica,sans-Serif" font-size="10.00">+ reduceComponents()</text>
<text text-anchor="start" x="196" y="-450.5" font-family="Helvetica,sans-Serif" font-size="10.00">+ setComponent()</text>
<text text-anchor="start" x="196" y="-439.5" font-family="Helvetica,sans-Serif" font-size="10.00"># CompoundTerm()</text>
<text text-anchor="start" x="196" y="-428.5" font-family="Helvetica,sans-Serif" font-size="10.00"># CompoundTerm()</text>
<text text-anchor="start" x="196" y="-417.5" font-family="Helvetica,sans-Serif" font-size="10.00"># CompoundTerm()</text>
<text text-anchor="start" x="196" y="-406.5" font-family="Helvetica,sans-Serif" font-size="10.00"># CompoundTerm()</text>
<text text-anchor="start" x="196" y="-395.5" font-family="Helvetica,sans-Serif" font-size="10.00"># makeName()</text>
<text text-anchor="start" x="196" y="-384.5" font-family="Helvetica,sans-Serif" font-size="10.00"># argumentsToList()</text>
<text text-anchor="start" x="196" y="-373.5" font-family="Helvetica,sans-Serif" font-size="10.00"># makeCompoundName()</text>
<text text-anchor="start" x="196" y="-362.5" font-family="Helvetica,sans-Serif" font-size="10.00"># makeSetName()</text>
<text text-anchor="start" x="196" y="-351.5" font-family="Helvetica,sans-Serif" font-size="10.00"># makeImageName()</text>
<text text-anchor="start" x="196" y="-340.5" font-family="Helvetica,sans-Serif" font-size="10.00">&#45; calcComplexity()</text>
<text text-anchor="start" x="196" y="-329.5" font-family="Helvetica,sans-Serif" font-size="10.00">&#45; prepareComponentLinks()</text>
</a>
</g>
</g>
<!-- Node3&#45;&gt;Node2 -->
<g id="edge2" class="edge"><title>Node3&#45;&gt;Node2</title>
<path fill="none" stroke="midnightblue" d="M263,-312.087C263,-302.659 263,-293.421 263,-284.516"/>
<polygon fill="none" stroke="midnightblue" points="259.5,-312.385 263,-322.385 266.5,-312.385 259.5,-312.385"/>
</g>
<!-- Node4 -->
<g id="node4" class="node"><title>Node4</title>
<g id="a_node4"><a xlink:href="../../d8/db8/classnars_1_1language_1_1Term.html" target="_top" xlink:title="Term is the basic component of Narsese, and the object of processing in NARS. ">
<polygon fill="none" stroke="black" points="100,-746.5 100,-935.5 204,-935.5 204,-746.5 100,-746.5"/>
<text text-anchor="middle" x="152" y="-923.5" font-family="Helvetica,sans-Serif" font-size="10.00">nars.language.Term</text>
<polyline fill="none" stroke="black" points="100,-916.5 204,-916.5 "/>
<text text-anchor="start" x="108" y="-904.5" font-family="Helvetica,sans-Serif" font-size="10.00"># name</text>
<polyline fill="none" stroke="black" points="100,-897.5 204,-897.5 "/>
<text text-anchor="start" x="108" y="-885.5" font-family="Helvetica,sans-Serif" font-size="10.00">+ Term()</text>
<text text-anchor="start" x="108" y="-874.5" font-family="Helvetica,sans-Serif" font-size="10.00">+ getName()</text>
<text text-anchor="start" x="108" y="-863.5" font-family="Helvetica,sans-Serif" font-size="10.00">+ setName()</text>
<text text-anchor="start" x="108" y="-852.5" font-family="Helvetica,sans-Serif" font-size="10.00">+ clone()</text>
<text text-anchor="start" x="108" y="-841.5" font-family="Helvetica,sans-Serif" font-size="10.00">+ equals()</text>
<text text-anchor="start" x="108" y="-830.5" font-family="Helvetica,sans-Serif" font-size="10.00">+ hashCode()</text>
<text text-anchor="start" x="108" y="-819.5" font-family="Helvetica,sans-Serif" font-size="10.00">+ isConstant()</text>
<text text-anchor="start" x="108" y="-808.5" font-family="Helvetica,sans-Serif" font-size="10.00">+ renameVariables()</text>
<text text-anchor="start" x="108" y="-797.5" font-family="Helvetica,sans-Serif" font-size="10.00">+ getComplexity()</text>
<text text-anchor="start" x="108" y="-786.5" font-family="Helvetica,sans-Serif" font-size="10.00">+ compareTo()</text>
<text text-anchor="start" x="108" y="-775.5" font-family="Helvetica,sans-Serif" font-size="10.00">+ containTerm()</text>
<text text-anchor="start" x="108" y="-764.5" font-family="Helvetica,sans-Serif" font-size="10.00">+ toString()</text>
<text text-anchor="start" x="108" y="-753.5" font-family="Helvetica,sans-Serif" font-size="10.00"># Term()</text>
</a>
</g>
</g>
<!-- Node4&#45;&gt;Node3 -->
<g id="edge3" class="edge"><title>Node4&#45;&gt;Node3</title>
<path fill="none" stroke="midnightblue" d="M186.925,-736.64C191.047,-724.441 195.346,-711.72 199.71,-698.806"/>
<polygon fill="none" stroke="midnightblue" points="183.545,-735.71 183.66,-746.305 190.177,-737.951 183.545,-735.71"/>
</g>
<!-- Node5 -->
<g id="node5" class="node"><title>Node5</title>
<polygon fill="none" stroke="#bfbfbf" points="0,-983.5 0,-1040.5 60,-1040.5 60,-983.5 0,-983.5"/>
<text text-anchor="middle" x="30" y="-1028.5" font-family="Helvetica,sans-Serif" font-size="10.00">Cloneable</text>
<polyline fill="none" stroke="#bfbfbf" points="0,-1021.5 60,-1021.5 "/>
<text text-anchor="middle" x="30" y="-1009.5" font-family="Helvetica,sans-Serif" font-size="10.00"> </text>
<polyline fill="none" stroke="#bfbfbf" points="0,-1002.5 60,-1002.5 "/>
<text text-anchor="middle" x="30" y="-990.5" font-family="Helvetica,sans-Serif" font-size="10.00"> </text>
</g>
<!-- Node5&#45;&gt;Node4 -->
<g id="edge4" class="edge"><title>Node5&#45;&gt;Node4</title>
<path fill="none" stroke="midnightblue" d="M55.8831,-975.146C68.6715,-957.431 84.5826,-935.39 99.7557,-914.371"/>
<polygon fill="none" stroke="midnightblue" points="52.8883,-973.314 49.8729,-983.471 58.564,-977.412 52.8883,-973.314"/>
</g>
<!-- Node6 -->
<g id="node6" class="node"><title>Node6</title>
<polygon fill="none" stroke="#bfbfbf" points="78,-983.5 78,-1040.5 188,-1040.5 188,-983.5 78,-983.5"/>
<text text-anchor="middle" x="133" y="-1028.5" font-family="Helvetica,sans-Serif" font-size="10.00">Comparable&lt; Term &gt;</text>
<polyline fill="none" stroke="#bfbfbf" points="78,-1021.5 188,-1021.5 "/>
<text text-anchor="middle" x="133" y="-1009.5" font-family="Helvetica,sans-Serif" font-size="10.00"> </text>
<polyline fill="none" stroke="#bfbfbf" points="78,-1002.5 188,-1002.5 "/>
<text text-anchor="middle" x="133" y="-990.5" font-family="Helvetica,sans-Serif" font-size="10.00"> </text>
</g>
<!-- Node6&#45;&gt;Node4 -->
<g id="edge5" class="edge"><title>Node6&#45;&gt;Node4</title>
<path fill="none" stroke="midnightblue" d="M137.214,-973.518C138.495,-962.127 139.963,-949.062 141.467,-935.687"/>
<polygon fill="none" stroke="midnightblue" points="133.734,-973.143 136.095,-983.471 140.69,-973.925 133.734,-973.143"/>
</g>
<!-- Node7 -->
<g id="node7" class="node"><title>Node7</title>
<polygon fill="none" stroke="#bfbfbf" points="206.5,-983.5 206.5,-1040.5 271.5,-1040.5 271.5,-983.5 206.5,-983.5"/>
<text text-anchor="middle" x="239" y="-1028.5" font-family="Helvetica,sans-Serif" font-size="10.00">TermStruct</text>
<polyline fill="none" stroke="#bfbfbf" points="206.5,-1021.5 271.5,-1021.5 "/>
<text text-anchor="middle" x="239" y="-1009.5" font-family="Helvetica,sans-Serif" font-size="10.00"> </text>
<polyline fill="none" stroke="#bfbfbf" points="206.5,-1002.5 271.5,-1002.5 "/>
<text text-anchor="middle" x="239" y="-990.5" font-family="Helvetica,sans-Serif" font-size="10.00"> </text>
</g>
<!-- Node7&#45;&gt;Node4 -->
<g id="edge6" class="edge"><title>Node7&#45;&gt;Node4</title>
<path fill="none" stroke="midnightblue" d="M220.241,-974.56C214.252,-962.926 207.326,-949.472 200.229,-935.687"/>
<polygon fill="none" stroke="midnightblue" points="217.139,-976.182 224.828,-983.471 223.363,-972.978 217.139,-976.182"/>
</g>
<!-- Node8 -->
<g id="node8" class="node"><title>Node8</title>
<polygon fill="none" stroke="#bfbfbf" points="245,-807 245,-875 373,-875 373,-807 245,-807"/>
<text text-anchor="start" x="253" y="-863" font-family="Helvetica,sans-Serif" font-size="10.00">ArrayList&lt; nars.language.</text>
<text text-anchor="middle" x="309" y="-852" font-family="Helvetica,sans-Serif" font-size="10.00">Term &gt;</text>
<polyline fill="none" stroke="#bfbfbf" points="245,-845 373,-845 "/>
<text text-anchor="middle" x="309" y="-833" font-family="Helvetica,sans-Serif" font-size="10.00"> </text>
<polyline fill="none" stroke="#bfbfbf" points="245,-826 373,-826 "/>
<text text-anchor="middle" x="309" y="-814" font-family="Helvetica,sans-Serif" font-size="10.00"> </text>
</g>
<!-- Node8&#45;&gt;Node3 -->
<g id="edge7" class="edge"><title>Node8&#45;&gt;Node3</title>
<path fill="none" stroke="#404040" d="M304.379,-806.998C301.017,-782.994 296.158,-748.288 290.942,-711.041"/>
<polygon fill="none" stroke="#404040" points="290.902,-710.753 286.108,-705.366 289.237,-698.869 294.031,-704.256 290.902,-710.753"/>
<text text-anchor="middle" x="324" y="-720" font-family="Helvetica,sans-Serif" font-size="10.00"> #components</text>
</g>
<!-- Node9 -->
<g id="node9" class="node"><title>Node9</title>
<polygon fill="none" stroke="#bfbfbf" points="290,-983.5 290,-1040.5 346,-1040.5 346,-983.5 290,-983.5"/>
<text text-anchor="middle" x="318" y="-1028.5" font-family="Helvetica,sans-Serif" font-size="10.00">ArrayList</text>
<polyline fill="none" stroke="#bfbfbf" points="290,-1021.5 346,-1021.5 "/>
<text text-anchor="middle" x="318" y="-1009.5" font-family="Helvetica,sans-Serif" font-size="10.00"> </text>
<polyline fill="none" stroke="#bfbfbf" points="290,-1002.5 346,-1002.5 "/>
<text text-anchor="middle" x="318" y="-990.5" font-family="Helvetica,sans-Serif" font-size="10.00"> </text>
</g>
<!-- Node9&#45;&gt;Node8 -->
<g id="edge8" class="edge"><title>Node9&#45;&gt;Node8</title>
<path fill="none" stroke="orange" d="M315.985,-973.157C314.415,-943.69 312.259,-903.197 310.759,-875.029"/>
<polygon fill="orange" stroke="orange" points="312.507,-973.671 316.534,-983.471 319.497,-973.299 312.507,-973.671"/>
<text text-anchor="middle" x="373" y="-957" font-family="Helvetica,sans-Serif" font-size="10.00"> &lt; nars::language::Term &gt;</text>
</g>
</g>
</svg>
        <g id="navigator" transform="translate(0 0)" fill="#404254">
                <rect fill="#f2f5e9" fill-opacity="0.5" stroke="#606060" stroke-width=".5" x="0" y="0" width="60" height="60"/>
                <use id="zoomplus" xlink:href="#zoomPlus" x="17" y="9" onmousedown="handleZoom(evt,'in')"/>
                <use id="zoomminus" xlink:href="#zoomMin" x="42" y="9" onmousedown="handleZoom(evt,'out')"/>
                <use id="reset" xlink:href="#resetDef" x="30" y="36" onmousedown="handleReset()"/>
                <g id="arrowUp" xlink:href="#dirArrow" transform="translate(30 24)" onmousedown="handlePan(0,-1)">
                  <use xlink:href="#rim" fill="#404040">
                        <set attributeName="fill" to="#808080" begin="arrowUp.mouseover" end="arrowUp.mouseout"/>
                  </use>
                  <path fill="none" stroke="white" stroke-width="1.5" d="M0,-3.0v7 M-2.5,-0.5L0,-3.0L2.5,-0.5"/>
                </g>
                <g id="arrowRight" xlink:href="#dirArrow" transform="rotate(90) translate(36 -43)" onmousedown="handlePan(1,0)">
                  <use xlink:href="#rim" fill="#404040">
                        <set attributeName="fill" to="#808080" begin="arrowRight.mouseover" end="arrowRight.mouseout"/>
                  </use>
                  <path fill="none" stroke="white" stroke-width="1.5" d="M0,-3.0v7 M-2.5,-0.5L0,-3.0L2.5,-0.5"/>
                </g>
                <g id="arrowDown" xlink:href="#dirArrow" transform="rotate(180) translate(-30 -48)" onmousedown="handlePan(0,1)">
                  <use xlink:href="#rim" fill="#404040">
                        <set attributeName="fill" to="#808080" begin="arrowDown.mouseover" end="arrowDown.mouseout"/>
                  </use>
                  <path fill="none" stroke="white" stroke-width="1.5" d="M0,-3.0v7 M-2.5,-0.5L0,-3.0L2.5,-0.5"/>
                </g>
                <g id="arrowLeft" xlink:href="#dirArrow" transform="rotate(270) translate(-36 17)" onmousedown="handlePan(-1,0)">
                  <use xlink:href="#rim" fill="#404040">
                        <set attributeName="fill" to="#808080" begin="arrowLeft.mouseover" end="arrowLeft.mouseout"/>
                  </use>
                  <path fill="none" stroke="white" stroke-width="1.5" d="M0,-3.0v7 M-2.5,-0.5L0,-3.0L2.5,-0.5"/>
                </g>
        </g>
        <svg viewBox="0 0 15 15" width="100%" height="30px" preserveAspectRatio="xMaxYMin meet">
         <g id="arrow_out" transform="scale(0.3 0.3)">
          <a xlink:href="classnars_1_1language_1_1InstanceProperty__coll__graph_org.svg" target="_base">
           <rect id="button" ry="5" rx="5" y="6" x="6" height="38" width="38"
                fill="#f2f5e9" fill-opacity="0.5" stroke="#606060" stroke-width="1.0"/>
           <path id="arrow"
             d="M 11.500037,31.436501 C 11.940474,20.09759 22.043105,11.32322 32.158766,21.979434 L 37.068811,17.246167 C 37.068811,17.246167 37.088388,32 37.088388,32 L 22.160133,31.978069 C 22.160133,31.978069 26.997745,27.140456 26.997745,27.140456 C 18.528582,18.264221 13.291696,25.230495 11.500037,31.436501 z"
             style="fill:#404040;"/>
          </a>
         </g>
        </svg>
</svg>
