<?xml version="1.0" encoding="UTF-8" standalone="no"?>
<!DOCTYPE svg PUBLIC "-//W3C//DTD SVG 1.1//EN"
 "http://www.w3.org/Graphics/SVG/1.1/DTD/svg11.dtd">
<!-- Generated by graphviz version 2.38.0 (20140413.2041)
 -->
<!-- Title: nars.language.SetInt.SetInt Pages: 1 -->
<svg width="314pt" height="66pt"
 viewBox="0.00 0.00 314.00 66.00" xmlns="http://www.w3.org/2000/svg" xmlns:xlink="http://www.w3.org/1999/xlink">
<g id="graph0" class="graph" transform="scale(1 1) rotate(0) translate(4 62)">
<title>nars.language.SetInt.SetInt</title>
<!-- Node1 -->
<g id="node1" class="node"><title>Node1</title>
<polygon fill="#bfbfbf" stroke="black" points="0,-19.5 0,-38.5 136,-38.5 136,-19.5 0,-19.5"/>
<text text-anchor="middle" x="68" y="-26.5" font-family="Helvetica,sans-Serif" font-size="10.00">nars.language.SetInt.SetInt</text>
</g>
<!-- Node2 -->
<g id="node2" class="node"><title>Node2</title>
<g id="a_node2"><a xlink:href="../../d2/dfc/classnars_1_1language_1_1SetInt_aabb9d80867d444bfa781a3c628cb73f7.html#aabb9d80867d444bfa781a3c628cb73f7" target="_top" xlink:title="Clone a SetInt. ">
<polygon fill="none" stroke="black" points="172.5,-38.5 172.5,-57.5 305.5,-57.5 305.5,-38.5 172.5,-38.5"/>
<text text-anchor="middle" x="239" y="-45.5" font-family="Helvetica,sans-Serif" font-size="10.00">nars.language.SetInt.clone</text>
</a>
</g>
</g>
<!-- Node1&#45;&gt;Node2 -->
<g id="edge1" class="edge"><title>Node1&#45;&gt;Node2</title>
<path fill="none" stroke="midnightblue" d="M146.388,-37.7004C155.058,-38.6751 163.828,-39.6611 172.33,-40.617"/>
<polygon fill="midnightblue" stroke="midnightblue" points="146.607,-34.2031 136.279,-36.5639 145.825,-41.1593 146.607,-34.2031"/>
</g>
<!-- Node3 -->
<g id="node3" class="node"><title>Node3</title>
<g id="a_node3"><a xlink:href="../../d2/dfc/classnars_1_1language_1_1SetInt_aa773636e50f9537c648c530c6298c5b6.html#aa773636e50f9537c648c530c6298c5b6" target="_top" xlink:title="Try to make a new compound from a set of components. ">
<polygon fill="none" stroke="black" points="172,-0.5 172,-19.5 306,-19.5 306,-0.5 172,-0.5"/>
<text text-anchor="middle" x="239" y="-7.5" font-family="Helvetica,sans-Serif" font-size="10.00">nars.language.SetInt.make</text>
</a>
</g>
</g>
<!-- Node1&#45;&gt;Node3 -->
<g id="edge2" class="edge"><title>Node1&#45;&gt;Node3</title>
<path fill="none" stroke="midnightblue" d="M146.23,-20.3173C154.764,-19.3578 163.398,-18.3872 171.78,-17.4449"/>
<polygon fill="midnightblue" stroke="midnightblue" points="145.825,-16.8407 136.279,-21.4361 146.607,-23.7969 145.825,-16.8407"/>
</g>
</g>
</svg>
