<?xml version="1.0" encoding="UTF-8" standalone="no"?>
<!DOCTYPE svg PUBLIC "-//W3C//DTD SVG 1.1//EN"
 "http://www.w3.org/Graphics/SVG/1.1/DTD/svg11.dtd">
<!-- Generated by graphviz version 2.38.0 (20140413.2041)
 -->
<!-- Title: nars.language.Equivalence.clone Pages: 1 -->
<svg width="608pt" height="127pt"
 viewBox="0.00 0.00 608.00 126.50" xmlns="http://www.w3.org/2000/svg" xmlns:xlink="http://www.w3.org/1999/xlink">
<g id="graph0" class="graph" transform="scale(1 1) rotate(0) translate(4 122.5)">
<title>nars.language.Equivalence.clone</title>
<!-- Node1 -->
<g id="node1" class="node"><title>Node1</title>
<polygon fill="#bfbfbf" stroke="black" points="0,-55 0,-74 160,-74 160,-55 0,-55"/>
<text text-anchor="middle" x="80" y="-62" font-family="Helvetica,sans-Serif" font-size="10.00">nars.language.Equivalence.clone</text>
</g>
<!-- Node2 -->
<g id="node2" class="node"><title>Node2</title>
<g id="a_node2"><a xlink:href="../../d0/dee/classnars_1_1language_1_1CompoundTerm_a4f199daa7588f86b81b0912a5e52dfe0.html#a4f199daa7588f86b81b0912a5e52dfe0" target="_top" xlink:title="Deep clone an array list of terms. ">
<polygon fill="none" stroke="black" points="196,-99 196,-118 388,-118 388,-99 196,-99"/>
<text text-anchor="middle" x="292" y="-106" font-family="Helvetica,sans-Serif" font-size="10.00">nars.language.CompoundTerm.cloneList</text>
</a>
</g>
</g>
<!-- Node1&#45;&gt;Node2 -->
<g id="edge1" class="edge"><title>Node1&#45;&gt;Node2</title>
<path fill="none" stroke="midnightblue" d="M124.105,-74.0488C145.676,-78.782 172.199,-84.5332 196,-89.5 207.834,-91.9696 220.512,-94.5501 232.626,-96.9847"/>
<polygon fill="midnightblue" stroke="midnightblue" points="232.147,-100.458 242.639,-98.9898 233.521,-93.5943 232.147,-100.458"/>
</g>
<!-- Node4 -->
<g id="node4" class="node"><title>Node4</title>
<g id="a_node4"><a xlink:href="../../d1/d8b/classnars_1_1language_1_1Equivalence_a0b0aac062c08a1cefa084bfec24386d2.html#a0b0aac062c08a1cefa084bfec24386d2" target="_top" xlink:title="Constructor with partial values, called by make. ">
<polygon fill="none" stroke="black" points="223.5,-49.5 223.5,-79.5 360.5,-79.5 360.5,-49.5 223.5,-49.5"/>
<text text-anchor="start" x="231.5" y="-67.5" font-family="Helvetica,sans-Serif" font-size="10.00">nars.language.Equivalence.</text>
<text text-anchor="middle" x="292" y="-56.5" font-family="Helvetica,sans-Serif" font-size="10.00">Equivalence</text>
</a>
</g>
</g>
<!-- Node1&#45;&gt;Node4 -->
<g id="edge3" class="edge"><title>Node1&#45;&gt;Node4</title>
<path fill="none" stroke="midnightblue" d="M160.093,-64.5C177.49,-64.5 195.9,-64.5 213.244,-64.5"/>
<polygon fill="midnightblue" stroke="midnightblue" points="213.317,-68.0001 223.317,-64.5 213.317,-61.0001 213.317,-68.0001"/>
</g>
<!-- Node5 -->
<g id="node5" class="node"><title>Node5</title>
<g id="a_node5"><a xlink:href="../../d0/dee/classnars_1_1language_1_1CompoundTerm_aee0ef6fd533b58caf22bee2a98eef67d.html#aee0ef6fd533b58caf22bee2a98eef67d" target="_top" xlink:title="check if the term contains free variable ">
<polygon fill="none" stroke="black" points="211.5,-0.5 211.5,-30.5 372.5,-30.5 372.5,-0.5 211.5,-0.5"/>
<text text-anchor="start" x="219.5" y="-18.5" font-family="Helvetica,sans-Serif" font-size="10.00">nars.language.CompoundTerm.is</text>
<text text-anchor="middle" x="292" y="-7.5" font-family="Helvetica,sans-Serif" font-size="10.00">Constant</text>
</a>
</g>
</g>
<!-- Node1&#45;&gt;Node5 -->
<g id="edge4" class="edge"><title>Node1&#45;&gt;Node5</title>
<path fill="none" stroke="midnightblue" d="M121.739,-54.9942C148.654,-48.714 184.723,-40.2979 216.649,-32.8487"/>
<polygon fill="midnightblue" stroke="midnightblue" points="217.466,-36.2521 226.409,-30.5713 215.875,-29.4352 217.466,-36.2521"/>
</g>
<!-- Node3 -->
<g id="node3" class="node"><title>Node3</title>
<g id="a_node3"><a xlink:href="../../d0/dee/classnars_1_1language_1_1CompoundTerm_a963e8aef1163f4ed8c364b5e448deaff.html#a963e8aef1163f4ed8c364b5e448deaff" target="_top" xlink:title="Abstract clone method. ">
<polygon fill="none" stroke="black" points="424,-99 424,-118 600,-118 600,-99 424,-99"/>
<text text-anchor="middle" x="512" y="-106" font-family="Helvetica,sans-Serif" font-size="10.00">nars.language.CompoundTerm.clone</text>
</a>
</g>
</g>
<!-- Node2&#45;&gt;Node3 -->
<g id="edge2" class="edge"><title>Node2&#45;&gt;Node3</title>
<path fill="none" stroke="midnightblue" d="M388.301,-108.5C396.69,-108.5 405.19,-108.5 413.597,-108.5"/>
<polygon fill="midnightblue" stroke="midnightblue" points="413.791,-112 423.791,-108.5 413.791,-105 413.791,-112"/>
</g>
</g>
</svg>
