<?xml version="1.0" encoding="UTF-8" standalone="no"?>
<!DOCTYPE svg PUBLIC "-//W3C//DTD SVG 1.1//EN"
 "http://www.w3.org/Graphics/SVG/1.1/DTD/svg11.dtd">
<!-- Generated by graphviz version 2.38.0 (20140413.2041)
 -->
<!-- Title: nars.io.OutputChannel Pages: 1 -->
<svg width="132pt" height="237pt"
 viewBox="0.00 0.00 132.00 237.00" xmlns="http://www.w3.org/2000/svg" xmlns:xlink="http://www.w3.org/1999/xlink">
<g id="graph0" class="graph" transform="scale(1 1) rotate(0) translate(4 233)">
<title>nars.io.OutputChannel</title>
<!-- Node1 -->
<g id="node1" class="node"><title>Node1</title>
<polygon fill="#bfbfbf" stroke="black" points="5,-160.5 5,-228.5 119,-228.5 119,-160.5 5,-160.5"/>
<text text-anchor="middle" x="62" y="-216.5" font-family="Helvetica,sans-Serif" font-size="10.00">nars.io.OutputChannel</text>
<polyline fill="none" stroke="black" points="5,-209.5 119,-209.5 "/>
<text text-anchor="middle" x="62" y="-197.5" font-family="Helvetica,sans-Serif" font-size="10.00"> </text>
<polyline fill="none" stroke="black" points="5,-190.5 119,-190.5 "/>
<text text-anchor="start" x="13" y="-178.5" font-family="Helvetica,sans-Serif" font-size="10.00">+ nextOutput()</text>
<text text-anchor="start" x="13" y="-167.5" font-family="Helvetica,sans-Serif" font-size="10.00">+ tickTimer()</text>
</g>
<!-- Node2 -->
<g id="node2" class="node"><title>Node2</title>
<g id="a_node2"><a xlink:href="../../d0/d5d/classnars_1_1io_1_1ExperienceWriter.html" target="_top" xlink:title="To read and write experience as Task streams. ">
<polygon fill="none" stroke="black" points="-7.10543e-15,-0.5 -7.10543e-15,-123.5 124,-123.5 124,-0.5 -7.10543e-15,-0.5"/>
<text text-anchor="middle" x="62" y="-111.5" font-family="Helvetica,sans-Serif" font-size="10.00">nars.io.ExperienceWriter</text>
<polyline fill="none" stroke="black" points="-7.10543e-15,-104.5 124,-104.5 "/>
<text text-anchor="start" x="8" y="-92.5" font-family="Helvetica,sans-Serif" font-size="10.00">&#45; reasoner</text>
<text text-anchor="start" x="8" y="-81.5" font-family="Helvetica,sans-Serif" font-size="10.00">&#45; outExp</text>
<polyline fill="none" stroke="black" points="-7.10543e-15,-74.5 124,-74.5 "/>
<text text-anchor="start" x="8" y="-62.5" font-family="Helvetica,sans-Serif" font-size="10.00">+ ExperienceWriter()</text>
<text text-anchor="start" x="8" y="-51.5" font-family="Helvetica,sans-Serif" font-size="10.00">+ ExperienceWriter()</text>
<text text-anchor="start" x="8" y="-40.5" font-family="Helvetica,sans-Serif" font-size="10.00">+ openSaveFile()</text>
<text text-anchor="start" x="8" y="-29.5" font-family="Helvetica,sans-Serif" font-size="10.00">+ closeSaveFile()</text>
<text text-anchor="start" x="8" y="-18.5" font-family="Helvetica,sans-Serif" font-size="10.00">+ nextOutput()</text>
<text text-anchor="start" x="8" y="-7.5" font-family="Helvetica,sans-Serif" font-size="10.00">+ tickTimer()</text>
</a>
</g>
</g>
<!-- Node1&#45;&gt;Node2 -->
<g id="edge1" class="edge"><title>Node1&#45;&gt;Node2</title>
<path fill="none" stroke="midnightblue" d="M62,-150.169C62,-141.652 62,-132.572 62,-123.609"/>
<polygon fill="none" stroke="midnightblue" points="58.5001,-150.232 62,-160.232 65.5001,-150.232 58.5001,-150.232"/>
</g>
</g>
</svg>
