<?xml version="1.0" encoding="UTF-8" standalone="no"?>
<!DOCTYPE svg PUBLIC "-//W3C//DTD SVG 1.1//EN"
 "http://www.w3.org/Graphics/SVG/1.1/DTD/svg11.dtd">
<!-- Generated by graphviz version 2.38.0 (20140413.2041)
 -->
<!-- Title: nars.inference.StructuralRules.transformPredicatePI Pages: 1 -->
<!--zoomable 449 -->
<svg id="main" version="1.1" xmlns="http://www.w3.org/2000/svg" xmlns:xlink="http://www.w3.org/1999/xlink" xml:space="preserve" onload="init(evt)">
<style type="text/css"><![CDATA[
.edge:hover path { stroke: red; }
.edge:hover polygon { stroke: red; fill: red; }
]]></style>
<script type="text/javascript"><![CDATA[
var edges = document.getElementsByTagName('g');
if (edges && edges.length) {
  for (var i=0;i<edges.length;i++) {
    if (edges[i].id.substr(0,4)=='edge') {
      edges[i].setAttribute('class','edge');
    }
  }
}
]]></script>
        <defs>
                <circle id="rim" cx="0" cy="0" r="7"/>
                <circle id="rim2" cx="0" cy="0" r="3.5"/>
                <g id="zoomPlus">
                        <use xlink:href="#rim" fill="#404040">
                                <set attributeName="fill" to="#808080" begin="zoomplus.mouseover" end="zoomplus.mouseout"/>
                        </use>
                        <path d="M-4,0h8M0,-4v8" fill="none" stroke="white" stroke-width="1.5" pointer-events="none"/>
                </g>
                <g id="zoomMin">
                        <use xlink:href="#rim" fill="#404040">
                                <set attributeName="fill" to="#808080" begin="zoomminus.mouseover" end="zoomminus.mouseout"/>
                        </use>
                        <path d="M-4,0h8" fill="none" stroke="white" stroke-width="1.5" pointer-events="none"/>
                </g>
                <g id="dirArrow">
                        <path fill="none" stroke="white" stroke-width="1.5" d="M0,-3.0v7 M-2.5,-0.5L0,-3.0L2.5,-0.5"/>
                </g>
               <g id="resetDef">
                       <use xlink:href="#rim2" fill="#404040">
                               <set attributeName="fill" to="#808080" begin="reset.mouseover" end="reset.mouseout"/>
                       </use>
               </g>
        </defs>

<script type="text/javascript">
var viewWidth = 1012;
var viewHeight = 449;
var sectionId = 'dynsection-0';
</script>
<script xlink:href="../../svgpan.js"/>
<svg id="graph" class="graph">
<g id="viewport">
<title>nars.inference.StructuralRules.transformPredicatePI</title>
<!-- Node1 -->
<g id="node1" class="node"><title>Node1</title>
<polygon fill="#bfbfbf" stroke="black" points="0,-235 0,-265 137,-265 137,-235 0,-235"/>
<text text-anchor="start" x="8" y="-253" font-family="Helvetica,sans-Serif" font-size="10.00">nars.inference.Structural</text>
<text text-anchor="middle" x="68.5" y="-242" font-family="Helvetica,sans-Serif" font-size="10.00">Rules.transformPredicatePI</text>
</g>
<!-- Node2 -->
<g id="node2" class="node"><title>Node2</title>
<g id="a_node2"><a xlink:href="../../d0/dee/classnars_1_1language_1_1CompoundTerm_acedae916705e9fa1669391a7d728b840.html#acedae916705e9fa1669391a7d728b840" target="_top" xlink:title="get a component by index ">
<polygon fill="none" stroke="black" points="173,-421.5 173,-440.5 384,-440.5 384,-421.5 173,-421.5"/>
<text text-anchor="middle" x="278.5" y="-428.5" font-family="Helvetica,sans-Serif" font-size="10.00">nars.language.CompoundTerm.componentAt</text>
</a>
</g>
</g>
<!-- Node1&#45;&gt;Node2 -->
<g id="edge1" class="edge"><title>Node1&#45;&gt;Node2</title>
<path fill="none" stroke="midnightblue" d="M74.6363,-265.375C86.3845,-297.997 118.487,-374.162 173,-411 176.573,-413.414 180.363,-415.555 184.301,-417.451"/>
<polygon fill="midnightblue" stroke="midnightblue" points="183.153,-420.766 193.726,-421.446 185.885,-414.321 183.153,-420.766"/>
</g>
<!-- Node3 -->
<g id="node3" class="node"><title>Node3</title>
<g id="a_node3"><a xlink:href="../../d8/df4/classnars_1_1storage_1_1Memory_a26eda4f00b333b706b4e3d069fdf1508.html#a26eda4f00b333b706b4e3d069fdf1508" target="_top" xlink:title="The selected Task. ">
<polygon fill="none" stroke="black" points="430,-319.5 430,-338.5 609,-338.5 609,-319.5 430,-319.5"/>
<text text-anchor="middle" x="519.5" y="-326.5" font-family="Helvetica,sans-Serif" font-size="10.00">nars.storage.Memory.getCurrentTask</text>
</a>
</g>
</g>
<!-- Node1&#45;&gt;Node3 -->
<g id="edge2" class="edge"><title>Node1&#45;&gt;Node3</title>
<path fill="none" stroke="midnightblue" d="M115.984,-234.998C178.658,-217.277 292.903,-193.888 384,-225 387.346,-226.143 461.053,-283.853 497.904,-312.8"/>
<polygon fill="midnightblue" stroke="midnightblue" points="495.976,-315.737 506.001,-319.164 500.301,-310.233 495.976,-315.737"/>
</g>
<!-- Node4 -->
<g id="node4" class="node"><title>Node4</title>
<g id="a_node4"><a xlink:href="../../db/dbb/classnars_1_1language_1_1ImageExt_ae55a92ec8ba7c5dc209e84ee7b464885.html#ae55a92ec8ba7c5dc209e84ee7b464885" target="_top" xlink:title="get the index of the relation in the component list ">
<polygon fill="none" stroke="black" points="209,-323 209,-353 348,-353 348,-323 209,-323"/>
<text text-anchor="start" x="217" y="-341" font-family="Helvetica,sans-Serif" font-size="10.00">nars.language.ImageExt.get</text>
<text text-anchor="middle" x="278.5" y="-330" font-family="Helvetica,sans-Serif" font-size="10.00">RelationIndex</text>
</a>
</g>
</g>
<!-- Node1&#45;&gt;Node4 -->
<g id="edge3" class="edge"><title>Node1&#45;&gt;Node4</title>
<path fill="none" stroke="midnightblue" d="M89.8795,-265.062C110.047,-279.309 142.269,-300.339 173,-313 181.296,-316.418 190.165,-319.434 199.097,-322.079"/>
<polygon fill="midnightblue" stroke="midnightblue" points="198.216,-325.467 208.79,-324.804 200.11,-318.728 198.216,-325.467"/>
</g>
<!-- Node5 -->
<g id="node5" class="node"><title>Node5</title>
<g id="a_node5"><a xlink:href="../../dc/ddc/classnars_1_1entity_1_1Task_ab140cb553a6cf40b07093d1df283567f.html#ab140cb553a6cf40b07093d1df283567f" target="_top" xlink:title="Get the sentence. ">
<polygon fill="none" stroke="black" points="206,-284.5 206,-303.5 351,-303.5 351,-284.5 206,-284.5"/>
<text text-anchor="middle" x="278.5" y="-291.5" font-family="Helvetica,sans-Serif" font-size="10.00">nars.entity.Task.getSentence</text>
</a>
</g>
</g>
<!-- Node1&#45;&gt;Node5 -->
<g id="edge4" class="edge"><title>Node1&#45;&gt;Node5</title>
<path fill="none" stroke="midnightblue" d="M132.632,-265.049C145.943,-268.107 159.917,-271.232 173,-274 186.742,-276.907 201.541,-279.852 215.556,-282.555"/>
<polygon fill="midnightblue" stroke="midnightblue" points="215.116,-286.035 225.596,-284.477 216.432,-279.16 215.116,-286.035"/>
</g>
<!-- Node6 -->
<g id="node6" class="node"><title>Node6</title>
<g id="a_node6"><a xlink:href="../../d6/d25/classnars_1_1entity_1_1Sentence_a9f69b4fef64c81abad21404946cd41f9.html#a9f69b4fef64c81abad21404946cd41f9" target="_top" xlink:title="Get the truth value of the sentence. ">
<polygon fill="none" stroke="black" points="217,-235 217,-265 340,-265 340,-235 217,-235"/>
<text text-anchor="start" x="225" y="-253" font-family="Helvetica,sans-Serif" font-size="10.00">nars.entity.Sentence.get</text>
<text text-anchor="middle" x="278.5" y="-242" font-family="Helvetica,sans-Serif" font-size="10.00">Truth</text>
</a>
</g>
</g>
<!-- Node1&#45;&gt;Node6 -->
<g id="edge5" class="edge"><title>Node1&#45;&gt;Node6</title>
<path fill="none" stroke="midnightblue" d="M137.032,-250C159.354,-250 184.243,-250 206.796,-250"/>
<polygon fill="midnightblue" stroke="midnightblue" points="206.976,-253.5 216.976,-250 206.976,-246.5 206.976,-253.5"/>
</g>
<!-- Node7 -->
<g id="node7" class="node"><title>Node7</title>
<g id="a_node7"><a xlink:href="../../d0/df3/classnars_1_1language_1_1Inheritance_a5ccaf18d33e722f438944debb2757b34.html#a5ccaf18d33e722f438944debb2757b34" target="_top" xlink:title="Try to make a new compound from two components. ">
<polygon fill="none" stroke="black" points="201,-120.5 201,-139.5 356,-139.5 356,-120.5 201,-120.5"/>
<text text-anchor="middle" x="278.5" y="-127.5" font-family="Helvetica,sans-Serif" font-size="10.00">nars.language.Inheritance.make</text>
</a>
</g>
</g>
<!-- Node1&#45;&gt;Node7 -->
<g id="edge6" class="edge"><title>Node1&#45;&gt;Node7</title>
<path fill="none" stroke="midnightblue" d="M80.2666,-234.815C97.2138,-212.166 132.396,-169.959 173,-149 178.699,-146.058 184.779,-143.565 191.03,-141.453"/>
<polygon fill="midnightblue" stroke="midnightblue" points="192.412,-144.691 200.965,-138.438 190.379,-137.993 192.412,-144.691"/>
</g>
<!-- Node22 -->
<g id="node22" class="node"><title>Node22</title>
<g id="a_node22"><a xlink:href="../../df/de3/classnars_1_1language_1_1ImageInt_ad05e4231ed31d78ad4c8b4fefbc964fa.html#ad05e4231ed31d78ad4c8b4fefbc964fa" target="_top" xlink:title="Try to make a new ImageExt. ">
<polygon fill="none" stroke="black" points="205.5,-158.5 205.5,-177.5 351.5,-177.5 351.5,-158.5 205.5,-158.5"/>
<text text-anchor="middle" x="278.5" y="-165.5" font-family="Helvetica,sans-Serif" font-size="10.00">nars.language.ImageInt.make</text>
</a>
</g>
</g>
<!-- Node1&#45;&gt;Node22 -->
<g id="edge21" class="edge"><title>Node1&#45;&gt;Node22</title>
<path fill="none" stroke="midnightblue" d="M92.003,-234.898C112.371,-221.847 143.598,-203.345 173,-192 185.524,-187.167 199.285,-183.153 212.592,-179.879"/>
<polygon fill="midnightblue" stroke="midnightblue" points="213.716,-183.21 222.652,-177.519 212.116,-176.396 213.716,-183.21"/>
</g>
<!-- Node23 -->
<g id="node23" class="node"><title>Node23</title>
<g id="a_node23"><a xlink:href="../../d8/df4/classnars_1_1storage_1_1Memory_aec1106814819aa1c8437001c2c4bf1a3.html#aec1106814819aa1c8437001c2c4bf1a3" target="_top" xlink:title="Shared final operations by all single&#45;premise rules, called in StructuralRules. ">
<polygon fill="none" stroke="black" points="210,-372 210,-402 347,-402 347,-372 210,-372"/>
<text text-anchor="start" x="218" y="-390" font-family="Helvetica,sans-Serif" font-size="10.00">nars.storage.Memory.single</text>
<text text-anchor="middle" x="278.5" y="-379" font-family="Helvetica,sans-Serif" font-size="10.00">PremiseTask</text>
</a>
</g>
</g>
<!-- Node1&#45;&gt;Node23 -->
<g id="edge22" class="edge"><title>Node1&#45;&gt;Node23</title>
<path fill="none" stroke="midnightblue" d="M79.2146,-265.354C95.5053,-289.78 130.735,-337.247 173,-362 181.303,-366.863 190.503,-370.781 199.901,-373.938"/>
<polygon fill="midnightblue" stroke="midnightblue" points="199.15,-377.369 209.737,-376.96 201.205,-370.677 199.15,-377.369"/>
</g>
<!-- Node24 -->
<g id="node24" class="node"><title>Node24</title>
<g id="a_node24"><a xlink:href="../../d0/dee/classnars_1_1language_1_1CompoundTerm_ac81c5851f664320ddec435641f198b03.html#ac81c5851f664320ddec435641f198b03" target="_top" xlink:title="get the number of components ">
<polygon fill="none" stroke="black" points="193,-82.5 193,-101.5 364,-101.5 364,-82.5 193,-82.5"/>
<text text-anchor="middle" x="278.5" y="-89.5" font-family="Helvetica,sans-Serif" font-size="10.00">nars.language.CompoundTerm.size</text>
</a>
</g>
</g>
<!-- Node1&#45;&gt;Node24 -->
<g id="edge24" class="edge"><title>Node1&#45;&gt;Node24</title>
<path fill="none" stroke="midnightblue" d="M76.0443,-234.905C89.5379,-205.73 123.402,-141.772 173,-111 176.385,-108.9 179.942,-107.019 183.62,-105.335"/>
<polygon fill="midnightblue" stroke="midnightblue" points="185.023,-108.543 192.976,-101.543 182.393,-102.056 185.023,-108.543"/>
</g>
<!-- Node8 -->
<g id="node8" class="node"><title>Node8</title>
<g id="a_node8"><a xlink:href="../../d1/d5e/classnars_1_1language_1_1Statement_a96d4bf7bb99f48b6496cdb7457bc0e50.html#a96d4bf7bb99f48b6496cdb7457bc0e50" target="_top" xlink:title="Check the validity of a potential Statement. ">
<polygon fill="none" stroke="black" points="441.5,-164 441.5,-194 597.5,-194 597.5,-164 441.5,-164"/>
<text text-anchor="start" x="449.5" y="-182" font-family="Helvetica,sans-Serif" font-size="10.00">nars.language.Statement.invalid</text>
<text text-anchor="middle" x="519.5" y="-171" font-family="Helvetica,sans-Serif" font-size="10.00">Statement</text>
</a>
</g>
</g>
<!-- Node7&#45;&gt;Node8 -->
<g id="edge7" class="edge"><title>Node7&#45;&gt;Node8</title>
<path fill="none" stroke="midnightblue" d="M334.085,-139.503C350.186,-142.42 367.824,-145.727 384,-149 403.369,-152.919 424.242,-157.433 443.632,-161.749"/>
<polygon fill="midnightblue" stroke="midnightblue" points="443.097,-165.216 453.62,-163.984 444.626,-158.385 443.097,-165.216"/>
</g>
<!-- Node15 -->
<g id="node15" class="node"><title>Node15</title>
<g id="a_node15"><a xlink:href="../../d1/d5e/classnars_1_1language_1_1Statement_a7123aba1c8c566f291e2c9b9d147557d.html#a7123aba1c8c566f291e2c9b9d147557d" target="_top" xlink:title="Default method to make the nameStr of an image term from given fields. ">
<polygon fill="none" stroke="black" points="443.5,-115 443.5,-145 595.5,-145 595.5,-115 443.5,-115"/>
<text text-anchor="start" x="451.5" y="-133" font-family="Helvetica,sans-Serif" font-size="10.00">nars.language.Statement.make</text>
<text text-anchor="middle" x="519.5" y="-122" font-family="Helvetica,sans-Serif" font-size="10.00">StatementName</text>
</a>
</g>
</g>
<!-- Node7&#45;&gt;Node15 -->
<g id="edge14" class="edge"><title>Node7&#45;&gt;Node15</title>
<path fill="none" stroke="midnightblue" d="M356.107,-130C380.588,-130 407.837,-130 432.914,-130"/>
<polygon fill="midnightblue" stroke="midnightblue" points="433.143,-133.5 443.143,-130 433.143,-126.5 433.143,-133.5"/>
</g>
<!-- Node16 -->
<g id="node16" class="node"><title>Node16</title>
<g id="a_node16"><a xlink:href="../../d8/df4/classnars_1_1storage_1_1Memory_a63058cc52d77412e0aead8387c23aa93.html#a63058cc52d77412e0aead8387c23aa93" target="_top" xlink:title="Get a Term for a given name of a Concept or Operator. ">
<polygon fill="none" stroke="black" points="451.5,-66 451.5,-96 587.5,-96 587.5,-66 451.5,-66"/>
<text text-anchor="start" x="459.5" y="-84" font-family="Helvetica,sans-Serif" font-size="10.00">nars.storage.Memory.name</text>
<text text-anchor="middle" x="519.5" y="-73" font-family="Helvetica,sans-Serif" font-size="10.00">ToListedTerm</text>
</a>
</g>
</g>
<!-- Node7&#45;&gt;Node16 -->
<g id="edge15" class="edge"><title>Node7&#45;&gt;Node16</title>
<path fill="none" stroke="midnightblue" d="M334.085,-120.497C350.186,-117.58 367.824,-114.273 384,-111 403.369,-107.081 424.242,-102.567 443.632,-98.251"/>
<polygon fill="midnightblue" stroke="midnightblue" points="444.626,-101.615 453.62,-96.0162 443.097,-94.7842 444.626,-101.615"/>
</g>
<!-- Node20 -->
<g id="node20" class="node"><title>Node20</title>
<g id="a_node20"><a xlink:href="../../d0/dee/classnars_1_1language_1_1CompoundTerm_a26cc2a0123b22a3019ca81de239c5007.html#a26cc2a0123b22a3019ca81de239c5007" target="_top" xlink:title="build a component list from two terms ">
<polygon fill="none" stroke="black" points="420,-17 420,-47 619,-47 619,-17 420,-17"/>
<text text-anchor="start" x="428" y="-35" font-family="Helvetica,sans-Serif" font-size="10.00">nars.language.CompoundTerm.arguments</text>
<text text-anchor="middle" x="519.5" y="-24" font-family="Helvetica,sans-Serif" font-size="10.00">ToList</text>
</a>
</g>
</g>
<!-- Node7&#45;&gt;Node20 -->
<g id="edge19" class="edge"><title>Node7&#45;&gt;Node20</title>
<path fill="none" stroke="midnightblue" d="M356.241,-123.539C366.079,-120.604 375.624,-116.554 384,-111 408.348,-94.8541 396.14,-72.8587 420,-56 422.138,-54.4892 424.361,-53.0729 426.65,-51.7453"/>
<polygon fill="midnightblue" stroke="midnightblue" points="428.485,-54.7375 435.777,-47.0517 425.283,-48.5124 428.485,-54.7375"/>
</g>
<!-- Node21 -->
<g id="node21" class="node"><title>Node21</title>
<g id="a_node21"><a xlink:href="../../d0/df3/classnars_1_1language_1_1Inheritance_ae30b0f7e4285d1b8c4f02f91580f622f.html#ae30b0f7e4285d1b8c4f02f91580f622f" target="_top" xlink:title="Constructor with partial values, called by make. ">
<polygon fill="none" stroke="black" points="454,-213 454,-243 585,-243 585,-213 454,-213"/>
<text text-anchor="start" x="462" y="-231" font-family="Helvetica,sans-Serif" font-size="10.00">nars.language.Inheritance.</text>
<text text-anchor="middle" x="519.5" y="-220" font-family="Helvetica,sans-Serif" font-size="10.00">Inheritance</text>
</a>
</g>
</g>
<!-- Node7&#45;&gt;Node21 -->
<g id="edge20" class="edge"><title>Node7&#45;&gt;Node21</title>
<path fill="none" stroke="midnightblue" d="M356.198,-136.526C366.042,-139.451 375.601,-143.481 384,-149 408.106,-164.839 396.452,-186.342 420,-203 427.273,-208.145 435.509,-212.233 444.046,-215.481"/>
<polygon fill="midnightblue" stroke="midnightblue" points="443.182,-218.884 453.776,-218.802 445.443,-212.259 443.182,-218.884"/>
</g>
<!-- Node9 -->
<g id="node9" class="node"><title>Node9</title>
<g id="a_node9"><a xlink:href="../../d8/db8/classnars_1_1language_1_1Term_ad85f45a7858737445d5158801774ff5f.html#ad85f45a7858737445d5158801774ff5f" target="_top" xlink:title="Equal terms have identical name, though not necessarily the same reference. ">
<polygon fill="none" stroke="black" points="671.5,-164.5 671.5,-183.5 805.5,-183.5 805.5,-164.5 671.5,-164.5"/>
<text text-anchor="middle" x="738.5" y="-171.5" font-family="Helvetica,sans-Serif" font-size="10.00">nars.language.Term.equals</text>
</a>
</g>
</g>
<!-- Node8&#45;&gt;Node9 -->
<g id="edge8" class="edge"><title>Node8&#45;&gt;Node9</title>
<path fill="none" stroke="midnightblue" d="M597.617,-177.223C618.251,-176.748 640.543,-176.234 661.136,-175.76"/>
<polygon fill="midnightblue" stroke="midnightblue" points="661.495,-179.252 671.412,-175.523 661.334,-172.254 661.495,-179.252"/>
</g>
<!-- Node11 -->
<g id="node11" class="node"><title>Node11</title>
<g id="a_node11"><a xlink:href="../../d0/dee/classnars_1_1language_1_1CompoundTerm_a89000afae8017231889aaa549292d1e0.html#a89000afae8017231889aaa549292d1e0" target="_top" xlink:title="Default constructor. ">
<polygon fill="none" stroke="black" points="662,-115 662,-145 815,-145 815,-115 662,-115"/>
<text text-anchor="start" x="670" y="-133" font-family="Helvetica,sans-Serif" font-size="10.00">nars.language.CompoundTerm.</text>
<text text-anchor="middle" x="738.5" y="-122" font-family="Helvetica,sans-Serif" font-size="10.00">CompoundTerm</text>
</a>
</g>
</g>
<!-- Node8&#45;&gt;Node11 -->
<g id="edge10" class="edge"><title>Node8&#45;&gt;Node11</title>
<path fill="none" stroke="midnightblue" d="M587.082,-163.965C610.515,-158.674 637.03,-152.687 661.201,-147.229"/>
<polygon fill="midnightblue" stroke="midnightblue" points="662.061,-150.623 671.044,-145.006 660.519,-143.795 662.061,-150.623"/>
</g>
<!-- Node12 -->
<g id="node12" class="node"><title>Node12</title>
<g id="a_node12"><a xlink:href="../../d1/d5e/classnars_1_1language_1_1Statement_ac56b558891dd2088e0b66b437780c7b7.html#ac56b558891dd2088e0b66b437780c7b7" target="_top" xlink:title="Default constructor. ">
<polygon fill="none" stroke="black" points="674.5,-301 674.5,-331 802.5,-331 802.5,-301 674.5,-301"/>
<text text-anchor="start" x="682.5" y="-319" font-family="Helvetica,sans-Serif" font-size="10.00">nars.language.Statement.</text>
<text text-anchor="middle" x="738.5" y="-308" font-family="Helvetica,sans-Serif" font-size="10.00">Statement</text>
</a>
</g>
</g>
<!-- Node8&#45;&gt;Node12 -->
<g id="edge11" class="edge"><title>Node8&#45;&gt;Node12</title>
<path fill="none" stroke="midnightblue" d="M597.722,-190.079C605.443,-193.379 612.73,-197.603 619,-203 651.026,-230.568 623.748,-262.558 655,-291 658.175,-293.89 661.675,-296.446 665.386,-298.707"/>
<polygon fill="midnightblue" stroke="midnightblue" points="663.902,-301.881 674.378,-303.464 667.176,-295.694 663.902,-301.881"/>
</g>
<!-- Node13 -->
<g id="node13" class="node"><title>Node13</title>
<g id="a_node13"><a xlink:href="../../d1/d5e/classnars_1_1language_1_1Statement_ace4f80751d303c613e467163913bebf5.html#ace4f80751d303c613e467163913bebf5" target="_top" xlink:title="Return the first component of the statement. ">
<polygon fill="none" stroke="black" points="667.5,-252 667.5,-282 809.5,-282 809.5,-252 667.5,-252"/>
<text text-anchor="start" x="675.5" y="-270" font-family="Helvetica,sans-Serif" font-size="10.00">nars.language.Statement.get</text>
<text text-anchor="middle" x="738.5" y="-259" font-family="Helvetica,sans-Serif" font-size="10.00">Subject</text>
</a>
</g>
</g>
<!-- Node8&#45;&gt;Node13 -->
<g id="edge12" class="edge"><title>Node8&#45;&gt;Node13</title>
<path fill="none" stroke="midnightblue" d="M597.541,-193.032C605.037,-195.782 612.327,-199.07 619,-203 639.327,-214.97 635.012,-229.474 655,-242 658.329,-244.086 661.843,-246.007 665.468,-247.775"/>
<polygon fill="midnightblue" stroke="midnightblue" points="664.109,-251.002 674.669,-251.862 666.951,-244.604 664.109,-251.002"/>
</g>
<!-- Node14 -->
<g id="node14" class="node"><title>Node14</title>
<g id="a_node14"><a xlink:href="../../d1/d5e/classnars_1_1language_1_1Statement_ababe6155e2f78e769f76493317e118e0.html#ababe6155e2f78e769f76493317e118e0" target="_top" xlink:title="Return the second component of the statement. ">
<polygon fill="none" stroke="black" points="667.5,-203 667.5,-233 809.5,-233 809.5,-203 667.5,-203"/>
<text text-anchor="start" x="675.5" y="-221" font-family="Helvetica,sans-Serif" font-size="10.00">nars.language.Statement.get</text>
<text text-anchor="middle" x="738.5" y="-210" font-family="Helvetica,sans-Serif" font-size="10.00">Predicate</text>
</a>
</g>
</g>
<!-- Node8&#45;&gt;Node14 -->
<g id="edge13" class="edge"><title>Node8&#45;&gt;Node14</title>
<path fill="none" stroke="midnightblue" d="M597.617,-192.86C616.912,-196.328 637.656,-200.056 657.106,-203.551"/>
<polygon fill="midnightblue" stroke="midnightblue" points="656.683,-207.031 667.145,-205.355 657.922,-200.142 656.683,-207.031"/>
</g>
<!-- Node10 -->
<g id="node10" class="node"><title>Node10</title>
<g id="a_node10"><a xlink:href="../../d8/db8/classnars_1_1language_1_1Term_a3aad4654016b8615fd4fa8a26668e1db.html#a3aad4654016b8615fd4fa8a26668e1db" target="_top" xlink:title="Reporting the name of the current Term. ">
<polygon fill="none" stroke="black" points="858,-164.5 858,-183.5 1004,-183.5 1004,-164.5 858,-164.5"/>
<text text-anchor="middle" x="931" y="-171.5" font-family="Helvetica,sans-Serif" font-size="10.00">nars.language.Term.getName</text>
</a>
</g>
</g>
<!-- Node9&#45;&gt;Node10 -->
<g id="edge9" class="edge"><title>Node9&#45;&gt;Node10</title>
<path fill="none" stroke="midnightblue" d="M805.593,-174C819.169,-174 833.62,-174 847.688,-174"/>
<polygon fill="midnightblue" stroke="midnightblue" points="847.845,-177.5 857.845,-174 847.845,-170.5 847.845,-177.5"/>
</g>
<!-- Node17 -->
<g id="node17" class="node"><title>Node17</title>
<g id="a_node17"><a xlink:href="../../d8/df4/classnars_1_1storage_1_1Memory_a33af7b3d806d32c85390563fec3c6d27.html#a33af7b3d806d32c85390563fec3c6d27" target="_top" xlink:title="Concept bag. ">
<polygon fill="none" stroke="black" points="655,-0.5 655,-19.5 822,-19.5 822,-0.5 655,-0.5"/>
<text text-anchor="middle" x="738.5" y="-7.5" font-family="Helvetica,sans-Serif" font-size="10.00">nars.storage.Memory.getConcepts</text>
</a>
</g>
</g>
<!-- Node16&#45;&gt;Node17 -->
<g id="edge16" class="edge"><title>Node16&#45;&gt;Node17</title>
<path fill="none" stroke="midnightblue" d="M587.726,-67.741C598.441,-64.5553 609.211,-60.6807 619,-56 637.043,-47.3723 636.862,-37.4269 655,-29 660.294,-26.5403 665.932,-24.3864 671.678,-22.5028"/>
<polygon fill="midnightblue" stroke="midnightblue" points="672.839,-25.8086 681.411,-19.5815 670.827,-19.1041 672.839,-25.8086"/>
</g>
<!-- Node18 -->
<g id="node18" class="node"><title>Node18</title>
<g id="a_node18"><a xlink:href="../../d9/d37/classnars_1_1storage_1_1Bag_a011b37fc683db7fb7b41e33712a37d92.html#a011b37fc683db7fb7b41e33712a37d92" target="_top" xlink:title="Get an Item by key. ">
<polygon fill="none" stroke="black" points="685,-76.5 685,-95.5 792,-95.5 792,-76.5 685,-76.5"/>
<text text-anchor="middle" x="738.5" y="-83.5" font-family="Helvetica,sans-Serif" font-size="10.00">nars.storage.Bag.get</text>
</a>
</g>
</g>
<!-- Node16&#45;&gt;Node18 -->
<g id="edge17" class="edge"><title>Node16&#45;&gt;Node18</title>
<path fill="none" stroke="midnightblue" d="M587.674,-82.5478C615.378,-83.1861 647.308,-83.9218 674.554,-84.5496"/>
<polygon fill="midnightblue" stroke="midnightblue" points="674.671,-88.0532 684.749,-84.7845 674.832,-81.055 674.671,-88.0532"/>
</g>
<!-- Node19 -->
<g id="node19" class="node"><title>Node19</title>
<g id="a_node19"><a xlink:href="../../d4/d22/classnars_1_1entity_1_1Concept_afcd1217b7680b073fa51f0d0f159dcea.html#afcd1217b7680b073fa51f0d0f159dcea" target="_top" xlink:title="Return the associated term, called from Memory only. ">
<polygon fill="none" stroke="black" points="668,-38.5 668,-57.5 809,-57.5 809,-38.5 668,-38.5"/>
<text text-anchor="middle" x="738.5" y="-45.5" font-family="Helvetica,sans-Serif" font-size="10.00">nars.entity.Concept.getTerm</text>
</a>
</g>
</g>
<!-- Node16&#45;&gt;Node19 -->
<g id="edge18" class="edge"><title>Node16&#45;&gt;Node19</title>
<path fill="none" stroke="midnightblue" d="M587.674,-70.7846C612.07,-67.0745 639.744,-62.8661 664.611,-59.0845"/>
<polygon fill="midnightblue" stroke="midnightblue" points="665.353,-62.5119 674.714,-57.5482 664.301,-55.5915 665.353,-62.5119"/>
</g>
<!-- Node23&#45;&gt;Node3 -->
<g id="edge23" class="edge"><title>Node23&#45;&gt;Node3</title>
<path fill="none" stroke="midnightblue" d="M342.51,-371.988C356.192,-368.711 370.584,-365.251 384,-362 412.571,-355.078 444.532,-347.24 470.127,-340.94"/>
<polygon fill="midnightblue" stroke="midnightblue" points="471.087,-344.308 479.96,-338.519 469.413,-337.511 471.087,-344.308"/>
</g>
</g>
</svg>
        <g id="navigator" transform="translate(0 0)" fill="#404254">
                <rect fill="#f2f5e9" fill-opacity="0.5" stroke="#606060" stroke-width=".5" x="0" y="0" width="60" height="60"/>
                <use id="zoomplus" xlink:href="#zoomPlus" x="17" y="9" onmousedown="handleZoom(evt,'in')"/>
                <use id="zoomminus" xlink:href="#zoomMin" x="42" y="9" onmousedown="handleZoom(evt,'out')"/>
                <use id="reset" xlink:href="#resetDef" x="30" y="36" onmousedown="handleReset()"/>
                <g id="arrowUp" xlink:href="#dirArrow" transform="translate(30 24)" onmousedown="handlePan(0,-1)">
                  <use xlink:href="#rim" fill="#404040">
                        <set attributeName="fill" to="#808080" begin="arrowUp.mouseover" end="arrowUp.mouseout"/>
                  </use>
                  <path fill="none" stroke="white" stroke-width="1.5" d="M0,-3.0v7 M-2.5,-0.5L0,-3.0L2.5,-0.5"/>
                </g>
                <g id="arrowRight" xlink:href="#dirArrow" transform="rotate(90) translate(36 -43)" onmousedown="handlePan(1,0)">
                  <use xlink:href="#rim" fill="#404040">
                        <set attributeName="fill" to="#808080" begin="arrowRight.mouseover" end="arrowRight.mouseout"/>
                  </use>
                  <path fill="none" stroke="white" stroke-width="1.5" d="M0,-3.0v7 M-2.5,-0.5L0,-3.0L2.5,-0.5"/>
                </g>
                <g id="arrowDown" xlink:href="#dirArrow" transform="rotate(180) translate(-30 -48)" onmousedown="handlePan(0,1)">
                  <use xlink:href="#rim" fill="#404040">
                        <set attributeName="fill" to="#808080" begin="arrowDown.mouseover" end="arrowDown.mouseout"/>
                  </use>
                  <path fill="none" stroke="white" stroke-width="1.5" d="M0,-3.0v7 M-2.5,-0.5L0,-3.0L2.5,-0.5"/>
                </g>
                <g id="arrowLeft" xlink:href="#dirArrow" transform="rotate(270) translate(-36 17)" onmousedown="handlePan(-1,0)">
                  <use xlink:href="#rim" fill="#404040">
                        <set attributeName="fill" to="#808080" begin="arrowLeft.mouseover" end="arrowLeft.mouseout"/>
                  </use>
                  <path fill="none" stroke="white" stroke-width="1.5" d="M0,-3.0v7 M-2.5,-0.5L0,-3.0L2.5,-0.5"/>
                </g>
        </g>
        <svg viewBox="0 0 15 15" width="100%" height="30px" preserveAspectRatio="xMaxYMin meet">
         <g id="arrow_out" transform="scale(0.3 0.3)">
          <a xlink:href="classnars_1_1inference_1_1StructuralRules_ad34f61108459aea34b27a7547ac4ba48_ad34f61108459aea34b27a7547ac4ba48_cgraph_org.svg" target="_base">
           <rect id="button" ry="5" rx="5" y="6" x="6" height="38" width="38"
                fill="#f2f5e9" fill-opacity="0.5" stroke="#606060" stroke-width="1.0"/>
           <path id="arrow"
             d="M 11.500037,31.436501 C 11.940474,20.09759 22.043105,11.32322 32.158766,21.979434 L 37.068811,17.246167 C 37.068811,17.246167 37.088388,32 37.088388,32 L 22.160133,31.978069 C 22.160133,31.978069 26.997745,27.140456 26.997745,27.140456 C 18.528582,18.264221 13.291696,25.230495 11.500037,31.436501 z"
             style="fill:#404040;"/>
          </a>
         </g>
        </svg>
</svg>
