<?xml version="1.0" encoding="UTF-8" standalone="no"?>
<!DOCTYPE svg PUBLIC "-//W3C//DTD SVG 1.1//EN"
 "http://www.w3.org/Graphics/SVG/1.1/DTD/svg11.dtd">
<!-- Generated by graphviz version 2.38.0 (20140413.2041)
 -->
<!-- Title: nars.inference.StructuralRules.transformSetRelation Pages: 1 -->
<svg width="972pt" height="497pt"
 viewBox="0.00 0.00 972.00 497.39" xmlns="http://www.w3.org/2000/svg" xmlns:xlink="http://www.w3.org/1999/xlink">
<g id="graph0" class="graph" transform="scale(1 1) rotate(0) translate(4 493.389)">
<title>nars.inference.StructuralRules.transformSetRelation</title>
<!-- Node1 -->
<g id="node1" class="node"><title>Node1</title>
<polygon fill="#bfbfbf" stroke="black" points="0,-178 0,-208 137,-208 137,-178 0,-178"/>
<text text-anchor="start" x="8" y="-196" font-family="Helvetica,sans-Serif" font-size="10.00">nars.inference.Structural</text>
<text text-anchor="middle" x="68.5" y="-185" font-family="Helvetica,sans-Serif" font-size="10.00">Rules.transformSetRelation</text>
</g>
<!-- Node2 -->
<g id="node2" class="node"><title>Node2</title>
<g id="a_node2"><a xlink:href="../../d8/df4/classnars_1_1storage_1_1Memory_a26eda4f00b333b706b4e3d069fdf1508.html#a26eda4f00b333b706b4e3d069fdf1508" target="_top" xlink:title="The selected Task. ">
<polygon fill="none" stroke="black" points="390,-443.5 390,-462.5 569,-462.5 569,-443.5 390,-443.5"/>
<text text-anchor="middle" x="479.5" y="-450.5" font-family="Helvetica,sans-Serif" font-size="10.00">nars.storage.Memory.getCurrentTask</text>
</a>
</g>
</g>
<!-- Node1&#45;&gt;Node2 -->
<g id="edge1" class="edge"><title>Node1&#45;&gt;Node2</title>
<path fill="none" stroke="midnightblue" d="M69.9848,-208.116C72.3981,-254.837 86.8211,-397.302 173,-456 255.014,-511.861 380.315,-484.473 441.833,-465.68"/>
<polygon fill="midnightblue" stroke="midnightblue" points="443.009,-468.979 451.495,-462.637 440.906,-462.302 443.009,-468.979"/>
</g>
<!-- Node3 -->
<g id="node3" class="node"><title>Node3</title>
<g id="a_node3"><a xlink:href="../../d1/d5e/classnars_1_1language_1_1Statement_ababe6155e2f78e769f76493317e118e0.html#ababe6155e2f78e769f76493317e118e0" target="_top" xlink:title="Return the second component of the statement. ">
<polygon fill="none" stroke="black" points="627.5,-383 627.5,-413 769.5,-413 769.5,-383 627.5,-383"/>
<text text-anchor="start" x="635.5" y="-401" font-family="Helvetica,sans-Serif" font-size="10.00">nars.language.Statement.get</text>
<text text-anchor="middle" x="698.5" y="-390" font-family="Helvetica,sans-Serif" font-size="10.00">Predicate</text>
</a>
</g>
</g>
<!-- Node1&#45;&gt;Node3 -->
<g id="edge2" class="edge"><title>Node1&#45;&gt;Node3</title>
<path fill="none" stroke="midnightblue" d="M80.033,-208.152C96.9303,-231.298 132.354,-275.266 173,-299 313.897,-381.273 509.09,-397.206 617.242,-399.135"/>
<polygon fill="midnightblue" stroke="midnightblue" points="617.384,-402.637 627.432,-399.279 617.483,-395.638 617.384,-402.637"/>
</g>
<!-- Node4 -->
<g id="node4" class="node"><title>Node4</title>
<g id="a_node4"><a xlink:href="../../dc/ddc/classnars_1_1entity_1_1Task_ab140cb553a6cf40b07093d1df283567f.html#ab140cb553a6cf40b07093d1df283567f" target="_top" xlink:title="Get the sentence. ">
<polygon fill="none" stroke="black" points="186,-126.5 186,-145.5 331,-145.5 331,-126.5 186,-126.5"/>
<text text-anchor="middle" x="258.5" y="-133.5" font-family="Helvetica,sans-Serif" font-size="10.00">nars.entity.Task.getSentence</text>
</a>
</g>
</g>
<!-- Node1&#45;&gt;Node4 -->
<g id="edge3" class="edge"><title>Node1&#45;&gt;Node4</title>
<path fill="none" stroke="midnightblue" d="M106.956,-177.904C126.446,-170.393 150.783,-161.546 173,-155 181.686,-152.441 190.961,-150.035 200.067,-147.85"/>
<polygon fill="midnightblue" stroke="midnightblue" points="200.902,-151.25 209.847,-145.571 199.313,-144.432 200.902,-151.25"/>
</g>
<!-- Node5 -->
<g id="node5" class="node"><title>Node5</title>
<g id="a_node5"><a xlink:href="../../d1/d5e/classnars_1_1language_1_1Statement_ace4f80751d303c613e467163913bebf5.html#ace4f80751d303c613e467163913bebf5" target="_top" xlink:title="Return the first component of the statement. ">
<polygon fill="none" stroke="black" points="627.5,-334 627.5,-364 769.5,-364 769.5,-334 627.5,-334"/>
<text text-anchor="start" x="635.5" y="-352" font-family="Helvetica,sans-Serif" font-size="10.00">nars.language.Statement.get</text>
<text text-anchor="middle" x="698.5" y="-341" font-family="Helvetica,sans-Serif" font-size="10.00">Subject</text>
</a>
</g>
</g>
<!-- Node1&#45;&gt;Node5 -->
<g id="edge4" class="edge"><title>Node1&#45;&gt;Node5</title>
<path fill="none" stroke="midnightblue" d="M94.9667,-208.021C146.628,-237.62 268.335,-302.951 380,-330 459.089,-349.158 552.333,-352.555 617.228,-351.989"/>
<polygon fill="midnightblue" stroke="midnightblue" points="617.437,-355.487 627.394,-351.866 617.352,-348.487 617.437,-355.487"/>
</g>
<!-- Node6 -->
<g id="node6" class="node"><title>Node6</title>
<g id="a_node6"><a xlink:href="../../d6/d25/classnars_1_1entity_1_1Sentence_a9f69b4fef64c81abad21404946cd41f9.html#a9f69b4fef64c81abad21404946cd41f9" target="_top" xlink:title="Get the truth value of the sentence. ">
<polygon fill="none" stroke="black" points="197,-77 197,-107 320,-107 320,-77 197,-77"/>
<text text-anchor="start" x="205" y="-95" font-family="Helvetica,sans-Serif" font-size="10.00">nars.entity.Sentence.get</text>
<text text-anchor="middle" x="258.5" y="-84" font-family="Helvetica,sans-Serif" font-size="10.00">Truth</text>
</a>
</g>
</g>
<!-- Node1&#45;&gt;Node6 -->
<g id="edge5" class="edge"><title>Node1&#45;&gt;Node6</title>
<path fill="none" stroke="midnightblue" d="M86.2378,-177.829C105.766,-160.846 139.649,-133.545 173,-117 177.593,-114.721 182.432,-112.611 187.374,-110.663"/>
<polygon fill="midnightblue" stroke="midnightblue" points="188.799,-113.868 196.965,-107.118 186.372,-107.302 188.799,-113.868"/>
</g>
<!-- Node7 -->
<g id="node7" class="node"><title>Node7</title>
<g id="a_node7"><a xlink:href="../../d6/d25/classnars_1_1entity_1_1Sentence_acb98b40c8990dbe5e15061f0759c60ee.html#acb98b40c8990dbe5e15061f0759c60ee" target="_top" xlink:title="Distinguish Question from Quest (&quot;instanceof Question&quot; doesn&#39;t work) ">
<polygon fill="none" stroke="black" points="180.5,-38.5 180.5,-57.5 336.5,-57.5 336.5,-38.5 180.5,-38.5"/>
<text text-anchor="middle" x="258.5" y="-45.5" font-family="Helvetica,sans-Serif" font-size="10.00">nars.entity.Sentence.isQuestion</text>
</a>
</g>
</g>
<!-- Node1&#45;&gt;Node7 -->
<g id="edge6" class="edge"><title>Node1&#45;&gt;Node7</title>
<path fill="none" stroke="midnightblue" d="M77.4595,-177.819C92.3753,-150.953 127.206,-95.2122 173,-67 176.431,-64.8866 180.069,-63.0074 183.834,-61.3366"/>
<polygon fill="midnightblue" stroke="midnightblue" points="185.365,-64.4961 193.406,-57.598 182.818,-57.9757 185.365,-64.4961"/>
</g>
<!-- Node8 -->
<g id="node8" class="node"><title>Node8</title>
<g id="a_node8"><a xlink:href="../../d3/d1f/classnars_1_1language_1_1Similarity_ae72436d78c25d4735b4201d773dd1901.html#ae72436d78c25d4735b4201d773dd1901" target="_top" xlink:title="Try to make a new compound from two components. ">
<polygon fill="none" stroke="black" points="184.5,-202.5 184.5,-221.5 332.5,-221.5 332.5,-202.5 184.5,-202.5"/>
<text text-anchor="middle" x="258.5" y="-209.5" font-family="Helvetica,sans-Serif" font-size="10.00">nars.language.Similarity.make</text>
</a>
</g>
</g>
<!-- Node1&#45;&gt;Node8 -->
<g id="edge7" class="edge"><title>Node1&#45;&gt;Node8</title>
<path fill="none" stroke="midnightblue" d="M137.107,-199.833C149.234,-201.058 161.999,-202.348 174.501,-203.612"/>
<polygon fill="midnightblue" stroke="midnightblue" points="174.152,-207.094 184.454,-204.618 174.856,-200.13 174.152,-207.094"/>
</g>
<!-- Node22 -->
<g id="node22" class="node"><title>Node22</title>
<g id="a_node22"><a xlink:href="../../d0/df3/classnars_1_1language_1_1Inheritance_a5ccaf18d33e722f438944debb2757b34.html#a5ccaf18d33e722f438944debb2757b34" target="_top" xlink:title="Try to make a new compound from two components. ">
<polygon fill="none" stroke="black" points="181,-164.5 181,-183.5 336,-183.5 336,-164.5 181,-164.5"/>
<text text-anchor="middle" x="258.5" y="-171.5" font-family="Helvetica,sans-Serif" font-size="10.00">nars.language.Inheritance.make</text>
</a>
</g>
</g>
<!-- Node1&#45;&gt;Node22 -->
<g id="edge24" class="edge"><title>Node1&#45;&gt;Node22</title>
<path fill="none" stroke="midnightblue" d="M137.107,-186.167C147.987,-185.068 159.381,-183.916 170.638,-182.779"/>
<polygon fill="midnightblue" stroke="midnightblue" points="171.321,-186.228 180.918,-181.74 170.617,-179.263 171.321,-186.228"/>
</g>
<!-- Node24 -->
<g id="node24" class="node"><title>Node24</title>
<g id="a_node24"><a xlink:href="../../d8/df4/classnars_1_1storage_1_1Memory_aec1106814819aa1c8437001c2c4bf1a3.html#aec1106814819aa1c8437001c2c4bf1a3" target="_top" xlink:title="Shared final operations by all single&#45;premise rules, called in StructuralRules. ">
<polygon fill="none" stroke="black" points="190,-416 190,-446 327,-446 327,-416 190,-416"/>
<text text-anchor="start" x="198" y="-434" font-family="Helvetica,sans-Serif" font-size="10.00">nars.storage.Memory.single</text>
<text text-anchor="middle" x="258.5" y="-423" font-family="Helvetica,sans-Serif" font-size="10.00">PremiseTask</text>
</a>
</g>
</g>
<!-- Node1&#45;&gt;Node24 -->
<g id="edge30" class="edge"><title>Node1&#45;&gt;Node24</title>
<path fill="none" stroke="midnightblue" d="M72.8856,-208.225C82.1158,-246.259 111.266,-346.295 173,-401 177.404,-404.902 182.349,-408.306 187.58,-411.274"/>
<polygon fill="midnightblue" stroke="midnightblue" points="186.108,-414.452 196.608,-415.868 189.283,-408.213 186.108,-414.452"/>
</g>
<!-- Node25 -->
<g id="node25" class="node"><title>Node25</title>
<g id="a_node25"><a xlink:href="../../d0/dee/classnars_1_1language_1_1CompoundTerm_ac81c5851f664320ddec435641f198b03.html#ac81c5851f664320ddec435641f198b03" target="_top" xlink:title="get the number of components ">
<polygon fill="none" stroke="black" points="173,-0.5 173,-19.5 344,-19.5 344,-0.5 173,-0.5"/>
<text text-anchor="middle" x="258.5" y="-7.5" font-family="Helvetica,sans-Serif" font-size="10.00">nars.language.CompoundTerm.size</text>
</a>
</g>
</g>
<!-- Node1&#45;&gt;Node25 -->
<g id="edge32" class="edge"><title>Node1&#45;&gt;Node25</title>
<path fill="none" stroke="midnightblue" d="M74.4666,-177.974C86.0811,-145.301 118.257,-67.6286 173,-29 175.703,-27.0928 178.565,-25.373 181.54,-23.8226"/>
<polygon fill="midnightblue" stroke="midnightblue" points="183.08,-26.9676 190.752,-19.6613 180.198,-20.5883 183.08,-26.9676"/>
</g>
<!-- Node9 -->
<g id="node9" class="node"><title>Node9</title>
<g id="a_node9"><a xlink:href="../../d1/d5e/classnars_1_1language_1_1Statement_a96d4bf7bb99f48b6496cdb7457bc0e50.html#a96d4bf7bb99f48b6496cdb7457bc0e50" target="_top" xlink:title="Check the validity of a potential Statement. ">
<polygon fill="none" stroke="black" points="401.5,-241 401.5,-271 557.5,-271 557.5,-241 401.5,-241"/>
<text text-anchor="start" x="409.5" y="-259" font-family="Helvetica,sans-Serif" font-size="10.00">nars.language.Statement.invalid</text>
<text text-anchor="middle" x="479.5" y="-248" font-family="Helvetica,sans-Serif" font-size="10.00">Statement</text>
</a>
</g>
</g>
<!-- Node8&#45;&gt;Node9 -->
<g id="edge8" class="edge"><title>Node8&#45;&gt;Node9</title>
<path fill="none" stroke="midnightblue" d="M307.02,-221.547C332.337,-226.634 364.245,-233.045 393.652,-238.953"/>
<polygon fill="midnightblue" stroke="midnightblue" points="393.022,-242.396 403.516,-240.935 394.401,-235.533 393.022,-242.396"/>
</g>
<!-- Node14 -->
<g id="node14" class="node"><title>Node14</title>
<g id="a_node14"><a xlink:href="../../d8/db8/classnars_1_1language_1_1Term_ab9bc1c9cc779c07b09983b41ed8491e1.html#ab9bc1c9cc779c07b09983b41ed8491e1" target="_top" xlink:title="Check the relative order of two Terms. ">
<polygon fill="none" stroke="black" points="402,-202.5 402,-221.5 557,-221.5 557,-202.5 402,-202.5"/>
<text text-anchor="middle" x="479.5" y="-209.5" font-family="Helvetica,sans-Serif" font-size="10.00">nars.language.Term.compareTo</text>
</a>
</g>
</g>
<!-- Node8&#45;&gt;Node14 -->
<g id="edge15" class="edge"><title>Node8&#45;&gt;Node14</title>
<path fill="none" stroke="midnightblue" d="M332.728,-212C351.682,-212 372.271,-212 391.841,-212"/>
<polygon fill="midnightblue" stroke="midnightblue" points="391.968,-215.5 401.967,-212 391.967,-208.5 391.968,-215.5"/>
</g>
<!-- Node15 -->
<g id="node15" class="node"><title>Node15</title>
<g id="a_node15"><a xlink:href="../../d1/d5e/classnars_1_1language_1_1Statement_a7123aba1c8c566f291e2c9b9d147557d.html#a7123aba1c8c566f291e2c9b9d147557d" target="_top" xlink:title="Default method to make the nameStr of an image term from given fields. ">
<polygon fill="none" stroke="black" points="403.5,-55 403.5,-85 555.5,-85 555.5,-55 403.5,-55"/>
<text text-anchor="start" x="411.5" y="-73" font-family="Helvetica,sans-Serif" font-size="10.00">nars.language.Statement.make</text>
<text text-anchor="middle" x="479.5" y="-62" font-family="Helvetica,sans-Serif" font-size="10.00">StatementName</text>
</a>
</g>
</g>
<!-- Node8&#45;&gt;Node15 -->
<g id="edge17" class="edge"><title>Node8&#45;&gt;Node15</title>
<path fill="none" stroke="midnightblue" d="M329.635,-202.343C334.832,-199.847 339.71,-196.774 344,-193 379.149,-162.072 345.128,-125.24 380,-94 384.179,-90.2565 388.844,-87.0732 393.81,-84.3685"/>
<polygon fill="midnightblue" stroke="midnightblue" points="395.494,-87.4437 403.032,-79.9995 392.497,-81.1176 395.494,-87.4437"/>
</g>
<!-- Node16 -->
<g id="node16" class="node"><title>Node16</title>
<g id="a_node16"><a xlink:href="../../d8/df4/classnars_1_1storage_1_1Memory_a63058cc52d77412e0aead8387c23aa93.html#a63058cc52d77412e0aead8387c23aa93" target="_top" xlink:title="Get a Term for a given name of a Concept or Operator. ">
<polygon fill="none" stroke="black" points="411.5,-153 411.5,-183 547.5,-183 547.5,-153 411.5,-153"/>
<text text-anchor="start" x="419.5" y="-171" font-family="Helvetica,sans-Serif" font-size="10.00">nars.storage.Memory.name</text>
<text text-anchor="middle" x="479.5" y="-160" font-family="Helvetica,sans-Serif" font-size="10.00">ToListedTerm</text>
</a>
</g>
</g>
<!-- Node8&#45;&gt;Node16 -->
<g id="edge18" class="edge"><title>Node8&#45;&gt;Node16</title>
<path fill="none" stroke="midnightblue" d="M307.02,-202.453C334.49,-196.933 369.721,-189.855 401.096,-183.552"/>
<polygon fill="midnightblue" stroke="midnightblue" points="402.017,-186.936 411.132,-181.535 400.638,-180.074 402.017,-186.936"/>
</g>
<!-- Node20 -->
<g id="node20" class="node"><title>Node20</title>
<g id="a_node20"><a xlink:href="../../d0/dee/classnars_1_1language_1_1CompoundTerm_a26cc2a0123b22a3019ca81de239c5007.html#a26cc2a0123b22a3019ca81de239c5007" target="_top" xlink:title="build a component list from two terms ">
<polygon fill="none" stroke="black" points="380,-104 380,-134 579,-134 579,-104 380,-104"/>
<text text-anchor="start" x="388" y="-122" font-family="Helvetica,sans-Serif" font-size="10.00">nars.language.CompoundTerm.arguments</text>
<text text-anchor="middle" x="479.5" y="-111" font-family="Helvetica,sans-Serif" font-size="10.00">ToList</text>
</a>
</g>
</g>
<!-- Node8&#45;&gt;Node20 -->
<g id="edge22" class="edge"><title>Node8&#45;&gt;Node20</title>
<path fill="none" stroke="midnightblue" d="M324.712,-202.477C331.525,-200.003 338.104,-196.896 344,-193 366.845,-177.903 357.29,-158.3 380,-143 382.395,-141.386 384.887,-139.881 387.455,-138.477"/>
<polygon fill="midnightblue" stroke="midnightblue" points="388.997,-141.619 396.442,-134.081 385.922,-135.331 388.997,-141.619"/>
</g>
<!-- Node21 -->
<g id="node21" class="node"><title>Node21</title>
<g id="a_node21"><a xlink:href="../../d3/d1f/classnars_1_1language_1_1Similarity_ad0a41421c692d6b4ff8fc4cef5b98b4a.html#ad0a41421c692d6b4ff8fc4cef5b98b4a" target="_top" xlink:title="Constructor with partial values, called by make. ">
<polygon fill="none" stroke="black" points="417.5,-290 417.5,-320 541.5,-320 541.5,-290 417.5,-290"/>
<text text-anchor="start" x="425.5" y="-308" font-family="Helvetica,sans-Serif" font-size="10.00">nars.language.Similarity.</text>
<text text-anchor="middle" x="479.5" y="-297" font-family="Helvetica,sans-Serif" font-size="10.00">Similarity</text>
</a>
</g>
</g>
<!-- Node8&#45;&gt;Node21 -->
<g id="edge23" class="edge"><title>Node8&#45;&gt;Node21</title>
<path fill="none" stroke="midnightblue" d="M273.311,-221.645C295.055,-236.42 339.023,-264.656 380,-281 388.797,-284.509 398.248,-287.603 407.688,-290.301"/>
<polygon fill="midnightblue" stroke="midnightblue" points="406.927,-293.721 417.495,-292.971 408.766,-286.967 406.927,-293.721"/>
</g>
<!-- Node9&#45;&gt;Node3 -->
<g id="edge14" class="edge"><title>Node9&#45;&gt;Node3</title>
<path fill="none" stroke="midnightblue" d="M557.848,-267.786C565.546,-271.179 572.793,-275.501 579,-281 612.175,-310.392 582.338,-344.04 615,-374 616.285,-375.178 617.624,-376.299 619.011,-377.365"/>
<polygon fill="midnightblue" stroke="midnightblue" points="617.133,-380.32 627.411,-382.892 620.98,-374.472 617.133,-380.32"/>
</g>
<!-- Node9&#45;&gt;Node5 -->
<g id="edge13" class="edge"><title>Node9&#45;&gt;Node5</title>
<path fill="none" stroke="midnightblue" d="M557.749,-270.539C565.205,-273.419 572.428,-276.869 579,-281 600.102,-294.264 594.206,-310.257 615,-324 618.118,-326.06 621.412,-327.957 624.818,-329.701"/>
<polygon fill="midnightblue" stroke="midnightblue" points="623.51,-332.952 634.055,-333.974 626.448,-326.599 623.51,-332.952"/>
</g>
<!-- Node10 -->
<g id="node10" class="node"><title>Node10</title>
<g id="a_node10"><a xlink:href="../../d8/db8/classnars_1_1language_1_1Term_ad85f45a7858737445d5158801774ff5f.html#ad85f45a7858737445d5158801774ff5f" target="_top" xlink:title="Equal terms have identical name, though not necessarily the same reference. ">
<polygon fill="none" stroke="black" points="631.5,-295.5 631.5,-314.5 765.5,-314.5 765.5,-295.5 631.5,-295.5"/>
<text text-anchor="middle" x="698.5" y="-302.5" font-family="Helvetica,sans-Serif" font-size="10.00">nars.language.Term.equals</text>
</a>
</g>
</g>
<!-- Node9&#45;&gt;Node10 -->
<g id="edge9" class="edge"><title>Node9&#45;&gt;Node10</title>
<path fill="none" stroke="midnightblue" d="M547.082,-271.035C578.621,-278.156 615.745,-286.539 645.22,-293.195"/>
<polygon fill="midnightblue" stroke="midnightblue" points="644.779,-296.683 655.305,-295.472 646.321,-289.855 644.779,-296.683"/>
</g>
<!-- Node12 -->
<g id="node12" class="node"><title>Node12</title>
<g id="a_node12"><a xlink:href="../../d0/dee/classnars_1_1language_1_1CompoundTerm_a89000afae8017231889aaa549292d1e0.html#a89000afae8017231889aaa549292d1e0" target="_top" xlink:title="Default constructor. ">
<polygon fill="none" stroke="black" points="622,-246 622,-276 775,-276 775,-246 622,-246"/>
<text text-anchor="start" x="630" y="-264" font-family="Helvetica,sans-Serif" font-size="10.00">nars.language.CompoundTerm.</text>
<text text-anchor="middle" x="698.5" y="-253" font-family="Helvetica,sans-Serif" font-size="10.00">CompoundTerm</text>
</a>
</g>
</g>
<!-- Node9&#45;&gt;Node12 -->
<g id="edge11" class="edge"><title>Node9&#45;&gt;Node12</title>
<path fill="none" stroke="midnightblue" d="M557.617,-257.777C575.031,-258.178 593.624,-258.607 611.382,-259.016"/>
<polygon fill="midnightblue" stroke="midnightblue" points="611.647,-262.523 621.725,-259.254 611.809,-255.525 611.647,-262.523"/>
</g>
<!-- Node13 -->
<g id="node13" class="node"><title>Node13</title>
<g id="a_node13"><a xlink:href="../../d1/d5e/classnars_1_1language_1_1Statement_ac56b558891dd2088e0b66b437780c7b7.html#ac56b558891dd2088e0b66b437780c7b7" target="_top" xlink:title="Default constructor. ">
<polygon fill="none" stroke="black" points="634.5,-197 634.5,-227 762.5,-227 762.5,-197 634.5,-197"/>
<text text-anchor="start" x="642.5" y="-215" font-family="Helvetica,sans-Serif" font-size="10.00">nars.language.Statement.</text>
<text text-anchor="middle" x="698.5" y="-204" font-family="Helvetica,sans-Serif" font-size="10.00">Statement</text>
</a>
</g>
</g>
<!-- Node9&#45;&gt;Node13 -->
<g id="edge12" class="edge"><title>Node9&#45;&gt;Node13</title>
<path fill="none" stroke="midnightblue" d="M554.572,-240.981C577.139,-236.405 601.923,-231.38 624.424,-226.817"/>
<polygon fill="midnightblue" stroke="midnightblue" points="625.143,-230.243 634.248,-224.825 623.752,-223.382 625.143,-230.243"/>
</g>
<!-- Node11 -->
<g id="node11" class="node"><title>Node11</title>
<g id="a_node11"><a xlink:href="../../d8/db8/classnars_1_1language_1_1Term_a3aad4654016b8615fd4fa8a26668e1db.html#a3aad4654016b8615fd4fa8a26668e1db" target="_top" xlink:title="Reporting the name of the current Term. ">
<polygon fill="none" stroke="black" points="818,-226.5 818,-245.5 964,-245.5 964,-226.5 818,-226.5"/>
<text text-anchor="middle" x="891" y="-233.5" font-family="Helvetica,sans-Serif" font-size="10.00">nars.language.Term.getName</text>
</a>
</g>
</g>
<!-- Node10&#45;&gt;Node11 -->
<g id="edge10" class="edge"><title>Node10&#45;&gt;Node11</title>
<path fill="none" stroke="midnightblue" d="M748.83,-295.397C759.868,-292.764 771.432,-289.619 782,-286 810.478,-276.247 841.52,-261.401 862.985,-250.418"/>
<polygon fill="midnightblue" stroke="midnightblue" points="864.864,-253.386 872.13,-245.676 861.641,-247.172 864.864,-253.386"/>
</g>
<!-- Node14&#45;&gt;Node11 -->
<g id="edge16" class="edge"><title>Node14&#45;&gt;Node11</title>
<path fill="none" stroke="midnightblue" d="M526.771,-202.463C558.662,-196.07 598.208,-188.547 615,-187 688.909,-180.189 709.455,-171.312 782,-187 812.366,-193.566 844.456,-209.415 865.688,-221.323"/>
<polygon fill="midnightblue" stroke="midnightblue" points="864.221,-224.517 874.634,-226.469 867.711,-218.449 864.221,-224.517"/>
</g>
<!-- Node17 -->
<g id="node17" class="node"><title>Node17</title>
<g id="a_node17"><a xlink:href="../../d8/df4/classnars_1_1storage_1_1Memory_a33af7b3d806d32c85390563fec3c6d27.html#a33af7b3d806d32c85390563fec3c6d27" target="_top" xlink:title="Concept bag. ">
<polygon fill="none" stroke="black" points="615,-120.5 615,-139.5 782,-139.5 782,-120.5 615,-120.5"/>
<text text-anchor="middle" x="698.5" y="-127.5" font-family="Helvetica,sans-Serif" font-size="10.00">nars.storage.Memory.getConcepts</text>
</a>
</g>
</g>
<!-- Node16&#45;&gt;Node17 -->
<g id="edge19" class="edge"><title>Node16&#45;&gt;Node17</title>
<path fill="none" stroke="midnightblue" d="M547.674,-156.237C574.826,-151.482 606.037,-146.017 632.921,-141.309"/>
<polygon fill="midnightblue" stroke="midnightblue" points="633.748,-144.717 642.994,-139.545 632.541,-137.822 633.748,-144.717"/>
</g>
<!-- Node18 -->
<g id="node18" class="node"><title>Node18</title>
<g id="a_node18"><a xlink:href="../../d9/d37/classnars_1_1storage_1_1Bag_a011b37fc683db7fb7b41e33712a37d92.html#a011b37fc683db7fb7b41e33712a37d92" target="_top" xlink:title="Get an Item by key. ">
<polygon fill="none" stroke="black" points="645,-82.5 645,-101.5 752,-101.5 752,-82.5 645,-82.5"/>
<text text-anchor="middle" x="698.5" y="-89.5" font-family="Helvetica,sans-Serif" font-size="10.00">nars.storage.Bag.get</text>
</a>
</g>
</g>
<!-- Node16&#45;&gt;Node18 -->
<g id="edge20" class="edge"><title>Node16&#45;&gt;Node18</title>
<path fill="none" stroke="midnightblue" d="M547.557,-155.597C558.402,-152.3 569.258,-148.166 579,-143 597.912,-132.971 595.977,-120.819 615,-111 621.143,-107.829 627.813,-105.182 634.609,-102.974"/>
<polygon fill="midnightblue" stroke="midnightblue" points="635.999,-106.214 644.61,-100.042 634.03,-99.4965 635.999,-106.214"/>
</g>
<!-- Node19 -->
<g id="node19" class="node"><title>Node19</title>
<g id="a_node19"><a xlink:href="../../d4/d22/classnars_1_1entity_1_1Concept_afcd1217b7680b073fa51f0d0f159dcea.html#afcd1217b7680b073fa51f0d0f159dcea" target="_top" xlink:title="Return the associated term, called from Memory only. ">
<polygon fill="none" stroke="black" points="628,-44.5 628,-63.5 769,-63.5 769,-44.5 628,-44.5"/>
<text text-anchor="middle" x="698.5" y="-51.5" font-family="Helvetica,sans-Serif" font-size="10.00">nars.entity.Concept.getTerm</text>
</a>
</g>
</g>
<!-- Node16&#45;&gt;Node19 -->
<g id="edge21" class="edge"><title>Node16&#45;&gt;Node19</title>
<path fill="none" stroke="midnightblue" d="M547.678,-159.11C558.928,-155.425 569.889,-150.251 579,-143 606.374,-121.216 587.386,-94.479 615,-73 617.338,-71.1811 619.82,-69.5309 622.408,-68.034"/>
<polygon fill="midnightblue" stroke="midnightblue" points="624.145,-71.0796 631.561,-63.5132 621.045,-64.8033 624.145,-71.0796"/>
</g>
<!-- Node22&#45;&gt;Node9 -->
<g id="edge25" class="edge"><title>Node22&#45;&gt;Node9</title>
<path fill="none" stroke="midnightblue" d="M322.007,-183.607C329.679,-186.059 337.202,-189.137 344,-193 364.226,-204.495 359.933,-219.229 380,-231 383.724,-233.184 387.635,-235.179 391.665,-237.001"/>
<polygon fill="midnightblue" stroke="midnightblue" points="390.67,-240.377 401.249,-240.947 393.335,-233.904 390.67,-240.377"/>
</g>
<!-- Node22&#45;&gt;Node15 -->
<g id="edge26" class="edge"><title>Node22&#45;&gt;Node15</title>
<path fill="none" stroke="midnightblue" d="M326.794,-164.333C332.918,-161.87 338.773,-158.806 344,-155 369.448,-136.469 354.718,-112.757 380,-94 384.373,-90.7554 389.128,-87.9446 394.108,-85.51"/>
<polygon fill="midnightblue" stroke="midnightblue" points="395.507,-88.7184 403.282,-81.5216 392.716,-82.2988 395.507,-88.7184"/>
</g>
<!-- Node22&#45;&gt;Node16 -->
<g id="edge27" class="edge"><title>Node22&#45;&gt;Node16</title>
<path fill="none" stroke="midnightblue" d="M336.096,-171.901C357.19,-171.324 380.08,-170.696 401.213,-170.117"/>
<polygon fill="midnightblue" stroke="midnightblue" points="401.53,-173.61 411.43,-169.838 401.338,-166.613 401.53,-173.61"/>
</g>
<!-- Node22&#45;&gt;Node20 -->
<g id="edge28" class="edge"><title>Node22&#45;&gt;Node20</title>
<path fill="none" stroke="midnightblue" d="M305.758,-164.48C318.235,-161.673 331.687,-158.427 344,-155 360.248,-150.478 363.793,-147.667 380,-143 387.636,-140.801 395.641,-138.632 403.649,-136.549"/>
<polygon fill="midnightblue" stroke="midnightblue" points="404.573,-139.926 413.393,-134.056 402.838,-133.144 404.573,-139.926"/>
</g>
<!-- Node23 -->
<g id="node23" class="node"><title>Node23</title>
<g id="a_node23"><a xlink:href="../../d0/df3/classnars_1_1language_1_1Inheritance_ae30b0f7e4285d1b8c4f02f91580f622f.html#ae30b0f7e4285d1b8c4f02f91580f622f" target="_top" xlink:title="Constructor with partial values, called by make. ">
<polygon fill="none" stroke="black" points="414,-6 414,-36 545,-36 545,-6 414,-6"/>
<text text-anchor="start" x="422" y="-24" font-family="Helvetica,sans-Serif" font-size="10.00">nars.language.Inheritance.</text>
<text text-anchor="middle" x="479.5" y="-13" font-family="Helvetica,sans-Serif" font-size="10.00">Inheritance</text>
</a>
</g>
</g>
<!-- Node22&#45;&gt;Node23 -->
<g id="edge29" class="edge"><title>Node22&#45;&gt;Node23</title>
<path fill="none" stroke="midnightblue" d="M329.77,-164.493C334.938,-161.965 339.772,-158.844 344,-155 382.062,-120.396 342.248,-79.9415 380,-45 386.999,-38.5225 395.447,-33.7117 404.417,-30.1524"/>
<polygon fill="midnightblue" stroke="midnightblue" points="405.602,-33.4462 413.916,-26.8789 403.321,-26.8282 405.602,-33.4462"/>
</g>
<!-- Node24&#45;&gt;Node2 -->
<g id="edge31" class="edge"><title>Node24&#45;&gt;Node2</title>
<path fill="none" stroke="midnightblue" d="M327.293,-437.81C343.78,-439.466 361.75,-441.272 379.359,-443.041"/>
<polygon fill="midnightblue" stroke="midnightblue" points="379.372,-446.559 389.672,-444.077 380.072,-439.595 379.372,-446.559"/>
</g>
</g>
</svg>
