<?xml version="1.0" encoding="UTF-8" standalone="no"?>
<!DOCTYPE svg PUBLIC "-//W3C//DTD SVG 1.1//EN"
 "http://www.w3.org/Graphics/SVG/1.1/DTD/svg11.dtd">
<!-- Generated by graphviz version 2.38.0 (20140413.2041)
 -->
<!-- Title: nars.inference.StructuralRules.structuralCompound Pages: 1 -->
<svg width="1186pt" height="674pt"
 viewBox="0.00 0.00 1186.00 674.00" xmlns="http://www.w3.org/2000/svg" xmlns:xlink="http://www.w3.org/1999/xlink">
<g id="graph0" class="graph" transform="scale(1 1) rotate(0) translate(4 670)">
<title>nars.inference.StructuralRules.structuralCompound</title>
<!-- Node1 -->
<g id="node1" class="node"><title>Node1</title>
<polygon fill="#bfbfbf" stroke="black" points="0,-175 0,-205 133,-205 133,-175 0,-175"/>
<text text-anchor="start" x="8" y="-193" font-family="Helvetica,sans-Serif" font-size="10.00">nars.inference.Structural</text>
<text text-anchor="middle" x="66.5" y="-182" font-family="Helvetica,sans-Serif" font-size="10.00">Rules.structuralCompound</text>
</g>
<!-- Node2 -->
<g id="node2" class="node"><title>Node2</title>
<g id="a_node2"><a xlink:href="../../d1/d58/classnars_1_1inference_1_1TruthFunctions_af0cd0f846c8a7e500840b517ab006b94.html#af0cd0f846c8a7e500840b517ab006b94" target="_top" xlink:title="{&lt;S ==&gt; M&gt;, &lt;M ==&gt; P&gt;} |&#45; &lt;S ==&gt; P&gt; ">
<polygon fill="none" stroke="black" points="395,-521.5 395,-540.5 586,-540.5 586,-521.5 395,-521.5"/>
<text text-anchor="middle" x="490.5" y="-528.5" font-family="Helvetica,sans-Serif" font-size="10.00">nars.inference.TruthFunctions.deduction</text>
</a>
</g>
</g>
<!-- Node1&#45;&gt;Node2 -->
<g id="edge1" class="edge"><title>Node1&#45;&gt;Node2</title>
<path fill="none" stroke="midnightblue" d="M78.5319,-205.362C95.5076,-227.932 130.168,-269.972 169,-294 244.419,-340.667 286.906,-303.344 359,-355 366.903,-360.662 445.423,-469.543 476.721,-513.158"/>
<polygon fill="midnightblue" stroke="midnightblue" points="473.969,-515.326 482.64,-521.413 479.658,-511.247 473.969,-515.326"/>
</g>
<!-- Node6 -->
<g id="node6" class="node"><title>Node6</title>
<g id="a_node6"><a xlink:href="../../d7/d11/classnars_1_1inference_1_1BudgetFunctions_ac3df7e788b7a6e2b348d2ae7da7936c5.html#ac3df7e788b7a6e2b348d2ae7da7936c5" target="_top" xlink:title="Forward inference result and adjustment. ">
<polygon fill="none" stroke="black" points="169,-364.5 169,-383.5 359,-383.5 359,-364.5 169,-364.5"/>
<text text-anchor="middle" x="264" y="-371.5" font-family="Helvetica,sans-Serif" font-size="10.00">nars.inference.BudgetFunctions.forward</text>
</a>
</g>
</g>
<!-- Node1&#45;&gt;Node6 -->
<g id="edge5" class="edge"><title>Node1&#45;&gt;Node6</title>
<path fill="none" stroke="midnightblue" d="M73.3701,-205.166C86.0556,-235.959 118.98,-306.093 169,-344 178.706,-351.356 190.271,-356.94 201.914,-361.169"/>
<polygon fill="midnightblue" stroke="midnightblue" points="201.079,-364.579 211.672,-364.411 203.286,-357.936 201.079,-364.579"/>
</g>
<!-- Node10 -->
<g id="node10" class="node"><title>Node10</title>
<g id="a_node10"><a xlink:href="../../d8/df4/classnars_1_1storage_1_1Memory_a26eda4f00b333b706b4e3d069fdf1508.html#a26eda4f00b333b706b4e3d069fdf1508" target="_top" xlink:title="The selected Task. ">
<polygon fill="none" stroke="black" points="625.5,-219.5 625.5,-238.5 804.5,-238.5 804.5,-219.5 625.5,-219.5"/>
<text text-anchor="middle" x="715" y="-226.5" font-family="Helvetica,sans-Serif" font-size="10.00">nars.storage.Memory.getCurrentTask</text>
</a>
</g>
</g>
<!-- Node1&#45;&gt;Node10 -->
<g id="edge23" class="edge"><title>Node1&#45;&gt;Node10</title>
<path fill="none" stroke="midnightblue" d="M96.3383,-205.122C116.17,-214.64 143.442,-226.033 169,-231 328.487,-261.995 519.219,-250.511 627.528,-239.588"/>
<polygon fill="midnightblue" stroke="midnightblue" points="628.16,-243.041 637.748,-238.534 627.442,-236.078 628.16,-243.041"/>
</g>
<!-- Node21 -->
<g id="node21" class="node"><title>Node21</title>
<g id="a_node21"><a xlink:href="../../dc/ddc/classnars_1_1entity_1_1Task_ab140cb553a6cf40b07093d1df283567f.html#ab140cb553a6cf40b07093d1df283567f" target="_top" xlink:title="Get the sentence. ">
<polygon fill="none" stroke="black" points="191.5,-202.5 191.5,-221.5 336.5,-221.5 336.5,-202.5 191.5,-202.5"/>
<text text-anchor="middle" x="264" y="-209.5" font-family="Helvetica,sans-Serif" font-size="10.00">nars.entity.Task.getSentence</text>
</a>
</g>
</g>
<!-- Node1&#45;&gt;Node21 -->
<g id="edge24" class="edge"><title>Node1&#45;&gt;Node21</title>
<path fill="none" stroke="midnightblue" d="M133.143,-197.387C148.667,-199.134 165.407,-201.018 181.538,-202.833"/>
<polygon fill="midnightblue" stroke="midnightblue" points="181.159,-206.312 191.487,-203.953 181.942,-199.356 181.159,-206.312"/>
</g>
<!-- Node22 -->
<g id="node22" class="node"><title>Node22</title>
<g id="a_node22"><a xlink:href="../../d6/d25/classnars_1_1entity_1_1Sentence_a9f69b4fef64c81abad21404946cd41f9.html#a9f69b4fef64c81abad21404946cd41f9" target="_top" xlink:title="Get the truth value of the sentence. ">
<polygon fill="none" stroke="black" points="202.5,-153 202.5,-183 325.5,-183 325.5,-153 202.5,-153"/>
<text text-anchor="start" x="210.5" y="-171" font-family="Helvetica,sans-Serif" font-size="10.00">nars.entity.Sentence.get</text>
<text text-anchor="middle" x="264" y="-160" font-family="Helvetica,sans-Serif" font-size="10.00">Truth</text>
</a>
</g>
</g>
<!-- Node1&#45;&gt;Node22 -->
<g id="edge25" class="edge"><title>Node1&#45;&gt;Node22</title>
<path fill="none" stroke="midnightblue" d="M133.143,-182.613C152.224,-180.466 173.141,-178.112 192.507,-175.933"/>
<polygon fill="midnightblue" stroke="midnightblue" points="192.929,-179.407 202.475,-174.811 192.146,-172.451 192.929,-179.407"/>
</g>
<!-- Node23 -->
<g id="node23" class="node"><title>Node23</title>
<g id="a_node23"><a xlink:href="../../d8/db8/classnars_1_1language_1_1Term_a88297bdbbfb5f3e292783647b14f0c70.html#a88297bdbbfb5f3e292783647b14f0c70" target="_top" xlink:title="Check whether the current Term can name a Concept. ">
<polygon fill="none" stroke="black" points="187.5,-114.5 187.5,-133.5 340.5,-133.5 340.5,-114.5 187.5,-114.5"/>
<text text-anchor="middle" x="264" y="-121.5" font-family="Helvetica,sans-Serif" font-size="10.00">nars.language.Term.isConstant</text>
</a>
</g>
</g>
<!-- Node1&#45;&gt;Node23 -->
<g id="edge26" class="edge"><title>Node1&#45;&gt;Node23</title>
<path fill="none" stroke="midnightblue" d="M96.5839,-174.787C116.522,-164.869 143.82,-152.277 169,-144 178.391,-140.913 188.471,-138.184 198.417,-135.812"/>
<polygon fill="midnightblue" stroke="midnightblue" points="199.317,-139.196 208.288,-133.559 197.76,-132.372 199.317,-139.196"/>
</g>
<!-- Node24 -->
<g id="node24" class="node"><title>Node24</title>
<g id="a_node24"><a xlink:href="../../d6/d25/classnars_1_1entity_1_1Sentence_a7d95d60caaf4c895559182a7eb2ff71e.html#a7d95d60caaf4c895559182a7eb2ff71e" target="_top" xlink:title="Distinguish Judgment from Goal (&quot;instanceof Judgment&quot; doesn&#39;t work) ">
<polygon fill="none" stroke="black" points="184,-76.5 184,-95.5 344,-95.5 344,-76.5 184,-76.5"/>
<text text-anchor="middle" x="264" y="-83.5" font-family="Helvetica,sans-Serif" font-size="10.00">nars.entity.Sentence.isJudgment</text>
</a>
</g>
</g>
<!-- Node1&#45;&gt;Node24 -->
<g id="edge27" class="edge"><title>Node1&#45;&gt;Node24</title>
<path fill="none" stroke="midnightblue" d="M80.9769,-174.759C99.0207,-155.373 132.959,-122.334 169,-105 174.191,-102.504 179.695,-100.335 185.333,-98.4509"/>
<polygon fill="midnightblue" stroke="midnightblue" points="186.365,-101.796 194.917,-95.5417 184.331,-95.0974 186.365,-101.796"/>
</g>
<!-- Node25 -->
<g id="node25" class="node"><title>Node25</title>
<g id="a_node25"><a xlink:href="../../d6/d25/classnars_1_1entity_1_1Sentence_acb98b40c8990dbe5e15061f0759c60ee.html#acb98b40c8990dbe5e15061f0759c60ee" target="_top" xlink:title="Distinguish Question from Quest (&quot;instanceof Question&quot; doesn&#39;t work) ">
<polygon fill="none" stroke="black" points="186,-38.5 186,-57.5 342,-57.5 342,-38.5 186,-38.5"/>
<text text-anchor="middle" x="264" y="-45.5" font-family="Helvetica,sans-Serif" font-size="10.00">nars.entity.Sentence.isQuestion</text>
</a>
</g>
</g>
<!-- Node1&#45;&gt;Node25 -->
<g id="edge28" class="edge"><title>Node1&#45;&gt;Node25</title>
<path fill="none" stroke="midnightblue" d="M75.4964,-174.664C90.1863,-148.128 124.123,-93.9101 169,-67 172.614,-64.8327 176.433,-62.9082 180.38,-61.1997"/>
<polygon fill="midnightblue" stroke="midnightblue" points="181.704,-64.4407 189.788,-57.5926 179.198,-57.9047 181.704,-64.4407"/>
</g>
<!-- Node26 -->
<g id="node26" class="node"><title>Node26</title>
<g id="a_node26"><a xlink:href="../../dc/ddc/classnars_1_1entity_1_1Task_a23c0c966a1f5687123c089731f951e78.html#a23c0c966a1f5687123c089731f951e78" target="_top" xlink:title="Check if a Task is derived by a StructuralRule. ">
<polygon fill="none" stroke="black" points="194,-0.5 194,-19.5 334,-19.5 334,-0.5 194,-0.5"/>
<text text-anchor="middle" x="264" y="-7.5" font-family="Helvetica,sans-Serif" font-size="10.00">nars.entity.Task.isStructural</text>
</a>
</g>
</g>
<!-- Node1&#45;&gt;Node26 -->
<g id="edge29" class="edge"><title>Node1&#45;&gt;Node26</title>
<path fill="none" stroke="midnightblue" d="M72.4764,-174.673C83.8798,-142.145 115.147,-66.1498 169,-29 173.625,-25.8092 178.665,-23.1296 183.929,-20.8817"/>
<polygon fill="midnightblue" stroke="midnightblue" points="185.452,-24.0495 193.606,-17.2846 183.013,-17.4881 185.452,-24.0495"/>
</g>
<!-- Node27 -->
<g id="node27" class="node"><title>Node27</title>
<g id="a_node27"><a xlink:href="../../d8/df4/classnars_1_1storage_1_1Memory_aec1106814819aa1c8437001c2c4bf1a3.html#aec1106814819aa1c8437001c2c4bf1a3" target="_top" xlink:title="Shared final operations by all single&#45;premise rules, called in StructuralRules. ">
<polygon fill="none" stroke="black" points="422,-279 422,-309 559,-309 559,-279 422,-279"/>
<text text-anchor="start" x="430" y="-297" font-family="Helvetica,sans-Serif" font-size="10.00">nars.storage.Memory.single</text>
<text text-anchor="middle" x="490.5" y="-286" font-family="Helvetica,sans-Serif" font-size="10.00">PremiseTask</text>
</a>
</g>
</g>
<!-- Node1&#45;&gt;Node27 -->
<g id="edge30" class="edge"><title>Node1&#45;&gt;Node27</title>
<path fill="none" stroke="midnightblue" d="M82.4284,-205.002C100.944,-222.555 134.325,-250.883 169,-264 247.928,-293.857 345.251,-298.93 411.81,-298.068"/>
<polygon fill="midnightblue" stroke="midnightblue" points="411.874,-301.568 421.81,-297.891 411.75,-294.569 411.874,-301.568"/>
</g>
<!-- Node3 -->
<g id="node3" class="node"><title>Node3</title>
<g id="a_node3"><a xlink:href="../../d3/db8/classnars_1_1entity_1_1TruthValue_a9eac33f2495441c77911a8581a5bbe61.html#a9eac33f2495441c77911a8581a5bbe61" target="_top" xlink:title="Get the frequency value. ">
<polygon fill="none" stroke="black" points="650.5,-597 650.5,-627 779.5,-627 779.5,-597 650.5,-597"/>
<text text-anchor="start" x="658.5" y="-615" font-family="Helvetica,sans-Serif" font-size="10.00">nars.entity.TruthValue.get</text>
<text text-anchor="middle" x="715" y="-604" font-family="Helvetica,sans-Serif" font-size="10.00">Frequency</text>
</a>
</g>
</g>
<!-- Node2&#45;&gt;Node3 -->
<g id="edge2" class="edge"><title>Node2&#45;&gt;Node3</title>
<path fill="none" stroke="midnightblue" d="M511.014,-540.675C536.197,-552.89 581.585,-573.999 622,-588 628.039,-590.092 634.356,-592.1 640.728,-594.002"/>
<polygon fill="midnightblue" stroke="midnightblue" points="640.177,-597.486 650.756,-596.9 642.121,-590.762 640.177,-597.486"/>
</g>
<!-- Node4 -->
<g id="node4" class="node"><title>Node4</title>
<g id="a_node4"><a xlink:href="../../d3/db8/classnars_1_1entity_1_1TruthValue_a68ca7d92e9ea20d2a9a9f578ad7b681c.html#a68ca7d92e9ea20d2a9a9f578ad7b681c" target="_top" xlink:title="Get the confidence value. ">
<polygon fill="none" stroke="black" points="650.5,-548 650.5,-578 779.5,-578 779.5,-548 650.5,-548"/>
<text text-anchor="start" x="658.5" y="-566" font-family="Helvetica,sans-Serif" font-size="10.00">nars.entity.TruthValue.get</text>
<text text-anchor="middle" x="715" y="-555" font-family="Helvetica,sans-Serif" font-size="10.00">Confidence</text>
</a>
</g>
</g>
<!-- Node2&#45;&gt;Node4 -->
<g id="edge3" class="edge"><title>Node2&#45;&gt;Node4</title>
<path fill="none" stroke="midnightblue" d="M557.655,-540.514C583.667,-544.255 613.638,-548.566 640.336,-552.406"/>
<polygon fill="midnightblue" stroke="midnightblue" points="639.996,-555.893 650.393,-553.852 640.993,-548.964 639.996,-555.893"/>
</g>
<!-- Node5 -->
<g id="node5" class="node"><title>Node5</title>
<g id="a_node5"><a xlink:href="../../d4/de4/classnars_1_1inference_1_1UtilityFunctions_a35ac262407303cdf8d11f7892f9a3a03.html#a35ac262407303cdf8d11f7892f9a3a03" target="_top" xlink:title="A function where the output is conjunctively determined by the inputs. ">
<polygon fill="none" stroke="black" points="631,-509.5 631,-528.5 799,-528.5 799,-509.5 631,-509.5"/>
<text text-anchor="middle" x="715" y="-516.5" font-family="Helvetica,sans-Serif" font-size="10.00">nars.inference.UtilityFunctions.and</text>
</a>
</g>
</g>
<!-- Node2&#45;&gt;Node5 -->
<g id="edge4" class="edge"><title>Node2&#45;&gt;Node5</title>
<path fill="none" stroke="midnightblue" d="M586.183,-525.894C597.502,-525.283 609.056,-524.66 620.361,-524.05"/>
<polygon fill="midnightblue" stroke="midnightblue" points="620.862,-527.528 630.659,-523.495 620.485,-520.539 620.862,-527.528"/>
</g>
<!-- Node7 -->
<g id="node7" class="node"><title>Node7</title>
<g id="a_node7"><a xlink:href="../../d7/d11/classnars_1_1inference_1_1BudgetFunctions_a6c265160b143d73da5433f3d5464b59c.html#a6c265160b143d73da5433f3d5464b59c" target="_top" xlink:title="Common processing for all inference step. ">
<polygon fill="none" stroke="black" points="397,-359 397,-389 584,-389 584,-359 397,-359"/>
<text text-anchor="start" x="405" y="-377" font-family="Helvetica,sans-Serif" font-size="10.00">nars.inference.BudgetFunctions.budget</text>
<text text-anchor="middle" x="490.5" y="-366" font-family="Helvetica,sans-Serif" font-size="10.00">Inference</text>
</a>
</g>
</g>
<!-- Node6&#45;&gt;Node7 -->
<g id="edge6" class="edge"><title>Node6&#45;&gt;Node7</title>
<path fill="none" stroke="midnightblue" d="M359.232,-374C368.299,-374 377.528,-374 386.672,-374"/>
<polygon fill="midnightblue" stroke="midnightblue" points="386.947,-377.5 396.947,-374 386.947,-370.5 386.947,-377.5"/>
</g>
<!-- Node19 -->
<g id="node19" class="node"><title>Node19</title>
<g id="a_node19"><a xlink:href="../../d7/d11/classnars_1_1inference_1_1BudgetFunctions_a5797bd2ee147531f4200cf66c7392a91.html#a5797bd2ee147531f4200cf66c7392a91" target="_top" xlink:title="Determine the quality of a judgment by its truth value alone. ">
<polygon fill="none" stroke="black" points="402,-584 402,-614 579,-614 579,-584 402,-584"/>
<text text-anchor="start" x="410" y="-602" font-family="Helvetica,sans-Serif" font-size="10.00">nars.inference.BudgetFunctions.truth</text>
<text text-anchor="middle" x="490.5" y="-591" font-family="Helvetica,sans-Serif" font-size="10.00">ToQuality</text>
</a>
</g>
</g>
<!-- Node6&#45;&gt;Node19 -->
<g id="edge19" class="edge"><title>Node6&#45;&gt;Node19</title>
<path fill="none" stroke="midnightblue" d="M269.987,-383.58C285.252,-412.144 334.032,-497.968 395,-550 408.866,-561.834 426.077,-571.823 441.996,-579.632"/>
<polygon fill="midnightblue" stroke="midnightblue" points="440.648,-582.866 451.185,-583.976 443.64,-576.538 440.648,-582.866"/>
</g>
<!-- Node7&#45;&gt;Node5 -->
<g id="edge7" class="edge"><title>Node7&#45;&gt;Node5</title>
<path fill="none" stroke="midnightblue" d="M502.498,-389.236C522.831,-416.189 569.085,-472.063 622,-500 626.482,-502.366 631.232,-504.438 636.119,-506.252"/>
<polygon fill="midnightblue" stroke="midnightblue" points="635.056,-509.587 645.649,-509.432 637.271,-502.947 635.056,-509.587"/>
</g>
<!-- Node8 -->
<g id="node8" class="node"><title>Node8</title>
<g id="a_node8"><a xlink:href="../../d4/de4/classnars_1_1inference_1_1UtilityFunctions_a8abd4e228bb1ac62df2efdf4487ff34d.html#a8abd4e228bb1ac62df2efdf4487ff34d" target="_top" xlink:title="A function where the output is the arithmetic average the inputs. ">
<polygon fill="none" stroke="black" points="625,-307.5 625,-326.5 805,-326.5 805,-307.5 625,-307.5"/>
<text text-anchor="middle" x="715" y="-314.5" font-family="Helvetica,sans-Serif" font-size="10.00">nars.inference.UtilityFunctions.aveAri</text>
</a>
</g>
</g>
<!-- Node7&#45;&gt;Node8 -->
<g id="edge8" class="edge"><title>Node7&#45;&gt;Node8</title>
<path fill="none" stroke="midnightblue" d="M539.898,-358.909C564.38,-351.531 594.633,-342.799 622,-336 632.422,-333.411 643.569,-330.897 654.378,-328.59"/>
<polygon fill="midnightblue" stroke="midnightblue" points="655.112,-332.013 664.18,-326.534 653.674,-325.162 655.112,-332.013"/>
</g>
<!-- Node9 -->
<g id="node9" class="node"><title>Node9</title>
<g id="a_node9"><a xlink:href="../../d8/df4/classnars_1_1storage_1_1Memory_afb74806ef37665d392a86dce2e3c6546.html#afb74806ef37665d392a86dce2e3c6546" target="_top" xlink:title="The selected TermLink. ">
<polygon fill="none" stroke="black" points="636,-258 636,-288 794,-288 794,-258 636,-258"/>
<text text-anchor="start" x="644" y="-276" font-family="Helvetica,sans-Serif" font-size="10.00">nars.storage.Memory.getCurrent</text>
<text text-anchor="middle" x="715" y="-265" font-family="Helvetica,sans-Serif" font-size="10.00">BeliefLink</text>
</a>
</g>
</g>
<!-- Node7&#45;&gt;Node9 -->
<g id="edge9" class="edge"><title>Node7&#45;&gt;Node9</title>
<path fill="none" stroke="midnightblue" d="M517.576,-358.833C536.555,-347.791 562.874,-332.475 586,-319 602.005,-309.675 604.915,-305.157 622,-298 627.811,-295.566 633.927,-293.303 640.13,-291.214"/>
<polygon fill="midnightblue" stroke="midnightblue" points="641.464,-294.462 649.917,-288.075 639.326,-287.796 641.464,-294.462"/>
</g>
<!-- Node7&#45;&gt;Node10 -->
<g id="edge10" class="edge"><title>Node7&#45;&gt;Node10</title>
<path fill="none" stroke="midnightblue" d="M528.039,-358.828C547.117,-349.509 569.795,-336.072 586,-319 610.085,-293.627 594.254,-270.309 622,-249 624.961,-246.726 628.127,-244.698 631.436,-242.891"/>
<polygon fill="midnightblue" stroke="midnightblue" points="632.95,-246.047 640.492,-238.606 629.956,-239.72 632.95,-246.047"/>
</g>
<!-- Node11 -->
<g id="node11" class="node"><title>Node11</title>
<g id="a_node11"><a xlink:href="../../d8/df4/classnars_1_1storage_1_1Memory_ab9958cfc601557bc69b0cd9c89f58cf0.html#ab9958cfc601557bc69b0cd9c89f58cf0" target="_top" xlink:title="The selected TaskLink. ">
<polygon fill="none" stroke="black" points="636,-460 636,-490 794,-490 794,-460 636,-460"/>
<text text-anchor="start" x="644" y="-478" font-family="Helvetica,sans-Serif" font-size="10.00">nars.storage.Memory.getCurrent</text>
<text text-anchor="middle" x="715" y="-467" font-family="Helvetica,sans-Serif" font-size="10.00">TaskLink</text>
</a>
</g>
</g>
<!-- Node7&#45;&gt;Node11 -->
<g id="edge11" class="edge"><title>Node7&#45;&gt;Node11</title>
<path fill="none" stroke="midnightblue" d="M513.206,-389.041C538.382,-405.905 581.61,-433.097 622,-450 627.812,-452.432 633.929,-454.694 640.132,-456.782"/>
<polygon fill="midnightblue" stroke="midnightblue" points="639.329,-460.199 649.92,-459.919 641.466,-453.533 639.329,-460.199"/>
</g>
<!-- Node12 -->
<g id="node12" class="node"><title>Node12</title>
<g id="a_node12"><a xlink:href="../../d1/dd1/classnars_1_1entity_1_1Item_adbb21c1891722e30c1d6cfaf5fee18ee.html#adbb21c1891722e30c1d6cfaf5fee18ee" target="_top" xlink:title="Get durability value. ">
<polygon fill="none" stroke="black" points="643.5,-421.5 643.5,-440.5 786.5,-440.5 786.5,-421.5 643.5,-421.5"/>
<text text-anchor="middle" x="715" y="-428.5" font-family="Helvetica,sans-Serif" font-size="10.00">nars.entity.Item.getDurability</text>
</a>
</g>
</g>
<!-- Node7&#45;&gt;Node12 -->
<g id="edge12" class="edge"><title>Node7&#45;&gt;Node12</title>
<path fill="none" stroke="midnightblue" d="M539.898,-389.091C564.38,-396.469 594.633,-405.201 622,-412 632.422,-414.589 643.569,-417.103 654.378,-419.41"/>
<polygon fill="midnightblue" stroke="midnightblue" points="653.674,-422.838 664.18,-421.466 655.112,-415.987 653.674,-422.838"/>
</g>
<!-- Node14 -->
<g id="node14" class="node"><title>Node14</title>
<g id="a_node14"><a xlink:href="../../d1/dd1/classnars_1_1entity_1_1Item_a97b35888ceaad90e7a428701051c51d7.html#a97b35888ceaad90e7a428701051c51d7" target="_top" xlink:title="Get priority value. ">
<polygon fill="none" stroke="black" points="649,-383.5 649,-402.5 781,-402.5 781,-383.5 649,-383.5"/>
<text text-anchor="middle" x="715" y="-390.5" font-family="Helvetica,sans-Serif" font-size="10.00">nars.entity.Item.getPriority</text>
</a>
</g>
</g>
<!-- Node7&#45;&gt;Node14 -->
<g id="edge14" class="edge"><title>Node7&#45;&gt;Node14</title>
<path fill="none" stroke="midnightblue" d="M584.249,-381.92C602.39,-383.469 621.207,-385.076 638.696,-386.57"/>
<polygon fill="midnightblue" stroke="midnightblue" points="638.563,-390.071 648.825,-387.434 639.159,-383.096 638.563,-390.071"/>
</g>
<!-- Node16 -->
<g id="node16" class="node"><title>Node16</title>
<g id="a_node16"><a xlink:href="../../d1/dd1/classnars_1_1entity_1_1Item_a9324e448bf1bc9f45c3b8e189450a1bf.html#a9324e448bf1bc9f45c3b8e189450a1bf" target="_top" xlink:title="Increase priority value. ">
<polygon fill="none" stroke="black" points="649.5,-345.5 649.5,-364.5 780.5,-364.5 780.5,-345.5 649.5,-345.5"/>
<text text-anchor="middle" x="715" y="-352.5" font-family="Helvetica,sans-Serif" font-size="10.00">nars.entity.Item.incPriority</text>
</a>
</g>
</g>
<!-- Node7&#45;&gt;Node16 -->
<g id="edge16" class="edge"><title>Node7&#45;&gt;Node16</title>
<path fill="none" stroke="midnightblue" d="M584.249,-366.08C602.59,-364.514 621.621,-362.889 639.272,-361.381"/>
<polygon fill="midnightblue" stroke="midnightblue" points="639.824,-364.847 649.49,-360.509 639.228,-357.872 639.824,-364.847"/>
</g>
<!-- Node13 -->
<g id="node13" class="node"><title>Node13</title>
<g id="a_node13"><a xlink:href="../../db/d8e/classnars_1_1entity_1_1BudgetValue_ab0e0dc2172d3fab6390670acb68da1a6.html#ab0e0dc2172d3fab6390670acb68da1a6" target="_top" xlink:title="Get durability value. ">
<polygon fill="none" stroke="black" points="844,-427 844,-457 981,-457 981,-427 844,-427"/>
<text text-anchor="start" x="852" y="-445" font-family="Helvetica,sans-Serif" font-size="10.00">nars.entity.BudgetValue.get</text>
<text text-anchor="middle" x="912.5" y="-434" font-family="Helvetica,sans-Serif" font-size="10.00">Durability</text>
</a>
</g>
</g>
<!-- Node12&#45;&gt;Node13 -->
<g id="edge13" class="edge"><title>Node12&#45;&gt;Node13</title>
<path fill="none" stroke="midnightblue" d="M786.58,-434.971C801.922,-435.834 818.234,-436.752 833.833,-437.63"/>
<polygon fill="midnightblue" stroke="midnightblue" points="833.782,-441.133 843.963,-438.2 834.176,-434.144 833.782,-441.133"/>
</g>
<!-- Node15 -->
<g id="node15" class="node"><title>Node15</title>
<g id="a_node15"><a xlink:href="../../db/d8e/classnars_1_1entity_1_1BudgetValue_a1e7b6826531f03f792f3516ce0e97ac3.html#a1e7b6826531f03f792f3516ce0e97ac3" target="_top" xlink:title="Get priority value. ">
<polygon fill="none" stroke="black" points="844,-378 844,-408 981,-408 981,-378 844,-378"/>
<text text-anchor="start" x="852" y="-396" font-family="Helvetica,sans-Serif" font-size="10.00">nars.entity.BudgetValue.get</text>
<text text-anchor="middle" x="912.5" y="-385" font-family="Helvetica,sans-Serif" font-size="10.00">Priority</text>
</a>
</g>
</g>
<!-- Node14&#45;&gt;Node15 -->
<g id="edge15" class="edge"><title>Node14&#45;&gt;Node15</title>
<path fill="none" stroke="midnightblue" d="M781.099,-393C797.905,-393 816.166,-393 833.555,-393"/>
<polygon fill="midnightblue" stroke="midnightblue" points="833.674,-396.5 843.674,-393 833.674,-389.5 833.674,-396.5"/>
</g>
<!-- Node17 -->
<g id="node17" class="node"><title>Node17</title>
<g id="a_node17"><a xlink:href="../../db/d8e/classnars_1_1entity_1_1BudgetValue_a088e64163126211239b6afd25a9cdca3.html#a088e64163126211239b6afd25a9cdca3" target="_top" xlink:title="Increase priority value by a percentage of the remaining range. ">
<polygon fill="none" stroke="black" points="844,-329 844,-359 981,-359 981,-329 844,-329"/>
<text text-anchor="start" x="852" y="-347" font-family="Helvetica,sans-Serif" font-size="10.00">nars.entity.BudgetValue.inc</text>
<text text-anchor="middle" x="912.5" y="-336" font-family="Helvetica,sans-Serif" font-size="10.00">Priority</text>
</a>
</g>
</g>
<!-- Node16&#45;&gt;Node17 -->
<g id="edge17" class="edge"><title>Node16&#45;&gt;Node17</title>
<path fill="none" stroke="midnightblue" d="M780.556,-351.368C797.57,-350.41 816.107,-349.367 833.737,-348.375"/>
<polygon fill="midnightblue" stroke="midnightblue" points="834.207,-351.855 843.994,-347.798 833.814,-344.866 834.207,-351.855"/>
</g>
<!-- Node18 -->
<g id="node18" class="node"><title>Node18</title>
<g id="a_node18"><a xlink:href="../../d4/de4/classnars_1_1inference_1_1UtilityFunctions_a24093a77b49f21322e62c9bed7ff5ee2.html#a24093a77b49f21322e62c9bed7ff5ee2" target="_top" xlink:title="A function where the output is disjunctively determined by the inputs. ">
<polygon fill="none" stroke="black" points="1017,-334.5 1017,-353.5 1178,-353.5 1178,-334.5 1017,-334.5"/>
<text text-anchor="middle" x="1097.5" y="-341.5" font-family="Helvetica,sans-Serif" font-size="10.00">nars.inference.UtilityFunctions.or</text>
</a>
</g>
</g>
<!-- Node17&#45;&gt;Node18 -->
<g id="edge18" class="edge"><title>Node17&#45;&gt;Node18</title>
<path fill="none" stroke="midnightblue" d="M981.123,-344C989.465,-344 998.092,-344 1006.7,-344"/>
<polygon fill="midnightblue" stroke="midnightblue" points="1006.78,-347.5 1016.78,-344 1006.78,-340.5 1006.78,-347.5"/>
</g>
<!-- Node19&#45;&gt;Node3 -->
<g id="edge22" class="edge"><title>Node19&#45;&gt;Node3</title>
<path fill="none" stroke="midnightblue" d="M579.118,-604.119C599.312,-605.299 620.595,-606.543 640.136,-607.684"/>
<polygon fill="midnightblue" stroke="midnightblue" points="639.994,-611.182 650.182,-608.271 640.403,-604.194 639.994,-611.182"/>
</g>
<!-- Node19&#45;&gt;Node4 -->
<g id="edge21" class="edge"><title>Node19&#45;&gt;Node4</title>
<path fill="none" stroke="midnightblue" d="M579.118,-584.824C599.312,-581.556 620.595,-578.113 640.136,-574.951"/>
<polygon fill="midnightblue" stroke="midnightblue" points="640.869,-578.378 650.182,-573.326 639.751,-571.468 640.869,-578.378"/>
</g>
<!-- Node20 -->
<g id="node20" class="node"><title>Node20</title>
<g id="a_node20"><a xlink:href="../../d4/de4/classnars_1_1inference_1_1UtilityFunctions_a7649e37bb61cac9b8a2601fdff3a5f7a.html#a7649e37bb61cac9b8a2601fdff3a5f7a" target="_top" xlink:title="A function where the output is the geometric average the inputs. ">
<polygon fill="none" stroke="black" points="622,-646.5 622,-665.5 808,-665.5 808,-646.5 622,-646.5"/>
<text text-anchor="middle" x="715" y="-653.5" font-family="Helvetica,sans-Serif" font-size="10.00">nars.inference.UtilityFunctions.aveGeo</text>
</a>
</g>
</g>
<!-- Node19&#45;&gt;Node20 -->
<g id="edge20" class="edge"><title>Node19&#45;&gt;Node20</title>
<path fill="none" stroke="midnightblue" d="M539.898,-614.091C564.38,-621.469 594.633,-630.201 622,-637 632.422,-639.589 643.569,-642.103 654.378,-644.41"/>
<polygon fill="midnightblue" stroke="midnightblue" points="653.674,-647.838 664.18,-646.466 655.112,-640.987 653.674,-647.838"/>
</g>
<!-- Node27&#45;&gt;Node10 -->
<g id="edge31" class="edge"><title>Node27&#45;&gt;Node10</title>
<path fill="none" stroke="midnightblue" d="M541.801,-278.928C556.165,-274.383 571.776,-269.21 586,-264 602.276,-258.039 605.464,-254.196 622,-249 631.59,-245.987 641.882,-243.267 651.985,-240.874"/>
<polygon fill="midnightblue" stroke="midnightblue" points="653.021,-244.227 661.992,-238.591 651.464,-237.403 653.021,-244.227"/>
</g>
</g>
</svg>
