<?xml version="1.0" encoding="UTF-8" standalone="no"?>
<!DOCTYPE svg PUBLIC "-//W3C//DTD SVG 1.1//EN"
 "http://www.w3.org/Graphics/SVG/1.1/DTD/svg11.dtd">
<!-- Generated by graphviz version 2.38.0 (20140413.2041)
 -->
<!-- Title: nars.inference.StructuralRules.structuralDecompose1 Pages: 1 -->
<!--zoomable 510 -->
<svg id="main" version="1.1" xmlns="http://www.w3.org/2000/svg" xmlns:xlink="http://www.w3.org/1999/xlink" xml:space="preserve" onload="init(evt)">
<style type="text/css"><![CDATA[
.edge:hover path { stroke: red; }
.edge:hover polygon { stroke: red; fill: red; }
]]></style>
<script type="text/javascript"><![CDATA[
var edges = document.getElementsByTagName('g');
if (edges && edges.length) {
  for (var i=0;i<edges.length;i++) {
    if (edges[i].id.substr(0,4)=='edge') {
      edges[i].setAttribute('class','edge');
    }
  }
}
]]></script>
        <defs>
                <circle id="rim" cx="0" cy="0" r="7"/>
                <circle id="rim2" cx="0" cy="0" r="3.5"/>
                <g id="zoomPlus">
                        <use xlink:href="#rim" fill="#404040">
                                <set attributeName="fill" to="#808080" begin="zoomplus.mouseover" end="zoomplus.mouseout"/>
                        </use>
                        <path d="M-4,0h8M0,-4v8" fill="none" stroke="white" stroke-width="1.5" pointer-events="none"/>
                </g>
                <g id="zoomMin">
                        <use xlink:href="#rim" fill="#404040">
                                <set attributeName="fill" to="#808080" begin="zoomminus.mouseover" end="zoomminus.mouseout"/>
                        </use>
                        <path d="M-4,0h8" fill="none" stroke="white" stroke-width="1.5" pointer-events="none"/>
                </g>
                <g id="dirArrow">
                        <path fill="none" stroke="white" stroke-width="1.5" d="M0,-3.0v7 M-2.5,-0.5L0,-3.0L2.5,-0.5"/>
                </g>
               <g id="resetDef">
                       <use xlink:href="#rim2" fill="#404040">
                               <set attributeName="fill" to="#808080" begin="reset.mouseover" end="reset.mouseout"/>
                       </use>
               </g>
        </defs>

<script type="text/javascript">
var viewWidth = 817;
var viewHeight = 510;
var sectionId = 'dynsection-0';
</script>
<script xlink:href="../../svgpan.js"/>
<svg id="graph" class="graph">
<g id="viewport">
<title>nars.inference.StructuralRules.structuralDecompose1</title>
<!-- Node1 -->
<g id="node1" class="node"><title>Node1</title>
<polygon fill="#bfbfbf" stroke="black" points="0,-220 0,-250 143,-250 143,-220 0,-220"/>
<text text-anchor="start" x="8" y="-238" font-family="Helvetica,sans-Serif" font-size="10.00">nars.inference.Structural</text>
<text text-anchor="middle" x="71.5" y="-227" font-family="Helvetica,sans-Serif" font-size="10.00">Rules.structuralDecompose1</text>
</g>
<!-- Node2 -->
<g id="node2" class="node"><title>Node2</title>
<g id="a_node2"><a xlink:href="../../d0/dee/classnars_1_1language_1_1CompoundTerm_acedae916705e9fa1669391a7d728b840.html#acedae916705e9fa1669391a7d728b840" target="_top" xlink:title="get a component by index ">
<polygon fill="none" stroke="black" points="179,-464.5 179,-483.5 390,-483.5 390,-464.5 179,-464.5"/>
<text text-anchor="middle" x="284.5" y="-471.5" font-family="Helvetica,sans-Serif" font-size="10.00">nars.language.CompoundTerm.componentAt</text>
</a>
</g>
</g>
<!-- Node1&#45;&gt;Node2 -->
<g id="edge1" class="edge"><title>Node1&#45;&gt;Node2</title>
<path fill="none" stroke="midnightblue" d="M75.0255,-250.253C82.5967,-290.811 109.068,-401.848 179,-455 181.34,-456.778 183.793,-458.409 186.337,-459.903"/>
<polygon fill="midnightblue" stroke="midnightblue" points="184.803,-463.049 195.301,-464.475 187.983,-456.814 184.803,-463.049"/>
</g>
<!-- Node3 -->
<g id="node3" class="node"><title>Node3</title>
<g id="a_node3"><a xlink:href="../../d1/d58/classnars_1_1inference_1_1TruthFunctions_af0cd0f846c8a7e500840b517ab006b94.html#af0cd0f846c8a7e500840b517ab006b94" target="_top" xlink:title="{&lt;S ==&gt; M&gt;, &lt;M ==&gt; P&gt;} |&#45; &lt;S ==&gt; P&gt; ">
<polygon fill="none" stroke="black" points="189,-385.5 189,-404.5 380,-404.5 380,-385.5 189,-385.5"/>
<text text-anchor="middle" x="284.5" y="-392.5" font-family="Helvetica,sans-Serif" font-size="10.00">nars.inference.TruthFunctions.deduction</text>
</a>
</g>
</g>
<!-- Node1&#45;&gt;Node3 -->
<g id="edge2" class="edge"><title>Node1&#45;&gt;Node3</title>
<path fill="none" stroke="midnightblue" d="M79.6869,-250.318C94.1192,-279.281 129.529,-341.949 179,-373 184.697,-376.576 190.879,-379.58 197.292,-382.103"/>
<polygon fill="midnightblue" stroke="midnightblue" points="196.232,-385.44 206.826,-385.465 198.56,-378.839 196.232,-385.44"/>
</g>
<!-- Node7 -->
<g id="node7" class="node"><title>Node7</title>
<g id="a_node7"><a xlink:href="../../d8/db8/classnars_1_1language_1_1Term_ad85f45a7858737445d5158801774ff5f.html#ad85f45a7858737445d5158801774ff5f" target="_top" xlink:title="Equal terms have identical name, though not necessarily the same reference. ">
<polygon fill="none" stroke="black" points="217.5,-344.5 217.5,-363.5 351.5,-363.5 351.5,-344.5 217.5,-344.5"/>
<text text-anchor="middle" x="284.5" y="-351.5" font-family="Helvetica,sans-Serif" font-size="10.00">nars.language.Term.equals</text>
</a>
</g>
</g>
<!-- Node1&#45;&gt;Node7 -->
<g id="edge6" class="edge"><title>Node1&#45;&gt;Node7</title>
<path fill="none" stroke="midnightblue" d="M94.0206,-250.115C115.18,-264.693 148.631,-286.989 179,-304 203.042,-317.467 231.284,-330.841 252.342,-340.364"/>
<polygon fill="midnightblue" stroke="midnightblue" points="250.914,-343.56 261.471,-344.455 253.777,-337.172 250.914,-343.56"/>
</g>
<!-- Node9 -->
<g id="node9" class="node"><title>Node9</title>
<g id="a_node9"><a xlink:href="../../d8/df4/classnars_1_1storage_1_1Memory_a26eda4f00b333b706b4e3d069fdf1508.html#a26eda4f00b333b706b4e3d069fdf1508" target="_top" xlink:title="The selected Task. ">
<polygon fill="none" stroke="black" points="630,-225.5 630,-244.5 809,-244.5 809,-225.5 630,-225.5"/>
<text text-anchor="middle" x="719.5" y="-232.5" font-family="Helvetica,sans-Serif" font-size="10.00">nars.storage.Memory.getCurrentTask</text>
</a>
</g>
</g>
<!-- Node1&#45;&gt;Node9 -->
<g id="edge8" class="edge"><title>Node1&#45;&gt;Node9</title>
<path fill="none" stroke="midnightblue" d="M143.244,-232.353C207.67,-229.566 305.376,-224.396 390,-216 406.075,-214.405 409.885,-212.114 426,-211 500.489,-205.852 519.672,-203.901 594,-211 619.101,-213.397 646.666,-218.454 669.464,-223.311"/>
<polygon fill="midnightblue" stroke="midnightblue" points="668.732,-226.734 679.248,-225.445 670.224,-219.894 668.732,-226.734"/>
</g>
<!-- Node10 -->
<g id="node10" class="node"><title>Node10</title>
<g id="a_node10"><a xlink:href="../../d1/d5e/classnars_1_1language_1_1Statement_ababe6155e2f78e769f76493317e118e0.html#ababe6155e2f78e769f76493317e118e0" target="_top" xlink:title="Return the second component of the statement. ">
<polygon fill="none" stroke="black" points="213.5,-176 213.5,-206 355.5,-206 355.5,-176 213.5,-176"/>
<text text-anchor="start" x="221.5" y="-194" font-family="Helvetica,sans-Serif" font-size="10.00">nars.language.Statement.get</text>
<text text-anchor="middle" x="284.5" y="-183" font-family="Helvetica,sans-Serif" font-size="10.00">Predicate</text>
</a>
</g>
</g>
<!-- Node1&#45;&gt;Node10 -->
<g id="edge9" class="edge"><title>Node1&#45;&gt;Node10</title>
<path fill="none" stroke="midnightblue" d="M143.053,-220.287C162.424,-216.248 183.566,-211.839 203.429,-207.697"/>
<polygon fill="midnightblue" stroke="midnightblue" points="204.297,-211.092 213.372,-205.624 202.868,-204.239 204.297,-211.092"/>
</g>
<!-- Node11 -->
<g id="node11" class="node"><title>Node11</title>
<g id="a_node11"><a xlink:href="../../dc/ddc/classnars_1_1entity_1_1Task_ab140cb553a6cf40b07093d1df283567f.html#ab140cb553a6cf40b07093d1df283567f" target="_top" xlink:title="Get the sentence. ">
<polygon fill="none" stroke="black" points="212,-137.5 212,-156.5 357,-156.5 357,-137.5 212,-137.5"/>
<text text-anchor="middle" x="284.5" y="-144.5" font-family="Helvetica,sans-Serif" font-size="10.00">nars.entity.Task.getSentence</text>
</a>
</g>
</g>
<!-- Node1&#45;&gt;Node11 -->
<g id="edge10" class="edge"><title>Node1&#45;&gt;Node11</title>
<path fill="none" stroke="midnightblue" d="M91.2994,-219.831C111.684,-204.172 145.776,-180.219 179,-167 186.833,-163.883 195.195,-161.242 203.648,-159.006"/>
<polygon fill="midnightblue" stroke="midnightblue" points="204.711,-162.349 213.586,-156.563 203.04,-155.552 204.711,-162.349"/>
</g>
<!-- Node12 -->
<g id="node12" class="node"><title>Node12</title>
<g id="a_node12"><a xlink:href="../../d1/d5e/classnars_1_1language_1_1Statement_ace4f80751d303c613e467163913bebf5.html#ace4f80751d303c613e467163913bebf5" target="_top" xlink:title="Return the first component of the statement. ">
<polygon fill="none" stroke="black" points="213.5,-88 213.5,-118 355.5,-118 355.5,-88 213.5,-88"/>
<text text-anchor="start" x="221.5" y="-106" font-family="Helvetica,sans-Serif" font-size="10.00">nars.language.Statement.get</text>
<text text-anchor="middle" x="284.5" y="-95" font-family="Helvetica,sans-Serif" font-size="10.00">Subject</text>
</a>
</g>
</g>
<!-- Node1&#45;&gt;Node12 -->
<g id="edge11" class="edge"><title>Node1&#45;&gt;Node12</title>
<path fill="none" stroke="midnightblue" d="M83.0536,-219.969C100.324,-196.549 136.941,-151.597 179,-128 186.683,-123.689 195.088,-120.118 203.687,-117.161"/>
<polygon fill="midnightblue" stroke="midnightblue" points="204.969,-120.426 213.449,-114.076 202.859,-113.752 204.969,-120.426"/>
</g>
<!-- Node13 -->
<g id="node13" class="node"><title>Node13</title>
<g id="a_node13"><a xlink:href="../../d6/d25/classnars_1_1entity_1_1Sentence_a9f69b4fef64c81abad21404946cd41f9.html#a9f69b4fef64c81abad21404946cd41f9" target="_top" xlink:title="Get the truth value of the sentence. ">
<polygon fill="none" stroke="black" points="223,-39 223,-69 346,-69 346,-39 223,-39"/>
<text text-anchor="start" x="231" y="-57" font-family="Helvetica,sans-Serif" font-size="10.00">nars.entity.Sentence.get</text>
<text text-anchor="middle" x="284.5" y="-46" font-family="Helvetica,sans-Serif" font-size="10.00">Truth</text>
</a>
</g>
</g>
<!-- Node1&#45;&gt;Node13 -->
<g id="edge12" class="edge"><title>Node1&#45;&gt;Node13</title>
<path fill="none" stroke="midnightblue" d="M78.3312,-219.666C91.2533,-187.865 125.458,-114.65 179,-78 189.181,-71.0309 201.096,-66.0616 213.163,-62.5239"/>
<polygon fill="midnightblue" stroke="midnightblue" points="214.06,-65.9072 222.844,-59.9828 212.283,-59.1366 214.06,-65.9072"/>
</g>
<!-- Node14 -->
<g id="node14" class="node"><title>Node14</title>
<g id="a_node14"><a xlink:href="../../d6/d25/classnars_1_1entity_1_1Sentence_a7d95d60caaf4c895559182a7eb2ff71e.html#a7d95d60caaf4c895559182a7eb2ff71e" target="_top" xlink:title="Distinguish Judgment from Goal (&quot;instanceof Judgment&quot; doesn&#39;t work) ">
<polygon fill="none" stroke="black" points="204.5,-0.5 204.5,-19.5 364.5,-19.5 364.5,-0.5 204.5,-0.5"/>
<text text-anchor="middle" x="284.5" y="-7.5" font-family="Helvetica,sans-Serif" font-size="10.00">nars.entity.Sentence.isJudgment</text>
</a>
</g>
</g>
<!-- Node1&#45;&gt;Node14 -->
<g id="edge13" class="edge"><title>Node1&#45;&gt;Node14</title>
<path fill="none" stroke="midnightblue" d="M75.532,-219.857C84.1282,-181.151 112.478,-78.1935 179,-29 183.844,-25.4178 189.154,-22.4405 194.731,-19.9721"/>
<polygon fill="midnightblue" stroke="midnightblue" points="196.257,-23.1354 204.336,-16.2812 193.746,-16.6012 196.257,-23.1354"/>
</g>
<!-- Node15 -->
<g id="node15" class="node"><title>Node15</title>
<g id="a_node15"><a xlink:href="../../d1/d58/classnars_1_1inference_1_1TruthFunctions_ace28b3a18d275b33d2a094189842b2ed.html#ace28b3a18d275b33d2a094189842b2ed" target="_top" xlink:title="{A} |&#45; (–A) ">
<polygon fill="none" stroke="black" points="191.5,-426.5 191.5,-445.5 377.5,-445.5 377.5,-426.5 191.5,-426.5"/>
<text text-anchor="middle" x="284.5" y="-433.5" font-family="Helvetica,sans-Serif" font-size="10.00">nars.inference.TruthFunctions.negation</text>
</a>
</g>
</g>
<!-- Node1&#45;&gt;Node15 -->
<g id="edge14" class="edge"><title>Node1&#45;&gt;Node15</title>
<path fill="none" stroke="midnightblue" d="M76.8667,-250.121C87.7832,-285.056 119.731,-371.617 179,-414 183.619,-417.303 188.628,-420.13 193.867,-422.549"/>
<polygon fill="midnightblue" stroke="midnightblue" points="192.933,-425.947 203.514,-426.474 195.571,-419.463 192.933,-425.947"/>
</g>
<!-- Node16 -->
<g id="node16" class="node"><title>Node16</title>
<g id="a_node16"><a xlink:href="../../db/d49/classnars_1_1inference_1_1StructuralRules_a85867ea2f5c08252344131858cf95bfd.html#a85867ea2f5c08252344131858cf95bfd" target="_top" xlink:title="Common final operations of the above two methods. ">
<polygon fill="none" stroke="black" points="219,-264 219,-294 350,-294 350,-264 219,-264"/>
<text text-anchor="start" x="227" y="-282" font-family="Helvetica,sans-Serif" font-size="10.00">nars.inference.Structural</text>
<text text-anchor="middle" x="284.5" y="-271" font-family="Helvetica,sans-Serif" font-size="10.00">Rules.structuralStatement</text>
</a>
</g>
</g>
<!-- Node1&#45;&gt;Node16 -->
<g id="edge17" class="edge"><title>Node1&#45;&gt;Node16</title>
<path fill="none" stroke="midnightblue" d="M143.053,-249.713C164.152,-254.112 187.352,-258.95 208.713,-263.405"/>
<polygon fill="midnightblue" stroke="midnightblue" points="208.203,-266.874 218.707,-265.489 209.633,-260.021 208.203,-266.874"/>
</g>
<!-- Node4 -->
<g id="node4" class="node"><title>Node4</title>
<g id="a_node4"><a xlink:href="../../d3/db8/classnars_1_1entity_1_1TruthValue_a9eac33f2495441c77911a8581a5bbe61.html#a9eac33f2495441c77911a8581a5bbe61" target="_top" xlink:title="Get the frequency value. ">
<polygon fill="none" stroke="black" points="445.5,-471 445.5,-501 574.5,-501 574.5,-471 445.5,-471"/>
<text text-anchor="start" x="453.5" y="-489" font-family="Helvetica,sans-Serif" font-size="10.00">nars.entity.TruthValue.get</text>
<text text-anchor="middle" x="510" y="-478" font-family="Helvetica,sans-Serif" font-size="10.00">Frequency</text>
</a>
</g>
</g>
<!-- Node3&#45;&gt;Node4 -->
<g id="edge3" class="edge"><title>Node3&#45;&gt;Node4</title>
<path fill="none" stroke="midnightblue" d="M361.542,-404.504C371.54,-407.591 381.316,-411.655 390,-417 411.811,-430.426 404.7,-447.776 426,-462 429.115,-464.08 432.411,-465.982 435.825,-467.722"/>
<polygon fill="midnightblue" stroke="midnightblue" points="434.539,-470.983 445.089,-471.958 437.45,-464.617 434.539,-470.983"/>
</g>
<!-- Node5 -->
<g id="node5" class="node"><title>Node5</title>
<g id="a_node5"><a xlink:href="../../d3/db8/classnars_1_1entity_1_1TruthValue_a68ca7d92e9ea20d2a9a9f578ad7b681c.html#a68ca7d92e9ea20d2a9a9f578ad7b681c" target="_top" xlink:title="Get the confidence value. ">
<polygon fill="none" stroke="black" points="445.5,-422 445.5,-452 574.5,-452 574.5,-422 445.5,-422"/>
<text text-anchor="start" x="453.5" y="-440" font-family="Helvetica,sans-Serif" font-size="10.00">nars.entity.TruthValue.get</text>
<text text-anchor="middle" x="510" y="-429" font-family="Helvetica,sans-Serif" font-size="10.00">Confidence</text>
</a>
</g>
</g>
<!-- Node3&#45;&gt;Node5 -->
<g id="edge4" class="edge"><title>Node3&#45;&gt;Node5</title>
<path fill="none" stroke="midnightblue" d="M336.216,-404.53C365.512,-410.036 402.881,-417.058 435.368,-423.163"/>
<polygon fill="midnightblue" stroke="midnightblue" points="434.804,-426.618 445.279,-425.026 436.097,-419.739 434.804,-426.618"/>
</g>
<!-- Node6 -->
<g id="node6" class="node"><title>Node6</title>
<g id="a_node6"><a xlink:href="../../d4/de4/classnars_1_1inference_1_1UtilityFunctions_a35ac262407303cdf8d11f7892f9a3a03.html#a35ac262407303cdf8d11f7892f9a3a03" target="_top" xlink:title="A function where the output is conjunctively determined by the inputs. ">
<polygon fill="none" stroke="black" points="426,-383.5 426,-402.5 594,-402.5 594,-383.5 426,-383.5"/>
<text text-anchor="middle" x="510" y="-390.5" font-family="Helvetica,sans-Serif" font-size="10.00">nars.inference.UtilityFunctions.and</text>
</a>
</g>
</g>
<!-- Node3&#45;&gt;Node6 -->
<g id="edge5" class="edge"><title>Node3&#45;&gt;Node6</title>
<path fill="none" stroke="midnightblue" d="M380.284,-394.152C391.971,-394.047 403.91,-393.94 415.576,-393.836"/>
<polygon fill="midnightblue" stroke="midnightblue" points="415.776,-397.334 425.745,-393.745 415.714,-390.335 415.776,-397.334"/>
</g>
<!-- Node8 -->
<g id="node8" class="node"><title>Node8</title>
<g id="a_node8"><a xlink:href="../../d8/db8/classnars_1_1language_1_1Term_a3aad4654016b8615fd4fa8a26668e1db.html#a3aad4654016b8615fd4fa8a26668e1db" target="_top" xlink:title="Reporting the name of the current Term. ">
<polygon fill="none" stroke="black" points="437,-345.5 437,-364.5 583,-364.5 583,-345.5 437,-345.5"/>
<text text-anchor="middle" x="510" y="-352.5" font-family="Helvetica,sans-Serif" font-size="10.00">nars.language.Term.getName</text>
</a>
</g>
</g>
<!-- Node7&#45;&gt;Node8 -->
<g id="edge7" class="edge"><title>Node7&#45;&gt;Node8</title>
<path fill="none" stroke="midnightblue" d="M351.65,-354.296C375.182,-354.401 401.97,-354.521 426.688,-354.632"/>
<polygon fill="midnightblue" stroke="midnightblue" points="426.758,-358.132 436.774,-354.677 426.789,-351.132 426.758,-358.132"/>
</g>
<!-- Node15&#45;&gt;Node4 -->
<g id="edge15" class="edge"><title>Node15&#45;&gt;Node4</title>
<path fill="none" stroke="midnightblue" d="M342.33,-445.533C357.837,-448.352 374.605,-451.6 390,-455 407.941,-458.962 427.269,-463.764 445.023,-468.393"/>
<polygon fill="midnightblue" stroke="midnightblue" points="444.144,-471.781 454.705,-470.94 445.925,-465.011 444.144,-471.781"/>
</g>
<!-- Node15&#45;&gt;Node5 -->
<g id="edge16" class="edge"><title>Node15&#45;&gt;Node5</title>
<path fill="none" stroke="midnightblue" d="M377.696,-436.413C396.872,-436.498 416.84,-436.588 435.247,-436.67"/>
<polygon fill="midnightblue" stroke="midnightblue" points="435.282,-440.17 445.297,-436.715 435.313,-433.17 435.282,-440.17"/>
</g>
<!-- Node16&#45;&gt;Node9 -->
<g id="edge20" class="edge"><title>Node16&#45;&gt;Node9</title>
<path fill="none" stroke="midnightblue" d="M350.149,-277.586C412.739,-275.612 510.196,-270.943 594,-260 618.644,-256.782 645.727,-251.55 668.321,-246.702"/>
<polygon fill="midnightblue" stroke="midnightblue" points="669.339,-250.063 678.362,-244.51 667.846,-243.224 669.339,-250.063"/>
</g>
<!-- Node17 -->
<g id="node17" class="node"><title>Node17</title>
<g id="a_node17"><a xlink:href="../../dc/ddc/classnars_1_1entity_1_1Task_a091f9ec3bdacfd6741f767cb62b14c0f.html#a091f9ec3bdacfd6741f767cb62b14c0f" target="_top" xlink:title="Directly get the content of the sentence. ">
<polygon fill="none" stroke="black" points="441,-307.5 441,-326.5 579,-326.5 579,-307.5 441,-307.5"/>
<text text-anchor="middle" x="510" y="-314.5" font-family="Helvetica,sans-Serif" font-size="10.00">nars.entity.Task.getContent</text>
</a>
</g>
</g>
<!-- Node16&#45;&gt;Node17 -->
<g id="edge18" class="edge"><title>Node16&#45;&gt;Node17</title>
<path fill="none" stroke="midnightblue" d="M350.145,-289.991C379.207,-294.932 413.472,-300.758 442.724,-305.732"/>
<polygon fill="midnightblue" stroke="midnightblue" points="442.4,-309.227 452.845,-307.452 443.573,-302.326 442.4,-309.227"/>
</g>
<!-- Node19 -->
<g id="node19" class="node"><title>Node19</title>
<g id="a_node19"><a xlink:href="../../d8/df4/classnars_1_1storage_1_1Memory_aec1106814819aa1c8437001c2c4bf1a3.html#aec1106814819aa1c8437001c2c4bf1a3" target="_top" xlink:title="Shared final operations by all single&#45;premise rules, called in StructuralRules. ">
<polygon fill="none" stroke="black" points="441.5,-220 441.5,-250 578.5,-250 578.5,-220 441.5,-220"/>
<text text-anchor="start" x="449.5" y="-238" font-family="Helvetica,sans-Serif" font-size="10.00">nars.storage.Memory.single</text>
<text text-anchor="middle" x="510" y="-227" font-family="Helvetica,sans-Serif" font-size="10.00">PremiseTask</text>
</a>
</g>
</g>
<!-- Node16&#45;&gt;Node19 -->
<g id="edge21" class="edge"><title>Node16&#45;&gt;Node19</title>
<path fill="none" stroke="midnightblue" d="M350.145,-266.273C375.524,-261.277 404.87,-255.5 431.381,-250.281"/>
<polygon fill="midnightblue" stroke="midnightblue" points="432.253,-253.676 441.388,-248.311 430.901,-246.808 432.253,-253.676"/>
</g>
<!-- Node18 -->
<g id="node18" class="node"><title>Node18</title>
<g id="a_node18"><a xlink:href="../../d6/d25/classnars_1_1entity_1_1Sentence_ad1ded9a02cae3557948d05530cd4d37e.html#ad1ded9a02cae3557948d05530cd4d37e" target="_top" xlink:title="Get the content of the sentence. ">
<polygon fill="none" stroke="black" points="658,-302 658,-332 781,-332 781,-302 658,-302"/>
<text text-anchor="start" x="666" y="-320" font-family="Helvetica,sans-Serif" font-size="10.00">nars.entity.Sentence.get</text>
<text text-anchor="middle" x="719.5" y="-309" font-family="Helvetica,sans-Serif" font-size="10.00">Content</text>
</a>
</g>
</g>
<!-- Node17&#45;&gt;Node18 -->
<g id="edge19" class="edge"><title>Node17&#45;&gt;Node18</title>
<path fill="none" stroke="midnightblue" d="M579.231,-317C601.254,-317 625.705,-317 647.896,-317"/>
<polygon fill="midnightblue" stroke="midnightblue" points="647.916,-320.5 657.916,-317 647.916,-313.5 647.916,-320.5"/>
</g>
<!-- Node19&#45;&gt;Node9 -->
<g id="edge22" class="edge"><title>Node19&#45;&gt;Node9</title>
<path fill="none" stroke="midnightblue" d="M578.656,-235C591.789,-235 605.804,-235 619.7,-235"/>
<polygon fill="midnightblue" stroke="midnightblue" points="619.783,-238.5 629.783,-235 619.783,-231.5 619.783,-238.5"/>
</g>
</g>
</svg>
        <g id="navigator" transform="translate(0 0)" fill="#404254">
                <rect fill="#f2f5e9" fill-opacity="0.5" stroke="#606060" stroke-width=".5" x="0" y="0" width="60" height="60"/>
                <use id="zoomplus" xlink:href="#zoomPlus" x="17" y="9" onmousedown="handleZoom(evt,'in')"/>
                <use id="zoomminus" xlink:href="#zoomMin" x="42" y="9" onmousedown="handleZoom(evt,'out')"/>
                <use id="reset" xlink:href="#resetDef" x="30" y="36" onmousedown="handleReset()"/>
                <g id="arrowUp" xlink:href="#dirArrow" transform="translate(30 24)" onmousedown="handlePan(0,-1)">
                  <use xlink:href="#rim" fill="#404040">
                        <set attributeName="fill" to="#808080" begin="arrowUp.mouseover" end="arrowUp.mouseout"/>
                  </use>
                  <path fill="none" stroke="white" stroke-width="1.5" d="M0,-3.0v7 M-2.5,-0.5L0,-3.0L2.5,-0.5"/>
                </g>
                <g id="arrowRight" xlink:href="#dirArrow" transform="rotate(90) translate(36 -43)" onmousedown="handlePan(1,0)">
                  <use xlink:href="#rim" fill="#404040">
                        <set attributeName="fill" to="#808080" begin="arrowRight.mouseover" end="arrowRight.mouseout"/>
                  </use>
                  <path fill="none" stroke="white" stroke-width="1.5" d="M0,-3.0v7 M-2.5,-0.5L0,-3.0L2.5,-0.5"/>
                </g>
                <g id="arrowDown" xlink:href="#dirArrow" transform="rotate(180) translate(-30 -48)" onmousedown="handlePan(0,1)">
                  <use xlink:href="#rim" fill="#404040">
                        <set attributeName="fill" to="#808080" begin="arrowDown.mouseover" end="arrowDown.mouseout"/>
                  </use>
                  <path fill="none" stroke="white" stroke-width="1.5" d="M0,-3.0v7 M-2.5,-0.5L0,-3.0L2.5,-0.5"/>
                </g>
                <g id="arrowLeft" xlink:href="#dirArrow" transform="rotate(270) translate(-36 17)" onmousedown="handlePan(-1,0)">
                  <use xlink:href="#rim" fill="#404040">
                        <set attributeName="fill" to="#808080" begin="arrowLeft.mouseover" end="arrowLeft.mouseout"/>
                  </use>
                  <path fill="none" stroke="white" stroke-width="1.5" d="M0,-3.0v7 M-2.5,-0.5L0,-3.0L2.5,-0.5"/>
                </g>
        </g>
        <svg viewBox="0 0 15 15" width="100%" height="30px" preserveAspectRatio="xMaxYMin meet">
         <g id="arrow_out" transform="scale(0.3 0.3)">
          <a xlink:href="classnars_1_1inference_1_1StructuralRules_ab332619119b303e3ecf9920684448ff8_ab332619119b303e3ecf9920684448ff8_cgraph_org.svg" target="_base">
           <rect id="button" ry="5" rx="5" y="6" x="6" height="38" width="38"
                fill="#f2f5e9" fill-opacity="0.5" stroke="#606060" stroke-width="1.0"/>
           <path id="arrow"
             d="M 11.500037,31.436501 C 11.940474,20.09759 22.043105,11.32322 32.158766,21.979434 L 37.068811,17.246167 C 37.068811,17.246167 37.088388,32 37.088388,32 L 22.160133,31.978069 C 22.160133,31.978069 26.997745,27.140456 26.997745,27.140456 C 18.528582,18.264221 13.291696,25.230495 11.500037,31.436501 z"
             style="fill:#404040;"/>
          </a>
         </g>
        </svg>
</svg>
