<?xml version="1.0" encoding="UTF-8" standalone="no"?>
<!DOCTYPE svg PUBLIC "-//W3C//DTD SVG 1.1//EN"
 "http://www.w3.org/Graphics/SVG/1.1/DTD/svg11.dtd">
<!-- Generated by graphviz version 2.38.0 (20140413.2041)
 -->
<!-- Title: nars.inference.StructuralRules.structuralCompose1 Pages: 1 -->
<!--zoomable 510 -->
<svg id="main" version="1.1" xmlns="http://www.w3.org/2000/svg" xmlns:xlink="http://www.w3.org/1999/xlink" xml:space="preserve" onload="init(evt)">
<style type="text/css"><![CDATA[
.edge:hover path { stroke: red; }
.edge:hover polygon { stroke: red; fill: red; }
]]></style>
<script type="text/javascript"><![CDATA[
var edges = document.getElementsByTagName('g');
if (edges && edges.length) {
  for (var i=0;i<edges.length;i++) {
    if (edges[i].id.substr(0,4)=='edge') {
      edges[i].setAttribute('class','edge');
    }
  }
}
]]></script>
        <defs>
                <circle id="rim" cx="0" cy="0" r="7"/>
                <circle id="rim2" cx="0" cy="0" r="3.5"/>
                <g id="zoomPlus">
                        <use xlink:href="#rim" fill="#404040">
                                <set attributeName="fill" to="#808080" begin="zoomplus.mouseover" end="zoomplus.mouseout"/>
                        </use>
                        <path d="M-4,0h8M0,-4v8" fill="none" stroke="white" stroke-width="1.5" pointer-events="none"/>
                </g>
                <g id="zoomMin">
                        <use xlink:href="#rim" fill="#404040">
                                <set attributeName="fill" to="#808080" begin="zoomminus.mouseover" end="zoomminus.mouseout"/>
                        </use>
                        <path d="M-4,0h8" fill="none" stroke="white" stroke-width="1.5" pointer-events="none"/>
                </g>
                <g id="dirArrow">
                        <path fill="none" stroke="white" stroke-width="1.5" d="M0,-3.0v7 M-2.5,-0.5L0,-3.0L2.5,-0.5"/>
                </g>
               <g id="resetDef">
                       <use xlink:href="#rim2" fill="#404040">
                               <set attributeName="fill" to="#808080" begin="reset.mouseover" end="reset.mouseout"/>
                       </use>
               </g>
        </defs>

<script type="text/javascript">
var viewWidth = 807;
var viewHeight = 510;
var sectionId = 'dynsection-0';
</script>
<script xlink:href="../../svgpan.js"/>
<svg id="graph" class="graph">
<g id="viewport">
<title>nars.inference.StructuralRules.structuralCompose1</title>
<!-- Node1 -->
<g id="node1" class="node"><title>Node1</title>
<polygon fill="#bfbfbf" stroke="black" points="0,-220 0,-250 133,-250 133,-220 0,-220"/>
<text text-anchor="start" x="8" y="-238" font-family="Helvetica,sans-Serif" font-size="10.00">nars.inference.Structural</text>
<text text-anchor="middle" x="66.5" y="-227" font-family="Helvetica,sans-Serif" font-size="10.00">Rules.structuralCompose1</text>
</g>
<!-- Node2 -->
<g id="node2" class="node"><title>Node2</title>
<g id="a_node2"><a xlink:href="../../d0/dee/classnars_1_1language_1_1CompoundTerm_acedae916705e9fa1669391a7d728b840.html#acedae916705e9fa1669391a7d728b840" target="_top" xlink:title="get a component by index ">
<polygon fill="none" stroke="black" points="169,-464.5 169,-483.5 380,-483.5 380,-464.5 169,-464.5"/>
<text text-anchor="middle" x="274.5" y="-471.5" font-family="Helvetica,sans-Serif" font-size="10.00">nars.language.CompoundTerm.componentAt</text>
</a>
</g>
</g>
<!-- Node1&#45;&gt;Node2 -->
<g id="edge1" class="edge"><title>Node1&#45;&gt;Node2</title>
<path fill="none" stroke="midnightblue" d="M69.6673,-250.233C76.2884,-290.744 100.171,-401.671 169,-455 171.136,-456.655 173.371,-458.183 175.685,-459.593"/>
<polygon fill="midnightblue" stroke="midnightblue" points="174.485,-462.916 184.966,-464.465 177.739,-456.718 174.485,-462.916"/>
</g>
<!-- Node3 -->
<g id="node3" class="node"><title>Node3</title>
<g id="a_node3"><a xlink:href="../../d1/d58/classnars_1_1inference_1_1TruthFunctions_af0cd0f846c8a7e500840b517ab006b94.html#af0cd0f846c8a7e500840b517ab006b94" target="_top" xlink:title="{&lt;S ==&gt; M&gt;, &lt;M ==&gt; P&gt;} |&#45; &lt;S ==&gt; P&gt; ">
<polygon fill="none" stroke="black" points="179,-385.5 179,-404.5 370,-404.5 370,-385.5 179,-385.5"/>
<text text-anchor="middle" x="274.5" y="-392.5" font-family="Helvetica,sans-Serif" font-size="10.00">nars.inference.TruthFunctions.deduction</text>
</a>
</g>
</g>
<!-- Node1&#45;&gt;Node3 -->
<g id="edge2" class="edge"><title>Node1&#45;&gt;Node3</title>
<path fill="none" stroke="midnightblue" d="M74.1473,-250.313C87.5565,-279.27 120.739,-341.925 169,-373 174.422,-376.491 180.299,-379.44 186.409,-381.928"/>
<polygon fill="midnightblue" stroke="midnightblue" points="185.573,-385.349 196.168,-385.473 187.963,-378.769 185.573,-385.349"/>
</g>
<!-- Node7 -->
<g id="node7" class="node"><title>Node7</title>
<g id="a_node7"><a xlink:href="../../d8/db8/classnars_1_1language_1_1Term_ad85f45a7858737445d5158801774ff5f.html#ad85f45a7858737445d5158801774ff5f" target="_top" xlink:title="Equal terms have identical name, though not necessarily the same reference. ">
<polygon fill="none" stroke="black" points="207.5,-344.5 207.5,-363.5 341.5,-363.5 341.5,-344.5 207.5,-344.5"/>
<text text-anchor="middle" x="274.5" y="-351.5" font-family="Helvetica,sans-Serif" font-size="10.00">nars.language.Term.equals</text>
</a>
</g>
</g>
<!-- Node1&#45;&gt;Node7 -->
<g id="edge6" class="edge"><title>Node1&#45;&gt;Node7</title>
<path fill="none" stroke="midnightblue" d="M87.9026,-250.218C107.989,-264.872 139.812,-287.224 169,-304 192.74,-317.645 220.786,-330.919 241.843,-340.356"/>
<polygon fill="midnightblue" stroke="midnightblue" points="240.425,-343.556 250.985,-344.41 243.263,-337.157 240.425,-343.556"/>
</g>
<!-- Node9 -->
<g id="node9" class="node"><title>Node9</title>
<g id="a_node9"><a xlink:href="../../d8/df4/classnars_1_1storage_1_1Memory_a26eda4f00b333b706b4e3d069fdf1508.html#a26eda4f00b333b706b4e3d069fdf1508" target="_top" xlink:title="The selected Task. ">
<polygon fill="none" stroke="black" points="620,-225.5 620,-244.5 799,-244.5 799,-225.5 620,-225.5"/>
<text text-anchor="middle" x="709.5" y="-232.5" font-family="Helvetica,sans-Serif" font-size="10.00">nars.storage.Memory.getCurrentTask</text>
</a>
</g>
</g>
<!-- Node1&#45;&gt;Node9 -->
<g id="edge8" class="edge"><title>Node1&#45;&gt;Node9</title>
<path fill="none" stroke="midnightblue" d="M133.159,-232.485C196.475,-229.71 294.95,-224.479 380,-216 396.074,-214.398 399.885,-212.114 416,-211 490.489,-205.852 509.672,-203.901 584,-211 609.101,-213.397 636.666,-218.454 659.464,-223.311"/>
<polygon fill="midnightblue" stroke="midnightblue" points="658.732,-226.734 669.248,-225.445 660.224,-219.894 658.732,-226.734"/>
</g>
<!-- Node10 -->
<g id="node10" class="node"><title>Node10</title>
<g id="a_node10"><a xlink:href="../../d1/d5e/classnars_1_1language_1_1Statement_ababe6155e2f78e769f76493317e118e0.html#ababe6155e2f78e769f76493317e118e0" target="_top" xlink:title="Return the second component of the statement. ">
<polygon fill="none" stroke="black" points="203.5,-176 203.5,-206 345.5,-206 345.5,-176 203.5,-176"/>
<text text-anchor="start" x="211.5" y="-194" font-family="Helvetica,sans-Serif" font-size="10.00">nars.language.Statement.get</text>
<text text-anchor="middle" x="274.5" y="-183" font-family="Helvetica,sans-Serif" font-size="10.00">Predicate</text>
</a>
</g>
</g>
<!-- Node1&#45;&gt;Node10 -->
<g id="edge9" class="edge"><title>Node1&#45;&gt;Node10</title>
<path fill="none" stroke="midnightblue" d="M133.246,-220.957C152.385,-216.869 173.507,-212.358 193.424,-208.104"/>
<polygon fill="midnightblue" stroke="midnightblue" points="194.352,-211.484 203.401,-205.973 192.89,-204.639 194.352,-211.484"/>
</g>
<!-- Node11 -->
<g id="node11" class="node"><title>Node11</title>
<g id="a_node11"><a xlink:href="../../dc/ddc/classnars_1_1entity_1_1Task_ab140cb553a6cf40b07093d1df283567f.html#ab140cb553a6cf40b07093d1df283567f" target="_top" xlink:title="Get the sentence. ">
<polygon fill="none" stroke="black" points="202,-137.5 202,-156.5 347,-156.5 347,-137.5 202,-137.5"/>
<text text-anchor="middle" x="274.5" y="-144.5" font-family="Helvetica,sans-Serif" font-size="10.00">nars.entity.Task.getSentence</text>
</a>
</g>
</g>
<!-- Node1&#45;&gt;Node11 -->
<g id="edge10" class="edge"><title>Node1&#45;&gt;Node11</title>
<path fill="none" stroke="midnightblue" d="M85.2913,-219.798C104.614,-204.111 137.019,-180.134 169,-167 176.532,-163.907 184.568,-161.286 192.711,-159.066"/>
<polygon fill="midnightblue" stroke="midnightblue" points="193.831,-162.394 202.671,-156.553 192.118,-155.606 193.831,-162.394"/>
</g>
<!-- Node12 -->
<g id="node12" class="node"><title>Node12</title>
<g id="a_node12"><a xlink:href="../../d1/d5e/classnars_1_1language_1_1Statement_ace4f80751d303c613e467163913bebf5.html#ace4f80751d303c613e467163913bebf5" target="_top" xlink:title="Return the first component of the statement. ">
<polygon fill="none" stroke="black" points="203.5,-88 203.5,-118 345.5,-118 345.5,-88 203.5,-88"/>
<text text-anchor="start" x="211.5" y="-106" font-family="Helvetica,sans-Serif" font-size="10.00">nars.language.Statement.get</text>
<text text-anchor="middle" x="274.5" y="-95" font-family="Helvetica,sans-Serif" font-size="10.00">Subject</text>
</a>
</g>
</g>
<!-- Node1&#45;&gt;Node12 -->
<g id="edge11" class="edge"><title>Node1&#45;&gt;Node12</title>
<path fill="none" stroke="midnightblue" d="M77.3863,-219.956C93.6105,-196.52 128.192,-151.544 169,-128 176.631,-123.597 185.003,-119.968 193.582,-116.977"/>
<polygon fill="midnightblue" stroke="midnightblue" points="194.868,-120.241 203.329,-113.864 192.738,-113.573 194.868,-120.241"/>
</g>
<!-- Node13 -->
<g id="node13" class="node"><title>Node13</title>
<g id="a_node13"><a xlink:href="../../d6/d25/classnars_1_1entity_1_1Sentence_a9f69b4fef64c81abad21404946cd41f9.html#a9f69b4fef64c81abad21404946cd41f9" target="_top" xlink:title="Get the truth value of the sentence. ">
<polygon fill="none" stroke="black" points="213,-39 213,-69 336,-69 336,-39 213,-39"/>
<text text-anchor="start" x="221" y="-57" font-family="Helvetica,sans-Serif" font-size="10.00">nars.entity.Sentence.get</text>
<text text-anchor="middle" x="274.5" y="-46" font-family="Helvetica,sans-Serif" font-size="10.00">Truth</text>
</a>
</g>
</g>
<!-- Node1&#45;&gt;Node13 -->
<g id="edge12" class="edge"><title>Node1&#45;&gt;Node13</title>
<path fill="none" stroke="midnightblue" d="M72.8453,-219.674C84.7591,-187.888 116.64,-114.698 169,-78 179.164,-70.8765 191.122,-65.8355 203.25,-62.2756"/>
<polygon fill="midnightblue" stroke="midnightblue" points="204.196,-65.6462 212.983,-59.7267 202.422,-58.8746 204.196,-65.6462"/>
</g>
<!-- Node14 -->
<g id="node14" class="node"><title>Node14</title>
<g id="a_node14"><a xlink:href="../../d6/d25/classnars_1_1entity_1_1Sentence_a7d95d60caaf4c895559182a7eb2ff71e.html#a7d95d60caaf4c895559182a7eb2ff71e" target="_top" xlink:title="Distinguish Judgment from Goal (&quot;instanceof Judgment&quot; doesn&#39;t work) ">
<polygon fill="none" stroke="black" points="194.5,-0.5 194.5,-19.5 354.5,-19.5 354.5,-0.5 194.5,-0.5"/>
<text text-anchor="middle" x="274.5" y="-7.5" font-family="Helvetica,sans-Serif" font-size="10.00">nars.entity.Sentence.isJudgment</text>
</a>
</g>
</g>
<!-- Node1&#45;&gt;Node14 -->
<g id="edge13" class="edge"><title>Node1&#45;&gt;Node14</title>
<path fill="none" stroke="midnightblue" d="M70.1559,-219.875C77.7922,-181.213 103.598,-78.3503 169,-29 173.856,-25.3356 179.196,-22.3001 184.815,-19.7923"/>
<polygon fill="midnightblue" stroke="midnightblue" points="186.431,-22.9204 194.498,-16.0522 183.908,-16.3906 186.431,-22.9204"/>
</g>
<!-- Node15 -->
<g id="node15" class="node"><title>Node15</title>
<g id="a_node15"><a xlink:href="../../d1/d58/classnars_1_1inference_1_1TruthFunctions_ace28b3a18d275b33d2a094189842b2ed.html#ace28b3a18d275b33d2a094189842b2ed" target="_top" xlink:title="{A} |&#45; (–A) ">
<polygon fill="none" stroke="black" points="181.5,-426.5 181.5,-445.5 367.5,-445.5 367.5,-426.5 181.5,-426.5"/>
<text text-anchor="middle" x="274.5" y="-433.5" font-family="Helvetica,sans-Serif" font-size="10.00">nars.inference.TruthFunctions.negation</text>
</a>
</g>
</g>
<!-- Node1&#45;&gt;Node15 -->
<g id="edge14" class="edge"><title>Node1&#45;&gt;Node15</title>
<path fill="none" stroke="midnightblue" d="M71.4404,-250.108C81.3727,-285.014 110.886,-371.519 169,-414 173.49,-417.282 178.363,-420.098 183.467,-422.51"/>
<polygon fill="midnightblue" stroke="midnightblue" points="182.295,-425.813 192.872,-426.431 184.989,-419.352 182.295,-425.813"/>
</g>
<!-- Node16 -->
<g id="node16" class="node"><title>Node16</title>
<g id="a_node16"><a xlink:href="../../db/d49/classnars_1_1inference_1_1StructuralRules_a85867ea2f5c08252344131858cf95bfd.html#a85867ea2f5c08252344131858cf95bfd" target="_top" xlink:title="Common final operations of the above two methods. ">
<polygon fill="none" stroke="black" points="209,-264 209,-294 340,-294 340,-264 209,-264"/>
<text text-anchor="start" x="217" y="-282" font-family="Helvetica,sans-Serif" font-size="10.00">nars.inference.Structural</text>
<text text-anchor="middle" x="274.5" y="-271" font-family="Helvetica,sans-Serif" font-size="10.00">Rules.structuralStatement</text>
</a>
</g>
</g>
<!-- Node1&#45;&gt;Node16 -->
<g id="edge17" class="edge"><title>Node1&#45;&gt;Node16</title>
<path fill="none" stroke="midnightblue" d="M133.246,-249.043C154.084,-253.494 177.274,-258.447 198.699,-263.023"/>
<polygon fill="midnightblue" stroke="midnightblue" points="198.219,-266.5 208.73,-265.166 199.682,-259.654 198.219,-266.5"/>
</g>
<!-- Node4 -->
<g id="node4" class="node"><title>Node4</title>
<g id="a_node4"><a xlink:href="../../d3/db8/classnars_1_1entity_1_1TruthValue_a9eac33f2495441c77911a8581a5bbe61.html#a9eac33f2495441c77911a8581a5bbe61" target="_top" xlink:title="Get the frequency value. ">
<polygon fill="none" stroke="black" points="435.5,-471 435.5,-501 564.5,-501 564.5,-471 435.5,-471"/>
<text text-anchor="start" x="443.5" y="-489" font-family="Helvetica,sans-Serif" font-size="10.00">nars.entity.TruthValue.get</text>
<text text-anchor="middle" x="500" y="-478" font-family="Helvetica,sans-Serif" font-size="10.00">Frequency</text>
</a>
</g>
</g>
<!-- Node3&#45;&gt;Node4 -->
<g id="edge3" class="edge"><title>Node3&#45;&gt;Node4</title>
<path fill="none" stroke="midnightblue" d="M351.542,-404.504C361.54,-407.591 371.316,-411.655 380,-417 401.811,-430.426 394.7,-447.776 416,-462 419.115,-464.08 422.411,-465.982 425.825,-467.722"/>
<polygon fill="midnightblue" stroke="midnightblue" points="424.539,-470.983 435.089,-471.958 427.45,-464.617 424.539,-470.983"/>
</g>
<!-- Node5 -->
<g id="node5" class="node"><title>Node5</title>
<g id="a_node5"><a xlink:href="../../d3/db8/classnars_1_1entity_1_1TruthValue_a68ca7d92e9ea20d2a9a9f578ad7b681c.html#a68ca7d92e9ea20d2a9a9f578ad7b681c" target="_top" xlink:title="Get the confidence value. ">
<polygon fill="none" stroke="black" points="435.5,-422 435.5,-452 564.5,-452 564.5,-422 435.5,-422"/>
<text text-anchor="start" x="443.5" y="-440" font-family="Helvetica,sans-Serif" font-size="10.00">nars.entity.TruthValue.get</text>
<text text-anchor="middle" x="500" y="-429" font-family="Helvetica,sans-Serif" font-size="10.00">Confidence</text>
</a>
</g>
</g>
<!-- Node3&#45;&gt;Node5 -->
<g id="edge4" class="edge"><title>Node3&#45;&gt;Node5</title>
<path fill="none" stroke="midnightblue" d="M326.216,-404.53C355.512,-410.036 392.881,-417.058 425.368,-423.163"/>
<polygon fill="midnightblue" stroke="midnightblue" points="424.804,-426.618 435.279,-425.026 426.097,-419.739 424.804,-426.618"/>
</g>
<!-- Node6 -->
<g id="node6" class="node"><title>Node6</title>
<g id="a_node6"><a xlink:href="../../d4/de4/classnars_1_1inference_1_1UtilityFunctions_a35ac262407303cdf8d11f7892f9a3a03.html#a35ac262407303cdf8d11f7892f9a3a03" target="_top" xlink:title="A function where the output is conjunctively determined by the inputs. ">
<polygon fill="none" stroke="black" points="416,-383.5 416,-402.5 584,-402.5 584,-383.5 416,-383.5"/>
<text text-anchor="middle" x="500" y="-390.5" font-family="Helvetica,sans-Serif" font-size="10.00">nars.inference.UtilityFunctions.and</text>
</a>
</g>
</g>
<!-- Node3&#45;&gt;Node6 -->
<g id="edge5" class="edge"><title>Node3&#45;&gt;Node6</title>
<path fill="none" stroke="midnightblue" d="M370.284,-394.152C381.971,-394.047 393.91,-393.94 405.576,-393.836"/>
<polygon fill="midnightblue" stroke="midnightblue" points="405.776,-397.334 415.745,-393.745 405.714,-390.335 405.776,-397.334"/>
</g>
<!-- Node8 -->
<g id="node8" class="node"><title>Node8</title>
<g id="a_node8"><a xlink:href="../../d8/db8/classnars_1_1language_1_1Term_a3aad4654016b8615fd4fa8a26668e1db.html#a3aad4654016b8615fd4fa8a26668e1db" target="_top" xlink:title="Reporting the name of the current Term. ">
<polygon fill="none" stroke="black" points="427,-345.5 427,-364.5 573,-364.5 573,-345.5 427,-345.5"/>
<text text-anchor="middle" x="500" y="-352.5" font-family="Helvetica,sans-Serif" font-size="10.00">nars.language.Term.getName</text>
</a>
</g>
</g>
<!-- Node7&#45;&gt;Node8 -->
<g id="edge7" class="edge"><title>Node7&#45;&gt;Node8</title>
<path fill="none" stroke="midnightblue" d="M341.65,-354.296C365.182,-354.401 391.97,-354.521 416.688,-354.632"/>
<polygon fill="midnightblue" stroke="midnightblue" points="416.758,-358.132 426.774,-354.677 416.789,-351.132 416.758,-358.132"/>
</g>
<!-- Node15&#45;&gt;Node4 -->
<g id="edge15" class="edge"><title>Node15&#45;&gt;Node4</title>
<path fill="none" stroke="midnightblue" d="M332.33,-445.533C347.837,-448.352 364.605,-451.6 380,-455 397.941,-458.962 417.269,-463.764 435.023,-468.393"/>
<polygon fill="midnightblue" stroke="midnightblue" points="434.144,-471.781 444.705,-470.94 435.925,-465.011 434.144,-471.781"/>
</g>
<!-- Node15&#45;&gt;Node5 -->
<g id="edge16" class="edge"><title>Node15&#45;&gt;Node5</title>
<path fill="none" stroke="midnightblue" d="M367.696,-436.413C386.872,-436.498 406.84,-436.588 425.247,-436.67"/>
<polygon fill="midnightblue" stroke="midnightblue" points="425.282,-440.17 435.297,-436.715 425.313,-433.17 425.282,-440.17"/>
</g>
<!-- Node16&#45;&gt;Node9 -->
<g id="edge20" class="edge"><title>Node16&#45;&gt;Node9</title>
<path fill="none" stroke="midnightblue" d="M340.149,-277.586C402.739,-275.612 500.196,-270.943 584,-260 608.644,-256.782 635.727,-251.55 658.321,-246.702"/>
<polygon fill="midnightblue" stroke="midnightblue" points="659.339,-250.063 668.362,-244.51 657.846,-243.224 659.339,-250.063"/>
</g>
<!-- Node17 -->
<g id="node17" class="node"><title>Node17</title>
<g id="a_node17"><a xlink:href="../../dc/ddc/classnars_1_1entity_1_1Task_a091f9ec3bdacfd6741f767cb62b14c0f.html#a091f9ec3bdacfd6741f767cb62b14c0f" target="_top" xlink:title="Directly get the content of the sentence. ">
<polygon fill="none" stroke="black" points="431,-307.5 431,-326.5 569,-326.5 569,-307.5 431,-307.5"/>
<text text-anchor="middle" x="500" y="-314.5" font-family="Helvetica,sans-Serif" font-size="10.00">nars.entity.Task.getContent</text>
</a>
</g>
</g>
<!-- Node16&#45;&gt;Node17 -->
<g id="edge18" class="edge"><title>Node16&#45;&gt;Node17</title>
<path fill="none" stroke="midnightblue" d="M340.145,-289.991C369.207,-294.932 403.472,-300.758 432.724,-305.732"/>
<polygon fill="midnightblue" stroke="midnightblue" points="432.4,-309.227 442.845,-307.452 433.573,-302.326 432.4,-309.227"/>
</g>
<!-- Node19 -->
<g id="node19" class="node"><title>Node19</title>
<g id="a_node19"><a xlink:href="../../d8/df4/classnars_1_1storage_1_1Memory_aec1106814819aa1c8437001c2c4bf1a3.html#aec1106814819aa1c8437001c2c4bf1a3" target="_top" xlink:title="Shared final operations by all single&#45;premise rules, called in StructuralRules. ">
<polygon fill="none" stroke="black" points="431.5,-220 431.5,-250 568.5,-250 568.5,-220 431.5,-220"/>
<text text-anchor="start" x="439.5" y="-238" font-family="Helvetica,sans-Serif" font-size="10.00">nars.storage.Memory.single</text>
<text text-anchor="middle" x="500" y="-227" font-family="Helvetica,sans-Serif" font-size="10.00">PremiseTask</text>
</a>
</g>
</g>
<!-- Node16&#45;&gt;Node19 -->
<g id="edge21" class="edge"><title>Node16&#45;&gt;Node19</title>
<path fill="none" stroke="midnightblue" d="M340.145,-266.273C365.524,-261.277 394.87,-255.5 421.381,-250.281"/>
<polygon fill="midnightblue" stroke="midnightblue" points="422.253,-253.676 431.388,-248.311 420.901,-246.808 422.253,-253.676"/>
</g>
<!-- Node18 -->
<g id="node18" class="node"><title>Node18</title>
<g id="a_node18"><a xlink:href="../../d6/d25/classnars_1_1entity_1_1Sentence_ad1ded9a02cae3557948d05530cd4d37e.html#ad1ded9a02cae3557948d05530cd4d37e" target="_top" xlink:title="Get the content of the sentence. ">
<polygon fill="none" stroke="black" points="648,-302 648,-332 771,-332 771,-302 648,-302"/>
<text text-anchor="start" x="656" y="-320" font-family="Helvetica,sans-Serif" font-size="10.00">nars.entity.Sentence.get</text>
<text text-anchor="middle" x="709.5" y="-309" font-family="Helvetica,sans-Serif" font-size="10.00">Content</text>
</a>
</g>
</g>
<!-- Node17&#45;&gt;Node18 -->
<g id="edge19" class="edge"><title>Node17&#45;&gt;Node18</title>
<path fill="none" stroke="midnightblue" d="M569.231,-317C591.254,-317 615.705,-317 637.896,-317"/>
<polygon fill="midnightblue" stroke="midnightblue" points="637.916,-320.5 647.916,-317 637.916,-313.5 637.916,-320.5"/>
</g>
<!-- Node19&#45;&gt;Node9 -->
<g id="edge22" class="edge"><title>Node19&#45;&gt;Node9</title>
<path fill="none" stroke="midnightblue" d="M568.656,-235C581.789,-235 595.804,-235 609.7,-235"/>
<polygon fill="midnightblue" stroke="midnightblue" points="609.783,-238.5 619.783,-235 609.783,-231.5 609.783,-238.5"/>
</g>
</g>
</svg>
        <g id="navigator" transform="translate(0 0)" fill="#404254">
                <rect fill="#f2f5e9" fill-opacity="0.5" stroke="#606060" stroke-width=".5" x="0" y="0" width="60" height="60"/>
                <use id="zoomplus" xlink:href="#zoomPlus" x="17" y="9" onmousedown="handleZoom(evt,'in')"/>
                <use id="zoomminus" xlink:href="#zoomMin" x="42" y="9" onmousedown="handleZoom(evt,'out')"/>
                <use id="reset" xlink:href="#resetDef" x="30" y="36" onmousedown="handleReset()"/>
                <g id="arrowUp" xlink:href="#dirArrow" transform="translate(30 24)" onmousedown="handlePan(0,-1)">
                  <use xlink:href="#rim" fill="#404040">
                        <set attributeName="fill" to="#808080" begin="arrowUp.mouseover" end="arrowUp.mouseout"/>
                  </use>
                  <path fill="none" stroke="white" stroke-width="1.5" d="M0,-3.0v7 M-2.5,-0.5L0,-3.0L2.5,-0.5"/>
                </g>
                <g id="arrowRight" xlink:href="#dirArrow" transform="rotate(90) translate(36 -43)" onmousedown="handlePan(1,0)">
                  <use xlink:href="#rim" fill="#404040">
                        <set attributeName="fill" to="#808080" begin="arrowRight.mouseover" end="arrowRight.mouseout"/>
                  </use>
                  <path fill="none" stroke="white" stroke-width="1.5" d="M0,-3.0v7 M-2.5,-0.5L0,-3.0L2.5,-0.5"/>
                </g>
                <g id="arrowDown" xlink:href="#dirArrow" transform="rotate(180) translate(-30 -48)" onmousedown="handlePan(0,1)">
                  <use xlink:href="#rim" fill="#404040">
                        <set attributeName="fill" to="#808080" begin="arrowDown.mouseover" end="arrowDown.mouseout"/>
                  </use>
                  <path fill="none" stroke="white" stroke-width="1.5" d="M0,-3.0v7 M-2.5,-0.5L0,-3.0L2.5,-0.5"/>
                </g>
                <g id="arrowLeft" xlink:href="#dirArrow" transform="rotate(270) translate(-36 17)" onmousedown="handlePan(-1,0)">
                  <use xlink:href="#rim" fill="#404040">
                        <set attributeName="fill" to="#808080" begin="arrowLeft.mouseover" end="arrowLeft.mouseout"/>
                  </use>
                  <path fill="none" stroke="white" stroke-width="1.5" d="M0,-3.0v7 M-2.5,-0.5L0,-3.0L2.5,-0.5"/>
                </g>
        </g>
        <svg viewBox="0 0 15 15" width="100%" height="30px" preserveAspectRatio="xMaxYMin meet">
         <g id="arrow_out" transform="scale(0.3 0.3)">
          <a xlink:href="classnars_1_1inference_1_1StructuralRules_a29e0fbd7745a4ae5e324dbfe64b8f488_a29e0fbd7745a4ae5e324dbfe64b8f488_cgraph_org.svg" target="_base">
           <rect id="button" ry="5" rx="5" y="6" x="6" height="38" width="38"
                fill="#f2f5e9" fill-opacity="0.5" stroke="#606060" stroke-width="1.0"/>
           <path id="arrow"
             d="M 11.500037,31.436501 C 11.940474,20.09759 22.043105,11.32322 32.158766,21.979434 L 37.068811,17.246167 C 37.068811,17.246167 37.088388,32 37.088388,32 L 22.160133,31.978069 C 22.160133,31.978069 26.997745,27.140456 26.997745,27.140456 C 18.528582,18.264221 13.291696,25.230495 11.500037,31.436501 z"
             style="fill:#404040;"/>
          </a>
         </g>
        </svg>
</svg>
