<?xml version="1.0" encoding="UTF-8" standalone="no"?>
<!DOCTYPE svg PUBLIC "-//W3C//DTD SVG 1.1//EN"
 "http://www.w3.org/Graphics/SVG/1.1/DTD/svg11.dtd">
<!-- Generated by graphviz version 2.38.0 (20140413.2041)
 -->
<!-- Title: nars.inference.StructuralRules.transformNegation Pages: 1 -->
<svg width="570pt" height="302pt"
 viewBox="0.00 0.00 570.00 301.52" xmlns="http://www.w3.org/2000/svg" xmlns:xlink="http://www.w3.org/1999/xlink">
<g id="graph0" class="graph" transform="scale(1 1) rotate(0) translate(4 297.515)">
<title>nars.inference.StructuralRules.transformNegation</title>
<!-- Node1 -->
<g id="node1" class="node"><title>Node1</title>
<polygon fill="#bfbfbf" stroke="black" points="0,-150.5 0,-180.5 125,-180.5 125,-150.5 0,-150.5"/>
<text text-anchor="start" x="8" y="-168.5" font-family="Helvetica,sans-Serif" font-size="10.00">nars.inference.Structural</text>
<text text-anchor="middle" x="62.5" y="-157.5" font-family="Helvetica,sans-Serif" font-size="10.00">Rules.transformNegation</text>
</g>
<!-- Node2 -->
<g id="node2" class="node"><title>Node2</title>
<g id="a_node2"><a xlink:href="../../d8/df4/classnars_1_1storage_1_1Memory_a26eda4f00b333b706b4e3d069fdf1508.html#a26eda4f00b333b706b4e3d069fdf1508" target="_top" xlink:title="The selected Task. ">
<polygon fill="none" stroke="black" points="383,-190 383,-209 562,-209 562,-190 383,-190"/>
<text text-anchor="middle" x="472.5" y="-197" font-family="Helvetica,sans-Serif" font-size="10.00">nars.storage.Memory.getCurrentTask</text>
</a>
</g>
</g>
<!-- Node1&#45;&gt;Node2 -->
<g id="edge1" class="edge"><title>Node1&#45;&gt;Node2</title>
<path fill="none" stroke="midnightblue" d="M71.7917,-180.889C86.146,-205.687 118.24,-253.614 161,-272.5 236.619,-305.899 267.222,-294.164 347,-272.5 387.738,-261.437 428.778,-233.319 452.079,-215.385"/>
<polygon fill="midnightblue" stroke="midnightblue" points="454.411,-218.003 460.102,-209.067 450.08,-212.503 454.411,-218.003"/>
</g>
<!-- Node3 -->
<g id="node3" class="node"><title>Node3</title>
<g id="a_node3"><a xlink:href="../../dc/ddc/classnars_1_1entity_1_1Task_ab140cb553a6cf40b07093d1df283567f.html#ab140cb553a6cf40b07093d1df283567f" target="_top" xlink:title="Get the sentence. ">
<polygon fill="none" stroke="black" points="181.5,-244 181.5,-263 326.5,-263 326.5,-244 181.5,-244"/>
<text text-anchor="middle" x="254" y="-251" font-family="Helvetica,sans-Serif" font-size="10.00">nars.entity.Task.getSentence</text>
</a>
</g>
</g>
<!-- Node1&#45;&gt;Node3 -->
<g id="edge2" class="edge"><title>Node1&#45;&gt;Node3</title>
<path fill="none" stroke="midnightblue" d="M80.14,-180.58C98.5657,-196.444 129.807,-220.951 161,-234.5 166.89,-237.058 173.145,-239.279 179.513,-241.206"/>
<polygon fill="midnightblue" stroke="midnightblue" points="179.004,-244.697 189.576,-243.998 180.875,-237.952 179.004,-244.697"/>
</g>
<!-- Node4 -->
<g id="node4" class="node"><title>Node4</title>
<g id="a_node4"><a xlink:href="../../d6/d25/classnars_1_1entity_1_1Sentence_a9f69b4fef64c81abad21404946cd41f9.html#a9f69b4fef64c81abad21404946cd41f9" target="_top" xlink:title="Get the truth value of the sentence. ">
<polygon fill="none" stroke="black" points="192.5,-194.5 192.5,-224.5 315.5,-224.5 315.5,-194.5 192.5,-194.5"/>
<text text-anchor="start" x="200.5" y="-212.5" font-family="Helvetica,sans-Serif" font-size="10.00">nars.entity.Sentence.get</text>
<text text-anchor="middle" x="254" y="-201.5" font-family="Helvetica,sans-Serif" font-size="10.00">Truth</text>
</a>
</g>
</g>
<!-- Node1&#45;&gt;Node4 -->
<g id="edge3" class="edge"><title>Node1&#45;&gt;Node4</title>
<path fill="none" stroke="midnightblue" d="M125.025,-179.786C143.431,-184.059 163.752,-188.778 182.678,-193.172"/>
<polygon fill="midnightblue" stroke="midnightblue" points="181.898,-196.584 192.43,-195.436 183.481,-189.765 181.898,-196.584"/>
</g>
<!-- Node5 -->
<g id="node5" class="node"><title>Node5</title>
<g id="a_node5"><a xlink:href="../../d6/d25/classnars_1_1entity_1_1Sentence_a7d95d60caaf4c895559182a7eb2ff71e.html#a7d95d60caaf4c895559182a7eb2ff71e" target="_top" xlink:title="Distinguish Judgment from Goal (&quot;instanceof Judgment&quot; doesn&#39;t work) ">
<polygon fill="none" stroke="black" points="174,-156 174,-175 334,-175 334,-156 174,-156"/>
<text text-anchor="middle" x="254" y="-163" font-family="Helvetica,sans-Serif" font-size="10.00">nars.entity.Sentence.isJudgment</text>
</a>
</g>
</g>
<!-- Node1&#45;&gt;Node5 -->
<g id="edge4" class="edge"><title>Node1&#45;&gt;Node5</title>
<path fill="none" stroke="midnightblue" d="M125.025,-165.5C137.305,-165.5 150.437,-165.5 163.439,-165.5"/>
<polygon fill="midnightblue" stroke="midnightblue" points="163.819,-169 173.819,-165.5 163.819,-162 163.819,-169"/>
</g>
<!-- Node6 -->
<g id="node6" class="node"><title>Node6</title>
<g id="a_node6"><a xlink:href="../../d6/d25/classnars_1_1entity_1_1Sentence_acb98b40c8990dbe5e15061f0759c60ee.html#acb98b40c8990dbe5e15061f0759c60ee" target="_top" xlink:title="Distinguish Question from Quest (&quot;instanceof Question&quot; doesn&#39;t work) ">
<polygon fill="none" stroke="black" points="176,-118 176,-137 332,-137 332,-118 176,-118"/>
<text text-anchor="middle" x="254" y="-125" font-family="Helvetica,sans-Serif" font-size="10.00">nars.entity.Sentence.isQuestion</text>
</a>
</g>
</g>
<!-- Node1&#45;&gt;Node6 -->
<g id="edge5" class="edge"><title>Node1&#45;&gt;Node6</title>
<path fill="none" stroke="midnightblue" d="M125.025,-153.162C147.705,-148.615 173.293,-143.483 195.595,-139.011"/>
<polygon fill="midnightblue" stroke="midnightblue" points="196.471,-142.405 205.588,-137.007 195.095,-135.542 196.471,-142.405"/>
</g>
<!-- Node7 -->
<g id="node7" class="node"><title>Node7</title>
<g id="a_node7"><a xlink:href="../../d1/d58/classnars_1_1inference_1_1TruthFunctions_ace28b3a18d275b33d2a094189842b2ed.html#ace28b3a18d275b33d2a094189842b2ed" target="_top" xlink:title="{A} |&#45; (–A) ">
<polygon fill="none" stroke="black" points="161,-30 161,-49 347,-49 347,-30 161,-30"/>
<text text-anchor="middle" x="254" y="-37" font-family="Helvetica,sans-Serif" font-size="10.00">nars.inference.TruthFunctions.negation</text>
</a>
</g>
</g>
<!-- Node1&#45;&gt;Node7 -->
<g id="edge6" class="edge"><title>Node1&#45;&gt;Node7</title>
<path fill="none" stroke="midnightblue" d="M72.7636,-150.3C88.029,-126.65 120.818,-81.3862 161,-58.5 164.933,-56.2601 169.094,-54.2825 173.388,-52.5368"/>
<polygon fill="midnightblue" stroke="midnightblue" points="174.749,-55.7663 182.962,-49.0734 172.368,-49.1837 174.749,-55.7663"/>
</g>
<!-- Node10 -->
<g id="node10" class="node"><title>Node10</title>
<g id="a_node10"><a xlink:href="../../d8/df4/classnars_1_1storage_1_1Memory_aec1106814819aa1c8437001c2c4bf1a3.html#aec1106814819aa1c8437001c2c4bf1a3" target="_top" xlink:title="Shared final operations by all single&#45;premise rules, called in StructuralRules. ">
<polygon fill="none" stroke="black" points="185.5,-68.5 185.5,-98.5 322.5,-98.5 322.5,-68.5 185.5,-68.5"/>
<text text-anchor="start" x="193.5" y="-86.5" font-family="Helvetica,sans-Serif" font-size="10.00">nars.storage.Memory.single</text>
<text text-anchor="middle" x="254" y="-75.5" font-family="Helvetica,sans-Serif" font-size="10.00">PremiseTask</text>
</a>
</g>
</g>
<!-- Node1&#45;&gt;Node10 -->
<g id="edge9" class="edge"><title>Node1&#45;&gt;Node10</title>
<path fill="none" stroke="midnightblue" d="M85.4726,-150.379C104.682,-137.726 133.697,-119.953 161,-108.5 166.809,-106.063 172.925,-103.798 179.128,-101.708"/>
<polygon fill="midnightblue" stroke="midnightblue" points="180.462,-104.956 188.914,-98.5675 178.323,-98.2904 180.462,-104.956"/>
</g>
<!-- Node8 -->
<g id="node8" class="node"><title>Node8</title>
<g id="a_node8"><a xlink:href="../../d3/db8/classnars_1_1entity_1_1TruthValue_a9eac33f2495441c77911a8581a5bbe61.html#a9eac33f2495441c77911a8581a5bbe61" target="_top" xlink:title="Get the frequency value. ">
<polygon fill="none" stroke="black" points="408,-49.5 408,-79.5 537,-79.5 537,-49.5 408,-49.5"/>
<text text-anchor="start" x="416" y="-67.5" font-family="Helvetica,sans-Serif" font-size="10.00">nars.entity.TruthValue.get</text>
<text text-anchor="middle" x="472.5" y="-56.5" font-family="Helvetica,sans-Serif" font-size="10.00">Frequency</text>
</a>
</g>
</g>
<!-- Node7&#45;&gt;Node8 -->
<g id="edge7" class="edge"><title>Node7&#45;&gt;Node8</title>
<path fill="none" stroke="midnightblue" d="M337.467,-49.0227C357.31,-51.3141 378.381,-53.7472 397.795,-55.989"/>
<polygon fill="midnightblue" stroke="midnightblue" points="397.446,-59.4719 407.781,-57.1422 398.249,-52.5181 397.446,-59.4719"/>
</g>
<!-- Node9 -->
<g id="node9" class="node"><title>Node9</title>
<g id="a_node9"><a xlink:href="../../d3/db8/classnars_1_1entity_1_1TruthValue_a68ca7d92e9ea20d2a9a9f578ad7b681c.html#a68ca7d92e9ea20d2a9a9f578ad7b681c" target="_top" xlink:title="Get the confidence value. ">
<polygon fill="none" stroke="black" points="408,-0.5 408,-30.5 537,-30.5 537,-0.5 408,-0.5"/>
<text text-anchor="start" x="416" y="-18.5" font-family="Helvetica,sans-Serif" font-size="10.00">nars.entity.TruthValue.get</text>
<text text-anchor="middle" x="472.5" y="-7.5" font-family="Helvetica,sans-Serif" font-size="10.00">Confidence</text>
</a>
</g>
</g>
<!-- Node7&#45;&gt;Node9 -->
<g id="edge8" class="edge"><title>Node7&#45;&gt;Node9</title>
<path fill="none" stroke="midnightblue" d="M340.877,-29.9801C359.704,-27.8931 379.475,-25.7014 397.775,-23.6728"/>
<polygon fill="midnightblue" stroke="midnightblue" points="398.221,-27.1448 407.775,-22.5642 397.45,-20.1874 398.221,-27.1448"/>
</g>
<!-- Node10&#45;&gt;Node2 -->
<g id="edge10" class="edge"><title>Node10&#45;&gt;Node2</title>
<path fill="none" stroke="midnightblue" d="M321.89,-98.5572C330.519,-101.399 339.094,-104.698 347,-108.5 388.473,-128.445 430.382,-162.632 453.444,-182.944"/>
<polygon fill="midnightblue" stroke="midnightblue" points="451.264,-185.691 461.052,-189.748 455.931,-180.473 451.264,-185.691"/>
</g>
</g>
</svg>
