<?xml version="1.0" encoding="UTF-8" standalone="no"?>
<!DOCTYPE svg PUBLIC "-//W3C//DTD SVG 1.1//EN"
 "http://www.w3.org/Graphics/SVG/1.1/DTD/svg11.dtd">
<!-- Generated by graphviz version 2.38.0 (20140413.2041)
 -->
<!-- Title: nars.inference.StructuralRules.structuralStatement Pages: 1 -->
<svg width="528pt" height="121pt"
 viewBox="0.00 0.00 528.00 121.00" xmlns="http://www.w3.org/2000/svg" xmlns:xlink="http://www.w3.org/1999/xlink">
<g id="graph0" class="graph" transform="scale(1 1) rotate(0) translate(4 117)">
<title>nars.inference.StructuralRules.structuralStatement</title>
<!-- Node1 -->
<g id="node1" class="node"><title>Node1</title>
<polygon fill="#bfbfbf" stroke="black" points="0,-44.5 0,-74.5 131,-74.5 131,-44.5 0,-44.5"/>
<text text-anchor="start" x="8" y="-62.5" font-family="Helvetica,sans-Serif" font-size="10.00">nars.inference.Structural</text>
<text text-anchor="middle" x="65.5" y="-51.5" font-family="Helvetica,sans-Serif" font-size="10.00">Rules.structuralStatement</text>
</g>
<!-- Node2 -->
<g id="node2" class="node"><title>Node2</title>
<g id="a_node2"><a xlink:href="../../dc/ddc/classnars_1_1entity_1_1Task_a091f9ec3bdacfd6741f767cb62b14c0f.html#a091f9ec3bdacfd6741f767cb62b14c0f" target="_top" xlink:title="Directly get the content of the sentence. ">
<polygon fill="none" stroke="black" points="167,-88 167,-107 305,-107 305,-88 167,-88"/>
<text text-anchor="middle" x="236" y="-95" font-family="Helvetica,sans-Serif" font-size="10.00">nars.entity.Task.getContent</text>
</a>
</g>
</g>
<!-- Node1&#45;&gt;Node2 -->
<g id="edge1" class="edge"><title>Node1&#45;&gt;Node2</title>
<path fill="none" stroke="midnightblue" d="M131.165,-74.0831C148.227,-77.931 166.424,-82.0347 182.74,-85.7144"/>
<polygon fill="midnightblue" stroke="midnightblue" points="182.105,-89.159 192.63,-87.9447 183.645,-82.3304 182.105,-89.159"/>
</g>
<!-- Node4 -->
<g id="node4" class="node"><title>Node4</title>
<g id="a_node4"><a xlink:href="../../d8/df4/classnars_1_1storage_1_1Memory_a26eda4f00b333b706b4e3d069fdf1508.html#a26eda4f00b333b706b4e3d069fdf1508" target="_top" xlink:title="The selected Task. ">
<polygon fill="none" stroke="black" points="341,-25 341,-44 520,-44 520,-25 341,-25"/>
<text text-anchor="middle" x="430.5" y="-32" font-family="Helvetica,sans-Serif" font-size="10.00">nars.storage.Memory.getCurrentTask</text>
</a>
</g>
</g>
<!-- Node1&#45;&gt;Node4 -->
<g id="edge3" class="edge"><title>Node1&#45;&gt;Node4</title>
<path fill="none" stroke="midnightblue" d="M131.397,-55.0305C186.856,-51.211 267.503,-45.6568 330.934,-41.2883"/>
<polygon fill="midnightblue" stroke="midnightblue" points="331.224,-44.7767 340.96,-40.5978 330.743,-37.7933 331.224,-44.7767"/>
</g>
<!-- Node5 -->
<g id="node5" class="node"><title>Node5</title>
<g id="a_node5"><a xlink:href="../../d8/df4/classnars_1_1storage_1_1Memory_aec1106814819aa1c8437001c2c4bf1a3.html#aec1106814819aa1c8437001c2c4bf1a3" target="_top" xlink:title="Shared final operations by all single&#45;premise rules, called in StructuralRules. ">
<polygon fill="none" stroke="black" points="167.5,-0.5 167.5,-30.5 304.5,-30.5 304.5,-0.5 167.5,-0.5"/>
<text text-anchor="start" x="175.5" y="-18.5" font-family="Helvetica,sans-Serif" font-size="10.00">nars.storage.Memory.single</text>
<text text-anchor="middle" x="236" y="-7.5" font-family="Helvetica,sans-Serif" font-size="10.00">PremiseTask</text>
</a>
</g>
</g>
<!-- Node1&#45;&gt;Node5 -->
<g id="edge4" class="edge"><title>Node1&#45;&gt;Node5</title>
<path fill="none" stroke="midnightblue" d="M124.017,-44.4808C138.038,-40.8196 153.16,-36.8706 167.595,-33.1013"/>
<polygon fill="midnightblue" stroke="midnightblue" points="168.665,-36.4393 177.456,-30.5262 166.897,-29.6664 168.665,-36.4393"/>
</g>
<!-- Node3 -->
<g id="node3" class="node"><title>Node3</title>
<g id="a_node3"><a xlink:href="../../d6/d25/classnars_1_1entity_1_1Sentence_ad1ded9a02cae3557948d05530cd4d37e.html#ad1ded9a02cae3557948d05530cd4d37e" target="_top" xlink:title="Get the content of the sentence. ">
<polygon fill="none" stroke="black" points="369,-82.5 369,-112.5 492,-112.5 492,-82.5 369,-82.5"/>
<text text-anchor="start" x="377" y="-100.5" font-family="Helvetica,sans-Serif" font-size="10.00">nars.entity.Sentence.get</text>
<text text-anchor="middle" x="430.5" y="-89.5" font-family="Helvetica,sans-Serif" font-size="10.00">Content</text>
</a>
</g>
</g>
<!-- Node2&#45;&gt;Node3 -->
<g id="edge2" class="edge"><title>Node2&#45;&gt;Node3</title>
<path fill="none" stroke="midnightblue" d="M305.139,-97.5C322.498,-97.5 341.195,-97.5 358.684,-97.5"/>
<polygon fill="midnightblue" stroke="midnightblue" points="358.823,-101 368.823,-97.5 358.823,-94.0001 358.823,-101"/>
</g>
<!-- Node5&#45;&gt;Node4 -->
<g id="edge5" class="edge"><title>Node5&#45;&gt;Node4</title>
<path fill="none" stroke="midnightblue" d="M304.598,-22.172C313.098,-23.011 321.927,-23.8824 330.784,-24.7566"/>
<polygon fill="midnightblue" stroke="midnightblue" points="330.484,-28.2439 340.78,-25.7432 331.172,-21.2778 330.484,-28.2439"/>
</g>
</g>
</svg>
