<?xml version="1.0" encoding="UTF-8" standalone="no"?>
<!DOCTYPE svg PUBLIC "-//W3C//DTD SVG 1.1//EN"
 "http://www.w3.org/Graphics/SVG/1.1/DTD/svg11.dtd">
<!-- Generated by graphviz version 2.38.0 (20140413.2041)
 -->
<!-- Title: nars.inference.StructuralRules.transformSubjectPI Pages: 1 -->
<!--zoomable 39 -->
<svg id="main" version="1.1" xmlns="http://www.w3.org/2000/svg" xmlns:xlink="http://www.w3.org/1999/xlink" xml:space="preserve" onload="init(evt)">
<style type="text/css"><![CDATA[
.edge:hover path { stroke: red; }
.edge:hover polygon { stroke: red; fill: red; }
]]></style>
<script type="text/javascript"><![CDATA[
var edges = document.getElementsByTagName('g');
if (edges && edges.length) {
  for (var i=0;i<edges.length;i++) {
    if (edges[i].id.substr(0,4)=='edge') {
      edges[i].setAttribute('class','edge');
    }
  }
}
]]></script>
        <defs>
                <circle id="rim" cx="0" cy="0" r="7"/>
                <circle id="rim2" cx="0" cy="0" r="3.5"/>
                <g id="zoomPlus">
                        <use xlink:href="#rim" fill="#404040">
                                <set attributeName="fill" to="#808080" begin="zoomplus.mouseover" end="zoomplus.mouseout"/>
                        </use>
                        <path d="M-4,0h8M0,-4v8" fill="none" stroke="white" stroke-width="1.5" pointer-events="none"/>
                </g>
                <g id="zoomMin">
                        <use xlink:href="#rim" fill="#404040">
                                <set attributeName="fill" to="#808080" begin="zoomminus.mouseover" end="zoomminus.mouseout"/>
                        </use>
                        <path d="M-4,0h8" fill="none" stroke="white" stroke-width="1.5" pointer-events="none"/>
                </g>
                <g id="dirArrow">
                        <path fill="none" stroke="white" stroke-width="1.5" d="M0,-3.0v7 M-2.5,-0.5L0,-3.0L2.5,-0.5"/>
                </g>
               <g id="resetDef">
                       <use xlink:href="#rim2" fill="#404040">
                               <set attributeName="fill" to="#808080" begin="reset.mouseover" end="reset.mouseout"/>
                       </use>
               </g>
        </defs>

<script type="text/javascript">
var viewWidth = 2101;
var viewHeight = 39;
var sectionId = 'dynsection-1';
</script>
<script xlink:href="../../svgpan.js"/>
<svg id="graph" class="graph">
<g id="viewport">
<title>nars.inference.StructuralRules.transformSubjectPI</title>
<!-- Node1 -->
<g id="node1" class="node"><title>Node1</title>
<polygon fill="#bfbfbf" stroke="black" points="0,-0.5 0,-30.5 129,-30.5 129,-0.5 0,-0.5"/>
<text text-anchor="start" x="8" y="-18.5" font-family="Helvetica,sans-Serif" font-size="10.00">nars.inference.Structural</text>
<text text-anchor="middle" x="64.5" y="-7.5" font-family="Helvetica,sans-Serif" font-size="10.00">Rules.transformSubjectPI</text>
</g>
<!-- Node2 -->
<g id="node2" class="node"><title>Node2</title>
<g id="a_node2"><a xlink:href="../../db/d49/classnars_1_1inference_1_1StructuralRules_a6f7188931508f5b84e6de02301bf798d.html#a6f7188931508f5b84e6de02301bf798d" target="_top" xlink:title="Equivalent transformation between products and images {&lt;(*, S, M) –&gt; P&gt;, S@(*, S, M)} |&#45; &lt;S &#45;&#45;&gt; (/, P, _, M)&gt; {&lt;S &#45;&#45;&gt; (/, P, _, M)&gt;, P@(/, P, _, M)} |&#45; &lt;(*, S, M) –&gt; P&gt; {&lt;S &#45;&#45;&gt; (/, P, _, M)&gt;, M@(/, P, _, M)} |&#45; &lt;M &#45;&#45;&gt; (/, P, S, _)&gt; ">
<polygon fill="none" stroke="black" points="165,-0.5 165,-30.5 312,-30.5 312,-0.5 165,-0.5"/>
<text text-anchor="start" x="173" y="-18.5" font-family="Helvetica,sans-Serif" font-size="10.00">nars.inference.Structural</text>
<text text-anchor="middle" x="238.5" y="-7.5" font-family="Helvetica,sans-Serif" font-size="10.00">Rules.transformProductImage</text>
</a>
</g>
</g>
<!-- Node1&#45;&gt;Node2 -->
<g id="edge1" class="edge"><title>Node1&#45;&gt;Node2</title>
<path fill="none" stroke="midnightblue" d="M139.308,-15.5C147.796,-15.5 156.445,-15.5 164.917,-15.5"/>
<polygon fill="midnightblue" stroke="midnightblue" points="139.058,-12.0001 129.058,-15.5 139.058,-19.0001 139.058,-12.0001"/>
</g>
<!-- Node3 -->
<g id="node3" class="node"><title>Node3</title>
<g id="a_node3"><a xlink:href="../../da/de3/classnars_1_1inference_1_1RuleTables_a61c932b424464483bd80c783294ab446.html#a61c932b424464483bd80c783294ab446" target="_top" xlink:title="The TaskLink is of type TRANSFORM, and the conclusion is an equivalent transformation. ">
<polygon fill="none" stroke="black" points="348,-6 348,-25 545,-25 545,-6 348,-6"/>
<text text-anchor="middle" x="446.5" y="-13" font-family="Helvetica,sans-Serif" font-size="10.00">nars.inference.RuleTables.transformTask</text>
</a>
</g>
</g>
<!-- Node2&#45;&gt;Node3 -->
<g id="edge2" class="edge"><title>Node2&#45;&gt;Node3</title>
<path fill="none" stroke="midnightblue" d="M322.298,-15.5C330.726,-15.5 339.341,-15.5 347.906,-15.5"/>
<polygon fill="midnightblue" stroke="midnightblue" points="322.128,-12.0001 312.128,-15.5 322.128,-19.0001 322.128,-12.0001"/>
</g>
<!-- Node4 -->
<g id="node4" class="node"><title>Node4</title>
<g id="a_node4"><a xlink:href="../../d4/d22/classnars_1_1entity_1_1Concept_ae07576c8466ad65eeb61040e3f71cfc7.html#ae07576c8466ad65eeb61040e3f71cfc7" target="_top" xlink:title="An atomic step in a concept, only called in Memory# processConcept. ">
<polygon fill="none" stroke="black" points="581,-6 581,-25 700,-25 700,-6 581,-6"/>
<text text-anchor="middle" x="640.5" y="-13" font-family="Helvetica,sans-Serif" font-size="10.00">nars.entity.Concept.fire</text>
</a>
</g>
</g>
<!-- Node3&#45;&gt;Node4 -->
<g id="edge3" class="edge"><title>Node3&#45;&gt;Node4</title>
<path fill="none" stroke="midnightblue" d="M555.194,-15.5C564.021,-15.5 572.714,-15.5 580.969,-15.5"/>
<polygon fill="midnightblue" stroke="midnightblue" points="555.187,-12.0001 545.187,-15.5 555.187,-19.0001 555.187,-12.0001"/>
</g>
<!-- Node5 -->
<g id="node5" class="node"><title>Node5</title>
<g id="a_node5"><a xlink:href="../../d8/df4/classnars_1_1storage_1_1Memory_a83154b55b922c82b73931d4f22e3a590.html#a83154b55b922c82b73931d4f22e3a590" target="_top" xlink:title="Select a concept to fire. ">
<polygon fill="none" stroke="black" points="736,-0.5 736,-30.5 882,-30.5 882,-0.5 736,-0.5"/>
<text text-anchor="start" x="744" y="-18.5" font-family="Helvetica,sans-Serif" font-size="10.00">nars.storage.Memory.process</text>
<text text-anchor="middle" x="809" y="-7.5" font-family="Helvetica,sans-Serif" font-size="10.00">Concept</text>
</a>
</g>
</g>
<!-- Node4&#45;&gt;Node5 -->
<g id="edge4" class="edge"><title>Node4&#45;&gt;Node5</title>
<path fill="none" stroke="midnightblue" d="M710.337,-15.5C718.748,-15.5 727.361,-15.5 735.819,-15.5"/>
<polygon fill="midnightblue" stroke="midnightblue" points="710.202,-12.0001 700.202,-15.5 710.202,-19.0001 710.202,-12.0001"/>
</g>
<!-- Node6 -->
<g id="node6" class="node"><title>Node6</title>
<g id="a_node6"><a xlink:href="../../d8/df4/classnars_1_1storage_1_1Memory_a49e2cbc8b78d535f4d69739886ee966a.html#a49e2cbc8b78d535f4d69739886ee966a" target="_top" xlink:title="An atomic working workCycle of the system: process new Tasks, then fire a concept. ">
<polygon fill="none" stroke="black" points="918,-0.5 918,-30.5 1051,-30.5 1051,-0.5 918,-0.5"/>
<text text-anchor="start" x="926" y="-18.5" font-family="Helvetica,sans-Serif" font-size="10.00">nars.storage.Memory.work</text>
<text text-anchor="middle" x="984.5" y="-7.5" font-family="Helvetica,sans-Serif" font-size="10.00">Cycle</text>
</a>
</g>
</g>
<!-- Node5&#45;&gt;Node6 -->
<g id="edge5" class="edge"><title>Node5&#45;&gt;Node6</title>
<path fill="none" stroke="midnightblue" d="M892.118,-15.5C900.716,-15.5 909.375,-15.5 917.755,-15.5"/>
<polygon fill="midnightblue" stroke="midnightblue" points="892.072,-12.0001 882.072,-15.5 892.072,-19.0001 892.072,-12.0001"/>
</g>
<!-- Node7 -->
<g id="node7" class="node"><title>Node7</title>
<g id="a_node7"><a xlink:href="../../dd/da5/classnars_1_1storage_1_1Memory_1_1ReasonerBatch_acc60dec23da774957a85362ed6d7448b.html#acc60dec23da774957a85362ed6d7448b" target="_top" xlink:title="nars.storage.Memory.Reasoner\lBatch.doTick">
<polygon fill="none" stroke="black" points="1087,-0.5 1087,-30.5 1241,-30.5 1241,-0.5 1087,-0.5"/>
<text text-anchor="start" x="1095" y="-18.5" font-family="Helvetica,sans-Serif" font-size="10.00">nars.storage.Memory.Reasoner</text>
<text text-anchor="middle" x="1164" y="-7.5" font-family="Helvetica,sans-Serif" font-size="10.00">Batch.doTick</text>
</a>
</g>
</g>
<!-- Node6&#45;&gt;Node7 -->
<g id="edge6" class="edge"><title>Node6&#45;&gt;Node7</title>
<path fill="none" stroke="midnightblue" d="M1061.32,-15.5C1069.79,-15.5 1078.41,-15.5 1086.89,-15.5"/>
<polygon fill="midnightblue" stroke="midnightblue" points="1061.09,-12.0001 1051.09,-15.5 1061.09,-19.0001 1061.09,-12.0001"/>
</g>
<!-- Node8 -->
<g id="node8" class="node"><title>Node8</title>
<g id="a_node8"><a xlink:href="../../dd/da5/classnars_1_1storage_1_1Memory_1_1ReasonerBatch_aed591f05899b98fd9e4ad01836ad0a40.html#aed591f05899b98fd9e4ad01836ad0a40" target="_top" xlink:title="A clock tick. ">
<polygon fill="none" stroke="black" points="1277,-0.5 1277,-30.5 1431,-30.5 1431,-0.5 1277,-0.5"/>
<text text-anchor="start" x="1285" y="-18.5" font-family="Helvetica,sans-Serif" font-size="10.00">nars.storage.Memory.Reasoner</text>
<text text-anchor="middle" x="1354" y="-7.5" font-family="Helvetica,sans-Serif" font-size="10.00">Batch.tick</text>
</a>
</g>
</g>
<!-- Node7&#45;&gt;Node8 -->
<g id="edge7" class="edge"><title>Node7&#45;&gt;Node8</title>
<path fill="none" stroke="midnightblue" d="M1251.42,-15.5C1259.86,-15.5 1268.37,-15.5 1276.7,-15.5"/>
<polygon fill="midnightblue" stroke="midnightblue" points="1251.2,-12.0001 1241.2,-15.5 1251.2,-19.0001 1251.2,-12.0001"/>
</g>
<!-- Node9 -->
<g id="node9" class="node"><title>Node9</title>
<g id="a_node9"><a xlink:href="../../d4/d88/classnars_1_1storage_1_1Memory_1_1NARSBatch_aad99db6cedde9cff2a997db8906ff821.html#aad99db6cedde9cff2a997db8906ff821" target="_top" xlink:title="Run to completion: repeatedly execute NARS working cycle, until Inputs are Finished, or 1000 steps. ">
<polygon fill="none" stroke="black" points="1467,-6 1467,-25 1649,-25 1649,-6 1467,-6"/>
<text text-anchor="middle" x="1558" y="-13" font-family="Helvetica,sans-Serif" font-size="10.00">nars.storage.Memory.NARSBatch.run</text>
</a>
</g>
</g>
<!-- Node8&#45;&gt;Node9 -->
<g id="edge8" class="edge"><title>Node8&#45;&gt;Node9</title>
<path fill="none" stroke="midnightblue" d="M1441.27,-15.5C1449.69,-15.5 1458.25,-15.5 1466.71,-15.5"/>
<polygon fill="midnightblue" stroke="midnightblue" points="1441.08,-12.0001 1431.08,-15.5 1441.08,-19.0001 1441.08,-12.0001"/>
</g>
<!-- Node10 -->
<g id="node10" class="node"><title>Node10</title>
<g id="a_node10"><a xlink:href="../../d4/d88/classnars_1_1storage_1_1Memory_1_1NARSBatch_a416c39463faa161661ed1d12fea03b3c.html#a416c39463faa161661ed1d12fea03b3c" target="_top" xlink:title="non&#45;static equivalent to main(String[]) : run to completion from an input file ">
<polygon fill="none" stroke="black" points="1685,-0.5 1685,-30.5 1867,-30.5 1867,-0.5 1685,-0.5"/>
<text text-anchor="start" x="1693" y="-18.5" font-family="Helvetica,sans-Serif" font-size="10.00">nars.storage.Memory.NARSBatch.run</text>
<text text-anchor="middle" x="1776" y="-7.5" font-family="Helvetica,sans-Serif" font-size="10.00">Inference</text>
</a>
</g>
</g>
<!-- Node9&#45;&gt;Node10 -->
<g id="edge9" class="edge"><title>Node9&#45;&gt;Node10</title>
<path fill="none" stroke="midnightblue" d="M1659.06,-15.5C1667.63,-15.5 1676.27,-15.5 1684.76,-15.5"/>
<polygon fill="midnightblue" stroke="midnightblue" points="1659.04,-12.0001 1649.04,-15.5 1659.04,-19.0001 1659.04,-12.0001"/>
</g>
<!-- Node11 -->
<g id="node11" class="node"><title>Node11</title>
<g id="a_node11"><a xlink:href="../../d4/d88/classnars_1_1storage_1_1Memory_1_1NARSBatch_aa97fcd68270583e60e6bf1b4579d1bdc.html#aa97fcd68270583e60e6bf1b4579d1bdc" target="_top" xlink:title="The entry point of the standalone application. ">
<polygon fill="none" stroke="black" points="1903,-6 1903,-25 2093,-25 2093,-6 1903,-6"/>
<text text-anchor="middle" x="1998" y="-13" font-family="Helvetica,sans-Serif" font-size="10.00">nars.storage.Memory.NARSBatch.main</text>
</a>
</g>
</g>
<!-- Node10&#45;&gt;Node11 -->
<g id="edge10" class="edge"><title>Node10&#45;&gt;Node11</title>
<path fill="none" stroke="midnightblue" d="M1877.37,-15.5C1885.82,-15.5 1894.34,-15.5 1902.74,-15.5"/>
<polygon fill="midnightblue" stroke="midnightblue" points="1877.12,-12.0001 1867.12,-15.5 1877.12,-19.0001 1877.12,-12.0001"/>
</g>
</g>
</svg>
        <g id="navigator" transform="translate(0 0)" fill="#404254">
                <rect fill="#f2f5e9" fill-opacity="0.5" stroke="#606060" stroke-width=".5" x="0" y="0" width="60" height="60"/>
                <use id="zoomplus" xlink:href="#zoomPlus" x="17" y="9" onmousedown="handleZoom(evt,'in')"/>
                <use id="zoomminus" xlink:href="#zoomMin" x="42" y="9" onmousedown="handleZoom(evt,'out')"/>
                <use id="reset" xlink:href="#resetDef" x="30" y="36" onmousedown="handleReset()"/>
                <g id="arrowUp" xlink:href="#dirArrow" transform="translate(30 24)" onmousedown="handlePan(0,-1)">
                  <use xlink:href="#rim" fill="#404040">
                        <set attributeName="fill" to="#808080" begin="arrowUp.mouseover" end="arrowUp.mouseout"/>
                  </use>
                  <path fill="none" stroke="white" stroke-width="1.5" d="M0,-3.0v7 M-2.5,-0.5L0,-3.0L2.5,-0.5"/>
                </g>
                <g id="arrowRight" xlink:href="#dirArrow" transform="rotate(90) translate(36 -43)" onmousedown="handlePan(1,0)">
                  <use xlink:href="#rim" fill="#404040">
                        <set attributeName="fill" to="#808080" begin="arrowRight.mouseover" end="arrowRight.mouseout"/>
                  </use>
                  <path fill="none" stroke="white" stroke-width="1.5" d="M0,-3.0v7 M-2.5,-0.5L0,-3.0L2.5,-0.5"/>
                </g>
                <g id="arrowDown" xlink:href="#dirArrow" transform="rotate(180) translate(-30 -48)" onmousedown="handlePan(0,1)">
                  <use xlink:href="#rim" fill="#404040">
                        <set attributeName="fill" to="#808080" begin="arrowDown.mouseover" end="arrowDown.mouseout"/>
                  </use>
                  <path fill="none" stroke="white" stroke-width="1.5" d="M0,-3.0v7 M-2.5,-0.5L0,-3.0L2.5,-0.5"/>
                </g>
                <g id="arrowLeft" xlink:href="#dirArrow" transform="rotate(270) translate(-36 17)" onmousedown="handlePan(-1,0)">
                  <use xlink:href="#rim" fill="#404040">
                        <set attributeName="fill" to="#808080" begin="arrowLeft.mouseover" end="arrowLeft.mouseout"/>
                  </use>
                  <path fill="none" stroke="white" stroke-width="1.5" d="M0,-3.0v7 M-2.5,-0.5L0,-3.0L2.5,-0.5"/>
                </g>
        </g>
        <svg viewBox="0 0 15 15" width="100%" height="30px" preserveAspectRatio="xMaxYMin meet">
         <g id="arrow_out" transform="scale(0.3 0.3)">
          <a xlink:href="classnars_1_1inference_1_1StructuralRules_a45ae086cf44c9f32cbe9a729f2419594_a45ae086cf44c9f32cbe9a729f2419594_icgraph_org.svg" target="_base">
           <rect id="button" ry="5" rx="5" y="6" x="6" height="38" width="38"
                fill="#f2f5e9" fill-opacity="0.5" stroke="#606060" stroke-width="1.0"/>
           <path id="arrow"
             d="M 11.500037,31.436501 C 11.940474,20.09759 22.043105,11.32322 32.158766,21.979434 L 37.068811,17.246167 C 37.068811,17.246167 37.088388,32 37.088388,32 L 22.160133,31.978069 C 22.160133,31.978069 26.997745,27.140456 26.997745,27.140456 C 18.528582,18.264221 13.291696,25.230495 11.500037,31.436501 z"
             style="fill:#404040;"/>
          </a>
         </g>
        </svg>
</svg>
