<?xml version="1.0" encoding="UTF-8" standalone="no"?>
<!DOCTYPE svg PUBLIC "-//W3C//DTD SVG 1.1//EN"
 "http://www.w3.org/Graphics/SVG/1.1/DTD/svg11.dtd">
<!-- Generated by graphviz version 2.38.0 (20140413.2041)
 -->
<!-- Title: nars.storage.Bag.toString Pages: 1 -->
<svg width="309pt" height="137pt"
 viewBox="0.00 0.00 309.00 137.00" xmlns="http://www.w3.org/2000/svg" xmlns:xlink="http://www.w3.org/1999/xlink">
<g id="graph0" class="graph" transform="scale(1 1) rotate(0) translate(4 133)">
<title>nars.storage.Bag.toString</title>
<!-- Node1 -->
<g id="node1" class="node"><title>Node1</title>
<polygon fill="#bfbfbf" stroke="black" points="0,-55 0,-74 128,-74 128,-55 0,-55"/>
<text text-anchor="middle" x="64" y="-62" font-family="Helvetica,sans-Serif" font-size="10.00">nars.storage.Bag.toString</text>
</g>
<!-- Node2 -->
<g id="node2" class="node"><title>Node2</title>
<g id="a_node2"><a xlink:href="../../d9/d37/classnars_1_1storage_1_1Bag_a73a559e1b77e6bc3a7db686816accef2.html#a73a559e1b77e6bc3a7db686816accef2" target="_top" xlink:title="To start displaying the Bag in a BagWindow. ">
<polygon fill="none" stroke="black" points="164,-98.5 164,-128.5 301,-128.5 301,-98.5 164,-98.5"/>
<text text-anchor="start" x="172" y="-116.5" font-family="Helvetica,sans-Serif" font-size="10.00">nars.storage.Bag&lt; Concept</text>
<text text-anchor="middle" x="232.5" y="-105.5" font-family="Helvetica,sans-Serif" font-size="10.00"> &gt;::addBagObserver</text>
</a>
</g>
</g>
<!-- Node1&#45;&gt;Node2 -->
<g id="edge1" class="edge"><title>Node1&#45;&gt;Node2</title>
<path fill="none" stroke="midnightblue" d="M107.318,-76.9541C129.559,-83.4992 156.987,-91.5713 180.405,-98.463"/>
<polygon fill="midnightblue" stroke="midnightblue" points="108.079,-73.5297 97.4981,-74.064 106.103,-80.2449 108.079,-73.5297"/>
</g>
<!-- Node3 -->
<g id="node3" class="node"><title>Node3</title>
<g id="a_node3"><a xlink:href="../../d9/d37/classnars_1_1storage_1_1Bag_aa47288dac94f3473bcb77afe929c0fc4.html#aa47288dac94f3473bcb77afe929c0fc4" target="_top" xlink:title="Resume display. ">
<polygon fill="none" stroke="black" points="164,-49.5 164,-79.5 301,-79.5 301,-49.5 164,-49.5"/>
<text text-anchor="start" x="172" y="-67.5" font-family="Helvetica,sans-Serif" font-size="10.00">nars.storage.Bag&lt; Concept</text>
<text text-anchor="middle" x="232.5" y="-56.5" font-family="Helvetica,sans-Serif" font-size="10.00"> &gt;::play</text>
</a>
</g>
</g>
<!-- Node1&#45;&gt;Node3 -->
<g id="edge2" class="edge"><title>Node1&#45;&gt;Node3</title>
<path fill="none" stroke="midnightblue" d="M138.576,-64.5C146.974,-64.5 155.505,-64.5 163.821,-64.5"/>
<polygon fill="midnightblue" stroke="midnightblue" points="138.422,-61.0001 128.421,-64.5 138.421,-68.0001 138.422,-61.0001"/>
</g>
<!-- Node4 -->
<g id="node4" class="node"><title>Node4</title>
<g id="a_node4"><a xlink:href="../../d9/d37/classnars_1_1storage_1_1Bag_a61e1d32c91214e604ad392549bea1e7a.html#a61e1d32c91214e604ad392549bea1e7a" target="_top" xlink:title="Refresh display. ">
<polygon fill="none" stroke="black" points="164,-0.5 164,-30.5 301,-30.5 301,-0.5 164,-0.5"/>
<text text-anchor="start" x="172" y="-18.5" font-family="Helvetica,sans-Serif" font-size="10.00">nars.storage.Bag&lt; Concept</text>
<text text-anchor="middle" x="232.5" y="-7.5" font-family="Helvetica,sans-Serif" font-size="10.00"> &gt;::refresh</text>
</a>
</g>
</g>
<!-- Node1&#45;&gt;Node4 -->
<g id="edge3" class="edge"><title>Node1&#45;&gt;Node4</title>
<path fill="none" stroke="midnightblue" d="M107.318,-52.0459C129.559,-45.5008 156.987,-37.4287 180.405,-30.537"/>
<polygon fill="midnightblue" stroke="midnightblue" points="106.103,-48.7551 97.4981,-54.936 108.079,-55.4703 106.103,-48.7551"/>
</g>
</g>
</svg>
