<?xml version="1.0" encoding="UTF-8" standalone="no"?>
<!DOCTYPE svg PUBLIC "-//W3C//DTD SVG 1.1//EN"
 "http://www.w3.org/Graphics/SVG/1.1/DTD/svg11.dtd">
<!-- Generated by graphviz version 2.38.0 (20140413.2041)
 -->
<!-- Title: nars.storage.Bag.addBagObserver Pages: 1 -->
<svg width="363pt" height="127pt"
 viewBox="0.00 0.00 363.00 127.00" xmlns="http://www.w3.org/2000/svg" xmlns:xlink="http://www.w3.org/1999/xlink">
<g id="graph0" class="graph" transform="scale(1 1) rotate(0) translate(4 123)">
<title>nars.storage.Bag.addBagObserver</title>
<!-- Node1 -->
<g id="node1" class="node"><title>Node1</title>
<polygon fill="#bfbfbf" stroke="black" points="0,-50 0,-69 167,-69 167,-50 0,-50"/>
<text text-anchor="middle" x="83.5" y="-57" font-family="Helvetica,sans-Serif" font-size="10.00">nars.storage.Bag.addBagObserver</text>
</g>
<!-- Node2 -->
<g id="node2" class="node"><title>Node2</title>
<g id="a_node2"><a xlink:href="../../d8/df4/classnars_1_1storage_1_1Memory_a46268d511b467d42cd9ff1b2696ebbd7.html#a46268d511b467d42cd9ff1b2696ebbd7" target="_top" xlink:title="Display active concepts, called from MainWindow. ">
<polygon fill="none" stroke="black" points="203,-88.5 203,-118.5 355,-118.5 355,-88.5 203,-88.5"/>
<text text-anchor="start" x="211" y="-106.5" font-family="Helvetica,sans-Serif" font-size="10.00">nars.storage.Memory.concepts</text>
<text text-anchor="middle" x="279" y="-95.5" font-family="Helvetica,sans-Serif" font-size="10.00">StartPlay</text>
</a>
</g>
</g>
<!-- Node1&#45;&gt;Node2 -->
<g id="edge1" class="edge"><title>Node1&#45;&gt;Node2</title>
<path fill="none" stroke="midnightblue" d="M136.451,-71.3132C159.6,-76.5769 187.139,-82.8391 211.747,-88.4346"/>
<polygon fill="midnightblue" stroke="midnightblue" points="137.014,-67.8518 126.487,-69.0473 135.462,-74.6776 137.014,-67.8518"/>
</g>
<!-- Node3 -->
<g id="node3" class="node"><title>Node3</title>
<g id="a_node3"><a xlink:href="../../d4/d22/classnars_1_1entity_1_1Concept_a5a010290c8c42603dd13387f415abf43.html#a5a010290c8c42603dd13387f415abf43" target="_top" xlink:title="Start displaying contents and links, called from ConceptWindow, TermWindow or Memory.processTask only. ">
<polygon fill="none" stroke="black" points="207,-50 207,-69 351,-69 351,-50 207,-50"/>
<text text-anchor="middle" x="279" y="-57" font-family="Helvetica,sans-Serif" font-size="10.00">nars.entity.Concept.startPlay</text>
</a>
</g>
</g>
<!-- Node1&#45;&gt;Node3 -->
<g id="edge2" class="edge"><title>Node1&#45;&gt;Node3</title>
<path fill="none" stroke="midnightblue" d="M177.426,-59.5C187.348,-59.5 197.325,-59.5 206.936,-59.5"/>
<polygon fill="midnightblue" stroke="midnightblue" points="177.123,-56.0001 167.123,-59.5 177.123,-63.0001 177.123,-56.0001"/>
</g>
<!-- Node4 -->
<g id="node4" class="node"><title>Node4</title>
<g id="a_node4"><a xlink:href="../../d8/df4/classnars_1_1storage_1_1Memory_a8a2bb1cc322626bc711f1233e4fd281b.html#a8a2bb1cc322626bc711f1233e4fd281b" target="_top" xlink:title="Display new tasks, called from MainWindow. ">
<polygon fill="none" stroke="black" points="213.5,-0.5 213.5,-30.5 344.5,-30.5 344.5,-0.5 213.5,-0.5"/>
<text text-anchor="start" x="221.5" y="-18.5" font-family="Helvetica,sans-Serif" font-size="10.00">nars.storage.Memory.task</text>
<text text-anchor="middle" x="279" y="-7.5" font-family="Helvetica,sans-Serif" font-size="10.00">BuffersStartPlay</text>
</a>
</g>
</g>
<!-- Node1&#45;&gt;Node4 -->
<g id="edge3" class="edge"><title>Node1&#45;&gt;Node4</title>
<path fill="none" stroke="midnightblue" d="M136.318,-47.7172C159.968,-42.3393 188.223,-35.9144 213.256,-30.2221"/>
<polygon fill="midnightblue" stroke="midnightblue" points="135.462,-44.3224 126.487,-49.9527 137.014,-51.1482 135.462,-44.3224"/>
</g>
</g>
</svg>
