<?xml version="1.0" encoding="UTF-8" standalone="no"?>
<!DOCTYPE svg PUBLIC "-//W3C//DTD SVG 1.1//EN"
 "http://www.w3.org/Graphics/SVG/1.1/DTD/svg11.dtd">
<!-- Generated by graphviz version 2.38.0 (20140413.2041)
 -->
<!-- Title: nars.storage.Bag.putIn Pages: 1 -->
<!--zoomable 270 -->
<svg id="main" version="1.1" xmlns="http://www.w3.org/2000/svg" xmlns:xlink="http://www.w3.org/1999/xlink" xml:space="preserve" onload="init(evt)">
<style type="text/css"><![CDATA[
.edge:hover path { stroke: red; }
.edge:hover polygon { stroke: red; fill: red; }
]]></style>
<script type="text/javascript"><![CDATA[
var edges = document.getElementsByTagName('g');
if (edges && edges.length) {
  for (var i=0;i<edges.length;i++) {
    if (edges[i].id.substr(0,4)=='edge') {
      edges[i].setAttribute('class','edge');
    }
  }
}
]]></script>
        <defs>
                <circle id="rim" cx="0" cy="0" r="7"/>
                <circle id="rim2" cx="0" cy="0" r="3.5"/>
                <g id="zoomPlus">
                        <use xlink:href="#rim" fill="#404040">
                                <set attributeName="fill" to="#808080" begin="zoomplus.mouseover" end="zoomplus.mouseout"/>
                        </use>
                        <path d="M-4,0h8M0,-4v8" fill="none" stroke="white" stroke-width="1.5" pointer-events="none"/>
                </g>
                <g id="zoomMin">
                        <use xlink:href="#rim" fill="#404040">
                                <set attributeName="fill" to="#808080" begin="zoomminus.mouseover" end="zoomminus.mouseout"/>
                        </use>
                        <path d="M-4,0h8" fill="none" stroke="white" stroke-width="1.5" pointer-events="none"/>
                </g>
                <g id="dirArrow">
                        <path fill="none" stroke="white" stroke-width="1.5" d="M0,-3.0v7 M-2.5,-0.5L0,-3.0L2.5,-0.5"/>
                </g>
               <g id="resetDef">
                       <use xlink:href="#rim2" fill="#404040">
                               <set attributeName="fill" to="#808080" begin="reset.mouseover" end="reset.mouseout"/>
                       </use>
               </g>
        </defs>

<script type="text/javascript">
var viewWidth = 2394;
var viewHeight = 270;
var sectionId = 'dynsection-0';
</script>
<script xlink:href="../../svgpan.js"/>
<svg id="graph" class="graph">
<g id="viewport">
<title>nars.storage.Bag.putIn</title>
<!-- Node1 -->
<g id="node1" class="node"><title>Node1</title>
<polygon fill="#bfbfbf" stroke="black" points="0,-126 0,-145 116,-145 116,-126 0,-126"/>
<text text-anchor="middle" x="58" y="-133" font-family="Helvetica,sans-Serif" font-size="10.00">nars.storage.Bag.putIn</text>
</g>
<!-- Node2 -->
<g id="node2" class="node"><title>Node2</title>
<g id="a_node2"><a xlink:href="../../d8/df4/classnars_1_1storage_1_1Memory_a3f45cdc40973611106276cfbc27a7a7a.html#a3f45cdc40973611106276cfbc27a7a7a" target="_top" xlink:title="Get the Concept associated to a Term, or create it. ">
<polygon fill="none" stroke="black" points="152,-126 152,-145 314,-145 314,-126 152,-126"/>
<text text-anchor="middle" x="233" y="-133" font-family="Helvetica,sans-Serif" font-size="10.00">nars.storage.Memory.getConcept</text>
</a>
</g>
</g>
<!-- Node1&#45;&gt;Node2 -->
<g id="edge1" class="edge"><title>Node1&#45;&gt;Node2</title>
<path fill="none" stroke="midnightblue" d="M126.198,-135.5C134.577,-135.5 143.211,-135.5 151.763,-135.5"/>
<polygon fill="midnightblue" stroke="midnightblue" points="126.126,-132 116.126,-135.5 126.126,-139 126.126,-132"/>
</g>
<!-- Node6 -->
<g id="node6" class="node"><title>Node6</title>
<g id="a_node6"><a xlink:href="../../d8/df4/classnars_1_1storage_1_1Memory_a105e44a3504921cc1036eb979b85d9f0.html#a105e44a3504921cc1036eb979b85d9f0" target="_top" xlink:title="Process the newTasks accumulated in the previous workCycle, accept input ones and those that correspo...">
<polygon fill="none" stroke="black" points="1029,-44.5 1029,-74.5 1175,-74.5 1175,-44.5 1029,-44.5"/>
<text text-anchor="start" x="1037" y="-62.5" font-family="Helvetica,sans-Serif" font-size="10.00">nars.storage.Memory.process</text>
<text text-anchor="middle" x="1102" y="-51.5" font-family="Helvetica,sans-Serif" font-size="10.00">NewTask</text>
</a>
</g>
</g>
<!-- Node1&#45;&gt;Node6 -->
<g id="edge22" class="edge"><title>Node1&#45;&gt;Node6</title>
<path fill="none" stroke="midnightblue" d="M94.7964,-122.571C158.159,-100.878 294.603,-59.5 413.5,-59.5 413.5,-59.5 413.5,-59.5 736.5,-59.5 837.908,-59.5 955.186,-59.5 1028.73,-59.5"/>
<polygon fill="midnightblue" stroke="midnightblue" points="93.5702,-119.292 85.2684,-125.875 95.8632,-125.906 93.5702,-119.292"/>
</g>
<!-- Node15 -->
<g id="node15" class="node"><title>Node15</title>
<g id="a_node15"><a xlink:href="../../d4/d22/classnars_1_1entity_1_1Concept_aef21f5ae7bef5194bd37ae526302843d.html#aef21f5ae7bef5194bd37ae526302843d" target="_top" xlink:title="Insert a TaskLink into the TaskLink bag. ">
<polygon fill="none" stroke="black" points="350,-231.5 350,-261.5 479,-261.5 479,-231.5 350,-231.5"/>
<text text-anchor="start" x="358" y="-249.5" font-family="Helvetica,sans-Serif" font-size="10.00">nars.entity.Concept.insert</text>
<text text-anchor="middle" x="414.5" y="-238.5" font-family="Helvetica,sans-Serif" font-size="10.00">TaskLink</text>
</a>
</g>
</g>
<!-- Node1&#45;&gt;Node15 -->
<g id="edge18" class="edge"><title>Node1&#45;&gt;Node15</title>
<path fill="none" stroke="midnightblue" d="M76.2551,-152.37C93.8067,-168.481 122.545,-192.089 152,-204.5 215.983,-231.46 295.466,-241.228 349.903,-244.706"/>
<polygon fill="midnightblue" stroke="midnightblue" points="78.2629,-149.454 68.5834,-145.146 73.4639,-154.55 78.2629,-149.454"/>
</g>
<!-- Node16 -->
<g id="node16" class="node"><title>Node16</title>
<g id="a_node16"><a xlink:href="../../d4/d22/classnars_1_1entity_1_1Concept_a3c69b71b1987ca4066c9b3d2a7973dd1.html#a3c69b71b1987ca4066c9b3d2a7973dd1" target="_top" xlink:title="Insert a TermLink into the TermLink bag. ">
<polygon fill="none" stroke="black" points="168.5,-164.5 168.5,-194.5 297.5,-194.5 297.5,-164.5 168.5,-164.5"/>
<text text-anchor="start" x="176.5" y="-182.5" font-family="Helvetica,sans-Serif" font-size="10.00">nars.entity.Concept.insert</text>
<text text-anchor="middle" x="233" y="-171.5" font-family="Helvetica,sans-Serif" font-size="10.00">TermLink</text>
</a>
</g>
</g>
<!-- Node1&#45;&gt;Node16 -->
<g id="edge20" class="edge"><title>Node1&#45;&gt;Node16</title>
<path fill="none" stroke="midnightblue" d="M106.285,-147.526C126.805,-152.745 151.061,-158.914 172.766,-164.435"/>
<polygon fill="midnightblue" stroke="midnightblue" points="107.093,-144.12 96.5384,-145.047 105.367,-150.904 107.093,-144.12"/>
</g>
<!-- Node17 -->
<g id="node17" class="node"><title>Node17</title>
<g id="a_node17"><a xlink:href="../../d9/d37/classnars_1_1storage_1_1Bag_a64b0b75c54e6882a28702d7810094656.html#a64b0b75c54e6882a28702d7810094656" target="_top" xlink:title="Put an item back into the itemTable. ">
<polygon fill="none" stroke="black" points="164.5,-0.5 164.5,-30.5 301.5,-30.5 301.5,-0.5 164.5,-0.5"/>
<text text-anchor="start" x="172.5" y="-18.5" font-family="Helvetica,sans-Serif" font-size="10.00">nars.storage.Bag&lt; Concept</text>
<text text-anchor="middle" x="233" y="-7.5" font-family="Helvetica,sans-Serif" font-size="10.00"> &gt;::putBack</text>
</a>
</g>
</g>
<!-- Node1&#45;&gt;Node17 -->
<g id="edge23" class="edge"><title>Node1&#45;&gt;Node17</title>
<path fill="none" stroke="midnightblue" d="M73.1033,-118.059C90.0149,-98.13 120.097,-65.6748 152,-45.5 161.277,-39.6332 171.876,-34.6515 182.256,-30.5333"/>
<polygon fill="midnightblue" stroke="midnightblue" points="70.4006,-115.835 66.6949,-125.761 75.7815,-120.312 70.4006,-115.835"/>
</g>
<!-- Node3 -->
<g id="node3" class="node"><title>Node3</title>
<g id="a_node3"><a xlink:href="../../d4/d22/classnars_1_1entity_1_1Concept_a501121a11fc046eea4b69720cb622d84.html#a501121a11fc046eea4b69720cb622d84" target="_top" xlink:title="Link to a new task from all relevant concepts for continued processing in the near future for unspeci...">
<polygon fill="none" stroke="black" points="515,-154.5 515,-184.5 635,-184.5 635,-154.5 515,-154.5"/>
<text text-anchor="start" x="523" y="-172.5" font-family="Helvetica,sans-Serif" font-size="10.00">nars.entity.Concept.link</text>
<text text-anchor="middle" x="575" y="-161.5" font-family="Helvetica,sans-Serif" font-size="10.00">ToTask</text>
</a>
</g>
</g>
<!-- Node2&#45;&gt;Node3 -->
<g id="edge2" class="edge"><title>Node2&#45;&gt;Node3</title>
<path fill="none" stroke="midnightblue" d="M324.143,-141.454C370.492,-144.871 427.846,-149.649 479,-155.5 490.594,-156.826 502.951,-158.474 514.786,-160.168"/>
<polygon fill="midnightblue" stroke="midnightblue" points="324.354,-137.96 314.126,-140.724 323.845,-144.941 324.354,-137.96"/>
</g>
<!-- Node5 -->
<g id="node5" class="node"><title>Node5</title>
<g id="a_node5"><a xlink:href="../../d8/df4/classnars_1_1storage_1_1Memory_a175200c1f4c182222d0e66439b6e53a0.html#a175200c1f4c182222d0e66439b6e53a0" target="_top" xlink:title="Immediate processing of a new task, in constant time Local processing, in one concept only...">
<polygon fill="none" stroke="black" points="836,-90.5 836,-120.5 993,-120.5 993,-90.5 836,-90.5"/>
<text text-anchor="start" x="844" y="-108.5" font-family="Helvetica,sans-Serif" font-size="10.00">nars.storage.Memory.immediate</text>
<text text-anchor="middle" x="914.5" y="-97.5" font-family="Helvetica,sans-Serif" font-size="10.00">Process</text>
</a>
</g>
</g>
<!-- Node2&#45;&gt;Node5 -->
<g id="edge17" class="edge"><title>Node2&#45;&gt;Node5</title>
<path fill="none" stroke="midnightblue" d="M324.549,-131.502C459.005,-125.566 709.156,-114.522 835.778,-108.931"/>
<polygon fill="midnightblue" stroke="midnightblue" points="324.116,-128.018 314.28,-131.956 324.425,-135.011 324.116,-128.018"/>
</g>
<!-- Node14 -->
<g id="node14" class="node"><title>Node14</title>
<g id="a_node14"><a xlink:href="../../d4/d22/classnars_1_1entity_1_1Concept_a3f3f026223e459e041fbdd8c0f49f7c6.html#a3f3f026223e459e041fbdd8c0f49f7c6" target="_top" xlink:title="Recursively build TermLinks between a compound and its components. ">
<polygon fill="none" stroke="black" points="352,-164.5 352,-194.5 477,-194.5 477,-164.5 352,-164.5"/>
<text text-anchor="start" x="360" y="-182.5" font-family="Helvetica,sans-Serif" font-size="10.00">nars.entity.Concept.build</text>
<text text-anchor="middle" x="414.5" y="-171.5" font-family="Helvetica,sans-Serif" font-size="10.00">TermLinks</text>
</a>
</g>
</g>
<!-- Node2&#45;&gt;Node14 -->
<g id="edge14" class="edge"><title>Node2&#45;&gt;Node14</title>
<path fill="none" stroke="midnightblue" d="M282.771,-147.455C304.124,-152.689 329.418,-158.889 352.04,-164.435"/>
<polygon fill="midnightblue" stroke="midnightblue" points="283.495,-144.029 272.949,-145.047 281.828,-150.828 283.495,-144.029"/>
</g>
<!-- Node4 -->
<g id="node4" class="node"><title>Node4</title>
<g id="a_node4"><a xlink:href="../../d4/d22/classnars_1_1entity_1_1Concept_a9ea7c3154932d7a736c105eb55daeb5c.html#a9ea7c3154932d7a736c105eb55daeb5c" target="_top" xlink:title="Directly process a new task. ">
<polygon fill="none" stroke="black" points="671,-135.5 671,-165.5 800,-165.5 800,-135.5 671,-135.5"/>
<text text-anchor="start" x="679" y="-153.5" font-family="Helvetica,sans-Serif" font-size="10.00">nars.entity.Concept.direct</text>
<text text-anchor="middle" x="735.5" y="-142.5" font-family="Helvetica,sans-Serif" font-size="10.00">Process</text>
</a>
</g>
</g>
<!-- Node3&#45;&gt;Node4 -->
<g id="edge3" class="edge"><title>Node3&#45;&gt;Node4</title>
<path fill="none" stroke="midnightblue" d="M645.021,-161.226C653.627,-160.195 662.396,-159.143 670.913,-158.122"/>
<polygon fill="midnightblue" stroke="midnightblue" points="644.532,-157.76 635.02,-162.425 645.365,-164.71 644.532,-157.76"/>
</g>
<!-- Node4&#45;&gt;Node5 -->
<g id="edge4" class="edge"><title>Node4&#45;&gt;Node5</title>
<path fill="none" stroke="midnightblue" d="M805.769,-132.889C821.784,-128.818 838.683,-124.521 854.226,-120.57"/>
<polygon fill="midnightblue" stroke="midnightblue" points="804.76,-129.534 795.931,-135.39 806.485,-136.318 804.76,-129.534"/>
</g>
<!-- Node5&#45;&gt;Node6 -->
<g id="edge5" class="edge"><title>Node5&#45;&gt;Node6</title>
<path fill="none" stroke="midnightblue" d="M986.055,-88.0038C1003.97,-83.5602 1023.07,-78.8255 1040.44,-74.5174"/>
<polygon fill="midnightblue" stroke="midnightblue" points="985.103,-84.6338 976.24,-90.4379 986.788,-91.428 985.103,-84.6338"/>
</g>
<!-- Node13 -->
<g id="node13" class="node"><title>Node13</title>
<g id="a_node13"><a xlink:href="../../d8/df4/classnars_1_1storage_1_1Memory_afe3b4d1bb5fab652ceca53c04773af73.html#afe3b4d1bb5fab652ceca53c04773af73" target="_top" xlink:title="Select a novel task to process. ">
<polygon fill="none" stroke="black" points="1029,-93.5 1029,-123.5 1175,-123.5 1175,-93.5 1029,-93.5"/>
<text text-anchor="start" x="1037" y="-111.5" font-family="Helvetica,sans-Serif" font-size="10.00">nars.storage.Memory.process</text>
<text text-anchor="middle" x="1102" y="-100.5" font-family="Helvetica,sans-Serif" font-size="10.00">NovelTask</text>
</a>
</g>
</g>
<!-- Node5&#45;&gt;Node13 -->
<g id="edge12" class="edge"><title>Node5&#45;&gt;Node13</title>
<path fill="none" stroke="midnightblue" d="M1003.12,-106.917C1011.71,-107.056 1020.35,-107.196 1028.75,-107.332"/>
<polygon fill="midnightblue" stroke="midnightblue" points="1003.15,-103.417 993.094,-106.755 1003.04,-110.416 1003.15,-103.417"/>
</g>
<!-- Node7 -->
<g id="node7" class="node"><title>Node7</title>
<g id="a_node7"><a xlink:href="../../d8/df4/classnars_1_1storage_1_1Memory_a49e2cbc8b78d535f4d69739886ee966a.html#a49e2cbc8b78d535f4d69739886ee966a" target="_top" xlink:title="An atomic working workCycle of the system: process new Tasks, then fire a concept. ">
<polygon fill="none" stroke="black" points="1211,-68.5 1211,-98.5 1344,-98.5 1344,-68.5 1211,-68.5"/>
<text text-anchor="start" x="1219" y="-86.5" font-family="Helvetica,sans-Serif" font-size="10.00">nars.storage.Memory.work</text>
<text text-anchor="middle" x="1277.5" y="-75.5" font-family="Helvetica,sans-Serif" font-size="10.00">Cycle</text>
</a>
</g>
</g>
<!-- Node6&#45;&gt;Node7 -->
<g id="edge6" class="edge"><title>Node6&#45;&gt;Node7</title>
<path fill="none" stroke="midnightblue" d="M1185.12,-70.8592C1193.72,-72.0486 1202.37,-73.2464 1210.76,-74.4056"/>
<polygon fill="midnightblue" stroke="midnightblue" points="1185.46,-67.373 1175.07,-69.4697 1184.5,-74.307 1185.46,-67.373"/>
</g>
<!-- Node8 -->
<g id="node8" class="node"><title>Node8</title>
<g id="a_node8"><a xlink:href="../../dd/da5/classnars_1_1storage_1_1Memory_1_1ReasonerBatch_acc60dec23da774957a85362ed6d7448b.html#acc60dec23da774957a85362ed6d7448b" target="_top" xlink:title="nars.storage.Memory.Reasoner\lBatch.doTick">
<polygon fill="none" stroke="black" points="1380,-68.5 1380,-98.5 1534,-98.5 1534,-68.5 1380,-68.5"/>
<text text-anchor="start" x="1388" y="-86.5" font-family="Helvetica,sans-Serif" font-size="10.00">nars.storage.Memory.Reasoner</text>
<text text-anchor="middle" x="1457" y="-75.5" font-family="Helvetica,sans-Serif" font-size="10.00">Batch.doTick</text>
</a>
</g>
</g>
<!-- Node7&#45;&gt;Node8 -->
<g id="edge7" class="edge"><title>Node7&#45;&gt;Node8</title>
<path fill="none" stroke="midnightblue" d="M1354.32,-83.5C1362.79,-83.5 1371.41,-83.5 1379.89,-83.5"/>
<polygon fill="midnightblue" stroke="midnightblue" points="1354.09,-80.0001 1344.09,-83.5 1354.09,-87.0001 1354.09,-80.0001"/>
</g>
<!-- Node9 -->
<g id="node9" class="node"><title>Node9</title>
<g id="a_node9"><a xlink:href="../../dd/da5/classnars_1_1storage_1_1Memory_1_1ReasonerBatch_aed591f05899b98fd9e4ad01836ad0a40.html#aed591f05899b98fd9e4ad01836ad0a40" target="_top" xlink:title="A clock tick. ">
<polygon fill="none" stroke="black" points="1570,-68.5 1570,-98.5 1724,-98.5 1724,-68.5 1570,-68.5"/>
<text text-anchor="start" x="1578" y="-86.5" font-family="Helvetica,sans-Serif" font-size="10.00">nars.storage.Memory.Reasoner</text>
<text text-anchor="middle" x="1647" y="-75.5" font-family="Helvetica,sans-Serif" font-size="10.00">Batch.tick</text>
</a>
</g>
</g>
<!-- Node8&#45;&gt;Node9 -->
<g id="edge8" class="edge"><title>Node8&#45;&gt;Node9</title>
<path fill="none" stroke="midnightblue" d="M1544.42,-83.5C1552.86,-83.5 1561.37,-83.5 1569.7,-83.5"/>
<polygon fill="midnightblue" stroke="midnightblue" points="1544.2,-80.0001 1534.2,-83.5 1544.2,-87.0001 1544.2,-80.0001"/>
</g>
<!-- Node10 -->
<g id="node10" class="node"><title>Node10</title>
<g id="a_node10"><a xlink:href="../../d4/d88/classnars_1_1storage_1_1Memory_1_1NARSBatch_aad99db6cedde9cff2a997db8906ff821.html#aad99db6cedde9cff2a997db8906ff821" target="_top" xlink:title="Run to completion: repeatedly execute NARS working cycle, until Inputs are Finished, or 1000 steps. ">
<polygon fill="none" stroke="black" points="1760,-74 1760,-93 1942,-93 1942,-74 1760,-74"/>
<text text-anchor="middle" x="1851" y="-81" font-family="Helvetica,sans-Serif" font-size="10.00">nars.storage.Memory.NARSBatch.run</text>
</a>
</g>
</g>
<!-- Node9&#45;&gt;Node10 -->
<g id="edge9" class="edge"><title>Node9&#45;&gt;Node10</title>
<path fill="none" stroke="midnightblue" d="M1734.27,-83.5C1742.69,-83.5 1751.25,-83.5 1759.71,-83.5"/>
<polygon fill="midnightblue" stroke="midnightblue" points="1734.08,-80.0001 1724.08,-83.5 1734.08,-87.0001 1734.08,-80.0001"/>
</g>
<!-- Node11 -->
<g id="node11" class="node"><title>Node11</title>
<g id="a_node11"><a xlink:href="../../d4/d88/classnars_1_1storage_1_1Memory_1_1NARSBatch_a416c39463faa161661ed1d12fea03b3c.html#a416c39463faa161661ed1d12fea03b3c" target="_top" xlink:title="non&#45;static equivalent to main(String[]) : run to completion from an input file ">
<polygon fill="none" stroke="black" points="1978,-68.5 1978,-98.5 2160,-98.5 2160,-68.5 1978,-68.5"/>
<text text-anchor="start" x="1986" y="-86.5" font-family="Helvetica,sans-Serif" font-size="10.00">nars.storage.Memory.NARSBatch.run</text>
<text text-anchor="middle" x="2069" y="-75.5" font-family="Helvetica,sans-Serif" font-size="10.00">Inference</text>
</a>
</g>
</g>
<!-- Node10&#45;&gt;Node11 -->
<g id="edge10" class="edge"><title>Node10&#45;&gt;Node11</title>
<path fill="none" stroke="midnightblue" d="M1952.06,-83.5C1960.63,-83.5 1969.27,-83.5 1977.76,-83.5"/>
<polygon fill="midnightblue" stroke="midnightblue" points="1952.04,-80.0001 1942.04,-83.5 1952.04,-87.0001 1952.04,-80.0001"/>
</g>
<!-- Node12 -->
<g id="node12" class="node"><title>Node12</title>
<g id="a_node12"><a xlink:href="../../d4/d88/classnars_1_1storage_1_1Memory_1_1NARSBatch_aa97fcd68270583e60e6bf1b4579d1bdc.html#aa97fcd68270583e60e6bf1b4579d1bdc" target="_top" xlink:title="The entry point of the standalone application. ">
<polygon fill="none" stroke="black" points="2196,-74 2196,-93 2386,-93 2386,-74 2196,-74"/>
<text text-anchor="middle" x="2291" y="-81" font-family="Helvetica,sans-Serif" font-size="10.00">nars.storage.Memory.NARSBatch.main</text>
</a>
</g>
</g>
<!-- Node11&#45;&gt;Node12 -->
<g id="edge11" class="edge"><title>Node11&#45;&gt;Node12</title>
<path fill="none" stroke="midnightblue" d="M2170.37,-83.5C2178.82,-83.5 2187.34,-83.5 2195.74,-83.5"/>
<polygon fill="midnightblue" stroke="midnightblue" points="2170.12,-80.0001 2160.12,-83.5 2170.12,-87.0001 2170.12,-80.0001"/>
</g>
<!-- Node13&#45;&gt;Node7 -->
<g id="edge13" class="edge"><title>Node13&#45;&gt;Node7</title>
<path fill="none" stroke="midnightblue" d="M1185.12,-96.6675C1193.72,-95.4286 1202.37,-94.1809 1210.76,-92.9733"/>
<polygon fill="midnightblue" stroke="midnightblue" points="1184.47,-93.2244 1175.07,-98.1149 1185.47,-100.153 1184.47,-93.2244"/>
</g>
<!-- Node14&#45;&gt;Node3 -->
<g id="edge16" class="edge"><title>Node14&#45;&gt;Node3</title>
<path fill="none" stroke="midnightblue" d="M487.467,-174.96C496.602,-174.383 505.868,-173.799 514.773,-173.237"/>
<polygon fill="midnightblue" stroke="midnightblue" points="486.994,-171.482 477.234,-175.605 487.435,-178.468 486.994,-171.482"/>
</g>
<!-- Node14&#45;&gt;Node14 -->
<g id="edge15" class="edge"><title>Node14&#45;&gt;Node14</title>
<path fill="none" stroke="midnightblue" d="M386.07,-204.958C389.599,-209.679 399.075,-213 414.5,-213 439.812,-213 449.107,-204.057 442.383,-194.659"/>
<polygon fill="midnightblue" stroke="midnightblue" points="389.582,-204.831 386.617,-194.659 382.591,-204.459 389.582,-204.831"/>
</g>
<!-- Node15&#45;&gt;Node3 -->
<g id="edge19" class="edge"><title>Node15&#45;&gt;Node3</title>
<path fill="none" stroke="midnightblue" d="M467.252,-227.673C471.257,-225.993 475.213,-224.26 479,-222.5 503.491,-211.116 530.263,-195.913 549.127,-184.709"/>
<polygon fill="midnightblue" stroke="midnightblue" points="465.823,-224.476 457.875,-231.482 468.457,-230.961 465.823,-224.476"/>
</g>
<!-- Node16&#45;&gt;Node14 -->
<g id="edge21" class="edge"><title>Node16&#45;&gt;Node14</title>
<path fill="none" stroke="midnightblue" d="M307.601,-179.5C322.305,-179.5 337.607,-179.5 351.857,-179.5"/>
<polygon fill="midnightblue" stroke="midnightblue" points="307.538,-176 297.538,-179.5 307.538,-183 307.538,-176"/>
</g>
</g>
</svg>
        <g id="navigator" transform="translate(0 0)" fill="#404254">
                <rect fill="#f2f5e9" fill-opacity="0.5" stroke="#606060" stroke-width=".5" x="0" y="0" width="60" height="60"/>
                <use id="zoomplus" xlink:href="#zoomPlus" x="17" y="9" onmousedown="handleZoom(evt,'in')"/>
                <use id="zoomminus" xlink:href="#zoomMin" x="42" y="9" onmousedown="handleZoom(evt,'out')"/>
                <use id="reset" xlink:href="#resetDef" x="30" y="36" onmousedown="handleReset()"/>
                <g id="arrowUp" xlink:href="#dirArrow" transform="translate(30 24)" onmousedown="handlePan(0,-1)">
                  <use xlink:href="#rim" fill="#404040">
                        <set attributeName="fill" to="#808080" begin="arrowUp.mouseover" end="arrowUp.mouseout"/>
                  </use>
                  <path fill="none" stroke="white" stroke-width="1.5" d="M0,-3.0v7 M-2.5,-0.5L0,-3.0L2.5,-0.5"/>
                </g>
                <g id="arrowRight" xlink:href="#dirArrow" transform="rotate(90) translate(36 -43)" onmousedown="handlePan(1,0)">
                  <use xlink:href="#rim" fill="#404040">
                        <set attributeName="fill" to="#808080" begin="arrowRight.mouseover" end="arrowRight.mouseout"/>
                  </use>
                  <path fill="none" stroke="white" stroke-width="1.5" d="M0,-3.0v7 M-2.5,-0.5L0,-3.0L2.5,-0.5"/>
                </g>
                <g id="arrowDown" xlink:href="#dirArrow" transform="rotate(180) translate(-30 -48)" onmousedown="handlePan(0,1)">
                  <use xlink:href="#rim" fill="#404040">
                        <set attributeName="fill" to="#808080" begin="arrowDown.mouseover" end="arrowDown.mouseout"/>
                  </use>
                  <path fill="none" stroke="white" stroke-width="1.5" d="M0,-3.0v7 M-2.5,-0.5L0,-3.0L2.5,-0.5"/>
                </g>
                <g id="arrowLeft" xlink:href="#dirArrow" transform="rotate(270) translate(-36 17)" onmousedown="handlePan(-1,0)">
                  <use xlink:href="#rim" fill="#404040">
                        <set attributeName="fill" to="#808080" begin="arrowLeft.mouseover" end="arrowLeft.mouseout"/>
                  </use>
                  <path fill="none" stroke="white" stroke-width="1.5" d="M0,-3.0v7 M-2.5,-0.5L0,-3.0L2.5,-0.5"/>
                </g>
        </g>
        <svg viewBox="0 0 15 15" width="100%" height="30px" preserveAspectRatio="xMaxYMin meet">
         <g id="arrow_out" transform="scale(0.3 0.3)">
          <a xlink:href="classnars_1_1storage_1_1Bag_a9d42fa45681a07796750a350e08d095b_a9d42fa45681a07796750a350e08d095b_icgraph_org.svg" target="_base">
           <rect id="button" ry="5" rx="5" y="6" x="6" height="38" width="38"
                fill="#f2f5e9" fill-opacity="0.5" stroke="#606060" stroke-width="1.0"/>
           <path id="arrow"
             d="M 11.500037,31.436501 C 11.940474,20.09759 22.043105,11.32322 32.158766,21.979434 L 37.068811,17.246167 C 37.068811,17.246167 37.088388,32 37.088388,32 L 22.160133,31.978069 C 22.160133,31.978069 26.997745,27.140456 26.997745,27.140456 C 18.528582,18.264221 13.291696,25.230495 11.500037,31.436501 z"
             style="fill:#404040;"/>
          </a>
         </g>
        </svg>
</svg>
