<?xml version="1.0" encoding="UTF-8" standalone="no"?>
<!DOCTYPE svg PUBLIC "-//W3C//DTD SVG 1.1//EN"
 "http://www.w3.org/Graphics/SVG/1.1/DTD/svg11.dtd">
<!-- Generated by graphviz version 2.38.0 (20140413.2041)
 -->
<!-- Title: nars.storage.Bag.init Pages: 1 -->
<svg width="668pt" height="83pt"
 viewBox="0.00 0.00 668.00 83.00" xmlns="http://www.w3.org/2000/svg" xmlns:xlink="http://www.w3.org/1999/xlink">
<g id="graph0" class="graph" transform="scale(1 1) rotate(0) translate(4 79)">
<title>nars.storage.Bag.init</title>
<!-- Node1 -->
<g id="node1" class="node"><title>Node1</title>
<polygon fill="#bfbfbf" stroke="black" points="0,-28 0,-47 107,-47 107,-28 0,-28"/>
<text text-anchor="middle" x="53.5" y="-35" font-family="Helvetica,sans-Serif" font-size="10.00">nars.storage.Bag.init</text>
</g>
<!-- Node2 -->
<g id="node2" class="node"><title>Node2</title>
<g id="a_node2"><a xlink:href="../../d9/d37/classnars_1_1storage_1_1Bag_aed5b14704bbd6f1a94c01fca28c829ba.html#aed5b14704bbd6f1a94c01fca28c829ba" target="_top" xlink:title="constructor, called from subclasses ">
<polygon fill="none" stroke="black" points="143,-44.5 143,-74.5 280,-74.5 280,-44.5 143,-44.5"/>
<text text-anchor="start" x="151" y="-62.5" font-family="Helvetica,sans-Serif" font-size="10.00">nars.storage.Bag&lt; Concept</text>
<text text-anchor="middle" x="211.5" y="-51.5" font-family="Helvetica,sans-Serif" font-size="10.00"> &gt;::Bag</text>
</a>
</g>
</g>
<!-- Node1&#45;&gt;Node2 -->
<g id="edge1" class="edge"><title>Node1&#45;&gt;Node2</title>
<path fill="none" stroke="midnightblue" d="M117.377,-46.3673C125.747,-47.5477 134.359,-48.7621 142.806,-49.9535"/>
<polygon fill="midnightblue" stroke="midnightblue" points="117.705,-42.879 107.314,-44.9482 116.728,-49.8104 117.705,-42.879"/>
</g>
<!-- Node3 -->
<g id="node3" class="node"><title>Node3</title>
<g id="a_node3"><a xlink:href="../../d8/df4/classnars_1_1storage_1_1Memory_ac58580cf0e27e42f1972939bec1c0553.html#ac58580cf0e27e42f1972939bec1c0553" target="_top" xlink:title="nars.storage.Memory.init">
<polygon fill="none" stroke="black" points="149,-6 149,-25 274,-25 274,-6 149,-6"/>
<text text-anchor="middle" x="211.5" y="-13" font-family="Helvetica,sans-Serif" font-size="10.00">nars.storage.Memory.init</text>
</a>
</g>
</g>
<!-- Node1&#45;&gt;Node3 -->
<g id="edge2" class="edge"><title>Node1&#45;&gt;Node3</title>
<path fill="none" stroke="midnightblue" d="M117.503,-28.6149C127.842,-27.1569 138.546,-25.6473 148.852,-24.194"/>
<polygon fill="midnightblue" stroke="midnightblue" points="116.728,-25.1896 107.314,-30.0518 117.705,-32.121 116.728,-25.1896"/>
</g>
<!-- Node4 -->
<g id="node4" class="node"><title>Node4</title>
<g id="a_node4"><a xlink:href="../../dd/da5/classnars_1_1storage_1_1Memory_1_1ReasonerBatch_af9b0f156f3063b99421e768fa4a1e09c.html#af9b0f156f3063b99421e768fa4a1e09c" target="_top" xlink:title="Reset the system with an empty memory and reset clock. ">
<polygon fill="none" stroke="black" points="316,-0.5 316,-30.5 470,-30.5 470,-0.5 316,-0.5"/>
<text text-anchor="start" x="324" y="-18.5" font-family="Helvetica,sans-Serif" font-size="10.00">nars.storage.Memory.Reasoner</text>
<text text-anchor="middle" x="393" y="-7.5" font-family="Helvetica,sans-Serif" font-size="10.00">Batch.reset</text>
</a>
</g>
</g>
<!-- Node3&#45;&gt;Node4 -->
<g id="edge3" class="edge"><title>Node3&#45;&gt;Node4</title>
<path fill="none" stroke="midnightblue" d="M284.302,-15.5C294.715,-15.5 305.464,-15.5 315.958,-15.5"/>
<polygon fill="midnightblue" stroke="midnightblue" points="284.023,-12.0001 274.023,-15.5 284.023,-19.0001 284.023,-12.0001"/>
</g>
<!-- Node5 -->
<g id="node5" class="node"><title>Node5</title>
<g id="a_node5"><a xlink:href="../../dd/da5/classnars_1_1storage_1_1Memory_1_1ReasonerBatch_a2f22be33d98b4366712ff91b93c2be8a.html#a2f22be33d98b4366712ff91b93c2be8a" target="_top" xlink:title="To process a line of input text. ">
<polygon fill="none" stroke="black" points="506,-0.5 506,-30.5 660,-30.5 660,-0.5 506,-0.5"/>
<text text-anchor="start" x="514" y="-18.5" font-family="Helvetica,sans-Serif" font-size="10.00">nars.storage.Memory.Reasoner</text>
<text text-anchor="middle" x="583" y="-7.5" font-family="Helvetica,sans-Serif" font-size="10.00">Batch.textInputLine</text>
</a>
</g>
</g>
<!-- Node4&#45;&gt;Node5 -->
<g id="edge4" class="edge"><title>Node4&#45;&gt;Node5</title>
<path fill="none" stroke="midnightblue" d="M480.424,-15.5C488.857,-15.5 497.372,-15.5 505.696,-15.5"/>
<polygon fill="midnightblue" stroke="midnightblue" points="480.196,-12.0001 470.196,-15.5 480.196,-19.0001 480.196,-12.0001"/>
</g>
</g>
</svg>
