<?xml version="1.0" encoding="UTF-8" standalone="no"?>
<!DOCTYPE svg PUBLIC "-//W3C//DTD SVG 1.1//EN"
 "http://www.w3.org/Graphics/SVG/1.1/DTD/svg11.dtd">
<!-- Generated by graphviz version 2.38.0 (20140413.2041)
 -->
<!-- Title: nars.storage.Bag.refresh Pages: 1 -->
<svg width="1347pt" height="235pt"
 viewBox="0.00 0.00 1347.00 235.00" xmlns="http://www.w3.org/2000/svg" xmlns:xlink="http://www.w3.org/1999/xlink">
<g id="graph0" class="graph" transform="scale(1 1) rotate(0) translate(4 231)">
<title>nars.storage.Bag.refresh</title>
<!-- Node1 -->
<g id="node1" class="node"><title>Node1</title>
<polygon fill="#bfbfbf" stroke="black" points="0,-104 0,-123 124,-123 124,-104 0,-104"/>
<text text-anchor="middle" x="62" y="-111" font-family="Helvetica,sans-Serif" font-size="10.00">nars.storage.Bag.refresh</text>
</g>
<!-- Node2 -->
<g id="node2" class="node"><title>Node2</title>
<g id="a_node2"><a xlink:href="../../d9/d37/classnars_1_1storage_1_1Bag_a405137ac9b2c5e0b6fb836a7ecf5c1e6.html#a405137ac9b2c5e0b6fb836a7ecf5c1e6" target="_top" xlink:title="Insert an item into the itemTable, and return the overflow. ">
<polygon fill="none" stroke="black" points="160,-196.5 160,-226.5 297,-226.5 297,-196.5 160,-196.5"/>
<text text-anchor="start" x="168" y="-214.5" font-family="Helvetica,sans-Serif" font-size="10.00">nars.storage.Bag&lt; Concept</text>
<text text-anchor="middle" x="228.5" y="-203.5" font-family="Helvetica,sans-Serif" font-size="10.00"> &gt;::intoBase</text>
</a>
</g>
</g>
<!-- Node1&#45;&gt;Node2 -->
<g id="edge1" class="edge"><title>Node1&#45;&gt;Node2</title>
<path fill="none" stroke="midnightblue" d="M80.9715,-129.97C99.5993,-146.349 130.125,-171.308 160,-187.5 166.014,-190.759 172.56,-193.726 179.131,-196.375"/>
<polygon fill="midnightblue" stroke="midnightblue" points="83.0839,-127.164 73.2951,-123.11 78.4197,-132.383 83.0839,-127.164"/>
</g>
<!-- Node3 -->
<g id="node3" class="node"><title>Node3</title>
<g id="a_node3"><a xlink:href="../../d9/d37/classnars_1_1storage_1_1Bag_ab6b356879b5d95a8c0ce2f36a2727d75.html#ab6b356879b5d95a8c0ce2f36a2727d75" target="_top" xlink:title="Remove an item from itemTable, then adjust mass. ">
<polygon fill="none" stroke="black" points="160,-147.5 160,-177.5 297,-177.5 297,-147.5 160,-147.5"/>
<text text-anchor="start" x="168" y="-165.5" font-family="Helvetica,sans-Serif" font-size="10.00">nars.storage.Bag&lt; Concept</text>
<text text-anchor="middle" x="228.5" y="-154.5" font-family="Helvetica,sans-Serif" font-size="10.00"> &gt;::outOfBase</text>
</a>
</g>
</g>
<!-- Node1&#45;&gt;Node3 -->
<g id="edge2" class="edge"><title>Node1&#45;&gt;Node3</title>
<path fill="none" stroke="midnightblue" d="M104.81,-125.954C126.783,-132.499 153.882,-140.571 177.019,-147.463"/>
<polygon fill="midnightblue" stroke="midnightblue" points="105.691,-122.565 95.1078,-123.064 103.692,-129.273 105.691,-122.565"/>
</g>
<!-- Node4 -->
<g id="node4" class="node"><title>Node4</title>
<g id="a_node4"><a xlink:href="../../d9/d37/classnars_1_1storage_1_1Bag_a775c0537431b865015facac73e698891.html#a775c0537431b865015facac73e698891" target="_top" xlink:title="Choose an Item according to priority distribution and take it out of the Bag. ">
<polygon fill="none" stroke="black" points="160,-98.5 160,-128.5 297,-128.5 297,-98.5 160,-98.5"/>
<text text-anchor="start" x="168" y="-116.5" font-family="Helvetica,sans-Serif" font-size="10.00">nars.storage.Bag&lt; Concept</text>
<text text-anchor="middle" x="228.5" y="-105.5" font-family="Helvetica,sans-Serif" font-size="10.00"> &gt;::takeOut</text>
</a>
</g>
</g>
<!-- Node1&#45;&gt;Node4 -->
<g id="edge3" class="edge"><title>Node1&#45;&gt;Node4</title>
<path fill="none" stroke="midnightblue" d="M134.439,-113.5C142.872,-113.5 151.46,-113.5 159.839,-113.5"/>
<polygon fill="midnightblue" stroke="midnightblue" points="134.254,-110 124.254,-113.5 134.254,-117 134.254,-110"/>
</g>
<!-- Node5 -->
<g id="node5" class="node"><title>Node5</title>
<g id="a_node5"><a xlink:href="../../d9/d37/classnars_1_1storage_1_1Bag_a7495c60e01c02220dee7528fb6611fae.html#a7495c60e01c02220dee7528fb6611fae" target="_top" xlink:title="Take out the first or last Type in a level from the itemTable. ">
<polygon fill="none" stroke="black" points="160,-49.5 160,-79.5 297,-79.5 297,-49.5 160,-49.5"/>
<text text-anchor="start" x="168" y="-67.5" font-family="Helvetica,sans-Serif" font-size="10.00">nars.storage.Bag&lt; Concept</text>
<text text-anchor="middle" x="228.5" y="-56.5" font-family="Helvetica,sans-Serif" font-size="10.00"> &gt;::takeOutFirst</text>
</a>
</g>
</g>
<!-- Node1&#45;&gt;Node5 -->
<g id="edge4" class="edge"><title>Node1&#45;&gt;Node5</title>
<path fill="none" stroke="midnightblue" d="M104.81,-101.046C126.783,-94.5008 153.882,-86.4287 177.019,-79.537"/>
<polygon fill="midnightblue" stroke="midnightblue" points="103.692,-97.7268 95.1078,-103.936 105.691,-104.435 103.692,-97.7268"/>
</g>
<!-- Node6 -->
<g id="node6" class="node"><title>Node6</title>
<g id="a_node6"><a xlink:href="../../d8/df4/classnars_1_1storage_1_1Memory_a49e2cbc8b78d535f4d69739886ee966a.html#a49e2cbc8b78d535f4d69739886ee966a" target="_top" xlink:title="An atomic working workCycle of the system: process new Tasks, then fire a concept. ">
<polygon fill="none" stroke="black" points="162,-0.5 162,-30.5 295,-30.5 295,-0.5 162,-0.5"/>
<text text-anchor="start" x="170" y="-18.5" font-family="Helvetica,sans-Serif" font-size="10.00">nars.storage.Memory.work</text>
<text text-anchor="middle" x="228.5" y="-7.5" font-family="Helvetica,sans-Serif" font-size="10.00">Cycle</text>
</a>
</g>
</g>
<!-- Node1&#45;&gt;Node6 -->
<g id="edge5" class="edge"><title>Node1&#45;&gt;Node6</title>
<path fill="none" stroke="midnightblue" d="M81.3596,-97.0899C100.08,-81.0057 130.486,-56.621 160,-40.5 166.69,-36.8458 174.024,-33.5137 181.316,-30.5575"/>
<polygon fill="midnightblue" stroke="midnightblue" points="78.8609,-94.6251 73.626,-103.836 83.4625,-99.9001 78.8609,-94.6251"/>
</g>
<!-- Node7 -->
<g id="node7" class="node"><title>Node7</title>
<g id="a_node7"><a xlink:href="../../dd/da5/classnars_1_1storage_1_1Memory_1_1ReasonerBatch_acc60dec23da774957a85362ed6d7448b.html#acc60dec23da774957a85362ed6d7448b" target="_top" xlink:title="nars.storage.Memory.Reasoner\lBatch.doTick">
<polygon fill="none" stroke="black" points="333,-0.5 333,-30.5 487,-30.5 487,-0.5 333,-0.5"/>
<text text-anchor="start" x="341" y="-18.5" font-family="Helvetica,sans-Serif" font-size="10.00">nars.storage.Memory.Reasoner</text>
<text text-anchor="middle" x="410" y="-7.5" font-family="Helvetica,sans-Serif" font-size="10.00">Batch.doTick</text>
</a>
</g>
</g>
<!-- Node6&#45;&gt;Node7 -->
<g id="edge6" class="edge"><title>Node6&#45;&gt;Node7</title>
<path fill="none" stroke="midnightblue" d="M305.297,-15.5C314.452,-15.5 323.806,-15.5 332.965,-15.5"/>
<polygon fill="midnightblue" stroke="midnightblue" points="305.066,-12.0001 295.066,-15.5 305.066,-19.0001 305.066,-12.0001"/>
</g>
<!-- Node8 -->
<g id="node8" class="node"><title>Node8</title>
<g id="a_node8"><a xlink:href="../../dd/da5/classnars_1_1storage_1_1Memory_1_1ReasonerBatch_aed591f05899b98fd9e4ad01836ad0a40.html#aed591f05899b98fd9e4ad01836ad0a40" target="_top" xlink:title="A clock tick. ">
<polygon fill="none" stroke="black" points="523,-0.5 523,-30.5 677,-30.5 677,-0.5 523,-0.5"/>
<text text-anchor="start" x="531" y="-18.5" font-family="Helvetica,sans-Serif" font-size="10.00">nars.storage.Memory.Reasoner</text>
<text text-anchor="middle" x="600" y="-7.5" font-family="Helvetica,sans-Serif" font-size="10.00">Batch.tick</text>
</a>
</g>
</g>
<!-- Node7&#45;&gt;Node8 -->
<g id="edge7" class="edge"><title>Node7&#45;&gt;Node8</title>
<path fill="none" stroke="midnightblue" d="M497.424,-15.5C505.857,-15.5 514.372,-15.5 522.696,-15.5"/>
<polygon fill="midnightblue" stroke="midnightblue" points="497.196,-12.0001 487.196,-15.5 497.196,-19.0001 497.196,-12.0001"/>
</g>
<!-- Node9 -->
<g id="node9" class="node"><title>Node9</title>
<g id="a_node9"><a xlink:href="../../d4/d88/classnars_1_1storage_1_1Memory_1_1NARSBatch_aad99db6cedde9cff2a997db8906ff821.html#aad99db6cedde9cff2a997db8906ff821" target="_top" xlink:title="Run to completion: repeatedly execute NARS working cycle, until Inputs are Finished, or 1000 steps. ">
<polygon fill="none" stroke="black" points="713,-6 713,-25 895,-25 895,-6 713,-6"/>
<text text-anchor="middle" x="804" y="-13" font-family="Helvetica,sans-Serif" font-size="10.00">nars.storage.Memory.NARSBatch.run</text>
</a>
</g>
</g>
<!-- Node8&#45;&gt;Node9 -->
<g id="edge8" class="edge"><title>Node8&#45;&gt;Node9</title>
<path fill="none" stroke="midnightblue" d="M687.268,-15.5C695.69,-15.5 704.252,-15.5 712.713,-15.5"/>
<polygon fill="midnightblue" stroke="midnightblue" points="687.08,-12.0001 677.08,-15.5 687.08,-19.0001 687.08,-12.0001"/>
</g>
<!-- Node10 -->
<g id="node10" class="node"><title>Node10</title>
<g id="a_node10"><a xlink:href="../../d4/d88/classnars_1_1storage_1_1Memory_1_1NARSBatch_a416c39463faa161661ed1d12fea03b3c.html#a416c39463faa161661ed1d12fea03b3c" target="_top" xlink:title="non&#45;static equivalent to main(String[]) : run to completion from an input file ">
<polygon fill="none" stroke="black" points="931,-0.5 931,-30.5 1113,-30.5 1113,-0.5 931,-0.5"/>
<text text-anchor="start" x="939" y="-18.5" font-family="Helvetica,sans-Serif" font-size="10.00">nars.storage.Memory.NARSBatch.run</text>
<text text-anchor="middle" x="1022" y="-7.5" font-family="Helvetica,sans-Serif" font-size="10.00">Inference</text>
</a>
</g>
</g>
<!-- Node9&#45;&gt;Node10 -->
<g id="edge9" class="edge"><title>Node9&#45;&gt;Node10</title>
<path fill="none" stroke="midnightblue" d="M905.059,-15.5C913.631,-15.5 922.27,-15.5 930.759,-15.5"/>
<polygon fill="midnightblue" stroke="midnightblue" points="905.039,-12.0001 895.039,-15.5 905.039,-19.0001 905.039,-12.0001"/>
</g>
<!-- Node11 -->
<g id="node11" class="node"><title>Node11</title>
<g id="a_node11"><a xlink:href="../../d4/d88/classnars_1_1storage_1_1Memory_1_1NARSBatch_aa97fcd68270583e60e6bf1b4579d1bdc.html#aa97fcd68270583e60e6bf1b4579d1bdc" target="_top" xlink:title="The entry point of the standalone application. ">
<polygon fill="none" stroke="black" points="1149,-6 1149,-25 1339,-25 1339,-6 1149,-6"/>
<text text-anchor="middle" x="1244" y="-13" font-family="Helvetica,sans-Serif" font-size="10.00">nars.storage.Memory.NARSBatch.main</text>
</a>
</g>
</g>
<!-- Node10&#45;&gt;Node11 -->
<g id="edge10" class="edge"><title>Node10&#45;&gt;Node11</title>
<path fill="none" stroke="midnightblue" d="M1123.37,-15.5C1131.82,-15.5 1140.34,-15.5 1148.74,-15.5"/>
<polygon fill="midnightblue" stroke="midnightblue" points="1123.12,-12.0001 1113.12,-15.5 1123.12,-19.0001 1123.12,-12.0001"/>
</g>
</g>
</svg>
