<?xml version="1.0" encoding="UTF-8" standalone="no"?>
<!DOCTYPE svg PUBLIC "-//W3C//DTD SVG 1.1//EN"
 "http://www.w3.org/Graphics/SVG/1.1/DTD/svg11.dtd">
<!-- Generated by graphviz version 2.38.0 (20140413.2041)
 -->
<!-- Title: nars.storage.Bag.capacity Pages: 1 -->
<svg width="312pt" height="88pt"
 viewBox="0.00 0.00 312.00 88.00" xmlns="http://www.w3.org/2000/svg" xmlns:xlink="http://www.w3.org/1999/xlink">
<g id="graph0" class="graph" transform="scale(1 1) rotate(0) translate(4 84)">
<title>nars.storage.Bag.capacity</title>
<!-- Node1 -->
<g id="node1" class="node"><title>Node1</title>
<polygon fill="#bfbfbf" stroke="black" points="0,-30 0,-49 131,-49 131,-30 0,-30"/>
<text text-anchor="middle" x="65.5" y="-37" font-family="Helvetica,sans-Serif" font-size="10.00">nars.storage.Bag.capacity</text>
</g>
<!-- Node2 -->
<g id="node2" class="node"><title>Node2</title>
<g id="a_node2"><a xlink:href="../../d9/d37/classnars_1_1storage_1_1Bag_aed5b14704bbd6f1a94c01fca28c829ba.html#aed5b14704bbd6f1a94c01fca28c829ba" target="_top" xlink:title="constructor, called from subclasses ">
<polygon fill="none" stroke="black" points="167,-49.5 167,-79.5 304,-79.5 304,-49.5 167,-49.5"/>
<text text-anchor="start" x="175" y="-67.5" font-family="Helvetica,sans-Serif" font-size="10.00">nars.storage.Bag&lt; Concept</text>
<text text-anchor="middle" x="235.5" y="-56.5" font-family="Helvetica,sans-Serif" font-size="10.00"> &gt;::Bag</text>
</a>
</g>
</g>
<!-- Node1&#45;&gt;Node2 -->
<g id="edge1" class="edge"><title>Node1&#45;&gt;Node2</title>
<path fill="none" stroke="midnightblue" d="M140.619,-50.5296C149.32,-51.8245 158.165,-53.1407 166.773,-54.4216"/>
<polygon fill="midnightblue" stroke="midnightblue" points="140.899,-47.0328 130.493,-49.0227 139.869,-53.9566 140.899,-47.0328"/>
</g>
<!-- Node3 -->
<g id="node3" class="node"><title>Node3</title>
<g id="a_node3"><a xlink:href="../../d9/d37/classnars_1_1storage_1_1Bag_a405137ac9b2c5e0b6fb836a7ecf5c1e6.html#a405137ac9b2c5e0b6fb836a7ecf5c1e6" target="_top" xlink:title="Insert an item into the itemTable, and return the overflow. ">
<polygon fill="none" stroke="black" points="167,-0.5 167,-30.5 304,-30.5 304,-0.5 167,-0.5"/>
<text text-anchor="start" x="175" y="-18.5" font-family="Helvetica,sans-Serif" font-size="10.00">nars.storage.Bag&lt; Concept</text>
<text text-anchor="middle" x="235.5" y="-7.5" font-family="Helvetica,sans-Serif" font-size="10.00"> &gt;::intoBase</text>
</a>
</g>
</g>
<!-- Node1&#45;&gt;Node3 -->
<g id="edge2" class="edge"><title>Node1&#45;&gt;Node3</title>
<path fill="none" stroke="midnightblue" d="M141.37,-28.8042C149.886,-27.5877 158.528,-26.3531 166.941,-25.1512"/>
<polygon fill="midnightblue" stroke="midnightblue" points="140.858,-25.3419 131.453,-30.221 141.848,-32.2715 140.858,-25.3419"/>
</g>
</g>
</svg>
