<?xml version="1.0" encoding="UTF-8" standalone="no"?>
<!DOCTYPE svg PUBLIC "-//W3C//DTD SVG 1.1//EN"
 "http://www.w3.org/Graphics/SVG/1.1/DTD/svg11.dtd">
<!-- Generated by graphviz version 2.38.0 (20140413.2041)
 -->
<!-- Title: nars.entity.TermLink.setKey Pages: 1 -->
<svg width="333pt" height="66pt"
 viewBox="0.00 0.00 333.00 66.00" xmlns="http://www.w3.org/2000/svg" xmlns:xlink="http://www.w3.org/1999/xlink">
<g id="graph0" class="graph" transform="scale(1 1) rotate(0) translate(4 62)">
<title>nars.entity.TermLink.setKey</title>
<!-- Node1 -->
<g id="node1" class="node"><title>Node1</title>
<polygon fill="#bfbfbf" stroke="black" points="0,-19.5 0,-38.5 140,-38.5 140,-19.5 0,-19.5"/>
<text text-anchor="middle" x="70" y="-26.5" font-family="Helvetica,sans-Serif" font-size="10.00">nars.entity.TermLink.setKey</text>
</g>
<!-- Node2 -->
<g id="node2" class="node"><title>Node2</title>
<g id="a_node2"><a xlink:href="../../d9/d27/classnars_1_1entity_1_1TaskLink_a0ce4b9418566a6c3f28daf3c8eaad2de.html#a0ce4b9418566a6c3f28daf3c8eaad2de" target="_top" xlink:title="Constructor. ">
<polygon fill="none" stroke="black" points="176.5,-38.5 176.5,-57.5 324.5,-57.5 324.5,-38.5 176.5,-38.5"/>
<text text-anchor="middle" x="250.5" y="-45.5" font-family="Helvetica,sans-Serif" font-size="10.00">nars.entity.TaskLink.TaskLink</text>
</a>
</g>
</g>
<!-- Node1&#45;&gt;Node2 -->
<g id="edge1" class="edge"><title>Node1&#45;&gt;Node2</title>
<path fill="none" stroke="midnightblue" d="M150.128,-37.4226C158.813,-38.347 167.627,-39.2852 176.236,-40.2016"/>
<polygon fill="midnightblue" stroke="midnightblue" points="150.327,-33.9241 140.013,-36.3459 149.586,-40.8848 150.327,-33.9241"/>
</g>
<!-- Node3 -->
<g id="node3" class="node"><title>Node3</title>
<g id="a_node3"><a xlink:href="../../d4/d8b/classnars_1_1entity_1_1TermLink_a7efe1a85c0739a0fd0dc3f03dbd679a9.html#a7efe1a85c0739a0fd0dc3f03dbd679a9" target="_top" xlink:title="Constructor to make actual TermLink from a template. ">
<polygon fill="none" stroke="black" points="176,-0.5 176,-19.5 325,-19.5 325,-0.5 176,-0.5"/>
<text text-anchor="middle" x="250.5" y="-7.5" font-family="Helvetica,sans-Serif" font-size="10.00">nars.entity.TermLink.TermLink</text>
</a>
</g>
</g>
<!-- Node1&#45;&gt;Node3 -->
<g id="edge2" class="edge"><title>Node1&#45;&gt;Node3</title>
<path fill="none" stroke="midnightblue" d="M150.044,-20.5863C158.656,-19.6697 167.397,-18.7393 175.939,-17.83"/>
<polygon fill="midnightblue" stroke="midnightblue" points="149.586,-17.1152 140.013,-21.6541 150.327,-24.0759 149.586,-17.1152"/>
</g>
</g>
</svg>
