<?xml version="1.0" encoding="UTF-8" standalone="no"?>
<!DOCTYPE svg PUBLIC "-//W3C//DTD SVG 1.1//EN"
 "http://www.w3.org/Graphics/SVG/1.1/DTD/svg11.dtd">
<!-- Generated by graphviz version 2.38.0 (20140413.2041)
 -->
<!-- Title: nars.language.Variable.findSubstitute Pages: 1 -->
<svg width="571pt" height="142pt"
 viewBox="0.00 0.00 571.00 142.00" xmlns="http://www.w3.org/2000/svg" xmlns:xlink="http://www.w3.org/1999/xlink">
<g id="graph0" class="graph" transform="scale(1 1) rotate(0) translate(4 138)">
<title>nars.language.Variable.findSubstitute</title>
<!-- Node1 -->
<g id="node1" class="node"><title>Node1</title>
<polygon fill="#bfbfbf" stroke="black" points="0,-52 0,-82 134,-82 134,-52 0,-52"/>
<text text-anchor="start" x="8" y="-70" font-family="Helvetica,sans-Serif" font-size="10.00">nars.language.Variable.find</text>
<text text-anchor="middle" x="67" y="-59" font-family="Helvetica,sans-Serif" font-size="10.00">Substitute</text>
</g>
<!-- Node2 -->
<g id="node2" class="node"><title>Node2</title>
<g id="a_node2"><a xlink:href="../../d0/dee/classnars_1_1language_1_1CompoundTerm_acedae916705e9fa1669391a7d728b840.html#acedae916705e9fa1669391a7d728b840" target="_top" xlink:title="get a component by index ">
<polygon fill="none" stroke="black" points="170,-114.5 170,-133.5 381,-133.5 381,-114.5 170,-114.5"/>
<text text-anchor="middle" x="275.5" y="-121.5" font-family="Helvetica,sans-Serif" font-size="10.00">nars.language.CompoundTerm.componentAt</text>
</a>
</g>
</g>
<!-- Node1&#45;&gt;Node2 -->
<g id="edge1" class="edge"><title>Node1&#45;&gt;Node2</title>
<path fill="none" stroke="midnightblue" d="M103.839,-82.1245C123.165,-89.8267 147.588,-98.8397 170,-105 180.278,-107.825 191.242,-110.343 202.059,-112.548"/>
<polygon fill="midnightblue" stroke="midnightblue" points="201.441,-115.994 211.928,-114.486 202.789,-109.125 201.441,-115.994"/>
</g>
<!-- Node3 -->
<g id="node3" class="node"><title>Node3</title>
<g id="a_node3"><a xlink:href="../../d8/db8/classnars_1_1language_1_1Term_ad85f45a7858737445d5158801774ff5f.html#ad85f45a7858737445d5158801774ff5f" target="_top" xlink:title="Equal terms have identical name, though not necessarily the same reference. ">
<polygon fill="none" stroke="black" points="208.5,-76.5 208.5,-95.5 342.5,-95.5 342.5,-76.5 208.5,-76.5"/>
<text text-anchor="middle" x="275.5" y="-83.5" font-family="Helvetica,sans-Serif" font-size="10.00">nars.language.Term.equals</text>
</a>
</g>
</g>
<!-- Node1&#45;&gt;Node3 -->
<g id="edge2" class="edge"><title>Node1&#45;&gt;Node3</title>
<path fill="none" stroke="midnightblue" d="M134.19,-73.0901C154.567,-74.965 177.165,-77.0443 198.166,-78.9765"/>
<polygon fill="midnightblue" stroke="midnightblue" points="198.052,-82.4807 208.331,-79.9118 198.693,-75.5102 198.052,-82.4807"/>
</g>
<!-- Node5 -->
<g id="node5" class="node"><title>Node5</title>
<g id="a_node5"><a xlink:href="../../de/da5/classnars_1_1language_1_1Variable_a453637a49d162fd4bb44725ff7b5965b.html#a453637a49d162fd4bb44725ff7b5965b" target="_top" xlink:title="Get the type of the variable. ">
<polygon fill="none" stroke="black" points="198.5,-38.5 198.5,-57.5 352.5,-57.5 352.5,-38.5 198.5,-38.5"/>
<text text-anchor="middle" x="275.5" y="-45.5" font-family="Helvetica,sans-Serif" font-size="10.00">nars.language.Variable.getType</text>
</a>
</g>
</g>
<!-- Node1&#45;&gt;Node5 -->
<g id="edge4" class="edge"><title>Node1&#45;&gt;Node5</title>
<path fill="none" stroke="midnightblue" d="M134.19,-60.9099C151.41,-59.3255 170.215,-57.5952 188.303,-55.931"/>
<polygon fill="midnightblue" stroke="midnightblue" points="188.626,-59.4161 198.263,-55.0145 187.984,-52.4456 188.626,-59.4161"/>
</g>
<!-- Node6 -->
<g id="node6" class="node"><title>Node6</title>
<g id="a_node6"><a xlink:href="../../d0/dee/classnars_1_1language_1_1CompoundTerm_ac81c5851f664320ddec435641f198b03.html#ac81c5851f664320ddec435641f198b03" target="_top" xlink:title="get the number of components ">
<polygon fill="none" stroke="black" points="190,-0.5 190,-19.5 361,-19.5 361,-0.5 190,-0.5"/>
<text text-anchor="middle" x="275.5" y="-7.5" font-family="Helvetica,sans-Serif" font-size="10.00">nars.language.CompoundTerm.size</text>
</a>
</g>
</g>
<!-- Node1&#45;&gt;Node6 -->
<g id="edge5" class="edge"><title>Node1&#45;&gt;Node6</title>
<path fill="none" stroke="midnightblue" d="M103.839,-51.8755C123.165,-44.1733 147.588,-35.1603 170,-29 180.278,-26.175 191.242,-23.6571 202.059,-21.4515"/>
<polygon fill="midnightblue" stroke="midnightblue" points="202.789,-24.8751 211.928,-19.514 201.441,-18.0062 202.789,-24.8751"/>
</g>
<!-- Node4 -->
<g id="node4" class="node"><title>Node4</title>
<g id="a_node4"><a xlink:href="../../d8/db8/classnars_1_1language_1_1Term_a3aad4654016b8615fd4fa8a26668e1db.html#a3aad4654016b8615fd4fa8a26668e1db" target="_top" xlink:title="Reporting the name of the current Term. ">
<polygon fill="none" stroke="black" points="417,-76.5 417,-95.5 563,-95.5 563,-76.5 417,-76.5"/>
<text text-anchor="middle" x="490" y="-83.5" font-family="Helvetica,sans-Serif" font-size="10.00">nars.language.Term.getName</text>
</a>
</g>
</g>
<!-- Node3&#45;&gt;Node4 -->
<g id="edge3" class="edge"><title>Node3&#45;&gt;Node4</title>
<path fill="none" stroke="midnightblue" d="M342.571,-86C362.779,-86 385.261,-86 406.422,-86"/>
<polygon fill="midnightblue" stroke="midnightblue" points="406.689,-89.5001 416.689,-86 406.689,-82.5001 406.689,-89.5001"/>
</g>
</g>
</svg>
