<?xml version="1.0" encoding="UTF-8" standalone="no"?>
<!DOCTYPE svg PUBLIC "-//W3C//DTD SVG 1.1//EN"
 "http://www.w3.org/Graphics/SVG/1.1/DTD/svg11.dtd">
<!-- Generated by graphviz version 2.38.0 (20140413.2041)
 -->
<!-- Title: nars.language.Variable.hasSubstitute Pages: 1 -->
<svg width="2267pt" height="127pt"
 viewBox="0.00 0.00 2267.00 127.00" xmlns="http://www.w3.org/2000/svg" xmlns:xlink="http://www.w3.org/1999/xlink">
<g id="graph0" class="graph" transform="scale(1 1) rotate(0) translate(4 123)">
<title>nars.language.Variable.hasSubstitute</title>
<!-- Node1 -->
<g id="node1" class="node"><title>Node1</title>
<polygon fill="#bfbfbf" stroke="black" points="0,-66.5 0,-96.5 134,-96.5 134,-66.5 0,-66.5"/>
<text text-anchor="start" x="8" y="-84.5" font-family="Helvetica,sans-Serif" font-size="10.00">nars.language.Variable.has</text>
<text text-anchor="middle" x="67" y="-73.5" font-family="Helvetica,sans-Serif" font-size="10.00">Substitute</text>
</g>
<!-- Node2 -->
<g id="node2" class="node"><title>Node2</title>
<g id="a_node2"><a xlink:href="../../d4/daa/classnars_1_1inference_1_1SyllogisticRules_a90588e33b6d7ca522e787ee476a2a012.html#a90588e33b6d7ca522e787ee476a2a012" target="_top" xlink:title="{&lt;(&amp;&amp;, S1, S2) &lt;=&gt; P&gt;, (&amp;&amp;, S1, S2)} |&#45; P ">
<polygon fill="none" stroke="black" points="359,-88.5 359,-118.5 485,-118.5 485,-88.5 359,-88.5"/>
<text text-anchor="start" x="367" y="-106.5" font-family="Helvetica,sans-Serif" font-size="10.00">nars.inference.Syllogistic</text>
<text text-anchor="middle" x="422" y="-95.5" font-family="Helvetica,sans-Serif" font-size="10.00">Rules.conditionalAna</text>
</a>
</g>
</g>
<!-- Node1&#45;&gt;Node2 -->
<g id="edge1" class="edge"><title>Node1&#45;&gt;Node2</title>
<path fill="none" stroke="midnightblue" d="M144.452,-86.2647C208.567,-90.2606 298.982,-95.8955 358.749,-99.6203"/>
<polygon fill="midnightblue" stroke="midnightblue" points="144.595,-82.7669 134.397,-85.638 144.159,-89.7534 144.595,-82.7669"/>
</g>
<!-- Node12 -->
<g id="node12" class="node"><title>Node12</title>
<g id="a_node12"><a xlink:href="../../d4/daa/classnars_1_1inference_1_1SyllogisticRules_a6ee55e2d5114b506fdf5c59ae00dcd19.html#a6ee55e2d5114b506fdf5c59ae00dcd19" target="_top" xlink:title="{&lt;(&amp;&amp;, S1, S2, S3) ==&gt; P&gt;, S1} |&#45; &lt;(&amp;&amp;, S2, S3) ==&gt; P&gt; {&lt;(&amp;&amp;, S2, S3) ==&gt; P&gt;, &lt;S1 ==&gt; S2&gt;} |&#45; &lt;(&amp;&amp;...">
<polygon fill="none" stroke="black" points="170,-44.5 170,-74.5 296,-74.5 296,-44.5 170,-44.5"/>
<text text-anchor="start" x="178" y="-62.5" font-family="Helvetica,sans-Serif" font-size="10.00">nars.inference.Syllogistic</text>
<text text-anchor="middle" x="233" y="-51.5" font-family="Helvetica,sans-Serif" font-size="10.00">Rules.conditionalDedInd</text>
</a>
</g>
</g>
<!-- Node1&#45;&gt;Node12 -->
<g id="edge11" class="edge"><title>Node1&#45;&gt;Node12</title>
<path fill="none" stroke="midnightblue" d="M144.217,-71.2757C152.775,-70.1277 161.417,-68.9684 169.768,-67.8481"/>
<polygon fill="midnightblue" stroke="midnightblue" points="143.678,-67.8166 134.232,-72.6152 144.609,-74.7545 143.678,-67.8166"/>
</g>
<!-- Node3 -->
<g id="node3" class="node"><title>Node3</title>
<g id="a_node3"><a xlink:href="../../da/de3/classnars_1_1inference_1_1RuleTables_ac2d01dfdc40bdd47c757cb549217e6e3.html#ac2d01dfdc40bdd47c757cb549217e6e3" target="_top" xlink:title="Entry point of the inference engine. ">
<polygon fill="none" stroke="black" points="548,-50 548,-69 711,-69 711,-50 548,-50"/>
<text text-anchor="middle" x="629.5" y="-57" font-family="Helvetica,sans-Serif" font-size="10.00">nars.inference.RuleTables.reason</text>
</a>
</g>
</g>
<!-- Node2&#45;&gt;Node3 -->
<g id="edge2" class="edge"><title>Node2&#45;&gt;Node3</title>
<path fill="none" stroke="midnightblue" d="M495.109,-88.0607C524.755,-81.7131 558.147,-74.5634 584.105,-69.0054"/>
<polygon fill="midnightblue" stroke="midnightblue" points="494.26,-84.663 485.214,-90.1791 495.726,-91.5078 494.26,-84.663"/>
</g>
<!-- Node4 -->
<g id="node4" class="node"><title>Node4</title>
<g id="a_node4"><a xlink:href="../../d4/d22/classnars_1_1entity_1_1Concept_ae07576c8466ad65eeb61040e3f71cfc7.html#ae07576c8466ad65eeb61040e3f71cfc7" target="_top" xlink:title="An atomic step in a concept, only called in Memory# processConcept. ">
<polygon fill="none" stroke="black" points="747,-50 747,-69 866,-69 866,-50 747,-50"/>
<text text-anchor="middle" x="806.5" y="-57" font-family="Helvetica,sans-Serif" font-size="10.00">nars.entity.Concept.fire</text>
</a>
</g>
</g>
<!-- Node3&#45;&gt;Node4 -->
<g id="edge3" class="edge"><title>Node3&#45;&gt;Node4</title>
<path fill="none" stroke="midnightblue" d="M721.249,-59.5C729.907,-59.5 738.523,-59.5 746.757,-59.5"/>
<polygon fill="midnightblue" stroke="midnightblue" points="721.085,-56.0001 711.085,-59.5 721.085,-63.0001 721.085,-56.0001"/>
</g>
<!-- Node5 -->
<g id="node5" class="node"><title>Node5</title>
<g id="a_node5"><a xlink:href="../../d8/df4/classnars_1_1storage_1_1Memory_a83154b55b922c82b73931d4f22e3a590.html#a83154b55b922c82b73931d4f22e3a590" target="_top" xlink:title="Select a concept to fire. ">
<polygon fill="none" stroke="black" points="902,-44.5 902,-74.5 1048,-74.5 1048,-44.5 902,-44.5"/>
<text text-anchor="start" x="910" y="-62.5" font-family="Helvetica,sans-Serif" font-size="10.00">nars.storage.Memory.process</text>
<text text-anchor="middle" x="975" y="-51.5" font-family="Helvetica,sans-Serif" font-size="10.00">Concept</text>
</a>
</g>
</g>
<!-- Node4&#45;&gt;Node5 -->
<g id="edge4" class="edge"><title>Node4&#45;&gt;Node5</title>
<path fill="none" stroke="midnightblue" d="M876.337,-59.5C884.748,-59.5 893.361,-59.5 901.819,-59.5"/>
<polygon fill="midnightblue" stroke="midnightblue" points="876.202,-56.0001 866.202,-59.5 876.202,-63.0001 876.202,-56.0001"/>
</g>
<!-- Node6 -->
<g id="node6" class="node"><title>Node6</title>
<g id="a_node6"><a xlink:href="../../d8/df4/classnars_1_1storage_1_1Memory_a49e2cbc8b78d535f4d69739886ee966a.html#a49e2cbc8b78d535f4d69739886ee966a" target="_top" xlink:title="An atomic working workCycle of the system: process new Tasks, then fire a concept. ">
<polygon fill="none" stroke="black" points="1084,-44.5 1084,-74.5 1217,-74.5 1217,-44.5 1084,-44.5"/>
<text text-anchor="start" x="1092" y="-62.5" font-family="Helvetica,sans-Serif" font-size="10.00">nars.storage.Memory.work</text>
<text text-anchor="middle" x="1150.5" y="-51.5" font-family="Helvetica,sans-Serif" font-size="10.00">Cycle</text>
</a>
</g>
</g>
<!-- Node5&#45;&gt;Node6 -->
<g id="edge5" class="edge"><title>Node5&#45;&gt;Node6</title>
<path fill="none" stroke="midnightblue" d="M1058.12,-59.5C1066.72,-59.5 1075.37,-59.5 1083.76,-59.5"/>
<polygon fill="midnightblue" stroke="midnightblue" points="1058.07,-56.0001 1048.07,-59.5 1058.07,-63.0001 1058.07,-56.0001"/>
</g>
<!-- Node7 -->
<g id="node7" class="node"><title>Node7</title>
<g id="a_node7"><a xlink:href="../../dd/da5/classnars_1_1storage_1_1Memory_1_1ReasonerBatch_acc60dec23da774957a85362ed6d7448b.html#acc60dec23da774957a85362ed6d7448b" target="_top" xlink:title="nars.storage.Memory.Reasoner\lBatch.doTick">
<polygon fill="none" stroke="black" points="1253,-44.5 1253,-74.5 1407,-74.5 1407,-44.5 1253,-44.5"/>
<text text-anchor="start" x="1261" y="-62.5" font-family="Helvetica,sans-Serif" font-size="10.00">nars.storage.Memory.Reasoner</text>
<text text-anchor="middle" x="1330" y="-51.5" font-family="Helvetica,sans-Serif" font-size="10.00">Batch.doTick</text>
</a>
</g>
</g>
<!-- Node6&#45;&gt;Node7 -->
<g id="edge6" class="edge"><title>Node6&#45;&gt;Node7</title>
<path fill="none" stroke="midnightblue" d="M1227.32,-59.5C1235.79,-59.5 1244.41,-59.5 1252.89,-59.5"/>
<polygon fill="midnightblue" stroke="midnightblue" points="1227.09,-56.0001 1217.09,-59.5 1227.09,-63.0001 1227.09,-56.0001"/>
</g>
<!-- Node8 -->
<g id="node8" class="node"><title>Node8</title>
<g id="a_node8"><a xlink:href="../../dd/da5/classnars_1_1storage_1_1Memory_1_1ReasonerBatch_aed591f05899b98fd9e4ad01836ad0a40.html#aed591f05899b98fd9e4ad01836ad0a40" target="_top" xlink:title="A clock tick. ">
<polygon fill="none" stroke="black" points="1443,-44.5 1443,-74.5 1597,-74.5 1597,-44.5 1443,-44.5"/>
<text text-anchor="start" x="1451" y="-62.5" font-family="Helvetica,sans-Serif" font-size="10.00">nars.storage.Memory.Reasoner</text>
<text text-anchor="middle" x="1520" y="-51.5" font-family="Helvetica,sans-Serif" font-size="10.00">Batch.tick</text>
</a>
</g>
</g>
<!-- Node7&#45;&gt;Node8 -->
<g id="edge7" class="edge"><title>Node7&#45;&gt;Node8</title>
<path fill="none" stroke="midnightblue" d="M1417.42,-59.5C1425.86,-59.5 1434.37,-59.5 1442.7,-59.5"/>
<polygon fill="midnightblue" stroke="midnightblue" points="1417.2,-56.0001 1407.2,-59.5 1417.2,-63.0001 1417.2,-56.0001"/>
</g>
<!-- Node9 -->
<g id="node9" class="node"><title>Node9</title>
<g id="a_node9"><a xlink:href="../../d4/d88/classnars_1_1storage_1_1Memory_1_1NARSBatch_aad99db6cedde9cff2a997db8906ff821.html#aad99db6cedde9cff2a997db8906ff821" target="_top" xlink:title="Run to completion: repeatedly execute NARS working cycle, until Inputs are Finished, or 1000 steps. ">
<polygon fill="none" stroke="black" points="1633,-50 1633,-69 1815,-69 1815,-50 1633,-50"/>
<text text-anchor="middle" x="1724" y="-57" font-family="Helvetica,sans-Serif" font-size="10.00">nars.storage.Memory.NARSBatch.run</text>
</a>
</g>
</g>
<!-- Node8&#45;&gt;Node9 -->
<g id="edge8" class="edge"><title>Node8&#45;&gt;Node9</title>
<path fill="none" stroke="midnightblue" d="M1607.27,-59.5C1615.69,-59.5 1624.25,-59.5 1632.71,-59.5"/>
<polygon fill="midnightblue" stroke="midnightblue" points="1607.08,-56.0001 1597.08,-59.5 1607.08,-63.0001 1607.08,-56.0001"/>
</g>
<!-- Node10 -->
<g id="node10" class="node"><title>Node10</title>
<g id="a_node10"><a xlink:href="../../d4/d88/classnars_1_1storage_1_1Memory_1_1NARSBatch_a416c39463faa161661ed1d12fea03b3c.html#a416c39463faa161661ed1d12fea03b3c" target="_top" xlink:title="non&#45;static equivalent to main(String[]) : run to completion from an input file ">
<polygon fill="none" stroke="black" points="1851,-44.5 1851,-74.5 2033,-74.5 2033,-44.5 1851,-44.5"/>
<text text-anchor="start" x="1859" y="-62.5" font-family="Helvetica,sans-Serif" font-size="10.00">nars.storage.Memory.NARSBatch.run</text>
<text text-anchor="middle" x="1942" y="-51.5" font-family="Helvetica,sans-Serif" font-size="10.00">Inference</text>
</a>
</g>
</g>
<!-- Node9&#45;&gt;Node10 -->
<g id="edge9" class="edge"><title>Node9&#45;&gt;Node10</title>
<path fill="none" stroke="midnightblue" d="M1825.06,-59.5C1833.63,-59.5 1842.27,-59.5 1850.76,-59.5"/>
<polygon fill="midnightblue" stroke="midnightblue" points="1825.04,-56.0001 1815.04,-59.5 1825.04,-63.0001 1825.04,-56.0001"/>
</g>
<!-- Node11 -->
<g id="node11" class="node"><title>Node11</title>
<g id="a_node11"><a xlink:href="../../d4/d88/classnars_1_1storage_1_1Memory_1_1NARSBatch_aa97fcd68270583e60e6bf1b4579d1bdc.html#aa97fcd68270583e60e6bf1b4579d1bdc" target="_top" xlink:title="The entry point of the standalone application. ">
<polygon fill="none" stroke="black" points="2069,-50 2069,-69 2259,-69 2259,-50 2069,-50"/>
<text text-anchor="middle" x="2164" y="-57" font-family="Helvetica,sans-Serif" font-size="10.00">nars.storage.Memory.NARSBatch.main</text>
</a>
</g>
</g>
<!-- Node10&#45;&gt;Node11 -->
<g id="edge10" class="edge"><title>Node10&#45;&gt;Node11</title>
<path fill="none" stroke="midnightblue" d="M2043.37,-59.5C2051.82,-59.5 2060.34,-59.5 2068.74,-59.5"/>
<polygon fill="midnightblue" stroke="midnightblue" points="2043.12,-56.0001 2033.12,-59.5 2043.12,-63.0001 2043.12,-56.0001"/>
</g>
<!-- Node12&#45;&gt;Node3 -->
<g id="edge14" class="edge"><title>Node12&#45;&gt;Node3</title>
<path fill="none" stroke="midnightblue" d="M306.309,-59.5C374.564,-59.5 476.744,-59.5 547.662,-59.5"/>
<polygon fill="midnightblue" stroke="midnightblue" points="306.075,-56.0001 296.075,-59.5 306.075,-63.0001 306.075,-56.0001"/>
</g>
<!-- Node13 -->
<g id="node13" class="node"><title>Node13</title>
<g id="a_node13"><a xlink:href="../../da/de3/classnars_1_1inference_1_1RuleTables_a62599450d65ff257b92df0d48d7c1bdf.html#a62599450d65ff257b92df0d48d7c1bdf" target="_top" xlink:title="Conditional deduction or induction, with variable unification. ">
<polygon fill="none" stroke="black" points="332,-0.5 332,-30.5 512,-30.5 512,-0.5 332,-0.5"/>
<text text-anchor="start" x="340" y="-18.5" font-family="Helvetica,sans-Serif" font-size="10.00">nars.inference.RuleTables.conditional</text>
<text text-anchor="middle" x="422" y="-7.5" font-family="Helvetica,sans-Serif" font-size="10.00">DedIndWithVar</text>
</a>
</g>
</g>
<!-- Node12&#45;&gt;Node13 -->
<g id="edge12" class="edge"><title>Node12&#45;&gt;Node13</title>
<path fill="none" stroke="midnightblue" d="M305.841,-42.5962C322.768,-38.6134 340.697,-34.3947 357.24,-30.5023"/>
<polygon fill="midnightblue" stroke="midnightblue" points="304.941,-39.2123 296.009,-44.9098 306.544,-46.0262 304.941,-39.2123"/>
</g>
<!-- Node13&#45;&gt;Node3 -->
<g id="edge13" class="edge"><title>Node13&#45;&gt;Node3</title>
<path fill="none" stroke="midnightblue" d="M503.162,-32.6637C530.668,-38.553 560.446,-44.9288 584.073,-49.9876"/>
<polygon fill="midnightblue" stroke="midnightblue" points="503.658,-29.1906 493.147,-30.5192 502.192,-36.0354 503.658,-29.1906"/>
</g>
</g>
</svg>
