<?xml version="1.0" encoding="UTF-8" standalone="no"?>
<!DOCTYPE svg PUBLIC "-//W3C//DTD SVG 1.1//EN"
 "http://www.w3.org/Graphics/SVG/1.1/DTD/svg11.dtd">
<!-- Generated by graphviz version 2.38.0 (20140413.2041)
 -->
<!-- Title: nars.language.Variable.unify Pages: 1 -->
<svg width="747pt" height="142pt"
 viewBox="0.00 0.00 747.00 142.00" xmlns="http://www.w3.org/2000/svg" xmlns:xlink="http://www.w3.org/1999/xlink">
<g id="graph0" class="graph" transform="scale(1 1) rotate(0) translate(4 138)">
<title>nars.language.Variable.unify</title>
<!-- Node1 -->
<g id="node1" class="node"><title>Node1</title>
<polygon fill="#bfbfbf" stroke="black" points="0,-57.5 0,-76.5 140,-76.5 140,-57.5 0,-57.5"/>
<text text-anchor="middle" x="70" y="-64.5" font-family="Helvetica,sans-Serif" font-size="10.00">nars.language.Variable.unify</text>
</g>
<!-- Node2 -->
<g id="node2" class="node"><title>Node2</title>
<g id="a_node2"><a xlink:href="../../de/da5/classnars_1_1language_1_1Variable_a997e50c6a8ea7057483f057bc703a4f0.html#a997e50c6a8ea7057483f057bc703a4f0" target="_top" xlink:title="To recursively find a substitution that can unify two Terms without changing them. ">
<polygon fill="none" stroke="black" points="176,-52 176,-82 310,-82 310,-52 176,-52"/>
<text text-anchor="start" x="184" y="-70" font-family="Helvetica,sans-Serif" font-size="10.00">nars.language.Variable.find</text>
<text text-anchor="middle" x="243" y="-59" font-family="Helvetica,sans-Serif" font-size="10.00">Substitute</text>
</a>
</g>
</g>
<!-- Node1&#45;&gt;Node2 -->
<g id="edge1" class="edge"><title>Node1&#45;&gt;Node2</title>
<path fill="none" stroke="midnightblue" d="M140.059,-67C148.429,-67 157.016,-67 165.485,-67"/>
<polygon fill="midnightblue" stroke="midnightblue" points="165.733,-70.5001 175.733,-67 165.733,-63.5001 165.733,-70.5001"/>
</g>
<!-- Node3 -->
<g id="node3" class="node"><title>Node3</title>
<g id="a_node3"><a xlink:href="../../d0/dee/classnars_1_1language_1_1CompoundTerm_acedae916705e9fa1669391a7d728b840.html#acedae916705e9fa1669391a7d728b840" target="_top" xlink:title="get a component by index ">
<polygon fill="none" stroke="black" points="346,-114.5 346,-133.5 557,-133.5 557,-114.5 346,-114.5"/>
<text text-anchor="middle" x="451.5" y="-121.5" font-family="Helvetica,sans-Serif" font-size="10.00">nars.language.CompoundTerm.componentAt</text>
</a>
</g>
</g>
<!-- Node2&#45;&gt;Node3 -->
<g id="edge2" class="edge"><title>Node2&#45;&gt;Node3</title>
<path fill="none" stroke="midnightblue" d="M279.839,-82.1245C299.165,-89.8267 323.588,-98.8397 346,-105 356.278,-107.825 367.242,-110.343 378.059,-112.548"/>
<polygon fill="midnightblue" stroke="midnightblue" points="377.441,-115.994 387.928,-114.486 378.789,-109.125 377.441,-115.994"/>
</g>
<!-- Node4 -->
<g id="node4" class="node"><title>Node4</title>
<g id="a_node4"><a xlink:href="../../d8/db8/classnars_1_1language_1_1Term_ad85f45a7858737445d5158801774ff5f.html#ad85f45a7858737445d5158801774ff5f" target="_top" xlink:title="Equal terms have identical name, though not necessarily the same reference. ">
<polygon fill="none" stroke="black" points="384.5,-76.5 384.5,-95.5 518.5,-95.5 518.5,-76.5 384.5,-76.5"/>
<text text-anchor="middle" x="451.5" y="-83.5" font-family="Helvetica,sans-Serif" font-size="10.00">nars.language.Term.equals</text>
</a>
</g>
</g>
<!-- Node2&#45;&gt;Node4 -->
<g id="edge3" class="edge"><title>Node2&#45;&gt;Node4</title>
<path fill="none" stroke="midnightblue" d="M310.19,-73.0901C330.567,-74.965 353.165,-77.0443 374.166,-78.9765"/>
<polygon fill="midnightblue" stroke="midnightblue" points="374.052,-82.4807 384.331,-79.9118 374.693,-75.5102 374.052,-82.4807"/>
</g>
<!-- Node6 -->
<g id="node6" class="node"><title>Node6</title>
<g id="a_node6"><a xlink:href="../../de/da5/classnars_1_1language_1_1Variable_a453637a49d162fd4bb44725ff7b5965b.html#a453637a49d162fd4bb44725ff7b5965b" target="_top" xlink:title="Get the type of the variable. ">
<polygon fill="none" stroke="black" points="374.5,-38.5 374.5,-57.5 528.5,-57.5 528.5,-38.5 374.5,-38.5"/>
<text text-anchor="middle" x="451.5" y="-45.5" font-family="Helvetica,sans-Serif" font-size="10.00">nars.language.Variable.getType</text>
</a>
</g>
</g>
<!-- Node2&#45;&gt;Node6 -->
<g id="edge5" class="edge"><title>Node2&#45;&gt;Node6</title>
<path fill="none" stroke="midnightblue" d="M310.19,-60.9099C327.41,-59.3255 346.215,-57.5952 364.303,-55.931"/>
<polygon fill="midnightblue" stroke="midnightblue" points="364.626,-59.4161 374.263,-55.0145 363.984,-52.4456 364.626,-59.4161"/>
</g>
<!-- Node7 -->
<g id="node7" class="node"><title>Node7</title>
<g id="a_node7"><a xlink:href="../../d0/dee/classnars_1_1language_1_1CompoundTerm_ac81c5851f664320ddec435641f198b03.html#ac81c5851f664320ddec435641f198b03" target="_top" xlink:title="get the number of components ">
<polygon fill="none" stroke="black" points="366,-0.5 366,-19.5 537,-19.5 537,-0.5 366,-0.5"/>
<text text-anchor="middle" x="451.5" y="-7.5" font-family="Helvetica,sans-Serif" font-size="10.00">nars.language.CompoundTerm.size</text>
</a>
</g>
</g>
<!-- Node2&#45;&gt;Node7 -->
<g id="edge6" class="edge"><title>Node2&#45;&gt;Node7</title>
<path fill="none" stroke="midnightblue" d="M279.839,-51.8755C299.165,-44.1733 323.588,-35.1603 346,-29 356.278,-26.175 367.242,-23.6571 378.059,-21.4515"/>
<polygon fill="midnightblue" stroke="midnightblue" points="378.789,-24.8751 387.928,-19.514 377.441,-18.0062 378.789,-24.8751"/>
</g>
<!-- Node5 -->
<g id="node5" class="node"><title>Node5</title>
<g id="a_node5"><a xlink:href="../../d8/db8/classnars_1_1language_1_1Term_a3aad4654016b8615fd4fa8a26668e1db.html#a3aad4654016b8615fd4fa8a26668e1db" target="_top" xlink:title="Reporting the name of the current Term. ">
<polygon fill="none" stroke="black" points="593,-76.5 593,-95.5 739,-95.5 739,-76.5 593,-76.5"/>
<text text-anchor="middle" x="666" y="-83.5" font-family="Helvetica,sans-Serif" font-size="10.00">nars.language.Term.getName</text>
</a>
</g>
</g>
<!-- Node4&#45;&gt;Node5 -->
<g id="edge4" class="edge"><title>Node4&#45;&gt;Node5</title>
<path fill="none" stroke="midnightblue" d="M518.571,-86C538.779,-86 561.261,-86 582.422,-86"/>
<polygon fill="midnightblue" stroke="midnightblue" points="582.689,-89.5001 592.689,-86 582.689,-82.5001 582.689,-89.5001"/>
</g>
</g>
</svg>
