<?xml version="1.0" encoding="UTF-8" standalone="no"?>
<!DOCTYPE svg PUBLIC "-//W3C//DTD SVG 1.1//EN"
 "http://www.w3.org/Graphics/SVG/1.1/DTD/svg11.dtd">
<!-- Generated by graphviz version 2.38.0 (20140413.2041)
 -->
<!-- Title: nars.language.Variable.containVarIndep Pages: 1 -->
<!--zoomable 209 -->
<svg id="main" version="1.1" xmlns="http://www.w3.org/2000/svg" xmlns:xlink="http://www.w3.org/1999/xlink" xml:space="preserve" onload="init(evt)">
<style type="text/css"><![CDATA[
.edge:hover path { stroke: red; }
.edge:hover polygon { stroke: red; fill: red; }
]]></style>
<script type="text/javascript"><![CDATA[
var edges = document.getElementsByTagName('g');
if (edges && edges.length) {
  for (var i=0;i<edges.length;i++) {
    if (edges[i].id.substr(0,4)=='edge') {
      edges[i].setAttribute('class','edge');
    }
  }
}
]]></script>
        <defs>
                <circle id="rim" cx="0" cy="0" r="7"/>
                <circle id="rim2" cx="0" cy="0" r="3.5"/>
                <g id="zoomPlus">
                        <use xlink:href="#rim" fill="#404040">
                                <set attributeName="fill" to="#808080" begin="zoomplus.mouseover" end="zoomplus.mouseout"/>
                        </use>
                        <path d="M-4,0h8M0,-4v8" fill="none" stroke="white" stroke-width="1.5" pointer-events="none"/>
                </g>
                <g id="zoomMin">
                        <use xlink:href="#rim" fill="#404040">
                                <set attributeName="fill" to="#808080" begin="zoomminus.mouseover" end="zoomminus.mouseout"/>
                        </use>
                        <path d="M-4,0h8" fill="none" stroke="white" stroke-width="1.5" pointer-events="none"/>
                </g>
                <g id="dirArrow">
                        <path fill="none" stroke="white" stroke-width="1.5" d="M0,-3.0v7 M-2.5,-0.5L0,-3.0L2.5,-0.5"/>
                </g>
               <g id="resetDef">
                       <use xlink:href="#rim2" fill="#404040">
                               <set attributeName="fill" to="#808080" begin="reset.mouseover" end="reset.mouseout"/>
                       </use>
               </g>
        </defs>

<script type="text/javascript">
var viewWidth = 1360;
var viewHeight = 209;
var sectionId = 'dynsection-0';
</script>
<script xlink:href="../../svgpan.js"/>
<svg id="graph" class="graph">
<g id="viewport">
<title>nars.language.Variable.containVarIndep</title>
<!-- Node1 -->
<g id="node1" class="node"><title>Node1</title>
<polygon fill="#bfbfbf" stroke="black" points="0,-126.5 0,-156.5 150,-156.5 150,-126.5 0,-126.5"/>
<text text-anchor="start" x="8" y="-144.5" font-family="Helvetica,sans-Serif" font-size="10.00">nars.language.Variable.contain</text>
<text text-anchor="middle" x="75" y="-133.5" font-family="Helvetica,sans-Serif" font-size="10.00">VarIndep</text>
</g>
<!-- Node2 -->
<g id="node2" class="node"><title>Node2</title>
<g id="a_node2"><a xlink:href="../../de/da5/classnars_1_1language_1_1Variable_a2c36e85a56295a27aba7a4ee162f5850.html#a2c36e85a56295a27aba7a4ee162f5850" target="_top" xlink:title="Check whether a string represent a name of a term that contains a variable. ">
<polygon fill="none" stroke="black" points="186,-132 186,-151 351,-151 351,-132 186,-132"/>
<text text-anchor="middle" x="268.5" y="-139" font-family="Helvetica,sans-Serif" font-size="10.00">nars.language.Variable.containVar</text>
</a>
</g>
</g>
<!-- Node1&#45;&gt;Node2 -->
<g id="edge1" class="edge"><title>Node1&#45;&gt;Node2</title>
<path fill="none" stroke="midnightblue" d="M160.266,-141.5C168.715,-141.5 177.284,-141.5 185.706,-141.5"/>
<polygon fill="midnightblue" stroke="midnightblue" points="160.039,-138 150.039,-141.5 160.039,-145 160.039,-138"/>
</g>
<!-- Node3 -->
<g id="node3" class="node"><title>Node3</title>
<g id="a_node3"><a xlink:href="../../d0/dee/classnars_1_1language_1_1CompoundTerm_a575f70b59cb1810c54a28e75aa743868.html#a575f70b59cb1810c54a28e75aa743868" target="_top" xlink:title="Constructor called from subclasses constructors to initialize the fields. ">
<polygon fill="none" stroke="black" points="410.5,-170.5 410.5,-200.5 563.5,-200.5 563.5,-170.5 410.5,-170.5"/>
<text text-anchor="start" x="418.5" y="-188.5" font-family="Helvetica,sans-Serif" font-size="10.00">nars.language.CompoundTerm.</text>
<text text-anchor="middle" x="487" y="-177.5" font-family="Helvetica,sans-Serif" font-size="10.00">CompoundTerm</text>
</a>
</g>
</g>
<!-- Node2&#45;&gt;Node3 -->
<g id="edge2" class="edge"><title>Node2&#45;&gt;Node3</title>
<path fill="none" stroke="midnightblue" d="M326.584,-153.101C352.697,-158.408 383.969,-164.764 411.872,-170.435"/>
<polygon fill="midnightblue" stroke="midnightblue" points="326.974,-149.609 316.477,-151.047 325.58,-156.469 326.974,-149.609"/>
</g>
<!-- Node4 -->
<g id="node4" class="node"><title>Node4</title>
<g id="a_node4"><a xlink:href="../../d0/dee/classnars_1_1language_1_1CompoundTerm_a18e066f782a0070b137132a6a2d732d6.html#a18e066f782a0070b137132a6a2d732d6" target="_top" xlink:title="Whether this compound term contains any variable term. ">
<polygon fill="none" stroke="black" points="387,-132 387,-151 587,-151 587,-132 387,-132"/>
<text text-anchor="middle" x="487" y="-139" font-family="Helvetica,sans-Serif" font-size="10.00">nars.language.CompoundTerm.containVar</text>
</a>
</g>
</g>
<!-- Node2&#45;&gt;Node4 -->
<g id="edge3" class="edge"><title>Node2&#45;&gt;Node4</title>
<path fill="none" stroke="midnightblue" d="M361.219,-141.5C369.631,-141.5 378.179,-141.5 386.654,-141.5"/>
<polygon fill="midnightblue" stroke="midnightblue" points="361.041,-138 351.041,-141.5 361.041,-145 361.041,-138"/>
</g>
<!-- Node6 -->
<g id="node6" class="node"><title>Node6</title>
<g id="a_node6"><a xlink:href="../../d3/dca/classnars_1_1io_1_1StringParser_a4521720744de2b8638667be01b4be64a.html#a4521720744de2b8638667be01b4be64a" target="_top" xlink:title="Parse a Term that has no internal structure. ">
<polygon fill="none" stroke="black" points="422,-82.5 422,-112.5 552,-112.5 552,-82.5 422,-82.5"/>
<text text-anchor="start" x="430" y="-100.5" font-family="Helvetica,sans-Serif" font-size="10.00">nars.io.StringParser.parse</text>
<text text-anchor="middle" x="487" y="-89.5" font-family="Helvetica,sans-Serif" font-size="10.00">AtomicTerm</text>
</a>
</g>
</g>
<!-- Node2&#45;&gt;Node6 -->
<g id="edge5" class="edge"><title>Node2&#45;&gt;Node6</title>
<path fill="none" stroke="midnightblue" d="M326.546,-129.906C355.835,-123.954 391.623,-116.681 421.867,-110.534"/>
<polygon fill="midnightblue" stroke="midnightblue" points="325.58,-126.531 316.477,-131.953 326.974,-133.391 325.58,-126.531"/>
</g>
<!-- Node5 -->
<g id="node5" class="node"><title>Node5</title>
<g id="a_node5"><a xlink:href="../../d0/dee/classnars_1_1language_1_1CompoundTerm_ac19f90fbe8b8ebe78462fa13e7ebca74.html#ac19f90fbe8b8ebe78462fa13e7ebca74" target="_top" xlink:title="Rename the variables in the compound. ">
<polygon fill="none" stroke="black" points="623,-126.5 623,-156.5 808,-156.5 808,-126.5 623,-126.5"/>
<text text-anchor="start" x="631" y="-144.5" font-family="Helvetica,sans-Serif" font-size="10.00">nars.language.CompoundTerm.rename</text>
<text text-anchor="middle" x="715.5" y="-133.5" font-family="Helvetica,sans-Serif" font-size="10.00">Variables</text>
</a>
</g>
</g>
<!-- Node4&#45;&gt;Node5 -->
<g id="edge4" class="edge"><title>Node4&#45;&gt;Node5</title>
<path fill="none" stroke="midnightblue" d="M597.099,-141.5C605.711,-141.5 614.354,-141.5 622.83,-141.5"/>
<polygon fill="midnightblue" stroke="midnightblue" points="597.017,-138 587.017,-141.5 597.017,-145 597.017,-138"/>
</g>
<!-- Node7 -->
<g id="node7" class="node"><title>Node7</title>
<g id="a_node7"><a xlink:href="../../d3/dca/classnars_1_1io_1_1StringParser_a5c31494d6f7862dcf15a4d5716b6200e.html#a5c31494d6f7862dcf15a4d5716b6200e" target="_top" xlink:title="Top&#45;level method that parse a Term in general, which may recursively call itself. ...">
<polygon fill="none" stroke="black" points="639.5,-88 639.5,-107 791.5,-107 791.5,-88 639.5,-88"/>
<text text-anchor="middle" x="715.5" y="-95" font-family="Helvetica,sans-Serif" font-size="10.00">nars.io.StringParser.parseTerm</text>
</a>
</g>
</g>
<!-- Node6&#45;&gt;Node7 -->
<g id="edge6" class="edge"><title>Node6&#45;&gt;Node7</title>
<path fill="none" stroke="midnightblue" d="M562.324,-97.5C586.997,-97.5 614.477,-97.5 639.221,-97.5"/>
<polygon fill="midnightblue" stroke="midnightblue" points="562.3,-94.0001 552.3,-97.5 562.3,-101 562.3,-94.0001"/>
</g>
<!-- Node8 -->
<g id="node8" class="node"><title>Node8</title>
<g id="a_node8"><a xlink:href="../../d3/dca/classnars_1_1io_1_1StringParser_a7a11182c36a2fae68be8952110f47570.html#a7a11182c36a2fae68be8952110f47570" target="_top" xlink:title="Parse a String into the argument get of a CompoundTerm. ">
<polygon fill="none" stroke="black" points="855,-131.5 855,-161.5 985,-161.5 985,-131.5 855,-131.5"/>
<text text-anchor="start" x="863" y="-149.5" font-family="Helvetica,sans-Serif" font-size="10.00">nars.io.StringParser.parse</text>
<text text-anchor="middle" x="920" y="-138.5" font-family="Helvetica,sans-Serif" font-size="10.00">Arguments</text>
</a>
</g>
</g>
<!-- Node7&#45;&gt;Node8 -->
<g id="edge7" class="edge"><title>Node7&#45;&gt;Node8</title>
<path fill="none" stroke="midnightblue" d="M801.813,-107.032C803.897,-107.521 805.962,-108.011 808,-108.5 836.278,-115.282 868.405,-123.76 890.793,-131.464"/>
<polygon fill="midnightblue" stroke="midnightblue" points="802.483,-103.594 791.952,-104.759 800.911,-110.416 802.483,-103.594"/>
</g>
<!-- Node10 -->
<g id="node10" class="node"><title>Node10</title>
<g id="a_node10"><a xlink:href="../../d3/dca/classnars_1_1io_1_1StringParser_a7c129938c8d721e3db0a9804988f0588.html#a7c129938c8d721e3db0a9804988f0588" target="_top" xlink:title="Parse a String to create a Statement. ">
<polygon fill="none" stroke="black" points="855,-82.5 855,-112.5 985,-112.5 985,-82.5 855,-82.5"/>
<text text-anchor="start" x="863" y="-100.5" font-family="Helvetica,sans-Serif" font-size="10.00">nars.io.StringParser.parse</text>
<text text-anchor="middle" x="920" y="-89.5" font-family="Helvetica,sans-Serif" font-size="10.00">Statement</text>
</a>
</g>
</g>
<!-- Node7&#45;&gt;Node10 -->
<g id="edge11" class="edge"><title>Node7&#45;&gt;Node10</title>
<path fill="none" stroke="midnightblue" d="M801.975,-90.8233C819.73,-90.657 838.147,-90.7736 854.972,-91.1729"/>
<polygon fill="midnightblue" stroke="midnightblue" points="801.571,-87.3281 791.616,-90.954 801.659,-94.3275 801.571,-87.3281"/>
</g>
<!-- Node11 -->
<g id="node11" class="node"><title>Node11</title>
<g id="a_node11"><a xlink:href="../../d3/dca/classnars_1_1io_1_1StringParser_a75b446999d71c676a9915ecc75077a7d.html#a75b446999d71c676a9915ecc75077a7d" target="_top" xlink:title="Enter a new Task in String into the memory, called from InputWindow or locally. ">
<polygon fill="none" stroke="black" points="844,-6 844,-25 996,-25 996,-6 844,-6"/>
<text text-anchor="middle" x="920" y="-13" font-family="Helvetica,sans-Serif" font-size="10.00">nars.io.StringParser.parseTask</text>
</a>
</g>
</g>
<!-- Node7&#45;&gt;Node11 -->
<g id="edge13" class="edge"><title>Node7&#45;&gt;Node11</title>
<path fill="none" stroke="midnightblue" d="M744.752,-83.4914C770.322,-71.092 809.197,-52.9312 844,-39.5 857.647,-34.2332 872.989,-29.1764 886.224,-25.0741"/>
<polygon fill="midnightblue" stroke="midnightblue" points="743.091,-80.4075 735.64,-87.9396 746.161,-86.698 743.091,-80.4075"/>
</g>
<!-- Node8&#45;&gt;Node7 -->
<g id="edge10" class="edge"><title>Node8&#45;&gt;Node7</title>
<path fill="none" stroke="midnightblue" d="M845.032,-135.604C832.687,-132.56 819.997,-129.377 808,-126.5 781.278,-120.091 749.961,-113.428 731.761,-107.05"/>
<polygon fill="midnightblue" stroke="midnightblue" points="844.293,-139.026 854.839,-138.007 845.959,-132.228 844.293,-139.026"/>
</g>
<!-- Node9 -->
<g id="node9" class="node"><title>Node9</title>
<g id="a_node9"><a xlink:href="../../d3/dca/classnars_1_1io_1_1StringParser_a944bb677dff9f232ce6b896c853e24e0.html#a944bb677dff9f232ce6b896c853e24e0" target="_top" xlink:title="Parse a String to create a CompoundTerm. ">
<polygon fill="none" stroke="black" points="1032,-90.5 1032,-120.5 1162,-120.5 1162,-90.5 1032,-90.5"/>
<text text-anchor="start" x="1040" y="-108.5" font-family="Helvetica,sans-Serif" font-size="10.00">nars.io.StringParser.parse</text>
<text text-anchor="middle" x="1097" y="-97.5" font-family="Helvetica,sans-Serif" font-size="10.00">CompoundTerm</text>
</a>
</g>
</g>
<!-- Node8&#45;&gt;Node9 -->
<g id="edge8" class="edge"><title>Node8&#45;&gt;Node9</title>
<path fill="none" stroke="midnightblue" d="M994.916,-129.182C1007.19,-126.307 1019.83,-123.345 1031.84,-120.532"/>
<polygon fill="midnightblue" stroke="midnightblue" points="994.108,-125.777 985.17,-131.466 995.705,-132.592 994.108,-125.777"/>
</g>
<!-- Node9&#45;&gt;Node7 -->
<g id="edge9" class="edge"><title>Node9&#45;&gt;Node7</title>
<path fill="none" stroke="midnightblue" d="M1048.35,-86.9386C1032.02,-81.4699 1013.45,-76.224 996,-73.5 929.253,-63.0807 911.263,-67.2244 844,-73.5 814.509,-76.2515 781.673,-82.5089 756.711,-87.9444"/>
<polygon fill="midnightblue" stroke="midnightblue" points="1047.61,-90.3861 1058.21,-90.3518 1049.9,-83.7716 1047.61,-90.3861"/>
</g>
<!-- Node10&#45;&gt;Node7 -->
<g id="edge12" class="edge"><title>Node10&#45;&gt;Node7</title>
<path fill="none" stroke="midnightblue" d="M844.899,-104.03C827.536,-104.318 809.023,-104.323 791.616,-104.046"/>
<polygon fill="midnightblue" stroke="midnightblue" points="845.044,-107.527 854.972,-103.827 844.903,-100.529 845.044,-107.527"/>
</g>
<!-- Node12 -->
<g id="node12" class="node"><title>Node12</title>
<g id="a_node12"><a xlink:href="../../d3/dca/classnars_1_1io_1_1StringParser_a37ff864d959aba58138170a3f9a3e7c8.html#a37ff864d959aba58138170a3f9a3e7c8" target="_top" xlink:title="Parse a line of input experience. ">
<polygon fill="none" stroke="black" points="1032,-0.5 1032,-30.5 1162,-30.5 1162,-0.5 1032,-0.5"/>
<text text-anchor="start" x="1040" y="-18.5" font-family="Helvetica,sans-Serif" font-size="10.00">nars.io.StringParser.parse</text>
<text text-anchor="middle" x="1097" y="-7.5" font-family="Helvetica,sans-Serif" font-size="10.00">Experience</text>
</a>
</g>
</g>
<!-- Node11&#45;&gt;Node12 -->
<g id="edge14" class="edge"><title>Node11&#45;&gt;Node12</title>
<path fill="none" stroke="midnightblue" d="M1006.29,-15.5C1014.89,-15.5 1023.51,-15.5 1031.83,-15.5"/>
<polygon fill="midnightblue" stroke="midnightblue" points="1006.23,-12.0001 996.231,-15.5 1006.23,-19.0001 1006.23,-12.0001"/>
</g>
<!-- Node13 -->
<g id="node13" class="node"><title>Node13</title>
<g id="a_node13"><a xlink:href="../../dd/da5/classnars_1_1storage_1_1Memory_1_1ReasonerBatch_a2f22be33d98b4366712ff91b93c2be8a.html#a2f22be33d98b4366712ff91b93c2be8a" target="_top" xlink:title="To process a line of input text. ">
<polygon fill="none" stroke="black" points="1198,-0.5 1198,-30.5 1352,-30.5 1352,-0.5 1198,-0.5"/>
<text text-anchor="start" x="1206" y="-18.5" font-family="Helvetica,sans-Serif" font-size="10.00">nars.storage.Memory.Reasoner</text>
<text text-anchor="middle" x="1275" y="-7.5" font-family="Helvetica,sans-Serif" font-size="10.00">Batch.textInputLine</text>
</a>
</g>
</g>
<!-- Node12&#45;&gt;Node13 -->
<g id="edge15" class="edge"><title>Node12&#45;&gt;Node13</title>
<path fill="none" stroke="midnightblue" d="M1172.22,-15.5C1180.66,-15.5 1189.28,-15.5 1197.74,-15.5"/>
<polygon fill="midnightblue" stroke="midnightblue" points="1172.04,-12.0001 1162.04,-15.5 1172.04,-19.0001 1172.04,-12.0001"/>
</g>
</g>
</svg>
        <g id="navigator" transform="translate(0 0)" fill="#404254">
                <rect fill="#f2f5e9" fill-opacity="0.5" stroke="#606060" stroke-width=".5" x="0" y="0" width="60" height="60"/>
                <use id="zoomplus" xlink:href="#zoomPlus" x="17" y="9" onmousedown="handleZoom(evt,'in')"/>
                <use id="zoomminus" xlink:href="#zoomMin" x="42" y="9" onmousedown="handleZoom(evt,'out')"/>
                <use id="reset" xlink:href="#resetDef" x="30" y="36" onmousedown="handleReset()"/>
                <g id="arrowUp" xlink:href="#dirArrow" transform="translate(30 24)" onmousedown="handlePan(0,-1)">
                  <use xlink:href="#rim" fill="#404040">
                        <set attributeName="fill" to="#808080" begin="arrowUp.mouseover" end="arrowUp.mouseout"/>
                  </use>
                  <path fill="none" stroke="white" stroke-width="1.5" d="M0,-3.0v7 M-2.5,-0.5L0,-3.0L2.5,-0.5"/>
                </g>
                <g id="arrowRight" xlink:href="#dirArrow" transform="rotate(90) translate(36 -43)" onmousedown="handlePan(1,0)">
                  <use xlink:href="#rim" fill="#404040">
                        <set attributeName="fill" to="#808080" begin="arrowRight.mouseover" end="arrowRight.mouseout"/>
                  </use>
                  <path fill="none" stroke="white" stroke-width="1.5" d="M0,-3.0v7 M-2.5,-0.5L0,-3.0L2.5,-0.5"/>
                </g>
                <g id="arrowDown" xlink:href="#dirArrow" transform="rotate(180) translate(-30 -48)" onmousedown="handlePan(0,1)">
                  <use xlink:href="#rim" fill="#404040">
                        <set attributeName="fill" to="#808080" begin="arrowDown.mouseover" end="arrowDown.mouseout"/>
                  </use>
                  <path fill="none" stroke="white" stroke-width="1.5" d="M0,-3.0v7 M-2.5,-0.5L0,-3.0L2.5,-0.5"/>
                </g>
                <g id="arrowLeft" xlink:href="#dirArrow" transform="rotate(270) translate(-36 17)" onmousedown="handlePan(-1,0)">
                  <use xlink:href="#rim" fill="#404040">
                        <set attributeName="fill" to="#808080" begin="arrowLeft.mouseover" end="arrowLeft.mouseout"/>
                  </use>
                  <path fill="none" stroke="white" stroke-width="1.5" d="M0,-3.0v7 M-2.5,-0.5L0,-3.0L2.5,-0.5"/>
                </g>
        </g>
        <svg viewBox="0 0 15 15" width="100%" height="30px" preserveAspectRatio="xMaxYMin meet">
         <g id="arrow_out" transform="scale(0.3 0.3)">
          <a xlink:href="classnars_1_1language_1_1Variable_a9caa9f23d798ce1913cfca744ddd1c15_a9caa9f23d798ce1913cfca744ddd1c15_icgraph_org.svg" target="_base">
           <rect id="button" ry="5" rx="5" y="6" x="6" height="38" width="38"
                fill="#f2f5e9" fill-opacity="0.5" stroke="#606060" stroke-width="1.0"/>
           <path id="arrow"
             d="M 11.500037,31.436501 C 11.940474,20.09759 22.043105,11.32322 32.158766,21.979434 L 37.068811,17.246167 C 37.068811,17.246167 37.088388,32 37.088388,32 L 22.160133,31.978069 C 22.160133,31.978069 26.997745,27.140456 26.997745,27.140456 C 18.528582,18.264221 13.291696,25.230495 11.500037,31.436501 z"
             style="fill:#404040;"/>
          </a>
         </g>
        </svg>
</svg>
