<?xml version="1.0" encoding="UTF-8" standalone="no"?>
<!DOCTYPE svg PUBLIC "-//W3C//DTD SVG 1.1//EN"
 "http://www.w3.org/Graphics/SVG/1.1/DTD/svg11.dtd">
<!-- Generated by graphviz version 2.38.0 (20140413.2041)
 -->
<!-- Title: nars.language.Variable.getType Pages: 1 -->
<!--zoomable 127 -->
<svg id="main" version="1.1" xmlns="http://www.w3.org/2000/svg" xmlns:xlink="http://www.w3.org/1999/xlink" xml:space="preserve" onload="init(evt)">
<style type="text/css"><![CDATA[
.edge:hover path { stroke: red; }
.edge:hover polygon { stroke: red; fill: red; }
]]></style>
<script type="text/javascript"><![CDATA[
var edges = document.getElementsByTagName('g');
if (edges && edges.length) {
  for (var i=0;i<edges.length;i++) {
    if (edges[i].id.substr(0,4)=='edge') {
      edges[i].setAttribute('class','edge');
    }
  }
}
]]></script>
        <defs>
                <circle id="rim" cx="0" cy="0" r="7"/>
                <circle id="rim2" cx="0" cy="0" r="3.5"/>
                <g id="zoomPlus">
                        <use xlink:href="#rim" fill="#404040">
                                <set attributeName="fill" to="#808080" begin="zoomplus.mouseover" end="zoomplus.mouseout"/>
                        </use>
                        <path d="M-4,0h8M0,-4v8" fill="none" stroke="white" stroke-width="1.5" pointer-events="none"/>
                </g>
                <g id="zoomMin">
                        <use xlink:href="#rim" fill="#404040">
                                <set attributeName="fill" to="#808080" begin="zoomminus.mouseover" end="zoomminus.mouseout"/>
                        </use>
                        <path d="M-4,0h8" fill="none" stroke="white" stroke-width="1.5" pointer-events="none"/>
                </g>
                <g id="dirArrow">
                        <path fill="none" stroke="white" stroke-width="1.5" d="M0,-3.0v7 M-2.5,-0.5L0,-3.0L2.5,-0.5"/>
                </g>
               <g id="resetDef">
                       <use xlink:href="#rim2" fill="#404040">
                               <set attributeName="fill" to="#808080" begin="reset.mouseover" end="reset.mouseout"/>
                       </use>
               </g>
        </defs>

<script type="text/javascript">
var viewWidth = 2633;
var viewHeight = 127;
var sectionId = 'dynsection-0';
</script>
<script xlink:href="../../svgpan.js"/>
<svg id="graph" class="graph">
<g id="viewport">
<title>nars.language.Variable.getType</title>
<!-- Node1 -->
<g id="node1" class="node"><title>Node1</title>
<polygon fill="#bfbfbf" stroke="black" points="0,-50 0,-69 154,-69 154,-50 0,-50"/>
<text text-anchor="middle" x="77" y="-57" font-family="Helvetica,sans-Serif" font-size="10.00">nars.language.Variable.getType</text>
</g>
<!-- Node2 -->
<g id="node2" class="node"><title>Node2</title>
<g id="a_node2"><a xlink:href="../../de/da5/classnars_1_1language_1_1Variable_a997e50c6a8ea7057483f057bc703a4f0.html#a997e50c6a8ea7057483f057bc703a4f0" target="_top" xlink:title="To recursively find a substitution that can unify two Terms without changing them. ">
<polygon fill="none" stroke="black" points="190,-44.5 190,-74.5 324,-74.5 324,-44.5 190,-44.5"/>
<text text-anchor="start" x="198" y="-62.5" font-family="Helvetica,sans-Serif" font-size="10.00">nars.language.Variable.find</text>
<text text-anchor="middle" x="257" y="-51.5" font-family="Helvetica,sans-Serif" font-size="10.00">Substitute</text>
</a>
</g>
</g>
<!-- Node1&#45;&gt;Node2 -->
<g id="edge1" class="edge"><title>Node1&#45;&gt;Node2</title>
<path fill="none" stroke="midnightblue" d="M164.106,-59.5C172.742,-59.5 181.414,-59.5 189.796,-59.5"/>
<polygon fill="midnightblue" stroke="midnightblue" points="164.004,-56.0001 154.004,-59.5 164.004,-63.0001 164.004,-56.0001"/>
</g>
<!-- Node3 -->
<g id="node3" class="node"><title>Node3</title>
<g id="a_node3"><a xlink:href="../../de/da5/classnars_1_1language_1_1Variable_a27d52c132400491e698146c554cd89ac.html#a27d52c132400491e698146c554cd89ac" target="_top" xlink:title="Check if two terms can be unified. ">
<polygon fill="none" stroke="black" points="363,-66.5 363,-96.5 497,-96.5 497,-66.5 363,-66.5"/>
<text text-anchor="start" x="371" y="-84.5" font-family="Helvetica,sans-Serif" font-size="10.00">nars.language.Variable.has</text>
<text text-anchor="middle" x="430" y="-73.5" font-family="Helvetica,sans-Serif" font-size="10.00">Substitute</text>
</a>
</g>
</g>
<!-- Node2&#45;&gt;Node3 -->
<g id="edge2" class="edge"><title>Node2&#45;&gt;Node3</title>
<path fill="none" stroke="midnightblue" d="M334.328,-69.32C343.818,-70.541 353.461,-71.7815 362.781,-72.9806"/>
<polygon fill="midnightblue" stroke="midnightblue" points="334.478,-65.8105 324.113,-68.0058 333.585,-72.7533 334.478,-65.8105"/>
</g>
<!-- Node16 -->
<g id="node16" class="node"><title>Node16</title>
<g id="a_node16"><a xlink:href="../../de/da5/classnars_1_1language_1_1Variable_ac9e7d556f8e12c9bba657b9d2083bc36.html#ac9e7d556f8e12c9bba657b9d2083bc36" target="_top" xlink:title="To unify two terms. ">
<polygon fill="none" stroke="black" points="360,-28 360,-47 500,-47 500,-28 360,-28"/>
<text text-anchor="middle" x="430" y="-35" font-family="Helvetica,sans-Serif" font-size="10.00">nars.language.Variable.unify</text>
</a>
</g>
</g>
<!-- Node2&#45;&gt;Node16 -->
<g id="edge17" class="edge"><title>Node2&#45;&gt;Node16</title>
<path fill="none" stroke="midnightblue" d="M334.126,-49.7059C342.725,-48.5998 351.451,-47.4771 359.951,-46.3835"/>
<polygon fill="midnightblue" stroke="midnightblue" points="333.585,-46.2467 324.113,-50.9942 334.478,-53.1895 333.585,-46.2467"/>
</g>
<!-- Node4 -->
<g id="node4" class="node"><title>Node4</title>
<g id="a_node4"><a xlink:href="../../d4/daa/classnars_1_1inference_1_1SyllogisticRules_a90588e33b6d7ca522e787ee476a2a012.html#a90588e33b6d7ca522e787ee476a2a012" target="_top" xlink:title="{&lt;(&amp;&amp;, S1, S2) &lt;=&gt; P&gt;, (&amp;&amp;, S1, S2)} |&#45; P ">
<polygon fill="none" stroke="black" points="725,-88.5 725,-118.5 851,-118.5 851,-88.5 725,-88.5"/>
<text text-anchor="start" x="733" y="-106.5" font-family="Helvetica,sans-Serif" font-size="10.00">nars.inference.Syllogistic</text>
<text text-anchor="middle" x="788" y="-95.5" font-family="Helvetica,sans-Serif" font-size="10.00">Rules.conditionalAna</text>
</a>
</g>
</g>
<!-- Node3&#45;&gt;Node4 -->
<g id="edge3" class="edge"><title>Node3&#45;&gt;Node4</title>
<path fill="none" stroke="midnightblue" d="M507.303,-86.2153C572.218,-90.2269 664.289,-95.9167 724.805,-99.6565"/>
<polygon fill="midnightblue" stroke="midnightblue" points="507.323,-82.71 497.127,-85.5865 506.892,-89.6967 507.323,-82.71"/>
</g>
<!-- Node14 -->
<g id="node14" class="node"><title>Node14</title>
<g id="a_node14"><a xlink:href="../../d4/daa/classnars_1_1inference_1_1SyllogisticRules_a6ee55e2d5114b506fdf5c59ae00dcd19.html#a6ee55e2d5114b506fdf5c59ae00dcd19" target="_top" xlink:title="{&lt;(&amp;&amp;, S1, S2, S3) ==&gt; P&gt;, S1} |&#45; &lt;(&amp;&amp;, S2, S3) ==&gt; P&gt; {&lt;(&amp;&amp;, S2, S3) ==&gt; P&gt;, &lt;S1 ==&gt; S2&gt;} |&#45; &lt;(&amp;&amp;...">
<polygon fill="none" stroke="black" points="536,-44.5 536,-74.5 662,-74.5 662,-44.5 536,-44.5"/>
<text text-anchor="start" x="544" y="-62.5" font-family="Helvetica,sans-Serif" font-size="10.00">nars.inference.Syllogistic</text>
<text text-anchor="middle" x="599" y="-51.5" font-family="Helvetica,sans-Serif" font-size="10.00">Rules.conditionalDedInd</text>
</a>
</g>
</g>
<!-- Node3&#45;&gt;Node14 -->
<g id="edge13" class="edge"><title>Node3&#45;&gt;Node14</title>
<path fill="none" stroke="midnightblue" d="M506.967,-71.4924C516.596,-70.2238 526.36,-68.9376 535.741,-67.7018"/>
<polygon fill="midnightblue" stroke="midnightblue" points="506.46,-68.0288 497.003,-72.805 507.374,-74.9689 506.46,-68.0288"/>
</g>
<!-- Node5 -->
<g id="node5" class="node"><title>Node5</title>
<g id="a_node5"><a xlink:href="../../da/de3/classnars_1_1inference_1_1RuleTables_ac2d01dfdc40bdd47c757cb549217e6e3.html#ac2d01dfdc40bdd47c757cb549217e6e3" target="_top" xlink:title="Entry point of the inference engine. ">
<polygon fill="none" stroke="black" points="914,-50 914,-69 1077,-69 1077,-50 914,-50"/>
<text text-anchor="middle" x="995.5" y="-57" font-family="Helvetica,sans-Serif" font-size="10.00">nars.inference.RuleTables.reason</text>
</a>
</g>
</g>
<!-- Node4&#45;&gt;Node5 -->
<g id="edge4" class="edge"><title>Node4&#45;&gt;Node5</title>
<path fill="none" stroke="midnightblue" d="M861.109,-88.0607C890.755,-81.7131 924.147,-74.5634 950.105,-69.0054"/>
<polygon fill="midnightblue" stroke="midnightblue" points="860.26,-84.663 851.214,-90.1791 861.726,-91.5078 860.26,-84.663"/>
</g>
<!-- Node6 -->
<g id="node6" class="node"><title>Node6</title>
<g id="a_node6"><a xlink:href="../../d4/d22/classnars_1_1entity_1_1Concept_ae07576c8466ad65eeb61040e3f71cfc7.html#ae07576c8466ad65eeb61040e3f71cfc7" target="_top" xlink:title="An atomic step in a concept, only called in Memory# processConcept. ">
<polygon fill="none" stroke="black" points="1113,-50 1113,-69 1232,-69 1232,-50 1113,-50"/>
<text text-anchor="middle" x="1172.5" y="-57" font-family="Helvetica,sans-Serif" font-size="10.00">nars.entity.Concept.fire</text>
</a>
</g>
</g>
<!-- Node5&#45;&gt;Node6 -->
<g id="edge5" class="edge"><title>Node5&#45;&gt;Node6</title>
<path fill="none" stroke="midnightblue" d="M1087.25,-59.5C1095.91,-59.5 1104.52,-59.5 1112.76,-59.5"/>
<polygon fill="midnightblue" stroke="midnightblue" points="1087.09,-56.0001 1077.09,-59.5 1087.08,-63.0001 1087.09,-56.0001"/>
</g>
<!-- Node7 -->
<g id="node7" class="node"><title>Node7</title>
<g id="a_node7"><a xlink:href="../../d8/df4/classnars_1_1storage_1_1Memory_a83154b55b922c82b73931d4f22e3a590.html#a83154b55b922c82b73931d4f22e3a590" target="_top" xlink:title="Select a concept to fire. ">
<polygon fill="none" stroke="black" points="1268,-44.5 1268,-74.5 1414,-74.5 1414,-44.5 1268,-44.5"/>
<text text-anchor="start" x="1276" y="-62.5" font-family="Helvetica,sans-Serif" font-size="10.00">nars.storage.Memory.process</text>
<text text-anchor="middle" x="1341" y="-51.5" font-family="Helvetica,sans-Serif" font-size="10.00">Concept</text>
</a>
</g>
</g>
<!-- Node6&#45;&gt;Node7 -->
<g id="edge6" class="edge"><title>Node6&#45;&gt;Node7</title>
<path fill="none" stroke="midnightblue" d="M1242.34,-59.5C1250.75,-59.5 1259.36,-59.5 1267.82,-59.5"/>
<polygon fill="midnightblue" stroke="midnightblue" points="1242.2,-56.0001 1232.2,-59.5 1242.2,-63.0001 1242.2,-56.0001"/>
</g>
<!-- Node8 -->
<g id="node8" class="node"><title>Node8</title>
<g id="a_node8"><a xlink:href="../../d8/df4/classnars_1_1storage_1_1Memory_a49e2cbc8b78d535f4d69739886ee966a.html#a49e2cbc8b78d535f4d69739886ee966a" target="_top" xlink:title="An atomic working workCycle of the system: process new Tasks, then fire a concept. ">
<polygon fill="none" stroke="black" points="1450,-44.5 1450,-74.5 1583,-74.5 1583,-44.5 1450,-44.5"/>
<text text-anchor="start" x="1458" y="-62.5" font-family="Helvetica,sans-Serif" font-size="10.00">nars.storage.Memory.work</text>
<text text-anchor="middle" x="1516.5" y="-51.5" font-family="Helvetica,sans-Serif" font-size="10.00">Cycle</text>
</a>
</g>
</g>
<!-- Node7&#45;&gt;Node8 -->
<g id="edge7" class="edge"><title>Node7&#45;&gt;Node8</title>
<path fill="none" stroke="midnightblue" d="M1424.12,-59.5C1432.72,-59.5 1441.37,-59.5 1449.76,-59.5"/>
<polygon fill="midnightblue" stroke="midnightblue" points="1424.07,-56.0001 1414.07,-59.5 1424.07,-63.0001 1424.07,-56.0001"/>
</g>
<!-- Node9 -->
<g id="node9" class="node"><title>Node9</title>
<g id="a_node9"><a xlink:href="../../dd/da5/classnars_1_1storage_1_1Memory_1_1ReasonerBatch_acc60dec23da774957a85362ed6d7448b.html#acc60dec23da774957a85362ed6d7448b" target="_top" xlink:title="nars.storage.Memory.Reasoner\lBatch.doTick">
<polygon fill="none" stroke="black" points="1619,-44.5 1619,-74.5 1773,-74.5 1773,-44.5 1619,-44.5"/>
<text text-anchor="start" x="1627" y="-62.5" font-family="Helvetica,sans-Serif" font-size="10.00">nars.storage.Memory.Reasoner</text>
<text text-anchor="middle" x="1696" y="-51.5" font-family="Helvetica,sans-Serif" font-size="10.00">Batch.doTick</text>
</a>
</g>
</g>
<!-- Node8&#45;&gt;Node9 -->
<g id="edge8" class="edge"><title>Node8&#45;&gt;Node9</title>
<path fill="none" stroke="midnightblue" d="M1593.32,-59.5C1601.79,-59.5 1610.41,-59.5 1618.89,-59.5"/>
<polygon fill="midnightblue" stroke="midnightblue" points="1593.09,-56.0001 1583.09,-59.5 1593.09,-63.0001 1593.09,-56.0001"/>
</g>
<!-- Node10 -->
<g id="node10" class="node"><title>Node10</title>
<g id="a_node10"><a xlink:href="../../dd/da5/classnars_1_1storage_1_1Memory_1_1ReasonerBatch_aed591f05899b98fd9e4ad01836ad0a40.html#aed591f05899b98fd9e4ad01836ad0a40" target="_top" xlink:title="A clock tick. ">
<polygon fill="none" stroke="black" points="1809,-44.5 1809,-74.5 1963,-74.5 1963,-44.5 1809,-44.5"/>
<text text-anchor="start" x="1817" y="-62.5" font-family="Helvetica,sans-Serif" font-size="10.00">nars.storage.Memory.Reasoner</text>
<text text-anchor="middle" x="1886" y="-51.5" font-family="Helvetica,sans-Serif" font-size="10.00">Batch.tick</text>
</a>
</g>
</g>
<!-- Node9&#45;&gt;Node10 -->
<g id="edge9" class="edge"><title>Node9&#45;&gt;Node10</title>
<path fill="none" stroke="midnightblue" d="M1783.42,-59.5C1791.86,-59.5 1800.37,-59.5 1808.7,-59.5"/>
<polygon fill="midnightblue" stroke="midnightblue" points="1783.2,-56.0001 1773.2,-59.5 1783.2,-63.0001 1783.2,-56.0001"/>
</g>
<!-- Node11 -->
<g id="node11" class="node"><title>Node11</title>
<g id="a_node11"><a xlink:href="../../d4/d88/classnars_1_1storage_1_1Memory_1_1NARSBatch_aad99db6cedde9cff2a997db8906ff821.html#aad99db6cedde9cff2a997db8906ff821" target="_top" xlink:title="Run to completion: repeatedly execute NARS working cycle, until Inputs are Finished, or 1000 steps. ">
<polygon fill="none" stroke="black" points="1999,-50 1999,-69 2181,-69 2181,-50 1999,-50"/>
<text text-anchor="middle" x="2090" y="-57" font-family="Helvetica,sans-Serif" font-size="10.00">nars.storage.Memory.NARSBatch.run</text>
</a>
</g>
</g>
<!-- Node10&#45;&gt;Node11 -->
<g id="edge10" class="edge"><title>Node10&#45;&gt;Node11</title>
<path fill="none" stroke="midnightblue" d="M1973.27,-59.5C1981.69,-59.5 1990.25,-59.5 1998.71,-59.5"/>
<polygon fill="midnightblue" stroke="midnightblue" points="1973.08,-56.0001 1963.08,-59.5 1973.08,-63.0001 1973.08,-56.0001"/>
</g>
<!-- Node12 -->
<g id="node12" class="node"><title>Node12</title>
<g id="a_node12"><a xlink:href="../../d4/d88/classnars_1_1storage_1_1Memory_1_1NARSBatch_a416c39463faa161661ed1d12fea03b3c.html#a416c39463faa161661ed1d12fea03b3c" target="_top" xlink:title="non&#45;static equivalent to main(String[]) : run to completion from an input file ">
<polygon fill="none" stroke="black" points="2217,-44.5 2217,-74.5 2399,-74.5 2399,-44.5 2217,-44.5"/>
<text text-anchor="start" x="2225" y="-62.5" font-family="Helvetica,sans-Serif" font-size="10.00">nars.storage.Memory.NARSBatch.run</text>
<text text-anchor="middle" x="2308" y="-51.5" font-family="Helvetica,sans-Serif" font-size="10.00">Inference</text>
</a>
</g>
</g>
<!-- Node11&#45;&gt;Node12 -->
<g id="edge11" class="edge"><title>Node11&#45;&gt;Node12</title>
<path fill="none" stroke="midnightblue" d="M2191.06,-59.5C2199.63,-59.5 2208.27,-59.5 2216.76,-59.5"/>
<polygon fill="midnightblue" stroke="midnightblue" points="2191.04,-56.0001 2181.04,-59.5 2191.04,-63.0001 2191.04,-56.0001"/>
</g>
<!-- Node13 -->
<g id="node13" class="node"><title>Node13</title>
<g id="a_node13"><a xlink:href="../../d4/d88/classnars_1_1storage_1_1Memory_1_1NARSBatch_aa97fcd68270583e60e6bf1b4579d1bdc.html#aa97fcd68270583e60e6bf1b4579d1bdc" target="_top" xlink:title="The entry point of the standalone application. ">
<polygon fill="none" stroke="black" points="2435,-50 2435,-69 2625,-69 2625,-50 2435,-50"/>
<text text-anchor="middle" x="2530" y="-57" font-family="Helvetica,sans-Serif" font-size="10.00">nars.storage.Memory.NARSBatch.main</text>
</a>
</g>
</g>
<!-- Node12&#45;&gt;Node13 -->
<g id="edge12" class="edge"><title>Node12&#45;&gt;Node13</title>
<path fill="none" stroke="midnightblue" d="M2409.37,-59.5C2417.82,-59.5 2426.34,-59.5 2434.74,-59.5"/>
<polygon fill="midnightblue" stroke="midnightblue" points="2409.12,-56.0001 2399.12,-59.5 2409.12,-63.0001 2409.12,-56.0001"/>
</g>
<!-- Node14&#45;&gt;Node5 -->
<g id="edge16" class="edge"><title>Node14&#45;&gt;Node5</title>
<path fill="none" stroke="midnightblue" d="M672.309,-59.5C740.564,-59.5 842.744,-59.5 913.662,-59.5"/>
<polygon fill="midnightblue" stroke="midnightblue" points="672.075,-56.0001 662.075,-59.5 672.075,-63.0001 672.075,-56.0001"/>
</g>
<!-- Node15 -->
<g id="node15" class="node"><title>Node15</title>
<g id="a_node15"><a xlink:href="../../da/de3/classnars_1_1inference_1_1RuleTables_a62599450d65ff257b92df0d48d7c1bdf.html#a62599450d65ff257b92df0d48d7c1bdf" target="_top" xlink:title="Conditional deduction or induction, with variable unification. ">
<polygon fill="none" stroke="black" points="698,-0.5 698,-30.5 878,-30.5 878,-0.5 698,-0.5"/>
<text text-anchor="start" x="706" y="-18.5" font-family="Helvetica,sans-Serif" font-size="10.00">nars.inference.RuleTables.conditional</text>
<text text-anchor="middle" x="788" y="-7.5" font-family="Helvetica,sans-Serif" font-size="10.00">DedIndWithVar</text>
</a>
</g>
</g>
<!-- Node14&#45;&gt;Node15 -->
<g id="edge14" class="edge"><title>Node14&#45;&gt;Node15</title>
<path fill="none" stroke="midnightblue" d="M671.841,-42.5962C688.768,-38.6134 706.697,-34.3947 723.24,-30.5023"/>
<polygon fill="midnightblue" stroke="midnightblue" points="670.941,-39.2123 662.009,-44.9098 672.544,-46.0262 670.941,-39.2123"/>
</g>
<!-- Node15&#45;&gt;Node5 -->
<g id="edge15" class="edge"><title>Node15&#45;&gt;Node5</title>
<path fill="none" stroke="midnightblue" d="M869.162,-32.6637C896.668,-38.553 926.446,-44.9288 950.073,-49.9876"/>
<polygon fill="midnightblue" stroke="midnightblue" points="869.658,-29.1906 859.147,-30.5192 868.192,-36.0354 869.658,-29.1906"/>
</g>
</g>
</svg>
        <g id="navigator" transform="translate(0 0)" fill="#404254">
                <rect fill="#f2f5e9" fill-opacity="0.5" stroke="#606060" stroke-width=".5" x="0" y="0" width="60" height="60"/>
                <use id="zoomplus" xlink:href="#zoomPlus" x="17" y="9" onmousedown="handleZoom(evt,'in')"/>
                <use id="zoomminus" xlink:href="#zoomMin" x="42" y="9" onmousedown="handleZoom(evt,'out')"/>
                <use id="reset" xlink:href="#resetDef" x="30" y="36" onmousedown="handleReset()"/>
                <g id="arrowUp" xlink:href="#dirArrow" transform="translate(30 24)" onmousedown="handlePan(0,-1)">
                  <use xlink:href="#rim" fill="#404040">
                        <set attributeName="fill" to="#808080" begin="arrowUp.mouseover" end="arrowUp.mouseout"/>
                  </use>
                  <path fill="none" stroke="white" stroke-width="1.5" d="M0,-3.0v7 M-2.5,-0.5L0,-3.0L2.5,-0.5"/>
                </g>
                <g id="arrowRight" xlink:href="#dirArrow" transform="rotate(90) translate(36 -43)" onmousedown="handlePan(1,0)">
                  <use xlink:href="#rim" fill="#404040">
                        <set attributeName="fill" to="#808080" begin="arrowRight.mouseover" end="arrowRight.mouseout"/>
                  </use>
                  <path fill="none" stroke="white" stroke-width="1.5" d="M0,-3.0v7 M-2.5,-0.5L0,-3.0L2.5,-0.5"/>
                </g>
                <g id="arrowDown" xlink:href="#dirArrow" transform="rotate(180) translate(-30 -48)" onmousedown="handlePan(0,1)">
                  <use xlink:href="#rim" fill="#404040">
                        <set attributeName="fill" to="#808080" begin="arrowDown.mouseover" end="arrowDown.mouseout"/>
                  </use>
                  <path fill="none" stroke="white" stroke-width="1.5" d="M0,-3.0v7 M-2.5,-0.5L0,-3.0L2.5,-0.5"/>
                </g>
                <g id="arrowLeft" xlink:href="#dirArrow" transform="rotate(270) translate(-36 17)" onmousedown="handlePan(-1,0)">
                  <use xlink:href="#rim" fill="#404040">
                        <set attributeName="fill" to="#808080" begin="arrowLeft.mouseover" end="arrowLeft.mouseout"/>
                  </use>
                  <path fill="none" stroke="white" stroke-width="1.5" d="M0,-3.0v7 M-2.5,-0.5L0,-3.0L2.5,-0.5"/>
                </g>
        </g>
        <svg viewBox="0 0 15 15" width="100%" height="30px" preserveAspectRatio="xMaxYMin meet">
         <g id="arrow_out" transform="scale(0.3 0.3)">
          <a xlink:href="classnars_1_1language_1_1Variable_a453637a49d162fd4bb44725ff7b5965b_a453637a49d162fd4bb44725ff7b5965b_icgraph_org.svg" target="_base">
           <rect id="button" ry="5" rx="5" y="6" x="6" height="38" width="38"
                fill="#f2f5e9" fill-opacity="0.5" stroke="#606060" stroke-width="1.0"/>
           <path id="arrow"
             d="M 11.500037,31.436501 C 11.940474,20.09759 22.043105,11.32322 32.158766,21.979434 L 37.068811,17.246167 C 37.068811,17.246167 37.088388,32 37.088388,32 L 22.160133,31.978069 C 22.160133,31.978069 26.997745,27.140456 26.997745,27.140456 C 18.528582,18.264221 13.291696,25.230495 11.500037,31.436501 z"
             style="fill:#404040;"/>
          </a>
         </g>
        </svg>
</svg>
