<?xml version="1.0" encoding="UTF-8" standalone="no"?>
<!DOCTYPE svg PUBLIC "-//W3C//DTD SVG 1.1//EN"
 "http://www.w3.org/Graphics/SVG/1.1/DTD/svg11.dtd">
<!-- Generated by graphviz version 2.38.0 (20140413.2041)
 -->
<!-- Title: nars.language.Variable.findSubstitute Pages: 1 -->
<svg width="2443pt" height="127pt"
 viewBox="0.00 0.00 2443.00 127.00" xmlns="http://www.w3.org/2000/svg" xmlns:xlink="http://www.w3.org/1999/xlink">
<g id="graph0" class="graph" transform="scale(1 1) rotate(0) translate(4 123)">
<title>nars.language.Variable.findSubstitute</title>
<!-- Node1 -->
<g id="node1" class="node"><title>Node1</title>
<polygon fill="#bfbfbf" stroke="black" points="0,-44.5 0,-74.5 134,-74.5 134,-44.5 0,-44.5"/>
<text text-anchor="start" x="8" y="-62.5" font-family="Helvetica,sans-Serif" font-size="10.00">nars.language.Variable.find</text>
<text text-anchor="middle" x="67" y="-51.5" font-family="Helvetica,sans-Serif" font-size="10.00">Substitute</text>
</g>
<!-- Node2 -->
<g id="node2" class="node"><title>Node2</title>
<g id="a_node2"><a xlink:href="../../de/da5/classnars_1_1language_1_1Variable_a27d52c132400491e698146c554cd89ac.html#a27d52c132400491e698146c554cd89ac" target="_top" xlink:title="Check if two terms can be unified. ">
<polygon fill="none" stroke="black" points="173,-66.5 173,-96.5 307,-96.5 307,-66.5 173,-66.5"/>
<text text-anchor="start" x="181" y="-84.5" font-family="Helvetica,sans-Serif" font-size="10.00">nars.language.Variable.has</text>
<text text-anchor="middle" x="240" y="-73.5" font-family="Helvetica,sans-Serif" font-size="10.00">Substitute</text>
</a>
</g>
</g>
<!-- Node1&#45;&gt;Node2 -->
<g id="edge1" class="edge"><title>Node1&#45;&gt;Node2</title>
<path fill="none" stroke="midnightblue" d="M144.328,-69.32C153.818,-70.541 163.461,-71.7815 172.781,-72.9806"/>
<polygon fill="midnightblue" stroke="midnightblue" points="144.478,-65.8105 134.113,-68.0058 143.585,-72.7533 144.478,-65.8105"/>
</g>
<!-- Node15 -->
<g id="node15" class="node"><title>Node15</title>
<g id="a_node15"><a xlink:href="../../de/da5/classnars_1_1language_1_1Variable_ac9e7d556f8e12c9bba657b9d2083bc36.html#ac9e7d556f8e12c9bba657b9d2083bc36" target="_top" xlink:title="To unify two terms. ">
<polygon fill="none" stroke="black" points="170,-28 170,-47 310,-47 310,-28 170,-28"/>
<text text-anchor="middle" x="240" y="-35" font-family="Helvetica,sans-Serif" font-size="10.00">nars.language.Variable.unify</text>
</a>
</g>
</g>
<!-- Node1&#45;&gt;Node15 -->
<g id="edge16" class="edge"><title>Node1&#45;&gt;Node15</title>
<path fill="none" stroke="midnightblue" d="M144.126,-49.7059C152.725,-48.5998 161.451,-47.4771 169.951,-46.3835"/>
<polygon fill="midnightblue" stroke="midnightblue" points="143.585,-46.2467 134.113,-50.9942 144.478,-53.1895 143.585,-46.2467"/>
</g>
<!-- Node3 -->
<g id="node3" class="node"><title>Node3</title>
<g id="a_node3"><a xlink:href="../../d4/daa/classnars_1_1inference_1_1SyllogisticRules_a90588e33b6d7ca522e787ee476a2a012.html#a90588e33b6d7ca522e787ee476a2a012" target="_top" xlink:title="{&lt;(&amp;&amp;, S1, S2) &lt;=&gt; P&gt;, (&amp;&amp;, S1, S2)} |&#45; P ">
<polygon fill="none" stroke="black" points="535,-88.5 535,-118.5 661,-118.5 661,-88.5 535,-88.5"/>
<text text-anchor="start" x="543" y="-106.5" font-family="Helvetica,sans-Serif" font-size="10.00">nars.inference.Syllogistic</text>
<text text-anchor="middle" x="598" y="-95.5" font-family="Helvetica,sans-Serif" font-size="10.00">Rules.conditionalAna</text>
</a>
</g>
</g>
<!-- Node2&#45;&gt;Node3 -->
<g id="edge2" class="edge"><title>Node2&#45;&gt;Node3</title>
<path fill="none" stroke="midnightblue" d="M317.303,-86.2153C382.218,-90.2269 474.289,-95.9167 534.805,-99.6565"/>
<polygon fill="midnightblue" stroke="midnightblue" points="317.323,-82.71 307.127,-85.5865 316.892,-89.6967 317.323,-82.71"/>
</g>
<!-- Node13 -->
<g id="node13" class="node"><title>Node13</title>
<g id="a_node13"><a xlink:href="../../d4/daa/classnars_1_1inference_1_1SyllogisticRules_a6ee55e2d5114b506fdf5c59ae00dcd19.html#a6ee55e2d5114b506fdf5c59ae00dcd19" target="_top" xlink:title="{&lt;(&amp;&amp;, S1, S2, S3) ==&gt; P&gt;, S1} |&#45; &lt;(&amp;&amp;, S2, S3) ==&gt; P&gt; {&lt;(&amp;&amp;, S2, S3) ==&gt; P&gt;, &lt;S1 ==&gt; S2&gt;} |&#45; &lt;(&amp;&amp;...">
<polygon fill="none" stroke="black" points="346,-44.5 346,-74.5 472,-74.5 472,-44.5 346,-44.5"/>
<text text-anchor="start" x="354" y="-62.5" font-family="Helvetica,sans-Serif" font-size="10.00">nars.inference.Syllogistic</text>
<text text-anchor="middle" x="409" y="-51.5" font-family="Helvetica,sans-Serif" font-size="10.00">Rules.conditionalDedInd</text>
</a>
</g>
</g>
<!-- Node2&#45;&gt;Node13 -->
<g id="edge12" class="edge"><title>Node2&#45;&gt;Node13</title>
<path fill="none" stroke="midnightblue" d="M316.967,-71.4924C326.596,-70.2238 336.36,-68.9376 345.741,-67.7018"/>
<polygon fill="midnightblue" stroke="midnightblue" points="316.46,-68.0288 307.003,-72.805 317.374,-74.9689 316.46,-68.0288"/>
</g>
<!-- Node4 -->
<g id="node4" class="node"><title>Node4</title>
<g id="a_node4"><a xlink:href="../../da/de3/classnars_1_1inference_1_1RuleTables_ac2d01dfdc40bdd47c757cb549217e6e3.html#ac2d01dfdc40bdd47c757cb549217e6e3" target="_top" xlink:title="Entry point of the inference engine. ">
<polygon fill="none" stroke="black" points="724,-50 724,-69 887,-69 887,-50 724,-50"/>
<text text-anchor="middle" x="805.5" y="-57" font-family="Helvetica,sans-Serif" font-size="10.00">nars.inference.RuleTables.reason</text>
</a>
</g>
</g>
<!-- Node3&#45;&gt;Node4 -->
<g id="edge3" class="edge"><title>Node3&#45;&gt;Node4</title>
<path fill="none" stroke="midnightblue" d="M671.109,-88.0607C700.755,-81.7131 734.147,-74.5634 760.105,-69.0054"/>
<polygon fill="midnightblue" stroke="midnightblue" points="670.26,-84.663 661.214,-90.1791 671.726,-91.5078 670.26,-84.663"/>
</g>
<!-- Node5 -->
<g id="node5" class="node"><title>Node5</title>
<g id="a_node5"><a xlink:href="../../d4/d22/classnars_1_1entity_1_1Concept_ae07576c8466ad65eeb61040e3f71cfc7.html#ae07576c8466ad65eeb61040e3f71cfc7" target="_top" xlink:title="An atomic step in a concept, only called in Memory# processConcept. ">
<polygon fill="none" stroke="black" points="923,-50 923,-69 1042,-69 1042,-50 923,-50"/>
<text text-anchor="middle" x="982.5" y="-57" font-family="Helvetica,sans-Serif" font-size="10.00">nars.entity.Concept.fire</text>
</a>
</g>
</g>
<!-- Node4&#45;&gt;Node5 -->
<g id="edge4" class="edge"><title>Node4&#45;&gt;Node5</title>
<path fill="none" stroke="midnightblue" d="M897.249,-59.5C905.907,-59.5 914.523,-59.5 922.757,-59.5"/>
<polygon fill="midnightblue" stroke="midnightblue" points="897.085,-56.0001 887.085,-59.5 897.085,-63.0001 897.085,-56.0001"/>
</g>
<!-- Node6 -->
<g id="node6" class="node"><title>Node6</title>
<g id="a_node6"><a xlink:href="../../d8/df4/classnars_1_1storage_1_1Memory_a83154b55b922c82b73931d4f22e3a590.html#a83154b55b922c82b73931d4f22e3a590" target="_top" xlink:title="Select a concept to fire. ">
<polygon fill="none" stroke="black" points="1078,-44.5 1078,-74.5 1224,-74.5 1224,-44.5 1078,-44.5"/>
<text text-anchor="start" x="1086" y="-62.5" font-family="Helvetica,sans-Serif" font-size="10.00">nars.storage.Memory.process</text>
<text text-anchor="middle" x="1151" y="-51.5" font-family="Helvetica,sans-Serif" font-size="10.00">Concept</text>
</a>
</g>
</g>
<!-- Node5&#45;&gt;Node6 -->
<g id="edge5" class="edge"><title>Node5&#45;&gt;Node6</title>
<path fill="none" stroke="midnightblue" d="M1052.34,-59.5C1060.75,-59.5 1069.36,-59.5 1077.82,-59.5"/>
<polygon fill="midnightblue" stroke="midnightblue" points="1052.2,-56.0001 1042.2,-59.5 1052.2,-63.0001 1052.2,-56.0001"/>
</g>
<!-- Node7 -->
<g id="node7" class="node"><title>Node7</title>
<g id="a_node7"><a xlink:href="../../d8/df4/classnars_1_1storage_1_1Memory_a49e2cbc8b78d535f4d69739886ee966a.html#a49e2cbc8b78d535f4d69739886ee966a" target="_top" xlink:title="An atomic working workCycle of the system: process new Tasks, then fire a concept. ">
<polygon fill="none" stroke="black" points="1260,-44.5 1260,-74.5 1393,-74.5 1393,-44.5 1260,-44.5"/>
<text text-anchor="start" x="1268" y="-62.5" font-family="Helvetica,sans-Serif" font-size="10.00">nars.storage.Memory.work</text>
<text text-anchor="middle" x="1326.5" y="-51.5" font-family="Helvetica,sans-Serif" font-size="10.00">Cycle</text>
</a>
</g>
</g>
<!-- Node6&#45;&gt;Node7 -->
<g id="edge6" class="edge"><title>Node6&#45;&gt;Node7</title>
<path fill="none" stroke="midnightblue" d="M1234.12,-59.5C1242.72,-59.5 1251.37,-59.5 1259.76,-59.5"/>
<polygon fill="midnightblue" stroke="midnightblue" points="1234.07,-56.0001 1224.07,-59.5 1234.07,-63.0001 1234.07,-56.0001"/>
</g>
<!-- Node8 -->
<g id="node8" class="node"><title>Node8</title>
<g id="a_node8"><a xlink:href="../../dd/da5/classnars_1_1storage_1_1Memory_1_1ReasonerBatch_acc60dec23da774957a85362ed6d7448b.html#acc60dec23da774957a85362ed6d7448b" target="_top" xlink:title="nars.storage.Memory.Reasoner\lBatch.doTick">
<polygon fill="none" stroke="black" points="1429,-44.5 1429,-74.5 1583,-74.5 1583,-44.5 1429,-44.5"/>
<text text-anchor="start" x="1437" y="-62.5" font-family="Helvetica,sans-Serif" font-size="10.00">nars.storage.Memory.Reasoner</text>
<text text-anchor="middle" x="1506" y="-51.5" font-family="Helvetica,sans-Serif" font-size="10.00">Batch.doTick</text>
</a>
</g>
</g>
<!-- Node7&#45;&gt;Node8 -->
<g id="edge7" class="edge"><title>Node7&#45;&gt;Node8</title>
<path fill="none" stroke="midnightblue" d="M1403.32,-59.5C1411.79,-59.5 1420.41,-59.5 1428.89,-59.5"/>
<polygon fill="midnightblue" stroke="midnightblue" points="1403.09,-56.0001 1393.09,-59.5 1403.09,-63.0001 1403.09,-56.0001"/>
</g>
<!-- Node9 -->
<g id="node9" class="node"><title>Node9</title>
<g id="a_node9"><a xlink:href="../../dd/da5/classnars_1_1storage_1_1Memory_1_1ReasonerBatch_aed591f05899b98fd9e4ad01836ad0a40.html#aed591f05899b98fd9e4ad01836ad0a40" target="_top" xlink:title="A clock tick. ">
<polygon fill="none" stroke="black" points="1619,-44.5 1619,-74.5 1773,-74.5 1773,-44.5 1619,-44.5"/>
<text text-anchor="start" x="1627" y="-62.5" font-family="Helvetica,sans-Serif" font-size="10.00">nars.storage.Memory.Reasoner</text>
<text text-anchor="middle" x="1696" y="-51.5" font-family="Helvetica,sans-Serif" font-size="10.00">Batch.tick</text>
</a>
</g>
</g>
<!-- Node8&#45;&gt;Node9 -->
<g id="edge8" class="edge"><title>Node8&#45;&gt;Node9</title>
<path fill="none" stroke="midnightblue" d="M1593.42,-59.5C1601.86,-59.5 1610.37,-59.5 1618.7,-59.5"/>
<polygon fill="midnightblue" stroke="midnightblue" points="1593.2,-56.0001 1583.2,-59.5 1593.2,-63.0001 1593.2,-56.0001"/>
</g>
<!-- Node10 -->
<g id="node10" class="node"><title>Node10</title>
<g id="a_node10"><a xlink:href="../../d4/d88/classnars_1_1storage_1_1Memory_1_1NARSBatch_aad99db6cedde9cff2a997db8906ff821.html#aad99db6cedde9cff2a997db8906ff821" target="_top" xlink:title="Run to completion: repeatedly execute NARS working cycle, until Inputs are Finished, or 1000 steps. ">
<polygon fill="none" stroke="black" points="1809,-50 1809,-69 1991,-69 1991,-50 1809,-50"/>
<text text-anchor="middle" x="1900" y="-57" font-family="Helvetica,sans-Serif" font-size="10.00">nars.storage.Memory.NARSBatch.run</text>
</a>
</g>
</g>
<!-- Node9&#45;&gt;Node10 -->
<g id="edge9" class="edge"><title>Node9&#45;&gt;Node10</title>
<path fill="none" stroke="midnightblue" d="M1783.27,-59.5C1791.69,-59.5 1800.25,-59.5 1808.71,-59.5"/>
<polygon fill="midnightblue" stroke="midnightblue" points="1783.08,-56.0001 1773.08,-59.5 1783.08,-63.0001 1783.08,-56.0001"/>
</g>
<!-- Node11 -->
<g id="node11" class="node"><title>Node11</title>
<g id="a_node11"><a xlink:href="../../d4/d88/classnars_1_1storage_1_1Memory_1_1NARSBatch_a416c39463faa161661ed1d12fea03b3c.html#a416c39463faa161661ed1d12fea03b3c" target="_top" xlink:title="non&#45;static equivalent to main(String[]) : run to completion from an input file ">
<polygon fill="none" stroke="black" points="2027,-44.5 2027,-74.5 2209,-74.5 2209,-44.5 2027,-44.5"/>
<text text-anchor="start" x="2035" y="-62.5" font-family="Helvetica,sans-Serif" font-size="10.00">nars.storage.Memory.NARSBatch.run</text>
<text text-anchor="middle" x="2118" y="-51.5" font-family="Helvetica,sans-Serif" font-size="10.00">Inference</text>
</a>
</g>
</g>
<!-- Node10&#45;&gt;Node11 -->
<g id="edge10" class="edge"><title>Node10&#45;&gt;Node11</title>
<path fill="none" stroke="midnightblue" d="M2001.06,-59.5C2009.63,-59.5 2018.27,-59.5 2026.76,-59.5"/>
<polygon fill="midnightblue" stroke="midnightblue" points="2001.04,-56.0001 1991.04,-59.5 2001.04,-63.0001 2001.04,-56.0001"/>
</g>
<!-- Node12 -->
<g id="node12" class="node"><title>Node12</title>
<g id="a_node12"><a xlink:href="../../d4/d88/classnars_1_1storage_1_1Memory_1_1NARSBatch_aa97fcd68270583e60e6bf1b4579d1bdc.html#aa97fcd68270583e60e6bf1b4579d1bdc" target="_top" xlink:title="The entry point of the standalone application. ">
<polygon fill="none" stroke="black" points="2245,-50 2245,-69 2435,-69 2435,-50 2245,-50"/>
<text text-anchor="middle" x="2340" y="-57" font-family="Helvetica,sans-Serif" font-size="10.00">nars.storage.Memory.NARSBatch.main</text>
</a>
</g>
</g>
<!-- Node11&#45;&gt;Node12 -->
<g id="edge11" class="edge"><title>Node11&#45;&gt;Node12</title>
<path fill="none" stroke="midnightblue" d="M2219.37,-59.5C2227.82,-59.5 2236.34,-59.5 2244.74,-59.5"/>
<polygon fill="midnightblue" stroke="midnightblue" points="2219.12,-56.0001 2209.12,-59.5 2219.12,-63.0001 2219.12,-56.0001"/>
</g>
<!-- Node13&#45;&gt;Node4 -->
<g id="edge15" class="edge"><title>Node13&#45;&gt;Node4</title>
<path fill="none" stroke="midnightblue" d="M482.309,-59.5C550.564,-59.5 652.744,-59.5 723.662,-59.5"/>
<polygon fill="midnightblue" stroke="midnightblue" points="482.075,-56.0001 472.075,-59.5 482.075,-63.0001 482.075,-56.0001"/>
</g>
<!-- Node14 -->
<g id="node14" class="node"><title>Node14</title>
<g id="a_node14"><a xlink:href="../../da/de3/classnars_1_1inference_1_1RuleTables_a62599450d65ff257b92df0d48d7c1bdf.html#a62599450d65ff257b92df0d48d7c1bdf" target="_top" xlink:title="Conditional deduction or induction, with variable unification. ">
<polygon fill="none" stroke="black" points="508,-0.5 508,-30.5 688,-30.5 688,-0.5 508,-0.5"/>
<text text-anchor="start" x="516" y="-18.5" font-family="Helvetica,sans-Serif" font-size="10.00">nars.inference.RuleTables.conditional</text>
<text text-anchor="middle" x="598" y="-7.5" font-family="Helvetica,sans-Serif" font-size="10.00">DedIndWithVar</text>
</a>
</g>
</g>
<!-- Node13&#45;&gt;Node14 -->
<g id="edge13" class="edge"><title>Node13&#45;&gt;Node14</title>
<path fill="none" stroke="midnightblue" d="M481.841,-42.5962C498.768,-38.6134 516.697,-34.3947 533.24,-30.5023"/>
<polygon fill="midnightblue" stroke="midnightblue" points="480.941,-39.2123 472.009,-44.9098 482.544,-46.0262 480.941,-39.2123"/>
</g>
<!-- Node14&#45;&gt;Node4 -->
<g id="edge14" class="edge"><title>Node14&#45;&gt;Node4</title>
<path fill="none" stroke="midnightblue" d="M679.162,-32.6637C706.668,-38.553 736.446,-44.9288 760.073,-49.9876"/>
<polygon fill="midnightblue" stroke="midnightblue" points="679.658,-29.1906 669.147,-30.5192 678.192,-36.0354 679.658,-29.1906"/>
</g>
</g>
</svg>
