ply
format ascii 1.0
comment created by ply_export.py from Blender
element vertex 20
property float32 x
property float32 y
property float32 z
property float32 nx
property float32 ny
property float32 nz
element face 22
property list uint8 int32 vertex_indices
end_header
-6.861627 -0.472765 -0.993193 0.000000 0.000000 1.000000
-7.920285 -0.972765 -0.993193 0.000000 0.000000 1.000000
-6.861627 -0.972765 -0.993193 0.000000 0.000000 1.000000
4.816477 -0.972766 -0.993193 0.000000 0.000000 1.000000
3.821064 -0.472766 -0.993193 0.000000 0.000000 1.000000
3.821063 -0.972766 -0.993193 0.000000 0.000000 1.000000
-6.861627 -1.875986 -0.993193 0.000000 0.000000 1.000000
3.821063 -1.875987 -0.993193 0.000000 0.000000 1.000000
-7.920285 -1.972765 -2.993193 -0.577349 -0.577349 -0.577349
-7.920285 -1.972765 -0.993193 -0.408246 -0.408246 0.816492
-7.920285 0.027235 -0.993193 -0.577349 0.577349 0.577349
-7.920285 0.027235 -2.993193 -0.577349 0.577349 -0.577349
4.816477 -1.972765 -2.993193 0.816492 -0.408246 -0.408246
4.816476 -1.972766 -0.993193 0.333323 -0.666646 0.666646
4.816477 0.027235 -2.993193 0.333323 0.666646 -0.666646
4.816478 0.027234 -0.993193 0.666646 0.333323 0.666646
3.821062 -1.972765 -0.993193 0.000000 0.000000 1.000000
-6.861627 -1.972765 -0.993193 0.000000 0.000000 1.000000
3.821064 0.027234 -0.993193 0.000000 0.000000 1.000000
-6.861627 0.027235 -0.993193 0.000000 0.000000 1.000000
3 0 1 2
3 3 4 5
3 2 1 6
3 3 5 7
3 8 9 10
3 8 10 11
3 12 13 8
3 13 9 8
3 14 15 12
3 15 13 12
3 14 11 10
3 14 10 15
3 3 7 13
3 7 16 13
3 6 1 9
3 6 9 17
3 15 18 4
3 15 4 3
3 19 10 0
3 10 1 0
3 14 12 8
3 14 8 11
