ply
format ascii 1.0
comment created by ply_export.py from Blender
element vertex 4
property float32 x
property float32 y
property float32 z
property float32 nx
property float32 ny
property float32 nz
property float32 s
property float32 t
property uint8 red
property uint8 green
property uint8 blue
element face 2
property list uint8 int32 vertex_indices
end_header
-6.784355 4.050704 -19.821369 0.021271 -0.999756 0.000000 0.831029 0.712902 255 255 255
-7.299654 4.039725 -19.821369 0.021271 -0.999756 0.000000 0.968768 0.714291 255 255 255
-7.299654 4.039725 -28.589504 0.021271 -0.999756 0.000000 0.993068 0.026018 255 255 255
-6.784355 4.050704 -28.589504 0.021271 -0.999756 0.000000 0.855328 0.024628 255 255 255
3 0 1 2
3 0 2 3
