ply
format ascii 1.0
comment created by ply_export.py from Blender
element vertex 12
property float32 x
property float32 y
property float32 z
property float32 nx
property float32 ny
property float32 nz
element face 20
property list uint8 int32 vertex_indices
end_header
-9.437347 0.143089 -0.026225 -0.333323 -0.666646 -0.666646
-9.437347 0.144575 -0.026225 -0.816492 0.408216 -0.408246
-9.288045 0.144575 -0.026225 0.333323 0.666646 -0.666646
-9.288045 0.143089 -0.026225 0.816492 -0.408246 -0.408246
-9.288045 0.143089 -0.023306 0.599994 -0.799982 0.000000
-9.437347 0.143089 -0.023306 -0.894406 -0.447188 0.000000
-9.288045 0.144575 -0.023306 0.833308 0.549974 0.055269
-9.437347 0.144575 -0.023306 -0.448988 0.889035 0.089358
-9.288045 0.143260 -0.016835 0.542436 0.531632 0.650441
-9.437347 0.143260 -0.016835 -0.790674 0.387432 0.474013
-9.437347 0.143089 -0.016835 -0.333323 -0.666616 0.666677
-9.288045 0.143089 -0.016835 0.577349 -0.577319 0.577349
3 0 1 2
3 0 2 3
3 4 5 0
3 4 0 3
3 6 4 3
3 6 3 2
3 7 6 2
3 7 2 1
3 5 7 1
3 5 1 0
3 8 6 7
3 8 7 9
3 5 10 9
3 5 9 7
3 4 11 10
3 4 10 5
3 6 8 4
3 8 11 4
3 8 9 10
3 8 10 11
