ply
format ascii 1.0
comment created by ply_export.py from Blender
element vertex 44
property float32 x
property float32 y
property float32 z
property float32 nx
property float32 ny
property float32 nz
element face 68
property list uint8 int32 vertex_indices
end_header
-0.000019 -0.983827 -0.811527 0.000000 -0.583789 0.811884
-1.000019 -1.047120 -1.000000 -0.007874 -0.999908 -0.007874
0.999981 -1.047120 -1.000000 0.177770 -0.967864 -0.177770
-0.000018 -0.983827 0.811527 0.000000 -0.583789 -0.811884
0.999981 -1.047121 1.000000 0.007752 -0.983490 0.180670
-1.000019 -1.047120 1.000000 -0.180700 -0.983490 0.007752
0.811508 -0.983827 -0.000000 -0.812006 -0.583636 0.000000
-0.811545 -0.983827 -0.000000 0.811762 -0.583941 0.000000
-0.811545 -0.983827 -0.811527 0.097201 -0.990020 0.101901
-0.405782 -0.983827 -0.811527 0.190069 -0.755058 0.627491
0.405745 -0.983827 -0.811527 -0.139836 -0.632099 0.762139
0.811508 -0.983827 -0.811527 -0.101230 -0.989624 0.101871
0.811509 -0.983827 0.811527 -0.101230 -0.989624 -0.101871
0.405745 -0.983827 0.811527 -0.139866 -0.632099 -0.762108
-0.405782 -0.983827 0.811527 0.190100 -0.755058 -0.627461
-0.811545 -0.983827 0.811527 0.097201 -0.990020 -0.101901
0.811508 -0.983827 -0.405764 -0.642354 -0.748161 0.166021
0.811508 -0.983827 0.405763 -0.761742 -0.632435 -0.140385
-0.811545 -0.983827 0.405763 0.625294 -0.757073 -0.189215
-0.811545 -0.983827 -0.405764 0.750664 -0.640919 0.160161
0.623969 -0.968854 -0.629819 -0.634846 -0.437208 0.636982
0.623904 -0.968854 0.629815 -0.634846 -0.437208 -0.637013
-0.576758 -0.968854 -0.629817 0.635975 -0.437513 0.635670
-0.576759 -0.968854 0.629789 0.635975 -0.437513 -0.635670
1.000000 -1.000000 -1.000000 0.707083 -0.000275 -0.707083
-1.000000 -1.000000 -1.000000 -0.707083 0.000275 -0.707083
-1.000000 -1.000000 1.000000 -0.447188 0.000153 0.894406
0.999999 -1.000001 1.000000 0.894406 -0.000336 0.447188
0.000000 -0.936707 -0.811527 0.000000 0.000000 1.000000
0.405764 -0.936707 -0.811527 -0.450392 0.000153 0.892819
-0.405763 -0.936706 -0.811527 0.396680 -0.000153 0.917936
0.405764 -0.936707 0.811527 -0.450484 0.000153 -0.892758
0.000000 -0.936707 0.811527 0.000000 0.000000 -1.000000
-0.405763 -0.936707 0.811527 0.396710 -0.000153 -0.917936
0.811527 -0.936707 -0.405764 -0.939879 0.000366 0.341441
0.811527 -0.936707 -0.000000 -0.999969 0.000397 0.000000
0.811527 -0.936707 0.405763 -0.891964 0.000336 -0.452071
-0.811526 -0.936707 -0.000000 0.999969 -0.000397 0.000000
-0.811526 -0.936707 -0.405764 0.854549 -0.000336 0.519333
-0.811527 -0.936707 0.405763 0.919309 -0.000366 -0.393475
-0.576740 -0.921734 0.629789 0.709586 -0.000275 -0.704611
-0.576739 -0.921734 -0.629817 0.709586 -0.000275 0.704611
0.623923 -0.921734 0.629815 -0.706168 0.000275 -0.707999
0.623988 -0.921734 -0.629819 -0.706168 0.000275 0.707999
3 0 1 2
3 3 4 5
3 6 2 4
3 7 5 1
3 8 1 9
3 9 1 0
3 0 2 10
3 10 2 11
3 12 4 13
3 13 4 3
3 3 5 14
3 14 5 15
3 11 2 16
3 16 2 6
3 6 4 17
3 17 4 12
3 15 5 18
3 18 5 7
3 7 1 19
3 19 1 8
3 10 11 20
3 20 11 16
3 21 12 13
3 21 17 12
3 8 22 19
3 8 9 22
3 18 23 15
3 15 23 14
3 24 2 25
3 25 2 1
3 26 4 27
3 26 5 4
3 2 24 27
3 27 4 2
3 25 5 26
3 25 1 5
3 28 10 29
3 28 0 10
3 30 0 28
3 30 9 0
3 31 13 32
3 32 13 3
3 32 3 33
3 33 3 14
3 34 6 35
3 34 16 6
3 35 17 36
3 35 6 17
3 37 19 38
3 37 7 19
3 39 7 37
3 39 18 7
3 33 23 40
3 33 14 23
3 40 23 39
3 39 23 18
3 38 22 41
3 38 19 22
3 41 22 30
3 30 22 9
3 42 21 31
3 31 21 13
3 36 21 42
3 36 17 21
3 29 20 43
3 29 10 20
3 43 20 34
3 34 20 16
