ply
format ascii 1.0
comment created by ply_export.py from Blender
element vertex 41
property float32 x
property float32 y
property float32 z
property float32 nx
property float32 ny
property float32 nz
property float32 s
property float32 t
property uint8 red
property uint8 green
property uint8 blue
element face 64
property list uint8 int32 vertex_indices
end_header
-10.594591 -1.136459 -7.590647 0.000000 0.707083 -0.707083 0.053461 0.160980 255 255 255
-10.187915 -1.165747 -7.590647 0.000000 0.000000 -1.000000 0.050381 0.204756 255 255 255
-10.687915 -1.165747 -7.590647 -0.298502 0.954375 0.000000 0.052194 0.150706 255 255 255
-10.594276 -1.136459 -7.590647 -0.200079 -0.708060 0.677175 0.053460 0.161014 255 255 255
-9.687915 -1.136459 -7.590647 0.000000 0.599994 -0.799982 0.050174 0.258992 255 255 255
-9.687915 -1.165747 -7.590647 0.000000 0.000000 -1.000000 0.048569 0.258807 255 255 255
-8.787115 -1.136459 -7.590647 0.079196 0.825861 -0.558214 0.046907 0.356370 255 255 255
-9.187915 -1.165747 -7.590647 0.000000 0.000000 -1.000000 0.046756 0.312857 255 255 255
-10.594591 -1.136460 1.000000 0.000000 -0.707083 0.707083 0.855184 0.165077 255 255 255
-10.594591 -1.136460 -0.701021 -0.992126 -0.106418 -0.065645 0.696436 0.164266 255 255 255
-10.594276 -1.136460 -0.701021 -0.988525 -0.150975 0.000000 0.696435 0.164300 255 255 255
-10.594276 -1.136460 1.000000 -0.404126 0.615162 -0.676901 0.855183 0.165111 255 255 255
-10.594591 -1.136460 -2.402042 0.999969 0.001495 -0.000183 0.537688 0.163454 255 255 255
-10.594276 -1.136460 -2.402042 -0.988525 -0.150975 0.000000 0.537687 0.163488 255 255 255
-9.687915 -1.136460 1.000000 0.000000 0.599994 0.799982 0.851897 0.263089 255 255 255
-9.687915 -1.136460 -0.701021 0.000000 1.000000 0.000000 0.693149 0.262278 255 255 255
-9.687915 -1.136460 -2.402042 0.000000 1.000000 0.000000 0.534401 0.261467 255 255 255
-10.594591 -1.136460 -4.103063 0.999969 0.001465 0.000000 0.378940 0.162643 255 255 255
-10.594276 -1.136459 -4.103063 -0.988372 -0.151982 0.000000 0.378939 0.162677 255 255 255
-9.687915 -1.136460 -4.103063 0.000000 1.000000 0.000000 0.375653 0.260656 255 255 255
-8.787115 -1.136461 1.000000 0.000000 0.707083 0.707083 0.848631 0.360466 255 255 255
-8.787115 -1.136460 -0.701021 0.000000 1.000000 0.000000 0.689883 0.359655 255 255 255
-8.787115 -1.136460 -2.402042 0.000000 1.000000 0.000000 0.531135 0.358844 255 255 255
-8.786332 -1.136461 1.000000 0.090945 0.943388 0.318888 0.848628 0.360551 255 255 255
-8.786332 -1.136460 -0.701021 0.144108 0.989532 0.000000 0.689880 0.359740 255 255 255
-8.786332 -1.136460 -2.402042 0.144108 0.989532 0.000000 0.531132 0.358929 255 255 255
-8.787115 -1.136460 -4.103063 0.000061 1.000000 0.000000 0.372387 0.358033 255 255 255
-8.786332 -1.136460 -4.103063 0.172857 0.984924 0.000000 0.372384 0.358118 255 255 255
-8.786332 -1.136460 -5.804084 0.172552 0.984985 0.000000 0.213636 0.357306 255 255 255
-10.687915 -1.165747 -4.103063 -0.298502 0.954375 0.000000 0.377673 0.152369 255 255 255
-10.687915 -1.165747 -2.402042 -0.298502 0.954405 0.000000 0.536421 0.153180 255 255 255
-10.687915 -1.165747 -0.701021 -0.298502 0.954405 0.000000 0.695169 0.153992 255 255 255
-10.687915 -1.165748 1.000000 -0.298502 0.954375 0.000000 0.853917 0.154803 255 255 255
-8.687915 -1.165748 -4.103063 0.285226 0.958434 0.000000 0.370422 0.368571 255 255 255
-8.687915 -1.165747 -7.590647 0.254158 0.857509 -0.447249 0.044943 0.366908 255 255 255
-8.687915 -1.165748 -2.402042 0.285226 0.958434 0.000000 0.529170 0.369382 255 255 255
-8.687915 -1.165748 -0.701021 0.285226 0.958434 0.000000 0.687918 0.370193 255 255 255
-8.687915 -1.165748 1.000000 0.201666 0.677725 0.707083 0.846666 0.371004 255 255 255
-9.187915 -1.165748 1.000000 0.000000 0.000000 1.000000 0.848479 0.316954 255 255 255
-9.687915 -1.165748 1.000000 0.000000 0.000000 1.000000 0.850292 0.262904 255 255 255
-10.187915 -1.165748 1.000000 0.000000 0.000000 1.000000 0.852104 0.208853 255 255 255
3 0 1 2
3 0 2 3
3 4 5 1
3 1 0 4
3 6 7 4
3 7 5 4
3 8 9 10
3 8 10 11
3 9 12 13
3 9 13 10
3 14 15 9
3 14 9 8
3 15 16 12
3 15 12 9
3 12 17 18
3 12 18 13
3 17 0 3
3 17 3 18
3 16 19 17
3 16 17 12
3 4 0 19
3 19 0 17
3 20 21 15
3 20 15 14
3 21 22 16
3 21 16 15
3 23 24 21
3 23 21 20
3 24 25 22
3 24 22 21
3 22 26 19
3 22 19 16
3 26 6 4
3 26 4 19
3 25 27 26
3 25 26 22
3 27 28 26
3 28 6 26
3 2 29 18
3 2 18 3
3 29 30 13
3 29 13 18
3 30 31 10
3 30 10 13
3 31 32 11
3 31 11 10
3 28 27 33
3 28 33 34
3 27 25 35
3 27 35 33
3 25 24 36
3 25 36 35
3 24 23 37
3 24 37 36
3 23 20 37
3 20 38 37
3 20 14 38
3 14 39 38
3 14 8 40
3 14 40 39
3 8 11 32
3 8 32 40
3 28 34 6
3 34 7 6
