ply
format ascii 1.0
comment created by ply_export.py from Blender
element vertex 175
property float32 x
property float32 y
property float32 z
property float32 nx
property float32 ny
property float32 nz
element face 310
property list uint8 int32 vertex_indices
end_header
0.119053 1.379606 0.119053 0.258797 0.000000 0.965911
0.119053 10.313948 0.119053 0.965911 0.000000 0.258797
-0.162629 10.313948 0.043576 -0.707083 0.000000 0.707083
-0.162629 1.379606 0.043576 -0.965911 0.000000 -0.258797
0.043576 10.313948 -0.162629 -0.258797 0.000000 -0.965911
0.043576 1.379606 -0.162629 0.707083 0.000000 -0.707083
0.000000 -2.462039 -1.802272 0.000000 0.109653 -0.993957
0.254897 0.105582 -1.387040 0.222571 0.152257 -0.962951
0.351604 -2.462038 -1.767642 -0.083407 -0.450423 0.888882
0.351606 -2.462038 1.767641 -0.263100 -0.450423 -0.853145
0.254898 0.105582 1.387040 0.217902 0.149846 0.964385
0.000000 -2.462038 1.802272 -0.019013 0.079958 0.996612
0.195090 0.195090 1.387040 0.191992 0.171819 0.966216
0.195090 0.195090 -1.387040 0.175665 0.188177 -0.966277
0.105582 0.254897 -1.387040 0.081698 0.225074 -0.970885
0.105582 0.254898 1.387040 0.103061 0.216224 0.970855
0.000000 0.275899 1.387040 0.011567 0.234657 0.971984
0.000000 0.275899 -1.387040 -0.011567 0.234657 -0.971984
-0.105582 0.254897 -1.387040 -0.103061 0.216224 -0.970855
-0.105582 0.254898 1.387040 -0.081698 0.225074 0.970885
-0.195090 0.195090 1.387040 -0.175665 0.188177 0.966277
-0.195090 0.195090 -1.387040 -0.191992 0.171819 -0.966216
-0.254897 0.105582 -1.387040 -0.217902 0.149846 -0.964385
-0.254898 0.105582 1.387040 -0.222571 0.152257 0.962951
-0.351606 -2.462038 1.767641 0.182134 -0.358104 -0.915708
-0.351606 -2.462038 -1.767642 0.083407 -0.450423 0.888882
1.802270 -2.462038 -0.000000 0.208625 -0.977966 0.000000
0.932073 0.814969 0.000000 -0.966491 -0.256630 0.000000
0.914164 0.814969 -0.181838 -0.947905 -0.256630 0.188543
1.767642 -2.462038 -0.351606 0.958495 -0.027100 -0.283700
1.767640 -2.462038 0.351606 0.958495 -0.027100 0.283700
0.914164 0.814969 0.181839 -0.947905 -0.256630 -0.188543
1.665081 -2.462038 0.689700 -0.043855 -0.825343 0.562883
0.861123 0.814969 0.356689 -0.880337 -0.256508 -0.398968
1.498534 -2.462038 1.001288 -0.755577 -0.523026 -0.394360
0.774990 0.814969 0.517832 -0.803613 -0.256630 -0.536943
1.274399 -2.462038 1.274399 0.119083 -0.979125 0.164647
0.659075 0.814969 0.659076 -0.705496 -0.256508 -0.660634
1.001288 -2.462038 1.498534 0.052492 -0.978423 0.199744
0.517832 0.814969 0.774991 -0.563036 -0.256508 -0.785577
0.689699 -2.462038 1.665082 0.260994 -0.061190 0.963378
0.356689 0.814969 0.861124 -0.369854 -0.256630 -0.892911
1.665081 -2.462038 -0.689699 -0.043855 -0.825343 -0.562883
0.861123 0.814969 -0.356689 -0.880337 -0.256508 0.398968
1.498534 -2.462038 -1.001288 -0.755577 -0.523026 0.394360
0.774990 0.814969 -0.517832 -0.803613 -0.256630 0.536943
0.659075 0.814969 -0.659076 -0.705496 -0.256508 0.660634
1.274399 -2.462038 -1.274399 0.119083 -0.979125 -0.164647
0.517832 0.814969 -0.774991 -0.563036 -0.256508 0.785577
1.001288 -2.462038 -1.498534 0.052492 -0.978423 -0.199744
0.356689 0.814969 -0.861124 -0.398968 -0.256508 0.880337
0.689699 -2.462038 -1.665082 -0.032838 -0.975463 -0.217566
0.181838 0.814969 -0.914164 -0.219550 -0.256508 0.941252
0.000000 0.814969 -0.932074 0.000000 -0.256630 0.966491
-0.181838 0.814969 -0.914164 0.219550 -0.256508 0.941252
-0.689699 -2.462038 -1.665082 0.032838 -0.975463 -0.217566
-0.356689 0.814969 -0.861124 0.398968 -0.256508 0.880337
-1.001288 -2.462038 -1.498534 -0.052492 -0.978423 -0.199744
-0.517832 0.814969 -0.774991 0.563036 -0.256508 0.785577
-1.274399 -2.462038 -1.274399 0.665304 -0.529618 0.526170
-0.659075 0.814969 -0.659076 0.683401 -0.256630 0.683401
-1.665082 -2.462038 -0.689699 0.821009 -0.516190 0.243782
-1.498534 -2.462038 -1.001288 -0.774377 -0.042909 -0.631245
-0.774991 0.814969 -0.517832 0.803613 -0.256630 0.536943
-0.861124 0.814969 -0.356689 0.892911 -0.256630 0.369854
-1.665081 -2.462038 0.689700 -0.192389 -0.978271 0.077090
-1.767641 -2.462038 0.351606 0.855922 -0.510910 -0.079592
-0.861124 0.814969 0.356689 0.904599 -0.256508 -0.340373
-0.914164 0.814969 0.181839 0.947905 -0.256630 -0.188543
-1.802272 -2.462038 -0.000000 -0.997650 0.068270 0.000000
-0.932073 0.814969 0.000000 0.966491 -0.256630 0.000000
-1.767641 -2.462038 -0.351606 -0.065004 -0.819758 -0.568987
-0.914164 0.814969 -0.181838 0.941252 -0.256508 0.219550
0.181838 0.814969 0.914164 -0.157353 -0.256508 -0.953642
0.000000 0.814969 0.932074 0.031709 -0.256508 -0.966002
-0.181839 0.814969 0.914164 0.188543 -0.256630 -0.947905
-0.689699 -2.462038 1.665082 0.469314 -0.805048 0.362712
-0.356689 0.814969 0.861124 0.340373 -0.256508 -0.904599
-1.001288 -2.462038 1.498534 0.364116 -0.820673 0.440291
-0.517832 0.814969 0.774991 0.510300 -0.256508 -0.820826
-1.274399 -2.462038 1.274399 0.257851 -0.828028 0.497818
-0.659075 0.814969 0.659076 0.660634 -0.256508 -0.705496
-1.498534 -2.462038 1.001288 -0.774377 -0.042909 0.631245
-0.774991 0.814969 0.517832 0.803613 -0.256630 -0.536943
-0.500000 0.207107 -1.306563 -0.345073 0.174169 -0.922239
-0.725887 0.300672 -1.175876 -0.509079 0.225166 -0.830714
-0.923879 0.382683 -1.000000 -0.653432 0.295297 -0.696982
-1.086367 0.449988 -0.785695 -0.792657 0.284219 -0.539323
-1.207107 0.500000 -0.541196 -0.858516 0.340526 -0.383343
-1.281458 0.530797 -0.275899 -0.902982 0.389386 -0.181555
-1.306563 0.541196 0.000000 -0.930021 0.367473 0.000000
-1.281457 0.530797 0.275899 -0.917295 0.363262 0.163060
-1.207106 0.500000 0.541196 -0.852199 0.369640 0.370190
-1.086367 0.449988 0.785695 -0.792657 0.284219 0.539323
-0.923879 0.382683 1.000000 -0.672201 0.284280 0.683584
-0.725887 0.300672 1.175876 -0.531877 0.240394 0.811945
-0.500000 0.207107 1.306563 -0.370464 0.191168 0.908933
-0.382683 0.382683 1.306563 -0.266243 0.274728 0.923887
-0.555570 0.555570 1.175876 -0.388928 0.396527 0.831538
-0.707107 0.707107 1.000000 -0.496689 0.503098 0.707205
-0.831470 0.831469 0.785695 -0.625874 0.548051 0.554857
-0.923879 0.923879 0.541196 -0.608783 0.695242 0.382061
-0.980785 0.980785 0.275899 -0.692618 0.694357 0.195135
-1.000000 1.000000 0.000000 -0.752312 0.658773 0.000000
-0.980785 0.980785 -0.275899 -0.646138 0.737907 -0.194739
-0.923879 0.923879 -0.541196 -0.654927 0.651509 -0.382794
-0.831470 0.831469 -0.785695 -0.625874 0.548051 -0.554857
-0.707107 0.707107 -1.000000 -0.466231 0.532456 -0.706442
-0.555570 0.555570 -1.175876 -0.396527 0.388928 -0.831538
-0.382683 0.382683 -1.306563 -0.274728 0.266243 -0.923887
-0.207107 0.500000 -1.306563 -0.151921 0.351115 -0.923887
-0.300672 0.725887 -1.175876 -0.217505 0.511063 -0.831538
-0.382683 0.923879 -1.000000 -0.241615 0.649678 -0.720786
-0.449988 1.086367 -0.785695 -0.338237 0.750938 -0.567156
-0.500000 1.207107 -0.541196 -0.355754 0.852565 -0.382794
-0.530797 1.281458 -0.275899 -0.314554 0.929014 -0.194739
-0.541196 1.306563 0.000000 -0.442946 0.896512 0.000000
-0.530797 1.281458 0.275899 -0.374187 0.906583 0.195135
-0.500000 1.207107 0.541196 -0.296365 0.875301 0.382061
-0.449988 1.086367 0.785695 -0.368511 0.745842 0.554857
-0.382683 0.923879 1.000000 -0.266335 0.654866 0.707205
-0.300672 0.725887 1.175876 -0.207587 0.515183 0.831538
-0.207107 0.500000 1.306563 -0.140843 0.355724 0.923887
0.000000 0.541196 1.306563 0.005982 0.382550 0.923887
0.000000 0.785695 1.175876 0.005341 0.555406 0.831538
0.000000 1.000000 1.000000 0.004517 0.706961 0.707205
0.000000 1.175876 0.785695 -0.055025 0.830103 0.554857
0.000000 1.306563 0.541196 0.061129 0.922086 0.382061
0.000000 1.387040 0.275899 0.001221 0.980743 0.195135
0.000000 1.414213 0.000000 -0.028382 0.999481 -0.014039
0.000000 1.387040 -0.275899 0.038240 0.976012 -0.214270
0.000000 1.306563 -0.541196 -0.002411 0.923826 -0.382794
0.000000 1.175876 -0.785695 -0.003510 0.831355 -0.555681
0.000000 1.000000 -1.000000 -0.004517 0.706961 -0.707205
0.000000 0.785695 -1.175876 -0.005341 0.555406 -0.831538
0.000000 0.541196 -1.306563 -0.005982 0.382550 -0.923887
0.207107 0.500000 -1.306563 0.140843 0.355724 -0.923887
0.300672 0.725887 -1.175876 0.207587 0.515183 -0.831538
0.382683 0.923879 -1.000000 0.266335 0.654866 -0.707205
0.449988 1.086367 -0.785695 0.314859 0.769433 -0.555681
0.500000 1.207107 -0.541196 0.351268 0.854427 -0.382794
0.530797 1.281458 -0.275899 0.374187 0.906583 -0.195135
0.541196 1.306563 0.000000 0.382672 0.923856 0.000000
0.530797 1.281458 0.275899 0.376446 0.905637 0.195135
0.500000 1.207107 0.541196 0.409345 0.828486 0.382061
0.449988 1.086367 0.785695 0.266793 0.787988 0.554857
0.382683 0.923879 1.000000 0.274728 0.651418 0.707205
0.300672 0.725887 1.175876 0.217505 0.511063 0.831538
0.207107 0.500000 1.306563 0.151921 0.351115 0.923887
0.382683 0.382683 1.306563 0.274728 0.266243 0.923887
0.555570 0.555570 1.175876 0.396527 0.388928 0.831538
0.707107 0.707107 1.000000 0.503098 0.496689 0.707205
0.831470 0.831470 0.785695 0.548051 0.625874 0.554857
0.923879 0.923879 0.541196 0.695242 0.608783 0.382061
0.980785 0.980785 0.275899 0.694357 0.692618 0.195135
1.000000 1.000000 0.000000 0.707083 0.707083 0.000000
0.980785 0.980785 -0.275899 0.692618 0.694357 -0.195135
0.923880 0.923880 -0.541196 0.651509 0.654927 -0.382794
0.831470 0.831470 -0.785695 0.585345 0.590350 -0.555681
0.707107 0.707107 -1.000000 0.496689 0.503098 -0.707205
0.555570 0.555570 -1.175876 0.388928 0.396527 -0.831538
0.382683 0.382683 -1.306563 0.266243 0.274728 -0.923887
0.500000 0.207107 -1.306563 0.370464 0.191168 -0.908933
0.725887 0.300672 -1.175876 0.531877 0.240394 -0.811945
0.923880 0.382683 -1.000000 0.672201 0.284280 -0.683584
1.086367 0.449988 -0.785695 0.786004 0.320566 -0.528550
1.207107 0.500000 -0.541196 0.868801 0.347392 -0.352763
1.281458 0.530797 -0.275899 0.917295 0.363262 -0.163060
1.306563 0.541196 0.000000 0.913114 0.407208 0.019715
1.281458 0.530797 0.275899 0.912290 0.359844 0.195471
1.207107 0.500000 0.541196 0.878811 0.307657 0.364696
1.086367 0.449988 0.785695 0.767907 0.337748 0.544267
0.923880 0.382683 1.000000 0.652852 0.271340 0.707175
0.725887 0.300672 1.175876 0.509079 0.225166 0.830714
0.500000 0.207107 1.306563 0.345073 0.174169 0.922239
3 0 1 2
3 0 2 3
3 4 5 3
3 4 3 2
3 1 0 5
3 1 5 4
3 6 7 8
3 9 10 11
3 10 12 11
3 13 7 6
3 6 14 13
3 12 15 11
3 15 16 11
3 6 17 14
3 6 18 17
3 16 19 11
3 19 20 11
3 6 21 18
3 6 22 21
3 20 23 11
3 23 24 11
3 6 25 22
3 26 27 28
3 26 28 29
3 30 31 26
3 31 27 26
3 32 33 31
3 32 31 30
3 34 35 33
3 34 33 32
3 36 37 34
3 37 35 34
3 38 39 36
3 39 37 36
3 40 41 38
3 41 39 38
3 29 28 42
3 28 43 42
3 42 43 44
3 43 45 44
3 44 45 46
3 44 46 47
3 47 46 48
3 47 48 49
3 49 48 50
3 49 50 51
3 51 50 52
3 51 52 8
3 6 8 53
3 8 52 53
3 6 53 25
3 53 54 25
3 55 25 54
3 55 54 56
3 57 55 56
3 57 56 58
3 59 57 58
3 59 58 60
3 61 62 63
3 61 63 64
3 62 59 63
3 59 60 63
3 65 66 67
3 66 68 67
3 66 69 70
3 66 70 68
3 69 71 70
3 71 72 70
3 71 61 72
3 61 64 72
3 9 73 41
3 9 41 40
3 11 74 73
3 11 73 9
3 24 75 74
3 24 74 11
3 24 76 77
3 24 77 75
3 76 78 79
3 76 79 77
3 78 80 81
3 78 81 79
3 80 82 83
3 80 83 81
3 82 65 83
3 65 67 83
3 22 25 55
3 22 55 84
3 84 55 57
3 84 57 85
3 85 57 59
3 85 59 86
3 86 59 62
3 86 62 87
3 87 62 61
3 87 61 88
3 88 61 71
3 88 71 89
3 89 71 69
3 89 69 90
3 90 69 91
3 69 66 91
3 91 66 92
3 66 65 92
3 92 65 93
3 65 82 93
3 93 82 94
3 82 80 94
3 94 80 95
3 80 78 95
3 95 78 96
3 78 76 96
3 96 76 23
3 76 24 23
3 97 96 23
3 97 23 20
3 98 95 96
3 98 96 97
3 99 94 95
3 99 95 98
3 100 93 94
3 100 94 99
3 101 92 100
3 92 93 100
3 102 91 92
3 102 92 101
3 103 90 91
3 103 91 102
3 104 89 103
3 89 90 103
3 105 88 89
3 105 89 104
3 106 87 88
3 106 88 105
3 107 86 106
3 86 87 106
3 108 85 86
3 108 86 107
3 109 84 85
3 109 85 108
3 21 22 84
3 21 84 109
3 18 21 109
3 18 109 110
3 110 109 108
3 110 108 111
3 111 108 107
3 111 107 112
3 112 107 113
3 107 106 113
3 113 106 105
3 113 105 114
3 114 105 104
3 114 104 115
3 115 104 116
3 104 103 116
3 116 103 102
3 116 102 117
3 117 102 101
3 117 101 118
3 118 101 119
3 101 100 119
3 119 100 99
3 119 99 120
3 120 99 98
3 120 98 121
3 121 98 97
3 121 97 122
3 122 97 20
3 122 20 19
3 123 122 19
3 123 19 16
3 124 121 122
3 124 122 123
3 125 120 121
3 125 121 124
3 126 119 120
3 126 120 125
3 127 118 126
3 118 119 126
3 128 117 118
3 128 118 127
3 129 116 117
3 129 117 128
3 130 115 129
3 115 116 129
3 131 114 115
3 131 115 130
3 132 113 114
3 132 114 131
3 133 112 113
3 133 113 132
3 134 111 112
3 134 112 133
3 135 110 111
3 135 111 134
3 17 18 110
3 17 110 135
3 14 17 135
3 14 135 136
3 136 135 134
3 136 134 137
3 137 134 133
3 137 133 138
3 138 133 132
3 138 132 139
3 139 132 131
3 139 131 140
3 140 131 130
3 140 130 141
3 141 130 129
3 141 129 142
3 142 129 128
3 142 128 143
3 143 128 127
3 143 127 144
3 144 127 145
3 127 126 145
3 145 126 125
3 145 125 146
3 146 125 124
3 146 124 147
3 147 124 123
3 147 123 148
3 148 123 16
3 148 16 15
3 149 148 15
3 149 15 12
3 150 147 148
3 150 148 149
3 151 146 147
3 151 147 150
3 152 145 146
3 152 146 151
3 153 144 152
3 144 145 152
3 154 143 144
3 154 144 153
3 155 142 143
3 155 143 154
3 156 141 142
3 156 142 155
3 157 140 141
3 157 141 156
3 158 139 140
3 158 140 157
3 159 138 139
3 159 139 158
3 160 137 138
3 160 138 159
3 161 136 137
3 161 137 160
3 13 14 136
3 13 136 161
3 7 13 161
3 7 161 162
3 162 161 160
3 162 160 163
3 163 160 159
3 163 159 164
3 164 159 158
3 164 158 165
3 165 158 157
3 165 157 166
3 166 157 156
3 166 156 167
3 167 156 155
3 167 155 168
3 168 155 154
3 168 154 169
3 169 154 153
3 169 153 170
3 170 153 171
3 153 152 171
3 171 152 151
3 171 151 172
3 172 151 150
3 172 150 173
3 173 150 149
3 173 149 174
3 174 149 12
3 174 12 10
3 40 174 10
3 40 10 9
3 38 173 174
3 38 174 40
3 36 172 173
3 36 173 38
3 34 171 172
3 34 172 36
3 32 170 171
3 32 171 34
3 30 169 170
3 30 170 32
3 26 168 169
3 26 169 30
3 29 167 26
3 167 168 26
3 42 166 29
3 166 167 29
3 44 165 42
3 165 166 42
3 47 164 44
3 164 165 44
3 49 163 47
3 163 164 47
3 51 162 49
3 162 163 49
3 8 7 51
3 7 162 51
