<?xml version="1.0" encoding="UTF-8" standalone="no"?>
<!DOCTYPE svg PUBLIC "-//W3C//DTD SVG 1.1//EN"
 "http://www.w3.org/Graphics/SVG/1.1/DTD/svg11.dtd">
<!-- Generated by graphviz version 2.38.0 (20140413.2041)
 -->
<!-- Title: nars.inference.UtilityFunctions.c2w Pages: 1 -->
<!--zoomable 137 -->
<svg id="main" version="1.1" xmlns="http://www.w3.org/2000/svg" xmlns:xlink="http://www.w3.org/1999/xlink" xml:space="preserve" onload="init(evt)">
<style type="text/css"><![CDATA[
.edge:hover path { stroke: red; }
.edge:hover polygon { stroke: red; fill: red; }
]]></style>
<script type="text/javascript"><![CDATA[
var edges = document.getElementsByTagName('g');
if (edges && edges.length) {
  for (var i=0;i<edges.length;i++) {
    if (edges[i].id.substr(0,4)=='edge') {
      edges[i].setAttribute('class','edge');
    }
  }
}
]]></script>
        <defs>
                <circle id="rim" cx="0" cy="0" r="7"/>
                <circle id="rim2" cx="0" cy="0" r="3.5"/>
                <g id="zoomPlus">
                        <use xlink:href="#rim" fill="#404040">
                                <set attributeName="fill" to="#808080" begin="zoomplus.mouseover" end="zoomplus.mouseout"/>
                        </use>
                        <path d="M-4,0h8M0,-4v8" fill="none" stroke="white" stroke-width="1.5" pointer-events="none"/>
                </g>
                <g id="zoomMin">
                        <use xlink:href="#rim" fill="#404040">
                                <set attributeName="fill" to="#808080" begin="zoomminus.mouseover" end="zoomminus.mouseout"/>
                        </use>
                        <path d="M-4,0h8" fill="none" stroke="white" stroke-width="1.5" pointer-events="none"/>
                </g>
                <g id="dirArrow">
                        <path fill="none" stroke="white" stroke-width="1.5" d="M0,-3.0v7 M-2.5,-0.5L0,-3.0L2.5,-0.5"/>
                </g>
               <g id="resetDef">
                       <use xlink:href="#rim2" fill="#404040">
                               <set attributeName="fill" to="#808080" begin="reset.mouseover" end="reset.mouseout"/>
                       </use>
               </g>
        </defs>

<script type="text/javascript">
var viewWidth = 2581;
var viewHeight = 137;
var sectionId = 'dynsection-0';
</script>
<script xlink:href="../../svgpan.js"/>
<svg id="graph" class="graph">
<g id="viewport">
<title>nars.inference.UtilityFunctions.c2w</title>
<!-- Node1 -->
<g id="node1" class="node"><title>Node1</title>
<polygon fill="#bfbfbf" stroke="black" points="0,-79 0,-98 170,-98 170,-79 0,-79"/>
<text text-anchor="middle" x="85" y="-86" font-family="Helvetica,sans-Serif" font-size="10.00">nars.inference.UtilityFunctions.c2w</text>
</g>
<!-- Node2 -->
<g id="node2" class="node"><title>Node2</title>
<g id="a_node2"><a xlink:href="../../d1/d58/classnars_1_1inference_1_1TruthFunctions_a22620614c797410623291399bae01a0b.html#a22620614c797410623291399bae01a0b" target="_top" xlink:title="{&lt;S ==&gt; P&gt;, &lt;S ==&gt; P&gt;} |&#45; &lt;S ==&gt; P&gt; ">
<polygon fill="none" stroke="black" points="206,-79 206,-98 389,-98 389,-79 206,-79"/>
<text text-anchor="middle" x="297.5" y="-86" font-family="Helvetica,sans-Serif" font-size="10.00">nars.inference.TruthFunctions.revision</text>
</a>
</g>
</g>
<!-- Node1&#45;&gt;Node2 -->
<g id="edge1" class="edge"><title>Node1&#45;&gt;Node2</title>
<path fill="none" stroke="midnightblue" d="M180.129,-88.5C188.72,-88.5 197.412,-88.5 205.971,-88.5"/>
<polygon fill="midnightblue" stroke="midnightblue" points="180.103,-85.0001 170.103,-88.5 180.103,-92.0001 180.103,-85.0001"/>
</g>
<!-- Node3 -->
<g id="node3" class="node"><title>Node3</title>
<g id="a_node3"><a xlink:href="../../d4/de9/classnars_1_1inference_1_1LocalRules_a40edb0903d098da966e3ef972e5c8abd.html#a40edb0903d098da966e3ef972e5c8abd" target="_top" xlink:title="Belief revision. ">
<polygon fill="none" stroke="black" points="425,-79 425,-98 592,-98 592,-79 425,-79"/>
<text text-anchor="middle" x="508.5" y="-86" font-family="Helvetica,sans-Serif" font-size="10.00">nars.inference.LocalRules.revision</text>
</a>
</g>
</g>
<!-- Node2&#45;&gt;Node3 -->
<g id="edge2" class="edge"><title>Node2&#45;&gt;Node3</title>
<path fill="none" stroke="midnightblue" d="M399.525,-88.5C407.966,-88.5 416.438,-88.5 424.719,-88.5"/>
<polygon fill="midnightblue" stroke="midnightblue" points="399.259,-85.0001 389.259,-88.5 399.259,-92.0001 399.259,-85.0001"/>
</g>
<!-- Node4 -->
<g id="node4" class="node"><title>Node4</title>
<g id="a_node4"><a xlink:href="../../d4/de9/classnars_1_1inference_1_1LocalRules_aac1c92950f50edd04d12229a8c992987.html#aac1c92950f50edd04d12229a8c992987" target="_top" xlink:title="The task and belief have the same content. ">
<polygon fill="none" stroke="black" points="628,-102 628,-121 788,-121 788,-102 628,-102"/>
<text text-anchor="middle" x="708" y="-109" font-family="Helvetica,sans-Serif" font-size="10.00">nars.inference.LocalRules.match</text>
</a>
</g>
</g>
<!-- Node3&#45;&gt;Node4 -->
<g id="edge3" class="edge"><title>Node3&#45;&gt;Node4</title>
<path fill="none" stroke="midnightblue" d="M601.244,-99.1841C610.132,-100.219 619.096,-101.263 627.846,-102.282"/>
<polygon fill="midnightblue" stroke="midnightblue" points="601.594,-95.7013 591.256,-98.021 600.784,-102.654 601.594,-95.7013"/>
</g>
<!-- Node14 -->
<g id="node14" class="node"><title>Node14</title>
<g id="a_node14"><a xlink:href="../../d4/d22/classnars_1_1entity_1_1Concept_a40cddcc82ee28a1cf5b1f4bc14e2b078.html#a40cddcc82ee28a1cf5b1f4bc14e2b078" target="_top" xlink:title="To accept a new judgment as isBelief, and check for revisions and solutions. ">
<polygon fill="none" stroke="black" points="638,-51.5 638,-81.5 778,-81.5 778,-51.5 638,-51.5"/>
<text text-anchor="start" x="646" y="-69.5" font-family="Helvetica,sans-Serif" font-size="10.00">nars.entity.Concept.process</text>
<text text-anchor="middle" x="708" y="-58.5" font-family="Helvetica,sans-Serif" font-size="10.00">Judgment</text>
</a>
</g>
</g>
<!-- Node3&#45;&gt;Node14 -->
<g id="edge13" class="edge"><title>Node3&#45;&gt;Node14</title>
<path fill="none" stroke="midnightblue" d="M602.162,-78.1781C614.177,-76.8397 626.313,-75.4879 637.855,-74.2023"/>
<polygon fill="midnightblue" stroke="midnightblue" points="601.664,-74.7118 592.113,-79.2975 602.439,-81.6688 601.664,-74.7118"/>
</g>
<!-- Node5 -->
<g id="node5" class="node"><title>Node5</title>
<g id="a_node5"><a xlink:href="../../da/de3/classnars_1_1inference_1_1RuleTables_ac2d01dfdc40bdd47c757cb549217e6e3.html#ac2d01dfdc40bdd47c757cb549217e6e3" target="_top" xlink:title="Entry point of the inference engine. ">
<polygon fill="none" stroke="black" points="824,-103 824,-122 987,-122 987,-103 824,-103"/>
<text text-anchor="middle" x="905.5" y="-110" font-family="Helvetica,sans-Serif" font-size="10.00">nars.inference.RuleTables.reason</text>
</a>
</g>
</g>
<!-- Node4&#45;&gt;Node5 -->
<g id="edge4" class="edge"><title>Node4&#45;&gt;Node5</title>
<path fill="none" stroke="midnightblue" d="M798.499,-111.958C806.962,-112.001 815.507,-112.045 823.88,-112.088"/>
<polygon fill="midnightblue" stroke="midnightblue" points="798.253,-108.457 788.236,-111.905 798.217,-115.456 798.253,-108.457"/>
</g>
<!-- Node6 -->
<g id="node6" class="node"><title>Node6</title>
<g id="a_node6"><a xlink:href="../../d4/d22/classnars_1_1entity_1_1Concept_ae07576c8466ad65eeb61040e3f71cfc7.html#ae07576c8466ad65eeb61040e3f71cfc7" target="_top" xlink:title="An atomic step in a concept, only called in Memory# processConcept. ">
<polygon fill="none" stroke="black" points="1042,-103 1042,-122 1161,-122 1161,-103 1042,-103"/>
<text text-anchor="middle" x="1101.5" y="-110" font-family="Helvetica,sans-Serif" font-size="10.00">nars.entity.Concept.fire</text>
</a>
</g>
</g>
<!-- Node5&#45;&gt;Node6 -->
<g id="edge5" class="edge"><title>Node5&#45;&gt;Node6</title>
<path fill="none" stroke="midnightblue" d="M997.461,-112.5C1012.52,-112.5 1027.76,-112.5 1041.75,-112.5"/>
<polygon fill="midnightblue" stroke="midnightblue" points="997.088,-109 987.088,-112.5 997.088,-116 997.088,-109"/>
</g>
<!-- Node7 -->
<g id="node7" class="node"><title>Node7</title>
<g id="a_node7"><a xlink:href="../../d8/df4/classnars_1_1storage_1_1Memory_a83154b55b922c82b73931d4f22e3a590.html#a83154b55b922c82b73931d4f22e3a590" target="_top" xlink:title="Select a concept to fire. ">
<polygon fill="none" stroke="black" points="1216,-98.5 1216,-128.5 1362,-128.5 1362,-98.5 1216,-98.5"/>
<text text-anchor="start" x="1224" y="-116.5" font-family="Helvetica,sans-Serif" font-size="10.00">nars.storage.Memory.process</text>
<text text-anchor="middle" x="1289" y="-105.5" font-family="Helvetica,sans-Serif" font-size="10.00">Concept</text>
</a>
</g>
</g>
<!-- Node6&#45;&gt;Node7 -->
<g id="edge6" class="edge"><title>Node6&#45;&gt;Node7</title>
<path fill="none" stroke="midnightblue" d="M1171.52,-112.872C1185.93,-112.95 1201.16,-113.032 1215.68,-113.11"/>
<polygon fill="midnightblue" stroke="midnightblue" points="1171.21,-109.37 1161.19,-112.816 1171.17,-116.37 1171.21,-109.37"/>
</g>
<!-- Node8 -->
<g id="node8" class="node"><title>Node8</title>
<g id="a_node8"><a xlink:href="../../d8/df4/classnars_1_1storage_1_1Memory_a49e2cbc8b78d535f4d69739886ee966a.html#a49e2cbc8b78d535f4d69739886ee966a" target="_top" xlink:title="An atomic working workCycle of the system: process new Tasks, then fire a concept. ">
<polygon fill="none" stroke="black" points="1398,-49.5 1398,-79.5 1531,-79.5 1531,-49.5 1398,-49.5"/>
<text text-anchor="start" x="1406" y="-67.5" font-family="Helvetica,sans-Serif" font-size="10.00">nars.storage.Memory.work</text>
<text text-anchor="middle" x="1464.5" y="-56.5" font-family="Helvetica,sans-Serif" font-size="10.00">Cycle</text>
</a>
</g>
</g>
<!-- Node7&#45;&gt;Node8 -->
<g id="edge7" class="edge"><title>Node7&#45;&gt;Node8</title>
<path fill="none" stroke="midnightblue" d="M1353.1,-95.6788C1371.83,-90.3882 1392.16,-84.6478 1410.21,-79.5516"/>
<polygon fill="midnightblue" stroke="midnightblue" points="1352.14,-92.3123 1343.47,-98.3986 1354.05,-99.0488 1352.14,-92.3123"/>
</g>
<!-- Node9 -->
<g id="node9" class="node"><title>Node9</title>
<g id="a_node9"><a xlink:href="../../dd/da5/classnars_1_1storage_1_1Memory_1_1ReasonerBatch_acc60dec23da774957a85362ed6d7448b.html#acc60dec23da774957a85362ed6d7448b" target="_top" xlink:title="nars.storage.Memory.Reasoner\lBatch.doTick">
<polygon fill="none" stroke="black" points="1567,-49.5 1567,-79.5 1721,-79.5 1721,-49.5 1567,-49.5"/>
<text text-anchor="start" x="1575" y="-67.5" font-family="Helvetica,sans-Serif" font-size="10.00">nars.storage.Memory.Reasoner</text>
<text text-anchor="middle" x="1644" y="-56.5" font-family="Helvetica,sans-Serif" font-size="10.00">Batch.doTick</text>
</a>
</g>
</g>
<!-- Node8&#45;&gt;Node9 -->
<g id="edge8" class="edge"><title>Node8&#45;&gt;Node9</title>
<path fill="none" stroke="midnightblue" d="M1541.32,-64.5C1549.79,-64.5 1558.41,-64.5 1566.89,-64.5"/>
<polygon fill="midnightblue" stroke="midnightblue" points="1541.09,-61.0001 1531.09,-64.5 1541.09,-68.0001 1541.09,-61.0001"/>
</g>
<!-- Node10 -->
<g id="node10" class="node"><title>Node10</title>
<g id="a_node10"><a xlink:href="../../dd/da5/classnars_1_1storage_1_1Memory_1_1ReasonerBatch_aed591f05899b98fd9e4ad01836ad0a40.html#aed591f05899b98fd9e4ad01836ad0a40" target="_top" xlink:title="A clock tick. ">
<polygon fill="none" stroke="black" points="1757,-49.5 1757,-79.5 1911,-79.5 1911,-49.5 1757,-49.5"/>
<text text-anchor="start" x="1765" y="-67.5" font-family="Helvetica,sans-Serif" font-size="10.00">nars.storage.Memory.Reasoner</text>
<text text-anchor="middle" x="1834" y="-56.5" font-family="Helvetica,sans-Serif" font-size="10.00">Batch.tick</text>
</a>
</g>
</g>
<!-- Node9&#45;&gt;Node10 -->
<g id="edge9" class="edge"><title>Node9&#45;&gt;Node10</title>
<path fill="none" stroke="midnightblue" d="M1731.42,-64.5C1739.86,-64.5 1748.37,-64.5 1756.7,-64.5"/>
<polygon fill="midnightblue" stroke="midnightblue" points="1731.2,-61.0001 1721.2,-64.5 1731.2,-68.0001 1731.2,-61.0001"/>
</g>
<!-- Node11 -->
<g id="node11" class="node"><title>Node11</title>
<g id="a_node11"><a xlink:href="../../d4/d88/classnars_1_1storage_1_1Memory_1_1NARSBatch_aad99db6cedde9cff2a997db8906ff821.html#aad99db6cedde9cff2a997db8906ff821" target="_top" xlink:title="Run to completion: repeatedly execute NARS working cycle, until Inputs are Finished, or 1000 steps. ">
<polygon fill="none" stroke="black" points="1947,-55 1947,-74 2129,-74 2129,-55 1947,-55"/>
<text text-anchor="middle" x="2038" y="-62" font-family="Helvetica,sans-Serif" font-size="10.00">nars.storage.Memory.NARSBatch.run</text>
</a>
</g>
</g>
<!-- Node10&#45;&gt;Node11 -->
<g id="edge10" class="edge"><title>Node10&#45;&gt;Node11</title>
<path fill="none" stroke="midnightblue" d="M1921.27,-64.5C1929.69,-64.5 1938.25,-64.5 1946.71,-64.5"/>
<polygon fill="midnightblue" stroke="midnightblue" points="1921.08,-61.0001 1911.08,-64.5 1921.08,-68.0001 1921.08,-61.0001"/>
</g>
<!-- Node12 -->
<g id="node12" class="node"><title>Node12</title>
<g id="a_node12"><a xlink:href="../../d4/d88/classnars_1_1storage_1_1Memory_1_1NARSBatch_a416c39463faa161661ed1d12fea03b3c.html#a416c39463faa161661ed1d12fea03b3c" target="_top" xlink:title="non&#45;static equivalent to main(String[]) : run to completion from an input file ">
<polygon fill="none" stroke="black" points="2165,-49.5 2165,-79.5 2347,-79.5 2347,-49.5 2165,-49.5"/>
<text text-anchor="start" x="2173" y="-67.5" font-family="Helvetica,sans-Serif" font-size="10.00">nars.storage.Memory.NARSBatch.run</text>
<text text-anchor="middle" x="2256" y="-56.5" font-family="Helvetica,sans-Serif" font-size="10.00">Inference</text>
</a>
</g>
</g>
<!-- Node11&#45;&gt;Node12 -->
<g id="edge11" class="edge"><title>Node11&#45;&gt;Node12</title>
<path fill="none" stroke="midnightblue" d="M2139.06,-64.5C2147.63,-64.5 2156.27,-64.5 2164.76,-64.5"/>
<polygon fill="midnightblue" stroke="midnightblue" points="2139.04,-61.0001 2129.04,-64.5 2139.04,-68.0001 2139.04,-61.0001"/>
</g>
<!-- Node13 -->
<g id="node13" class="node"><title>Node13</title>
<g id="a_node13"><a xlink:href="../../d4/d88/classnars_1_1storage_1_1Memory_1_1NARSBatch_aa97fcd68270583e60e6bf1b4579d1bdc.html#aa97fcd68270583e60e6bf1b4579d1bdc" target="_top" xlink:title="The entry point of the standalone application. ">
<polygon fill="none" stroke="black" points="2383,-55 2383,-74 2573,-74 2573,-55 2383,-55"/>
<text text-anchor="middle" x="2478" y="-62" font-family="Helvetica,sans-Serif" font-size="10.00">nars.storage.Memory.NARSBatch.main</text>
</a>
</g>
</g>
<!-- Node12&#45;&gt;Node13 -->
<g id="edge12" class="edge"><title>Node12&#45;&gt;Node13</title>
<path fill="none" stroke="midnightblue" d="M2357.37,-64.5C2365.82,-64.5 2374.34,-64.5 2382.74,-64.5"/>
<polygon fill="midnightblue" stroke="midnightblue" points="2357.12,-61.0001 2347.12,-64.5 2357.12,-68.0001 2357.12,-61.0001"/>
</g>
<!-- Node15 -->
<g id="node15" class="node"><title>Node15</title>
<g id="a_node15"><a xlink:href="../../d4/d22/classnars_1_1entity_1_1Concept_a9ea7c3154932d7a736c105eb55daeb5c.html#a9ea7c3154932d7a736c105eb55daeb5c" target="_top" xlink:title="Directly process a new task. ">
<polygon fill="none" stroke="black" points="841,-49.5 841,-79.5 970,-79.5 970,-49.5 841,-49.5"/>
<text text-anchor="start" x="849" y="-67.5" font-family="Helvetica,sans-Serif" font-size="10.00">nars.entity.Concept.direct</text>
<text text-anchor="middle" x="905.5" y="-56.5" font-family="Helvetica,sans-Serif" font-size="10.00">Process</text>
</a>
</g>
</g>
<!-- Node14&#45;&gt;Node15 -->
<g id="edge14" class="edge"><title>Node14&#45;&gt;Node15</title>
<path fill="none" stroke="midnightblue" d="M788.386,-65.6879C805.875,-65.509 824.177,-65.3217 840.943,-65.1502"/>
<polygon fill="midnightblue" stroke="midnightblue" points="788.165,-62.1898 778.201,-65.7921 788.236,-69.1895 788.165,-62.1898"/>
</g>
<!-- Node16 -->
<g id="node16" class="node"><title>Node16</title>
<g id="a_node16"><a xlink:href="../../d8/df4/classnars_1_1storage_1_1Memory_a175200c1f4c182222d0e66439b6e53a0.html#a175200c1f4c182222d0e66439b6e53a0" target="_top" xlink:title="Immediate processing of a new task, in constant time Local processing, in one concept only...">
<polygon fill="none" stroke="black" points="1023,-49.5 1023,-79.5 1180,-79.5 1180,-49.5 1023,-49.5"/>
<text text-anchor="start" x="1031" y="-67.5" font-family="Helvetica,sans-Serif" font-size="10.00">nars.storage.Memory.immediate</text>
<text text-anchor="middle" x="1101.5" y="-56.5" font-family="Helvetica,sans-Serif" font-size="10.00">Process</text>
</a>
</g>
</g>
<!-- Node15&#45;&gt;Node16 -->
<g id="edge15" class="edge"><title>Node15&#45;&gt;Node16</title>
<path fill="none" stroke="midnightblue" d="M980.088,-64.5C994.105,-64.5 1008.81,-64.5 1022.95,-64.5"/>
<polygon fill="midnightblue" stroke="midnightblue" points="980.023,-61.0001 970.023,-64.5 980.023,-68.0001 980.023,-61.0001"/>
</g>
<!-- Node17 -->
<g id="node17" class="node"><title>Node17</title>
<g id="a_node17"><a xlink:href="../../d8/df4/classnars_1_1storage_1_1Memory_a105e44a3504921cc1036eb979b85d9f0.html#a105e44a3504921cc1036eb979b85d9f0" target="_top" xlink:title="Process the newTasks accumulated in the previous workCycle, accept input ones and those that correspo...">
<polygon fill="none" stroke="black" points="1216,-49.5 1216,-79.5 1362,-79.5 1362,-49.5 1216,-49.5"/>
<text text-anchor="start" x="1224" y="-67.5" font-family="Helvetica,sans-Serif" font-size="10.00">nars.storage.Memory.process</text>
<text text-anchor="middle" x="1289" y="-56.5" font-family="Helvetica,sans-Serif" font-size="10.00">NewTask</text>
</a>
</g>
</g>
<!-- Node16&#45;&gt;Node17 -->
<g id="edge16" class="edge"><title>Node16&#45;&gt;Node17</title>
<path fill="none" stroke="midnightblue" d="M1190.12,-64.5C1198.71,-64.5 1207.35,-64.5 1215.75,-64.5"/>
<polygon fill="midnightblue" stroke="midnightblue" points="1190.09,-61.0001 1180.09,-64.5 1190.09,-68.0001 1190.09,-61.0001"/>
</g>
<!-- Node18 -->
<g id="node18" class="node"><title>Node18</title>
<g id="a_node18"><a xlink:href="../../d8/df4/classnars_1_1storage_1_1Memory_afe3b4d1bb5fab652ceca53c04773af73.html#afe3b4d1bb5fab652ceca53c04773af73" target="_top" xlink:title="Select a novel task to process. ">
<polygon fill="none" stroke="black" points="1216,-0.5 1216,-30.5 1362,-30.5 1362,-0.5 1216,-0.5"/>
<text text-anchor="start" x="1224" y="-18.5" font-family="Helvetica,sans-Serif" font-size="10.00">nars.storage.Memory.process</text>
<text text-anchor="middle" x="1289" y="-7.5" font-family="Helvetica,sans-Serif" font-size="10.00">NovelTask</text>
</a>
</g>
</g>
<!-- Node16&#45;&gt;Node18 -->
<g id="edge18" class="edge"><title>Node16&#45;&gt;Node18</title>
<path fill="none" stroke="midnightblue" d="M1169.22,-46.8771C1189.51,-41.5163 1211.61,-35.6775 1231.19,-30.5062"/>
<polygon fill="midnightblue" stroke="midnightblue" points="1168.19,-43.5275 1159.42,-49.4654 1169.98,-50.2953 1168.19,-43.5275"/>
</g>
<!-- Node17&#45;&gt;Node8 -->
<g id="edge17" class="edge"><title>Node17&#45;&gt;Node8</title>
<path fill="none" stroke="midnightblue" d="M1372.12,-64.5C1380.72,-64.5 1389.37,-64.5 1397.76,-64.5"/>
<polygon fill="midnightblue" stroke="midnightblue" points="1372.07,-61.0001 1362.07,-64.5 1372.07,-68.0001 1372.07,-61.0001"/>
</g>
<!-- Node18&#45;&gt;Node8 -->
<g id="edge19" class="edge"><title>Node18&#45;&gt;Node8</title>
<path fill="none" stroke="midnightblue" d="M1353.1,-33.3212C1371.83,-38.6118 1392.16,-44.3522 1410.21,-49.4484"/>
<polygon fill="midnightblue" stroke="midnightblue" points="1354.05,-29.9512 1343.47,-30.6014 1352.14,-36.6877 1354.05,-29.9512"/>
</g>
</g>
</svg>
        <g id="navigator" transform="translate(0 0)" fill="#404254">
                <rect fill="#f2f5e9" fill-opacity="0.5" stroke="#606060" stroke-width=".5" x="0" y="0" width="60" height="60"/>
                <use id="zoomplus" xlink:href="#zoomPlus" x="17" y="9" onmousedown="handleZoom(evt,'in')"/>
                <use id="zoomminus" xlink:href="#zoomMin" x="42" y="9" onmousedown="handleZoom(evt,'out')"/>
                <use id="reset" xlink:href="#resetDef" x="30" y="36" onmousedown="handleReset()"/>
                <g id="arrowUp" xlink:href="#dirArrow" transform="translate(30 24)" onmousedown="handlePan(0,-1)">
                  <use xlink:href="#rim" fill="#404040">
                        <set attributeName="fill" to="#808080" begin="arrowUp.mouseover" end="arrowUp.mouseout"/>
                  </use>
                  <path fill="none" stroke="white" stroke-width="1.5" d="M0,-3.0v7 M-2.5,-0.5L0,-3.0L2.5,-0.5"/>
                </g>
                <g id="arrowRight" xlink:href="#dirArrow" transform="rotate(90) translate(36 -43)" onmousedown="handlePan(1,0)">
                  <use xlink:href="#rim" fill="#404040">
                        <set attributeName="fill" to="#808080" begin="arrowRight.mouseover" end="arrowRight.mouseout"/>
                  </use>
                  <path fill="none" stroke="white" stroke-width="1.5" d="M0,-3.0v7 M-2.5,-0.5L0,-3.0L2.5,-0.5"/>
                </g>
                <g id="arrowDown" xlink:href="#dirArrow" transform="rotate(180) translate(-30 -48)" onmousedown="handlePan(0,1)">
                  <use xlink:href="#rim" fill="#404040">
                        <set attributeName="fill" to="#808080" begin="arrowDown.mouseover" end="arrowDown.mouseout"/>
                  </use>
                  <path fill="none" stroke="white" stroke-width="1.5" d="M0,-3.0v7 M-2.5,-0.5L0,-3.0L2.5,-0.5"/>
                </g>
                <g id="arrowLeft" xlink:href="#dirArrow" transform="rotate(270) translate(-36 17)" onmousedown="handlePan(-1,0)">
                  <use xlink:href="#rim" fill="#404040">
                        <set attributeName="fill" to="#808080" begin="arrowLeft.mouseover" end="arrowLeft.mouseout"/>
                  </use>
                  <path fill="none" stroke="white" stroke-width="1.5" d="M0,-3.0v7 M-2.5,-0.5L0,-3.0L2.5,-0.5"/>
                </g>
        </g>
        <svg viewBox="0 0 15 15" width="100%" height="30px" preserveAspectRatio="xMaxYMin meet">
         <g id="arrow_out" transform="scale(0.3 0.3)">
          <a xlink:href="classnars_1_1inference_1_1UtilityFunctions_a2020576689d5aebb96d6915150cc7b9d_a2020576689d5aebb96d6915150cc7b9d_icgraph_org.svg" target="_base">
           <rect id="button" ry="5" rx="5" y="6" x="6" height="38" width="38"
                fill="#f2f5e9" fill-opacity="0.5" stroke="#606060" stroke-width="1.0"/>
           <path id="arrow"
             d="M 11.500037,31.436501 C 11.940474,20.09759 22.043105,11.32322 32.158766,21.979434 L 37.068811,17.246167 C 37.068811,17.246167 37.088388,32 37.088388,32 L 22.160133,31.978069 C 22.160133,31.978069 26.997745,27.140456 26.997745,27.140456 C 18.528582,18.264221 13.291696,25.230495 11.500037,31.436501 z"
             style="fill:#404040;"/>
          </a>
         </g>
        </svg>
</svg>
