<?xml version="1.0" encoding="UTF-8" standalone="no"?>
<!DOCTYPE svg PUBLIC "-//W3C//DTD SVG 1.1//EN"
 "http://www.w3.org/Graphics/SVG/1.1/DTD/svg11.dtd">
<!-- Generated by graphviz version 2.38.0 (20140413.2041)
 -->
<!-- Title: nars.language.Similarity Pages: 1 -->
<svg width="438pt" height="1104pt"
 viewBox="0.00 0.00 438.00 1104.00" xmlns="http://www.w3.org/2000/svg" xmlns:xlink="http://www.w3.org/1999/xlink">
<g id="graph0" class="graph" transform="scale(1 1) rotate(0) translate(4 1100)">
<title>nars.language.Similarity</title>
<!-- Node1 -->
<g id="node1" class="node"><title>Node1</title>
<polygon fill="#bfbfbf" stroke="black" points="202.5,-0.5 202.5,-112.5 323.5,-112.5 323.5,-0.5 202.5,-0.5"/>
<text text-anchor="middle" x="263" y="-100.5" font-family="Helvetica,sans-Serif" font-size="10.00">nars.language.Similarity</text>
<polyline fill="none" stroke="black" points="202.5,-93.5 323.5,-93.5 "/>
<text text-anchor="middle" x="263" y="-81.5" font-family="Helvetica,sans-Serif" font-size="10.00"> </text>
<polyline fill="none" stroke="black" points="202.5,-74.5 323.5,-74.5 "/>
<text text-anchor="start" x="210.5" y="-62.5" font-family="Helvetica,sans-Serif" font-size="10.00">+ clone()</text>
<text text-anchor="start" x="210.5" y="-51.5" font-family="Helvetica,sans-Serif" font-size="10.00">+ operator()</text>
<text text-anchor="start" x="210.5" y="-40.5" font-family="Helvetica,sans-Serif" font-size="10.00">+ isCommutative()</text>
<text text-anchor="start" x="210.5" y="-29.5" font-family="Helvetica,sans-Serif" font-size="10.00">+ make()</text>
<text text-anchor="start" x="210.5" y="-18.5" font-family="Helvetica,sans-Serif" font-size="10.00">&#45; Similarity()</text>
<text text-anchor="start" x="210.5" y="-7.5" font-family="Helvetica,sans-Serif" font-size="10.00">&#45; Similarity()</text>
</g>
<!-- Node2 -->
<g id="node2" class="node"><title>Node2</title>
<g id="a_node2"><a xlink:href="../../d1/d5e/classnars_1_1language_1_1Statement.html" target="_top" xlink:title="A statement is a compound term, consisting of a subject, a predicate, and a relation symbol in betwee...">
<polygon fill="none" stroke="black" points="200,-150.5 200,-339.5 326,-339.5 326,-150.5 200,-150.5"/>
<text text-anchor="middle" x="263" y="-327.5" font-family="Helvetica,sans-Serif" font-size="10.00">nars.language.Statement</text>
<polyline fill="none" stroke="black" points="200,-320.5 326,-320.5 "/>
<text text-anchor="middle" x="263" y="-308.5" font-family="Helvetica,sans-Serif" font-size="10.00"> </text>
<polyline fill="none" stroke="black" points="200,-301.5 326,-301.5 "/>
<text text-anchor="start" x="208" y="-289.5" font-family="Helvetica,sans-Serif" font-size="10.00">+ invalid()</text>
<text text-anchor="start" x="208" y="-278.5" font-family="Helvetica,sans-Serif" font-size="10.00">+ getSubject()</text>
<text text-anchor="start" x="208" y="-267.5" font-family="Helvetica,sans-Serif" font-size="10.00">+ getPredicate()</text>
<text text-anchor="start" x="208" y="-256.5" font-family="Helvetica,sans-Serif" font-size="10.00">+ make()</text>
<text text-anchor="start" x="208" y="-245.5" font-family="Helvetica,sans-Serif" font-size="10.00">+ make()</text>
<text text-anchor="start" x="208" y="-234.5" font-family="Helvetica,sans-Serif" font-size="10.00">+ makeSym()</text>
<text text-anchor="start" x="208" y="-223.5" font-family="Helvetica,sans-Serif" font-size="10.00">+ isRelation()</text>
<text text-anchor="start" x="208" y="-212.5" font-family="Helvetica,sans-Serif" font-size="10.00">+ invalidStatement()</text>
<text text-anchor="start" x="208" y="-201.5" font-family="Helvetica,sans-Serif" font-size="10.00"># Statement()</text>
<text text-anchor="start" x="208" y="-190.5" font-family="Helvetica,sans-Serif" font-size="10.00"># Statement()</text>
<text text-anchor="start" x="208" y="-179.5" font-family="Helvetica,sans-Serif" font-size="10.00"># Statement()</text>
<text text-anchor="start" x="208" y="-168.5" font-family="Helvetica,sans-Serif" font-size="10.00"># makeName()</text>
<text text-anchor="start" x="208" y="-157.5" font-family="Helvetica,sans-Serif" font-size="10.00"># makeStatementName()</text>
</a>
</g>
</g>
<!-- Node2&#45;&gt;Node1 -->
<g id="edge1" class="edge"><title>Node2&#45;&gt;Node1</title>
<path fill="none" stroke="midnightblue" d="M263,-140.443C263,-130.85 263,-121.404 263,-112.518"/>
<polygon fill="none" stroke="midnightblue" points="259.5,-140.477 263,-150.477 266.5,-140.477 259.5,-140.477"/>
</g>
<!-- Node3 -->
<g id="node3" class="node"><title>Node3</title>
<g id="a_node3"><a xlink:href="../../d0/dee/classnars_1_1language_1_1CompoundTerm.html" target="_top" xlink:title="A CompoundTerm is a Term with internal (syntactic) structure. ">
<polygon fill="none" stroke="black" points="188,-377.5 188,-753.5 338,-753.5 338,-377.5 188,-377.5"/>
<text text-anchor="middle" x="263" y="-741.5" font-family="Helvetica,sans-Serif" font-size="10.00">nars.language.CompoundTerm</text>
<polyline fill="none" stroke="black" points="188,-734.5 338,-734.5 "/>
<text text-anchor="start" x="196" y="-722.5" font-family="Helvetica,sans-Serif" font-size="10.00"># complexity</text>
<text text-anchor="start" x="196" y="-711.5" font-family="Helvetica,sans-Serif" font-size="10.00"># isConstant</text>
<polyline fill="none" stroke="black" points="188,-704.5 338,-704.5 "/>
<text text-anchor="start" x="196" y="-692.5" font-family="Helvetica,sans-Serif" font-size="10.00">+ operator()</text>
<text text-anchor="start" x="196" y="-681.5" font-family="Helvetica,sans-Serif" font-size="10.00">+ clone()</text>
<text text-anchor="start" x="196" y="-670.5" font-family="Helvetica,sans-Serif" font-size="10.00">+ setName()</text>
<text text-anchor="start" x="196" y="-659.5" font-family="Helvetica,sans-Serif" font-size="10.00">+ getComplexity()</text>
<text text-anchor="start" x="196" y="-648.5" font-family="Helvetica,sans-Serif" font-size="10.00">+ isConstant()</text>
<text text-anchor="start" x="196" y="-637.5" font-family="Helvetica,sans-Serif" font-size="10.00">+ setConstant()</text>
<text text-anchor="start" x="196" y="-626.5" font-family="Helvetica,sans-Serif" font-size="10.00">+ isCommutative()</text>
<text text-anchor="start" x="196" y="-615.5" font-family="Helvetica,sans-Serif" font-size="10.00">+ size()</text>
<text text-anchor="start" x="196" y="-604.5" font-family="Helvetica,sans-Serif" font-size="10.00">+ componentAt()</text>
<text text-anchor="start" x="196" y="-593.5" font-family="Helvetica,sans-Serif" font-size="10.00">+ getComponents()</text>
<text text-anchor="start" x="196" y="-582.5" font-family="Helvetica,sans-Serif" font-size="10.00">and 9 more...</text>
<text text-anchor="start" x="196" y="-571.5" font-family="Helvetica,sans-Serif" font-size="10.00">+ make()</text>
<text text-anchor="start" x="196" y="-560.5" font-family="Helvetica,sans-Serif" font-size="10.00">+ make()</text>
<text text-anchor="start" x="196" y="-549.5" font-family="Helvetica,sans-Serif" font-size="10.00">+ isOperator()</text>
<text text-anchor="start" x="196" y="-538.5" font-family="Helvetica,sans-Serif" font-size="10.00">+ cloneList()</text>
<text text-anchor="start" x="196" y="-527.5" font-family="Helvetica,sans-Serif" font-size="10.00">+ addComponents()</text>
<text text-anchor="start" x="196" y="-516.5" font-family="Helvetica,sans-Serif" font-size="10.00">+ reduceComponents()</text>
<text text-anchor="start" x="196" y="-505.5" font-family="Helvetica,sans-Serif" font-size="10.00">+ setComponent()</text>
<text text-anchor="start" x="196" y="-494.5" font-family="Helvetica,sans-Serif" font-size="10.00"># CompoundTerm()</text>
<text text-anchor="start" x="196" y="-483.5" font-family="Helvetica,sans-Serif" font-size="10.00"># CompoundTerm()</text>
<text text-anchor="start" x="196" y="-472.5" font-family="Helvetica,sans-Serif" font-size="10.00"># CompoundTerm()</text>
<text text-anchor="start" x="196" y="-461.5" font-family="Helvetica,sans-Serif" font-size="10.00"># CompoundTerm()</text>
<text text-anchor="start" x="196" y="-450.5" font-family="Helvetica,sans-Serif" font-size="10.00"># makeName()</text>
<text text-anchor="start" x="196" y="-439.5" font-family="Helvetica,sans-Serif" font-size="10.00"># argumentsToList()</text>
<text text-anchor="start" x="196" y="-428.5" font-family="Helvetica,sans-Serif" font-size="10.00"># makeCompoundName()</text>
<text text-anchor="start" x="196" y="-417.5" font-family="Helvetica,sans-Serif" font-size="10.00"># makeSetName()</text>
<text text-anchor="start" x="196" y="-406.5" font-family="Helvetica,sans-Serif" font-size="10.00"># makeImageName()</text>
<text text-anchor="start" x="196" y="-395.5" font-family="Helvetica,sans-Serif" font-size="10.00">&#45; calcComplexity()</text>
<text text-anchor="start" x="196" y="-384.5" font-family="Helvetica,sans-Serif" font-size="10.00">&#45; prepareComponentLinks()</text>
</a>
</g>
</g>
<!-- Node3&#45;&gt;Node2 -->
<g id="edge2" class="edge"><title>Node3&#45;&gt;Node2</title>
<path fill="none" stroke="midnightblue" d="M263,-367.087C263,-357.659 263,-348.421 263,-339.516"/>
<polygon fill="none" stroke="midnightblue" points="259.5,-367.385 263,-377.385 266.5,-367.385 259.5,-367.385"/>
</g>
<!-- Node4 -->
<g id="node4" class="node"><title>Node4</title>
<g id="a_node4"><a xlink:href="../../d8/db8/classnars_1_1language_1_1Term.html" target="_top" xlink:title="Term is the basic component of Narsese, and the object of processing in NARS. ">
<polygon fill="none" stroke="black" points="100,-801.5 100,-990.5 204,-990.5 204,-801.5 100,-801.5"/>
<text text-anchor="middle" x="152" y="-978.5" font-family="Helvetica,sans-Serif" font-size="10.00">nars.language.Term</text>
<polyline fill="none" stroke="black" points="100,-971.5 204,-971.5 "/>
<text text-anchor="start" x="108" y="-959.5" font-family="Helvetica,sans-Serif" font-size="10.00"># name</text>
<polyline fill="none" stroke="black" points="100,-952.5 204,-952.5 "/>
<text text-anchor="start" x="108" y="-940.5" font-family="Helvetica,sans-Serif" font-size="10.00">+ Term()</text>
<text text-anchor="start" x="108" y="-929.5" font-family="Helvetica,sans-Serif" font-size="10.00">+ getName()</text>
<text text-anchor="start" x="108" y="-918.5" font-family="Helvetica,sans-Serif" font-size="10.00">+ setName()</text>
<text text-anchor="start" x="108" y="-907.5" font-family="Helvetica,sans-Serif" font-size="10.00">+ clone()</text>
<text text-anchor="start" x="108" y="-896.5" font-family="Helvetica,sans-Serif" font-size="10.00">+ equals()</text>
<text text-anchor="start" x="108" y="-885.5" font-family="Helvetica,sans-Serif" font-size="10.00">+ hashCode()</text>
<text text-anchor="start" x="108" y="-874.5" font-family="Helvetica,sans-Serif" font-size="10.00">+ isConstant()</text>
<text text-anchor="start" x="108" y="-863.5" font-family="Helvetica,sans-Serif" font-size="10.00">+ renameVariables()</text>
<text text-anchor="start" x="108" y="-852.5" font-family="Helvetica,sans-Serif" font-size="10.00">+ getComplexity()</text>
<text text-anchor="start" x="108" y="-841.5" font-family="Helvetica,sans-Serif" font-size="10.00">+ compareTo()</text>
<text text-anchor="start" x="108" y="-830.5" font-family="Helvetica,sans-Serif" font-size="10.00">+ containTerm()</text>
<text text-anchor="start" x="108" y="-819.5" font-family="Helvetica,sans-Serif" font-size="10.00">+ toString()</text>
<text text-anchor="start" x="108" y="-808.5" font-family="Helvetica,sans-Serif" font-size="10.00"># Term()</text>
</a>
</g>
</g>
<!-- Node4&#45;&gt;Node3 -->
<g id="edge3" class="edge"><title>Node4&#45;&gt;Node3</title>
<path fill="none" stroke="midnightblue" d="M186.925,-791.64C191.047,-779.441 195.346,-766.72 199.71,-753.806"/>
<polygon fill="none" stroke="midnightblue" points="183.545,-790.71 183.66,-801.305 190.177,-792.951 183.545,-790.71"/>
</g>
<!-- Node5 -->
<g id="node5" class="node"><title>Node5</title>
<polygon fill="none" stroke="#bfbfbf" points="0,-1038.5 0,-1095.5 60,-1095.5 60,-1038.5 0,-1038.5"/>
<text text-anchor="middle" x="30" y="-1083.5" font-family="Helvetica,sans-Serif" font-size="10.00">Cloneable</text>
<polyline fill="none" stroke="#bfbfbf" points="0,-1076.5 60,-1076.5 "/>
<text text-anchor="middle" x="30" y="-1064.5" font-family="Helvetica,sans-Serif" font-size="10.00"> </text>
<polyline fill="none" stroke="#bfbfbf" points="0,-1057.5 60,-1057.5 "/>
<text text-anchor="middle" x="30" y="-1045.5" font-family="Helvetica,sans-Serif" font-size="10.00"> </text>
</g>
<!-- Node5&#45;&gt;Node4 -->
<g id="edge4" class="edge"><title>Node5&#45;&gt;Node4</title>
<path fill="none" stroke="midnightblue" d="M55.8831,-1030.15C68.6715,-1012.43 84.5826,-990.39 99.7557,-969.371"/>
<polygon fill="none" stroke="midnightblue" points="52.8883,-1028.31 49.8729,-1038.47 58.564,-1032.41 52.8883,-1028.31"/>
</g>
<!-- Node6 -->
<g id="node6" class="node"><title>Node6</title>
<polygon fill="none" stroke="#bfbfbf" points="78,-1038.5 78,-1095.5 188,-1095.5 188,-1038.5 78,-1038.5"/>
<text text-anchor="middle" x="133" y="-1083.5" font-family="Helvetica,sans-Serif" font-size="10.00">Comparable&lt; Term &gt;</text>
<polyline fill="none" stroke="#bfbfbf" points="78,-1076.5 188,-1076.5 "/>
<text text-anchor="middle" x="133" y="-1064.5" font-family="Helvetica,sans-Serif" font-size="10.00"> </text>
<polyline fill="none" stroke="#bfbfbf" points="78,-1057.5 188,-1057.5 "/>
<text text-anchor="middle" x="133" y="-1045.5" font-family="Helvetica,sans-Serif" font-size="10.00"> </text>
</g>
<!-- Node6&#45;&gt;Node4 -->
<g id="edge5" class="edge"><title>Node6&#45;&gt;Node4</title>
<path fill="none" stroke="midnightblue" d="M137.214,-1028.52C138.495,-1017.13 139.963,-1004.06 141.467,-990.687"/>
<polygon fill="none" stroke="midnightblue" points="133.734,-1028.14 136.095,-1038.47 140.69,-1028.92 133.734,-1028.14"/>
</g>
<!-- Node7 -->
<g id="node7" class="node"><title>Node7</title>
<polygon fill="none" stroke="#bfbfbf" points="206.5,-1038.5 206.5,-1095.5 271.5,-1095.5 271.5,-1038.5 206.5,-1038.5"/>
<text text-anchor="middle" x="239" y="-1083.5" font-family="Helvetica,sans-Serif" font-size="10.00">TermStruct</text>
<polyline fill="none" stroke="#bfbfbf" points="206.5,-1076.5 271.5,-1076.5 "/>
<text text-anchor="middle" x="239" y="-1064.5" font-family="Helvetica,sans-Serif" font-size="10.00"> </text>
<polyline fill="none" stroke="#bfbfbf" points="206.5,-1057.5 271.5,-1057.5 "/>
<text text-anchor="middle" x="239" y="-1045.5" font-family="Helvetica,sans-Serif" font-size="10.00"> </text>
</g>
<!-- Node7&#45;&gt;Node4 -->
<g id="edge6" class="edge"><title>Node7&#45;&gt;Node4</title>
<path fill="none" stroke="midnightblue" d="M220.241,-1029.56C214.252,-1017.93 207.326,-1004.47 200.229,-990.687"/>
<polygon fill="none" stroke="midnightblue" points="217.139,-1031.18 224.828,-1038.47 223.363,-1027.98 217.139,-1031.18"/>
</g>
<!-- Node8 -->
<g id="node8" class="node"><title>Node8</title>
<polygon fill="none" stroke="#bfbfbf" points="245,-862 245,-930 373,-930 373,-862 245,-862"/>
<text text-anchor="start" x="253" y="-918" font-family="Helvetica,sans-Serif" font-size="10.00">ArrayList&lt; nars.language.</text>
<text text-anchor="middle" x="309" y="-907" font-family="Helvetica,sans-Serif" font-size="10.00">Term &gt;</text>
<polyline fill="none" stroke="#bfbfbf" points="245,-900 373,-900 "/>
<text text-anchor="middle" x="309" y="-888" font-family="Helvetica,sans-Serif" font-size="10.00"> </text>
<polyline fill="none" stroke="#bfbfbf" points="245,-881 373,-881 "/>
<text text-anchor="middle" x="309" y="-869" font-family="Helvetica,sans-Serif" font-size="10.00"> </text>
</g>
<!-- Node8&#45;&gt;Node3 -->
<g id="edge7" class="edge"><title>Node8&#45;&gt;Node3</title>
<path fill="none" stroke="#404040" d="M304.379,-861.998C301.017,-837.994 296.158,-803.288 290.942,-766.041"/>
<polygon fill="none" stroke="#404040" points="290.902,-765.753 286.108,-760.366 289.237,-753.869 294.031,-759.256 290.902,-765.753"/>
<text text-anchor="middle" x="324" y="-775" font-family="Helvetica,sans-Serif" font-size="10.00"> #components</text>
</g>
<!-- Node9 -->
<g id="node9" class="node"><title>Node9</title>
<polygon fill="none" stroke="#bfbfbf" points="290,-1038.5 290,-1095.5 346,-1095.5 346,-1038.5 290,-1038.5"/>
<text text-anchor="middle" x="318" y="-1083.5" font-family="Helvetica,sans-Serif" font-size="10.00">ArrayList</text>
<polyline fill="none" stroke="#bfbfbf" points="290,-1076.5 346,-1076.5 "/>
<text text-anchor="middle" x="318" y="-1064.5" font-family="Helvetica,sans-Serif" font-size="10.00"> </text>
<polyline fill="none" stroke="#bfbfbf" points="290,-1057.5 346,-1057.5 "/>
<text text-anchor="middle" x="318" y="-1045.5" font-family="Helvetica,sans-Serif" font-size="10.00"> </text>
</g>
<!-- Node9&#45;&gt;Node8 -->
<g id="edge8" class="edge"><title>Node9&#45;&gt;Node8</title>
<path fill="none" stroke="orange" d="M315.985,-1028.16C314.415,-998.69 312.259,-958.197 310.759,-930.029"/>
<polygon fill="orange" stroke="orange" points="312.507,-1028.67 316.534,-1038.47 319.497,-1028.3 312.507,-1028.67"/>
<text text-anchor="middle" x="373" y="-1012" font-family="Helvetica,sans-Serif" font-size="10.00"> &lt; nars::language::Term &gt;</text>
</g>
</g>
</svg>
