<?xml version="1.0" encoding="UTF-8" standalone="no"?>
<!DOCTYPE svg PUBLIC "-//W3C//DTD SVG 1.1//EN"
 "http://www.w3.org/Graphics/SVG/1.1/DTD/svg11.dtd">
<!-- Generated by graphviz version 2.38.0 (20140413.2041)
 -->
<!-- Title: nars.inference.CompositionalRules.decomposeStatement Pages: 1 -->
<svg width="2328pt" height="61pt"
 viewBox="0.00 0.00 2328.00 61.00" xmlns="http://www.w3.org/2000/svg" xmlns:xlink="http://www.w3.org/1999/xlink">
<g id="graph0" class="graph" transform="scale(1 1) rotate(0) translate(4 57)">
<title>nars.inference.CompositionalRules.decomposeStatement</title>
<!-- Node1 -->
<g id="node1" class="node"><title>Node1</title>
<polygon fill="#bfbfbf" stroke="black" points="0,-22.5 0,-52.5 143,-52.5 143,-22.5 0,-22.5"/>
<text text-anchor="start" x="8" y="-40.5" font-family="Helvetica,sans-Serif" font-size="10.00">nars.inference.Compositional</text>
<text text-anchor="middle" x="71.5" y="-29.5" font-family="Helvetica,sans-Serif" font-size="10.00">Rules.decomposeStatement</text>
</g>
<!-- Node2 -->
<g id="node2" class="node"><title>Node2</title>
<g id="a_node2"><a xlink:href="../../da/de3/classnars_1_1inference_1_1RuleTables_a00ffbf7a9069cfd135acae4b46d78d05.html#a00ffbf7a9069cfd135acae4b46d78d05" target="_top" xlink:title="Inference between a compound term and a component of it. ">
<polygon fill="none" stroke="black" points="179,-22.5 179,-52.5 358,-52.5 358,-22.5 179,-22.5"/>
<text text-anchor="start" x="187" y="-40.5" font-family="Helvetica,sans-Serif" font-size="10.00">nars.inference.RuleTables.compound</text>
<text text-anchor="middle" x="268.5" y="-29.5" font-family="Helvetica,sans-Serif" font-size="10.00">AndSelf</text>
</a>
</g>
</g>
<!-- Node1&#45;&gt;Node2 -->
<g id="edge1" class="edge"><title>Node1&#45;&gt;Node2</title>
<path fill="none" stroke="midnightblue" d="M153.313,-37.5C161.708,-37.5 170.273,-37.5 178.75,-37.5"/>
<polygon fill="midnightblue" stroke="midnightblue" points="153.175,-34.0001 143.175,-37.5 153.175,-41.0001 153.175,-34.0001"/>
</g>
<!-- Node3 -->
<g id="node3" class="node"><title>Node3</title>
<g id="a_node3"><a xlink:href="../../da/de3/classnars_1_1inference_1_1RuleTables_ac2d01dfdc40bdd47c757cb549217e6e3.html#ac2d01dfdc40bdd47c757cb549217e6e3" target="_top" xlink:title="Entry point of the inference engine. ">
<polygon fill="none" stroke="black" points="609,-28 609,-47 772,-47 772,-28 609,-28"/>
<text text-anchor="middle" x="690.5" y="-35" font-family="Helvetica,sans-Serif" font-size="10.00">nars.inference.RuleTables.reason</text>
</a>
</g>
</g>
<!-- Node2&#45;&gt;Node3 -->
<g id="edge2" class="edge"><title>Node2&#45;&gt;Node3</title>
<path fill="none" stroke="midnightblue" d="M368.407,-40.1003C377.062,-40.2621 385.687,-40.3999 394,-40.5 473.55,-41.4583 493.451,-41.5241 573,-40.5 584.633,-40.3502 596.917,-40.1164 608.974,-39.8438"/>
<polygon fill="midnightblue" stroke="midnightblue" points="368.316,-36.5979 358.249,-39.9001 368.178,-43.5966 368.316,-36.5979"/>
</g>
<!-- Node12 -->
<g id="node12" class="node"><title>Node12</title>
<g id="a_node12"><a xlink:href="../../da/de3/classnars_1_1inference_1_1RuleTables_a764dbc9ccccf406df45e09fbfeda928f.html#a764dbc9ccccf406df45e09fbfeda928f" target="_top" xlink:title="Inference between two compound terms. ">
<polygon fill="none" stroke="black" points="394,-0.5 394,-30.5 573,-30.5 573,-0.5 394,-0.5"/>
<text text-anchor="start" x="402" y="-18.5" font-family="Helvetica,sans-Serif" font-size="10.00">nars.inference.RuleTables.compound</text>
<text text-anchor="middle" x="483.5" y="-7.5" font-family="Helvetica,sans-Serif" font-size="10.00">AndCompound</text>
</a>
</g>
</g>
<!-- Node2&#45;&gt;Node12 -->
<g id="edge11" class="edge"><title>Node2&#45;&gt;Node12</title>
<path fill="none" stroke="midnightblue" d="M368.266,-27.2988C376.803,-26.4171 385.406,-25.5285 393.855,-24.6558"/>
<polygon fill="midnightblue" stroke="midnightblue" points="367.876,-23.8204 358.289,-28.3293 368.596,-30.7833 367.876,-23.8204"/>
</g>
<!-- Node4 -->
<g id="node4" class="node"><title>Node4</title>
<g id="a_node4"><a xlink:href="../../d4/d22/classnars_1_1entity_1_1Concept_ae07576c8466ad65eeb61040e3f71cfc7.html#ae07576c8466ad65eeb61040e3f71cfc7" target="_top" xlink:title="An atomic step in a concept, only called in Memory# processConcept. ">
<polygon fill="none" stroke="black" points="808,-28 808,-47 927,-47 927,-28 808,-28"/>
<text text-anchor="middle" x="867.5" y="-35" font-family="Helvetica,sans-Serif" font-size="10.00">nars.entity.Concept.fire</text>
</a>
</g>
</g>
<!-- Node3&#45;&gt;Node4 -->
<g id="edge3" class="edge"><title>Node3&#45;&gt;Node4</title>
<path fill="none" stroke="midnightblue" d="M782.249,-37.5C790.907,-37.5 799.523,-37.5 807.757,-37.5"/>
<polygon fill="midnightblue" stroke="midnightblue" points="782.085,-34.0001 772.085,-37.5 782.085,-41.0001 782.085,-34.0001"/>
</g>
<!-- Node5 -->
<g id="node5" class="node"><title>Node5</title>
<g id="a_node5"><a xlink:href="../../d8/df4/classnars_1_1storage_1_1Memory_a83154b55b922c82b73931d4f22e3a590.html#a83154b55b922c82b73931d4f22e3a590" target="_top" xlink:title="Select a concept to fire. ">
<polygon fill="none" stroke="black" points="963,-22.5 963,-52.5 1109,-52.5 1109,-22.5 963,-22.5"/>
<text text-anchor="start" x="971" y="-40.5" font-family="Helvetica,sans-Serif" font-size="10.00">nars.storage.Memory.process</text>
<text text-anchor="middle" x="1036" y="-29.5" font-family="Helvetica,sans-Serif" font-size="10.00">Concept</text>
</a>
</g>
</g>
<!-- Node4&#45;&gt;Node5 -->
<g id="edge4" class="edge"><title>Node4&#45;&gt;Node5</title>
<path fill="none" stroke="midnightblue" d="M937.337,-37.5C945.748,-37.5 954.361,-37.5 962.819,-37.5"/>
<polygon fill="midnightblue" stroke="midnightblue" points="937.202,-34.0001 927.202,-37.5 937.202,-41.0001 937.202,-34.0001"/>
</g>
<!-- Node6 -->
<g id="node6" class="node"><title>Node6</title>
<g id="a_node6"><a xlink:href="../../d8/df4/classnars_1_1storage_1_1Memory_a49e2cbc8b78d535f4d69739886ee966a.html#a49e2cbc8b78d535f4d69739886ee966a" target="_top" xlink:title="An atomic working workCycle of the system: process new Tasks, then fire a concept. ">
<polygon fill="none" stroke="black" points="1145,-22.5 1145,-52.5 1278,-52.5 1278,-22.5 1145,-22.5"/>
<text text-anchor="start" x="1153" y="-40.5" font-family="Helvetica,sans-Serif" font-size="10.00">nars.storage.Memory.work</text>
<text text-anchor="middle" x="1211.5" y="-29.5" font-family="Helvetica,sans-Serif" font-size="10.00">Cycle</text>
</a>
</g>
</g>
<!-- Node5&#45;&gt;Node6 -->
<g id="edge5" class="edge"><title>Node5&#45;&gt;Node6</title>
<path fill="none" stroke="midnightblue" d="M1119.12,-37.5C1127.72,-37.5 1136.37,-37.5 1144.76,-37.5"/>
<polygon fill="midnightblue" stroke="midnightblue" points="1119.07,-34.0001 1109.07,-37.5 1119.07,-41.0001 1119.07,-34.0001"/>
</g>
<!-- Node7 -->
<g id="node7" class="node"><title>Node7</title>
<g id="a_node7"><a xlink:href="../../dd/da5/classnars_1_1storage_1_1Memory_1_1ReasonerBatch_acc60dec23da774957a85362ed6d7448b.html#acc60dec23da774957a85362ed6d7448b" target="_top" xlink:title="nars.storage.Memory.Reasoner\lBatch.doTick">
<polygon fill="none" stroke="black" points="1314,-22.5 1314,-52.5 1468,-52.5 1468,-22.5 1314,-22.5"/>
<text text-anchor="start" x="1322" y="-40.5" font-family="Helvetica,sans-Serif" font-size="10.00">nars.storage.Memory.Reasoner</text>
<text text-anchor="middle" x="1391" y="-29.5" font-family="Helvetica,sans-Serif" font-size="10.00">Batch.doTick</text>
</a>
</g>
</g>
<!-- Node6&#45;&gt;Node7 -->
<g id="edge6" class="edge"><title>Node6&#45;&gt;Node7</title>
<path fill="none" stroke="midnightblue" d="M1288.32,-37.5C1296.79,-37.5 1305.41,-37.5 1313.89,-37.5"/>
<polygon fill="midnightblue" stroke="midnightblue" points="1288.09,-34.0001 1278.09,-37.5 1288.09,-41.0001 1288.09,-34.0001"/>
</g>
<!-- Node8 -->
<g id="node8" class="node"><title>Node8</title>
<g id="a_node8"><a xlink:href="../../dd/da5/classnars_1_1storage_1_1Memory_1_1ReasonerBatch_aed591f05899b98fd9e4ad01836ad0a40.html#aed591f05899b98fd9e4ad01836ad0a40" target="_top" xlink:title="A clock tick. ">
<polygon fill="none" stroke="black" points="1504,-22.5 1504,-52.5 1658,-52.5 1658,-22.5 1504,-22.5"/>
<text text-anchor="start" x="1512" y="-40.5" font-family="Helvetica,sans-Serif" font-size="10.00">nars.storage.Memory.Reasoner</text>
<text text-anchor="middle" x="1581" y="-29.5" font-family="Helvetica,sans-Serif" font-size="10.00">Batch.tick</text>
</a>
</g>
</g>
<!-- Node7&#45;&gt;Node8 -->
<g id="edge7" class="edge"><title>Node7&#45;&gt;Node8</title>
<path fill="none" stroke="midnightblue" d="M1478.42,-37.5C1486.86,-37.5 1495.37,-37.5 1503.7,-37.5"/>
<polygon fill="midnightblue" stroke="midnightblue" points="1478.2,-34.0001 1468.2,-37.5 1478.2,-41.0001 1478.2,-34.0001"/>
</g>
<!-- Node9 -->
<g id="node9" class="node"><title>Node9</title>
<g id="a_node9"><a xlink:href="../../d4/d88/classnars_1_1storage_1_1Memory_1_1NARSBatch_aad99db6cedde9cff2a997db8906ff821.html#aad99db6cedde9cff2a997db8906ff821" target="_top" xlink:title="Run to completion: repeatedly execute NARS working cycle, until Inputs are Finished, or 1000 steps. ">
<polygon fill="none" stroke="black" points="1694,-28 1694,-47 1876,-47 1876,-28 1694,-28"/>
<text text-anchor="middle" x="1785" y="-35" font-family="Helvetica,sans-Serif" font-size="10.00">nars.storage.Memory.NARSBatch.run</text>
</a>
</g>
</g>
<!-- Node8&#45;&gt;Node9 -->
<g id="edge8" class="edge"><title>Node8&#45;&gt;Node9</title>
<path fill="none" stroke="midnightblue" d="M1668.27,-37.5C1676.69,-37.5 1685.25,-37.5 1693.71,-37.5"/>
<polygon fill="midnightblue" stroke="midnightblue" points="1668.08,-34.0001 1658.08,-37.5 1668.08,-41.0001 1668.08,-34.0001"/>
</g>
<!-- Node10 -->
<g id="node10" class="node"><title>Node10</title>
<g id="a_node10"><a xlink:href="../../d4/d88/classnars_1_1storage_1_1Memory_1_1NARSBatch_a416c39463faa161661ed1d12fea03b3c.html#a416c39463faa161661ed1d12fea03b3c" target="_top" xlink:title="non&#45;static equivalent to main(String[]) : run to completion from an input file ">
<polygon fill="none" stroke="black" points="1912,-22.5 1912,-52.5 2094,-52.5 2094,-22.5 1912,-22.5"/>
<text text-anchor="start" x="1920" y="-40.5" font-family="Helvetica,sans-Serif" font-size="10.00">nars.storage.Memory.NARSBatch.run</text>
<text text-anchor="middle" x="2003" y="-29.5" font-family="Helvetica,sans-Serif" font-size="10.00">Inference</text>
</a>
</g>
</g>
<!-- Node9&#45;&gt;Node10 -->
<g id="edge9" class="edge"><title>Node9&#45;&gt;Node10</title>
<path fill="none" stroke="midnightblue" d="M1886.06,-37.5C1894.63,-37.5 1903.27,-37.5 1911.76,-37.5"/>
<polygon fill="midnightblue" stroke="midnightblue" points="1886.04,-34.0001 1876.04,-37.5 1886.04,-41.0001 1886.04,-34.0001"/>
</g>
<!-- Node11 -->
<g id="node11" class="node"><title>Node11</title>
<g id="a_node11"><a xlink:href="../../d4/d88/classnars_1_1storage_1_1Memory_1_1NARSBatch_aa97fcd68270583e60e6bf1b4579d1bdc.html#aa97fcd68270583e60e6bf1b4579d1bdc" target="_top" xlink:title="The entry point of the standalone application. ">
<polygon fill="none" stroke="black" points="2130,-28 2130,-47 2320,-47 2320,-28 2130,-28"/>
<text text-anchor="middle" x="2225" y="-35" font-family="Helvetica,sans-Serif" font-size="10.00">nars.storage.Memory.NARSBatch.main</text>
</a>
</g>
</g>
<!-- Node10&#45;&gt;Node11 -->
<g id="edge10" class="edge"><title>Node10&#45;&gt;Node11</title>
<path fill="none" stroke="midnightblue" d="M2104.37,-37.5C2112.82,-37.5 2121.34,-37.5 2129.74,-37.5"/>
<polygon fill="midnightblue" stroke="midnightblue" points="2104.12,-34.0001 2094.12,-37.5 2104.12,-41.0001 2104.12,-34.0001"/>
</g>
<!-- Node12&#45;&gt;Node3 -->
<g id="edge12" class="edge"><title>Node12&#45;&gt;Node3</title>
<path fill="none" stroke="midnightblue" d="M583.22,-26.0944C591.762,-27.011 600.338,-27.9314 608.712,-28.8301"/>
<polygon fill="midnightblue" stroke="midnightblue" points="583.54,-22.6087 573.224,-25.0216 582.793,-29.5687 583.54,-22.6087"/>
</g>
</g>
</svg>
