<?xml version="1.0" encoding="UTF-8" standalone="no"?>
<!DOCTYPE svg PUBLIC "-//W3C//DTD SVG 1.1//EN"
 "http://www.w3.org/Graphics/SVG/1.1/DTD/svg11.dtd">
<!-- Generated by graphviz version 2.38.0 (20140413.2041)
 -->
<!-- Title: nars.inference.BudgetFunctions.backwardWeak Pages: 1 -->
<!--zoomable 455 -->
<svg id="main" version="1.1" xmlns="http://www.w3.org/2000/svg" xmlns:xlink="http://www.w3.org/1999/xlink" xml:space="preserve" onload="init(evt)">
<style type="text/css"><![CDATA[
.edge:hover path { stroke: red; }
.edge:hover polygon { stroke: red; fill: red; }
]]></style>
<script type="text/javascript"><![CDATA[
var edges = document.getElementsByTagName('g');
if (edges && edges.length) {
  for (var i=0;i<edges.length;i++) {
    if (edges[i].id.substr(0,4)=='edge') {
      edges[i].setAttribute('class','edge');
    }
  }
}
]]></script>
        <defs>
                <circle id="rim" cx="0" cy="0" r="7"/>
                <circle id="rim2" cx="0" cy="0" r="3.5"/>
                <g id="zoomPlus">
                        <use xlink:href="#rim" fill="#404040">
                                <set attributeName="fill" to="#808080" begin="zoomplus.mouseover" end="zoomplus.mouseout"/>
                        </use>
                        <path d="M-4,0h8M0,-4v8" fill="none" stroke="white" stroke-width="1.5" pointer-events="none"/>
                </g>
                <g id="zoomMin">
                        <use xlink:href="#rim" fill="#404040">
                                <set attributeName="fill" to="#808080" begin="zoomminus.mouseover" end="zoomminus.mouseout"/>
                        </use>
                        <path d="M-4,0h8" fill="none" stroke="white" stroke-width="1.5" pointer-events="none"/>
                </g>
                <g id="dirArrow">
                        <path fill="none" stroke="white" stroke-width="1.5" d="M0,-3.0v7 M-2.5,-0.5L0,-3.0L2.5,-0.5"/>
                </g>
               <g id="resetDef">
                       <use xlink:href="#rim2" fill="#404040">
                               <set attributeName="fill" to="#808080" begin="reset.mouseover" end="reset.mouseout"/>
                       </use>
               </g>
        </defs>

<script type="text/javascript">
var viewWidth = 1048;
var viewHeight = 455;
var sectionId = 'dynsection-0';
</script>
<script xlink:href="../../svgpan.js"/>
<svg id="graph" class="graph">
<g id="viewport">
<title>nars.inference.BudgetFunctions.backwardWeak</title>
<!-- Node1 -->
<g id="node1" class="node"><title>Node1</title>
<polygon fill="#bfbfbf" stroke="black" points="0,-77 0,-96 225,-96 225,-77 0,-77"/>
<text text-anchor="middle" x="112.5" y="-84" font-family="Helvetica,sans-Serif" font-size="10.00">nars.inference.BudgetFunctions.backwardWeak</text>
</g>
<!-- Node2 -->
<g id="node2" class="node"><title>Node2</title>
<g id="a_node2"><a xlink:href="../../d7/d11/classnars_1_1inference_1_1BudgetFunctions_a6c265160b143d73da5433f3d5464b59c.html#a6c265160b143d73da5433f3d5464b59c" target="_top" xlink:title="Common processing for all inference step. ">
<polygon fill="none" stroke="black" points="261,-251.5 261,-281.5 448,-281.5 448,-251.5 261,-251.5"/>
<text text-anchor="start" x="269" y="-269.5" font-family="Helvetica,sans-Serif" font-size="10.00">nars.inference.BudgetFunctions.budget</text>
<text text-anchor="middle" x="354.5" y="-258.5" font-family="Helvetica,sans-Serif" font-size="10.00">Inference</text>
</a>
</g>
</g>
<!-- Node1&#45;&gt;Node2 -->
<g id="edge1" class="edge"><title>Node1&#45;&gt;Node2</title>
<path fill="none" stroke="midnightblue" d="M126.403,-96.1776C163.849,-124.262 273.174,-206.256 325.266,-245.325"/>
<polygon fill="midnightblue" stroke="midnightblue" points="323.312,-248.234 333.412,-251.434 327.512,-242.634 323.312,-248.234"/>
</g>
<!-- Node15 -->
<g id="node15" class="node"><title>Node15</title>
<g id="a_node15"><a xlink:href="../../d7/d11/classnars_1_1inference_1_1BudgetFunctions_a5797bd2ee147531f4200cf66c7392a91.html#a5797bd2ee147531f4200cf66c7392a91" target="_top" xlink:title="Determine the quality of a judgment by its truth value alone. ">
<polygon fill="none" stroke="black" points="266,-71.5 266,-101.5 443,-101.5 443,-71.5 266,-71.5"/>
<text text-anchor="start" x="274" y="-89.5" font-family="Helvetica,sans-Serif" font-size="10.00">nars.inference.BudgetFunctions.truth</text>
<text text-anchor="middle" x="354.5" y="-78.5" font-family="Helvetica,sans-Serif" font-size="10.00">ToQuality</text>
</a>
</g>
</g>
<!-- Node1&#45;&gt;Node15 -->
<g id="edge14" class="edge"><title>Node1&#45;&gt;Node15</title>
<path fill="none" stroke="midnightblue" d="M225.069,-86.5C235.351,-86.5 245.717,-86.5 255.861,-86.5"/>
<polygon fill="midnightblue" stroke="midnightblue" points="255.921,-90.0001 265.921,-86.5 255.921,-83.0001 255.921,-90.0001"/>
</g>
<!-- Node19 -->
<g id="node19" class="node"><title>Node19</title>
<g id="a_node19"><a xlink:href="../../d4/de4/classnars_1_1inference_1_1UtilityFunctions_a957a91e3b91d4a4043c3959838c370f2.html#a957a91e3b91d4a4043c3959838c370f2" target="_top" xlink:title="A function to convert weight to confidence. ">
<polygon fill="none" stroke="black" points="269.5,-33 269.5,-52 439.5,-52 439.5,-33 269.5,-33"/>
<text text-anchor="middle" x="354.5" y="-40" font-family="Helvetica,sans-Serif" font-size="10.00">nars.inference.UtilityFunctions.w2c</text>
</a>
</g>
</g>
<!-- Node1&#45;&gt;Node19 -->
<g id="edge18" class="edge"><title>Node1&#45;&gt;Node19</title>
<path fill="none" stroke="midnightblue" d="M165.576,-76.9527C202.53,-70.1778 252.298,-61.0537 291.334,-53.8971"/>
<polygon fill="midnightblue" stroke="midnightblue" points="292.32,-57.2747 301.525,-52.0287 291.058,-50.3894 292.32,-57.2747"/>
</g>
<!-- Node3 -->
<g id="node3" class="node"><title>Node3</title>
<g id="a_node3"><a xlink:href="../../d4/de4/classnars_1_1inference_1_1UtilityFunctions_a35ac262407303cdf8d11f7892f9a3a03.html#a35ac262407303cdf8d11f7892f9a3a03" target="_top" xlink:title="A function where the output is conjunctively determined by the inputs. ">
<polygon fill="none" stroke="black" points="493,-427 493,-446 661,-446 661,-427 493,-427"/>
<text text-anchor="middle" x="577" y="-434" font-family="Helvetica,sans-Serif" font-size="10.00">nars.inference.UtilityFunctions.and</text>
</a>
</g>
</g>
<!-- Node2&#45;&gt;Node3 -->
<g id="edge2" class="edge"><title>Node2&#45;&gt;Node3</title>
<path fill="none" stroke="midnightblue" d="M363.801,-281.83C381.464,-312.871 425.948,-383.119 484,-417.5 487.71,-419.697 491.635,-421.643 495.691,-423.366"/>
<polygon fill="midnightblue" stroke="midnightblue" points="494.76,-426.756 505.352,-426.997 497.222,-420.203 494.76,-426.756"/>
</g>
<!-- Node4 -->
<g id="node4" class="node"><title>Node4</title>
<g id="a_node4"><a xlink:href="../../d4/de4/classnars_1_1inference_1_1UtilityFunctions_a8abd4e228bb1ac62df2efdf4487ff34d.html#a8abd4e228bb1ac62df2efdf4487ff34d" target="_top" xlink:title="A function where the output is the arithmetic average the inputs. ">
<polygon fill="none" stroke="black" points="487,-389 487,-408 667,-408 667,-389 487,-389"/>
<text text-anchor="middle" x="577" y="-396" font-family="Helvetica,sans-Serif" font-size="10.00">nars.inference.UtilityFunctions.aveAri</text>
</a>
</g>
</g>
<!-- Node2&#45;&gt;Node4 -->
<g id="edge3" class="edge"><title>Node2&#45;&gt;Node4</title>
<path fill="none" stroke="midnightblue" d="M367.977,-281.696C389.122,-306.365 434.548,-354.846 484,-379.5 488.835,-381.91 493.959,-384.015 499.216,-385.853"/>
<polygon fill="midnightblue" stroke="midnightblue" points="498.2,-389.202 508.79,-388.881 500.311,-382.528 498.2,-389.202"/>
</g>
<!-- Node5 -->
<g id="node5" class="node"><title>Node5</title>
<g id="a_node5"><a xlink:href="../../d8/df4/classnars_1_1storage_1_1Memory_afb74806ef37665d392a86dce2e3c6546.html#afb74806ef37665d392a86dce2e3c6546" target="_top" xlink:title="The selected TermLink. ">
<polygon fill="none" stroke="black" points="498,-339.5 498,-369.5 656,-369.5 656,-339.5 498,-339.5"/>
<text text-anchor="start" x="506" y="-357.5" font-family="Helvetica,sans-Serif" font-size="10.00">nars.storage.Memory.getCurrent</text>
<text text-anchor="middle" x="577" y="-346.5" font-family="Helvetica,sans-Serif" font-size="10.00">BeliefLink</text>
</a>
</g>
</g>
<!-- Node2&#45;&gt;Node5 -->
<g id="edge4" class="edge"><title>Node2&#45;&gt;Node5</title>
<path fill="none" stroke="midnightblue" d="M382.402,-281.569C407.949,-295.422 447.733,-315.825 484,-329.5 490.451,-331.933 497.239,-334.235 504.083,-336.386"/>
<polygon fill="midnightblue" stroke="midnightblue" points="503.532,-339.877 514.118,-339.427 505.562,-333.177 503.532,-339.877"/>
</g>
<!-- Node6 -->
<g id="node6" class="node"><title>Node6</title>
<g id="a_node6"><a xlink:href="../../d8/df4/classnars_1_1storage_1_1Memory_a26eda4f00b333b706b4e3d069fdf1508.html#a26eda4f00b333b706b4e3d069fdf1508" target="_top" xlink:title="The selected Task. ">
<polygon fill="none" stroke="black" points="487.5,-301 487.5,-320 666.5,-320 666.5,-301 487.5,-301"/>
<text text-anchor="middle" x="577" y="-308" font-family="Helvetica,sans-Serif" font-size="10.00">nars.storage.Memory.getCurrentTask</text>
</a>
</g>
</g>
<!-- Node2&#45;&gt;Node6 -->
<g id="edge5" class="edge"><title>Node2&#45;&gt;Node6</title>
<path fill="none" stroke="midnightblue" d="M430.767,-281.519C459.419,-287.237 491.588,-293.656 518.355,-298.997"/>
<polygon fill="midnightblue" stroke="midnightblue" points="517.838,-302.463 528.33,-300.988 519.208,-295.598 517.838,-302.463"/>
</g>
<!-- Node7 -->
<g id="node7" class="node"><title>Node7</title>
<g id="a_node7"><a xlink:href="../../d8/df4/classnars_1_1storage_1_1Memory_ab9958cfc601557bc69b0cd9c89f58cf0.html#ab9958cfc601557bc69b0cd9c89f58cf0" target="_top" xlink:title="The selected TaskLink. ">
<polygon fill="none" stroke="black" points="498,-251.5 498,-281.5 656,-281.5 656,-251.5 498,-251.5"/>
<text text-anchor="start" x="506" y="-269.5" font-family="Helvetica,sans-Serif" font-size="10.00">nars.storage.Memory.getCurrent</text>
<text text-anchor="middle" x="577" y="-258.5" font-family="Helvetica,sans-Serif" font-size="10.00">TaskLink</text>
</a>
</g>
</g>
<!-- Node2&#45;&gt;Node7 -->
<g id="edge6" class="edge"><title>Node2&#45;&gt;Node7</title>
<path fill="none" stroke="midnightblue" d="M448.053,-266.5C461.166,-266.5 474.621,-266.5 487.651,-266.5"/>
<polygon fill="midnightblue" stroke="midnightblue" points="487.995,-270 497.995,-266.5 487.995,-263 487.995,-270"/>
</g>
<!-- Node8 -->
<g id="node8" class="node"><title>Node8</title>
<g id="a_node8"><a xlink:href="../../d1/dd1/classnars_1_1entity_1_1Item_adbb21c1891722e30c1d6cfaf5fee18ee.html#adbb21c1891722e30c1d6cfaf5fee18ee" target="_top" xlink:title="Get durability value. ">
<polygon fill="none" stroke="black" points="505.5,-213 505.5,-232 648.5,-232 648.5,-213 505.5,-213"/>
<text text-anchor="middle" x="577" y="-220" font-family="Helvetica,sans-Serif" font-size="10.00">nars.entity.Item.getDurability</text>
</a>
</g>
</g>
<!-- Node2&#45;&gt;Node8 -->
<g id="edge7" class="edge"><title>Node2&#45;&gt;Node8</title>
<path fill="none" stroke="midnightblue" d="M430.767,-251.481C459.419,-245.763 491.588,-239.344 518.355,-234.003"/>
<polygon fill="midnightblue" stroke="midnightblue" points="519.208,-237.402 528.33,-232.012 517.838,-230.537 519.208,-237.402"/>
</g>
<!-- Node10 -->
<g id="node10" class="node"><title>Node10</title>
<g id="a_node10"><a xlink:href="../../d1/dd1/classnars_1_1entity_1_1Item_a97b35888ceaad90e7a428701051c51d7.html#a97b35888ceaad90e7a428701051c51d7" target="_top" xlink:title="Get priority value. ">
<polygon fill="none" stroke="black" points="511,-175 511,-194 643,-194 643,-175 511,-175"/>
<text text-anchor="middle" x="577" y="-182" font-family="Helvetica,sans-Serif" font-size="10.00">nars.entity.Item.getPriority</text>
</a>
</g>
</g>
<!-- Node2&#45;&gt;Node10 -->
<g id="edge9" class="edge"><title>Node2&#45;&gt;Node10</title>
<path fill="none" stroke="midnightblue" d="M381.247,-251.46C406.615,-237.23 446.858,-216.211 484,-203.5 491.874,-200.805 500.265,-198.43 508.654,-196.353"/>
<polygon fill="midnightblue" stroke="midnightblue" points="509.532,-199.742 518.469,-194.052 507.934,-192.927 509.532,-199.742"/>
</g>
<!-- Node12 -->
<g id="node12" class="node"><title>Node12</title>
<g id="a_node12"><a xlink:href="../../d1/dd1/classnars_1_1entity_1_1Item_a9324e448bf1bc9f45c3b8e189450a1bf.html#a9324e448bf1bc9f45c3b8e189450a1bf" target="_top" xlink:title="Increase priority value. ">
<polygon fill="none" stroke="black" points="511.5,-137 511.5,-156 642.5,-156 642.5,-137 511.5,-137"/>
<text text-anchor="middle" x="577" y="-144" font-family="Helvetica,sans-Serif" font-size="10.00">nars.entity.Item.incPriority</text>
</a>
</g>
</g>
<!-- Node2&#45;&gt;Node12 -->
<g id="edge11" class="edge"><title>Node2&#45;&gt;Node12</title>
<path fill="none" stroke="midnightblue" d="M370.132,-251.145C392.472,-228.668 437.422,-187.139 484,-165.5 489.63,-162.885 495.619,-160.627 501.737,-158.678"/>
<polygon fill="midnightblue" stroke="midnightblue" points="502.797,-162.015 511.423,-155.864 500.844,-155.293 502.797,-162.015"/>
</g>
<!-- Node9 -->
<g id="node9" class="node"><title>Node9</title>
<g id="a_node9"><a xlink:href="../../db/d8e/classnars_1_1entity_1_1BudgetValue_ab0e0dc2172d3fab6390670acb68da1a6.html#ab0e0dc2172d3fab6390670acb68da1a6" target="_top" xlink:title="Get durability value. ">
<polygon fill="none" stroke="black" points="706,-218.5 706,-248.5 843,-248.5 843,-218.5 706,-218.5"/>
<text text-anchor="start" x="714" y="-236.5" font-family="Helvetica,sans-Serif" font-size="10.00">nars.entity.BudgetValue.get</text>
<text text-anchor="middle" x="774.5" y="-225.5" font-family="Helvetica,sans-Serif" font-size="10.00">Durability</text>
</a>
</g>
</g>
<!-- Node8&#45;&gt;Node9 -->
<g id="edge8" class="edge"><title>Node8&#45;&gt;Node9</title>
<path fill="none" stroke="midnightblue" d="M648.58,-226.471C663.922,-227.334 680.234,-228.252 695.833,-229.13"/>
<polygon fill="midnightblue" stroke="midnightblue" points="695.782,-232.633 705.963,-229.7 696.176,-225.644 695.782,-232.633"/>
</g>
<!-- Node11 -->
<g id="node11" class="node"><title>Node11</title>
<g id="a_node11"><a xlink:href="../../db/d8e/classnars_1_1entity_1_1BudgetValue_a1e7b6826531f03f792f3516ce0e97ac3.html#a1e7b6826531f03f792f3516ce0e97ac3" target="_top" xlink:title="Get priority value. ">
<polygon fill="none" stroke="black" points="706,-169.5 706,-199.5 843,-199.5 843,-169.5 706,-169.5"/>
<text text-anchor="start" x="714" y="-187.5" font-family="Helvetica,sans-Serif" font-size="10.00">nars.entity.BudgetValue.get</text>
<text text-anchor="middle" x="774.5" y="-176.5" font-family="Helvetica,sans-Serif" font-size="10.00">Priority</text>
</a>
</g>
</g>
<!-- Node10&#45;&gt;Node11 -->
<g id="edge10" class="edge"><title>Node10&#45;&gt;Node11</title>
<path fill="none" stroke="midnightblue" d="M643.099,-184.5C659.905,-184.5 678.166,-184.5 695.555,-184.5"/>
<polygon fill="midnightblue" stroke="midnightblue" points="695.674,-188 705.674,-184.5 695.674,-181 695.674,-188"/>
</g>
<!-- Node13 -->
<g id="node13" class="node"><title>Node13</title>
<g id="a_node13"><a xlink:href="../../db/d8e/classnars_1_1entity_1_1BudgetValue_a088e64163126211239b6afd25a9cdca3.html#a088e64163126211239b6afd25a9cdca3" target="_top" xlink:title="Increase priority value by a percentage of the remaining range. ">
<polygon fill="none" stroke="black" points="706,-120.5 706,-150.5 843,-150.5 843,-120.5 706,-120.5"/>
<text text-anchor="start" x="714" y="-138.5" font-family="Helvetica,sans-Serif" font-size="10.00">nars.entity.BudgetValue.inc</text>
<text text-anchor="middle" x="774.5" y="-127.5" font-family="Helvetica,sans-Serif" font-size="10.00">Priority</text>
</a>
</g>
</g>
<!-- Node12&#45;&gt;Node13 -->
<g id="edge12" class="edge"><title>Node12&#45;&gt;Node13</title>
<path fill="none" stroke="midnightblue" d="M642.556,-142.868C659.57,-141.91 678.107,-140.867 695.737,-139.875"/>
<polygon fill="midnightblue" stroke="midnightblue" points="696.207,-143.355 705.994,-139.298 695.814,-136.366 696.207,-143.355"/>
</g>
<!-- Node14 -->
<g id="node14" class="node"><title>Node14</title>
<g id="a_node14"><a xlink:href="../../d4/de4/classnars_1_1inference_1_1UtilityFunctions_a24093a77b49f21322e62c9bed7ff5ee2.html#a24093a77b49f21322e62c9bed7ff5ee2" target="_top" xlink:title="A function where the output is disjunctively determined by the inputs. ">
<polygon fill="none" stroke="black" points="879,-126 879,-145 1040,-145 1040,-126 879,-126"/>
<text text-anchor="middle" x="959.5" y="-133" font-family="Helvetica,sans-Serif" font-size="10.00">nars.inference.UtilityFunctions.or</text>
</a>
</g>
</g>
<!-- Node13&#45;&gt;Node14 -->
<g id="edge13" class="edge"><title>Node13&#45;&gt;Node14</title>
<path fill="none" stroke="midnightblue" d="M843.123,-135.5C851.465,-135.5 860.092,-135.5 868.7,-135.5"/>
<polygon fill="midnightblue" stroke="midnightblue" points="868.776,-139 878.776,-135.5 868.776,-132 868.776,-139"/>
</g>
<!-- Node16 -->
<g id="node16" class="node"><title>Node16</title>
<g id="a_node16"><a xlink:href="../../d4/de4/classnars_1_1inference_1_1UtilityFunctions_a7649e37bb61cac9b8a2601fdff3a5f7a.html#a7649e37bb61cac9b8a2601fdff3a5f7a" target="_top" xlink:title="A function where the output is the geometric average the inputs. ">
<polygon fill="none" stroke="black" points="484,-99 484,-118 670,-118 670,-99 484,-99"/>
<text text-anchor="middle" x="577" y="-106" font-family="Helvetica,sans-Serif" font-size="10.00">nars.inference.UtilityFunctions.aveGeo</text>
</a>
</g>
</g>
<!-- Node15&#45;&gt;Node16 -->
<g id="edge15" class="edge"><title>Node15&#45;&gt;Node16</title>
<path fill="none" stroke="midnightblue" d="M443.281,-95.2582C453.279,-96.2557 463.535,-97.279 473.7,-98.2932"/>
<polygon fill="midnightblue" stroke="midnightblue" points="473.524,-101.793 483.822,-99.3031 474.219,-94.8275 473.524,-101.793"/>
</g>
<!-- Node17 -->
<g id="node17" class="node"><title>Node17</title>
<g id="a_node17"><a xlink:href="../../d3/db8/classnars_1_1entity_1_1TruthValue_a68ca7d92e9ea20d2a9a9f578ad7b681c.html#a68ca7d92e9ea20d2a9a9f578ad7b681c" target="_top" xlink:title="Get the confidence value. ">
<polygon fill="none" stroke="black" points="512.5,-49.5 512.5,-79.5 641.5,-79.5 641.5,-49.5 512.5,-49.5"/>
<text text-anchor="start" x="520.5" y="-67.5" font-family="Helvetica,sans-Serif" font-size="10.00">nars.entity.TruthValue.get</text>
<text text-anchor="middle" x="577" y="-56.5" font-family="Helvetica,sans-Serif" font-size="10.00">Confidence</text>
</a>
</g>
</g>
<!-- Node15&#45;&gt;Node17 -->
<g id="edge16" class="edge"><title>Node15&#45;&gt;Node17</title>
<path fill="none" stroke="midnightblue" d="M443.281,-77.7418C462.827,-75.7916 483.357,-73.7433 502.27,-71.8562"/>
<polygon fill="midnightblue" stroke="midnightblue" points="502.693,-75.3315 512.296,-70.8559 501.998,-68.3661 502.693,-75.3315"/>
</g>
<!-- Node18 -->
<g id="node18" class="node"><title>Node18</title>
<g id="a_node18"><a xlink:href="../../d3/db8/classnars_1_1entity_1_1TruthValue_a9eac33f2495441c77911a8581a5bbe61.html#a9eac33f2495441c77911a8581a5bbe61" target="_top" xlink:title="Get the frequency value. ">
<polygon fill="none" stroke="black" points="512.5,-0.5 512.5,-30.5 641.5,-30.5 641.5,-0.5 512.5,-0.5"/>
<text text-anchor="start" x="520.5" y="-18.5" font-family="Helvetica,sans-Serif" font-size="10.00">nars.entity.TruthValue.get</text>
<text text-anchor="middle" x="577" y="-7.5" font-family="Helvetica,sans-Serif" font-size="10.00">Frequency</text>
</a>
</g>
</g>
<!-- Node15&#45;&gt;Node18 -->
<g id="edge17" class="edge"><title>Node15&#45;&gt;Node18</title>
<path fill="none" stroke="midnightblue" d="M420.495,-71.4589C429.872,-68.5649 439.29,-65.2471 448,-61.5 465.225,-54.0901 466.743,-46.8342 484,-39.5 489.882,-37.0002 496.089,-34.7075 502.389,-32.6165"/>
<polygon fill="midnightblue" stroke="midnightblue" points="503.838,-35.8301 512.331,-29.496 501.742,-29.1514 503.838,-35.8301"/>
</g>
</g>
</svg>
        <g id="navigator" transform="translate(0 0)" fill="#404254">
                <rect fill="#f2f5e9" fill-opacity="0.5" stroke="#606060" stroke-width=".5" x="0" y="0" width="60" height="60"/>
                <use id="zoomplus" xlink:href="#zoomPlus" x="17" y="9" onmousedown="handleZoom(evt,'in')"/>
                <use id="zoomminus" xlink:href="#zoomMin" x="42" y="9" onmousedown="handleZoom(evt,'out')"/>
                <use id="reset" xlink:href="#resetDef" x="30" y="36" onmousedown="handleReset()"/>
                <g id="arrowUp" xlink:href="#dirArrow" transform="translate(30 24)" onmousedown="handlePan(0,-1)">
                  <use xlink:href="#rim" fill="#404040">
                        <set attributeName="fill" to="#808080" begin="arrowUp.mouseover" end="arrowUp.mouseout"/>
                  </use>
                  <path fill="none" stroke="white" stroke-width="1.5" d="M0,-3.0v7 M-2.5,-0.5L0,-3.0L2.5,-0.5"/>
                </g>
                <g id="arrowRight" xlink:href="#dirArrow" transform="rotate(90) translate(36 -43)" onmousedown="handlePan(1,0)">
                  <use xlink:href="#rim" fill="#404040">
                        <set attributeName="fill" to="#808080" begin="arrowRight.mouseover" end="arrowRight.mouseout"/>
                  </use>
                  <path fill="none" stroke="white" stroke-width="1.5" d="M0,-3.0v7 M-2.5,-0.5L0,-3.0L2.5,-0.5"/>
                </g>
                <g id="arrowDown" xlink:href="#dirArrow" transform="rotate(180) translate(-30 -48)" onmousedown="handlePan(0,1)">
                  <use xlink:href="#rim" fill="#404040">
                        <set attributeName="fill" to="#808080" begin="arrowDown.mouseover" end="arrowDown.mouseout"/>
                  </use>
                  <path fill="none" stroke="white" stroke-width="1.5" d="M0,-3.0v7 M-2.5,-0.5L0,-3.0L2.5,-0.5"/>
                </g>
                <g id="arrowLeft" xlink:href="#dirArrow" transform="rotate(270) translate(-36 17)" onmousedown="handlePan(-1,0)">
                  <use xlink:href="#rim" fill="#404040">
                        <set attributeName="fill" to="#808080" begin="arrowLeft.mouseover" end="arrowLeft.mouseout"/>
                  </use>
                  <path fill="none" stroke="white" stroke-width="1.5" d="M0,-3.0v7 M-2.5,-0.5L0,-3.0L2.5,-0.5"/>
                </g>
        </g>
        <svg viewBox="0 0 15 15" width="100%" height="30px" preserveAspectRatio="xMaxYMin meet">
         <g id="arrow_out" transform="scale(0.3 0.3)">
          <a xlink:href="classnars_1_1inference_1_1BudgetFunctions_a90343f7d4de3a6ffcd57493b7a09376f_a90343f7d4de3a6ffcd57493b7a09376f_cgraph_org.svg" target="_base">
           <rect id="button" ry="5" rx="5" y="6" x="6" height="38" width="38"
                fill="#f2f5e9" fill-opacity="0.5" stroke="#606060" stroke-width="1.0"/>
           <path id="arrow"
             d="M 11.500037,31.436501 C 11.940474,20.09759 22.043105,11.32322 32.158766,21.979434 L 37.068811,17.246167 C 37.068811,17.246167 37.088388,32 37.088388,32 L 22.160133,31.978069 C 22.160133,31.978069 26.997745,27.140456 26.997745,27.140456 C 18.528582,18.264221 13.291696,25.230495 11.500037,31.436501 z"
             style="fill:#404040;"/>
          </a>
         </g>
        </svg>
</svg>
