<?xml version="1.0" encoding="UTF-8" standalone="no"?>
<!DOCTYPE svg PUBLIC "-//W3C//DTD SVG 1.1//EN"
 "http://www.w3.org/Graphics/SVG/1.1/DTD/svg11.dtd">
<!-- Generated by graphviz version 2.38.0 (20140413.2041)
 -->
<!-- Title: nars.inference.BudgetFunctions.activate Pages: 1 -->
<svg width="621pt" height="361pt"
 viewBox="0.00 0.00 621.00 361.00" xmlns="http://www.w3.org/2000/svg" xmlns:xlink="http://www.w3.org/1999/xlink">
<g id="graph0" class="graph" transform="scale(1 1) rotate(0) translate(4 357)">
<title>nars.inference.BudgetFunctions.activate</title>
<!-- Node1 -->
<g id="node1" class="node"><title>Node1</title>
<polygon fill="#bfbfbf" stroke="black" points="0,-167 0,-186 192,-186 192,-167 0,-167"/>
<text text-anchor="middle" x="96" y="-174" font-family="Helvetica,sans-Serif" font-size="10.00">nars.inference.BudgetFunctions.activate</text>
</g>
<!-- Node2 -->
<g id="node2" class="node"><title>Node2</title>
<g id="a_node2"><a xlink:href="../../d4/de4/classnars_1_1inference_1_1UtilityFunctions_a8abd4e228bb1ac62df2efdf4487ff34d.html#a8abd4e228bb1ac62df2efdf4487ff34d" target="_top" xlink:title="A function where the output is the arithmetic average the inputs. ">
<polygon fill="none" stroke="black" points="228,-300 228,-319 408,-319 408,-300 228,-300"/>
<text text-anchor="middle" x="318" y="-307" font-family="Helvetica,sans-Serif" font-size="10.00">nars.inference.UtilityFunctions.aveAri</text>
</a>
</g>
</g>
<!-- Node1&#45;&gt;Node2 -->
<g id="edge1" class="edge"><title>Node1&#45;&gt;Node2</title>
<path fill="none" stroke="midnightblue" d="M105.035,-186.275C123.948,-208.587 173.787,-263.422 228,-290.5 232.859,-292.927 238.017,-295.044 243.308,-296.892"/>
<polygon fill="midnightblue" stroke="midnightblue" points="242.346,-300.259 252.936,-299.935 244.456,-293.584 242.346,-300.259"/>
</g>
<!-- Node3 -->
<g id="node3" class="node"><title>Node3</title>
<g id="a_node3"><a xlink:href="../../d1/dd1/classnars_1_1entity_1_1Item_adbb21c1891722e30c1d6cfaf5fee18ee.html#adbb21c1891722e30c1d6cfaf5fee18ee" target="_top" xlink:title="Get durability value. ">
<polygon fill="none" stroke="black" points="246.5,-262 246.5,-281 389.5,-281 389.5,-262 246.5,-262"/>
<text text-anchor="middle" x="318" y="-269" font-family="Helvetica,sans-Serif" font-size="10.00">nars.entity.Item.getDurability</text>
</a>
</g>
</g>
<!-- Node1&#45;&gt;Node3 -->
<g id="edge2" class="edge"><title>Node1&#45;&gt;Node3</title>
<path fill="none" stroke="midnightblue" d="M110.422,-186.232C133.37,-202.412 182.124,-234.811 228,-252.5 234.79,-255.118 242.019,-257.409 249.307,-259.406"/>
<polygon fill="midnightblue" stroke="midnightblue" points="248.693,-262.862 259.248,-261.95 250.428,-256.08 248.693,-262.862"/>
</g>
<!-- Node5 -->
<g id="node5" class="node"><title>Node5</title>
<g id="a_node5"><a xlink:href="../../d1/dd1/classnars_1_1entity_1_1Item_a97b35888ceaad90e7a428701051c51d7.html#a97b35888ceaad90e7a428701051c51d7" target="_top" xlink:title="Get priority value. ">
<polygon fill="none" stroke="black" points="252,-224 252,-243 384,-243 384,-224 252,-224"/>
<text text-anchor="middle" x="318" y="-231" font-family="Helvetica,sans-Serif" font-size="10.00">nars.entity.Item.getPriority</text>
</a>
</g>
</g>
<!-- Node1&#45;&gt;Node5 -->
<g id="edge4" class="edge"><title>Node1&#45;&gt;Node5</title>
<path fill="none" stroke="midnightblue" d="M127.534,-186.034C153.976,-194.127 193.322,-205.781 228,-214.5 238.102,-217.04 248.904,-219.532 259.375,-221.832"/>
<polygon fill="midnightblue" stroke="midnightblue" points="258.765,-225.281 269.279,-223.974 260.245,-218.439 258.765,-225.281"/>
</g>
<!-- Node7 -->
<g id="node7" class="node"><title>Node7</title>
<g id="a_node7"><a xlink:href="../../d4/d22/classnars_1_1entity_1_1Concept_acf3c7af84e64586a6b1d549f02bfeead.html#acf3c7af84e64586a6b1d549f02bfeead" target="_top" xlink:title="Recalculate the quality of the concept [to be refined to show extension/intension balance]...">
<polygon fill="none" stroke="black" points="243.5,-186 243.5,-205 392.5,-205 392.5,-186 243.5,-186"/>
<text text-anchor="middle" x="318" y="-193" font-family="Helvetica,sans-Serif" font-size="10.00">nars.entity.Concept.getQuality</text>
</a>
</g>
</g>
<!-- Node1&#45;&gt;Node7 -->
<g id="edge6" class="edge"><title>Node1&#45;&gt;Node7</title>
<path fill="none" stroke="midnightblue" d="M192.216,-184.723C205.819,-185.898 219.73,-187.099 233.095,-188.254"/>
<polygon fill="midnightblue" stroke="midnightblue" points="232.93,-191.752 243.195,-189.126 233.533,-184.778 232.93,-191.752"/>
</g>
<!-- Node10 -->
<g id="node10" class="node"><title>Node10</title>
<g id="a_node10"><a xlink:href="../../d4/de4/classnars_1_1inference_1_1UtilityFunctions_a24093a77b49f21322e62c9bed7ff5ee2.html#a24093a77b49f21322e62c9bed7ff5ee2" target="_top" xlink:title="A function where the output is disjunctively determined by the inputs. ">
<polygon fill="none" stroke="black" points="448,-148 448,-167 609,-167 609,-148 448,-148"/>
<text text-anchor="middle" x="528.5" y="-155" font-family="Helvetica,sans-Serif" font-size="10.00">nars.inference.UtilityFunctions.or</text>
</a>
</g>
</g>
<!-- Node1&#45;&gt;Node10 -->
<g id="edge10" class="edge"><title>Node1&#45;&gt;Node10</title>
<path fill="none" stroke="midnightblue" d="M192.008,-172.307C265.17,-169.078 365.619,-164.645 437.496,-161.472"/>
<polygon fill="midnightblue" stroke="midnightblue" points="438.051,-164.951 447.887,-161.014 437.742,-157.958 438.051,-164.951"/>
</g>
<!-- Node11 -->
<g id="node11" class="node"><title>Node11</title>
<g id="a_node11"><a xlink:href="../../d1/dd1/classnars_1_1entity_1_1Item_a0f27e5a39dc50b5f108732f59199db22.html#a0f27e5a39dc50b5f108732f59199db22" target="_top" xlink:title="Set durability value. ">
<polygon fill="none" stroke="black" points="246.5,-107 246.5,-126 389.5,-126 389.5,-107 246.5,-107"/>
<text text-anchor="middle" x="318" y="-114" font-family="Helvetica,sans-Serif" font-size="10.00">nars.entity.Item.setDurability</text>
</a>
</g>
</g>
<!-- Node1&#45;&gt;Node11 -->
<g id="edge11" class="edge"><title>Node1&#45;&gt;Node11</title>
<path fill="none" stroke="midnightblue" d="M131.86,-166.993C169.804,-156.644 230.599,-140.064 272.093,-128.747"/>
<polygon fill="midnightblue" stroke="midnightblue" points="273.213,-132.07 281.94,-126.062 271.371,-125.316 273.213,-132.07"/>
</g>
<!-- Node13 -->
<g id="node13" class="node"><title>Node13</title>
<g id="a_node13"><a xlink:href="../../d1/dd1/classnars_1_1entity_1_1Item_aeda0763b2c90f6fef3f23b9b4d3d68f0.html#aeda0763b2c90f6fef3f23b9b4d3d68f0" target="_top" xlink:title="Set priority value. ">
<polygon fill="none" stroke="black" points="252,-62 252,-81 384,-81 384,-62 252,-62"/>
<text text-anchor="middle" x="318" y="-69" font-family="Helvetica,sans-Serif" font-size="10.00">nars.entity.Item.setPriority</text>
</a>
</g>
</g>
<!-- Node1&#45;&gt;Node13 -->
<g id="edge13" class="edge"><title>Node1&#45;&gt;Node13</title>
<path fill="none" stroke="midnightblue" d="M110.14,-166.985C133.06,-150.762 182.277,-117.56 228,-97.5 239.98,-92.2438 253.324,-87.7045 265.958,-83.9566"/>
<polygon fill="midnightblue" stroke="midnightblue" points="267.242,-87.2302 275.899,-81.122 265.322,-80.4985 267.242,-87.2302"/>
</g>
<!-- Node15 -->
<g id="node15" class="node"><title>Node15</title>
<g id="a_node15"><a xlink:href="../../d1/dd1/classnars_1_1entity_1_1Item_a686c257308a15eba9458a438cc60227a.html#a686c257308a15eba9458a438cc60227a" target="_top" xlink:title="Set quality value. ">
<polygon fill="none" stroke="black" points="252,-19 252,-38 384,-38 384,-19 252,-19"/>
<text text-anchor="middle" x="318" y="-26" font-family="Helvetica,sans-Serif" font-size="10.00">nars.entity.Item.setQuality</text>
</a>
</g>
</g>
<!-- Node1&#45;&gt;Node15 -->
<g id="edge15" class="edge"><title>Node1&#45;&gt;Node15</title>
<path fill="none" stroke="midnightblue" d="M104.388,-166.751C122.663,-143.337 172.539,-83.5716 228,-52.5 236.29,-47.8557 245.522,-44.0748 254.813,-41.0065"/>
<polygon fill="midnightblue" stroke="midnightblue" points="255.934,-44.3237 264.48,-38.0606 253.894,-37.6277 255.934,-44.3237"/>
</g>
<!-- Node4 -->
<g id="node4" class="node"><title>Node4</title>
<g id="a_node4"><a xlink:href="../../db/d8e/classnars_1_1entity_1_1BudgetValue_ab0e0dc2172d3fab6390670acb68da1a6.html#ab0e0dc2172d3fab6390670acb68da1a6" target="_top" xlink:title="Get durability value. ">
<polygon fill="none" stroke="black" points="460,-322.5 460,-352.5 597,-352.5 597,-322.5 460,-322.5"/>
<text text-anchor="start" x="468" y="-340.5" font-family="Helvetica,sans-Serif" font-size="10.00">nars.entity.BudgetValue.get</text>
<text text-anchor="middle" x="528.5" y="-329.5" font-family="Helvetica,sans-Serif" font-size="10.00">Durability</text>
</a>
</g>
</g>
<!-- Node3&#45;&gt;Node4 -->
<g id="edge3" class="edge"><title>Node3&#45;&gt;Node4</title>
<path fill="none" stroke="midnightblue" d="M378.308,-281.053C388.406,-283.554 398.645,-286.661 408,-290.5 425.565,-297.708 426.696,-305.685 444,-313.5 448.326,-315.454 452.85,-317.29 457.458,-319.007"/>
<polygon fill="midnightblue" stroke="midnightblue" points="456.404,-322.347 466.999,-322.367 458.729,-315.744 456.404,-322.347"/>
</g>
<!-- Node6 -->
<g id="node6" class="node"><title>Node6</title>
<g id="a_node6"><a xlink:href="../../db/d8e/classnars_1_1entity_1_1BudgetValue_a1e7b6826531f03f792f3516ce0e97ac3.html#a1e7b6826531f03f792f3516ce0e97ac3" target="_top" xlink:title="Get priority value. ">
<polygon fill="none" stroke="black" points="460,-273.5 460,-303.5 597,-303.5 597,-273.5 460,-273.5"/>
<text text-anchor="start" x="468" y="-291.5" font-family="Helvetica,sans-Serif" font-size="10.00">nars.entity.BudgetValue.get</text>
<text text-anchor="middle" x="528.5" y="-280.5" font-family="Helvetica,sans-Serif" font-size="10.00">Priority</text>
</a>
</g>
</g>
<!-- Node5&#45;&gt;Node6 -->
<g id="edge5" class="edge"><title>Node5&#45;&gt;Node6</title>
<path fill="none" stroke="midnightblue" d="M368.666,-243.08C381.544,-245.843 395.348,-249.052 408,-252.5 424.272,-256.934 427.892,-259.503 444,-264.5 450.485,-266.512 457.271,-268.558 464.052,-270.565"/>
<polygon fill="midnightblue" stroke="midnightblue" points="463.367,-274.011 473.948,-273.468 465.337,-267.294 463.367,-274.011"/>
</g>
<!-- Node8 -->
<g id="node8" class="node"><title>Node8</title>
<g id="a_node8"><a xlink:href="../../d9/d37/classnars_1_1storage_1_1Bag_a5ff587f448a7a832732b4d86eb9a7642.html#a5ff587f448a7a832732b4d86eb9a7642" target="_top" xlink:title="Get the average priority of Items. ">
<polygon fill="none" stroke="black" points="464.5,-224.5 464.5,-254.5 592.5,-254.5 592.5,-224.5 464.5,-224.5"/>
<text text-anchor="start" x="472.5" y="-242.5" font-family="Helvetica,sans-Serif" font-size="10.00">nars.storage.Bag.average</text>
<text text-anchor="middle" x="528.5" y="-231.5" font-family="Helvetica,sans-Serif" font-size="10.00">Priority</text>
</a>
</g>
</g>
<!-- Node7&#45;&gt;Node8 -->
<g id="edge7" class="edge"><title>Node7&#45;&gt;Node8</title>
<path fill="none" stroke="midnightblue" d="M364.241,-205.047C390.497,-210.588 424.198,-217.7 454.156,-224.022"/>
<polygon fill="midnightblue" stroke="midnightblue" points="453.649,-227.492 464.156,-226.132 455.094,-220.643 453.649,-227.492"/>
</g>
<!-- Node9 -->
<g id="node9" class="node"><title>Node9</title>
<g id="a_node9"><a xlink:href="../../d8/db8/classnars_1_1language_1_1Term_ae14632d1d25bcde8d6698ea0b58eb19a.html#ae14632d1d25bcde8d6698ea0b58eb19a" target="_top" xlink:title="The syntactic complexity, for constant automic Term, is 1. ">
<polygon fill="none" stroke="black" points="444,-186 444,-205 613,-205 613,-186 444,-186"/>
<text text-anchor="middle" x="528.5" y="-193" font-family="Helvetica,sans-Serif" font-size="10.00">nars.language.Term.getComplexity</text>
</a>
</g>
</g>
<!-- Node7&#45;&gt;Node9 -->
<g id="edge8" class="edge"><title>Node7&#45;&gt;Node9</title>
<path fill="none" stroke="midnightblue" d="M392.509,-195.5C405.906,-195.5 420.047,-195.5 433.932,-195.5"/>
<polygon fill="midnightblue" stroke="midnightblue" points="433.983,-199 443.983,-195.5 433.983,-192 433.983,-199"/>
</g>
<!-- Node7&#45;&gt;Node10 -->
<g id="edge9" class="edge"><title>Node7&#45;&gt;Node10</title>
<path fill="none" stroke="midnightblue" d="M371.344,-185.96C399.847,-180.765 435.301,-174.304 465.218,-168.851"/>
<polygon fill="midnightblue" stroke="midnightblue" points="465.924,-172.28 475.134,-167.044 464.669,-165.394 465.924,-172.28"/>
</g>
<!-- Node12 -->
<g id="node12" class="node"><title>Node12</title>
<g id="a_node12"><a xlink:href="../../db/d8e/classnars_1_1entity_1_1BudgetValue_ab72bce41fd8a1512fc8baa07ed93fc1b.html#ab72bce41fd8a1512fc8baa07ed93fc1b" target="_top" xlink:title="Change durability value. ">
<polygon fill="none" stroke="black" points="460,-98.5 460,-128.5 597,-128.5 597,-98.5 460,-98.5"/>
<text text-anchor="start" x="468" y="-116.5" font-family="Helvetica,sans-Serif" font-size="10.00">nars.entity.BudgetValue.set</text>
<text text-anchor="middle" x="528.5" y="-105.5" font-family="Helvetica,sans-Serif" font-size="10.00">Durability</text>
</a>
</g>
</g>
<!-- Node11&#45;&gt;Node12 -->
<g id="edge12" class="edge"><title>Node11&#45;&gt;Node12</title>
<path fill="none" stroke="midnightblue" d="M389.589,-115.484C408.904,-115.206 429.947,-114.904 449.645,-114.62"/>
<polygon fill="midnightblue" stroke="midnightblue" points="449.857,-118.118 459.806,-114.474 449.757,-111.118 449.857,-118.118"/>
</g>
<!-- Node14 -->
<g id="node14" class="node"><title>Node14</title>
<g id="a_node14"><a xlink:href="../../db/d8e/classnars_1_1entity_1_1BudgetValue_ac2cb3449a15125e5f0e4165aeee0befb.html#ac2cb3449a15125e5f0e4165aeee0befb" target="_top" xlink:title="Change priority value. ">
<polygon fill="none" stroke="black" points="460,-49.5 460,-79.5 597,-79.5 597,-49.5 460,-49.5"/>
<text text-anchor="start" x="468" y="-67.5" font-family="Helvetica,sans-Serif" font-size="10.00">nars.entity.BudgetValue.set</text>
<text text-anchor="middle" x="528.5" y="-56.5" font-family="Helvetica,sans-Serif" font-size="10.00">Priority</text>
</a>
</g>
</g>
<!-- Node13&#45;&gt;Node14 -->
<g id="edge14" class="edge"><title>Node13&#45;&gt;Node14</title>
<path fill="none" stroke="midnightblue" d="M384.113,-69.3139C404.846,-68.6179 427.995,-67.8407 449.541,-67.1173"/>
<polygon fill="midnightblue" stroke="midnightblue" points="449.764,-70.6119 459.641,-66.7782 449.529,-63.6158 449.764,-70.6119"/>
</g>
<!-- Node16 -->
<g id="node16" class="node"><title>Node16</title>
<g id="a_node16"><a xlink:href="../../db/d8e/classnars_1_1entity_1_1BudgetValue_ab134287bfbdfe703501697c5f9eac50b.html#ab134287bfbdfe703501697c5f9eac50b" target="_top" xlink:title="Change quality value. ">
<polygon fill="none" stroke="black" points="460,-0.5 460,-30.5 597,-30.5 597,-0.5 460,-0.5"/>
<text text-anchor="start" x="468" y="-18.5" font-family="Helvetica,sans-Serif" font-size="10.00">nars.entity.BudgetValue.set</text>
<text text-anchor="middle" x="528.5" y="-7.5" font-family="Helvetica,sans-Serif" font-size="10.00">Quality</text>
</a>
</g>
</g>
<!-- Node15&#45;&gt;Node16 -->
<g id="edge16" class="edge"><title>Node15&#45;&gt;Node16</title>
<path fill="none" stroke="midnightblue" d="M384.113,-24.4402C404.846,-23.1475 427.995,-21.7042 449.541,-20.3608"/>
<polygon fill="midnightblue" stroke="midnightblue" points="449.878,-23.8466 459.641,-19.731 449.443,-16.8602 449.878,-23.8466"/>
</g>
</g>
</svg>
