<?xml version="1.0" encoding="UTF-8" standalone="no"?>
<!DOCTYPE svg PUBLIC "-//W3C//DTD SVG 1.1//EN"
 "http://www.w3.org/Graphics/SVG/1.1/DTD/svg11.dtd">
<!-- Generated by graphviz version 2.38.0 (20140413.2041)
 -->
<!-- Title: nars.inference.BudgetFunctions.budgetInference Pages: 1 -->
<svg width="781pt" height="335pt"
 viewBox="0.00 0.00 781.00 334.50" xmlns="http://www.w3.org/2000/svg" xmlns:xlink="http://www.w3.org/1999/xlink">
<g id="graph0" class="graph" transform="scale(1 1) rotate(0) translate(4 330.5)">
<title>nars.inference.BudgetFunctions.budgetInference</title>
<!-- Node1 -->
<g id="node1" class="node"><title>Node1</title>
<polygon fill="#bfbfbf" stroke="black" points="0,-153.5 0,-183.5 187,-183.5 187,-153.5 0,-153.5"/>
<text text-anchor="start" x="8" y="-171.5" font-family="Helvetica,sans-Serif" font-size="10.00">nars.inference.BudgetFunctions.budget</text>
<text text-anchor="middle" x="93.5" y="-160.5" font-family="Helvetica,sans-Serif" font-size="10.00">Inference</text>
</g>
<!-- Node2 -->
<g id="node2" class="node"><title>Node2</title>
<g id="a_node2"><a xlink:href="../../d4/de4/classnars_1_1inference_1_1UtilityFunctions_a35ac262407303cdf8d11f7892f9a3a03.html#a35ac262407303cdf8d11f7892f9a3a03" target="_top" xlink:title="A function where the output is conjunctively determined by the inputs. ">
<polygon fill="none" stroke="black" points="229,-307 229,-326 397,-326 397,-307 229,-307"/>
<text text-anchor="middle" x="313" y="-314" font-family="Helvetica,sans-Serif" font-size="10.00">nars.inference.UtilityFunctions.and</text>
</a>
</g>
</g>
<!-- Node1&#45;&gt;Node2 -->
<g id="edge1" class="edge"><title>Node1&#45;&gt;Node2</title>
<path fill="none" stroke="midnightblue" d="M104.891,-183.64C124.546,-211.023 169.98,-268.615 223,-297.5 227.201,-299.789 231.654,-301.802 236.24,-303.573"/>
<polygon fill="midnightblue" stroke="midnightblue" points="235.207,-306.919 245.802,-306.878 237.493,-300.303 235.207,-306.919"/>
</g>
<!-- Node3 -->
<g id="node3" class="node"><title>Node3</title>
<g id="a_node3"><a xlink:href="../../d4/de4/classnars_1_1inference_1_1UtilityFunctions_a8abd4e228bb1ac62df2efdf4487ff34d.html#a8abd4e228bb1ac62df2efdf4487ff34d" target="_top" xlink:title="A function where the output is the arithmetic average the inputs. ">
<polygon fill="none" stroke="black" points="223,-269 223,-288 403,-288 403,-269 223,-269"/>
<text text-anchor="middle" x="313" y="-276" font-family="Helvetica,sans-Serif" font-size="10.00">nars.inference.UtilityFunctions.aveAri</text>
</a>
</g>
</g>
<!-- Node1&#45;&gt;Node3 -->
<g id="edge2" class="edge"><title>Node1&#45;&gt;Node3</title>
<path fill="none" stroke="midnightblue" d="M110.999,-183.598C134.222,-204.005 178.687,-240.069 223,-259.5 228.792,-262.04 234.949,-264.25 241.215,-266.172"/>
<polygon fill="midnightblue" stroke="midnightblue" points="240.541,-269.618 251.115,-268.959 242.438,-262.88 240.541,-269.618"/>
</g>
<!-- Node4 -->
<g id="node4" class="node"><title>Node4</title>
<g id="a_node4"><a xlink:href="../../d8/df4/classnars_1_1storage_1_1Memory_afb74806ef37665d392a86dce2e3c6546.html#afb74806ef37665d392a86dce2e3c6546" target="_top" xlink:title="The selected TermLink. ">
<polygon fill="none" stroke="black" points="234,-219.5 234,-249.5 392,-249.5 392,-219.5 234,-219.5"/>
<text text-anchor="start" x="242" y="-237.5" font-family="Helvetica,sans-Serif" font-size="10.00">nars.storage.Memory.getCurrent</text>
<text text-anchor="middle" x="313" y="-226.5" font-family="Helvetica,sans-Serif" font-size="10.00">BeliefLink</text>
</a>
</g>
</g>
<!-- Node1&#45;&gt;Node4 -->
<g id="edge3" class="edge"><title>Node1&#45;&gt;Node4</title>
<path fill="none" stroke="midnightblue" d="M140.173,-183.501C164.669,-191.438 195.411,-201.226 223,-209.5 230.956,-211.886 239.332,-214.329 247.633,-216.708"/>
<polygon fill="midnightblue" stroke="midnightblue" points="246.738,-220.092 257.314,-219.464 248.655,-213.36 246.738,-220.092"/>
</g>
<!-- Node5 -->
<g id="node5" class="node"><title>Node5</title>
<g id="a_node5"><a xlink:href="../../d8/df4/classnars_1_1storage_1_1Memory_a26eda4f00b333b706b4e3d069fdf1508.html#a26eda4f00b333b706b4e3d069fdf1508" target="_top" xlink:title="The selected Task. ">
<polygon fill="none" stroke="black" points="223.5,-181 223.5,-200 402.5,-200 402.5,-181 223.5,-181"/>
<text text-anchor="middle" x="313" y="-188" font-family="Helvetica,sans-Serif" font-size="10.00">nars.storage.Memory.getCurrentTask</text>
</a>
</g>
</g>
<!-- Node1&#45;&gt;Node5 -->
<g id="edge4" class="edge"><title>Node1&#45;&gt;Node5</title>
<path fill="none" stroke="midnightblue" d="M187.055,-177.862C195.698,-178.736 204.48,-179.624 213.177,-180.504"/>
<polygon fill="midnightblue" stroke="midnightblue" points="213.032,-184.007 223.333,-181.531 213.736,-177.043 213.032,-184.007"/>
</g>
<!-- Node6 -->
<g id="node6" class="node"><title>Node6</title>
<g id="a_node6"><a xlink:href="../../d8/df4/classnars_1_1storage_1_1Memory_ab9958cfc601557bc69b0cd9c89f58cf0.html#ab9958cfc601557bc69b0cd9c89f58cf0" target="_top" xlink:title="The selected TaskLink. ">
<polygon fill="none" stroke="black" points="234,-131.5 234,-161.5 392,-161.5 392,-131.5 234,-131.5"/>
<text text-anchor="start" x="242" y="-149.5" font-family="Helvetica,sans-Serif" font-size="10.00">nars.storage.Memory.getCurrent</text>
<text text-anchor="middle" x="313" y="-138.5" font-family="Helvetica,sans-Serif" font-size="10.00">TaskLink</text>
</a>
</g>
</g>
<!-- Node1&#45;&gt;Node6 -->
<g id="edge5" class="edge"><title>Node1&#45;&gt;Node6</title>
<path fill="none" stroke="midnightblue" d="M187.055,-159.138C199.249,-157.905 211.722,-156.643 223.84,-155.417"/>
<polygon fill="midnightblue" stroke="midnightblue" points="224.325,-158.886 233.922,-154.398 223.621,-151.922 224.325,-158.886"/>
</g>
<!-- Node7 -->
<g id="node7" class="node"><title>Node7</title>
<g id="a_node7"><a xlink:href="../../d1/dd1/classnars_1_1entity_1_1Item_adbb21c1891722e30c1d6cfaf5fee18ee.html#adbb21c1891722e30c1d6cfaf5fee18ee" target="_top" xlink:title="Get durability value. ">
<polygon fill="none" stroke="black" points="241.5,-93 241.5,-112 384.5,-112 384.5,-93 241.5,-93"/>
<text text-anchor="middle" x="313" y="-100" font-family="Helvetica,sans-Serif" font-size="10.00">nars.entity.Item.getDurability</text>
</a>
</g>
</g>
<!-- Node1&#45;&gt;Node7 -->
<g id="edge6" class="edge"><title>Node1&#45;&gt;Node7</title>
<path fill="none" stroke="midnightblue" d="M132.614,-153.466C157.971,-143.81 192.165,-131.447 223,-122.5 233.143,-119.557 244.041,-116.79 254.612,-114.307"/>
<polygon fill="midnightblue" stroke="midnightblue" points="255.646,-117.661 264.612,-112.017 254.083,-110.838 255.646,-117.661"/>
</g>
<!-- Node9 -->
<g id="node9" class="node"><title>Node9</title>
<g id="a_node9"><a xlink:href="../../d1/dd1/classnars_1_1entity_1_1Item_a97b35888ceaad90e7a428701051c51d7.html#a97b35888ceaad90e7a428701051c51d7" target="_top" xlink:title="Get priority value. ">
<polygon fill="none" stroke="black" points="247,-55 247,-74 379,-74 379,-55 247,-55"/>
<text text-anchor="middle" x="313" y="-62" font-family="Helvetica,sans-Serif" font-size="10.00">nars.entity.Item.getPriority</text>
</a>
</g>
</g>
<!-- Node1&#45;&gt;Node9 -->
<g id="edge8" class="edge"><title>Node1&#45;&gt;Node9</title>
<path fill="none" stroke="midnightblue" d="M112.397,-153.468C136.144,-134.306 180.085,-101.511 223,-83.5 229.167,-80.9119 235.727,-78.6603 242.383,-76.7046"/>
<polygon fill="midnightblue" stroke="midnightblue" points="243.435,-80.0457 252.167,-74.0462 241.599,-73.2906 243.435,-80.0457"/>
</g>
<!-- Node11 -->
<g id="node11" class="node"><title>Node11</title>
<g id="a_node11"><a xlink:href="../../d1/dd1/classnars_1_1entity_1_1Item_a9324e448bf1bc9f45c3b8e189450a1bf.html#a9324e448bf1bc9f45c3b8e189450a1bf" target="_top" xlink:title="Increase priority value. ">
<polygon fill="none" stroke="black" points="247.5,-12 247.5,-31 378.5,-31 378.5,-12 247.5,-12"/>
<text text-anchor="middle" x="313" y="-19" font-family="Helvetica,sans-Serif" font-size="10.00">nars.entity.Item.incPriority</text>
</a>
</g>
</g>
<!-- Node1&#45;&gt;Node11 -->
<g id="edge10" class="edge"><title>Node1&#45;&gt;Node11</title>
<path fill="none" stroke="midnightblue" d="M106.179,-153.111C126.833,-126.985 172.429,-74.018 223,-45.5 231.277,-40.8326 240.502,-37.0393 249.79,-33.9656"/>
<polygon fill="midnightblue" stroke="midnightblue" points="250.912,-37.2826 259.455,-31.0165 248.869,-30.5874 250.912,-37.2826"/>
</g>
<!-- Node8 -->
<g id="node8" class="node"><title>Node8</title>
<g id="a_node8"><a xlink:href="../../db/d8e/classnars_1_1entity_1_1BudgetValue_ab0e0dc2172d3fab6390670acb68da1a6.html#ab0e0dc2172d3fab6390670acb68da1a6" target="_top" xlink:title="Get durability value. ">
<polygon fill="none" stroke="black" points="439,-98.5 439,-128.5 576,-128.5 576,-98.5 439,-98.5"/>
<text text-anchor="start" x="447" y="-116.5" font-family="Helvetica,sans-Serif" font-size="10.00">nars.entity.BudgetValue.get</text>
<text text-anchor="middle" x="507.5" y="-105.5" font-family="Helvetica,sans-Serif" font-size="10.00">Durability</text>
</a>
</g>
</g>
<!-- Node7&#45;&gt;Node8 -->
<g id="edge7" class="edge"><title>Node7&#45;&gt;Node8</title>
<path fill="none" stroke="midnightblue" d="M384.587,-106.534C398.972,-107.356 414.183,-108.225 428.8,-109.06"/>
<polygon fill="midnightblue" stroke="midnightblue" points="428.624,-112.556 438.807,-109.632 429.023,-105.567 428.624,-112.556"/>
</g>
<!-- Node10 -->
<g id="node10" class="node"><title>Node10</title>
<g id="a_node10"><a xlink:href="../../db/d8e/classnars_1_1entity_1_1BudgetValue_a1e7b6826531f03f792f3516ce0e97ac3.html#a1e7b6826531f03f792f3516ce0e97ac3" target="_top" xlink:title="Get priority value. ">
<polygon fill="none" stroke="black" points="439,-49.5 439,-79.5 576,-79.5 576,-49.5 439,-49.5"/>
<text text-anchor="start" x="447" y="-67.5" font-family="Helvetica,sans-Serif" font-size="10.00">nars.entity.BudgetValue.get</text>
<text text-anchor="middle" x="507.5" y="-56.5" font-family="Helvetica,sans-Serif" font-size="10.00">Priority</text>
</a>
</g>
</g>
<!-- Node9&#45;&gt;Node10 -->
<g id="edge9" class="edge"><title>Node9&#45;&gt;Node10</title>
<path fill="none" stroke="midnightblue" d="M379.172,-64.5C395.069,-64.5 412.234,-64.5 428.656,-64.5"/>
<polygon fill="midnightblue" stroke="midnightblue" points="428.767,-68.0001 438.767,-64.5 428.767,-61.0001 428.767,-68.0001"/>
</g>
<!-- Node12 -->
<g id="node12" class="node"><title>Node12</title>
<g id="a_node12"><a xlink:href="../../db/d8e/classnars_1_1entity_1_1BudgetValue_a088e64163126211239b6afd25a9cdca3.html#a088e64163126211239b6afd25a9cdca3" target="_top" xlink:title="Increase priority value by a percentage of the remaining range. ">
<polygon fill="none" stroke="black" points="439,-0.5 439,-30.5 576,-30.5 576,-0.5 439,-0.5"/>
<text text-anchor="start" x="447" y="-18.5" font-family="Helvetica,sans-Serif" font-size="10.00">nars.entity.BudgetValue.inc</text>
<text text-anchor="middle" x="507.5" y="-7.5" font-family="Helvetica,sans-Serif" font-size="10.00">Priority</text>
</a>
</g>
</g>
<!-- Node11&#45;&gt;Node12 -->
<g id="edge11" class="edge"><title>Node11&#45;&gt;Node12</title>
<path fill="none" stroke="midnightblue" d="M378.635,-19.4854C394.645,-18.9864 411.968,-18.4464 428.54,-17.9299"/>
<polygon fill="midnightblue" stroke="midnightblue" points="428.857,-21.4218 438.743,-17.6119 428.639,-14.4252 428.857,-21.4218"/>
</g>
<!-- Node13 -->
<g id="node13" class="node"><title>Node13</title>
<g id="a_node13"><a xlink:href="../../d4/de4/classnars_1_1inference_1_1UtilityFunctions_a24093a77b49f21322e62c9bed7ff5ee2.html#a24093a77b49f21322e62c9bed7ff5ee2" target="_top" xlink:title="A function where the output is disjunctively determined by the inputs. ">
<polygon fill="none" stroke="black" points="612,-6 612,-25 773,-25 773,-6 612,-6"/>
<text text-anchor="middle" x="692.5" y="-13" font-family="Helvetica,sans-Serif" font-size="10.00">nars.inference.UtilityFunctions.or</text>
</a>
</g>
</g>
<!-- Node12&#45;&gt;Node13 -->
<g id="edge12" class="edge"><title>Node12&#45;&gt;Node13</title>
<path fill="none" stroke="midnightblue" d="M576.123,-15.5C584.465,-15.5 593.092,-15.5 601.7,-15.5"/>
<polygon fill="midnightblue" stroke="midnightblue" points="601.776,-19.0001 611.776,-15.5 601.776,-12.0001 601.776,-19.0001"/>
</g>
</g>
</svg>
