<?xml version="1.0" encoding="UTF-8" standalone="no"?>
<!DOCTYPE svg PUBLIC "-//W3C//DTD SVG 1.1//EN"
 "http://www.w3.org/Graphics/SVG/1.1/DTD/svg11.dtd">
<!-- Generated by graphviz version 2.38.0 (20140413.2041)
 -->
<!-- Title: nars.inference.BudgetFunctions.rankBelief Pages: 1 -->
<!--zoomable 88 -->
<svg id="main" version="1.1" xmlns="http://www.w3.org/2000/svg" xmlns:xlink="http://www.w3.org/1999/xlink" xml:space="preserve" onload="init(evt)">
<style type="text/css"><![CDATA[
.edge:hover path { stroke: red; }
.edge:hover polygon { stroke: red; fill: red; }
]]></style>
<script type="text/javascript"><![CDATA[
var edges = document.getElementsByTagName('g');
if (edges && edges.length) {
  for (var i=0;i<edges.length;i++) {
    if (edges[i].id.substr(0,4)=='edge') {
      edges[i].setAttribute('class','edge');
    }
  }
}
]]></script>
        <defs>
                <circle id="rim" cx="0" cy="0" r="7"/>
                <circle id="rim2" cx="0" cy="0" r="3.5"/>
                <g id="zoomPlus">
                        <use xlink:href="#rim" fill="#404040">
                                <set attributeName="fill" to="#808080" begin="zoomplus.mouseover" end="zoomplus.mouseout"/>
                        </use>
                        <path d="M-4,0h8M0,-4v8" fill="none" stroke="white" stroke-width="1.5" pointer-events="none"/>
                </g>
                <g id="zoomMin">
                        <use xlink:href="#rim" fill="#404040">
                                <set attributeName="fill" to="#808080" begin="zoomminus.mouseover" end="zoomminus.mouseout"/>
                        </use>
                        <path d="M-4,0h8" fill="none" stroke="white" stroke-width="1.5" pointer-events="none"/>
                </g>
                <g id="dirArrow">
                        <path fill="none" stroke="white" stroke-width="1.5" d="M0,-3.0v7 M-2.5,-0.5L0,-3.0L2.5,-0.5"/>
                </g>
               <g id="resetDef">
                       <use xlink:href="#rim2" fill="#404040">
                               <set attributeName="fill" to="#808080" begin="reset.mouseover" end="reset.mouseout"/>
                       </use>
               </g>
        </defs>

<script type="text/javascript">
var viewWidth = 2279;
var viewHeight = 88;
var sectionId = 'dynsection-1';
</script>
<script xlink:href="../../svgpan.js"/>
<svg id="graph" class="graph">
<g id="viewport">
<title>nars.inference.BudgetFunctions.rankBelief</title>
<!-- Node1 -->
<g id="node1" class="node"><title>Node1</title>
<polygon fill="#bfbfbf" stroke="black" points="0,-24.5 0,-54.5 176,-54.5 176,-24.5 0,-24.5"/>
<text text-anchor="start" x="8" y="-42.5" font-family="Helvetica,sans-Serif" font-size="10.00">nars.inference.BudgetFunctions.rank</text>
<text text-anchor="middle" x="88" y="-31.5" font-family="Helvetica,sans-Serif" font-size="10.00">Belief</text>
</g>
<!-- Node2 -->
<g id="node2" class="node"><title>Node2</title>
<g id="a_node2"><a xlink:href="../../d4/d22/classnars_1_1entity_1_1Concept_a83976b43424cb26fe9cea8654cfee743.html#a83976b43424cb26fe9cea8654cfee743" target="_top" xlink:title="Add a new belief (or goal) into the table Sort the beliefs/goals by rank, and remove redundant or low...">
<polygon fill="none" stroke="black" points="212,-24.5 212,-54.5 344,-54.5 344,-24.5 212,-24.5"/>
<text text-anchor="start" x="220" y="-42.5" font-family="Helvetica,sans-Serif" font-size="10.00">nars.entity.Concept.addTo</text>
<text text-anchor="middle" x="278" y="-31.5" font-family="Helvetica,sans-Serif" font-size="10.00">Table</text>
</a>
</g>
</g>
<!-- Node1&#45;&gt;Node2 -->
<g id="edge1" class="edge"><title>Node1&#45;&gt;Node2</title>
<path fill="none" stroke="midnightblue" d="M186.269,-39.5C194.915,-39.5 203.523,-39.5 211.802,-39.5"/>
<polygon fill="midnightblue" stroke="midnightblue" points="186.121,-36.0001 176.121,-39.5 186.121,-43.0001 186.121,-36.0001"/>
</g>
<!-- Node3 -->
<g id="node3" class="node"><title>Node3</title>
<g id="a_node3"><a xlink:href="../../d4/d22/classnars_1_1entity_1_1Concept_a40cddcc82ee28a1cf5b1f4bc14e2b078.html#a40cddcc82ee28a1cf5b1f4bc14e2b078" target="_top" xlink:title="To accept a new judgment as isBelief, and check for revisions and solutions. ">
<polygon fill="none" stroke="black" points="380,-24.5 380,-54.5 520,-54.5 520,-24.5 380,-24.5"/>
<text text-anchor="start" x="388" y="-42.5" font-family="Helvetica,sans-Serif" font-size="10.00">nars.entity.Concept.process</text>
<text text-anchor="middle" x="450" y="-31.5" font-family="Helvetica,sans-Serif" font-size="10.00">Judgment</text>
</a>
</g>
</g>
<!-- Node2&#45;&gt;Node3 -->
<g id="edge2" class="edge"><title>Node2&#45;&gt;Node3</title>
<path fill="none" stroke="midnightblue" d="M354.5,-39.5C362.981,-39.5 371.591,-39.5 379.985,-39.5"/>
<polygon fill="midnightblue" stroke="midnightblue" points="354.24,-36.0001 344.24,-39.5 354.24,-43.0001 354.24,-36.0001"/>
</g>
<!-- Node4 -->
<g id="node4" class="node"><title>Node4</title>
<g id="a_node4"><a xlink:href="../../d4/d22/classnars_1_1entity_1_1Concept_a9ea7c3154932d7a736c105eb55daeb5c.html#a9ea7c3154932d7a736c105eb55daeb5c" target="_top" xlink:title="Directly process a new task. ">
<polygon fill="none" stroke="black" points="556,-24.5 556,-54.5 685,-54.5 685,-24.5 556,-24.5"/>
<text text-anchor="start" x="564" y="-42.5" font-family="Helvetica,sans-Serif" font-size="10.00">nars.entity.Concept.direct</text>
<text text-anchor="middle" x="620.5" y="-31.5" font-family="Helvetica,sans-Serif" font-size="10.00">Process</text>
</a>
</g>
</g>
<!-- Node3&#45;&gt;Node4 -->
<g id="edge3" class="edge"><title>Node3&#45;&gt;Node4</title>
<path fill="none" stroke="midnightblue" d="M530.067,-39.5C538.671,-39.5 547.347,-39.5 555.735,-39.5"/>
<polygon fill="midnightblue" stroke="midnightblue" points="530.022,-36.0001 520.022,-39.5 530.022,-43.0001 530.022,-36.0001"/>
</g>
<!-- Node5 -->
<g id="node5" class="node"><title>Node5</title>
<g id="a_node5"><a xlink:href="../../d8/df4/classnars_1_1storage_1_1Memory_a175200c1f4c182222d0e66439b6e53a0.html#a175200c1f4c182222d0e66439b6e53a0" target="_top" xlink:title="Immediate processing of a new task, in constant time Local processing, in one concept only...">
<polygon fill="none" stroke="black" points="721,-24.5 721,-54.5 878,-54.5 878,-24.5 721,-24.5"/>
<text text-anchor="start" x="729" y="-42.5" font-family="Helvetica,sans-Serif" font-size="10.00">nars.storage.Memory.immediate</text>
<text text-anchor="middle" x="799.5" y="-31.5" font-family="Helvetica,sans-Serif" font-size="10.00">Process</text>
</a>
</g>
</g>
<!-- Node4&#45;&gt;Node5 -->
<g id="edge4" class="edge"><title>Node4&#45;&gt;Node5</title>
<path fill="none" stroke="midnightblue" d="M695.492,-39.5C703.854,-39.5 712.393,-39.5 720.801,-39.5"/>
<polygon fill="midnightblue" stroke="midnightblue" points="695.401,-36.0001 685.401,-39.5 695.401,-43.0001 695.401,-36.0001"/>
</g>
<!-- Node6 -->
<g id="node6" class="node"><title>Node6</title>
<g id="a_node6"><a xlink:href="../../d8/df4/classnars_1_1storage_1_1Memory_a105e44a3504921cc1036eb979b85d9f0.html#a105e44a3504921cc1036eb979b85d9f0" target="_top" xlink:title="Process the newTasks accumulated in the previous workCycle, accept input ones and those that correspo...">
<polygon fill="none" stroke="black" points="914,-49.5 914,-79.5 1060,-79.5 1060,-49.5 914,-49.5"/>
<text text-anchor="start" x="922" y="-67.5" font-family="Helvetica,sans-Serif" font-size="10.00">nars.storage.Memory.process</text>
<text text-anchor="middle" x="987" y="-56.5" font-family="Helvetica,sans-Serif" font-size="10.00">NewTask</text>
</a>
</g>
</g>
<!-- Node5&#45;&gt;Node6 -->
<g id="edge5" class="edge"><title>Node5&#45;&gt;Node6</title>
<path fill="none" stroke="midnightblue" d="M888.125,-51.3093C896.707,-52.466 905.349,-53.6306 913.754,-54.7633"/>
<polygon fill="midnightblue" stroke="midnightblue" points="888.472,-47.8245 878.094,-49.9574 887.537,-54.7618 888.472,-47.8245"/>
</g>
<!-- Node13 -->
<g id="node13" class="node"><title>Node13</title>
<g id="a_node13"><a xlink:href="../../d8/df4/classnars_1_1storage_1_1Memory_afe3b4d1bb5fab652ceca53c04773af73.html#afe3b4d1bb5fab652ceca53c04773af73" target="_top" xlink:title="Select a novel task to process. ">
<polygon fill="none" stroke="black" points="914,-0.5 914,-30.5 1060,-30.5 1060,-0.5 914,-0.5"/>
<text text-anchor="start" x="922" y="-18.5" font-family="Helvetica,sans-Serif" font-size="10.00">nars.storage.Memory.process</text>
<text text-anchor="middle" x="987" y="-7.5" font-family="Helvetica,sans-Serif" font-size="10.00">NovelTask</text>
</a>
</g>
</g>
<!-- Node5&#45;&gt;Node13 -->
<g id="edge12" class="edge"><title>Node5&#45;&gt;Node13</title>
<path fill="none" stroke="midnightblue" d="M888.125,-28.1631C896.707,-27.0527 905.349,-25.9346 913.754,-24.8472"/>
<polygon fill="midnightblue" stroke="midnightblue" points="887.562,-24.7066 878.094,-29.4609 888.46,-31.6488 887.562,-24.7066"/>
</g>
<!-- Node7 -->
<g id="node7" class="node"><title>Node7</title>
<g id="a_node7"><a xlink:href="../../d8/df4/classnars_1_1storage_1_1Memory_a49e2cbc8b78d535f4d69739886ee966a.html#a49e2cbc8b78d535f4d69739886ee966a" target="_top" xlink:title="An atomic working workCycle of the system: process new Tasks, then fire a concept. ">
<polygon fill="none" stroke="black" points="1096,-24.5 1096,-54.5 1229,-54.5 1229,-24.5 1096,-24.5"/>
<text text-anchor="start" x="1104" y="-42.5" font-family="Helvetica,sans-Serif" font-size="10.00">nars.storage.Memory.work</text>
<text text-anchor="middle" x="1162.5" y="-31.5" font-family="Helvetica,sans-Serif" font-size="10.00">Cycle</text>
</a>
</g>
</g>
<!-- Node6&#45;&gt;Node7 -->
<g id="edge6" class="edge"><title>Node6&#45;&gt;Node7</title>
<path fill="none" stroke="midnightblue" d="M1070.12,-52.6675C1078.72,-51.4286 1087.37,-50.1809 1095.76,-48.9733"/>
<polygon fill="midnightblue" stroke="midnightblue" points="1069.47,-49.2244 1060.07,-54.1149 1070.47,-56.1529 1069.47,-49.2244"/>
</g>
<!-- Node8 -->
<g id="node8" class="node"><title>Node8</title>
<g id="a_node8"><a xlink:href="../../dd/da5/classnars_1_1storage_1_1Memory_1_1ReasonerBatch_acc60dec23da774957a85362ed6d7448b.html#acc60dec23da774957a85362ed6d7448b" target="_top" xlink:title="nars.storage.Memory.Reasoner\lBatch.doTick">
<polygon fill="none" stroke="black" points="1265,-24.5 1265,-54.5 1419,-54.5 1419,-24.5 1265,-24.5"/>
<text text-anchor="start" x="1273" y="-42.5" font-family="Helvetica,sans-Serif" font-size="10.00">nars.storage.Memory.Reasoner</text>
<text text-anchor="middle" x="1342" y="-31.5" font-family="Helvetica,sans-Serif" font-size="10.00">Batch.doTick</text>
</a>
</g>
</g>
<!-- Node7&#45;&gt;Node8 -->
<g id="edge7" class="edge"><title>Node7&#45;&gt;Node8</title>
<path fill="none" stroke="midnightblue" d="M1239.32,-39.5C1247.79,-39.5 1256.41,-39.5 1264.89,-39.5"/>
<polygon fill="midnightblue" stroke="midnightblue" points="1239.09,-36.0001 1229.09,-39.5 1239.09,-43.0001 1239.09,-36.0001"/>
</g>
<!-- Node9 -->
<g id="node9" class="node"><title>Node9</title>
<g id="a_node9"><a xlink:href="../../dd/da5/classnars_1_1storage_1_1Memory_1_1ReasonerBatch_aed591f05899b98fd9e4ad01836ad0a40.html#aed591f05899b98fd9e4ad01836ad0a40" target="_top" xlink:title="A clock tick. ">
<polygon fill="none" stroke="black" points="1455,-24.5 1455,-54.5 1609,-54.5 1609,-24.5 1455,-24.5"/>
<text text-anchor="start" x="1463" y="-42.5" font-family="Helvetica,sans-Serif" font-size="10.00">nars.storage.Memory.Reasoner</text>
<text text-anchor="middle" x="1532" y="-31.5" font-family="Helvetica,sans-Serif" font-size="10.00">Batch.tick</text>
</a>
</g>
</g>
<!-- Node8&#45;&gt;Node9 -->
<g id="edge8" class="edge"><title>Node8&#45;&gt;Node9</title>
<path fill="none" stroke="midnightblue" d="M1429.42,-39.5C1437.86,-39.5 1446.37,-39.5 1454.7,-39.5"/>
<polygon fill="midnightblue" stroke="midnightblue" points="1429.2,-36.0001 1419.2,-39.5 1429.2,-43.0001 1429.2,-36.0001"/>
</g>
<!-- Node10 -->
<g id="node10" class="node"><title>Node10</title>
<g id="a_node10"><a xlink:href="../../d4/d88/classnars_1_1storage_1_1Memory_1_1NARSBatch_aad99db6cedde9cff2a997db8906ff821.html#aad99db6cedde9cff2a997db8906ff821" target="_top" xlink:title="Run to completion: repeatedly execute NARS working cycle, until Inputs are Finished, or 1000 steps. ">
<polygon fill="none" stroke="black" points="1645,-30 1645,-49 1827,-49 1827,-30 1645,-30"/>
<text text-anchor="middle" x="1736" y="-37" font-family="Helvetica,sans-Serif" font-size="10.00">nars.storage.Memory.NARSBatch.run</text>
</a>
</g>
</g>
<!-- Node9&#45;&gt;Node10 -->
<g id="edge9" class="edge"><title>Node9&#45;&gt;Node10</title>
<path fill="none" stroke="midnightblue" d="M1619.27,-39.5C1627.69,-39.5 1636.25,-39.5 1644.71,-39.5"/>
<polygon fill="midnightblue" stroke="midnightblue" points="1619.08,-36.0001 1609.08,-39.5 1619.08,-43.0001 1619.08,-36.0001"/>
</g>
<!-- Node11 -->
<g id="node11" class="node"><title>Node11</title>
<g id="a_node11"><a xlink:href="../../d4/d88/classnars_1_1storage_1_1Memory_1_1NARSBatch_a416c39463faa161661ed1d12fea03b3c.html#a416c39463faa161661ed1d12fea03b3c" target="_top" xlink:title="non&#45;static equivalent to main(String[]) : run to completion from an input file ">
<polygon fill="none" stroke="black" points="1863,-24.5 1863,-54.5 2045,-54.5 2045,-24.5 1863,-24.5"/>
<text text-anchor="start" x="1871" y="-42.5" font-family="Helvetica,sans-Serif" font-size="10.00">nars.storage.Memory.NARSBatch.run</text>
<text text-anchor="middle" x="1954" y="-31.5" font-family="Helvetica,sans-Serif" font-size="10.00">Inference</text>
</a>
</g>
</g>
<!-- Node10&#45;&gt;Node11 -->
<g id="edge10" class="edge"><title>Node10&#45;&gt;Node11</title>
<path fill="none" stroke="midnightblue" d="M1837.06,-39.5C1845.63,-39.5 1854.27,-39.5 1862.76,-39.5"/>
<polygon fill="midnightblue" stroke="midnightblue" points="1837.04,-36.0001 1827.04,-39.5 1837.04,-43.0001 1837.04,-36.0001"/>
</g>
<!-- Node12 -->
<g id="node12" class="node"><title>Node12</title>
<g id="a_node12"><a xlink:href="../../d4/d88/classnars_1_1storage_1_1Memory_1_1NARSBatch_aa97fcd68270583e60e6bf1b4579d1bdc.html#aa97fcd68270583e60e6bf1b4579d1bdc" target="_top" xlink:title="The entry point of the standalone application. ">
<polygon fill="none" stroke="black" points="2081,-30 2081,-49 2271,-49 2271,-30 2081,-30"/>
<text text-anchor="middle" x="2176" y="-37" font-family="Helvetica,sans-Serif" font-size="10.00">nars.storage.Memory.NARSBatch.main</text>
</a>
</g>
</g>
<!-- Node11&#45;&gt;Node12 -->
<g id="edge11" class="edge"><title>Node11&#45;&gt;Node12</title>
<path fill="none" stroke="midnightblue" d="M2055.37,-39.5C2063.82,-39.5 2072.34,-39.5 2080.74,-39.5"/>
<polygon fill="midnightblue" stroke="midnightblue" points="2055.12,-36.0001 2045.12,-39.5 2055.12,-43.0001 2055.12,-36.0001"/>
</g>
<!-- Node13&#45;&gt;Node7 -->
<g id="edge13" class="edge"><title>Node13&#45;&gt;Node7</title>
<path fill="none" stroke="midnightblue" d="M1070.12,-26.8592C1078.72,-28.0486 1087.37,-29.2464 1095.76,-30.4056"/>
<polygon fill="midnightblue" stroke="midnightblue" points="1070.46,-23.373 1060.07,-25.4697 1069.5,-30.307 1070.46,-23.373"/>
</g>
</g>
</svg>
        <g id="navigator" transform="translate(0 0)" fill="#404254">
                <rect fill="#f2f5e9" fill-opacity="0.5" stroke="#606060" stroke-width=".5" x="0" y="0" width="60" height="60"/>
                <use id="zoomplus" xlink:href="#zoomPlus" x="17" y="9" onmousedown="handleZoom(evt,'in')"/>
                <use id="zoomminus" xlink:href="#zoomMin" x="42" y="9" onmousedown="handleZoom(evt,'out')"/>
                <use id="reset" xlink:href="#resetDef" x="30" y="36" onmousedown="handleReset()"/>
                <g id="arrowUp" xlink:href="#dirArrow" transform="translate(30 24)" onmousedown="handlePan(0,-1)">
                  <use xlink:href="#rim" fill="#404040">
                        <set attributeName="fill" to="#808080" begin="arrowUp.mouseover" end="arrowUp.mouseout"/>
                  </use>
                  <path fill="none" stroke="white" stroke-width="1.5" d="M0,-3.0v7 M-2.5,-0.5L0,-3.0L2.5,-0.5"/>
                </g>
                <g id="arrowRight" xlink:href="#dirArrow" transform="rotate(90) translate(36 -43)" onmousedown="handlePan(1,0)">
                  <use xlink:href="#rim" fill="#404040">
                        <set attributeName="fill" to="#808080" begin="arrowRight.mouseover" end="arrowRight.mouseout"/>
                  </use>
                  <path fill="none" stroke="white" stroke-width="1.5" d="M0,-3.0v7 M-2.5,-0.5L0,-3.0L2.5,-0.5"/>
                </g>
                <g id="arrowDown" xlink:href="#dirArrow" transform="rotate(180) translate(-30 -48)" onmousedown="handlePan(0,1)">
                  <use xlink:href="#rim" fill="#404040">
                        <set attributeName="fill" to="#808080" begin="arrowDown.mouseover" end="arrowDown.mouseout"/>
                  </use>
                  <path fill="none" stroke="white" stroke-width="1.5" d="M0,-3.0v7 M-2.5,-0.5L0,-3.0L2.5,-0.5"/>
                </g>
                <g id="arrowLeft" xlink:href="#dirArrow" transform="rotate(270) translate(-36 17)" onmousedown="handlePan(-1,0)">
                  <use xlink:href="#rim" fill="#404040">
                        <set attributeName="fill" to="#808080" begin="arrowLeft.mouseover" end="arrowLeft.mouseout"/>
                  </use>
                  <path fill="none" stroke="white" stroke-width="1.5" d="M0,-3.0v7 M-2.5,-0.5L0,-3.0L2.5,-0.5"/>
                </g>
        </g>
        <svg viewBox="0 0 15 15" width="100%" height="30px" preserveAspectRatio="xMaxYMin meet">
         <g id="arrow_out" transform="scale(0.3 0.3)">
          <a xlink:href="classnars_1_1inference_1_1BudgetFunctions_a5c7290e12cda0925b936c07ed7b806f3_a5c7290e12cda0925b936c07ed7b806f3_icgraph_org.svg" target="_base">
           <rect id="button" ry="5" rx="5" y="6" x="6" height="38" width="38"
                fill="#f2f5e9" fill-opacity="0.5" stroke="#606060" stroke-width="1.0"/>
           <path id="arrow"
             d="M 11.500037,31.436501 C 11.940474,20.09759 22.043105,11.32322 32.158766,21.979434 L 37.068811,17.246167 C 37.068811,17.246167 37.088388,32 37.088388,32 L 22.160133,31.978069 C 22.160133,31.978069 26.997745,27.140456 26.997745,27.140456 C 18.528582,18.264221 13.291696,25.230495 11.500037,31.436501 z"
             style="fill:#404040;"/>
          </a>
         </g>
        </svg>
</svg>
