<?xml version="1.0" encoding="UTF-8" standalone="no"?>
<!DOCTYPE svg PUBLIC "-//W3C//DTD SVG 1.1//EN"
 "http://www.w3.org/Graphics/SVG/1.1/DTD/svg11.dtd">
<!-- Generated by graphviz version 2.38.0 (20140413.2041)
 -->
<!-- Title: nars.inference.BudgetFunctions.merge Pages: 1 -->
<svg width="531pt" height="28pt"
 viewBox="0.00 0.00 531.00 28.00" xmlns="http://www.w3.org/2000/svg" xmlns:xlink="http://www.w3.org/1999/xlink">
<g id="graph0" class="graph" transform="scale(1 1) rotate(0) translate(4 24)">
<title>nars.inference.BudgetFunctions.merge</title>
<!-- Node1 -->
<g id="node1" class="node"><title>Node1</title>
<polygon fill="#bfbfbf" stroke="black" points="0,-0.5 0,-19.5 185,-19.5 185,-0.5 0,-0.5"/>
<text text-anchor="middle" x="92.5" y="-7.5" font-family="Helvetica,sans-Serif" font-size="10.00">nars.inference.BudgetFunctions.merge</text>
</g>
<!-- Node2 -->
<g id="node2" class="node"><title>Node2</title>
<g id="a_node2"><a xlink:href="../../db/d8e/classnars_1_1entity_1_1BudgetValue_a4fdeae08389c60a4d89bc0b85a92848f.html#a4fdeae08389c60a4d89bc0b85a92848f" target="_top" xlink:title="Merge one BudgetValue into another. ">
<polygon fill="none" stroke="black" points="221,-0.5 221,-19.5 372,-19.5 372,-0.5 221,-0.5"/>
<text text-anchor="middle" x="296.5" y="-7.5" font-family="Helvetica,sans-Serif" font-size="10.00">nars.entity.BudgetValue.merge</text>
</a>
</g>
</g>
<!-- Node1&#45;&gt;Node2 -->
<g id="edge1" class="edge"><title>Node1&#45;&gt;Node2</title>
<path fill="none" stroke="midnightblue" d="M195.2,-10C203.862,-10 212.517,-10 220.91,-10"/>
<polygon fill="midnightblue" stroke="midnightblue" points="195.044,-6.5001 185.044,-10 195.044,-13.5001 195.044,-6.5001"/>
</g>
<!-- Node3 -->
<g id="node3" class="node"><title>Node3</title>
<g id="a_node3"><a xlink:href="../../d1/dd1/classnars_1_1entity_1_1Item_af5627be72cf674ebd5d25427d84a66a7.html#af5627be72cf674ebd5d25427d84a66a7" target="_top" xlink:title="Merge with another Item with identical key. ">
<polygon fill="none" stroke="black" points="408,-0.5 408,-19.5 523,-19.5 523,-0.5 408,-0.5"/>
<text text-anchor="middle" x="465.5" y="-7.5" font-family="Helvetica,sans-Serif" font-size="10.00">nars.entity.Item.merge</text>
</a>
</g>
</g>
<!-- Node2&#45;&gt;Node3 -->
<g id="edge2" class="edge"><title>Node2&#45;&gt;Node3</title>
<path fill="none" stroke="midnightblue" d="M382.356,-10C391.011,-10 399.648,-10 407.892,-10"/>
<polygon fill="midnightblue" stroke="midnightblue" points="382.208,-6.5001 372.208,-10 382.208,-13.5001 382.208,-6.5001"/>
</g>
</g>
</svg>
