<?xml version="1.0" encoding="UTF-8" standalone="no"?>
<!DOCTYPE svg PUBLIC "-//W3C//DTD SVG 1.1//EN"
 "http://www.w3.org/Graphics/SVG/1.1/DTD/svg11.dtd">
<!-- Generated by graphviz version 2.38.0 (20140413.2041)
 -->
<!-- Title: nars.inference.BudgetFunctions.revise Pages: 1 -->
<svg width="833pt" height="480pt"
 viewBox="0.00 0.00 833.00 479.50" xmlns="http://www.w3.org/2000/svg" xmlns:xlink="http://www.w3.org/1999/xlink">
<g id="graph0" class="graph" transform="scale(1 1) rotate(0) translate(4 475.5)">
<title>nars.inference.BudgetFunctions.revise</title>
<!-- Node1 -->
<g id="node1" class="node"><title>Node1</title>
<polygon fill="#bfbfbf" stroke="black" points="0,-214.5 0,-233.5 184,-233.5 184,-214.5 0,-214.5"/>
<text text-anchor="middle" x="92" y="-221.5" font-family="Helvetica,sans-Serif" font-size="10.00">nars.inference.BudgetFunctions.revise</text>
</g>
<!-- Node2 -->
<g id="node2" class="node"><title>Node2</title>
<g id="a_node2"><a xlink:href="../../d1/dd1/classnars_1_1entity_1_1Item_a4761275e8e265c669dc539af3e15eef8.html#a4761275e8e265c669dc539af3e15eef8" target="_top" xlink:title="Decrease durability value. ">
<polygon fill="none" stroke="black" points="237,-441.5 237,-460.5 382,-460.5 382,-441.5 237,-441.5"/>
<text text-anchor="middle" x="309.5" y="-448.5" font-family="Helvetica,sans-Serif" font-size="10.00">nars.entity.Item.decDurability</text>
</a>
</g>
</g>
<!-- Node1&#45;&gt;Node2 -->
<g id="edge1" class="edge"><title>Node1&#45;&gt;Node2</title>
<path fill="none" stroke="midnightblue" d="M96.3502,-233.55C108.031,-265.453 150.097,-369.351 220,-423 228.235,-429.32 237.929,-434.232 247.826,-438.045"/>
<polygon fill="midnightblue" stroke="midnightblue" points="246.741,-441.374 257.336,-441.374 249.054,-434.767 246.741,-441.374"/>
</g>
<!-- Node5 -->
<g id="node5" class="node"><title>Node5</title>
<g id="a_node5"><a xlink:href="../../d1/dd1/classnars_1_1entity_1_1Item_ac83323d74841f32ec33ebb1c374d85cc.html#ac83323d74841f32ec33ebb1c374d85cc" target="_top" xlink:title="Decrease priority value. ">
<polygon fill="none" stroke="black" points="242.5,-394.5 242.5,-413.5 376.5,-413.5 376.5,-394.5 242.5,-394.5"/>
<text text-anchor="middle" x="309.5" y="-401.5" font-family="Helvetica,sans-Serif" font-size="10.00">nars.entity.Item.decPriority</text>
</a>
</g>
</g>
<!-- Node1&#45;&gt;Node5 -->
<g id="edge4" class="edge"><title>Node1&#45;&gt;Node5</title>
<path fill="none" stroke="midnightblue" d="M98.4932,-233.729C114.019,-260.361 160.958,-335.118 220,-375 230.153,-381.858 242.051,-387.198 253.769,-391.316"/>
<polygon fill="midnightblue" stroke="midnightblue" points="252.937,-394.726 263.529,-394.495 255.105,-388.07 252.937,-394.726"/>
</g>
<!-- Node7 -->
<g id="node7" class="node"><title>Node7</title>
<g id="a_node7"><a xlink:href="../../d3/db8/classnars_1_1entity_1_1TruthValue_a68ca7d92e9ea20d2a9a9f578ad7b681c.html#a68ca7d92e9ea20d2a9a9f578ad7b681c" target="_top" xlink:title="Get the confidence value. ">
<polygon fill="none" stroke="black" points="463.5,-343 463.5,-373 592.5,-373 592.5,-343 463.5,-343"/>
<text text-anchor="start" x="471.5" y="-361" font-family="Helvetica,sans-Serif" font-size="10.00">nars.entity.TruthValue.get</text>
<text text-anchor="middle" x="528" y="-350" font-family="Helvetica,sans-Serif" font-size="10.00">Confidence</text>
</a>
</g>
</g>
<!-- Node1&#45;&gt;Node7 -->
<g id="edge7" class="edge"><title>Node1&#45;&gt;Node7</title>
<path fill="none" stroke="midnightblue" d="M99.6184,-233.574C116.469,-257.032 163.668,-317.191 220,-341 294.792,-372.611 389.092,-372.658 453.312,-367.491"/>
<polygon fill="midnightblue" stroke="midnightblue" points="453.692,-370.971 463.353,-366.621 453.088,-363.997 453.692,-370.971"/>
</g>
<!-- Node8 -->
<g id="node8" class="node"><title>Node8</title>
<g id="a_node8"><a xlink:href="../../d8/df4/classnars_1_1storage_1_1Memory_afb74806ef37665d392a86dce2e3c6546.html#afb74806ef37665d392a86dce2e3c6546" target="_top" xlink:title="The selected TermLink. ">
<polygon fill="none" stroke="black" points="230.5,-253 230.5,-283 388.5,-283 388.5,-253 230.5,-253"/>
<text text-anchor="start" x="238.5" y="-271" font-family="Helvetica,sans-Serif" font-size="10.00">nars.storage.Memory.getCurrent</text>
<text text-anchor="middle" x="309.5" y="-260" font-family="Helvetica,sans-Serif" font-size="10.00">BeliefLink</text>
</a>
</g>
</g>
<!-- Node1&#45;&gt;Node8 -->
<g id="edge8" class="edge"><title>Node1&#45;&gt;Node8</title>
<path fill="none" stroke="midnightblue" d="M139.76,-233.547C164.565,-238.612 195.799,-244.989 224.63,-250.876"/>
<polygon fill="midnightblue" stroke="midnightblue" points="224.216,-254.363 234.714,-252.935 225.616,-247.505 224.216,-254.363"/>
</g>
<!-- Node9 -->
<g id="node9" class="node"><title>Node9</title>
<g id="a_node9"><a xlink:href="../../d8/df4/classnars_1_1storage_1_1Memory_a26eda4f00b333b706b4e3d069fdf1508.html#a26eda4f00b333b706b4e3d069fdf1508" target="_top" xlink:title="The selected Task. ">
<polygon fill="none" stroke="black" points="220,-214.5 220,-233.5 399,-233.5 399,-214.5 220,-214.5"/>
<text text-anchor="middle" x="309.5" y="-221.5" font-family="Helvetica,sans-Serif" font-size="10.00">nars.storage.Memory.getCurrentTask</text>
</a>
</g>
</g>
<!-- Node1&#45;&gt;Node9 -->
<g id="edge9" class="edge"><title>Node1&#45;&gt;Node9</title>
<path fill="none" stroke="midnightblue" d="M184.079,-224C192.583,-224 201.229,-224 209.799,-224"/>
<polygon fill="midnightblue" stroke="midnightblue" points="209.81,-227.5 219.81,-224 209.81,-220.5 209.81,-227.5"/>
</g>
<!-- Node10 -->
<g id="node10" class="node"><title>Node10</title>
<g id="a_node10"><a xlink:href="../../d8/df4/classnars_1_1storage_1_1Memory_ab9958cfc601557bc69b0cd9c89f58cf0.html#ab9958cfc601557bc69b0cd9c89f58cf0" target="_top" xlink:title="The selected TaskLink. ">
<polygon fill="none" stroke="black" points="230.5,-165 230.5,-195 388.5,-195 388.5,-165 230.5,-165"/>
<text text-anchor="start" x="238.5" y="-183" font-family="Helvetica,sans-Serif" font-size="10.00">nars.storage.Memory.getCurrent</text>
<text text-anchor="middle" x="309.5" y="-172" font-family="Helvetica,sans-Serif" font-size="10.00">TaskLink</text>
</a>
</g>
</g>
<!-- Node1&#45;&gt;Node10 -->
<g id="edge10" class="edge"><title>Node1&#45;&gt;Node10</title>
<path fill="none" stroke="midnightblue" d="M139.76,-214.453C164.565,-209.388 195.799,-203.011 224.63,-197.124"/>
<polygon fill="midnightblue" stroke="midnightblue" points="225.616,-200.495 234.714,-195.065 224.216,-193.637 225.616,-200.495"/>
</g>
<!-- Node11 -->
<g id="node11" class="node"><title>Node11</title>
<g id="a_node11"><a xlink:href="../../d1/dd1/classnars_1_1entity_1_1Item_adbb21c1891722e30c1d6cfaf5fee18ee.html#adbb21c1891722e30c1d6cfaf5fee18ee" target="_top" xlink:title="Get durability value. ">
<polygon fill="none" stroke="black" points="238,-126.5 238,-145.5 381,-145.5 381,-126.5 238,-126.5"/>
<text text-anchor="middle" x="309.5" y="-133.5" font-family="Helvetica,sans-Serif" font-size="10.00">nars.entity.Item.getDurability</text>
</a>
</g>
</g>
<!-- Node1&#45;&gt;Node11 -->
<g id="edge11" class="edge"><title>Node1&#45;&gt;Node11</title>
<path fill="none" stroke="midnightblue" d="M107.586,-214.257C130.543,-199.352 176.937,-170.943 220,-155 227.07,-152.382 234.599,-150.078 242.166,-148.063"/>
<polygon fill="midnightblue" stroke="midnightblue" points="243.248,-151.4 252.099,-145.577 241.549,-144.609 243.248,-151.4"/>
</g>
<!-- Node13 -->
<g id="node13" class="node"><title>Node13</title>
<g id="a_node13"><a xlink:href="../../d3/db8/classnars_1_1entity_1_1TruthValue_a630c30728ee404b76262610260d0a82a.html#a630c30728ee404b76262610260d0a82a" target="_top" xlink:title="Calculate the absolute difference of the expectation value and that of a given truth value...">
<polygon fill="none" stroke="black" points="245,-77 245,-107 374,-107 374,-77 245,-77"/>
<text text-anchor="start" x="253" y="-95" font-family="Helvetica,sans-Serif" font-size="10.00">nars.entity.TruthValue.get</text>
<text text-anchor="middle" x="309.5" y="-84" font-family="Helvetica,sans-Serif" font-size="10.00">ExpDifAbs</text>
</a>
</g>
</g>
<!-- Node1&#45;&gt;Node13 -->
<g id="edge13" class="edge"><title>Node1&#45;&gt;Node13</title>
<path fill="none" stroke="midnightblue" d="M101.547,-214.447C120.688,-193.629 169.316,-143.886 220,-117 224.848,-114.428 229.99,-112.096 235.26,-109.986"/>
<polygon fill="midnightblue" stroke="midnightblue" points="236.692,-113.188 244.846,-106.424 234.253,-106.626 236.692,-113.188"/>
</g>
<!-- Node15 -->
<g id="node15" class="node"><title>Node15</title>
<g id="a_node15"><a xlink:href="../../d1/dd1/classnars_1_1entity_1_1Item_a97b35888ceaad90e7a428701051c51d7.html#a97b35888ceaad90e7a428701051c51d7" target="_top" xlink:title="Get priority value. ">
<polygon fill="none" stroke="black" points="243.5,-38.5 243.5,-57.5 375.5,-57.5 375.5,-38.5 243.5,-38.5"/>
<text text-anchor="middle" x="309.5" y="-45.5" font-family="Helvetica,sans-Serif" font-size="10.00">nars.entity.Item.getPriority</text>
</a>
</g>
</g>
<!-- Node1&#45;&gt;Node15 -->
<g id="edge15" class="edge"><title>Node1&#45;&gt;Node15</title>
<path fill="none" stroke="midnightblue" d="M97.7523,-214.348C111.999,-186.5 157.276,-105.548 220,-67 224.324,-64.3426 228.966,-62.0533 233.776,-60.0815"/>
<polygon fill="midnightblue" stroke="midnightblue" points="234.986,-63.3658 243.195,-56.6677 232.601,-56.7847 234.986,-63.3658"/>
</g>
<!-- Node17 -->
<g id="node17" class="node"><title>Node17</title>
<g id="a_node17"><a xlink:href="../../d4/de4/classnars_1_1inference_1_1UtilityFunctions_a24093a77b49f21322e62c9bed7ff5ee2.html#a24093a77b49f21322e62c9bed7ff5ee2" target="_top" xlink:title="A function where the output is disjunctively determined by the inputs. ">
<polygon fill="none" stroke="black" points="229,-0.5 229,-19.5 390,-19.5 390,-0.5 229,-0.5"/>
<text text-anchor="middle" x="309.5" y="-7.5" font-family="Helvetica,sans-Serif" font-size="10.00">nars.inference.UtilityFunctions.or</text>
</a>
</g>
</g>
<!-- Node1&#45;&gt;Node17 -->
<g id="edge17" class="edge"><title>Node1&#45;&gt;Node17</title>
<path fill="none" stroke="midnightblue" d="M96.2221,-214.385C107.498,-182.308 148.432,-78.2252 220,-29 222.871,-27.0255 225.908,-25.2504 229.062,-23.6552"/>
<polygon fill="midnightblue" stroke="midnightblue" points="230.477,-26.8563 238.215,-19.6189 227.653,-20.4514 230.477,-26.8563"/>
</g>
<!-- Node18 -->
<g id="node18" class="node"><title>Node18</title>
<g id="a_node18"><a xlink:href="../../d7/d11/classnars_1_1inference_1_1BudgetFunctions_a5797bd2ee147531f4200cf66c7392a91.html#a5797bd2ee147531f4200cf66c7392a91" target="_top" xlink:title="Determine the quality of a judgment by its truth value alone. ">
<polygon fill="none" stroke="black" points="221,-302 221,-332 398,-332 398,-302 221,-302"/>
<text text-anchor="start" x="229" y="-320" font-family="Helvetica,sans-Serif" font-size="10.00">nars.inference.BudgetFunctions.truth</text>
<text text-anchor="middle" x="309.5" y="-309" font-family="Helvetica,sans-Serif" font-size="10.00">ToQuality</text>
</a>
</g>
</g>
<!-- Node1&#45;&gt;Node18 -->
<g id="edge18" class="edge"><title>Node1&#45;&gt;Node18</title>
<path fill="none" stroke="midnightblue" d="M108.505,-233.729C131.915,-248.084 178.019,-275.064 220,-292 225.927,-294.391 232.165,-296.646 238.471,-298.748"/>
<polygon fill="midnightblue" stroke="midnightblue" points="237.81,-302.212 248.401,-301.924 239.943,-295.544 237.81,-302.212"/>
</g>
<!-- Node3 -->
<g id="node3" class="node"><title>Node3</title>
<g id="a_node3"><a xlink:href="../../db/d8e/classnars_1_1entity_1_1BudgetValue_af94675e7515bd0efd94b5ee787eebc4a.html#af94675e7515bd0efd94b5ee787eebc4a" target="_top" xlink:title="Decrease durability value by a percentage of the remaining range. ">
<polygon fill="none" stroke="black" points="458,-441 458,-471 598,-471 598,-441 458,-441"/>
<text text-anchor="start" x="466" y="-459" font-family="Helvetica,sans-Serif" font-size="10.00">nars.entity.BudgetValue.dec</text>
<text text-anchor="middle" x="528" y="-448" font-family="Helvetica,sans-Serif" font-size="10.00">Durability</text>
</a>
</g>
</g>
<!-- Node2&#45;&gt;Node3 -->
<g id="edge2" class="edge"><title>Node2&#45;&gt;Node3</title>
<path fill="none" stroke="midnightblue" d="M382.291,-452.658C403.33,-453.144 426.45,-453.678 447.916,-454.174"/>
<polygon fill="midnightblue" stroke="midnightblue" points="447.898,-457.674 457.976,-454.406 448.06,-450.676 447.898,-457.674"/>
</g>
<!-- Node4 -->
<g id="node4" class="node"><title>Node4</title>
<g id="a_node4"><a xlink:href="../../d4/de4/classnars_1_1inference_1_1UtilityFunctions_a35ac262407303cdf8d11f7892f9a3a03.html#a35ac262407303cdf8d11f7892f9a3a03" target="_top" xlink:title="A function where the output is conjunctively determined by the inputs. ">
<polygon fill="none" stroke="black" points="657,-421.5 657,-440.5 825,-440.5 825,-421.5 657,-421.5"/>
<text text-anchor="middle" x="741" y="-428.5" font-family="Helvetica,sans-Serif" font-size="10.00">nars.inference.UtilityFunctions.and</text>
</a>
</g>
</g>
<!-- Node3&#45;&gt;Node4 -->
<g id="edge3" class="edge"><title>Node3&#45;&gt;Node4</title>
<path fill="none" stroke="midnightblue" d="M598.089,-447.814C614.566,-445.862 632.394,-443.75 649.668,-441.703"/>
<polygon fill="midnightblue" stroke="midnightblue" points="650.241,-445.16 659.76,-440.507 649.417,-438.208 650.241,-445.16"/>
</g>
<!-- Node6 -->
<g id="node6" class="node"><title>Node6</title>
<g id="a_node6"><a xlink:href="../../db/d8e/classnars_1_1entity_1_1BudgetValue_a27f92b156f0a25520e38a489ec6fc214.html#a27f92b156f0a25520e38a489ec6fc214" target="_top" xlink:title="Decrease priority value by a percentage of the remaining range. ">
<polygon fill="none" stroke="black" points="458,-392 458,-422 598,-422 598,-392 458,-392"/>
<text text-anchor="start" x="466" y="-410" font-family="Helvetica,sans-Serif" font-size="10.00">nars.entity.BudgetValue.dec</text>
<text text-anchor="middle" x="528" y="-399" font-family="Helvetica,sans-Serif" font-size="10.00">Priority</text>
</a>
</g>
</g>
<!-- Node5&#45;&gt;Node6 -->
<g id="edge5" class="edge"><title>Node5&#45;&gt;Node6</title>
<path fill="none" stroke="midnightblue" d="M376.634,-404.916C399.056,-405.227 424.336,-405.577 447.678,-405.901"/>
<polygon fill="midnightblue" stroke="midnightblue" points="447.851,-409.403 457.898,-406.042 447.948,-402.404 447.851,-409.403"/>
</g>
<!-- Node6&#45;&gt;Node4 -->
<g id="edge6" class="edge"><title>Node6&#45;&gt;Node4</title>
<path fill="none" stroke="midnightblue" d="M598.089,-414.858C613.616,-416.625 630.342,-418.527 646.674,-420.385"/>
<polygon fill="midnightblue" stroke="midnightblue" points="646.446,-423.881 656.778,-421.534 647.237,-416.926 646.446,-423.881"/>
</g>
<!-- Node12 -->
<g id="node12" class="node"><title>Node12</title>
<g id="a_node12"><a xlink:href="../../db/d8e/classnars_1_1entity_1_1BudgetValue_ab0e0dc2172d3fab6390670acb68da1a6.html#ab0e0dc2172d3fab6390670acb68da1a6" target="_top" xlink:title="Get durability value. ">
<polygon fill="none" stroke="black" points="459.5,-126 459.5,-156 596.5,-156 596.5,-126 459.5,-126"/>
<text text-anchor="start" x="467.5" y="-144" font-family="Helvetica,sans-Serif" font-size="10.00">nars.entity.BudgetValue.get</text>
<text text-anchor="middle" x="528" y="-133" font-family="Helvetica,sans-Serif" font-size="10.00">Durability</text>
</a>
</g>
</g>
<!-- Node11&#45;&gt;Node12 -->
<g id="edge12" class="edge"><title>Node11&#45;&gt;Node12</title>
<path fill="none" stroke="midnightblue" d="M381.091,-137.63C402.92,-138.134 427.084,-138.692 449.363,-139.207"/>
<polygon fill="midnightblue" stroke="midnightblue" points="449.373,-142.708 459.451,-139.44 449.535,-135.71 449.373,-142.708"/>
</g>
<!-- Node14 -->
<g id="node14" class="node"><title>Node14</title>
<g id="a_node14"><a xlink:href="../../d3/db8/classnars_1_1entity_1_1TruthValue_aa5ffcde3ae611b087ba7fdd4cd67b216.html#aa5ffcde3ae611b087ba7fdd4cd67b216" target="_top" xlink:title="Calculate the expectation value of the truth value. ">
<polygon fill="none" stroke="black" points="463.5,-77 463.5,-107 592.5,-107 592.5,-77 463.5,-77"/>
<text text-anchor="start" x="471.5" y="-95" font-family="Helvetica,sans-Serif" font-size="10.00">nars.entity.TruthValue.get</text>
<text text-anchor="middle" x="528" y="-84" font-family="Helvetica,sans-Serif" font-size="10.00">Expectation</text>
</a>
</g>
</g>
<!-- Node13&#45;&gt;Node14 -->
<g id="edge14" class="edge"><title>Node13&#45;&gt;Node14</title>
<path fill="none" stroke="midnightblue" d="M374.286,-92C399.062,-92 427.599,-92 453.249,-92"/>
<polygon fill="midnightblue" stroke="midnightblue" points="453.296,-95.5001 463.296,-92 453.296,-88.5001 453.296,-95.5001"/>
</g>
<!-- Node16 -->
<g id="node16" class="node"><title>Node16</title>
<g id="a_node16"><a xlink:href="../../db/d8e/classnars_1_1entity_1_1BudgetValue_a1e7b6826531f03f792f3516ce0e97ac3.html#a1e7b6826531f03f792f3516ce0e97ac3" target="_top" xlink:title="Get priority value. ">
<polygon fill="none" stroke="black" points="459.5,-28 459.5,-58 596.5,-58 596.5,-28 459.5,-28"/>
<text text-anchor="start" x="467.5" y="-46" font-family="Helvetica,sans-Serif" font-size="10.00">nars.entity.BudgetValue.get</text>
<text text-anchor="middle" x="528" y="-35" font-family="Helvetica,sans-Serif" font-size="10.00">Priority</text>
</a>
</g>
</g>
<!-- Node15&#45;&gt;Node16 -->
<g id="edge16" class="edge"><title>Node15&#45;&gt;Node16</title>
<path fill="none" stroke="midnightblue" d="M375.751,-46.4931C398.847,-45.9597 425.061,-45.3543 449.102,-44.799"/>
<polygon fill="midnightblue" stroke="midnightblue" points="449.34,-48.2946 459.257,-44.5645 449.178,-41.2964 449.34,-48.2946"/>
</g>
<!-- Node18&#45;&gt;Node7 -->
<g id="edge20" class="edge"><title>Node18&#45;&gt;Node7</title>
<path fill="none" stroke="midnightblue" d="M389.887,-332.034C410.629,-335.962 432.897,-340.179 453.328,-344.048"/>
<polygon fill="midnightblue" stroke="midnightblue" points="452.719,-347.495 463.196,-345.917 454.021,-340.617 452.719,-347.495"/>
</g>
<!-- Node19 -->
<g id="node19" class="node"><title>Node19</title>
<g id="a_node19"><a xlink:href="../../d4/de4/classnars_1_1inference_1_1UtilityFunctions_a7649e37bb61cac9b8a2601fdff3a5f7a.html#a7649e37bb61cac9b8a2601fdff3a5f7a" target="_top" xlink:title="A function where the output is the geometric average the inputs. ">
<polygon fill="none" stroke="black" points="435,-304.5 435,-323.5 621,-323.5 621,-304.5 435,-304.5"/>
<text text-anchor="middle" x="528" y="-311.5" font-family="Helvetica,sans-Serif" font-size="10.00">nars.inference.UtilityFunctions.aveGeo</text>
</a>
</g>
</g>
<!-- Node18&#45;&gt;Node19 -->
<g id="edge19" class="edge"><title>Node18&#45;&gt;Node19</title>
<path fill="none" stroke="midnightblue" d="M398.247,-315.784C407.019,-315.663 415.977,-315.538 424.879,-315.415"/>
<polygon fill="midnightblue" stroke="midnightblue" points="424.944,-318.915 434.894,-315.276 424.847,-311.915 424.944,-318.915"/>
</g>
<!-- Node20 -->
<g id="node20" class="node"><title>Node20</title>
<g id="a_node20"><a xlink:href="../../d3/db8/classnars_1_1entity_1_1TruthValue_a9eac33f2495441c77911a8581a5bbe61.html#a9eac33f2495441c77911a8581a5bbe61" target="_top" xlink:title="Get the frequency value. ">
<polygon fill="none" stroke="black" points="463.5,-255 463.5,-285 592.5,-285 592.5,-255 463.5,-255"/>
<text text-anchor="start" x="471.5" y="-273" font-family="Helvetica,sans-Serif" font-size="10.00">nars.entity.TruthValue.get</text>
<text text-anchor="middle" x="528" y="-262" font-family="Helvetica,sans-Serif" font-size="10.00">Frequency</text>
</a>
</g>
</g>
<!-- Node18&#45;&gt;Node20 -->
<g id="edge21" class="edge"><title>Node18&#45;&gt;Node20</title>
<path fill="none" stroke="midnightblue" d="M379.597,-302C403.094,-296.899 429.436,-291.18 453.281,-286.004"/>
<polygon fill="midnightblue" stroke="midnightblue" points="454.301,-289.364 463.331,-283.822 452.816,-282.523 454.301,-289.364"/>
</g>
</g>
</svg>
