<?xml version="1.0" encoding="UTF-8" standalone="no"?>
<!DOCTYPE svg PUBLIC "-//W3C//DTD SVG 1.1//EN"
 "http://www.w3.org/Graphics/SVG/1.1/DTD/svg11.dtd">
<!-- Generated by graphviz version 2.38.0 (20140413.2041)
 -->
<!-- Title: nars.inference.BudgetFunctions.rankBelief Pages: 1 -->
<svg width="381pt" height="214pt"
 viewBox="0.00 0.00 381.00 213.50" xmlns="http://www.w3.org/2000/svg" xmlns:xlink="http://www.w3.org/1999/xlink">
<g id="graph0" class="graph" transform="scale(1 1) rotate(0) translate(4 209.5)">
<title>nars.inference.BudgetFunctions.rankBelief</title>
<!-- Node1 -->
<g id="node1" class="node"><title>Node1</title>
<polygon fill="#bfbfbf" stroke="black" points="0,-77 0,-107 176,-107 176,-77 0,-77"/>
<text text-anchor="start" x="8" y="-95" font-family="Helvetica,sans-Serif" font-size="10.00">nars.inference.BudgetFunctions.rank</text>
<text text-anchor="middle" x="88" y="-84" font-family="Helvetica,sans-Serif" font-size="10.00">Belief</text>
</g>
<!-- Node2 -->
<g id="node2" class="node"><title>Node2</title>
<g id="a_node2"><a xlink:href="../../d3/db8/classnars_1_1entity_1_1TruthValue_a68ca7d92e9ea20d2a9a9f578ad7b681c.html#a68ca7d92e9ea20d2a9a9f578ad7b681c" target="_top" xlink:title="Get the confidence value. ">
<polygon fill="none" stroke="black" points="228,-175 228,-205 357,-205 357,-175 228,-175"/>
<text text-anchor="start" x="236" y="-193" font-family="Helvetica,sans-Serif" font-size="10.00">nars.entity.TruthValue.get</text>
<text text-anchor="middle" x="292.5" y="-182" font-family="Helvetica,sans-Serif" font-size="10.00">Confidence</text>
</a>
</g>
</g>
<!-- Node1&#45;&gt;Node2 -->
<g id="edge1" class="edge"><title>Node1&#45;&gt;Node2</title>
<path fill="none" stroke="midnightblue" d="M110.328,-107.085C134.18,-123.408 174.411,-149.331 212,-166 216.382,-167.943 220.967,-169.787 225.628,-171.523"/>
<polygon fill="midnightblue" stroke="midnightblue" points="224.668,-174.896 235.262,-174.936 227.005,-168.298 224.668,-174.896"/>
</g>
<!-- Node3 -->
<g id="node3" class="node"><title>Node3</title>
<g id="a_node3"><a xlink:href="../../d6/d25/classnars_1_1entity_1_1Sentence_ac0ed749c50e55120d5b63219ed7eb082.html#ac0ed749c50e55120d5b63219ed7eb082" target="_top" xlink:title="Get the stamp of the sentence. ">
<polygon fill="none" stroke="black" points="231,-126 231,-156 354,-156 354,-126 231,-126"/>
<text text-anchor="start" x="239" y="-144" font-family="Helvetica,sans-Serif" font-size="10.00">nars.entity.Sentence.get</text>
<text text-anchor="middle" x="292.5" y="-133" font-family="Helvetica,sans-Serif" font-size="10.00">Stamp</text>
</a>
</g>
</g>
<!-- Node1&#45;&gt;Node3 -->
<g id="edge2" class="edge"><title>Node1&#45;&gt;Node3</title>
<path fill="none" stroke="midnightblue" d="M151.133,-107.035C173.211,-112.377 198.221,-118.429 220.951,-123.929"/>
<polygon fill="midnightblue" stroke="midnightblue" points="220.332,-127.38 230.875,-126.33 221.979,-120.577 220.332,-127.38"/>
</g>
<!-- Node4 -->
<g id="node4" class="node"><title>Node4</title>
<g id="a_node4"><a xlink:href="../../d6/d25/classnars_1_1entity_1_1Sentence_a9f69b4fef64c81abad21404946cd41f9.html#a9f69b4fef64c81abad21404946cd41f9" target="_top" xlink:title="Get the truth value of the sentence. ">
<polygon fill="none" stroke="black" points="231,-77 231,-107 354,-107 354,-77 231,-77"/>
<text text-anchor="start" x="239" y="-95" font-family="Helvetica,sans-Serif" font-size="10.00">nars.entity.Sentence.get</text>
<text text-anchor="middle" x="292.5" y="-84" font-family="Helvetica,sans-Serif" font-size="10.00">Truth</text>
</a>
</g>
</g>
<!-- Node1&#45;&gt;Node4 -->
<g id="edge3" class="edge"><title>Node1&#45;&gt;Node4</title>
<path fill="none" stroke="midnightblue" d="M176.053,-92C190.89,-92 206.142,-92 220.499,-92"/>
<polygon fill="midnightblue" stroke="midnightblue" points="220.778,-95.5001 230.778,-92 220.778,-88.5001 220.778,-95.5001"/>
</g>
<!-- Node5 -->
<g id="node5" class="node"><title>Node5</title>
<g id="a_node5"><a xlink:href="../../d1/d1e/classnars_1_1entity_1_1Stamp_a316ac8d258c291cb941e50f17c2dc0eb.html#a316ac8d258c291cb941e50f17c2dc0eb" target="_top" xlink:title="Return the baseLength of the evidentialBase. ">
<polygon fill="none" stroke="black" points="231,-38.5 231,-57.5 354,-57.5 354,-38.5 231,-38.5"/>
<text text-anchor="middle" x="292.5" y="-45.5" font-family="Helvetica,sans-Serif" font-size="10.00">nars.entity.Stamp.length</text>
</a>
</g>
</g>
<!-- Node1&#45;&gt;Node5 -->
<g id="edge4" class="edge"><title>Node1&#45;&gt;Node5</title>
<path fill="none" stroke="midnightblue" d="M158.123,-76.9808C184.204,-71.3136 213.459,-64.9571 237.909,-59.6444"/>
<polygon fill="midnightblue" stroke="midnightblue" points="238.692,-63.056 247.721,-57.5124 237.206,-56.2156 238.692,-63.056"/>
</g>
<!-- Node6 -->
<g id="node6" class="node"><title>Node6</title>
<g id="a_node6"><a xlink:href="../../d4/de4/classnars_1_1inference_1_1UtilityFunctions_a24093a77b49f21322e62c9bed7ff5ee2.html#a24093a77b49f21322e62c9bed7ff5ee2" target="_top" xlink:title="A function where the output is disjunctively determined by the inputs. ">
<polygon fill="none" stroke="black" points="212,-0.5 212,-19.5 373,-19.5 373,-0.5 212,-0.5"/>
<text text-anchor="middle" x="292.5" y="-7.5" font-family="Helvetica,sans-Serif" font-size="10.00">nars.inference.UtilityFunctions.or</text>
</a>
</g>
</g>
<!-- Node1&#45;&gt;Node6 -->
<g id="edge5" class="edge"><title>Node1&#45;&gt;Node6</title>
<path fill="none" stroke="midnightblue" d="M114.105,-76.8799C138.41,-62.7938 176.667,-42.0568 212,-29 218.863,-26.4637 226.187,-24.1783 233.508,-22.1456"/>
<polygon fill="midnightblue" stroke="midnightblue" points="234.664,-25.4605 243.444,-19.5306 232.883,-18.691 234.664,-25.4605"/>
</g>
</g>
</svg>
