<?xml version="1.0" encoding="UTF-8" standalone="no"?>
<!DOCTYPE svg PUBLIC "-//W3C//DTD SVG 1.1//EN"
 "http://www.w3.org/Graphics/SVG/1.1/DTD/svg11.dtd">
<!-- Generated by graphviz version 2.38.0 (20140413.2041)
 -->
<!-- Title: nars.inference.BudgetFunctions.compoundForward Pages: 1 -->
<svg width="1026pt" height="455pt"
 viewBox="0.00 0.00 1026.00 454.50" xmlns="http://www.w3.org/2000/svg" xmlns:xlink="http://www.w3.org/1999/xlink">
<g id="graph0" class="graph" transform="scale(1 1) rotate(0) translate(4 450.5)">
<title>nars.inference.BudgetFunctions.compoundForward</title>
<!-- Node1 -->
<g id="node1" class="node"><title>Node1</title>
<polygon fill="#bfbfbf" stroke="black" points="0,-172.5 0,-202.5 203,-202.5 203,-172.5 0,-172.5"/>
<text text-anchor="start" x="8" y="-190.5" font-family="Helvetica,sans-Serif" font-size="10.00">nars.inference.BudgetFunctions.compound</text>
<text text-anchor="middle" x="101.5" y="-179.5" font-family="Helvetica,sans-Serif" font-size="10.00">Forward</text>
</g>
<!-- Node2 -->
<g id="node2" class="node"><title>Node2</title>
<g id="a_node2"><a xlink:href="../../d7/d11/classnars_1_1inference_1_1BudgetFunctions_a6c265160b143d73da5433f3d5464b59c.html#a6c265160b143d73da5433f3d5464b59c" target="_top" xlink:title="Common processing for all inference step. ">
<polygon fill="none" stroke="black" points="239,-251.5 239,-281.5 426,-281.5 426,-251.5 239,-251.5"/>
<text text-anchor="start" x="247" y="-269.5" font-family="Helvetica,sans-Serif" font-size="10.00">nars.inference.BudgetFunctions.budget</text>
<text text-anchor="middle" x="332.5" y="-258.5" font-family="Helvetica,sans-Serif" font-size="10.00">Inference</text>
</a>
</g>
</g>
<!-- Node1&#45;&gt;Node2 -->
<g id="edge1" class="edge"><title>Node1&#45;&gt;Node2</title>
<path fill="none" stroke="midnightblue" d="M146.112,-202.545C183.636,-215.49 237.907,-234.212 278.039,-248.057"/>
<polygon fill="midnightblue" stroke="midnightblue" points="277.066,-251.424 287.661,-251.376 279.349,-244.807 277.066,-251.424"/>
</g>
<!-- Node15 -->
<g id="node15" class="node"><title>Node15</title>
<g id="a_node15"><a xlink:href="../../d8/db8/classnars_1_1language_1_1Term_ae14632d1d25bcde8d6698ea0b58eb19a.html#ae14632d1d25bcde8d6698ea0b58eb19a" target="_top" xlink:title="The syntactic complexity, for constant automic Term, is 1. ">
<polygon fill="none" stroke="black" points="248,-178 248,-197 417,-197 417,-178 248,-178"/>
<text text-anchor="middle" x="332.5" y="-185" font-family="Helvetica,sans-Serif" font-size="10.00">nars.language.Term.getComplexity</text>
</a>
</g>
</g>
<!-- Node1&#45;&gt;Node15 -->
<g id="edge14" class="edge"><title>Node1&#45;&gt;Node15</title>
<path fill="none" stroke="midnightblue" d="M203.276,-187.5C214.668,-187.5 226.244,-187.5 237.544,-187.5"/>
<polygon fill="midnightblue" stroke="midnightblue" points="237.831,-191 247.831,-187.5 237.831,-184 237.831,-191"/>
</g>
<!-- Node16 -->
<g id="node16" class="node"><title>Node16</title>
<g id="a_node16"><a xlink:href="../../d7/d11/classnars_1_1inference_1_1BudgetFunctions_a5797bd2ee147531f4200cf66c7392a91.html#a5797bd2ee147531f4200cf66c7392a91" target="_top" xlink:title="Determine the quality of a judgment by its truth value alone. ">
<polygon fill="none" stroke="black" points="244,-71.5 244,-101.5 421,-101.5 421,-71.5 244,-71.5"/>
<text text-anchor="start" x="252" y="-89.5" font-family="Helvetica,sans-Serif" font-size="10.00">nars.inference.BudgetFunctions.truth</text>
<text text-anchor="middle" x="332.5" y="-78.5" font-family="Helvetica,sans-Serif" font-size="10.00">ToQuality</text>
</a>
</g>
</g>
<!-- Node1&#45;&gt;Node16 -->
<g id="edge15" class="edge"><title>Node1&#45;&gt;Node16</title>
<path fill="none" stroke="midnightblue" d="M136.784,-172.379C177.12,-154.589 244.147,-125.027 288.079,-105.651"/>
<polygon fill="midnightblue" stroke="midnightblue" points="289.619,-108.797 297.357,-101.559 286.794,-102.392 289.619,-108.797"/>
</g>
<!-- Node3 -->
<g id="node3" class="node"><title>Node3</title>
<g id="a_node3"><a xlink:href="../../d4/de4/classnars_1_1inference_1_1UtilityFunctions_a35ac262407303cdf8d11f7892f9a3a03.html#a35ac262407303cdf8d11f7892f9a3a03" target="_top" xlink:title="A function where the output is conjunctively determined by the inputs. ">
<polygon fill="none" stroke="black" points="471,-427 471,-446 639,-446 639,-427 471,-427"/>
<text text-anchor="middle" x="555" y="-434" font-family="Helvetica,sans-Serif" font-size="10.00">nars.inference.UtilityFunctions.and</text>
</a>
</g>
</g>
<!-- Node2&#45;&gt;Node3 -->
<g id="edge2" class="edge"><title>Node2&#45;&gt;Node3</title>
<path fill="none" stroke="midnightblue" d="M341.801,-281.83C359.464,-312.871 403.948,-383.119 462,-417.5 465.71,-419.697 469.635,-421.643 473.691,-423.366"/>
<polygon fill="midnightblue" stroke="midnightblue" points="472.76,-426.756 483.352,-426.997 475.222,-420.203 472.76,-426.756"/>
</g>
<!-- Node4 -->
<g id="node4" class="node"><title>Node4</title>
<g id="a_node4"><a xlink:href="../../d4/de4/classnars_1_1inference_1_1UtilityFunctions_a8abd4e228bb1ac62df2efdf4487ff34d.html#a8abd4e228bb1ac62df2efdf4487ff34d" target="_top" xlink:title="A function where the output is the arithmetic average the inputs. ">
<polygon fill="none" stroke="black" points="465,-389 465,-408 645,-408 645,-389 465,-389"/>
<text text-anchor="middle" x="555" y="-396" font-family="Helvetica,sans-Serif" font-size="10.00">nars.inference.UtilityFunctions.aveAri</text>
</a>
</g>
</g>
<!-- Node2&#45;&gt;Node4 -->
<g id="edge3" class="edge"><title>Node2&#45;&gt;Node4</title>
<path fill="none" stroke="midnightblue" d="M345.977,-281.696C367.122,-306.365 412.548,-354.846 462,-379.5 466.835,-381.91 471.959,-384.015 477.216,-385.853"/>
<polygon fill="midnightblue" stroke="midnightblue" points="476.2,-389.202 486.79,-388.881 478.311,-382.528 476.2,-389.202"/>
</g>
<!-- Node5 -->
<g id="node5" class="node"><title>Node5</title>
<g id="a_node5"><a xlink:href="../../d8/df4/classnars_1_1storage_1_1Memory_afb74806ef37665d392a86dce2e3c6546.html#afb74806ef37665d392a86dce2e3c6546" target="_top" xlink:title="The selected TermLink. ">
<polygon fill="none" stroke="black" points="476,-339.5 476,-369.5 634,-369.5 634,-339.5 476,-339.5"/>
<text text-anchor="start" x="484" y="-357.5" font-family="Helvetica,sans-Serif" font-size="10.00">nars.storage.Memory.getCurrent</text>
<text text-anchor="middle" x="555" y="-346.5" font-family="Helvetica,sans-Serif" font-size="10.00">BeliefLink</text>
</a>
</g>
</g>
<!-- Node2&#45;&gt;Node5 -->
<g id="edge4" class="edge"><title>Node2&#45;&gt;Node5</title>
<path fill="none" stroke="midnightblue" d="M360.402,-281.569C385.949,-295.422 425.733,-315.825 462,-329.5 468.451,-331.933 475.239,-334.235 482.083,-336.386"/>
<polygon fill="midnightblue" stroke="midnightblue" points="481.532,-339.877 492.118,-339.427 483.562,-333.177 481.532,-339.877"/>
</g>
<!-- Node6 -->
<g id="node6" class="node"><title>Node6</title>
<g id="a_node6"><a xlink:href="../../d8/df4/classnars_1_1storage_1_1Memory_a26eda4f00b333b706b4e3d069fdf1508.html#a26eda4f00b333b706b4e3d069fdf1508" target="_top" xlink:title="The selected Task. ">
<polygon fill="none" stroke="black" points="465.5,-301 465.5,-320 644.5,-320 644.5,-301 465.5,-301"/>
<text text-anchor="middle" x="555" y="-308" font-family="Helvetica,sans-Serif" font-size="10.00">nars.storage.Memory.getCurrentTask</text>
</a>
</g>
</g>
<!-- Node2&#45;&gt;Node6 -->
<g id="edge5" class="edge"><title>Node2&#45;&gt;Node6</title>
<path fill="none" stroke="midnightblue" d="M408.767,-281.519C437.419,-287.237 469.588,-293.656 496.355,-298.997"/>
<polygon fill="midnightblue" stroke="midnightblue" points="495.838,-302.463 506.33,-300.988 497.208,-295.598 495.838,-302.463"/>
</g>
<!-- Node7 -->
<g id="node7" class="node"><title>Node7</title>
<g id="a_node7"><a xlink:href="../../d8/df4/classnars_1_1storage_1_1Memory_ab9958cfc601557bc69b0cd9c89f58cf0.html#ab9958cfc601557bc69b0cd9c89f58cf0" target="_top" xlink:title="The selected TaskLink. ">
<polygon fill="none" stroke="black" points="476,-251.5 476,-281.5 634,-281.5 634,-251.5 476,-251.5"/>
<text text-anchor="start" x="484" y="-269.5" font-family="Helvetica,sans-Serif" font-size="10.00">nars.storage.Memory.getCurrent</text>
<text text-anchor="middle" x="555" y="-258.5" font-family="Helvetica,sans-Serif" font-size="10.00">TaskLink</text>
</a>
</g>
</g>
<!-- Node2&#45;&gt;Node7 -->
<g id="edge6" class="edge"><title>Node2&#45;&gt;Node7</title>
<path fill="none" stroke="midnightblue" d="M426.053,-266.5C439.166,-266.5 452.621,-266.5 465.651,-266.5"/>
<polygon fill="midnightblue" stroke="midnightblue" points="465.995,-270 475.995,-266.5 465.995,-263 465.995,-270"/>
</g>
<!-- Node8 -->
<g id="node8" class="node"><title>Node8</title>
<g id="a_node8"><a xlink:href="../../d1/dd1/classnars_1_1entity_1_1Item_adbb21c1891722e30c1d6cfaf5fee18ee.html#adbb21c1891722e30c1d6cfaf5fee18ee" target="_top" xlink:title="Get durability value. ">
<polygon fill="none" stroke="black" points="483.5,-213 483.5,-232 626.5,-232 626.5,-213 483.5,-213"/>
<text text-anchor="middle" x="555" y="-220" font-family="Helvetica,sans-Serif" font-size="10.00">nars.entity.Item.getDurability</text>
</a>
</g>
</g>
<!-- Node2&#45;&gt;Node8 -->
<g id="edge7" class="edge"><title>Node2&#45;&gt;Node8</title>
<path fill="none" stroke="midnightblue" d="M408.767,-251.481C437.419,-245.763 469.588,-239.344 496.355,-234.003"/>
<polygon fill="midnightblue" stroke="midnightblue" points="497.208,-237.402 506.33,-232.012 495.838,-230.537 497.208,-237.402"/>
</g>
<!-- Node10 -->
<g id="node10" class="node"><title>Node10</title>
<g id="a_node10"><a xlink:href="../../d1/dd1/classnars_1_1entity_1_1Item_a97b35888ceaad90e7a428701051c51d7.html#a97b35888ceaad90e7a428701051c51d7" target="_top" xlink:title="Get priority value. ">
<polygon fill="none" stroke="black" points="489,-175 489,-194 621,-194 621,-175 489,-175"/>
<text text-anchor="middle" x="555" y="-182" font-family="Helvetica,sans-Serif" font-size="10.00">nars.entity.Item.getPriority</text>
</a>
</g>
</g>
<!-- Node2&#45;&gt;Node10 -->
<g id="edge9" class="edge"><title>Node2&#45;&gt;Node10</title>
<path fill="none" stroke="midnightblue" d="M359.247,-251.46C384.615,-237.23 424.858,-216.211 462,-203.5 469.874,-200.805 478.265,-198.43 486.654,-196.353"/>
<polygon fill="midnightblue" stroke="midnightblue" points="487.532,-199.742 496.469,-194.052 485.934,-192.927 487.532,-199.742"/>
</g>
<!-- Node12 -->
<g id="node12" class="node"><title>Node12</title>
<g id="a_node12"><a xlink:href="../../d1/dd1/classnars_1_1entity_1_1Item_a9324e448bf1bc9f45c3b8e189450a1bf.html#a9324e448bf1bc9f45c3b8e189450a1bf" target="_top" xlink:title="Increase priority value. ">
<polygon fill="none" stroke="black" points="489.5,-137 489.5,-156 620.5,-156 620.5,-137 489.5,-137"/>
<text text-anchor="middle" x="555" y="-144" font-family="Helvetica,sans-Serif" font-size="10.00">nars.entity.Item.incPriority</text>
</a>
</g>
</g>
<!-- Node2&#45;&gt;Node12 -->
<g id="edge11" class="edge"><title>Node2&#45;&gt;Node12</title>
<path fill="none" stroke="midnightblue" d="M361.19,-251.261C380.331,-240.094 405.872,-223.9 426,-206.5 444.345,-190.641 441.04,-177.695 462,-165.5 467.458,-162.324 473.37,-159.675 479.473,-157.464"/>
<polygon fill="midnightblue" stroke="midnightblue" points="480.736,-160.735 489.183,-154.341 478.592,-154.071 480.736,-160.735"/>
</g>
<!-- Node9 -->
<g id="node9" class="node"><title>Node9</title>
<g id="a_node9"><a xlink:href="../../db/d8e/classnars_1_1entity_1_1BudgetValue_ab0e0dc2172d3fab6390670acb68da1a6.html#ab0e0dc2172d3fab6390670acb68da1a6" target="_top" xlink:title="Get durability value. ">
<polygon fill="none" stroke="black" points="684,-218.5 684,-248.5 821,-248.5 821,-218.5 684,-218.5"/>
<text text-anchor="start" x="692" y="-236.5" font-family="Helvetica,sans-Serif" font-size="10.00">nars.entity.BudgetValue.get</text>
<text text-anchor="middle" x="752.5" y="-225.5" font-family="Helvetica,sans-Serif" font-size="10.00">Durability</text>
</a>
</g>
</g>
<!-- Node8&#45;&gt;Node9 -->
<g id="edge8" class="edge"><title>Node8&#45;&gt;Node9</title>
<path fill="none" stroke="midnightblue" d="M626.58,-226.471C641.922,-227.334 658.234,-228.252 673.833,-229.13"/>
<polygon fill="midnightblue" stroke="midnightblue" points="673.782,-232.633 683.963,-229.7 674.176,-225.644 673.782,-232.633"/>
</g>
<!-- Node11 -->
<g id="node11" class="node"><title>Node11</title>
<g id="a_node11"><a xlink:href="../../db/d8e/classnars_1_1entity_1_1BudgetValue_a1e7b6826531f03f792f3516ce0e97ac3.html#a1e7b6826531f03f792f3516ce0e97ac3" target="_top" xlink:title="Get priority value. ">
<polygon fill="none" stroke="black" points="684,-169.5 684,-199.5 821,-199.5 821,-169.5 684,-169.5"/>
<text text-anchor="start" x="692" y="-187.5" font-family="Helvetica,sans-Serif" font-size="10.00">nars.entity.BudgetValue.get</text>
<text text-anchor="middle" x="752.5" y="-176.5" font-family="Helvetica,sans-Serif" font-size="10.00">Priority</text>
</a>
</g>
</g>
<!-- Node10&#45;&gt;Node11 -->
<g id="edge10" class="edge"><title>Node10&#45;&gt;Node11</title>
<path fill="none" stroke="midnightblue" d="M621.099,-184.5C637.905,-184.5 656.166,-184.5 673.555,-184.5"/>
<polygon fill="midnightblue" stroke="midnightblue" points="673.674,-188 683.674,-184.5 673.674,-181 673.674,-188"/>
</g>
<!-- Node13 -->
<g id="node13" class="node"><title>Node13</title>
<g id="a_node13"><a xlink:href="../../db/d8e/classnars_1_1entity_1_1BudgetValue_a088e64163126211239b6afd25a9cdca3.html#a088e64163126211239b6afd25a9cdca3" target="_top" xlink:title="Increase priority value by a percentage of the remaining range. ">
<polygon fill="none" stroke="black" points="684,-120.5 684,-150.5 821,-150.5 821,-120.5 684,-120.5"/>
<text text-anchor="start" x="692" y="-138.5" font-family="Helvetica,sans-Serif" font-size="10.00">nars.entity.BudgetValue.inc</text>
<text text-anchor="middle" x="752.5" y="-127.5" font-family="Helvetica,sans-Serif" font-size="10.00">Priority</text>
</a>
</g>
</g>
<!-- Node12&#45;&gt;Node13 -->
<g id="edge12" class="edge"><title>Node12&#45;&gt;Node13</title>
<path fill="none" stroke="midnightblue" d="M620.556,-142.868C637.57,-141.91 656.107,-140.867 673.737,-139.875"/>
<polygon fill="midnightblue" stroke="midnightblue" points="674.207,-143.355 683.994,-139.298 673.814,-136.366 674.207,-143.355"/>
</g>
<!-- Node14 -->
<g id="node14" class="node"><title>Node14</title>
<g id="a_node14"><a xlink:href="../../d4/de4/classnars_1_1inference_1_1UtilityFunctions_a24093a77b49f21322e62c9bed7ff5ee2.html#a24093a77b49f21322e62c9bed7ff5ee2" target="_top" xlink:title="A function where the output is disjunctively determined by the inputs. ">
<polygon fill="none" stroke="black" points="857,-126 857,-145 1018,-145 1018,-126 857,-126"/>
<text text-anchor="middle" x="937.5" y="-133" font-family="Helvetica,sans-Serif" font-size="10.00">nars.inference.UtilityFunctions.or</text>
</a>
</g>
</g>
<!-- Node13&#45;&gt;Node14 -->
<g id="edge13" class="edge"><title>Node13&#45;&gt;Node14</title>
<path fill="none" stroke="midnightblue" d="M821.123,-135.5C829.465,-135.5 838.092,-135.5 846.7,-135.5"/>
<polygon fill="midnightblue" stroke="midnightblue" points="846.776,-139 856.776,-135.5 846.776,-132 846.776,-139"/>
</g>
<!-- Node17 -->
<g id="node17" class="node"><title>Node17</title>
<g id="a_node17"><a xlink:href="../../d4/de4/classnars_1_1inference_1_1UtilityFunctions_a7649e37bb61cac9b8a2601fdff3a5f7a.html#a7649e37bb61cac9b8a2601fdff3a5f7a" target="_top" xlink:title="A function where the output is the geometric average the inputs. ">
<polygon fill="none" stroke="black" points="462,-99 462,-118 648,-118 648,-99 462,-99"/>
<text text-anchor="middle" x="555" y="-106" font-family="Helvetica,sans-Serif" font-size="10.00">nars.inference.UtilityFunctions.aveGeo</text>
</a>
</g>
</g>
<!-- Node16&#45;&gt;Node17 -->
<g id="edge16" class="edge"><title>Node16&#45;&gt;Node17</title>
<path fill="none" stroke="midnightblue" d="M421.281,-95.2582C431.279,-96.2557 441.535,-97.279 451.7,-98.2932"/>
<polygon fill="midnightblue" stroke="midnightblue" points="451.524,-101.793 461.822,-99.3031 452.219,-94.8275 451.524,-101.793"/>
</g>
<!-- Node18 -->
<g id="node18" class="node"><title>Node18</title>
<g id="a_node18"><a xlink:href="../../d3/db8/classnars_1_1entity_1_1TruthValue_a68ca7d92e9ea20d2a9a9f578ad7b681c.html#a68ca7d92e9ea20d2a9a9f578ad7b681c" target="_top" xlink:title="Get the confidence value. ">
<polygon fill="none" stroke="black" points="490.5,-49.5 490.5,-79.5 619.5,-79.5 619.5,-49.5 490.5,-49.5"/>
<text text-anchor="start" x="498.5" y="-67.5" font-family="Helvetica,sans-Serif" font-size="10.00">nars.entity.TruthValue.get</text>
<text text-anchor="middle" x="555" y="-56.5" font-family="Helvetica,sans-Serif" font-size="10.00">Confidence</text>
</a>
</g>
</g>
<!-- Node16&#45;&gt;Node18 -->
<g id="edge17" class="edge"><title>Node16&#45;&gt;Node18</title>
<path fill="none" stroke="midnightblue" d="M421.281,-77.7418C440.827,-75.7916 461.357,-73.7433 480.27,-71.8562"/>
<polygon fill="midnightblue" stroke="midnightblue" points="480.693,-75.3315 490.296,-70.8559 479.998,-68.3661 480.693,-75.3315"/>
</g>
<!-- Node19 -->
<g id="node19" class="node"><title>Node19</title>
<g id="a_node19"><a xlink:href="../../d3/db8/classnars_1_1entity_1_1TruthValue_a9eac33f2495441c77911a8581a5bbe61.html#a9eac33f2495441c77911a8581a5bbe61" target="_top" xlink:title="Get the frequency value. ">
<polygon fill="none" stroke="black" points="490.5,-0.5 490.5,-30.5 619.5,-30.5 619.5,-0.5 490.5,-0.5"/>
<text text-anchor="start" x="498.5" y="-18.5" font-family="Helvetica,sans-Serif" font-size="10.00">nars.entity.TruthValue.get</text>
<text text-anchor="middle" x="555" y="-7.5" font-family="Helvetica,sans-Serif" font-size="10.00">Frequency</text>
</a>
</g>
</g>
<!-- Node16&#45;&gt;Node19 -->
<g id="edge18" class="edge"><title>Node16&#45;&gt;Node19</title>
<path fill="none" stroke="midnightblue" d="M371.689,-71.4451C397.078,-61.7062 431.278,-49.1015 462,-39.5 468.824,-37.3673 475.972,-35.2692 483.14,-33.2552"/>
<polygon fill="midnightblue" stroke="midnightblue" points="484.187,-36.5971 492.898,-30.5654 482.327,-29.8488 484.187,-36.5971"/>
</g>
</g>
</svg>
