<?xml version="1.0" encoding="UTF-8" standalone="no"?>
<!DOCTYPE svg PUBLIC "-//W3C//DTD SVG 1.1//EN"
 "http://www.w3.org/Graphics/SVG/1.1/DTD/svg11.dtd">
<!-- Generated by graphviz version 2.38.0 (20140413.2041)
 -->
<!-- Title: nars.entity.Sentence.equals Pages: 1 -->
<svg width="515pt" height="403pt"
 viewBox="0.00 0.00 515.00 402.50" xmlns="http://www.w3.org/2000/svg" xmlns:xlink="http://www.w3.org/1999/xlink">
<g id="graph0" class="graph" transform="scale(1 1) rotate(0) translate(4 398.5)">
<title>nars.entity.Sentence.equals</title>
<!-- Node1 -->
<g id="node1" class="node"><title>Node1</title>
<polygon fill="#bfbfbf" stroke="black" points="0,-172 0,-191 138,-191 138,-172 0,-172"/>
<text text-anchor="middle" x="69" y="-179" font-family="Helvetica,sans-Serif" font-size="10.00">nars.entity.Sentence.equals</text>
</g>
<!-- Node2 -->
<g id="node2" class="node"><title>Node2</title>
<g id="a_node2"><a xlink:href="../../d8/db8/classnars_1_1language_1_1Term_ad85f45a7858737445d5158801774ff5f.html#ad85f45a7858737445d5158801774ff5f" target="_top" xlink:title="Equal terms have identical name, though not necessarily the same reference. ">
<polygon fill="none" stroke="black" points="182.5,-348 182.5,-367 316.5,-367 316.5,-348 182.5,-348"/>
<text text-anchor="middle" x="249.5" y="-355" font-family="Helvetica,sans-Serif" font-size="10.00">nars.language.Term.equals</text>
</a>
</g>
</g>
<!-- Node1&#45;&gt;Node2 -->
<g id="edge1" class="edge"><title>Node1&#45;&gt;Node2</title>
<path fill="none" stroke="midnightblue" d="M76.1373,-191.139C90.9393,-213.878 130.603,-271.854 174,-310.5 188.053,-323.014 205.808,-334.357 220.46,-342.763"/>
<polygon fill="midnightblue" stroke="midnightblue" points="219.132,-346.03 229.57,-347.846 222.543,-339.917 219.132,-346.03"/>
</g>
<!-- Node4 -->
<g id="node4" class="node"><title>Node4</title>
<g id="a_node4"><a xlink:href="../../d3/db8/classnars_1_1entity_1_1TruthValue_a6c90107ab2c878d9527d4330f08ecac8.html#a6c90107ab2c878d9527d4330f08ecac8" target="_top" xlink:title="Compare two truth values. ">
<polygon fill="none" stroke="black" points="177.5,-282 177.5,-301 321.5,-301 321.5,-282 177.5,-282"/>
<text text-anchor="middle" x="249.5" y="-289" font-family="Helvetica,sans-Serif" font-size="10.00">nars.entity.TruthValue.equals</text>
</a>
</g>
</g>
<!-- Node1&#45;&gt;Node4 -->
<g id="edge3" class="edge"><title>Node1&#45;&gt;Node4</title>
<path fill="none" stroke="midnightblue" d="M78.7561,-191.208C95.5163,-209.22 134.033,-247.94 174,-269.5 180.61,-273.066 187.869,-276.121 195.183,-278.719"/>
<polygon fill="midnightblue" stroke="midnightblue" points="194.541,-282.192 205.134,-281.984 196.723,-275.541 194.541,-282.192"/>
</g>
<!-- Node7 -->
<g id="node7" class="node"><title>Node7</title>
<g id="a_node7"><a xlink:href="../../d1/d1e/classnars_1_1entity_1_1Stamp_adb33cdf9f13e1a919f7220cb622e7446.html#adb33cdf9f13e1a919f7220cb622e7446" target="_top" xlink:title="Check if two stamps contains the same content. ">
<polygon fill="none" stroke="black" points="187,-241 187,-260 312,-260 312,-241 187,-241"/>
<text text-anchor="middle" x="249.5" y="-248" font-family="Helvetica,sans-Serif" font-size="10.00">nars.entity.Stamp.equals</text>
</a>
</g>
</g>
<!-- Node1&#45;&gt;Node7 -->
<g id="edge6" class="edge"><title>Node1&#45;&gt;Node7</title>
<path fill="none" stroke="midnightblue" d="M87.9892,-191.183C108.398,-201.881 142.891,-219.099 174,-230.5 181.688,-233.318 189.953,-235.93 198.081,-238.275"/>
<polygon fill="midnightblue" stroke="midnightblue" points="197.308,-241.692 207.88,-240.998 199.182,-234.948 197.308,-241.692"/>
</g>
<!-- Node10 -->
<g id="node10" class="node"><title>Node10</title>
<g id="a_node10"><a xlink:href="../../d6/d25/classnars_1_1entity_1_1Sentence_ad1ded9a02cae3557948d05530cd4d37e.html#ad1ded9a02cae3557948d05530cd4d37e" target="_top" xlink:title="Get the content of the sentence. ">
<polygon fill="none" stroke="black" points="188,-191.5 188,-221.5 311,-221.5 311,-191.5 188,-191.5"/>
<text text-anchor="start" x="196" y="-209.5" font-family="Helvetica,sans-Serif" font-size="10.00">nars.entity.Sentence.get</text>
<text text-anchor="middle" x="249.5" y="-198.5" font-family="Helvetica,sans-Serif" font-size="10.00">Content</text>
</a>
</g>
</g>
<!-- Node1&#45;&gt;Node10 -->
<g id="edge9" class="edge"><title>Node1&#45;&gt;Node10</title>
<path fill="none" stroke="midnightblue" d="M137.992,-191.023C150.897,-192.83 164.432,-194.726 177.43,-196.546"/>
<polygon fill="midnightblue" stroke="midnightblue" points="177.327,-200.066 187.716,-197.987 178.298,-193.134 177.327,-200.066"/>
</g>
<!-- Node11 -->
<g id="node11" class="node"><title>Node11</title>
<g id="a_node11"><a xlink:href="../../d6/d25/classnars_1_1entity_1_1Sentence_a3e0fe978c5d87f921a277fd067982980.html#a3e0fe978c5d87f921a277fd067982980" target="_top" xlink:title="Get the punctuation of the sentence. ">
<polygon fill="none" stroke="black" points="188,-142.5 188,-172.5 311,-172.5 311,-142.5 188,-142.5"/>
<text text-anchor="start" x="196" y="-160.5" font-family="Helvetica,sans-Serif" font-size="10.00">nars.entity.Sentence.get</text>
<text text-anchor="middle" x="249.5" y="-149.5" font-family="Helvetica,sans-Serif" font-size="10.00">Punctuation</text>
</a>
</g>
</g>
<!-- Node1&#45;&gt;Node11 -->
<g id="edge10" class="edge"><title>Node1&#45;&gt;Node11</title>
<path fill="none" stroke="midnightblue" d="M138.247,-172.324C151.139,-170.591 164.65,-168.774 177.62,-167.03"/>
<polygon fill="midnightblue" stroke="midnightblue" points="178.44,-170.451 187.884,-165.65 177.507,-163.514 178.44,-170.451"/>
</g>
<!-- Node12 -->
<g id="node12" class="node"><title>Node12</title>
<g id="a_node12"><a xlink:href="../../d6/d25/classnars_1_1entity_1_1Sentence_ac0ed749c50e55120d5b63219ed7eb082.html#ac0ed749c50e55120d5b63219ed7eb082" target="_top" xlink:title="Get the stamp of the sentence. ">
<polygon fill="none" stroke="black" points="188,-93.5 188,-123.5 311,-123.5 311,-93.5 188,-93.5"/>
<text text-anchor="start" x="196" y="-111.5" font-family="Helvetica,sans-Serif" font-size="10.00">nars.entity.Sentence.get</text>
<text text-anchor="middle" x="249.5" y="-100.5" font-family="Helvetica,sans-Serif" font-size="10.00">Stamp</text>
</a>
</g>
</g>
<!-- Node1&#45;&gt;Node12 -->
<g id="edge11" class="edge"><title>Node1&#45;&gt;Node12</title>
<path fill="none" stroke="midnightblue" d="M88.4692,-171.911C109.019,-161.452 143.368,-144.592 174,-132.5 178.775,-130.615 183.764,-128.763 188.799,-126.977"/>
<polygon fill="midnightblue" stroke="midnightblue" points="190.184,-130.201 198.494,-123.629 187.899,-123.585 190.184,-130.201"/>
</g>
<!-- Node13 -->
<g id="node13" class="node"><title>Node13</title>
<g id="a_node13"><a xlink:href="../../d6/d25/classnars_1_1entity_1_1Sentence_a9f69b4fef64c81abad21404946cd41f9.html#a9f69b4fef64c81abad21404946cd41f9" target="_top" xlink:title="Get the truth value of the sentence. ">
<polygon fill="none" stroke="black" points="188,-44.5 188,-74.5 311,-74.5 311,-44.5 188,-44.5"/>
<text text-anchor="start" x="196" y="-62.5" font-family="Helvetica,sans-Serif" font-size="10.00">nars.entity.Sentence.get</text>
<text text-anchor="middle" x="249.5" y="-51.5" font-family="Helvetica,sans-Serif" font-size="10.00">Truth</text>
</a>
</g>
</g>
<!-- Node1&#45;&gt;Node13 -->
<g id="edge12" class="edge"><title>Node1&#45;&gt;Node13</title>
<path fill="none" stroke="midnightblue" d="M77.5619,-171.95C93.4136,-152.541 132.136,-108.236 174,-83.5 176.866,-81.8064 179.866,-80.2172 182.948,-78.7278"/>
<polygon fill="midnightblue" stroke="midnightblue" points="184.657,-81.7994 192.388,-74.555 181.826,-75.3971 184.657,-81.7994"/>
</g>
<!-- Node14 -->
<g id="node14" class="node"><title>Node14</title>
<g id="a_node14"><a xlink:href="../../d6/d25/classnars_1_1entity_1_1Sentence_ad7f0c103faac9d3ebebbe0e8c5b829ff.html#ad7f0c103faac9d3ebebbe0e8c5b829ff" target="_top" xlink:title="Create a Sentence with the given fields. ">
<polygon fill="none" stroke="black" points="174,-6 174,-25 325,-25 325,-6 174,-6"/>
<text text-anchor="middle" x="249.5" y="-13" font-family="Helvetica,sans-Serif" font-size="10.00">nars.entity.Sentence.Sentence</text>
</a>
</g>
</g>
<!-- Node1&#45;&gt;Node14 -->
<g id="edge13" class="edge"><title>Node1&#45;&gt;Node14</title>
<path fill="none" stroke="midnightblue" d="M73.9467,-171.82C85.2514,-145.359 120.42,-71.344 174,-34.5 176.892,-32.5111 179.976,-30.7304 183.183,-29.136"/>
<polygon fill="midnightblue" stroke="midnightblue" points="184.691,-32.2969 192.483,-25.1179 181.915,-25.871 184.691,-32.2969"/>
</g>
<!-- Node3 -->
<g id="node3" class="node"><title>Node3</title>
<g id="a_node3"><a xlink:href="../../d8/db8/classnars_1_1language_1_1Term_a3aad4654016b8615fd4fa8a26668e1db.html#a3aad4654016b8615fd4fa8a26668e1db" target="_top" xlink:title="Reporting the name of the current Term. ">
<polygon fill="none" stroke="black" points="361,-375 361,-394 507,-394 507,-375 361,-375"/>
<text text-anchor="middle" x="434" y="-382" font-family="Helvetica,sans-Serif" font-size="10.00">nars.language.Term.getName</text>
</a>
</g>
</g>
<!-- Node2&#45;&gt;Node3 -->
<g id="edge2" class="edge"><title>Node2&#45;&gt;Node3</title>
<path fill="none" stroke="midnightblue" d="M314.843,-367.019C329.017,-369.116 344.144,-371.354 358.676,-373.504"/>
<polygon fill="midnightblue" stroke="midnightblue" points="358.219,-376.974 368.623,-374.976 359.243,-370.05 358.219,-376.974"/>
</g>
<!-- Node5 -->
<g id="node5" class="node"><title>Node5</title>
<g id="a_node5"><a xlink:href="../../d3/db8/classnars_1_1entity_1_1TruthValue_a9eac33f2495441c77911a8581a5bbe61.html#a9eac33f2495441c77911a8581a5bbe61" target="_top" xlink:title="Get the frequency value. ">
<polygon fill="none" stroke="black" points="369.5,-325.5 369.5,-355.5 498.5,-355.5 498.5,-325.5 369.5,-325.5"/>
<text text-anchor="start" x="377.5" y="-343.5" font-family="Helvetica,sans-Serif" font-size="10.00">nars.entity.TruthValue.get</text>
<text text-anchor="middle" x="434" y="-332.5" font-family="Helvetica,sans-Serif" font-size="10.00">Frequency</text>
</a>
</g>
</g>
<!-- Node4&#45;&gt;Node5 -->
<g id="edge4" class="edge"><title>Node4&#45;&gt;Node5</title>
<path fill="none" stroke="midnightblue" d="M286.121,-301.064C309.125,-307.24 339.757,-315.465 367.093,-322.804"/>
<polygon fill="midnightblue" stroke="midnightblue" points="366.429,-326.25 376.995,-325.463 368.245,-319.49 366.429,-326.25"/>
</g>
<!-- Node6 -->
<g id="node6" class="node"><title>Node6</title>
<g id="a_node6"><a xlink:href="../../d3/db8/classnars_1_1entity_1_1TruthValue_a68ca7d92e9ea20d2a9a9f578ad7b681c.html#a68ca7d92e9ea20d2a9a9f578ad7b681c" target="_top" xlink:title="Get the confidence value. ">
<polygon fill="none" stroke="black" points="369.5,-276.5 369.5,-306.5 498.5,-306.5 498.5,-276.5 369.5,-276.5"/>
<text text-anchor="start" x="377.5" y="-294.5" font-family="Helvetica,sans-Serif" font-size="10.00">nars.entity.TruthValue.get</text>
<text text-anchor="middle" x="434" y="-283.5" font-family="Helvetica,sans-Serif" font-size="10.00">Confidence</text>
</a>
</g>
</g>
<!-- Node4&#45;&gt;Node6 -->
<g id="edge5" class="edge"><title>Node4&#45;&gt;Node6</title>
<path fill="none" stroke="midnightblue" d="M321.582,-291.5C333.858,-291.5 346.646,-291.5 358.997,-291.5"/>
<polygon fill="midnightblue" stroke="midnightblue" points="359.248,-295 369.248,-291.5 359.248,-288 359.248,-295"/>
</g>
<!-- Node8 -->
<g id="node8" class="node"><title>Node8</title>
<g id="a_node8"><a xlink:href="../../d1/d1e/classnars_1_1entity_1_1Stamp_a7b5d3afaab9fc48e2d4d571b8508970d.html#a7b5d3afaab9fc48e2d4d571b8508970d" target="_top" xlink:title="Convert the evidentialBase into a set. ">
<polygon fill="none" stroke="black" points="374,-238 374,-257 494,-257 494,-238 374,-238"/>
<text text-anchor="middle" x="434" y="-245" font-family="Helvetica,sans-Serif" font-size="10.00">nars.entity.Stamp.toSet</text>
</a>
</g>
</g>
<!-- Node7&#45;&gt;Node8 -->
<g id="edge7" class="edge"><title>Node7&#45;&gt;Node8</title>
<path fill="none" stroke="midnightblue" d="M312.032,-249.489C328.571,-249.217 346.572,-248.921 363.511,-248.642"/>
<polygon fill="midnightblue" stroke="midnightblue" points="363.957,-252.136 373.898,-248.472 363.841,-245.136 363.957,-252.136"/>
</g>
<!-- Node9 -->
<g id="node9" class="node"><title>Node9</title>
<g id="a_node9"><a xlink:href="../../d1/d1e/classnars_1_1entity_1_1Stamp_a959f21fb20f72cfd277d994332e862c3.html#a959f21fb20f72cfd277d994332e862c3" target="_top" xlink:title="Generate a new stamp, with a new serial number, for a new Task. ">
<polygon fill="none" stroke="black" points="371.5,-200 371.5,-219 496.5,-219 496.5,-200 371.5,-200"/>
<text text-anchor="middle" x="434" y="-207" font-family="Helvetica,sans-Serif" font-size="10.00">nars.entity.Stamp.Stamp</text>
</a>
</g>
</g>
<!-- Node7&#45;&gt;Node9 -->
<g id="edge8" class="edge"><title>Node7&#45;&gt;Node9</title>
<path fill="none" stroke="midnightblue" d="M292.828,-240.991C318.993,-235.113 352.776,-227.523 380.621,-221.267"/>
<polygon fill="midnightblue" stroke="midnightblue" points="381.596,-224.636 390.586,-219.029 380.062,-217.806 381.596,-224.636"/>
</g>
<!-- Node15 -->
<g id="node15" class="node"><title>Node15</title>
<g id="a_node15"><a xlink:href="../../d8/db8/classnars_1_1language_1_1Term_a6ad164dd053a9cc808bcd6a2d741a775.html#a6ad164dd053a9cc808bcd6a2d741a775" target="_top" xlink:title="Blank method to be override in CompoundTerm. ">
<polygon fill="none" stroke="black" points="365,-0.5 365,-30.5 503,-30.5 503,-0.5 365,-0.5"/>
<text text-anchor="start" x="373" y="-18.5" font-family="Helvetica,sans-Serif" font-size="10.00">nars.language.Term.rename</text>
<text text-anchor="middle" x="434" y="-7.5" font-family="Helvetica,sans-Serif" font-size="10.00">Variables</text>
</a>
</g>
</g>
<!-- Node14&#45;&gt;Node15 -->
<g id="edge14" class="edge"><title>Node14&#45;&gt;Node15</title>
<path fill="none" stroke="midnightblue" d="M325.256,-15.5C334.973,-15.5 344.948,-15.5 354.72,-15.5"/>
<polygon fill="midnightblue" stroke="midnightblue" points="354.812,-19.0001 364.812,-15.5 354.812,-12.0001 354.812,-19.0001"/>
</g>
</g>
</svg>
