<?xml version="1.0" encoding="UTF-8" standalone="no"?>
<!DOCTYPE svg PUBLIC "-//W3C//DTD SVG 1.1//EN"
 "http://www.w3.org/Graphics/SVG/1.1/DTD/svg11.dtd">
<!-- Generated by graphviz version 2.38.0 (20140413.2041)
 -->
<!-- Title: nars.entity.Sentence.containQueryVar Pages: 1 -->
<!--zoomable 137 -->
<svg id="main" version="1.1" xmlns="http://www.w3.org/2000/svg" xmlns:xlink="http://www.w3.org/1999/xlink" xml:space="preserve" onload="init(evt)">
<style type="text/css"><![CDATA[
.edge:hover path { stroke: red; }
.edge:hover polygon { stroke: red; fill: red; }
]]></style>
<script type="text/javascript"><![CDATA[
var edges = document.getElementsByTagName('g');
if (edges && edges.length) {
  for (var i=0;i<edges.length;i++) {
    if (edges[i].id.substr(0,4)=='edge') {
      edges[i].setAttribute('class','edge');
    }
  }
}
]]></script>
        <defs>
                <circle id="rim" cx="0" cy="0" r="7"/>
                <circle id="rim2" cx="0" cy="0" r="3.5"/>
                <g id="zoomPlus">
                        <use xlink:href="#rim" fill="#404040">
                                <set attributeName="fill" to="#808080" begin="zoomplus.mouseover" end="zoomplus.mouseout"/>
                        </use>
                        <path d="M-4,0h8M0,-4v8" fill="none" stroke="white" stroke-width="1.5" pointer-events="none"/>
                </g>
                <g id="zoomMin">
                        <use xlink:href="#rim" fill="#404040">
                                <set attributeName="fill" to="#808080" begin="zoomminus.mouseover" end="zoomminus.mouseout"/>
                        </use>
                        <path d="M-4,0h8" fill="none" stroke="white" stroke-width="1.5" pointer-events="none"/>
                </g>
                <g id="dirArrow">
                        <path fill="none" stroke="white" stroke-width="1.5" d="M0,-3.0v7 M-2.5,-0.5L0,-3.0L2.5,-0.5"/>
                </g>
               <g id="resetDef">
                       <use xlink:href="#rim2" fill="#404040">
                               <set attributeName="fill" to="#808080" begin="reset.mouseover" end="reset.mouseout"/>
                       </use>
               </g>
        </defs>

<script type="text/javascript">
var viewWidth = 2765;
var viewHeight = 137;
var sectionId = 'dynsection-1';
</script>
<script xlink:href="../../svgpan.js"/>
<svg id="graph" class="graph">
<g id="viewport">
<title>nars.entity.Sentence.containQueryVar</title>
<!-- Node1 -->
<g id="node1" class="node"><title>Node1</title>
<polygon fill="#bfbfbf" stroke="black" points="0,-53.5 0,-83.5 141,-83.5 141,-53.5 0,-53.5"/>
<text text-anchor="start" x="8" y="-71.5" font-family="Helvetica,sans-Serif" font-size="10.00">nars.entity.Sentence.contain</text>
<text text-anchor="middle" x="70.5" y="-60.5" font-family="Helvetica,sans-Serif" font-size="10.00">QueryVar</text>
</g>
<!-- Node2 -->
<g id="node2" class="node"><title>Node2</title>
<g id="a_node2"><a xlink:href="../../d4/de9/classnars_1_1inference_1_1LocalRules_a91eadfda9f647cd8e799b4f982e14fca.html#a91eadfda9f647cd8e799b4f982e14fca" target="_top" xlink:title="Evaluate the quality of the judgment as a solution to a problem. ">
<polygon fill="none" stroke="black" points="177,-53.5 177,-83.5 344,-83.5 344,-53.5 177,-53.5"/>
<text text-anchor="start" x="185" y="-71.5" font-family="Helvetica,sans-Serif" font-size="10.00">nars.inference.LocalRules.solution</text>
<text text-anchor="middle" x="260.5" y="-60.5" font-family="Helvetica,sans-Serif" font-size="10.00">Quality</text>
</a>
</g>
</g>
<!-- Node1&#45;&gt;Node2 -->
<g id="edge1" class="edge"><title>Node1&#45;&gt;Node2</title>
<path fill="none" stroke="midnightblue" d="M151.41,-68.5C159.828,-68.5 168.4,-68.5 176.848,-68.5"/>
<polygon fill="midnightblue" stroke="midnightblue" points="151.237,-65.0001 141.237,-68.5 151.237,-72.0001 151.237,-65.0001"/>
</g>
<!-- Node3 -->
<g id="node3" class="node"><title>Node3</title>
<g id="a_node3"><a xlink:href="../../d4/d22/classnars_1_1entity_1_1Concept_a3da4b5320acef5ecbcb256090e4aff94.html#a3da4b5320acef5ecbcb256090e4aff94" target="_top" xlink:title="Evaluate a query against beliefs (and desires in the future) ">
<polygon fill="none" stroke="black" points="627,-97 627,-116 776,-116 776,-97 627,-97"/>
<text text-anchor="middle" x="701.5" y="-104" font-family="Helvetica,sans-Serif" font-size="10.00">nars.entity.Concept.evaluation</text>
</a>
</g>
</g>
<!-- Node2&#45;&gt;Node3 -->
<g id="edge2" class="edge"><title>Node2&#45;&gt;Node3</title>
<path fill="none" stroke="midnightblue" d="M354.37,-84.2929C363.019,-85.4912 371.663,-86.5869 380,-87.5 464.36,-96.7402 561.738,-101.71 626.812,-104.22"/>
<polygon fill="midnightblue" stroke="midnightblue" points="354.627,-80.7942 344.232,-82.844 353.636,-87.7237 354.627,-80.7942"/>
</g>
<!-- Node16 -->
<g id="node16" class="node"><title>Node16</title>
<g id="a_node16"><a xlink:href="../../d7/d11/classnars_1_1inference_1_1BudgetFunctions_ad2933ccc8d786f0cea9d8f561814cbf9.html#ad2933ccc8d786f0cea9d8f561814cbf9" target="_top" xlink:title="Evaluate the quality of a belief as a solution to a problem, then reward the belief and de&#45;prioritize...">
<polygon fill="none" stroke="black" points="380,-59 380,-78 591,-78 591,-59 380,-59"/>
<text text-anchor="middle" x="485.5" y="-66" font-family="Helvetica,sans-Serif" font-size="10.00">nars.inference.BudgetFunctions.solutionEval</text>
</a>
</g>
</g>
<!-- Node2&#45;&gt;Node16 -->
<g id="edge17" class="edge"><title>Node2&#45;&gt;Node16</title>
<path fill="none" stroke="midnightblue" d="M354.423,-68.5C362.859,-68.5 371.44,-68.5 379.967,-68.5"/>
<polygon fill="midnightblue" stroke="midnightblue" points="354.22,-65.0001 344.22,-68.5 354.22,-72.0001 354.22,-65.0001"/>
</g>
<!-- Node17 -->
<g id="node17" class="node"><title>Node17</title>
<g id="a_node17"><a xlink:href="../../d4/de9/classnars_1_1inference_1_1LocalRules_a3ecf859c238ad7f0c44c45e3e5df0081.html#a3ecf859c238ad7f0c44c45e3e5df0081" target="_top" xlink:title="Check if a Sentence provide a better answer to a Question or Goal. ">
<polygon fill="none" stroke="black" points="629.5,-44.5 629.5,-74.5 773.5,-74.5 773.5,-44.5 629.5,-44.5"/>
<text text-anchor="start" x="637.5" y="-62.5" font-family="Helvetica,sans-Serif" font-size="10.00">nars.inference.LocalRules.try</text>
<text text-anchor="middle" x="701.5" y="-51.5" font-family="Helvetica,sans-Serif" font-size="10.00">Solution</text>
</a>
</g>
</g>
<!-- Node2&#45;&gt;Node17 -->
<g id="edge26" class="edge"><title>Node2&#45;&gt;Node17</title>
<path fill="none" stroke="midnightblue" d="M354.32,-52.1804C362.98,-51.0922 371.64,-50.1659 380,-49.5 473.482,-42.0532 497.319,-45.2312 591,-49.5 603.395,-50.0648 616.555,-50.9875 629.293,-52.0499"/>
<polygon fill="midnightblue" stroke="midnightblue" points="353.625,-48.7417 344.172,-53.5263 354.546,-55.681 353.625,-48.7417"/>
</g>
<!-- Node4 -->
<g id="node4" class="node"><title>Node4</title>
<g id="a_node4"><a xlink:href="../../d4/d22/classnars_1_1entity_1_1Concept_a40cddcc82ee28a1cf5b1f4bc14e2b078.html#a40cddcc82ee28a1cf5b1f4bc14e2b078" target="_top" xlink:title="To accept a new judgment as isBelief, and check for revisions and solutions. ">
<polygon fill="none" stroke="black" points="822,-93.5 822,-123.5 962,-123.5 962,-93.5 822,-93.5"/>
<text text-anchor="start" x="830" y="-111.5" font-family="Helvetica,sans-Serif" font-size="10.00">nars.entity.Concept.process</text>
<text text-anchor="middle" x="892" y="-100.5" font-family="Helvetica,sans-Serif" font-size="10.00">Judgment</text>
</a>
</g>
</g>
<!-- Node3&#45;&gt;Node4 -->
<g id="edge3" class="edge"><title>Node3&#45;&gt;Node4</title>
<path fill="none" stroke="midnightblue" d="M786.53,-107.392C798.384,-107.517 810.455,-107.645 821.983,-107.768"/>
<polygon fill="midnightblue" stroke="midnightblue" points="786.225,-103.888 776.189,-107.282 786.151,-110.888 786.225,-103.888"/>
</g>
<!-- Node15 -->
<g id="node15" class="node"><title>Node15</title>
<g id="a_node15"><a xlink:href="../../d4/d22/classnars_1_1entity_1_1Concept_a3900248991e7adb57e82231312337f8f.html#a3900248991e7adb57e82231312337f8f" target="_top" xlink:title="To answer a question by existing beliefs. ">
<polygon fill="none" stroke="black" points="822,-44.5 822,-74.5 962,-74.5 962,-44.5 822,-44.5"/>
<text text-anchor="start" x="830" y="-62.5" font-family="Helvetica,sans-Serif" font-size="10.00">nars.entity.Concept.process</text>
<text text-anchor="middle" x="892" y="-51.5" font-family="Helvetica,sans-Serif" font-size="10.00">Question</text>
</a>
</g>
</g>
<!-- Node3&#45;&gt;Node15 -->
<g id="edge15" class="edge"><title>Node3&#45;&gt;Node15</title>
<path fill="none" stroke="midnightblue" d="M750.389,-94.5595C774.781,-88.4776 804.691,-81.02 830.645,-74.5488"/>
<polygon fill="midnightblue" stroke="midnightblue" points="749.502,-91.1734 740.646,-96.9888 751.196,-97.9655 749.502,-91.1734"/>
</g>
<!-- Node5 -->
<g id="node5" class="node"><title>Node5</title>
<g id="a_node5"><a xlink:href="../../d4/d22/classnars_1_1entity_1_1Concept_a9ea7c3154932d7a736c105eb55daeb5c.html#a9ea7c3154932d7a736c105eb55daeb5c" target="_top" xlink:title="Directly process a new task. ">
<polygon fill="none" stroke="black" points="1025,-71.5 1025,-101.5 1154,-101.5 1154,-71.5 1025,-71.5"/>
<text text-anchor="start" x="1033" y="-89.5" font-family="Helvetica,sans-Serif" font-size="10.00">nars.entity.Concept.direct</text>
<text text-anchor="middle" x="1089.5" y="-78.5" font-family="Helvetica,sans-Serif" font-size="10.00">Process</text>
</a>
</g>
</g>
<!-- Node4&#45;&gt;Node5 -->
<g id="edge4" class="edge"><title>Node4&#45;&gt;Node5</title>
<path fill="none" stroke="midnightblue" d="M972.386,-99.5665C989.875,-97.5985 1008.18,-95.5389 1024.94,-93.6522"/>
<polygon fill="midnightblue" stroke="midnightblue" points="971.747,-96.1163 962.201,-100.713 972.53,-103.072 971.747,-96.1163"/>
</g>
<!-- Node6 -->
<g id="node6" class="node"><title>Node6</title>
<g id="a_node6"><a xlink:href="../../d8/df4/classnars_1_1storage_1_1Memory_a175200c1f4c182222d0e66439b6e53a0.html#a175200c1f4c182222d0e66439b6e53a0" target="_top" xlink:title="Immediate processing of a new task, in constant time Local processing, in one concept only...">
<polygon fill="none" stroke="black" points="1207,-71.5 1207,-101.5 1364,-101.5 1364,-71.5 1207,-71.5"/>
<text text-anchor="start" x="1215" y="-89.5" font-family="Helvetica,sans-Serif" font-size="10.00">nars.storage.Memory.immediate</text>
<text text-anchor="middle" x="1285.5" y="-78.5" font-family="Helvetica,sans-Serif" font-size="10.00">Process</text>
</a>
</g>
</g>
<!-- Node5&#45;&gt;Node6 -->
<g id="edge5" class="edge"><title>Node5&#45;&gt;Node6</title>
<path fill="none" stroke="midnightblue" d="M1164.09,-86.5C1178.1,-86.5 1192.81,-86.5 1206.95,-86.5"/>
<polygon fill="midnightblue" stroke="midnightblue" points="1164.02,-83.0001 1154.02,-86.5 1164.02,-90.0001 1164.02,-83.0001"/>
</g>
<!-- Node7 -->
<g id="node7" class="node"><title>Node7</title>
<g id="a_node7"><a xlink:href="../../d8/df4/classnars_1_1storage_1_1Memory_a105e44a3504921cc1036eb979b85d9f0.html#a105e44a3504921cc1036eb979b85d9f0" target="_top" xlink:title="Process the newTasks accumulated in the previous workCycle, accept input ones and those that correspo...">
<polygon fill="none" stroke="black" points="1400,-49.5 1400,-79.5 1546,-79.5 1546,-49.5 1400,-49.5"/>
<text text-anchor="start" x="1408" y="-67.5" font-family="Helvetica,sans-Serif" font-size="10.00">nars.storage.Memory.process</text>
<text text-anchor="middle" x="1473" y="-56.5" font-family="Helvetica,sans-Serif" font-size="10.00">NewTask</text>
</a>
</g>
</g>
<!-- Node6&#45;&gt;Node7 -->
<g id="edge6" class="edge"><title>Node6&#45;&gt;Node7</title>
<path fill="none" stroke="midnightblue" d="M1374.12,-76.1079C1382.71,-75.09 1391.35,-74.0651 1399.75,-73.0683"/>
<polygon fill="midnightblue" stroke="midnightblue" points="1373.61,-72.644 1364.09,-77.2975 1374.44,-79.5953 1373.61,-72.644"/>
</g>
<!-- Node14 -->
<g id="node14" class="node"><title>Node14</title>
<g id="a_node14"><a xlink:href="../../d8/df4/classnars_1_1storage_1_1Memory_afe3b4d1bb5fab652ceca53c04773af73.html#afe3b4d1bb5fab652ceca53c04773af73" target="_top" xlink:title="Select a novel task to process. ">
<polygon fill="none" stroke="black" points="1400,-98.5 1400,-128.5 1546,-128.5 1546,-98.5 1400,-98.5"/>
<text text-anchor="start" x="1408" y="-116.5" font-family="Helvetica,sans-Serif" font-size="10.00">nars.storage.Memory.process</text>
<text text-anchor="middle" x="1473" y="-105.5" font-family="Helvetica,sans-Serif" font-size="10.00">NovelTask</text>
</a>
</g>
</g>
<!-- Node6&#45;&gt;Node14 -->
<g id="edge13" class="edge"><title>Node6&#45;&gt;Node14</title>
<path fill="none" stroke="midnightblue" d="M1374.12,-99.254C1382.71,-100.503 1391.35,-101.761 1399.75,-102.984"/>
<polygon fill="midnightblue" stroke="midnightblue" points="1374.49,-95.7709 1364.09,-97.794 1373.49,-102.698 1374.49,-95.7709"/>
</g>
<!-- Node8 -->
<g id="node8" class="node"><title>Node8</title>
<g id="a_node8"><a xlink:href="../../d8/df4/classnars_1_1storage_1_1Memory_a49e2cbc8b78d535f4d69739886ee966a.html#a49e2cbc8b78d535f4d69739886ee966a" target="_top" xlink:title="An atomic working workCycle of the system: process new Tasks, then fire a concept. ">
<polygon fill="none" stroke="black" points="1582,-49.5 1582,-79.5 1715,-79.5 1715,-49.5 1582,-49.5"/>
<text text-anchor="start" x="1590" y="-67.5" font-family="Helvetica,sans-Serif" font-size="10.00">nars.storage.Memory.work</text>
<text text-anchor="middle" x="1648.5" y="-56.5" font-family="Helvetica,sans-Serif" font-size="10.00">Cycle</text>
</a>
</g>
</g>
<!-- Node7&#45;&gt;Node8 -->
<g id="edge7" class="edge"><title>Node7&#45;&gt;Node8</title>
<path fill="none" stroke="midnightblue" d="M1556.12,-64.5C1564.72,-64.5 1573.37,-64.5 1581.76,-64.5"/>
<polygon fill="midnightblue" stroke="midnightblue" points="1556.07,-61.0001 1546.07,-64.5 1556.07,-68.0001 1556.07,-61.0001"/>
</g>
<!-- Node9 -->
<g id="node9" class="node"><title>Node9</title>
<g id="a_node9"><a xlink:href="../../dd/da5/classnars_1_1storage_1_1Memory_1_1ReasonerBatch_acc60dec23da774957a85362ed6d7448b.html#acc60dec23da774957a85362ed6d7448b" target="_top" xlink:title="nars.storage.Memory.Reasoner\lBatch.doTick">
<polygon fill="none" stroke="black" points="1751,-49.5 1751,-79.5 1905,-79.5 1905,-49.5 1751,-49.5"/>
<text text-anchor="start" x="1759" y="-67.5" font-family="Helvetica,sans-Serif" font-size="10.00">nars.storage.Memory.Reasoner</text>
<text text-anchor="middle" x="1828" y="-56.5" font-family="Helvetica,sans-Serif" font-size="10.00">Batch.doTick</text>
</a>
</g>
</g>
<!-- Node8&#45;&gt;Node9 -->
<g id="edge8" class="edge"><title>Node8&#45;&gt;Node9</title>
<path fill="none" stroke="midnightblue" d="M1725.32,-64.5C1733.79,-64.5 1742.41,-64.5 1750.89,-64.5"/>
<polygon fill="midnightblue" stroke="midnightblue" points="1725.09,-61.0001 1715.09,-64.5 1725.09,-68.0001 1725.09,-61.0001"/>
</g>
<!-- Node10 -->
<g id="node10" class="node"><title>Node10</title>
<g id="a_node10"><a xlink:href="../../dd/da5/classnars_1_1storage_1_1Memory_1_1ReasonerBatch_aed591f05899b98fd9e4ad01836ad0a40.html#aed591f05899b98fd9e4ad01836ad0a40" target="_top" xlink:title="A clock tick. ">
<polygon fill="none" stroke="black" points="1941,-49.5 1941,-79.5 2095,-79.5 2095,-49.5 1941,-49.5"/>
<text text-anchor="start" x="1949" y="-67.5" font-family="Helvetica,sans-Serif" font-size="10.00">nars.storage.Memory.Reasoner</text>
<text text-anchor="middle" x="2018" y="-56.5" font-family="Helvetica,sans-Serif" font-size="10.00">Batch.tick</text>
</a>
</g>
</g>
<!-- Node9&#45;&gt;Node10 -->
<g id="edge9" class="edge"><title>Node9&#45;&gt;Node10</title>
<path fill="none" stroke="midnightblue" d="M1915.42,-64.5C1923.86,-64.5 1932.37,-64.5 1940.7,-64.5"/>
<polygon fill="midnightblue" stroke="midnightblue" points="1915.2,-61.0001 1905.2,-64.5 1915.2,-68.0001 1915.2,-61.0001"/>
</g>
<!-- Node11 -->
<g id="node11" class="node"><title>Node11</title>
<g id="a_node11"><a xlink:href="../../d4/d88/classnars_1_1storage_1_1Memory_1_1NARSBatch_aad99db6cedde9cff2a997db8906ff821.html#aad99db6cedde9cff2a997db8906ff821" target="_top" xlink:title="Run to completion: repeatedly execute NARS working cycle, until Inputs are Finished, or 1000 steps. ">
<polygon fill="none" stroke="black" points="2131,-55 2131,-74 2313,-74 2313,-55 2131,-55"/>
<text text-anchor="middle" x="2222" y="-62" font-family="Helvetica,sans-Serif" font-size="10.00">nars.storage.Memory.NARSBatch.run</text>
</a>
</g>
</g>
<!-- Node10&#45;&gt;Node11 -->
<g id="edge10" class="edge"><title>Node10&#45;&gt;Node11</title>
<path fill="none" stroke="midnightblue" d="M2105.27,-64.5C2113.69,-64.5 2122.25,-64.5 2130.71,-64.5"/>
<polygon fill="midnightblue" stroke="midnightblue" points="2105.08,-61.0001 2095.08,-64.5 2105.08,-68.0001 2105.08,-61.0001"/>
</g>
<!-- Node12 -->
<g id="node12" class="node"><title>Node12</title>
<g id="a_node12"><a xlink:href="../../d4/d88/classnars_1_1storage_1_1Memory_1_1NARSBatch_a416c39463faa161661ed1d12fea03b3c.html#a416c39463faa161661ed1d12fea03b3c" target="_top" xlink:title="non&#45;static equivalent to main(String[]) : run to completion from an input file ">
<polygon fill="none" stroke="black" points="2349,-49.5 2349,-79.5 2531,-79.5 2531,-49.5 2349,-49.5"/>
<text text-anchor="start" x="2357" y="-67.5" font-family="Helvetica,sans-Serif" font-size="10.00">nars.storage.Memory.NARSBatch.run</text>
<text text-anchor="middle" x="2440" y="-56.5" font-family="Helvetica,sans-Serif" font-size="10.00">Inference</text>
</a>
</g>
</g>
<!-- Node11&#45;&gt;Node12 -->
<g id="edge11" class="edge"><title>Node11&#45;&gt;Node12</title>
<path fill="none" stroke="midnightblue" d="M2323.06,-64.5C2331.63,-64.5 2340.27,-64.5 2348.76,-64.5"/>
<polygon fill="midnightblue" stroke="midnightblue" points="2323.04,-61.0001 2313.04,-64.5 2323.04,-68.0001 2323.04,-61.0001"/>
</g>
<!-- Node13 -->
<g id="node13" class="node"><title>Node13</title>
<g id="a_node13"><a xlink:href="../../d4/d88/classnars_1_1storage_1_1Memory_1_1NARSBatch_aa97fcd68270583e60e6bf1b4579d1bdc.html#aa97fcd68270583e60e6bf1b4579d1bdc" target="_top" xlink:title="The entry point of the standalone application. ">
<polygon fill="none" stroke="black" points="2567,-55 2567,-74 2757,-74 2757,-55 2567,-55"/>
<text text-anchor="middle" x="2662" y="-62" font-family="Helvetica,sans-Serif" font-size="10.00">nars.storage.Memory.NARSBatch.main</text>
</a>
</g>
</g>
<!-- Node12&#45;&gt;Node13 -->
<g id="edge12" class="edge"><title>Node12&#45;&gt;Node13</title>
<path fill="none" stroke="midnightblue" d="M2541.37,-64.5C2549.82,-64.5 2558.34,-64.5 2566.74,-64.5"/>
<polygon fill="midnightblue" stroke="midnightblue" points="2541.12,-61.0001 2531.12,-64.5 2541.12,-68.0001 2541.12,-61.0001"/>
</g>
<!-- Node14&#45;&gt;Node8 -->
<g id="edge14" class="edge"><title>Node14&#45;&gt;Node8</title>
<path fill="none" stroke="midnightblue" d="M1537.1,-95.6788C1555.83,-90.3882 1576.16,-84.6478 1594.21,-79.5516"/>
<polygon fill="midnightblue" stroke="midnightblue" points="1536.14,-92.3123 1527.47,-98.3986 1538.05,-99.0488 1536.14,-92.3123"/>
</g>
<!-- Node15&#45;&gt;Node5 -->
<g id="edge16" class="edge"><title>Node15&#45;&gt;Node5</title>
<path fill="none" stroke="midnightblue" d="M972.386,-70.4638C989.875,-72.8791 1008.18,-75.4068 1024.94,-77.7224"/>
<polygon fill="midnightblue" stroke="midnightblue" points="972.586,-66.9583 962.201,-69.0572 971.628,-73.8925 972.586,-66.9583"/>
</g>
<!-- Node16&#45;&gt;Node17 -->
<g id="edge18" class="edge"><title>Node16&#45;&gt;Node17</title>
<path fill="none" stroke="midnightblue" d="M601.596,-63.6595C611.062,-63.2614 620.443,-62.8669 629.44,-62.4885"/>
<polygon fill="midnightblue" stroke="midnightblue" points="601.15,-60.1751 591.306,-64.0923 601.444,-67.1689 601.15,-60.1751"/>
</g>
<!-- Node17&#45;&gt;Node4 -->
<g id="edge19" class="edge"><title>Node17&#45;&gt;Node4</title>
<path fill="none" stroke="midnightblue" d="M770.294,-77.1229C790.917,-82.4837 813.379,-88.3225 833.272,-93.4938"/>
<polygon fill="midnightblue" stroke="midnightblue" points="770.896,-73.6631 760.337,-74.5346 769.135,-80.438 770.896,-73.6631"/>
</g>
<!-- Node17&#45;&gt;Node15 -->
<g id="edge20" class="edge"><title>Node17&#45;&gt;Node15</title>
<path fill="none" stroke="midnightblue" d="M783.83,-59.5C796.488,-59.5 809.464,-59.5 821.819,-59.5"/>
<polygon fill="midnightblue" stroke="midnightblue" points="783.764,-56.0001 773.764,-59.5 783.764,-63.0001 783.764,-56.0001"/>
</g>
<!-- Node18 -->
<g id="node18" class="node"><title>Node18</title>
<g id="a_node18"><a xlink:href="../../d4/de9/classnars_1_1inference_1_1LocalRules_aac1c92950f50edd04d12229a8c992987.html#aac1c92950f50edd04d12229a8c992987" target="_top" xlink:title="The task and belief have the same content. ">
<polygon fill="none" stroke="black" points="812,-6 812,-25 972,-25 972,-6 812,-6"/>
<text text-anchor="middle" x="892" y="-13" font-family="Helvetica,sans-Serif" font-size="10.00">nars.inference.LocalRules.match</text>
</a>
</g>
</g>
<!-- Node17&#45;&gt;Node18 -->
<g id="edge21" class="edge"><title>Node17&#45;&gt;Node18</title>
<path fill="none" stroke="midnightblue" d="M776.695,-42.1813C801.74,-36.3352 828.766,-30.0268 850.248,-25.0124"/>
<polygon fill="midnightblue" stroke="midnightblue" points="775.786,-38.7992 766.844,-44.4808 777.378,-45.6159 775.786,-38.7992"/>
</g>
<!-- Node19 -->
<g id="node19" class="node"><title>Node19</title>
<g id="a_node19"><a xlink:href="../../da/de3/classnars_1_1inference_1_1RuleTables_ac2d01dfdc40bdd47c757cb549217e6e3.html#ac2d01dfdc40bdd47c757cb549217e6e3" target="_top" xlink:title="Entry point of the inference engine. ">
<polygon fill="none" stroke="black" points="1008,-6 1008,-25 1171,-25 1171,-6 1008,-6"/>
<text text-anchor="middle" x="1089.5" y="-13" font-family="Helvetica,sans-Serif" font-size="10.00">nars.inference.RuleTables.reason</text>
</a>
</g>
</g>
<!-- Node18&#45;&gt;Node19 -->
<g id="edge22" class="edge"><title>Node18&#45;&gt;Node19</title>
<path fill="none" stroke="midnightblue" d="M982.499,-15.5C990.962,-15.5 999.507,-15.5 1007.88,-15.5"/>
<polygon fill="midnightblue" stroke="midnightblue" points="982.236,-12.0001 972.236,-15.5 982.235,-19.0001 982.236,-12.0001"/>
</g>
<!-- Node20 -->
<g id="node20" class="node"><title>Node20</title>
<g id="a_node20"><a xlink:href="../../d4/d22/classnars_1_1entity_1_1Concept_ae07576c8466ad65eeb61040e3f71cfc7.html#ae07576c8466ad65eeb61040e3f71cfc7" target="_top" xlink:title="An atomic step in a concept, only called in Memory# processConcept. ">
<polygon fill="none" stroke="black" points="1226,-6 1226,-25 1345,-25 1345,-6 1226,-6"/>
<text text-anchor="middle" x="1285.5" y="-13" font-family="Helvetica,sans-Serif" font-size="10.00">nars.entity.Concept.fire</text>
</a>
</g>
</g>
<!-- Node19&#45;&gt;Node20 -->
<g id="edge23" class="edge"><title>Node19&#45;&gt;Node20</title>
<path fill="none" stroke="midnightblue" d="M1181.46,-15.5C1196.52,-15.5 1211.76,-15.5 1225.75,-15.5"/>
<polygon fill="midnightblue" stroke="midnightblue" points="1181.09,-12.0001 1171.09,-15.5 1181.09,-19.0001 1181.09,-12.0001"/>
</g>
<!-- Node21 -->
<g id="node21" class="node"><title>Node21</title>
<g id="a_node21"><a xlink:href="../../d8/df4/classnars_1_1storage_1_1Memory_a83154b55b922c82b73931d4f22e3a590.html#a83154b55b922c82b73931d4f22e3a590" target="_top" xlink:title="Select a concept to fire. ">
<polygon fill="none" stroke="black" points="1400,-0.5 1400,-30.5 1546,-30.5 1546,-0.5 1400,-0.5"/>
<text text-anchor="start" x="1408" y="-18.5" font-family="Helvetica,sans-Serif" font-size="10.00">nars.storage.Memory.process</text>
<text text-anchor="middle" x="1473" y="-7.5" font-family="Helvetica,sans-Serif" font-size="10.00">Concept</text>
</a>
</g>
</g>
<!-- Node20&#45;&gt;Node21 -->
<g id="edge24" class="edge"><title>Node20&#45;&gt;Node21</title>
<path fill="none" stroke="midnightblue" d="M1355.52,-15.5C1369.93,-15.5 1385.16,-15.5 1399.68,-15.5"/>
<polygon fill="midnightblue" stroke="midnightblue" points="1355.19,-12.0001 1345.19,-15.5 1355.19,-19.0001 1355.19,-12.0001"/>
</g>
<!-- Node21&#45;&gt;Node8 -->
<g id="edge25" class="edge"><title>Node21&#45;&gt;Node8</title>
<path fill="none" stroke="midnightblue" d="M1537.1,-33.3212C1555.83,-38.6118 1576.16,-44.3522 1594.21,-49.4484"/>
<polygon fill="midnightblue" stroke="midnightblue" points="1538.05,-29.9512 1527.47,-30.6014 1536.14,-36.6877 1538.05,-29.9512"/>
</g>
</g>
</svg>
        <g id="navigator" transform="translate(0 0)" fill="#404254">
                <rect fill="#f2f5e9" fill-opacity="0.5" stroke="#606060" stroke-width=".5" x="0" y="0" width="60" height="60"/>
                <use id="zoomplus" xlink:href="#zoomPlus" x="17" y="9" onmousedown="handleZoom(evt,'in')"/>
                <use id="zoomminus" xlink:href="#zoomMin" x="42" y="9" onmousedown="handleZoom(evt,'out')"/>
                <use id="reset" xlink:href="#resetDef" x="30" y="36" onmousedown="handleReset()"/>
                <g id="arrowUp" xlink:href="#dirArrow" transform="translate(30 24)" onmousedown="handlePan(0,-1)">
                  <use xlink:href="#rim" fill="#404040">
                        <set attributeName="fill" to="#808080" begin="arrowUp.mouseover" end="arrowUp.mouseout"/>
                  </use>
                  <path fill="none" stroke="white" stroke-width="1.5" d="M0,-3.0v7 M-2.5,-0.5L0,-3.0L2.5,-0.5"/>
                </g>
                <g id="arrowRight" xlink:href="#dirArrow" transform="rotate(90) translate(36 -43)" onmousedown="handlePan(1,0)">
                  <use xlink:href="#rim" fill="#404040">
                        <set attributeName="fill" to="#808080" begin="arrowRight.mouseover" end="arrowRight.mouseout"/>
                  </use>
                  <path fill="none" stroke="white" stroke-width="1.5" d="M0,-3.0v7 M-2.5,-0.5L0,-3.0L2.5,-0.5"/>
                </g>
                <g id="arrowDown" xlink:href="#dirArrow" transform="rotate(180) translate(-30 -48)" onmousedown="handlePan(0,1)">
                  <use xlink:href="#rim" fill="#404040">
                        <set attributeName="fill" to="#808080" begin="arrowDown.mouseover" end="arrowDown.mouseout"/>
                  </use>
                  <path fill="none" stroke="white" stroke-width="1.5" d="M0,-3.0v7 M-2.5,-0.5L0,-3.0L2.5,-0.5"/>
                </g>
                <g id="arrowLeft" xlink:href="#dirArrow" transform="rotate(270) translate(-36 17)" onmousedown="handlePan(-1,0)">
                  <use xlink:href="#rim" fill="#404040">
                        <set attributeName="fill" to="#808080" begin="arrowLeft.mouseover" end="arrowLeft.mouseout"/>
                  </use>
                  <path fill="none" stroke="white" stroke-width="1.5" d="M0,-3.0v7 M-2.5,-0.5L0,-3.0L2.5,-0.5"/>
                </g>
        </g>
        <svg viewBox="0 0 15 15" width="100%" height="30px" preserveAspectRatio="xMaxYMin meet">
         <g id="arrow_out" transform="scale(0.3 0.3)">
          <a xlink:href="classnars_1_1entity_1_1Sentence_a3664d0b53eca935536d60cd0e3a13256_a3664d0b53eca935536d60cd0e3a13256_icgraph_org.svg" target="_base">
           <rect id="button" ry="5" rx="5" y="6" x="6" height="38" width="38"
                fill="#f2f5e9" fill-opacity="0.5" stroke="#606060" stroke-width="1.0"/>
           <path id="arrow"
             d="M 11.500037,31.436501 C 11.940474,20.09759 22.043105,11.32322 32.158766,21.979434 L 37.068811,17.246167 C 37.068811,17.246167 37.088388,32 37.088388,32 L 22.160133,31.978069 C 22.160133,31.978069 26.997745,27.140456 26.997745,27.140456 C 18.528582,18.264221 13.291696,25.230495 11.500037,31.436501 z"
             style="fill:#404040;"/>
          </a>
         </g>
        </svg>
</svg>
