<?xml version="1.0" encoding="UTF-8" standalone="no"?>
<!DOCTYPE svg PUBLIC "-//W3C//DTD SVG 1.1//EN"
 "http://www.w3.org/Graphics/SVG/1.1/DTD/svg11.dtd">
<!-- Generated by graphviz version 2.38.0 (20140413.2041)
 -->
<!-- Title: nars.entity.Sentence.hashCode Pages: 1 -->
<svg width="525pt" height="108pt"
 viewBox="0.00 0.00 525.00 108.00" xmlns="http://www.w3.org/2000/svg" xmlns:xlink="http://www.w3.org/1999/xlink">
<g id="graph0" class="graph" transform="scale(1 1) rotate(0) translate(4 104)">
<title>nars.entity.Sentence.hashCode</title>
<!-- Node1 -->
<g id="node1" class="node"><title>Node1</title>
<polygon fill="#bfbfbf" stroke="black" points="0,-42.5 0,-61.5 154,-61.5 154,-42.5 0,-42.5"/>
<text text-anchor="middle" x="77" y="-49.5" font-family="Helvetica,sans-Serif" font-size="10.00">nars.entity.Sentence.hashCode</text>
</g>
<!-- Node2 -->
<g id="node2" class="node"><title>Node2</title>
<g id="a_node2"><a xlink:href="../../d8/db8/classnars_1_1language_1_1Term_a932a75d46661c14589d7c924dd03de7b.html#a932a75d46661c14589d7c924dd03de7b" target="_top" xlink:title="Produce a hash code for the term. ">
<polygon fill="none" stroke="black" points="195,-80.5 195,-99.5 345,-99.5 345,-80.5 195,-80.5"/>
<text text-anchor="middle" x="270" y="-87.5" font-family="Helvetica,sans-Serif" font-size="10.00">nars.language.Term.hashCode</text>
</a>
</g>
</g>
<!-- Node1&#45;&gt;Node2 -->
<g id="edge1" class="edge"><title>Node1&#45;&gt;Node2</title>
<path fill="none" stroke="midnightblue" d="M126.197,-61.589C151.97,-66.7165 183.891,-73.0672 211.012,-78.4632"/>
<polygon fill="midnightblue" stroke="midnightblue" points="210.658,-81.9613 221.149,-80.4799 212.024,-75.0959 210.658,-81.9613"/>
</g>
<!-- Node3 -->
<g id="node3" class="node"><title>Node3</title>
<g id="a_node3"><a xlink:href="../../d3/db8/classnars_1_1entity_1_1TruthValue_a8a6a2fc1c28f3294d243dce4d3c3e968.html#a8a6a2fc1c28f3294d243dce4d3c3e968" target="_top" xlink:title="The hash code of a TruthValue. ">
<polygon fill="none" stroke="black" points="190,-42.5 190,-61.5 350,-61.5 350,-42.5 190,-42.5"/>
<text text-anchor="middle" x="270" y="-49.5" font-family="Helvetica,sans-Serif" font-size="10.00">nars.entity.TruthValue.hashCode</text>
</a>
</g>
</g>
<!-- Node1&#45;&gt;Node3 -->
<g id="edge2" class="edge"><title>Node1&#45;&gt;Node3</title>
<path fill="none" stroke="midnightblue" d="M154.037,-52C162.486,-52 171.148,-52 179.742,-52"/>
<polygon fill="midnightblue" stroke="midnightblue" points="179.782,-55.5001 189.782,-52 179.782,-48.5001 179.782,-55.5001"/>
</g>
<!-- Node5 -->
<g id="node5" class="node"><title>Node5</title>
<g id="a_node5"><a xlink:href="../../d1/d1e/classnars_1_1entity_1_1Stamp_ab52baff17f87c3737f0bc0216f66ac3f.html#ab52baff17f87c3737f0bc0216f66ac3f" target="_top" xlink:title="The hash code of Stamp. ">
<polygon fill="none" stroke="black" points="199.5,-3.5 199.5,-22.5 340.5,-22.5 340.5,-3.5 199.5,-3.5"/>
<text text-anchor="middle" x="270" y="-10.5" font-family="Helvetica,sans-Serif" font-size="10.00">nars.entity.Stamp.hashCode</text>
</a>
</g>
</g>
<!-- Node1&#45;&gt;Node5 -->
<g id="edge4" class="edge"><title>Node1&#45;&gt;Node5</title>
<path fill="none" stroke="midnightblue" d="M124.724,-42.4595C151.183,-37.0569 184.47,-30.26 212.402,-24.5567"/>
<polygon fill="midnightblue" stroke="midnightblue" points="213.33,-27.9394 222.428,-22.5095 211.93,-21.0809 213.33,-27.9394"/>
</g>
<!-- Node4 -->
<g id="node4" class="node"><title>Node4</title>
<g id="a_node4"><a xlink:href="../../d3/db8/classnars_1_1entity_1_1TruthValue_aa5ffcde3ae611b087ba7fdd4cd67b216.html#aa5ffcde3ae611b087ba7fdd4cd67b216" target="_top" xlink:title="Calculate the expectation value of the truth value. ">
<polygon fill="none" stroke="black" points="387,-39 387,-69 516,-69 516,-39 387,-39"/>
<text text-anchor="start" x="395" y="-57" font-family="Helvetica,sans-Serif" font-size="10.00">nars.entity.TruthValue.get</text>
<text text-anchor="middle" x="451.5" y="-46" font-family="Helvetica,sans-Serif" font-size="10.00">Expectation</text>
</a>
</g>
</g>
<!-- Node3&#45;&gt;Node4 -->
<g id="edge3" class="edge"><title>Node3&#45;&gt;Node4</title>
<path fill="none" stroke="midnightblue" d="M350.254,-52.8831C359.029,-52.9808 367.94,-53.0801 376.645,-53.1771"/>
<polygon fill="midnightblue" stroke="midnightblue" points="376.711,-56.678 386.749,-53.2897 376.789,-49.6784 376.711,-56.678"/>
</g>
<!-- Node6 -->
<g id="node6" class="node"><title>Node6</title>
<g id="a_node6"><a xlink:href="../../d1/d1e/classnars_1_1entity_1_1Stamp_ad1aee19cfc0bb8ca9232bad251f74ffc.html#ad1aee19cfc0bb8ca9232bad251f74ffc" target="_top" xlink:title="Get a String form of the Stamp for display Format: {creationTime [: eventTime] : evidentialBase}. ">
<polygon fill="none" stroke="black" points="386,-0.5 386,-19.5 517,-19.5 517,-0.5 386,-0.5"/>
<text text-anchor="middle" x="451.5" y="-7.5" font-family="Helvetica,sans-Serif" font-size="10.00">nars.entity.Stamp.toString</text>
</a>
</g>
</g>
<!-- Node5&#45;&gt;Node6 -->
<g id="edge5" class="edge"><title>Node5&#45;&gt;Node6</title>
<path fill="none" stroke="midnightblue" d="M340.656,-11.8358C352.166,-11.6435 364.139,-11.4434 375.767,-11.249"/>
<polygon fill="midnightblue" stroke="midnightblue" points="375.936,-14.7468 385.876,-11.0801 375.819,-7.74776 375.936,-14.7468"/>
</g>
</g>
</svg>
