<?xml version="1.0" encoding="UTF-8" standalone="no"?>
<!DOCTYPE svg PUBLIC "-//W3C//DTD SVG 1.1//EN"
 "http://www.w3.org/Graphics/SVG/1.1/DTD/svg11.dtd">
<!-- Generated by graphviz version 2.38.0 (20140413.2041)
 -->
<!-- Title: nars.entity.Sentence.equivalentTo Pages: 1 -->
<!--zoomable 359 -->
<svg id="main" version="1.1" xmlns="http://www.w3.org/2000/svg" xmlns:xlink="http://www.w3.org/1999/xlink" xml:space="preserve" onload="init(evt)">
<style type="text/css"><![CDATA[
.edge:hover path { stroke: red; }
.edge:hover polygon { stroke: red; fill: red; }
]]></style>
<script type="text/javascript"><![CDATA[
var edges = document.getElementsByTagName('g');
if (edges && edges.length) {
  for (var i=0;i<edges.length;i++) {
    if (edges[i].id.substr(0,4)=='edge') {
      edges[i].setAttribute('class','edge');
    }
  }
}
]]></script>
        <defs>
                <circle id="rim" cx="0" cy="0" r="7"/>
                <circle id="rim2" cx="0" cy="0" r="3.5"/>
                <g id="zoomPlus">
                        <use xlink:href="#rim" fill="#404040">
                                <set attributeName="fill" to="#808080" begin="zoomplus.mouseover" end="zoomplus.mouseout"/>
                        </use>
                        <path d="M-4,0h8M0,-4v8" fill="none" stroke="white" stroke-width="1.5" pointer-events="none"/>
                </g>
                <g id="zoomMin">
                        <use xlink:href="#rim" fill="#404040">
                                <set attributeName="fill" to="#808080" begin="zoomminus.mouseover" end="zoomminus.mouseout"/>
                        </use>
                        <path d="M-4,0h8" fill="none" stroke="white" stroke-width="1.5" pointer-events="none"/>
                </g>
                <g id="dirArrow">
                        <path fill="none" stroke="white" stroke-width="1.5" d="M0,-3.0v7 M-2.5,-0.5L0,-3.0L2.5,-0.5"/>
                </g>
               <g id="resetDef">
                       <use xlink:href="#rim2" fill="#404040">
                               <set attributeName="fill" to="#808080" begin="reset.mouseover" end="reset.mouseout"/>
                       </use>
               </g>
        </defs>

<script type="text/javascript">
var viewWidth = 535;
var viewHeight = 359;
var sectionId = 'dynsection-0';
</script>
<script xlink:href="../../svgpan.js"/>
<svg id="graph" class="graph">
<g id="viewport">
<title>nars.entity.Sentence.equivalentTo</title>
<!-- Node1 -->
<g id="node1" class="node"><title>Node1</title>
<polygon fill="#bfbfbf" stroke="black" points="0,-153 0,-172 165,-172 165,-153 0,-153"/>
<text text-anchor="middle" x="82.5" y="-160" font-family="Helvetica,sans-Serif" font-size="10.00">nars.entity.Sentence.equivalentTo</text>
</g>
<!-- Node2 -->
<g id="node2" class="node"><title>Node2</title>
<g id="a_node2"><a xlink:href="../../d8/db8/classnars_1_1language_1_1Term_ad85f45a7858737445d5158801774ff5f.html#ad85f45a7858737445d5158801774ff5f" target="_top" xlink:title="Equal terms have identical name, though not necessarily the same reference. ">
<polygon fill="none" stroke="black" points="206,-303 206,-322 340,-322 340,-303 206,-303"/>
<text text-anchor="middle" x="273" y="-310" font-family="Helvetica,sans-Serif" font-size="10.00">nars.language.Term.equals</text>
</a>
</g>
</g>
<!-- Node1&#45;&gt;Node2 -->
<g id="edge1" class="edge"><title>Node1&#45;&gt;Node2</title>
<path fill="none" stroke="midnightblue" d="M93.4326,-172.22C113.139,-191.289 158.918,-234.528 201,-266.5 215.774,-277.724 233.256,-289.073 247.176,-297.689"/>
<polygon fill="midnightblue" stroke="midnightblue" points="245.388,-300.698 255.745,-302.928 249.039,-294.726 245.388,-300.698"/>
</g>
<!-- Node4 -->
<g id="node4" class="node"><title>Node4</title>
<g id="a_node4"><a xlink:href="../../d3/db8/classnars_1_1entity_1_1TruthValue_a6c90107ab2c878d9527d4330f08ecac8.html#a6c90107ab2c878d9527d4330f08ecac8" target="_top" xlink:title="Compare two truth values. ">
<polygon fill="none" stroke="black" points="201,-238 201,-257 345,-257 345,-238 201,-238"/>
<text text-anchor="middle" x="273" y="-245" font-family="Helvetica,sans-Serif" font-size="10.00">nars.entity.TruthValue.equals</text>
</a>
</g>
</g>
<!-- Node1&#45;&gt;Node4 -->
<g id="edge3" class="edge"><title>Node1&#45;&gt;Node4</title>
<path fill="none" stroke="midnightblue" d="M98.9919,-172.052C121.033,-185.35 162.993,-209.595 201,-225.5 209.217,-228.938 218.164,-232.122 226.851,-234.938"/>
<polygon fill="midnightblue" stroke="midnightblue" points="225.906,-238.31 236.495,-237.956 227.996,-231.629 225.906,-238.31"/>
</g>
<!-- Node7 -->
<g id="node7" class="node"><title>Node7</title>
<g id="a_node7"><a xlink:href="../../d1/d1e/classnars_1_1entity_1_1Stamp_adb33cdf9f13e1a919f7220cb622e7446.html#adb33cdf9f13e1a919f7220cb622e7446" target="_top" xlink:title="Check if two stamps contains the same content. ">
<polygon fill="none" stroke="black" points="210.5,-197 210.5,-216 335.5,-216 335.5,-197 210.5,-197"/>
<text text-anchor="middle" x="273" y="-204" font-family="Helvetica,sans-Serif" font-size="10.00">nars.entity.Stamp.equals</text>
</a>
</g>
</g>
<!-- Node1&#45;&gt;Node7 -->
<g id="edge6" class="edge"><title>Node1&#45;&gt;Node7</title>
<path fill="none" stroke="midnightblue" d="M124.402,-172.047C152.808,-178.678 190.855,-187.559 221.206,-194.643"/>
<polygon fill="midnightblue" stroke="midnightblue" points="220.644,-198.106 231.178,-196.971 222.236,-191.29 220.644,-198.106"/>
</g>
<!-- Node10 -->
<g id="node10" class="node"><title>Node10</title>
<g id="a_node10"><a xlink:href="../../d6/d25/classnars_1_1entity_1_1Sentence_ad1ded9a02cae3557948d05530cd4d37e.html#ad1ded9a02cae3557948d05530cd4d37e" target="_top" xlink:title="Get the content of the sentence. ">
<polygon fill="none" stroke="black" points="211.5,-147.5 211.5,-177.5 334.5,-177.5 334.5,-147.5 211.5,-147.5"/>
<text text-anchor="start" x="219.5" y="-165.5" font-family="Helvetica,sans-Serif" font-size="10.00">nars.entity.Sentence.get</text>
<text text-anchor="middle" x="273" y="-154.5" font-family="Helvetica,sans-Serif" font-size="10.00">Content</text>
</a>
</g>
</g>
<!-- Node1&#45;&gt;Node10 -->
<g id="edge9" class="edge"><title>Node1&#45;&gt;Node10</title>
<path fill="none" stroke="midnightblue" d="M165.083,-162.5C177.088,-162.5 189.373,-162.5 201.138,-162.5"/>
<polygon fill="midnightblue" stroke="midnightblue" points="201.324,-166 211.324,-162.5 201.324,-159 201.324,-166"/>
</g>
<!-- Node11 -->
<g id="node11" class="node"><title>Node11</title>
<g id="a_node11"><a xlink:href="../../d6/d25/classnars_1_1entity_1_1Sentence_a3e0fe978c5d87f921a277fd067982980.html#a3e0fe978c5d87f921a277fd067982980" target="_top" xlink:title="Get the punctuation of the sentence. ">
<polygon fill="none" stroke="black" points="211.5,-98.5 211.5,-128.5 334.5,-128.5 334.5,-98.5 211.5,-98.5"/>
<text text-anchor="start" x="219.5" y="-116.5" font-family="Helvetica,sans-Serif" font-size="10.00">nars.entity.Sentence.get</text>
<text text-anchor="middle" x="273" y="-105.5" font-family="Helvetica,sans-Serif" font-size="10.00">Punctuation</text>
</a>
</g>
</g>
<!-- Node1&#45;&gt;Node11 -->
<g id="edge10" class="edge"><title>Node1&#45;&gt;Node11</title>
<path fill="none" stroke="midnightblue" d="M120.292,-152.936C144.157,-146.732 175.969,-138.463 204.298,-131.099"/>
<polygon fill="midnightblue" stroke="midnightblue" points="205.356,-134.44 214.154,-128.537 203.595,-127.665 205.356,-134.44"/>
</g>
<!-- Node12 -->
<g id="node12" class="node"><title>Node12</title>
<g id="a_node12"><a xlink:href="../../d6/d25/classnars_1_1entity_1_1Sentence_ac0ed749c50e55120d5b63219ed7eb082.html#ac0ed749c50e55120d5b63219ed7eb082" target="_top" xlink:title="Get the stamp of the sentence. ">
<polygon fill="none" stroke="black" points="211.5,-49.5 211.5,-79.5 334.5,-79.5 334.5,-49.5 211.5,-49.5"/>
<text text-anchor="start" x="219.5" y="-67.5" font-family="Helvetica,sans-Serif" font-size="10.00">nars.entity.Sentence.get</text>
<text text-anchor="middle" x="273" y="-56.5" font-family="Helvetica,sans-Serif" font-size="10.00">Stamp</text>
</a>
</g>
</g>
<!-- Node1&#45;&gt;Node12 -->
<g id="edge11" class="edge"><title>Node1&#45;&gt;Node12</title>
<path fill="none" stroke="midnightblue" d="M96.7003,-152.96C117.888,-137.962 161.157,-108.611 201,-89.5 205.524,-87.3303 210.287,-85.2491 215.117,-83.2787"/>
<polygon fill="midnightblue" stroke="midnightblue" points="216.403,-86.534 224.441,-79.6318 213.853,-80.0149 216.403,-86.534"/>
</g>
<!-- Node13 -->
<g id="node13" class="node"><title>Node13</title>
<g id="a_node13"><a xlink:href="../../d6/d25/classnars_1_1entity_1_1Sentence_a9f69b4fef64c81abad21404946cd41f9.html#a9f69b4fef64c81abad21404946cd41f9" target="_top" xlink:title="Get the truth value of the sentence. ">
<polygon fill="none" stroke="black" points="211.5,-0.5 211.5,-30.5 334.5,-30.5 334.5,-0.5 211.5,-0.5"/>
<text text-anchor="start" x="219.5" y="-18.5" font-family="Helvetica,sans-Serif" font-size="10.00">nars.entity.Sentence.get</text>
<text text-anchor="middle" x="273" y="-7.5" font-family="Helvetica,sans-Serif" font-size="10.00">Truth</text>
</a>
</g>
</g>
<!-- Node1&#45;&gt;Node13 -->
<g id="edge12" class="edge"><title>Node1&#45;&gt;Node13</title>
<path fill="none" stroke="midnightblue" d="M90.2624,-152.668C106.615,-129.602 150.684,-71.5465 201,-39.5 203.469,-37.9273 206.053,-36.4456 208.712,-35.0512"/>
<polygon fill="midnightblue" stroke="midnightblue" points="210.458,-38.0965 217.985,-30.6404 207.451,-31.7752 210.458,-38.0965"/>
</g>
<!-- Node3 -->
<g id="node3" class="node"><title>Node3</title>
<g id="a_node3"><a xlink:href="../../d8/db8/classnars_1_1language_1_1Term_a3aad4654016b8615fd4fa8a26668e1db.html#a3aad4654016b8615fd4fa8a26668e1db" target="_top" xlink:title="Reporting the name of the current Term. ">
<polygon fill="none" stroke="black" points="381,-331 381,-350 527,-350 527,-331 381,-331"/>
<text text-anchor="middle" x="454" y="-338" font-family="Helvetica,sans-Serif" font-size="10.00">nars.language.Term.getName</text>
</a>
</g>
</g>
<!-- Node2&#45;&gt;Node3 -->
<g id="edge2" class="edge"><title>Node2&#45;&gt;Node3</title>
<path fill="none" stroke="midnightblue" d="M334.851,-322.019C349.983,-324.386 366.336,-326.944 381.911,-329.38"/>
<polygon fill="midnightblue" stroke="midnightblue" points="381.592,-332.873 392.013,-330.96 382.674,-325.957 381.592,-332.873"/>
</g>
<!-- Node5 -->
<g id="node5" class="node"><title>Node5</title>
<g id="a_node5"><a xlink:href="../../d3/db8/classnars_1_1entity_1_1TruthValue_a9eac33f2495441c77911a8581a5bbe61.html#a9eac33f2495441c77911a8581a5bbe61" target="_top" xlink:title="Get the frequency value. ">
<polygon fill="none" stroke="black" points="389.5,-281.5 389.5,-311.5 518.5,-311.5 518.5,-281.5 389.5,-281.5"/>
<text text-anchor="start" x="397.5" y="-299.5" font-family="Helvetica,sans-Serif" font-size="10.00">nars.entity.TruthValue.get</text>
<text text-anchor="middle" x="454" y="-288.5" font-family="Helvetica,sans-Serif" font-size="10.00">Frequency</text>
</a>
</g>
</g>
<!-- Node4&#45;&gt;Node5 -->
<g id="edge4" class="edge"><title>Node4&#45;&gt;Node5</title>
<path fill="none" stroke="midnightblue" d="M308.938,-257.064C331.501,-263.24 361.545,-271.465 388.357,-278.804"/>
<polygon fill="midnightblue" stroke="midnightblue" points="387.5,-282.198 398.069,-281.463 389.348,-275.447 387.5,-282.198"/>
</g>
<!-- Node6 -->
<g id="node6" class="node"><title>Node6</title>
<g id="a_node6"><a xlink:href="../../d3/db8/classnars_1_1entity_1_1TruthValue_a68ca7d92e9ea20d2a9a9f578ad7b681c.html#a68ca7d92e9ea20d2a9a9f578ad7b681c" target="_top" xlink:title="Get the confidence value. ">
<polygon fill="none" stroke="black" points="389.5,-232.5 389.5,-262.5 518.5,-262.5 518.5,-232.5 389.5,-232.5"/>
<text text-anchor="start" x="397.5" y="-250.5" font-family="Helvetica,sans-Serif" font-size="10.00">nars.entity.TruthValue.get</text>
<text text-anchor="middle" x="454" y="-239.5" font-family="Helvetica,sans-Serif" font-size="10.00">Confidence</text>
</a>
</g>
</g>
<!-- Node4&#45;&gt;Node6 -->
<g id="edge5" class="edge"><title>Node4&#45;&gt;Node6</title>
<path fill="none" stroke="midnightblue" d="M345.003,-247.5C356.212,-247.5 367.827,-247.5 379.101,-247.5"/>
<polygon fill="midnightblue" stroke="midnightblue" points="379.337,-251 389.337,-247.5 379.337,-244 379.337,-251"/>
</g>
<!-- Node8 -->
<g id="node8" class="node"><title>Node8</title>
<g id="a_node8"><a xlink:href="../../d1/d1e/classnars_1_1entity_1_1Stamp_a7b5d3afaab9fc48e2d4d571b8508970d.html#a7b5d3afaab9fc48e2d4d571b8508970d" target="_top" xlink:title="Convert the evidentialBase into a set. ">
<polygon fill="none" stroke="black" points="394,-194 394,-213 514,-213 514,-194 394,-194"/>
<text text-anchor="middle" x="454" y="-201" font-family="Helvetica,sans-Serif" font-size="10.00">nars.entity.Stamp.toSet</text>
</a>
</g>
</g>
<!-- Node7&#45;&gt;Node8 -->
<g id="edge7" class="edge"><title>Node7&#45;&gt;Node8</title>
<path fill="none" stroke="midnightblue" d="M335.602,-205.468C351.032,-205.209 367.691,-204.93 383.477,-204.665"/>
<polygon fill="midnightblue" stroke="midnightblue" points="383.763,-208.161 393.702,-204.494 383.645,-201.162 383.763,-208.161"/>
</g>
<!-- Node9 -->
<g id="node9" class="node"><title>Node9</title>
<g id="a_node9"><a xlink:href="../../d1/d1e/classnars_1_1entity_1_1Stamp_a959f21fb20f72cfd277d994332e862c3.html#a959f21fb20f72cfd277d994332e862c3" target="_top" xlink:title="Generate a new stamp, with a new serial number, for a new Task. ">
<polygon fill="none" stroke="black" points="391.5,-156 391.5,-175 516.5,-175 516.5,-156 391.5,-156"/>
<text text-anchor="middle" x="454" y="-163" font-family="Helvetica,sans-Serif" font-size="10.00">nars.entity.Stamp.Stamp</text>
</a>
</g>
</g>
<!-- Node7&#45;&gt;Node9 -->
<g id="edge8" class="edge"><title>Node7&#45;&gt;Node9</title>
<path fill="none" stroke="midnightblue" d="M315.516,-196.991C341.179,-191.113 374.315,-183.523 401.626,-177.267"/>
<polygon fill="midnightblue" stroke="midnightblue" points="402.433,-180.673 411.399,-175.029 400.87,-173.85 402.433,-180.673"/>
</g>
</g>
</svg>
        <g id="navigator" transform="translate(0 0)" fill="#404254">
                <rect fill="#f2f5e9" fill-opacity="0.5" stroke="#606060" stroke-width=".5" x="0" y="0" width="60" height="60"/>
                <use id="zoomplus" xlink:href="#zoomPlus" x="17" y="9" onmousedown="handleZoom(evt,'in')"/>
                <use id="zoomminus" xlink:href="#zoomMin" x="42" y="9" onmousedown="handleZoom(evt,'out')"/>
                <use id="reset" xlink:href="#resetDef" x="30" y="36" onmousedown="handleReset()"/>
                <g id="arrowUp" xlink:href="#dirArrow" transform="translate(30 24)" onmousedown="handlePan(0,-1)">
                  <use xlink:href="#rim" fill="#404040">
                        <set attributeName="fill" to="#808080" begin="arrowUp.mouseover" end="arrowUp.mouseout"/>
                  </use>
                  <path fill="none" stroke="white" stroke-width="1.5" d="M0,-3.0v7 M-2.5,-0.5L0,-3.0L2.5,-0.5"/>
                </g>
                <g id="arrowRight" xlink:href="#dirArrow" transform="rotate(90) translate(36 -43)" onmousedown="handlePan(1,0)">
                  <use xlink:href="#rim" fill="#404040">
                        <set attributeName="fill" to="#808080" begin="arrowRight.mouseover" end="arrowRight.mouseout"/>
                  </use>
                  <path fill="none" stroke="white" stroke-width="1.5" d="M0,-3.0v7 M-2.5,-0.5L0,-3.0L2.5,-0.5"/>
                </g>
                <g id="arrowDown" xlink:href="#dirArrow" transform="rotate(180) translate(-30 -48)" onmousedown="handlePan(0,1)">
                  <use xlink:href="#rim" fill="#404040">
                        <set attributeName="fill" to="#808080" begin="arrowDown.mouseover" end="arrowDown.mouseout"/>
                  </use>
                  <path fill="none" stroke="white" stroke-width="1.5" d="M0,-3.0v7 M-2.5,-0.5L0,-3.0L2.5,-0.5"/>
                </g>
                <g id="arrowLeft" xlink:href="#dirArrow" transform="rotate(270) translate(-36 17)" onmousedown="handlePan(-1,0)">
                  <use xlink:href="#rim" fill="#404040">
                        <set attributeName="fill" to="#808080" begin="arrowLeft.mouseover" end="arrowLeft.mouseout"/>
                  </use>
                  <path fill="none" stroke="white" stroke-width="1.5" d="M0,-3.0v7 M-2.5,-0.5L0,-3.0L2.5,-0.5"/>
                </g>
        </g>
        <svg viewBox="0 0 15 15" width="100%" height="30px" preserveAspectRatio="xMaxYMin meet">
         <g id="arrow_out" transform="scale(0.3 0.3)">
          <a xlink:href="classnars_1_1entity_1_1Sentence_a8fee2d32f0024964146b13d7698210c5_a8fee2d32f0024964146b13d7698210c5_cgraph_org.svg" target="_base">
           <rect id="button" ry="5" rx="5" y="6" x="6" height="38" width="38"
                fill="#f2f5e9" fill-opacity="0.5" stroke="#606060" stroke-width="1.0"/>
           <path id="arrow"
             d="M 11.500037,31.436501 C 11.940474,20.09759 22.043105,11.32322 32.158766,21.979434 L 37.068811,17.246167 C 37.068811,17.246167 37.088388,32 37.088388,32 L 22.160133,31.978069 C 22.160133,31.978069 26.997745,27.140456 26.997745,27.140456 C 18.528582,18.264221 13.291696,25.230495 11.500037,31.436501 z"
             style="fill:#404040;"/>
          </a>
         </g>
        </svg>
</svg>
