<?xml version="1.0" encoding="UTF-8" standalone="no"?>
<!DOCTYPE svg PUBLIC "-//W3C//DTD SVG 1.1//EN"
 "http://www.w3.org/Graphics/SVG/1.1/DTD/svg11.dtd">
<!-- Generated by graphviz version 2.38.0 (20140413.2041)
 -->
<!-- Title: nars.entity.Sentence.getStamp Pages: 1 -->
<!--zoomable 318 -->
<svg id="main" version="1.1" xmlns="http://www.w3.org/2000/svg" xmlns:xlink="http://www.w3.org/1999/xlink" xml:space="preserve" onload="init(evt)">
<style type="text/css"><![CDATA[
.edge:hover path { stroke: red; }
.edge:hover polygon { stroke: red; fill: red; }
]]></style>
<script type="text/javascript"><![CDATA[
var edges = document.getElementsByTagName('g');
if (edges && edges.length) {
  for (var i=0;i<edges.length;i++) {
    if (edges[i].id.substr(0,4)=='edge') {
      edges[i].setAttribute('class','edge');
    }
  }
}
]]></script>
        <defs>
                <circle id="rim" cx="0" cy="0" r="7"/>
                <circle id="rim2" cx="0" cy="0" r="3.5"/>
                <g id="zoomPlus">
                        <use xlink:href="#rim" fill="#404040">
                                <set attributeName="fill" to="#808080" begin="zoomplus.mouseover" end="zoomplus.mouseout"/>
                        </use>
                        <path d="M-4,0h8M0,-4v8" fill="none" stroke="white" stroke-width="1.5" pointer-events="none"/>
                </g>
                <g id="zoomMin">
                        <use xlink:href="#rim" fill="#404040">
                                <set attributeName="fill" to="#808080" begin="zoomminus.mouseover" end="zoomminus.mouseout"/>
                        </use>
                        <path d="M-4,0h8" fill="none" stroke="white" stroke-width="1.5" pointer-events="none"/>
                </g>
                <g id="dirArrow">
                        <path fill="none" stroke="white" stroke-width="1.5" d="M0,-3.0v7 M-2.5,-0.5L0,-3.0L2.5,-0.5"/>
                </g>
               <g id="resetDef">
                       <use xlink:href="#rim2" fill="#404040">
                               <set attributeName="fill" to="#808080" begin="reset.mouseover" end="reset.mouseout"/>
                       </use>
               </g>
        </defs>

<script type="text/javascript">
var viewWidth = 2472;
var viewHeight = 318;
var sectionId = 'dynsection-0';
</script>
<script xlink:href="../../svgpan.js"/>
<svg id="graph" class="graph">
<g id="viewport">
<title>nars.entity.Sentence.getStamp</title>
<!-- Node1 -->
<g id="node1" class="node"><title>Node1</title>
<polygon fill="#bfbfbf" stroke="black" points="0,-140 0,-170 123,-170 123,-140 0,-140"/>
<text text-anchor="start" x="8" y="-158" font-family="Helvetica,sans-Serif" font-size="10.00">nars.entity.Sentence.get</text>
<text text-anchor="middle" x="61.5" y="-147" font-family="Helvetica,sans-Serif" font-size="10.00">Stamp</text>
</g>
<!-- Node2 -->
<g id="node2" class="node"><title>Node2</title>
<g id="a_node2"><a xlink:href="../../d6/d25/classnars_1_1entity_1_1Sentence_a6b64cf9f10e578e4831092ab31dcd5d9.html#a6b64cf9f10e578e4831092ab31dcd5d9" target="_top" xlink:title="To check whether two sentences are equal. ">
<polygon fill="none" stroke="black" points="178,-290.5 178,-309.5 316,-309.5 316,-290.5 178,-290.5"/>
<text text-anchor="middle" x="247" y="-297.5" font-family="Helvetica,sans-Serif" font-size="10.00">nars.entity.Sentence.equals</text>
</a>
</g>
</g>
<!-- Node1&#45;&gt;Node2 -->
<g id="edge1" class="edge"><title>Node1&#45;&gt;Node2</title>
<path fill="none" stroke="midnightblue" d="M74.2792,-179.241C89.6395,-208.165 119.303,-255.773 159,-281 165.133,-284.897 171.946,-288.004 178.983,-290.479"/>
<polygon fill="midnightblue" stroke="midnightblue" points="77.3163,-177.494 69.6246,-170.207 71.0937,-180.7 77.3163,-177.494"/>
</g>
<!-- Node3 -->
<g id="node3" class="node"><title>Node3</title>
<g id="a_node3"><a xlink:href="../../d6/d25/classnars_1_1entity_1_1Sentence_a8fee2d32f0024964146b13d7698210c5.html#a8fee2d32f0024964146b13d7698210c5" target="_top" xlink:title="Check whether the judgment is equivalent to another one. ">
<polygon fill="none" stroke="black" points="164.5,-252.5 164.5,-271.5 329.5,-271.5 329.5,-252.5 164.5,-252.5"/>
<text text-anchor="middle" x="247" y="-259.5" font-family="Helvetica,sans-Serif" font-size="10.00">nars.entity.Sentence.equivalentTo</text>
</a>
</g>
</g>
<!-- Node1&#45;&gt;Node3 -->
<g id="edge2" class="edge"><title>Node1&#45;&gt;Node3</title>
<path fill="none" stroke="midnightblue" d="M81.2402,-177.87C99.1069,-198.12 127.845,-226.892 159,-243 166.553,-246.905 174.877,-250.01 183.291,-252.477"/>
<polygon fill="midnightblue" stroke="midnightblue" points="83.6747,-175.333 74.4966,-170.041 78.3709,-179.902 83.6747,-175.333"/>
</g>
<!-- Node5 -->
<g id="node5" class="node"><title>Node5</title>
<g id="a_node5"><a xlink:href="../../d4/d22/classnars_1_1entity_1_1Concept_a40cddcc82ee28a1cf5b1f4bc14e2b078.html#a40cddcc82ee28a1cf5b1f4bc14e2b078" target="_top" xlink:title="To accept a new judgment as isBelief, and check for revisions and solutions. ">
<polygon fill="none" stroke="black" points="561.5,-186 561.5,-216 701.5,-216 701.5,-186 561.5,-186"/>
<text text-anchor="start" x="569.5" y="-204" font-family="Helvetica,sans-Serif" font-size="10.00">nars.entity.Concept.process</text>
<text text-anchor="middle" x="631.5" y="-193" font-family="Helvetica,sans-Serif" font-size="10.00">Judgment</text>
</a>
</g>
</g>
<!-- Node1&#45;&gt;Node5 -->
<g id="edge24" class="edge"><title>Node1&#45;&gt;Node5</title>
<path fill="none" stroke="midnightblue" d="M133.311,-160.735C242.98,-169.616 452.573,-186.59 561.271,-195.393"/>
<polygon fill="midnightblue" stroke="midnightblue" points="133.267,-157.22 123.017,-159.901 132.702,-164.197 133.267,-157.22"/>
</g>
<!-- Node16 -->
<g id="node16" class="node"><title>Node16</title>
<g id="a_node16"><a xlink:href="../../d4/d22/classnars_1_1entity_1_1Concept_a37e00599fc19c5931da40bd446890f89.html#a37e00599fc19c5931da40bd446890f89" target="_top" xlink:title="Select a isBelief to interact with the given task in inference. ">
<polygon fill="none" stroke="black" points="371,-126.5 371,-145.5 514,-145.5 514,-126.5 371,-126.5"/>
<text text-anchor="middle" x="442.5" y="-133.5" font-family="Helvetica,sans-Serif" font-size="10.00">nars.entity.Concept.getBelief</text>
</a>
</g>
</g>
<!-- Node1&#45;&gt;Node16 -->
<g id="edge16" class="edge"><title>Node1&#45;&gt;Node16</title>
<path fill="none" stroke="midnightblue" d="M133.564,-151.437C201.399,-148.037 303.032,-142.942 370.76,-139.546"/>
<polygon fill="midnightblue" stroke="midnightblue" points="133.205,-147.951 123.393,-151.947 133.556,-154.942 133.205,-147.951"/>
</g>
<!-- Node20 -->
<g id="node20" class="node"><title>Node20</title>
<g id="a_node20"><a xlink:href="../../dc/ddc/classnars_1_1entity_1_1Task_a1f643668b958d700afee3616f0baf93f.html#a1f643668b958d700afee3616f0baf93f" target="_top" xlink:title="Directly get the creation time of the sentence. ">
<polygon fill="none" stroke="black" points="166,-88.5 166,-107.5 328,-107.5 328,-88.5 166,-88.5"/>
<text text-anchor="middle" x="247" y="-95.5" font-family="Helvetica,sans-Serif" font-size="10.00">nars.entity.Task.getCreationTime</text>
</a>
</g>
</g>
<!-- Node1&#45;&gt;Node20 -->
<g id="edge21" class="edge"><title>Node1&#45;&gt;Node20</title>
<path fill="none" stroke="midnightblue" d="M114.334,-136.632C128.74,-131.703 144.429,-126.497 159,-122 175.469,-116.918 193.848,-111.772 209.454,-107.555"/>
<polygon fill="midnightblue" stroke="midnightblue" points="112.91,-133.421 104.596,-139.988 115.19,-140.039 112.91,-133.421"/>
</g>
<!-- Node22 -->
<g id="node22" class="node"><title>Node22</title>
<g id="a_node22"><a xlink:href="../../d7/d11/classnars_1_1inference_1_1BudgetFunctions_a5c7290e12cda0925b936c07ed7b806f3.html#a5c7290e12cda0925b936c07ed7b806f3" target="_top" xlink:title="Determine the rank of a judgment by its confidence and originality (stamp length) ...">
<polygon fill="none" stroke="black" points="159,-203 159,-233 335,-233 335,-203 159,-203"/>
<text text-anchor="start" x="167" y="-221" font-family="Helvetica,sans-Serif" font-size="10.00">nars.inference.BudgetFunctions.rank</text>
<text text-anchor="middle" x="247" y="-210" font-family="Helvetica,sans-Serif" font-size="10.00">Belief</text>
</a>
</g>
</g>
<!-- Node1&#45;&gt;Node22 -->
<g id="edge25" class="edge"><title>Node1&#45;&gt;Node22</title>
<path fill="none" stroke="midnightblue" d="M116.244,-173.452C143.552,-182.827 176.316,-194.076 202.088,-202.924"/>
<polygon fill="midnightblue" stroke="midnightblue" points="117.047,-170.027 106.453,-170.09 114.774,-176.648 117.047,-170.027"/>
</g>
<!-- Node23 -->
<g id="node23" class="node"><title>Node23</title>
<g id="a_node23"><a xlink:href="../../d8/df4/classnars_1_1storage_1_1Memory_afe7a5bf6ae7ad1a22e72da27e1ed685c.html#afe7a5bf6ae7ad1a22e72da27e1ed685c" target="_top" xlink:title="Shared final operations by all single&#45;premise rules, called in StructuralRules. ">
<polygon fill="none" stroke="black" points="178.5,-39 178.5,-69 315.5,-69 315.5,-39 178.5,-39"/>
<text text-anchor="start" x="186.5" y="-57" font-family="Helvetica,sans-Serif" font-size="10.00">nars.storage.Memory.single</text>
<text text-anchor="middle" x="247" y="-46" font-family="Helvetica,sans-Serif" font-size="10.00">PremiseTask</text>
</a>
</g>
</g>
<!-- Node1&#45;&gt;Node23 -->
<g id="edge27" class="edge"><title>Node1&#45;&gt;Node23</title>
<path fill="none" stroke="midnightblue" d="M85.2434,-132.87C103.752,-115.959 131.266,-93.2089 159,-79 166.413,-75.2021 174.485,-71.9053 182.627,-69.0647"/>
<polygon fill="midnightblue" stroke="midnightblue" points="82.822,-130.342 77.8879,-139.718 87.5919,-135.465 82.822,-130.342"/>
</g>
<!-- Node24 -->
<g id="node24" class="node"><title>Node24</title>
<g id="a_node24"><a xlink:href="../../d9/d27/classnars_1_1entity_1_1TaskLink_ae9f2d682898024ac0c358b50161b48d0.html#ae9f2d682898024ac0c358b50161b48d0" target="_top" xlink:title="nars.entity.TaskLink.toString">
<polygon fill="none" stroke="black" points="176,-0.5 176,-19.5 318,-19.5 318,-0.5 176,-0.5"/>
<text text-anchor="middle" x="247" y="-7.5" font-family="Helvetica,sans-Serif" font-size="10.00">nars.entity.TaskLink.toString</text>
</a>
</g>
</g>
<!-- Node1&#45;&gt;Node24 -->
<g id="edge28" class="edge"><title>Node1&#45;&gt;Node24</title>
<path fill="none" stroke="midnightblue" d="M74.375,-131.023C89.8312,-102.4 119.591,-55.2413 159,-30 165.786,-25.6534 173.405,-22.2474 181.239,-19.5792"/>
<polygon fill="midnightblue" stroke="midnightblue" points="71.2325,-129.479 69.6884,-139.961 77.432,-132.73 71.2325,-129.479"/>
</g>
<!-- Node4 -->
<g id="node4" class="node"><title>Node4</title>
<g id="a_node4"><a xlink:href="../../d4/d22/classnars_1_1entity_1_1Concept_a83976b43424cb26fe9cea8654cfee743.html#a83976b43424cb26fe9cea8654cfee743" target="_top" xlink:title="Add a new belief (or goal) into the table Sort the beliefs/goals by rank, and remove redundant or low...">
<polygon fill="none" stroke="black" points="376.5,-203 376.5,-233 508.5,-233 508.5,-203 376.5,-203"/>
<text text-anchor="start" x="384.5" y="-221" font-family="Helvetica,sans-Serif" font-size="10.00">nars.entity.Concept.addTo</text>
<text text-anchor="middle" x="442.5" y="-210" font-family="Helvetica,sans-Serif" font-size="10.00">Table</text>
</a>
</g>
</g>
<!-- Node3&#45;&gt;Node4 -->
<g id="edge3" class="edge"><title>Node3&#45;&gt;Node4</title>
<path fill="none" stroke="midnightblue" d="M302.125,-250.316C313.017,-247.927 324.379,-245.406 335,-243 348.985,-239.832 363.984,-236.358 378.183,-233.034"/>
<polygon fill="midnightblue" stroke="midnightblue" points="301.31,-246.912 292.289,-252.467 302.806,-253.75 301.31,-246.912"/>
</g>
<!-- Node4&#45;&gt;Node5 -->
<g id="edge4" class="edge"><title>Node4&#45;&gt;Node5</title>
<path fill="none" stroke="midnightblue" d="M518.787,-211.156C532.886,-209.874 547.56,-208.54 561.459,-207.276"/>
<polygon fill="midnightblue" stroke="midnightblue" points="518.283,-207.687 508.641,-212.078 518.917,-214.658 518.283,-207.687"/>
</g>
<!-- Node6 -->
<g id="node6" class="node"><title>Node6</title>
<g id="a_node6"><a xlink:href="../../d4/d22/classnars_1_1entity_1_1Concept_a9ea7c3154932d7a736c105eb55daeb5c.html#a9ea7c3154932d7a736c105eb55daeb5c" target="_top" xlink:title="Directly process a new task. ">
<polygon fill="none" stroke="black" points="749,-186 749,-216 878,-216 878,-186 749,-186"/>
<text text-anchor="start" x="757" y="-204" font-family="Helvetica,sans-Serif" font-size="10.00">nars.entity.Concept.direct</text>
<text text-anchor="middle" x="813.5" y="-193" font-family="Helvetica,sans-Serif" font-size="10.00">Process</text>
</a>
</g>
</g>
<!-- Node5&#45;&gt;Node6 -->
<g id="edge5" class="edge"><title>Node5&#45;&gt;Node6</title>
<path fill="none" stroke="midnightblue" d="M711.899,-201C724.286,-201 736.945,-201 748.92,-201"/>
<polygon fill="midnightblue" stroke="midnightblue" points="711.578,-197.5 701.578,-201 711.578,-204.5 711.578,-197.5"/>
</g>
<!-- Node7 -->
<g id="node7" class="node"><title>Node7</title>
<g id="a_node7"><a xlink:href="../../d8/df4/classnars_1_1storage_1_1Memory_a175200c1f4c182222d0e66439b6e53a0.html#a175200c1f4c182222d0e66439b6e53a0" target="_top" xlink:title="Immediate processing of a new task, in constant time Local processing, in one concept only...">
<polygon fill="none" stroke="black" points="914,-186 914,-216 1071,-216 1071,-186 914,-186"/>
<text text-anchor="start" x="922" y="-204" font-family="Helvetica,sans-Serif" font-size="10.00">nars.storage.Memory.immediate</text>
<text text-anchor="middle" x="992.5" y="-193" font-family="Helvetica,sans-Serif" font-size="10.00">Process</text>
</a>
</g>
</g>
<!-- Node6&#45;&gt;Node7 -->
<g id="edge6" class="edge"><title>Node6&#45;&gt;Node7</title>
<path fill="none" stroke="midnightblue" d="M888.492,-201C896.854,-201 905.393,-201 913.801,-201"/>
<polygon fill="midnightblue" stroke="midnightblue" points="888.401,-197.5 878.401,-201 888.401,-204.5 888.401,-197.5"/>
</g>
<!-- Node8 -->
<g id="node8" class="node"><title>Node8</title>
<g id="a_node8"><a xlink:href="../../d8/df4/classnars_1_1storage_1_1Memory_a105e44a3504921cc1036eb979b85d9f0.html#a105e44a3504921cc1036eb979b85d9f0" target="_top" xlink:title="Process the newTasks accumulated in the previous workCycle, accept input ones and those that correspo...">
<polygon fill="none" stroke="black" points="1107,-214 1107,-244 1253,-244 1253,-214 1107,-214"/>
<text text-anchor="start" x="1115" y="-232" font-family="Helvetica,sans-Serif" font-size="10.00">nars.storage.Memory.process</text>
<text text-anchor="middle" x="1180" y="-221" font-family="Helvetica,sans-Serif" font-size="10.00">NewTask</text>
</a>
</g>
</g>
<!-- Node7&#45;&gt;Node8 -->
<g id="edge7" class="edge"><title>Node7&#45;&gt;Node8</title>
<path fill="none" stroke="midnightblue" d="M1081.12,-214.226C1089.71,-215.522 1098.35,-216.826 1106.75,-218.095"/>
<polygon fill="midnightblue" stroke="midnightblue" points="1081.5,-210.744 1071.09,-212.712 1080.46,-217.666 1081.5,-210.744"/>
</g>
<!-- Node15 -->
<g id="node15" class="node"><title>Node15</title>
<g id="a_node15"><a xlink:href="../../d8/df4/classnars_1_1storage_1_1Memory_afe3b4d1bb5fab652ceca53c04773af73.html#afe3b4d1bb5fab652ceca53c04773af73" target="_top" xlink:title="Select a novel task to process. ">
<polygon fill="none" stroke="black" points="1107,-165 1107,-195 1253,-195 1253,-165 1107,-165"/>
<text text-anchor="start" x="1115" y="-183" font-family="Helvetica,sans-Serif" font-size="10.00">nars.storage.Memory.process</text>
<text text-anchor="middle" x="1180" y="-172" font-family="Helvetica,sans-Serif" font-size="10.00">NovelTask</text>
</a>
</g>
</g>
<!-- Node7&#45;&gt;Node15 -->
<g id="edge14" class="edge"><title>Node7&#45;&gt;Node15</title>
<path fill="none" stroke="midnightblue" d="M1081.12,-191.08C1089.71,-190.109 1098.35,-189.13 1106.75,-188.179"/>
<polygon fill="midnightblue" stroke="midnightblue" points="1080.64,-187.613 1071.09,-192.216 1081.42,-194.569 1080.64,-187.613"/>
</g>
<!-- Node9 -->
<g id="node9" class="node"><title>Node9</title>
<g id="a_node9"><a xlink:href="../../d8/df4/classnars_1_1storage_1_1Memory_a49e2cbc8b78d535f4d69739886ee966a.html#a49e2cbc8b78d535f4d69739886ee966a" target="_top" xlink:title="An atomic working workCycle of the system: process new Tasks, then fire a concept. ">
<polygon fill="none" stroke="black" points="1289,-165 1289,-195 1422,-195 1422,-165 1289,-165"/>
<text text-anchor="start" x="1297" y="-183" font-family="Helvetica,sans-Serif" font-size="10.00">nars.storage.Memory.work</text>
<text text-anchor="middle" x="1355.5" y="-172" font-family="Helvetica,sans-Serif" font-size="10.00">Cycle</text>
</a>
</g>
</g>
<!-- Node8&#45;&gt;Node9 -->
<g id="edge8" class="edge"><title>Node8&#45;&gt;Node9</title>
<path fill="none" stroke="midnightblue" d="M1244.1,-211.179C1262.83,-205.888 1283.16,-200.148 1301.21,-195.052"/>
<polygon fill="midnightblue" stroke="midnightblue" points="1243.14,-207.812 1234.47,-213.899 1245.05,-214.549 1243.14,-207.812"/>
</g>
<!-- Node10 -->
<g id="node10" class="node"><title>Node10</title>
<g id="a_node10"><a xlink:href="../../dd/da5/classnars_1_1storage_1_1Memory_1_1ReasonerBatch_acc60dec23da774957a85362ed6d7448b.html#acc60dec23da774957a85362ed6d7448b" target="_top" xlink:title="nars.storage.Memory.Reasoner\lBatch.doTick">
<polygon fill="none" stroke="black" points="1458,-165 1458,-195 1612,-195 1612,-165 1458,-165"/>
<text text-anchor="start" x="1466" y="-183" font-family="Helvetica,sans-Serif" font-size="10.00">nars.storage.Memory.Reasoner</text>
<text text-anchor="middle" x="1535" y="-172" font-family="Helvetica,sans-Serif" font-size="10.00">Batch.doTick</text>
</a>
</g>
</g>
<!-- Node9&#45;&gt;Node10 -->
<g id="edge9" class="edge"><title>Node9&#45;&gt;Node10</title>
<path fill="none" stroke="midnightblue" d="M1432.32,-180C1440.79,-180 1449.41,-180 1457.89,-180"/>
<polygon fill="midnightblue" stroke="midnightblue" points="1432.09,-176.5 1422.09,-180 1432.09,-183.5 1432.09,-176.5"/>
</g>
<!-- Node11 -->
<g id="node11" class="node"><title>Node11</title>
<g id="a_node11"><a xlink:href="../../dd/da5/classnars_1_1storage_1_1Memory_1_1ReasonerBatch_aed591f05899b98fd9e4ad01836ad0a40.html#aed591f05899b98fd9e4ad01836ad0a40" target="_top" xlink:title="A clock tick. ">
<polygon fill="none" stroke="black" points="1648,-165 1648,-195 1802,-195 1802,-165 1648,-165"/>
<text text-anchor="start" x="1656" y="-183" font-family="Helvetica,sans-Serif" font-size="10.00">nars.storage.Memory.Reasoner</text>
<text text-anchor="middle" x="1725" y="-172" font-family="Helvetica,sans-Serif" font-size="10.00">Batch.tick</text>
</a>
</g>
</g>
<!-- Node10&#45;&gt;Node11 -->
<g id="edge10" class="edge"><title>Node10&#45;&gt;Node11</title>
<path fill="none" stroke="midnightblue" d="M1622.42,-180C1630.86,-180 1639.37,-180 1647.7,-180"/>
<polygon fill="midnightblue" stroke="midnightblue" points="1622.2,-176.5 1612.2,-180 1622.2,-183.5 1622.2,-176.5"/>
</g>
<!-- Node12 -->
<g id="node12" class="node"><title>Node12</title>
<g id="a_node12"><a xlink:href="../../d4/d88/classnars_1_1storage_1_1Memory_1_1NARSBatch_aad99db6cedde9cff2a997db8906ff821.html#aad99db6cedde9cff2a997db8906ff821" target="_top" xlink:title="Run to completion: repeatedly execute NARS working cycle, until Inputs are Finished, or 1000 steps. ">
<polygon fill="none" stroke="black" points="1838,-170.5 1838,-189.5 2020,-189.5 2020,-170.5 1838,-170.5"/>
<text text-anchor="middle" x="1929" y="-177.5" font-family="Helvetica,sans-Serif" font-size="10.00">nars.storage.Memory.NARSBatch.run</text>
</a>
</g>
</g>
<!-- Node11&#45;&gt;Node12 -->
<g id="edge11" class="edge"><title>Node11&#45;&gt;Node12</title>
<path fill="none" stroke="midnightblue" d="M1812.27,-180C1820.69,-180 1829.25,-180 1837.71,-180"/>
<polygon fill="midnightblue" stroke="midnightblue" points="1812.08,-176.5 1802.08,-180 1812.08,-183.5 1812.08,-176.5"/>
</g>
<!-- Node13 -->
<g id="node13" class="node"><title>Node13</title>
<g id="a_node13"><a xlink:href="../../d4/d88/classnars_1_1storage_1_1Memory_1_1NARSBatch_a416c39463faa161661ed1d12fea03b3c.html#a416c39463faa161661ed1d12fea03b3c" target="_top" xlink:title="non&#45;static equivalent to main(String[]) : run to completion from an input file ">
<polygon fill="none" stroke="black" points="2056,-165 2056,-195 2238,-195 2238,-165 2056,-165"/>
<text text-anchor="start" x="2064" y="-183" font-family="Helvetica,sans-Serif" font-size="10.00">nars.storage.Memory.NARSBatch.run</text>
<text text-anchor="middle" x="2147" y="-172" font-family="Helvetica,sans-Serif" font-size="10.00">Inference</text>
</a>
</g>
</g>
<!-- Node12&#45;&gt;Node13 -->
<g id="edge12" class="edge"><title>Node12&#45;&gt;Node13</title>
<path fill="none" stroke="midnightblue" d="M2030.06,-180C2038.63,-180 2047.27,-180 2055.76,-180"/>
<polygon fill="midnightblue" stroke="midnightblue" points="2030.04,-176.5 2020.04,-180 2030.04,-183.5 2030.04,-176.5"/>
</g>
<!-- Node14 -->
<g id="node14" class="node"><title>Node14</title>
<g id="a_node14"><a xlink:href="../../d4/d88/classnars_1_1storage_1_1Memory_1_1NARSBatch_aa97fcd68270583e60e6bf1b4579d1bdc.html#aa97fcd68270583e60e6bf1b4579d1bdc" target="_top" xlink:title="The entry point of the standalone application. ">
<polygon fill="none" stroke="black" points="2274,-170.5 2274,-189.5 2464,-189.5 2464,-170.5 2274,-170.5"/>
<text text-anchor="middle" x="2369" y="-177.5" font-family="Helvetica,sans-Serif" font-size="10.00">nars.storage.Memory.NARSBatch.main</text>
</a>
</g>
</g>
<!-- Node13&#45;&gt;Node14 -->
<g id="edge13" class="edge"><title>Node13&#45;&gt;Node14</title>
<path fill="none" stroke="midnightblue" d="M2248.37,-180C2256.82,-180 2265.34,-180 2273.74,-180"/>
<polygon fill="midnightblue" stroke="midnightblue" points="2248.12,-176.5 2238.12,-180 2248.12,-183.5 2248.12,-176.5"/>
</g>
<!-- Node15&#45;&gt;Node9 -->
<g id="edge15" class="edge"><title>Node15&#45;&gt;Node9</title>
<path fill="none" stroke="midnightblue" d="M1263.12,-180C1271.72,-180 1280.37,-180 1288.76,-180"/>
<polygon fill="midnightblue" stroke="midnightblue" points="1263.07,-176.5 1253.07,-180 1263.07,-183.5 1263.07,-176.5"/>
</g>
<!-- Node17 -->
<g id="node17" class="node"><title>Node17</title>
<g id="a_node17"><a xlink:href="../../da/de3/classnars_1_1inference_1_1RuleTables_ac2d01dfdc40bdd47c757cb549217e6e3.html#ac2d01dfdc40bdd47c757cb549217e6e3" target="_top" xlink:title="Entry point of the inference engine. ">
<polygon fill="none" stroke="black" points="550,-126.5 550,-145.5 713,-145.5 713,-126.5 550,-126.5"/>
<text text-anchor="middle" x="631.5" y="-133.5" font-family="Helvetica,sans-Serif" font-size="10.00">nars.inference.RuleTables.reason</text>
</a>
</g>
</g>
<!-- Node16&#45;&gt;Node17 -->
<g id="edge17" class="edge"><title>Node16&#45;&gt;Node17</title>
<path fill="none" stroke="midnightblue" d="M524.44,-136C532.91,-136 541.52,-136 549.985,-136"/>
<polygon fill="midnightblue" stroke="midnightblue" points="524.197,-132.5 514.197,-136 524.197,-139.5 524.197,-132.5"/>
</g>
<!-- Node18 -->
<g id="node18" class="node"><title>Node18</title>
<g id="a_node18"><a xlink:href="../../d4/d22/classnars_1_1entity_1_1Concept_ae07576c8466ad65eeb61040e3f71cfc7.html#ae07576c8466ad65eeb61040e3f71cfc7" target="_top" xlink:title="An atomic step in a concept, only called in Memory# processConcept. ">
<polygon fill="none" stroke="black" points="754,-126.5 754,-145.5 873,-145.5 873,-126.5 754,-126.5"/>
<text text-anchor="middle" x="813.5" y="-133.5" font-family="Helvetica,sans-Serif" font-size="10.00">nars.entity.Concept.fire</text>
</a>
</g>
</g>
<!-- Node17&#45;&gt;Node18 -->
<g id="edge18" class="edge"><title>Node17&#45;&gt;Node18</title>
<path fill="none" stroke="midnightblue" d="M723.055,-136C733.534,-136 744.003,-136 753.894,-136"/>
<polygon fill="midnightblue" stroke="midnightblue" points="723.023,-132.5 713.023,-136 723.023,-139.5 723.023,-132.5"/>
</g>
<!-- Node19 -->
<g id="node19" class="node"><title>Node19</title>
<g id="a_node19"><a xlink:href="../../d8/df4/classnars_1_1storage_1_1Memory_a83154b55b922c82b73931d4f22e3a590.html#a83154b55b922c82b73931d4f22e3a590" target="_top" xlink:title="Select a concept to fire. ">
<polygon fill="none" stroke="black" points="919.5,-121 919.5,-151 1065.5,-151 1065.5,-121 919.5,-121"/>
<text text-anchor="start" x="927.5" y="-139" font-family="Helvetica,sans-Serif" font-size="10.00">nars.storage.Memory.process</text>
<text text-anchor="middle" x="992.5" y="-128" font-family="Helvetica,sans-Serif" font-size="10.00">Concept</text>
</a>
</g>
</g>
<!-- Node18&#45;&gt;Node19 -->
<g id="edge19" class="edge"><title>Node18&#45;&gt;Node19</title>
<path fill="none" stroke="midnightblue" d="M883.585,-136C895.295,-136 907.483,-136 919.272,-136"/>
<polygon fill="midnightblue" stroke="midnightblue" points="883.438,-132.5 873.438,-136 883.438,-139.5 883.438,-132.5"/>
</g>
<!-- Node19&#45;&gt;Node9 -->
<g id="edge20" class="edge"><title>Node19&#45;&gt;Node9</title>
<path fill="none" stroke="midnightblue" d="M1075.74,-139.072C1126.96,-141.791 1194.09,-146.822 1253,-156 1267.67,-158.286 1283.36,-161.57 1297.9,-164.978"/>
<polygon fill="midnightblue" stroke="midnightblue" points="1075.88,-135.574 1065.72,-138.558 1075.53,-142.565 1075.88,-135.574"/>
</g>
<!-- Node21 -->
<g id="node21" class="node"><title>Node21</title>
<g id="a_node21"><a xlink:href="../../dc/ddc/classnars_1_1entity_1_1Task_a518ea3eb3fcae3813d8e3a768ed4da58.html#a518ea3eb3fcae3813d8e3a768ed4da58" target="_top" xlink:title="Merge one Task into another. ">
<polygon fill="none" stroke="black" points="384,-70.5 384,-89.5 501,-89.5 501,-70.5 384,-70.5"/>
<text text-anchor="middle" x="442.5" y="-77.5" font-family="Helvetica,sans-Serif" font-size="10.00">nars.entity.Task.merge</text>
</a>
</g>
</g>
<!-- Node20&#45;&gt;Node21 -->
<g id="edge22" class="edge"><title>Node20&#45;&gt;Node21</title>
<path fill="none" stroke="midnightblue" d="M338.255,-89.6042C353.782,-88.1598 369.534,-86.6945 383.9,-85.3581"/>
<polygon fill="midnightblue" stroke="midnightblue" points="337.733,-86.1375 328.101,-90.5488 338.382,-93.1074 337.733,-86.1375"/>
</g>
<!-- Node21&#45;&gt;Node21 -->
<g id="edge23" class="edge"><title>Node21&#45;&gt;Node21</title>
<path fill="none" stroke="midnightblue" d="M407.268,-97.8913C407.784,-103.541 419.528,-108 442.5,-108 475.914,-108 485.573,-98.5653 471.476,-89.7571"/>
<polygon fill="midnightblue" stroke="midnightblue" points="410.202,-99.8176 413.524,-89.7571 404.653,-95.5501 410.202,-99.8176"/>
</g>
<!-- Node22&#45;&gt;Node4 -->
<g id="edge26" class="edge"><title>Node22&#45;&gt;Node4</title>
<path fill="none" stroke="midnightblue" d="M345.215,-218C355.752,-218 366.282,-218 376.304,-218"/>
<polygon fill="midnightblue" stroke="midnightblue" points="345.127,-214.5 335.127,-218 345.127,-221.5 345.127,-214.5"/>
</g>
</g>
</svg>
        <g id="navigator" transform="translate(0 0)" fill="#404254">
                <rect fill="#f2f5e9" fill-opacity="0.5" stroke="#606060" stroke-width=".5" x="0" y="0" width="60" height="60"/>
                <use id="zoomplus" xlink:href="#zoomPlus" x="17" y="9" onmousedown="handleZoom(evt,'in')"/>
                <use id="zoomminus" xlink:href="#zoomMin" x="42" y="9" onmousedown="handleZoom(evt,'out')"/>
                <use id="reset" xlink:href="#resetDef" x="30" y="36" onmousedown="handleReset()"/>
                <g id="arrowUp" xlink:href="#dirArrow" transform="translate(30 24)" onmousedown="handlePan(0,-1)">
                  <use xlink:href="#rim" fill="#404040">
                        <set attributeName="fill" to="#808080" begin="arrowUp.mouseover" end="arrowUp.mouseout"/>
                  </use>
                  <path fill="none" stroke="white" stroke-width="1.5" d="M0,-3.0v7 M-2.5,-0.5L0,-3.0L2.5,-0.5"/>
                </g>
                <g id="arrowRight" xlink:href="#dirArrow" transform="rotate(90) translate(36 -43)" onmousedown="handlePan(1,0)">
                  <use xlink:href="#rim" fill="#404040">
                        <set attributeName="fill" to="#808080" begin="arrowRight.mouseover" end="arrowRight.mouseout"/>
                  </use>
                  <path fill="none" stroke="white" stroke-width="1.5" d="M0,-3.0v7 M-2.5,-0.5L0,-3.0L2.5,-0.5"/>
                </g>
                <g id="arrowDown" xlink:href="#dirArrow" transform="rotate(180) translate(-30 -48)" onmousedown="handlePan(0,1)">
                  <use xlink:href="#rim" fill="#404040">
                        <set attributeName="fill" to="#808080" begin="arrowDown.mouseover" end="arrowDown.mouseout"/>
                  </use>
                  <path fill="none" stroke="white" stroke-width="1.5" d="M0,-3.0v7 M-2.5,-0.5L0,-3.0L2.5,-0.5"/>
                </g>
                <g id="arrowLeft" xlink:href="#dirArrow" transform="rotate(270) translate(-36 17)" onmousedown="handlePan(-1,0)">
                  <use xlink:href="#rim" fill="#404040">
                        <set attributeName="fill" to="#808080" begin="arrowLeft.mouseover" end="arrowLeft.mouseout"/>
                  </use>
                  <path fill="none" stroke="white" stroke-width="1.5" d="M0,-3.0v7 M-2.5,-0.5L0,-3.0L2.5,-0.5"/>
                </g>
        </g>
        <svg viewBox="0 0 15 15" width="100%" height="30px" preserveAspectRatio="xMaxYMin meet">
         <g id="arrow_out" transform="scale(0.3 0.3)">
          <a xlink:href="classnars_1_1entity_1_1Sentence_ac0ed749c50e55120d5b63219ed7eb082_ac0ed749c50e55120d5b63219ed7eb082_icgraph_org.svg" target="_base">
           <rect id="button" ry="5" rx="5" y="6" x="6" height="38" width="38"
                fill="#f2f5e9" fill-opacity="0.5" stroke="#606060" stroke-width="1.0"/>
           <path id="arrow"
             d="M 11.500037,31.436501 C 11.940474,20.09759 22.043105,11.32322 32.158766,21.979434 L 37.068811,17.246167 C 37.068811,17.246167 37.088388,32 37.088388,32 L 22.160133,31.978069 C 22.160133,31.978069 26.997745,27.140456 26.997745,27.140456 C 18.528582,18.264221 13.291696,25.230495 11.500037,31.436501 z"
             style="fill:#404040;"/>
          </a>
         </g>
        </svg>
</svg>
