<?xml version="1.0" encoding="UTF-8" standalone="no"?>
<!DOCTYPE svg PUBLIC "-//W3C//DTD SVG 1.1//EN"
 "http://www.w3.org/Graphics/SVG/1.1/DTD/svg11.dtd">
<!-- Generated by graphviz version 2.38.0 (20140413.2041)
 -->
<!-- Title: nars.entity.Sentence.toStringBrief Pages: 1 -->
<svg width="498pt" height="88pt"
 viewBox="0.00 0.00 498.00 88.00" xmlns="http://www.w3.org/2000/svg" xmlns:xlink="http://www.w3.org/1999/xlink">
<g id="graph0" class="graph" transform="scale(1 1) rotate(0) translate(4 84)">
<title>nars.entity.Sentence.toStringBrief</title>
<!-- Node1 -->
<g id="node1" class="node"><title>Node1</title>
<polygon fill="#bfbfbf" stroke="black" points="0,-14 0,-44 143,-44 143,-14 0,-14"/>
<text text-anchor="start" x="8" y="-32" font-family="Helvetica,sans-Serif" font-size="10.00">nars.entity.Sentence.toString</text>
<text text-anchor="middle" x="71.5" y="-21" font-family="Helvetica,sans-Serif" font-size="10.00">Brief</text>
</g>
<!-- Node2 -->
<g id="node2" class="node"><title>Node2</title>
<g id="a_node2"><a xlink:href="../../d6/d25/classnars_1_1entity_1_1Sentence_a32d81c9525d514aca8ddc5f4db48a762.html#a32d81c9525d514aca8ddc5f4db48a762" target="_top" xlink:title="Get a String representation of the sentence for key of Task and TaskLink. ">
<polygon fill="none" stroke="black" points="179,-38.5 179,-57.5 314,-57.5 314,-38.5 179,-38.5"/>
<text text-anchor="middle" x="246.5" y="-45.5" font-family="Helvetica,sans-Serif" font-size="10.00">nars.entity.Sentence.toKey</text>
</a>
</g>
</g>
<!-- Node1&#45;&gt;Node2 -->
<g id="edge1" class="edge"><title>Node1&#45;&gt;Node2</title>
<path fill="none" stroke="midnightblue" d="M143.365,-36.7828C151.724,-37.7009 160.284,-38.641 168.719,-39.5675"/>
<polygon fill="midnightblue" stroke="midnightblue" points="168.603,-43.0756 178.925,-40.6883 169.367,-36.1174 168.603,-43.0756"/>
</g>
<!-- Node5 -->
<g id="node5" class="node"><title>Node5</title>
<g id="a_node5"><a xlink:href="../../d1/d1e/classnars_1_1entity_1_1Stamp_ad1aee19cfc0bb8ca9232bad251f74ffc.html#ad1aee19cfc0bb8ca9232bad251f74ffc" target="_top" xlink:title="Get a String form of the Stamp for display Format: {creationTime [: eventTime] : evidentialBase}. ">
<polygon fill="none" stroke="black" points="181,-0.5 181,-19.5 312,-19.5 312,-0.5 181,-0.5"/>
<text text-anchor="middle" x="246.5" y="-7.5" font-family="Helvetica,sans-Serif" font-size="10.00">nars.entity.Stamp.toString</text>
</a>
</g>
</g>
<!-- Node1&#45;&gt;Node5 -->
<g id="edge4" class="edge"><title>Node1&#45;&gt;Node5</title>
<path fill="none" stroke="midnightblue" d="M143.365,-21.2172C152.382,-20.2268 161.634,-19.2108 170.71,-18.2139"/>
<polygon fill="midnightblue" stroke="midnightblue" points="171.303,-21.6699 180.861,-17.0991 170.539,-14.7118 171.303,-21.6699"/>
</g>
<!-- Node3 -->
<g id="node3" class="node"><title>Node3</title>
<g id="a_node3"><a xlink:href="../../d8/db8/classnars_1_1language_1_1Term_a04fc046ba98c451bded562f79cff4244.html#a04fc046ba98c451bded562f79cff4244" target="_top" xlink:title="The same as getName by default, used in display only. ">
<polygon fill="none" stroke="black" points="350,-60.5 350,-79.5 490,-79.5 490,-60.5 350,-60.5"/>
<text text-anchor="middle" x="420" y="-67.5" font-family="Helvetica,sans-Serif" font-size="10.00">nars.language.Term.toString</text>
</a>
</g>
</g>
<!-- Node2&#45;&gt;Node3 -->
<g id="edge2" class="edge"><title>Node2&#45;&gt;Node3</title>
<path fill="none" stroke="midnightblue" d="M314.297,-56.5688C322.68,-57.6441 331.316,-58.752 339.865,-59.8486"/>
<polygon fill="midnightblue" stroke="midnightblue" points="339.475,-63.3271 349.839,-61.128 340.366,-56.384 339.475,-63.3271"/>
</g>
<!-- Node4 -->
<g id="node4" class="node"><title>Node4</title>
<g id="a_node4"><a xlink:href="../../d3/db8/classnars_1_1entity_1_1TruthValue_a5af8b2fe37987ba1e8396ec1aad38e90.html#a5af8b2fe37987ba1e8396ec1aad38e90" target="_top" xlink:title="A simplified String representation of a TruthValue, where each factor is accruate to 1%...">
<polygon fill="none" stroke="black" points="358,-11 358,-41 482,-41 482,-11 358,-11"/>
<text text-anchor="start" x="366" y="-29" font-family="Helvetica,sans-Serif" font-size="10.00">nars.entity.TruthValue.to</text>
<text text-anchor="middle" x="420" y="-18" font-family="Helvetica,sans-Serif" font-size="10.00">StringBrief</text>
</a>
</g>
</g>
<!-- Node2&#45;&gt;Node4 -->
<g id="edge3" class="edge"><title>Node2&#45;&gt;Node4</title>
<path fill="none" stroke="midnightblue" d="M314.297,-39.4312C325.315,-38.0179 336.771,-36.5483 347.89,-35.122"/>
<polygon fill="midnightblue" stroke="midnightblue" points="348.509,-38.5713 357.983,-33.8273 347.619,-31.6282 348.509,-38.5713"/>
</g>
</g>
</svg>
