<?xml version="1.0" encoding="UTF-8" standalone="no"?>
<!DOCTYPE svg PUBLIC "-//W3C//DTD SVG 1.1//EN"
 "http://www.w3.org/Graphics/SVG/1.1/DTD/svg11.dtd">
<!-- Generated by graphviz version 2.38.0 (20140413.2041)
 -->
<!-- Title: nars.entity.Sentence.Sentence Pages: 1 -->
<svg width="2517pt" height="116pt"
 viewBox="0.00 0.00 2517.00 115.50" xmlns="http://www.w3.org/2000/svg" xmlns:xlink="http://www.w3.org/1999/xlink">
<g id="graph0" class="graph" transform="scale(1 1) rotate(0) translate(4 111.5)">
<title>nars.entity.Sentence.Sentence</title>
<!-- Node1 -->
<g id="node1" class="node"><title>Node1</title>
<polygon fill="#bfbfbf" stroke="black" points="0,-19.5 0,-38.5 151,-38.5 151,-19.5 0,-19.5"/>
<text text-anchor="middle" x="75.5" y="-26.5" font-family="Helvetica,sans-Serif" font-size="10.00">nars.entity.Sentence.Sentence</text>
</g>
<!-- Node2 -->
<g id="node2" class="node"><title>Node2</title>
<g id="a_node2"><a xlink:href="../../d6/d25/classnars_1_1entity_1_1Sentence_a721f626ab83f34dc2e6858a4eede7102.html#a721f626ab83f34dc2e6858a4eede7102" target="_top" xlink:title="Clone the Sentence. ">
<polygon fill="none" stroke="black" points="189.5,-38.5 189.5,-57.5 322.5,-57.5 322.5,-38.5 189.5,-38.5"/>
<text text-anchor="middle" x="256" y="-45.5" font-family="Helvetica,sans-Serif" font-size="10.00">nars.entity.Sentence.clone</text>
</a>
</g>
</g>
<!-- Node1&#45;&gt;Node2 -->
<g id="edge1" class="edge"><title>Node1&#45;&gt;Node2</title>
<path fill="none" stroke="midnightblue" d="M161.357,-38.0324C170.791,-39.0365 180.29,-40.0477 189.432,-41.0208"/>
<polygon fill="midnightblue" stroke="midnightblue" points="161.48,-34.5258 151.166,-36.9476 160.739,-41.4865 161.48,-34.5258"/>
</g>
<!-- Node16 -->
<g id="node16" class="node"><title>Node16</title>
<g id="a_node16"><a xlink:href="../../d6/d25/classnars_1_1entity_1_1Sentence_a6b64cf9f10e578e4831092ab31dcd5d9.html#a6b64cf9f10e578e4831092ab31dcd5d9" target="_top" xlink:title="To check whether two sentences are equal. ">
<polygon fill="none" stroke="black" points="187,-0.5 187,-19.5 325,-19.5 325,-0.5 187,-0.5"/>
<text text-anchor="middle" x="256" y="-7.5" font-family="Helvetica,sans-Serif" font-size="10.00">nars.entity.Sentence.equals</text>
</a>
</g>
</g>
<!-- Node1&#45;&gt;Node16 -->
<g id="edge17" class="edge"><title>Node1&#45;&gt;Node16</title>
<path fill="none" stroke="midnightblue" d="M161.225,-19.9816C169.833,-19.0654 178.497,-18.1432 186.896,-17.2492"/>
<polygon fill="midnightblue" stroke="midnightblue" points="160.739,-16.5135 151.166,-21.0524 161.48,-23.4742 160.739,-16.5135"/>
</g>
<!-- Node3 -->
<g id="node3" class="node"><title>Node3</title>
<g id="a_node3"><a xlink:href="../../da/de3/classnars_1_1inference_1_1RuleTables_a3e3eec10853be6dcf8c7532259cf4a84.html#a3e3eec10853be6dcf8c7532259cf4a84" target="_top" xlink:title="The detachment rule, with variable unification. ">
<polygon fill="none" stroke="black" points="361,-77 361,-107 546,-107 546,-77 361,-77"/>
<text text-anchor="start" x="369" y="-95" font-family="Helvetica,sans-Serif" font-size="10.00">nars.inference.RuleTables.detachment</text>
<text text-anchor="middle" x="453.5" y="-84" font-family="Helvetica,sans-Serif" font-size="10.00">WithVar</text>
</a>
</g>
</g>
<!-- Node2&#45;&gt;Node3 -->
<g id="edge2" class="edge"><title>Node2&#45;&gt;Node3</title>
<path fill="none" stroke="midnightblue" d="M309.488,-59.8132C332.876,-65.0769 360.7,-71.3391 385.562,-76.9346"/>
<polygon fill="midnightblue" stroke="midnightblue" points="309.945,-56.3285 299.421,-57.5473 308.408,-63.1577 309.945,-56.3285"/>
</g>
<!-- Node14 -->
<g id="node14" class="node"><title>Node14</title>
<g id="a_node14"><a xlink:href="../../d4/d22/classnars_1_1entity_1_1Concept_a37e00599fc19c5931da40bd446890f89.html#a37e00599fc19c5931da40bd446890f89" target="_top" xlink:title="Select a isBelief to interact with the given task in inference. ">
<polygon fill="none" stroke="black" points="600.5,-38.5 600.5,-57.5 743.5,-57.5 743.5,-38.5 600.5,-38.5"/>
<text text-anchor="middle" x="672" y="-45.5" font-family="Helvetica,sans-Serif" font-size="10.00">nars.entity.Concept.getBelief</text>
</a>
</g>
</g>
<!-- Node2&#45;&gt;Node14 -->
<g id="edge13" class="edge"><title>Node2&#45;&gt;Node14</title>
<path fill="none" stroke="midnightblue" d="M332.617,-48C408.869,-48 525.661,-48 600.162,-48"/>
<polygon fill="midnightblue" stroke="midnightblue" points="332.6,-44.5001 322.6,-48 332.599,-51.5001 332.6,-44.5001"/>
</g>
<!-- Node15 -->
<g id="node15" class="node"><title>Node15</title>
<g id="a_node15"><a xlink:href="../../d4/de9/classnars_1_1inference_1_1LocalRules_aac1c92950f50edd04d12229a8c992987.html#aac1c92950f50edd04d12229a8c992987" target="_top" xlink:title="The task and belief have the same content. ">
<polygon fill="none" stroke="black" points="373.5,-0.5 373.5,-19.5 533.5,-19.5 533.5,-0.5 373.5,-0.5"/>
<text text-anchor="middle" x="453.5" y="-7.5" font-family="Helvetica,sans-Serif" font-size="10.00">nars.inference.LocalRules.match</text>
</a>
</g>
</g>
<!-- Node2&#45;&gt;Node15 -->
<g id="edge15" class="edge"><title>Node2&#45;&gt;Node15</title>
<path fill="none" stroke="midnightblue" d="M316.11,-36.5106C344.004,-31.0886 376.902,-24.6942 403.399,-19.5439"/>
<polygon fill="midnightblue" stroke="midnightblue" points="315.229,-33.1162 306.081,-38.46 316.565,-39.9876 315.229,-33.1162"/>
</g>
<!-- Node4 -->
<g id="node4" class="node"><title>Node4</title>
<g id="a_node4"><a xlink:href="../../da/de3/classnars_1_1inference_1_1RuleTables_a8628d400a8ceda7fea05039ddfea319b.html#a8628d400a8ceda7fea05039ddfea319b" target="_top" xlink:title="Meta&#45;table of syllogistic rules, indexed by the content classes of the taskSentence and the belief...">
<polygon fill="none" stroke="black" points="582,-79.5 582,-98.5 762,-98.5 762,-79.5 582,-79.5"/>
<text text-anchor="middle" x="672" y="-86.5" font-family="Helvetica,sans-Serif" font-size="10.00">nars.inference.RuleTables.syllogisms</text>
</a>
</g>
</g>
<!-- Node3&#45;&gt;Node4 -->
<g id="edge3" class="edge"><title>Node3&#45;&gt;Node4</title>
<path fill="none" stroke="midnightblue" d="M556.084,-90.5924C564.705,-90.4729 573.383,-90.3527 581.898,-90.2347"/>
<polygon fill="midnightblue" stroke="midnightblue" points="555.952,-87.0938 546.002,-90.7321 556.049,-94.0931 555.952,-87.0938"/>
</g>
<!-- Node5 -->
<g id="node5" class="node"><title>Node5</title>
<g id="a_node5"><a xlink:href="../../da/de3/classnars_1_1inference_1_1RuleTables_ac2d01dfdc40bdd47c757cb549217e6e3.html#ac2d01dfdc40bdd47c757cb549217e6e3" target="_top" xlink:title="Entry point of the inference engine. ">
<polygon fill="none" stroke="black" points="798,-38.5 798,-57.5 961,-57.5 961,-38.5 798,-38.5"/>
<text text-anchor="middle" x="879.5" y="-45.5" font-family="Helvetica,sans-Serif" font-size="10.00">nars.inference.RuleTables.reason</text>
</a>
</g>
</g>
<!-- Node4&#45;&gt;Node5 -->
<g id="edge4" class="edge"><title>Node4&#45;&gt;Node5</title>
<path fill="none" stroke="midnightblue" d="M730.643,-77.4994C762.213,-71.2007 800.872,-63.4879 830.741,-57.5286"/>
<polygon fill="midnightblue" stroke="midnightblue" points="729.784,-74.1017 720.662,-79.4907 731.154,-80.9664 729.784,-74.1017"/>
</g>
<!-- Node6 -->
<g id="node6" class="node"><title>Node6</title>
<g id="a_node6"><a xlink:href="../../d4/d22/classnars_1_1entity_1_1Concept_ae07576c8466ad65eeb61040e3f71cfc7.html#ae07576c8466ad65eeb61040e3f71cfc7" target="_top" xlink:title="An atomic step in a concept, only called in Memory# processConcept. ">
<polygon fill="none" stroke="black" points="997,-38.5 997,-57.5 1116,-57.5 1116,-38.5 997,-38.5"/>
<text text-anchor="middle" x="1056.5" y="-45.5" font-family="Helvetica,sans-Serif" font-size="10.00">nars.entity.Concept.fire</text>
</a>
</g>
</g>
<!-- Node5&#45;&gt;Node6 -->
<g id="edge5" class="edge"><title>Node5&#45;&gt;Node6</title>
<path fill="none" stroke="midnightblue" d="M971.249,-48C979.907,-48 988.523,-48 996.757,-48"/>
<polygon fill="midnightblue" stroke="midnightblue" points="971.085,-44.5001 961.085,-48 971.085,-51.5001 971.085,-44.5001"/>
</g>
<!-- Node7 -->
<g id="node7" class="node"><title>Node7</title>
<g id="a_node7"><a xlink:href="../../d8/df4/classnars_1_1storage_1_1Memory_a83154b55b922c82b73931d4f22e3a590.html#a83154b55b922c82b73931d4f22e3a590" target="_top" xlink:title="Select a concept to fire. ">
<polygon fill="none" stroke="black" points="1152,-33 1152,-63 1298,-63 1298,-33 1152,-33"/>
<text text-anchor="start" x="1160" y="-51" font-family="Helvetica,sans-Serif" font-size="10.00">nars.storage.Memory.process</text>
<text text-anchor="middle" x="1225" y="-40" font-family="Helvetica,sans-Serif" font-size="10.00">Concept</text>
</a>
</g>
</g>
<!-- Node6&#45;&gt;Node7 -->
<g id="edge6" class="edge"><title>Node6&#45;&gt;Node7</title>
<path fill="none" stroke="midnightblue" d="M1126.34,-48C1134.75,-48 1143.36,-48 1151.82,-48"/>
<polygon fill="midnightblue" stroke="midnightblue" points="1126.2,-44.5001 1116.2,-48 1126.2,-51.5001 1126.2,-44.5001"/>
</g>
<!-- Node8 -->
<g id="node8" class="node"><title>Node8</title>
<g id="a_node8"><a xlink:href="../../d8/df4/classnars_1_1storage_1_1Memory_a49e2cbc8b78d535f4d69739886ee966a.html#a49e2cbc8b78d535f4d69739886ee966a" target="_top" xlink:title="An atomic working workCycle of the system: process new Tasks, then fire a concept. ">
<polygon fill="none" stroke="black" points="1334,-33 1334,-63 1467,-63 1467,-33 1334,-33"/>
<text text-anchor="start" x="1342" y="-51" font-family="Helvetica,sans-Serif" font-size="10.00">nars.storage.Memory.work</text>
<text text-anchor="middle" x="1400.5" y="-40" font-family="Helvetica,sans-Serif" font-size="10.00">Cycle</text>
</a>
</g>
</g>
<!-- Node7&#45;&gt;Node8 -->
<g id="edge7" class="edge"><title>Node7&#45;&gt;Node8</title>
<path fill="none" stroke="midnightblue" d="M1308.12,-48C1316.72,-48 1325.37,-48 1333.76,-48"/>
<polygon fill="midnightblue" stroke="midnightblue" points="1308.07,-44.5001 1298.07,-48 1308.07,-51.5001 1308.07,-44.5001"/>
</g>
<!-- Node9 -->
<g id="node9" class="node"><title>Node9</title>
<g id="a_node9"><a xlink:href="../../dd/da5/classnars_1_1storage_1_1Memory_1_1ReasonerBatch_acc60dec23da774957a85362ed6d7448b.html#acc60dec23da774957a85362ed6d7448b" target="_top" xlink:title="nars.storage.Memory.Reasoner\lBatch.doTick">
<polygon fill="none" stroke="black" points="1503,-33 1503,-63 1657,-63 1657,-33 1503,-33"/>
<text text-anchor="start" x="1511" y="-51" font-family="Helvetica,sans-Serif" font-size="10.00">nars.storage.Memory.Reasoner</text>
<text text-anchor="middle" x="1580" y="-40" font-family="Helvetica,sans-Serif" font-size="10.00">Batch.doTick</text>
</a>
</g>
</g>
<!-- Node8&#45;&gt;Node9 -->
<g id="edge8" class="edge"><title>Node8&#45;&gt;Node9</title>
<path fill="none" stroke="midnightblue" d="M1477.32,-48C1485.79,-48 1494.41,-48 1502.89,-48"/>
<polygon fill="midnightblue" stroke="midnightblue" points="1477.09,-44.5001 1467.09,-48 1477.09,-51.5001 1477.09,-44.5001"/>
</g>
<!-- Node10 -->
<g id="node10" class="node"><title>Node10</title>
<g id="a_node10"><a xlink:href="../../dd/da5/classnars_1_1storage_1_1Memory_1_1ReasonerBatch_aed591f05899b98fd9e4ad01836ad0a40.html#aed591f05899b98fd9e4ad01836ad0a40" target="_top" xlink:title="A clock tick. ">
<polygon fill="none" stroke="black" points="1693,-33 1693,-63 1847,-63 1847,-33 1693,-33"/>
<text text-anchor="start" x="1701" y="-51" font-family="Helvetica,sans-Serif" font-size="10.00">nars.storage.Memory.Reasoner</text>
<text text-anchor="middle" x="1770" y="-40" font-family="Helvetica,sans-Serif" font-size="10.00">Batch.tick</text>
</a>
</g>
</g>
<!-- Node9&#45;&gt;Node10 -->
<g id="edge9" class="edge"><title>Node9&#45;&gt;Node10</title>
<path fill="none" stroke="midnightblue" d="M1667.42,-48C1675.86,-48 1684.37,-48 1692.7,-48"/>
<polygon fill="midnightblue" stroke="midnightblue" points="1667.2,-44.5001 1657.2,-48 1667.2,-51.5001 1667.2,-44.5001"/>
</g>
<!-- Node11 -->
<g id="node11" class="node"><title>Node11</title>
<g id="a_node11"><a xlink:href="../../d4/d88/classnars_1_1storage_1_1Memory_1_1NARSBatch_aad99db6cedde9cff2a997db8906ff821.html#aad99db6cedde9cff2a997db8906ff821" target="_top" xlink:title="Run to completion: repeatedly execute NARS working cycle, until Inputs are Finished, or 1000 steps. ">
<polygon fill="none" stroke="black" points="1883,-38.5 1883,-57.5 2065,-57.5 2065,-38.5 1883,-38.5"/>
<text text-anchor="middle" x="1974" y="-45.5" font-family="Helvetica,sans-Serif" font-size="10.00">nars.storage.Memory.NARSBatch.run</text>
</a>
</g>
</g>
<!-- Node10&#45;&gt;Node11 -->
<g id="edge10" class="edge"><title>Node10&#45;&gt;Node11</title>
<path fill="none" stroke="midnightblue" d="M1857.27,-48C1865.69,-48 1874.25,-48 1882.71,-48"/>
<polygon fill="midnightblue" stroke="midnightblue" points="1857.08,-44.5001 1847.08,-48 1857.08,-51.5001 1857.08,-44.5001"/>
</g>
<!-- Node12 -->
<g id="node12" class="node"><title>Node12</title>
<g id="a_node12"><a xlink:href="../../d4/d88/classnars_1_1storage_1_1Memory_1_1NARSBatch_a416c39463faa161661ed1d12fea03b3c.html#a416c39463faa161661ed1d12fea03b3c" target="_top" xlink:title="non&#45;static equivalent to main(String[]) : run to completion from an input file ">
<polygon fill="none" stroke="black" points="2101,-33 2101,-63 2283,-63 2283,-33 2101,-33"/>
<text text-anchor="start" x="2109" y="-51" font-family="Helvetica,sans-Serif" font-size="10.00">nars.storage.Memory.NARSBatch.run</text>
<text text-anchor="middle" x="2192" y="-40" font-family="Helvetica,sans-Serif" font-size="10.00">Inference</text>
</a>
</g>
</g>
<!-- Node11&#45;&gt;Node12 -->
<g id="edge11" class="edge"><title>Node11&#45;&gt;Node12</title>
<path fill="none" stroke="midnightblue" d="M2075.06,-48C2083.63,-48 2092.27,-48 2100.76,-48"/>
<polygon fill="midnightblue" stroke="midnightblue" points="2075.04,-44.5001 2065.04,-48 2075.04,-51.5001 2075.04,-44.5001"/>
</g>
<!-- Node13 -->
<g id="node13" class="node"><title>Node13</title>
<g id="a_node13"><a xlink:href="../../d4/d88/classnars_1_1storage_1_1Memory_1_1NARSBatch_aa97fcd68270583e60e6bf1b4579d1bdc.html#aa97fcd68270583e60e6bf1b4579d1bdc" target="_top" xlink:title="The entry point of the standalone application. ">
<polygon fill="none" stroke="black" points="2319,-38.5 2319,-57.5 2509,-57.5 2509,-38.5 2319,-38.5"/>
<text text-anchor="middle" x="2414" y="-45.5" font-family="Helvetica,sans-Serif" font-size="10.00">nars.storage.Memory.NARSBatch.main</text>
</a>
</g>
</g>
<!-- Node12&#45;&gt;Node13 -->
<g id="edge12" class="edge"><title>Node12&#45;&gt;Node13</title>
<path fill="none" stroke="midnightblue" d="M2293.37,-48C2301.82,-48 2310.34,-48 2318.74,-48"/>
<polygon fill="midnightblue" stroke="midnightblue" points="2293.12,-44.5001 2283.12,-48 2293.12,-51.5001 2293.12,-44.5001"/>
</g>
<!-- Node14&#45;&gt;Node5 -->
<g id="edge14" class="edge"><title>Node14&#45;&gt;Node5</title>
<path fill="none" stroke="midnightblue" d="M754.065,-48C768.437,-48 783.402,-48 797.765,-48"/>
<polygon fill="midnightblue" stroke="midnightblue" points="753.721,-44.5001 743.721,-48 753.721,-51.5001 753.721,-44.5001"/>
</g>
<!-- Node15&#45;&gt;Node5 -->
<g id="edge16" class="edge"><title>Node15&#45;&gt;Node5</title>
<path fill="none" stroke="midnightblue" d="M543.746,-13.1556C605.232,-15.9069 688.739,-20.7834 762,-29 783.383,-31.3983 806.824,-35.0255 827.038,-38.4702"/>
<polygon fill="midnightblue" stroke="midnightblue" points="543.831,-9.65607 533.688,-12.7157 543.525,-16.6494 543.831,-9.65607"/>
</g>
</g>
</svg>
