<?xml version="1.0" encoding="UTF-8" standalone="no"?>
<!DOCTYPE svg PUBLIC "-//W3C//DTD SVG 1.1//EN"
 "http://www.w3.org/Graphics/SVG/1.1/DTD/svg11.dtd">
<!-- Generated by graphviz version 2.38.0 (20140413.2041)
 -->
<!-- Title: nars.entity.Sentence.isJudgment Pages: 1 -->
<svg width="2637pt" height="760pt"
 viewBox="0.00 0.00 2637.00 760.00" xmlns="http://www.w3.org/2000/svg" xmlns:xlink="http://www.w3.org/1999/xlink">
<g id="graph0" class="graph" transform="scale(1 1) rotate(0) translate(4 756)">
<title>nars.entity.Sentence.isJudgment</title>
<!-- Node1 -->
<g id="node1" class="node"><title>Node1</title>
<polygon fill="#bfbfbf" stroke="black" points="0,-345 0,-364 160,-364 160,-345 0,-345"/>
<text text-anchor="middle" x="80" y="-352" font-family="Helvetica,sans-Serif" font-size="10.00">nars.entity.Sentence.isJudgment</text>
</g>
<!-- Node2 -->
<g id="node2" class="node"><title>Node2</title>
<g id="a_node2"><a xlink:href="../../d8/d79/classnars_1_1inference_1_1CompositionalRules_a53f7edf7bfe7433da42e8fcf36fd6604.html#a53f7edf7bfe7433da42e8fcf36fd6604" target="_top" xlink:title="{&lt;S ==&gt; M&gt;, ">
<polygon fill="none" stroke="black" points="230,-574.5 230,-604.5 373,-604.5 373,-574.5 230,-574.5"/>
<text text-anchor="start" x="238" y="-592.5" font-family="Helvetica,sans-Serif" font-size="10.00">nars.inference.Compositional</text>
<text text-anchor="middle" x="301.5" y="-581.5" font-family="Helvetica,sans-Serif" font-size="10.00">Rules.composeCompound</text>
</a>
</g>
</g>
<!-- Node1&#45;&gt;Node2 -->
<g id="edge1" class="edge"><title>Node1&#45;&gt;Node2</title>
<path fill="none" stroke="midnightblue" d="M85.8494,-374.219C97.2878,-416.382 130.085,-515.519 196,-565.5 205.938,-573.036 217.832,-578.271 229.977,-581.893"/>
<polygon fill="midnightblue" stroke="midnightblue" points="89.1891,-373.155 83.2863,-364.356 82.4142,-374.915 89.1891,-373.155"/>
</g>
<!-- Node14 -->
<g id="node14" class="node"><title>Node14</title>
<g id="a_node14"><a xlink:href="../../da/de3/classnars_1_1inference_1_1RuleTables_a8e422154fd8288d161435c3a53e44276.html#a8e422154fd8288d161435c3a53e44276" target="_top" xlink:title="Inference between a compound term and a statement. ">
<polygon fill="none" stroke="black" points="446,-344.5 446,-374.5 625,-374.5 625,-344.5 446,-344.5"/>
<text text-anchor="start" x="454" y="-362.5" font-family="Helvetica,sans-Serif" font-size="10.00">nars.inference.RuleTables.compound</text>
<text text-anchor="middle" x="535.5" y="-351.5" font-family="Helvetica,sans-Serif" font-size="10.00">AndStatement</text>
</a>
</g>
</g>
<!-- Node1&#45;&gt;Node14 -->
<g id="edge13" class="edge"><title>Node1&#45;&gt;Node14</title>
<path fill="none" stroke="midnightblue" d="M127.097,-342.617C147.978,-337.821 173.073,-332.867 196,-330.5 289.282,-320.87 313.808,-320.035 407,-330.5 431.477,-333.249 458.108,-338.876 480.672,-344.449"/>
<polygon fill="midnightblue" stroke="midnightblue" points="126.143,-339.246 117.213,-344.946 127.749,-346.059 126.143,-339.246"/>
</g>
<!-- Node15 -->
<g id="node15" class="node"><title>Node15</title>
<g id="a_node15"><a xlink:href="../../da/de3/classnars_1_1inference_1_1RuleTables_a3e3eec10853be6dcf8c7532259cf4a84.html#a3e3eec10853be6dcf8c7532259cf4a84" target="_top" xlink:title="The detachment rule, with variable unification. ">
<polygon fill="none" stroke="black" points="443,-479.5 443,-509.5 628,-509.5 628,-479.5 443,-479.5"/>
<text text-anchor="start" x="451" y="-497.5" font-family="Helvetica,sans-Serif" font-size="10.00">nars.inference.RuleTables.detachment</text>
<text text-anchor="middle" x="535.5" y="-486.5" font-family="Helvetica,sans-Serif" font-size="10.00">WithVar</text>
</a>
</g>
</g>
<!-- Node1&#45;&gt;Node15 -->
<g id="edge15" class="edge"><title>Node1&#45;&gt;Node15</title>
<path fill="none" stroke="midnightblue" d="M91.7735,-373.129C109.404,-401.58 147.375,-454.929 196,-477.5 273.522,-513.485 372.046,-514.108 442.783,-507.912"/>
<polygon fill="midnightblue" stroke="midnightblue" points="94.5543,-370.962 86.4017,-364.196 88.5553,-374.569 94.5543,-370.962"/>
</g>
<!-- Node16 -->
<g id="node16" class="node"><title>Node16</title>
<g id="a_node16"><a xlink:href="../../d4/d22/classnars_1_1entity_1_1Concept_a9ea7c3154932d7a736c105eb55daeb5c.html#a9ea7c3154932d7a736c105eb55daeb5c" target="_top" xlink:title="Directly process a new task. ">
<polygon fill="none" stroke="black" points="897,-126.5 897,-156.5 1026,-156.5 1026,-126.5 897,-126.5"/>
<text text-anchor="start" x="905" y="-144.5" font-family="Helvetica,sans-Serif" font-size="10.00">nars.entity.Concept.direct</text>
<text text-anchor="middle" x="961.5" y="-133.5" font-family="Helvetica,sans-Serif" font-size="10.00">Process</text>
</a>
</g>
</g>
<!-- Node1&#45;&gt;Node16 -->
<g id="edge17" class="edge"><title>Node1&#45;&gt;Node16</title>
<path fill="none" stroke="midnightblue" d="M83.5266,-334.959C90.842,-287.454 116.828,-166.175 196,-116.5 317.979,-39.9674 700.804,-101.308 844,-116.5 863.131,-118.53 883.737,-122.384 902.221,-126.469"/>
<polygon fill="midnightblue" stroke="midnightblue" points="80.0577,-334.493 82.1094,-344.887 86.9875,-335.482 80.0577,-334.493"/>
</g>
<!-- Node18 -->
<g id="node18" class="node"><title>Node18</title>
<g id="a_node18"><a xlink:href="../../d8/df4/classnars_1_1storage_1_1Memory_a105e44a3504921cc1036eb979b85d9f0.html#a105e44a3504921cc1036eb979b85d9f0" target="_top" xlink:title="Process the newTasks accumulated in the previous workCycle, accept input ones and those that correspo...">
<polygon fill="none" stroke="black" points="1272,-101.5 1272,-131.5 1418,-131.5 1418,-101.5 1272,-101.5"/>
<text text-anchor="start" x="1280" y="-119.5" font-family="Helvetica,sans-Serif" font-size="10.00">nars.storage.Memory.process</text>
<text text-anchor="middle" x="1345" y="-108.5" font-family="Helvetica,sans-Serif" font-size="10.00">NewTask</text>
</a>
</g>
</g>
<!-- Node1&#45;&gt;Node18 -->
<g id="edge33" class="edge"><title>Node1&#45;&gt;Node18</title>
<path fill="none" stroke="midnightblue" d="M82.2618,-334.832C86.809,-282.223 107.206,-138.028 196,-75.5 257.572,-32.1419 459.194,-59.5 534.5,-59.5 534.5,-59.5 534.5,-59.5 962.5,-59.5 1076.18,-59.5 1206.84,-84.5619 1281.98,-101.449"/>
<polygon fill="midnightblue" stroke="midnightblue" points="78.7674,-334.628 81.4961,-344.865 85.7471,-335.161 78.7674,-334.628"/>
</g>
<!-- Node20 -->
<g id="node20" class="node"><title>Node20</title>
<g id="a_node20"><a xlink:href="../../d8/d79/classnars_1_1inference_1_1CompositionalRules_ae7906cfca35e9c7568ace240aba808a0.html#ae7906cfca35e9c7568ace240aba808a0" target="_top" xlink:title=" &#160;&#160;&#160;&#160;Introduce a second independent variable into two terms with a common &#160;component ...">
<polygon fill="none" stroke="black" points="230,-437.5 230,-467.5 373,-467.5 373,-437.5 230,-437.5"/>
<text text-anchor="start" x="238" y="-455.5" font-family="Helvetica,sans-Serif" font-size="10.00">nars.inference.Compositional</text>
<text text-anchor="middle" x="301.5" y="-444.5" font-family="Helvetica,sans-Serif" font-size="10.00">Rules.introVarInner</text>
</a>
</g>
</g>
<!-- Node1&#45;&gt;Node20 -->
<g id="edge23" class="edge"><title>Node1&#45;&gt;Node20</title>
<path fill="none" stroke="midnightblue" d="M100.898,-370.382C122.922,-387.2 160.074,-413.363 196,-428.5 206.636,-432.981 218.249,-436.699 229.743,-439.762"/>
<polygon fill="midnightblue" stroke="midnightblue" points="103.011,-367.592 92.9648,-364.227 98.7198,-373.122 103.011,-367.592"/>
</g>
<!-- Node21 -->
<g id="node21" class="node"><title>Node21</title>
<g id="a_node21"><a xlink:href="../../d4/de9/classnars_1_1inference_1_1LocalRules_aac1c92950f50edd04d12229a8c992987.html#aac1c92950f50edd04d12229a8c992987" target="_top" xlink:title="The task and belief have the same content. ">
<polygon fill="none" stroke="black" points="674,-312 674,-331 834,-331 834,-312 674,-312"/>
<text text-anchor="middle" x="754" y="-319" font-family="Helvetica,sans-Serif" font-size="10.00">nars.inference.LocalRules.match</text>
</a>
</g>
</g>
<!-- Node1&#45;&gt;Node21 -->
<g id="edge26" class="edge"><title>Node1&#45;&gt;Node21</title>
<path fill="none" stroke="midnightblue" d="M113.766,-341.319C136.439,-332.929 167.537,-322.851 196,-318.5 364.482,-292.745 564.99,-303.876 673.565,-313.31"/>
<polygon fill="midnightblue" stroke="midnightblue" points="112.402,-338.093 104.29,-344.908 114.882,-344.639 112.402,-338.093"/>
</g>
<!-- Node22 -->
<g id="node22" class="node"><title>Node22</title>
<g id="a_node22"><a xlink:href="../../d4/de9/classnars_1_1inference_1_1LocalRules_a2a6db5879fbb7ba315891fa9d49c985b.html#a2a6db5879fbb7ba315891fa9d49c985b" target="_top" xlink:title="Inheritance/Implication matches Similarity/Equivalence. ">
<polygon fill="none" stroke="black" points="221.5,-623.5 221.5,-653.5 381.5,-653.5 381.5,-623.5 221.5,-623.5"/>
<text text-anchor="start" x="229.5" y="-641.5" font-family="Helvetica,sans-Serif" font-size="10.00">nars.inference.LocalRules.match</text>
<text text-anchor="middle" x="301.5" y="-630.5" font-family="Helvetica,sans-Serif" font-size="10.00">AsymSym</text>
</a>
</g>
</g>
<!-- Node1&#45;&gt;Node22 -->
<g id="edge28" class="edge"><title>Node1&#45;&gt;Node22</title>
<path fill="none" stroke="midnightblue" d="M83.68,-374.294C91.3921,-423.19 118.296,-550.361 196,-614.5 203.465,-620.662 212.209,-625.311 221.404,-628.807"/>
<polygon fill="midnightblue" stroke="midnightblue" points="87.1006,-373.498 82.1789,-364.116 80.1755,-374.52 87.1006,-373.498"/>
</g>
<!-- Node24 -->
<g id="node24" class="node"><title>Node24</title>
<g id="a_node24"><a xlink:href="../../d4/de9/classnars_1_1inference_1_1LocalRules_a93af32adec92cf57671c32e9ccc2dffc.html#a93af32adec92cf57671c32e9ccc2dffc" target="_top" xlink:title="The task and belief match reversely. ">
<polygon fill="none" stroke="black" points="221.5,-525.5 221.5,-555.5 381.5,-555.5 381.5,-525.5 221.5,-525.5"/>
<text text-anchor="start" x="229.5" y="-543.5" font-family="Helvetica,sans-Serif" font-size="10.00">nars.inference.LocalRules.match</text>
<text text-anchor="middle" x="301.5" y="-532.5" font-family="Helvetica,sans-Serif" font-size="10.00">Reverse</text>
</a>
</g>
</g>
<!-- Node1&#45;&gt;Node24 -->
<g id="edge31" class="edge"><title>Node1&#45;&gt;Node24</title>
<path fill="none" stroke="midnightblue" d="M89.8849,-373.719C106.152,-406.762 143.901,-474.276 196,-510.5 204.833,-516.642 214.914,-521.536 225.248,-525.433"/>
<polygon fill="midnightblue" stroke="midnightblue" points="92.843,-371.792 85.367,-364.285 86.5296,-374.815 92.843,-371.792"/>
</g>
<!-- Node25 -->
<g id="node25" class="node"><title>Node25</title>
<g id="a_node25"><a xlink:href="../../d8/df4/classnars_1_1storage_1_1Memory_afe7a5bf6ae7ad1a22e72da27e1ed685c.html#afe7a5bf6ae7ad1a22e72da27e1ed685c" target="_top" xlink:title="Shared final operations by all single&#45;premise rules, called in StructuralRules. ">
<polygon fill="none" stroke="black" points="233,-0.5 233,-30.5 370,-30.5 370,-0.5 233,-0.5"/>
<text text-anchor="start" x="241" y="-18.5" font-family="Helvetica,sans-Serif" font-size="10.00">nars.storage.Memory.single</text>
<text text-anchor="middle" x="301.5" y="-7.5" font-family="Helvetica,sans-Serif" font-size="10.00">PremiseTask</text>
</a>
</g>
</g>
<!-- Node1&#45;&gt;Node25 -->
<g id="edge34" class="edge"><title>Node1&#45;&gt;Node25</title>
<path fill="none" stroke="midnightblue" d="M82.386,-334.667C87.2846,-280.107 108.564,-126.472 196,-45.5 206.317,-35.9453 219.48,-29.4111 232.958,-24.9484"/>
<polygon fill="midnightblue" stroke="midnightblue" points="78.8886,-334.494 81.5714,-344.744 85.8659,-335.058 78.8886,-334.494"/>
</g>
<!-- Node26 -->
<g id="node26" class="node"><title>Node26</title>
<g id="a_node26"><a xlink:href="../../d7/d11/classnars_1_1inference_1_1BudgetFunctions_ad2933ccc8d786f0cea9d8f561814cbf9.html#ad2933ccc8d786f0cea9d8f561814cbf9" target="_top" xlink:title="Evaluate the quality of a belief as a solution to a problem, then reward the belief and de&#45;prioritize...">
<polygon fill="none" stroke="black" points="196,-126 196,-145 407,-145 407,-126 196,-126"/>
<text text-anchor="middle" x="301.5" y="-133" font-family="Helvetica,sans-Serif" font-size="10.00">nars.inference.BudgetFunctions.solutionEval</text>
</a>
</g>
</g>
<!-- Node1&#45;&gt;Node26 -->
<g id="edge35" class="edge"><title>Node1&#45;&gt;Node26</title>
<path fill="none" stroke="midnightblue" d="M86.2459,-334.74C98.2002,-293.848 131.545,-199.973 196,-154.5 201.349,-150.726 207.224,-147.634 213.376,-145.106"/>
<polygon fill="midnightblue" stroke="midnightblue" points="82.8186,-334 83.4898,-344.573 89.5589,-335.889 82.8186,-334"/>
</g>
<!-- Node30 -->
<g id="node30" class="node"><title>Node30</title>
<g id="a_node30"><a xlink:href="../../db/d49/classnars_1_1inference_1_1StructuralRules_a29e0fbd7745a4ae5e324dbfe64b8f488.html#a29e0fbd7745a4ae5e324dbfe64b8f488" target="_top" xlink:title="{&lt;S &#45;&#45;&gt; P&gt;, P@(P&amp;Q)} |&#45; &lt;S &#45;&#45;&gt; (P&amp;Q)&gt; ">
<polygon fill="none" stroke="black" points="235,-388.5 235,-418.5 368,-418.5 368,-388.5 235,-388.5"/>
<text text-anchor="start" x="243" y="-406.5" font-family="Helvetica,sans-Serif" font-size="10.00">nars.inference.Structural</text>
<text text-anchor="middle" x="301.5" y="-395.5" font-family="Helvetica,sans-Serif" font-size="10.00">Rules.structuralCompose1</text>
</a>
</g>
</g>
<!-- Node1&#45;&gt;Node30 -->
<g id="edge42" class="edge"><title>Node1&#45;&gt;Node30</title>
<path fill="none" stroke="midnightblue" d="M133.544,-366.23C163.896,-373.005 202.35,-381.589 234.7,-388.811"/>
<polygon fill="midnightblue" stroke="midnightblue" points="134.104,-362.769 123.582,-364.006 132.579,-369.601 134.104,-362.769"/>
</g>
<!-- Node31 -->
<g id="node31" class="node"><title>Node31</title>
<g id="a_node31"><a xlink:href="../../db/d49/classnars_1_1inference_1_1StructuralRules_a7baceb5d0b1adc6005f24cf83bc88e01.html#a7baceb5d0b1adc6005f24cf83bc88e01" target="_top" xlink:title="{&lt;S &#45;&#45;&gt; P&gt;, S@(S&amp;T)} |&#45; &lt;(S&amp;T) –&gt; (P&amp;T)&gt; {&lt;S &#45;&#45;&gt; P&gt;, S@(M&#45;S)} |&#45; &lt;(M&#45;P) –&gt; (M&#45;S)&gt; ...">
<polygon fill="none" stroke="black" points="235,-339.5 235,-369.5 368,-369.5 368,-339.5 235,-339.5"/>
<text text-anchor="start" x="243" y="-357.5" font-family="Helvetica,sans-Serif" font-size="10.00">nars.inference.Structural</text>
<text text-anchor="middle" x="301.5" y="-346.5" font-family="Helvetica,sans-Serif" font-size="10.00">Rules.structuralCompose2</text>
</a>
</g>
</g>
<!-- Node1&#45;&gt;Node31 -->
<g id="edge44" class="edge"><title>Node1&#45;&gt;Node31</title>
<path fill="none" stroke="midnightblue" d="M170.377,-354.5C191.903,-354.5 214.513,-354.5 234.736,-354.5"/>
<polygon fill="midnightblue" stroke="midnightblue" points="170.245,-351 160.245,-354.5 170.245,-358 170.245,-351"/>
</g>
<!-- Node32 -->
<g id="node32" class="node"><title>Node32</title>
<g id="a_node32"><a xlink:href="../../db/d49/classnars_1_1inference_1_1StructuralRules_aa98f40a1f1409b81531260124ebd13db.html#aa98f40a1f1409b81531260124ebd13db" target="_top" xlink:title="{(&amp;&amp;, A, B), A@(&amp;&amp;, A, B)} |&#45; A {(||, A, B), A@(||, A, B)} |&#45; A ">
<polygon fill="none" stroke="black" points="235,-164.5 235,-194.5 368,-194.5 368,-164.5 235,-164.5"/>
<text text-anchor="start" x="243" y="-182.5" font-family="Helvetica,sans-Serif" font-size="10.00">nars.inference.Structural</text>
<text text-anchor="middle" x="301.5" y="-171.5" font-family="Helvetica,sans-Serif" font-size="10.00">Rules.structuralCompound</text>
</a>
</g>
</g>
<!-- Node1&#45;&gt;Node32 -->
<g id="edge46" class="edge"><title>Node1&#45;&gt;Node32</title>
<path fill="none" stroke="midnightblue" d="M89.9248,-335.784C106.253,-303.649 144.093,-238.195 196,-204.5 207.657,-196.933 221.379,-191.653 234.978,-187.97"/>
<polygon fill="midnightblue" stroke="midnightblue" points="86.6808,-334.449 85.3886,-344.964 92.9565,-337.55 86.6808,-334.449"/>
</g>
<!-- Node35 -->
<g id="node35" class="node"><title>Node35</title>
<g id="a_node35"><a xlink:href="../../db/d49/classnars_1_1inference_1_1StructuralRules_ab332619119b303e3ecf9920684448ff8.html#ab332619119b303e3ecf9920684448ff8" target="_top" xlink:title="{&lt;(S&amp;T) –&gt; P&gt;, S@(S&amp;T)} |&#45; &lt;S &#45;&#45;&gt; P&gt; ">
<polygon fill="none" stroke="black" points="230,-721.5 230,-751.5 373,-751.5 373,-721.5 230,-721.5"/>
<text text-anchor="start" x="238" y="-739.5" font-family="Helvetica,sans-Serif" font-size="10.00">nars.inference.Structural</text>
<text text-anchor="middle" x="301.5" y="-728.5" font-family="Helvetica,sans-Serif" font-size="10.00">Rules.structuralDecompose1</text>
</a>
</g>
</g>
<!-- Node1&#45;&gt;Node35 -->
<g id="edge51" class="edge"><title>Node1&#45;&gt;Node35</title>
<path fill="none" stroke="midnightblue" d="M80.9927,-374.427C82.112,-435.074 94.1409,-618.957 196,-712.5 205.46,-721.188 217.412,-726.936 229.826,-730.698"/>
<polygon fill="midnightblue" stroke="midnightblue" points="84.4913,-374.258 80.8911,-364.294 77.4916,-374.329 84.4913,-374.258"/>
</g>
<!-- Node37 -->
<g id="node37" class="node"><title>Node37</title>
<g id="a_node37"><a xlink:href="../../db/d49/classnars_1_1inference_1_1StructuralRules_a38aabb9f3b3a70e03852da1e32ec665d.html#a38aabb9f3b3a70e03852da1e32ec665d" target="_top" xlink:title="{&lt;(S&amp;T) –&gt; (P&amp;T)&gt;, S@(S&amp;T)} |&#45; &lt;S &#45;&#45;&gt; P&gt; ">
<polygon fill="none" stroke="black" points="230,-672.5 230,-702.5 373,-702.5 373,-672.5 230,-672.5"/>
<text text-anchor="start" x="238" y="-690.5" font-family="Helvetica,sans-Serif" font-size="10.00">nars.inference.Structural</text>
<text text-anchor="middle" x="301.5" y="-679.5" font-family="Helvetica,sans-Serif" font-size="10.00">Rules.structuralDecompose2</text>
</a>
</g>
</g>
<!-- Node1&#45;&gt;Node37 -->
<g id="edge54" class="edge"><title>Node1&#45;&gt;Node37</title>
<path fill="none" stroke="midnightblue" d="M82.1325,-374.213C86.3937,-429.086 106.217,-584.733 196,-663.5 205.585,-671.909 217.523,-677.536 229.868,-681.268"/>
<polygon fill="midnightblue" stroke="midnightblue" points="85.6149,-373.834 81.4399,-364.097 78.6313,-374.312 85.6149,-373.834"/>
</g>
<!-- Node38 -->
<g id="node38" class="node"><title>Node38</title>
<g id="a_node38"><a xlink:href="../../db/d49/classnars_1_1inference_1_1StructuralRules_abdbbd955e13acf7fef8c6571b50cfebc.html#abdbbd955e13acf7fef8c6571b50cfebc" target="_top" xlink:title="{A, A@(–, A)} |&#45; (–, A) ">
<polygon fill="none" stroke="black" points="239,-213.5 239,-243.5 364,-243.5 364,-213.5 239,-213.5"/>
<text text-anchor="start" x="247" y="-231.5" font-family="Helvetica,sans-Serif" font-size="10.00">nars.inference.Structural</text>
<text text-anchor="middle" x="301.5" y="-220.5" font-family="Helvetica,sans-Serif" font-size="10.00">Rules.transformNegation</text>
</a>
</g>
</g>
<!-- Node1&#45;&gt;Node38 -->
<g id="edge56" class="edge"><title>Node1&#45;&gt;Node38</title>
<path fill="none" stroke="midnightblue" d="M96.9241,-337.384C117.746,-315.972 156.271,-279.568 196,-258.5 209.257,-251.47 224.358,-245.913 238.88,-241.592"/>
<polygon fill="midnightblue" stroke="midnightblue" points="94.2227,-335.144 89.8449,-344.793 99.2838,-339.98 94.2227,-335.144"/>
</g>
<!-- Node3 -->
<g id="node3" class="node"><title>Node3</title>
<g id="a_node3"><a xlink:href="../../da/de3/classnars_1_1inference_1_1RuleTables_a34927349efcf87db97d23c60983b115b.html#a34927349efcf87db97d23c60983b115b" target="_top" xlink:title="Syllogistic rules whose both premises are on the same asymmetric relation. ">
<polygon fill="none" stroke="black" points="443,-528.5 443,-558.5 628,-558.5 628,-528.5 443,-528.5"/>
<text text-anchor="start" x="451" y="-546.5" font-family="Helvetica,sans-Serif" font-size="10.00">nars.inference.RuleTables.asymmetric</text>
<text text-anchor="middle" x="535.5" y="-535.5" font-family="Helvetica,sans-Serif" font-size="10.00">Asymmetric</text>
</a>
</g>
</g>
<!-- Node2&#45;&gt;Node3 -->
<g id="edge2" class="edge"><title>Node2&#45;&gt;Node3</title>
<path fill="none" stroke="midnightblue" d="M383.043,-573.53C407.568,-568.668 434.432,-563.341 458.637,-558.542"/>
<polygon fill="midnightblue" stroke="midnightblue" points="382.181,-570.133 373.053,-575.511 383.542,-576.999 382.181,-570.133"/>
</g>
<!-- Node4 -->
<g id="node4" class="node"><title>Node4</title>
<g id="a_node4"><a xlink:href="../../da/de3/classnars_1_1inference_1_1RuleTables_a8628d400a8ceda7fea05039ddfea319b.html#a8628d400a8ceda7fea05039ddfea319b" target="_top" xlink:title="Meta&#45;table of syllogistic rules, indexed by the content classes of the taskSentence and the belief...">
<polygon fill="none" stroke="black" points="664,-510 664,-529 844,-529 844,-510 664,-510"/>
<text text-anchor="middle" x="754" y="-517" font-family="Helvetica,sans-Serif" font-size="10.00">nars.inference.RuleTables.syllogisms</text>
</a>
</g>
</g>
<!-- Node3&#45;&gt;Node4 -->
<g id="edge3" class="edge"><title>Node3&#45;&gt;Node4</title>
<path fill="none" stroke="midnightblue" d="M638.051,-532.243C647.731,-531.17 657.483,-530.088 666.996,-529.034"/>
<polygon fill="midnightblue" stroke="midnightblue" points="637.555,-528.776 628.002,-533.357 638.326,-535.733 637.555,-528.776"/>
</g>
<!-- Node5 -->
<g id="node5" class="node"><title>Node5</title>
<g id="a_node5"><a xlink:href="../../da/de3/classnars_1_1inference_1_1RuleTables_ac2d01dfdc40bdd47c757cb549217e6e3.html#ac2d01dfdc40bdd47c757cb549217e6e3" target="_top" xlink:title="Entry point of the inference engine. ">
<polygon fill="none" stroke="black" points="880,-312 880,-331 1043,-331 1043,-312 880,-312"/>
<text text-anchor="middle" x="961.5" y="-319" font-family="Helvetica,sans-Serif" font-size="10.00">nars.inference.RuleTables.reason</text>
</a>
</g>
</g>
<!-- Node4&#45;&gt;Node5 -->
<g id="edge4" class="edge"><title>Node4&#45;&gt;Node5</title>
<path fill="none" stroke="midnightblue" d="M772.313,-502.819C813.663,-462.978 917.179,-363.24 950.204,-331.421"/>
<polygon fill="midnightblue" stroke="midnightblue" points="769.685,-500.491 764.912,-509.95 774.541,-505.532 769.685,-500.491"/>
</g>
<!-- Node6 -->
<g id="node6" class="node"><title>Node6</title>
<g id="a_node6"><a xlink:href="../../d4/d22/classnars_1_1entity_1_1Concept_ae07576c8466ad65eeb61040e3f71cfc7.html#ae07576c8466ad65eeb61040e3f71cfc7" target="_top" xlink:title="An atomic step in a concept, only called in Memory# processConcept. ">
<polygon fill="none" stroke="black" points="1098,-285 1098,-304 1217,-304 1217,-285 1098,-285"/>
<text text-anchor="middle" x="1157.5" y="-292" font-family="Helvetica,sans-Serif" font-size="10.00">nars.entity.Concept.fire</text>
</a>
</g>
</g>
<!-- Node5&#45;&gt;Node6 -->
<g id="edge5" class="edge"><title>Node5&#45;&gt;Node6</title>
<path fill="none" stroke="midnightblue" d="M1041,-310.575C1059.94,-307.938 1079.86,-305.166 1097.73,-302.68"/>
<polygon fill="midnightblue" stroke="midnightblue" points="1040.32,-307.136 1030.9,-311.981 1041.28,-314.069 1040.32,-307.136"/>
</g>
<!-- Node7 -->
<g id="node7" class="node"><title>Node7</title>
<g id="a_node7"><a xlink:href="../../d8/df4/classnars_1_1storage_1_1Memory_a83154b55b922c82b73931d4f22e3a590.html#a83154b55b922c82b73931d4f22e3a590" target="_top" xlink:title="Select a concept to fire. ">
<polygon fill="none" stroke="black" points="1272,-252.5 1272,-282.5 1418,-282.5 1418,-252.5 1272,-252.5"/>
<text text-anchor="start" x="1280" y="-270.5" font-family="Helvetica,sans-Serif" font-size="10.00">nars.storage.Memory.process</text>
<text text-anchor="middle" x="1345" y="-259.5" font-family="Helvetica,sans-Serif" font-size="10.00">Concept</text>
</a>
</g>
</g>
<!-- Node6&#45;&gt;Node7 -->
<g id="edge6" class="edge"><title>Node6&#45;&gt;Node7</title>
<path fill="none" stroke="midnightblue" d="M1227.1,-284.515C1241.63,-282.4 1257.02,-280.161 1271.68,-278.026"/>
<polygon fill="midnightblue" stroke="midnightblue" points="1226.58,-281.053 1217.19,-285.957 1227.59,-287.98 1226.58,-281.053"/>
</g>
<!-- Node8 -->
<g id="node8" class="node"><title>Node8</title>
<g id="a_node8"><a xlink:href="../../d8/df4/classnars_1_1storage_1_1Memory_a49e2cbc8b78d535f4d69739886ee966a.html#a49e2cbc8b78d535f4d69739886ee966a" target="_top" xlink:title="An atomic working workCycle of the system: process new Tasks, then fire a concept. ">
<polygon fill="none" stroke="black" points="1454,-150.5 1454,-180.5 1587,-180.5 1587,-150.5 1454,-150.5"/>
<text text-anchor="start" x="1462" y="-168.5" font-family="Helvetica,sans-Serif" font-size="10.00">nars.storage.Memory.work</text>
<text text-anchor="middle" x="1520.5" y="-157.5" font-family="Helvetica,sans-Serif" font-size="10.00">Cycle</text>
</a>
</g>
</g>
<!-- Node7&#45;&gt;Node8 -->
<g id="edge7" class="edge"><title>Node7&#45;&gt;Node8</title>
<path fill="none" stroke="midnightblue" d="M1380.55,-247.186C1413.95,-227.555 1463.76,-198.267 1493.79,-180.612"/>
<polygon fill="midnightblue" stroke="midnightblue" points="1378.45,-244.364 1371.6,-252.45 1381.99,-250.399 1378.45,-244.364"/>
</g>
<!-- Node9 -->
<g id="node9" class="node"><title>Node9</title>
<g id="a_node9"><a xlink:href="../../dd/da5/classnars_1_1storage_1_1Memory_1_1ReasonerBatch_acc60dec23da774957a85362ed6d7448b.html#acc60dec23da774957a85362ed6d7448b" target="_top" xlink:title="nars.storage.Memory.Reasoner\lBatch.doTick">
<polygon fill="none" stroke="black" points="1623,-150.5 1623,-180.5 1777,-180.5 1777,-150.5 1623,-150.5"/>
<text text-anchor="start" x="1631" y="-168.5" font-family="Helvetica,sans-Serif" font-size="10.00">nars.storage.Memory.Reasoner</text>
<text text-anchor="middle" x="1700" y="-157.5" font-family="Helvetica,sans-Serif" font-size="10.00">Batch.doTick</text>
</a>
</g>
</g>
<!-- Node8&#45;&gt;Node9 -->
<g id="edge8" class="edge"><title>Node8&#45;&gt;Node9</title>
<path fill="none" stroke="midnightblue" d="M1597.32,-165.5C1605.79,-165.5 1614.41,-165.5 1622.89,-165.5"/>
<polygon fill="midnightblue" stroke="midnightblue" points="1597.09,-162 1587.09,-165.5 1597.09,-169 1597.09,-162"/>
</g>
<!-- Node10 -->
<g id="node10" class="node"><title>Node10</title>
<g id="a_node10"><a xlink:href="../../dd/da5/classnars_1_1storage_1_1Memory_1_1ReasonerBatch_aed591f05899b98fd9e4ad01836ad0a40.html#aed591f05899b98fd9e4ad01836ad0a40" target="_top" xlink:title="A clock tick. ">
<polygon fill="none" stroke="black" points="1813,-150.5 1813,-180.5 1967,-180.5 1967,-150.5 1813,-150.5"/>
<text text-anchor="start" x="1821" y="-168.5" font-family="Helvetica,sans-Serif" font-size="10.00">nars.storage.Memory.Reasoner</text>
<text text-anchor="middle" x="1890" y="-157.5" font-family="Helvetica,sans-Serif" font-size="10.00">Batch.tick</text>
</a>
</g>
</g>
<!-- Node9&#45;&gt;Node10 -->
<g id="edge9" class="edge"><title>Node9&#45;&gt;Node10</title>
<path fill="none" stroke="midnightblue" d="M1787.42,-165.5C1795.86,-165.5 1804.37,-165.5 1812.7,-165.5"/>
<polygon fill="midnightblue" stroke="midnightblue" points="1787.2,-162 1777.2,-165.5 1787.2,-169 1787.2,-162"/>
</g>
<!-- Node11 -->
<g id="node11" class="node"><title>Node11</title>
<g id="a_node11"><a xlink:href="../../d4/d88/classnars_1_1storage_1_1Memory_1_1NARSBatch_aad99db6cedde9cff2a997db8906ff821.html#aad99db6cedde9cff2a997db8906ff821" target="_top" xlink:title="Run to completion: repeatedly execute NARS working cycle, until Inputs are Finished, or 1000 steps. ">
<polygon fill="none" stroke="black" points="2003,-156 2003,-175 2185,-175 2185,-156 2003,-156"/>
<text text-anchor="middle" x="2094" y="-163" font-family="Helvetica,sans-Serif" font-size="10.00">nars.storage.Memory.NARSBatch.run</text>
</a>
</g>
</g>
<!-- Node10&#45;&gt;Node11 -->
<g id="edge10" class="edge"><title>Node10&#45;&gt;Node11</title>
<path fill="none" stroke="midnightblue" d="M1977.27,-165.5C1985.69,-165.5 1994.25,-165.5 2002.71,-165.5"/>
<polygon fill="midnightblue" stroke="midnightblue" points="1977.08,-162 1967.08,-165.5 1977.08,-169 1977.08,-162"/>
</g>
<!-- Node12 -->
<g id="node12" class="node"><title>Node12</title>
<g id="a_node12"><a xlink:href="../../d4/d88/classnars_1_1storage_1_1Memory_1_1NARSBatch_a416c39463faa161661ed1d12fea03b3c.html#a416c39463faa161661ed1d12fea03b3c" target="_top" xlink:title="non&#45;static equivalent to main(String[]) : run to completion from an input file ">
<polygon fill="none" stroke="black" points="2221,-150.5 2221,-180.5 2403,-180.5 2403,-150.5 2221,-150.5"/>
<text text-anchor="start" x="2229" y="-168.5" font-family="Helvetica,sans-Serif" font-size="10.00">nars.storage.Memory.NARSBatch.run</text>
<text text-anchor="middle" x="2312" y="-157.5" font-family="Helvetica,sans-Serif" font-size="10.00">Inference</text>
</a>
</g>
</g>
<!-- Node11&#45;&gt;Node12 -->
<g id="edge11" class="edge"><title>Node11&#45;&gt;Node12</title>
<path fill="none" stroke="midnightblue" d="M2195.06,-165.5C2203.63,-165.5 2212.27,-165.5 2220.76,-165.5"/>
<polygon fill="midnightblue" stroke="midnightblue" points="2195.04,-162 2185.04,-165.5 2195.04,-169 2195.04,-162"/>
</g>
<!-- Node13 -->
<g id="node13" class="node"><title>Node13</title>
<g id="a_node13"><a xlink:href="../../d4/d88/classnars_1_1storage_1_1Memory_1_1NARSBatch_aa97fcd68270583e60e6bf1b4579d1bdc.html#aa97fcd68270583e60e6bf1b4579d1bdc" target="_top" xlink:title="The entry point of the standalone application. ">
<polygon fill="none" stroke="black" points="2439,-156 2439,-175 2629,-175 2629,-156 2439,-156"/>
<text text-anchor="middle" x="2534" y="-163" font-family="Helvetica,sans-Serif" font-size="10.00">nars.storage.Memory.NARSBatch.main</text>
</a>
</g>
</g>
<!-- Node12&#45;&gt;Node13 -->
<g id="edge12" class="edge"><title>Node12&#45;&gt;Node13</title>
<path fill="none" stroke="midnightblue" d="M2413.37,-165.5C2421.82,-165.5 2430.34,-165.5 2438.74,-165.5"/>
<polygon fill="midnightblue" stroke="midnightblue" points="2413.12,-162 2403.12,-165.5 2413.12,-169 2413.12,-162"/>
</g>
<!-- Node14&#45;&gt;Node5 -->
<g id="edge14" class="edge"><title>Node14&#45;&gt;Node5</title>
<path fill="none" stroke="midnightblue" d="M635.471,-355.9C695.854,-353.079 774.533,-348.291 844,-340.5 865.383,-338.102 888.824,-334.474 909.038,-331.03"/>
<polygon fill="midnightblue" stroke="midnightblue" points="635.011,-352.417 625.181,-356.37 635.33,-359.41 635.011,-352.417"/>
</g>
<!-- Node15&#45;&gt;Node4 -->
<g id="edge16" class="edge"><title>Node15&#45;&gt;Node4</title>
<path fill="none" stroke="midnightblue" d="M637.953,-506.215C648.83,-507.471 659.799,-508.738 670.418,-509.964"/>
<polygon fill="midnightblue" stroke="midnightblue" points="638.337,-502.736 628.002,-505.066 637.534,-509.69 638.337,-502.736"/>
</g>
<!-- Node17 -->
<g id="node17" class="node"><title>Node17</title>
<g id="a_node17"><a xlink:href="../../d8/df4/classnars_1_1storage_1_1Memory_a175200c1f4c182222d0e66439b6e53a0.html#a175200c1f4c182222d0e66439b6e53a0" target="_top" xlink:title="Immediate processing of a new task, in constant time Local processing, in one concept only...">
<polygon fill="none" stroke="black" points="1079,-126.5 1079,-156.5 1236,-156.5 1236,-126.5 1079,-126.5"/>
<text text-anchor="start" x="1087" y="-144.5" font-family="Helvetica,sans-Serif" font-size="10.00">nars.storage.Memory.immediate</text>
<text text-anchor="middle" x="1157.5" y="-133.5" font-family="Helvetica,sans-Serif" font-size="10.00">Process</text>
</a>
</g>
</g>
<!-- Node16&#45;&gt;Node17 -->
<g id="edge18" class="edge"><title>Node16&#45;&gt;Node17</title>
<path fill="none" stroke="midnightblue" d="M1036.09,-141.5C1050.1,-141.5 1064.81,-141.5 1078.95,-141.5"/>
<polygon fill="midnightblue" stroke="midnightblue" points="1036.02,-138 1026.02,-141.5 1036.02,-145 1036.02,-138"/>
</g>
<!-- Node17&#45;&gt;Node18 -->
<g id="edge19" class="edge"><title>Node17&#45;&gt;Node18</title>
<path fill="none" stroke="midnightblue" d="M1246.12,-129.691C1254.71,-128.534 1263.35,-127.369 1271.75,-126.237"/>
<polygon fill="midnightblue" stroke="midnightblue" points="1245.54,-126.238 1236.09,-131.043 1246.47,-133.176 1245.54,-126.238"/>
</g>
<!-- Node19 -->
<g id="node19" class="node"><title>Node19</title>
<g id="a_node19"><a xlink:href="../../d8/df4/classnars_1_1storage_1_1Memory_afe3b4d1bb5fab652ceca53c04773af73.html#afe3b4d1bb5fab652ceca53c04773af73" target="_top" xlink:title="Select a novel task to process. ">
<polygon fill="none" stroke="black" points="1272,-150.5 1272,-180.5 1418,-180.5 1418,-150.5 1272,-150.5"/>
<text text-anchor="start" x="1280" y="-168.5" font-family="Helvetica,sans-Serif" font-size="10.00">nars.storage.Memory.process</text>
<text text-anchor="middle" x="1345" y="-157.5" font-family="Helvetica,sans-Serif" font-size="10.00">NovelTask</text>
</a>
</g>
</g>
<!-- Node17&#45;&gt;Node19 -->
<g id="edge21" class="edge"><title>Node17&#45;&gt;Node19</title>
<path fill="none" stroke="midnightblue" d="M1246.12,-152.837C1254.71,-153.947 1263.35,-155.065 1271.75,-156.153"/>
<polygon fill="midnightblue" stroke="midnightblue" points="1246.46,-149.351 1236.09,-151.539 1245.56,-156.293 1246.46,-149.351"/>
</g>
<!-- Node18&#45;&gt;Node8 -->
<g id="edge20" class="edge"><title>Node18&#45;&gt;Node8</title>
<path fill="none" stroke="midnightblue" d="M1409.1,-134.321C1427.83,-139.612 1448.16,-145.352 1466.21,-150.448"/>
<polygon fill="midnightblue" stroke="midnightblue" points="1410.05,-130.951 1399.47,-131.601 1408.14,-137.688 1410.05,-130.951"/>
</g>
<!-- Node19&#45;&gt;Node8 -->
<g id="edge22" class="edge"><title>Node19&#45;&gt;Node8</title>
<path fill="none" stroke="midnightblue" d="M1428.12,-165.5C1436.72,-165.5 1445.37,-165.5 1453.76,-165.5"/>
<polygon fill="midnightblue" stroke="midnightblue" points="1428.07,-162 1418.07,-165.5 1428.07,-169 1428.07,-162"/>
</g>
<!-- Node20&#45;&gt;Node14 -->
<g id="edge25" class="edge"><title>Node20&#45;&gt;Node14</title>
<path fill="none" stroke="midnightblue" d="M382.921,-436.366C391.146,-434.023 399.302,-431.406 407,-428.5 445.147,-414.102 486.072,-390.295 510.983,-374.754"/>
<polygon fill="midnightblue" stroke="midnightblue" points="381.99,-432.992 373.257,-438.99 383.825,-439.747 381.99,-432.992"/>
</g>
<!-- Node20&#45;&gt;Node15 -->
<g id="edge24" class="edge"><title>Node20&#45;&gt;Node15</title>
<path fill="none" stroke="midnightblue" d="M383.038,-467.08C405.09,-471.072 429.034,-475.407 451.235,-479.426"/>
<polygon fill="midnightblue" stroke="midnightblue" points="383.516,-463.61 373.053,-465.272 382.269,-470.498 383.516,-463.61"/>
</g>
<!-- Node21&#45;&gt;Node5 -->
<g id="edge27" class="edge"><title>Node21&#45;&gt;Node5</title>
<path fill="none" stroke="midnightblue" d="M844.394,-321.5C856.13,-321.5 868.102,-321.5 879.684,-321.5"/>
<polygon fill="midnightblue" stroke="midnightblue" points="844.158,-318 834.158,-321.5 844.158,-325 844.158,-318"/>
</g>
<!-- Node23 -->
<g id="node23" class="node"><title>Node23</title>
<g id="a_node23"><a xlink:href="../../da/de3/classnars_1_1inference_1_1RuleTables_a4f61a7c2dc75c9da475030894eac0735.html#a4f61a7c2dc75c9da475030894eac0735" target="_top" xlink:title="Syllogistic rules whose first premise is on an asymmetric relation, and the second on a symmetric rel...">
<polygon fill="none" stroke="black" points="443,-600.5 443,-630.5 628,-630.5 628,-600.5 443,-600.5"/>
<text text-anchor="start" x="451" y="-618.5" font-family="Helvetica,sans-Serif" font-size="10.00">nars.inference.RuleTables.asymmetric</text>
<text text-anchor="middle" x="535.5" y="-607.5" font-family="Helvetica,sans-Serif" font-size="10.00">Symmetric</text>
</a>
</g>
</g>
<!-- Node22&#45;&gt;Node23 -->
<g id="edge29" class="edge"><title>Node22&#45;&gt;Node23</title>
<path fill="none" stroke="midnightblue" d="M391.972,-629.63C408.663,-627.975 426.128,-626.244 442.883,-624.583"/>
<polygon fill="midnightblue" stroke="midnightblue" points="391.298,-626.179 381.692,-630.649 391.989,-633.145 391.298,-626.179"/>
</g>
<!-- Node23&#45;&gt;Node4 -->
<g id="edge30" class="edge"><title>Node23&#45;&gt;Node4</title>
<path fill="none" stroke="midnightblue" d="M580.196,-596.124C626.034,-575.799 696.204,-544.685 731.355,-529.098"/>
<polygon fill="midnightblue" stroke="midnightblue" points="578.528,-593.035 570.805,-600.289 581.365,-599.434 578.528,-593.035"/>
</g>
<!-- Node24&#45;&gt;Node3 -->
<g id="edge32" class="edge"><title>Node24&#45;&gt;Node3</title>
<path fill="none" stroke="midnightblue" d="M391.972,-541.657C408.663,-541.873 426.128,-542.099 442.883,-542.315"/>
<polygon fill="midnightblue" stroke="midnightblue" points="391.737,-538.154 381.692,-541.524 391.646,-545.153 391.737,-538.154"/>
</g>
<!-- Node27 -->
<g id="node27" class="node"><title>Node27</title>
<g id="a_node27"><a xlink:href="../../d4/de9/classnars_1_1inference_1_1LocalRules_a3ecf859c238ad7f0c44c45e3e5df0081.html#a3ecf859c238ad7f0c44c45e3e5df0081" target="_top" xlink:title="Check if a Sentence provide a better answer to a Question or Goal. ">
<polygon fill="none" stroke="black" points="463.5,-145.5 463.5,-175.5 607.5,-175.5 607.5,-145.5 463.5,-145.5"/>
<text text-anchor="start" x="471.5" y="-163.5" font-family="Helvetica,sans-Serif" font-size="10.00">nars.inference.LocalRules.try</text>
<text text-anchor="middle" x="535.5" y="-152.5" font-family="Helvetica,sans-Serif" font-size="10.00">Solution</text>
</a>
</g>
</g>
<!-- Node26&#45;&gt;Node27 -->
<g id="edge36" class="edge"><title>Node26&#45;&gt;Node27</title>
<path fill="none" stroke="midnightblue" d="M401.06,-146.121C421.967,-148.374 443.647,-150.71 463.3,-152.828"/>
<polygon fill="midnightblue" stroke="midnightblue" points="401.189,-142.614 390.871,-145.023 400.439,-149.574 401.189,-142.614"/>
</g>
<!-- Node27&#45;&gt;Node21 -->
<g id="edge41" class="edge"><title>Node27&#45;&gt;Node21</title>
<path fill="none" stroke="midnightblue" d="M589.855,-179.771C603.284,-186.26 616.994,-194.464 628,-204.5 650.98,-225.453 642.334,-242.191 664,-264.5 684.198,-285.297 713.366,-302.135 732.738,-311.979"/>
<polygon fill="midnightblue" stroke="midnightblue" points="591.189,-176.533 580.64,-175.552 588.275,-182.897 591.189,-176.533"/>
</g>
<!-- Node28 -->
<g id="node28" class="node"><title>Node28</title>
<g id="a_node28"><a xlink:href="../../d4/d22/classnars_1_1entity_1_1Concept_a40cddcc82ee28a1cf5b1f4bc14e2b078.html#a40cddcc82ee28a1cf5b1f4bc14e2b078" target="_top" xlink:title="To accept a new judgment as isBelief, and check for revisions and solutions. ">
<polygon fill="none" stroke="black" points="684,-126.5 684,-156.5 824,-156.5 824,-126.5 684,-126.5"/>
<text text-anchor="start" x="692" y="-144.5" font-family="Helvetica,sans-Serif" font-size="10.00">nars.entity.Concept.process</text>
<text text-anchor="middle" x="754" y="-133.5" font-family="Helvetica,sans-Serif" font-size="10.00">Judgment</text>
</a>
</g>
</g>
<!-- Node27&#45;&gt;Node28 -->
<g id="edge37" class="edge"><title>Node27&#45;&gt;Node28</title>
<path fill="none" stroke="midnightblue" d="M617.896,-153.357C639.654,-151.447 662.957,-149.402 683.978,-147.557"/>
<polygon fill="midnightblue" stroke="midnightblue" points="617.346,-149.891 607.69,-154.252 617.958,-156.865 617.346,-149.891"/>
</g>
<!-- Node29 -->
<g id="node29" class="node"><title>Node29</title>
<g id="a_node29"><a xlink:href="../../d4/d22/classnars_1_1entity_1_1Concept_a3900248991e7adb57e82231312337f8f.html#a3900248991e7adb57e82231312337f8f" target="_top" xlink:title="To answer a question by existing beliefs. ">
<polygon fill="none" stroke="black" points="684,-175.5 684,-205.5 824,-205.5 824,-175.5 684,-175.5"/>
<text text-anchor="start" x="692" y="-193.5" font-family="Helvetica,sans-Serif" font-size="10.00">nars.entity.Concept.process</text>
<text text-anchor="middle" x="754" y="-182.5" font-family="Helvetica,sans-Serif" font-size="10.00">Question</text>
</a>
</g>
</g>
<!-- Node27&#45;&gt;Node29 -->
<g id="edge39" class="edge"><title>Node27&#45;&gt;Node29</title>
<path fill="none" stroke="midnightblue" d="M617.601,-171.738C639.443,-174.765 662.862,-178.01 683.978,-180.936"/>
<polygon fill="midnightblue" stroke="midnightblue" points="618.076,-168.27 607.69,-170.365 617.115,-175.204 618.076,-168.27"/>
</g>
<!-- Node28&#45;&gt;Node16 -->
<g id="edge38" class="edge"><title>Node28&#45;&gt;Node16</title>
<path fill="none" stroke="midnightblue" d="M834.079,-141.5C854.865,-141.5 877.019,-141.5 896.879,-141.5"/>
<polygon fill="midnightblue" stroke="midnightblue" points="834,-138 824,-141.5 834,-145 834,-138"/>
</g>
<!-- Node29&#45;&gt;Node16 -->
<g id="edge40" class="edge"><title>Node29&#45;&gt;Node16</title>
<path fill="none" stroke="midnightblue" d="M827.99,-173.096C850.722,-167.676 875.582,-161.748 897.566,-156.506"/>
<polygon fill="midnightblue" stroke="midnightblue" points="826.969,-169.741 818.053,-175.465 828.592,-176.55 826.969,-169.741"/>
</g>
<!-- Node30&#45;&gt;Node14 -->
<g id="edge43" class="edge"><title>Node30&#45;&gt;Node14</title>
<path fill="none" stroke="midnightblue" d="M378.071,-389.168C402.728,-384.491 430.171,-379.287 455.101,-374.558"/>
<polygon fill="midnightblue" stroke="midnightblue" points="377.224,-385.766 368.052,-391.068 378.529,-392.643 377.224,-385.766"/>
</g>
<!-- Node31&#45;&gt;Node14 -->
<g id="edge45" class="edge"><title>Node31&#45;&gt;Node14</title>
<path fill="none" stroke="midnightblue" d="M378.133,-356.13C399.718,-356.595 423.434,-357.106 445.728,-357.587"/>
<polygon fill="midnightblue" stroke="midnightblue" points="378.125,-352.629 368.052,-355.913 377.974,-359.628 378.125,-352.629"/>
</g>
<!-- Node33 -->
<g id="node33" class="node"><title>Node33</title>
<g id="a_node33"><a xlink:href="../../da/de3/classnars_1_1inference_1_1RuleTables_a00ffbf7a9069cfd135acae4b46d78d05.html#a00ffbf7a9069cfd135acae4b46d78d05" target="_top" xlink:title="Inference between a compound term and a component of it. ">
<polygon fill="none" stroke="black" points="446,-213.5 446,-243.5 625,-243.5 625,-213.5 446,-213.5"/>
<text text-anchor="start" x="454" y="-231.5" font-family="Helvetica,sans-Serif" font-size="10.00">nars.inference.RuleTables.compound</text>
<text text-anchor="middle" x="535.5" y="-220.5" font-family="Helvetica,sans-Serif" font-size="10.00">AndSelf</text>
</a>
</g>
</g>
<!-- Node32&#45;&gt;Node33 -->
<g id="edge47" class="edge"><title>Node32&#45;&gt;Node33</title>
<path fill="none" stroke="midnightblue" d="M377.996,-195.445C405.45,-201.244 436.365,-207.773 463.423,-213.488"/>
<polygon fill="midnightblue" stroke="midnightblue" points="378.559,-191.987 368.052,-193.345 377.112,-198.836 378.559,-191.987"/>
</g>
<!-- Node33&#45;&gt;Node5 -->
<g id="edge48" class="edge"><title>Node33&#45;&gt;Node5</title>
<path fill="none" stroke="midnightblue" d="M595.521,-246.297C616.978,-252.467 641.485,-259.168 664,-264.5 746.504,-284.04 843.118,-301.644 903.074,-311.957"/>
<polygon fill="midnightblue" stroke="midnightblue" points="596.473,-242.93 585.894,-243.507 594.524,-249.653 596.473,-242.93"/>
</g>
<!-- Node34 -->
<g id="node34" class="node"><title>Node34</title>
<g id="a_node34"><a xlink:href="../../da/de3/classnars_1_1inference_1_1RuleTables_a764dbc9ccccf406df45e09fbfeda928f.html#a764dbc9ccccf406df45e09fbfeda928f" target="_top" xlink:title="Inference between two compound terms. ">
<polygon fill="none" stroke="black" points="664.5,-224.5 664.5,-254.5 843.5,-254.5 843.5,-224.5 664.5,-224.5"/>
<text text-anchor="start" x="672.5" y="-242.5" font-family="Helvetica,sans-Serif" font-size="10.00">nars.inference.RuleTables.compound</text>
<text text-anchor="middle" x="754" y="-231.5" font-family="Helvetica,sans-Serif" font-size="10.00">AndCompound</text>
</a>
</g>
</g>
<!-- Node33&#45;&gt;Node34 -->
<g id="edge49" class="edge"><title>Node33&#45;&gt;Node34</title>
<path fill="none" stroke="midnightblue" d="M635.273,-233.518C645.003,-234.013 654.836,-234.512 664.454,-235.001"/>
<polygon fill="midnightblue" stroke="midnightblue" points="635.348,-230.018 625.184,-233.006 634.993,-237.009 635.348,-230.018"/>
</g>
<!-- Node34&#45;&gt;Node5 -->
<g id="edge50" class="edge"><title>Node34&#45;&gt;Node5</title>
<path fill="none" stroke="midnightblue" d="M812.085,-257.848C822.756,-261.531 833.767,-265.502 844,-269.5 878.453,-282.961 917.532,-300.988 940.541,-311.896"/>
<polygon fill="midnightblue" stroke="midnightblue" points="813.007,-254.465 802.413,-254.556 810.751,-261.092 813.007,-254.465"/>
</g>
<!-- Node36 -->
<g id="node36" class="node"><title>Node36</title>
<g id="a_node36"><a xlink:href="../../da/de3/classnars_1_1inference_1_1RuleTables_a274b39b31e00ef27ae6baeaad3894a6a.html#a274b39b31e00ef27ae6baeaad3894a6a" target="_top" xlink:title="Inference between a component term (of the current term) and a statement. ">
<polygon fill="none" stroke="black" points="444.5,-672.5 444.5,-702.5 626.5,-702.5 626.5,-672.5 444.5,-672.5"/>
<text text-anchor="start" x="452.5" y="-690.5" font-family="Helvetica,sans-Serif" font-size="10.00">nars.inference.RuleTables.component</text>
<text text-anchor="middle" x="535.5" y="-679.5" font-family="Helvetica,sans-Serif" font-size="10.00">AndStatement</text>
</a>
</g>
</g>
<!-- Node35&#45;&gt;Node36 -->
<g id="edge52" class="edge"><title>Node35&#45;&gt;Node36</title>
<path fill="none" stroke="midnightblue" d="M382.903,-719.518C408.977,-714.011 437.708,-707.943 463.082,-702.584"/>
<polygon fill="midnightblue" stroke="midnightblue" points="382.113,-716.108 373.053,-721.599 383.56,-722.957 382.113,-716.108"/>
</g>
<!-- Node36&#45;&gt;Node5 -->
<g id="edge53" class="edge"><title>Node36&#45;&gt;Node5</title>
<path fill="none" stroke="midnightblue" d="M600.857,-669.387C668.35,-647.658 774.127,-605.533 844,-538.5 910.65,-474.56 947.766,-364.033 957.738,-331.055"/>
<polygon fill="midnightblue" stroke="midnightblue" points="599.665,-666.094 591.186,-672.446 601.776,-672.768 599.665,-666.094"/>
</g>
<!-- Node37&#45;&gt;Node36 -->
<g id="edge55" class="edge"><title>Node37&#45;&gt;Node36</title>
<path fill="none" stroke="midnightblue" d="M383.19,-687.5C402.862,-687.5 424.032,-687.5 444.123,-687.5"/>
<polygon fill="midnightblue" stroke="midnightblue" points="383.053,-684 373.053,-687.5 383.053,-691 383.053,-684"/>
</g>
<!-- Node38&#45;&gt;Node33 -->
<g id="edge57" class="edge"><title>Node38&#45;&gt;Node33</title>
<path fill="none" stroke="midnightblue" d="M374.226,-228.5C396.783,-228.5 421.966,-228.5 445.567,-228.5"/>
<polygon fill="midnightblue" stroke="midnightblue" points="374.063,-225 364.063,-228.5 374.063,-232 374.063,-225"/>
</g>
</g>
</svg>
