<?xml version="1.0" encoding="UTF-8" standalone="no"?>
<!DOCTYPE svg PUBLIC "-//W3C//DTD SVG 1.1//EN"
 "http://www.w3.org/Graphics/SVG/1.1/DTD/svg11.dtd">
<!-- Generated by graphviz version 2.38.0 (20140413.2041)
 -->
<!-- Title: nars.entity.Sentence.clone Pages: 1 -->
<svg width="502pt" height="116pt"
 viewBox="0.00 0.00 502.00 115.50" xmlns="http://www.w3.org/2000/svg" xmlns:xlink="http://www.w3.org/1999/xlink">
<g id="graph0" class="graph" transform="scale(1 1) rotate(0) translate(4 111.5)">
<title>nars.entity.Sentence.clone</title>
<!-- Node1 -->
<g id="node1" class="node"><title>Node1</title>
<polygon fill="#bfbfbf" stroke="black" points="0,-50 0,-69 133,-69 133,-50 0,-50"/>
<text text-anchor="middle" x="66.5" y="-57" font-family="Helvetica,sans-Serif" font-size="10.00">nars.entity.Sentence.clone</text>
</g>
<!-- Node2 -->
<g id="node2" class="node"><title>Node2</title>
<g id="a_node2"><a xlink:href="../../d8/db8/classnars_1_1language_1_1Term_ae2dba162b71bb9b806f54832249a260c.html#ae2dba162b71bb9b806f54832249a260c" target="_top" xlink:title="Make a new Term with the same name. ">
<polygon fill="none" stroke="black" points="180,-88 180,-107 309,-107 309,-88 180,-88"/>
<text text-anchor="middle" x="244.5" y="-95" font-family="Helvetica,sans-Serif" font-size="10.00">nars.language.Term.clone</text>
</a>
</g>
</g>
<!-- Node1&#45;&gt;Node2 -->
<g id="edge1" class="edge"><title>Node1&#45;&gt;Node2</title>
<path fill="none" stroke="midnightblue" d="M111.912,-69.089C135.451,-74.1713 164.557,-80.4554 189.405,-85.8203"/>
<polygon fill="midnightblue" stroke="midnightblue" points="188.894,-89.2906 199.407,-87.9799 190.371,-82.4482 188.894,-89.2906"/>
</g>
<!-- Node4 -->
<g id="node4" class="node"><title>Node4</title>
<g id="a_node4"><a xlink:href="../../d1/d1e/classnars_1_1entity_1_1Stamp_a034905573fe14fb73ba09bfa360eb608.html#a034905573fe14fb73ba09bfa360eb608" target="_top" xlink:title="Clone a stamp. ">
<polygon fill="none" stroke="black" points="184.5,-50 184.5,-69 304.5,-69 304.5,-50 184.5,-50"/>
<text text-anchor="middle" x="244.5" y="-57" font-family="Helvetica,sans-Serif" font-size="10.00">nars.entity.Stamp.clone</text>
</a>
</g>
</g>
<!-- Node1&#45;&gt;Node4 -->
<g id="edge3" class="edge"><title>Node1&#45;&gt;Node4</title>
<path fill="none" stroke="midnightblue" d="M133.036,-59.5C146.431,-59.5 160.571,-59.5 174.097,-59.5"/>
<polygon fill="midnightblue" stroke="midnightblue" points="174.298,-63.0001 184.298,-59.5 174.298,-56.0001 174.298,-63.0001"/>
</g>
<!-- Node6 -->
<g id="node6" class="node"><title>Node6</title>
<g id="a_node6"><a xlink:href="../../d6/d25/classnars_1_1entity_1_1Sentence_ad7f0c103faac9d3ebebbe0e8c5b829ff.html#ad7f0c103faac9d3ebebbe0e8c5b829ff" target="_top" xlink:title="Create a Sentence with the given fields. ">
<polygon fill="none" stroke="black" points="169,-9 169,-28 320,-28 320,-9 169,-9"/>
<text text-anchor="middle" x="244.5" y="-16" font-family="Helvetica,sans-Serif" font-size="10.00">nars.entity.Sentence.Sentence</text>
</a>
</g>
</g>
<!-- Node1&#45;&gt;Node6 -->
<g id="edge5" class="edge"><title>Node1&#45;&gt;Node6</title>
<path fill="none" stroke="midnightblue" d="M108.32,-49.9907C133.443,-44.1384 165.848,-36.5894 192.633,-30.3497"/>
<polygon fill="midnightblue" stroke="midnightblue" points="193.651,-33.7062 202.597,-28.0286 192.063,-26.8888 193.651,-33.7062"/>
</g>
<!-- Node3 -->
<g id="node3" class="node"><title>Node3</title>
<g id="a_node3"><a xlink:href="../../d8/db8/classnars_1_1language_1_1Term_a2d9973aada6190dd60b48a34448094c9.html#a2d9973aada6190dd60b48a34448094c9" target="_top" xlink:title="Default constructor that build an internal Term. ">
<polygon fill="none" stroke="black" points="361,-88 361,-107 489,-107 489,-88 361,-88"/>
<text text-anchor="middle" x="425" y="-95" font-family="Helvetica,sans-Serif" font-size="10.00">nars.language.Term.Term</text>
</a>
</g>
</g>
<!-- Node2&#45;&gt;Node3 -->
<g id="edge2" class="edge"><title>Node2&#45;&gt;Node3</title>
<path fill="none" stroke="midnightblue" d="M309.187,-97.5C322.59,-97.5 336.834,-97.5 350.563,-97.5"/>
<polygon fill="midnightblue" stroke="midnightblue" points="350.938,-101 360.938,-97.5 350.938,-94.0001 350.938,-101"/>
</g>
<!-- Node5 -->
<g id="node5" class="node"><title>Node5</title>
<g id="a_node5"><a xlink:href="../../d1/d1e/classnars_1_1entity_1_1Stamp_a959f21fb20f72cfd277d994332e862c3.html#a959f21fb20f72cfd277d994332e862c3" target="_top" xlink:title="Generate a new stamp, with a new serial number, for a new Task. ">
<polygon fill="none" stroke="black" points="362.5,-50 362.5,-69 487.5,-69 487.5,-50 362.5,-50"/>
<text text-anchor="middle" x="425" y="-57" font-family="Helvetica,sans-Serif" font-size="10.00">nars.entity.Stamp.Stamp</text>
</a>
</g>
</g>
<!-- Node4&#45;&gt;Node5 -->
<g id="edge4" class="edge"><title>Node4&#45;&gt;Node5</title>
<path fill="none" stroke="midnightblue" d="M304.938,-59.5C320.079,-59.5 336.514,-59.5 352.2,-59.5"/>
<polygon fill="midnightblue" stroke="midnightblue" points="352.379,-63.0001 362.379,-59.5 352.379,-56.0001 352.379,-63.0001"/>
</g>
<!-- Node7 -->
<g id="node7" class="node"><title>Node7</title>
<g id="a_node7"><a xlink:href="../../d8/db8/classnars_1_1language_1_1Term_a6ad164dd053a9cc808bcd6a2d741a775.html#a6ad164dd053a9cc808bcd6a2d741a775" target="_top" xlink:title="Blank method to be override in CompoundTerm. ">
<polygon fill="none" stroke="black" points="356,-0.5 356,-30.5 494,-30.5 494,-0.5 356,-0.5"/>
<text text-anchor="start" x="364" y="-18.5" font-family="Helvetica,sans-Serif" font-size="10.00">nars.language.Term.rename</text>
<text text-anchor="middle" x="425" y="-7.5" font-family="Helvetica,sans-Serif" font-size="10.00">Variables</text>
</a>
</g>
</g>
<!-- Node6&#45;&gt;Node7 -->
<g id="edge6" class="edge"><title>Node6&#45;&gt;Node7</title>
<path fill="none" stroke="midnightblue" d="M320.166,-17.2451C328.588,-17.1036 337.188,-16.959 345.655,-16.8167"/>
<polygon fill="midnightblue" stroke="midnightblue" points="345.956,-20.3122 355.896,-16.6446 345.839,-13.3132 345.956,-20.3122"/>
</g>
</g>
</svg>
