<?xml version="1.0" encoding="UTF-8" standalone="no"?>
<!DOCTYPE svg PUBLIC "-//W3C//DTD SVG 1.1//EN"
 "http://www.w3.org/Graphics/SVG/1.1/DTD/svg11.dtd">
<!-- Generated by graphviz version 2.38.0 (20140413.2041)
 -->
<!-- Title: nars.entity.BudgetValue.decDurability Pages: 1 -->
<svg width="2733pt" height="137pt"
 viewBox="0.00 0.00 2733.00 137.00" xmlns="http://www.w3.org/2000/svg" xmlns:xlink="http://www.w3.org/1999/xlink">
<g id="graph0" class="graph" transform="scale(1 1) rotate(0) translate(4 133)">
<title>nars.entity.BudgetValue.decDurability</title>
<!-- Node1 -->
<g id="node1" class="node"><title>Node1</title>
<polygon fill="#bfbfbf" stroke="black" points="0,-25.5 0,-55.5 140,-55.5 140,-25.5 0,-25.5"/>
<text text-anchor="start" x="8" y="-43.5" font-family="Helvetica,sans-Serif" font-size="10.00">nars.entity.BudgetValue.dec</text>
<text text-anchor="middle" x="70" y="-32.5" font-family="Helvetica,sans-Serif" font-size="10.00">Durability</text>
</g>
<!-- Node2 -->
<g id="node2" class="node"><title>Node2</title>
<g id="a_node2"><a xlink:href="../../d1/dd1/classnars_1_1entity_1_1Item_a4761275e8e265c669dc539af3e15eef8.html#a4761275e8e265c669dc539af3e15eef8" target="_top" xlink:title="Decrease durability value. ">
<polygon fill="none" stroke="black" points="176,-31 176,-50 321,-50 321,-31 176,-31"/>
<text text-anchor="middle" x="248.5" y="-38" font-family="Helvetica,sans-Serif" font-size="10.00">nars.entity.Item.decDurability</text>
</a>
</g>
</g>
<!-- Node1&#45;&gt;Node2 -->
<g id="edge1" class="edge"><title>Node1&#45;&gt;Node2</title>
<path fill="none" stroke="midnightblue" d="M150.481,-40.5C158.928,-40.5 167.484,-40.5 175.835,-40.5"/>
<polygon fill="midnightblue" stroke="midnightblue" points="150.251,-37.0001 140.251,-40.5 150.251,-44.0001 150.251,-37.0001"/>
</g>
<!-- Node3 -->
<g id="node3" class="node"><title>Node3</title>
<g id="a_node3"><a xlink:href="../../d7/d11/classnars_1_1inference_1_1BudgetFunctions_ac5e336432ebc7744461334f04bfd5216.html#ac5e336432ebc7744461334f04bfd5216" target="_top" xlink:title="Evaluate the quality of a revision, then de&#45;prioritize the premises. ">
<polygon fill="none" stroke="black" points="357,-31 357,-50 541,-50 541,-31 357,-31"/>
<text text-anchor="middle" x="449" y="-38" font-family="Helvetica,sans-Serif" font-size="10.00">nars.inference.BudgetFunctions.revise</text>
</a>
</g>
</g>
<!-- Node2&#45;&gt;Node3 -->
<g id="edge2" class="edge"><title>Node2&#45;&gt;Node3</title>
<path fill="none" stroke="midnightblue" d="M331.297,-40.5C339.689,-40.5 348.253,-40.5 356.739,-40.5"/>
<polygon fill="midnightblue" stroke="midnightblue" points="331.163,-37.0001 321.163,-40.5 331.163,-44.0001 331.163,-37.0001"/>
</g>
<!-- Node4 -->
<g id="node4" class="node"><title>Node4</title>
<g id="a_node4"><a xlink:href="../../d4/de9/classnars_1_1inference_1_1LocalRules_a40edb0903d098da966e3ef972e5c8abd.html#a40edb0903d098da966e3ef972e5c8abd" target="_top" xlink:title="Belief revision. ">
<polygon fill="none" stroke="black" points="577,-31 577,-50 744,-50 744,-31 577,-31"/>
<text text-anchor="middle" x="660.5" y="-38" font-family="Helvetica,sans-Serif" font-size="10.00">nars.inference.LocalRules.revision</text>
</a>
</g>
</g>
<!-- Node3&#45;&gt;Node4 -->
<g id="edge3" class="edge"><title>Node3&#45;&gt;Node4</title>
<path fill="none" stroke="midnightblue" d="M551.555,-40.5C560.002,-40.5 568.476,-40.5 576.759,-40.5"/>
<polygon fill="midnightblue" stroke="midnightblue" points="551.28,-37.0001 541.28,-40.5 551.28,-44.0001 551.28,-37.0001"/>
</g>
<!-- Node5 -->
<g id="node5" class="node"><title>Node5</title>
<g id="a_node5"><a xlink:href="../../d4/d22/classnars_1_1entity_1_1Concept_a40cddcc82ee28a1cf5b1f4bc14e2b078.html#a40cddcc82ee28a1cf5b1f4bc14e2b078" target="_top" xlink:title="To accept a new judgment as isBelief, and check for revisions and solutions. ">
<polygon fill="none" stroke="black" points="790,-48.5 790,-78.5 930,-78.5 930,-48.5 790,-48.5"/>
<text text-anchor="start" x="798" y="-66.5" font-family="Helvetica,sans-Serif" font-size="10.00">nars.entity.Concept.process</text>
<text text-anchor="middle" x="860" y="-55.5" font-family="Helvetica,sans-Serif" font-size="10.00">Judgment</text>
</a>
</g>
</g>
<!-- Node4&#45;&gt;Node5 -->
<g id="edge4" class="edge"><title>Node4&#45;&gt;Node5</title>
<path fill="none" stroke="midnightblue" d="M753.49,-51.2128C765.732,-52.6384 778.113,-54.0802 789.875,-55.45"/>
<polygon fill="midnightblue" stroke="midnightblue" points="753.594,-47.7013 743.256,-50.021 752.784,-54.6543 753.594,-47.7013"/>
</g>
<!-- Node16 -->
<g id="node16" class="node"><title>Node16</title>
<g id="a_node16"><a xlink:href="../../d4/de9/classnars_1_1inference_1_1LocalRules_aac1c92950f50edd04d12229a8c992987.html#aac1c92950f50edd04d12229a8c992987" target="_top" xlink:title="The task and belief have the same content. ">
<polygon fill="none" stroke="black" points="780,-8 780,-27 940,-27 940,-8 780,-8"/>
<text text-anchor="middle" x="860" y="-15" font-family="Helvetica,sans-Serif" font-size="10.00">nars.inference.LocalRules.match</text>
</a>
</g>
</g>
<!-- Node4&#45;&gt;Node16 -->
<g id="edge16" class="edge"><title>Node4&#45;&gt;Node16</title>
<path fill="none" stroke="midnightblue" d="M753.244,-29.8159C762.132,-28.7809 771.096,-27.7369 779.846,-26.7179"/>
<polygon fill="midnightblue" stroke="midnightblue" points="752.784,-26.3457 743.256,-30.979 753.594,-33.2987 752.784,-26.3457"/>
</g>
<!-- Node6 -->
<g id="node6" class="node"><title>Node6</title>
<g id="a_node6"><a xlink:href="../../d4/d22/classnars_1_1entity_1_1Concept_a9ea7c3154932d7a736c105eb55daeb5c.html#a9ea7c3154932d7a736c105eb55daeb5c" target="_top" xlink:title="Directly process a new task. ">
<polygon fill="none" stroke="black" points="993,-49.5 993,-79.5 1122,-79.5 1122,-49.5 993,-49.5"/>
<text text-anchor="start" x="1001" y="-67.5" font-family="Helvetica,sans-Serif" font-size="10.00">nars.entity.Concept.direct</text>
<text text-anchor="middle" x="1057.5" y="-56.5" font-family="Helvetica,sans-Serif" font-size="10.00">Process</text>
</a>
</g>
</g>
<!-- Node5&#45;&gt;Node6 -->
<g id="edge5" class="edge"><title>Node5&#45;&gt;Node6</title>
<path fill="none" stroke="midnightblue" d="M940.386,-63.9061C957.875,-63.9955 976.177,-64.0891 992.943,-64.1749"/>
<polygon fill="midnightblue" stroke="midnightblue" points="940.219,-60.4053 930.201,-63.854 940.183,-67.4052 940.219,-60.4053"/>
</g>
<!-- Node7 -->
<g id="node7" class="node"><title>Node7</title>
<g id="a_node7"><a xlink:href="../../d8/df4/classnars_1_1storage_1_1Memory_a175200c1f4c182222d0e66439b6e53a0.html#a175200c1f4c182222d0e66439b6e53a0" target="_top" xlink:title="Immediate processing of a new task, in constant time Local processing, in one concept only...">
<polygon fill="none" stroke="black" points="1175,-49.5 1175,-79.5 1332,-79.5 1332,-49.5 1175,-49.5"/>
<text text-anchor="start" x="1183" y="-67.5" font-family="Helvetica,sans-Serif" font-size="10.00">nars.storage.Memory.immediate</text>
<text text-anchor="middle" x="1253.5" y="-56.5" font-family="Helvetica,sans-Serif" font-size="10.00">Process</text>
</a>
</g>
</g>
<!-- Node6&#45;&gt;Node7 -->
<g id="edge6" class="edge"><title>Node6&#45;&gt;Node7</title>
<path fill="none" stroke="midnightblue" d="M1132.09,-64.5C1146.1,-64.5 1160.81,-64.5 1174.95,-64.5"/>
<polygon fill="midnightblue" stroke="midnightblue" points="1132.02,-61.0001 1122.02,-64.5 1132.02,-68.0001 1132.02,-61.0001"/>
</g>
<!-- Node8 -->
<g id="node8" class="node"><title>Node8</title>
<g id="a_node8"><a xlink:href="../../d8/df4/classnars_1_1storage_1_1Memory_a105e44a3504921cc1036eb979b85d9f0.html#a105e44a3504921cc1036eb979b85d9f0" target="_top" xlink:title="Process the newTasks accumulated in the previous workCycle, accept input ones and those that correspo...">
<polygon fill="none" stroke="black" points="1368,-98.5 1368,-128.5 1514,-128.5 1514,-98.5 1368,-98.5"/>
<text text-anchor="start" x="1376" y="-116.5" font-family="Helvetica,sans-Serif" font-size="10.00">nars.storage.Memory.process</text>
<text text-anchor="middle" x="1441" y="-105.5" font-family="Helvetica,sans-Serif" font-size="10.00">NewTask</text>
</a>
</g>
</g>
<!-- Node7&#45;&gt;Node8 -->
<g id="edge7" class="edge"><title>Node7&#45;&gt;Node8</title>
<path fill="none" stroke="midnightblue" d="M1321.22,-82.1229C1341.51,-87.4837 1363.61,-93.3225 1383.19,-98.4938"/>
<polygon fill="midnightblue" stroke="midnightblue" points="1321.98,-78.7047 1311.42,-79.5346 1320.19,-85.4725 1321.98,-78.7047"/>
</g>
<!-- Node15 -->
<g id="node15" class="node"><title>Node15</title>
<g id="a_node15"><a xlink:href="../../d8/df4/classnars_1_1storage_1_1Memory_afe3b4d1bb5fab652ceca53c04773af73.html#afe3b4d1bb5fab652ceca53c04773af73" target="_top" xlink:title="Select a novel task to process. ">
<polygon fill="none" stroke="black" points="1368,-49.5 1368,-79.5 1514,-79.5 1514,-49.5 1368,-49.5"/>
<text text-anchor="start" x="1376" y="-67.5" font-family="Helvetica,sans-Serif" font-size="10.00">nars.storage.Memory.process</text>
<text text-anchor="middle" x="1441" y="-56.5" font-family="Helvetica,sans-Serif" font-size="10.00">NovelTask</text>
</a>
</g>
</g>
<!-- Node7&#45;&gt;Node15 -->
<g id="edge14" class="edge"><title>Node7&#45;&gt;Node15</title>
<path fill="none" stroke="midnightblue" d="M1342.12,-64.5C1350.71,-64.5 1359.35,-64.5 1367.75,-64.5"/>
<polygon fill="midnightblue" stroke="midnightblue" points="1342.09,-61.0001 1332.09,-64.5 1342.09,-68.0001 1342.09,-61.0001"/>
</g>
<!-- Node9 -->
<g id="node9" class="node"><title>Node9</title>
<g id="a_node9"><a xlink:href="../../d8/df4/classnars_1_1storage_1_1Memory_a49e2cbc8b78d535f4d69739886ee966a.html#a49e2cbc8b78d535f4d69739886ee966a" target="_top" xlink:title="An atomic working workCycle of the system: process new Tasks, then fire a concept. ">
<polygon fill="none" stroke="black" points="1550,-49.5 1550,-79.5 1683,-79.5 1683,-49.5 1550,-49.5"/>
<text text-anchor="start" x="1558" y="-67.5" font-family="Helvetica,sans-Serif" font-size="10.00">nars.storage.Memory.work</text>
<text text-anchor="middle" x="1616.5" y="-56.5" font-family="Helvetica,sans-Serif" font-size="10.00">Cycle</text>
</a>
</g>
</g>
<!-- Node8&#45;&gt;Node9 -->
<g id="edge8" class="edge"><title>Node8&#45;&gt;Node9</title>
<path fill="none" stroke="midnightblue" d="M1505.1,-95.6788C1523.83,-90.3882 1544.16,-84.6478 1562.21,-79.5516"/>
<polygon fill="midnightblue" stroke="midnightblue" points="1504.14,-92.3123 1495.47,-98.3986 1506.05,-99.0488 1504.14,-92.3123"/>
</g>
<!-- Node10 -->
<g id="node10" class="node"><title>Node10</title>
<g id="a_node10"><a xlink:href="../../dd/da5/classnars_1_1storage_1_1Memory_1_1ReasonerBatch_acc60dec23da774957a85362ed6d7448b.html#acc60dec23da774957a85362ed6d7448b" target="_top" xlink:title="nars.storage.Memory.Reasoner\lBatch.doTick">
<polygon fill="none" stroke="black" points="1719,-49.5 1719,-79.5 1873,-79.5 1873,-49.5 1719,-49.5"/>
<text text-anchor="start" x="1727" y="-67.5" font-family="Helvetica,sans-Serif" font-size="10.00">nars.storage.Memory.Reasoner</text>
<text text-anchor="middle" x="1796" y="-56.5" font-family="Helvetica,sans-Serif" font-size="10.00">Batch.doTick</text>
</a>
</g>
</g>
<!-- Node9&#45;&gt;Node10 -->
<g id="edge9" class="edge"><title>Node9&#45;&gt;Node10</title>
<path fill="none" stroke="midnightblue" d="M1693.32,-64.5C1701.79,-64.5 1710.41,-64.5 1718.89,-64.5"/>
<polygon fill="midnightblue" stroke="midnightblue" points="1693.09,-61.0001 1683.09,-64.5 1693.09,-68.0001 1693.09,-61.0001"/>
</g>
<!-- Node11 -->
<g id="node11" class="node"><title>Node11</title>
<g id="a_node11"><a xlink:href="../../dd/da5/classnars_1_1storage_1_1Memory_1_1ReasonerBatch_aed591f05899b98fd9e4ad01836ad0a40.html#aed591f05899b98fd9e4ad01836ad0a40" target="_top" xlink:title="A clock tick. ">
<polygon fill="none" stroke="black" points="1909,-49.5 1909,-79.5 2063,-79.5 2063,-49.5 1909,-49.5"/>
<text text-anchor="start" x="1917" y="-67.5" font-family="Helvetica,sans-Serif" font-size="10.00">nars.storage.Memory.Reasoner</text>
<text text-anchor="middle" x="1986" y="-56.5" font-family="Helvetica,sans-Serif" font-size="10.00">Batch.tick</text>
</a>
</g>
</g>
<!-- Node10&#45;&gt;Node11 -->
<g id="edge10" class="edge"><title>Node10&#45;&gt;Node11</title>
<path fill="none" stroke="midnightblue" d="M1883.42,-64.5C1891.86,-64.5 1900.37,-64.5 1908.7,-64.5"/>
<polygon fill="midnightblue" stroke="midnightblue" points="1883.2,-61.0001 1873.2,-64.5 1883.2,-68.0001 1883.2,-61.0001"/>
</g>
<!-- Node12 -->
<g id="node12" class="node"><title>Node12</title>
<g id="a_node12"><a xlink:href="../../d4/d88/classnars_1_1storage_1_1Memory_1_1NARSBatch_aad99db6cedde9cff2a997db8906ff821.html#aad99db6cedde9cff2a997db8906ff821" target="_top" xlink:title="Run to completion: repeatedly execute NARS working cycle, until Inputs are Finished, or 1000 steps. ">
<polygon fill="none" stroke="black" points="2099,-55 2099,-74 2281,-74 2281,-55 2099,-55"/>
<text text-anchor="middle" x="2190" y="-62" font-family="Helvetica,sans-Serif" font-size="10.00">nars.storage.Memory.NARSBatch.run</text>
</a>
</g>
</g>
<!-- Node11&#45;&gt;Node12 -->
<g id="edge11" class="edge"><title>Node11&#45;&gt;Node12</title>
<path fill="none" stroke="midnightblue" d="M2073.27,-64.5C2081.69,-64.5 2090.25,-64.5 2098.71,-64.5"/>
<polygon fill="midnightblue" stroke="midnightblue" points="2073.08,-61.0001 2063.08,-64.5 2073.08,-68.0001 2073.08,-61.0001"/>
</g>
<!-- Node13 -->
<g id="node13" class="node"><title>Node13</title>
<g id="a_node13"><a xlink:href="../../d4/d88/classnars_1_1storage_1_1Memory_1_1NARSBatch_a416c39463faa161661ed1d12fea03b3c.html#a416c39463faa161661ed1d12fea03b3c" target="_top" xlink:title="non&#45;static equivalent to main(String[]) : run to completion from an input file ">
<polygon fill="none" stroke="black" points="2317,-49.5 2317,-79.5 2499,-79.5 2499,-49.5 2317,-49.5"/>
<text text-anchor="start" x="2325" y="-67.5" font-family="Helvetica,sans-Serif" font-size="10.00">nars.storage.Memory.NARSBatch.run</text>
<text text-anchor="middle" x="2408" y="-56.5" font-family="Helvetica,sans-Serif" font-size="10.00">Inference</text>
</a>
</g>
</g>
<!-- Node12&#45;&gt;Node13 -->
<g id="edge12" class="edge"><title>Node12&#45;&gt;Node13</title>
<path fill="none" stroke="midnightblue" d="M2291.06,-64.5C2299.63,-64.5 2308.27,-64.5 2316.76,-64.5"/>
<polygon fill="midnightblue" stroke="midnightblue" points="2291.04,-61.0001 2281.04,-64.5 2291.04,-68.0001 2291.04,-61.0001"/>
</g>
<!-- Node14 -->
<g id="node14" class="node"><title>Node14</title>
<g id="a_node14"><a xlink:href="../../d4/d88/classnars_1_1storage_1_1Memory_1_1NARSBatch_aa97fcd68270583e60e6bf1b4579d1bdc.html#aa97fcd68270583e60e6bf1b4579d1bdc" target="_top" xlink:title="The entry point of the standalone application. ">
<polygon fill="none" stroke="black" points="2535,-55 2535,-74 2725,-74 2725,-55 2535,-55"/>
<text text-anchor="middle" x="2630" y="-62" font-family="Helvetica,sans-Serif" font-size="10.00">nars.storage.Memory.NARSBatch.main</text>
</a>
</g>
</g>
<!-- Node13&#45;&gt;Node14 -->
<g id="edge13" class="edge"><title>Node13&#45;&gt;Node14</title>
<path fill="none" stroke="midnightblue" d="M2509.37,-64.5C2517.82,-64.5 2526.34,-64.5 2534.74,-64.5"/>
<polygon fill="midnightblue" stroke="midnightblue" points="2509.12,-61.0001 2499.12,-64.5 2509.12,-68.0001 2509.12,-61.0001"/>
</g>
<!-- Node15&#45;&gt;Node9 -->
<g id="edge15" class="edge"><title>Node15&#45;&gt;Node9</title>
<path fill="none" stroke="midnightblue" d="M1524.12,-64.5C1532.72,-64.5 1541.37,-64.5 1549.76,-64.5"/>
<polygon fill="midnightblue" stroke="midnightblue" points="1524.07,-61.0001 1514.07,-64.5 1524.07,-68.0001 1524.07,-61.0001"/>
</g>
<!-- Node17 -->
<g id="node17" class="node"><title>Node17</title>
<g id="a_node17"><a xlink:href="../../da/de3/classnars_1_1inference_1_1RuleTables_ac2d01dfdc40bdd47c757cb549217e6e3.html#ac2d01dfdc40bdd47c757cb549217e6e3" target="_top" xlink:title="Entry point of the inference engine. ">
<polygon fill="none" stroke="black" points="976,-7 976,-26 1139,-26 1139,-7 976,-7"/>
<text text-anchor="middle" x="1057.5" y="-14" font-family="Helvetica,sans-Serif" font-size="10.00">nars.inference.RuleTables.reason</text>
</a>
</g>
</g>
<!-- Node16&#45;&gt;Node17 -->
<g id="edge17" class="edge"><title>Node16&#45;&gt;Node17</title>
<path fill="none" stroke="midnightblue" d="M950.499,-17.0422C958.962,-16.9989 967.507,-16.9552 975.88,-16.9124"/>
<polygon fill="midnightblue" stroke="midnightblue" points="950.217,-13.5435 940.236,-17.0947 950.253,-20.5434 950.217,-13.5435"/>
</g>
<!-- Node18 -->
<g id="node18" class="node"><title>Node18</title>
<g id="a_node18"><a xlink:href="../../d4/d22/classnars_1_1entity_1_1Concept_ae07576c8466ad65eeb61040e3f71cfc7.html#ae07576c8466ad65eeb61040e3f71cfc7" target="_top" xlink:title="An atomic step in a concept, only called in Memory# processConcept. ">
<polygon fill="none" stroke="black" points="1194,-6 1194,-25 1313,-25 1313,-6 1194,-6"/>
<text text-anchor="middle" x="1253.5" y="-13" font-family="Helvetica,sans-Serif" font-size="10.00">nars.entity.Concept.fire</text>
</a>
</g>
</g>
<!-- Node17&#45;&gt;Node18 -->
<g id="edge18" class="edge"><title>Node17&#45;&gt;Node18</title>
<path fill="none" stroke="midnightblue" d="M1149.46,-16.0311C1164.52,-15.9535 1179.76,-15.8749 1193.75,-15.8028"/>
<polygon fill="midnightblue" stroke="midnightblue" points="1149.07,-12.533 1139.09,-16.0846 1149.11,-19.5329 1149.07,-12.533"/>
</g>
<!-- Node19 -->
<g id="node19" class="node"><title>Node19</title>
<g id="a_node19"><a xlink:href="../../d8/df4/classnars_1_1storage_1_1Memory_a83154b55b922c82b73931d4f22e3a590.html#a83154b55b922c82b73931d4f22e3a590" target="_top" xlink:title="Select a concept to fire. ">
<polygon fill="none" stroke="black" points="1368,-0.5 1368,-30.5 1514,-30.5 1514,-0.5 1368,-0.5"/>
<text text-anchor="start" x="1376" y="-18.5" font-family="Helvetica,sans-Serif" font-size="10.00">nars.storage.Memory.process</text>
<text text-anchor="middle" x="1441" y="-7.5" font-family="Helvetica,sans-Serif" font-size="10.00">Concept</text>
</a>
</g>
</g>
<!-- Node18&#45;&gt;Node19 -->
<g id="edge19" class="edge"><title>Node18&#45;&gt;Node19</title>
<path fill="none" stroke="midnightblue" d="M1323.52,-15.5C1337.93,-15.5 1353.16,-15.5 1367.68,-15.5"/>
<polygon fill="midnightblue" stroke="midnightblue" points="1323.19,-12.0001 1313.19,-15.5 1323.19,-19.0001 1323.19,-12.0001"/>
</g>
<!-- Node19&#45;&gt;Node9 -->
<g id="edge20" class="edge"><title>Node19&#45;&gt;Node9</title>
<path fill="none" stroke="midnightblue" d="M1505.1,-33.3212C1523.83,-38.6118 1544.16,-44.3522 1562.21,-49.4484"/>
<polygon fill="midnightblue" stroke="midnightblue" points="1506.05,-29.9512 1495.47,-30.6014 1504.14,-36.6877 1506.05,-29.9512"/>
</g>
</g>
</svg>
