<?xml version="1.0" encoding="UTF-8" standalone="no"?>
<!DOCTYPE svg PUBLIC "-//W3C//DTD SVG 1.1//EN"
 "http://www.w3.org/Graphics/SVG/1.1/DTD/svg11.dtd">
<!-- Generated by graphviz version 2.38.0 (20140413.2041)
 -->
<!-- Title: Graphical Class Hierarchy Pages: 1 -->
<svg width="834pt" height="880pt"
 viewBox="0.00 0.00 834.00 880.00" xmlns="http://www.w3.org/2000/svg" xmlns:xlink="http://www.w3.org/1999/xlink">
<g id="graph0" class="graph" transform="scale(1 1) rotate(0) translate(4 876)">
<title>Graphical Class Hierarchy</title>
<!-- Node1 -->
<g id="node1" class="node"><title>Node1</title>
<g id="a_node1"><a xlink:title="STL class. ">
<polygon fill="none" stroke="#bfbfbf" points="0,-603.5 0,-622.5 75,-622.5 75,-603.5 0,-603.5"/>
<text text-anchor="middle" x="37.5" y="-610.5" font-family="Helvetica,sans-Serif" font-size="10.00">std::ios_base</text>
</a>
</g>
</g>
<!-- Node2 -->
<g id="node2" class="node"><title>Node2</title>
<polygon fill="none" stroke="#bfbfbf" points="119,-641.5 119,-660.5 233,-660.5 233,-641.5 119,-641.5"/>
<text text-anchor="middle" x="176" y="-648.5" font-family="Helvetica,sans-Serif" font-size="10.00">std::basic_ios&lt; char &gt;</text>
</g>
<!-- Node1&#45;&gt;Node2 -->
<g id="edge1" class="edge"><title>Node1&#45;&gt;Node2</title>
<path fill="none" stroke="midnightblue" d="M82.7487,-625.318C101.503,-630.539 123.028,-636.532 140.566,-641.414"/>
<polygon fill="midnightblue" stroke="midnightblue" points="83.5171,-621.899 72.9447,-622.589 81.6397,-628.643 83.5171,-621.899"/>
</g>
<!-- Node3 -->
<g id="node3" class="node"><title>Node3</title>
<polygon fill="none" stroke="#bfbfbf" points="111,-603.5 111,-622.5 241,-622.5 241,-603.5 111,-603.5"/>
<text text-anchor="middle" x="176" y="-610.5" font-family="Helvetica,sans-Serif" font-size="10.00">std::basic_ios&lt; wchar_t &gt;</text>
</g>
<!-- Node1&#45;&gt;Node3 -->
<g id="edge2" class="edge"><title>Node1&#45;&gt;Node3</title>
<path fill="none" stroke="midnightblue" d="M85.2608,-613C93.5298,-613 102.267,-613 110.915,-613"/>
<polygon fill="midnightblue" stroke="midnightblue" points="85.0795,-609.5 75.0795,-613 85.0795,-616.5 85.0795,-609.5"/>
</g>
<!-- Node4 -->
<g id="node4" class="node"><title>Node4</title>
<g id="a_node4"><a xlink:title="STL class. ">
<polygon fill="none" stroke="#bfbfbf" points="118,-565.5 118,-584.5 234,-584.5 234,-565.5 118,-565.5"/>
<text text-anchor="middle" x="176" y="-572.5" font-family="Helvetica,sans-Serif" font-size="10.00">std::basic_ios&lt; Char &gt;</text>
</a>
</g>
</g>
<!-- Node1&#45;&gt;Node4 -->
<g id="edge3" class="edge"><title>Node1&#45;&gt;Node4</title>
<path fill="none" stroke="midnightblue" d="M82.7487,-600.682C101.503,-595.461 123.028,-589.468 140.566,-584.586"/>
<polygon fill="midnightblue" stroke="midnightblue" points="81.6397,-597.357 72.9447,-603.411 83.5171,-604.101 81.6397,-597.357"/>
</g>
<!-- Node5 -->
<g id="node5" class="node"><title>Node5</title>
<polygon fill="none" stroke="#bfbfbf" points="278.5,-732 278.5,-762 375.5,-762 375.5,-732 278.5,-732"/>
<text text-anchor="start" x="286.5" y="-750" font-family="Helvetica,sans-Serif" font-size="10.00">std::basic_istream</text>
<text text-anchor="middle" x="327" y="-739" font-family="Helvetica,sans-Serif" font-size="10.00">&lt; char &gt;</text>
</g>
<!-- Node4&#45;&gt;Node5 -->
<g id="edge4" class="edge"><title>Node4&#45;&gt;Node5</title>
<path fill="none" stroke="midnightblue" d="M236.402,-589.958C238.026,-591.201 239.566,-592.545 241,-594 282.485,-636.087 239.539,-676.294 277,-722 280.148,-725.841 284.039,-729.153 288.241,-731.992"/>
<polygon fill="midnightblue" stroke="midnightblue" points="238.019,-586.843 227.674,-584.556 234.335,-592.795 238.019,-586.843"/>
</g>
<!-- Node6 -->
<g id="node6" class="node"><title>Node6</title>
<polygon fill="none" stroke="#bfbfbf" points="278.5,-683 278.5,-713 375.5,-713 375.5,-683 278.5,-683"/>
<text text-anchor="start" x="286.5" y="-701" font-family="Helvetica,sans-Serif" font-size="10.00">std::basic_istream</text>
<text text-anchor="middle" x="327" y="-690" font-family="Helvetica,sans-Serif" font-size="10.00">&lt; wchar_t &gt;</text>
</g>
<!-- Node4&#45;&gt;Node6 -->
<g id="edge5" class="edge"><title>Node4&#45;&gt;Node6</title>
<path fill="none" stroke="midnightblue" d="M234.748,-589.349C236.952,-590.757 239.049,-592.303 241,-594 270.112,-619.323 250.326,-645.12 277,-673 280.565,-676.726 284.806,-679.993 289.28,-682.828"/>
<polygon fill="midnightblue" stroke="midnightblue" points="236.282,-586.2 225.812,-584.575 232.983,-592.374 236.282,-586.2"/>
</g>
<!-- Node7 -->
<g id="node7" class="node"><title>Node7</title>
<polygon fill="none" stroke="#bfbfbf" points="277,-634 277,-664 377,-664 377,-634 277,-634"/>
<text text-anchor="start" x="285" y="-652" font-family="Helvetica,sans-Serif" font-size="10.00">std::basic_ostream</text>
<text text-anchor="middle" x="327" y="-641" font-family="Helvetica,sans-Serif" font-size="10.00">&lt; char &gt;</text>
</g>
<!-- Node4&#45;&gt;Node7 -->
<g id="edge6" class="edge"><title>Node4&#45;&gt;Node7</title>
<path fill="none" stroke="midnightblue" d="M227.747,-587.951C232.329,-589.747 236.814,-591.758 241,-594 259.36,-603.832 259.616,-612.529 277,-624 282.261,-627.471 288.066,-630.815 293.785,-633.865"/>
<polygon fill="midnightblue" stroke="midnightblue" points="228.867,-584.635 218.273,-584.56 226.508,-591.225 228.867,-584.635"/>
</g>
<!-- Node8 -->
<g id="node8" class="node"><title>Node8</title>
<polygon fill="none" stroke="#bfbfbf" points="277,-585 277,-615 377,-615 377,-585 277,-585"/>
<text text-anchor="start" x="285" y="-603" font-family="Helvetica,sans-Serif" font-size="10.00">std::basic_ostream</text>
<text text-anchor="middle" x="327" y="-592" font-family="Helvetica,sans-Serif" font-size="10.00">&lt; wchar_t &gt;</text>
</g>
<!-- Node4&#45;&gt;Node8 -->
<g id="edge7" class="edge"><title>Node4&#45;&gt;Node8</title>
<path fill="none" stroke="midnightblue" d="M243.823,-586.212C254.885,-588.068 266.176,-589.962 276.705,-591.729"/>
<polygon fill="midnightblue" stroke="midnightblue" points="244.197,-582.726 233.756,-584.523 243.039,-589.629 244.197,-582.726"/>
</g>
<!-- Node9 -->
<g id="node9" class="node"><title>Node9</title>
<g id="a_node9"><a xlink:title="STL class. ">
<polygon fill="none" stroke="#bfbfbf" points="278.5,-306 278.5,-336 375.5,-336 375.5,-306 278.5,-306"/>
<text text-anchor="start" x="286.5" y="-324" font-family="Helvetica,sans-Serif" font-size="10.00">std::basic_istream</text>
<text text-anchor="middle" x="327" y="-313" font-family="Helvetica,sans-Serif" font-size="10.00">&lt; Char &gt;</text>
</a>
</g>
</g>
<!-- Node4&#45;&gt;Node9 -->
<g id="edge8" class="edge"><title>Node4&#45;&gt;Node9</title>
<path fill="none" stroke="midnightblue" d="M187.773,-556.635C215.922,-508.649 291.28,-380.188 317.143,-336.099"/>
<polygon fill="midnightblue" stroke="midnightblue" points="184.7,-554.957 182.659,-565.353 190.738,-558.499 184.7,-554.957"/>
</g>
<!-- Node35 -->
<g id="node35" class="node"><title>Node35</title>
<g id="a_node35"><a xlink:title="STL class. ">
<polygon fill="none" stroke="#bfbfbf" points="277,-536 277,-566 377,-566 377,-536 277,-536"/>
<text text-anchor="start" x="285" y="-554" font-family="Helvetica,sans-Serif" font-size="10.00">std::basic_ostream</text>
<text text-anchor="middle" x="327" y="-543" font-family="Helvetica,sans-Serif" font-size="10.00">&lt; Char &gt;</text>
</a>
</g>
</g>
<!-- Node4&#45;&gt;Node35 -->
<g id="edge34" class="edge"><title>Node4&#45;&gt;Node35</title>
<path fill="none" stroke="midnightblue" d="M244.223,-564.172C255.254,-562.395 266.499,-560.584 276.98,-558.896"/>
<polygon fill="midnightblue" stroke="midnightblue" points="243.497,-560.744 234.181,-565.79 244.611,-567.655 243.497,-560.744"/>
</g>
<!-- Node48 -->
<g id="node48" class="node"><title>Node48</title>
<g id="a_node48"><a xlink:title="STL class. ">
<polygon fill="none" stroke="#bfbfbf" points="302.5,-267.5 302.5,-286.5 351.5,-286.5 351.5,-267.5 302.5,-267.5"/>
<text text-anchor="middle" x="327" y="-274.5" font-family="Helvetica,sans-Serif" font-size="10.00">std::ios</text>
</a>
</g>
</g>
<!-- Node4&#45;&gt;Node48 -->
<g id="edge50" class="edge"><title>Node4&#45;&gt;Node48</title>
<path fill="none" stroke="midnightblue" d="M178.557,-555.209C183.536,-505.046 203.369,-371.552 277,-296 283.814,-289.008 293.492,-284.542 302.45,-281.711"/>
<polygon fill="midnightblue" stroke="midnightblue" points="175.055,-555.074 177.646,-565.347 182.027,-555.701 175.055,-555.074"/>
</g>
<!-- Node49 -->
<g id="node49" class="node"><title>Node49</title>
<g id="a_node49"><a xlink:title="STL class. ">
<polygon fill="none" stroke="#bfbfbf" points="299,-229.5 299,-248.5 355,-248.5 355,-229.5 299,-229.5"/>
<text text-anchor="middle" x="327" y="-236.5" font-family="Helvetica,sans-Serif" font-size="10.00">std::wios</text>
</a>
</g>
</g>
<!-- Node4&#45;&gt;Node49 -->
<g id="edge51" class="edge"><title>Node4&#45;&gt;Node49</title>
<path fill="none" stroke="midnightblue" d="M177.562,-555.132C180.169,-500.39 194.822,-345.642 277,-258 282.804,-251.81 290.858,-247.61 298.761,-244.771"/>
<polygon fill="midnightblue" stroke="midnightblue" points="174.06,-555.107 177.169,-565.235 181.055,-555.379 174.06,-555.107"/>
</g>
<!-- Node10 -->
<g id="node10" class="node"><title>Node10</title>
<polygon fill="none" stroke="#bfbfbf" points="425,-284 425,-314 525,-314 525,-284 425,-284"/>
<text text-anchor="start" x="433" y="-302" font-family="Helvetica,sans-Serif" font-size="10.00">std::basic_ifstream</text>
<text text-anchor="middle" x="475" y="-291" font-family="Helvetica,sans-Serif" font-size="10.00">&lt; char &gt;</text>
</g>
<!-- Node9&#45;&gt;Node10 -->
<g id="edge9" class="edge"><title>Node9&#45;&gt;Node10</title>
<path fill="none" stroke="midnightblue" d="M385.957,-312.267C398.829,-310.327 412.354,-308.289 424.835,-306.408"/>
<polygon fill="midnightblue" stroke="midnightblue" points="385.173,-308.845 375.806,-313.796 386.216,-315.767 385.173,-308.845"/>
</g>
<!-- Node11 -->
<g id="node11" class="node"><title>Node11</title>
<polygon fill="none" stroke="#bfbfbf" points="425,-235 425,-265 525,-265 525,-235 425,-235"/>
<text text-anchor="start" x="433" y="-253" font-family="Helvetica,sans-Serif" font-size="10.00">std::basic_ifstream</text>
<text text-anchor="middle" x="475" y="-242" font-family="Helvetica,sans-Serif" font-size="10.00">&lt; wchar_t &gt;</text>
</g>
<!-- Node9&#45;&gt;Node11 -->
<g id="edge10" class="edge"><title>Node9&#45;&gt;Node11</title>
<path fill="none" stroke="midnightblue" d="M367.558,-301.149C370.768,-299.438 373.949,-297.707 377,-296 393.363,-286.843 396.212,-282.353 413,-274 419.317,-270.857 426.152,-267.828 432.884,-265.044"/>
<polygon fill="midnightblue" stroke="midnightblue" points="365.745,-298.148 358.513,-305.89 368.995,-304.348 365.745,-298.148"/>
</g>
<!-- Node12 -->
<g id="node12" class="node"><title>Node12</title>
<polygon fill="none" stroke="#bfbfbf" points="424,-372 424,-402 526,-402 526,-372 424,-372"/>
<text text-anchor="start" x="432" y="-390" font-family="Helvetica,sans-Serif" font-size="10.00">std::basic_iostream</text>
<text text-anchor="middle" x="475" y="-379" font-family="Helvetica,sans-Serif" font-size="10.00">&lt; char &gt;</text>
</g>
<!-- Node9&#45;&gt;Node12 -->
<g id="edge11" class="edge"><title>Node9&#45;&gt;Node12</title>
<path fill="none" stroke="midnightblue" d="M367.168,-340.504C381.499,-347.478 397.9,-355.271 413,-362 420.422,-365.308 428.42,-368.703 436.102,-371.884"/>
<polygon fill="midnightblue" stroke="midnightblue" points="368.604,-337.31 358.084,-336.059 365.528,-343.598 368.604,-337.31"/>
</g>
<!-- Node13 -->
<g id="node13" class="node"><title>Node13</title>
<polygon fill="none" stroke="#bfbfbf" points="424,-470 424,-500 526,-500 526,-470 424,-470"/>
<text text-anchor="start" x="432" y="-488" font-family="Helvetica,sans-Serif" font-size="10.00">std::basic_iostream</text>
<text text-anchor="middle" x="475" y="-477" font-family="Helvetica,sans-Serif" font-size="10.00">&lt; wchar_t &gt;</text>
</g>
<!-- Node9&#45;&gt;Node13 -->
<g id="edge12" class="edge"><title>Node9&#45;&gt;Node13</title>
<path fill="none" stroke="midnightblue" d="M337.374,-345.62C350.173,-376.25 375.852,-428.363 413,-460 417.444,-463.785 422.538,-467.054 427.847,-469.862"/>
<polygon fill="midnightblue" stroke="midnightblue" points="340.524,-344.074 333.529,-336.116 334.035,-346.699 340.524,-344.074"/>
</g>
<!-- Node14 -->
<g id="node14" class="node"><title>Node14</title>
<polygon fill="none" stroke="#bfbfbf" points="414.5,-186 414.5,-216 535.5,-216 535.5,-186 414.5,-186"/>
<text text-anchor="start" x="422.5" y="-204" font-family="Helvetica,sans-Serif" font-size="10.00">std::basic_istringstream</text>
<text text-anchor="middle" x="475" y="-193" font-family="Helvetica,sans-Serif" font-size="10.00">&lt; char &gt;</text>
</g>
<!-- Node9&#45;&gt;Node14 -->
<g id="edge13" class="edge"><title>Node9&#45;&gt;Node14</title>
<path fill="none" stroke="midnightblue" d="M372.484,-300.067C374.07,-298.775 375.584,-297.42 377,-296 401.986,-270.951 386.83,-248.809 413,-225 416.788,-221.554 421.129,-218.577 425.712,-216.012"/>
<polygon fill="midnightblue" stroke="midnightblue" points="370.229,-297.374 364.076,-305.999 374.265,-303.094 370.229,-297.374"/>
</g>
<!-- Node15 -->
<g id="node15" class="node"><title>Node15</title>
<polygon fill="none" stroke="#bfbfbf" points="414.5,-137 414.5,-167 535.5,-167 535.5,-137 414.5,-137"/>
<text text-anchor="start" x="422.5" y="-155" font-family="Helvetica,sans-Serif" font-size="10.00">std::basic_istringstream</text>
<text text-anchor="middle" x="475" y="-144" font-family="Helvetica,sans-Serif" font-size="10.00">&lt; wchar_t &gt;</text>
</g>
<!-- Node9&#45;&gt;Node15 -->
<g id="edge14" class="edge"><title>Node9&#45;&gt;Node15</title>
<path fill="none" stroke="midnightblue" d="M373.817,-299.425C374.941,-298.333 376.006,-297.192 377,-296 412.668,-253.242 375.302,-216.98 413,-176 416.159,-172.566 419.871,-169.616 423.877,-167.084"/>
<polygon fill="midnightblue" stroke="midnightblue" points="371.306,-296.952 365.696,-305.94 375.686,-302.413 371.306,-296.952"/>
</g>
<!-- Node16 -->
<g id="node16" class="node"><title>Node16</title>
<g id="a_node16"><a xlink:title="STL class. ">
<polygon fill="none" stroke="#bfbfbf" points="425,-88 425,-118 525,-118 525,-88 425,-88"/>
<text text-anchor="start" x="433" y="-106" font-family="Helvetica,sans-Serif" font-size="10.00">std::basic_ifstream</text>
<text text-anchor="middle" x="475" y="-95" font-family="Helvetica,sans-Serif" font-size="10.00">&lt; Char &gt;</text>
</a>
</g>
</g>
<!-- Node9&#45;&gt;Node16 -->
<g id="edge15" class="edge"><title>Node9&#45;&gt;Node16</title>
<path fill="none" stroke="midnightblue" d="M374.382,-299.073C375.307,-298.089 376.182,-297.066 377,-296 423.748,-235.071 363.355,-185.592 413,-127 416.311,-123.093 420.342,-119.818 424.739,-117.073"/>
<polygon fill="midnightblue" stroke="midnightblue" points="371.792,-296.683 366.476,-305.848 376.347,-301.999 371.792,-296.683"/>
</g>
<!-- Node19 -->
<g id="node19" class="node"><title>Node19</title>
<g id="a_node19"><a xlink:title="STL class. ">
<polygon fill="none" stroke="#bfbfbf" points="424,-421 424,-451 526,-451 526,-421 424,-421"/>
<text text-anchor="start" x="432" y="-439" font-family="Helvetica,sans-Serif" font-size="10.00">std::basic_iostream</text>
<text text-anchor="middle" x="475" y="-428" font-family="Helvetica,sans-Serif" font-size="10.00">&lt; Char &gt;</text>
</a>
</g>
</g>
<!-- Node9&#45;&gt;Node19 -->
<g id="edge18" class="edge"><title>Node9&#45;&gt;Node19</title>
<path fill="none" stroke="midnightblue" d="M345.273,-344.242C361.068,-364.159 386.021,-392.485 413,-411 418.379,-414.691 424.387,-417.978 430.477,-420.858"/>
<polygon fill="midnightblue" stroke="midnightblue" points="347.983,-342.025 339.086,-336.273 342.454,-346.318 347.983,-342.025"/>
</g>
<!-- Node30 -->
<g id="node30" class="node"><title>Node30</title>
<g id="a_node30"><a xlink:title="STL class. ">
<polygon fill="none" stroke="#bfbfbf" points="414.5,-39 414.5,-69 535.5,-69 535.5,-39 414.5,-39"/>
<text text-anchor="start" x="422.5" y="-57" font-family="Helvetica,sans-Serif" font-size="10.00">std::basic_istringstream</text>
<text text-anchor="middle" x="475" y="-46" font-family="Helvetica,sans-Serif" font-size="10.00">&lt; Char &gt;</text>
</a>
</g>
</g>
<!-- Node9&#45;&gt;Node30 -->
<g id="edge29" class="edge"><title>Node9&#45;&gt;Node30</title>
<path fill="none" stroke="midnightblue" d="M374.449,-299.123C375.354,-298.125 376.207,-297.084 377,-296 434.961,-216.728 351.266,-154.37 413,-78 415.79,-74.5483 419.146,-71.5913 422.83,-69.0583"/>
<polygon fill="midnightblue" stroke="midnightblue" points="371.85,-296.747 366.648,-305.976 376.47,-302.006 371.85,-296.747"/>
</g>
<!-- Node33 -->
<g id="node33" class="node"><title>Node33</title>
<g id="a_node33"><a xlink:title="STL class. ">
<polygon fill="none" stroke="#bfbfbf" points="441,-0.5 441,-19.5 509,-19.5 509,-0.5 441,-0.5"/>
<text text-anchor="middle" x="475" y="-7.5" font-family="Helvetica,sans-Serif" font-size="10.00">std::istream</text>
</a>
</g>
</g>
<!-- Node9&#45;&gt;Node33 -->
<g id="edge32" class="edge"><title>Node9&#45;&gt;Node33</title>
<path fill="none" stroke="midnightblue" d="M374.881,-298.708C375.629,-297.837 376.337,-296.935 377,-296 446.234,-198.304 335.73,-120.472 413,-29 420.015,-20.696 430.598,-15.9654 440.99,-13.2892"/>
<polygon fill="midnightblue" stroke="midnightblue" points="372.241,-296.38 367.229,-305.714 376.968,-301.543 372.241,-296.38"/>
</g>
<!-- Node34 -->
<g id="node34" class="node"><title>Node34</title>
<g id="a_node34"><a xlink:title="STL class. ">
<polygon fill="none" stroke="#bfbfbf" points="437,-333.5 437,-352.5 513,-352.5 513,-333.5 437,-333.5"/>
<text text-anchor="middle" x="475" y="-340.5" font-family="Helvetica,sans-Serif" font-size="10.00">std::wistream</text>
</a>
</g>
</g>
<!-- Node9&#45;&gt;Node34 -->
<g id="edge33" class="edge"><title>Node9&#45;&gt;Node34</title>
<path fill="none" stroke="midnightblue" d="M385.745,-329.701C402.908,-332.287 421.248,-335.051 436.739,-337.385"/>
<polygon fill="midnightblue" stroke="midnightblue" points="386.216,-326.233 375.806,-328.204 385.173,-333.155 386.216,-326.233"/>
</g>
<!-- Node17 -->
<g id="node17" class="node"><title>Node17</title>
<g id="a_node17"><a xlink:title="STL class. ">
<polygon fill="none" stroke="#bfbfbf" points="597,-126.5 597,-145.5 668,-145.5 668,-126.5 597,-126.5"/>
<text text-anchor="middle" x="632.5" y="-133.5" font-family="Helvetica,sans-Serif" font-size="10.00">std::ifstream</text>
</a>
</g>
</g>
<!-- Node16&#45;&gt;Node17 -->
<g id="edge16" class="edge"><title>Node16&#45;&gt;Node17</title>
<path fill="none" stroke="midnightblue" d="M535.244,-115.573C556.066,-119.991 578.768,-124.809 596.893,-128.656"/>
<polygon fill="midnightblue" stroke="midnightblue" points="535.71,-112.094 525.201,-113.441 534.257,-118.941 535.71,-112.094"/>
</g>
<!-- Node18 -->
<g id="node18" class="node"><title>Node18</title>
<g id="a_node18"><a xlink:title="STL class. ">
<polygon fill="none" stroke="#bfbfbf" points="593,-88.5 593,-107.5 672,-107.5 672,-88.5 593,-88.5"/>
<text text-anchor="middle" x="632.5" y="-95.5" font-family="Helvetica,sans-Serif" font-size="10.00">std::wifstream</text>
</a>
</g>
</g>
<!-- Node16&#45;&gt;Node18 -->
<g id="edge17" class="edge"><title>Node16&#45;&gt;Node18</title>
<path fill="none" stroke="midnightblue" d="M535.419,-101.089C554.713,-100.469 575.604,-99.7973 592.962,-99.2392"/>
<polygon fill="midnightblue" stroke="midnightblue" points="535.083,-97.5983 525.201,-101.418 535.309,-104.595 535.083,-97.5983"/>
</g>
<!-- Node20 -->
<g id="node20" class="node"><title>Node20</title>
<polygon fill="none" stroke="#bfbfbf" points="583.5,-402 583.5,-432 681.5,-432 681.5,-402 583.5,-402"/>
<text text-anchor="start" x="591.5" y="-420" font-family="Helvetica,sans-Serif" font-size="10.00">std::basic_fstream</text>
<text text-anchor="middle" x="632.5" y="-409" font-family="Helvetica,sans-Serif" font-size="10.00">&lt; char &gt;</text>
</g>
<!-- Node19&#45;&gt;Node20 -->
<g id="edge19" class="edge"><title>Node19&#45;&gt;Node20</title>
<path fill="none" stroke="midnightblue" d="M536.166,-428.649C551.811,-426.737 568.459,-424.703 583.392,-422.878"/>
<polygon fill="midnightblue" stroke="midnightblue" points="535.559,-425.197 526.057,-429.884 536.408,-432.145 535.559,-425.197"/>
</g>
<!-- Node21 -->
<g id="node21" class="node"><title>Node21</title>
<polygon fill="none" stroke="#bfbfbf" points="583.5,-353 583.5,-383 681.5,-383 681.5,-353 583.5,-353"/>
<text text-anchor="start" x="591.5" y="-371" font-family="Helvetica,sans-Serif" font-size="10.00">std::basic_fstream</text>
<text text-anchor="middle" x="632.5" y="-360" font-family="Helvetica,sans-Serif" font-size="10.00">&lt; wchar_t &gt;</text>
</g>
<!-- Node19&#45;&gt;Node21 -->
<g id="edge20" class="edge"><title>Node19&#45;&gt;Node21</title>
<path fill="none" stroke="midnightblue" d="M523.628,-417.003C528.173,-415.034 532.691,-413.014 537,-411 553.389,-403.338 556.612,-399.665 573,-392 579.464,-388.977 586.416,-385.942 593.193,-383.096"/>
<polygon fill="midnightblue" stroke="midnightblue" points="522.153,-413.827 514.318,-420.959 524.89,-420.27 522.153,-413.827"/>
</g>
<!-- Node22 -->
<g id="node22" class="node"><title>Node22</title>
<polygon fill="none" stroke="#bfbfbf" points="573,-304 573,-334 692,-334 692,-304 573,-304"/>
<text text-anchor="start" x="581" y="-322" font-family="Helvetica,sans-Serif" font-size="10.00">std::basic_stringstream</text>
<text text-anchor="middle" x="632.5" y="-311" font-family="Helvetica,sans-Serif" font-size="10.00">&lt; char &gt;</text>
</g>
<!-- Node19&#45;&gt;Node22 -->
<g id="edge21" class="edge"><title>Node19&#45;&gt;Node22</title>
<path fill="none" stroke="midnightblue" d="M531.529,-415.418C533.445,-414.032 535.278,-412.561 537,-411 562.335,-388.032 547.669,-365.972 573,-343 576.741,-339.608 581.026,-336.66 585.539,-334.106"/>
<polygon fill="midnightblue" stroke="midnightblue" points="529.308,-412.679 522.692,-420.955 533.024,-418.611 529.308,-412.679"/>
</g>
<!-- Node23 -->
<g id="node23" class="node"><title>Node23</title>
<polygon fill="none" stroke="#bfbfbf" points="573,-255 573,-285 692,-285 692,-255 573,-255"/>
<text text-anchor="start" x="581" y="-273" font-family="Helvetica,sans-Serif" font-size="10.00">std::basic_stringstream</text>
<text text-anchor="middle" x="632.5" y="-262" font-family="Helvetica,sans-Serif" font-size="10.00">&lt; wchar_t &gt;</text>
</g>
<!-- Node19&#45;&gt;Node23 -->
<g id="edge22" class="edge"><title>Node19&#45;&gt;Node23</title>
<path fill="none" stroke="midnightblue" d="M533.107,-414.803C534.477,-413.603 535.779,-412.336 537,-411 573.692,-370.829 536.315,-334.177 573,-294 576.109,-290.595 579.772,-287.662 583.725,-285.136"/>
<polygon fill="midnightblue" stroke="midnightblue" points="530.653,-412.261 524.631,-420.979 534.775,-417.919 530.653,-412.261"/>
</g>
<!-- Node24 -->
<g id="node24" class="node"><title>Node24</title>
<g id="a_node24"><a xlink:title="STL class. ">
<polygon fill="none" stroke="#bfbfbf" points="583.5,-500 583.5,-530 681.5,-530 681.5,-500 583.5,-500"/>
<text text-anchor="start" x="591.5" y="-518" font-family="Helvetica,sans-Serif" font-size="10.00">std::basic_fstream</text>
<text text-anchor="middle" x="632.5" y="-507" font-family="Helvetica,sans-Serif" font-size="10.00">&lt; Char &gt;</text>
</a>
</g>
</g>
<!-- Node19&#45;&gt;Node24 -->
<g id="edge23" class="edge"><title>Node19&#45;&gt;Node24</title>
<path fill="none" stroke="midnightblue" d="M528.722,-455.476C531.566,-456.917 534.344,-458.427 537,-460 554.919,-470.615 555.237,-479.126 573,-490 578.935,-493.633 585.491,-496.992 592.004,-499.991"/>
<polygon fill="midnightblue" stroke="midnightblue" points="530.017,-452.217 519.48,-451.11 527.027,-458.546 530.017,-452.217"/>
</g>
<!-- Node27 -->
<g id="node27" class="node"><title>Node27</title>
<g id="a_node27"><a xlink:title="STL class. ">
<polygon fill="none" stroke="#bfbfbf" points="573,-451 573,-481 692,-481 692,-451 573,-451"/>
<text text-anchor="start" x="581" y="-469" font-family="Helvetica,sans-Serif" font-size="10.00">std::basic_stringstream</text>
<text text-anchor="middle" x="632.5" y="-458" font-family="Helvetica,sans-Serif" font-size="10.00">&lt; Char &gt;</text>
</a>
</g>
</g>
<!-- Node19&#45;&gt;Node27 -->
<g id="edge26" class="edge"><title>Node19&#45;&gt;Node27</title>
<path fill="none" stroke="midnightblue" d="M536.043,-447.584C548.132,-449.916 560.824,-452.365 572.864,-454.688"/>
<polygon fill="midnightblue" stroke="midnightblue" points="536.539,-444.115 526.057,-445.657 535.213,-450.988 536.539,-444.115"/>
</g>
<!-- Node25 -->
<g id="node25" class="node"><title>Node25</title>
<g id="a_node25"><a xlink:title="STL class. ">
<polygon fill="none" stroke="#bfbfbf" points="742.5,-538.5 742.5,-557.5 811.5,-557.5 811.5,-538.5 742.5,-538.5"/>
<text text-anchor="middle" x="777" y="-545.5" font-family="Helvetica,sans-Serif" font-size="10.00">std::fstream</text>
</a>
</g>
</g>
<!-- Node24&#45;&gt;Node25 -->
<g id="edge24" class="edge"><title>Node24&#45;&gt;Node25</title>
<path fill="none" stroke="midnightblue" d="M691.704,-528.479C708.88,-532.457 727.104,-536.677 742.196,-540.172"/>
<polygon fill="midnightblue" stroke="midnightblue" points="692.276,-525.019 681.744,-526.172 690.697,-531.838 692.276,-525.019"/>
</g>
<!-- Node26 -->
<g id="node26" class="node"><title>Node26</title>
<g id="a_node26"><a xlink:title="STL class. ">
<polygon fill="none" stroke="#bfbfbf" points="738.5,-500.5 738.5,-519.5 815.5,-519.5 815.5,-500.5 738.5,-500.5"/>
<text text-anchor="middle" x="777" y="-507.5" font-family="Helvetica,sans-Serif" font-size="10.00">std::wfstream</text>
</a>
</g>
</g>
<!-- Node24&#45;&gt;Node26 -->
<g id="edge25" class="edge"><title>Node24&#45;&gt;Node26</title>
<path fill="none" stroke="midnightblue" d="M691.857,-512.952C707.484,-512.404 723.968,-511.826 738.163,-511.328"/>
<polygon fill="midnightblue" stroke="midnightblue" points="691.615,-509.459 681.744,-513.307 691.861,-516.454 691.615,-509.459"/>
</g>
<!-- Node28 -->
<g id="node28" class="node"><title>Node28</title>
<g id="a_node28"><a xlink:title="STL class. ">
<polygon fill="none" stroke="#bfbfbf" points="732,-459.5 732,-478.5 822,-478.5 822,-459.5 732,-459.5"/>
<text text-anchor="middle" x="777" y="-466.5" font-family="Helvetica,sans-Serif" font-size="10.00">std::stringstream</text>
</a>
</g>
</g>
<!-- Node27&#45;&gt;Node28 -->
<g id="edge27" class="edge"><title>Node27&#45;&gt;Node28</title>
<path fill="none" stroke="midnightblue" d="M702.567,-467.454C712.486,-467.663 722.462,-467.873 731.724,-468.068"/>
<polygon fill="midnightblue" stroke="midnightblue" points="702.354,-463.949 692.283,-467.238 702.207,-470.947 702.354,-463.949"/>
</g>
<!-- Node29 -->
<g id="node29" class="node"><title>Node29</title>
<g id="a_node29"><a xlink:title="STL class. ">
<polygon fill="none" stroke="#bfbfbf" points="728,-421.5 728,-440.5 826,-440.5 826,-421.5 728,-421.5"/>
<text text-anchor="middle" x="777" y="-428.5" font-family="Helvetica,sans-Serif" font-size="10.00">std::wstringstream</text>
</a>
</g>
</g>
<!-- Node27&#45;&gt;Node29 -->
<g id="edge28" class="edge"><title>Node27&#45;&gt;Node29</title>
<path fill="none" stroke="midnightblue" d="M702.327,-449.095C714.345,-446.143 726.455,-443.169 737.288,-440.508"/>
<polygon fill="midnightblue" stroke="midnightblue" points="701.159,-445.778 692.283,-451.562 702.829,-452.576 701.159,-445.778"/>
</g>
<!-- Node31 -->
<g id="node31" class="node"><title>Node31</title>
<g id="a_node31"><a xlink:title="STL class. ">
<polygon fill="none" stroke="#bfbfbf" points="586.5,-47.5 586.5,-66.5 678.5,-66.5 678.5,-47.5 586.5,-47.5"/>
<text text-anchor="middle" x="632.5" y="-54.5" font-family="Helvetica,sans-Serif" font-size="10.00">std::istringstream</text>
</a>
</g>
</g>
<!-- Node30&#45;&gt;Node31 -->
<g id="edge30" class="edge"><title>Node30&#45;&gt;Node31</title>
<path fill="none" stroke="midnightblue" d="M546.024,-55.351C559.676,-55.6143 573.648,-55.8839 586.236,-56.1267"/>
<polygon fill="midnightblue" stroke="midnightblue" points="545.741,-51.8449 535.676,-55.1513 545.606,-58.8436 545.741,-51.8449"/>
</g>
<!-- Node32 -->
<g id="node32" class="node"><title>Node32</title>
<g id="a_node32"><a xlink:title="STL class. ">
<polygon fill="none" stroke="#bfbfbf" points="582.5,-9.5 582.5,-28.5 682.5,-28.5 682.5,-9.5 582.5,-9.5"/>
<text text-anchor="middle" x="632.5" y="-16.5" font-family="Helvetica,sans-Serif" font-size="10.00">std::wistringstream</text>
</a>
</g>
</g>
<!-- Node30&#45;&gt;Node32 -->
<g id="edge31" class="edge"><title>Node30&#45;&gt;Node32</title>
<path fill="none" stroke="midnightblue" d="M545.811,-38.2869C560.579,-34.9629 575.733,-31.5521 589.112,-28.5408"/>
<polygon fill="midnightblue" stroke="midnightblue" points="544.663,-34.9577 535.676,-40.5682 546.2,-41.7868 544.663,-34.9577"/>
</g>
<!-- Node35&#45;&gt;Node12 -->
<g id="edge35" class="edge"><title>Node35&#45;&gt;Node12</title>
<path fill="none" stroke="midnightblue" d="M337.256,-526.118C349.933,-495.179 375.484,-442.598 413,-411 417.004,-407.628 421.539,-404.692 426.284,-402.146"/>
<polygon fill="midnightblue" stroke="midnightblue" points="333.882,-525.133 333.452,-535.719 340.39,-527.712 333.882,-525.133"/>
</g>
<!-- Node35&#45;&gt;Node13 -->
<g id="edge36" class="edge"><title>Node35&#45;&gt;Node13</title>
<path fill="none" stroke="midnightblue" d="M367.168,-531.496C381.499,-524.522 397.9,-516.729 413,-510 420.422,-506.692 428.42,-503.297 436.102,-500.116"/>
<polygon fill="midnightblue" stroke="midnightblue" points="365.528,-528.402 358.084,-535.941 368.604,-534.69 365.528,-528.402"/>
</g>
<!-- Node35&#45;&gt;Node19 -->
<g id="edge41" class="edge"><title>Node35&#45;&gt;Node19</title>
<path fill="none" stroke="midnightblue" d="M344.885,-527.742C360.588,-507.518 385.626,-478.614 413,-460 417.894,-456.672 423.316,-453.706 428.851,-451.092"/>
<polygon fill="midnightblue" stroke="midnightblue" points="342.009,-525.743 338.748,-535.823 347.583,-529.977 342.009,-525.743"/>
</g>
<!-- Node36 -->
<g id="node36" class="node"><title>Node36</title>
<polygon fill="none" stroke="#bfbfbf" points="423.5,-803 423.5,-833 526.5,-833 526.5,-803 423.5,-803"/>
<text text-anchor="start" x="431.5" y="-821" font-family="Helvetica,sans-Serif" font-size="10.00">std::basic_ofstream</text>
<text text-anchor="middle" x="475" y="-810" font-family="Helvetica,sans-Serif" font-size="10.00">&lt; char &gt;</text>
</g>
<!-- Node35&#45;&gt;Node36 -->
<g id="edge37" class="edge"><title>Node35&#45;&gt;Node36</title>
<path fill="none" stroke="midnightblue" d="M375.541,-573.164C376.047,-573.761 376.534,-574.373 377,-575 435.839,-654.169 351.019,-717.266 413,-794 415.932,-797.63 419.489,-800.713 423.397,-803.33"/>
<polygon fill="midnightblue" stroke="midnightblue" points="377.76,-570.45 368.04,-566.234 373.01,-575.591 377.76,-570.45"/>
</g>
<!-- Node37 -->
<g id="node37" class="node"><title>Node37</title>
<polygon fill="none" stroke="#bfbfbf" points="423.5,-754 423.5,-784 526.5,-784 526.5,-754 423.5,-754"/>
<text text-anchor="start" x="431.5" y="-772" font-family="Helvetica,sans-Serif" font-size="10.00">std::basic_ofstream</text>
<text text-anchor="middle" x="475" y="-761" font-family="Helvetica,sans-Serif" font-size="10.00">&lt; wchar_t &gt;</text>
</g>
<!-- Node35&#45;&gt;Node37 -->
<g id="edge38" class="edge"><title>Node35&#45;&gt;Node37</title>
<path fill="none" stroke="midnightblue" d="M375.155,-572.811C375.798,-573.519 376.414,-574.249 377,-575 424.244,-635.545 363.77,-685.059 413,-744 416.228,-747.865 420.149,-751.14 424.428,-753.914"/>
<polygon fill="midnightblue" stroke="midnightblue" points="377.237,-569.981 367.411,-566.019 372.621,-575.244 377.237,-569.981"/>
</g>
<!-- Node38 -->
<g id="node38" class="node"><title>Node38</title>
<polygon fill="none" stroke="#bfbfbf" points="413,-705 413,-735 537,-735 537,-705 413,-705"/>
<text text-anchor="start" x="421" y="-723" font-family="Helvetica,sans-Serif" font-size="10.00">std::basic_ostringstream</text>
<text text-anchor="middle" x="475" y="-712" font-family="Helvetica,sans-Serif" font-size="10.00">&lt; char &gt;</text>
</g>
<!-- Node35&#45;&gt;Node38 -->
<g id="edge39" class="edge"><title>Node35&#45;&gt;Node38</title>
<path fill="none" stroke="midnightblue" d="M375.072,-572.879C375.74,-573.566 376.383,-574.273 377,-575 413.016,-617.465 375.593,-653.755 413,-695 416.46,-698.815 420.588,-702.061 425.043,-704.821"/>
<polygon fill="midnightblue" stroke="midnightblue" points="377.051,-569.971 367.133,-566.245 372.562,-575.343 377.051,-569.971"/>
</g>
<!-- Node39 -->
<g id="node39" class="node"><title>Node39</title>
<polygon fill="none" stroke="#bfbfbf" points="413,-656 413,-686 537,-686 537,-656 413,-656"/>
<text text-anchor="start" x="421" y="-674" font-family="Helvetica,sans-Serif" font-size="10.00">std::basic_ostringstream</text>
<text text-anchor="middle" x="475" y="-663" font-family="Helvetica,sans-Serif" font-size="10.00">&lt; wchar_t &gt;</text>
</g>
<!-- Node35&#45;&gt;Node39 -->
<g id="edge40" class="edge"><title>Node35&#45;&gt;Node39</title>
<path fill="none" stroke="midnightblue" d="M373.687,-571.994C374.839,-572.959 375.946,-573.961 377,-575 402.19,-599.844 386.998,-622.007 413,-646 417.122,-649.803 421.9,-653.066 426.933,-655.857"/>
<polygon fill="midnightblue" stroke="midnightblue" points="375.732,-569.153 365.572,-566.15 371.642,-574.834 375.732,-569.153"/>
</g>
<!-- Node40 -->
<g id="node40" class="node"><title>Node40</title>
<g id="a_node40"><a xlink:title="STL class. ">
<polygon fill="none" stroke="#bfbfbf" points="423.5,-607 423.5,-637 526.5,-637 526.5,-607 423.5,-607"/>
<text text-anchor="start" x="431.5" y="-625" font-family="Helvetica,sans-Serif" font-size="10.00">std::basic_ofstream</text>
<text text-anchor="middle" x="475" y="-614" font-family="Helvetica,sans-Serif" font-size="10.00">&lt; Char &gt;</text>
</a>
</g>
</g>
<!-- Node35&#45;&gt;Node40 -->
<g id="edge42" class="edge"><title>Node35&#45;&gt;Node40</title>
<path fill="none" stroke="midnightblue" d="M368.799,-570.623C371.59,-572.075 374.345,-573.543 377,-575 393.438,-584.023 396.272,-588.529 413,-597 419.841,-600.464 427.28,-603.828 434.534,-606.906"/>
<polygon fill="midnightblue" stroke="midnightblue" points="370.351,-567.485 359.852,-566.066 367.174,-573.723 370.351,-567.485"/>
</g>
<!-- Node43 -->
<g id="node43" class="node"><title>Node43</title>
<g id="a_node43"><a xlink:title="STL class. ">
<polygon fill="none" stroke="#bfbfbf" points="413,-558 413,-588 537,-588 537,-558 413,-558"/>
<text text-anchor="start" x="421" y="-576" font-family="Helvetica,sans-Serif" font-size="10.00">std::basic_ostringstream</text>
<text text-anchor="middle" x="475" y="-565" font-family="Helvetica,sans-Serif" font-size="10.00">&lt; Char &gt;</text>
</a>
</g>
</g>
<!-- Node35&#45;&gt;Node43 -->
<g id="edge45" class="edge"><title>Node35&#45;&gt;Node43</title>
<path fill="none" stroke="midnightblue" d="M386.921,-559.878C395.483,-561.169 404.314,-562.499 412.918,-563.796"/>
<polygon fill="midnightblue" stroke="midnightblue" points="387.432,-556.416 377.022,-558.387 386.389,-563.338 387.432,-556.416"/>
</g>
<!-- Node46 -->
<g id="node46" class="node"><title>Node46</title>
<g id="a_node46"><a xlink:title="STL class. ">
<polygon fill="none" stroke="#bfbfbf" points="439.5,-519.5 439.5,-538.5 510.5,-538.5 510.5,-519.5 439.5,-519.5"/>
<text text-anchor="middle" x="475" y="-526.5" font-family="Helvetica,sans-Serif" font-size="10.00">std::ostream</text>
</a>
</g>
</g>
<!-- Node35&#45;&gt;Node46 -->
<g id="edge48" class="edge"><title>Node35&#45;&gt;Node46</title>
<path fill="none" stroke="midnightblue" d="M387.246,-542.073C404.884,-539.415 423.634,-536.589 439.173,-534.248"/>
<polygon fill="midnightblue" stroke="midnightblue" points="386.389,-538.662 377.022,-543.613 387.432,-545.584 386.389,-538.662"/>
</g>
<!-- Node47 -->
<g id="node47" class="node"><title>Node47</title>
<g id="a_node47"><a xlink:title="STL class. ">
<polygon fill="none" stroke="#bfbfbf" points="435.5,-852.5 435.5,-871.5 514.5,-871.5 514.5,-852.5 435.5,-852.5"/>
<text text-anchor="middle" x="475" y="-859.5" font-family="Helvetica,sans-Serif" font-size="10.00">std::wostream</text>
</a>
</g>
</g>
<!-- Node35&#45;&gt;Node47 -->
<g id="edge49" class="edge"><title>Node35&#45;&gt;Node47</title>
<path fill="none" stroke="midnightblue" d="M375.567,-573.145C376.065,-573.748 376.543,-574.366 377,-575 447.263,-672.502 335.468,-751.173 413,-843 418.725,-849.78 426.828,-854.178 435.265,-857.021"/>
<polygon fill="midnightblue" stroke="midnightblue" points="377.823,-570.463 368.142,-566.16 373.027,-575.561 377.823,-570.463"/>
</g>
<!-- Node41 -->
<g id="node41" class="node"><title>Node41</title>
<g id="a_node41"><a xlink:title="STL class. ">
<polygon fill="none" stroke="#bfbfbf" points="595.5,-663.5 595.5,-682.5 669.5,-682.5 669.5,-663.5 595.5,-663.5"/>
<text text-anchor="middle" x="632.5" y="-670.5" font-family="Helvetica,sans-Serif" font-size="10.00">std::ofstream</text>
</a>
</g>
</g>
<!-- Node40&#45;&gt;Node41 -->
<g id="edge43" class="edge"><title>Node40&#45;&gt;Node41</title>
<path fill="none" stroke="midnightblue" d="M531.146,-640.241C544.819,-644.751 559.439,-649.561 573,-654 582.438,-657.089 592.739,-660.442 602.031,-663.458"/>
<polygon fill="midnightblue" stroke="midnightblue" points="531.979,-636.831 521.386,-637.021 529.785,-643.478 531.979,-636.831"/>
</g>
<!-- Node42 -->
<g id="node42" class="node"><title>Node42</title>
<g id="a_node42"><a xlink:title="STL class. ">
<polygon fill="none" stroke="#bfbfbf" points="591.5,-625.5 591.5,-644.5 673.5,-644.5 673.5,-625.5 591.5,-625.5"/>
<text text-anchor="middle" x="632.5" y="-632.5" font-family="Helvetica,sans-Serif" font-size="10.00">std::wofstream</text>
</a>
</g>
</g>
<!-- Node40&#45;&gt;Node42 -->
<g id="edge44" class="edge"><title>Node40&#45;&gt;Node42</title>
<path fill="none" stroke="midnightblue" d="M536.904,-627.092C555.172,-628.619 574.743,-630.255 591.316,-631.641"/>
<polygon fill="midnightblue" stroke="midnightblue" points="537.173,-623.602 526.917,-626.257 536.59,-630.578 537.173,-623.602"/>
</g>
<!-- Node44 -->
<g id="node44" class="node"><title>Node44</title>
<g id="a_node44"><a xlink:title="STL class. ">
<polygon fill="none" stroke="#bfbfbf" points="585,-587.5 585,-606.5 680,-606.5 680,-587.5 585,-587.5"/>
<text text-anchor="middle" x="632.5" y="-594.5" font-family="Helvetica,sans-Serif" font-size="10.00">std::ostringstream</text>
</a>
</g>
</g>
<!-- Node43&#45;&gt;Node44 -->
<g id="edge46" class="edge"><title>Node43&#45;&gt;Node44</title>
<path fill="none" stroke="midnightblue" d="M547.13,-583.978C559.843,-585.94 572.794,-587.939 584.609,-589.763"/>
<polygon fill="midnightblue" stroke="midnightblue" points="547.428,-580.483 537.011,-582.417 546.36,-587.401 547.428,-580.483"/>
</g>
<!-- Node45 -->
<g id="node45" class="node"><title>Node45</title>
<g id="a_node45"><a xlink:title="STL class. ">
<polygon fill="none" stroke="#bfbfbf" points="581,-549.5 581,-568.5 684,-568.5 684,-549.5 581,-549.5"/>
<text text-anchor="middle" x="632.5" y="-556.5" font-family="Helvetica,sans-Serif" font-size="10.00">std::wostringstream</text>
</a>
</g>
</g>
<!-- Node43&#45;&gt;Node45 -->
<g id="edge47" class="edge"><title>Node43&#45;&gt;Node45</title>
<path fill="none" stroke="midnightblue" d="M547.288,-566.582C558.564,-565.567 570.023,-564.535 580.706,-563.573"/>
<polygon fill="midnightblue" stroke="midnightblue" points="546.657,-563.124 537.011,-567.507 547.285,-570.096 546.657,-563.124"/>
</g>
</g>
</svg>
