<?xml version="1.0" encoding="UTF-8" standalone="no"?>
<!DOCTYPE svg PUBLIC "-//W3C//DTD SVG 1.1//EN"
 "http://www.w3.org/Graphics/SVG/1.1/DTD/svg11.dtd">
<!-- Generated by graphviz version 2.38.0 (20140413.2041)
 -->
<!-- Title: Graphical Class Hierarchy Pages: 1 -->
<svg width="375pt" height="370pt"
 viewBox="0.00 0.00 375.00 370.00" xmlns="http://www.w3.org/2000/svg" xmlns:xlink="http://www.w3.org/1999/xlink">
<g id="graph0" class="graph" transform="scale(1 1) rotate(0) translate(4 366)">
<title>Graphical Class Hierarchy</title>
<!-- Node1 -->
<g id="node1" class="node"><title>Node1</title>
<g id="a_node1"><a xlink:title="STL class. ">
<polygon fill="none" stroke="#bfbfbf" points="0,-228.5 0,-247.5 78,-247.5 78,-228.5 0,-228.5"/>
<text text-anchor="middle" x="39" y="-235.5" font-family="Helvetica,sans-Serif" font-size="10.00">std::exception</text>
</a>
</g>
</g>
<!-- Node2 -->
<g id="node2" class="node"><title>Node2</title>
<g id="a_node2"><a xlink:title="STL class. ">
<polygon fill="none" stroke="#bfbfbf" points="129,-342.5 129,-361.5 206,-361.5 206,-342.5 129,-342.5"/>
<text text-anchor="middle" x="167.5" y="-349.5" font-family="Helvetica,sans-Serif" font-size="10.00">std::bad_alloc</text>
</a>
</g>
</g>
<!-- Node1&#45;&gt;Node2 -->
<g id="edge1" class="edge"><title>Node1&#45;&gt;Node2</title>
<path fill="none" stroke="midnightblue" d="M50.0713,-256.514C62.5001,-277.758 85.524,-312.319 114,-333 119.255,-336.816 125.355,-339.936 131.498,-342.463"/>
<polygon fill="midnightblue" stroke="midnightblue" points="52.9573,-254.507 44.9838,-247.531 46.8662,-257.957 52.9573,-254.507"/>
</g>
<!-- Node3 -->
<g id="node3" class="node"><title>Node3</title>
<g id="a_node3"><a xlink:title="STL class. ">
<polygon fill="none" stroke="#bfbfbf" points="129.5,-304.5 129.5,-323.5 205.5,-323.5 205.5,-304.5 129.5,-304.5"/>
<text text-anchor="middle" x="167.5" y="-311.5" font-family="Helvetica,sans-Serif" font-size="10.00">std::bad_cast</text>
</a>
</g>
</g>
<!-- Node1&#45;&gt;Node3 -->
<g id="edge2" class="edge"><title>Node1&#45;&gt;Node3</title>
<path fill="none" stroke="midnightblue" d="M57.9108,-254.36C72.251,-266.8 93.3203,-283.654 114,-295 120.629,-298.637 128.092,-301.821 135.265,-304.491"/>
<polygon fill="midnightblue" stroke="midnightblue" points="60.1061,-251.629 50.2989,-247.621 55.4658,-256.87 60.1061,-251.629"/>
</g>
<!-- Node4 -->
<g id="node4" class="node"><title>Node4</title>
<g id="a_node4"><a xlink:title="STL class. ">
<polygon fill="none" stroke="#bfbfbf" points="118,-266.5 118,-285.5 217,-285.5 217,-266.5 118,-266.5"/>
<text text-anchor="middle" x="167.5" y="-273.5" font-family="Helvetica,sans-Serif" font-size="10.00">std::bad_exception</text>
</a>
</g>
</g>
<!-- Node1&#45;&gt;Node4 -->
<g id="edge3" class="edge"><title>Node1&#45;&gt;Node4</title>
<path fill="none" stroke="midnightblue" d="M81.7294,-250.535C98.9382,-255.705 118.56,-261.599 134.589,-266.414"/>
<polygon fill="midnightblue" stroke="midnightblue" points="82.5055,-247.114 71.9213,-247.589 80.4916,-253.818 82.5055,-247.114"/>
</g>
<!-- Node5 -->
<g id="node5" class="node"><title>Node5</title>
<g id="a_node5"><a xlink:title="STL class. ">
<polygon fill="none" stroke="#bfbfbf" points="126,-228.5 126,-247.5 209,-247.5 209,-228.5 126,-228.5"/>
<text text-anchor="middle" x="167.5" y="-235.5" font-family="Helvetica,sans-Serif" font-size="10.00">std::bad_typeid</text>
</a>
</g>
</g>
<!-- Node1&#45;&gt;Node5 -->
<g id="edge4" class="edge"><title>Node1&#45;&gt;Node5</title>
<path fill="none" stroke="midnightblue" d="M88.4033,-238C100.709,-238 113.81,-238 125.695,-238"/>
<polygon fill="midnightblue" stroke="midnightblue" points="88.2975,-234.5 78.2975,-238 88.2974,-241.5 88.2975,-234.5"/>
</g>
<!-- Node6 -->
<g id="node6" class="node"><title>Node6</title>
<g id="a_node6"><a xlink:title="STL class. ">
<polygon fill="none" stroke="#bfbfbf" points="114,-190.5 114,-209.5 221,-209.5 221,-190.5 114,-190.5"/>
<text text-anchor="middle" x="167.5" y="-197.5" font-family="Helvetica,sans-Serif" font-size="10.00">std::ios_base::failure</text>
</a>
</g>
</g>
<!-- Node1&#45;&gt;Node6 -->
<g id="edge5" class="edge"><title>Node1&#45;&gt;Node6</title>
<path fill="none" stroke="midnightblue" d="M81.7294,-225.465C98.9382,-220.295 118.56,-214.401 134.589,-209.586"/>
<polygon fill="midnightblue" stroke="midnightblue" points="80.4916,-222.182 71.9213,-228.411 82.5055,-228.886 80.4916,-222.182"/>
</g>
<!-- Node7 -->
<g id="node7" class="node"><title>Node7</title>
<g id="a_node7"><a xlink:title="STL class. ">
<polygon fill="none" stroke="#bfbfbf" points="127,-152.5 127,-171.5 208,-171.5 208,-152.5 127,-152.5"/>
<text text-anchor="middle" x="167.5" y="-159.5" font-family="Helvetica,sans-Serif" font-size="10.00">std::logic_error</text>
</a>
</g>
</g>
<!-- Node1&#45;&gt;Node7 -->
<g id="edge6" class="edge"><title>Node1&#45;&gt;Node7</title>
<path fill="none" stroke="midnightblue" d="M57.9108,-221.64C72.251,-209.2 93.3203,-192.346 114,-181 120.629,-177.363 128.092,-174.179 135.265,-171.509"/>
<polygon fill="midnightblue" stroke="midnightblue" points="55.4658,-219.13 50.2989,-228.379 60.1061,-224.371 55.4658,-219.13"/>
</g>
<!-- Node12 -->
<g id="node12" class="node"><title>Node12</title>
<g id="a_node12"><a xlink:title="STL class. ">
<polygon fill="none" stroke="#bfbfbf" points="121,-57.5 121,-76.5 214,-76.5 214,-57.5 121,-57.5"/>
<text text-anchor="middle" x="167.5" y="-64.5" font-family="Helvetica,sans-Serif" font-size="10.00">std::runtime_error</text>
</a>
</g>
</g>
<!-- Node1&#45;&gt;Node12 -->
<g id="edge11" class="edge"><title>Node1&#45;&gt;Node12</title>
<path fill="none" stroke="midnightblue" d="M53.1729,-220.193C79.7484,-184.269 138.988,-104.19 159.415,-76.5774"/>
<polygon fill="midnightblue" stroke="midnightblue" points="50.2971,-218.195 47.1636,-228.316 55.9247,-222.359 50.2971,-218.195"/>
</g>
<!-- Node8 -->
<g id="node8" class="node"><title>Node8</title>
<g id="a_node8"><a xlink:title="STL class. ">
<polygon fill="none" stroke="#bfbfbf" points="266,-228.5 266,-247.5 358,-247.5 358,-228.5 266,-228.5"/>
<text text-anchor="middle" x="312" y="-235.5" font-family="Helvetica,sans-Serif" font-size="10.00">std::domain_error</text>
</a>
</g>
</g>
<!-- Node7&#45;&gt;Node8 -->
<g id="edge7" class="edge"><title>Node7&#45;&gt;Node8</title>
<path fill="none" stroke="midnightblue" d="M211.545,-175.662C214.838,-177.279 218.031,-179.056 221,-181 240.462,-193.746 237.481,-206.341 257,-219 262.837,-222.786 269.519,-225.921 276.148,-228.48"/>
<polygon fill="midnightblue" stroke="midnightblue" points="212.669,-172.333 202.105,-171.519 209.856,-178.743 212.669,-172.333"/>
</g>
<!-- Node9 -->
<g id="node9" class="node"><title>Node9</title>
<g id="a_node9"><a xlink:title="STL class. ">
<polygon fill="none" stroke="#bfbfbf" points="257,-190.5 257,-209.5 367,-209.5 367,-190.5 257,-190.5"/>
<text text-anchor="middle" x="312" y="-197.5" font-family="Helvetica,sans-Serif" font-size="10.00">std::invalid_argument</text>
</a>
</g>
</g>
<!-- Node7&#45;&gt;Node9 -->
<g id="edge8" class="edge"><title>Node7&#45;&gt;Node9</title>
<path fill="none" stroke="midnightblue" d="M214.153,-174.174C233.858,-179.429 256.575,-185.487 275.053,-190.414"/>
<polygon fill="midnightblue" stroke="midnightblue" points="215.023,-170.784 204.459,-171.589 213.219,-177.548 215.023,-170.784"/>
</g>
<!-- Node10 -->
<g id="node10" class="node"><title>Node10</title>
<g id="a_node10"><a xlink:title="STL class. ">
<polygon fill="none" stroke="#bfbfbf" points="268.5,-152.5 268.5,-171.5 355.5,-171.5 355.5,-152.5 268.5,-152.5"/>
<text text-anchor="middle" x="312" y="-159.5" font-family="Helvetica,sans-Serif" font-size="10.00">std::length_error</text>
</a>
</g>
</g>
<!-- Node7&#45;&gt;Node10 -->
<g id="edge9" class="edge"><title>Node7&#45;&gt;Node10</title>
<path fill="none" stroke="midnightblue" d="M218.583,-162C234.806,-162 252.64,-162 268.277,-162"/>
<polygon fill="midnightblue" stroke="midnightblue" points="218.194,-158.5 208.194,-162 218.194,-165.5 218.194,-158.5"/>
</g>
<!-- Node11 -->
<g id="node11" class="node"><title>Node11</title>
<g id="a_node11"><a xlink:title="STL class. ">
<polygon fill="none" stroke="#bfbfbf" points="266,-114.5 266,-133.5 358,-133.5 358,-114.5 266,-114.5"/>
<text text-anchor="middle" x="312" y="-121.5" font-family="Helvetica,sans-Serif" font-size="10.00">std::out_of_range</text>
</a>
</g>
</g>
<!-- Node7&#45;&gt;Node11 -->
<g id="edge10" class="edge"><title>Node7&#45;&gt;Node11</title>
<path fill="none" stroke="midnightblue" d="M214.153,-149.826C233.858,-144.571 256.575,-138.513 275.053,-133.586"/>
<polygon fill="midnightblue" stroke="midnightblue" points="213.219,-146.452 204.459,-152.411 215.023,-153.216 213.219,-146.452"/>
</g>
<!-- Node13 -->
<g id="node13" class="node"><title>Node13</title>
<g id="a_node13"><a xlink:title="STL class. ">
<polygon fill="none" stroke="#bfbfbf" points="263,-76.5 263,-95.5 361,-95.5 361,-76.5 263,-76.5"/>
<text text-anchor="middle" x="312" y="-83.5" font-family="Helvetica,sans-Serif" font-size="10.00">std::overflow_error</text>
</a>
</g>
</g>
<!-- Node12&#45;&gt;Node13 -->
<g id="edge12" class="edge"><title>Node12&#45;&gt;Node13</title>
<path fill="none" stroke="midnightblue" d="M224.367,-74.4489C237.052,-76.1403 250.421,-77.9228 262.759,-79.5679"/>
<polygon fill="midnightblue" stroke="midnightblue" points="224.747,-70.9687 214.372,-73.1163 223.822,-77.9073 224.747,-70.9687"/>
</g>
<!-- Node14 -->
<g id="node14" class="node"><title>Node14</title>
<g id="a_node14"><a xlink:title="STL class. ">
<polygon fill="none" stroke="#bfbfbf" points="269.5,-38.5 269.5,-57.5 354.5,-57.5 354.5,-38.5 269.5,-38.5"/>
<text text-anchor="middle" x="312" y="-45.5" font-family="Helvetica,sans-Serif" font-size="10.00">std::range_error</text>
</a>
</g>
</g>
<!-- Node12&#45;&gt;Node14 -->
<g id="edge13" class="edge"><title>Node12&#45;&gt;Node14</title>
<path fill="none" stroke="midnightblue" d="M224.474,-59.5368C239.328,-57.5562 255.112,-55.4517 269.076,-53.5899"/>
<polygon fill="midnightblue" stroke="midnightblue" points="223.822,-56.0927 214.372,-60.8837 224.747,-63.0313 223.822,-56.0927"/>
</g>
<!-- Node15 -->
<g id="node15" class="node"><title>Node15</title>
<g id="a_node15"><a xlink:title="STL class. ">
<polygon fill="none" stroke="#bfbfbf" points="260.5,-0.5 260.5,-19.5 363.5,-19.5 363.5,-0.5 260.5,-0.5"/>
<text text-anchor="middle" x="312" y="-7.5" font-family="Helvetica,sans-Serif" font-size="10.00">std::underflow_error</text>
</a>
</g>
</g>
<!-- Node12&#45;&gt;Node15 -->
<g id="edge14" class="edge"><title>Node12&#45;&gt;Node15</title>
<path fill="none" stroke="midnightblue" d="M199.19,-53.2196C216.125,-45.7683 237.597,-36.5691 257,-29 265.333,-25.7493 274.481,-22.4359 282.841,-19.5057"/>
<polygon fill="midnightblue" stroke="midnightblue" points="197.521,-50.131 189.793,-57.3793 200.354,-56.5318 197.521,-50.131"/>
</g>
</g>
</svg>
