<?xml version="1.0" encoding="UTF-8" standalone="no"?>
<!DOCTYPE svg PUBLIC "-//W3C//DTD SVG 1.1//EN"
 "http://www.w3.org/Graphics/SVG/1.1/DTD/svg11.dtd">
<!-- Generated by graphviz version 2.38.0 (20140413.2041)
 -->
<!-- Title: nars.language.Statement Pages: 1 -->
<svg width="1018pt" height="1091pt"
 viewBox="0.00 0.00 1017.50 1091.00" xmlns="http://www.w3.org/2000/svg" xmlns:xlink="http://www.w3.org/1999/xlink">
<g id="graph0" class="graph" transform="scale(1 1) rotate(0) translate(4 1087)">
<title>nars.language.Statement</title>
<!-- Node1 -->
<g id="node1" class="node"><title>Node1</title>
<polygon fill="#bfbfbf" stroke="black" points="440,-149.5 440,-338.5 566,-338.5 566,-149.5 440,-149.5"/>
<text text-anchor="middle" x="503" y="-326.5" font-family="Helvetica,sans-Serif" font-size="10.00">nars.language.Statement</text>
<polyline fill="none" stroke="black" points="440,-319.5 566,-319.5 "/>
<text text-anchor="middle" x="503" y="-307.5" font-family="Helvetica,sans-Serif" font-size="10.00"> </text>
<polyline fill="none" stroke="black" points="440,-300.5 566,-300.5 "/>
<text text-anchor="start" x="448" y="-288.5" font-family="Helvetica,sans-Serif" font-size="10.00">+ invalid()</text>
<text text-anchor="start" x="448" y="-277.5" font-family="Helvetica,sans-Serif" font-size="10.00">+ getSubject()</text>
<text text-anchor="start" x="448" y="-266.5" font-family="Helvetica,sans-Serif" font-size="10.00">+ getPredicate()</text>
<text text-anchor="start" x="448" y="-255.5" font-family="Helvetica,sans-Serif" font-size="10.00">+ make()</text>
<text text-anchor="start" x="448" y="-244.5" font-family="Helvetica,sans-Serif" font-size="10.00">+ make()</text>
<text text-anchor="start" x="448" y="-233.5" font-family="Helvetica,sans-Serif" font-size="10.00">+ makeSym()</text>
<text text-anchor="start" x="448" y="-222.5" font-family="Helvetica,sans-Serif" font-size="10.00">+ isRelation()</text>
<text text-anchor="start" x="448" y="-211.5" font-family="Helvetica,sans-Serif" font-size="10.00">+ invalidStatement()</text>
<text text-anchor="start" x="448" y="-200.5" font-family="Helvetica,sans-Serif" font-size="10.00"># Statement()</text>
<text text-anchor="start" x="448" y="-189.5" font-family="Helvetica,sans-Serif" font-size="10.00"># Statement()</text>
<text text-anchor="start" x="448" y="-178.5" font-family="Helvetica,sans-Serif" font-size="10.00"># Statement()</text>
<text text-anchor="start" x="448" y="-167.5" font-family="Helvetica,sans-Serif" font-size="10.00"># makeName()</text>
<text text-anchor="start" x="448" y="-156.5" font-family="Helvetica,sans-Serif" font-size="10.00"># makeStatementName()</text>
</g>
<!-- Node7 -->
<g id="node7" class="node"><title>Node7</title>
<g id="a_node7"><a xlink:href="../../d1/d8b/classnars_1_1language_1_1Equivalence.html" target="_top" xlink:title="A Statement about an Equivalence relation. ">
<polygon fill="none" stroke="black" points="0,-0.5 0,-112.5 134,-112.5 134,-0.5 0,-0.5"/>
<text text-anchor="middle" x="67" y="-100.5" font-family="Helvetica,sans-Serif" font-size="10.00">nars.language.Equivalence</text>
<polyline fill="none" stroke="black" points="0,-93.5 134,-93.5 "/>
<text text-anchor="middle" x="67" y="-81.5" font-family="Helvetica,sans-Serif" font-size="10.00"> </text>
<polyline fill="none" stroke="black" points="0,-74.5 134,-74.5 "/>
<text text-anchor="start" x="8" y="-62.5" font-family="Helvetica,sans-Serif" font-size="10.00">+ clone()</text>
<text text-anchor="start" x="8" y="-51.5" font-family="Helvetica,sans-Serif" font-size="10.00">+ operator()</text>
<text text-anchor="start" x="8" y="-40.5" font-family="Helvetica,sans-Serif" font-size="10.00">+ isCommutative()</text>
<text text-anchor="start" x="8" y="-29.5" font-family="Helvetica,sans-Serif" font-size="10.00">+ make()</text>
<text text-anchor="start" x="8" y="-18.5" font-family="Helvetica,sans-Serif" font-size="10.00"># Equivalence()</text>
<text text-anchor="start" x="8" y="-7.5" font-family="Helvetica,sans-Serif" font-size="10.00"># Equivalence()</text>
</a>
</g>
</g>
<!-- Node1&#45;&gt;Node7 -->
<g id="edge6" class="edge"><title>Node1&#45;&gt;Node7</title>
<path fill="none" stroke="midnightblue" d="M430.122,-223.336C355.529,-201.702 237.476,-163.228 143,-113 140.115,-111.466 137.217,-109.833 134.325,-108.126"/>
<polygon fill="none" stroke="midnightblue" points="429.322,-226.748 439.9,-226.148 431.257,-220.021 429.322,-226.748"/>
</g>
<!-- Node8 -->
<g id="node8" class="node"><title>Node8</title>
<g id="a_node8"><a xlink:href="../../da/db6/classnars_1_1language_1_1Implication.html" target="_top" xlink:title="A Statement about an Inheritance relation. ">
<polygon fill="none" stroke="black" points="152,-6 152,-107 280,-107 280,-6 152,-6"/>
<text text-anchor="middle" x="216" y="-95" font-family="Helvetica,sans-Serif" font-size="10.00">nars.language.Implication</text>
<polyline fill="none" stroke="black" points="152,-88 280,-88 "/>
<text text-anchor="middle" x="216" y="-76" font-family="Helvetica,sans-Serif" font-size="10.00"> </text>
<polyline fill="none" stroke="black" points="152,-69 280,-69 "/>
<text text-anchor="start" x="160" y="-57" font-family="Helvetica,sans-Serif" font-size="10.00">+ clone()</text>
<text text-anchor="start" x="160" y="-46" font-family="Helvetica,sans-Serif" font-size="10.00">+ operator()</text>
<text text-anchor="start" x="160" y="-35" font-family="Helvetica,sans-Serif" font-size="10.00">+ make()</text>
<text text-anchor="start" x="160" y="-24" font-family="Helvetica,sans-Serif" font-size="10.00"># Implication()</text>
<text text-anchor="start" x="160" y="-13" font-family="Helvetica,sans-Serif" font-size="10.00"># Implication()</text>
</a>
</g>
</g>
<!-- Node1&#45;&gt;Node8 -->
<g id="edge7" class="edge"><title>Node1&#45;&gt;Node8</title>
<path fill="none" stroke="midnightblue" d="M430.854,-201.707C388.796,-177.012 335.12,-144.415 289,-113 286.105,-111.028 283.169,-108.985 280.22,-106.898"/>
<polygon fill="none" stroke="midnightblue" points="429.247,-204.822 439.645,-206.853 432.783,-198.781 429.247,-204.822"/>
</g>
<!-- Node9 -->
<g id="node9" class="node"><title>Node9</title>
<g id="a_node9"><a xlink:href="../../d0/df3/classnars_1_1language_1_1Inheritance.html" target="_top" xlink:title="A Statement about an Inheritance relation. ">
<polygon fill="none" stroke="black" points="298,-6 298,-107 426,-107 426,-6 298,-6"/>
<text text-anchor="middle" x="362" y="-95" font-family="Helvetica,sans-Serif" font-size="10.00">nars.language.Inheritance</text>
<polyline fill="none" stroke="black" points="298,-88 426,-88 "/>
<text text-anchor="middle" x="362" y="-76" font-family="Helvetica,sans-Serif" font-size="10.00"> </text>
<polyline fill="none" stroke="black" points="298,-69 426,-69 "/>
<text text-anchor="start" x="306" y="-57" font-family="Helvetica,sans-Serif" font-size="10.00">+ clone()</text>
<text text-anchor="start" x="306" y="-46" font-family="Helvetica,sans-Serif" font-size="10.00">+ operator()</text>
<text text-anchor="start" x="306" y="-35" font-family="Helvetica,sans-Serif" font-size="10.00">+ make()</text>
<text text-anchor="start" x="306" y="-24" font-family="Helvetica,sans-Serif" font-size="10.00">&#45; Inheritance()</text>
<text text-anchor="start" x="306" y="-13" font-family="Helvetica,sans-Serif" font-size="10.00">&#45; Inheritance()</text>
</a>
</g>
</g>
<!-- Node1&#45;&gt;Node9 -->
<g id="edge8" class="edge"><title>Node1&#45;&gt;Node9</title>
<path fill="none" stroke="midnightblue" d="M433.799,-151.959C422.067,-136.524 410.286,-121.025 399.758,-107.174"/>
<polygon fill="none" stroke="midnightblue" points="431.085,-154.173 439.923,-160.016 436.658,-149.937 431.085,-154.173"/>
</g>
<!-- Node10 -->
<g id="node10" class="node"><title>Node10</title>
<g id="a_node10"><a xlink:href="../../df/d4e/classnars_1_1language_1_1Instance.html" target="_top" xlink:title="A Statement about an Instance relation, which is used only in Narsese for I/O, and translated into In...">
<polygon fill="none" stroke="black" points="444,-28 444,-85 562,-85 562,-28 444,-28"/>
<text text-anchor="middle" x="503" y="-73" font-family="Helvetica,sans-Serif" font-size="10.00">nars.language.Instance</text>
<polyline fill="none" stroke="black" points="444,-66 562,-66 "/>
<text text-anchor="middle" x="503" y="-54" font-family="Helvetica,sans-Serif" font-size="10.00"> </text>
<polyline fill="none" stroke="black" points="444,-47 562,-47 "/>
<text text-anchor="start" x="452" y="-35" font-family="Helvetica,sans-Serif" font-size="10.00">+ make()</text>
</a>
</g>
</g>
<!-- Node1&#45;&gt;Node10 -->
<g id="edge9" class="edge"><title>Node1&#45;&gt;Node10</title>
<path fill="none" stroke="midnightblue" d="M503,-139.306C503,-119.403 503,-100.181 503,-85.3763"/>
<polygon fill="none" stroke="midnightblue" points="499.5,-139.435 503,-149.435 506.5,-139.435 499.5,-139.435"/>
</g>
<!-- Node11 -->
<g id="node11" class="node"><title>Node11</title>
<g id="a_node11"><a xlink:href="../../d6/d3b/classnars_1_1language_1_1InstanceProperty.html" target="_top" xlink:title="A Statement about an InstanceProperty relation, which is used only in Narsese for I/O...">
<polygon fill="none" stroke="black" points="580.5,-28 580.5,-85 735.5,-85 735.5,-28 580.5,-28"/>
<text text-anchor="middle" x="658" y="-73" font-family="Helvetica,sans-Serif" font-size="10.00">nars.language.InstanceProperty</text>
<polyline fill="none" stroke="black" points="580.5,-66 735.5,-66 "/>
<text text-anchor="middle" x="658" y="-54" font-family="Helvetica,sans-Serif" font-size="10.00"> </text>
<polyline fill="none" stroke="black" points="580.5,-47 735.5,-47 "/>
<text text-anchor="start" x="588.5" y="-35" font-family="Helvetica,sans-Serif" font-size="10.00">+ make()</text>
</a>
</g>
</g>
<!-- Node1&#45;&gt;Node11 -->
<g id="edge10" class="edge"><title>Node1&#45;&gt;Node11</title>
<path fill="none" stroke="midnightblue" d="M572.636,-159.661C595.006,-132.889 618.259,-105.06 634.837,-85.2211"/>
<polygon fill="none" stroke="midnightblue" points="569.771,-157.632 566.044,-167.55 575.142,-162.121 569.771,-157.632"/>
</g>
<!-- Node12 -->
<g id="node12" class="node"><title>Node12</title>
<g id="a_node12"><a xlink:href="../../dd/dd7/classnars_1_1language_1_1Property.html" target="_top" xlink:title="A Statement about a Property relation, which is used only in Narsese for I/O, and translated into Inh...">
<polygon fill="none" stroke="black" points="753.5,-28 753.5,-85 870.5,-85 870.5,-28 753.5,-28"/>
<text text-anchor="middle" x="812" y="-73" font-family="Helvetica,sans-Serif" font-size="10.00">nars.language.Property</text>
<polyline fill="none" stroke="black" points="753.5,-66 870.5,-66 "/>
<text text-anchor="middle" x="812" y="-54" font-family="Helvetica,sans-Serif" font-size="10.00"> </text>
<polyline fill="none" stroke="black" points="753.5,-47 870.5,-47 "/>
<text text-anchor="start" x="761.5" y="-35" font-family="Helvetica,sans-Serif" font-size="10.00">+ make()</text>
</a>
</g>
</g>
<!-- Node1&#45;&gt;Node12 -->
<g id="edge11" class="edge"><title>Node1&#45;&gt;Node12</title>
<path fill="none" stroke="midnightblue" d="M575.137,-208.979C624.422,-184.61 690.432,-149.724 745,-113 757.406,-104.651 770.236,-94.4594 781.308,-85.0988"/>
<polygon fill="none" stroke="midnightblue" points="573.565,-205.852 566.135,-213.405 576.653,-212.134 573.565,-205.852"/>
</g>
<!-- Node13 -->
<g id="node13" class="node"><title>Node13</title>
<g id="a_node13"><a xlink:href="../../d3/d1f/classnars_1_1language_1_1Similarity.html" target="_top" xlink:title="A Statement about a Similarity relation. ">
<polygon fill="none" stroke="black" points="888.5,-0.5 888.5,-112.5 1009.5,-112.5 1009.5,-0.5 888.5,-0.5"/>
<text text-anchor="middle" x="949" y="-100.5" font-family="Helvetica,sans-Serif" font-size="10.00">nars.language.Similarity</text>
<polyline fill="none" stroke="black" points="888.5,-93.5 1009.5,-93.5 "/>
<text text-anchor="middle" x="949" y="-81.5" font-family="Helvetica,sans-Serif" font-size="10.00"> </text>
<polyline fill="none" stroke="black" points="888.5,-74.5 1009.5,-74.5 "/>
<text text-anchor="start" x="896.5" y="-62.5" font-family="Helvetica,sans-Serif" font-size="10.00">+ clone()</text>
<text text-anchor="start" x="896.5" y="-51.5" font-family="Helvetica,sans-Serif" font-size="10.00">+ operator()</text>
<text text-anchor="start" x="896.5" y="-40.5" font-family="Helvetica,sans-Serif" font-size="10.00">+ isCommutative()</text>
<text text-anchor="start" x="896.5" y="-29.5" font-family="Helvetica,sans-Serif" font-size="10.00">+ make()</text>
<text text-anchor="start" x="896.5" y="-18.5" font-family="Helvetica,sans-Serif" font-size="10.00">&#45; Similarity()</text>
<text text-anchor="start" x="896.5" y="-7.5" font-family="Helvetica,sans-Serif" font-size="10.00">&#45; Similarity()</text>
</a>
</g>
</g>
<!-- Node1&#45;&gt;Node13 -->
<g id="edge12" class="edge"><title>Node1&#45;&gt;Node13</title>
<path fill="none" stroke="midnightblue" d="M575.93,-225.878C654.238,-205.698 780.769,-167.82 880,-113 882.826,-111.439 885.652,-109.76 888.461,-107.994"/>
<polygon fill="none" stroke="midnightblue" points="574.978,-222.509 566.153,-228.371 576.707,-229.292 574.978,-222.509"/>
</g>
<!-- Node2 -->
<g id="node2" class="node"><title>Node2</title>
<g id="a_node2"><a xlink:href="../../d0/dee/classnars_1_1language_1_1CompoundTerm.html" target="_top" xlink:title="A CompoundTerm is a Term with internal (syntactic) structure. ">
<polygon fill="none" stroke="black" points="428,-375.5 428,-762.5 578,-762.5 578,-375.5 428,-375.5"/>
<text text-anchor="middle" x="503" y="-750.5" font-family="Helvetica,sans-Serif" font-size="10.00">nars.language.CompoundTerm</text>
<polyline fill="none" stroke="black" points="428,-743.5 578,-743.5 "/>
<text text-anchor="start" x="436" y="-731.5" font-family="Helvetica,sans-Serif" font-size="10.00"># components</text>
<text text-anchor="start" x="436" y="-720.5" font-family="Helvetica,sans-Serif" font-size="10.00"># complexity</text>
<text text-anchor="start" x="436" y="-709.5" font-family="Helvetica,sans-Serif" font-size="10.00"># isConstant</text>
<polyline fill="none" stroke="black" points="428,-702.5 578,-702.5 "/>
<text text-anchor="start" x="436" y="-690.5" font-family="Helvetica,sans-Serif" font-size="10.00">+ operator()</text>
<text text-anchor="start" x="436" y="-679.5" font-family="Helvetica,sans-Serif" font-size="10.00">+ clone()</text>
<text text-anchor="start" x="436" y="-668.5" font-family="Helvetica,sans-Serif" font-size="10.00">+ setName()</text>
<text text-anchor="start" x="436" y="-657.5" font-family="Helvetica,sans-Serif" font-size="10.00">+ getComplexity()</text>
<text text-anchor="start" x="436" y="-646.5" font-family="Helvetica,sans-Serif" font-size="10.00">+ isConstant()</text>
<text text-anchor="start" x="436" y="-635.5" font-family="Helvetica,sans-Serif" font-size="10.00">+ setConstant()</text>
<text text-anchor="start" x="436" y="-624.5" font-family="Helvetica,sans-Serif" font-size="10.00">+ isCommutative()</text>
<text text-anchor="start" x="436" y="-613.5" font-family="Helvetica,sans-Serif" font-size="10.00">+ size()</text>
<text text-anchor="start" x="436" y="-602.5" font-family="Helvetica,sans-Serif" font-size="10.00">+ componentAt()</text>
<text text-anchor="start" x="436" y="-591.5" font-family="Helvetica,sans-Serif" font-size="10.00">+ getComponents()</text>
<text text-anchor="start" x="436" y="-580.5" font-family="Helvetica,sans-Serif" font-size="10.00">and 9 more...</text>
<text text-anchor="start" x="436" y="-569.5" font-family="Helvetica,sans-Serif" font-size="10.00">+ make()</text>
<text text-anchor="start" x="436" y="-558.5" font-family="Helvetica,sans-Serif" font-size="10.00">+ make()</text>
<text text-anchor="start" x="436" y="-547.5" font-family="Helvetica,sans-Serif" font-size="10.00">+ isOperator()</text>
<text text-anchor="start" x="436" y="-536.5" font-family="Helvetica,sans-Serif" font-size="10.00">+ cloneList()</text>
<text text-anchor="start" x="436" y="-525.5" font-family="Helvetica,sans-Serif" font-size="10.00">+ addComponents()</text>
<text text-anchor="start" x="436" y="-514.5" font-family="Helvetica,sans-Serif" font-size="10.00">+ reduceComponents()</text>
<text text-anchor="start" x="436" y="-503.5" font-family="Helvetica,sans-Serif" font-size="10.00">+ setComponent()</text>
<text text-anchor="start" x="436" y="-492.5" font-family="Helvetica,sans-Serif" font-size="10.00"># CompoundTerm()</text>
<text text-anchor="start" x="436" y="-481.5" font-family="Helvetica,sans-Serif" font-size="10.00"># CompoundTerm()</text>
<text text-anchor="start" x="436" y="-470.5" font-family="Helvetica,sans-Serif" font-size="10.00"># CompoundTerm()</text>
<text text-anchor="start" x="436" y="-459.5" font-family="Helvetica,sans-Serif" font-size="10.00"># CompoundTerm()</text>
<text text-anchor="start" x="436" y="-448.5" font-family="Helvetica,sans-Serif" font-size="10.00"># makeName()</text>
<text text-anchor="start" x="436" y="-437.5" font-family="Helvetica,sans-Serif" font-size="10.00"># argumentsToList()</text>
<text text-anchor="start" x="436" y="-426.5" font-family="Helvetica,sans-Serif" font-size="10.00"># makeCompoundName()</text>
<text text-anchor="start" x="436" y="-415.5" font-family="Helvetica,sans-Serif" font-size="10.00"># makeSetName()</text>
<text text-anchor="start" x="436" y="-404.5" font-family="Helvetica,sans-Serif" font-size="10.00"># makeImageName()</text>
<text text-anchor="start" x="436" y="-393.5" font-family="Helvetica,sans-Serif" font-size="10.00">&#45; calcComplexity()</text>
<text text-anchor="start" x="436" y="-382.5" font-family="Helvetica,sans-Serif" font-size="10.00">&#45; prepareComponentLinks()</text>
</a>
</g>
</g>
<!-- Node2&#45;&gt;Node1 -->
<g id="edge1" class="edge"><title>Node2&#45;&gt;Node1</title>
<path fill="none" stroke="midnightblue" d="M503,-365.204C503,-356.196 503,-347.372 503,-338.854"/>
<polygon fill="none" stroke="midnightblue" points="499.5,-365.445 503,-375.445 506.5,-365.445 499.5,-365.445"/>
</g>
<!-- Node3 -->
<g id="node3" class="node"><title>Node3</title>
<g id="a_node3"><a xlink:href="../../d8/db8/classnars_1_1language_1_1Term.html" target="_top" xlink:title="Term is the basic component of Narsese, and the object of processing in NARS. ">
<polygon fill="none" stroke="black" points="451,-799.5 451,-988.5 555,-988.5 555,-799.5 451,-799.5"/>
<text text-anchor="middle" x="503" y="-976.5" font-family="Helvetica,sans-Serif" font-size="10.00">nars.language.Term</text>
<polyline fill="none" stroke="black" points="451,-969.5 555,-969.5 "/>
<text text-anchor="start" x="459" y="-957.5" font-family="Helvetica,sans-Serif" font-size="10.00"># name</text>
<polyline fill="none" stroke="black" points="451,-950.5 555,-950.5 "/>
<text text-anchor="start" x="459" y="-938.5" font-family="Helvetica,sans-Serif" font-size="10.00">+ Term()</text>
<text text-anchor="start" x="459" y="-927.5" font-family="Helvetica,sans-Serif" font-size="10.00">+ getName()</text>
<text text-anchor="start" x="459" y="-916.5" font-family="Helvetica,sans-Serif" font-size="10.00">+ setName()</text>
<text text-anchor="start" x="459" y="-905.5" font-family="Helvetica,sans-Serif" font-size="10.00">+ clone()</text>
<text text-anchor="start" x="459" y="-894.5" font-family="Helvetica,sans-Serif" font-size="10.00">+ equals()</text>
<text text-anchor="start" x="459" y="-883.5" font-family="Helvetica,sans-Serif" font-size="10.00">+ hashCode()</text>
<text text-anchor="start" x="459" y="-872.5" font-family="Helvetica,sans-Serif" font-size="10.00">+ isConstant()</text>
<text text-anchor="start" x="459" y="-861.5" font-family="Helvetica,sans-Serif" font-size="10.00">+ renameVariables()</text>
<text text-anchor="start" x="459" y="-850.5" font-family="Helvetica,sans-Serif" font-size="10.00">+ getComplexity()</text>
<text text-anchor="start" x="459" y="-839.5" font-family="Helvetica,sans-Serif" font-size="10.00">+ compareTo()</text>
<text text-anchor="start" x="459" y="-828.5" font-family="Helvetica,sans-Serif" font-size="10.00">+ containTerm()</text>
<text text-anchor="start" x="459" y="-817.5" font-family="Helvetica,sans-Serif" font-size="10.00">+ toString()</text>
<text text-anchor="start" x="459" y="-806.5" font-family="Helvetica,sans-Serif" font-size="10.00"># Term()</text>
</a>
</g>
</g>
<!-- Node3&#45;&gt;Node2 -->
<g id="edge2" class="edge"><title>Node3&#45;&gt;Node2</title>
<path fill="none" stroke="midnightblue" d="M503,-789.109C503,-780.458 503,-771.553 503,-762.514"/>
<polygon fill="none" stroke="midnightblue" points="499.5,-789.141 503,-799.141 506.5,-789.141 499.5,-789.141"/>
</g>
<!-- Node4 -->
<g id="node4" class="node"><title>Node4</title>
<polygon fill="none" stroke="#bfbfbf" points="370,-1025.5 370,-1082.5 430,-1082.5 430,-1025.5 370,-1025.5"/>
<text text-anchor="middle" x="400" y="-1070.5" font-family="Helvetica,sans-Serif" font-size="10.00">Cloneable</text>
<polyline fill="none" stroke="#bfbfbf" points="370,-1063.5 430,-1063.5 "/>
<text text-anchor="middle" x="400" y="-1051.5" font-family="Helvetica,sans-Serif" font-size="10.00"> </text>
<polyline fill="none" stroke="#bfbfbf" points="370,-1044.5 430,-1044.5 "/>
<text text-anchor="middle" x="400" y="-1032.5" font-family="Helvetica,sans-Serif" font-size="10.00"> </text>
</g>
<!-- Node4&#45;&gt;Node3 -->
<g id="edge3" class="edge"><title>Node4&#45;&gt;Node3</title>
<path fill="none" stroke="midnightblue" d="M423.416,-1017.08C431.667,-1004.42 441.305,-989.639 450.967,-974.817"/>
<polygon fill="none" stroke="midnightblue" points="420.47,-1015.19 417.941,-1025.48 426.334,-1019.01 420.47,-1015.19"/>
</g>
<!-- Node5 -->
<g id="node5" class="node"><title>Node5</title>
<polygon fill="none" stroke="#bfbfbf" points="448,-1025.5 448,-1082.5 558,-1082.5 558,-1025.5 448,-1025.5"/>
<text text-anchor="middle" x="503" y="-1070.5" font-family="Helvetica,sans-Serif" font-size="10.00">Comparable&lt; Term &gt;</text>
<polyline fill="none" stroke="#bfbfbf" points="448,-1063.5 558,-1063.5 "/>
<text text-anchor="middle" x="503" y="-1051.5" font-family="Helvetica,sans-Serif" font-size="10.00"> </text>
<polyline fill="none" stroke="#bfbfbf" points="448,-1044.5 558,-1044.5 "/>
<text text-anchor="middle" x="503" y="-1032.5" font-family="Helvetica,sans-Serif" font-size="10.00"> </text>
</g>
<!-- Node5&#45;&gt;Node3 -->
<g id="edge4" class="edge"><title>Node5&#45;&gt;Node3</title>
<path fill="none" stroke="midnightblue" d="M503,-1015.22C503,-1007.01 503,-997.986 503,-988.678"/>
<polygon fill="none" stroke="midnightblue" points="499.5,-1015.48 503,-1025.48 506.5,-1015.48 499.5,-1015.48"/>
</g>
<!-- Node6 -->
<g id="node6" class="node"><title>Node6</title>
<polygon fill="none" stroke="#bfbfbf" points="576.5,-1025.5 576.5,-1082.5 641.5,-1082.5 641.5,-1025.5 576.5,-1025.5"/>
<text text-anchor="middle" x="609" y="-1070.5" font-family="Helvetica,sans-Serif" font-size="10.00">TermStruct</text>
<polyline fill="none" stroke="#bfbfbf" points="576.5,-1063.5 641.5,-1063.5 "/>
<text text-anchor="middle" x="609" y="-1051.5" font-family="Helvetica,sans-Serif" font-size="10.00"> </text>
<polyline fill="none" stroke="#bfbfbf" points="576.5,-1044.5 641.5,-1044.5 "/>
<text text-anchor="middle" x="609" y="-1032.5" font-family="Helvetica,sans-Serif" font-size="10.00"> </text>
</g>
<!-- Node6&#45;&gt;Node3 -->
<g id="edge5" class="edge"><title>Node6&#45;&gt;Node3</title>
<path fill="none" stroke="midnightblue" d="M584.937,-1017.13C576.048,-1003.88 565.593,-988.299 555.18,-972.778"/>
<polygon fill="none" stroke="midnightblue" points="582.058,-1019.12 590.536,-1025.48 587.871,-1015.22 582.058,-1019.12"/>
</g>
</g>
</svg>
