<?xml version="1.0" encoding="UTF-8" standalone="no"?>
<!DOCTYPE svg PUBLIC "-//W3C//DTD SVG 1.1//EN"
 "http://www.w3.org/Graphics/SVG/1.1/DTD/svg11.dtd">
<!-- Generated by graphviz version 2.38.0 (20140413.2041)
 -->
<!-- Title: nars.language.ImageInt Pages: 1 -->
<!--zoomable 943 -->
<svg id="main" version="1.1" xmlns="http://www.w3.org/2000/svg" xmlns:xlink="http://www.w3.org/1999/xlink" xml:space="preserve" onload="init(evt)">
<style type="text/css"><![CDATA[
.edge:hover path { stroke: red; }
.edge:hover polygon { stroke: red; fill: red; }
]]></style>
<script type="text/javascript"><![CDATA[
var edges = document.getElementsByTagName('g');
if (edges && edges.length) {
  for (var i=0;i<edges.length;i++) {
    if (edges[i].id.substr(0,4)=='edge') {
      edges[i].setAttribute('class','edge');
    }
  }
}
]]></script>
        <defs>
                <circle id="rim" cx="0" cy="0" r="7"/>
                <circle id="rim2" cx="0" cy="0" r="3.5"/>
                <g id="zoomPlus">
                        <use xlink:href="#rim" fill="#404040">
                                <set attributeName="fill" to="#808080" begin="zoomplus.mouseover" end="zoomplus.mouseout"/>
                        </use>
                        <path d="M-4,0h8M0,-4v8" fill="none" stroke="white" stroke-width="1.5" pointer-events="none"/>
                </g>
                <g id="zoomMin">
                        <use xlink:href="#rim" fill="#404040">
                                <set attributeName="fill" to="#808080" begin="zoomminus.mouseover" end="zoomminus.mouseout"/>
                        </use>
                        <path d="M-4,0h8" fill="none" stroke="white" stroke-width="1.5" pointer-events="none"/>
                </g>
                <g id="dirArrow">
                        <path fill="none" stroke="white" stroke-width="1.5" d="M0,-3.0v7 M-2.5,-0.5L0,-3.0L2.5,-0.5"/>
                </g>
               <g id="resetDef">
                       <use xlink:href="#rim2" fill="#404040">
                               <set attributeName="fill" to="#808080" begin="reset.mouseover" end="reset.mouseout"/>
                       </use>
               </g>
        </defs>

<script type="text/javascript">
var viewWidth = 438;
var viewHeight = 943;
var sectionId = 'dynsection-1';
</script>
<script xlink:href="../../svgpan.js"/>
<svg id="graph" class="graph">
<g id="viewport">
<title>nars.language.ImageInt</title>
<!-- Node1 -->
<g id="node1" class="node"><title>Node1</title>
<polygon fill="#bfbfbf" stroke="black" points="195,-0.5 195,-178.5 331,-178.5 331,-0.5 195,-0.5"/>
<text text-anchor="middle" x="263" y="-166.5" font-family="Helvetica,sans-Serif" font-size="10.00">nars.language.ImageInt</text>
<polyline fill="none" stroke="black" points="195,-159.5 331,-159.5 "/>
<text text-anchor="start" x="203" y="-147.5" font-family="Helvetica,sans-Serif" font-size="10.00">&#45; relationIndex</text>
<polyline fill="none" stroke="black" points="195,-140.5 331,-140.5 "/>
<text text-anchor="start" x="203" y="-128.5" font-family="Helvetica,sans-Serif" font-size="10.00">+ clone()</text>
<text text-anchor="start" x="203" y="-117.5" font-family="Helvetica,sans-Serif" font-size="10.00">+ getRelationIndex()</text>
<text text-anchor="start" x="203" y="-106.5" font-family="Helvetica,sans-Serif" font-size="10.00">+ getRelation()</text>
<text text-anchor="start" x="203" y="-95.5" font-family="Helvetica,sans-Serif" font-size="10.00">+ getTheOtherComponent()</text>
<text text-anchor="start" x="203" y="-84.5" font-family="Helvetica,sans-Serif" font-size="10.00">+ makeName()</text>
<text text-anchor="start" x="203" y="-73.5" font-family="Helvetica,sans-Serif" font-size="10.00">+ operator()</text>
<text text-anchor="start" x="203" y="-62.5" font-family="Helvetica,sans-Serif" font-size="10.00">+ make()</text>
<text text-anchor="start" x="203" y="-51.5" font-family="Helvetica,sans-Serif" font-size="10.00">+ make()</text>
<text text-anchor="start" x="203" y="-40.5" font-family="Helvetica,sans-Serif" font-size="10.00">+ make()</text>
<text text-anchor="start" x="203" y="-29.5" font-family="Helvetica,sans-Serif" font-size="10.00">+ make()</text>
<text text-anchor="start" x="203" y="-18.5" font-family="Helvetica,sans-Serif" font-size="10.00">&#45; ImageInt()</text>
<text text-anchor="start" x="203" y="-7.5" font-family="Helvetica,sans-Serif" font-size="10.00">&#45; ImageInt()</text>
</g>
<!-- Node2 -->
<g id="node2" class="node"><title>Node2</title>
<g id="a_node2"><a xlink:href="../../d0/dee/classnars_1_1language_1_1CompoundTerm.html" target="_top" xlink:title="A CompoundTerm is a Term with internal (syntactic) structure. ">
<polygon fill="none" stroke="black" points="188,-216.5 188,-592.5 338,-592.5 338,-216.5 188,-216.5"/>
<text text-anchor="middle" x="263" y="-580.5" font-family="Helvetica,sans-Serif" font-size="10.00">nars.language.CompoundTerm</text>
<polyline fill="none" stroke="black" points="188,-573.5 338,-573.5 "/>
<text text-anchor="start" x="196" y="-561.5" font-family="Helvetica,sans-Serif" font-size="10.00"># complexity</text>
<text text-anchor="start" x="196" y="-550.5" font-family="Helvetica,sans-Serif" font-size="10.00"># isConstant</text>
<polyline fill="none" stroke="black" points="188,-543.5 338,-543.5 "/>
<text text-anchor="start" x="196" y="-531.5" font-family="Helvetica,sans-Serif" font-size="10.00">+ operator()</text>
<text text-anchor="start" x="196" y="-520.5" font-family="Helvetica,sans-Serif" font-size="10.00">+ clone()</text>
<text text-anchor="start" x="196" y="-509.5" font-family="Helvetica,sans-Serif" font-size="10.00">+ setName()</text>
<text text-anchor="start" x="196" y="-498.5" font-family="Helvetica,sans-Serif" font-size="10.00">+ getComplexity()</text>
<text text-anchor="start" x="196" y="-487.5" font-family="Helvetica,sans-Serif" font-size="10.00">+ isConstant()</text>
<text text-anchor="start" x="196" y="-476.5" font-family="Helvetica,sans-Serif" font-size="10.00">+ setConstant()</text>
<text text-anchor="start" x="196" y="-465.5" font-family="Helvetica,sans-Serif" font-size="10.00">+ isCommutative()</text>
<text text-anchor="start" x="196" y="-454.5" font-family="Helvetica,sans-Serif" font-size="10.00">+ size()</text>
<text text-anchor="start" x="196" y="-443.5" font-family="Helvetica,sans-Serif" font-size="10.00">+ componentAt()</text>
<text text-anchor="start" x="196" y="-432.5" font-family="Helvetica,sans-Serif" font-size="10.00">+ getComponents()</text>
<text text-anchor="start" x="196" y="-421.5" font-family="Helvetica,sans-Serif" font-size="10.00">and 9 more...</text>
<text text-anchor="start" x="196" y="-410.5" font-family="Helvetica,sans-Serif" font-size="10.00">+ make()</text>
<text text-anchor="start" x="196" y="-399.5" font-family="Helvetica,sans-Serif" font-size="10.00">+ make()</text>
<text text-anchor="start" x="196" y="-388.5" font-family="Helvetica,sans-Serif" font-size="10.00">+ isOperator()</text>
<text text-anchor="start" x="196" y="-377.5" font-family="Helvetica,sans-Serif" font-size="10.00">+ cloneList()</text>
<text text-anchor="start" x="196" y="-366.5" font-family="Helvetica,sans-Serif" font-size="10.00">+ addComponents()</text>
<text text-anchor="start" x="196" y="-355.5" font-family="Helvetica,sans-Serif" font-size="10.00">+ reduceComponents()</text>
<text text-anchor="start" x="196" y="-344.5" font-family="Helvetica,sans-Serif" font-size="10.00">+ setComponent()</text>
<text text-anchor="start" x="196" y="-333.5" font-family="Helvetica,sans-Serif" font-size="10.00"># CompoundTerm()</text>
<text text-anchor="start" x="196" y="-322.5" font-family="Helvetica,sans-Serif" font-size="10.00"># CompoundTerm()</text>
<text text-anchor="start" x="196" y="-311.5" font-family="Helvetica,sans-Serif" font-size="10.00"># CompoundTerm()</text>
<text text-anchor="start" x="196" y="-300.5" font-family="Helvetica,sans-Serif" font-size="10.00"># CompoundTerm()</text>
<text text-anchor="start" x="196" y="-289.5" font-family="Helvetica,sans-Serif" font-size="10.00"># makeName()</text>
<text text-anchor="start" x="196" y="-278.5" font-family="Helvetica,sans-Serif" font-size="10.00"># argumentsToList()</text>
<text text-anchor="start" x="196" y="-267.5" font-family="Helvetica,sans-Serif" font-size="10.00"># makeCompoundName()</text>
<text text-anchor="start" x="196" y="-256.5" font-family="Helvetica,sans-Serif" font-size="10.00"># makeSetName()</text>
<text text-anchor="start" x="196" y="-245.5" font-family="Helvetica,sans-Serif" font-size="10.00"># makeImageName()</text>
<text text-anchor="start" x="196" y="-234.5" font-family="Helvetica,sans-Serif" font-size="10.00">&#45; calcComplexity()</text>
<text text-anchor="start" x="196" y="-223.5" font-family="Helvetica,sans-Serif" font-size="10.00">&#45; prepareComponentLinks()</text>
</a>
</g>
</g>
<!-- Node2&#45;&gt;Node1 -->
<g id="edge1" class="edge"><title>Node2&#45;&gt;Node1</title>
<path fill="none" stroke="midnightblue" d="M263,-206.424C263,-196.866 263,-187.524 263,-178.557"/>
<polygon fill="none" stroke="midnightblue" points="259.5,-206.456 263,-216.456 266.5,-206.456 259.5,-206.456"/>
</g>
<!-- Node3 -->
<g id="node3" class="node"><title>Node3</title>
<g id="a_node3"><a xlink:href="../../d8/db8/classnars_1_1language_1_1Term.html" target="_top" xlink:title="Term is the basic component of Narsese, and the object of processing in NARS. ">
<polygon fill="none" stroke="black" points="100,-640.5 100,-829.5 204,-829.5 204,-640.5 100,-640.5"/>
<text text-anchor="middle" x="152" y="-817.5" font-family="Helvetica,sans-Serif" font-size="10.00">nars.language.Term</text>
<polyline fill="none" stroke="black" points="100,-810.5 204,-810.5 "/>
<text text-anchor="start" x="108" y="-798.5" font-family="Helvetica,sans-Serif" font-size="10.00"># name</text>
<polyline fill="none" stroke="black" points="100,-791.5 204,-791.5 "/>
<text text-anchor="start" x="108" y="-779.5" font-family="Helvetica,sans-Serif" font-size="10.00">+ Term()</text>
<text text-anchor="start" x="108" y="-768.5" font-family="Helvetica,sans-Serif" font-size="10.00">+ getName()</text>
<text text-anchor="start" x="108" y="-757.5" font-family="Helvetica,sans-Serif" font-size="10.00">+ setName()</text>
<text text-anchor="start" x="108" y="-746.5" font-family="Helvetica,sans-Serif" font-size="10.00">+ clone()</text>
<text text-anchor="start" x="108" y="-735.5" font-family="Helvetica,sans-Serif" font-size="10.00">+ equals()</text>
<text text-anchor="start" x="108" y="-724.5" font-family="Helvetica,sans-Serif" font-size="10.00">+ hashCode()</text>
<text text-anchor="start" x="108" y="-713.5" font-family="Helvetica,sans-Serif" font-size="10.00">+ isConstant()</text>
<text text-anchor="start" x="108" y="-702.5" font-family="Helvetica,sans-Serif" font-size="10.00">+ renameVariables()</text>
<text text-anchor="start" x="108" y="-691.5" font-family="Helvetica,sans-Serif" font-size="10.00">+ getComplexity()</text>
<text text-anchor="start" x="108" y="-680.5" font-family="Helvetica,sans-Serif" font-size="10.00">+ compareTo()</text>
<text text-anchor="start" x="108" y="-669.5" font-family="Helvetica,sans-Serif" font-size="10.00">+ containTerm()</text>
<text text-anchor="start" x="108" y="-658.5" font-family="Helvetica,sans-Serif" font-size="10.00">+ toString()</text>
<text text-anchor="start" x="108" y="-647.5" font-family="Helvetica,sans-Serif" font-size="10.00"># Term()</text>
</a>
</g>
</g>
<!-- Node3&#45;&gt;Node2 -->
<g id="edge2" class="edge"><title>Node3&#45;&gt;Node2</title>
<path fill="none" stroke="midnightblue" d="M186.925,-630.64C191.047,-618.441 195.346,-605.72 199.71,-592.806"/>
<polygon fill="none" stroke="midnightblue" points="183.545,-629.71 183.66,-640.305 190.177,-631.951 183.545,-629.71"/>
</g>
<!-- Node4 -->
<g id="node4" class="node"><title>Node4</title>
<polygon fill="none" stroke="#bfbfbf" points="0,-877.5 0,-934.5 60,-934.5 60,-877.5 0,-877.5"/>
<text text-anchor="middle" x="30" y="-922.5" font-family="Helvetica,sans-Serif" font-size="10.00">Cloneable</text>
<polyline fill="none" stroke="#bfbfbf" points="0,-915.5 60,-915.5 "/>
<text text-anchor="middle" x="30" y="-903.5" font-family="Helvetica,sans-Serif" font-size="10.00"> </text>
<polyline fill="none" stroke="#bfbfbf" points="0,-896.5 60,-896.5 "/>
<text text-anchor="middle" x="30" y="-884.5" font-family="Helvetica,sans-Serif" font-size="10.00"> </text>
</g>
<!-- Node4&#45;&gt;Node3 -->
<g id="edge3" class="edge"><title>Node4&#45;&gt;Node3</title>
<path fill="none" stroke="midnightblue" d="M55.8831,-869.146C68.6715,-851.431 84.5826,-829.39 99.7557,-808.371"/>
<polygon fill="none" stroke="midnightblue" points="52.8883,-867.314 49.8729,-877.471 58.564,-871.412 52.8883,-867.314"/>
</g>
<!-- Node5 -->
<g id="node5" class="node"><title>Node5</title>
<polygon fill="none" stroke="#bfbfbf" points="78,-877.5 78,-934.5 188,-934.5 188,-877.5 78,-877.5"/>
<text text-anchor="middle" x="133" y="-922.5" font-family="Helvetica,sans-Serif" font-size="10.00">Comparable&lt; Term &gt;</text>
<polyline fill="none" stroke="#bfbfbf" points="78,-915.5 188,-915.5 "/>
<text text-anchor="middle" x="133" y="-903.5" font-family="Helvetica,sans-Serif" font-size="10.00"> </text>
<polyline fill="none" stroke="#bfbfbf" points="78,-896.5 188,-896.5 "/>
<text text-anchor="middle" x="133" y="-884.5" font-family="Helvetica,sans-Serif" font-size="10.00"> </text>
</g>
<!-- Node5&#45;&gt;Node3 -->
<g id="edge4" class="edge"><title>Node5&#45;&gt;Node3</title>
<path fill="none" stroke="midnightblue" d="M137.214,-867.518C138.495,-856.127 139.963,-843.062 141.467,-829.687"/>
<polygon fill="none" stroke="midnightblue" points="133.734,-867.143 136.095,-877.471 140.69,-867.925 133.734,-867.143"/>
</g>
<!-- Node6 -->
<g id="node6" class="node"><title>Node6</title>
<polygon fill="none" stroke="#bfbfbf" points="206.5,-877.5 206.5,-934.5 271.5,-934.5 271.5,-877.5 206.5,-877.5"/>
<text text-anchor="middle" x="239" y="-922.5" font-family="Helvetica,sans-Serif" font-size="10.00">TermStruct</text>
<polyline fill="none" stroke="#bfbfbf" points="206.5,-915.5 271.5,-915.5 "/>
<text text-anchor="middle" x="239" y="-903.5" font-family="Helvetica,sans-Serif" font-size="10.00"> </text>
<polyline fill="none" stroke="#bfbfbf" points="206.5,-896.5 271.5,-896.5 "/>
<text text-anchor="middle" x="239" y="-884.5" font-family="Helvetica,sans-Serif" font-size="10.00"> </text>
</g>
<!-- Node6&#45;&gt;Node3 -->
<g id="edge5" class="edge"><title>Node6&#45;&gt;Node3</title>
<path fill="none" stroke="midnightblue" d="M220.241,-868.56C214.252,-856.926 207.326,-843.472 200.229,-829.687"/>
<polygon fill="none" stroke="midnightblue" points="217.139,-870.182 224.828,-877.471 223.363,-866.978 217.139,-870.182"/>
</g>
<!-- Node7 -->
<g id="node7" class="node"><title>Node7</title>
<polygon fill="none" stroke="#bfbfbf" points="245,-701 245,-769 373,-769 373,-701 245,-701"/>
<text text-anchor="start" x="253" y="-757" font-family="Helvetica,sans-Serif" font-size="10.00">ArrayList&lt; nars.language.</text>
<text text-anchor="middle" x="309" y="-746" font-family="Helvetica,sans-Serif" font-size="10.00">Term &gt;</text>
<polyline fill="none" stroke="#bfbfbf" points="245,-739 373,-739 "/>
<text text-anchor="middle" x="309" y="-727" font-family="Helvetica,sans-Serif" font-size="10.00"> </text>
<polyline fill="none" stroke="#bfbfbf" points="245,-720 373,-720 "/>
<text text-anchor="middle" x="309" y="-708" font-family="Helvetica,sans-Serif" font-size="10.00"> </text>
</g>
<!-- Node7&#45;&gt;Node2 -->
<g id="edge6" class="edge"><title>Node7&#45;&gt;Node2</title>
<path fill="none" stroke="#404040" d="M304.379,-700.998C301.017,-676.994 296.158,-642.288 290.942,-605.041"/>
<polygon fill="none" stroke="#404040" points="290.902,-604.753 286.108,-599.366 289.237,-592.869 294.031,-598.256 290.902,-604.753"/>
<text text-anchor="middle" x="324" y="-614" font-family="Helvetica,sans-Serif" font-size="10.00"> #components</text>
</g>
<!-- Node8 -->
<g id="node8" class="node"><title>Node8</title>
<polygon fill="none" stroke="#bfbfbf" points="290,-877.5 290,-934.5 346,-934.5 346,-877.5 290,-877.5"/>
<text text-anchor="middle" x="318" y="-922.5" font-family="Helvetica,sans-Serif" font-size="10.00">ArrayList</text>
<polyline fill="none" stroke="#bfbfbf" points="290,-915.5 346,-915.5 "/>
<text text-anchor="middle" x="318" y="-903.5" font-family="Helvetica,sans-Serif" font-size="10.00"> </text>
<polyline fill="none" stroke="#bfbfbf" points="290,-896.5 346,-896.5 "/>
<text text-anchor="middle" x="318" y="-884.5" font-family="Helvetica,sans-Serif" font-size="10.00"> </text>
</g>
<!-- Node8&#45;&gt;Node7 -->
<g id="edge7" class="edge"><title>Node8&#45;&gt;Node7</title>
<path fill="none" stroke="orange" d="M315.985,-867.157C314.415,-837.69 312.259,-797.197 310.759,-769.029"/>
<polygon fill="orange" stroke="orange" points="312.507,-867.671 316.534,-877.471 319.497,-867.299 312.507,-867.671"/>
<text text-anchor="middle" x="373" y="-851" font-family="Helvetica,sans-Serif" font-size="10.00"> &lt; nars::language::Term &gt;</text>
</g>
</g>
</svg>
        <g id="navigator" transform="translate(0 0)" fill="#404254">
                <rect fill="#f2f5e9" fill-opacity="0.5" stroke="#606060" stroke-width=".5" x="0" y="0" width="60" height="60"/>
                <use id="zoomplus" xlink:href="#zoomPlus" x="17" y="9" onmousedown="handleZoom(evt,'in')"/>
                <use id="zoomminus" xlink:href="#zoomMin" x="42" y="9" onmousedown="handleZoom(evt,'out')"/>
                <use id="reset" xlink:href="#resetDef" x="30" y="36" onmousedown="handleReset()"/>
                <g id="arrowUp" xlink:href="#dirArrow" transform="translate(30 24)" onmousedown="handlePan(0,-1)">
                  <use xlink:href="#rim" fill="#404040">
                        <set attributeName="fill" to="#808080" begin="arrowUp.mouseover" end="arrowUp.mouseout"/>
                  </use>
                  <path fill="none" stroke="white" stroke-width="1.5" d="M0,-3.0v7 M-2.5,-0.5L0,-3.0L2.5,-0.5"/>
                </g>
                <g id="arrowRight" xlink:href="#dirArrow" transform="rotate(90) translate(36 -43)" onmousedown="handlePan(1,0)">
                  <use xlink:href="#rim" fill="#404040">
                        <set attributeName="fill" to="#808080" begin="arrowRight.mouseover" end="arrowRight.mouseout"/>
                  </use>
                  <path fill="none" stroke="white" stroke-width="1.5" d="M0,-3.0v7 M-2.5,-0.5L0,-3.0L2.5,-0.5"/>
                </g>
                <g id="arrowDown" xlink:href="#dirArrow" transform="rotate(180) translate(-30 -48)" onmousedown="handlePan(0,1)">
                  <use xlink:href="#rim" fill="#404040">
                        <set attributeName="fill" to="#808080" begin="arrowDown.mouseover" end="arrowDown.mouseout"/>
                  </use>
                  <path fill="none" stroke="white" stroke-width="1.5" d="M0,-3.0v7 M-2.5,-0.5L0,-3.0L2.5,-0.5"/>
                </g>
                <g id="arrowLeft" xlink:href="#dirArrow" transform="rotate(270) translate(-36 17)" onmousedown="handlePan(-1,0)">
                  <use xlink:href="#rim" fill="#404040">
                        <set attributeName="fill" to="#808080" begin="arrowLeft.mouseover" end="arrowLeft.mouseout"/>
                  </use>
                  <path fill="none" stroke="white" stroke-width="1.5" d="M0,-3.0v7 M-2.5,-0.5L0,-3.0L2.5,-0.5"/>
                </g>
        </g>
        <svg viewBox="0 0 15 15" width="100%" height="30px" preserveAspectRatio="xMaxYMin meet">
         <g id="arrow_out" transform="scale(0.3 0.3)">
          <a xlink:href="classnars_1_1language_1_1ImageInt__coll__graph_org.svg" target="_base">
           <rect id="button" ry="5" rx="5" y="6" x="6" height="38" width="38"
                fill="#f2f5e9" fill-opacity="0.5" stroke="#606060" stroke-width="1.0"/>
           <path id="arrow"
             d="M 11.500037,31.436501 C 11.940474,20.09759 22.043105,11.32322 32.158766,21.979434 L 37.068811,17.246167 C 37.068811,17.246167 37.088388,32 37.088388,32 L 22.160133,31.978069 C 22.160133,31.978069 26.997745,27.140456 26.997745,27.140456 C 18.528582,18.264221 13.291696,25.230495 11.500037,31.436501 z"
             style="fill:#404040;"/>
          </a>
         </g>
        </svg>
</svg>
