<?xml version="1.0" encoding="UTF-8" standalone="no"?>
<!DOCTYPE svg PUBLIC "-//W3C//DTD SVG 1.1//EN"
 "http://www.w3.org/Graphics/SVG/1.1/DTD/svg11.dtd">
<!-- Generated by graphviz version 2.38.0 (20140413.2041)
 -->
<!-- Title: nars.language.CompoundTerm.addComponents Pages: 1 -->
<svg width="830pt" height="127pt"
 viewBox="0.00 0.00 830.00 126.50" xmlns="http://www.w3.org/2000/svg" xmlns:xlink="http://www.w3.org/1999/xlink">
<g id="graph0" class="graph" transform="scale(1 1) rotate(0) translate(4 122.5)">
<title>nars.language.CompoundTerm.addComponents</title>
<!-- Node1 -->
<g id="node1" class="node"><title>Node1</title>
<polygon fill="#bfbfbf" stroke="black" points="0,-39 0,-69 169,-69 169,-39 0,-39"/>
<text text-anchor="start" x="8" y="-57" font-family="Helvetica,sans-Serif" font-size="10.00">nars.language.CompoundTerm.add</text>
<text text-anchor="middle" x="84.5" y="-46" font-family="Helvetica,sans-Serif" font-size="10.00">Components</text>
</g>
<!-- Node2 -->
<g id="node2" class="node"><title>Node2</title>
<g id="a_node2"><a xlink:href="../../d0/dee/classnars_1_1language_1_1CompoundTerm_a5923e4b211c0c1e1e53b39ebed2c7be1.html#a5923e4b211c0c1e1e53b39ebed2c7be1" target="_top" xlink:title="Clone the component list. ">
<polygon fill="none" stroke="black" points="205.5,-88 205.5,-118 381.5,-118 381.5,-88 205.5,-88"/>
<text text-anchor="start" x="213.5" y="-106" font-family="Helvetica,sans-Serif" font-size="10.00">nars.language.CompoundTerm.clone</text>
<text text-anchor="middle" x="293.5" y="-95" font-family="Helvetica,sans-Serif" font-size="10.00">Components</text>
</a>
</g>
</g>
<!-- Node1&#45;&gt;Node2 -->
<g id="edge1" class="edge"><title>Node1&#45;&gt;Node2</title>
<path fill="none" stroke="midnightblue" d="M149.014,-69.0346C171.168,-74.2789 196.211,-80.2069 219.102,-85.6255"/>
<polygon fill="midnightblue" stroke="midnightblue" points="218.569,-89.0961 229.107,-87.9938 220.182,-82.2844 218.569,-89.0961"/>
</g>
<!-- Node5 -->
<g id="node5" class="node"><title>Node5</title>
<g id="a_node5"><a xlink:href="../../d0/dee/classnars_1_1language_1_1CompoundTerm_a9778c35f9b602bee6ccac6a06809e546.html#a9778c35f9b602bee6ccac6a06809e546" target="_top" xlink:title="Get the component list. ">
<polygon fill="none" stroke="black" points="210,-39 210,-69 377,-69 377,-39 210,-39"/>
<text text-anchor="start" x="218" y="-57" font-family="Helvetica,sans-Serif" font-size="10.00">nars.language.CompoundTerm.get</text>
<text text-anchor="middle" x="293.5" y="-46" font-family="Helvetica,sans-Serif" font-size="10.00">Components</text>
</a>
</g>
</g>
<!-- Node1&#45;&gt;Node5 -->
<g id="edge4" class="edge"><title>Node1&#45;&gt;Node5</title>
<path fill="none" stroke="midnightblue" d="M169.098,-54C179.197,-54 189.558,-54 199.778,-54"/>
<polygon fill="midnightblue" stroke="midnightblue" points="199.935,-57.5001 209.935,-54 199.935,-50.5001 199.935,-57.5001"/>
</g>
<!-- Node6 -->
<g id="node6" class="node"><title>Node6</title>
<g id="a_node6"><a xlink:href="../../d0/dee/classnars_1_1language_1_1CompoundTerm_ae4b161399fd4fa864f9a5cf6e1a4ed83.html#ae4b161399fd4fa864f9a5cf6e1a4ed83" target="_top" xlink:title="Try to make a compound term from a template and a list of components. ">
<polygon fill="none" stroke="black" points="205,-0.5 205,-19.5 382,-19.5 382,-0.5 205,-0.5"/>
<text text-anchor="middle" x="293.5" y="-7.5" font-family="Helvetica,sans-Serif" font-size="10.00">nars.language.CompoundTerm.make</text>
</a>
</g>
</g>
<!-- Node1&#45;&gt;Node6 -->
<g id="edge5" class="edge"><title>Node1&#45;&gt;Node6</title>
<path fill="none" stroke="midnightblue" d="M156.159,-38.9808C182.82,-33.3136 212.725,-26.9571 237.719,-21.6444"/>
<polygon fill="midnightblue" stroke="midnightblue" points="238.695,-25.0152 247.748,-19.5124 237.239,-18.1681 238.695,-25.0152"/>
</g>
<!-- Node3 -->
<g id="node3" class="node"><title>Node3</title>
<g id="a_node3"><a xlink:href="../../d0/dee/classnars_1_1language_1_1CompoundTerm_a4f199daa7588f86b81b0912a5e52dfe0.html#a4f199daa7588f86b81b0912a5e52dfe0" target="_top" xlink:title="Deep clone an array list of terms. ">
<polygon fill="none" stroke="black" points="418,-93.5 418,-112.5 610,-112.5 610,-93.5 418,-93.5"/>
<text text-anchor="middle" x="514" y="-100.5" font-family="Helvetica,sans-Serif" font-size="10.00">nars.language.CompoundTerm.cloneList</text>
</a>
</g>
</g>
<!-- Node2&#45;&gt;Node3 -->
<g id="edge2" class="edge"><title>Node2&#45;&gt;Node3</title>
<path fill="none" stroke="midnightblue" d="M381.799,-103C390.343,-103 399.073,-103 407.77,-103"/>
<polygon fill="midnightblue" stroke="midnightblue" points="407.95,-106.5 417.95,-103 407.95,-99.5001 407.95,-106.5"/>
</g>
<!-- Node4 -->
<g id="node4" class="node"><title>Node4</title>
<g id="a_node4"><a xlink:href="../../d0/dee/classnars_1_1language_1_1CompoundTerm_a963e8aef1163f4ed8c364b5e448deaff.html#a963e8aef1163f4ed8c364b5e448deaff" target="_top" xlink:title="Abstract clone method. ">
<polygon fill="none" stroke="black" points="646,-93.5 646,-112.5 822,-112.5 822,-93.5 646,-93.5"/>
<text text-anchor="middle" x="734" y="-100.5" font-family="Helvetica,sans-Serif" font-size="10.00">nars.language.CompoundTerm.clone</text>
</a>
</g>
</g>
<!-- Node3&#45;&gt;Node4 -->
<g id="edge3" class="edge"><title>Node3&#45;&gt;Node4</title>
<path fill="none" stroke="midnightblue" d="M610.301,-103C618.69,-103 627.19,-103 635.597,-103"/>
<polygon fill="midnightblue" stroke="midnightblue" points="635.791,-106.5 645.791,-103 635.791,-99.5001 635.791,-106.5"/>
</g>
<!-- Node7 -->
<g id="node7" class="node"><title>Node7</title>
<g id="a_node7"><a xlink:href="../../d0/dee/classnars_1_1language_1_1CompoundTerm_a786848bcf438b17b9aa566b9b0c04e5f.html#a786848bcf438b17b9aa566b9b0c04e5f" target="_top" xlink:title="Abstract method to get the operator of the compound. ">
<polygon fill="none" stroke="black" points="420,-0.5 420,-19.5 608,-19.5 608,-0.5 420,-0.5"/>
<text text-anchor="middle" x="514" y="-7.5" font-family="Helvetica,sans-Serif" font-size="10.00">nars.language.CompoundTerm.operator</text>
</a>
</g>
</g>
<!-- Node6&#45;&gt;Node7 -->
<g id="edge6" class="edge"><title>Node6&#45;&gt;Node7</title>
<path fill="none" stroke="midnightblue" d="M382.113,-10C391.085,-10 400.259,-10 409.38,-10"/>
<polygon fill="midnightblue" stroke="midnightblue" points="409.643,-13.5001 419.643,-10 409.643,-6.5001 409.643,-13.5001"/>
</g>
</g>
</svg>
