<?xml version="1.0" encoding="UTF-8" standalone="no"?>
<!DOCTYPE svg PUBLIC "-//W3C//DTD SVG 1.1//EN"
 "http://www.w3.org/Graphics/SVG/1.1/DTD/svg11.dtd">
<!-- Generated by graphviz version 2.38.0 (20140413.2041)
 -->
<!-- Title: nars.language.CompoundTerm.reduceComponents Pages: 1 -->
<!--zoomable 127 -->
<svg id="main" version="1.1" xmlns="http://www.w3.org/2000/svg" xmlns:xlink="http://www.w3.org/1999/xlink" xml:space="preserve" onload="init(evt)">
<style type="text/css"><![CDATA[
.edge:hover path { stroke: red; }
.edge:hover polygon { stroke: red; fill: red; }
]]></style>
<script type="text/javascript"><![CDATA[
var edges = document.getElementsByTagName('g');
if (edges && edges.length) {
  for (var i=0;i<edges.length;i++) {
    if (edges[i].id.substr(0,4)=='edge') {
      edges[i].setAttribute('class','edge');
    }
  }
}
]]></script>
        <defs>
                <circle id="rim" cx="0" cy="0" r="7"/>
                <circle id="rim2" cx="0" cy="0" r="3.5"/>
                <g id="zoomPlus">
                        <use xlink:href="#rim" fill="#404040">
                                <set attributeName="fill" to="#808080" begin="zoomplus.mouseover" end="zoomplus.mouseout"/>
                        </use>
                        <path d="M-4,0h8M0,-4v8" fill="none" stroke="white" stroke-width="1.5" pointer-events="none"/>
                </g>
                <g id="zoomMin">
                        <use xlink:href="#rim" fill="#404040">
                                <set attributeName="fill" to="#808080" begin="zoomminus.mouseover" end="zoomminus.mouseout"/>
                        </use>
                        <path d="M-4,0h8" fill="none" stroke="white" stroke-width="1.5" pointer-events="none"/>
                </g>
                <g id="dirArrow">
                        <path fill="none" stroke="white" stroke-width="1.5" d="M0,-3.0v7 M-2.5,-0.5L0,-3.0L2.5,-0.5"/>
                </g>
               <g id="resetDef">
                       <use xlink:href="#rim2" fill="#404040">
                               <set attributeName="fill" to="#808080" begin="reset.mouseover" end="reset.mouseout"/>
                       </use>
               </g>
        </defs>

<script type="text/javascript">
var viewWidth = 843;
var viewHeight = 127;
var sectionId = 'dynsection-0';
</script>
<script xlink:href="../../svgpan.js"/>
<svg id="graph" class="graph">
<g id="viewport">
<title>nars.language.CompoundTerm.reduceComponents</title>
<!-- Node1 -->
<g id="node1" class="node"><title>Node1</title>
<polygon fill="#bfbfbf" stroke="black" points="0,-39 0,-69 182,-69 182,-39 0,-39"/>
<text text-anchor="start" x="8" y="-57" font-family="Helvetica,sans-Serif" font-size="10.00">nars.language.CompoundTerm.reduce</text>
<text text-anchor="middle" x="91" y="-46" font-family="Helvetica,sans-Serif" font-size="10.00">Components</text>
</g>
<!-- Node2 -->
<g id="node2" class="node"><title>Node2</title>
<g id="a_node2"><a xlink:href="../../d0/dee/classnars_1_1language_1_1CompoundTerm_a5923e4b211c0c1e1e53b39ebed2c7be1.html#a5923e4b211c0c1e1e53b39ebed2c7be1" target="_top" xlink:title="Clone the component list. ">
<polygon fill="none" stroke="black" points="218.5,-88 218.5,-118 394.5,-118 394.5,-88 218.5,-88"/>
<text text-anchor="start" x="226.5" y="-106" font-family="Helvetica,sans-Serif" font-size="10.00">nars.language.CompoundTerm.clone</text>
<text text-anchor="middle" x="306.5" y="-95" font-family="Helvetica,sans-Serif" font-size="10.00">Components</text>
</a>
</g>
</g>
<!-- Node1&#45;&gt;Node2 -->
<g id="edge1" class="edge"><title>Node1&#45;&gt;Node2</title>
<path fill="none" stroke="midnightblue" d="M157.508,-69.0346C180.46,-74.3024 206.419,-80.2601 230.115,-85.6984"/>
<polygon fill="midnightblue" stroke="midnightblue" points="229.586,-89.1681 240.116,-87.9938 231.152,-82.3455 229.586,-89.1681"/>
</g>
<!-- Node5 -->
<g id="node5" class="node"><title>Node5</title>
<g id="a_node5"><a xlink:href="../../d0/dee/classnars_1_1language_1_1CompoundTerm_a9778c35f9b602bee6ccac6a06809e546.html#a9778c35f9b602bee6ccac6a06809e546" target="_top" xlink:title="Get the component list. ">
<polygon fill="none" stroke="black" points="223,-39 223,-69 390,-69 390,-39 223,-39"/>
<text text-anchor="start" x="231" y="-57" font-family="Helvetica,sans-Serif" font-size="10.00">nars.language.CompoundTerm.get</text>
<text text-anchor="middle" x="306.5" y="-46" font-family="Helvetica,sans-Serif" font-size="10.00">Components</text>
</a>
</g>
</g>
<!-- Node1&#45;&gt;Node5 -->
<g id="edge4" class="edge"><title>Node1&#45;&gt;Node5</title>
<path fill="none" stroke="midnightblue" d="M182.234,-54C192.306,-54 202.579,-54 212.682,-54"/>
<polygon fill="midnightblue" stroke="midnightblue" points="212.715,-57.5001 222.715,-54 212.715,-50.5001 212.715,-57.5001"/>
</g>
<!-- Node6 -->
<g id="node6" class="node"><title>Node6</title>
<g id="a_node6"><a xlink:href="../../d0/dee/classnars_1_1language_1_1CompoundTerm_ae4b161399fd4fa864f9a5cf6e1a4ed83.html#ae4b161399fd4fa864f9a5cf6e1a4ed83" target="_top" xlink:title="Try to make a compound term from a template and a list of components. ">
<polygon fill="none" stroke="black" points="218,-0.5 218,-19.5 395,-19.5 395,-0.5 218,-0.5"/>
<text text-anchor="middle" x="306.5" y="-7.5" font-family="Helvetica,sans-Serif" font-size="10.00">nars.language.CompoundTerm.make</text>
</a>
</g>
</g>
<!-- Node1&#45;&gt;Node6 -->
<g id="edge5" class="edge"><title>Node1&#45;&gt;Node6</title>
<path fill="none" stroke="midnightblue" d="M164.877,-38.9808C192.498,-33.2885 223.494,-26.9006 249.342,-21.5736"/>
<polygon fill="midnightblue" stroke="midnightblue" points="250.255,-24.9589 259.343,-19.5124 248.842,-18.103 250.255,-24.9589"/>
</g>
<!-- Node3 -->
<g id="node3" class="node"><title>Node3</title>
<g id="a_node3"><a xlink:href="../../d0/dee/classnars_1_1language_1_1CompoundTerm_a4f199daa7588f86b81b0912a5e52dfe0.html#a4f199daa7588f86b81b0912a5e52dfe0" target="_top" xlink:title="Deep clone an array list of terms. ">
<polygon fill="none" stroke="black" points="431,-93.5 431,-112.5 623,-112.5 623,-93.5 431,-93.5"/>
<text text-anchor="middle" x="527" y="-100.5" font-family="Helvetica,sans-Serif" font-size="10.00">nars.language.CompoundTerm.cloneList</text>
</a>
</g>
</g>
<!-- Node2&#45;&gt;Node3 -->
<g id="edge2" class="edge"><title>Node2&#45;&gt;Node3</title>
<path fill="none" stroke="midnightblue" d="M394.799,-103C403.343,-103 412.073,-103 420.77,-103"/>
<polygon fill="midnightblue" stroke="midnightblue" points="420.95,-106.5 430.95,-103 420.95,-99.5001 420.95,-106.5"/>
</g>
<!-- Node4 -->
<g id="node4" class="node"><title>Node4</title>
<g id="a_node4"><a xlink:href="../../d0/dee/classnars_1_1language_1_1CompoundTerm_a963e8aef1163f4ed8c364b5e448deaff.html#a963e8aef1163f4ed8c364b5e448deaff" target="_top" xlink:title="Abstract clone method. ">
<polygon fill="none" stroke="black" points="659,-93.5 659,-112.5 835,-112.5 835,-93.5 659,-93.5"/>
<text text-anchor="middle" x="747" y="-100.5" font-family="Helvetica,sans-Serif" font-size="10.00">nars.language.CompoundTerm.clone</text>
</a>
</g>
</g>
<!-- Node3&#45;&gt;Node4 -->
<g id="edge3" class="edge"><title>Node3&#45;&gt;Node4</title>
<path fill="none" stroke="midnightblue" d="M623.301,-103C631.69,-103 640.19,-103 648.597,-103"/>
<polygon fill="midnightblue" stroke="midnightblue" points="648.791,-106.5 658.791,-103 648.791,-99.5001 648.791,-106.5"/>
</g>
<!-- Node7 -->
<g id="node7" class="node"><title>Node7</title>
<g id="a_node7"><a xlink:href="../../d0/dee/classnars_1_1language_1_1CompoundTerm_a786848bcf438b17b9aa566b9b0c04e5f.html#a786848bcf438b17b9aa566b9b0c04e5f" target="_top" xlink:title="Abstract method to get the operator of the compound. ">
<polygon fill="none" stroke="black" points="433,-0.5 433,-19.5 621,-19.5 621,-0.5 433,-0.5"/>
<text text-anchor="middle" x="527" y="-7.5" font-family="Helvetica,sans-Serif" font-size="10.00">nars.language.CompoundTerm.operator</text>
</a>
</g>
</g>
<!-- Node6&#45;&gt;Node7 -->
<g id="edge6" class="edge"><title>Node6&#45;&gt;Node7</title>
<path fill="none" stroke="midnightblue" d="M395.113,-10C404.085,-10 413.259,-10 422.38,-10"/>
<polygon fill="midnightblue" stroke="midnightblue" points="422.643,-13.5001 432.643,-10 422.643,-6.5001 422.643,-13.5001"/>
</g>
</g>
</svg>
        <g id="navigator" transform="translate(0 0)" fill="#404254">
                <rect fill="#f2f5e9" fill-opacity="0.5" stroke="#606060" stroke-width=".5" x="0" y="0" width="60" height="60"/>
                <use id="zoomplus" xlink:href="#zoomPlus" x="17" y="9" onmousedown="handleZoom(evt,'in')"/>
                <use id="zoomminus" xlink:href="#zoomMin" x="42" y="9" onmousedown="handleZoom(evt,'out')"/>
                <use id="reset" xlink:href="#resetDef" x="30" y="36" onmousedown="handleReset()"/>
                <g id="arrowUp" xlink:href="#dirArrow" transform="translate(30 24)" onmousedown="handlePan(0,-1)">
                  <use xlink:href="#rim" fill="#404040">
                        <set attributeName="fill" to="#808080" begin="arrowUp.mouseover" end="arrowUp.mouseout"/>
                  </use>
                  <path fill="none" stroke="white" stroke-width="1.5" d="M0,-3.0v7 M-2.5,-0.5L0,-3.0L2.5,-0.5"/>
                </g>
                <g id="arrowRight" xlink:href="#dirArrow" transform="rotate(90) translate(36 -43)" onmousedown="handlePan(1,0)">
                  <use xlink:href="#rim" fill="#404040">
                        <set attributeName="fill" to="#808080" begin="arrowRight.mouseover" end="arrowRight.mouseout"/>
                  </use>
                  <path fill="none" stroke="white" stroke-width="1.5" d="M0,-3.0v7 M-2.5,-0.5L0,-3.0L2.5,-0.5"/>
                </g>
                <g id="arrowDown" xlink:href="#dirArrow" transform="rotate(180) translate(-30 -48)" onmousedown="handlePan(0,1)">
                  <use xlink:href="#rim" fill="#404040">
                        <set attributeName="fill" to="#808080" begin="arrowDown.mouseover" end="arrowDown.mouseout"/>
                  </use>
                  <path fill="none" stroke="white" stroke-width="1.5" d="M0,-3.0v7 M-2.5,-0.5L0,-3.0L2.5,-0.5"/>
                </g>
                <g id="arrowLeft" xlink:href="#dirArrow" transform="rotate(270) translate(-36 17)" onmousedown="handlePan(-1,0)">
                  <use xlink:href="#rim" fill="#404040">
                        <set attributeName="fill" to="#808080" begin="arrowLeft.mouseover" end="arrowLeft.mouseout"/>
                  </use>
                  <path fill="none" stroke="white" stroke-width="1.5" d="M0,-3.0v7 M-2.5,-0.5L0,-3.0L2.5,-0.5"/>
                </g>
        </g>
        <svg viewBox="0 0 15 15" width="100%" height="30px" preserveAspectRatio="xMaxYMin meet">
         <g id="arrow_out" transform="scale(0.3 0.3)">
          <a xlink:href="classnars_1_1language_1_1CompoundTerm_a09c88a408c16b985b0db4bc602a170aa_a09c88a408c16b985b0db4bc602a170aa_cgraph_org.svg" target="_base">
           <rect id="button" ry="5" rx="5" y="6" x="6" height="38" width="38"
                fill="#f2f5e9" fill-opacity="0.5" stroke="#606060" stroke-width="1.0"/>
           <path id="arrow"
             d="M 11.500037,31.436501 C 11.940474,20.09759 22.043105,11.32322 32.158766,21.979434 L 37.068811,17.246167 C 37.068811,17.246167 37.088388,32 37.088388,32 L 22.160133,31.978069 C 22.160133,31.978069 26.997745,27.140456 26.997745,27.140456 C 18.528582,18.264221 13.291696,25.230495 11.500037,31.436501 z"
             style="fill:#404040;"/>
          </a>
         </g>
        </svg>
</svg>
