<?xml version="1.0" encoding="UTF-8" standalone="no"?>
<!DOCTYPE svg PUBLIC "-//W3C//DTD SVG 1.1//EN"
 "http://www.w3.org/Graphics/SVG/1.1/DTD/svg11.dtd">
<!-- Generated by graphviz version 2.38.0 (20140413.2041)
 -->
<!-- Title: nars.language.CompoundTerm.makeCompoundName Pages: 1 -->
<svg width="3050pt" height="508pt"
 viewBox="0.00 0.00 3050.00 508.00" xmlns="http://www.w3.org/2000/svg" xmlns:xlink="http://www.w3.org/1999/xlink">
<g id="graph0" class="graph" transform="scale(1 1) rotate(0) translate(4 504)">
<title>nars.language.CompoundTerm.makeCompoundName</title>
<!-- Node1 -->
<g id="node1" class="node"><title>Node1</title>
<polygon fill="#bfbfbf" stroke="black" points="0,-188.5 0,-218.5 177,-218.5 177,-188.5 0,-188.5"/>
<text text-anchor="start" x="8" y="-206.5" font-family="Helvetica,sans-Serif" font-size="10.00">nars.language.CompoundTerm.make</text>
<text text-anchor="middle" x="88.5" y="-195.5" font-family="Helvetica,sans-Serif" font-size="10.00">CompoundName</text>
</g>
<!-- Node2 -->
<g id="node2" class="node"><title>Node2</title>
<g id="a_node2"><a xlink:href="../../d3/d12/classnars_1_1language_1_1DifferenceExt_ad52f31a8b4209efc46c918c21120179d.html#ad52f31a8b4209efc46c918c21120179d" target="_top" xlink:title="Try to make a new DifferenceExt. ">
<polygon fill="none" stroke="black" points="252,-300.5 252,-330.5 377,-330.5 377,-300.5 252,-300.5"/>
<text text-anchor="start" x="260" y="-318.5" font-family="Helvetica,sans-Serif" font-size="10.00">nars.language.Difference</text>
<text text-anchor="middle" x="314.5" y="-307.5" font-family="Helvetica,sans-Serif" font-size="10.00">Ext.make</text>
</a>
</g>
</g>
<!-- Node1&#45;&gt;Node2 -->
<g id="edge1" class="edge"><title>Node1&#45;&gt;Node2</title>
<path fill="none" stroke="midnightblue" d="M113.95,-225.302C137.669,-245.339 175.483,-274.441 213,-291.5 225.166,-297.032 238.762,-301.376 251.926,-304.756"/>
<polygon fill="midnightblue" stroke="midnightblue" points="116.04,-222.483 106.171,-218.627 111.481,-227.796 116.04,-222.483"/>
</g>
<!-- Node17 -->
<g id="node17" class="node"><title>Node17</title>
<g id="a_node17"><a xlink:href="../../d4/d5b/classnars_1_1language_1_1DifferenceInt_a95a7042bd4175009db4d4d6cb2850a10.html#a95a7042bd4175009db4d4d6cb2850a10" target="_top" xlink:title="Try to make a new DifferenceExt. ">
<polygon fill="none" stroke="black" points="252,-251.5 252,-281.5 377,-281.5 377,-251.5 252,-251.5"/>
<text text-anchor="start" x="260" y="-269.5" font-family="Helvetica,sans-Serif" font-size="10.00">nars.language.Difference</text>
<text text-anchor="middle" x="314.5" y="-258.5" font-family="Helvetica,sans-Serif" font-size="10.00">Int.make</text>
</a>
</g>
</g>
<!-- Node1&#45;&gt;Node17 -->
<g id="edge16" class="edge"><title>Node1&#45;&gt;Node17</title>
<path fill="none" stroke="midnightblue" d="M145.954,-221.581C166.933,-228.113 190.983,-235.379 213,-241.5 225.559,-244.991 239.065,-248.51 251.974,-251.761"/>
<polygon fill="midnightblue" stroke="midnightblue" points="146.827,-218.187 136.238,-218.541 144.737,-224.868 146.827,-218.187"/>
</g>
<!-- Node19 -->
<g id="node19" class="node"><title>Node19</title>
<g id="a_node19"><a xlink:href="../../d8/d73/classnars_1_1language_1_1Product_a7cdc5cc66b8a8083cfab9abf39b529c7.html#a7cdc5cc66b8a8083cfab9abf39b529c7" target="_top" xlink:title="Try to make a new compound. ">
<polygon fill="none" stroke="black" points="244,-213 244,-232 385,-232 385,-213 244,-213"/>
<text text-anchor="middle" x="314.5" y="-220" font-family="Helvetica,sans-Serif" font-size="10.00">nars.language.Product.make</text>
</a>
</g>
</g>
<!-- Node1&#45;&gt;Node19 -->
<g id="edge20" class="edge"><title>Node1&#45;&gt;Node19</title>
<path fill="none" stroke="midnightblue" d="M187.241,-211.791C206.235,-213.402 225.786,-215.06 243.659,-216.576"/>
<polygon fill="midnightblue" stroke="midnightblue" points="187.327,-208.285 177.067,-210.928 186.735,-215.26 187.327,-208.285"/>
</g>
<!-- Node21 -->
<g id="node21" class="node"><title>Node21</title>
<g id="a_node21"><a xlink:href="../../da/d1e/classnars_1_1language_1_1Negation_a61ea99afd1022df3750059189196c348.html#a61ea99afd1022df3750059189196c348" target="_top" xlink:title="Try to make a new SetExt. ">
<polygon fill="none" stroke="black" points="241.5,-175 241.5,-194 387.5,-194 387.5,-175 241.5,-175"/>
<text text-anchor="middle" x="314.5" y="-182" font-family="Helvetica,sans-Serif" font-size="10.00">nars.language.Negation.make</text>
</a>
</g>
</g>
<!-- Node1&#45;&gt;Node21 -->
<g id="edge23" class="edge"><title>Node1&#45;&gt;Node21</title>
<path fill="none" stroke="midnightblue" d="M187.095,-195.222C205.264,-193.681 223.947,-192.096 241.189,-190.634"/>
<polygon fill="midnightblue" stroke="midnightblue" points="186.735,-191.74 177.067,-196.072 187.327,-198.715 186.735,-191.74"/>
</g>
<!-- Node22 -->
<g id="node22" class="node"><title>Node22</title>
<g id="a_node22"><a xlink:href="../../d6/d98/classnars_1_1language_1_1Conjunction_a0441c74943ec5cb83e93eee1c6d167e0.html#a0441c74943ec5cb83e93eee1c6d167e0" target="_top" xlink:title="Try to make a new Disjunction from a set of components. ">
<polygon fill="none" stroke="black" points="235,-137 235,-156 394,-156 394,-137 235,-137"/>
<text text-anchor="middle" x="314.5" y="-144" font-family="Helvetica,sans-Serif" font-size="10.00">nars.language.Conjunction.make</text>
</a>
</g>
</g>
<!-- Node1&#45;&gt;Node22 -->
<g id="edge24" class="edge"><title>Node1&#45;&gt;Node22</title>
<path fill="none" stroke="midnightblue" d="M143.628,-185.412C165.079,-178.621 190.056,-171.18 213,-165.5 227.22,-161.98 242.713,-158.755 257.18,-156.001"/>
<polygon fill="midnightblue" stroke="midnightblue" points="142.499,-182.098 134.04,-188.478 144.631,-188.766 142.499,-182.098"/>
</g>
<!-- Node23 -->
<g id="node23" class="node"><title>Node23</title>
<g id="a_node23"><a xlink:href="../../d9/d5d/classnars_1_1language_1_1Disjunction_a52c86ab72c1a8ae2196081796532793e.html#a52c86ab72c1a8ae2196081796532793e" target="_top" xlink:title="Try to make a new Disjunction from a set of components. ">
<polygon fill="none" stroke="black" points="236.5,-99 236.5,-118 392.5,-118 392.5,-99 236.5,-99"/>
<text text-anchor="middle" x="314.5" y="-106" font-family="Helvetica,sans-Serif" font-size="10.00">nars.language.Disjunction.make</text>
</a>
</g>
</g>
<!-- Node1&#45;&gt;Node23 -->
<g id="edge25" class="edge"><title>Node1&#45;&gt;Node23</title>
<path fill="none" stroke="midnightblue" d="M117.125,-182.389C141.185,-165.043 177.661,-141.176 213,-127.5 223.019,-123.623 233.915,-120.517 244.715,-118.034"/>
<polygon fill="midnightblue" stroke="midnightblue" points="114.846,-179.72 108.848,-188.454 118.983,-185.367 114.846,-179.72"/>
</g>
<!-- Node24 -->
<g id="node24" class="node"><title>Node24</title>
<g id="a_node24"><a xlink:href="../../d2/d68/classnars_1_1language_1_1IntersectionExt_a0666c2284e56b957ad8906e671751fd1.html#a0666c2284e56b957ad8906e671751fd1" target="_top" xlink:title="Try to make a new compound from a set of components. ">
<polygon fill="none" stroke="black" points="249,-49.5 249,-79.5 380,-79.5 380,-49.5 249,-49.5"/>
<text text-anchor="start" x="257" y="-67.5" font-family="Helvetica,sans-Serif" font-size="10.00">nars.language.Intersection</text>
<text text-anchor="middle" x="314.5" y="-56.5" font-family="Helvetica,sans-Serif" font-size="10.00">Ext.make</text>
</a>
</g>
</g>
<!-- Node1&#45;&gt;Node24 -->
<g id="edge26" class="edge"><title>Node1&#45;&gt;Node24</title>
<path fill="none" stroke="midnightblue" d="M108.017,-180.522C130.228,-154.512 169.896,-112.747 213,-89.5 224.077,-83.5256 236.611,-78.9493 248.976,-75.4532"/>
<polygon fill="midnightblue" stroke="midnightblue" points="105.18,-178.458 101.437,-188.369 110.544,-182.955 105.18,-178.458"/>
</g>
<!-- Node25 -->
<g id="node25" class="node"><title>Node25</title>
<g id="a_node25"><a xlink:href="../../d9/df4/classnars_1_1language_1_1IntersectionInt_a0a6d294f77be47fa91fcf9b85294f191.html#a0a6d294f77be47fa91fcf9b85294f191" target="_top" xlink:title="Try to make a new compound from a set of components. ">
<polygon fill="none" stroke="black" points="249,-0.5 249,-30.5 380,-30.5 380,-0.5 249,-0.5"/>
<text text-anchor="start" x="257" y="-18.5" font-family="Helvetica,sans-Serif" font-size="10.00">nars.language.Intersection</text>
<text text-anchor="middle" x="314.5" y="-7.5" font-family="Helvetica,sans-Serif" font-size="10.00">Int.make</text>
</a>
</g>
</g>
<!-- Node1&#45;&gt;Node25 -->
<g id="edge27" class="edge"><title>Node1&#45;&gt;Node25</title>
<path fill="none" stroke="midnightblue" d="M101.198,-178.612C119.649,-142.183 159.038,-74.8451 213,-39.5 223.729,-32.4723 236.305,-27.4981 248.859,-23.9784"/>
<polygon fill="midnightblue" stroke="midnightblue" points="97.8443,-177.498 96.5545,-188.014 104.121,-180.598 97.8443,-177.498"/>
</g>
<!-- Node26 -->
<g id="node26" class="node"><title>Node26</title>
<g id="a_node26"><a xlink:href="../../d0/dee/classnars_1_1language_1_1CompoundTerm_aa26a304f6249c185836d8fde8b8f17a8.html#aa26a304f6249c185836d8fde8b8f17a8" target="_top" xlink:title="default method to make the oldName of the current term from existing fields ">
<polygon fill="none" stroke="black" points="213,-377 213,-396 416,-396 416,-377 213,-377"/>
<text text-anchor="middle" x="314.5" y="-384" font-family="Helvetica,sans-Serif" font-size="10.00">nars.language.CompoundTerm.makeName</text>
</a>
</g>
</g>
<!-- Node1&#45;&gt;Node26 -->
<g id="edge28" class="edge"><title>Node1&#45;&gt;Node26</title>
<path fill="none" stroke="midnightblue" d="M110.598,-226.569C133.159,-254.491 171.358,-300.933 213,-331.5 241.462,-352.393 280.929,-367.016 300.877,-376.93"/>
<polygon fill="midnightblue" stroke="midnightblue" points="113.117,-224.118 104.112,-218.537 107.671,-228.516 113.117,-224.118"/>
</g>
<!-- Node3 -->
<g id="node3" class="node"><title>Node3</title>
<g id="a_node3"><a xlink:href="../../d8/d79/classnars_1_1inference_1_1CompositionalRules_a53f7edf7bfe7433da42e8fcf36fd6604.html#a53f7edf7bfe7433da42e8fcf36fd6604" target="_top" xlink:title="{&lt;S ==&gt; M&gt;, ">
<polygon fill="none" stroke="black" points="473,-273.5 473,-303.5 616,-303.5 616,-273.5 473,-273.5"/>
<text text-anchor="start" x="481" y="-291.5" font-family="Helvetica,sans-Serif" font-size="10.00">nars.inference.Compositional</text>
<text text-anchor="middle" x="544.5" y="-280.5" font-family="Helvetica,sans-Serif" font-size="10.00">Rules.composeCompound</text>
</a>
</g>
</g>
<!-- Node2&#45;&gt;Node3 -->
<g id="edge2" class="edge"><title>Node2&#45;&gt;Node3</title>
<path fill="none" stroke="midnightblue" d="M387.454,-306.979C414.727,-303.749 445.733,-300.078 472.882,-296.863"/>
<polygon fill="midnightblue" stroke="midnightblue" points="386.719,-303.542 377.2,-308.193 387.542,-310.493 386.719,-303.542"/>
</g>
<!-- Node15 -->
<g id="node15" class="node"><title>Node15</title>
<g id="a_node15"><a xlink:href="../../d0/dee/classnars_1_1language_1_1CompoundTerm_a80748e3181cffb66ac216637477507c3.html#a80748e3181cffb66ac216637477507c3" target="_top" xlink:title="Try to make a compound term from an operator and a list of components. ">
<polygon fill="none" stroke="black" points="456,-235 456,-254 633,-254 633,-235 456,-235"/>
<text text-anchor="middle" x="544.5" y="-242" font-family="Helvetica,sans-Serif" font-size="10.00">nars.language.CompoundTerm.make</text>
</a>
</g>
</g>
<!-- Node2&#45;&gt;Node15 -->
<g id="edge14" class="edge"><title>Node2&#45;&gt;Node15</title>
<path fill="none" stroke="midnightblue" d="M387.093,-302.241C397.027,-299.303 406.927,-295.76 416,-291.5 434.104,-283 433.815,-272.826 452,-264.5 461.462,-260.168 471.912,-256.752 482.264,-254.065"/>
<polygon fill="midnightblue" stroke="midnightblue" points="385.885,-298.943 377.178,-304.98 387.748,-305.691 385.885,-298.943"/>
</g>
<!-- Node16 -->
<g id="node16" class="node"><title>Node16</title>
<g id="a_node16"><a xlink:href="../../d3/d12/classnars_1_1language_1_1DifferenceExt_a8b349561a0235f537ce4e946c3cfd719.html#a8b349561a0235f537ce4e946c3cfd719" target="_top" xlink:title="Try to make a new compound from two components. ">
<polygon fill="none" stroke="black" points="482,-322.5 482,-352.5 607,-352.5 607,-322.5 482,-322.5"/>
<text text-anchor="start" x="490" y="-340.5" font-family="Helvetica,sans-Serif" font-size="10.00">nars.language.Difference</text>
<text text-anchor="middle" x="544.5" y="-329.5" font-family="Helvetica,sans-Serif" font-size="10.00">Ext.make</text>
</a>
</g>
</g>
<!-- Node2&#45;&gt;Node16 -->
<g id="edge15" class="edge"><title>Node2&#45;&gt;Node16</title>
<path fill="none" stroke="midnightblue" d="M387.293,-322.427C417.624,-325.354 452.596,-328.729 481.751,-331.542"/>
<polygon fill="midnightblue" stroke="midnightblue" points="387.49,-318.93 377.2,-321.454 386.818,-325.898 387.49,-318.93"/>
</g>
<!-- Node4 -->
<g id="node4" class="node"><title>Node4</title>
<g id="a_node4"><a xlink:href="../../da/de3/classnars_1_1inference_1_1RuleTables_a34927349efcf87db97d23c60983b115b.html#a34927349efcf87db97d23c60983b115b" target="_top" xlink:title="Syllogistic rules whose both premises are on the same asymmetric relation. ">
<polygon fill="none" stroke="black" points="673,-327.5 673,-357.5 858,-357.5 858,-327.5 673,-327.5"/>
<text text-anchor="start" x="681" y="-345.5" font-family="Helvetica,sans-Serif" font-size="10.00">nars.inference.RuleTables.asymmetric</text>
<text text-anchor="middle" x="765.5" y="-334.5" font-family="Helvetica,sans-Serif" font-size="10.00">Asymmetric</text>
</a>
</g>
</g>
<!-- Node3&#45;&gt;Node4 -->
<g id="edge3" class="edge"><title>Node3&#45;&gt;Node4</title>
<path fill="none" stroke="midnightblue" d="M616.267,-305.949C644.369,-312.879 676.379,-320.772 703.444,-327.445"/>
<polygon fill="midnightblue" stroke="midnightblue" points="617.051,-302.538 606.504,-303.542 615.375,-309.334 617.051,-302.538"/>
</g>
<!-- Node5 -->
<g id="node5" class="node"><title>Node5</title>
<g id="a_node5"><a xlink:href="../../da/de3/classnars_1_1inference_1_1RuleTables_a8628d400a8ceda7fea05039ddfea319b.html#a8628d400a8ceda7fea05039ddfea319b" target="_top" xlink:title="Meta&#45;table of syllogistic rules, indexed by the content classes of the taskSentence and the belief...">
<polygon fill="none" stroke="black" points="1115,-417 1115,-436 1295,-436 1295,-417 1115,-417"/>
<text text-anchor="middle" x="1205" y="-424" font-family="Helvetica,sans-Serif" font-size="10.00">nars.inference.RuleTables.syllogisms</text>
</a>
</g>
</g>
<!-- Node4&#45;&gt;Node5 -->
<g id="edge4" class="edge"><title>Node4&#45;&gt;Node5</title>
<path fill="none" stroke="midnightblue" d="M854.649,-359.425C944.772,-376.728 1081.55,-402.99 1154.34,-416.966"/>
<polygon fill="midnightblue" stroke="midnightblue" points="855.197,-355.966 844.716,-357.518 853.877,-362.84 855.197,-355.966"/>
</g>
<!-- Node6 -->
<g id="node6" class="node"><title>Node6</title>
<g id="a_node6"><a xlink:href="../../da/de3/classnars_1_1inference_1_1RuleTables_ac2d01dfdc40bdd47c757cb549217e6e3.html#ac2d01dfdc40bdd47c757cb549217e6e3" target="_top" xlink:title="Entry point of the inference engine. ">
<polygon fill="none" stroke="black" points="1331,-439 1331,-458 1494,-458 1494,-439 1331,-439"/>
<text text-anchor="middle" x="1412.5" y="-446" font-family="Helvetica,sans-Serif" font-size="10.00">nars.inference.RuleTables.reason</text>
</a>
</g>
</g>
<!-- Node5&#45;&gt;Node6 -->
<g id="edge5" class="edge"><title>Node5&#45;&gt;Node6</title>
<path fill="none" stroke="midnightblue" d="M1305.05,-437.104C1313.69,-438.029 1322.37,-438.958 1330.84,-439.864"/>
<polygon fill="midnightblue" stroke="midnightblue" points="1305.26,-433.606 1294.94,-436.022 1304.51,-440.566 1305.26,-433.606"/>
</g>
<!-- Node7 -->
<g id="node7" class="node"><title>Node7</title>
<g id="a_node7"><a xlink:href="../../d4/d22/classnars_1_1entity_1_1Concept_ae07576c8466ad65eeb61040e3f71cfc7.html#ae07576c8466ad65eeb61040e3f71cfc7" target="_top" xlink:title="An atomic step in a concept, only called in Memory# processConcept. ">
<polygon fill="none" stroke="black" points="1530,-439 1530,-458 1649,-458 1649,-439 1530,-439"/>
<text text-anchor="middle" x="1589.5" y="-446" font-family="Helvetica,sans-Serif" font-size="10.00">nars.entity.Concept.fire</text>
</a>
</g>
</g>
<!-- Node6&#45;&gt;Node7 -->
<g id="edge6" class="edge"><title>Node6&#45;&gt;Node7</title>
<path fill="none" stroke="midnightblue" d="M1504.25,-448.5C1512.91,-448.5 1521.52,-448.5 1529.76,-448.5"/>
<polygon fill="midnightblue" stroke="midnightblue" points="1504.09,-445 1494.09,-448.5 1504.08,-452 1504.09,-445"/>
</g>
<!-- Node8 -->
<g id="node8" class="node"><title>Node8</title>
<g id="a_node8"><a xlink:href="../../d8/df4/classnars_1_1storage_1_1Memory_a83154b55b922c82b73931d4f22e3a590.html#a83154b55b922c82b73931d4f22e3a590" target="_top" xlink:title="Select a concept to fire. ">
<polygon fill="none" stroke="black" points="1685,-433.5 1685,-463.5 1831,-463.5 1831,-433.5 1685,-433.5"/>
<text text-anchor="start" x="1693" y="-451.5" font-family="Helvetica,sans-Serif" font-size="10.00">nars.storage.Memory.process</text>
<text text-anchor="middle" x="1758" y="-440.5" font-family="Helvetica,sans-Serif" font-size="10.00">Concept</text>
</a>
</g>
</g>
<!-- Node7&#45;&gt;Node8 -->
<g id="edge7" class="edge"><title>Node7&#45;&gt;Node8</title>
<path fill="none" stroke="midnightblue" d="M1659.34,-448.5C1667.75,-448.5 1676.36,-448.5 1684.82,-448.5"/>
<polygon fill="midnightblue" stroke="midnightblue" points="1659.2,-445 1649.2,-448.5 1659.2,-452 1659.2,-445"/>
</g>
<!-- Node9 -->
<g id="node9" class="node"><title>Node9</title>
<g id="a_node9"><a xlink:href="../../d8/df4/classnars_1_1storage_1_1Memory_a49e2cbc8b78d535f4d69739886ee966a.html#a49e2cbc8b78d535f4d69739886ee966a" target="_top" xlink:title="An atomic working workCycle of the system: process new Tasks, then fire a concept. ">
<polygon fill="none" stroke="black" points="1867,-433.5 1867,-463.5 2000,-463.5 2000,-433.5 1867,-433.5"/>
<text text-anchor="start" x="1875" y="-451.5" font-family="Helvetica,sans-Serif" font-size="10.00">nars.storage.Memory.work</text>
<text text-anchor="middle" x="1933.5" y="-440.5" font-family="Helvetica,sans-Serif" font-size="10.00">Cycle</text>
</a>
</g>
</g>
<!-- Node8&#45;&gt;Node9 -->
<g id="edge8" class="edge"><title>Node8&#45;&gt;Node9</title>
<path fill="none" stroke="midnightblue" d="M1841.12,-448.5C1849.72,-448.5 1858.37,-448.5 1866.76,-448.5"/>
<polygon fill="midnightblue" stroke="midnightblue" points="1841.07,-445 1831.07,-448.5 1841.07,-452 1841.07,-445"/>
</g>
<!-- Node10 -->
<g id="node10" class="node"><title>Node10</title>
<g id="a_node10"><a xlink:href="../../dd/da5/classnars_1_1storage_1_1Memory_1_1ReasonerBatch_acc60dec23da774957a85362ed6d7448b.html#acc60dec23da774957a85362ed6d7448b" target="_top" xlink:title="nars.storage.Memory.Reasoner\lBatch.doTick">
<polygon fill="none" stroke="black" points="2036,-433.5 2036,-463.5 2190,-463.5 2190,-433.5 2036,-433.5"/>
<text text-anchor="start" x="2044" y="-451.5" font-family="Helvetica,sans-Serif" font-size="10.00">nars.storage.Memory.Reasoner</text>
<text text-anchor="middle" x="2113" y="-440.5" font-family="Helvetica,sans-Serif" font-size="10.00">Batch.doTick</text>
</a>
</g>
</g>
<!-- Node9&#45;&gt;Node10 -->
<g id="edge9" class="edge"><title>Node9&#45;&gt;Node10</title>
<path fill="none" stroke="midnightblue" d="M2010.32,-448.5C2018.79,-448.5 2027.41,-448.5 2035.89,-448.5"/>
<polygon fill="midnightblue" stroke="midnightblue" points="2010.09,-445 2000.09,-448.5 2010.09,-452 2010.09,-445"/>
</g>
<!-- Node11 -->
<g id="node11" class="node"><title>Node11</title>
<g id="a_node11"><a xlink:href="../../dd/da5/classnars_1_1storage_1_1Memory_1_1ReasonerBatch_aed591f05899b98fd9e4ad01836ad0a40.html#aed591f05899b98fd9e4ad01836ad0a40" target="_top" xlink:title="A clock tick. ">
<polygon fill="none" stroke="black" points="2226,-433.5 2226,-463.5 2380,-463.5 2380,-433.5 2226,-433.5"/>
<text text-anchor="start" x="2234" y="-451.5" font-family="Helvetica,sans-Serif" font-size="10.00">nars.storage.Memory.Reasoner</text>
<text text-anchor="middle" x="2303" y="-440.5" font-family="Helvetica,sans-Serif" font-size="10.00">Batch.tick</text>
</a>
</g>
</g>
<!-- Node10&#45;&gt;Node11 -->
<g id="edge10" class="edge"><title>Node10&#45;&gt;Node11</title>
<path fill="none" stroke="midnightblue" d="M2200.42,-448.5C2208.86,-448.5 2217.37,-448.5 2225.7,-448.5"/>
<polygon fill="midnightblue" stroke="midnightblue" points="2200.2,-445 2190.2,-448.5 2200.2,-452 2200.2,-445"/>
</g>
<!-- Node12 -->
<g id="node12" class="node"><title>Node12</title>
<g id="a_node12"><a xlink:href="../../d4/d88/classnars_1_1storage_1_1Memory_1_1NARSBatch_aad99db6cedde9cff2a997db8906ff821.html#aad99db6cedde9cff2a997db8906ff821" target="_top" xlink:title="Run to completion: repeatedly execute NARS working cycle, until Inputs are Finished, or 1000 steps. ">
<polygon fill="none" stroke="black" points="2416,-439 2416,-458 2598,-458 2598,-439 2416,-439"/>
<text text-anchor="middle" x="2507" y="-446" font-family="Helvetica,sans-Serif" font-size="10.00">nars.storage.Memory.NARSBatch.run</text>
</a>
</g>
</g>
<!-- Node11&#45;&gt;Node12 -->
<g id="edge11" class="edge"><title>Node11&#45;&gt;Node12</title>
<path fill="none" stroke="midnightblue" d="M2390.27,-448.5C2398.69,-448.5 2407.25,-448.5 2415.71,-448.5"/>
<polygon fill="midnightblue" stroke="midnightblue" points="2390.08,-445 2380.08,-448.5 2390.08,-452 2390.08,-445"/>
</g>
<!-- Node13 -->
<g id="node13" class="node"><title>Node13</title>
<g id="a_node13"><a xlink:href="../../d4/d88/classnars_1_1storage_1_1Memory_1_1NARSBatch_a416c39463faa161661ed1d12fea03b3c.html#a416c39463faa161661ed1d12fea03b3c" target="_top" xlink:title="non&#45;static equivalent to main(String[]) : run to completion from an input file ">
<polygon fill="none" stroke="black" points="2634,-433.5 2634,-463.5 2816,-463.5 2816,-433.5 2634,-433.5"/>
<text text-anchor="start" x="2642" y="-451.5" font-family="Helvetica,sans-Serif" font-size="10.00">nars.storage.Memory.NARSBatch.run</text>
<text text-anchor="middle" x="2725" y="-440.5" font-family="Helvetica,sans-Serif" font-size="10.00">Inference</text>
</a>
</g>
</g>
<!-- Node12&#45;&gt;Node13 -->
<g id="edge12" class="edge"><title>Node12&#45;&gt;Node13</title>
<path fill="none" stroke="midnightblue" d="M2608.06,-448.5C2616.63,-448.5 2625.27,-448.5 2633.76,-448.5"/>
<polygon fill="midnightblue" stroke="midnightblue" points="2608.04,-445 2598.04,-448.5 2608.04,-452 2608.04,-445"/>
</g>
<!-- Node14 -->
<g id="node14" class="node"><title>Node14</title>
<g id="a_node14"><a xlink:href="../../d4/d88/classnars_1_1storage_1_1Memory_1_1NARSBatch_aa97fcd68270583e60e6bf1b4579d1bdc.html#aa97fcd68270583e60e6bf1b4579d1bdc" target="_top" xlink:title="The entry point of the standalone application. ">
<polygon fill="none" stroke="black" points="2852,-439 2852,-458 3042,-458 3042,-439 2852,-439"/>
<text text-anchor="middle" x="2947" y="-446" font-family="Helvetica,sans-Serif" font-size="10.00">nars.storage.Memory.NARSBatch.main</text>
</a>
</g>
</g>
<!-- Node13&#45;&gt;Node14 -->
<g id="edge13" class="edge"><title>Node13&#45;&gt;Node14</title>
<path fill="none" stroke="midnightblue" d="M2826.37,-448.5C2834.82,-448.5 2843.34,-448.5 2851.74,-448.5"/>
<polygon fill="midnightblue" stroke="midnightblue" points="2826.12,-445 2816.12,-448.5 2826.12,-452 2826.12,-445"/>
</g>
<!-- Node17&#45;&gt;Node3 -->
<g id="edge17" class="edge"><title>Node17&#45;&gt;Node3</title>
<path fill="none" stroke="midnightblue" d="M387.454,-273.443C414.727,-276.075 445.733,-279.066 472.882,-281.686"/>
<polygon fill="midnightblue" stroke="midnightblue" points="387.49,-269.93 377.2,-272.454 386.818,-276.898 387.49,-269.93"/>
</g>
<!-- Node17&#45;&gt;Node15 -->
<g id="edge18" class="edge"><title>Node17&#45;&gt;Node15</title>
<path fill="none" stroke="midnightblue" d="M387.308,-259.571C408.989,-257.479 433.041,-255.158 455.644,-252.977"/>
<polygon fill="midnightblue" stroke="midnightblue" points="386.818,-256.102 377.2,-260.546 387.49,-263.07 386.818,-256.102"/>
</g>
<!-- Node18 -->
<g id="node18" class="node"><title>Node18</title>
<g id="a_node18"><a xlink:href="../../d4/d5b/classnars_1_1language_1_1DifferenceInt_a1936123877855aab4f257d443c831196.html#a1936123877855aab4f257d443c831196" target="_top" xlink:title="Try to make a new compound from two components. ">
<polygon fill="none" stroke="black" points="482,-185.5 482,-215.5 607,-215.5 607,-185.5 482,-185.5"/>
<text text-anchor="start" x="490" y="-203.5" font-family="Helvetica,sans-Serif" font-size="10.00">nars.language.Difference</text>
<text text-anchor="middle" x="544.5" y="-192.5" font-family="Helvetica,sans-Serif" font-size="10.00">Int.make</text>
</a>
</g>
</g>
<!-- Node17&#45;&gt;Node18 -->
<g id="edge19" class="edge"><title>Node17&#45;&gt;Node18</title>
<path fill="none" stroke="midnightblue" d="M386.916,-250.373C396.766,-247.674 406.691,-244.699 416,-241.5 432.559,-235.809 435.508,-231.38 452,-225.5 461.927,-221.961 472.61,-218.629 483.049,-215.621"/>
<polygon fill="midnightblue" stroke="midnightblue" points="385.881,-247.026 377.116,-252.979 387.679,-253.791 385.881,-247.026"/>
</g>
<!-- Node19&#45;&gt;Node15 -->
<g id="edge21" class="edge"><title>Node19&#45;&gt;Node15</title>
<path fill="none" stroke="midnightblue" d="M395.223,-230.193C414.778,-232.079 435.816,-234.109 455.726,-236.031"/>
<polygon fill="midnightblue" stroke="midnightblue" points="395.436,-226.697 385.146,-229.22 394.764,-233.665 395.436,-226.697"/>
</g>
<!-- Node20 -->
<g id="node20" class="node"><title>Node20</title>
<g id="a_node20"><a xlink:href="../../d8/d73/classnars_1_1language_1_1Product_a03b4b8cac0b36273fac8e5413743cd27.html#a03b4b8cac0b36273fac8e5413743cd27" target="_top" xlink:title="Try to make a Product from an ImageExt/ImageInt and a component. ">
<polygon fill="none" stroke="black" points="474,-147 474,-166 615,-166 615,-147 474,-147"/>
<text text-anchor="middle" x="544.5" y="-154" font-family="Helvetica,sans-Serif" font-size="10.00">nars.language.Product.make</text>
</a>
</g>
</g>
<!-- Node19&#45;&gt;Node20 -->
<g id="edge22" class="edge"><title>Node19&#45;&gt;Node20</title>
<path fill="none" stroke="midnightblue" d="M395.045,-211.005C402.265,-208.908 409.353,-206.43 416,-203.5 434.301,-195.433 433.815,-184.826 452,-176.5 461.462,-172.168 471.912,-168.752 482.264,-166.065"/>
<polygon fill="midnightblue" stroke="midnightblue" points="393.915,-207.684 385.148,-213.634 395.712,-214.45 393.915,-207.684"/>
</g>
<!-- Node26&#45;&gt;Node1 -->
<g id="edge36" class="edge"><title>Node26&#45;&gt;Node1</title>
<path fill="none" stroke="midnightblue" d="M254.493,-373.059C240.268,-366.721 225.562,-358.721 213,-349.5 160.855,-311.223 114.108,-248.053 96.7066,-218.685"/>
<polygon fill="midnightblue" stroke="midnightblue" points="253.171,-376.301 263.744,-376.981 255.903,-369.856 253.171,-376.301"/>
</g>
<!-- Node27 -->
<g id="node27" class="node"><title>Node27</title>
<g id="a_node27"><a xlink:href="../../d0/dee/classnars_1_1language_1_1CompoundTerm_a7899e3d2c69785eeb83f2b78bf474da6.html#a7899e3d2c69785eeb83f2b78bf474da6" target="_top" xlink:title="Recursively apply a substitute to the current CompoundTerm. ">
<polygon fill="none" stroke="black" points="456.5,-469.5 456.5,-499.5 632.5,-499.5 632.5,-469.5 456.5,-469.5"/>
<text text-anchor="start" x="464.5" y="-487.5" font-family="Helvetica,sans-Serif" font-size="10.00">nars.language.CompoundTerm.apply</text>
<text text-anchor="middle" x="544.5" y="-476.5" font-family="Helvetica,sans-Serif" font-size="10.00">Substitute</text>
</a>
</g>
</g>
<!-- Node26&#45;&gt;Node27 -->
<g id="edge29" class="edge"><title>Node26&#45;&gt;Node27</title>
<path fill="none" stroke="midnightblue" d="M339.067,-401.557C365.626,-417.974 410.517,-444.092 452,-460.5 460.399,-463.822 469.413,-466.825 478.389,-469.491"/>
<polygon fill="midnightblue" stroke="midnightblue" points="340.809,-398.518 330.474,-396.186 337.099,-404.454 340.809,-398.518"/>
</g>
<!-- Node31 -->
<g id="node31" class="node"><title>Node31</title>
<g id="a_node31"><a xlink:href="../../d0/dee/classnars_1_1language_1_1CompoundTerm_a575f70b59cb1810c54a28e75aa743868.html#a575f70b59cb1810c54a28e75aa743868" target="_top" xlink:title="Constructor called from subclasses constructors to initialize the fields. ">
<polygon fill="none" stroke="black" points="468,-420.5 468,-450.5 621,-450.5 621,-420.5 468,-420.5"/>
<text text-anchor="start" x="476" y="-438.5" font-family="Helvetica,sans-Serif" font-size="10.00">nars.language.CompoundTerm.</text>
<text text-anchor="middle" x="544.5" y="-427.5" font-family="Helvetica,sans-Serif" font-size="10.00">CompoundTerm</text>
</a>
</g>
</g>
<!-- Node26&#45;&gt;Node31 -->
<g id="edge35" class="edge"><title>Node26&#45;&gt;Node31</title>
<path fill="none" stroke="midnightblue" d="M369.91,-398.193C400.909,-404.855 440.085,-413.275 473.372,-420.429"/>
<polygon fill="midnightblue" stroke="midnightblue" points="370.243,-394.685 359.731,-396.006 368.772,-401.529 370.243,-394.685"/>
</g>
<!-- Node32 -->
<g id="node32" class="node"><title>Node32</title>
<g id="a_node32"><a xlink:href="../../d0/dee/classnars_1_1language_1_1CompoundTerm_ac19f90fbe8b8ebe78462fa13e7ebca74.html#ac19f90fbe8b8ebe78462fa13e7ebca74" target="_top" xlink:title="Rename the variables in the compound. ">
<polygon fill="none" stroke="black" points="452,-371.5 452,-401.5 637,-401.5 637,-371.5 452,-371.5"/>
<text text-anchor="start" x="460" y="-389.5" font-family="Helvetica,sans-Serif" font-size="10.00">nars.language.CompoundTerm.rename</text>
<text text-anchor="middle" x="544.5" y="-378.5" font-family="Helvetica,sans-Serif" font-size="10.00">Variables</text>
</a>
</g>
</g>
<!-- Node26&#45;&gt;Node32 -->
<g id="edge37" class="edge"><title>Node26&#45;&gt;Node32</title>
<path fill="none" stroke="midnightblue" d="M426.445,-386.5C434.89,-386.5 443.358,-386.5 451.662,-386.5"/>
<polygon fill="midnightblue" stroke="midnightblue" points="426.168,-383 416.168,-386.5 426.168,-390 426.168,-383"/>
</g>
<!-- Node28 -->
<g id="node28" class="node"><title>Node28</title>
<g id="a_node28"><a xlink:href="../../d8/d79/classnars_1_1inference_1_1CompositionalRules_ae7906cfca35e9c7568ace240aba808a0.html#ae7906cfca35e9c7568ace240aba808a0" target="_top" xlink:title=" &#160;&#160;&#160;&#160;Introduce a second independent variable into two terms with a common &#160;component ...">
<polygon fill="none" stroke="black" points="694,-455.5 694,-485.5 837,-485.5 837,-455.5 694,-455.5"/>
<text text-anchor="start" x="702" y="-473.5" font-family="Helvetica,sans-Serif" font-size="10.00">nars.inference.Compositional</text>
<text text-anchor="middle" x="765.5" y="-462.5" font-family="Helvetica,sans-Serif" font-size="10.00">Rules.introVarInner</text>
</a>
</g>
</g>
<!-- Node27&#45;&gt;Node28 -->
<g id="edge30" class="edge"><title>Node27&#45;&gt;Node28</title>
<path fill="none" stroke="midnightblue" d="M642.737,-478.284C659.915,-477.186 677.5,-476.062 693.773,-475.021"/>
<polygon fill="midnightblue" stroke="midnightblue" points="642.44,-474.796 632.684,-478.927 642.887,-481.781 642.44,-474.796"/>
</g>
<!-- Node29 -->
<g id="node29" class="node"><title>Node29</title>
<g id="a_node29"><a xlink:href="../../da/de3/classnars_1_1inference_1_1RuleTables_a8e422154fd8288d161435c3a53e44276.html#a8e422154fd8288d161435c3a53e44276" target="_top" xlink:title="Inference between a compound term and a statement. ">
<polygon fill="none" stroke="black" points="1115.5,-455.5 1115.5,-485.5 1294.5,-485.5 1294.5,-455.5 1115.5,-455.5"/>
<text text-anchor="start" x="1123.5" y="-473.5" font-family="Helvetica,sans-Serif" font-size="10.00">nars.inference.RuleTables.compound</text>
<text text-anchor="middle" x="1205" y="-462.5" font-family="Helvetica,sans-Serif" font-size="10.00">AndStatement</text>
</a>
</g>
</g>
<!-- Node28&#45;&gt;Node29 -->
<g id="edge31" class="edge"><title>Node28&#45;&gt;Node29</title>
<path fill="none" stroke="midnightblue" d="M847.741,-470.5C923.696,-470.5 1036.86,-470.5 1115.17,-470.5"/>
<polygon fill="midnightblue" stroke="midnightblue" points="847.278,-467 837.278,-470.5 847.278,-474 847.278,-467"/>
</g>
<!-- Node30 -->
<g id="node30" class="node"><title>Node30</title>
<g id="a_node30"><a xlink:href="../../da/de3/classnars_1_1inference_1_1RuleTables_a3e3eec10853be6dcf8c7532259cf4a84.html#a3e3eec10853be6dcf8c7532259cf4a84" target="_top" xlink:title="The detachment rule, with variable unification. ">
<polygon fill="none" stroke="black" points="894,-411.5 894,-441.5 1079,-441.5 1079,-411.5 894,-411.5"/>
<text text-anchor="start" x="902" y="-429.5" font-family="Helvetica,sans-Serif" font-size="10.00">nars.inference.RuleTables.detachment</text>
<text text-anchor="middle" x="986.5" y="-418.5" font-family="Helvetica,sans-Serif" font-size="10.00">WithVar</text>
</a>
</g>
</g>
<!-- Node28&#45;&gt;Node30 -->
<g id="edge33" class="edge"><title>Node28&#45;&gt;Node30</title>
<path fill="none" stroke="midnightblue" d="M847.36,-454.254C868.121,-450.083 890.36,-445.615 910.795,-441.509"/>
<polygon fill="midnightblue" stroke="midnightblue" points="846.415,-450.874 837.301,-456.275 847.794,-457.737 846.415,-450.874"/>
</g>
<!-- Node29&#45;&gt;Node6 -->
<g id="edge32" class="edge"><title>Node29&#45;&gt;Node6</title>
<path fill="none" stroke="midnightblue" d="M1304.86,-459.916C1313.6,-458.981 1322.37,-458.042 1330.93,-457.126"/>
<polygon fill="midnightblue" stroke="midnightblue" points="1304.21,-456.466 1294.64,-461.01 1304.96,-463.426 1304.21,-456.466"/>
</g>
<!-- Node30&#45;&gt;Node5 -->
<g id="edge34" class="edge"><title>Node30&#45;&gt;Node5</title>
<path fill="none" stroke="midnightblue" d="M1089.08,-426.5C1097.71,-426.5 1106.38,-426.5 1114.9,-426.5"/>
<polygon fill="midnightblue" stroke="midnightblue" points="1089,-423 1079,-426.5 1089,-430 1089,-423"/>
</g>
</g>
</svg>
