<?xml version="1.0" encoding="UTF-8" standalone="no"?>
<!DOCTYPE svg PUBLIC "-//W3C//DTD SVG 1.1//EN"
 "http://www.w3.org/Graphics/SVG/1.1/DTD/svg11.dtd">
<!-- Generated by graphviz version 2.38.0 (20140413.2041)
 -->
<!-- Title: nars.language.CompoundTerm.isConstant Pages: 1 -->
<!--zoomable 744 -->
<svg id="main" version="1.1" xmlns="http://www.w3.org/2000/svg" xmlns:xlink="http://www.w3.org/1999/xlink" xml:space="preserve" onload="init(evt)">
<style type="text/css"><![CDATA[
.edge:hover path { stroke: red; }
.edge:hover polygon { stroke: red; fill: red; }
]]></style>
<script type="text/javascript"><![CDATA[
var edges = document.getElementsByTagName('g');
if (edges && edges.length) {
  for (var i=0;i<edges.length;i++) {
    if (edges[i].id.substr(0,4)=='edge') {
      edges[i].setAttribute('class','edge');
    }
  }
}
]]></script>
        <defs>
                <circle id="rim" cx="0" cy="0" r="7"/>
                <circle id="rim2" cx="0" cy="0" r="3.5"/>
                <g id="zoomPlus">
                        <use xlink:href="#rim" fill="#404040">
                                <set attributeName="fill" to="#808080" begin="zoomplus.mouseover" end="zoomplus.mouseout"/>
                        </use>
                        <path d="M-4,0h8M0,-4v8" fill="none" stroke="white" stroke-width="1.5" pointer-events="none"/>
                </g>
                <g id="zoomMin">
                        <use xlink:href="#rim" fill="#404040">
                                <set attributeName="fill" to="#808080" begin="zoomminus.mouseover" end="zoomminus.mouseout"/>
                        </use>
                        <path d="M-4,0h8" fill="none" stroke="white" stroke-width="1.5" pointer-events="none"/>
                </g>
                <g id="dirArrow">
                        <path fill="none" stroke="white" stroke-width="1.5" d="M0,-3.0v7 M-2.5,-0.5L0,-3.0L2.5,-0.5"/>
                </g>
               <g id="resetDef">
                       <use xlink:href="#rim2" fill="#404040">
                               <set attributeName="fill" to="#808080" begin="reset.mouseover" end="reset.mouseout"/>
                       </use>
               </g>
        </defs>

<script type="text/javascript">
var viewWidth = 593;
var viewHeight = 744;
var sectionId = 'dynsection-0';
</script>
<script xlink:href="../../svgpan.js"/>
<svg id="graph" class="graph">
<g id="viewport">
<title>nars.language.CompoundTerm.isConstant</title>
<!-- Node1 -->
<g id="node1" class="node"><title>Node1</title>
<polygon fill="#bfbfbf" stroke="black" points="5.68434e-14,-361.5 5.68434e-14,-391.5 161,-391.5 161,-361.5 5.68434e-14,-361.5"/>
<text text-anchor="start" x="8" y="-379.5" font-family="Helvetica,sans-Serif" font-size="10.00">nars.language.CompoundTerm.is</text>
<text text-anchor="middle" x="80.5" y="-368.5" font-family="Helvetica,sans-Serif" font-size="10.00">Constant</text>
</g>
<!-- Node2 -->
<g id="node2" class="node"><title>Node2</title>
<g id="a_node2"><a xlink:href="../../d6/d98/classnars_1_1language_1_1Conjunction_afab922cb7b88c6cb7ae619f20b4c90ed.html#afab922cb7b88c6cb7ae619f20b4c90ed" target="_top" xlink:title="Clone an object. ">
<polygon fill="none" stroke="black" points="201.5,-716 201.5,-735 359.5,-735 359.5,-716 201.5,-716"/>
<text text-anchor="middle" x="280.5" y="-723" font-family="Helvetica,sans-Serif" font-size="10.00">nars.language.Conjunction.clone</text>
</a>
</g>
</g>
<!-- Node1&#45;&gt;Node2 -->
<g id="edge1" class="edge"><title>Node1&#45;&gt;Node2</title>
<path fill="none" stroke="midnightblue" d="M82.4545,-401.805C86.2214,-463.76 104.853,-623.996 197,-706.5 201.271,-710.324 206.155,-713.423 211.366,-715.931"/>
<polygon fill="midnightblue" stroke="midnightblue" points="85.9459,-401.548 81.924,-391.747 78.9556,-401.917 85.9459,-401.548"/>
</g>
<!-- Node3 -->
<g id="node3" class="node"><title>Node3</title>
<g id="a_node3"><a xlink:href="../../da/db6/classnars_1_1language_1_1Implication_a2d8bb553b90caaeb73a797087e52cb17.html#a2d8bb553b90caaeb73a797087e52cb17" target="_top" xlink:title="Clone an object. ">
<polygon fill="none" stroke="black" points="203.5,-678 203.5,-697 357.5,-697 357.5,-678 203.5,-678"/>
<text text-anchor="middle" x="280.5" y="-685" font-family="Helvetica,sans-Serif" font-size="10.00">nars.language.Implication.clone</text>
</a>
</g>
</g>
<!-- Node1&#45;&gt;Node3 -->
<g id="edge2" class="edge"><title>Node1&#45;&gt;Node3</title>
<path fill="none" stroke="midnightblue" d="M83.7798,-401.966C90.2994,-458.959 114.267,-597.353 197,-668.5 201.458,-672.333 206.536,-675.433 211.933,-677.934"/>
<polygon fill="midnightblue" stroke="midnightblue" points="87.2263,-401.274 82.6963,-391.697 80.265,-402.009 87.2263,-401.274"/>
</g>
<!-- Node4 -->
<g id="node4" class="node"><title>Node4</title>
<g id="a_node4"><a xlink:href="../../d1/d8b/classnars_1_1language_1_1Equivalence_a1c49bb1a2ca313cf3807bfec63c9f731.html#a1c49bb1a2ca313cf3807bfec63c9f731" target="_top" xlink:title="Clone an object. ">
<polygon fill="none" stroke="black" points="200.5,-640 200.5,-659 360.5,-659 360.5,-640 200.5,-640"/>
<text text-anchor="middle" x="280.5" y="-647" font-family="Helvetica,sans-Serif" font-size="10.00">nars.language.Equivalence.clone</text>
</a>
</g>
</g>
<!-- Node1&#45;&gt;Node4 -->
<g id="edge3" class="edge"><title>Node1&#45;&gt;Node4</title>
<path fill="none" stroke="midnightblue" d="M85.37,-401.506C94.6827,-452.823 123.287,-570.256 197,-630.5 201.666,-634.313 206.954,-637.393 212.544,-639.875"/>
<polygon fill="midnightblue" stroke="midnightblue" points="88.8112,-400.865 83.6663,-391.604 81.9126,-402.052 88.8112,-400.865"/>
</g>
<!-- Node5 -->
<g id="node5" class="node"><title>Node5</title>
<g id="a_node5"><a xlink:href="../../de/d1d/classnars_1_1language_1_1SetExt_aad126e022fc7ce5cf5ed1112655ba413.html#aad126e022fc7ce5cf5ed1112655ba413" target="_top" xlink:title="Clone a SetExt. ">
<polygon fill="none" stroke="black" points="212,-602 212,-621 349,-621 349,-602 212,-602"/>
<text text-anchor="middle" x="280.5" y="-609" font-family="Helvetica,sans-Serif" font-size="10.00">nars.language.SetExt.clone</text>
</a>
</g>
</g>
<!-- Node1&#45;&gt;Node5 -->
<g id="edge4" class="edge"><title>Node1&#45;&gt;Node5</title>
<path fill="none" stroke="midnightblue" d="M87.547,-401.535C99.8886,-447.026 132.432,-543.103 197,-592.5 202.02,-596.34 207.681,-599.426 213.626,-601.903"/>
<polygon fill="midnightblue" stroke="midnightblue" points="90.8716,-400.413 84.9622,-391.62 84.098,-402.179 90.8716,-400.413"/>
</g>
<!-- Node6 -->
<g id="node6" class="node"><title>Node6</title>
<g id="a_node6"><a xlink:href="../../d3/d12/classnars_1_1language_1_1DifferenceExt_adce6da4f9eb348cdc59c3493f039f50a.html#adce6da4f9eb348cdc59c3493f039f50a" target="_top" xlink:title="Clone an object. ">
<polygon fill="none" stroke="black" points="218,-552.5 218,-582.5 343,-582.5 343,-552.5 218,-552.5"/>
<text text-anchor="start" x="226" y="-570.5" font-family="Helvetica,sans-Serif" font-size="10.00">nars.language.Difference</text>
<text text-anchor="middle" x="280.5" y="-559.5" font-family="Helvetica,sans-Serif" font-size="10.00">Ext.clone</text>
</a>
</g>
</g>
<!-- Node1&#45;&gt;Node6 -->
<g id="edge5" class="edge"><title>Node1&#45;&gt;Node6</title>
<path fill="none" stroke="midnightblue" d="M91.8532,-400.954C108.571,-437.485 144.977,-506.013 197,-543.5 203.293,-548.035 210.433,-551.717 217.817,-554.707"/>
<polygon fill="midnightblue" stroke="midnightblue" points="94.9306,-399.261 87.6635,-391.551 88.5366,-402.11 94.9306,-399.261"/>
</g>
<!-- Node7 -->
<g id="node7" class="node"><title>Node7</title>
<g id="a_node7"><a xlink:href="../../d4/d5b/classnars_1_1language_1_1DifferenceInt_a4809c7a0fe8a14837469fd9b819fad99.html#a4809c7a0fe8a14837469fd9b819fad99" target="_top" xlink:title="Clone an object. ">
<polygon fill="none" stroke="black" points="218,-503.5 218,-533.5 343,-533.5 343,-503.5 218,-503.5"/>
<text text-anchor="start" x="226" y="-521.5" font-family="Helvetica,sans-Serif" font-size="10.00">nars.language.Difference</text>
<text text-anchor="middle" x="280.5" y="-510.5" font-family="Helvetica,sans-Serif" font-size="10.00">Int.clone</text>
</a>
</g>
</g>
<!-- Node1&#45;&gt;Node7 -->
<g id="edge6" class="edge"><title>Node1&#45;&gt;Node7</title>
<path fill="none" stroke="midnightblue" d="M98.568,-399.764C119.106,-426.16 155.987,-468.746 197,-493.5 203.407,-497.367 210.458,-500.677 217.657,-503.5"/>
<polygon fill="midnightblue" stroke="midnightblue" points="101.341,-397.629 92.4894,-391.806 95.778,-401.878 101.341,-397.629"/>
</g>
<!-- Node8 -->
<g id="node8" class="node"><title>Node8</title>
<g id="a_node8"><a xlink:href="../../d9/d5d/classnars_1_1language_1_1Disjunction_a145c54f6e9263769fd8e751e8245b426.html#a145c54f6e9263769fd8e751e8245b426" target="_top" xlink:title="Clone an object. ">
<polygon fill="none" stroke="black" points="203,-465 203,-484 358,-484 358,-465 203,-465"/>
<text text-anchor="middle" x="280.5" y="-472" font-family="Helvetica,sans-Serif" font-size="10.00">nars.language.Disjunction.clone</text>
</a>
</g>
</g>
<!-- Node1&#45;&gt;Node8 -->
<g id="edge7" class="edge"><title>Node1&#45;&gt;Node8</title>
<path fill="none" stroke="midnightblue" d="M107.011,-398.127C129.372,-416.018 163.46,-440.798 197,-455.5 205.75,-459.336 215.375,-462.448 224.867,-464.958"/>
<polygon fill="midnightblue" stroke="midnightblue" points="109.006,-395.239 99.0401,-391.643 104.588,-400.669 109.006,-395.239"/>
</g>
<!-- Node9 -->
<g id="node9" class="node"><title>Node9</title>
<g id="a_node9"><a xlink:href="../../d2/dfc/classnars_1_1language_1_1SetInt_aabb9d80867d444bfa781a3c628cb73f7.html#aabb9d80867d444bfa781a3c628cb73f7" target="_top" xlink:title="Clone a SetInt. ">
<polygon fill="none" stroke="black" points="214,-427 214,-446 347,-446 347,-427 214,-427"/>
<text text-anchor="middle" x="280.5" y="-434" font-family="Helvetica,sans-Serif" font-size="10.00">nars.language.SetInt.clone</text>
</a>
</g>
</g>
<!-- Node1&#45;&gt;Node9 -->
<g id="edge8" class="edge"><title>Node1&#45;&gt;Node9</title>
<path fill="none" stroke="midnightblue" d="M129.873,-395.066C150.399,-402.579 174.692,-410.995 197,-417.5 208.853,-420.956 221.809,-424.19 233.87,-426.975"/>
<polygon fill="midnightblue" stroke="midnightblue" points="131.021,-391.759 120.428,-391.576 128.595,-398.325 131.021,-391.759"/>
</g>
<!-- Node10 -->
<g id="node10" class="node"><title>Node10</title>
<g id="a_node10"><a xlink:href="../../d0/df3/classnars_1_1language_1_1Inheritance_a30b9a743c58d8aa4f172d00ef04a8891.html#a30b9a743c58d8aa4f172d00ef04a8891" target="_top" xlink:title="Clone an object. ">
<polygon fill="none" stroke="black" points="203,-389 203,-408 358,-408 358,-389 203,-389"/>
<text text-anchor="middle" x="280.5" y="-396" font-family="Helvetica,sans-Serif" font-size="10.00">nars.language.Inheritance.clone</text>
</a>
</g>
</g>
<!-- Node1&#45;&gt;Node10 -->
<g id="edge9" class="edge"><title>Node1&#45;&gt;Node10</title>
<path fill="none" stroke="midnightblue" d="M171.247,-386.472C181.811,-387.646 192.517,-388.835 202.877,-389.986"/>
<polygon fill="midnightblue" stroke="midnightblue" points="171.504,-382.979 161.178,-385.353 170.731,-389.936 171.504,-382.979"/>
</g>
<!-- Node11 -->
<g id="node11" class="node"><title>Node11</title>
<g id="a_node11"><a xlink:href="../../d2/d68/classnars_1_1language_1_1IntersectionExt_af5972d508155a133710574b3fc58e1d9.html#af5972d508155a133710574b3fc58e1d9" target="_top" xlink:title="Clone an object. ">
<polygon fill="none" stroke="black" points="215,-339.5 215,-369.5 346,-369.5 346,-339.5 215,-339.5"/>
<text text-anchor="start" x="223" y="-357.5" font-family="Helvetica,sans-Serif" font-size="10.00">nars.language.Intersection</text>
<text text-anchor="middle" x="280.5" y="-346.5" font-family="Helvetica,sans-Serif" font-size="10.00">Ext.clone</text>
</a>
</g>
</g>
<!-- Node1&#45;&gt;Node11 -->
<g id="edge10" class="edge"><title>Node1&#45;&gt;Node11</title>
<path fill="none" stroke="midnightblue" d="M171.288,-366.524C185.977,-364.891 200.939,-363.229 214.865,-361.682"/>
<polygon fill="midnightblue" stroke="midnightblue" points="170.731,-363.064 161.178,-367.647 171.504,-370.021 170.731,-363.064"/>
</g>
<!-- Node12 -->
<g id="node12" class="node"><title>Node12</title>
<g id="a_node12"><a xlink:href="../../da/d1e/classnars_1_1language_1_1Negation_aa75de1d079c9867de603470387c64998.html#aa75de1d079c9867de603470387c64998" target="_top" xlink:title="Clone an object. ">
<polygon fill="none" stroke="black" points="207.5,-301 207.5,-320 353.5,-320 353.5,-301 207.5,-301"/>
<text text-anchor="middle" x="280.5" y="-308" font-family="Helvetica,sans-Serif" font-size="10.00">nars.language.Negation.clone</text>
</a>
</g>
</g>
<!-- Node1&#45;&gt;Node12 -->
<g id="edge11" class="edge"><title>Node1&#45;&gt;Node12</title>
<path fill="none" stroke="midnightblue" d="M125.119,-357.437C146.52,-348.521 172.835,-338.199 197,-330.5 209.217,-326.608 222.658,-323.051 235.081,-320.052"/>
<polygon fill="midnightblue" stroke="midnightblue" points="123.517,-354.314 115.658,-361.42 126.233,-360.766 123.517,-354.314"/>
</g>
<!-- Node13 -->
<g id="node13" class="node"><title>Node13</title>
<g id="a_node13"><a xlink:href="../../d9/df4/classnars_1_1language_1_1IntersectionInt_a6f20109d61f2aa3afc159873cd36d7c3.html#a6f20109d61f2aa3afc159873cd36d7c3" target="_top" xlink:title="Clone an object. ">
<polygon fill="none" stroke="black" points="215,-251.5 215,-281.5 346,-281.5 346,-251.5 215,-251.5"/>
<text text-anchor="start" x="223" y="-269.5" font-family="Helvetica,sans-Serif" font-size="10.00">nars.language.Intersection</text>
<text text-anchor="middle" x="280.5" y="-258.5" font-family="Helvetica,sans-Serif" font-size="10.00">Int.clone</text>
</a>
</g>
</g>
<!-- Node1&#45;&gt;Node13 -->
<g id="edge12" class="edge"><title>Node1&#45;&gt;Node13</title>
<path fill="none" stroke="midnightblue" d="M105.924,-354.647C128.253,-335.655 162.899,-308.58 197,-291.5 204.494,-287.747 212.657,-284.439 220.837,-281.562"/>
<polygon fill="midnightblue" stroke="midnightblue" points="103.562,-352.062 98.2784,-361.245 108.136,-357.361 103.562,-352.062"/>
</g>
<!-- Node14 -->
<g id="node14" class="node"><title>Node14</title>
<g id="a_node14"><a xlink:href="../../d3/d1f/classnars_1_1language_1_1Similarity_a186e43d1f6a471425fe6cdf3bd951dac.html#a186e43d1f6a471425fe6cdf3bd951dac" target="_top" xlink:title="Clone an object. ">
<polygon fill="none" stroke="black" points="207,-213 207,-232 354,-232 354,-213 207,-213"/>
<text text-anchor="middle" x="280.5" y="-220" font-family="Helvetica,sans-Serif" font-size="10.00">nars.language.Similarity.clone</text>
</a>
</g>
</g>
<!-- Node1&#45;&gt;Node14 -->
<g id="edge13" class="edge"><title>Node1&#45;&gt;Node14</title>
<path fill="none" stroke="midnightblue" d="M95.4243,-352.641C114.431,-322.259 151.402,-270.37 197,-242.5 204.168,-238.119 212.234,-234.697 220.442,-232.025"/>
<polygon fill="midnightblue" stroke="midnightblue" points="92.3427,-350.971 90.1128,-361.329 98.315,-354.622 92.3427,-350.971"/>
</g>
<!-- Node15 -->
<g id="node15" class="node"><title>Node15</title>
<g id="a_node15"><a xlink:href="../../d8/d73/classnars_1_1language_1_1Product_a0d1189bcbcf720c3818cb2ebc953cd64.html#a0d1189bcbcf720c3818cb2ebc953cd64" target="_top" xlink:title="Clone a Product. ">
<polygon fill="none" stroke="black" points="210.5,-175 210.5,-194 350.5,-194 350.5,-175 210.5,-175"/>
<text text-anchor="middle" x="280.5" y="-182" font-family="Helvetica,sans-Serif" font-size="10.00">nars.language.Product.clone</text>
</a>
</g>
</g>
<!-- Node1&#45;&gt;Node15 -->
<g id="edge14" class="edge"><title>Node1&#45;&gt;Node15</title>
<path fill="none" stroke="midnightblue" d="M90.7795,-352.135C106.553,-314.149 142.302,-241.263 197,-203.5 202.564,-199.659 208.792,-196.585 215.266,-194.126"/>
<polygon fill="midnightblue" stroke="midnightblue" points="87.5243,-350.849 87.0302,-361.433 94.0163,-353.467 87.5243,-350.849"/>
</g>
<!-- Node16 -->
<g id="node16" class="node"><title>Node16</title>
<g id="a_node16"><a xlink:href="../../db/dbb/classnars_1_1language_1_1ImageExt_ac5fdab0792feb897ec29059f1f7f4b03.html#ac5fdab0792feb897ec29059f1f7f4b03" target="_top" xlink:title="Clone an object. ">
<polygon fill="none" stroke="black" points="206,-137 206,-156 355,-156 355,-137 206,-137"/>
<text text-anchor="middle" x="280.5" y="-144" font-family="Helvetica,sans-Serif" font-size="10.00">nars.language.ImageExt.clone</text>
</a>
</g>
</g>
<!-- Node1&#45;&gt;Node16 -->
<g id="edge15" class="edge"><title>Node1&#45;&gt;Node16</title>
<path fill="none" stroke="midnightblue" d="M87.8165,-351.71C100.516,-307.124 133.509,-213.582 197,-165.5 202.038,-161.684 207.712,-158.615 213.665,-156.148"/>
<polygon fill="midnightblue" stroke="midnightblue" points="84.4175,-350.871 85.1483,-361.441 91.1683,-352.722 84.4175,-350.871"/>
</g>
<!-- Node17 -->
<g id="node17" class="node"><title>Node17</title>
<g id="a_node17"><a xlink:href="../../df/de3/classnars_1_1language_1_1ImageInt_a926536f74b2950c52901d5299f06c019.html#a926536f74b2950c52901d5299f06c019" target="_top" xlink:title="Clone an object. ">
<polygon fill="none" stroke="black" points="208,-99 208,-118 353,-118 353,-99 208,-99"/>
<text text-anchor="middle" x="280.5" y="-106" font-family="Helvetica,sans-Serif" font-size="10.00">nars.language.ImageInt.clone</text>
</a>
</g>
</g>
<!-- Node1&#45;&gt;Node17 -->
<g id="edge16" class="edge"><title>Node1&#45;&gt;Node17</title>
<path fill="none" stroke="midnightblue" d="M85.658,-351.297C95.3977,-300.621 124.589,-186.226 197,-127.5 201.68,-123.704 206.978,-120.637 212.574,-118.162"/>
<polygon fill="midnightblue" stroke="midnightblue" points="82.171,-350.91 83.8189,-361.376 89.0573,-352.167 82.171,-350.91"/>
</g>
<!-- Node18 -->
<g id="node18" class="node"><title>Node18</title>
<g id="a_node18"><a xlink:href="../../d0/dee/classnars_1_1language_1_1CompoundTerm_a4800a7c8dd9043a2bffecd669aa4cfe2.html#a4800a7c8dd9043a2bffecd669aa4cfe2" target="_top" xlink:title="Constructor called from subclasses constructors to clone the fields. ">
<polygon fill="none" stroke="black" points="204,-49.5 204,-79.5 357,-79.5 357,-49.5 204,-49.5"/>
<text text-anchor="start" x="212" y="-67.5" font-family="Helvetica,sans-Serif" font-size="10.00">nars.language.CompoundTerm.</text>
<text text-anchor="middle" x="280.5" y="-56.5" font-family="Helvetica,sans-Serif" font-size="10.00">CompoundTerm</text>
</a>
</g>
</g>
<!-- Node1&#45;&gt;Node18 -->
<g id="edge17" class="edge"><title>Node1&#45;&gt;Node18</title>
<path fill="none" stroke="midnightblue" d="M84.3231,-351.46C91.9188,-295.982 117.885,-161.915 197,-89.5 201.195,-85.6602 205.963,-82.4094 211.04,-79.6575"/>
<polygon fill="midnightblue" stroke="midnightblue" points="80.8404,-351.102 83.0386,-361.466 87.7834,-351.993 80.8404,-351.102"/>
</g>
<!-- Node19 -->
<g id="node19" class="node"><title>Node19</title>
<g id="a_node19"><a xlink:href="../../d0/dee/classnars_1_1language_1_1CompoundTerm_aba82571567444c65efde4cdba1733ac9.html#aba82571567444c65efde4cdba1733ac9" target="_top" xlink:title="Set the constant status. ">
<polygon fill="none" stroke="black" points="197,-0.5 197,-30.5 364,-30.5 364,-0.5 197,-0.5"/>
<text text-anchor="start" x="205" y="-18.5" font-family="Helvetica,sans-Serif" font-size="10.00">nars.language.CompoundTerm.set</text>
<text text-anchor="middle" x="280.5" y="-7.5" font-family="Helvetica,sans-Serif" font-size="10.00">Constant</text>
</a>
</g>
</g>
<!-- Node1&#45;&gt;Node19 -->
<g id="edge18" class="edge"><title>Node1&#45;&gt;Node19</title>
<path fill="none" stroke="midnightblue" d="M82.6603,-351.137C86.8938,-288.967 106.501,-127.723 197,-40.5 200.987,-36.6573 205.545,-33.4031 210.425,-30.6476"/>
<polygon fill="midnightblue" stroke="midnightblue" points="79.1602,-351.034 82.052,-361.226 86.1475,-351.455 79.1602,-351.034"/>
</g>
<!-- Node20 -->
<g id="node20" class="node"><title>Node20</title>
<g id="a_node20"><a xlink:href="../../d0/dee/classnars_1_1language_1_1CompoundTerm_ac19f90fbe8b8ebe78462fa13e7ebca74.html#ac19f90fbe8b8ebe78462fa13e7ebca74" target="_top" xlink:title="Rename the variables in the compound. ">
<polygon fill="none" stroke="black" points="400,-0.5 400,-30.5 585,-30.5 585,-0.5 400,-0.5"/>
<text text-anchor="start" x="408" y="-18.5" font-family="Helvetica,sans-Serif" font-size="10.00">nars.language.CompoundTerm.rename</text>
<text text-anchor="middle" x="492.5" y="-7.5" font-family="Helvetica,sans-Serif" font-size="10.00">Variables</text>
</a>
</g>
</g>
<!-- Node19&#45;&gt;Node20 -->
<g id="edge19" class="edge"><title>Node19&#45;&gt;Node20</title>
<path fill="none" stroke="midnightblue" d="M374.431,-15.5C382.877,-15.5 391.428,-15.5 399.862,-15.5"/>
<polygon fill="midnightblue" stroke="midnightblue" points="374.196,-12.0001 364.196,-15.5 374.196,-19.0001 374.196,-12.0001"/>
</g>
</g>
</svg>
        <g id="navigator" transform="translate(0 0)" fill="#404254">
                <rect fill="#f2f5e9" fill-opacity="0.5" stroke="#606060" stroke-width=".5" x="0" y="0" width="60" height="60"/>
                <use id="zoomplus" xlink:href="#zoomPlus" x="17" y="9" onmousedown="handleZoom(evt,'in')"/>
                <use id="zoomminus" xlink:href="#zoomMin" x="42" y="9" onmousedown="handleZoom(evt,'out')"/>
                <use id="reset" xlink:href="#resetDef" x="30" y="36" onmousedown="handleReset()"/>
                <g id="arrowUp" xlink:href="#dirArrow" transform="translate(30 24)" onmousedown="handlePan(0,-1)">
                  <use xlink:href="#rim" fill="#404040">
                        <set attributeName="fill" to="#808080" begin="arrowUp.mouseover" end="arrowUp.mouseout"/>
                  </use>
                  <path fill="none" stroke="white" stroke-width="1.5" d="M0,-3.0v7 M-2.5,-0.5L0,-3.0L2.5,-0.5"/>
                </g>
                <g id="arrowRight" xlink:href="#dirArrow" transform="rotate(90) translate(36 -43)" onmousedown="handlePan(1,0)">
                  <use xlink:href="#rim" fill="#404040">
                        <set attributeName="fill" to="#808080" begin="arrowRight.mouseover" end="arrowRight.mouseout"/>
                  </use>
                  <path fill="none" stroke="white" stroke-width="1.5" d="M0,-3.0v7 M-2.5,-0.5L0,-3.0L2.5,-0.5"/>
                </g>
                <g id="arrowDown" xlink:href="#dirArrow" transform="rotate(180) translate(-30 -48)" onmousedown="handlePan(0,1)">
                  <use xlink:href="#rim" fill="#404040">
                        <set attributeName="fill" to="#808080" begin="arrowDown.mouseover" end="arrowDown.mouseout"/>
                  </use>
                  <path fill="none" stroke="white" stroke-width="1.5" d="M0,-3.0v7 M-2.5,-0.5L0,-3.0L2.5,-0.5"/>
                </g>
                <g id="arrowLeft" xlink:href="#dirArrow" transform="rotate(270) translate(-36 17)" onmousedown="handlePan(-1,0)">
                  <use xlink:href="#rim" fill="#404040">
                        <set attributeName="fill" to="#808080" begin="arrowLeft.mouseover" end="arrowLeft.mouseout"/>
                  </use>
                  <path fill="none" stroke="white" stroke-width="1.5" d="M0,-3.0v7 M-2.5,-0.5L0,-3.0L2.5,-0.5"/>
                </g>
        </g>
        <svg viewBox="0 0 15 15" width="100%" height="30px" preserveAspectRatio="xMaxYMin meet">
         <g id="arrow_out" transform="scale(0.3 0.3)">
          <a xlink:href="classnars_1_1language_1_1CompoundTerm_aee0ef6fd533b58caf22bee2a98eef67d_aee0ef6fd533b58caf22bee2a98eef67d_icgraph_org.svg" target="_base">
           <rect id="button" ry="5" rx="5" y="6" x="6" height="38" width="38"
                fill="#f2f5e9" fill-opacity="0.5" stroke="#606060" stroke-width="1.0"/>
           <path id="arrow"
             d="M 11.500037,31.436501 C 11.940474,20.09759 22.043105,11.32322 32.158766,21.979434 L 37.068811,17.246167 C 37.068811,17.246167 37.088388,32 37.088388,32 L 22.160133,31.978069 C 22.160133,31.978069 26.997745,27.140456 26.997745,27.140456 C 18.528582,18.264221 13.291696,25.230495 11.500037,31.436501 z"
             style="fill:#404040;"/>
          </a>
         </g>
        </svg>
</svg>
