<?xml version="1.0" encoding="UTF-8" standalone="no"?>
<!DOCTYPE svg PUBLIC "-//W3C//DTD SVG 1.1//EN"
 "http://www.w3.org/Graphics/SVG/1.1/DTD/svg11.dtd">
<!-- Generated by graphviz version 2.38.0 (20140413.2041)
 -->
<!-- Title: nars.language.CompoundTerm.applySubstitute Pages: 1 -->
<svg width="2547pt" height="83pt"
 viewBox="0.00 0.00 2547.00 83.00" xmlns="http://www.w3.org/2000/svg" xmlns:xlink="http://www.w3.org/1999/xlink">
<g id="graph0" class="graph" transform="scale(1 1) rotate(0) translate(4 79)">
<title>nars.language.CompoundTerm.applySubstitute</title>
<!-- Node1 -->
<g id="node1" class="node"><title>Node1</title>
<polygon fill="#bfbfbf" stroke="black" points="0,-22.5 0,-52.5 176,-52.5 176,-22.5 0,-22.5"/>
<text text-anchor="start" x="8" y="-40.5" font-family="Helvetica,sans-Serif" font-size="10.00">nars.language.CompoundTerm.apply</text>
<text text-anchor="middle" x="88" y="-29.5" font-family="Helvetica,sans-Serif" font-size="10.00">Substitute</text>
</g>
<!-- Node2 -->
<g id="node2" class="node"><title>Node2</title>
<g id="a_node2"><a xlink:href="../../d8/d79/classnars_1_1inference_1_1CompositionalRules_ae7906cfca35e9c7568ace240aba808a0.html#ae7906cfca35e9c7568ace240aba808a0" target="_top" xlink:title=" &#160;&#160;&#160;&#160;Introduce a second independent variable into two terms with a common &#160;component ...">
<polygon fill="none" stroke="black" points="212,-22.5 212,-52.5 355,-52.5 355,-22.5 212,-22.5"/>
<text text-anchor="start" x="220" y="-40.5" font-family="Helvetica,sans-Serif" font-size="10.00">nars.inference.Compositional</text>
<text text-anchor="middle" x="283.5" y="-29.5" font-family="Helvetica,sans-Serif" font-size="10.00">Rules.introVarInner</text>
</a>
</g>
</g>
<!-- Node1&#45;&gt;Node2 -->
<g id="edge1" class="edge"><title>Node1&#45;&gt;Node2</title>
<path fill="none" stroke="midnightblue" d="M186.229,-37.5C194.847,-37.5 203.46,-37.5 211.794,-37.5"/>
<polygon fill="midnightblue" stroke="midnightblue" points="186.127,-34.0001 176.127,-37.5 186.127,-41.0001 186.127,-34.0001"/>
</g>
<!-- Node3 -->
<g id="node3" class="node"><title>Node3</title>
<g id="a_node3"><a xlink:href="../../da/de3/classnars_1_1inference_1_1RuleTables_a8e422154fd8288d161435c3a53e44276.html#a8e422154fd8288d161435c3a53e44276" target="_top" xlink:title="Inference between a compound term and a statement. ">
<polygon fill="none" stroke="black" points="612.5,-44.5 612.5,-74.5 791.5,-74.5 791.5,-44.5 612.5,-44.5"/>
<text text-anchor="start" x="620.5" y="-62.5" font-family="Helvetica,sans-Serif" font-size="10.00">nars.inference.RuleTables.compound</text>
<text text-anchor="middle" x="702" y="-51.5" font-family="Helvetica,sans-Serif" font-size="10.00">AndStatement</text>
</a>
</g>
</g>
<!-- Node2&#45;&gt;Node3 -->
<g id="edge2" class="edge"><title>Node2&#45;&gt;Node3</title>
<path fill="none" stroke="midnightblue" d="M365.371,-41.7717C436.243,-45.5152 539.074,-50.9469 612.207,-54.8099"/>
<polygon fill="midnightblue" stroke="midnightblue" points="365.324,-38.2644 355.154,-41.232 364.955,-45.2547 365.324,-38.2644"/>
</g>
<!-- Node13 -->
<g id="node13" class="node"><title>Node13</title>
<g id="a_node13"><a xlink:href="../../da/de3/classnars_1_1inference_1_1RuleTables_a3e3eec10853be6dcf8c7532259cf4a84.html#a3e3eec10853be6dcf8c7532259cf4a84" target="_top" xlink:title="The detachment rule, with variable unification. ">
<polygon fill="none" stroke="black" points="391,-0.5 391,-30.5 576,-30.5 576,-0.5 391,-0.5"/>
<text text-anchor="start" x="399" y="-18.5" font-family="Helvetica,sans-Serif" font-size="10.00">nars.inference.RuleTables.detachment</text>
<text text-anchor="middle" x="483.5" y="-7.5" font-family="Helvetica,sans-Serif" font-size="10.00">WithVar</text>
</a>
</g>
</g>
<!-- Node2&#45;&gt;Node13 -->
<g id="edge12" class="edge"><title>Node2&#45;&gt;Node13</title>
<path fill="none" stroke="midnightblue" d="M365.284,-28.524C373.685,-27.5906 382.267,-26.637 390.777,-25.6915"/>
<polygon fill="midnightblue" stroke="midnightblue" points="364.696,-25.0677 355.144,-29.6507 365.469,-32.0249 364.696,-25.0677"/>
</g>
<!-- Node4 -->
<g id="node4" class="node"><title>Node4</title>
<g id="a_node4"><a xlink:href="../../da/de3/classnars_1_1inference_1_1RuleTables_ac2d01dfdc40bdd47c757cb549217e6e3.html#ac2d01dfdc40bdd47c757cb549217e6e3" target="_top" xlink:title="Entry point of the inference engine. ">
<polygon fill="none" stroke="black" points="828,-28 828,-47 991,-47 991,-28 828,-28"/>
<text text-anchor="middle" x="909.5" y="-35" font-family="Helvetica,sans-Serif" font-size="10.00">nars.inference.RuleTables.reason</text>
</a>
</g>
</g>
<!-- Node3&#45;&gt;Node4 -->
<g id="edge3" class="edge"><title>Node3&#45;&gt;Node4</title>
<path fill="none" stroke="midnightblue" d="M801.863,-48.9161C810.598,-47.981 819.37,-47.0419 827.927,-46.1259"/>
<polygon fill="midnightblue" stroke="midnightblue" points="801.212,-45.4657 791.642,-50.0104 801.957,-52.4259 801.212,-45.4657"/>
</g>
<!-- Node5 -->
<g id="node5" class="node"><title>Node5</title>
<g id="a_node5"><a xlink:href="../../d4/d22/classnars_1_1entity_1_1Concept_ae07576c8466ad65eeb61040e3f71cfc7.html#ae07576c8466ad65eeb61040e3f71cfc7" target="_top" xlink:title="An atomic step in a concept, only called in Memory# processConcept. ">
<polygon fill="none" stroke="black" points="1027,-28 1027,-47 1146,-47 1146,-28 1027,-28"/>
<text text-anchor="middle" x="1086.5" y="-35" font-family="Helvetica,sans-Serif" font-size="10.00">nars.entity.Concept.fire</text>
</a>
</g>
</g>
<!-- Node4&#45;&gt;Node5 -->
<g id="edge4" class="edge"><title>Node4&#45;&gt;Node5</title>
<path fill="none" stroke="midnightblue" d="M1001.25,-37.5C1009.91,-37.5 1018.52,-37.5 1026.76,-37.5"/>
<polygon fill="midnightblue" stroke="midnightblue" points="1001.09,-34.0001 991.085,-37.5 1001.08,-41.0001 1001.09,-34.0001"/>
</g>
<!-- Node6 -->
<g id="node6" class="node"><title>Node6</title>
<g id="a_node6"><a xlink:href="../../d8/df4/classnars_1_1storage_1_1Memory_a83154b55b922c82b73931d4f22e3a590.html#a83154b55b922c82b73931d4f22e3a590" target="_top" xlink:title="Select a concept to fire. ">
<polygon fill="none" stroke="black" points="1182,-22.5 1182,-52.5 1328,-52.5 1328,-22.5 1182,-22.5"/>
<text text-anchor="start" x="1190" y="-40.5" font-family="Helvetica,sans-Serif" font-size="10.00">nars.storage.Memory.process</text>
<text text-anchor="middle" x="1255" y="-29.5" font-family="Helvetica,sans-Serif" font-size="10.00">Concept</text>
</a>
</g>
</g>
<!-- Node5&#45;&gt;Node6 -->
<g id="edge5" class="edge"><title>Node5&#45;&gt;Node6</title>
<path fill="none" stroke="midnightblue" d="M1156.34,-37.5C1164.75,-37.5 1173.36,-37.5 1181.82,-37.5"/>
<polygon fill="midnightblue" stroke="midnightblue" points="1156.2,-34.0001 1146.2,-37.5 1156.2,-41.0001 1156.2,-34.0001"/>
</g>
<!-- Node7 -->
<g id="node7" class="node"><title>Node7</title>
<g id="a_node7"><a xlink:href="../../d8/df4/classnars_1_1storage_1_1Memory_a49e2cbc8b78d535f4d69739886ee966a.html#a49e2cbc8b78d535f4d69739886ee966a" target="_top" xlink:title="An atomic working workCycle of the system: process new Tasks, then fire a concept. ">
<polygon fill="none" stroke="black" points="1364,-22.5 1364,-52.5 1497,-52.5 1497,-22.5 1364,-22.5"/>
<text text-anchor="start" x="1372" y="-40.5" font-family="Helvetica,sans-Serif" font-size="10.00">nars.storage.Memory.work</text>
<text text-anchor="middle" x="1430.5" y="-29.5" font-family="Helvetica,sans-Serif" font-size="10.00">Cycle</text>
</a>
</g>
</g>
<!-- Node6&#45;&gt;Node7 -->
<g id="edge6" class="edge"><title>Node6&#45;&gt;Node7</title>
<path fill="none" stroke="midnightblue" d="M1338.12,-37.5C1346.72,-37.5 1355.37,-37.5 1363.76,-37.5"/>
<polygon fill="midnightblue" stroke="midnightblue" points="1338.07,-34.0001 1328.07,-37.5 1338.07,-41.0001 1338.07,-34.0001"/>
</g>
<!-- Node8 -->
<g id="node8" class="node"><title>Node8</title>
<g id="a_node8"><a xlink:href="../../dd/da5/classnars_1_1storage_1_1Memory_1_1ReasonerBatch_acc60dec23da774957a85362ed6d7448b.html#acc60dec23da774957a85362ed6d7448b" target="_top" xlink:title="nars.storage.Memory.Reasoner\lBatch.doTick">
<polygon fill="none" stroke="black" points="1533,-22.5 1533,-52.5 1687,-52.5 1687,-22.5 1533,-22.5"/>
<text text-anchor="start" x="1541" y="-40.5" font-family="Helvetica,sans-Serif" font-size="10.00">nars.storage.Memory.Reasoner</text>
<text text-anchor="middle" x="1610" y="-29.5" font-family="Helvetica,sans-Serif" font-size="10.00">Batch.doTick</text>
</a>
</g>
</g>
<!-- Node7&#45;&gt;Node8 -->
<g id="edge7" class="edge"><title>Node7&#45;&gt;Node8</title>
<path fill="none" stroke="midnightblue" d="M1507.32,-37.5C1515.79,-37.5 1524.41,-37.5 1532.89,-37.5"/>
<polygon fill="midnightblue" stroke="midnightblue" points="1507.09,-34.0001 1497.09,-37.5 1507.09,-41.0001 1507.09,-34.0001"/>
</g>
<!-- Node9 -->
<g id="node9" class="node"><title>Node9</title>
<g id="a_node9"><a xlink:href="../../dd/da5/classnars_1_1storage_1_1Memory_1_1ReasonerBatch_aed591f05899b98fd9e4ad01836ad0a40.html#aed591f05899b98fd9e4ad01836ad0a40" target="_top" xlink:title="A clock tick. ">
<polygon fill="none" stroke="black" points="1723,-22.5 1723,-52.5 1877,-52.5 1877,-22.5 1723,-22.5"/>
<text text-anchor="start" x="1731" y="-40.5" font-family="Helvetica,sans-Serif" font-size="10.00">nars.storage.Memory.Reasoner</text>
<text text-anchor="middle" x="1800" y="-29.5" font-family="Helvetica,sans-Serif" font-size="10.00">Batch.tick</text>
</a>
</g>
</g>
<!-- Node8&#45;&gt;Node9 -->
<g id="edge8" class="edge"><title>Node8&#45;&gt;Node9</title>
<path fill="none" stroke="midnightblue" d="M1697.42,-37.5C1705.86,-37.5 1714.37,-37.5 1722.7,-37.5"/>
<polygon fill="midnightblue" stroke="midnightblue" points="1697.2,-34.0001 1687.2,-37.5 1697.2,-41.0001 1697.2,-34.0001"/>
</g>
<!-- Node10 -->
<g id="node10" class="node"><title>Node10</title>
<g id="a_node10"><a xlink:href="../../d4/d88/classnars_1_1storage_1_1Memory_1_1NARSBatch_aad99db6cedde9cff2a997db8906ff821.html#aad99db6cedde9cff2a997db8906ff821" target="_top" xlink:title="Run to completion: repeatedly execute NARS working cycle, until Inputs are Finished, or 1000 steps. ">
<polygon fill="none" stroke="black" points="1913,-28 1913,-47 2095,-47 2095,-28 1913,-28"/>
<text text-anchor="middle" x="2004" y="-35" font-family="Helvetica,sans-Serif" font-size="10.00">nars.storage.Memory.NARSBatch.run</text>
</a>
</g>
</g>
<!-- Node9&#45;&gt;Node10 -->
<g id="edge9" class="edge"><title>Node9&#45;&gt;Node10</title>
<path fill="none" stroke="midnightblue" d="M1887.27,-37.5C1895.69,-37.5 1904.25,-37.5 1912.71,-37.5"/>
<polygon fill="midnightblue" stroke="midnightblue" points="1887.08,-34.0001 1877.08,-37.5 1887.08,-41.0001 1887.08,-34.0001"/>
</g>
<!-- Node11 -->
<g id="node11" class="node"><title>Node11</title>
<g id="a_node11"><a xlink:href="../../d4/d88/classnars_1_1storage_1_1Memory_1_1NARSBatch_a416c39463faa161661ed1d12fea03b3c.html#a416c39463faa161661ed1d12fea03b3c" target="_top" xlink:title="non&#45;static equivalent to main(String[]) : run to completion from an input file ">
<polygon fill="none" stroke="black" points="2131,-22.5 2131,-52.5 2313,-52.5 2313,-22.5 2131,-22.5"/>
<text text-anchor="start" x="2139" y="-40.5" font-family="Helvetica,sans-Serif" font-size="10.00">nars.storage.Memory.NARSBatch.run</text>
<text text-anchor="middle" x="2222" y="-29.5" font-family="Helvetica,sans-Serif" font-size="10.00">Inference</text>
</a>
</g>
</g>
<!-- Node10&#45;&gt;Node11 -->
<g id="edge10" class="edge"><title>Node10&#45;&gt;Node11</title>
<path fill="none" stroke="midnightblue" d="M2105.06,-37.5C2113.63,-37.5 2122.27,-37.5 2130.76,-37.5"/>
<polygon fill="midnightblue" stroke="midnightblue" points="2105.04,-34.0001 2095.04,-37.5 2105.04,-41.0001 2105.04,-34.0001"/>
</g>
<!-- Node12 -->
<g id="node12" class="node"><title>Node12</title>
<g id="a_node12"><a xlink:href="../../d4/d88/classnars_1_1storage_1_1Memory_1_1NARSBatch_aa97fcd68270583e60e6bf1b4579d1bdc.html#aa97fcd68270583e60e6bf1b4579d1bdc" target="_top" xlink:title="The entry point of the standalone application. ">
<polygon fill="none" stroke="black" points="2349,-28 2349,-47 2539,-47 2539,-28 2349,-28"/>
<text text-anchor="middle" x="2444" y="-35" font-family="Helvetica,sans-Serif" font-size="10.00">nars.storage.Memory.NARSBatch.main</text>
</a>
</g>
</g>
<!-- Node11&#45;&gt;Node12 -->
<g id="edge11" class="edge"><title>Node11&#45;&gt;Node12</title>
<path fill="none" stroke="midnightblue" d="M2323.37,-37.5C2331.82,-37.5 2340.34,-37.5 2348.74,-37.5"/>
<polygon fill="midnightblue" stroke="midnightblue" points="2323.12,-34.0001 2313.12,-37.5 2323.12,-41.0001 2323.12,-34.0001"/>
</g>
<!-- Node14 -->
<g id="node14" class="node"><title>Node14</title>
<g id="a_node14"><a xlink:href="../../da/de3/classnars_1_1inference_1_1RuleTables_a8628d400a8ceda7fea05039ddfea319b.html#a8628d400a8ceda7fea05039ddfea319b" target="_top" xlink:title="Meta&#45;table of syllogistic rules, indexed by the content classes of the taskSentence and the belief...">
<polygon fill="none" stroke="black" points="612,-6 612,-25 792,-25 792,-6 612,-6"/>
<text text-anchor="middle" x="702" y="-13" font-family="Helvetica,sans-Serif" font-size="10.00">nars.inference.RuleTables.syllogisms</text>
</a>
</g>
</g>
<!-- Node13&#45;&gt;Node14 -->
<g id="edge13" class="edge"><title>Node13&#45;&gt;Node14</title>
<path fill="none" stroke="midnightblue" d="M586.084,-15.5C594.705,-15.5 603.383,-15.5 611.898,-15.5"/>
<polygon fill="midnightblue" stroke="midnightblue" points="586.002,-12.0001 576.002,-15.5 586.002,-19.0001 586.002,-12.0001"/>
</g>
<!-- Node14&#45;&gt;Node4 -->
<g id="edge14" class="edge"><title>Node14&#45;&gt;Node4</title>
<path fill="none" stroke="midnightblue" d="M802.053,-26.1042C810.694,-27.0293 819.37,-27.9581 827.836,-28.8645"/>
<polygon fill="midnightblue" stroke="midnightblue" points="802.256,-22.606 791.94,-25.0216 801.511,-29.5662 802.256,-22.606"/>
</g>
</g>
</svg>
