<?xml version="1.0" encoding="UTF-8" standalone="no"?>
<!DOCTYPE svg PUBLIC "-//W3C//DTD SVG 1.1//EN"
 "http://www.w3.org/Graphics/SVG/1.1/DTD/svg11.dtd">
<!-- Generated by graphviz version 2.38.0 (20140413.2041)
 -->
<!-- Title: nars.language.CompoundTerm.make Pages: 1 -->
<svg width="1044pt" height="491pt"
 viewBox="0.00 0.00 1044.00 491.00" xmlns="http://www.w3.org/2000/svg" xmlns:xlink="http://www.w3.org/1999/xlink">
<g id="graph0" class="graph" transform="scale(1 1) rotate(0) translate(4 487)">
<title>nars.language.CompoundTerm.make</title>
<!-- Node1 -->
<g id="node1" class="node"><title>Node1</title>
<polygon fill="#bfbfbf" stroke="black" points="-1.13687e-13,-231.5 -1.13687e-13,-250.5 177,-250.5 177,-231.5 -1.13687e-13,-231.5"/>
<text text-anchor="middle" x="88.5" y="-238.5" font-family="Helvetica,sans-Serif" font-size="10.00">nars.language.CompoundTerm.make</text>
</g>
<!-- Node2 -->
<g id="node2" class="node"><title>Node2</title>
<g id="a_node2"><a xlink:href="../../de/d1d/classnars_1_1language_1_1SetExt_aa8f6526a59c3d7e578dd76a0eab75a0e.html#aa8f6526a59c3d7e578dd76a0eab75a0e" target="_top" xlink:title="Try to make a new set from one component. ">
<polygon fill="none" stroke="black" points="224,-463.5 224,-482.5 361,-482.5 361,-463.5 224,-463.5"/>
<text text-anchor="middle" x="292.5" y="-470.5" font-family="Helvetica,sans-Serif" font-size="10.00">nars.language.SetExt.make</text>
</a>
</g>
</g>
<!-- Node1&#45;&gt;Node2 -->
<g id="edge1" class="edge"><title>Node1&#45;&gt;Node2</title>
<path fill="none" stroke="midnightblue" d="M92.1847,-250.929C101.96,-285.099 139.02,-398.756 213,-454 215.503,-455.869 218.166,-457.557 220.94,-459.081"/>
<polygon fill="midnightblue" stroke="midnightblue" points="219.588,-462.313 230.126,-463.411 222.573,-455.981 219.588,-462.313"/>
</g>
<!-- Node3 -->
<g id="node3" class="node"><title>Node3</title>
<g id="a_node3"><a xlink:href="../../da/d1e/classnars_1_1language_1_1Negation_a8c1310db584c5aebf595b305a41ad359.html#a8c1310db584c5aebf595b305a41ad359" target="_top" xlink:title="Try to make a Negation of one component. ">
<polygon fill="none" stroke="black" points="219.5,-425.5 219.5,-444.5 365.5,-444.5 365.5,-425.5 219.5,-425.5"/>
<text text-anchor="middle" x="292.5" y="-432.5" font-family="Helvetica,sans-Serif" font-size="10.00">nars.language.Negation.make</text>
</a>
</g>
</g>
<!-- Node1&#45;&gt;Node3 -->
<g id="edge2" class="edge"><title>Node1&#45;&gt;Node3</title>
<path fill="none" stroke="midnightblue" d="M93.4123,-250.805C105.891,-280.756 147.796,-371.692 213,-416 215.93,-417.991 219.047,-419.774 222.284,-421.371"/>
<polygon fill="midnightblue" stroke="midnightblue" points="221.104,-424.673 231.674,-425.396 223.862,-418.239 221.104,-424.673"/>
</g>
<!-- Node4 -->
<g id="node4" class="node"><title>Node4</title>
<g id="a_node4"><a xlink:href="../../d2/dfc/classnars_1_1language_1_1SetInt_aaea0f2cc2ca804779d1bf346beb58fa1.html#aaea0f2cc2ca804779d1bf346beb58fa1" target="_top" xlink:title="Try to make a new set from one component. ">
<polygon fill="none" stroke="black" points="225.5,-387.5 225.5,-406.5 359.5,-406.5 359.5,-387.5 225.5,-387.5"/>
<text text-anchor="middle" x="292.5" y="-394.5" font-family="Helvetica,sans-Serif" font-size="10.00">nars.language.SetInt.make</text>
</a>
</g>
</g>
<!-- Node1&#45;&gt;Node4 -->
<g id="edge3" class="edge"><title>Node1&#45;&gt;Node4</title>
<path fill="none" stroke="midnightblue" d="M95.3078,-250.773C110.894,-276.1 156.33,-344.236 213,-378 216.659,-380.18 220.555,-382.11 224.58,-383.819"/>
<polygon fill="midnightblue" stroke="midnightblue" points="223.563,-387.176 234.155,-387.419 226.026,-380.624 223.563,-387.176"/>
</g>
<!-- Node5 -->
<g id="node5" class="node"><title>Node5</title>
<g id="a_node5"><a xlink:href="../../d4/d5b/classnars_1_1language_1_1DifferenceInt_a95a7042bd4175009db4d4d6cb2850a10.html#a95a7042bd4175009db4d4d6cb2850a10" target="_top" xlink:title="Try to make a new DifferenceExt. ">
<polygon fill="none" stroke="black" points="230,-202 230,-232 355,-232 355,-202 230,-202"/>
<text text-anchor="start" x="238" y="-220" font-family="Helvetica,sans-Serif" font-size="10.00">nars.language.Difference</text>
<text text-anchor="middle" x="292.5" y="-209" font-family="Helvetica,sans-Serif" font-size="10.00">Int.make</text>
</a>
</g>
</g>
<!-- Node1&#45;&gt;Node5 -->
<g id="edge4" class="edge"><title>Node1&#45;&gt;Node5</title>
<path fill="none" stroke="midnightblue" d="M169.626,-231.48C186.228,-229.508 203.616,-227.442 219.89,-225.508"/>
<polygon fill="midnightblue" stroke="midnightblue" points="220.344,-228.979 229.861,-224.323 219.518,-222.028 220.344,-228.979"/>
</g>
<!-- Node14 -->
<g id="node14" class="node"><title>Node14</title>
<g id="a_node14"><a xlink:href="../../d3/d12/classnars_1_1language_1_1DifferenceExt_ad52f31a8b4209efc46c918c21120179d.html#ad52f31a8b4209efc46c918c21120179d" target="_top" xlink:title="Try to make a new DifferenceExt. ">
<polygon fill="none" stroke="black" points="230,-153 230,-183 355,-183 355,-153 230,-153"/>
<text text-anchor="start" x="238" y="-171" font-family="Helvetica,sans-Serif" font-size="10.00">nars.language.Difference</text>
<text text-anchor="middle" x="292.5" y="-160" font-family="Helvetica,sans-Serif" font-size="10.00">Ext.make</text>
</a>
</g>
</g>
<!-- Node1&#45;&gt;Node14 -->
<g id="edge14" class="edge"><title>Node1&#45;&gt;Node14</title>
<path fill="none" stroke="midnightblue" d="M113.012,-231.357C137.739,-221.335 177.862,-205.41 213,-193 219.343,-190.76 226.005,-188.499 232.654,-186.301"/>
<polygon fill="midnightblue" stroke="midnightblue" points="233.93,-189.566 242.349,-183.134 231.756,-182.912 233.93,-189.566"/>
</g>
<!-- Node16 -->
<g id="node16" class="node"><title>Node16</title>
<g id="a_node16"><a xlink:href="../../d9/d5d/classnars_1_1language_1_1Disjunction_a40b5b22629a8aa0f93da2439b201f59a.html#a40b5b22629a8aa0f93da2439b201f59a" target="_top" xlink:title="Try to make a new Disjunction from two components. ">
<polygon fill="none" stroke="black" points="214.5,-349.5 214.5,-368.5 370.5,-368.5 370.5,-349.5 214.5,-349.5"/>
<text text-anchor="middle" x="292.5" y="-356.5" font-family="Helvetica,sans-Serif" font-size="10.00">nars.language.Disjunction.make</text>
</a>
</g>
</g>
<!-- Node1&#45;&gt;Node16 -->
<g id="edge18" class="edge"><title>Node1&#45;&gt;Node16</title>
<path fill="none" stroke="midnightblue" d="M98.4132,-250.548C117.469,-270.373 164.411,-316.132 213,-340 217.877,-342.396 223.076,-344.501 228.388,-346.35"/>
<polygon fill="midnightblue" stroke="midnightblue" points="227.436,-349.72 238.026,-349.407 229.553,-343.047 227.436,-349.72"/>
</g>
<!-- Node22 -->
<g id="node22" class="node"><title>Node22</title>
<g id="a_node22"><a xlink:href="../../d9/df4/classnars_1_1language_1_1IntersectionInt_acc3bb6e31a10d204254e827435391988.html#acc3bb6e31a10d204254e827435391988" target="_top" xlink:title="Try to make a new compound from two components. ">
<polygon fill="none" stroke="black" points="227,-251 227,-281 358,-281 358,-251 227,-251"/>
<text text-anchor="start" x="235" y="-269" font-family="Helvetica,sans-Serif" font-size="10.00">nars.language.Intersection</text>
<text text-anchor="middle" x="292.5" y="-258" font-family="Helvetica,sans-Serif" font-size="10.00">Int.make</text>
</a>
</g>
</g>
<!-- Node1&#45;&gt;Node22 -->
<g id="edge25" class="edge"><title>Node1&#45;&gt;Node22</title>
<path fill="none" stroke="midnightblue" d="M166.444,-250.523C182.971,-252.568 200.411,-254.727 216.849,-256.761"/>
<polygon fill="midnightblue" stroke="midnightblue" points="216.584,-260.255 226.938,-258.01 217.444,-253.308 216.584,-260.255"/>
</g>
<!-- Node23 -->
<g id="node23" class="node"><title>Node23</title>
<g id="a_node23"><a xlink:href="../../d8/d73/classnars_1_1language_1_1Product_a7cdc5cc66b8a8083cfab9abf39b529c7.html#a7cdc5cc66b8a8083cfab9abf39b529c7" target="_top" xlink:title="Try to make a new compound. ">
<polygon fill="none" stroke="black" points="222,-114.5 222,-133.5 363,-133.5 363,-114.5 222,-114.5"/>
<text text-anchor="middle" x="292.5" y="-121.5" font-family="Helvetica,sans-Serif" font-size="10.00">nars.language.Product.make</text>
</a>
</g>
</g>
<!-- Node1&#45;&gt;Node23 -->
<g id="edge29" class="edge"><title>Node1&#45;&gt;Node23</title>
<path fill="none" stroke="midnightblue" d="M98.7722,-231.403C118.135,-211.927 165.062,-167.61 213,-144 218.713,-141.186 224.861,-138.742 231.111,-136.625"/>
<polygon fill="midnightblue" stroke="midnightblue" points="232.459,-139.872 240.97,-133.561 230.381,-133.187 232.459,-139.872"/>
</g>
<!-- Node25 -->
<g id="node25" class="node"><title>Node25</title>
<g id="a_node25"><a xlink:href="../../d2/d68/classnars_1_1language_1_1IntersectionExt_a84dcdd3c63e7219e8c3da43e163f2d78.html#a84dcdd3c63e7219e8c3da43e163f2d78" target="_top" xlink:title="Try to make a new compound from two components. ">
<polygon fill="none" stroke="black" points="227,-300 227,-330 358,-330 358,-300 227,-300"/>
<text text-anchor="start" x="235" y="-318" font-family="Helvetica,sans-Serif" font-size="10.00">nars.language.Intersection</text>
<text text-anchor="middle" x="292.5" y="-307" font-family="Helvetica,sans-Serif" font-size="10.00">Ext.make</text>
</a>
</g>
</g>
<!-- Node1&#45;&gt;Node25 -->
<g id="edge33" class="edge"><title>Node1&#45;&gt;Node25</title>
<path fill="none" stroke="midnightblue" d="M111.585,-250.628C136.121,-261.162 177.027,-278.247 213,-291 218.507,-292.952 224.264,-294.895 230.049,-296.781"/>
<polygon fill="midnightblue" stroke="midnightblue" points="229.181,-300.178 239.772,-299.893 231.315,-293.511 229.181,-300.178"/>
</g>
<!-- Node26 -->
<g id="node26" class="node"><title>Node26</title>
<g id="a_node26"><a xlink:href="../../db/dbb/classnars_1_1language_1_1ImageExt_afb24af5cc6c098ad3f5d837fa383e69c.html#afb24af5cc6c098ad3f5d837fa383e69c" target="_top" xlink:title="Try to make a new ImageExt. ">
<polygon fill="none" stroke="black" points="218,-76.5 218,-95.5 367,-95.5 367,-76.5 218,-76.5"/>
<text text-anchor="middle" x="292.5" y="-83.5" font-family="Helvetica,sans-Serif" font-size="10.00">nars.language.ImageExt.make</text>
</a>
</g>
</g>
<!-- Node1&#45;&gt;Node26 -->
<g id="edge37" class="edge"><title>Node1&#45;&gt;Node26</title>
<path fill="none" stroke="midnightblue" d="M95.3268,-231.299C110.959,-206.159 156.496,-138.525 213,-105 216.663,-102.827 220.562,-100.902 224.589,-99.1964"/>
<polygon fill="midnightblue" stroke="midnightblue" points="226.034,-102.393 234.168,-95.6036 223.576,-95.8383 226.034,-102.393"/>
</g>
<!-- Node27 -->
<g id="node27" class="node"><title>Node27</title>
<g id="a_node27"><a xlink:href="../../df/de3/classnars_1_1language_1_1ImageInt_ad05e4231ed31d78ad4c8b4fefbc964fa.html#ad05e4231ed31d78ad4c8b4fefbc964fa" target="_top" xlink:title="Try to make a new ImageExt. ">
<polygon fill="none" stroke="black" points="219.5,-38.5 219.5,-57.5 365.5,-57.5 365.5,-38.5 219.5,-38.5"/>
<text text-anchor="middle" x="292.5" y="-45.5" font-family="Helvetica,sans-Serif" font-size="10.00">nars.language.ImageInt.make</text>
</a>
</g>
</g>
<!-- Node1&#45;&gt;Node27 -->
<g id="edge38" class="edge"><title>Node1&#45;&gt;Node27</title>
<path fill="none" stroke="midnightblue" d="M93.429,-231.25C105.956,-201.47 147.985,-111.052 213,-67 215.933,-65.0128 219.052,-63.2327 222.291,-61.6383"/>
<polygon fill="midnightblue" stroke="midnightblue" points="223.867,-64.7707 231.684,-57.6187 221.113,-58.3352 223.867,-64.7707"/>
</g>
<!-- Node28 -->
<g id="node28" class="node"><title>Node28</title>
<g id="a_node28"><a xlink:href="../../d6/d98/classnars_1_1language_1_1Conjunction_af8d44d1d196f833eefa37078a94b3ed3.html#af8d44d1d196f833eefa37078a94b3ed3" target="_top" xlink:title="Try to make a new compound from a list of components. ">
<polygon fill="none" stroke="black" points="213,-0.5 213,-19.5 372,-19.5 372,-0.5 213,-0.5"/>
<text text-anchor="middle" x="292.5" y="-7.5" font-family="Helvetica,sans-Serif" font-size="10.00">nars.language.Conjunction.make</text>
</a>
</g>
</g>
<!-- Node1&#45;&gt;Node28 -->
<g id="edge39" class="edge"><title>Node1&#45;&gt;Node28</title>
<path fill="none" stroke="midnightblue" d="M92.1997,-231.117C102.024,-197.105 139.224,-83.9743 213,-29 215.505,-27.1332 218.169,-25.4475 220.945,-23.9254"/>
<polygon fill="midnightblue" stroke="midnightblue" points="222.577,-27.0256 230.134,-19.5999 219.596,-20.6921 222.577,-27.0256"/>
</g>
<!-- Node6 -->
<g id="node6" class="node"><title>Node6</title>
<g id="a_node6"><a xlink:href="../../d0/dee/classnars_1_1language_1_1CompoundTerm_a8d1e610c509fa096c6b52eb5fe06d59b.html#a8d1e610c509fa096c6b52eb5fe06d59b" target="_top" xlink:title="default method to make the oldName of a compound term from given fields ">
<polygon fill="none" stroke="black" points="408,-155 408,-185 585,-185 585,-155 408,-155"/>
<text text-anchor="start" x="416" y="-173" font-family="Helvetica,sans-Serif" font-size="10.00">nars.language.CompoundTerm.make</text>
<text text-anchor="middle" x="496.5" y="-162" font-family="Helvetica,sans-Serif" font-size="10.00">CompoundName</text>
</a>
</g>
</g>
<!-- Node5&#45;&gt;Node6 -->
<g id="edge5" class="edge"><title>Node5&#45;&gt;Node6</title>
<path fill="none" stroke="midnightblue" d="M355.204,-202.643C376.032,-197.797 399.5,-192.337 421.198,-187.288"/>
<polygon fill="midnightblue" stroke="midnightblue" points="422.08,-190.677 431.026,-185.001 420.493,-183.859 422.08,-190.677"/>
</g>
<!-- Node9 -->
<g id="node9" class="node"><title>Node9</title>
<g id="a_node9"><a xlink:href="../../d8/df4/classnars_1_1storage_1_1Memory_a63058cc52d77412e0aead8387c23aa93.html#a63058cc52d77412e0aead8387c23aa93" target="_top" xlink:title="Get a Term for a given name of a Concept or Operator. ">
<polygon fill="none" stroke="black" points="428.5,-106 428.5,-136 564.5,-136 564.5,-106 428.5,-106"/>
<text text-anchor="start" x="436.5" y="-124" font-family="Helvetica,sans-Serif" font-size="10.00">nars.storage.Memory.name</text>
<text text-anchor="middle" x="496.5" y="-113" font-family="Helvetica,sans-Serif" font-size="10.00">ToListedTerm</text>
</a>
</g>
</g>
<!-- Node5&#45;&gt;Node9 -->
<g id="edge9" class="edge"><title>Node5&#45;&gt;Node9</title>
<path fill="none" stroke="midnightblue" d="M355.244,-202.241C361.15,-199.632 366.849,-196.576 372,-193 393.613,-177.993 386.25,-160.808 408,-146 411.526,-143.599 415.282,-141.427 419.179,-139.462"/>
<polygon fill="midnightblue" stroke="midnightblue" points="420.827,-142.558 428.49,-135.241 417.937,-136.182 420.827,-142.558"/>
</g>
<!-- Node13 -->
<g id="node13" class="node"><title>Node13</title>
<g id="a_node13"><a xlink:href="../../d4/d5b/classnars_1_1language_1_1DifferenceInt_a0b2717ba85fc941ad8ec3e93e71fb2e3.html#a0b2717ba85fc941ad8ec3e93e71fb2e3" target="_top" xlink:title="Constructor with partial values, called by make. ">
<polygon fill="none" stroke="black" points="434,-204 434,-234 559,-234 559,-204 434,-204"/>
<text text-anchor="start" x="442" y="-222" font-family="Helvetica,sans-Serif" font-size="10.00">nars.language.Difference</text>
<text text-anchor="middle" x="496.5" y="-211" font-family="Helvetica,sans-Serif" font-size="10.00">Int.DifferenceInt</text>
</a>
</g>
</g>
<!-- Node5&#45;&gt;Node13 -->
<g id="edge13" class="edge"><title>Node5&#45;&gt;Node13</title>
<path fill="none" stroke="midnightblue" d="M355.204,-217.611C376.836,-217.825 401.318,-218.068 423.705,-218.289"/>
<polygon fill="midnightblue" stroke="midnightblue" points="423.792,-221.79 433.826,-218.389 423.861,-214.79 423.792,-221.79"/>
</g>
<!-- Node7 -->
<g id="node7" class="node"><title>Node7</title>
<g id="a_node7"><a xlink:href="../../d0/dee/classnars_1_1language_1_1CompoundTerm_a89000afae8017231889aaa549292d1e0.html#a89000afae8017231889aaa549292d1e0" target="_top" xlink:title="Default constructor. ">
<polygon fill="none" stroke="black" points="646,-267 646,-297 799,-297 799,-267 646,-267"/>
<text text-anchor="start" x="654" y="-285" font-family="Helvetica,sans-Serif" font-size="10.00">nars.language.CompoundTerm.</text>
<text text-anchor="middle" x="722.5" y="-274" font-family="Helvetica,sans-Serif" font-size="10.00">CompoundTerm</text>
</a>
</g>
</g>
<!-- Node6&#45;&gt;Node7 -->
<g id="edge6" class="edge"><title>Node6&#45;&gt;Node7</title>
<path fill="none" stroke="midnightblue" d="M559.031,-185.134C567.895,-188.015 576.788,-191.304 585,-195 625.005,-213.003 666.977,-241.4 693.642,-260.821"/>
<polygon fill="midnightblue" stroke="midnightblue" points="691.612,-263.673 701.739,-266.786 695.764,-258.037 691.612,-263.673"/>
</g>
<!-- Node8 -->
<g id="node8" class="node"><title>Node8</title>
<g id="a_node8"><a xlink:href="../../d0/dee/classnars_1_1language_1_1CompoundTerm_aa26a304f6249c185836d8fde8b8f17a8.html#aa26a304f6249c185836d8fde8b8f17a8" target="_top" xlink:title="default method to make the oldName of the current term from existing fields ">
<polygon fill="none" stroke="black" points="621,-160.5 621,-179.5 824,-179.5 824,-160.5 621,-160.5"/>
<text text-anchor="middle" x="722.5" y="-167.5" font-family="Helvetica,sans-Serif" font-size="10.00">nars.language.CompoundTerm.makeName</text>
</a>
</g>
</g>
<!-- Node6&#45;&gt;Node8 -->
<g id="edge7" class="edge"><title>Node6&#45;&gt;Node8</title>
<path fill="none" stroke="midnightblue" d="M585.067,-163.395C593.533,-163.293 602.196,-163.245 610.848,-163.25"/>
<polygon fill="midnightblue" stroke="midnightblue" points="610.976,-166.751 620.987,-163.282 610.998,-159.751 610.976,-166.751"/>
</g>
<!-- Node8&#45;&gt;Node6 -->
<g id="edge8" class="edge"><title>Node8&#45;&gt;Node6</title>
<path fill="none" stroke="midnightblue" d="M620.987,-176.718C612.375,-176.766 603.672,-176.76 595.083,-176.7"/>
<polygon fill="midnightblue" stroke="midnightblue" points="595.099,-173.2 585.067,-176.605 595.033,-180.2 595.099,-173.2"/>
</g>
<!-- Node10 -->
<g id="node10" class="node"><title>Node10</title>
<g id="a_node10"><a xlink:href="../../d8/df4/classnars_1_1storage_1_1Memory_a33af7b3d806d32c85390563fec3c6d27.html#a33af7b3d806d32c85390563fec3c6d27" target="_top" xlink:title="Concept bag. ">
<polygon fill="none" stroke="black" points="639,-122.5 639,-141.5 806,-141.5 806,-122.5 639,-122.5"/>
<text text-anchor="middle" x="722.5" y="-129.5" font-family="Helvetica,sans-Serif" font-size="10.00">nars.storage.Memory.getConcepts</text>
</a>
</g>
</g>
<!-- Node9&#45;&gt;Node10 -->
<g id="edge10" class="edge"><title>Node9&#45;&gt;Node10</title>
<path fill="none" stroke="midnightblue" d="M564.707,-124.3C584.844,-125.289 607.292,-126.392 628.767,-127.446"/>
<polygon fill="midnightblue" stroke="midnightblue" points="628.724,-130.948 638.884,-127.943 629.067,-123.957 628.724,-130.948"/>
</g>
<!-- Node11 -->
<g id="node11" class="node"><title>Node11</title>
<g id="a_node11"><a xlink:href="../../d9/d37/classnars_1_1storage_1_1Bag_a011b37fc683db7fb7b41e33712a37d92.html#a011b37fc683db7fb7b41e33712a37d92" target="_top" xlink:title="Get an Item by key. ">
<polygon fill="none" stroke="black" points="669,-84.5 669,-103.5 776,-103.5 776,-84.5 669,-84.5"/>
<text text-anchor="middle" x="722.5" y="-91.5" font-family="Helvetica,sans-Serif" font-size="10.00">nars.storage.Bag.get</text>
</a>
</g>
</g>
<!-- Node9&#45;&gt;Node11 -->
<g id="edge11" class="edge"><title>Node9&#45;&gt;Node11</title>
<path fill="none" stroke="midnightblue" d="M564.707,-112.899C594.564,-109.3 629.505,-105.089 658.816,-101.556"/>
<polygon fill="midnightblue" stroke="midnightblue" points="659.422,-105.008 668.931,-100.336 658.584,-98.0584 659.422,-105.008"/>
</g>
<!-- Node12 -->
<g id="node12" class="node"><title>Node12</title>
<g id="a_node12"><a xlink:href="../../d4/d22/classnars_1_1entity_1_1Concept_afcd1217b7680b073fa51f0d0f159dcea.html#afcd1217b7680b073fa51f0d0f159dcea" target="_top" xlink:title="Return the associated term, called from Memory only. ">
<polygon fill="none" stroke="black" points="652,-46.5 652,-65.5 793,-65.5 793,-46.5 652,-46.5"/>
<text text-anchor="middle" x="722.5" y="-53.5" font-family="Helvetica,sans-Serif" font-size="10.00">nars.entity.Concept.getTerm</text>
</a>
</g>
</g>
<!-- Node9&#45;&gt;Node12 -->
<g id="edge12" class="edge"><title>Node9&#45;&gt;Node12</title>
<path fill="none" stroke="midnightblue" d="M557.968,-105.869C567.157,-102.957 576.426,-99.6572 585,-96 602.038,-88.7324 603.648,-81.4812 621,-75 628.252,-72.2915 635.948,-69.9544 643.727,-67.9409"/>
<polygon fill="midnightblue" stroke="midnightblue" points="644.697,-71.3073 653.597,-65.5599 643.056,-64.5025 644.697,-71.3073"/>
</g>
<!-- Node14&#45;&gt;Node6 -->
<g id="edge15" class="edge"><title>Node14&#45;&gt;Node6</title>
<path fill="none" stroke="midnightblue" d="M355.204,-168.611C368.685,-168.744 383.272,-168.889 397.769,-169.032"/>
<polygon fill="midnightblue" stroke="midnightblue" points="397.742,-172.532 407.777,-169.131 397.812,-165.533 397.742,-172.532"/>
</g>
<!-- Node14&#45;&gt;Node9 -->
<g id="edge16" class="edge"><title>Node14&#45;&gt;Node9</title>
<path fill="none" stroke="midnightblue" d="M355.204,-153.643C376.032,-148.797 399.5,-143.337 421.198,-138.288"/>
<polygon fill="midnightblue" stroke="midnightblue" points="422.08,-141.677 431.026,-136.001 420.493,-134.859 422.08,-141.677"/>
</g>
<!-- Node15 -->
<g id="node15" class="node"><title>Node15</title>
<g id="a_node15"><a xlink:href="../../d3/d12/classnars_1_1language_1_1DifferenceExt_adff82f0809669284ade79e6d22576777.html#adff82f0809669284ade79e6d22576777" target="_top" xlink:title="Constructor with partial values, called by make. ">
<polygon fill="none" stroke="black" points="434,-57 434,-87 559,-87 559,-57 434,-57"/>
<text text-anchor="start" x="442" y="-75" font-family="Helvetica,sans-Serif" font-size="10.00">nars.language.Difference</text>
<text text-anchor="middle" x="496.5" y="-64" font-family="Helvetica,sans-Serif" font-size="10.00">Ext.DifferenceExt</text>
</a>
</g>
</g>
<!-- Node14&#45;&gt;Node15 -->
<g id="edge17" class="edge"><title>Node14&#45;&gt;Node15</title>
<path fill="none" stroke="midnightblue" d="M354.037,-152.949C360.375,-150.155 366.501,-146.866 372,-143 393.526,-127.867 386.172,-110.692 408,-96 413.145,-92.5367 418.778,-89.571 424.626,-87.0318"/>
<polygon fill="midnightblue" stroke="midnightblue" points="425.917,-90.2852 433.955,-83.3824 423.367,-83.7663 425.917,-90.2852"/>
</g>
<!-- Node16&#45;&gt;Node7 -->
<g id="edge19" class="edge"><title>Node16&#45;&gt;Node7</title>
<path fill="none" stroke="midnightblue" d="M347.453,-368.587C355.902,-371.065 364.359,-374.156 372,-378 390.606,-387.36 388.417,-400.91 408,-408 481.968,-434.78 519.136,-451.016 585,-408 618.324,-386.236 592.841,-354.13 621,-326 631.456,-315.555 644.806,-307.399 658.336,-301.105"/>
<polygon fill="midnightblue" stroke="midnightblue" points="659.92,-304.233 667.698,-297.039 657.131,-297.812 659.92,-304.233"/>
</g>
<!-- Node17 -->
<g id="node17" class="node"><title>Node17</title>
<g id="a_node17"><a xlink:href="../../d0/dee/classnars_1_1language_1_1CompoundTerm_a5923e4b211c0c1e1e53b39ebed2c7be1.html#a5923e4b211c0c1e1e53b39ebed2c7be1" target="_top" xlink:title="Clone the component list. ">
<polygon fill="none" stroke="black" points="408.5,-330 408.5,-360 584.5,-360 584.5,-330 408.5,-330"/>
<text text-anchor="start" x="416.5" y="-348" font-family="Helvetica,sans-Serif" font-size="10.00">nars.language.CompoundTerm.clone</text>
<text text-anchor="middle" x="496.5" y="-337" font-family="Helvetica,sans-Serif" font-size="10.00">Components</text>
</a>
</g>
</g>
<!-- Node16&#45;&gt;Node17 -->
<g id="edge20" class="edge"><title>Node16&#45;&gt;Node17</title>
<path fill="none" stroke="midnightblue" d="M370.732,-353.647C379.729,-353.024 388.993,-352.382 398.216,-351.742"/>
<polygon fill="midnightblue" stroke="midnightblue" points="398.459,-355.234 408.193,-351.051 397.975,-348.251 398.459,-355.234"/>
</g>
<!-- Node20 -->
<g id="node20" class="node"><title>Node20</title>
<g id="a_node20"><a xlink:href="../../d8/db8/classnars_1_1language_1_1Term_ae2dba162b71bb9b806f54832249a260c.html#ae2dba162b71bb9b806f54832249a260c" target="_top" xlink:title="Make a new Term with the same name. ">
<polygon fill="none" stroke="black" points="432,-379.5 432,-398.5 561,-398.5 561,-379.5 432,-379.5"/>
<text text-anchor="middle" x="496.5" y="-386.5" font-family="Helvetica,sans-Serif" font-size="10.00">nars.language.Term.clone</text>
</a>
</g>
</g>
<!-- Node16&#45;&gt;Node20 -->
<g id="edge23" class="edge"><title>Node16&#45;&gt;Node20</title>
<path fill="none" stroke="midnightblue" d="M357.692,-368.533C378.044,-371.556 400.706,-374.922 421.679,-378.036"/>
<polygon fill="midnightblue" stroke="midnightblue" points="421.416,-381.536 431.822,-379.543 422.444,-374.612 421.416,-381.536"/>
</g>
<!-- Node18 -->
<g id="node18" class="node"><title>Node18</title>
<g id="a_node18"><a xlink:href="../../d0/dee/classnars_1_1language_1_1CompoundTerm_a4f199daa7588f86b81b0912a5e52dfe0.html#a4f199daa7588f86b81b0912a5e52dfe0" target="_top" xlink:title="Deep clone an array list of terms. ">
<polygon fill="none" stroke="black" points="626.5,-335.5 626.5,-354.5 818.5,-354.5 818.5,-335.5 626.5,-335.5"/>
<text text-anchor="middle" x="722.5" y="-342.5" font-family="Helvetica,sans-Serif" font-size="10.00">nars.language.CompoundTerm.cloneList</text>
</a>
</g>
</g>
<!-- Node17&#45;&gt;Node18 -->
<g id="edge21" class="edge"><title>Node17&#45;&gt;Node18</title>
<path fill="none" stroke="midnightblue" d="M584.746,-345C595.079,-345 605.708,-345 616.257,-345"/>
<polygon fill="midnightblue" stroke="midnightblue" points="616.334,-348.5 626.334,-345 616.334,-341.5 616.334,-348.5"/>
</g>
<!-- Node19 -->
<g id="node19" class="node"><title>Node19</title>
<g id="a_node19"><a xlink:href="../../d0/dee/classnars_1_1language_1_1CompoundTerm_a963e8aef1163f4ed8c364b5e448deaff.html#a963e8aef1163f4ed8c364b5e448deaff" target="_top" xlink:title="Abstract clone method. ">
<polygon fill="none" stroke="black" points="860,-335.5 860,-354.5 1036,-354.5 1036,-335.5 860,-335.5"/>
<text text-anchor="middle" x="948" y="-342.5" font-family="Helvetica,sans-Serif" font-size="10.00">nars.language.CompoundTerm.clone</text>
</a>
</g>
</g>
<!-- Node18&#45;&gt;Node19 -->
<g id="edge22" class="edge"><title>Node18&#45;&gt;Node19</title>
<path fill="none" stroke="midnightblue" d="M818.608,-345C828.856,-345 839.294,-345 849.568,-345"/>
<polygon fill="midnightblue" stroke="midnightblue" points="849.775,-348.5 859.775,-345 849.775,-341.5 849.775,-348.5"/>
</g>
<!-- Node21 -->
<g id="node21" class="node"><title>Node21</title>
<g id="a_node21"><a xlink:href="../../d8/db8/classnars_1_1language_1_1Term_a2d9973aada6190dd60b48a34448094c9.html#a2d9973aada6190dd60b48a34448094c9" target="_top" xlink:title="Default constructor that build an internal Term. ">
<polygon fill="none" stroke="black" points="658.5,-379.5 658.5,-398.5 786.5,-398.5 786.5,-379.5 658.5,-379.5"/>
<text text-anchor="middle" x="722.5" y="-386.5" font-family="Helvetica,sans-Serif" font-size="10.00">nars.language.Term.Term</text>
</a>
</g>
</g>
<!-- Node20&#45;&gt;Node21 -->
<g id="edge24" class="edge"><title>Node20&#45;&gt;Node21</title>
<path fill="none" stroke="midnightblue" d="M561.09,-389C588.162,-389 619.905,-389 647.978,-389"/>
<polygon fill="midnightblue" stroke="midnightblue" points="648.139,-392.5 658.139,-389 648.139,-385.5 648.139,-392.5"/>
</g>
<!-- Node22&#45;&gt;Node7 -->
<g id="edge26" class="edge"><title>Node22&#45;&gt;Node7</title>
<path fill="none" stroke="midnightblue" d="M358.039,-268.413C432.13,-271.182 553.96,-275.737 635.916,-278.801"/>
<polygon fill="midnightblue" stroke="midnightblue" points="635.833,-282.3 645.956,-279.176 636.094,-275.305 635.833,-282.3"/>
</g>
<!-- Node22&#45;&gt;Node17 -->
<g id="edge27" class="edge"><title>Node22&#45;&gt;Node17</title>
<path fill="none" stroke="midnightblue" d="M343.601,-281.098C353.093,-284.2 362.898,-287.571 372,-291 399.935,-301.523 430.696,-314.968 454.53,-325.809"/>
<polygon fill="midnightblue" stroke="midnightblue" points="453.083,-328.996 463.632,-329.976 455.997,-322.631 453.083,-328.996"/>
</g>
<!-- Node22&#45;&gt;Node20 -->
<g id="edge28" class="edge"><title>Node22&#45;&gt;Node20</title>
<path fill="none" stroke="midnightblue" d="M357.323,-281.046C362.619,-283.821 367.614,-287.108 372,-291 400.861,-316.609 377.962,-345.783 408,-370 412.311,-373.476 417.117,-376.352 422.196,-378.729"/>
<polygon fill="midnightblue" stroke="midnightblue" points="421.002,-382.021 431.587,-382.488 423.604,-375.522 421.002,-382.021"/>
</g>
<!-- Node23&#45;&gt;Node6 -->
<g id="edge30" class="edge"><title>Node23&#45;&gt;Node6</title>
<path fill="none" stroke="midnightblue" d="M335.355,-133.531C359.647,-139.063 390.988,-146.2 419.494,-152.692"/>
<polygon fill="midnightblue" stroke="midnightblue" points="418.915,-156.149 429.443,-154.957 420.47,-149.324 418.915,-156.149"/>
</g>
<!-- Node23&#45;&gt;Node9 -->
<g id="edge31" class="edge"><title>Node23&#45;&gt;Node9</title>
<path fill="none" stroke="midnightblue" d="M363.017,-122.968C380.748,-122.704 399.918,-122.42 418.021,-122.151"/>
<polygon fill="midnightblue" stroke="midnightblue" points="418.297,-125.647 428.244,-121.999 418.193,-118.648 418.297,-125.647"/>
</g>
<!-- Node24 -->
<g id="node24" class="node"><title>Node24</title>
<g id="a_node24"><a xlink:href="../../d8/d73/classnars_1_1language_1_1Product_af16eda9bec105b3f418739b3d485ee7e.html#af16eda9bec105b3f418739b3d485ee7e" target="_top" xlink:title="Constructor with partial values, called by make. ">
<polygon fill="none" stroke="black" points="421,-18.5 421,-37.5 572,-37.5 572,-18.5 421,-18.5"/>
<text text-anchor="middle" x="496.5" y="-25.5" font-family="Helvetica,sans-Serif" font-size="10.00">nars.language.Product.Product</text>
</a>
</g>
</g>
<!-- Node23&#45;&gt;Node24 -->
<g id="edge32" class="edge"><title>Node23&#45;&gt;Node24</title>
<path fill="none" stroke="midnightblue" d="M354.358,-114.411C360.636,-111.949 366.661,-108.863 372,-105 396.58,-87.2143 383.212,-64.4939 408,-47 410.731,-45.0729 413.62,-43.3355 416.622,-41.7695"/>
<polygon fill="midnightblue" stroke="midnightblue" points="418.248,-44.8754 425.919,-37.5674 415.365,-38.4966 418.248,-44.8754"/>
</g>
<!-- Node25&#45;&gt;Node7 -->
<g id="edge34" class="edge"><title>Node25&#45;&gt;Node7</title>
<path fill="none" stroke="midnightblue" d="M358.039,-310.024C432.13,-304.311 553.96,-294.918 635.916,-288.599"/>
<polygon fill="midnightblue" stroke="midnightblue" points="636.255,-292.083 645.956,-287.825 635.717,-285.104 636.255,-292.083"/>
</g>
<!-- Node25&#45;&gt;Node17 -->
<g id="edge35" class="edge"><title>Node25&#45;&gt;Node17</title>
<path fill="none" stroke="midnightblue" d="M358.248,-324.616C370.938,-326.501 384.508,-328.516 397.996,-330.519"/>
<polygon fill="midnightblue" stroke="midnightblue" points="397.872,-334.039 408.278,-332.046 398.9,-327.115 397.872,-334.039"/>
</g>
<!-- Node25&#45;&gt;Node20 -->
<g id="edge36" class="edge"><title>Node25&#45;&gt;Node20</title>
<path fill="none" stroke="midnightblue" d="M349.93,-330.04C357.545,-332.907 365.102,-336.218 372,-340 390.262,-350.013 389.285,-360.861 408,-370 412.976,-372.43 418.262,-374.552 423.675,-376.404"/>
<polygon fill="midnightblue" stroke="midnightblue" points="422.927,-379.837 433.515,-379.455 425,-373.15 422.927,-379.837"/>
</g>
</g>
</svg>
