<?xml version="1.0" encoding="UTF-8" standalone="no"?>
<!DOCTYPE svg PUBLIC "-//W3C//DTD SVG 1.1//EN"
 "http://www.w3.org/Graphics/SVG/1.1/DTD/svg11.dtd">
<!-- Generated by graphviz version 2.38.0 (20140413.2041)
 -->
<!-- Title: nars.language.CompoundTerm.operator Pages: 1 -->
<svg width="3236pt" height="436pt"
 viewBox="0.00 0.00 3236.00 435.55" xmlns="http://www.w3.org/2000/svg" xmlns:xlink="http://www.w3.org/1999/xlink">
<g id="graph0" class="graph" transform="scale(1 1) rotate(0) translate(4 431.554)">
<title>nars.language.CompoundTerm.operator</title>
<!-- Node1 -->
<g id="node1" class="node"><title>Node1</title>
<polygon fill="#bfbfbf" stroke="black" points="0,-234.554 0,-253.554 188,-253.554 188,-234.554 0,-234.554"/>
<text text-anchor="middle" x="94" y="-241.554" font-family="Helvetica,sans-Serif" font-size="10.00">nars.language.CompoundTerm.operator</text>
</g>
<!-- Node2 -->
<g id="node2" class="node"><title>Node2</title>
<g id="a_node2"><a xlink:href="../../d0/dee/classnars_1_1language_1_1CompoundTerm_ae4b161399fd4fa864f9a5cf6e1a4ed83.html#ae4b161399fd4fa864f9a5cf6e1a4ed83" target="_top" xlink:title="Try to make a compound term from a template and a list of components. ">
<polygon fill="none" stroke="black" points="224,-234.554 224,-253.554 401,-253.554 401,-234.554 224,-234.554"/>
<text text-anchor="middle" x="312.5" y="-241.554" font-family="Helvetica,sans-Serif" font-size="10.00">nars.language.CompoundTerm.make</text>
</a>
</g>
</g>
<!-- Node1&#45;&gt;Node2 -->
<g id="edge1" class="edge"><title>Node1&#45;&gt;Node2</title>
<path fill="none" stroke="midnightblue" d="M198.175,-244.054C206.809,-244.054 215.487,-244.054 223.987,-244.054"/>
<polygon fill="midnightblue" stroke="midnightblue" points="198.072,-240.555 188.072,-244.054 198.072,-247.555 198.072,-240.555"/>
</g>
<!-- Node3 -->
<g id="node3" class="node"><title>Node3</title>
<g id="a_node3"><a xlink:href="../../d0/dee/classnars_1_1language_1_1CompoundTerm_afa61c8aa9aac1ad79977ca20c2922cd7.html#afa61c8aa9aac1ad79977ca20c2922cd7" target="_top" xlink:title="Try to add a component into a compound. ">
<polygon fill="none" stroke="black" points="443.5,-373.054 443.5,-403.054 612.5,-403.054 612.5,-373.054 443.5,-373.054"/>
<text text-anchor="start" x="451.5" y="-391.054" font-family="Helvetica,sans-Serif" font-size="10.00">nars.language.CompoundTerm.add</text>
<text text-anchor="middle" x="528" y="-380.054" font-family="Helvetica,sans-Serif" font-size="10.00">Components</text>
</a>
</g>
</g>
<!-- Node2&#45;&gt;Node3 -->
<g id="edge2" class="edge"><title>Node2&#45;&gt;Node3</title>
<path fill="none" stroke="midnightblue" d="M326.873,-261.621C347.616,-287.648 390.076,-336.257 437,-363.054 443.759,-366.915 451.148,-370.206 458.692,-373.007"/>
<polygon fill="midnightblue" stroke="midnightblue" points="329.613,-259.444 320.695,-253.724 324.1,-263.757 329.613,-259.444"/>
</g>
<!-- Node4 -->
<g id="node4" class="node"><title>Node4</title>
<g id="a_node4"><a xlink:href="../../d3/dca/classnars_1_1io_1_1StringParser_a944bb677dff9f232ce6b896c853e24e0.html#a944bb677dff9f232ce6b896c853e24e0" target="_top" xlink:title="Parse a String to create a CompoundTerm. ">
<polygon fill="none" stroke="black" points="463,-324.054 463,-354.054 593,-354.054 593,-324.054 463,-324.054"/>
<text text-anchor="start" x="471" y="-342.054" font-family="Helvetica,sans-Serif" font-size="10.00">nars.io.StringParser.parse</text>
<text text-anchor="middle" x="528" y="-331.054" font-family="Helvetica,sans-Serif" font-size="10.00">CompoundTerm</text>
</a>
</g>
</g>
<!-- Node2&#45;&gt;Node4 -->
<g id="edge3" class="edge"><title>Node2&#45;&gt;Node4</title>
<path fill="none" stroke="midnightblue" d="M344.55,-257.871C384.092,-275.465 452.179,-305.762 493.057,-323.951"/>
<polygon fill="midnightblue" stroke="midnightblue" points="345.706,-254.554 335.146,-253.686 342.86,-260.95 345.706,-254.554"/>
</g>
<!-- Node11 -->
<g id="node11" class="node"><title>Node11</title>
<g id="a_node11"><a xlink:href="../../d0/dee/classnars_1_1language_1_1CompoundTerm_a09c88a408c16b985b0db4bc602a170aa.html#a09c88a408c16b985b0db4bc602a170aa" target="_top" xlink:title="Try to remove a component from a compound. ">
<polygon fill="none" stroke="black" points="437,-229.054 437,-259.054 619,-259.054 619,-229.054 437,-229.054"/>
<text text-anchor="start" x="445" y="-247.054" font-family="Helvetica,sans-Serif" font-size="10.00">nars.language.CompoundTerm.reduce</text>
<text text-anchor="middle" x="528" y="-236.054" font-family="Helvetica,sans-Serif" font-size="10.00">Components</text>
</a>
</g>
</g>
<!-- Node2&#45;&gt;Node11 -->
<g id="edge13" class="edge"><title>Node2&#45;&gt;Node11</title>
<path fill="none" stroke="midnightblue" d="M411.501,-244.054C419.936,-244.054 428.444,-244.054 436.813,-244.054"/>
<polygon fill="midnightblue" stroke="midnightblue" points="411.263,-240.555 401.263,-244.054 411.263,-247.555 411.263,-240.555"/>
</g>
<!-- Node31 -->
<g id="node31" class="node"><title>Node31</title>
<g id="a_node31"><a xlink:href="../../d0/dee/classnars_1_1language_1_1CompoundTerm_a623c88183d85bd42464640937ea8ccb5.html#a623c88183d85bd42464640937ea8ccb5" target="_top" xlink:title="Try to replace a component in a compound at a given index by another one. ">
<polygon fill="none" stroke="black" points="843,-113.054 843,-143.054 1010,-143.054 1010,-113.054 843,-113.054"/>
<text text-anchor="start" x="851" y="-131.054" font-family="Helvetica,sans-Serif" font-size="10.00">nars.language.CompoundTerm.set</text>
<text text-anchor="middle" x="926.5" y="-120.054" font-family="Helvetica,sans-Serif" font-size="10.00">Component</text>
</a>
</g>
</g>
<!-- Node2&#45;&gt;Node31 -->
<g id="edge36" class="edge"><title>Node2&#45;&gt;Node31</title>
<path fill="none" stroke="midnightblue" d="M349.727,-231.077C411.466,-209.573 541.423,-166.953 655,-147.054 717.485,-136.107 789.135,-131.42 842.99,-129.436"/>
<polygon fill="midnightblue" stroke="midnightblue" points="348.344,-227.853 340.065,-234.464 350.66,-234.459 348.344,-227.853"/>
</g>
<!-- Node35 -->
<g id="node35" class="node"><title>Node35</title>
<g id="a_node35"><a xlink:href="../../db/d49/classnars_1_1inference_1_1StructuralRules_a6f7188931508f5b84e6de02301bf798d.html#a6f7188931508f5b84e6de02301bf798d" target="_top" xlink:title="Equivalent transformation between products and images {&lt;(*, S, M) –&gt; P&gt;, S@(*, S, M)} |&#45; &lt;S &#45;&#45;&gt; (/, P, _, M)&gt; {&lt;S &#45;&#45;&gt; (/, P, _, M)&gt;, P@(/, P, _, M)} |&#45; &lt;(*, S, M) –&gt; P&gt; {&lt;S &#45;&#45;&gt; (/, P, _, M)&gt;, M@(/, P, _, M)} |&#45; &lt;M &#45;&#45;&gt; (/, P, S, _)&gt; ">
<polygon fill="none" stroke="black" points="454.5,-28.0545 454.5,-58.0545 601.5,-58.0545 601.5,-28.0545 454.5,-28.0545"/>
<text text-anchor="start" x="462.5" y="-46.0545" font-family="Helvetica,sans-Serif" font-size="10.00">nars.inference.Structural</text>
<text text-anchor="middle" x="528" y="-35.0545" font-family="Helvetica,sans-Serif" font-size="10.00">Rules.transformProductImage</text>
</a>
</g>
</g>
<!-- Node2&#45;&gt;Node35 -->
<g id="edge43" class="edge"><title>Node2&#45;&gt;Node35</title>
<path fill="none" stroke="midnightblue" d="M328.525,-226.72C351.075,-201.064 395.466,-151.939 437,-114.054 459.497,-93.5343 487.25,-72.1814 505.941,-58.3209"/>
<polygon fill="midnightblue" stroke="midnightblue" points="325.696,-224.638 321.751,-234.47 330.967,-229.244 325.696,-224.638"/>
</g>
<!-- Node5 -->
<g id="node5" class="node"><title>Node5</title>
<g id="a_node5"><a xlink:href="../../d3/dca/classnars_1_1io_1_1StringParser_a5c31494d6f7862dcf15a4d5716b6200e.html#a5c31494d6f7862dcf15a4d5716b6200e" target="_top" xlink:title="Top&#45;level method that parse a Term in general, which may recursively call itself. ...">
<polygon fill="none" stroke="black" points="655,-353.554 655,-372.554 807,-372.554 807,-353.554 655,-353.554"/>
<text text-anchor="middle" x="731" y="-360.554" font-family="Helvetica,sans-Serif" font-size="10.00">nars.io.StringParser.parseTerm</text>
</a>
</g>
</g>
<!-- Node4&#45;&gt;Node5 -->
<g id="edge4" class="edge"><title>Node4&#45;&gt;Node5</title>
<path fill="none" stroke="midnightblue" d="M603.452,-347.944C620.243,-349.949 638.075,-352.078 654.893,-354.086"/>
<polygon fill="midnightblue" stroke="midnightblue" points="603.495,-344.425 593.15,-346.714 602.665,-351.375 603.495,-344.425"/>
</g>
<!-- Node6 -->
<g id="node6" class="node"><title>Node6</title>
<g id="a_node6"><a xlink:href="../../d3/dca/classnars_1_1io_1_1StringParser_a7a11182c36a2fae68be8952110f47570.html#a7a11182c36a2fae68be8952110f47570" target="_top" xlink:title="Parse a String into the argument get of a CompoundTerm. ">
<polygon fill="none" stroke="black" points="861.5,-397.054 861.5,-427.054 991.5,-427.054 991.5,-397.054 861.5,-397.054"/>
<text text-anchor="start" x="869.5" y="-415.054" font-family="Helvetica,sans-Serif" font-size="10.00">nars.io.StringParser.parse</text>
<text text-anchor="middle" x="926.5" y="-404.054" font-family="Helvetica,sans-Serif" font-size="10.00">Arguments</text>
</a>
</g>
</g>
<!-- Node5&#45;&gt;Node6 -->
<g id="edge5" class="edge"><title>Node5&#45;&gt;Node6</title>
<path fill="none" stroke="midnightblue" d="M804.687,-374.9C832.967,-381.608 864.175,-389.872 887.788,-397.026"/>
<polygon fill="midnightblue" stroke="midnightblue" points="805.358,-371.463 794.824,-372.597 803.766,-378.279 805.358,-371.463"/>
</g>
<!-- Node7 -->
<g id="node7" class="node"><title>Node7</title>
<g id="a_node7"><a xlink:href="../../d3/dca/classnars_1_1io_1_1StringParser_a7c129938c8d721e3db0a9804988f0588.html#a7c129938c8d721e3db0a9804988f0588" target="_top" xlink:title="Parse a String to create a Statement. ">
<polygon fill="none" stroke="black" points="861.5,-348.054 861.5,-378.054 991.5,-378.054 991.5,-348.054 861.5,-348.054"/>
<text text-anchor="start" x="869.5" y="-366.054" font-family="Helvetica,sans-Serif" font-size="10.00">nars.io.StringParser.parse</text>
<text text-anchor="middle" x="926.5" y="-355.054" font-family="Helvetica,sans-Serif" font-size="10.00">Statement</text>
</a>
</g>
</g>
<!-- Node5&#45;&gt;Node7 -->
<g id="edge8" class="edge"><title>Node5&#45;&gt;Node7</title>
<path fill="none" stroke="midnightblue" d="M817.281,-356.347C832.112,-356.237 847.308,-356.341 861.448,-356.659"/>
<polygon fill="midnightblue" stroke="midnightblue" points="817.051,-352.849 807.089,-356.457 817.126,-359.849 817.051,-352.849"/>
</g>
<!-- Node8 -->
<g id="node8" class="node"><title>Node8</title>
<g id="a_node8"><a xlink:href="../../d3/dca/classnars_1_1io_1_1StringParser_a75b446999d71c676a9915ecc75077a7d.html#a75b446999d71c676a9915ecc75077a7d" target="_top" xlink:title="Enter a new Task in String into the memory, called from InputWindow or locally. ">
<polygon fill="none" stroke="black" points="850.5,-309.554 850.5,-328.554 1002.5,-328.554 1002.5,-309.554 850.5,-309.554"/>
<text text-anchor="middle" x="926.5" y="-316.554" font-family="Helvetica,sans-Serif" font-size="10.00">nars.io.StringParser.parseTask</text>
</a>
</g>
</g>
<!-- Node5&#45;&gt;Node8 -->
<g id="edge10" class="edge"><title>Node5&#45;&gt;Node8</title>
<path fill="none" stroke="midnightblue" d="M783.823,-351.27C815.06,-344.168 854.327,-335.239 883.595,-328.583"/>
<polygon fill="midnightblue" stroke="midnightblue" points="782.962,-347.877 773.987,-353.507 784.514,-354.703 782.962,-347.877"/>
</g>
<!-- Node6&#45;&gt;Node4 -->
<g id="edge6" class="edge"><title>Node6&#45;&gt;Node4</title>
<path fill="none" stroke="midnightblue" d="M851.231,-411.258C796.018,-408.894 719.418,-401.843 655,-382.054 637.706,-376.742 635.847,-369.649 619,-363.054 610.567,-359.754 601.517,-356.748 592.523,-354.067"/>
<polygon fill="midnightblue" stroke="midnightblue" points="851.156,-414.757 861.284,-411.647 851.427,-407.763 851.156,-414.757"/>
</g>
<!-- Node6&#45;&gt;Node5 -->
<g id="edge7" class="edge"><title>Node6&#45;&gt;Node5</title>
<path fill="none" stroke="midnightblue" d="M851.405,-399.874C815.968,-391.433 776.235,-380.633 752.708,-372.669"/>
<polygon fill="midnightblue" stroke="midnightblue" points="850.734,-403.312 861.269,-402.188 852.333,-396.497 850.734,-403.312"/>
</g>
<!-- Node7&#45;&gt;Node5 -->
<g id="edge9" class="edge"><title>Node7&#45;&gt;Node5</title>
<path fill="none" stroke="midnightblue" d="M851.088,-369.642C836.662,-369.855 821.536,-369.859 807.089,-369.652"/>
<polygon fill="midnightblue" stroke="midnightblue" points="851.515,-373.135 861.448,-369.449 851.384,-366.136 851.515,-373.135"/>
</g>
<!-- Node9 -->
<g id="node9" class="node"><title>Node9</title>
<g id="a_node9"><a xlink:href="../../d3/dca/classnars_1_1io_1_1StringParser_a37ff864d959aba58138170a3f9a3e7c8.html#a37ff864d959aba58138170a3f9a3e7c8" target="_top" xlink:title="Parse a line of input experience. ">
<polygon fill="none" stroke="black" points="1073.5,-325.054 1073.5,-355.054 1203.5,-355.054 1203.5,-325.054 1073.5,-325.054"/>
<text text-anchor="start" x="1081.5" y="-343.054" font-family="Helvetica,sans-Serif" font-size="10.00">nars.io.StringParser.parse</text>
<text text-anchor="middle" x="1138.5" y="-332.054" font-family="Helvetica,sans-Serif" font-size="10.00">Experience</text>
</a>
</g>
</g>
<!-- Node8&#45;&gt;Node9 -->
<g id="edge11" class="edge"><title>Node8&#45;&gt;Node9</title>
<path fill="none" stroke="midnightblue" d="M1012.84,-327.588C1033,-329.605 1054.16,-331.721 1073.21,-333.626"/>
<polygon fill="midnightblue" stroke="midnightblue" points="1013.02,-324.089 1002.72,-326.577 1012.32,-331.054 1013.02,-324.089"/>
</g>
<!-- Node10 -->
<g id="node10" class="node"><title>Node10</title>
<g id="a_node10"><a xlink:href="../../dd/da5/classnars_1_1storage_1_1Memory_1_1ReasonerBatch_a2f22be33d98b4366712ff91b93c2be8a.html#a2f22be33d98b4366712ff91b93c2be8a" target="_top" xlink:title="To process a line of input text. ">
<polygon fill="none" stroke="black" points="1280,-332.054 1280,-362.054 1434,-362.054 1434,-332.054 1280,-332.054"/>
<text text-anchor="start" x="1288" y="-350.054" font-family="Helvetica,sans-Serif" font-size="10.00">nars.storage.Memory.Reasoner</text>
<text text-anchor="middle" x="1357" y="-339.054" font-family="Helvetica,sans-Serif" font-size="10.00">Batch.textInputLine</text>
</a>
</g>
</g>
<!-- Node9&#45;&gt;Node10 -->
<g id="edge12" class="edge"><title>Node9&#45;&gt;Node10</title>
<path fill="none" stroke="midnightblue" d="M1213.58,-342.45C1234.97,-343.141 1258.35,-343.897 1279.86,-344.593"/>
<polygon fill="midnightblue" stroke="midnightblue" points="1213.69,-338.951 1203.58,-342.126 1213.46,-345.948 1213.69,-338.951"/>
</g>
<!-- Node12 -->
<g id="node12" class="node"><title>Node12</title>
<g id="a_node12"><a xlink:href="../../d4/daa/classnars_1_1inference_1_1SyllogisticRules_a188ed61b1cef0b9e8af45d5dc372da31.html#a188ed61b1cef0b9e8af45d5dc372da31" target="_top" xlink:title="{&lt;(&amp;&amp;, S2, S3) ==&gt; P&gt;, &lt;(&amp;&amp;, S1, S3) ==&gt; P&gt;} |&#45; &lt;S1 ==&gt; S2&gt; ">
<polygon fill="none" stroke="black" points="668,-304.054 668,-334.054 794,-334.054 794,-304.054 668,-304.054"/>
<text text-anchor="start" x="676" y="-322.054" font-family="Helvetica,sans-Serif" font-size="10.00">nars.inference.Syllogistic</text>
<text text-anchor="middle" x="731" y="-311.054" font-family="Helvetica,sans-Serif" font-size="10.00">Rules.conditionalAbd</text>
</a>
</g>
</g>
<!-- Node11&#45;&gt;Node12 -->
<g id="edge14" class="edge"><title>Node11&#45;&gt;Node12</title>
<path fill="none" stroke="midnightblue" d="M574.933,-262.998C598.709,-272.622 628.281,-284.309 655,-294.054 664.155,-297.394 674.001,-300.804 683.45,-303.988"/>
<polygon fill="midnightblue" stroke="midnightblue" points="576.04,-259.67 565.458,-259.149 573.405,-266.155 576.04,-259.67"/>
</g>
<!-- Node13 -->
<g id="node13" class="node"><title>Node13</title>
<g id="a_node13"><a xlink:href="../../d8/d79/classnars_1_1inference_1_1CompositionalRules_a4479c479bb3ceeb78130e03ce5e3f293.html#a4479c479bb3ceeb78130e03ce5e3f293" target="_top" xlink:title="{&lt;(S|P) ==&gt; M&gt;, ">
<polygon fill="none" stroke="black" points="659.5,-255.054 659.5,-285.054 802.5,-285.054 802.5,-255.054 659.5,-255.054"/>
<text text-anchor="start" x="667.5" y="-273.054" font-family="Helvetica,sans-Serif" font-size="10.00">nars.inference.Compositional</text>
<text text-anchor="middle" x="731" y="-262.054" font-family="Helvetica,sans-Serif" font-size="10.00">Rules.decomposeCompound</text>
</a>
</g>
</g>
<!-- Node11&#45;&gt;Node13 -->
<g id="edge15" class="edge"><title>Node11&#45;&gt;Node13</title>
<path fill="none" stroke="midnightblue" d="M629.339,-257.034C639.484,-258.346 649.631,-259.658 659.366,-260.918"/>
<polygon fill="midnightblue" stroke="midnightblue" points="629.577,-253.535 619.211,-255.724 628.679,-260.478 629.577,-253.535"/>
</g>
<!-- Node26 -->
<g id="node26" class="node"><title>Node26</title>
<g id="a_node26"><a xlink:href="../../d8/d79/classnars_1_1inference_1_1CompositionalRules_a6ce4b4caba57fe856aff6f6a2c7ee552.html#a6ce4b4caba57fe856aff6f6a2c7ee552" target="_top" xlink:title="{(||, S, P), P} |&#45; S {(&amp;&amp;, S, P), P} |&#45; S ">
<polygon fill="none" stroke="black" points="659.5,-206.054 659.5,-236.054 802.5,-236.054 802.5,-206.054 659.5,-206.054"/>
<text text-anchor="start" x="667.5" y="-224.054" font-family="Helvetica,sans-Serif" font-size="10.00">nars.inference.Compositional</text>
<text text-anchor="middle" x="731" y="-213.054" font-family="Helvetica,sans-Serif" font-size="10.00">Rules.decomposeStatement</text>
</a>
</g>
</g>
<!-- Node11&#45;&gt;Node26 -->
<g id="edge28" class="edge"><title>Node11&#45;&gt;Node26</title>
<path fill="none" stroke="midnightblue" d="M629.339,-232.573C639.484,-231.412 649.631,-230.251 659.366,-229.137"/>
<polygon fill="midnightblue" stroke="midnightblue" points="628.748,-229.118 619.211,-233.732 629.544,-236.072 628.748,-229.118"/>
</g>
<!-- Node29 -->
<g id="node29" class="node"><title>Node29</title>
<g id="a_node29"><a xlink:href="../../d4/daa/classnars_1_1inference_1_1SyllogisticRules_a315c474733bb01f6f01e579221b417d4.html#a315c474733bb01f6f01e579221b417d4" target="_top" xlink:title="{(&amp;&amp;, &lt;#x() –&gt; S&gt;, &lt;#x() –&gt; P&gt;&gt;, &lt;M &#45;&#45;&gt; P&gt;} |&#45; &lt;M &#45;&#45;&gt; S&gt; ">
<polygon fill="none" stroke="black" points="668,-157.054 668,-187.054 794,-187.054 794,-157.054 668,-157.054"/>
<text text-anchor="start" x="676" y="-175.054" font-family="Helvetica,sans-Serif" font-size="10.00">nars.inference.Syllogistic</text>
<text text-anchor="middle" x="731" y="-164.054" font-family="Helvetica,sans-Serif" font-size="10.00">Rules.elimiVarDep</text>
</a>
</g>
</g>
<!-- Node11&#45;&gt;Node29 -->
<g id="edge33" class="edge"><title>Node11&#45;&gt;Node29</title>
<path fill="none" stroke="midnightblue" d="M576.252,-225.357C599.804,-216.216 628.786,-205.234 655,-196.054 663.516,-193.072 672.626,-190.033 681.458,-187.163"/>
<polygon fill="midnightblue" stroke="midnightblue" points="574.895,-222.13 566.848,-229.021 577.436,-228.652 574.895,-222.13"/>
</g>
<!-- Node14 -->
<g id="node14" class="node"><title>Node14</title>
<g id="a_node14"><a xlink:href="../../d8/d79/classnars_1_1inference_1_1CompositionalRules_a53f7edf7bfe7433da42e8fcf36fd6604.html#a53f7edf7bfe7433da42e8fcf36fd6604" target="_top" xlink:title="{&lt;S ==&gt; M&gt;, ">
<polygon fill="none" stroke="black" points="855,-255.054 855,-285.054 998,-285.054 998,-255.054 855,-255.054"/>
<text text-anchor="start" x="863" y="-273.054" font-family="Helvetica,sans-Serif" font-size="10.00">nars.inference.Compositional</text>
<text text-anchor="middle" x="926.5" y="-262.054" font-family="Helvetica,sans-Serif" font-size="10.00">Rules.composeCompound</text>
</a>
</g>
</g>
<!-- Node13&#45;&gt;Node14 -->
<g id="edge16" class="edge"><title>Node13&#45;&gt;Node14</title>
<path fill="none" stroke="midnightblue" d="M812.726,-270.054C826.657,-270.054 841.044,-270.054 854.688,-270.054"/>
<polygon fill="midnightblue" stroke="midnightblue" points="812.679,-266.555 802.679,-270.054 812.679,-273.555 812.679,-266.555"/>
</g>
<!-- Node15 -->
<g id="node15" class="node"><title>Node15</title>
<g id="a_node15"><a xlink:href="../../da/de3/classnars_1_1inference_1_1RuleTables_a34927349efcf87db97d23c60983b115b.html#a34927349efcf87db97d23c60983b115b" target="_top" xlink:title="Syllogistic rules whose both premises are on the same asymmetric relation. ">
<polygon fill="none" stroke="black" points="1046,-269.054 1046,-299.054 1231,-299.054 1231,-269.054 1046,-269.054"/>
<text text-anchor="start" x="1054" y="-287.054" font-family="Helvetica,sans-Serif" font-size="10.00">nars.inference.RuleTables.asymmetric</text>
<text text-anchor="middle" x="1138.5" y="-276.054" font-family="Helvetica,sans-Serif" font-size="10.00">Asymmetric</text>
</a>
</g>
</g>
<!-- Node14&#45;&gt;Node15 -->
<g id="edge17" class="edge"><title>Node14&#45;&gt;Node15</title>
<path fill="none" stroke="midnightblue" d="M1008.24,-275.437C1020.57,-276.259 1033.37,-277.113 1045.92,-277.949"/>
<polygon fill="midnightblue" stroke="midnightblue" points="1008.22,-271.928 998.011,-274.755 1007.76,-278.913 1008.22,-271.928"/>
</g>
<!-- Node16 -->
<g id="node16" class="node"><title>Node16</title>
<g id="a_node16"><a xlink:href="../../da/de3/classnars_1_1inference_1_1RuleTables_a8628d400a8ceda7fea05039ddfea319b.html#a8628d400a8ceda7fea05039ddfea319b" target="_top" xlink:title="Meta&#45;table of syllogistic rules, indexed by the content classes of the taskSentence and the belief...">
<polygon fill="none" stroke="black" points="1267,-293.554 1267,-312.554 1447,-312.554 1447,-293.554 1267,-293.554"/>
<text text-anchor="middle" x="1357" y="-300.554" font-family="Helvetica,sans-Serif" font-size="10.00">nars.inference.RuleTables.syllogisms</text>
</a>
</g>
</g>
<!-- Node15&#45;&gt;Node16 -->
<g id="edge18" class="edge"><title>Node15&#45;&gt;Node16</title>
<path fill="none" stroke="midnightblue" d="M1241.08,-292.969C1249.71,-293.726 1258.38,-294.488 1266.9,-295.235"/>
<polygon fill="midnightblue" stroke="midnightblue" points="1241.27,-289.472 1231,-292.085 1240.66,-296.446 1241.27,-289.472"/>
</g>
<!-- Node17 -->
<g id="node17" class="node"><title>Node17</title>
<g id="a_node17"><a xlink:href="../../da/de3/classnars_1_1inference_1_1RuleTables_ac2d01dfdc40bdd47c757cb549217e6e3.html#ac2d01dfdc40bdd47c757cb549217e6e3" target="_top" xlink:title="Entry point of the inference engine. ">
<polygon fill="none" stroke="black" points="1500,-140.554 1500,-159.554 1663,-159.554 1663,-140.554 1500,-140.554"/>
<text text-anchor="middle" x="1581.5" y="-147.554" font-family="Helvetica,sans-Serif" font-size="10.00">nars.inference.RuleTables.reason</text>
</a>
</g>
</g>
<!-- Node16&#45;&gt;Node17 -->
<g id="edge19" class="edge"><title>Node16&#45;&gt;Node17</title>
<path fill="none" stroke="midnightblue" d="M1420.87,-290.411C1429.94,-287.371 1438.92,-283.634 1447,-279.054 1504.19,-246.624 1555.01,-183.963 1573.29,-159.845"/>
<polygon fill="midnightblue" stroke="midnightblue" points="1419.56,-287.152 1411.03,-293.444 1421.62,-293.841 1419.56,-287.152"/>
</g>
<!-- Node18 -->
<g id="node18" class="node"><title>Node18</title>
<g id="a_node18"><a xlink:href="../../d4/d22/classnars_1_1entity_1_1Concept_ae07576c8466ad65eeb61040e3f71cfc7.html#ae07576c8466ad65eeb61040e3f71cfc7" target="_top" xlink:title="An atomic step in a concept, only called in Memory# processConcept. ">
<polygon fill="none" stroke="black" points="1716,-99.5545 1716,-118.554 1835,-118.554 1835,-99.5545 1716,-99.5545"/>
<text text-anchor="middle" x="1775.5" y="-106.554" font-family="Helvetica,sans-Serif" font-size="10.00">nars.entity.Concept.fire</text>
</a>
</g>
</g>
<!-- Node17&#45;&gt;Node18 -->
<g id="edge20" class="edge"><title>Node17&#45;&gt;Node18</title>
<path fill="none" stroke="midnightblue" d="M1637.12,-138.39C1666.48,-132.122 1702.21,-124.491 1729.88,-118.583"/>
<polygon fill="midnightblue" stroke="midnightblue" points="1636.08,-135.034 1627.03,-140.545 1637.54,-141.88 1636.08,-135.034"/>
</g>
<!-- Node19 -->
<g id="node19" class="node"><title>Node19</title>
<g id="a_node19"><a xlink:href="../../d8/df4/classnars_1_1storage_1_1Memory_a83154b55b922c82b73931d4f22e3a590.html#a83154b55b922c82b73931d4f22e3a590" target="_top" xlink:title="Select a concept to fire. ">
<polygon fill="none" stroke="black" points="1871,-94.0545 1871,-124.054 2017,-124.054 2017,-94.0545 1871,-94.0545"/>
<text text-anchor="start" x="1879" y="-112.054" font-family="Helvetica,sans-Serif" font-size="10.00">nars.storage.Memory.process</text>
<text text-anchor="middle" x="1944" y="-101.054" font-family="Helvetica,sans-Serif" font-size="10.00">Concept</text>
</a>
</g>
</g>
<!-- Node18&#45;&gt;Node19 -->
<g id="edge21" class="edge"><title>Node18&#45;&gt;Node19</title>
<path fill="none" stroke="midnightblue" d="M1845.34,-109.054C1853.75,-109.054 1862.36,-109.054 1870.82,-109.054"/>
<polygon fill="midnightblue" stroke="midnightblue" points="1845.2,-105.555 1835.2,-109.054 1845.2,-112.555 1845.2,-105.555"/>
</g>
<!-- Node20 -->
<g id="node20" class="node"><title>Node20</title>
<g id="a_node20"><a xlink:href="../../d8/df4/classnars_1_1storage_1_1Memory_a49e2cbc8b78d535f4d69739886ee966a.html#a49e2cbc8b78d535f4d69739886ee966a" target="_top" xlink:title="An atomic working workCycle of the system: process new Tasks, then fire a concept. ">
<polygon fill="none" stroke="black" points="2053,-94.0545 2053,-124.054 2186,-124.054 2186,-94.0545 2053,-94.0545"/>
<text text-anchor="start" x="2061" y="-112.054" font-family="Helvetica,sans-Serif" font-size="10.00">nars.storage.Memory.work</text>
<text text-anchor="middle" x="2119.5" y="-101.054" font-family="Helvetica,sans-Serif" font-size="10.00">Cycle</text>
</a>
</g>
</g>
<!-- Node19&#45;&gt;Node20 -->
<g id="edge22" class="edge"><title>Node19&#45;&gt;Node20</title>
<path fill="none" stroke="midnightblue" d="M2027.12,-109.054C2035.72,-109.054 2044.37,-109.054 2052.76,-109.054"/>
<polygon fill="midnightblue" stroke="midnightblue" points="2027.07,-105.555 2017.07,-109.054 2027.07,-112.555 2027.07,-105.555"/>
</g>
<!-- Node21 -->
<g id="node21" class="node"><title>Node21</title>
<g id="a_node21"><a xlink:href="../../dd/da5/classnars_1_1storage_1_1Memory_1_1ReasonerBatch_acc60dec23da774957a85362ed6d7448b.html#acc60dec23da774957a85362ed6d7448b" target="_top" xlink:title="nars.storage.Memory.Reasoner\lBatch.doTick">
<polygon fill="none" stroke="black" points="2222,-94.0545 2222,-124.054 2376,-124.054 2376,-94.0545 2222,-94.0545"/>
<text text-anchor="start" x="2230" y="-112.054" font-family="Helvetica,sans-Serif" font-size="10.00">nars.storage.Memory.Reasoner</text>
<text text-anchor="middle" x="2299" y="-101.054" font-family="Helvetica,sans-Serif" font-size="10.00">Batch.doTick</text>
</a>
</g>
</g>
<!-- Node20&#45;&gt;Node21 -->
<g id="edge23" class="edge"><title>Node20&#45;&gt;Node21</title>
<path fill="none" stroke="midnightblue" d="M2196.32,-109.054C2204.79,-109.054 2213.41,-109.054 2221.89,-109.054"/>
<polygon fill="midnightblue" stroke="midnightblue" points="2196.09,-105.555 2186.09,-109.054 2196.09,-112.555 2196.09,-105.555"/>
</g>
<!-- Node22 -->
<g id="node22" class="node"><title>Node22</title>
<g id="a_node22"><a xlink:href="../../dd/da5/classnars_1_1storage_1_1Memory_1_1ReasonerBatch_aed591f05899b98fd9e4ad01836ad0a40.html#aed591f05899b98fd9e4ad01836ad0a40" target="_top" xlink:title="A clock tick. ">
<polygon fill="none" stroke="black" points="2412,-94.0545 2412,-124.054 2566,-124.054 2566,-94.0545 2412,-94.0545"/>
<text text-anchor="start" x="2420" y="-112.054" font-family="Helvetica,sans-Serif" font-size="10.00">nars.storage.Memory.Reasoner</text>
<text text-anchor="middle" x="2489" y="-101.054" font-family="Helvetica,sans-Serif" font-size="10.00">Batch.tick</text>
</a>
</g>
</g>
<!-- Node21&#45;&gt;Node22 -->
<g id="edge24" class="edge"><title>Node21&#45;&gt;Node22</title>
<path fill="none" stroke="midnightblue" d="M2386.42,-109.054C2394.86,-109.054 2403.37,-109.054 2411.7,-109.054"/>
<polygon fill="midnightblue" stroke="midnightblue" points="2386.2,-105.555 2376.2,-109.054 2386.2,-112.555 2386.2,-105.555"/>
</g>
<!-- Node23 -->
<g id="node23" class="node"><title>Node23</title>
<g id="a_node23"><a xlink:href="../../d4/d88/classnars_1_1storage_1_1Memory_1_1NARSBatch_aad99db6cedde9cff2a997db8906ff821.html#aad99db6cedde9cff2a997db8906ff821" target="_top" xlink:title="Run to completion: repeatedly execute NARS working cycle, until Inputs are Finished, or 1000 steps. ">
<polygon fill="none" stroke="black" points="2602,-99.5545 2602,-118.554 2784,-118.554 2784,-99.5545 2602,-99.5545"/>
<text text-anchor="middle" x="2693" y="-106.554" font-family="Helvetica,sans-Serif" font-size="10.00">nars.storage.Memory.NARSBatch.run</text>
</a>
</g>
</g>
<!-- Node22&#45;&gt;Node23 -->
<g id="edge25" class="edge"><title>Node22&#45;&gt;Node23</title>
<path fill="none" stroke="midnightblue" d="M2576.27,-109.054C2584.69,-109.054 2593.25,-109.054 2601.71,-109.054"/>
<polygon fill="midnightblue" stroke="midnightblue" points="2576.08,-105.555 2566.08,-109.054 2576.08,-112.555 2576.08,-105.555"/>
</g>
<!-- Node24 -->
<g id="node24" class="node"><title>Node24</title>
<g id="a_node24"><a xlink:href="../../d4/d88/classnars_1_1storage_1_1Memory_1_1NARSBatch_a416c39463faa161661ed1d12fea03b3c.html#a416c39463faa161661ed1d12fea03b3c" target="_top" xlink:title="non&#45;static equivalent to main(String[]) : run to completion from an input file ">
<polygon fill="none" stroke="black" points="2820,-94.0545 2820,-124.054 3002,-124.054 3002,-94.0545 2820,-94.0545"/>
<text text-anchor="start" x="2828" y="-112.054" font-family="Helvetica,sans-Serif" font-size="10.00">nars.storage.Memory.NARSBatch.run</text>
<text text-anchor="middle" x="2911" y="-101.054" font-family="Helvetica,sans-Serif" font-size="10.00">Inference</text>
</a>
</g>
</g>
<!-- Node23&#45;&gt;Node24 -->
<g id="edge26" class="edge"><title>Node23&#45;&gt;Node24</title>
<path fill="none" stroke="midnightblue" d="M2794.06,-109.054C2802.63,-109.054 2811.27,-109.054 2819.76,-109.054"/>
<polygon fill="midnightblue" stroke="midnightblue" points="2794.04,-105.555 2784.04,-109.054 2794.04,-112.555 2794.04,-105.555"/>
</g>
<!-- Node25 -->
<g id="node25" class="node"><title>Node25</title>
<g id="a_node25"><a xlink:href="../../d4/d88/classnars_1_1storage_1_1Memory_1_1NARSBatch_aa97fcd68270583e60e6bf1b4579d1bdc.html#aa97fcd68270583e60e6bf1b4579d1bdc" target="_top" xlink:title="The entry point of the standalone application. ">
<polygon fill="none" stroke="black" points="3038,-99.5545 3038,-118.554 3228,-118.554 3228,-99.5545 3038,-99.5545"/>
<text text-anchor="middle" x="3133" y="-106.554" font-family="Helvetica,sans-Serif" font-size="10.00">nars.storage.Memory.NARSBatch.main</text>
</a>
</g>
</g>
<!-- Node24&#45;&gt;Node25 -->
<g id="edge27" class="edge"><title>Node24&#45;&gt;Node25</title>
<path fill="none" stroke="midnightblue" d="M3012.37,-109.054C3020.82,-109.054 3029.34,-109.054 3037.74,-109.054"/>
<polygon fill="midnightblue" stroke="midnightblue" points="3012.12,-105.555 3002.12,-109.054 3012.12,-112.555 3012.12,-105.555"/>
</g>
<!-- Node27 -->
<g id="node27" class="node"><title>Node27</title>
<g id="a_node27"><a xlink:href="../../da/de3/classnars_1_1inference_1_1RuleTables_a00ffbf7a9069cfd135acae4b46d78d05.html#a00ffbf7a9069cfd135acae4b46d78d05" target="_top" xlink:title="Inference between a compound term and a component of it. ">
<polygon fill="none" stroke="black" points="1049,-206.054 1049,-236.054 1228,-236.054 1228,-206.054 1049,-206.054"/>
<text text-anchor="start" x="1057" y="-224.054" font-family="Helvetica,sans-Serif" font-size="10.00">nars.inference.RuleTables.compound</text>
<text text-anchor="middle" x="1138.5" y="-213.054" font-family="Helvetica,sans-Serif" font-size="10.00">AndSelf</text>
</a>
</g>
</g>
<!-- Node26&#45;&gt;Node27 -->
<g id="edge29" class="edge"><title>Node26&#45;&gt;Node27</title>
<path fill="none" stroke="midnightblue" d="M812.901,-221.054C881.127,-221.054 978.616,-221.054 1048.93,-221.054"/>
<polygon fill="midnightblue" stroke="midnightblue" points="812.633,-217.555 802.633,-221.054 812.633,-224.555 812.633,-217.555"/>
</g>
<!-- Node27&#45;&gt;Node17 -->
<g id="edge32" class="edge"><title>Node27&#45;&gt;Node17</title>
<path fill="none" stroke="midnightblue" d="M1198.26,-238.625C1261.3,-254.519 1363.6,-271.699 1447,-245.054 1500.65,-227.913 1551.17,-180.458 1571.31,-159.834"/>
<polygon fill="midnightblue" stroke="midnightblue" points="1199.05,-235.214 1188.49,-236.093 1197.29,-241.99 1199.05,-235.214"/>
</g>
<!-- Node28 -->
<g id="node28" class="node"><title>Node28</title>
<g id="a_node28"><a xlink:href="../../da/de3/classnars_1_1inference_1_1RuleTables_a764dbc9ccccf406df45e09fbfeda928f.html#a764dbc9ccccf406df45e09fbfeda928f" target="_top" xlink:title="Inference between two compound terms. ">
<polygon fill="none" stroke="black" points="1267.5,-206.054 1267.5,-236.054 1446.5,-236.054 1446.5,-206.054 1267.5,-206.054"/>
<text text-anchor="start" x="1275.5" y="-224.054" font-family="Helvetica,sans-Serif" font-size="10.00">nars.inference.RuleTables.compound</text>
<text text-anchor="middle" x="1357" y="-213.054" font-family="Helvetica,sans-Serif" font-size="10.00">AndCompound</text>
</a>
</g>
</g>
<!-- Node27&#45;&gt;Node28 -->
<g id="edge30" class="edge"><title>Node27&#45;&gt;Node28</title>
<path fill="none" stroke="midnightblue" d="M1238.27,-221.054C1248,-221.054 1257.84,-221.054 1267.45,-221.054"/>
<polygon fill="midnightblue" stroke="midnightblue" points="1238.18,-217.555 1228.18,-221.054 1238.18,-224.555 1238.18,-217.555"/>
</g>
<!-- Node28&#45;&gt;Node17 -->
<g id="edge31" class="edge"><title>Node28&#45;&gt;Node17</title>
<path fill="none" stroke="midnightblue" d="M1423.37,-203.159C1431.35,-200.837 1439.38,-198.436 1447,-196.054 1484.44,-184.357 1527.23,-169.313 1554.05,-159.674"/>
<polygon fill="midnightblue" stroke="midnightblue" points="1422.34,-199.816 1413.69,-205.946 1424.27,-206.543 1422.34,-199.816"/>
</g>
<!-- Node30 -->
<g id="node30" class="node"><title>Node30</title>
<g id="a_node30"><a xlink:href="../../da/de3/classnars_1_1inference_1_1RuleTables_a8e422154fd8288d161435c3a53e44276.html#a8e422154fd8288d161435c3a53e44276" target="_top" xlink:title="Inference between a compound term and a statement. ">
<polygon fill="none" stroke="black" points="1267.5,-157.054 1267.5,-187.054 1446.5,-187.054 1446.5,-157.054 1267.5,-157.054"/>
<text text-anchor="start" x="1275.5" y="-175.054" font-family="Helvetica,sans-Serif" font-size="10.00">nars.inference.RuleTables.compound</text>
<text text-anchor="middle" x="1357" y="-164.054" font-family="Helvetica,sans-Serif" font-size="10.00">AndStatement</text>
</a>
</g>
</g>
<!-- Node29&#45;&gt;Node30 -->
<g id="edge34" class="edge"><title>Node29&#45;&gt;Node30</title>
<path fill="none" stroke="midnightblue" d="M804.203,-172.054C919,-172.054 1142.84,-172.054 1267.25,-172.054"/>
<polygon fill="midnightblue" stroke="midnightblue" points="804.113,-168.555 794.113,-172.054 804.113,-175.555 804.113,-168.555"/>
</g>
<!-- Node30&#45;&gt;Node17 -->
<g id="edge35" class="edge"><title>Node30&#45;&gt;Node17</title>
<path fill="none" stroke="midnightblue" d="M1456.53,-162.312C1471,-160.882 1485.75,-159.423 1499.8,-158.034"/>
<polygon fill="midnightblue" stroke="midnightblue" points="1456.18,-158.829 1446.58,-163.296 1456.87,-165.795 1456.18,-158.829"/>
</g>
<!-- Node32 -->
<g id="node32" class="node"><title>Node32</title>
<g id="a_node32"><a xlink:href="../../d4/daa/classnars_1_1inference_1_1SyllogisticRules_a90588e33b6d7ca522e787ee476a2a012.html#a90588e33b6d7ca522e787ee476a2a012" target="_top" xlink:title="{&lt;(&amp;&amp;, S1, S2) &lt;=&gt; P&gt;, (&amp;&amp;, S1, S2)} |&#45; P ">
<polygon fill="none" stroke="black" points="1075.5,-113.054 1075.5,-143.054 1201.5,-143.054 1201.5,-113.054 1075.5,-113.054"/>
<text text-anchor="start" x="1083.5" y="-131.054" font-family="Helvetica,sans-Serif" font-size="10.00">nars.inference.Syllogistic</text>
<text text-anchor="middle" x="1138.5" y="-120.054" font-family="Helvetica,sans-Serif" font-size="10.00">Rules.conditionalAna</text>
</a>
</g>
</g>
<!-- Node31&#45;&gt;Node32 -->
<g id="edge37" class="edge"><title>Node31&#45;&gt;Node32</title>
<path fill="none" stroke="midnightblue" d="M1020.45,-128.054C1039.02,-128.054 1058.1,-128.054 1075.33,-128.054"/>
<polygon fill="midnightblue" stroke="midnightblue" points="1020.2,-124.555 1010.2,-128.054 1020.2,-131.555 1020.2,-124.555"/>
</g>
<!-- Node33 -->
<g id="node33" class="node"><title>Node33</title>
<g id="a_node33"><a xlink:href="../../d4/daa/classnars_1_1inference_1_1SyllogisticRules_a6ee55e2d5114b506fdf5c59ae00dcd19.html#a6ee55e2d5114b506fdf5c59ae00dcd19" target="_top" xlink:title="{&lt;(&amp;&amp;, S1, S2, S3) ==&gt; P&gt;, S1} |&#45; &lt;(&amp;&amp;, S2, S3) ==&gt; P&gt; {&lt;(&amp;&amp;, S2, S3) ==&gt; P&gt;, &lt;S1 ==&gt; S2&gt;} |&#45; &lt;(&amp;&amp;...">
<polygon fill="none" stroke="black" points="1075.5,-64.0545 1075.5,-94.0545 1201.5,-94.0545 1201.5,-64.0545 1075.5,-64.0545"/>
<text text-anchor="start" x="1083.5" y="-82.0545" font-family="Helvetica,sans-Serif" font-size="10.00">nars.inference.Syllogistic</text>
<text text-anchor="middle" x="1138.5" y="-71.0545" font-family="Helvetica,sans-Serif" font-size="10.00">Rules.conditionalDedInd</text>
</a>
</g>
</g>
<!-- Node31&#45;&gt;Node33 -->
<g id="edge39" class="edge"><title>Node31&#45;&gt;Node33</title>
<path fill="none" stroke="midnightblue" d="M1001.73,-110.733C1025.81,-105.116 1052.25,-98.9467 1075.35,-93.5567"/>
<polygon fill="midnightblue" stroke="midnightblue" points="1000.88,-107.339 991.934,-113.02 1002.47,-114.156 1000.88,-107.339"/>
</g>
<!-- Node32&#45;&gt;Node17 -->
<g id="edge38" class="edge"><title>Node32&#45;&gt;Node17</title>
<path fill="none" stroke="midnightblue" d="M1212.12,-131.677C1291.3,-135.627 1417.67,-141.931 1499.87,-146.032"/>
<polygon fill="midnightblue" stroke="midnightblue" points="1211.91,-128.163 1201.75,-131.16 1211.56,-135.154 1211.91,-128.163"/>
</g>
<!-- Node33&#45;&gt;Node17 -->
<g id="edge42" class="edge"><title>Node33&#45;&gt;Node17</title>
<path fill="none" stroke="midnightblue" d="M1211.74,-90.6853C1298.17,-104.601 1441.23,-127.632 1521.39,-140.537"/>
<polygon fill="midnightblue" stroke="midnightblue" points="1212.18,-87.2106 1201.75,-89.0765 1211.07,-94.1216 1212.18,-87.2106"/>
</g>
<!-- Node34 -->
<g id="node34" class="node"><title>Node34</title>
<g id="a_node34"><a xlink:href="../../da/de3/classnars_1_1inference_1_1RuleTables_a62599450d65ff257b92df0d48d7c1bdf.html#a62599450d65ff257b92df0d48d7c1bdf" target="_top" xlink:title="Conditional deduction or induction, with variable unification. ">
<polygon fill="none" stroke="black" points="1267,-31.0545 1267,-61.0545 1447,-61.0545 1447,-31.0545 1267,-31.0545"/>
<text text-anchor="start" x="1275" y="-49.0545" font-family="Helvetica,sans-Serif" font-size="10.00">nars.inference.RuleTables.conditional</text>
<text text-anchor="middle" x="1357" y="-38.0545" font-family="Helvetica,sans-Serif" font-size="10.00">DedIndWithVar</text>
</a>
</g>
</g>
<!-- Node33&#45;&gt;Node34 -->
<g id="edge40" class="edge"><title>Node33&#45;&gt;Node34</title>
<path fill="none" stroke="midnightblue" d="M1211.76,-68.0395C1229.44,-65.345 1248.57,-62.4303 1266.93,-59.6314"/>
<polygon fill="midnightblue" stroke="midnightblue" points="1210.9,-64.631 1201.54,-69.598 1211.95,-71.5511 1210.9,-64.631"/>
</g>
<!-- Node34&#45;&gt;Node17 -->
<g id="edge41" class="edge"><title>Node34&#45;&gt;Node17</title>
<path fill="none" stroke="midnightblue" d="M1417.51,-64.443C1427.47,-67.9963 1437.62,-71.9135 1447,-76.0545 1491.61,-95.7419 1541.06,-125.357 1565.35,-140.458"/>
<polygon fill="midnightblue" stroke="midnightblue" points="1418.63,-61.1288 1408.04,-61.1523 1416.33,-67.7409 1418.63,-61.1288"/>
</g>
<!-- Node36 -->
<g id="node36" class="node"><title>Node36</title>
<g id="a_node36"><a xlink:href="../../da/de3/classnars_1_1inference_1_1RuleTables_a61c932b424464483bd80c783294ab446.html#a61c932b424464483bd80c783294ab446" target="_top" xlink:title="The TaskLink is of type TRANSFORM, and the conclusion is an equivalent transformation. ">
<polygon fill="none" stroke="black" points="1483,-58.5545 1483,-77.5545 1680,-77.5545 1680,-58.5545 1483,-58.5545"/>
<text text-anchor="middle" x="1581.5" y="-65.5545" font-family="Helvetica,sans-Serif" font-size="10.00">nars.inference.RuleTables.transformTask</text>
</a>
</g>
</g>
<!-- Node35&#45;&gt;Node36 -->
<g id="edge44" class="edge"><title>Node35&#45;&gt;Node36</title>
<path fill="none" stroke="midnightblue" d="M611.865,-29.4644C691.903,-17.5289 816.661,-2.05449 925.5,-2.05449 925.5,-2.05449 925.5,-2.05449 1139.5,-2.05449 1276.43,-2.05449 1312.81,6.16346 1447,-21.0545 1487.94,-29.3577 1533.38,-47.3592 1559.28,-58.5169"/>
<polygon fill="midnightblue" stroke="midnightblue" points="611.212,-26.0232 601.845,-30.9749 612.255,-32.945 611.212,-26.0232"/>
</g>
<!-- Node36&#45;&gt;Node18 -->
<g id="edge45" class="edge"><title>Node36&#45;&gt;Node18</title>
<path fill="none" stroke="midnightblue" d="M1637.12,-79.719C1666.48,-85.9872 1702.21,-93.6182 1729.88,-99.5258"/>
<polygon fill="midnightblue" stroke="midnightblue" points="1637.54,-76.2293 1627.03,-77.5638 1636.08,-83.075 1637.54,-76.2293"/>
</g>
</g>
</svg>
