<?xml version="1.0" encoding="UTF-8" standalone="no"?>
<!DOCTYPE svg PUBLIC "-//W3C//DTD SVG 1.1//EN"
 "http://www.w3.org/Graphics/SVG/1.1/DTD/svg11.dtd">
<!-- Generated by graphviz version 2.38.0 (20140413.2041)
 -->
<!-- Title: nars.language.CompoundTerm.renameVariables Pages: 1 -->
<svg width="834pt" height="255pt"
 viewBox="0.00 0.00 834.00 254.50" xmlns="http://www.w3.org/2000/svg" xmlns:xlink="http://www.w3.org/1999/xlink">
<g id="graph0" class="graph" transform="scale(1 1) rotate(0) translate(4 250.5)">
<title>nars.language.CompoundTerm.renameVariables</title>
<!-- Node1 -->
<g id="node1" class="node"><title>Node1</title>
<polygon fill="#bfbfbf" stroke="black" points="0,-61 0,-91 185,-91 185,-61 0,-61"/>
<text text-anchor="start" x="8" y="-79" font-family="Helvetica,sans-Serif" font-size="10.00">nars.language.CompoundTerm.rename</text>
<text text-anchor="middle" x="92.5" y="-68" font-family="Helvetica,sans-Serif" font-size="10.00">Variables</text>
</g>
<!-- Node2 -->
<g id="node2" class="node"><title>Node2</title>
<g id="a_node2"><a xlink:href="../../d0/dee/classnars_1_1language_1_1CompoundTerm_a18e066f782a0070b137132a6a2d732d6.html#a18e066f782a0070b137132a6a2d732d6" target="_top" xlink:title="Whether this compound term contains any variable term. ">
<polygon fill="none" stroke="black" points="222.5,-131.5 222.5,-150.5 422.5,-150.5 422.5,-131.5 222.5,-131.5"/>
<text text-anchor="middle" x="322.5" y="-138.5" font-family="Helvetica,sans-Serif" font-size="10.00">nars.language.CompoundTerm.containVar</text>
</a>
</g>
</g>
<!-- Node1&#45;&gt;Node2 -->
<g id="edge1" class="edge"><title>Node1&#45;&gt;Node2</title>
<path fill="none" stroke="midnightblue" d="M137.503,-91.0695C161.956,-99.2113 193.01,-109.17 221,-117 236.305,-121.281 253.053,-125.474 268.412,-129.126"/>
<polygon fill="midnightblue" stroke="midnightblue" points="267.74,-132.563 278.276,-131.444 269.342,-125.749 267.74,-132.563"/>
</g>
<!-- Node7 -->
<g id="node7" class="node"><title>Node7</title>
<g id="a_node7"><a xlink:href="../../d0/dee/classnars_1_1language_1_1CompoundTerm_aa26a304f6249c185836d8fde8b8f17a8.html#aa26a304f6249c185836d8fde8b8f17a8" target="_top" xlink:title="default method to make the oldName of the current term from existing fields ">
<polygon fill="none" stroke="black" points="221,-88.5 221,-107.5 424,-107.5 424,-88.5 221,-88.5"/>
<text text-anchor="middle" x="322.5" y="-95.5" font-family="Helvetica,sans-Serif" font-size="10.00">nars.language.CompoundTerm.makeName</text>
</a>
</g>
</g>
<!-- Node1&#45;&gt;Node7 -->
<g id="edge6" class="edge"><title>Node1&#45;&gt;Node7</title>
<path fill="none" stroke="midnightblue" d="M185.251,-84.8531C194.338,-85.73 203.621,-86.6258 212.858,-87.517"/>
<polygon fill="midnightblue" stroke="midnightblue" points="212.56,-91.0045 222.85,-88.4812 213.233,-84.0368 212.56,-91.0045"/>
</g>
<!-- Node10 -->
<g id="node10" class="node"><title>Node10</title>
<g id="a_node10"><a xlink:href="../../d0/dee/classnars_1_1language_1_1CompoundTerm_aba82571567444c65efde4cdba1733ac9.html#aba82571567444c65efde4cdba1733ac9" target="_top" xlink:title="Set the constant status. ">
<polygon fill="none" stroke="black" points="239,-39 239,-69 406,-69 406,-39 239,-39"/>
<text text-anchor="start" x="247" y="-57" font-family="Helvetica,sans-Serif" font-size="10.00">nars.language.CompoundTerm.set</text>
<text text-anchor="middle" x="322.5" y="-46" font-family="Helvetica,sans-Serif" font-size="10.00">Constant</text>
</a>
</g>
</g>
<!-- Node1&#45;&gt;Node10 -->
<g id="edge10" class="edge"><title>Node1&#45;&gt;Node10</title>
<path fill="none" stroke="midnightblue" d="M185.251,-67.1469C199.49,-65.7729 214.21,-64.3525 228.477,-62.9759"/>
<polygon fill="midnightblue" stroke="midnightblue" points="229.154,-66.4269 238.772,-61.9825 228.482,-59.4593 229.154,-66.4269"/>
</g>
<!-- Node12 -->
<g id="node12" class="node"><title>Node12</title>
<g id="a_node12"><a xlink:href="../../d0/dee/classnars_1_1language_1_1CompoundTerm_a312b373f0e3a6b8124a1f17707ab8c87.html#a312b373f0e3a6b8124a1f17707ab8c87" target="_top" xlink:title="Change the oldName of a CompoundTerm, called after variable substitution. ">
<polygon fill="none" stroke="black" points="226,-0.5 226,-19.5 419,-19.5 419,-0.5 226,-0.5"/>
<text text-anchor="middle" x="322.5" y="-7.5" font-family="Helvetica,sans-Serif" font-size="10.00">nars.language.CompoundTerm.setName</text>
</a>
</g>
</g>
<!-- Node1&#45;&gt;Node12 -->
<g id="edge12" class="edge"><title>Node1&#45;&gt;Node12</title>
<path fill="none" stroke="midnightblue" d="M129.521,-60.8934C154.774,-50.7574 189.51,-37.7156 221,-29 230.986,-26.2362 241.641,-23.7451 252.142,-21.5462"/>
<polygon fill="midnightblue" stroke="midnightblue" points="253.025,-24.9384 262.135,-19.528 251.64,-18.0769 253.025,-24.9384"/>
</g>
<!-- Node3 -->
<g id="node3" class="node"><title>Node3</title>
<g id="a_node3"><a xlink:href="../../de/da5/classnars_1_1language_1_1Variable_a2c36e85a56295a27aba7a4ee162f5850.html#a2c36e85a56295a27aba7a4ee162f5850" target="_top" xlink:title="Check whether a string represent a name of a term that contains a variable. ">
<polygon fill="none" stroke="black" points="466,-147.5 466,-166.5 631,-166.5 631,-147.5 466,-147.5"/>
<text text-anchor="middle" x="548.5" y="-154.5" font-family="Helvetica,sans-Serif" font-size="10.00">nars.language.Variable.containVar</text>
</a>
</g>
</g>
<!-- Node2&#45;&gt;Node3 -->
<g id="edge2" class="edge"><title>Node2&#45;&gt;Node3</title>
<path fill="none" stroke="midnightblue" d="M422.728,-148.088C433.636,-148.867 444.707,-149.658 455.522,-150.43"/>
<polygon fill="midnightblue" stroke="midnightblue" points="455.573,-153.943 465.797,-151.164 456.072,-146.96 455.573,-153.943"/>
</g>
<!-- Node4 -->
<g id="node4" class="node"><title>Node4</title>
<g id="a_node4"><a xlink:href="../../de/da5/classnars_1_1language_1_1Variable_a9caa9f23d798ce1913cfca744ddd1c15.html#a9caa9f23d798ce1913cfca744ddd1c15" target="_top" xlink:title="Check whether a string represent a name of a term that contains an independent variable. ">
<polygon fill="none" stroke="black" points="674.5,-216 674.5,-246 824.5,-246 824.5,-216 674.5,-216"/>
<text text-anchor="start" x="682.5" y="-234" font-family="Helvetica,sans-Serif" font-size="10.00">nars.language.Variable.contain</text>
<text text-anchor="middle" x="749.5" y="-223" font-family="Helvetica,sans-Serif" font-size="10.00">VarIndep</text>
</a>
</g>
</g>
<!-- Node3&#45;&gt;Node4 -->
<g id="edge3" class="edge"><title>Node3&#45;&gt;Node4</title>
<path fill="none" stroke="midnightblue" d="M571.612,-166.552C596.171,-177.021 637.098,-194.048 673,-207 678.387,-208.944 684.02,-210.89 689.675,-212.787"/>
<polygon fill="midnightblue" stroke="midnightblue" points="688.581,-216.111 699.174,-215.922 690.775,-209.464 688.581,-216.111"/>
</g>
<!-- Node5 -->
<g id="node5" class="node"><title>Node5</title>
<g id="a_node5"><a xlink:href="../../de/da5/classnars_1_1language_1_1Variable_a3a7ee29b5a23255edf3dbca5f85f7b44.html#a3a7ee29b5a23255edf3dbca5f85f7b44" target="_top" xlink:title="Check whether a string represent a name of a term that contains a dependent variable. ">
<polygon fill="none" stroke="black" points="674.5,-167 674.5,-197 824.5,-197 824.5,-167 674.5,-167"/>
<text text-anchor="start" x="682.5" y="-185" font-family="Helvetica,sans-Serif" font-size="10.00">nars.language.Variable.contain</text>
<text text-anchor="middle" x="749.5" y="-174" font-family="Helvetica,sans-Serif" font-size="10.00">VarDep</text>
</a>
</g>
</g>
<!-- Node3&#45;&gt;Node5 -->
<g id="edge4" class="edge"><title>Node3&#45;&gt;Node5</title>
<path fill="none" stroke="midnightblue" d="M625.301,-166.523C637.955,-168.112 651.151,-169.77 664.006,-171.385"/>
<polygon fill="midnightblue" stroke="midnightblue" points="663.867,-174.895 674.225,-172.669 664.739,-167.95 663.867,-174.895"/>
</g>
<!-- Node6 -->
<g id="node6" class="node"><title>Node6</title>
<g id="a_node6"><a xlink:href="../../de/da5/classnars_1_1language_1_1Variable_a25dcc4d5882131d679903f93d41420c9.html#a25dcc4d5882131d679903f93d41420c9" target="_top" xlink:title="Check whether a string represent a name of a term that contains a query variable. ...">
<polygon fill="none" stroke="black" points="674.5,-118 674.5,-148 824.5,-148 824.5,-118 674.5,-118"/>
<text text-anchor="start" x="682.5" y="-136" font-family="Helvetica,sans-Serif" font-size="10.00">nars.language.Variable.contain</text>
<text text-anchor="middle" x="749.5" y="-125" font-family="Helvetica,sans-Serif" font-size="10.00">VarQuery</text>
</a>
</g>
</g>
<!-- Node3&#45;&gt;Node6 -->
<g id="edge5" class="edge"><title>Node3&#45;&gt;Node6</title>
<path fill="none" stroke="midnightblue" d="M628.436,-147.48C640.102,-146.073 652.163,-144.619 663.938,-143.198"/>
<polygon fill="midnightblue" stroke="midnightblue" points="664.686,-146.634 674.195,-141.961 663.848,-139.684 664.686,-146.634"/>
</g>
<!-- Node8 -->
<g id="node8" class="node"><title>Node8</title>
<g id="a_node8"><a xlink:href="../../d0/dee/classnars_1_1language_1_1CompoundTerm_a8d1e610c509fa096c6b52eb5fe06d59b.html#a8d1e610c509fa096c6b52eb5fe06d59b" target="_top" xlink:title="default method to make the oldName of a compound term from given fields ">
<polygon fill="none" stroke="black" points="460,-83 460,-113 637,-113 637,-83 460,-83"/>
<text text-anchor="start" x="468" y="-101" font-family="Helvetica,sans-Serif" font-size="10.00">nars.language.CompoundTerm.make</text>
<text text-anchor="middle" x="548.5" y="-90" font-family="Helvetica,sans-Serif" font-size="10.00">CompoundName</text>
</a>
</g>
</g>
<!-- Node7&#45;&gt;Node8 -->
<g id="edge7" class="edge"><title>Node7&#45;&gt;Node8</title>
<path fill="none" stroke="midnightblue" d="M424.034,-91.2815C432.644,-91.234 441.345,-91.2402 449.932,-91.3001"/>
<polygon fill="midnightblue" stroke="midnightblue" points="449.914,-94.7999 459.947,-91.395 449.98,-87.8003 449.914,-94.7999"/>
</g>
<!-- Node8&#45;&gt;Node7 -->
<g id="edge9" class="edge"><title>Node8&#45;&gt;Node7</title>
<path fill="none" stroke="midnightblue" d="M459.947,-104.605C451.482,-104.707 442.821,-104.755 434.171,-104.75"/>
<polygon fill="midnightblue" stroke="midnightblue" points="434.044,-101.249 424.034,-104.718 434.023,-108.249 434.044,-101.249"/>
</g>
<!-- Node9 -->
<g id="node9" class="node"><title>Node9</title>
<g id="a_node9"><a xlink:href="../../d0/dee/classnars_1_1language_1_1CompoundTerm_a89000afae8017231889aaa549292d1e0.html#a89000afae8017231889aaa549292d1e0" target="_top" xlink:title="Default constructor. ">
<polygon fill="none" stroke="black" points="673,-69 673,-99 826,-99 826,-69 673,-69"/>
<text text-anchor="start" x="681" y="-87" font-family="Helvetica,sans-Serif" font-size="10.00">nars.language.CompoundTerm.</text>
<text text-anchor="middle" x="749.5" y="-76" font-family="Helvetica,sans-Serif" font-size="10.00">CompoundTerm</text>
</a>
</g>
</g>
<!-- Node8&#45;&gt;Node9 -->
<g id="edge8" class="edge"><title>Node8&#45;&gt;Node9</title>
<path fill="none" stroke="midnightblue" d="M637.074,-91.839C645.525,-91.2445 654.093,-90.6417 662.528,-90.0483"/>
<polygon fill="midnightblue" stroke="midnightblue" points="663.006,-93.5234 672.736,-89.3302 662.515,-86.5407 663.006,-93.5234"/>
</g>
<!-- Node11 -->
<g id="node11" class="node"><title>Node11</title>
<g id="a_node11"><a xlink:href="../../d0/dee/classnars_1_1language_1_1CompoundTerm_aee0ef6fd533b58caf22bee2a98eef67d.html#aee0ef6fd533b58caf22bee2a98eef67d" target="_top" xlink:title="check if the term contains free variable ">
<polygon fill="none" stroke="black" points="468,-34 468,-64 629,-64 629,-34 468,-34"/>
<text text-anchor="start" x="476" y="-52" font-family="Helvetica,sans-Serif" font-size="10.00">nars.language.CompoundTerm.is</text>
<text text-anchor="middle" x="548.5" y="-41" font-family="Helvetica,sans-Serif" font-size="10.00">Constant</text>
</a>
</g>
</g>
<!-- Node10&#45;&gt;Node11 -->
<g id="edge11" class="edge"><title>Node10&#45;&gt;Node11</title>
<path fill="none" stroke="midnightblue" d="M406.273,-52.1524C422.889,-51.7815 440.428,-51.39 457.283,-51.0138"/>
<polygon fill="midnightblue" stroke="midnightblue" points="457.755,-54.5042 467.675,-50.7818 457.599,-47.5059 457.755,-54.5042"/>
</g>
</g>
</svg>
