<?xml version="1.0" encoding="UTF-8" standalone="no"?>
<!DOCTYPE svg PUBLIC "-//W3C//DTD SVG 1.1//EN"
 "http://www.w3.org/Graphics/SVG/1.1/DTD/svg11.dtd">
<!-- Generated by graphviz version 2.38.0 (20140413.2041)
 -->
<!-- Title: nars.language.CompoundTerm.size Pages: 1 -->
<svg width="2836pt" height="487pt"
 viewBox="0.00 0.00 2836.00 487.00" xmlns="http://www.w3.org/2000/svg" xmlns:xlink="http://www.w3.org/1999/xlink">
<g id="graph0" class="graph" transform="scale(1 1) rotate(0) translate(4 483)">
<title>nars.language.CompoundTerm.size</title>
<!-- Node1 -->
<g id="node1" class="node"><title>Node1</title>
<polygon fill="#bfbfbf" stroke="black" points="0,-241 0,-260 171,-260 171,-241 0,-241"/>
<text text-anchor="middle" x="85.5" y="-248" font-family="Helvetica,sans-Serif" font-size="10.00">nars.language.CompoundTerm.size</text>
</g>
<!-- Node2 -->
<g id="node2" class="node"><title>Node2</title>
<g id="a_node2"><a xlink:href="../../d0/dee/classnars_1_1language_1_1CompoundTerm_a7899e3d2c69785eeb83f2b78bf474da6.html#a7899e3d2c69785eeb83f2b78bf474da6" target="_top" xlink:title="Recursively apply a substitute to the current CompoundTerm. ">
<polygon fill="none" stroke="black" points="211.5,-186.5 211.5,-216.5 387.5,-216.5 387.5,-186.5 211.5,-186.5"/>
<text text-anchor="start" x="219.5" y="-204.5" font-family="Helvetica,sans-Serif" font-size="10.00">nars.language.CompoundTerm.apply</text>
<text text-anchor="middle" x="299.5" y="-193.5" font-family="Helvetica,sans-Serif" font-size="10.00">Substitute</text>
</a>
</g>
</g>
<!-- Node1&#45;&gt;Node2 -->
<g id="edge1" class="edge"><title>Node1&#45;&gt;Node2</title>
<path fill="none" stroke="midnightblue" d="M137.468,-238.72C166.232,-232.071 202.477,-223.694 233.294,-216.571"/>
<polygon fill="midnightblue" stroke="midnightblue" points="136.582,-235.332 127.627,-240.994 138.158,-242.152 136.582,-235.332"/>
</g>
<!-- Node16 -->
<g id="node16" class="node"><title>Node16</title>
<g id="a_node16"><a xlink:href="../../da/de3/classnars_1_1inference_1_1RuleTables_a764dbc9ccccf406df45e09fbfeda928f.html#a764dbc9ccccf406df45e09fbfeda928f" target="_top" xlink:title="Inference between two compound terms. ">
<polygon fill="none" stroke="black" points="867.5,-319.5 867.5,-349.5 1046.5,-349.5 1046.5,-319.5 867.5,-319.5"/>
<text text-anchor="start" x="875.5" y="-337.5" font-family="Helvetica,sans-Serif" font-size="10.00">nars.inference.RuleTables.compound</text>
<text text-anchor="middle" x="957" y="-326.5" font-family="Helvetica,sans-Serif" font-size="10.00">AndCompound</text>
</a>
</g>
</g>
<!-- Node1&#45;&gt;Node16 -->
<g id="edge16" class="edge"><title>Node1&#45;&gt;Node16</title>
<path fill="none" stroke="midnightblue" d="M100.483,-268.239C120.861,-292.492 161.305,-334.883 207,-351.5 325.798,-394.703 695.995,-362.499 867.34,-344.491"/>
<polygon fill="midnightblue" stroke="midnightblue" points="102.952,-265.73 93.9104,-260.206 97.5337,-270.162 102.952,-265.73"/>
</g>
<!-- Node17 -->
<g id="node17" class="node"><title>Node17</title>
<g id="a_node17"><a xlink:href="../../de/da5/classnars_1_1language_1_1Variable_a997e50c6a8ea7057483f057bc703a4f0.html#a997e50c6a8ea7057483f057bc703a4f0" target="_top" xlink:title="To recursively find a substitution that can unify two Terms without changing them. ">
<polygon fill="none" stroke="black" points="232.5,-98.5 232.5,-128.5 366.5,-128.5 366.5,-98.5 232.5,-98.5"/>
<text text-anchor="start" x="240.5" y="-116.5" font-family="Helvetica,sans-Serif" font-size="10.00">nars.language.Variable.find</text>
<text text-anchor="middle" x="299.5" y="-105.5" font-family="Helvetica,sans-Serif" font-size="10.00">Substitute</text>
</a>
</g>
</g>
<!-- Node1&#45;&gt;Node17 -->
<g id="edge18" class="edge"><title>Node1&#45;&gt;Node17</title>
<path fill="none" stroke="midnightblue" d="M101.534,-233.314C122.841,-209.931 164.034,-168.185 207,-143.5 217.292,-137.587 228.913,-132.646 240.335,-128.594"/>
<polygon fill="midnightblue" stroke="midnightblue" points="98.9267,-230.979 94.8567,-240.761 104.138,-235.652 98.9267,-230.979"/>
</g>
<!-- Node23 -->
<g id="node23" class="node"><title>Node23</title>
<g id="a_node23"><a xlink:href="../../db/dbb/classnars_1_1language_1_1ImageExt_ab4d0fff9b2a969b38bbdae6396174ac6.html#ab4d0fff9b2a969b38bbdae6396174ac6" target="_top" xlink:title="Try to make an Image from a Product and a relation. ">
<polygon fill="none" stroke="black" points="225,-323 225,-342 374,-342 374,-323 225,-323"/>
<text text-anchor="middle" x="299.5" y="-330" font-family="Helvetica,sans-Serif" font-size="10.00">nars.language.ImageExt.make</text>
</a>
</g>
</g>
<!-- Node1&#45;&gt;Node23 -->
<g id="edge27" class="edge"><title>Node1&#45;&gt;Node23</title>
<path fill="none" stroke="midnightblue" d="M110.109,-265.365C133.776,-279.65 171.675,-300.876 207,-313.5 217.542,-317.267 229.048,-320.384 240.233,-322.928"/>
<polygon fill="midnightblue" stroke="midnightblue" points="111.831,-262.316 101.475,-260.08 108.176,-268.286 111.831,-262.316"/>
</g>
<!-- Node24 -->
<g id="node24" class="node"><title>Node24</title>
<g id="a_node24"><a xlink:href="../../df/de3/classnars_1_1language_1_1ImageInt_a1a0bbfca7ce59e180cd5bec307630864.html#a1a0bbfca7ce59e180cd5bec307630864" target="_top" xlink:title="Try to make an Image from a Product and a relation. ">
<polygon fill="none" stroke="black" points="226.5,-285 226.5,-304 372.5,-304 372.5,-285 226.5,-285"/>
<text text-anchor="middle" x="299.5" y="-292" font-family="Helvetica,sans-Serif" font-size="10.00">nars.language.ImageInt.make</text>
</a>
</g>
</g>
<!-- Node1&#45;&gt;Node24 -->
<g id="edge28" class="edge"><title>Node1&#45;&gt;Node24</title>
<path fill="none" stroke="midnightblue" d="M142.391,-262.1C176.755,-269.232 220.245,-278.258 252.589,-284.971"/>
<polygon fill="midnightblue" stroke="midnightblue" points="143.003,-258.653 132.501,-260.047 141.581,-265.507 143.003,-258.653"/>
</g>
<!-- Node25 -->
<g id="node25" class="node"><title>Node25</title>
<g id="a_node25"><a xlink:href="../../d0/dee/classnars_1_1language_1_1CompoundTerm_a43cdaac00db9c962696e13abd3e4a4c4.html#a43cdaac00db9c962696e13abd3e4a4c4" target="_top" xlink:title="Collect TermLink templates into a list, go down one level except in special cases. ">
<polygon fill="none" stroke="black" points="207,-235.5 207,-265.5 392,-265.5 392,-235.5 207,-235.5"/>
<text text-anchor="start" x="215" y="-253.5" font-family="Helvetica,sans-Serif" font-size="10.00">nars.language.CompoundTerm.prepare</text>
<text text-anchor="middle" x="299.5" y="-242.5" font-family="Helvetica,sans-Serif" font-size="10.00">ComponentLinks</text>
</a>
</g>
</g>
<!-- Node1&#45;&gt;Node25 -->
<g id="edge29" class="edge"><title>Node1&#45;&gt;Node25</title>
<path fill="none" stroke="midnightblue" d="M181.48,-250.5C189.957,-250.5 198.529,-250.5 206.977,-250.5"/>
<polygon fill="midnightblue" stroke="midnightblue" points="181.202,-247 171.202,-250.5 181.202,-254 181.202,-247"/>
</g>
<!-- Node26 -->
<g id="node26" class="node"><title>Node26</title>
<g id="a_node26"><a xlink:href="../../db/d49/classnars_1_1inference_1_1StructuralRules_a7baceb5d0b1adc6005f24cf83bc88e01.html#a7baceb5d0b1adc6005f24cf83bc88e01" target="_top" xlink:title="{&lt;S &#45;&#45;&gt; P&gt;, S@(S&amp;T)} |&#45; &lt;(S&amp;T) –&gt; (P&amp;T)&gt; {&lt;S &#45;&#45;&gt; P&gt;, S@(M&#45;S)} |&#45; &lt;(M&#45;P) –&gt; (M&#45;S)&gt; ...">
<polygon fill="none" stroke="black" points="452.5,-164.5 452.5,-194.5 585.5,-194.5 585.5,-164.5 452.5,-164.5"/>
<text text-anchor="start" x="460.5" y="-182.5" font-family="Helvetica,sans-Serif" font-size="10.00">nars.inference.Structural</text>
<text text-anchor="middle" x="519" y="-171.5" font-family="Helvetica,sans-Serif" font-size="10.00">Rules.structuralCompose2</text>
</a>
</g>
</g>
<!-- Node1&#45;&gt;Node26 -->
<g id="edge30" class="edge"><title>Node1&#45;&gt;Node26</title>
<path fill="none" stroke="midnightblue" d="M105.167,-234.409C127.594,-216.24 167.197,-187.746 207,-176.5 289.099,-153.304 388.323,-159.883 452.261,-168.32"/>
<polygon fill="midnightblue" stroke="midnightblue" points="102.911,-231.732 97.4474,-240.809 107.379,-237.121 102.911,-231.732"/>
</g>
<!-- Node27 -->
<g id="node27" class="node"><title>Node27</title>
<g id="a_node27"><a xlink:href="../../db/d49/classnars_1_1inference_1_1StructuralRules_a38aabb9f3b3a70e03852da1e32ec665d.html#a38aabb9f3b3a70e03852da1e32ec665d" target="_top" xlink:title="{&lt;(S&amp;T) –&gt; (P&amp;T)&gt;, S@(S&amp;T)} |&#45; &lt;S &#45;&#45;&gt; P&gt; ">
<polygon fill="none" stroke="black" points="228,-399.5 228,-429.5 371,-429.5 371,-399.5 228,-399.5"/>
<text text-anchor="start" x="236" y="-417.5" font-family="Helvetica,sans-Serif" font-size="10.00">nars.inference.Structural</text>
<text text-anchor="middle" x="299.5" y="-406.5" font-family="Helvetica,sans-Serif" font-size="10.00">Rules.structuralDecompose2</text>
</a>
</g>
</g>
<!-- Node1&#45;&gt;Node27 -->
<g id="edge32" class="edge"><title>Node1&#45;&gt;Node27</title>
<path fill="none" stroke="midnightblue" d="M98.2322,-268.793C117.541,-297.486 158.724,-353.036 207,-384.5 216.244,-390.525 226.803,-395.437 237.385,-399.41"/>
<polygon fill="midnightblue" stroke="midnightblue" points="100.971,-266.588 92.5441,-260.166 95.1265,-270.441 100.971,-266.588"/>
</g>
<!-- Node29 -->
<g id="node29" class="node"><title>Node29</title>
<g id="a_node29"><a xlink:href="../../db/d49/classnars_1_1inference_1_1StructuralRules_ad34f61108459aea34b27a7547ac4ba48.html#ad34f61108459aea34b27a7547ac4ba48" target="_top" xlink:title="Equivalent transformation between products and images when the predicate is a compound {&lt;(*...">
<polygon fill="none" stroke="black" points="231,-0.5 231,-30.5 368,-30.5 368,-0.5 231,-0.5"/>
<text text-anchor="start" x="239" y="-18.5" font-family="Helvetica,sans-Serif" font-size="10.00">nars.inference.Structural</text>
<text text-anchor="middle" x="299.5" y="-7.5" font-family="Helvetica,sans-Serif" font-size="10.00">Rules.transformPredicatePI</text>
</a>
</g>
</g>
<!-- Node1&#45;&gt;Node29 -->
<g id="edge35" class="edge"><title>Node1&#45;&gt;Node29</title>
<path fill="none" stroke="midnightblue" d="M91.9921,-230.921C104.781,-189.033 140.626,-90.4004 207,-39.5 214.037,-34.1033 222.177,-29.9155 230.641,-26.6667"/>
<polygon fill="midnightblue" stroke="midnightblue" points="88.575,-230.136 89.1105,-240.717 95.2904,-232.111 88.575,-230.136"/>
</g>
<!-- Node32 -->
<g id="node32" class="node"><title>Node32</title>
<g id="a_node32"><a xlink:href="../../db/d49/classnars_1_1inference_1_1StructuralRules_aa64a90e38bec275a6a3acba2a2eeefa1.html#aa64a90e38bec275a6a3acba2a2eeefa1" target="_top" xlink:title="{&lt;S &#45;&#45;&gt; {P}&gt;} |&#45; &lt;S &lt;&#45;&gt; {P}&gt; ">
<polygon fill="none" stroke="black" points="231,-448.5 231,-478.5 368,-478.5 368,-448.5 231,-448.5"/>
<text text-anchor="start" x="239" y="-466.5" font-family="Helvetica,sans-Serif" font-size="10.00">nars.inference.Structural</text>
<text text-anchor="middle" x="299.5" y="-455.5" font-family="Helvetica,sans-Serif" font-size="10.00">Rules.transformSetRelation</text>
</a>
</g>
</g>
<!-- Node1&#45;&gt;Node32 -->
<g id="edge39" class="edge"><title>Node1&#45;&gt;Node32</title>
<path fill="none" stroke="midnightblue" d="M93.184,-269.605C107.624,-307.999 145.487,-394.663 207,-439.5 214.167,-444.724 222.381,-448.812 230.882,-452.01"/>
<polygon fill="midnightblue" stroke="midnightblue" points="96.444,-268.329 89.7319,-260.131 89.867,-270.725 96.444,-268.329"/>
</g>
<!-- Node33 -->
<g id="node33" class="node"><title>Node33</title>
<g id="a_node33"><a xlink:href="../../db/d49/classnars_1_1inference_1_1StructuralRules_a45ae086cf44c9f32cbe9a729f2419594.html#a45ae086cf44c9f32cbe9a729f2419594" target="_top" xlink:title="Equivalent transformation between products and images when the subject is a compound {&lt;(*...">
<polygon fill="none" stroke="black" points="235,-49.5 235,-79.5 364,-79.5 364,-49.5 235,-49.5"/>
<text text-anchor="start" x="243" y="-67.5" font-family="Helvetica,sans-Serif" font-size="10.00">nars.inference.Structural</text>
<text text-anchor="middle" x="299.5" y="-56.5" font-family="Helvetica,sans-Serif" font-size="10.00">Rules.transformSubjectPI</text>
</a>
</g>
</g>
<!-- Node1&#45;&gt;Node33 -->
<g id="edge41" class="edge"><title>Node1&#45;&gt;Node33</title>
<path fill="none" stroke="midnightblue" d="M95.3094,-231.349C112.033,-197.187 151.713,-125.829 207,-88.5 215.303,-82.8941 224.844,-78.5971 234.562,-75.3035"/>
<polygon fill="midnightblue" stroke="midnightblue" points="92.0062,-230.145 90.8646,-240.678 98.3256,-233.156 92.0062,-230.145"/>
</g>
<!-- Node3 -->
<g id="node3" class="node"><title>Node3</title>
<g id="a_node3"><a xlink:href="../../d8/d79/classnars_1_1inference_1_1CompositionalRules_ae7906cfca35e9c7568ace240aba808a0.html#ae7906cfca35e9c7568ace240aba808a0" target="_top" xlink:title=" &#160;&#160;&#160;&#160;Introduce a second independent variable into two terms with a common &#160;component ...">
<polygon fill="none" stroke="black" points="447.5,-213.5 447.5,-243.5 590.5,-243.5 590.5,-213.5 447.5,-213.5"/>
<text text-anchor="start" x="455.5" y="-231.5" font-family="Helvetica,sans-Serif" font-size="10.00">nars.inference.Compositional</text>
<text text-anchor="middle" x="519" y="-220.5" font-family="Helvetica,sans-Serif" font-size="10.00">Rules.introVarInner</text>
</a>
</g>
</g>
<!-- Node2&#45;&gt;Node3 -->
<g id="edge2" class="edge"><title>Node2&#45;&gt;Node3</title>
<path fill="none" stroke="midnightblue" d="M398.024,-213.606C414.682,-215.674 431.696,-217.786 447.478,-219.746"/>
<polygon fill="midnightblue" stroke="midnightblue" points="398.067,-210.085 387.712,-212.326 397.205,-217.032 398.067,-210.085"/>
</g>
<!-- Node4 -->
<g id="node4" class="node"><title>Node4</title>
<g id="a_node4"><a xlink:href="../../da/de3/classnars_1_1inference_1_1RuleTables_a8e422154fd8288d161435c3a53e44276.html#a8e422154fd8288d161435c3a53e44276" target="_top" xlink:title="Inference between a compound term and a statement. ">
<polygon fill="none" stroke="black" points="649,-193.5 649,-223.5 828,-223.5 828,-193.5 649,-193.5"/>
<text text-anchor="start" x="657" y="-211.5" font-family="Helvetica,sans-Serif" font-size="10.00">nars.inference.RuleTables.compound</text>
<text text-anchor="middle" x="738.5" y="-200.5" font-family="Helvetica,sans-Serif" font-size="10.00">AndStatement</text>
</a>
</g>
</g>
<!-- Node3&#45;&gt;Node4 -->
<g id="edge3" class="edge"><title>Node3&#45;&gt;Node4</title>
<path fill="none" stroke="midnightblue" d="M600.796,-221.07C616.493,-219.627 633.023,-218.107 648.954,-216.642"/>
<polygon fill="midnightblue" stroke="midnightblue" points="600.253,-217.606 590.616,-222.007 600.895,-224.576 600.253,-217.606"/>
</g>
<!-- Node14 -->
<g id="node14" class="node"><title>Node14</title>
<g id="a_node14"><a xlink:href="../../da/de3/classnars_1_1inference_1_1RuleTables_a3e3eec10853be6dcf8c7532259cf4a84.html#a3e3eec10853be6dcf8c7532259cf4a84" target="_top" xlink:title="The detachment rule, with variable unification. ">
<polygon fill="none" stroke="black" points="646,-242.5 646,-272.5 831,-272.5 831,-242.5 646,-242.5"/>
<text text-anchor="start" x="654" y="-260.5" font-family="Helvetica,sans-Serif" font-size="10.00">nars.inference.RuleTables.detachment</text>
<text text-anchor="middle" x="738.5" y="-249.5" font-family="Helvetica,sans-Serif" font-size="10.00">WithVar</text>
</a>
</g>
</g>
<!-- Node3&#45;&gt;Node14 -->
<g id="edge13" class="edge"><title>Node3&#45;&gt;Node14</title>
<path fill="none" stroke="midnightblue" d="M600.67,-239.256C615.384,-241.218 630.834,-243.278 645.839,-245.279"/>
<polygon fill="midnightblue" stroke="midnightblue" points="600.991,-235.768 590.616,-237.915 600.066,-242.706 600.991,-235.768"/>
</g>
<!-- Node5 -->
<g id="node5" class="node"><title>Node5</title>
<g id="a_node5"><a xlink:href="../../da/de3/classnars_1_1inference_1_1RuleTables_ac2d01dfdc40bdd47c757cb549217e6e3.html#ac2d01dfdc40bdd47c757cb549217e6e3" target="_top" xlink:title="Entry point of the inference engine. ">
<polygon fill="none" stroke="black" points="1100,-191 1100,-210 1263,-210 1263,-191 1100,-191"/>
<text text-anchor="middle" x="1181.5" y="-198" font-family="Helvetica,sans-Serif" font-size="10.00">nars.inference.RuleTables.reason</text>
</a>
</g>
</g>
<!-- Node4&#45;&gt;Node5 -->
<g id="edge4" class="edge"><title>Node4&#45;&gt;Node5</title>
<path fill="none" stroke="midnightblue" d="M838.635,-206.702C917.407,-205.273 1026.19,-203.299 1099.73,-201.965"/>
<polygon fill="midnightblue" stroke="midnightblue" points="838.147,-203.21 828.212,-206.891 838.274,-210.209 838.147,-203.21"/>
</g>
<!-- Node6 -->
<g id="node6" class="node"><title>Node6</title>
<g id="a_node6"><a xlink:href="../../d4/d22/classnars_1_1entity_1_1Concept_ae07576c8466ad65eeb61040e3f71cfc7.html#ae07576c8466ad65eeb61040e3f71cfc7" target="_top" xlink:title="An atomic step in a concept, only called in Memory# processConcept. ">
<polygon fill="none" stroke="black" points="1316,-147 1316,-166 1435,-166 1435,-147 1316,-147"/>
<text text-anchor="middle" x="1375.5" y="-154" font-family="Helvetica,sans-Serif" font-size="10.00">nars.entity.Concept.fire</text>
</a>
</g>
</g>
<!-- Node5&#45;&gt;Node6 -->
<g id="edge5" class="edge"><title>Node5&#45;&gt;Node6</title>
<path fill="none" stroke="midnightblue" d="M1233.92,-188.716C1264.92,-181.613 1303.88,-172.684 1332.92,-166.029"/>
<polygon fill="midnightblue" stroke="midnightblue" points="1233.13,-185.307 1224.16,-190.953 1234.69,-192.13 1233.13,-185.307"/>
</g>
<!-- Node7 -->
<g id="node7" class="node"><title>Node7</title>
<g id="a_node7"><a xlink:href="../../d8/df4/classnars_1_1storage_1_1Memory_a83154b55b922c82b73931d4f22e3a590.html#a83154b55b922c82b73931d4f22e3a590" target="_top" xlink:title="Select a concept to fire. ">
<polygon fill="none" stroke="black" points="1471,-141.5 1471,-171.5 1617,-171.5 1617,-141.5 1471,-141.5"/>
<text text-anchor="start" x="1479" y="-159.5" font-family="Helvetica,sans-Serif" font-size="10.00">nars.storage.Memory.process</text>
<text text-anchor="middle" x="1544" y="-148.5" font-family="Helvetica,sans-Serif" font-size="10.00">Concept</text>
</a>
</g>
</g>
<!-- Node6&#45;&gt;Node7 -->
<g id="edge6" class="edge"><title>Node6&#45;&gt;Node7</title>
<path fill="none" stroke="midnightblue" d="M1445.34,-156.5C1453.75,-156.5 1462.36,-156.5 1470.82,-156.5"/>
<polygon fill="midnightblue" stroke="midnightblue" points="1445.2,-153 1435.2,-156.5 1445.2,-160 1445.2,-153"/>
</g>
<!-- Node8 -->
<g id="node8" class="node"><title>Node8</title>
<g id="a_node8"><a xlink:href="../../d8/df4/classnars_1_1storage_1_1Memory_a49e2cbc8b78d535f4d69739886ee966a.html#a49e2cbc8b78d535f4d69739886ee966a" target="_top" xlink:title="An atomic working workCycle of the system: process new Tasks, then fire a concept. ">
<polygon fill="none" stroke="black" points="1653,-141.5 1653,-171.5 1786,-171.5 1786,-141.5 1653,-141.5"/>
<text text-anchor="start" x="1661" y="-159.5" font-family="Helvetica,sans-Serif" font-size="10.00">nars.storage.Memory.work</text>
<text text-anchor="middle" x="1719.5" y="-148.5" font-family="Helvetica,sans-Serif" font-size="10.00">Cycle</text>
</a>
</g>
</g>
<!-- Node7&#45;&gt;Node8 -->
<g id="edge7" class="edge"><title>Node7&#45;&gt;Node8</title>
<path fill="none" stroke="midnightblue" d="M1627.12,-156.5C1635.72,-156.5 1644.37,-156.5 1652.76,-156.5"/>
<polygon fill="midnightblue" stroke="midnightblue" points="1627.07,-153 1617.07,-156.5 1627.07,-160 1627.07,-153"/>
</g>
<!-- Node9 -->
<g id="node9" class="node"><title>Node9</title>
<g id="a_node9"><a xlink:href="../../dd/da5/classnars_1_1storage_1_1Memory_1_1ReasonerBatch_acc60dec23da774957a85362ed6d7448b.html#acc60dec23da774957a85362ed6d7448b" target="_top" xlink:title="nars.storage.Memory.Reasoner\lBatch.doTick">
<polygon fill="none" stroke="black" points="1822,-141.5 1822,-171.5 1976,-171.5 1976,-141.5 1822,-141.5"/>
<text text-anchor="start" x="1830" y="-159.5" font-family="Helvetica,sans-Serif" font-size="10.00">nars.storage.Memory.Reasoner</text>
<text text-anchor="middle" x="1899" y="-148.5" font-family="Helvetica,sans-Serif" font-size="10.00">Batch.doTick</text>
</a>
</g>
</g>
<!-- Node8&#45;&gt;Node9 -->
<g id="edge8" class="edge"><title>Node8&#45;&gt;Node9</title>
<path fill="none" stroke="midnightblue" d="M1796.32,-156.5C1804.79,-156.5 1813.41,-156.5 1821.89,-156.5"/>
<polygon fill="midnightblue" stroke="midnightblue" points="1796.09,-153 1786.09,-156.5 1796.09,-160 1796.09,-153"/>
</g>
<!-- Node10 -->
<g id="node10" class="node"><title>Node10</title>
<g id="a_node10"><a xlink:href="../../dd/da5/classnars_1_1storage_1_1Memory_1_1ReasonerBatch_aed591f05899b98fd9e4ad01836ad0a40.html#aed591f05899b98fd9e4ad01836ad0a40" target="_top" xlink:title="A clock tick. ">
<polygon fill="none" stroke="black" points="2012,-141.5 2012,-171.5 2166,-171.5 2166,-141.5 2012,-141.5"/>
<text text-anchor="start" x="2020" y="-159.5" font-family="Helvetica,sans-Serif" font-size="10.00">nars.storage.Memory.Reasoner</text>
<text text-anchor="middle" x="2089" y="-148.5" font-family="Helvetica,sans-Serif" font-size="10.00">Batch.tick</text>
</a>
</g>
</g>
<!-- Node9&#45;&gt;Node10 -->
<g id="edge9" class="edge"><title>Node9&#45;&gt;Node10</title>
<path fill="none" stroke="midnightblue" d="M1986.42,-156.5C1994.86,-156.5 2003.37,-156.5 2011.7,-156.5"/>
<polygon fill="midnightblue" stroke="midnightblue" points="1986.2,-153 1976.2,-156.5 1986.2,-160 1986.2,-153"/>
</g>
<!-- Node11 -->
<g id="node11" class="node"><title>Node11</title>
<g id="a_node11"><a xlink:href="../../d4/d88/classnars_1_1storage_1_1Memory_1_1NARSBatch_aad99db6cedde9cff2a997db8906ff821.html#aad99db6cedde9cff2a997db8906ff821" target="_top" xlink:title="Run to completion: repeatedly execute NARS working cycle, until Inputs are Finished, or 1000 steps. ">
<polygon fill="none" stroke="black" points="2202,-147 2202,-166 2384,-166 2384,-147 2202,-147"/>
<text text-anchor="middle" x="2293" y="-154" font-family="Helvetica,sans-Serif" font-size="10.00">nars.storage.Memory.NARSBatch.run</text>
</a>
</g>
</g>
<!-- Node10&#45;&gt;Node11 -->
<g id="edge10" class="edge"><title>Node10&#45;&gt;Node11</title>
<path fill="none" stroke="midnightblue" d="M2176.27,-156.5C2184.69,-156.5 2193.25,-156.5 2201.71,-156.5"/>
<polygon fill="midnightblue" stroke="midnightblue" points="2176.08,-153 2166.08,-156.5 2176.08,-160 2176.08,-153"/>
</g>
<!-- Node12 -->
<g id="node12" class="node"><title>Node12</title>
<g id="a_node12"><a xlink:href="../../d4/d88/classnars_1_1storage_1_1Memory_1_1NARSBatch_a416c39463faa161661ed1d12fea03b3c.html#a416c39463faa161661ed1d12fea03b3c" target="_top" xlink:title="non&#45;static equivalent to main(String[]) : run to completion from an input file ">
<polygon fill="none" stroke="black" points="2420,-141.5 2420,-171.5 2602,-171.5 2602,-141.5 2420,-141.5"/>
<text text-anchor="start" x="2428" y="-159.5" font-family="Helvetica,sans-Serif" font-size="10.00">nars.storage.Memory.NARSBatch.run</text>
<text text-anchor="middle" x="2511" y="-148.5" font-family="Helvetica,sans-Serif" font-size="10.00">Inference</text>
</a>
</g>
</g>
<!-- Node11&#45;&gt;Node12 -->
<g id="edge11" class="edge"><title>Node11&#45;&gt;Node12</title>
<path fill="none" stroke="midnightblue" d="M2394.06,-156.5C2402.63,-156.5 2411.27,-156.5 2419.76,-156.5"/>
<polygon fill="midnightblue" stroke="midnightblue" points="2394.04,-153 2384.04,-156.5 2394.04,-160 2394.04,-153"/>
</g>
<!-- Node13 -->
<g id="node13" class="node"><title>Node13</title>
<g id="a_node13"><a xlink:href="../../d4/d88/classnars_1_1storage_1_1Memory_1_1NARSBatch_aa97fcd68270583e60e6bf1b4579d1bdc.html#aa97fcd68270583e60e6bf1b4579d1bdc" target="_top" xlink:title="The entry point of the standalone application. ">
<polygon fill="none" stroke="black" points="2638,-147 2638,-166 2828,-166 2828,-147 2638,-147"/>
<text text-anchor="middle" x="2733" y="-154" font-family="Helvetica,sans-Serif" font-size="10.00">nars.storage.Memory.NARSBatch.main</text>
</a>
</g>
</g>
<!-- Node12&#45;&gt;Node13 -->
<g id="edge12" class="edge"><title>Node12&#45;&gt;Node13</title>
<path fill="none" stroke="midnightblue" d="M2612.37,-156.5C2620.82,-156.5 2629.34,-156.5 2637.74,-156.5"/>
<polygon fill="midnightblue" stroke="midnightblue" points="2612.12,-153 2602.12,-156.5 2612.12,-160 2612.12,-153"/>
</g>
<!-- Node15 -->
<g id="node15" class="node"><title>Node15</title>
<g id="a_node15"><a xlink:href="../../da/de3/classnars_1_1inference_1_1RuleTables_a8628d400a8ceda7fea05039ddfea319b.html#a8628d400a8ceda7fea05039ddfea319b" target="_top" xlink:title="Meta&#45;table of syllogistic rules, indexed by the content classes of the taskSentence and the belief...">
<polygon fill="none" stroke="black" points="867,-248 867,-267 1047,-267 1047,-248 867,-248"/>
<text text-anchor="middle" x="957" y="-255" font-family="Helvetica,sans-Serif" font-size="10.00">nars.inference.RuleTables.syllogisms</text>
</a>
</g>
</g>
<!-- Node14&#45;&gt;Node15 -->
<g id="edge14" class="edge"><title>Node14&#45;&gt;Node15</title>
<path fill="none" stroke="midnightblue" d="M841.084,-257.5C849.705,-257.5 858.383,-257.5 866.898,-257.5"/>
<polygon fill="midnightblue" stroke="midnightblue" points="841.002,-254 831.002,-257.5 841.002,-261 841.002,-254"/>
</g>
<!-- Node15&#45;&gt;Node5 -->
<g id="edge15" class="edge"><title>Node15&#45;&gt;Node5</title>
<path fill="none" stroke="midnightblue" d="M1005.03,-245.451C1046.18,-234.91 1105.15,-219.804 1143.14,-210.072"/>
<polygon fill="midnightblue" stroke="midnightblue" points="1004.06,-242.087 995.241,-247.959 1005.8,-248.868 1004.06,-242.087"/>
</g>
<!-- Node16&#45;&gt;Node5 -->
<g id="edge17" class="edge"><title>Node16&#45;&gt;Node5</title>
<path fill="none" stroke="midnightblue" d="M991.705,-314.201C1040.41,-284.869 1128.57,-231.776 1164.55,-210.104"/>
<polygon fill="midnightblue" stroke="midnightblue" points="989.852,-311.232 983.091,-319.389 993.463,-317.228 989.852,-311.232"/>
</g>
<!-- Node18 -->
<g id="node18" class="node"><title>Node18</title>
<g id="a_node18"><a xlink:href="../../de/da5/classnars_1_1language_1_1Variable_ac9e7d556f8e12c9bba657b9d2083bc36.html#ac9e7d556f8e12c9bba657b9d2083bc36" target="_top" xlink:title="To unify two terms. ">
<polygon fill="none" stroke="black" points="449,-126 449,-145 589,-145 589,-126 449,-126"/>
<text text-anchor="middle" x="519" y="-133" font-family="Helvetica,sans-Serif" font-size="10.00">nars.language.Variable.unify</text>
</a>
</g>
</g>
<!-- Node17&#45;&gt;Node18 -->
<g id="edge19" class="edge"><title>Node17&#45;&gt;Node18</title>
<path fill="none" stroke="midnightblue" d="M376.873,-121.225C400.276,-123.592 425.881,-126.182 448.78,-128.498"/>
<polygon fill="midnightblue" stroke="midnightblue" points="376.945,-117.715 366.643,-120.19 376.24,-124.679 376.945,-117.715"/>
</g>
<!-- Node19 -->
<g id="node19" class="node"><title>Node19</title>
<g id="a_node19"><a xlink:href="../../de/da5/classnars_1_1language_1_1Variable_a27d52c132400491e698146c554cd89ac.html#a27d52c132400491e698146c554cd89ac" target="_top" xlink:title="Check if two terms can be unified. ">
<polygon fill="none" stroke="black" points="452,-76.5 452,-106.5 586,-106.5 586,-76.5 452,-76.5"/>
<text text-anchor="start" x="460" y="-94.5" font-family="Helvetica,sans-Serif" font-size="10.00">nars.language.Variable.has</text>
<text text-anchor="middle" x="519" y="-83.5" font-family="Helvetica,sans-Serif" font-size="10.00">Substitute</text>
</a>
</g>
</g>
<!-- Node17&#45;&gt;Node19 -->
<g id="edge20" class="edge"><title>Node17&#45;&gt;Node19</title>
<path fill="none" stroke="midnightblue" d="M376.618,-105.801C401.123,-103.322 428.065,-100.597 451.797,-98.1964"/>
<polygon fill="midnightblue" stroke="midnightblue" points="376.24,-102.321 366.643,-106.81 376.945,-109.285 376.24,-102.321"/>
</g>
<!-- Node20 -->
<g id="node20" class="node"><title>Node20</title>
<g id="a_node20"><a xlink:href="../../d4/daa/classnars_1_1inference_1_1SyllogisticRules_a6ee55e2d5114b506fdf5c59ae00dcd19.html#a6ee55e2d5114b506fdf5c59ae00dcd19" target="_top" xlink:title="{&lt;(&amp;&amp;, S1, S2, S3) ==&gt; P&gt;, S1} |&#45; &lt;(&amp;&amp;, S2, S3) ==&gt; P&gt; {&lt;(&amp;&amp;, S2, S3) ==&gt; P&gt;, &lt;S1 ==&gt; S2&gt;} |&#45; &lt;(&amp;&amp;...">
<polygon fill="none" stroke="black" points="675.5,-122.5 675.5,-152.5 801.5,-152.5 801.5,-122.5 675.5,-122.5"/>
<text text-anchor="start" x="683.5" y="-140.5" font-family="Helvetica,sans-Serif" font-size="10.00">nars.inference.Syllogistic</text>
<text text-anchor="middle" x="738.5" y="-129.5" font-family="Helvetica,sans-Serif" font-size="10.00">Rules.conditionalDedInd</text>
</a>
</g>
</g>
<!-- Node19&#45;&gt;Node20 -->
<g id="edge21" class="edge"><title>Node19&#45;&gt;Node20</title>
<path fill="none" stroke="midnightblue" d="M595.947,-107.562C621.917,-113.055 650.641,-119.13 675.389,-124.364"/>
<polygon fill="midnightblue" stroke="midnightblue" points="596.651,-104.134 586.143,-105.489 595.202,-110.982 596.651,-104.134"/>
</g>
<!-- Node22 -->
<g id="node22" class="node"><title>Node22</title>
<g id="a_node22"><a xlink:href="../../d4/daa/classnars_1_1inference_1_1SyllogisticRules_a90588e33b6d7ca522e787ee476a2a012.html#a90588e33b6d7ca522e787ee476a2a012" target="_top" xlink:title="{&lt;(&amp;&amp;, S1, S2) &lt;=&gt; P&gt;, (&amp;&amp;, S1, S2)} |&#45; P ">
<polygon fill="none" stroke="black" points="894,-73.5 894,-103.5 1020,-103.5 1020,-73.5 894,-73.5"/>
<text text-anchor="start" x="902" y="-91.5" font-family="Helvetica,sans-Serif" font-size="10.00">nars.inference.Syllogistic</text>
<text text-anchor="middle" x="957" y="-80.5" font-family="Helvetica,sans-Serif" font-size="10.00">Rules.conditionalAna</text>
</a>
</g>
</g>
<!-- Node19&#45;&gt;Node22 -->
<g id="edge25" class="edge"><title>Node19&#45;&gt;Node22</title>
<path fill="none" stroke="midnightblue" d="M596.267,-90.9752C680.753,-90.3939 815.373,-89.4676 893.758,-88.9283"/>
<polygon fill="midnightblue" stroke="midnightblue" points="596.195,-87.4755 586.219,-91.0444 596.243,-94.4754 596.195,-87.4755"/>
</g>
<!-- Node20&#45;&gt;Node5 -->
<g id="edge24" class="edge"><title>Node20&#45;&gt;Node5</title>
<path fill="none" stroke="midnightblue" d="M811.513,-151.866C829.591,-155.249 848.974,-158.685 867,-161.5 945.846,-173.813 1036.34,-184.728 1099.77,-191.856"/>
<polygon fill="midnightblue" stroke="midnightblue" points="812.098,-148.415 801.622,-149.997 810.798,-155.293 812.098,-148.415"/>
</g>
<!-- Node21 -->
<g id="node21" class="node"><title>Node21</title>
<g id="a_node21"><a xlink:href="../../da/de3/classnars_1_1inference_1_1RuleTables_a62599450d65ff257b92df0d48d7c1bdf.html#a62599450d65ff257b92df0d48d7c1bdf" target="_top" xlink:title="Conditional deduction or induction, with variable unification. ">
<polygon fill="none" stroke="black" points="867,-122.5 867,-152.5 1047,-152.5 1047,-122.5 867,-122.5"/>
<text text-anchor="start" x="875" y="-140.5" font-family="Helvetica,sans-Serif" font-size="10.00">nars.inference.RuleTables.conditional</text>
<text text-anchor="middle" x="957" y="-129.5" font-family="Helvetica,sans-Serif" font-size="10.00">DedIndWithVar</text>
</a>
</g>
</g>
<!-- Node20&#45;&gt;Node21 -->
<g id="edge22" class="edge"><title>Node20&#45;&gt;Node21</title>
<path fill="none" stroke="midnightblue" d="M811.765,-137.5C829.443,-137.5 848.565,-137.5 866.927,-137.5"/>
<polygon fill="midnightblue" stroke="midnightblue" points="811.54,-134 801.54,-137.5 811.54,-141 811.54,-134"/>
</g>
<!-- Node21&#45;&gt;Node5 -->
<g id="edge23" class="edge"><title>Node21&#45;&gt;Node5</title>
<path fill="none" stroke="midnightblue" d="M1020.64,-155.236C1061.62,-166.839 1113.55,-181.542 1146.9,-190.986"/>
<polygon fill="midnightblue" stroke="midnightblue" points="1021.59,-151.867 1011.01,-152.51 1019.68,-158.602 1021.59,-151.867"/>
</g>
<!-- Node22&#45;&gt;Node5 -->
<g id="edge26" class="edge"><title>Node22&#45;&gt;Node5</title>
<path fill="none" stroke="midnightblue" d="M1030.03,-105.777C1035.86,-107.82 1041.58,-110.059 1047,-112.5 1072.06,-123.784 1138.22,-170.255 1166.91,-190.733"/>
<polygon fill="midnightblue" stroke="midnightblue" points="1030.77,-102.335 1020.18,-102.523 1028.57,-108.982 1030.77,-102.335"/>
</g>
<!-- Node26&#45;&gt;Node4 -->
<g id="edge31" class="edge"><title>Node26&#45;&gt;Node4</title>
<path fill="none" stroke="midnightblue" d="M595.512,-189.568C612.693,-191.859 631.098,-194.313 648.773,-196.67"/>
<polygon fill="midnightblue" stroke="midnightblue" points="595.927,-186.093 585.552,-188.24 595.002,-193.031 595.927,-186.093"/>
</g>
<!-- Node28 -->
<g id="node28" class="node"><title>Node28</title>
<g id="a_node28"><a xlink:href="../../da/de3/classnars_1_1inference_1_1RuleTables_a274b39b31e00ef27ae6baeaad3894a6a.html#a274b39b31e00ef27ae6baeaad3894a6a" target="_top" xlink:title="Inference between a component term (of the current term) and a statement. ">
<polygon fill="none" stroke="black" points="428,-399.5 428,-429.5 610,-429.5 610,-399.5 428,-399.5"/>
<text text-anchor="start" x="436" y="-417.5" font-family="Helvetica,sans-Serif" font-size="10.00">nars.inference.RuleTables.component</text>
<text text-anchor="middle" x="519" y="-406.5" font-family="Helvetica,sans-Serif" font-size="10.00">AndStatement</text>
</a>
</g>
</g>
<!-- Node27&#45;&gt;Node28 -->
<g id="edge33" class="edge"><title>Node27&#45;&gt;Node28</title>
<path fill="none" stroke="midnightblue" d="M381.457,-414.5C396.596,-414.5 412.504,-414.5 427.898,-414.5"/>
<polygon fill="midnightblue" stroke="midnightblue" points="381.116,-411 371.116,-414.5 381.116,-418 381.116,-411"/>
</g>
<!-- Node28&#45;&gt;Node5 -->
<g id="edge34" class="edge"><title>Node28&#45;&gt;Node5</title>
<path fill="none" stroke="midnightblue" d="M620.594,-425.782C731.786,-433.507 912.878,-431.694 1047,-359.5 1113.97,-323.453 1161.23,-238.813 1175.78,-210.17"/>
<polygon fill="midnightblue" stroke="midnightblue" points="620.617,-422.274 610.388,-425.032 620.105,-429.255 620.617,-422.274"/>
</g>
<!-- Node30 -->
<g id="node30" class="node"><title>Node30</title>
<g id="a_node30"><a xlink:href="../../db/d49/classnars_1_1inference_1_1StructuralRules_a6f7188931508f5b84e6de02301bf798d.html#a6f7188931508f5b84e6de02301bf798d" target="_top" xlink:title="Equivalent transformation between products and images {&lt;(*, S, M) –&gt; P&gt;, S@(*, S, M)} |&#45; &lt;S &#45;&#45;&gt; (/, P, _, M)&gt; {&lt;S &#45;&#45;&gt; (/, P, _, M)&gt;, P@(/, P, _, M)} |&#45; &lt;(*, S, M) –&gt; P&gt; {&lt;S &#45;&#45;&gt; (/, P, _, M)&gt;, M@(/, P, _, M)} |&#45; &lt;M &#45;&#45;&gt; (/, P, S, _)&gt; ">
<polygon fill="none" stroke="black" points="445.5,-27.5 445.5,-57.5 592.5,-57.5 592.5,-27.5 445.5,-27.5"/>
<text text-anchor="start" x="453.5" y="-45.5" font-family="Helvetica,sans-Serif" font-size="10.00">nars.inference.Structural</text>
<text text-anchor="middle" x="519" y="-34.5" font-family="Helvetica,sans-Serif" font-size="10.00">Rules.transformProductImage</text>
</a>
</g>
</g>
<!-- Node29&#45;&gt;Node30 -->
<g id="edge36" class="edge"><title>Node29&#45;&gt;Node30</title>
<path fill="none" stroke="midnightblue" d="M378.318,-25.1601C400.087,-27.8625 423.66,-30.7888 445.131,-33.4542"/>
<polygon fill="midnightblue" stroke="midnightblue" points="378.481,-21.6536 368.126,-23.895 377.619,-28.6003 378.481,-21.6536"/>
</g>
<!-- Node31 -->
<g id="node31" class="node"><title>Node31</title>
<g id="a_node31"><a xlink:href="../../da/de3/classnars_1_1inference_1_1RuleTables_a61c932b424464483bd80c783294ab446.html#a61c932b424464483bd80c783294ab446" target="_top" xlink:title="The TaskLink is of type TRANSFORM, and the conclusion is an equivalent transformation. ">
<polygon fill="none" stroke="black" points="1083,-103 1083,-122 1280,-122 1280,-103 1083,-103"/>
<text text-anchor="middle" x="1181.5" y="-110" font-family="Helvetica,sans-Serif" font-size="10.00">nars.inference.RuleTables.transformTask</text>
</a>
</g>
</g>
<!-- Node30&#45;&gt;Node31 -->
<g id="edge37" class="edge"><title>Node30&#45;&gt;Node31</title>
<path fill="none" stroke="midnightblue" d="M603.047,-37.9038C707.677,-33.9126 892.497,-32.8555 1047,-63.5 1088.65,-71.7617 1134.6,-91.0411 1160.27,-102.804"/>
<polygon fill="midnightblue" stroke="midnightblue" points="602.717,-34.4141 592.865,-38.3113 602.997,-41.4085 602.717,-34.4141"/>
</g>
<!-- Node31&#45;&gt;Node6 -->
<g id="edge38" class="edge"><title>Node31&#45;&gt;Node6</title>
<path fill="none" stroke="midnightblue" d="M1233.92,-124.284C1264.92,-131.387 1303.88,-140.316 1332.92,-146.971"/>
<polygon fill="midnightblue" stroke="midnightblue" points="1234.69,-120.87 1224.16,-122.047 1233.13,-127.693 1234.69,-120.87"/>
</g>
<!-- Node32&#45;&gt;Node28 -->
<g id="edge40" class="edge"><title>Node32&#45;&gt;Node28</title>
<path fill="none" stroke="midnightblue" d="M377.105,-446.242C401.34,-440.782 427.915,-434.795 451.391,-429.506"/>
<polygon fill="midnightblue" stroke="midnightblue" points="376.222,-442.853 367.235,-448.465 377.76,-449.682 376.222,-442.853"/>
</g>
<!-- Node33&#45;&gt;Node30 -->
<g id="edge42" class="edge"><title>Node33&#45;&gt;Node30</title>
<path fill="none" stroke="midnightblue" d="M374.311,-57.034C397.268,-54.712 422.549,-52.1548 445.422,-49.8413"/>
<polygon fill="midnightblue" stroke="midnightblue" points="373.885,-53.5592 364.288,-58.0479 374.589,-60.5237 373.885,-53.5592"/>
</g>
</g>
</svg>
