<?xml version="1.0" encoding="UTF-8" standalone="no"?>
<!DOCTYPE svg PUBLIC "-//W3C//DTD SVG 1.1//EN"
 "http://www.w3.org/Graphics/SVG/1.1/DTD/svg11.dtd">
<!-- Generated by graphviz version 2.38.0 (20140413.2041)
 -->
<!-- Title: nars.language.CompoundTerm.renameVariables Pages: 1 -->
<!--zoomable 240 -->
<svg id="main" version="1.1" xmlns="http://www.w3.org/2000/svg" xmlns:xlink="http://www.w3.org/1999/xlink" xml:space="preserve" onload="init(evt)">
<style type="text/css"><![CDATA[
.edge:hover path { stroke: red; }
.edge:hover polygon { stroke: red; fill: red; }
]]></style>
<script type="text/javascript"><![CDATA[
var edges = document.getElementsByTagName('g');
if (edges && edges.length) {
  for (var i=0;i<edges.length;i++) {
    if (edges[i].id.substr(0,4)=='edge') {
      edges[i].setAttribute('class','edge');
    }
  }
}
]]></script>
        <defs>
                <circle id="rim" cx="0" cy="0" r="7"/>
                <circle id="rim2" cx="0" cy="0" r="3.5"/>
                <g id="zoomPlus">
                        <use xlink:href="#rim" fill="#404040">
                                <set attributeName="fill" to="#808080" begin="zoomplus.mouseover" end="zoomplus.mouseout"/>
                        </use>
                        <path d="M-4,0h8M0,-4v8" fill="none" stroke="white" stroke-width="1.5" pointer-events="none"/>
                </g>
                <g id="zoomMin">
                        <use xlink:href="#rim" fill="#404040">
                                <set attributeName="fill" to="#808080" begin="zoomminus.mouseover" end="zoomminus.mouseout"/>
                        </use>
                        <path d="M-4,0h8" fill="none" stroke="white" stroke-width="1.5" pointer-events="none"/>
                </g>
                <g id="dirArrow">
                        <path fill="none" stroke="white" stroke-width="1.5" d="M0,-3.0v7 M-2.5,-0.5L0,-3.0L2.5,-0.5"/>
                </g>
               <g id="resetDef">
                       <use xlink:href="#rim2" fill="#404040">
                               <set attributeName="fill" to="#808080" begin="reset.mouseover" end="reset.mouseout"/>
                       </use>
               </g>
        </defs>

<script type="text/javascript">
var viewWidth = 842;
var viewHeight = 240;
var sectionId = 'dynsection-0';
</script>
<script xlink:href="../../svgpan.js"/>
<svg id="graph" class="graph">
<g id="viewport">
<title>nars.language.CompoundTerm.renameVariables</title>
<!-- Node1 -->
<g id="node1" class="node"><title>Node1</title>
<polygon fill="#bfbfbf" stroke="black" points="0,-95.5 0,-125.5 185,-125.5 185,-95.5 0,-95.5"/>
<text text-anchor="start" x="8" y="-113.5" font-family="Helvetica,sans-Serif" font-size="10.00">nars.language.CompoundTerm.rename</text>
<text text-anchor="middle" x="92.5" y="-102.5" font-family="Helvetica,sans-Serif" font-size="10.00">Variables</text>
</g>
<!-- Node2 -->
<g id="node2" class="node"><title>Node2</title>
<g id="a_node2"><a xlink:href="../../d0/dee/classnars_1_1language_1_1CompoundTerm_acedae916705e9fa1669391a7d728b840.html#acedae916705e9fa1669391a7d728b840" target="_top" xlink:title="get a component by index ">
<polygon fill="none" stroke="black" points="221,-196 221,-215 432,-215 432,-196 221,-196"/>
<text text-anchor="middle" x="326.5" y="-203" font-family="Helvetica,sans-Serif" font-size="10.00">nars.language.CompoundTerm.componentAt</text>
</a>
</g>
</g>
<!-- Node1&#45;&gt;Node2 -->
<g id="edge1" class="edge"><title>Node1&#45;&gt;Node2</title>
<path fill="none" stroke="midnightblue" d="M113.539,-125.569C137.718,-142.987 180.221,-171.212 221,-186.5 228.284,-189.231 236.006,-191.578 243.822,-193.593"/>
<polygon fill="midnightblue" stroke="midnightblue" points="243.208,-197.045 253.748,-195.972 244.84,-190.238 243.208,-197.045"/>
</g>
<!-- Node3 -->
<g id="node3" class="node"><title>Node3</title>
<g id="a_node3"><a xlink:href="../../d0/dee/classnars_1_1language_1_1CompoundTerm_a89000afae8017231889aaa549292d1e0.html#a89000afae8017231889aaa549292d1e0" target="_top" xlink:title="Default constructor. ">
<polygon fill="none" stroke="black" points="681,-27.5 681,-57.5 834,-57.5 834,-27.5 681,-27.5"/>
<text text-anchor="start" x="689" y="-45.5" font-family="Helvetica,sans-Serif" font-size="10.00">nars.language.CompoundTerm.</text>
<text text-anchor="middle" x="757.5" y="-34.5" font-family="Helvetica,sans-Serif" font-size="10.00">CompoundTerm</text>
</a>
</g>
</g>
<!-- Node1&#45;&gt;Node3 -->
<g id="edge2" class="edge"><title>Node1&#45;&gt;Node3</title>
<path fill="none" stroke="midnightblue" d="M185.062,-120.239C295.95,-129.225 487.456,-135.682 645,-94.5 672.002,-87.4418 700.487,-74.0419 721.907,-62.6128"/>
<polygon fill="midnightblue" stroke="midnightblue" points="723.821,-65.5558 730.925,-57.6953 720.47,-59.4102 723.821,-65.5558"/>
</g>
<!-- Node4 -->
<g id="node4" class="node"><title>Node4</title>
<g id="a_node4"><a xlink:href="../../d0/dee/classnars_1_1language_1_1CompoundTerm_a18e066f782a0070b137132a6a2d732d6.html#a18e066f782a0070b137132a6a2d732d6" target="_top" xlink:title="Whether this compound term contains any variable term. ">
<polygon fill="none" stroke="black" points="226.5,-158 226.5,-177 426.5,-177 426.5,-158 226.5,-158"/>
<text text-anchor="middle" x="326.5" y="-165" font-family="Helvetica,sans-Serif" font-size="10.00">nars.language.CompoundTerm.containVar</text>
</a>
</g>
</g>
<!-- Node1&#45;&gt;Node4 -->
<g id="edge3" class="edge"><title>Node1&#45;&gt;Node4</title>
<path fill="none" stroke="midnightblue" d="M150.221,-125.537C172.281,-131.292 197.788,-137.832 221,-143.5 237.772,-147.596 256.108,-151.874 272.674,-155.665"/>
<polygon fill="midnightblue" stroke="midnightblue" points="272.201,-159.147 282.729,-157.956 273.757,-152.322 272.201,-159.147"/>
</g>
<!-- Node9 -->
<g id="node9" class="node"><title>Node9</title>
<g id="a_node9"><a xlink:href="../../d8/db8/classnars_1_1language_1_1Term_ad85f45a7858737445d5158801774ff5f.html#ad85f45a7858737445d5158801774ff5f" target="_top" xlink:title="Equal terms have identical name, though not necessarily the same reference. ">
<polygon fill="none" stroke="black" points="259.5,-82 259.5,-101 393.5,-101 393.5,-82 259.5,-82"/>
<text text-anchor="middle" x="326.5" y="-89" font-family="Helvetica,sans-Serif" font-size="10.00">nars.language.Term.equals</text>
</a>
</g>
</g>
<!-- Node1&#45;&gt;Node9 -->
<g id="edge8" class="edge"><title>Node1&#45;&gt;Node9</title>
<path fill="none" stroke="midnightblue" d="M185.193,-102.991C206.321,-101.26 228.576,-99.4378 248.98,-97.7667"/>
<polygon fill="midnightblue" stroke="midnightblue" points="249.468,-101.239 259.149,-96.9339 248.897,-94.2619 249.468,-101.239"/>
</g>
<!-- Node10 -->
<g id="node10" class="node"><title>Node10</title>
<g id="a_node10"><a xlink:href="../../d8/db8/classnars_1_1language_1_1Term_a3aad4654016b8615fd4fa8a26668e1db.html#a3aad4654016b8615fd4fa8a26668e1db" target="_top" xlink:title="Reporting the name of the current Term. ">
<polygon fill="none" stroke="black" points="483.5,-66 483.5,-85 629.5,-85 629.5,-66 483.5,-66"/>
<text text-anchor="middle" x="556.5" y="-73" font-family="Helvetica,sans-Serif" font-size="10.00">nars.language.Term.getName</text>
</a>
</g>
</g>
<!-- Node1&#45;&gt;Node10 -->
<g id="edge10" class="edge"><title>Node1&#45;&gt;Node10</title>
<path fill="none" stroke="midnightblue" d="M133.028,-95.4875C157.875,-86.8658 190.83,-76.9002 221,-72.5 306.272,-60.0632 405.071,-63.0515 473.069,-67.7618"/>
<polygon fill="midnightblue" stroke="midnightblue" points="473.066,-71.2705 483.292,-68.499 473.569,-64.2887 473.066,-71.2705"/>
</g>
<!-- Node11 -->
<g id="node11" class="node"><title>Node11</title>
<g id="a_node11"><a xlink:href="../../d0/dee/classnars_1_1language_1_1CompoundTerm_aa26a304f6249c185836d8fde8b8f17a8.html#aa26a304f6249c185836d8fde8b8f17a8" target="_top" xlink:title="default method to make the oldName of the current term from existing fields ">
<polygon fill="none" stroke="black" points="225,-6 225,-25 428,-25 428,-6 225,-6"/>
<text text-anchor="middle" x="326.5" y="-13" font-family="Helvetica,sans-Serif" font-size="10.00">nars.language.CompoundTerm.makeName</text>
</a>
</g>
</g>
<!-- Node1&#45;&gt;Node11 -->
<g id="edge11" class="edge"><title>Node1&#45;&gt;Node11</title>
<path fill="none" stroke="midnightblue" d="M116.037,-95.3571C140.797,-79.3523 182.215,-54.4063 221,-39.5 233.531,-34.6841 247.295,-30.6769 260.602,-27.405"/>
<polygon fill="midnightblue" stroke="midnightblue" points="261.726,-30.7366 270.662,-25.045 260.127,-23.9216 261.726,-30.7366"/>
</g>
<!-- Node5 -->
<g id="node5" class="node"><title>Node5</title>
<g id="a_node5"><a xlink:href="../../de/da5/classnars_1_1language_1_1Variable_a2c36e85a56295a27aba7a4ee162f5850.html#a2c36e85a56295a27aba7a4ee162f5850" target="_top" xlink:title="Check whether a string represent a name of a term that contains a variable. ">
<polygon fill="none" stroke="black" points="474,-158 474,-177 639,-177 639,-158 474,-158"/>
<text text-anchor="middle" x="556.5" y="-165" font-family="Helvetica,sans-Serif" font-size="10.00">nars.language.Variable.containVar</text>
</a>
</g>
</g>
<!-- Node4&#45;&gt;Node5 -->
<g id="edge4" class="edge"><title>Node4&#45;&gt;Node5</title>
<path fill="none" stroke="midnightblue" d="M426.509,-167.5C438.809,-167.5 451.345,-167.5 463.532,-167.5"/>
<polygon fill="midnightblue" stroke="midnightblue" points="463.674,-171 473.674,-167.5 463.674,-164 463.674,-171"/>
</g>
<!-- Node6 -->
<g id="node6" class="node"><title>Node6</title>
<g id="a_node6"><a xlink:href="../../de/da5/classnars_1_1language_1_1Variable_a9caa9f23d798ce1913cfca744ddd1c15.html#a9caa9f23d798ce1913cfca744ddd1c15" target="_top" xlink:title="Check whether a string represent a name of a term that contains an independent variable. ">
<polygon fill="none" stroke="black" points="682.5,-152.5 682.5,-182.5 832.5,-182.5 832.5,-152.5 682.5,-152.5"/>
<text text-anchor="start" x="690.5" y="-170.5" font-family="Helvetica,sans-Serif" font-size="10.00">nars.language.Variable.contain</text>
<text text-anchor="middle" x="757.5" y="-159.5" font-family="Helvetica,sans-Serif" font-size="10.00">VarIndep</text>
</a>
</g>
</g>
<!-- Node5&#45;&gt;Node6 -->
<g id="edge5" class="edge"><title>Node5&#45;&gt;Node6</title>
<path fill="none" stroke="midnightblue" d="M639.015,-167.5C650.027,-167.5 661.343,-167.5 672.399,-167.5"/>
<polygon fill="midnightblue" stroke="midnightblue" points="672.464,-171 682.464,-167.5 672.464,-164 672.464,-171"/>
</g>
<!-- Node7 -->
<g id="node7" class="node"><title>Node7</title>
<g id="a_node7"><a xlink:href="../../de/da5/classnars_1_1language_1_1Variable_a3a7ee29b5a23255edf3dbca5f85f7b44.html#a3a7ee29b5a23255edf3dbca5f85f7b44" target="_top" xlink:title="Check whether a string represent a name of a term that contains a dependent variable. ">
<polygon fill="none" stroke="black" points="682.5,-103.5 682.5,-133.5 832.5,-133.5 832.5,-103.5 682.5,-103.5"/>
<text text-anchor="start" x="690.5" y="-121.5" font-family="Helvetica,sans-Serif" font-size="10.00">nars.language.Variable.contain</text>
<text text-anchor="middle" x="757.5" y="-110.5" font-family="Helvetica,sans-Serif" font-size="10.00">VarDep</text>
</a>
</g>
</g>
<!-- Node5&#45;&gt;Node7 -->
<g id="edge6" class="edge"><title>Node5&#45;&gt;Node7</title>
<path fill="none" stroke="midnightblue" d="M596.342,-157.936C621.646,-151.705 655.414,-143.391 685.418,-136.003"/>
<polygon fill="midnightblue" stroke="midnightblue" points="686.558,-139.326 695.432,-133.537 684.885,-132.529 686.558,-139.326"/>
</g>
<!-- Node8 -->
<g id="node8" class="node"><title>Node8</title>
<g id="a_node8"><a xlink:href="../../de/da5/classnars_1_1language_1_1Variable_a25dcc4d5882131d679903f93d41420c9.html#a25dcc4d5882131d679903f93d41420c9" target="_top" xlink:title="Check whether a string represent a name of a term that contains a query variable. ...">
<polygon fill="none" stroke="black" points="682.5,-201.5 682.5,-231.5 832.5,-231.5 832.5,-201.5 682.5,-201.5"/>
<text text-anchor="start" x="690.5" y="-219.5" font-family="Helvetica,sans-Serif" font-size="10.00">nars.language.Variable.contain</text>
<text text-anchor="middle" x="757.5" y="-208.5" font-family="Helvetica,sans-Serif" font-size="10.00">VarQuery</text>
</a>
</g>
</g>
<!-- Node5&#45;&gt;Node8 -->
<g id="edge7" class="edge"><title>Node5&#45;&gt;Node8</title>
<path fill="none" stroke="midnightblue" d="M596.342,-177.064C621.646,-183.295 655.414,-191.609 685.418,-198.997"/>
<polygon fill="midnightblue" stroke="midnightblue" points="684.885,-202.471 695.432,-201.463 686.558,-195.674 684.885,-202.471"/>
</g>
<!-- Node9&#45;&gt;Node10 -->
<g id="edge9" class="edge"><title>Node9&#45;&gt;Node10</title>
<path fill="none" stroke="midnightblue" d="M393.753,-86.8506C418.593,-85.1075 447.123,-83.1054 473.239,-81.2727"/>
<polygon fill="midnightblue" stroke="midnightblue" points="473.767,-84.7443 483.498,-80.5528 473.277,-77.7615 473.767,-84.7443"/>
</g>
<!-- Node12 -->
<g id="node12" class="node"><title>Node12</title>
<g id="a_node12"><a xlink:href="../../d0/dee/classnars_1_1language_1_1CompoundTerm_a8d1e610c509fa096c6b52eb5fe06d59b.html#a8d1e610c509fa096c6b52eb5fe06d59b" target="_top" xlink:title="default method to make the oldName of a compound term from given fields ">
<polygon fill="none" stroke="black" points="468,-0.5 468,-30.5 645,-30.5 645,-0.5 468,-0.5"/>
<text text-anchor="start" x="476" y="-18.5" font-family="Helvetica,sans-Serif" font-size="10.00">nars.language.CompoundTerm.make</text>
<text text-anchor="middle" x="556.5" y="-7.5" font-family="Helvetica,sans-Serif" font-size="10.00">CompoundName</text>
</a>
</g>
</g>
<!-- Node11&#45;&gt;Node12 -->
<g id="edge12" class="edge"><title>Node11&#45;&gt;Node12</title>
<path fill="none" stroke="midnightblue" d="M428.168,-8.7912C437.996,-8.73021 447.957,-8.73693 457.755,-8.81137"/>
<polygon fill="midnightblue" stroke="midnightblue" points="457.86,-12.3125 467.894,-8.91345 457.93,-5.31285 457.86,-12.3125"/>
</g>
<!-- Node12&#45;&gt;Node3 -->
<g id="edge13" class="edge"><title>Node12&#45;&gt;Node3</title>
<path fill="none" stroke="midnightblue" d="M645.074,-27.3819C653.618,-28.5411 662.281,-29.7165 670.806,-30.8732"/>
<polygon fill="midnightblue" stroke="midnightblue" points="670.356,-34.3441 680.736,-32.2204 671.297,-27.4076 670.356,-34.3441"/>
</g>
<!-- Node12&#45;&gt;Node11 -->
<g id="edge14" class="edge"><title>Node12&#45;&gt;Node11</title>
<path fill="none" stroke="midnightblue" d="M467.894,-22.0866C458.246,-22.208 448.33,-22.2618 438.445,-22.2478"/>
<polygon fill="midnightblue" stroke="midnightblue" points="438.181,-18.7469 428.168,-22.2088 438.154,-25.7469 438.181,-18.7469"/>
</g>
</g>
</svg>
        <g id="navigator" transform="translate(0 0)" fill="#404254">
                <rect fill="#f2f5e9" fill-opacity="0.5" stroke="#606060" stroke-width=".5" x="0" y="0" width="60" height="60"/>
                <use id="zoomplus" xlink:href="#zoomPlus" x="17" y="9" onmousedown="handleZoom(evt,'in')"/>
                <use id="zoomminus" xlink:href="#zoomMin" x="42" y="9" onmousedown="handleZoom(evt,'out')"/>
                <use id="reset" xlink:href="#resetDef" x="30" y="36" onmousedown="handleReset()"/>
                <g id="arrowUp" xlink:href="#dirArrow" transform="translate(30 24)" onmousedown="handlePan(0,-1)">
                  <use xlink:href="#rim" fill="#404040">
                        <set attributeName="fill" to="#808080" begin="arrowUp.mouseover" end="arrowUp.mouseout"/>
                  </use>
                  <path fill="none" stroke="white" stroke-width="1.5" d="M0,-3.0v7 M-2.5,-0.5L0,-3.0L2.5,-0.5"/>
                </g>
                <g id="arrowRight" xlink:href="#dirArrow" transform="rotate(90) translate(36 -43)" onmousedown="handlePan(1,0)">
                  <use xlink:href="#rim" fill="#404040">
                        <set attributeName="fill" to="#808080" begin="arrowRight.mouseover" end="arrowRight.mouseout"/>
                  </use>
                  <path fill="none" stroke="white" stroke-width="1.5" d="M0,-3.0v7 M-2.5,-0.5L0,-3.0L2.5,-0.5"/>
                </g>
                <g id="arrowDown" xlink:href="#dirArrow" transform="rotate(180) translate(-30 -48)" onmousedown="handlePan(0,1)">
                  <use xlink:href="#rim" fill="#404040">
                        <set attributeName="fill" to="#808080" begin="arrowDown.mouseover" end="arrowDown.mouseout"/>
                  </use>
                  <path fill="none" stroke="white" stroke-width="1.5" d="M0,-3.0v7 M-2.5,-0.5L0,-3.0L2.5,-0.5"/>
                </g>
                <g id="arrowLeft" xlink:href="#dirArrow" transform="rotate(270) translate(-36 17)" onmousedown="handlePan(-1,0)">
                  <use xlink:href="#rim" fill="#404040">
                        <set attributeName="fill" to="#808080" begin="arrowLeft.mouseover" end="arrowLeft.mouseout"/>
                  </use>
                  <path fill="none" stroke="white" stroke-width="1.5" d="M0,-3.0v7 M-2.5,-0.5L0,-3.0L2.5,-0.5"/>
                </g>
        </g>
        <svg viewBox="0 0 15 15" width="100%" height="30px" preserveAspectRatio="xMaxYMin meet">
         <g id="arrow_out" transform="scale(0.3 0.3)">
          <a xlink:href="classnars_1_1language_1_1CompoundTerm_ac81d297c59bab29f9f4f0ab45ab64b4f_ac81d297c59bab29f9f4f0ab45ab64b4f_cgraph_org.svg" target="_base">
           <rect id="button" ry="5" rx="5" y="6" x="6" height="38" width="38"
                fill="#f2f5e9" fill-opacity="0.5" stroke="#606060" stroke-width="1.0"/>
           <path id="arrow"
             d="M 11.500037,31.436501 C 11.940474,20.09759 22.043105,11.32322 32.158766,21.979434 L 37.068811,17.246167 C 37.068811,17.246167 37.088388,32 37.088388,32 L 22.160133,31.978069 C 22.160133,31.978069 26.997745,27.140456 26.997745,27.140456 C 18.528582,18.264221 13.291696,25.230495 11.500037,31.436501 z"
             style="fill:#404040;"/>
          </a>
         </g>
        </svg>
</svg>
