<?xml version="1.0" encoding="UTF-8" standalone="no"?>
<!DOCTYPE svg PUBLIC "-//W3C//DTD SVG 1.1//EN"
 "http://www.w3.org/Graphics/SVG/1.1/DTD/svg11.dtd">
<!-- Generated by graphviz version 2.38.0 (20140413.2041)
 -->
<!-- Title: nars.language.CompoundTerm.makeCompoundName Pages: 1 -->
<svg width="424pt" height="83pt"
 viewBox="0.00 0.00 424.00 83.00" xmlns="http://www.w3.org/2000/svg" xmlns:xlink="http://www.w3.org/1999/xlink">
<g id="graph0" class="graph" transform="scale(1 1) rotate(0) translate(4 79)">
<title>nars.language.CompoundTerm.makeCompoundName</title>
<!-- Node1 -->
<g id="node1" class="node"><title>Node1</title>
<polygon fill="#bfbfbf" stroke="black" points="0,-0.5 0,-30.5 177,-30.5 177,-0.5 0,-0.5"/>
<text text-anchor="start" x="8" y="-18.5" font-family="Helvetica,sans-Serif" font-size="10.00">nars.language.CompoundTerm.make</text>
<text text-anchor="middle" x="88.5" y="-7.5" font-family="Helvetica,sans-Serif" font-size="10.00">CompoundName</text>
</g>
<!-- Node2 -->
<g id="node2" class="node"><title>Node2</title>
<g id="a_node2"><a xlink:href="../../d0/dee/classnars_1_1language_1_1CompoundTerm_a89000afae8017231889aaa549292d1e0.html#a89000afae8017231889aaa549292d1e0" target="_top" xlink:title="Default constructor. ">
<polygon fill="none" stroke="black" points="238,-44.5 238,-74.5 391,-74.5 391,-44.5 238,-44.5"/>
<text text-anchor="start" x="246" y="-62.5" font-family="Helvetica,sans-Serif" font-size="10.00">nars.language.CompoundTerm.</text>
<text text-anchor="middle" x="314.5" y="-51.5" font-family="Helvetica,sans-Serif" font-size="10.00">CompoundTerm</text>
</a>
</g>
</g>
<!-- Node1&#45;&gt;Node2 -->
<g id="edge1" class="edge"><title>Node1&#45;&gt;Node2</title>
<path fill="none" stroke="midnightblue" d="M165.962,-30.5192C185.893,-34.4344 207.501,-38.6787 227.873,-42.6805"/>
<polygon fill="midnightblue" stroke="midnightblue" points="227.276,-46.1299 237.763,-44.623 228.625,-39.2611 227.276,-46.1299"/>
</g>
<!-- Node3 -->
<g id="node3" class="node"><title>Node3</title>
<g id="a_node3"><a xlink:href="../../d0/dee/classnars_1_1language_1_1CompoundTerm_aa26a304f6249c185836d8fde8b8f17a8.html#aa26a304f6249c185836d8fde8b8f17a8" target="_top" xlink:title="default method to make the oldName of the current term from existing fields ">
<polygon fill="none" stroke="black" points="213,-6 213,-25 416,-25 416,-6 213,-6"/>
<text text-anchor="middle" x="314.5" y="-13" font-family="Helvetica,sans-Serif" font-size="10.00">nars.language.CompoundTerm.makeName</text>
</a>
</g>
</g>
<!-- Node1&#45;&gt;Node3 -->
<g id="edge2" class="edge"><title>Node1&#45;&gt;Node3</title>
<path fill="none" stroke="midnightblue" d="M177.067,-8.89484C185.533,-8.79299 194.196,-8.74486 202.848,-8.75043"/>
<polygon fill="midnightblue" stroke="midnightblue" points="202.976,-12.2507 212.987,-8.78166 202.998,-5.25078 202.976,-12.2507"/>
</g>
<!-- Node3&#45;&gt;Node1 -->
<g id="edge3" class="edge"><title>Node3&#45;&gt;Node1</title>
<path fill="none" stroke="midnightblue" d="M212.987,-22.2183C204.375,-22.266 195.672,-22.2599 187.083,-22.2"/>
<polygon fill="midnightblue" stroke="midnightblue" points="187.099,-18.7001 177.067,-22.1052 187.033,-25.6998 187.099,-18.7001"/>
</g>
</g>
</svg>
